<?xml version="1.0" encoding="UTF-8"?>
<!DOCTYPE svg PUBLIC "-//W3C//DTD SVG 1.1//EN" "http://www.w3.org/Graphics/SVG/1.1/DTD/svg11.dtd">
<svg xmlns="http://www.w3.org/2000/svg" version="1.1" width="862px" height="862px" style="shape-rendering:geometricPrecision; text-rendering:geometricPrecision; image-rendering:optimizeQuality; fill-rule:evenodd; clip-rule:evenodd" xmlns:xlink="http://www.w3.org/1999/xlink">
<g><path style="opacity:0.994" fill="#1d1816" d="M 567.5,264.5 C 567.427,266.027 568.094,267.027 569.5,267.5C 570.833,268.167 571.833,269.167 572.5,270.5C 572.427,272.027 573.094,273.027 574.5,273.5C 576.786,276.463 578.619,279.796 580,283.5C 581.333,288.167 582.667,292.833 584,297.5C 600.968,293.905 616.801,296.738 631.5,306C 657.957,323.456 680.123,345.29 698,371.5C 700.529,375.926 702.362,380.592 703.5,385.5C 703.41,388.152 704.076,390.485 705.5,392.5C 706.37,394.032 706.036,395.532 704.5,397C 701.814,398.368 699.147,399.701 696.5,401C 687.337,403.06 678.337,403.893 669.5,403.5C 671.81,407.254 673.643,411.254 675,415.5C 676.619,423.927 678.619,432.26 681,440.5C 682.454,454.02 679.787,466.687 673,478.5C 663.749,491.086 652.582,501.586 639.5,510C 630.893,513.302 622.893,517.635 615.5,523C 597.029,529.157 579.029,536.491 561.5,545C 545.683,550.606 529.683,555.606 513.5,560C 527.668,574.176 543.001,586.843 559.5,598C 576.758,613.656 588.591,632.823 595,655.5C 600.246,671.481 603.746,687.814 605.5,704.5C 615.856,702.179 626.356,700.846 637,700.5C 653.9,703.09 670.9,704.757 688,705.5C 707.617,704.722 725.784,699.222 742.5,689C 757.923,678.567 772.423,667.067 786,654.5C 787.653,654.82 788.653,655.82 789,657.5C 790.41,661.976 791.577,666.476 792.5,671C 792.058,695.003 785.891,717.503 774,738.5C 761.43,755.698 744.596,766.531 723.5,771C 714.162,773.335 704.828,775.668 695.5,778C 672.316,777.979 649.649,781.312 627.5,788C 631.324,793.922 636.657,797.922 643.5,800C 646.319,802.72 645.986,805.053 642.5,807C 635.644,812.007 627.978,814.507 619.5,814.5C 615.167,814.5 610.833,814.5 606.5,814.5C 606.263,815.791 606.596,816.791 607.5,817.5C 609.143,819.708 608.81,821.541 606.5,823C 599.093,824.492 591.593,825.325 584,825.5C 570.833,824.357 557.666,823.19 544.5,822C 528.753,817.882 515.253,810.049 504,798.5C 495.911,789.336 489.577,779.003 485,767.5C 473.056,772.575 460.556,774.908 447.5,774.5C 441.513,773.858 435.513,773.358 429.5,773C 427,772.625 424.667,771.792 422.5,770.5C 418.78,774.733 415.613,779.4 413,784.5C 396.732,800.487 377.065,808.487 354,808.5C 349.103,808.068 344.269,807.234 339.5,806C 337.709,805.585 336.376,804.585 335.5,803C 338.138,800.346 341.138,798.18 344.5,796.5C 345.973,795.928 347.307,795.095 348.5,794C 346.609,793.797 344.943,794.297 343.5,795.5C 334.515,796.911 325.515,796.744 316.5,795C 304.562,791.925 299.562,784.425 301.5,772.5C 312.272,769.781 321.939,764.947 330.5,758C 319.87,750.041 313.37,739.541 311,726.5C 307.602,710.123 307.769,693.789 311.5,677.5C 312.793,675.636 312.793,673.636 311.5,671.5C 310.893,671.624 310.56,671.957 310.5,672.5C 309.013,673.804 307.346,674.97 305.5,676C 298.059,677.01 291.059,675.843 284.5,672.5C 275.52,664.574 271.187,654.574 271.5,642.5C 272.908,618.525 282.242,598.358 299.5,582C 310.392,573.408 322.392,571.241 335.5,575.5C 336.947,576.885 337.947,576.552 338.5,574.5C 338.433,573.041 338.766,571.708 339.5,570.5C 340.757,569.377 340.424,568.711 338.5,568.5C 326.038,567.642 313.704,565.808 301.5,563C 279.858,557.675 258.525,551.341 237.5,544C 217.724,535.619 199.39,524.952 182.5,512C 179.629,509.297 176.962,506.464 174.5,503.5C 174.027,502.094 173.027,501.427 171.5,501.5C 155.808,488.291 146.475,471.458 143.5,451C 144.485,443.505 144.985,436.005 145,428.5C 139.772,431.396 134.272,432.062 128.5,430.5C 127.063,426.472 126.397,422.305 126.5,418C 128.512,388.142 139.012,361.642 158,338.5C 167.466,327.852 178.966,320.352 192.5,316C 198.537,315.303 204.537,315.47 210.5,316.5C 212.5,305.171 217.167,295.171 224.5,286.5C 225.906,286.027 226.573,285.027 226.5,283.5C 228.616,277.549 231.783,272.215 236,267.5C 246.355,255.578 258.188,245.412 271.5,237C 347.364,211.021 424.364,207.021 502.5,225C 512.956,228.227 522.956,232.56 532.5,238C 541.167,244.671 550.501,250.338 560.5,255C 562.476,258.463 564.81,261.63 567.5,264.5 Z"/></g>
<g><path style="opacity:1" fill="#bf4929" d="M 689.5,370.5 C 691.143,387.025 683.81,394.191 667.5,392C 659.85,390.226 652.517,387.893 645.5,385C 647.911,386.955 650.411,388.789 653,390.5C 653.6,392.91 654.766,394.91 656.5,396.5C 658.725,400.235 661.558,403.568 665,406.5C 667.332,409.822 668.498,413.489 668.5,417.5C 664.857,445.287 652.857,468.787 632.5,488C 612.937,503.194 591.603,515.527 568.5,525C 543.245,532.311 518.245,539.977 493.5,548C 469.713,552.803 445.713,555.97 421.5,557.5C 399.511,556.721 377.511,556.221 355.5,556C 300.326,547.075 248.326,529.075 199.5,502C 188.352,493.999 177.852,485.166 168,475.5C 163.667,469.833 159.333,464.167 155,458.5C 152.079,451.45 150.912,444.117 151.5,436.5C 153.967,428.619 154.967,420.619 154.5,412.5C 153.817,412.863 153.15,413.196 152.5,413.5C 148.453,418.44 143.286,421.44 137,422.5C 134.013,422.01 132.18,420.343 131.5,417.5C 133.163,407.851 134.663,398.185 136,388.5C 141,378.167 146,367.833 151,357.5C 160.956,339.874 175.456,327.707 194.5,321C 201.21,320.952 207.877,320.786 214.5,320.5C 215.486,315.039 216.986,309.705 219,304.5C 225.064,295.43 230.731,286.097 236,276.5C 248.038,261.454 262.205,248.954 278.5,239C 321.88,226.104 366.213,219.27 411.5,218.5C 429.662,220.888 447.996,222.721 466.5,224C 488.815,226.061 509.815,232.394 529.5,243C 538.665,249.084 547.998,254.917 557.5,260.5C 569.837,272.665 577.337,287.332 580,304.5C 582.319,310.473 585.653,315.807 590,320.5C 590.167,320 590.333,319.5 590.5,319C 588.062,313.631 586.062,308.131 584.5,302.5C 599.892,299.165 614.225,301.665 627.5,310C 633.833,314.333 640.167,318.667 646.5,323C 656.03,332.864 665.863,342.364 676,351.5C 681.01,357.54 685.51,363.874 689.5,370.5 Z"/></g>
<g><path style="opacity:0.725" fill="#7b7b7f" d="M 567.5,264.5 C 568.906,264.973 569.573,265.973 569.5,267.5C 568.094,267.027 567.427,266.027 567.5,264.5 Z"/></g>
<g><path style="opacity:0.545" fill="#7b7c80" d="M 572.5,270.5 C 573.906,270.973 574.573,271.973 574.5,273.5C 573.094,273.027 572.427,272.027 572.5,270.5 Z"/></g>
<g><path style="opacity:0.486" fill="#7c7c81" d="M 226.5,283.5 C 226.573,285.027 225.906,286.027 224.5,286.5C 224.427,284.973 225.094,283.973 226.5,283.5 Z"/></g>
<g><path style="opacity:1" fill="#120d0c" d="M 618.5,337.5 C 624.632,343.789 631.299,349.623 638.5,355C 649.79,362.609 661.79,368.943 674.5,374C 677.242,375.886 678.909,378.386 679.5,381.5C 675.869,381.84 672.536,381.006 669.5,379C 657.665,371.917 645.998,364.583 634.5,357C 629.097,352.719 624.263,347.886 620,342.5C 618.991,340.975 618.491,339.308 618.5,337.5 Z"/></g>
<g><path style="opacity:1" fill="#914423" d="M 689.5,370.5 C 695.642,377.437 698.976,385.437 699.5,394.5C 689.842,398.206 679.842,399.373 669.5,398C 665.09,396.449 660.757,394.949 656.5,393.5C 656.5,394.5 656.5,395.5 656.5,396.5C 654.766,394.91 653.6,392.91 653,390.5C 650.411,388.789 647.911,386.955 645.5,385C 652.517,387.893 659.85,390.226 667.5,392C 683.81,394.191 691.143,387.025 689.5,370.5 Z"/></g>
<g><path style="opacity:1" fill="#100a09" d="M 147.5,382.5 C 148.993,383.312 149.66,384.645 149.5,386.5C 148.225,393.816 147.058,401.15 146,408.5C 144.374,411.128 142.374,413.461 140,415.5C 141.168,404.157 143.668,393.157 147.5,382.5 Z"/></g>
<g><path style="opacity:0.686" fill="#626367" d="M 703.5,385.5 C 704.924,387.515 705.59,389.848 705.5,392.5C 704.076,390.485 703.41,388.152 703.5,385.5 Z"/></g>
<g><path style="opacity:1" fill="#904423" d="M 152.5,413.5 C 151.147,417.032 149.147,420.199 146.5,423C 142.539,424.598 138.539,426.098 134.5,427.5C 132.024,424.717 131.024,421.384 131.5,417.5C 132.18,420.343 134.013,422.01 137,422.5C 143.286,421.44 148.453,418.44 152.5,413.5 Z"/></g>
<g><path style="opacity:1" fill="#914422" d="M 668.5,417.5 C 669.586,417.62 670.253,418.287 670.5,419.5C 672.505,428.85 674.505,438.183 676.5,447.5C 675.399,460.687 670.732,472.354 662.5,482.5C 657.167,487.167 652.167,492.167 647.5,497.5C 636.091,503.71 624.757,510.21 613.5,517C 606.363,518.934 599.363,521.268 592.5,524C 536.568,551.456 477.401,565.956 415,567.5C 386.535,565.415 358.035,563.915 329.5,563C 288.931,556.527 250.265,544.193 213.5,526C 189.858,513.027 170.692,495.194 156,472.5C 149.589,460.938 148.089,448.938 151.5,436.5C 150.912,444.117 152.079,451.45 155,458.5C 159.333,464.167 163.667,469.833 168,475.5C 177.852,485.166 188.352,493.999 199.5,502C 248.326,529.075 300.326,547.075 355.5,556C 377.511,556.221 399.511,556.721 421.5,557.5C 445.713,555.97 469.713,552.803 493.5,548C 518.245,539.977 543.245,532.311 568.5,525C 591.603,515.527 612.937,503.194 632.5,488C 652.857,468.787 664.857,445.287 668.5,417.5 Z"/></g>
<g><path style="opacity:1" fill="#361a0d" d="M 662.5,482.5 C 658.5,488.5 653.5,493.5 647.5,497.5C 652.167,492.167 657.167,487.167 662.5,482.5 Z"/></g>
<g><path style="opacity:0.718" fill="#7d7d82" d="M 171.5,501.5 C 173.027,501.427 174.027,502.094 174.5,503.5C 172.973,503.573 171.973,502.906 171.5,501.5 Z"/></g>
<g><path style="opacity:1" fill="#904422" d="M 478.5,664.5 C 479.166,667.689 479.833,671.023 480.5,674.5C 491.766,680.708 502.099,679.541 511.5,671C 512.5,670.333 513.5,670.333 514.5,671C 512.476,676.438 510.142,681.772 507.5,687C 510.8,688.879 514.134,688.879 517.5,687C 534.375,674.082 542.875,656.915 543,635.5C 540.721,625.964 535.554,618.464 527.5,613C 517.543,605.023 506.21,600.356 493.5,599C 483.452,595.672 478.452,599.172 478.5,609.5C 479.237,614.315 480.57,618.982 482.5,623.5C 479.479,625.423 476.146,626.423 472.5,626.5C 472.923,625.735 473.257,624.902 473.5,624C 469.779,615.709 469.779,607.543 473.5,599.5C 473.167,598.5 472.5,597.833 471.5,597.5C 469.364,598.472 468.197,600.139 468,602.5C 467.081,608.966 467.581,615.299 469.5,621.5C 459.016,625.31 450.516,631.643 444,640.5C 430.726,618.269 417.226,596.269 403.5,574.5C 414.63,572.841 425.963,571.841 437.5,571.5C 461.059,569.586 484.392,566.42 507.5,562C 515.432,567.928 522.765,574.595 529.5,582C 535,586.167 540.5,590.333 546,594.5C 546.333,596.047 545.833,597.38 544.5,598.5C 548.847,601.371 552.014,605.371 554,610.5C 567.091,647.562 556.924,676.395 523.5,697C 501.368,707.015 486.535,700.515 479,677.5C 478.501,673.179 478.334,668.846 478.5,664.5 Z"/></g>
<g><path style="opacity:0.118" fill="#c1c1c8" d="M 338.5,568.5 C 340.424,568.711 340.757,569.377 339.5,570.5C 339.167,569.833 338.833,569.167 338.5,568.5 Z"/></g>
<g><path style="opacity:1" fill="#bf4929" d="M 342.5,618.5 C 341.534,620.792 340.867,623.292 340.5,626C 342.271,635.937 343.604,645.937 344.5,656C 344.554,658.873 343.888,661.54 342.5,664C 336.849,663.188 331.516,661.188 326.5,658C 319.953,652.954 314.286,647.12 309.5,640.5C 307.682,644.136 305.849,647.802 304,651.5C 301.757,653.282 299.257,653.782 296.5,653C 286.625,647.741 283.125,639.575 286,628.5C 287.608,614.006 293.275,601.339 303,590.5C 307.998,584.965 313.498,580.298 319.5,576.5C 326.045,576.302 332.045,577.969 337.5,581.5C 337.712,583.384 338.712,584.717 340.5,585.5C 341.487,582.232 341.82,578.898 341.5,575.5C 342.216,573.444 342.883,571.277 343.5,569C 347.601,568.516 351.601,569.016 355.5,570.5C 349.146,585.93 344.812,601.93 342.5,618.5 Z"/></g>
<g><path style="opacity:1" fill="#b88a7d" d="M 360.5,674.5 C 365.636,683.259 371.636,691.426 378.5,699C 384.877,703.189 391.544,706.855 398.5,710C 417.397,716.636 424.897,710.136 421,690.5C 413.216,671.683 409.383,652.016 409.5,631.5C 398.985,626.788 387.985,624.121 376.5,623.5C 367.747,622.705 360.081,625.039 353.5,630.5C 351.158,627.493 348.825,624.493 346.5,621.5C 349.487,606.708 352.987,592.041 357,577.5C 357.93,575.064 359.097,572.731 360.5,570.5C 364.795,569.339 369.129,569.172 373.5,570C 381.953,570.635 390.287,571.801 398.5,573.5C 412.833,597.5 427.167,621.5 441.5,645.5C 436.166,659.522 436.333,673.522 442,687.5C 449.259,695.897 458.426,699.063 469.5,697C 472.798,696.513 475.798,695.347 478.5,693.5C 480.786,693.96 482.119,695.293 482.5,697.5C 479.307,719.149 479.973,740.649 484.5,762C 484.167,762.5 483.833,763 483.5,763.5C 454.121,772.925 425.787,770.425 398.5,756C 385.188,748.027 373.021,738.527 362,727.5C 358.333,721.833 354.667,716.167 351,710.5C 348.591,702.618 346.757,694.618 345.5,686.5C 351.447,683.692 356.447,679.692 360.5,674.5 Z"/></g>
<g><path style="opacity:1" fill="#351a0d" d="M 437.5,571.5 C 425.963,571.841 414.63,572.841 403.5,574.5C 402.596,573.791 402.263,572.791 402.5,571.5C 414.167,571.5 425.833,571.5 437.5,571.5 Z"/></g>
<g><path style="opacity:0.553" fill="#8c8d91" d="M 338.5,574.5 C 337.947,576.552 336.947,576.885 335.5,575.5C 336.609,575.443 337.609,575.11 338.5,574.5 Z"/></g>
<g><path style="opacity:1" fill="#6b3022" d="M 341.5,575.5 C 341.82,578.898 341.487,582.232 340.5,585.5C 338.712,584.717 337.712,583.384 337.5,581.5C 338.458,581.953 339.292,582.619 340,583.5C 340.183,580.635 340.683,577.969 341.5,575.5 Z"/></g>
<g><path style="opacity:1" fill="#904422" d="M 319.5,576.5 C 313.498,580.298 307.998,584.965 303,590.5C 293.275,601.339 287.608,614.006 286,628.5C 283.125,639.575 286.625,647.741 296.5,653C 299.257,653.782 301.757,653.282 304,651.5C 305.849,647.802 307.682,644.136 309.5,640.5C 314.286,647.12 319.953,652.954 326.5,658C 331.516,661.188 336.849,663.188 342.5,664C 343.888,661.54 344.554,658.873 344.5,656C 343.604,645.937 342.271,635.937 340.5,626C 340.867,623.292 341.534,620.792 342.5,618.5C 342.656,621.066 342.322,623.566 341.5,626C 354.654,638.43 359.821,653.597 357,671.5C 343.497,686.123 329.83,686.123 316,671.5C 316.27,667.131 316.104,662.798 315.5,658.5C 312.756,662.751 309.422,666.585 305.5,670C 299.786,671.57 294.12,671.237 288.5,669C 278.166,659.382 274.332,647.548 277,633.5C 280.837,610.292 292.337,592.125 311.5,579C 313.909,577.293 316.575,576.46 319.5,576.5 Z"/></g>
<g><path style="opacity:1" fill="#bf4929" d="M 478.5,664.5 C 477.698,663.115 477.031,663.282 476.5,665C 475.852,666.44 475.519,667.94 475.5,669.5C 474.09,678.893 468.423,683.893 458.5,684.5C 456.423,684.308 454.423,683.808 452.5,683C 448.306,679.402 444.972,675.235 442.5,670.5C 440.358,647.343 450.358,632.676 472.5,626.5C 476.146,626.423 479.479,625.423 482.5,623.5C 480.57,618.982 479.237,614.315 478.5,609.5C 478.452,599.172 483.452,595.672 493.5,599C 506.21,600.356 517.543,605.023 527.5,613C 535.554,618.464 540.721,625.964 543,635.5C 542.875,656.915 534.375,674.082 517.5,687C 514.134,688.879 510.8,688.879 507.5,687C 510.142,681.772 512.476,676.438 514.5,671C 513.5,670.333 512.5,670.333 511.5,671C 502.099,679.541 491.766,680.708 480.5,674.5C 479.833,671.023 479.166,667.689 478.5,664.5 Z"/></g>
<g><path style="opacity:1" fill="#bf4829" d="M 598.5,692.5 C 599.489,721.099 590.489,745.932 571.5,767C 560.734,776.049 548.4,781.882 534.5,784.5C 518.048,781.551 507.882,771.884 504,755.5C 503.528,748.944 502.695,742.444 501.5,736C 501.833,734.167 502.167,732.333 502.5,730.5C 514.579,739.962 527.245,740.796 540.5,733C 549.488,725.157 556.654,715.99 562,705.5C 563.632,700.97 564.632,696.304 565,691.5C 565.532,679.978 566.366,668.478 567.5,657C 567.295,651.63 566.628,646.463 565.5,641.5C 564.818,628.074 561.485,615.407 555.5,603.5C 556.002,602.479 556.668,602.312 557.5,603C 564.067,608.57 569.567,615.07 574,622.5C 585.833,644.496 593.999,667.829 598.5,692.5 Z"/></g>
<g><path style="opacity:1" fill="#d9ab97" d="M 360.5,674.5 C 363.081,665.176 362.914,655.842 360,646.5C 358.097,641.032 355.93,635.699 353.5,630.5C 360.081,625.039 367.747,622.705 376.5,623.5C 387.985,624.121 398.985,626.788 409.5,631.5C 409.383,652.016 413.216,671.683 421,690.5C 424.897,710.136 417.397,716.636 398.5,710C 391.544,706.855 384.877,703.189 378.5,699C 371.636,691.426 365.636,683.259 360.5,674.5 Z"/></g>
<g><path style="opacity:1" fill="#904422" d="M 565.5,641.5 C 566.628,646.463 567.295,651.63 567.5,657C 566.366,668.478 565.532,679.978 565,691.5C 564.632,696.304 563.632,700.97 562,705.5C 556.654,715.99 549.488,725.157 540.5,733C 527.245,740.796 514.579,739.962 502.5,730.5C 502.167,732.333 501.833,734.167 501.5,736C 502.695,742.444 503.528,748.944 504,755.5C 507.882,771.884 518.048,781.551 534.5,784.5C 548.4,781.882 560.734,776.049 571.5,767C 590.489,745.932 599.489,721.099 598.5,692.5C 602.271,711.126 600.771,729.459 594,747.5C 590.779,753.174 587.945,759.008 585.5,765C 585.755,766.326 586.422,767.326 587.5,768C 598.616,767.367 607.783,771.2 615,779.5C 618.98,786.624 623.814,793.124 629.5,799C 632.371,800.935 635.371,802.601 638.5,804C 627.231,809.772 615.231,812.105 602.5,811C 601.427,814.112 601.427,817.279 602.5,820.5C 584.783,820.736 567.116,819.903 549.5,818C 516.675,809.175 495.842,788.342 487,755.5C 483.667,736.832 483.667,718.165 487,699.5C 491.655,704.166 497.322,706.499 504,706.5C 532.966,702.548 551.966,686.548 561,658.5C 562.072,652.609 563.572,646.942 565.5,641.5 Z"/></g>
<g><path style="opacity:1" fill="#bf4828" d="M 786.5,679.5 C 781.529,695.318 773.362,709.318 762,721.5C 756.167,727.333 750.333,733.167 744.5,739C 711.07,759.026 675.07,766.693 636.5,762C 625.477,760.145 620.144,753.645 620.5,742.5C 620.859,735.918 622.359,729.585 625,723.5C 625.667,718.833 625.667,714.167 625,709.5C 624.308,708.975 623.808,708.308 623.5,707.5C 624.949,706.828 626.282,706.161 627.5,705.5C 639.063,704.809 650.396,705.976 661.5,709C 692.45,714.425 721.117,708.758 747.5,692C 760.32,681.85 773.153,671.683 786,661.5C 786.945,661.905 787.612,662.572 788,663.5C 788.841,669.091 788.341,674.424 786.5,679.5 Z"/></g>
<g><path style="opacity:0.18" fill="#9b9ca1" d="M 310.5,672.5 C 310.56,671.957 310.893,671.624 311.5,671.5C 312.793,673.636 312.793,675.636 311.5,677.5C 311.784,675.585 311.451,673.919 310.5,672.5 Z"/></g>
<g><path style="opacity:1" fill="#904422" d="M 475.5,669.5 C 475.399,675.951 475.899,682.284 477,688.5C 472.998,691.925 468.332,693.258 463,692.5C 453.344,693.516 447.01,689.516 444,680.5C 442.957,677.243 442.457,673.91 442.5,670.5C 444.972,675.235 448.306,679.402 452.5,683C 454.423,683.808 456.423,684.308 458.5,684.5C 468.423,683.893 474.09,678.893 475.5,669.5 Z"/></g>
<g><path style="opacity:1" fill="#904322" d="M 352.5,720.5 C 351.542,720.047 350.708,719.381 350,718.5C 349,720.5 348,722.5 347,724.5C 338.32,720.657 330.654,715.324 324,708.5C 322.417,720.502 325.084,731.502 332,741.5C 338.772,748.117 345.939,754.117 353.5,759.5C 344.653,759.441 336.986,756.441 330.5,750.5C 327.146,746.981 323.98,743.314 321,739.5C 312.829,719.599 311.496,699.266 317,678.5C 323.898,685.032 332.065,687.698 341.5,686.5C 342.041,694.666 343.541,702.666 346,710.5C 348.143,713.962 350.31,717.296 352.5,720.5 Z"/></g>
<g><path style="opacity:1" fill="#914422" d="M 786.5,679.5 C 785.44,701.282 778.94,721.282 767,739.5C 758.427,749.746 747.927,757.246 735.5,762C 720.034,766.783 704.367,770.783 688.5,774C 666.969,774.133 645.802,776.966 625,782.5C 621.769,780.603 619.102,777.936 617,774.5C 609.981,767.609 601.481,764.109 591.5,764C 601.553,746.955 606.22,728.455 605.5,708.5C 612.937,708.149 620.27,707.149 627.5,705.5C 626.282,706.161 624.949,706.828 623.5,707.5C 623.808,708.308 624.308,708.975 625,709.5C 625.667,714.167 625.667,718.833 625,723.5C 622.359,729.585 620.859,735.918 620.5,742.5C 620.144,753.645 625.477,760.145 636.5,762C 675.07,766.693 711.07,759.026 744.5,739C 750.333,733.167 756.167,727.333 762,721.5C 773.362,709.318 781.529,695.318 786.5,679.5 Z"/></g>
<g><path style="opacity:1" fill="#bf4928" d="M 352.5,720.5 C 354.255,723.68 356.255,726.68 358.5,729.5C 361.5,734.5 365.5,738.5 370.5,741.5C 372.806,743.139 374.806,745.139 376.5,747.5C 379.123,754.311 382.457,760.811 386.5,767C 376.659,767.776 367.326,765.943 358.5,761.5C 356.95,760.559 355.284,759.893 353.5,759.5C 345.939,754.117 338.772,748.117 332,741.5C 325.084,731.502 322.417,720.502 324,708.5C 330.654,715.324 338.32,720.657 347,724.5C 348,722.5 349,720.5 350,718.5C 350.708,719.381 351.542,720.047 352.5,720.5 Z"/></g>
<g><path style="opacity:1" fill="#592518" d="M 358.5,729.5 C 362.833,733.167 366.833,737.167 370.5,741.5C 365.5,738.5 361.5,734.5 358.5,729.5 Z"/></g>
<g><path style="opacity:1" fill="#904422" d="M 376.5,747.5 C 386.001,753.478 395.667,759.311 405.5,765C 408.56,765.848 411.56,766.848 414.5,768C 415.554,769.388 415.72,770.888 415,772.5C 403.245,790.64 386.411,800.474 364.5,802C 357.816,803.87 351.15,803.87 344.5,802C 353.524,795.983 360.691,788.483 366,779.5C 365.439,778.978 364.772,778.645 364,778.5C 361.062,779.283 358.896,780.95 357.5,783.5C 358.547,780.404 359.88,777.404 361.5,774.5C 351.037,772.068 340.87,768.735 331,764.5C 329.862,764.989 328.695,765.322 327.5,765.5C 330.385,763.969 333.052,761.969 335.5,759.5C 342.062,762.14 348.729,764.474 355.5,766.5C 356.442,766.392 357.275,766.059 358,765.5C 357.645,764.041 357.811,762.707 358.5,761.5C 367.326,765.943 376.659,767.776 386.5,767C 382.457,760.811 379.123,754.311 376.5,747.5 Z"/></g>
<g><path style="opacity:1" fill="#bf4929" d="M 357.5,783.5 C 353.849,784.659 350.515,786.326 347.5,788.5C 335.721,791.431 324.054,791.097 312.5,787.5C 310.873,785.37 309.04,783.37 307,781.5C 306.506,779.866 306.34,778.199 306.5,776.5C 308.553,776.598 310.22,775.931 311.5,774.5C 317.489,772.509 322.823,769.509 327.5,765.5C 328.695,765.322 329.862,764.989 331,764.5C 340.87,768.735 351.037,772.068 361.5,774.5C 359.88,777.404 358.547,780.404 357.5,783.5 Z"/></g>
<g><path style="opacity:1" fill="#6c2f1f" d="M 311.5,774.5 C 310.22,775.931 308.553,776.598 306.5,776.5C 306.34,778.199 306.506,779.866 307,781.5C 309.04,783.37 310.873,785.37 312.5,787.5C 306.834,785.49 304.5,781.49 305.5,775.5C 307.5,775.167 309.5,774.833 311.5,774.5 Z"/></g>
<g><path style="opacity:1" fill="#be4928" d="M 578.5,780.5 C 592.956,778.595 605.122,782.928 615,793.5C 615.688,794.332 615.521,794.998 614.5,795.5C 607.334,800.602 599.334,802.935 590.5,802.5C 590.692,805.601 591.358,808.601 592.5,811.5C 587.462,812.33 582.795,811.164 578.5,808C 572.243,803.287 566.076,798.454 560,793.5C 558.148,790.653 558.648,788.153 561.5,786C 567.137,783.682 572.803,781.849 578.5,780.5 Z"/></g>
<g><path style="opacity:1" fill="#542215" d="M 357.5,783.5 C 354.753,786.207 351.42,787.873 347.5,788.5C 350.515,786.326 353.849,784.659 357.5,783.5 Z"/></g>
<g><path style="opacity:0.165" fill="#a9aab0" d="M 344.5,796.5 C 344.5,795.833 344.167,795.5 343.5,795.5C 344.943,794.297 346.609,793.797 348.5,794C 347.307,795.095 345.973,795.928 344.5,796.5 Z"/></g>
<g><path style="opacity:0.282" fill="#a8a9af" d="M 619.5,814.5 C 615.232,814.869 611.232,815.869 607.5,817.5C 606.596,816.791 606.263,815.791 606.5,814.5C 610.833,814.5 615.167,814.5 619.5,814.5 Z"/></g>
</svg>
