
    <svg width="862" height="862" viewBox="0 0 862 862" fill="none" xmlns="http://www.w3.org/2000/svg">
        
<g><path style="opacity:1" fill="#f6f6e8" d="M -0.5,-0.5 C 286.833,-0.5 574.167,-0.5 861.5,-0.5C 861.5,286.833 861.5,574.167 861.5,861.5C 574.167,861.5 286.833,861.5 -0.5,861.5C -0.5,574.167 -0.5,286.833 -0.5,-0.5 Z"/></g>

        
        
<g><path style="opacity:0.995" fill="#0d0108" d="M 473.5,207.5 C 474.906,207.027 475.573,206.027 475.5,204.5C 504.858,171.312 541.525,150.812 585.5,143C 595.5,142.333 605.5,142.333 615.5,143C 635.085,147.195 654.085,153.195 672.5,161C 684.508,168.007 695.675,176.174 706,185.5C 718.296,204.303 719.463,223.636 709.5,243.5C 702.685,251.482 695.685,259.316 688.5,267C 694.886,266.122 701.386,265.622 708,265.5C 730.255,265.765 739.422,276.931 735.5,299C 732.443,310.782 726.776,321.115 718.5,330C 703.713,339.671 700.213,336.838 708,321.5C 708.533,312.097 705.7,303.93 699.5,297C 693.141,295.462 686.808,295.795 680.5,298C 671.181,302.329 661.514,305.662 651.5,308C 639.733,310.294 628.066,309.961 616.5,307C 601.803,301.15 597.636,291.317 604,277.5C 608.289,268.546 615.123,262.379 624.5,259C 634.556,256.738 644.222,253.404 653.5,249C 666.451,241.987 670.451,231.487 665.5,217.5C 660.121,218.006 654.787,218.839 649.5,220C 635.894,224.954 623.227,231.62 611.5,240C 600.368,249.464 589.534,259.297 579,269.5C 576.413,278.42 570.747,284.42 562,287.5C 539.83,286.332 518.663,281.166 498.5,272C 477.606,260.387 467.439,242.554 468,218.5C 469.188,214.387 471.021,210.72 473.5,207.5 Z"/></g>
<g><path style="opacity:1" fill="#5d0040" d="M 665.5,211.5 C 664.833,210.833 664.167,210.167 663.5,209.5C 656.996,202.592 653.329,194.258 652.5,184.5C 650.976,185.527 650.309,187.027 650.5,189C 651.085,197.335 654.418,204.168 660.5,209.5C 660.631,210.239 660.464,210.906 660,211.5C 656.971,211.719 653.804,211.386 650.5,210.5C 649.186,211.313 648.019,212.313 647,213.5C 643.505,212.894 640.005,212.56 636.5,212.5C 635.201,213.09 634.368,214.09 634,215.5C 627.802,214.645 621.468,215.312 615,217.5C 612.872,216.145 611.038,216.478 609.5,218.5C 603.69,212.225 598.856,205.225 595,197.5C 594.398,193.117 593.565,188.784 592.5,184.5C 591.914,184.709 591.414,185.043 591,185.5C 590.249,190.572 590.582,195.572 592,200.5C 595.603,207.257 599.77,213.591 604.5,219.5C 597.842,220.816 591.509,223.316 585.5,227C 578.086,231 571.086,235.5 564.5,240.5C 559.969,238.478 556.136,235.478 553,231.5C 548.605,225.434 544.605,219.1 541,212.5C 540.626,210.102 540.626,207.769 541,205.5C 540.282,204.549 539.449,204.383 538.5,205C 537.183,209.175 537.349,213.342 539,217.5C 543.667,224.167 548.333,230.833 553,237.5C 555.688,239.364 558.188,241.364 560.5,243.5C 556.477,247.697 551.81,251.197 546.5,254C 541.959,258.555 538.126,263.722 535,269.5C 534.097,270.701 532.931,271.535 531.5,272C 532.694,274.658 531.694,275.824 528.5,275.5C 510.948,272.975 496.114,265.308 484,252.5C 475.793,241.877 472.46,229.877 474,216.5C 479.044,208.449 485.211,201.283 492.5,195C 500.788,189.047 508.788,182.714 516.5,176C 537.633,162.269 560.633,153.269 585.5,149C 598.265,147.978 610.932,148.645 623.5,151C 635.167,154.667 646.833,158.333 658.5,162C 671.468,167.814 683.468,175.148 694.5,184C 707.681,195.516 712.848,210.016 710,227.5C 705.833,223.333 701.667,219.167 697.5,215C 687.093,211.199 676.427,210.032 665.5,211.5 Z"/></g>
<g><path style="opacity:0.995" fill="#0d0109" d="M 112.5,314.5 C 112.5,315.5 112.5,316.5 112.5,317.5C 110.833,317.5 109.167,317.5 107.5,317.5C 93.0443,315.87 82.211,308.87 75,296.5C 74.3333,289.833 74.3333,283.167 75,276.5C 78.8445,267.16 85.0112,259.827 93.5,254.5C 80.7205,242.664 77.5539,228.664 84,212.5C 113.08,174.018 151.58,158.852 199.5,167C 239.52,172.709 270.353,192.543 292,226.5C 294,233.167 294,239.833 292,246.5C 287.692,260.783 281.026,273.783 272,285.5C 262.038,293.783 250.872,299.949 238.5,304C 232.845,304.819 227.345,304.319 222,302.5C 221.424,300.623 221.591,298.789 222.5,297C 218.747,289.407 215.58,281.573 213,273.5C 203.563,260.398 193.063,248.231 181.5,237C 167.625,227.703 152.625,220.703 136.5,216C 132.833,215.333 129.167,215.333 125.5,216C 122.528,217.141 120.861,219.308 120.5,222.5C 122.316,224.817 124.316,226.984 126.5,229C 134.833,232.667 143.167,236.333 151.5,240C 161.408,247.205 171.575,254.038 182,260.5C 188.153,269.822 187.986,278.989 181.5,288C 171.767,294.339 161.434,295.339 150.5,291C 143.153,288.657 135.819,286.323 128.5,284C 114.435,281.747 107.602,287.58 108,301.5C 109.012,306.038 110.512,310.371 112.5,314.5 Z"/></g>
<g><path style="opacity:1" fill="#5d0040" d="M 280.5,260.5 C 273.408,262.325 265.908,263.992 258,265.5C 255.593,265.327 253.26,265.327 251,265.5C 250.064,263.292 248.398,261.958 246,261.5C 242.944,257.921 240.111,254.254 237.5,250.5C 241.447,244.27 244.613,237.604 247,230.5C 247.5,223.508 247.666,216.508 247.5,209.5C 245.876,209.36 244.71,210.027 244,211.5C 245.339,225.011 241.839,237.011 233.5,247.5C 232.448,247.649 231.448,247.483 230.5,247C 229.36,245.027 228.027,243.193 226.5,241.5C 219.996,238.664 213.996,234.997 208.5,230.5C 204.821,230.274 201.821,228.774 199.5,226C 197.187,225.338 194.854,224.838 192.5,224.5C 192.169,222.678 191.502,221.011 190.5,219.5C 192.977,209.974 194.144,200.307 194,190.5C 192.921,188.606 191.587,188.273 190,189.5C 190.235,199.811 188.735,209.811 185.5,219.5C 180.752,217.315 175.919,215.315 171,213.5C 170.667,213.833 170.333,214.167 170,214.5C 168.659,211.813 166.993,210.147 165,209.5C 164.586,209.957 164.086,210.291 163.5,210.5C 160.988,209.62 158.821,208.287 157,206.5C 155.004,207.341 153.171,207.008 151.5,205.5C 151.664,202.813 151.497,200.146 151,197.5C 150.29,196.027 149.124,195.36 147.5,195.5C 147.5,198.167 147.5,200.833 147.5,203.5C 138.79,203.16 130.123,201.493 121.5,198.5C 120.914,198.709 120.414,199.043 120,199.5C 119.261,198.426 118.261,197.759 117,197.5C 112.922,197.292 108.755,197.625 104.5,198.5C 118.15,183.538 135.15,174.705 155.5,172C 210.132,164.251 253.632,182.418 286,226.5C 287.555,231.382 287.888,236.382 287,241.5C 285.328,248.016 283.161,254.35 280.5,260.5 Z"/></g>
<g><path style="opacity:1" fill="#050004" d="M 663.5,209.5 C 662.5,209.5 661.5,209.5 660.5,209.5C 654.418,204.168 651.085,197.335 650.5,189C 650.309,187.027 650.976,185.527 652.5,184.5C 653.329,194.258 656.996,202.592 663.5,209.5 Z"/></g>
<g><path style="opacity:1" fill="#49003b" d="M 147.5,203.5 C 147.504,207.236 146.171,210.236 143.5,212.5C 138.959,210.82 134.293,209.653 129.5,209C 117.46,208.419 105.46,208.419 93.5,209C 96.3981,204.6 100.065,201.1 104.5,198.5C 108.755,197.625 112.922,197.292 117,197.5C 118.261,197.759 119.261,198.426 120,199.5C 120.414,199.043 120.914,198.709 121.5,198.5C 130.123,201.493 138.79,203.16 147.5,203.5 Z"/></g>
<g><path style="opacity:1" fill="#060003" d="M 564.5,240.5 C 568.956,242.892 573.623,245.058 578.5,247C 580.559,248.185 580.726,249.352 579,250.5C 572.926,247.865 566.76,245.532 560.5,243.5C 558.188,241.364 555.688,239.364 553,237.5C 548.333,230.833 543.667,224.167 539,217.5C 537.349,213.342 537.183,209.175 538.5,205C 539.449,204.383 540.282,204.549 541,205.5C 540.626,207.769 540.626,210.102 541,212.5C 544.605,219.1 548.605,225.434 553,231.5C 556.136,235.478 559.969,238.478 564.5,240.5 Z"/></g>
<g><path style="opacity:0.506" fill="#340427" d="M 475.5,204.5 C 475.573,206.027 474.906,207.027 473.5,207.5C 473.427,205.973 474.094,204.973 475.5,204.5 Z"/></g>
<g><path style="opacity:1" fill="#49003b" d="M 151.5,205.5 C 153.171,207.008 155.004,207.341 157,206.5C 158.821,208.287 160.988,209.62 163.5,210.5C 164.086,210.291 164.586,209.957 165,209.5C 166.993,210.147 168.659,211.813 170,214.5C 170.333,214.167 170.667,213.833 171,213.5C 175.919,215.315 180.752,217.315 185.5,219.5C 185.047,225.124 182.047,227.624 176.5,227C 168.001,221.777 159.001,217.61 149.5,214.5C 149.167,214.167 148.833,213.833 148.5,213.5C 149.516,210.718 150.516,208.051 151.5,205.5 Z"/></g>
<g><path style="opacity:1" fill="#49003b" d="M 660.5,209.5 C 661.5,209.5 662.5,209.5 663.5,209.5C 664.167,210.167 664.833,210.833 665.5,211.5C 649.811,214.078 634.978,219.411 621,227.5C 616.705,225.032 612.871,222.032 609.5,218.5C 611.038,216.478 612.872,216.145 615,217.5C 621.468,215.312 627.802,214.645 634,215.5C 634.368,214.09 635.201,213.09 636.5,212.5C 640.005,212.56 643.505,212.894 647,213.5C 648.019,212.313 649.186,211.313 650.5,210.5C 653.804,211.386 656.971,211.719 660,211.5C 660.464,210.906 660.631,210.239 660.5,209.5 Z"/></g>
<g><path style="opacity:1" fill="#49003b" d="M 117.5,251.5 C 118.239,251.631 118.906,251.464 119.5,251C 112.904,246.096 106.737,240.596 101,234.5C 98.1181,229.119 96.6181,223.619 96.5,218C 99.4106,217.302 100.077,215.802 98.5,213.5C 105.443,212.206 112.443,212.206 119.5,213.5C 113.845,219.7 114.178,225.534 120.5,231C 129.944,236.107 139.611,240.774 149.5,245C 154.328,248.581 159.328,251.915 164.5,255C 168.833,258 168.5,260.333 163.5,262C 159.5,262.667 155.5,262.667 151.5,262C 140.336,257.554 129.003,254.054 117.5,251.5 Z"/></g>
<g><path style="opacity:1" fill="#5b0040" d="M 98.5,213.5 C 100.077,215.802 99.4106,217.302 96.5,218C 96.6181,223.619 98.1181,229.119 101,234.5C 106.737,240.596 112.904,246.096 119.5,251C 118.906,251.464 118.239,251.631 117.5,251.5C 111.771,251.212 106.104,251.546 100.5,252.5C 87.8447,244.041 83.3447,232.374 87,217.5C 87.5,216.333 88.3333,215.5 89.5,215C 92.4781,214.304 95.4781,213.804 98.5,213.5 Z"/></g>
<g><path style="opacity:1" fill="#49003c" d="M 696.5,222.5 C 695.153,225.681 694.32,229.014 694,232.5C 691.12,238.482 687.787,244.148 684,249.5C 674.161,258.884 663.994,267.051 653.5,274C 653.728,274.399 654.062,274.565 654.5,274.5C 647.518,277.324 640.518,277.157 633.5,274C 630.277,270.888 629.777,267.388 632,263.5C 643.993,260.67 654.993,255.67 665,248.5C 672.653,239.202 674.487,228.868 670.5,217.5C 671.438,216.447 672.605,215.78 674,215.5C 679.473,216.455 684.973,217.289 690.5,218C 692.747,219.277 694.747,220.777 696.5,222.5 Z"/></g>
<g><path style="opacity:1" fill="#49003c" d="M 604.5,219.5 C 607.944,223.061 611.944,225.894 616.5,228C 617.451,228.718 617.617,229.551 617,230.5C 603.218,240.56 590.218,251.56 578,263.5C 574.501,267.672 571.834,272.338 570,277.5C 568.5,279 567,280.5 565.5,282C 552.853,281.115 540.52,278.949 528.5,275.5C 531.694,275.824 532.694,274.658 531.5,272C 532.931,271.535 534.097,270.701 535,269.5C 538.126,263.722 541.959,258.555 546.5,254C 551.81,251.197 556.477,247.697 560.5,243.5C 566.76,245.532 572.926,247.865 579,250.5C 580.726,249.352 580.559,248.185 578.5,247C 573.623,245.058 568.956,242.892 564.5,240.5C 571.086,235.5 578.086,231 585.5,227C 591.509,223.316 597.842,220.816 604.5,219.5 Z"/></g>
<g><path style="opacity:1" fill="#49003c" d="M 190.5,219.5 C 191.502,221.011 192.169,222.678 192.5,224.5C 194.854,224.838 197.187,225.338 199.5,226C 201.821,228.774 204.821,230.274 208.5,230.5C 213.996,234.997 219.996,238.664 226.5,241.5C 228.027,243.193 229.36,245.027 230.5,247C 231.448,247.483 232.448,247.649 233.5,247.5C 229.168,257.739 221.668,262.072 211,260.5C 203.413,249.577 194.413,239.91 184,231.5C 186.381,227.746 188.548,223.746 190.5,219.5 Z"/></g>
<g><path style="opacity:1" fill="#5b0040" d="M 696.5,222.5 C 704.085,225.669 706.918,231.335 705,239.5C 698.005,250.307 689.505,259.807 679.5,268C 671.395,270.988 663.062,273.155 654.5,274.5C 654.062,274.565 653.728,274.399 653.5,274C 663.994,267.051 674.161,258.884 684,249.5C 687.787,244.148 691.12,238.482 694,232.5C 694.32,229.014 695.153,225.681 696.5,222.5 Z"/></g>
<g><path style="opacity:1" fill="#49003c" d="M 237.5,250.5 C 240.111,254.254 242.944,257.921 246,261.5C 248.398,261.958 250.064,263.292 251,265.5C 253.26,265.327 255.593,265.327 258,265.5C 265.908,263.992 273.408,262.325 280.5,260.5C 277.146,269.373 272.146,277.207 265.5,284C 258.833,288 252.167,292 245.5,296C 240.066,298.239 234.399,299.406 228.5,299.5C 228.322,296.784 227.822,294.117 227,291.5C 223.518,285.533 220.851,279.199 219,272.5C 217.204,269.073 215.037,265.906 212.5,263C 215.652,264.186 218.985,264.519 222.5,264C 228.967,261.028 233.967,256.528 237.5,250.5 Z"/></g>
<g><path style="opacity:1" fill="#5c0040" d="M 179.5,268.5 C 179.489,270.017 178.823,271.184 177.5,272C 175.028,273.46 172.361,274.46 169.5,275C 168.953,275.925 168.287,276.758 167.5,277.5C 160.548,276.548 153.882,274.714 147.5,272C 141.367,271.982 135.2,271.149 129,269.5C 126.667,270.167 124.333,270.833 122,271.5C 121.667,270.833 121.333,270.167 121,269.5C 120.409,272.145 119.075,272.811 117,271.5C 111.035,273.067 105.535,275.567 100.5,279C 100.833,279.333 101.167,279.667 101.5,280C 99.5,281.667 97.5,283.333 95.5,285C 95.8333,285.333 96.1667,285.667 96.5,286C 95.5399,287.419 94.7065,288.919 94,290.5C 93.7685,294.555 93.2685,298.555 92.5,302.5C 93.2739,303.711 94.1072,303.711 95,302.5C 95.484,304.193 94.984,305.527 93.5,306.5C 80.0563,300.938 75.8896,291.271 81,277.5C 83.3581,281.358 86.5248,284.358 90.5,286.5C 91.5827,285.635 91.7494,284.635 91,283.5C 86.2333,280.291 83.8999,275.958 84,270.5C 87.8,264.533 92.9666,260.2 99.5,257.5C 100.142,261.023 101.308,264.356 103,267.5C 104.808,269.843 106.974,270.51 109.5,269.5C 105.328,266.152 103.661,261.819 104.5,256.5C 120.195,257.005 135.195,260.505 149.5,267C 158.355,268.992 166.189,267.159 173,261.5C 176.74,262.405 178.906,264.739 179.5,268.5 Z"/></g>
<g><path style="opacity:1" fill="#5c0040" d="M 680.5,283.5 C 679.778,283.918 679.278,284.584 679,285.5C 678.586,285.043 678.086,284.709 677.5,284.5C 674.045,285.767 670.545,286.767 667,287.5C 665.807,285.557 664.307,285.724 662.5,288C 659.574,288.218 656.74,288.718 654,289.5C 653.667,289.167 653.333,288.833 653,288.5C 652.228,289.849 651.061,290.682 649.5,291C 640.501,291.385 631.668,291.552 623,291.5C 615.686,290.53 610.853,287.197 608.5,281.5C 611.821,273.346 617.655,267.68 626,264.5C 625.677,272.379 629.177,277.545 636.5,280C 641.799,281.145 647.132,281.478 652.5,281C 662.989,277.877 673.656,275.71 684.5,274.5C 684.498,278.165 683.165,281.165 680.5,283.5 Z"/></g>
<g><path style="opacity:1" fill="#49003c" d="M 179.5,268.5 C 182.568,274.585 181.568,280.085 176.5,285C 168.662,287.967 160.662,288.3 152.5,286C 145.153,283.657 137.819,281.323 130.5,279C 110.008,275.828 101.175,284.328 104,304.5C 104.642,306.762 105.475,308.929 106.5,311C 101.714,310.794 97.381,309.294 93.5,306.5C 94.984,305.527 95.484,304.193 95,302.5C 94.1072,303.711 93.2739,303.711 92.5,302.5C 93.2685,298.555 93.7685,294.555 94,290.5C 94.7065,288.919 95.5399,287.419 96.5,286C 96.1667,285.667 95.8333,285.333 95.5,285C 97.5,283.333 99.5,281.667 101.5,280C 101.167,279.667 100.833,279.333 100.5,279C 105.535,275.567 111.035,273.067 117,271.5C 119.075,272.811 120.409,272.145 121,269.5C 121.333,270.167 121.667,270.833 122,271.5C 124.333,270.833 126.667,270.167 129,269.5C 135.2,271.149 141.367,271.982 147.5,272C 153.882,274.714 160.548,276.548 167.5,277.5C 168.287,276.758 168.953,275.925 169.5,275C 172.361,274.46 175.028,273.46 177.5,272C 178.823,271.184 179.489,270.017 179.5,268.5 Z"/></g>
<g><path style="opacity:1" fill="#5c0040" d="M 720.5,318.5 C 719.305,318.134 718.639,317.301 718.5,316C 719.71,311.217 719.043,306.717 716.5,302.5C 716.833,301.833 717.167,301.167 717.5,300.5C 716.738,300.089 715.738,299.923 714.5,300C 715.634,298.984 715.301,298.317 713.5,298C 714.458,296.853 714.125,295.853 712.5,295C 713.641,294.259 713.641,293.425 712.5,292.5C 710.291,291.937 708.791,290.604 708,288.5C 707.667,289.167 707.333,289.833 707,290.5C 700.892,284.874 693.392,282.874 684.5,284.5C 686.318,280.653 687.984,276.82 689.5,273C 698.793,271.558 708.126,271.224 717.5,272C 720.446,272.806 723.112,274.139 725.5,276C 725.964,278.405 726.131,280.905 726,283.5C 728.071,280.584 729.405,280.918 730,284.5C 731.392,297.151 728.225,308.484 720.5,318.5 Z"/></g>
<g><path style="opacity:1" fill="#49003b" d="M 608.5,281.5 C 610.853,287.197 615.686,290.53 623,291.5C 631.668,291.552 640.501,291.385 649.5,291C 651.061,290.682 652.228,289.849 653,288.5C 653.333,288.833 653.667,289.167 654,289.5C 656.74,288.718 659.574,288.218 662.5,288C 664.307,285.724 665.807,285.557 667,287.5C 670.545,286.767 674.045,285.767 677.5,284.5C 678.086,284.709 678.586,285.043 679,285.5C 679.278,284.584 679.778,283.918 680.5,283.5C 681.211,285.842 682.544,286.175 684.5,284.5C 693.392,282.874 700.892,284.874 707,290.5C 707.333,289.833 707.667,289.167 708,288.5C 708.791,290.604 710.291,291.937 712.5,292.5C 713.641,293.425 713.641,294.259 712.5,295C 714.125,295.853 714.458,296.853 713.5,298C 715.301,298.317 715.634,298.984 714.5,300C 715.738,299.923 716.738,300.089 717.5,300.5C 717.167,301.167 716.833,301.833 716.5,302.5C 719.043,306.717 719.71,311.217 718.5,316C 718.639,317.301 719.305,318.134 720.5,318.5C 718.252,322.254 715.419,325.588 712,328.5C 714.926,315.856 712.592,304.19 705,293.5C 690.942,288.92 677.442,290.42 664.5,298C 651.228,302.848 637.561,304.515 623.5,303C 617.013,301.508 611.513,298.341 607,293.5C 604.727,289.059 605.227,285.059 608.5,281.5 Z"/></g>
<g><path style="opacity:0.749" fill="#26061e" d="M 112.5,314.5 C 113.434,315.568 113.768,316.901 113.5,318.5C 111.265,318.795 109.265,318.461 107.5,317.5C 109.167,317.5 110.833,317.5 112.5,317.5C 112.5,316.5 112.5,315.5 112.5,314.5 Z"/></g>

        
<g><path style="opacity:0.998" fill="#191919" d="M 567.5,264.5 C 567.427,266.027 568.094,267.027 569.5,267.5C 572.889,269.725 575.389,272.725 577,276.5C 579.793,283.332 582.126,290.332 584,297.5C 600.968,293.905 616.801,296.738 631.5,306C 655.874,322.039 676.708,341.873 694,365.5C 699.911,374.23 704.077,383.73 706.5,394C 702.842,398.302 698.175,400.969 692.5,402C 684.965,403.55 677.465,403.716 670,402.5C 671.622,406.676 673.289,411.01 675,415.5C 676.619,423.927 678.619,432.26 681,440.5C 682.454,454.02 679.787,466.687 673,478.5C 663.749,491.086 652.582,501.586 639.5,510C 630.893,513.302 622.893,517.635 615.5,523C 597.029,529.157 579.029,536.491 561.5,545C 545.683,550.606 529.683,555.606 513.5,560C 521.167,567 528.833,574 536.5,581C 541.889,585.389 547.556,589.389 553.5,593C 559.667,598.5 565.833,604 572,609.5C 578.423,618.674 584.09,628.34 589,638.5C 598.788,663.109 604.621,688.609 606.5,715C 605.825,731.869 601.492,747.703 593.5,762.5C 592.711,762.783 592.044,763.283 591.5,764C 593.134,764.494 594.801,764.66 596.5,764.5C 603.201,764.682 609.201,766.849 614.5,771C 619.719,777.218 624.552,783.718 629,790.5C 633.064,794.786 637.897,797.952 643.5,800C 646.319,802.72 645.986,805.053 642.5,807C 635.644,812.007 627.978,814.507 619.5,814.5C 615.167,814.5 610.833,814.5 606.5,814.5C 606.263,815.791 606.596,816.791 607.5,817.5C 609.143,819.708 608.81,821.541 606.5,823C 599.093,824.492 591.593,825.325 584,825.5C 570.833,824.357 557.666,823.19 544.5,822C 528.753,817.882 515.253,810.049 504,798.5C 495.911,789.336 489.577,779.003 485,767.5C 473.056,772.575 460.556,774.908 447.5,774.5C 441.513,773.858 435.513,773.358 429.5,773C 427,772.625 424.667,771.792 422.5,770.5C 418.78,774.733 415.613,779.4 413,784.5C 396.732,800.487 377.065,808.487 354,808.5C 349.103,808.068 344.269,807.234 339.5,806C 337.709,805.585 336.376,804.585 335.5,803C 338.138,800.346 341.138,798.18 344.5,796.5C 345.973,795.928 347.307,795.095 348.5,794C 346.609,793.797 344.943,794.297 343.5,795.5C 334.515,796.911 325.515,796.744 316.5,795C 304.562,791.925 299.562,784.425 301.5,772.5C 312.272,769.781 321.939,764.947 330.5,758C 319.87,750.041 313.37,739.541 311,726.5C 307.602,710.123 307.769,693.789 311.5,677.5C 312.793,675.636 312.793,673.636 311.5,671.5C 310.893,671.624 310.56,671.957 310.5,672.5C 309.013,673.804 307.346,674.97 305.5,676C 298.059,677.01 291.059,675.843 284.5,672.5C 275.52,664.574 271.187,654.574 271.5,642.5C 272.908,618.525 282.242,598.358 299.5,582C 310.392,573.408 322.392,571.241 335.5,575.5C 336.947,576.885 337.947,576.552 338.5,574.5C 338.433,573.041 338.766,571.708 339.5,570.5C 340.757,569.377 340.424,568.711 338.5,568.5C 326.038,567.642 313.704,565.808 301.5,563C 279.858,557.675 258.525,551.341 237.5,544C 217.724,535.619 199.39,524.952 182.5,512C 179.629,509.297 176.962,506.464 174.5,503.5C 174.027,502.094 173.027,501.427 171.5,501.5C 155.808,488.291 146.475,471.458 143.5,451C 144.485,443.505 144.985,436.005 145,428.5C 139.772,431.396 134.272,432.062 128.5,430.5C 127.063,426.472 126.397,422.305 126.5,418C 128.512,388.142 139.012,361.642 158,338.5C 167.466,327.852 178.966,320.352 192.5,316C 198.537,315.303 204.537,315.47 210.5,316.5C 212.5,305.171 217.167,295.171 224.5,286.5C 225.906,286.027 226.573,285.027 226.5,283.5C 226.992,281.181 227.992,279.181 229.5,277.5C 230.906,277.027 231.573,276.027 231.5,274.5C 242.367,259.469 255.701,246.969 271.5,237C 349.867,210.135 429.201,206.801 509.5,227C 517.288,230.394 524.955,234.061 532.5,238C 541.167,244.671 550.501,250.338 560.5,255C 562.476,258.463 564.81,261.63 567.5,264.5 Z"/></g>
<g><path style="opacity:1" fill="#747474" d="M 689.5,370.5 C 690.902,387.925 682.902,395.091 665.5,392C 658.055,389.299 650.722,386.633 643.5,384C 649.312,386.856 653.645,391.023 656.5,396.5C 659.649,400.095 662.816,403.762 666,407.5C 667.549,410.312 668.382,413.312 668.5,416.5C 666.96,427.329 664.46,437.996 661,448.5C 656.587,456.995 651.92,465.328 647,473.5C 624.616,496.285 598.45,513.452 568.5,525C 533.438,537.135 497.772,546.802 461.5,554C 448.218,555.752 434.884,556.918 421.5,557.5C 403.85,557.023 386.183,556.857 368.5,557C 353.786,555.321 339.12,553.321 324.5,551C 294.298,542.821 264.631,532.821 235.5,521C 216.909,512.707 199.575,502.374 183.5,490C 172.265,480.999 162.765,470.499 155,458.5C 152.079,451.45 150.912,444.117 151.5,436.5C 153.812,428.669 154.979,420.669 155,412.5C 154.329,413.252 153.496,413.586 152.5,413.5C 148.453,418.44 143.286,421.44 137,422.5C 134.013,422.01 132.18,420.343 131.5,417.5C 132.785,407.793 134.285,398.126 136,388.5C 140.527,379.252 144.86,369.918 149,360.5C 159.166,341.997 173.999,328.83 193.5,321C 200.196,320.559 206.863,320.559 213.5,321C 215.227,316.265 216.727,311.432 218,306.5C 223.919,296.998 229.586,287.331 235,277.5C 247.29,262.212 261.79,249.379 278.5,239C 321.88,226.104 366.213,219.27 411.5,218.5C 429.758,220.539 448.091,222.373 466.5,224C 487.579,226.012 507.579,231.679 526.5,241C 536.332,248.086 546.666,254.419 557.5,260C 569.285,271.403 576.452,285.237 579,301.5C 581.39,308.619 585.057,314.953 590,320.5C 590.167,320.167 590.333,319.833 590.5,319.5C 588.2,313.909 586.2,308.242 584.5,302.5C 599.35,299.458 613.35,301.625 626.5,309C 634.778,314.278 642.778,319.945 650.5,326C 659.333,334.833 668.167,343.667 677,352.5C 681.433,358.384 685.599,364.384 689.5,370.5 Z"/></g>
<g><path style="opacity:0.725" fill="#7d7d7d" d="M 567.5,264.5 C 568.906,264.973 569.573,265.973 569.5,267.5C 568.094,267.027 567.427,266.027 567.5,264.5 Z"/></g>
<g><path style="opacity:0.486" fill="#7e7e7e" d="M 231.5,274.5 C 231.573,276.027 230.906,277.027 229.5,277.5C 229.427,275.973 230.094,274.973 231.5,274.5 Z"/></g>
<g><path style="opacity:0.486" fill="#7e7e7e" d="M 226.5,283.5 C 226.573,285.027 225.906,286.027 224.5,286.5C 224.427,284.973 225.094,283.973 226.5,283.5 Z"/></g>
<g><path style="opacity:1" fill="#060606" d="M 618.5,337.5 C 624.258,343.084 630.258,348.584 636.5,354C 648.598,361.716 661.264,368.383 674.5,374C 676.954,375.74 678.454,377.907 679,380.5C 677.612,381.554 676.112,381.72 674.5,381C 655.168,371.421 637.668,359.255 622,344.5C 620.121,342.473 618.954,340.14 618.5,337.5 Z"/></g>
<g><path style="opacity:1" fill="#5a5a5a" d="M 689.5,370.5 C 694.856,377.048 698.523,384.548 700.5,393C 698.652,395.093 696.319,396.426 693.5,397C 680.712,399.885 668.379,398.718 656.5,393.5C 656.5,394.5 656.5,395.5 656.5,396.5C 653.645,391.023 649.312,386.856 643.5,384C 650.722,386.633 658.055,389.299 665.5,392C 682.902,395.091 690.902,387.925 689.5,370.5 Z"/></g>
<g><path style="opacity:1" fill="#060606" d="M 147.5,382.5 C 148.947,383.134 149.613,384.301 149.5,386C 148.279,393.491 147.113,400.991 146,408.5C 144.374,411.128 142.374,413.461 140,415.5C 141.411,404.282 143.911,393.282 147.5,382.5 Z"/></g>
<g><path style="opacity:1" fill="#595959" d="M 152.5,413.5 C 149.619,421.965 143.619,426.631 134.5,427.5C 133.201,426.91 132.368,425.91 132,424.5C 131.503,422.19 131.337,419.857 131.5,417.5C 132.18,420.343 134.013,422.01 137,422.5C 143.286,421.44 148.453,418.44 152.5,413.5 Z"/></g>
<g><path style="opacity:1" fill="#5a5a5a" d="M 668.5,416.5 C 669.117,416.611 669.617,416.944 670,417.5C 672.171,427.514 674.337,437.514 676.5,447.5C 675.668,459.82 671.501,470.82 664,480.5C 656.058,489.448 647.225,497.281 637.5,504C 628.893,507.302 620.893,511.635 613.5,517C 594.377,523.561 575.711,531.228 557.5,540C 533.486,548.228 509.153,555.228 484.5,561C 466.207,563.412 447.874,565.412 429.5,567C 419.833,567.667 410.167,567.667 400.5,567C 376.857,565.241 353.19,563.908 329.5,563C 288.931,556.527 250.265,544.193 213.5,526C 192.263,514.431 174.43,498.931 160,479.5C 150.917,466.205 148.084,451.872 151.5,436.5C 150.912,444.117 152.079,451.45 155,458.5C 162.765,470.499 172.265,480.999 183.5,490C 199.575,502.374 216.909,512.707 235.5,521C 264.631,532.821 294.298,542.821 324.5,551C 339.12,553.321 353.786,555.321 368.5,557C 386.183,556.857 403.85,557.023 421.5,557.5C 434.884,556.918 448.218,555.752 461.5,554C 497.772,546.802 533.438,537.135 568.5,525C 598.45,513.452 624.616,496.285 647,473.5C 651.92,465.328 656.587,456.995 661,448.5C 664.46,437.996 666.96,427.329 668.5,416.5 Z"/></g>
<g><path style="opacity:0.718" fill="#7f7f7f" d="M 171.5,501.5 C 173.027,501.427 174.027,502.094 174.5,503.5C 172.973,503.573 171.973,502.906 171.5,501.5 Z"/></g>
<g><path style="opacity:1" fill="#595959" d="M 478.5,672.5 C 479.316,674.144 480.65,675.31 482.5,676C 493.934,680.724 504.101,678.891 513,670.5C 512.484,676.348 510.651,681.848 507.5,687C 510.833,689 514.167,689 517.5,687C 531.421,676.687 539.921,662.853 543,645.5C 543.947,633.228 539.78,623.061 530.5,615C 523.496,610.163 516.163,605.829 508.5,602C 499.47,598.897 490.303,598.064 481,599.5C 477.485,607.683 477.985,615.683 482.5,623.5C 479.407,625.309 476.074,626.309 472.5,626.5C 473.018,625.423 473.352,624.256 473.5,623C 469.778,615.111 469.778,607.278 473.5,599.5C 473.167,598.5 472.5,597.833 471.5,597.5C 469.364,598.472 468.197,600.139 468,602.5C 467.081,608.966 467.581,615.299 469.5,621.5C 459.058,625.296 450.558,631.63 444,640.5C 430.5,618.167 417,595.833 403.5,573.5C 437.551,572.702 471.217,568.702 504.5,561.5C 506.299,561.577 507.966,562.077 509.5,563C 520.782,574.621 532.948,585.121 546,594.5C 546.265,596.163 545.765,597.663 544.5,599C 549.027,601.543 552.194,605.376 554,610.5C 565.425,638.292 560.925,663.126 540.5,685C 534.687,690.075 528.354,694.408 521.5,698C 505.398,705.566 492.565,702.066 483,687.5C 480.383,682.817 478.883,677.817 478.5,672.5 Z"/></g>
<g><path style="opacity:0.118" fill="#c4c4c4" d="M 338.5,568.5 C 340.424,568.711 340.757,569.377 339.5,570.5C 339.167,569.833 338.833,569.167 338.5,568.5 Z"/></g>
<g><path style="opacity:1" fill="#747474" d="M 341.5,626.5 C 340.957,626.56 340.624,626.893 340.5,627.5C 342.423,637.058 343.757,646.724 344.5,656.5C 344.406,658.923 343.906,661.256 343,663.5C 342.439,664.022 341.772,664.355 341,664.5C 335.989,662.745 331.156,660.578 326.5,658C 319.953,652.954 314.286,647.12 309.5,640.5C 307.682,644.136 305.849,647.802 304,651.5C 296.56,654.165 290.893,651.832 287,644.5C 283.432,623.869 288.766,605.869 303,590.5C 307.859,584.786 313.359,580.119 319.5,576.5C 327.483,576.346 334.483,578.679 340.5,583.5C 340.918,578.414 342.251,573.58 344.5,569C 348.256,568.625 351.922,569.125 355.5,570.5C 348.327,588.524 343.661,607.191 341.5,626.5 Z"/></g>
<g><path style="opacity:1" fill="#9a9a9a" d="M 360.5,674.5 C 365.636,683.259 371.636,691.426 378.5,699C 384.877,703.189 391.544,706.855 398.5,710C 417.397,716.636 424.897,710.136 421,690.5C 413.216,671.683 409.383,652.016 409.5,631.5C 398.985,626.788 387.985,624.121 376.5,623.5C 367.747,622.705 360.081,625.039 353.5,630.5C 350.807,627.803 348.473,624.803 346.5,621.5C 349.487,606.708 352.987,592.041 357,577.5C 357.93,575.064 359.097,572.731 360.5,570.5C 362.667,570.167 364.833,569.833 367,569.5C 377.186,570.567 387.352,571.567 397.5,572.5C 412.418,596.667 427.085,621.001 441.5,645.5C 436.166,659.522 436.333,673.522 442,687.5C 449.259,695.897 458.426,699.063 469.5,697C 472.798,696.513 475.798,695.347 478.5,693.5C 480.786,693.96 482.119,695.293 482.5,697.5C 479.307,719.149 479.973,740.649 484.5,762C 484.167,762.5 483.833,763 483.5,763.5C 454.121,772.925 425.787,770.425 398.5,756C 385.188,748.027 373.021,738.527 362,727.5C 358.333,721.833 354.667,716.167 351,710.5C 348.531,702.626 346.698,694.626 345.5,686.5C 348.84,684.43 352.174,682.263 355.5,680C 357.402,678.27 359.069,676.437 360.5,674.5 Z"/></g>
<g><path style="opacity:0.553" fill="#8f8f8f" d="M 338.5,574.5 C 337.947,576.552 336.947,576.885 335.5,575.5C 336.609,575.443 337.609,575.11 338.5,574.5 Z"/></g>
<g><path style="opacity:1" fill="#595959" d="M 319.5,576.5 C 313.359,580.119 307.859,584.786 303,590.5C 288.766,605.869 283.432,623.869 287,644.5C 290.893,651.832 296.56,654.165 304,651.5C 305.849,647.802 307.682,644.136 309.5,640.5C 314.286,647.12 319.953,652.954 326.5,658C 331.156,660.578 335.989,662.745 341,664.5C 341.772,664.355 342.439,664.022 343,663.5C 343.906,661.256 344.406,658.923 344.5,656.5C 343.757,646.724 342.423,637.058 340.5,627.5C 340.624,626.893 340.957,626.56 341.5,626.5C 351.199,635.23 356.699,646.23 358,659.5C 359.809,668.085 356.976,674.585 349.5,679C 336.467,684.992 325.3,682.492 316,671.5C 315.5,670 315,668.5 314.5,667C 316.52,664.379 316.853,661.545 315.5,658.5C 312.383,663.451 308.383,667.618 303.5,671C 299.152,671.238 294.819,670.905 290.5,670C 278.528,660.766 274.028,648.599 277,633.5C 280.837,610.292 292.337,592.125 311.5,579C 313.909,577.293 316.575,576.46 319.5,576.5 Z"/></g>
<g><path style="opacity:1" fill="#747474" d="M 478.5,672.5 C 478.817,669.428 478.484,666.428 477.5,663.5C 476.056,665.608 475.39,667.941 475.5,670.5C 473.625,679.348 467.958,684.015 458.5,684.5C 455.512,684.283 452.845,683.283 450.5,681.5C 447.814,678.097 445.147,674.764 442.5,671.5C 439.876,647.833 449.876,632.833 472.5,626.5C 476.074,626.309 479.407,625.309 482.5,623.5C 477.985,615.683 477.485,607.683 481,599.5C 490.303,598.064 499.47,598.897 508.5,602C 516.163,605.829 523.496,610.163 530.5,615C 539.78,623.061 543.947,633.228 543,645.5C 539.921,662.853 531.421,676.687 517.5,687C 514.167,689 510.833,689 507.5,687C 510.651,681.848 512.484,676.348 513,670.5C 504.101,678.891 493.934,680.724 482.5,676C 480.65,675.31 479.316,674.144 478.5,672.5 Z"/></g>
<g><path style="opacity:1" fill="#747474" d="M 598.5,698.5 C 598.426,725.588 589.092,748.755 570.5,768C 559.897,776.467 547.897,781.967 534.5,784.5C 517.611,781.445 507.444,771.445 504,754.5C 503.406,748.293 502.572,742.126 501.5,736C 501.833,734.167 502.167,732.333 502.5,730.5C 513.145,739.213 524.812,740.713 537.5,735C 550.384,725.714 559.218,713.548 564,698.5C 565.245,684.678 566.411,670.844 567.5,657C 567.12,651.981 566.454,647.148 565.5,642.5C 564.83,628.805 561.496,615.805 555.5,603.5C 556.002,602.479 556.668,602.312 557.5,603C 569.419,613.659 578.252,626.492 584,641.5C 591.615,659.836 596.448,678.836 598.5,698.5 Z"/></g>
<g><path style="opacity:1" fill="#b8b8b8" d="M 360.5,674.5 C 363.251,664.076 362.751,653.743 359,643.5C 357.154,639.145 355.321,634.812 353.5,630.5C 360.081,625.039 367.747,622.705 376.5,623.5C 387.985,624.121 398.985,626.788 409.5,631.5C 409.383,652.016 413.216,671.683 421,690.5C 424.897,710.136 417.397,716.636 398.5,710C 391.544,706.855 384.877,703.189 378.5,699C 371.636,691.426 365.636,683.259 360.5,674.5 Z"/></g>
<g><path style="opacity:1" fill="#595959" d="M 565.5,642.5 C 566.454,647.148 567.12,651.981 567.5,657C 566.411,670.844 565.245,684.678 564,698.5C 559.218,713.548 550.384,725.714 537.5,735C 524.812,740.713 513.145,739.213 502.5,730.5C 502.167,732.333 501.833,734.167 501.5,736C 502.572,742.126 503.406,748.293 504,754.5C 507.444,771.445 517.611,781.445 534.5,784.5C 547.897,781.967 559.897,776.467 570.5,768C 589.092,748.755 598.426,725.588 598.5,698.5C 602.933,721.449 598.766,742.782 586,762.5C 585.175,764.701 585.675,766.534 587.5,768C 598.604,767.364 607.771,771.197 615,779.5C 618.98,786.624 623.814,793.124 629.5,799C 632.661,800.413 635.661,802.08 638.5,804C 634.952,805.941 631.286,807.607 627.5,809C 619.193,809.999 610.86,810.832 602.5,811.5C 601.423,814.474 601.423,817.474 602.5,820.5C 584.783,820.736 567.116,819.903 549.5,818C 516.667,809.167 495.833,788.333 487,755.5C 483.667,736.833 483.667,718.167 487,699.5C 491.793,704.268 497.627,706.601 504.5,706.5C 525.326,704.005 541.492,694.005 553,676.5C 558.507,665.462 562.674,654.128 565.5,642.5 Z"/></g>
<g><path style="opacity:1" fill="#595959" d="M 475.5,670.5 C 475.435,676.617 475.935,682.617 477,688.5C 473.472,691.584 469.306,693.251 464.5,693.5C 449.477,693.811 442.144,686.477 442.5,671.5C 445.147,674.764 447.814,678.097 450.5,681.5C 452.845,683.283 455.512,684.283 458.5,684.5C 467.958,684.015 473.625,679.348 475.5,670.5 Z"/></g>
<g><path style="opacity:0.18" fill="#9e9e9e" d="M 310.5,672.5 C 310.56,671.957 310.893,671.624 311.5,671.5C 312.793,673.636 312.793,675.636 311.5,677.5C 311.784,675.585 311.451,673.919 310.5,672.5 Z"/></g>
<g><path style="opacity:1" fill="#595959" d="M 350.5,718.5 C 349.043,720.242 347.876,722.242 347,724.5C 338.32,720.657 330.654,715.324 324,708.5C 322.417,720.502 325.084,731.502 332,741.5C 338.772,748.117 345.939,754.117 353.5,759.5C 344.842,759.336 337.175,756.503 330.5,751C 328.037,747.535 325.204,744.369 322,741.5C 312.917,721.081 311.25,700.081 317,678.5C 323.898,685.032 332.065,687.698 341.5,686.5C 342.025,697.943 345.025,708.61 350.5,718.5 Z"/></g>
<g><path style="opacity:1" fill="#747474" d="M 350.5,718.5 C 353.904,722.965 357.071,727.631 360,732.5C 365.289,737.867 370.789,742.867 376.5,747.5C 379.148,754.295 382.482,760.795 386.5,767C 376.802,767.387 367.468,765.554 358.5,761.5C 356.95,760.559 355.284,759.893 353.5,759.5C 345.939,754.117 338.772,748.117 332,741.5C 325.084,731.502 322.417,720.502 324,708.5C 330.654,715.324 338.32,720.657 347,724.5C 347.876,722.242 349.043,720.242 350.5,718.5 Z"/></g>
<g><path style="opacity:1" fill="#595959" d="M 376.5,747.5 C 382.999,751.811 389.665,755.978 396.5,760C 402.274,763.222 408.274,765.888 414.5,768C 415.749,770.21 415.582,772.376 414,774.5C 406.476,785.682 396.31,793.515 383.5,798C 375.234,799.989 366.9,801.656 358.5,803C 353.761,803.726 349.095,803.393 344.5,802C 346.809,799.513 349.476,797.513 352.5,796C 356.633,790.866 361.133,786.032 366,781.5C 366.612,779.763 365.946,778.763 364,778.5C 362.019,779.65 360.186,780.984 358.5,782.5C 358.924,779.646 359.924,776.979 361.5,774.5C 352.07,771.913 342.737,768.913 333.5,765.5C 332.287,765.253 331.62,764.586 331.5,763.5C 332.479,761.855 333.812,760.521 335.5,759.5C 342.062,762.14 348.729,764.474 355.5,766.5C 356.442,766.392 357.275,766.059 358,765.5C 357.645,764.041 357.811,762.707 358.5,761.5C 367.468,765.554 376.802,767.387 386.5,767C 382.482,760.795 379.148,754.295 376.5,747.5 Z"/></g>
<g><path style="opacity:0.039" fill="#d3d3d3" d="M 593.5,762.5 C 594.5,763.167 595.5,763.833 596.5,764.5C 594.801,764.66 593.134,764.494 591.5,764C 592.044,763.283 592.711,762.783 593.5,762.5 Z"/></g>
<g><path style="opacity:1" fill="#747474" d="M 331.5,763.5 C 331.62,764.586 332.287,765.253 333.5,765.5C 342.737,768.913 352.07,771.913 361.5,774.5C 359.924,776.979 358.924,779.646 358.5,782.5C 346.952,790.089 334.285,792.589 320.5,790C 314.309,788.792 309.475,785.626 306,780.5C 305.219,779.056 305.386,777.723 306.5,776.5C 315.584,773.459 323.917,769.126 331.5,763.5 Z"/></g>
<g><path style="opacity:1" fill="#747474" d="M 577.5,780.5 C 592.957,777.906 605.623,782.573 615.5,794.5C 608.26,800.357 599.926,803.024 590.5,802.5C 590.911,805.553 591.577,808.553 592.5,811.5C 587.462,812.33 582.795,811.164 578.5,808C 571.727,803.194 565.227,798.028 559,792.5C 558.542,789.904 559.375,787.737 561.5,786C 566.846,783.83 572.179,781.997 577.5,780.5 Z"/></g>
<g><path style="opacity:0.165" fill="#adadad" d="M 344.5,796.5 C 344.5,795.833 344.167,795.5 343.5,795.5C 344.943,794.297 346.609,793.797 348.5,794C 347.307,795.095 345.973,795.928 344.5,796.5 Z"/></g>
<g><path style="opacity:0.282" fill="#acacac" d="M 619.5,814.5 C 615.232,814.869 611.232,815.869 607.5,817.5C 606.596,816.791 606.263,815.791 606.5,814.5C 610.833,814.5 615.167,814.5 619.5,814.5 Z"/></g>

        
<g><path style="opacity:0.99" fill="#0d0d0c" d="M 491.5,399.5 C 488.373,390.073 487.207,380.406 488,370.5C 493.707,351.6 504.873,336.767 521.5,326C 529.79,320.847 538.79,318.014 548.5,317.5C 553.844,317.666 559.177,317.499 564.5,317C 563.956,316.283 563.289,315.783 562.5,315.5C 543.882,300.011 522.382,291.678 498,290.5C 490.519,289.916 483.352,291.082 476.5,294C 467.781,294.352 459.781,297.019 452.5,302C 448.062,306.439 443.062,310.106 437.5,313C 426.246,324.92 417.412,338.42 411,353.5C 410.725,371 417.225,385.5 430.5,397C 436.108,400.276 441.442,403.943 446.5,408C 453.054,411.537 460.054,413.37 467.5,413.5C 461.67,418.019 455.336,418.686 448.5,415.5C 448.027,414.094 447.027,413.427 445.5,413.5C 443.46,411.823 441.46,410.156 439.5,408.5C 439.027,407.094 438.027,406.427 436.5,406.5C 436.027,405.094 435.027,404.427 433.5,404.5C 431.566,403.89 429.899,402.89 428.5,401.5C 428.027,400.094 427.027,399.427 425.5,399.5C 418.88,393.601 413.713,386.601 410,378.5C 406.877,399.48 395.71,405.313 376.5,396C 373.568,392.395 370.068,389.561 366,387.5C 362.461,389.2 359.794,391.867 358,395.5C 348.298,401.028 339.298,400.028 331,392.5C 329.096,389.077 328.263,385.41 328.5,381.5C 328.34,379.847 327.674,378.514 326.5,377.5C 325.596,376.791 325.263,375.791 325.5,374.5C 325.785,372.712 325.452,371.045 324.5,369.5C 323.614,370.325 323.281,371.325 323.5,372.5C 319.576,387.848 311.909,401.015 300.5,412C 297.294,414.034 293.96,415.867 290.5,417.5C 287.941,416.392 285.608,415.059 283.5,413.5C 293.172,410.41 301.005,404.744 307,396.5C 313.986,386.753 318.486,375.92 320.5,364C 319.275,355.717 315.775,348.55 310,342.5C 305.854,331.015 298.687,321.848 288.5,315C 280.952,312.433 273.619,309.433 266.5,306C 242.475,304.844 224.809,314.844 213.5,336C 239.356,338.522 258.189,351.355 270,374.5C 276.027,385.384 278.193,397.051 276.5,409.5C 271.718,406.601 267.051,403.434 262.5,400C 244.46,389.359 225.127,385.859 204.5,389.5C 199.943,380.073 198.443,370.073 200,359.5C 201.081,348.03 204.914,337.697 211.5,328.5C 212.906,328.027 213.573,327.027 213.5,325.5C 213.783,305.751 221.117,288.917 235.5,275C 242.164,270.005 249.497,266.338 257.5,264C 268.382,263.052 277.716,266.386 285.5,274C 309.981,294.926 323.981,321.426 327.5,353.5C 336.02,355.759 344.353,358.592 352.5,362C 357.986,362.927 363.486,363.76 369,364.5C 376.968,362.671 384.968,361.337 393,360.5C 395.093,361.246 397.093,361.579 399,361.5C 395.196,337.601 398.196,314.601 408,292.5C 410.985,287.689 414.485,283.356 418.5,279.5C 419.906,279.027 420.573,278.027 420.5,276.5C 431.962,266.925 444.629,259.091 458.5,253C 510.456,235.392 544.289,252.559 560,304.5C 580.639,319.759 586.305,339.425 577,363.5C 574.366,369.272 570.866,374.439 566.5,379C 540.258,381.247 515.258,388.08 491.5,399.5 Z"/></g>
<g><path style="opacity:1" fill="#1b1b1b" d="M 491.5,251.5 C 512.005,251.336 528.505,259.336 541,275.5C 545.694,283.554 549.861,291.888 553.5,300.5C 553.167,300.833 552.833,301.167 552.5,301.5C 517.98,279.718 482.98,278.885 447.5,299C 444.215,302.973 440.215,305.973 435.5,308C 425.414,318.343 416.914,329.843 410,342.5C 406.414,349.494 405.08,356.827 406,364.5C 405.255,362.797 404.421,361.13 403.5,359.5C 403.063,345.559 403.563,331.559 405,317.5C 407.148,302.37 413.648,289.537 424.5,279C 432.5,273.667 440.5,268.333 448.5,263C 462.09,255.855 476.423,252.021 491.5,251.5 Z"/></g>
<g><path style="opacity:1" fill="#1b1b1b" d="M 256.5,269.5 C 263.905,268.705 270.571,270.539 276.5,275C 296.955,290.782 311.122,310.949 319,335.5C 320.328,340.457 320.994,345.457 321,350.5C 316.333,341.833 311.667,333.167 307,324.5C 302.468,319.633 297.634,315.133 292.5,311C 282.442,305.884 271.942,302.051 261,299.5C 244.754,300.462 231.087,306.795 220,318.5C 222.473,294.866 234.64,278.532 256.5,269.5 Z"/></g>
<g><path style="opacity:0.529" fill="#82827b" d="M 420.5,276.5 C 420.573,278.027 419.906,279.027 418.5,279.5C 418.427,277.973 419.094,276.973 420.5,276.5 Z"/></g>
<g><path style="opacity:0.998" fill="#f5f4e7" d="M 562.5,315.5 C 557.833,316.167 553.167,316.833 548.5,317.5C 538.79,318.014 529.79,320.847 521.5,326C 504.873,336.767 493.707,351.6 488,370.5C 487.207,380.406 488.373,390.073 491.5,399.5C 483.472,404.178 475.472,408.845 467.5,413.5C 460.054,413.37 453.054,411.537 446.5,408C 441.442,403.943 436.108,400.276 430.5,397C 417.225,385.5 410.725,371 411,353.5C 417.412,338.42 426.246,324.92 437.5,313C 443.062,310.106 448.062,306.439 452.5,302C 459.781,297.019 467.781,294.352 476.5,294C 483.352,291.082 490.519,289.916 498,290.5C 522.382,291.678 543.882,300.011 562.5,315.5 Z"/></g>
<g><path style="opacity:0.999" fill="#f5f4e7" d="M 283.5,413.5 C 280.669,412.921 278.336,411.588 276.5,409.5C 278.193,397.051 276.027,385.384 270,374.5C 258.189,351.355 239.356,338.522 213.5,336C 224.809,314.844 242.475,304.844 266.5,306C 273.619,309.433 280.952,312.433 288.5,315C 298.687,321.848 305.854,331.015 310,342.5C 315.775,348.55 319.275,355.717 320.5,364C 318.486,375.92 313.986,386.753 307,396.5C 301.005,404.744 293.172,410.41 283.5,413.5 Z"/></g>
<g><path style="opacity:1" fill="#6e6e68" d="M 562.5,315.5 C 563.289,315.783 563.956,316.283 564.5,317C 559.177,317.499 553.844,317.666 548.5,317.5C 553.167,316.833 557.833,316.167 562.5,315.5 Z"/></g>
<g><path style="opacity:0.506" fill="#808079" d="M 213.5,325.5 C 213.573,327.027 212.906,328.027 211.5,328.5C 211.427,326.973 212.094,325.973 213.5,325.5 Z"/></g>
<g><path style="opacity:1" fill="#1b1b1b" d="M 327.5,359.5 C 338.316,363.238 349.316,366.404 360.5,369C 365.833,369.667 371.167,369.667 376.5,369C 383.809,367.503 391.143,366.503 398.5,366C 404.726,372.015 406.226,379.182 403,387.5C 399.871,394.148 394.704,396.648 387.5,395C 381.182,393.689 376.182,390.356 372.5,385C 367.996,381.538 363.663,381.704 359.5,385.5C 357.294,388.203 354.961,390.703 352.5,393C 348.5,393.667 344.5,393.667 340.5,393C 338.376,391.878 336.543,390.378 335,388.5C 332.025,378.933 329.525,369.266 327.5,359.5 Z"/></g>
<g><path style="opacity:1" fill="#5c5c57" d="M 325.5,374.5 C 324.833,373.833 324.167,373.167 323.5,372.5C 323.281,371.325 323.614,370.325 324.5,369.5C 325.452,371.045 325.785,372.712 325.5,374.5 Z"/></g>
<g><path style="opacity:0.4" fill="#97968e" d="M 326.5,377.5 C 327.674,378.514 328.34,379.847 328.5,381.5C 326.896,380.713 326.229,379.38 326.5,377.5 Z"/></g>
<g><path style="opacity:0.012" fill="#000000" d="M 549.5,383.5 C 550.833,384.167 550.833,384.167 549.5,383.5 Z"/></g>
<g><path style="opacity:0.02" fill="#000000" d="M 545.5,384.5 C 546.833,385.167 546.833,385.167 545.5,384.5 Z"/></g>
<g><path style="opacity:0.022" fill="#000000" d="M 541.5,386.5 C 541.897,385.475 542.563,385.308 543.5,386C 542.906,386.464 542.239,386.631 541.5,386.5 Z"/></g>
<g><path style="opacity:0.018" fill="#000000" d="M 538.5,387.5 C 538.897,386.475 539.563,386.308 540.5,387C 539.906,387.464 539.239,387.631 538.5,387.5 Z"/></g>
<g><path style="opacity:0.016" fill="#000000" d="M 534.5,388.5 C 534.897,387.475 535.563,387.308 536.5,388C 535.906,388.464 535.239,388.631 534.5,388.5 Z"/></g>
<g><path style="opacity:0.012" fill="#000000" d="M 530.5,389.5 C 530.897,388.475 531.563,388.308 532.5,389C 531.906,389.464 531.239,389.631 530.5,389.5 Z"/></g>
<g><path style="opacity:0.04" fill="#000000" d="M 226.5,391.5 C 228.103,391.312 229.437,391.812 230.5,393C 228.167,393.667 225.833,393.667 223.5,393C 224.737,392.768 225.737,392.268 226.5,391.5 Z"/></g>
<g><path style="opacity:0.042" fill="#000000" d="M 210.5,393.5 C 211.946,392.387 213.613,392.22 215.5,393C 213.866,393.494 212.199,393.66 210.5,393.5 Z"/></g>
<g><path style="opacity:0.016" fill="#000000" d="M 233.5,392.5 C 234.833,393.167 234.833,393.167 233.5,392.5 Z"/></g>
<g><path style="opacity:0.012" fill="#000000" d="M 236.5,394.5 C 236.897,393.475 237.563,393.308 238.5,394C 237.906,394.464 237.239,394.631 236.5,394.5 Z"/></g>
<g><path style="opacity:0.016" fill="#000000" d="M 239.5,395.5 C 239.897,394.475 240.563,394.308 241.5,395C 240.906,395.464 240.239,395.631 239.5,395.5 Z"/></g>
<g><path style="opacity:0.012" fill="#000000" d="M 242.5,395.5 C 243.833,396.167 243.833,396.167 242.5,395.5 Z"/></g>
<g><path style="opacity:0.016" fill="#000000" d="M 245.5,396.5 C 246.833,397.167 246.833,397.167 245.5,396.5 Z"/></g>
<g><path style="opacity:0.012" fill="#000000" d="M 247.5,397.5 C 248.833,398.167 248.833,398.167 247.5,397.5 Z"/></g>
<g><path style="opacity:0.02" fill="#000000" d="M 250.5,398.5 C 251.833,399.167 251.833,399.167 250.5,398.5 Z"/></g>
<g><path style="opacity:0.02" fill="#000000" d="M 252.5,399.5 C 253.833,400.167 253.833,400.167 252.5,399.5 Z"/></g>
<g><path style="opacity:0.012" fill="#000000" d="M 254.5,400.5 C 255.833,401.167 255.833,401.167 254.5,400.5 Z"/></g>
<g><path style="opacity:0.529" fill="#7c7b75" d="M 425.5,399.5 C 427.027,399.427 428.027,400.094 428.5,401.5C 426.973,401.573 425.973,400.906 425.5,399.5 Z"/></g>
<g><path style="opacity:0.529" fill="#7c7b75" d="M 433.5,404.5 C 435.027,404.427 436.027,405.094 436.5,406.5C 434.973,406.573 433.973,405.906 433.5,404.5 Z"/></g>
<g><path style="opacity:0.545" fill="#7a7a73" d="M 436.5,406.5 C 438.027,406.427 439.027,407.094 439.5,408.5C 437.973,408.573 436.973,407.906 436.5,406.5 Z"/></g>
<g><path style="opacity:0.529" fill="#7f7f78" d="M 445.5,413.5 C 447.027,413.427 448.027,414.094 448.5,415.5C 446.973,415.573 445.973,414.906 445.5,413.5 Z"/></g>

        
<g><path style="opacity:0.985" fill="#20201f" d="M 591.5,350.5 C 590.89,349.609 590.557,348.609 590.5,347.5C 598.093,347.538 604.593,350.538 610,356.5C 612.002,361.007 613.502,365.674 614.5,370.5C 614.02,374.293 612.353,377.46 609.5,380C 603.352,383.078 597.019,385.578 590.5,387.5C 584.054,386.936 577.72,385.77 571.5,384C 563.833,383.333 556.167,383.333 548.5,384C 540.284,385.787 532.618,388.62 525.5,392.5C 525.631,391.624 525.298,390.957 524.5,390.5C 523.261,390.942 522.261,391.609 521.5,392.5C 520.791,393.404 519.791,393.737 518.5,393.5C 514.838,393.723 511.505,394.723 508.5,396.5C 505.759,396.707 503.426,397.707 501.5,399.5C 501.158,400.338 500.492,400.672 499.5,400.5C 494.914,401.46 490.914,403.46 487.5,406.5C 487.158,407.338 486.492,407.672 485.5,407.5C 483.973,407.427 482.973,408.094 482.5,409.5C 480.326,409.75 478.659,410.75 477.5,412.5C 476.167,412.5 475.5,413.167 475.5,414.5C 474.878,415.627 474.045,416.627 473,417.5C 471.951,416.483 470.784,416.316 469.5,417C 464.147,419.701 458.814,422.368 453.5,425C 440.182,427.885 426.849,430.552 413.5,433C 407.153,442.527 401.986,452.694 398,463.5C 395.706,464.852 393.206,465.519 390.5,465.5C 382.205,463.808 373.871,462.308 365.5,461C 361.367,455.866 356.867,451.032 352,446.5C 349.027,442.026 345.86,437.693 342.5,433.5C 328.924,432.583 315.59,430.25 302.5,426.5C 299.905,427.237 297.238,427.237 294.5,426.5C 294.953,425.542 295.619,424.708 296.5,424C 295.906,423.536 295.239,423.369 294.5,423.5C 290.703,423.128 287.37,421.794 284.5,419.5C 281.485,417.326 278.151,415.659 274.5,414.5C 273.415,412.413 271.749,411.08 269.5,410.5C 268.508,410.672 267.842,410.338 267.5,409.5C 267.027,408.094 266.027,407.427 264.5,407.5C 263.352,404.913 261.685,403.913 259.5,404.5C 250.198,398.055 239.864,393.722 228.5,391.5C 218.197,392.724 207.863,393.224 197.5,393C 182.151,389.16 173.651,379.326 172,363.5C 171.333,358.833 171.333,354.167 172,349.5C 172.036,347.059 172.869,345.059 174.5,343.5C 175.086,343.709 175.586,344.043 176,344.5C 175.529,355.347 177.529,365.681 182,375.5C 187.543,382.974 195.043,386.974 204.5,387.5C 231.733,383.303 255.733,390.137 276.5,408C 290.297,415.71 304.964,421.044 320.5,424C 344.953,424.754 369.453,425.587 394,426.5C 413.476,426.449 432.642,423.949 451.5,419C 468.5,410 485.5,401 502.5,392C 517.586,386.527 532.92,381.86 548.5,378C 556.5,377.333 564.5,377.333 572.5,378C 579.063,379.986 585.73,380.986 592.5,381C 596.749,378.806 601.082,376.806 605.5,375C 606.872,373.758 607.872,372.258 608.5,370.5C 607.098,366.461 605.598,362.461 604,358.5C 599.684,355.934 595.517,353.267 591.5,350.5 Z"/></g>
<g><path style="opacity:0.231" fill="#9b9b93" d="M 590.5,347.5 C 590.557,348.609 590.89,349.609 591.5,350.5C 589.448,349.947 589.115,348.947 590.5,347.5 Z"/></g>
<g><path style="opacity:0.012" fill="#b3b2a9" d="M 525.5,392.5 C 524.472,392.926 523.139,392.926 521.5,392.5C 522.261,391.609 523.261,390.942 524.5,390.5C 525.298,390.957 525.631,391.624 525.5,392.5 Z"/></g>
<g><path style="opacity:0.149" fill="#d6d5ca" d="M 518.5,393.5 C 515.495,395.277 512.162,396.277 508.5,396.5C 511.505,394.723 514.838,393.723 518.5,393.5 Z"/></g>
<g><path style="opacity:0.196" fill="#d2d1c6" d="M 508.5,396.5 C 506.574,398.293 504.241,399.293 501.5,399.5C 503.426,397.707 505.759,396.707 508.5,396.5 Z"/></g>
<g><path style="opacity:0.294" fill="#a8a79f" d="M 259.5,404.5 C 261.685,403.913 263.352,404.913 264.5,407.5C 262.589,406.925 260.922,405.925 259.5,404.5 Z"/></g>
<g><path style="opacity:0.173" fill="#d8d7cc" d="M 499.5,400.5 C 495.818,403.008 491.818,405.008 487.5,406.5C 490.914,403.46 494.914,401.46 499.5,400.5 Z"/></g>
<g><path style="opacity:0.235" fill="#d1d0c5" d="M 264.5,407.5 C 266.027,407.427 267.027,408.094 267.5,409.5C 265.973,409.573 264.973,408.906 264.5,407.5 Z"/></g>
<g><path style="opacity:0.141" fill="#dfded2" d="M 485.5,407.5 C 485.027,408.906 484.027,409.573 482.5,409.5C 482.973,408.094 483.973,407.427 485.5,407.5 Z"/></g>
<g><path style="opacity:0.067" fill="#d3d2c7" d="M 482.5,409.5 C 481.341,411.25 479.674,412.25 477.5,412.5C 478.659,410.75 480.326,409.75 482.5,409.5 Z"/></g>
<g><path style="opacity:0.012" fill="#d5d4c9" d="M 477.5,412.5 C 477.167,413.5 476.5,414.167 475.5,414.5C 475.5,413.167 476.167,412.5 477.5,412.5 Z"/></g>
<g><path style="opacity:0.322" fill="#b9b8af" d="M 269.5,410.5 C 271.749,411.08 273.415,412.413 274.5,414.5C 272.251,413.92 270.585,412.587 269.5,410.5 Z"/></g>
<g><path style="opacity:0.196" fill="#d0d0c5" d="M 274.5,414.5 C 278.151,415.659 281.485,417.326 284.5,419.5C 280.58,418.873 277.247,417.207 274.5,414.5 Z"/></g>
<g><path style="opacity:0.027" fill="#d9d8cd" d="M 294.5,423.5 C 295.239,423.369 295.906,423.536 296.5,424C 295.619,424.708 294.953,425.542 294.5,426.5C 293.375,425.652 293.375,424.652 294.5,423.5 Z"/></g>
<g><path style="opacity:1" fill="#f1f0e3" d="M 350.5,430.5 C 360.215,430.459 369.882,431.125 379.5,432.5C 389.146,431.411 398.812,431.245 408.5,432C 402.865,440.766 397.865,449.933 393.5,459.5C 392.833,459.833 392.167,460.167 391.5,460.5C 383.983,458.204 376.316,456.704 368.5,456C 361.627,448.795 355.127,441.295 349,433.5C 348.761,432.212 349.261,431.212 350.5,430.5 Z"/></g>

        
<g><path style="opacity:0.995" fill="#1c1c1b" d="M 307.5,214.5 C 308.002,216.085 309.002,216.585 310.5,216C 309.934,215.005 309.267,214.172 308.5,213.5C 299.902,191.41 300.736,169.743 311,148.5C 322.522,132.273 327.855,133.94 327,153.5C 327.714,156.595 328.714,159.595 330,162.5C 335.333,171.167 340.667,179.833 346,188.5C 341.215,161.413 349.049,138.913 369.5,121C 370.793,120.51 372.127,120.343 373.5,120.5C 374.829,127.793 375.995,135.127 377,142.5C 380.222,149.499 382.222,156.833 383,164.5C 385.41,170.318 388.077,175.985 391,181.5C 397.794,189.963 404.961,198.13 412.5,206C 415.772,207.608 418.772,209.608 421.5,212C 431.547,215.509 441.88,217.842 452.5,219C 453.846,221.794 453.346,224.294 451,226.5C 428.926,226.652 407.76,231.152 387.5,240C 377.184,246.129 370.351,254.962 367,266.5C 358.544,273.768 348.71,277.934 337.5,279C 289.856,282.691 268.69,260.858 274,213.5C 276.226,202.052 280.393,191.385 286.5,181.5C 287.651,180.269 288.817,180.269 290,181.5C 292.172,194.514 298.005,205.514 307.5,214.5 Z"/></g>
<g><path style="opacity:1" fill="#dcdbce" d="M 371.5,145.5 C 370.883,145.611 370.383,145.944 370,146.5C 369.751,145.376 369.251,144.376 368.5,143.5C 363.262,150.262 360.095,157.929 359,166.5C 358.389,179.845 358.556,193.178 359.5,206.5C 352.856,206.243 346.523,204.743 340.5,202C 332.86,191.218 325.86,180.051 319.5,168.5C 315.654,173.496 314.488,179.162 316,185.5C 318.255,198.521 321.755,211.188 326.5,223.5C 325.696,225.136 324.696,226.636 323.5,228C 318.833,228.667 314.167,228.667 309.5,228C 302.456,224.596 295.456,221.096 288.5,217.5C 287.122,224.294 287.622,230.96 290,237.5C 293.412,244.658 297.078,251.658 301,258.5C 305.31,262.645 309.477,266.978 313.5,271.5C 318.11,272.493 322.777,273.16 327.5,273.5C 301.094,275.527 284.927,263.527 279,237.5C 276.762,221.795 279.596,207.129 287.5,193.5C 291.671,203.845 298.004,212.678 306.5,220C 310.275,222.351 313.608,221.851 316.5,218.5C 313.264,213.631 311.097,208.297 310,202.5C 307.722,190.183 307.388,177.85 309,165.5C 311.037,157.755 314.87,151.088 320.5,145.5C 322.091,155.767 325.591,165.434 331,174.5C 335.454,179.628 339.121,185.295 342,191.5C 344.247,194.509 346.581,194.842 349,192.5C 349.899,181.514 350.566,170.514 351,159.5C 353.401,147.369 359.401,137.369 369,129.5C 370.234,134.767 371.067,140.1 371.5,145.5 Z"/></g>
<g><path style="opacity:1" fill="#f5f4e7" d="M 371.5,145.5 C 374.821,152.817 376.987,160.484 378,168.5C 380,173.167 382,177.833 384,182.5C 389.814,188.802 395.147,195.468 400,202.5C 410.041,214.534 422.875,221.367 438.5,223C 418.956,223.801 400.623,228.801 383.5,238C 379.033,241.465 374.867,245.298 371,249.5C 370.055,245.886 369.388,242.219 369,238.5C 368.311,237.643 367.478,236.977 366.5,236.5C 365.669,243.476 365.169,250.476 365,257.5C 364.3,261.066 362.467,263.9 359.5,266C 349.492,271.336 338.825,273.836 327.5,273.5C 322.777,273.16 318.11,272.493 313.5,271.5C 309.477,266.978 305.31,262.645 301,258.5C 297.078,251.658 293.412,244.658 290,237.5C 287.622,230.96 287.122,224.294 288.5,217.5C 295.456,221.096 302.456,224.596 309.5,228C 314.167,228.667 318.833,228.667 323.5,228C 324.696,226.636 325.696,225.136 326.5,223.5C 321.755,211.188 318.255,198.521 316,185.5C 314.488,179.162 315.654,173.496 319.5,168.5C 325.86,180.051 332.86,191.218 340.5,202C 346.523,204.743 352.856,206.243 359.5,206.5C 358.556,193.178 358.389,179.845 359,166.5C 360.095,157.929 363.262,150.262 368.5,143.5C 369.251,144.376 369.751,145.376 370,146.5C 370.383,145.944 370.883,145.611 371.5,145.5 Z"/></g>
<g><path style="opacity:1" fill="#84847d" d="M 308.5,213.5 C 309.267,214.172 309.934,215.005 310.5,216C 309.002,216.585 308.002,216.085 307.5,214.5C 308.167,214.5 308.5,214.167 308.5,213.5 Z"/></g>

    </svg>
