
    <svg width="862" height="862" viewBox="0 0 862 862" fill="none" xmlns="http://www.w3.org/2000/svg">
        
<g><path style="opacity:1" fill="#f6f6e8" d="M -0.5,-0.5 C 286.833,-0.5 574.167,-0.5 861.5,-0.5C 861.5,286.833 861.5,574.167 861.5,861.5C 574.167,861.5 286.833,861.5 -0.5,861.5C -0.5,574.167 -0.5,286.833 -0.5,-0.5 Z"/></g>

        
<g><path style="opacity:0.983" fill="#1a1a19" d="M 578.5,540.5 C 583.993,540.916 589.326,542.082 594.5,544C 599.237,547.614 603.403,551.781 607,556.5C 613.977,570.057 616.311,584.39 614,599.5C 611.931,603.236 608.931,605.903 605,607.5C 603.018,607.01 601.351,606.01 600,604.5C 594.275,609.717 588.442,609.717 582.5,604.5C 577.923,613.337 572.256,614.337 565.5,607.5C 561.53,612.973 556.196,614.806 549.5,613C 548.299,612.097 547.465,610.931 547,609.5C 541.931,617.452 536.764,617.452 531.5,609.5C 527.737,613.765 523.737,617.932 519.5,622C 516.106,622.752 512.773,622.585 509.5,621.5C 508.194,620.088 507.36,618.421 507,616.5C 505.425,609.568 504.258,602.568 503.5,595.5C 504.335,583.317 510.669,578.317 522.5,580.5C 523.795,579.902 525.128,579.402 526.5,579C 535.197,570.637 543.531,561.97 551.5,553C 559.592,546.617 568.592,542.45 578.5,540.5 Z"/></g>
<g><path style="opacity:1" fill="#d9d8cb" d="M 587.5,601.5 C 588.496,601.586 589.329,601.252 590,600.5C 592.94,596.545 595.94,592.545 599,588.5C 599.37,579.339 598.37,570.339 596,561.5C 591.36,554.156 584.693,549.822 576,548.5C 573.538,549.159 571.038,549.493 568.5,549.5C 581.297,543.74 592.13,546.407 601,557.5C 608.853,570.951 611.186,585.285 608,600.5C 606.604,602.527 604.938,602.86 603,601.5C 602.091,598.089 601.091,594.755 600,591.5C 598.35,595.573 596.516,599.573 594.5,603.5C 591.584,604.861 589.251,604.195 587.5,601.5 Z"/></g>
<g><path style="opacity:1" fill="#f4f3e6" d="M 587.5,601.5 C 585.433,599.682 584.1,597.349 583.5,594.5C 582.635,593.417 581.635,593.251 580.5,594C 579.955,598.074 578.621,601.907 576.5,605.5C 574.878,607.439 573.044,607.772 571,606.5C 568.863,602.486 567.03,598.486 565.5,594.5C 564.522,594.977 563.689,595.643 563,596.5C 563.284,605.334 559.118,609.667 550.5,609.5C 550.348,605.228 549.348,601.228 547.5,597.5C 545.179,600.394 544.012,603.727 544,607.5C 541.618,612.067 538.951,612.4 536,608.5C 535.887,606.026 534.887,604.026 533,602.5C 527.856,607.313 523.023,612.48 518.5,618C 516.098,618.814 513.765,618.647 511.5,617.5C 508.811,609.37 507.645,601.036 508,592.5C 508.668,588.501 510.835,585.668 514.5,584C 518.801,584.363 523.134,584.363 527.5,584C 529.167,583 530.833,582 532.5,581C 540.864,572.97 548.864,564.637 556.5,556C 560.367,553.567 564.367,551.4 568.5,549.5C 571.038,549.493 573.538,549.159 576,548.5C 584.693,549.822 591.36,554.156 596,561.5C 598.37,570.339 599.37,579.339 599,588.5C 595.94,592.545 592.94,596.545 590,600.5C 589.329,601.252 588.496,601.586 587.5,601.5 Z"/></g>
<g><path style="opacity:0.982" fill="#191918" d="M 290.5,554.5 C 298.253,554.104 305.92,554.604 313.5,556C 315.5,557.333 317.5,558.667 319.5,560C 322.228,566.042 326.895,569.709 333.5,571C 335.378,572.543 336.878,574.376 338,576.5C 338.242,583.196 338.742,589.862 339.5,596.5C 339.461,598.587 338.461,599.921 336.5,600.5C 332.274,599.93 328.108,599.263 324,598.5C 322.5,600 321,601.5 319.5,603C 317.287,603.626 315.12,603.459 313,602.5C 306.564,605.689 301.23,604.356 297,598.5C 284.481,607.161 276.648,603.994 273.5,589C 271.944,573.778 277.611,562.278 290.5,554.5 Z"/></g>
<g><path style="opacity:1" fill="#f4f3e6" d="M 334.5,587.5 C 334.5,590.167 334.5,592.833 334.5,595.5C 333.167,595.5 331.833,595.5 330.5,595.5C 327.482,595.335 324.482,595.502 321.5,596C 320.022,598.039 318.022,598.872 315.5,598.5C 315.5,597.5 315.5,596.5 315.5,595.5C 312.326,596.015 309.326,597.015 306.5,598.5C 305.5,598.333 304.5,598.167 303.5,598C 301.441,595.366 299.275,592.866 297,590.5C 296.292,591.381 295.458,592.047 294.5,592.5C 290.404,593.285 287.07,592.118 284.5,589C 284.833,588.667 285.167,588.333 285.5,588C 283.667,587.5 282.5,586.333 282,584.5C 281.501,580.179 281.334,575.846 281.5,571.5C 281.709,570.078 282.209,568.745 283,567.5C 286.167,565 289.333,562.5 292.5,560C 298.167,559.333 303.833,559.333 309.5,560C 314.42,562.916 318.753,566.582 322.5,571C 326.232,572.461 329.732,574.294 333,576.5C 333.936,580.114 334.436,583.78 334.5,587.5 Z"/></g>
<g><path style="opacity:1" fill="#d7d6c9" d="M 281.5,571.5 C 281.334,575.846 281.501,580.179 282,584.5C 282.5,586.333 283.667,587.5 285.5,588C 285.167,588.333 284.833,588.667 284.5,589C 287.07,592.118 290.404,593.285 294.5,592.5C 293.641,595.452 291.641,597.285 288.5,598C 285.364,599.041 282.864,598.207 281,595.5C 279.409,588.608 279.076,581.608 280,574.5C 280.232,573.263 280.732,572.263 281.5,571.5 Z"/></g>
<g><path style="opacity:1" fill="#64635e" d="M 334.5,587.5 C 335.477,590.287 335.81,593.287 335.5,596.5C 333.585,596.784 331.919,596.451 330.5,595.5C 331.833,595.5 333.167,595.5 334.5,595.5C 334.5,592.833 334.5,590.167 334.5,587.5 Z"/></g>

        
<g><path style="opacity:0.997" fill="#1c1c1b" d="M 680.5,126.5 C 680.427,128.027 681.094,129.027 682.5,129.5C 689.535,136.546 695.368,144.546 700,153.5C 706.989,169.453 710.822,186.12 711.5,203.5C 711.507,208.978 710.007,213.978 707,218.5C 694.972,234.375 679.472,239.208 660.5,233C 649.358,228.015 639.525,221.182 631,212.5C 628.746,208.993 626.746,205.327 625,201.5C 623.375,186.337 619.875,171.67 614.5,157.5C 614.34,155.847 613.674,154.514 612.5,153.5C 612.5,154.5 612.5,155.5 612.5,156.5C 609.072,156.547 606.072,157.713 603.5,160C 588.1,175.301 578.933,193.801 576,215.5C 575.256,236.067 574.422,256.567 573.5,277C 567.162,277.495 560.828,278.828 554.5,281C 545.186,282.609 535.853,284.109 526.5,285.5C 519.765,284.316 513.098,282.816 506.5,281C 500.434,277.976 494.768,274.476 489.5,270.5C 489.027,269.094 488.027,268.427 486.5,268.5C 479.332,264.498 473.665,258.998 469.5,252C 471.565,216.238 480.732,182.405 497,150.5C 508.712,132.285 522.879,116.118 539.5,102C 548.048,96.2249 557.048,91.2249 566.5,87C 575.746,84.1785 585.079,83.0118 594.5,83.5C 627.644,89.0005 656.311,103.334 680.5,126.5 Z"/></g>
<g><path style="opacity:1" fill="#f5f4e7" d="M 599.5,127.5 C 595.434,129.018 591.101,129.851 586.5,130C 571.233,139.266 559.4,151.766 551,167.5C 547.78,175.608 543.78,183.274 539,190.5C 535.467,199.235 532.801,208.235 531,217.5C 530.679,226.227 531.346,234.894 533,243.5C 537.865,248.7 543.032,253.533 548.5,258C 554.5,258.667 560.5,258.667 566.5,258C 567,257.5 567.5,257 568,256.5C 568.499,260.486 568.666,264.486 568.5,268.5C 567.814,269.848 566.814,271.015 565.5,272C 550.808,276.343 535.808,278.343 520.5,278C 515.648,277.287 510.981,275.954 506.5,274C 500.998,270.415 495.331,267.081 489.5,264C 484.167,260 478.833,256 473.5,252C 476.416,217.525 485.916,184.692 502,153.5C 514.078,134.19 529.245,117.69 547.5,104C 557.194,97.1542 567.86,92.4875 579.5,90C 596.351,89.2934 612.685,91.9601 628.5,98C 640.162,104.162 651.496,110.829 662.5,118C 684.851,134.853 699.018,157.02 705,184.5C 710.212,200.486 706.379,213.653 693.5,224C 684.453,229.53 674.786,230.863 664.5,228C 656.671,223.92 649.004,219.587 641.5,215C 636.813,210.457 632.98,205.291 630,199.5C 628.36,186.636 625.694,173.969 622,161.5C 616.923,150.347 611.59,139.347 606,128.5C 602.819,123.839 598.652,120.506 593.5,118.5C 588.002,119.338 586.335,122.338 588.5,127.5C 589.138,125.03 590.638,123.363 593,122.5C 595.669,123.577 597.836,125.243 599.5,127.5 Z"/></g>
<g><path style="opacity:0.996" fill="#1d1c1b" d="M 241.5,150.5 C 241.427,152.027 242.094,153.027 243.5,153.5C 247.183,157.025 250.35,161.025 253,165.5C 265.57,190.976 278.903,215.976 293,240.5C 293.667,245.5 293.667,250.5 293,255.5C 290.092,260.446 288.092,265.779 287,271.5C 280.396,282.771 271.229,291.271 259.5,297C 250.619,299.831 241.619,300.165 232.5,298C 229.993,297.907 227.826,297.074 226,295.5C 225.647,294.328 225.813,293.162 226.5,292C 222.493,281.47 219.659,270.637 218,259.5C 212.471,246.581 207.138,233.581 202,220.5C 195.527,207.228 186.86,195.562 176,185.5C 176.125,192.254 177.125,198.921 179,205.5C 181.447,214.866 184.28,224.033 187.5,233C 187.344,237.136 186.177,240.969 184,244.5C 179.5,249 175,253.5 170.5,258C 152.753,266.41 135.086,266.41 117.5,258C 108.909,250.076 102.743,240.576 99,229.5C 97.6673,214.519 97.3339,199.519 98,184.5C 100.239,173.19 102.239,161.856 104,150.5C 109.333,141.167 114.667,131.833 120,122.5C 125.727,112.775 133.894,105.941 144.5,102C 161.701,94.8991 179.368,93.5658 197.5,98C 206.481,102.314 212.648,109.147 216,118.5C 225.23,128.65 233.73,139.317 241.5,150.5 Z"/></g>
<g><path style="opacity:1" fill="#f5f4e7" d="M 227.5,277.5 C 241.687,272.274 247.187,261.941 244,246.5C 241.164,237.825 237.497,229.491 233,221.5C 228.014,212.865 223.014,204.199 218,195.5C 210.859,186.86 202.359,179.86 192.5,174.5C 191.83,172.709 191.163,171.042 190.5,169.5C 188.495,163.663 184.495,161.496 178.5,163C 173.097,168.144 170.43,174.478 170.5,182C 171.681,198.964 175.681,215.131 182.5,230.5C 182.132,233.638 181.299,236.638 180,239.5C 175.167,244.333 170.333,249.167 165.5,254C 151.873,259.223 138.206,259.556 124.5,255C 114.299,248.45 107.466,239.283 104,227.5C 103.606,216.328 103.106,205.162 102.5,194C 104.161,182.196 105.661,170.363 107,158.5C 108.109,154.281 109.775,150.281 112,146.5C 117.252,138.332 122.252,129.999 127,121.5C 136.952,110.169 149.452,103.336 164.5,101C 172.5,100.333 180.5,100.333 188.5,101C 193.814,102.155 198.814,104.155 203.5,107C 206.779,112.386 209.946,117.886 213,123.5C 224.381,137.213 235.381,151.213 246,165.5C 259.52,192.545 273.52,219.212 288,245.5C 286.241,268.278 274.741,284.112 253.5,293C 246.174,293.5 238.841,293.666 231.5,293.5C 230.373,288.118 229.039,282.784 227.5,277.5 Z"/></g>
<g><path style="opacity:0.702" fill="#83837c" d="M 680.5,126.5 C 681.906,126.973 682.573,127.973 682.5,129.5C 681.094,129.027 680.427,128.027 680.5,126.5 Z"/></g>
<g><path style="opacity:1" fill="#c5c4b5" d="M 599.5,127.5 C 605.912,134.991 610.246,143.657 612.5,153.5C 608.142,152.156 604.142,152.989 600.5,156C 583.672,171.822 573.839,191.322 571,214.5C 570.495,232.674 569.662,250.674 568.5,268.5C 568.666,264.486 568.499,260.486 568,256.5C 567.5,257 567,257.5 566.5,258C 560.5,258.667 554.5,258.667 548.5,258C 543.032,253.533 537.865,248.7 533,243.5C 531.346,234.894 530.679,226.227 531,217.5C 532.801,208.235 535.467,199.235 539,190.5C 543.78,183.274 547.78,175.608 551,167.5C 559.4,151.766 571.233,139.266 586.5,130C 591.101,129.851 595.434,129.018 599.5,127.5 Z"/></g>
<g><path style="opacity:0.718" fill="#85847e" d="M 241.5,150.5 C 242.906,150.973 243.573,151.973 243.5,153.5C 242.094,153.027 241.427,152.027 241.5,150.5 Z"/></g>
<g><path style="opacity:1" fill="#abaaa1" d="M 612.5,153.5 C 613.674,154.514 614.34,155.847 614.5,157.5C 613.833,157.167 613.167,156.833 612.5,156.5C 612.5,155.5 612.5,154.5 612.5,153.5 Z"/></g>
<g><path style="opacity:1" fill="#c5c4b6" d="M 190.5,169.5 C 191.163,171.042 191.83,172.709 192.5,174.5C 202.359,179.86 210.859,186.86 218,195.5C 223.014,204.199 228.014,212.865 233,221.5C 237.497,229.491 241.164,237.825 244,246.5C 247.187,261.941 241.687,272.274 227.5,277.5C 225.286,269.641 223.12,261.641 221,253.5C 214.61,239.664 208.61,225.664 203,211.5C 195.375,198.865 185.875,187.698 174.5,178C 175.56,175.263 176.394,172.43 177,169.5C 182.728,163.847 187.062,164.847 190,172.5C 190.483,171.552 190.649,170.552 190.5,169.5 Z"/></g>
<g><path style="opacity:0.447" fill="#898982" d="M 486.5,268.5 C 488.027,268.427 489.027,269.094 489.5,270.5C 487.973,270.573 486.973,269.906 486.5,268.5 Z"/></g>

        
<g><path style="opacity:0.998" fill="#1c2021" d="M 703.5,385.5 C 703.41,388.152 704.076,390.485 705.5,392.5C 706.37,394.032 706.036,395.532 704.5,397C 701.814,398.368 699.147,399.701 696.5,401C 687.337,403.06 678.337,403.893 669.5,403.5C 671.81,407.254 673.643,411.254 675,415.5C 676.619,423.927 678.619,432.26 681,440.5C 682.454,454.02 679.787,466.687 673,478.5C 663.749,491.086 652.582,501.586 639.5,510C 630.893,513.302 622.893,517.635 615.5,523C 597.029,529.157 579.029,536.491 561.5,545C 545.683,550.606 529.683,555.606 513.5,560C 521.167,567 528.833,574 536.5,581C 541.889,585.389 547.556,589.389 553.5,593C 559.667,598.5 565.833,604 572,609.5C 578.423,618.674 584.09,628.34 589,638.5C 598.788,663.109 604.621,688.609 606.5,715C 605.825,731.869 601.492,747.703 593.5,762.5C 592.711,762.783 592.044,763.283 591.5,764C 593.134,764.494 594.801,764.66 596.5,764.5C 603.201,764.682 609.201,766.849 614.5,771C 619.719,777.218 624.552,783.718 629,790.5C 633.064,794.786 637.897,797.952 643.5,800C 646.319,802.72 645.986,805.053 642.5,807C 635.644,812.007 627.978,814.507 619.5,814.5C 615.167,814.5 610.833,814.5 606.5,814.5C 606.263,815.791 606.596,816.791 607.5,817.5C 609.143,819.708 608.81,821.541 606.5,823C 599.093,824.492 591.593,825.325 584,825.5C 570.833,824.357 557.666,823.19 544.5,822C 528.753,817.882 515.253,810.049 504,798.5C 495.911,789.336 489.577,779.003 485,767.5C 473.056,772.575 460.556,774.908 447.5,774.5C 441.513,773.858 435.513,773.358 429.5,773C 427,772.625 424.667,771.792 422.5,770.5C 418.78,774.733 415.613,779.4 413,784.5C 396.732,800.487 377.065,808.487 354,808.5C 349.103,808.068 344.269,807.234 339.5,806C 337.709,805.585 336.376,804.585 335.5,803C 338.138,800.346 341.138,798.18 344.5,796.5C 345.973,795.928 347.307,795.095 348.5,794C 346.609,793.797 344.943,794.297 343.5,795.5C 334.515,796.911 325.515,796.744 316.5,795C 304.562,791.925 299.562,784.425 301.5,772.5C 312.272,769.781 321.939,764.947 330.5,758C 319.87,750.041 313.37,739.541 311,726.5C 307.602,710.123 307.769,693.789 311.5,677.5C 312.793,675.636 312.793,673.636 311.5,671.5C 310.893,671.624 310.56,671.957 310.5,672.5C 309.013,673.804 307.346,674.97 305.5,676C 298.059,677.01 291.059,675.843 284.5,672.5C 275.52,664.574 271.187,654.574 271.5,642.5C 272.908,618.525 282.242,598.358 299.5,582C 310.392,573.408 322.392,571.241 335.5,575.5C 336.947,576.885 337.947,576.552 338.5,574.5C 338.433,573.041 338.766,571.708 339.5,570.5C 340.757,569.377 340.424,568.711 338.5,568.5C 315.681,566.503 293.348,562.003 271.5,555C 242.136,546.981 214.802,534.648 189.5,518C 175.252,507.086 163.085,494.253 153,479.5C 143.563,463.572 140.896,446.572 145,428.5C 139.772,431.396 134.272,432.062 128.5,430.5C 127.063,426.472 126.397,422.305 126.5,418C 128.512,388.142 139.012,361.642 158,338.5C 167.466,327.852 178.966,320.352 192.5,316C 198.537,315.303 204.537,315.47 210.5,316.5C 211.252,310.492 213.086,304.826 216,299.5C 222.667,288.833 229.333,278.167 236,267.5C 246.355,255.578 258.188,245.412 271.5,237C 349.867,210.135 429.201,206.801 509.5,227C 517.288,230.394 524.955,234.061 532.5,238C 541.167,244.671 550.501,250.338 560.5,255C 565.667,261.5 570.833,268 576,274.5C 579.431,281.886 582.098,289.553 584,297.5C 600.968,293.905 616.801,296.738 631.5,306C 657.957,323.456 680.123,345.29 698,371.5C 700.529,375.926 702.362,380.592 703.5,385.5 Z"/></g>
<g><path style="opacity:1" fill="#fefefe" d="M 689.5,369.5 C 691.394,388.441 683.061,395.941 664.5,392C 659.57,389.912 654.57,388.246 649.5,387C 651.982,389.553 654.315,392.053 656.5,394.5C 656.491,396.308 656.991,397.975 658,399.5C 663.267,403.266 666.767,408.266 668.5,414.5C 666.094,444.812 653.427,469.979 630.5,490C 609.172,505.502 586.172,518.168 561.5,528C 537.744,534.712 514.077,541.712 490.5,549C 467.909,553.643 445.076,556.476 422,557.5C 403.845,556.985 385.678,556.818 367.5,557C 353.151,555.163 338.817,553.163 324.5,551C 281.912,540.25 241.245,524.583 202.5,504C 184.13,492.633 168.63,478.133 156,460.5C 152.008,453.009 150.508,445.009 151.5,436.5C 153.986,428.609 154.986,420.609 154.5,412.5C 152.056,416.118 149.39,419.618 146.5,423C 142.683,424.995 138.683,426.495 134.5,427.5C 133.201,426.91 132.368,425.91 132,424.5C 131.833,422.5 131.667,420.5 131.5,418.5C 132.829,409.519 133.995,400.519 135,391.5C 141.619,374.254 150.285,358.254 161,343.5C 170.072,333.387 180.905,325.887 193.5,321C 200.189,320.622 206.856,320.622 213.5,321C 224.905,285.517 246.572,258.184 278.5,239C 326.787,224.631 376.12,217.964 426.5,219C 447.799,221.481 469.132,224.481 490.5,228C 501.708,230.134 512.375,233.801 522.5,239C 534.166,246.835 546.166,254.169 558.5,261C 569.707,272.248 576.541,285.748 579,301.5C 581.376,308.587 585.043,314.92 590,320.5C 588.297,314.55 586.463,308.55 584.5,302.5C 599.35,299.458 613.35,301.625 626.5,309C 651.248,325.248 672.248,345.414 689.5,369.5 Z"/></g>
<g><path style="opacity:1" fill="#0a0d0e" d="M 618.5,337.5 C 634.542,353.376 653.208,365.543 674.5,374C 676.954,375.74 678.454,377.907 679,380.5C 677.612,381.554 676.112,381.72 674.5,381C 654.654,371.331 636.821,358.831 621,343.5C 619.441,341.783 618.608,339.783 618.5,337.5 Z"/></g>
<g><path style="opacity:1" fill="#dcebf2" d="M 689.5,369.5 C 695.393,376.932 698.726,385.265 699.5,394.5C 685.507,400.14 671.674,399.807 658,393.5C 657.235,393.57 656.735,393.903 656.5,394.5C 654.315,392.053 651.982,389.553 649.5,387C 654.57,388.246 659.57,389.912 664.5,392C 683.061,395.941 691.394,388.441 689.5,369.5 Z"/></g>
<g><path style="opacity:1" fill="#070a0b" d="M 147.5,382.5 C 148.947,383.134 149.613,384.301 149.5,386C 148.047,393.453 146.881,400.953 146,408.5C 144.374,411.128 142.374,413.461 140,415.5C 141.412,404.277 143.912,393.277 147.5,382.5 Z"/></g>
<g><path style="opacity:0.686" fill="#686862" d="M 703.5,385.5 C 704.924,387.515 705.59,389.848 705.5,392.5C 704.076,390.485 703.41,388.152 703.5,385.5 Z"/></g>
<g><path style="opacity:1" fill="#dcecf3" d="M 668.5,414.5 C 671.657,425.264 674.324,436.264 676.5,447.5C 675.399,460.687 670.732,472.354 662.5,482.5C 657.167,487.167 652.167,492.167 647.5,497.5C 636.091,503.71 624.757,510.21 613.5,517C 594.28,523.296 575.614,530.963 557.5,540C 520.924,553.415 483.257,562.081 444.5,566C 434.682,566.81 424.849,567.31 415,567.5C 386.526,565.51 358.026,564.01 329.5,563C 288.931,556.527 250.265,544.193 213.5,526C 189.805,512.97 170.639,495.137 156,472.5C 149.589,460.938 148.089,448.938 151.5,436.5C 150.508,445.009 152.008,453.009 156,460.5C 168.63,478.133 184.13,492.633 202.5,504C 241.245,524.583 281.912,540.25 324.5,551C 338.817,553.163 353.151,555.163 367.5,557C 385.678,556.818 403.845,556.985 422,557.5C 445.076,556.476 467.909,553.643 490.5,549C 514.077,541.712 537.744,534.712 561.5,528C 586.172,518.168 609.172,505.502 630.5,490C 653.427,469.979 666.094,444.812 668.5,414.5 Z"/></g>
<g><path style="opacity:1" fill="#284c5d" d="M 662.5,482.5 C 658.5,488.5 653.5,493.5 647.5,497.5C 652.167,492.167 657.167,487.167 662.5,482.5 Z"/></g>
<g><path style="opacity:1" fill="#dcecf3" d="M 478.5,672.5 C 479.316,674.144 480.65,675.31 482.5,676C 493.934,680.724 504.101,678.891 513,670.5C 512.484,676.348 510.651,681.848 507.5,687C 510.833,689 514.167,689 517.5,687C 527.596,680.224 534.763,671.058 539,659.5C 547.187,642.518 544.353,627.685 530.5,615C 520.216,606.692 508.55,601.359 495.5,599C 490.581,598.198 485.748,598.365 481,599.5C 479.209,602.784 478.042,606.284 477.5,610C 478.872,614.616 480.538,619.116 482.5,623.5C 479.358,625.119 476.024,626.119 472.5,626.5C 473.018,625.423 473.352,624.256 473.5,623C 469.778,615.111 469.778,607.278 473.5,599.5C 473.167,598.5 472.5,597.833 471.5,597.5C 469.364,598.472 468.197,600.139 468,602.5C 467.081,608.966 467.581,615.299 469.5,621.5C 459.019,625.309 450.519,631.642 444,640.5C 430.726,618.269 417.226,596.269 403.5,574.5C 414.63,572.841 425.963,571.841 437.5,571.5C 461.059,569.586 484.392,566.42 507.5,562C 519.747,573.585 532.58,584.418 546,594.5C 546.333,596.047 545.833,597.38 544.5,598.5C 548.847,601.371 552.014,605.371 554,610.5C 566.396,641.748 559.896,668.248 534.5,690C 524.347,698.455 512.68,702.122 499.5,701C 486.796,695.778 479.796,686.278 478.5,672.5 Z"/></g>
<g><path style="opacity:0.118" fill="#cacabf" d="M 338.5,568.5 C 340.424,568.711 340.757,569.377 339.5,570.5C 339.167,569.833 338.833,569.167 338.5,568.5 Z"/></g>
<g><path style="opacity:1" fill="#fefefe" d="M 350.5,568.5 C 352.531,568.972 354.198,569.972 355.5,571.5C 348.201,589.029 343.534,607.362 341.5,626.5C 340.957,626.56 340.624,626.893 340.5,627.5C 343.402,639.705 344.402,652.038 343.5,664.5C 337.267,663.811 331.6,661.644 326.5,658C 319.953,652.954 314.286,647.12 309.5,640.5C 307.682,644.136 305.849,647.802 304,651.5C 302.562,652.718 300.895,653.385 299,653.5C 292.8,651.961 288.466,648.294 286,642.5C 283.921,626.075 287.588,611.075 297,597.5C 303.005,590.663 309.171,583.996 315.5,577.5C 324.715,575.295 332.881,577.295 340,583.5C 341.277,578.507 342.444,573.507 343.5,568.5C 345.833,568.5 348.167,568.5 350.5,568.5 Z"/></g>
<g><path style="opacity:1" fill="#56838f" d="M 350.5,568.5 C 352.5,568.5 354.5,568.5 356.5,568.5C 356.737,569.791 356.404,570.791 355.5,571.5C 354.198,569.972 352.531,568.972 350.5,568.5 Z"/></g>
<g><path style="opacity:1" fill="#dce8e2" d="M 384.5,747.5 C 383.415,745.413 381.749,744.08 379.5,743.5C 376.846,741.591 374.18,739.591 371.5,737.5C 368.833,734.167 365.833,731.167 362.5,728.5C 358.89,722.384 355.057,716.384 351,710.5C 348.215,702.028 346.382,693.361 345.5,684.5C 349.437,684.198 352.437,682.365 354.5,679C 358.134,678.204 360.134,676.037 360.5,672.5C 369.744,695.227 386.577,708.561 411,712.5C 415.943,712.369 419.276,710.036 421,705.5C 421.667,700.5 421.667,695.5 421,690.5C 416.96,682.666 414.293,674.333 413,665.5C 411.296,653.98 409.796,642.48 408.5,631C 398.182,626.92 387.515,624.42 376.5,623.5C 369.904,623.232 363.571,624.399 357.5,627C 355.536,628.451 354.203,630.284 353.5,632.5C 350.992,629.035 348.658,625.369 346.5,621.5C 349.238,604.046 353.572,587.046 359.5,570.5C 362,570.167 364.5,569.833 367,569.5C 377.457,570.851 387.957,571.518 398.5,571.5C 401.759,576.356 404.259,581.69 406,587.5C 410.554,595.574 415.888,603.24 422,610.5C 422.333,611.833 422.667,613.167 423,614.5C 425.241,618.532 427.907,622.198 431,625.5C 434.183,632.223 437.683,638.89 441.5,645.5C 436.062,659.608 436.395,673.608 442.5,687.5C 445.024,689.19 447.024,691.357 448.5,694C 458.616,698.787 468.616,698.62 478.5,693.5C 479.748,694.04 480.915,694.707 482,695.5C 480.68,711.111 480.346,726.777 481,742.5C 481.574,749.111 482.741,755.611 484.5,762C 484.095,762.945 483.428,763.612 482.5,764C 456.041,771.965 430.041,770.632 404.5,760C 398.167,755.14 391.5,750.973 384.5,747.5 Z"/></g>
<g><path style="opacity:1" fill="#214657" d="M 437.5,571.5 C 425.963,571.841 414.63,572.841 403.5,574.5C 402.596,573.791 402.263,572.791 402.5,571.5C 414.167,571.5 425.833,571.5 437.5,571.5 Z"/></g>
<g><path style="opacity:0.553" fill="#93928a" d="M 338.5,574.5 C 337.947,576.552 336.947,576.885 335.5,575.5C 336.609,575.443 337.609,575.11 338.5,574.5 Z"/></g>
<g><path style="opacity:1" fill="#dbebf3" d="M 315.5,577.5 C 309.171,583.996 303.005,590.663 297,597.5C 287.588,611.075 283.921,626.075 286,642.5C 288.466,648.294 292.8,651.961 299,653.5C 300.895,653.385 302.562,652.718 304,651.5C 305.849,647.802 307.682,644.136 309.5,640.5C 314.286,647.12 319.953,652.954 326.5,658C 331.6,661.644 337.267,663.811 343.5,664.5C 344.402,652.038 343.402,639.705 340.5,627.5C 340.624,626.893 340.957,626.56 341.5,626.5C 351.199,635.23 356.699,646.23 358,659.5C 359.809,668.085 356.976,674.585 349.5,679C 336.467,684.992 325.3,682.492 316,671.5C 315.5,670 315,668.5 314.5,667C 316.52,664.379 316.853,661.545 315.5,658.5C 312.756,662.751 309.422,666.585 305.5,670C 299.786,671.57 294.12,671.237 288.5,669C 276.97,657.72 273.47,644.22 278,628.5C 282.014,612.17 289.847,598.003 301.5,586C 305.807,582.517 310.473,579.683 315.5,577.5 Z"/></g>
<g><path style="opacity:1" fill="#fefefe" d="M 478.5,672.5 C 478.042,660.675 477.042,660.675 475.5,672.5C 472.509,680.273 466.676,684.273 458,684.5C 455.105,684.468 452.605,683.468 450.5,681.5C 447.814,678.097 445.147,674.764 442.5,671.5C 441.705,666.851 441.539,662.184 442,657.5C 443.242,651.51 445.242,645.844 448,640.5C 451.167,638.667 453.667,636.167 455.5,633C 460.98,630.059 466.647,627.892 472.5,626.5C 476.024,626.119 479.358,625.119 482.5,623.5C 480.538,619.116 478.872,614.616 477.5,610C 478.042,606.284 479.209,602.784 481,599.5C 485.748,598.365 490.581,598.198 495.5,599C 508.55,601.359 520.216,606.692 530.5,615C 544.353,627.685 547.187,642.518 539,659.5C 534.763,671.058 527.596,680.224 517.5,687C 514.167,689 510.833,689 507.5,687C 510.651,681.848 512.484,676.348 513,670.5C 504.101,678.891 493.934,680.724 482.5,676C 480.65,675.31 479.316,674.144 478.5,672.5 Z"/></g>
<g><path style="opacity:1" fill="#fefefe" d="M 598.5,692.5 C 599.891,721.853 590.557,747.02 570.5,768C 559.762,776.618 547.595,782.118 534,784.5C 518.296,781.468 508.296,772.135 504,756.5C 503.426,749.631 502.592,742.797 501.5,736C 501.833,734.167 502.167,732.333 502.5,730.5C 511.083,737.071 520.75,739.237 531.5,737C 540.772,733.068 548.272,726.901 554,718.5C 555.752,715.328 557.752,712.328 560,709.5C 561.618,705.932 562.951,702.265 564,698.5C 566.3,679.719 566.8,661.052 565.5,642.5C 564.701,628.837 561.368,615.837 555.5,603.5C 556.002,602.479 556.668,602.312 557.5,603C 561.367,607.202 565.533,611.035 570,614.5C 573.327,622.496 577.66,629.829 583,636.5C 586.661,648.151 590.328,659.818 594,671.5C 595.405,678.541 596.905,685.541 598.5,692.5 Z"/></g>
<g><path style="opacity:1" fill="#eaf0e8" d="M 360.5,672.5 C 361.573,666.885 361.74,661.218 361,655.5C 359.593,647.445 357.093,639.779 353.5,632.5C 354.203,630.284 355.536,628.451 357.5,627C 363.571,624.399 369.904,623.232 376.5,623.5C 387.515,624.42 398.182,626.92 408.5,631C 409.796,642.48 411.296,653.98 413,665.5C 414.293,674.333 416.96,682.666 421,690.5C 421.667,695.5 421.667,700.5 421,705.5C 419.276,710.036 415.943,712.369 411,712.5C 386.577,708.561 369.744,695.227 360.5,672.5 Z"/></g>
<g><path style="opacity:1" fill="#dcecf3" d="M 565.5,642.5 C 566.8,661.052 566.3,679.719 564,698.5C 562.951,702.265 561.618,705.932 560,709.5C 557.752,712.328 555.752,715.328 554,718.5C 548.272,726.901 540.772,733.068 531.5,737C 520.75,739.237 511.083,737.071 502.5,730.5C 502.167,732.333 501.833,734.167 501.5,736C 502.592,742.797 503.426,749.631 504,756.5C 508.296,772.135 518.296,781.468 534,784.5C 547.595,782.118 559.762,776.618 570.5,768C 590.557,747.02 599.891,721.853 598.5,692.5C 603.668,717.492 599.501,740.826 586,762.5C 585.175,764.701 585.675,766.534 587.5,768C 598.604,767.364 607.771,771.197 615,779.5C 618.98,786.624 623.814,793.124 629.5,799C 632.661,800.413 635.661,802.08 638.5,804C 634.952,805.941 631.286,807.607 627.5,809C 619.193,809.999 610.86,810.832 602.5,811.5C 601.423,814.474 601.423,817.474 602.5,820.5C 583.395,820.922 564.395,819.756 545.5,817C 534.801,813.483 524.801,808.65 515.5,802.5C 513.167,799.5 510.5,796.833 507.5,794.5C 491.098,775.322 483.432,752.989 484.5,727.5C 484.49,718.091 485.323,708.757 487,699.5C 493.371,705.304 500.871,707.47 509.5,706C 520.99,704.087 530.99,699.254 539.5,691.5C 542.833,688.833 545.833,685.833 548.5,682.5C 556.689,670.778 561.856,657.778 564,643.5C 564.383,642.944 564.883,642.611 565.5,642.5 Z"/></g>
<g><path style="opacity:0.18" fill="#a3a29a" d="M 310.5,672.5 C 310.56,671.957 310.893,671.624 311.5,671.5C 312.793,673.636 312.793,675.636 311.5,677.5C 311.784,675.585 311.451,673.919 310.5,672.5 Z"/></g>
<g><path style="opacity:1" fill="#d9eaf1" d="M 442.5,671.5 C 445.147,674.764 447.814,678.097 450.5,681.5C 452.605,683.468 455.105,684.468 458,684.5C 466.676,684.273 472.509,680.273 475.5,672.5C 475.532,677.945 476.032,683.278 477,688.5C 473.472,691.584 469.306,693.251 464.5,693.5C 458.194,693.511 452.527,691.677 447.5,688C 444.363,682.955 442.697,677.455 442.5,671.5 Z"/></g>
<g><path style="opacity:1" fill="#dbecf3" d="M 349.5,717.5 C 349.122,720.022 348.289,722.355 347,724.5C 338.527,720.366 330.86,715.032 324,708.5C 323.242,714.891 323.576,721.224 325,727.5C 327.333,732.167 329.667,736.833 332,741.5C 338.772,748.117 345.939,754.117 353.5,759.5C 344.842,759.336 337.175,756.503 330.5,751C 328.037,747.535 325.204,744.369 322,741.5C 312.917,721.081 311.25,700.081 317,678.5C 323.898,685.032 332.065,687.698 341.5,686.5C 342.151,697.438 344.817,707.772 349.5,717.5 Z"/></g>
<g><path style="opacity:1" fill="#335869" d="M 548.5,682.5 C 545.833,685.833 542.833,688.833 539.5,691.5C 541.5,687.5 544.5,684.5 548.5,682.5 Z"/></g>
<g><path style="opacity:1" fill="#fcfcfd" d="M 349.5,717.5 C 354.089,721.292 357.756,725.959 360.5,731.5C 362.5,735.5 365.5,738.5 369.5,740.5C 373.108,741.759 375.441,744.092 376.5,747.5C 379.163,754.327 382.497,760.827 386.5,767C 376.544,768.177 367.211,766.344 358.5,761.5C 356.447,761.598 354.78,760.931 353.5,759.5C 345.939,754.117 338.772,748.117 332,741.5C 329.667,736.833 327.333,732.167 325,727.5C 323.576,721.224 323.242,714.891 324,708.5C 330.86,715.032 338.527,720.366 347,724.5C 348.289,722.355 349.122,720.022 349.5,717.5 Z"/></g>
<g><path style="opacity:1" fill="#627475" d="M 362.5,728.5 C 365.833,731.167 368.833,734.167 371.5,737.5C 367.5,735.5 364.5,732.5 362.5,728.5 Z"/></g>
<g><path style="opacity:1" fill="#8badb6" d="M 360.5,731.5 C 363.833,734.167 366.833,737.167 369.5,740.5C 365.5,738.5 362.5,735.5 360.5,731.5 Z"/></g>
<g><path style="opacity:1" fill="#687a7b" d="M 379.5,743.5 C 381.749,744.08 383.415,745.413 384.5,747.5C 382.251,746.92 380.585,745.587 379.5,743.5 Z"/></g>
<g><path style="opacity:1" fill="#dbecf3" d="M 376.5,747.5 C 386.948,753.896 397.615,760.062 408.5,766C 410.813,766.662 413.146,767.162 415.5,767.5C 415.66,769.199 415.494,770.866 415,772.5C 408.073,783.563 398.573,791.73 386.5,797C 372.775,801.685 358.775,803.352 344.5,802C 346.396,799.932 348.396,798.099 350.5,796.5C 353.833,795.167 356.167,792.833 357.5,789.5C 360.812,786.854 363.812,783.854 366.5,780.5C 366.113,779.28 365.28,778.613 364,778.5C 362.357,779.315 360.857,780.315 359.5,781.5C 359.528,778.749 360.528,776.415 362.5,774.5C 351.538,772.182 341.205,768.516 331.5,763.5C 332.479,761.855 333.812,760.521 335.5,759.5C 342.062,762.14 348.729,764.474 355.5,766.5C 356.442,766.392 357.275,766.059 358,765.5C 357.645,764.041 357.811,762.707 358.5,761.5C 367.211,766.344 376.544,768.177 386.5,767C 382.497,760.827 379.163,754.327 376.5,747.5 Z"/></g>
<g><path style="opacity:0.039" fill="#dad9cd" d="M 593.5,762.5 C 594.5,763.167 595.5,763.833 596.5,764.5C 594.801,764.66 593.134,764.494 591.5,764C 592.044,763.283 592.711,762.783 593.5,762.5 Z"/></g>
<g><path style="opacity:1" fill="#f4f7f8" d="M 331.5,763.5 C 341.205,768.516 351.538,772.182 362.5,774.5C 360.528,776.415 359.528,778.749 359.5,781.5C 354.576,786.465 348.576,789.631 341.5,791C 335.167,791.667 328.833,791.667 322.5,791C 315.818,790.409 310.318,787.576 306,782.5C 305.503,780.19 305.337,777.857 305.5,775.5C 307.564,775.313 309.564,774.813 311.5,774C 318.105,770.199 324.772,766.699 331.5,763.5 Z"/></g>
<g><path style="opacity:1" fill="#fefefe" d="M 577.5,780.5 C 592.945,777.899 605.612,782.566 615.5,794.5C 608.527,799.993 600.527,802.826 591.5,803C 591.043,803.414 590.709,803.914 590.5,804.5C 594.481,811.958 592.481,814.125 584.5,811C 574.633,805.789 565.967,799.122 558.5,791C 558.99,789.018 559.99,787.351 561.5,786C 566.846,783.83 572.179,781.997 577.5,780.5 Z"/></g>
<g><path style="opacity:1" fill="#4c6c7b" d="M 357.5,789.5 C 356.167,792.833 353.833,795.167 350.5,796.5C 352.5,793.833 354.833,791.5 357.5,789.5 Z"/></g>
<g><path style="opacity:0.165" fill="#b2b1a8" d="M 344.5,796.5 C 344.5,795.833 344.167,795.5 343.5,795.5C 344.943,794.297 346.609,793.797 348.5,794C 347.307,795.095 345.973,795.928 344.5,796.5 Z"/></g>
<g><path style="opacity:1" fill="#294e5f" d="M 507.5,794.5 C 510.5,796.833 513.167,799.5 515.5,802.5C 511.833,800.833 509.167,798.167 507.5,794.5 Z"/></g>
<g><path style="opacity:0.282" fill="#b1b0a7" d="M 619.5,814.5 C 615.232,814.869 611.232,815.869 607.5,817.5C 606.596,816.791 606.263,815.791 606.5,814.5C 610.833,814.5 615.167,814.5 619.5,814.5 Z"/></g>

        
<g><path style="opacity:0.904" fill="#020202" d="M 492.5,247.5 C 515.533,247.263 533.366,256.596 546,275.5C 550.875,284.412 555.042,293.579 558.5,303C 558.158,305.515 556.825,307.348 554.5,308.5C 552.205,306.52 549.539,305.353 546.5,305C 526.722,303.823 507.555,306.657 489,313.5C 491.296,328.823 493.796,344.156 496.5,359.5C 515.133,358.568 532.466,353.235 548.5,343.5C 551.079,344.888 551.079,346.388 548.5,348C 540.888,351.139 533.554,354.806 526.5,359C 517.117,363.072 507.45,366.239 497.5,368.5C 497.666,377.506 497.5,386.506 497,395.5C 496.586,395.957 496.086,396.291 495.5,396.5C 494.502,387.525 494.168,378.525 494.5,369.5C 474.538,371.28 454.538,371.78 434.5,371C 431.711,370.759 429.044,370.092 426.5,369C 429.84,366.991 433.507,365.824 437.5,365.5C 456.034,367.058 474.367,365.724 492.5,361.5C 493.422,356.507 493.255,351.507 492,346.5C 490.128,336.142 488.128,325.809 486,315.5C 485.439,314.978 484.772,314.645 484,314.5C 460.075,322.547 437.575,333.38 416.5,347C 413.333,350.167 410.167,353.333 407,356.5C 406.773,363.246 407.94,369.746 410.5,376C 408.984,382.558 406.484,388.725 403,394.5C 390.558,401.825 379.725,399.658 370.5,388C 367.5,386 364.5,386 361.5,388C 355.888,397.661 347.888,400.327 337.5,396C 334.667,394.5 332.5,392.333 331,389.5C 329.616,383.862 328.45,378.195 327.5,372.5C 326.325,372.281 325.325,372.614 324.5,373.5C 318.891,387.897 310.891,400.73 300.5,412C 298.223,413.959 295.723,415.459 293,416.5C 282.155,412.329 272.322,406.496 263.5,399C 245.45,388.357 226.117,384.857 205.5,388.5C 197.369,365.942 200.535,344.942 215,325.5C 215.218,305.905 222.385,289.405 236.5,276C 243.041,271.46 250.041,267.793 257.5,265C 263.793,264.142 269.793,265.142 275.5,268C 294.627,282.096 309.127,299.929 319,321.5C 323.344,332.367 327.177,343.367 330.5,354.5C 342.609,360.703 355.443,364.37 369,365.5C 378.23,363.734 387.397,361.734 396.5,359.5C 395.021,355.198 393.521,350.865 392,346.5C 391.46,332.433 394.46,319.1 401,306.5C 406.344,296.474 412.677,287.141 420,278.5C 431.941,268.442 445.108,260.275 459.5,254C 470.366,250.443 481.366,248.276 492.5,247.5 Z"/></g>
<g><path style="opacity:1" fill="#1b1b1b" d="M 491.5,251.5 C 512.015,251.342 528.515,259.342 541,275.5C 546.139,283.77 550.139,292.437 553,301.5C 545.161,299.952 536.995,299.452 528.5,300C 514.582,301.784 500.915,304.451 487.5,308C 484.415,296.075 480.915,284.242 477,272.5C 475.926,268.681 474.093,265.348 471.5,262.5C 475.843,277.668 480.176,293.168 484.5,309C 466.264,316.451 448.264,324.451 430.5,333C 420.352,339.081 411.352,346.581 403.5,355.5C 402.549,356.326 401.549,356.492 400.5,356C 397.116,351.224 395.116,345.891 394.5,340C 396.138,329.947 398.638,320.114 402,310.5C 405.755,305.997 408.755,300.997 411,295.5C 415.048,291.12 418.715,286.454 422,281.5C 436.682,268.507 453.516,259.341 472.5,254C 478.988,253.216 485.322,252.383 491.5,251.5 Z"/></g>
<g><path style="opacity:1" fill="#1b1b1b" d="M 256.5,269.5 C 263.905,268.705 270.571,270.539 276.5,275C 302.483,295.471 318.317,321.971 324,354.5C 322.601,353.773 321.101,353.273 319.5,353C 298.875,335.523 275.209,324.189 248.5,319C 238.929,317.048 229.263,316.214 219.5,316.5C 223.054,293.637 235.388,277.97 256.5,269.5 Z"/></g>
<g><path style="opacity:1" fill="#f3f2e5" d="M 223.5,320.5 C 258.583,321.886 289.249,334.053 315.5,357C 322.049,356.381 324.215,359.214 322,365.5C 317.972,381.561 310.305,395.561 299,407.5C 302.815,380.294 292.981,359.46 269.5,345C 256.136,341.189 243.469,342.856 231.5,350C 220.786,357.876 212.452,367.709 206.5,379.5C 203.61,364.357 205.777,350.024 213,336.5C 216.356,330.996 219.856,325.663 223.5,320.5 Z"/></g>
<g><path style="opacity:1" fill="#1b1b1b" d="M 327.5,358.5 C 327.56,357.957 327.893,357.624 328.5,357.5C 343.24,366.685 359.24,370.519 376.5,369C 385.084,366.187 393.751,363.687 402.5,361.5C 404.299,368.98 404.799,376.646 404,384.5C 402.453,391.217 398.286,394.884 391.5,395.5C 383.4,395.118 377.067,391.618 372.5,385C 367.996,381.538 363.663,381.704 359.5,385.5C 357.294,388.203 354.961,390.703 352.5,393C 347.713,393.879 343.047,393.545 338.5,392C 337.333,390.833 336.167,389.667 335,388.5C 332.616,381.015 331.283,373.348 331,365.5C 330.856,362.558 329.689,360.224 327.5,358.5 Z"/></g>

        
<g><path style="opacity:0.993" fill="#20201e" d="M 591.5,350.5 C 590.89,349.609 590.557,348.609 590.5,347.5C 598.093,347.538 604.593,350.538 610,356.5C 612.002,361.007 613.502,365.674 614.5,370.5C 614.02,374.293 612.353,377.46 609.5,380C 604.5,382.333 599.5,384.667 594.5,387C 582.992,386.084 571.492,384.917 560,383.5C 549.575,383.44 539.575,385.44 530,389.5C 529.099,405.656 527.099,421.656 524,437.5C 515.846,455.806 507.18,473.806 498,491.5C 496.381,493.772 494.548,495.772 492.5,497.5C 491.558,497.392 490.725,497.059 490,496.5C 490.124,476.86 487.791,457.527 483,438.5C 480.491,430.264 476.491,422.931 471,416.5C 465.075,419.213 459.241,422.046 453.5,425C 421.871,432.862 390.038,434.695 358,430.5C 338.546,433.337 319.379,432.004 300.5,426.5C 296.372,429.29 293.372,432.957 291.5,437.5C 286.174,448.647 282.34,460.313 280,472.5C 279.983,480.544 279.816,488.544 279.5,496.5C 278.448,498.256 276.781,498.923 274.5,498.5C 263.666,480.855 255.833,461.855 251,441.5C 248.471,427.539 249.971,414.039 255.5,401C 246.898,396.699 237.898,393.532 228.5,391.5C 218.197,392.724 207.863,393.224 197.5,393C 182.147,389.146 173.647,379.313 172,363.5C 171.333,358.833 171.333,354.167 172,349.5C 172.036,347.059 172.869,345.059 174.5,343.5C 175.086,343.709 175.586,344.043 176,344.5C 175.529,355.347 177.529,365.681 182,375.5C 187.543,382.974 195.043,386.974 204.5,387.5C 232.498,383.446 257.164,390.613 278.5,409C 291.714,416.182 305.714,421.182 320.5,424C 344.953,424.754 369.453,425.587 394,426.5C 413.476,426.449 432.642,423.949 451.5,419C 468.5,410 485.5,401 502.5,392C 517.586,386.527 532.92,381.86 548.5,378C 556.5,377.333 564.5,377.333 572.5,378C 579.063,379.986 585.73,380.986 592.5,381C 596.749,378.806 601.082,376.806 605.5,375C 606.872,373.758 607.872,372.258 608.5,370.5C 607.098,366.461 605.598,362.461 604,358.5C 599.684,355.934 595.517,353.267 591.5,350.5 Z"/></g>
<g><path style="opacity:0.408" fill="#9b9b93" d="M 590.5,347.5 C 590.557,348.609 590.89,349.609 591.5,350.5C 589.448,349.947 589.115,348.947 590.5,347.5 Z"/></g>
<g><path style="opacity:1" fill="#f3f2e5" d="M 523.5,390.5 C 524.649,390.791 525.316,391.624 525.5,393C 523.612,406.547 521.446,420.047 519,433.5C 511.787,450.924 503.787,467.924 495,484.5C 495.151,468.559 493.151,452.892 489,437.5C 485.392,429.112 480.892,421.278 475.5,414C 481.968,408.926 488.968,404.593 496.5,401C 505.492,397.175 514.492,393.675 523.5,390.5 Z"/></g>
<g><path style="opacity:1" fill="#f3f2e5" d="M 259.5,403.5 C 270.581,412.379 282.915,419.212 296.5,424C 280.894,441.812 273.394,462.645 274,486.5C 266.227,471.515 260.227,455.848 256,439.5C 254.469,427.135 255.636,415.135 259.5,403.5 Z"/></g>
<g><path style="opacity:0.751" fill="#e9e8dc" d="M 300.5,426.5 C 300.046,432.284 297.046,435.951 291.5,437.5C 293.372,432.957 296.372,429.29 300.5,426.5 Z"/></g>
<g><path style="opacity:0.796" fill="#62625d" d="M 279.5,496.5 C 280.404,497.209 280.737,498.209 280.5,499.5C 278.265,499.795 276.265,499.461 274.5,498.5C 276.781,498.923 278.448,498.256 279.5,496.5 Z"/></g>

        
<g><path style="opacity:0.99" fill="#07070a" d="M 334.5,239.5 C 334.5,238.5 334.5,237.5 334.5,236.5C 333.209,236.263 332.209,236.596 331.5,237.5C 329.254,237.936 327.087,238.603 325,239.5C 322.67,237.336 322.003,234.669 323,231.5C 324.455,228.088 326.288,224.921 328.5,222C 323.233,221.326 318.066,221.826 313,223.5C 311.029,223.719 309.862,222.885 309.5,221C 311.237,215.253 314.57,210.586 319.5,207C 324.198,204.651 328.864,202.318 333.5,200C 324.528,200.535 322.528,197.202 327.5,190C 330.253,188.499 332.92,186.999 335.5,185.5C 334.296,182.585 332.296,180.419 329.5,179C 320.577,175.47 311.577,172.137 302.5,169C 301.483,167.951 301.316,166.784 302,165.5C 307.762,162.001 314.095,160.334 321,160.5C 344.639,162.708 361.472,174.374 371.5,195.5C 372.548,197.933 373.214,197.933 373.5,195.5C 377.16,183.177 383.16,172.177 391.5,162.5C 398.406,155.547 406.74,151.547 416.5,150.5C 415.726,157.132 412.893,162.798 408,167.5C 404.697,172.441 402.197,177.774 400.5,183.5C 405.328,183.469 410.328,183.635 415.5,184C 417.576,185.884 417.91,188.051 416.5,190.5C 412.206,191.645 408.539,193.812 405.5,197C 418.699,196.375 425.699,202.542 426.5,215.5C 419.799,216.682 414.132,219.682 409.5,224.5C 410.61,233.138 410.776,241.804 410,250.5C 409.592,253.42 408.259,255.754 406,257.5C 405.333,256.833 404.667,256.167 404,255.5C 403.664,248.505 400.164,243.839 393.5,241.5C 392.246,247.457 390.246,253.123 387.5,258.5C 385.694,259.859 384.194,259.525 383,257.5C 383.07,251.993 380.737,247.993 376,245.5C 372.584,247.992 370.418,251.325 369.5,255.5C 368.127,255.657 366.793,255.49 365.5,255C 361.071,251.705 356.571,248.538 352,245.5C 347.629,248.431 343.796,251.931 340.5,256C 339.5,256.667 338.5,256.667 337.5,256C 335.48,250.719 334.48,245.219 334.5,239.5 Z"/></g>
<g><path style="opacity:1" fill="#2c2d39" d="M 400.5,195.5 C 400.5,194.5 400.5,193.5 400.5,192.5C 396.914,192.848 393.914,194.015 391.5,196C 392.048,186.264 394.548,176.764 399,167.5C 402.333,166.167 402.333,164.833 399,163.5C 398.617,164.056 398.117,164.389 397.5,164.5C 400.468,160.514 404.468,158.348 409.5,158C 401.586,167.41 397.252,178.243 396.5,190.5C 400.011,188.915 403.678,188.415 407.5,189C 404.642,190.694 402.309,192.861 400.5,195.5 Z"/></g>
<g><path style="opacity:1" fill="#333340" d="M 400.5,195.5 C 399.659,197.379 399.325,199.379 399.5,201.5C 403.234,201.323 406.901,201.656 410.5,202.5C 410.423,203.75 409.756,204.583 408.5,205C 410.285,206.163 412.285,206.83 414.5,207C 413.167,207.667 413.167,208.333 414.5,209C 410,212.167 406.167,216 403,220.5C 403.059,225.287 403.226,230.12 403.5,235C 401.109,236.309 401.109,237.309 403.5,238C 401.892,238.658 400.725,238.158 400,236.5C 399.536,237.094 399.369,237.761 399.5,238.5C 396.099,236.616 392.433,236.116 388.5,237C 387.741,241.471 386.908,245.971 386,250.5C 383.287,245.747 379.787,241.747 375.5,238.5C 373.821,239.782 371.987,240.782 370,241.5C 369.913,244.578 368.579,246.912 366,248.5C 360.951,246.231 356.784,242.898 353.5,238.5C 350.87,239.804 348.537,241.47 346.5,243.5C 345.5,243.5 344.5,243.5 343.5,243.5C 343.64,241.876 342.973,240.71 341.5,240C 342.177,237.018 342.177,234.185 341.5,231.5C 340.758,230.713 339.925,230.047 339,229.5C 336.761,230.869 334.927,230.369 333.5,228C 335.008,225.906 336.342,223.74 337.5,221.5C 337.5,221.167 337.5,220.833 337.5,220.5C 338.097,220.265 338.43,219.765 338.5,219C 336.976,217.806 335.81,216.306 335,214.5C 331.716,214.387 328.383,214.72 325,215.5C 324.626,214.584 324.126,213.75 323.5,213C 328.342,210.053 333.342,207.553 338.5,205.5C 339.167,205.5 339.833,205.5 340.5,205.5C 342.734,204.296 345.067,203.13 347.5,202C 344.701,201.561 343.701,200.228 344.5,198C 343.167,197 341.833,196 340.5,195C 341.155,193.513 342.155,192.347 343.5,191.5C 344.631,189.926 344.798,188.259 344,186.5C 341.675,183.173 339.342,179.839 337,176.5C 334.238,175.019 331.571,173.353 329,171.5C 328.626,170.584 328.126,169.75 327.5,169C 328.416,168.722 329.082,168.222 329.5,167.5C 341.896,170.723 352.063,177.39 360,187.5C 363.841,193.178 367.174,199.178 370,205.5C 371.396,207.527 373.062,207.86 375,206.5C 377.94,192.62 383.607,179.953 392,168.5C 393.992,167.335 395.825,166.002 397.5,164.5C 398.117,164.389 398.617,164.056 399,163.5C 402.333,164.833 402.333,166.167 399,167.5C 394.548,176.764 392.048,186.264 391.5,196C 393.914,194.015 396.914,192.848 400.5,192.5C 400.5,193.5 400.5,194.5 400.5,195.5 Z"/></g>
<g><path style="opacity:1" fill="#2c2d3a" d="M 329.5,167.5 C 329.082,168.222 328.416,168.722 327.5,169C 328.126,169.75 328.626,170.584 329,171.5C 331.571,173.353 334.238,175.019 337,176.5C 339.342,179.839 341.675,183.173 344,186.5C 344.798,188.259 344.631,189.926 343.5,191.5C 342.155,192.347 341.155,193.513 340.5,195C 341.833,196 343.167,197 344.5,198C 343.701,200.228 344.701,201.561 347.5,202C 345.067,203.13 342.734,204.296 340.5,205.5C 342.213,199.063 339.879,195.063 333.5,193.5C 335.664,191.316 338.331,189.983 341.5,189.5C 340.302,184.134 337.635,179.634 333.5,176C 327.136,172.818 320.802,169.651 314.5,166.5C 319.741,165.1 324.741,165.434 329.5,167.5 Z"/></g>
<g><path style="opacity:0.024" fill="#292a35" d="M 371.5,195.5 C 372.167,195.5 372.833,195.5 373.5,195.5C 373.214,197.933 372.548,197.933 371.5,195.5 Z"/></g>
<g><path style="opacity:1" fill="#2d2d3a" d="M 410.5,202.5 C 415.782,202.972 419.449,205.639 421.5,210.5C 415.285,213.224 410.118,217.224 406,222.5C 406.682,229.818 406.515,237.151 405.5,244.5C 403.146,242.812 401.146,240.812 399.5,238.5C 399.369,237.761 399.536,237.094 400,236.5C 400.725,238.158 401.892,238.658 403.5,238C 401.109,237.309 401.109,236.309 403.5,235C 403.226,230.12 403.059,225.287 403,220.5C 406.167,216 410,212.167 414.5,209C 413.167,208.333 413.167,207.667 414.5,207C 412.285,206.83 410.285,206.163 408.5,205C 409.756,204.583 410.423,203.75 410.5,202.5 Z"/></g>
<g><path style="opacity:1" fill="#2b2c38" d="M 338.5,205.5 C 333.342,207.553 328.342,210.053 323.5,213C 324.126,213.75 324.626,214.584 325,215.5C 328.383,214.72 331.716,214.387 335,214.5C 335.81,216.306 336.976,217.806 338.5,219C 338.43,219.765 338.097,220.265 337.5,220.5C 336.64,218.386 334.973,217.22 332.5,217C 327.116,216.495 321.782,216.495 316.5,217C 322.249,209.629 329.582,205.796 338.5,205.5 Z"/></g>
<g><path style="opacity:1" fill="#2c2c39" d="M 337.5,221.5 C 336.342,223.74 335.008,225.906 333.5,228C 334.927,230.369 336.761,230.869 339,229.5C 339.925,230.047 340.758,230.713 341.5,231.5C 342.177,234.185 342.177,237.018 341.5,240C 342.973,240.71 343.64,241.876 343.5,243.5C 344.5,243.5 345.5,243.5 346.5,243.5C 344.229,245.266 342.063,247.266 340,249.5C 337.689,243.959 336.856,238.293 337.5,232.5C 334.073,232.976 330.74,232.976 327.5,232.5C 329.464,227.538 332.798,223.871 337.5,221.5 Z"/></g>
<g><path style="opacity:0.157" fill="#272733" d="M 331.5,237.5 C 332.209,236.596 333.209,236.263 334.5,236.5C 334.5,237.5 334.5,238.5 334.5,239.5C 333.778,238.449 332.778,237.782 331.5,237.5 Z"/></g>

    </svg>
