
    <svg width="862" height="862" viewBox="0 0 862 862" fill="none" xmlns="http://www.w3.org/2000/svg">
        
<g><path style="opacity:1" fill="#f6f6e8" d="M -0.5,-0.5 C 286.833,-0.5 574.167,-0.5 861.5,-0.5C 861.5,286.833 861.5,574.167 861.5,861.5C 574.167,861.5 286.833,861.5 -0.5,861.5C -0.5,574.167 -0.5,286.833 -0.5,-0.5 Z"/></g>

        
<g><path style="opacity:0.983" fill="#1a1a19" d="M 578.5,540.5 C 583.993,540.916 589.326,542.082 594.5,544C 599.237,547.614 603.403,551.781 607,556.5C 613.977,570.057 616.311,584.39 614,599.5C 611.931,603.236 608.931,605.903 605,607.5C 603.018,607.01 601.351,606.01 600,604.5C 594.275,609.717 588.442,609.717 582.5,604.5C 577.923,613.337 572.256,614.337 565.5,607.5C 561.53,612.973 556.196,614.806 549.5,613C 548.299,612.097 547.465,610.931 547,609.5C 541.931,617.452 536.764,617.452 531.5,609.5C 527.737,613.765 523.737,617.932 519.5,622C 516.106,622.752 512.773,622.585 509.5,621.5C 508.194,620.088 507.36,618.421 507,616.5C 505.425,609.568 504.258,602.568 503.5,595.5C 504.335,583.317 510.669,578.317 522.5,580.5C 523.795,579.902 525.128,579.402 526.5,579C 535.197,570.637 543.531,561.97 551.5,553C 559.592,546.617 568.592,542.45 578.5,540.5 Z"/></g>
<g><path style="opacity:1" fill="#d9d8cb" d="M 587.5,601.5 C 588.496,601.586 589.329,601.252 590,600.5C 592.94,596.545 595.94,592.545 599,588.5C 599.37,579.339 598.37,570.339 596,561.5C 591.36,554.156 584.693,549.822 576,548.5C 573.538,549.159 571.038,549.493 568.5,549.5C 581.297,543.74 592.13,546.407 601,557.5C 608.853,570.951 611.186,585.285 608,600.5C 606.604,602.527 604.938,602.86 603,601.5C 602.091,598.089 601.091,594.755 600,591.5C 598.35,595.573 596.516,599.573 594.5,603.5C 591.584,604.861 589.251,604.195 587.5,601.5 Z"/></g>
<g><path style="opacity:1" fill="#f4f3e6" d="M 587.5,601.5 C 585.433,599.682 584.1,597.349 583.5,594.5C 582.635,593.417 581.635,593.251 580.5,594C 579.955,598.074 578.621,601.907 576.5,605.5C 574.878,607.439 573.044,607.772 571,606.5C 568.863,602.486 567.03,598.486 565.5,594.5C 564.522,594.977 563.689,595.643 563,596.5C 563.284,605.334 559.118,609.667 550.5,609.5C 550.348,605.228 549.348,601.228 547.5,597.5C 545.179,600.394 544.012,603.727 544,607.5C 541.618,612.067 538.951,612.4 536,608.5C 535.887,606.026 534.887,604.026 533,602.5C 527.856,607.313 523.023,612.48 518.5,618C 516.098,618.814 513.765,618.647 511.5,617.5C 508.811,609.37 507.645,601.036 508,592.5C 508.668,588.501 510.835,585.668 514.5,584C 518.801,584.363 523.134,584.363 527.5,584C 529.167,583 530.833,582 532.5,581C 540.864,572.97 548.864,564.637 556.5,556C 560.367,553.567 564.367,551.4 568.5,549.5C 571.038,549.493 573.538,549.159 576,548.5C 584.693,549.822 591.36,554.156 596,561.5C 598.37,570.339 599.37,579.339 599,588.5C 595.94,592.545 592.94,596.545 590,600.5C 589.329,601.252 588.496,601.586 587.5,601.5 Z"/></g>
<g><path style="opacity:0.982" fill="#191918" d="M 290.5,554.5 C 298.253,554.104 305.92,554.604 313.5,556C 315.5,557.333 317.5,558.667 319.5,560C 322.228,566.042 326.895,569.709 333.5,571C 335.378,572.543 336.878,574.376 338,576.5C 338.242,583.196 338.742,589.862 339.5,596.5C 339.461,598.587 338.461,599.921 336.5,600.5C 332.274,599.93 328.108,599.263 324,598.5C 322.5,600 321,601.5 319.5,603C 317.287,603.626 315.12,603.459 313,602.5C 306.564,605.689 301.23,604.356 297,598.5C 284.481,607.161 276.648,603.994 273.5,589C 271.944,573.778 277.611,562.278 290.5,554.5 Z"/></g>
<g><path style="opacity:1" fill="#f4f3e6" d="M 334.5,587.5 C 334.5,590.167 334.5,592.833 334.5,595.5C 333.167,595.5 331.833,595.5 330.5,595.5C 327.482,595.335 324.482,595.502 321.5,596C 320.022,598.039 318.022,598.872 315.5,598.5C 315.5,597.5 315.5,596.5 315.5,595.5C 312.326,596.015 309.326,597.015 306.5,598.5C 305.5,598.333 304.5,598.167 303.5,598C 301.441,595.366 299.275,592.866 297,590.5C 296.292,591.381 295.458,592.047 294.5,592.5C 290.404,593.285 287.07,592.118 284.5,589C 284.833,588.667 285.167,588.333 285.5,588C 283.667,587.5 282.5,586.333 282,584.5C 281.501,580.179 281.334,575.846 281.5,571.5C 281.709,570.078 282.209,568.745 283,567.5C 286.167,565 289.333,562.5 292.5,560C 298.167,559.333 303.833,559.333 309.5,560C 314.42,562.916 318.753,566.582 322.5,571C 326.232,572.461 329.732,574.294 333,576.5C 333.936,580.114 334.436,583.78 334.5,587.5 Z"/></g>
<g><path style="opacity:1" fill="#d7d6c9" d="M 281.5,571.5 C 281.334,575.846 281.501,580.179 282,584.5C 282.5,586.333 283.667,587.5 285.5,588C 285.167,588.333 284.833,588.667 284.5,589C 287.07,592.118 290.404,593.285 294.5,592.5C 293.641,595.452 291.641,597.285 288.5,598C 285.364,599.041 282.864,598.207 281,595.5C 279.409,588.608 279.076,581.608 280,574.5C 280.232,573.263 280.732,572.263 281.5,571.5 Z"/></g>
<g><path style="opacity:1" fill="#64635e" d="M 334.5,587.5 C 335.477,590.287 335.81,593.287 335.5,596.5C 333.585,596.784 331.919,596.451 330.5,595.5C 331.833,595.5 333.167,595.5 334.5,595.5C 334.5,592.833 334.5,590.167 334.5,587.5 Z"/></g>

        
<g><path style="opacity:0.992" fill="#060608" d="M 427.5,213.5 C 431.015,214.239 434.348,214.239 437.5,213.5C 457.44,207.685 476.773,200.185 495.5,191C 539.434,164.086 578.267,130.92 612,91.5C 623.718,75.0452 633.551,57.7118 641.5,39.5C 643.784,43.0917 645.284,47.0917 646,51.5C 647.981,58.7292 648.647,66.0625 648,73.5C 640.855,110.937 630.855,147.604 618,183.5C 610.177,198.812 603.177,214.479 597,230.5C 591.559,238.38 586.892,246.714 583,255.5C 579.213,260.956 575.046,266.123 570.5,271C 547.78,274.587 525.113,274.253 502.5,270C 475.47,261.573 451.97,247.407 432,227.5C 428.906,223.067 427.406,218.4 427.5,213.5 Z"/></g>
<g><path style="opacity:1" fill="#242535" d="M 639.5,84.5 C 638.962,77.1781 638.629,69.8447 638.5,62.5C 638.795,60.5767 639.628,58.9101 641,57.5C 643.215,66.7597 642.715,75.7597 639.5,84.5 Z"/></g>
<g><path style="opacity:1" fill="#333340" d="M 638.5,62.5 C 638.629,69.8447 638.962,77.1781 639.5,84.5C 632.37,117.019 623.37,149.019 612.5,180.5C 609.61,182.58 607.61,185.413 606.5,189C 603.027,191.964 599.361,194.63 595.5,197C 588.018,204.479 580.185,211.645 572,218.5C 571.667,218.167 571.333,217.833 571,217.5C 569.692,219.641 568.192,221.641 566.5,223.5C 563.374,225.129 560.707,227.295 558.5,230C 557.552,230.483 556.552,230.649 555.5,230.5C 539.11,226.889 524.943,219.222 513,207.5C 509.506,202.214 508.006,196.547 508.5,190.5C 523.298,181.355 537.464,171.355 551,160.5C 554.274,165.795 557.608,171.128 561,176.5C 566.521,183.026 573.354,187.526 581.5,190C 584.721,190.797 587.721,190.297 590.5,188.5C 573.043,184.723 561.043,174.389 554.5,157.5C 575.786,139.048 595.952,119.382 615,98.5C 623.604,86.9472 631.437,74.9472 638.5,62.5 Z"/></g>
<g><path style="opacity:0.992" fill="#060608" d="M 163.5,81.5 C 163.402,83.5529 164.069,85.2196 165.5,86.5C 167.9,93.3682 169.9,100.368 171.5,107.5C 173.93,115.467 176.93,123.134 180.5,130.5C 183.378,138.589 187.045,146.255 191.5,153.5C 191.738,155.404 192.738,156.738 194.5,157.5C 198.189,161.865 201.522,166.531 204.5,171.5C 204.427,173.027 205.094,174.027 206.5,174.5C 207.167,174.5 207.5,174.833 207.5,175.5C 207.427,177.027 208.094,178.027 209.5,178.5C 212.138,181.474 214.805,184.474 217.5,187.5C 218.08,189.749 219.413,191.415 221.5,192.5C 233.146,201.988 245.146,210.988 257.5,219.5C 257.973,220.906 258.973,221.573 260.5,221.5C 262.992,223.768 265.658,224.768 268.5,224.5C 273.295,225.765 277.962,227.432 282.5,229.5C 287.333,227.167 290.5,228.834 292,234.5C 292.497,237.146 292.664,239.813 292.5,242.5C 291.883,242.611 291.383,242.944 291,243.5C 290.433,246.168 289.933,248.834 289.5,251.5C 287.841,256.827 285.174,261.493 281.5,265.5C 280.094,265.973 279.427,266.973 279.5,268.5C 273.833,277.5 266.5,284.833 257.5,290.5C 254.796,290.67 253.129,292.003 252.5,294.5C 243.988,299.393 234.821,302.393 225,303.5C 221.45,303.517 220.283,302.017 221.5,299C 219.907,298.051 218.574,296.885 217.5,295.5C 216.738,293.738 215.404,292.738 213.5,292.5C 209.167,288.833 205.167,284.833 201.5,280.5C 200.5,278.833 199.167,277.5 197.5,276.5C 185.509,266.187 176.175,253.854 169.5,239.5C 169.573,237.973 168.906,236.973 167.5,236.5C 164.326,231.484 161.659,226.151 159.5,220.5C 157.07,212.533 154.07,204.866 150.5,197.5C 147.894,190.347 145.894,183.014 144.5,175.5C 144.147,171.087 143.314,166.754 142,162.5C 141.617,161.944 141.117,161.611 140.5,161.5C 140.5,161.167 140.5,160.833 140.5,160.5C 141.794,158.32 141.461,156.32 139.5,154.5C 139.5,144.167 139.5,133.833 139.5,123.5C 140.117,123.389 140.617,123.056 141,122.5C 141.828,118.534 142.328,114.534 142.5,110.5C 144.411,106.767 145.744,102.767 146.5,98.5C 147.655,94.2025 149.321,90.2025 151.5,86.5C 153.008,84.8185 154.008,82.8185 154.5,80.5C 155.906,80.0269 156.573,79.0269 156.5,77.5C 157.261,76.6091 158.261,75.9424 159.5,75.5C 161.252,77.2459 162.585,79.2459 163.5,81.5 Z"/></g>
<g><path style="opacity:0.212" fill="#202029" d="M 156.5,77.5 C 156.573,79.0269 155.906,80.0269 154.5,80.5C 154.427,78.9731 155.094,77.9731 156.5,77.5 Z"/></g>
<g><path style="opacity:0.016" fill="#23232d" d="M 163.5,81.5 C 164.931,82.7804 165.598,84.4471 165.5,86.5C 164.069,85.2196 163.402,83.5529 163.5,81.5 Z"/></g>
<g><path style="opacity:0.106" fill="#1f1f28" d="M 154.5,80.5 C 154.008,82.8185 153.008,84.8185 151.5,86.5C 151.461,83.911 152.461,81.911 154.5,80.5 Z"/></g>
<g><path style="opacity:1" fill="#242436" d="M 162.5,94.5 C 158.413,97.7067 156.746,102.04 157.5,107.5C 157.666,115.694 157.833,124.027 158,132.5C 158.54,136.885 159.707,141.051 161.5,145C 161.167,145.333 160.833,145.667 160.5,146C 165.166,155.351 169.833,164.684 174.5,174C 173.366,175.016 173.699,175.683 175.5,176C 175.167,176.333 174.833,176.667 174.5,177C 179.464,183.757 183.797,190.923 187.5,198.5C 188.324,200.421 189.657,201.754 191.5,202.5C 187.969,204.937 184.469,204.937 181,202.5C 180.28,204.112 180.446,205.612 181.5,207C 185.221,207.678 188.888,207.511 192.5,206.5C 198.484,216.935 204.484,227.768 210.5,239C 212.795,242.423 214.961,245.923 217,249.5C 218.307,251.192 219.807,252.525 221.5,253.5C 219.067,256.687 216.067,258.353 212.5,258.5C 213,259.881 214,260.547 215.5,260.5C 218.183,259.49 220.849,258.49 223.5,257.5C 230.167,268.692 236.834,279.359 243.5,289.5C 244.325,290.386 245.325,290.719 246.5,290.5C 241.34,294.281 235.507,296.614 229,297.5C 225.704,296.87 222.87,295.37 220.5,293C 174.244,252.321 148.911,201.155 144.5,139.5C 143.75,119.49 148.75,101.156 159.5,84.5C 161.003,87.6773 162.003,91.0106 162.5,94.5 Z"/></g>
<g><path style="opacity:1" fill="#333340" d="M 162.5,94.5 C 166.782,109.234 171.782,123.734 177.5,138C 176.718,140.74 176.218,143.574 176,146.5C 172.642,148.884 172.809,150.051 176.5,150C 178.041,148.421 179.208,146.587 180,144.5C 188.664,159.494 198.497,173.661 209.5,187C 207.045,190.078 204.711,193.244 202.5,196.5C 199.259,199.287 195.593,201.287 191.5,202.5C 189.657,201.754 188.324,200.421 187.5,198.5C 183.797,190.923 179.464,183.757 174.5,177C 174.833,176.667 175.167,176.333 175.5,176C 173.699,175.683 173.366,175.016 174.5,174C 169.833,164.684 165.166,155.351 160.5,146C 160.833,145.667 161.167,145.333 161.5,145C 159.707,141.051 158.54,136.885 158,132.5C 157.833,124.027 157.666,115.694 157.5,107.5C 156.746,102.04 158.413,97.7067 162.5,94.5 Z"/></g>
<g><path style="opacity:0.851" fill="#191920" d="M 146.5,98.5 C 145.744,102.767 144.411,106.767 142.5,110.5C 142.861,106.085 144.194,102.085 146.5,98.5 Z"/></g>
<g><path style="opacity:0.753" fill="#17171d" d="M 142.5,110.5 C 142.328,114.534 141.828,118.534 141,122.5C 140.617,123.056 140.117,123.389 139.5,123.5C 139.882,118.908 140.882,114.575 142.5,110.5 Z"/></g>
<g><path style="opacity:0.251" fill="#1f2029" d="M 171.5,107.5 C 175.462,114.708 178.462,122.375 180.5,130.5C 176.93,123.134 173.93,115.467 171.5,107.5 Z"/></g>
<g><path style="opacity:0.082" fill="#1d1d27" d="M 139.5,154.5 C 141.461,156.32 141.794,158.32 140.5,160.5C 139.85,158.565 139.517,156.565 139.5,154.5 Z"/></g>
<g><path style="opacity:0.329" fill="#21212b" d="M 191.5,153.5 C 193.262,154.262 194.262,155.596 194.5,157.5C 192.738,156.738 191.738,155.404 191.5,153.5 Z"/></g>
<g><path style="opacity:0.6" fill="#191a21" d="M 140.5,161.5 C 141.117,161.611 141.617,161.944 142,162.5C 143.314,166.754 144.147,171.087 144.5,175.5C 142.565,171.107 141.232,166.441 140.5,161.5 Z"/></g>
<g><path style="opacity:0.306" fill="#21222c" d="M 204.5,171.5 C 205.906,171.973 206.573,172.973 206.5,174.5C 205.094,174.027 204.427,173.027 204.5,171.5 Z"/></g>
<g><path style="opacity:0.376" fill="#202028" d="M 207.5,175.5 C 208.906,175.973 209.573,176.973 209.5,178.5C 208.094,178.027 207.427,177.027 207.5,175.5 Z"/></g>
<g><path style="opacity:1" fill="#242436" d="M 612.5,180.5 C 605.131,195.907 598.298,211.574 592,227.5C 586.225,236.048 581.225,245.048 577,254.5C 574.287,258.092 571.453,261.592 568.5,265C 547.994,269.724 527.66,269.558 507.5,264.5C 511.976,264.181 516.143,262.848 520,260.5C 520.333,260.833 520.667,261.167 521,261.5C 525.288,258.426 528.788,255.259 531.5,252C 532.793,251.51 534.127,251.343 535.5,251.5C 535.351,250.448 535.517,249.448 536,248.5C 541.106,243.89 545.94,239.223 550.5,234.5C 556.412,236.053 562.079,235.386 567.5,232.5C 563.353,231.833 559.353,231.166 555.5,230.5C 556.552,230.649 557.552,230.483 558.5,230C 560.707,227.295 563.374,225.129 566.5,223.5C 568.192,221.641 569.692,219.641 571,217.5C 571.333,217.833 571.667,218.167 572,218.5C 580.185,211.645 588.018,204.479 595.5,197C 599.361,194.63 603.027,191.964 606.5,189C 607.61,185.413 609.61,182.58 612.5,180.5 Z"/></g>
<g><path style="opacity:0.565" fill="#20212a" d="M 217.5,187.5 C 219.587,188.585 220.92,190.251 221.5,192.5C 219.413,191.415 218.08,189.749 217.5,187.5 Z"/></g>
<g><path style="opacity:1" fill="#333340" d="M 550.5,234.5 C 545.94,239.223 541.106,243.89 536,248.5C 535.517,249.448 535.351,250.448 535.5,251.5C 534.127,251.343 532.793,251.51 531.5,252C 528.788,255.259 525.288,258.426 521,261.5C 520.667,261.167 520.333,260.833 520,260.5C 516.143,262.848 511.976,264.181 507.5,264.5C 500.178,263.449 493.178,261.282 486.5,258C 468.341,248.841 451.841,237.341 437,223.5C 436.5,222.5 436,221.5 435.5,220.5C 459.55,214.54 482.383,205.54 504,193.5C 504.969,201.937 508.469,209.103 514.5,215C 525.223,223.862 537.223,230.362 550.5,234.5 Z"/></g>
<g><path style="opacity:0.122" fill="#202129" d="M 150.5,197.5 C 154.07,204.866 157.07,212.533 159.5,220.5C 155.533,213.274 152.533,205.608 150.5,197.5 Z"/></g>
<g><path style="opacity:0.678" fill="#191a20" d="M 427.5,213.5 C 430.668,212.556 434.001,212.556 437.5,213.5C 434.348,214.239 431.015,214.239 427.5,213.5 Z"/></g>
<g><path style="opacity:0.012" fill="#21232c" d="M 257.5,219.5 C 259.027,219.427 260.027,220.094 260.5,221.5C 258.973,221.573 257.973,220.906 257.5,219.5 Z"/></g>
<g><path style="opacity:0.055" fill="#1e1e25" d="M 260.5,221.5 C 263.443,221.98 266.11,222.98 268.5,224.5C 265.658,224.768 262.992,223.768 260.5,221.5 Z"/></g>
<g><path style="opacity:1" fill="#050506" d="M 223.5,257.5 C 220.849,258.49 218.183,259.49 215.5,260.5C 214,260.547 213,259.881 212.5,258.5C 216.067,258.353 219.067,256.687 221.5,253.5C 232.23,245.437 241.23,235.771 248.5,224.5C 249.5,223.167 250.5,223.167 251.5,224.5C 245.028,237.969 235.694,248.969 223.5,257.5 Z"/></g>
<g><path style="opacity:1" fill="#333340" d="M 246.5,290.5 C 245.325,290.719 244.325,290.386 243.5,289.5C 236.834,279.359 230.167,268.692 223.5,257.5C 235.694,248.969 245.028,237.969 251.5,224.5C 250.5,223.167 249.5,223.167 248.5,224.5C 241.23,235.771 232.23,245.437 221.5,253.5C 219.807,252.525 218.307,251.192 217,249.5C 214.961,245.923 212.795,242.423 210.5,239C 204.484,227.768 198.484,216.935 192.5,206.5C 201.679,203.987 208.012,198.32 211.5,189.5C 216.291,194.792 221.291,199.959 226.5,205C 238.564,213.394 250.897,221.394 263.5,229C 271.164,231.11 278.664,233.61 286,236.5C 286.981,244.907 284.981,252.574 280,259.5C 271.524,272.812 260.357,283.145 246.5,290.5 Z"/></g>
<g><path style="opacity:0.027" fill="#282834" d="M 167.5,236.5 C 168.906,236.973 169.573,237.973 169.5,239.5C 168.094,239.027 167.427,238.027 167.5,236.5 Z"/></g>
<g><path style="opacity:0.369" fill="#1e1e27" d="M 292.5,242.5 C 292.117,245.811 291.117,248.811 289.5,251.5C 289.933,248.834 290.433,246.168 291,243.5C 291.383,242.944 291.883,242.611 292.5,242.5 Z"/></g>
<g><path style="opacity:0.063" fill="#24242e" d="M 281.5,265.5 C 281.573,267.027 280.906,268.027 279.5,268.5C 279.427,266.973 280.094,265.973 281.5,265.5 Z"/></g>
<g><path style="opacity:0.004" fill="#282934" d="M 197.5,276.5 C 199.167,277.5 200.5,278.833 201.5,280.5C 199.167,280.167 197.833,278.833 197.5,276.5 Z"/></g>
<g><path style="opacity:0.008" fill="#202229" d="M 257.5,290.5 C 256.055,292.063 254.389,293.396 252.5,294.5C 253.129,292.003 254.796,290.67 257.5,290.5 Z"/></g>
<g><path style="opacity:0.443" fill="#202028" d="M 213.5,292.5 C 215.404,292.738 216.738,293.738 217.5,295.5C 215.596,295.262 214.262,294.262 213.5,292.5 Z"/></g>

        
<g><path style="opacity:0.99" fill="#070707" d="M 397.5,213.5 C 426.652,214.128 455.652,216.628 484.5,221C 501.696,223.299 517.696,228.965 532.5,238C 541.415,244.711 550.915,250.545 561,255.5C 566,261.833 571,268.167 576,274.5C 579.431,281.886 582.098,289.553 584,297.5C 600.968,293.905 616.801,296.738 631.5,306C 639.341,311.087 647.008,316.42 654.5,322C 663.667,331.167 672.833,340.333 682,349.5C 688.828,358.487 695.162,367.821 701,377.5C 703.243,382.896 705.076,388.396 706.5,394C 702.842,398.302 698.175,400.969 692.5,402C 684.601,403.249 676.935,403.749 669.5,403.5C 671.81,407.254 673.643,411.254 675,415.5C 676.619,423.927 678.619,432.26 681,440.5C 682.454,454.02 679.787,466.687 673,478.5C 663.749,491.086 652.582,501.586 639.5,510C 630.893,513.302 622.893,517.635 615.5,523C 597.029,529.157 579.029,536.491 561.5,545C 545.683,550.606 529.683,555.606 513.5,560C 527.668,574.176 543.001,586.843 559.5,598C 576.758,613.656 588.591,632.823 595,655.5C 600.246,671.481 603.746,687.814 605.5,704.5C 615.856,702.179 626.356,700.846 637,700.5C 653.9,703.09 670.9,704.757 688,705.5C 707.617,704.722 725.784,699.222 742.5,689C 757.923,678.567 772.423,667.067 786,654.5C 787.653,654.82 788.653,655.82 789,657.5C 790.41,661.976 791.577,666.476 792.5,671C 791.961,696.289 785.127,719.789 772,741.5C 763.125,752.196 752.292,760.362 739.5,766C 722.469,771.591 705.135,775.925 687.5,779C 666.989,778.73 646.989,781.73 627.5,788C 631.324,793.922 636.657,797.922 643.5,800C 644.765,801.337 645.265,802.837 645,804.5C 634.166,813.497 621.666,817.164 607.5,815.5C 607.62,817.199 607.954,818.865 608.5,820.5C 608.182,821.647 607.516,822.481 606.5,823C 599.093,824.492 591.593,825.325 584,825.5C 570.833,824.357 557.666,823.19 544.5,822C 528.753,817.882 515.253,810.049 504,798.5C 495.911,789.336 489.577,779.003 485,767.5C 473.056,772.575 460.556,774.908 447.5,774.5C 441.513,773.858 435.513,773.358 429.5,773C 427,772.625 424.667,771.792 422.5,770.5C 418.78,774.733 415.613,779.4 413,784.5C 395.052,801.708 373.552,809.541 348.5,808C 344.343,807.271 340.343,806.104 336.5,804.5C 335.167,803.5 335.167,802.5 336.5,801.5C 338.833,800 341.167,798.5 343.5,797C 344.696,796.346 344.696,795.846 343.5,795.5C 335.883,796.633 328.216,796.8 320.5,796C 311.363,794.508 304.863,789.675 301,781.5C 300.179,778.446 300.345,775.446 301.5,772.5C 312.272,769.781 321.939,764.947 330.5,758C 319.87,750.041 313.37,739.541 311,726.5C 309.463,718.908 308.63,711.241 308.5,703.5C 309.559,693.159 310.392,682.825 311,672.5C 308.094,675.369 304.594,676.702 300.5,676.5C 294.742,676.543 289.409,675.209 284.5,672.5C 273.656,662.134 269.489,649.467 272,634.5C 275.346,612.289 285.512,594.122 302.5,580C 312.952,573.232 324.119,571.732 336,575.5C 337.967,574.507 339.134,572.84 339.5,570.5C 305.015,564.297 271.015,555.463 237.5,544C 209.322,532.837 184.822,516.337 164,494.5C 152.732,482.13 145.899,467.63 143.5,451C 144.485,443.505 144.985,436.005 145,428.5C 140.155,431.151 134.989,431.984 129.5,431C 127.954,429.56 127.121,427.727 127,425.5C 126.788,413.092 127.788,400.758 130,388.5C 135.912,374.746 142.579,361.413 150,348.5C 160.721,333.106 174.888,322.273 192.5,316C 198.537,315.303 204.537,315.47 210.5,316.5C 211.252,310.492 213.086,304.826 216,299.5C 222.667,288.833 229.333,278.167 236,267.5C 246.355,255.578 258.188,245.412 271.5,237C 312.624,223.821 354.624,215.987 397.5,213.5 Z"/></g>
<g><path style="opacity:1" fill="#1a1a1a" d="M 668.5,416.5 C 667.149,427.398 664.649,438.064 661,448.5C 656.399,457.425 651.399,466.092 646,474.5C 623.77,496.709 597.937,513.542 568.5,525C 543.253,532.859 517.92,540.526 492.5,548C 448.553,557.101 404.22,559.768 359.5,556C 347.914,553.855 336.248,552.188 324.5,551C 281.405,540.283 240.405,524.283 201.5,503C 185.771,492.605 171.938,480.105 160,465.5C 152.669,456.68 150.169,446.68 152.5,435.5C 154.204,427.844 154.871,420.177 154.5,412.5C 152.056,416.118 149.39,419.618 146.5,423C 142.683,424.995 138.683,426.495 134.5,427.5C 133.201,426.91 132.368,425.91 132,424.5C 131.833,422.5 131.667,420.5 131.5,418.5C 132.991,409.545 134.157,400.545 135,391.5C 141.604,374.286 150.271,358.286 161,343.5C 170.285,333.114 181.451,325.614 194.5,321C 200.862,320.576 207.195,320.576 213.5,321C 224.905,285.517 246.572,258.184 278.5,239C 326.469,224.712 375.469,218.046 425.5,219C 447.106,221.764 468.773,224.764 490.5,228C 502.4,230.411 513.733,234.411 524.5,240C 535.498,247.501 546.832,254.501 558.5,261C 569.707,272.248 576.541,285.748 579,301.5C 581.376,308.587 585.043,314.92 590,320.5C 590.167,320.167 590.333,319.833 590.5,319.5C 588.2,313.909 586.2,308.242 584.5,302.5C 599.35,299.458 613.35,301.625 626.5,309C 652.248,326.081 674.082,347.248 692,372.5C 695.8,378.933 698.633,385.766 700.5,393C 698.652,395.093 696.319,396.426 693.5,397C 680.718,399.865 668.385,398.698 656.5,393.5C 656.372,395.655 656.872,397.655 658,399.5C 664.052,403.607 667.552,409.273 668.5,416.5 Z"/></g>
<g><path style="opacity:1" fill="#010101" d="M 618.5,337.5 C 634.542,353.376 653.208,365.543 674.5,374C 676.954,375.74 678.454,377.907 679,380.5C 677.612,381.554 676.112,381.72 674.5,381C 654.654,371.331 636.821,358.831 621,343.5C 619.441,341.783 618.608,339.783 618.5,337.5 Z"/></g>
<g><path style="opacity:1" fill="#010101" d="M 147.5,382.5 C 148.993,383.312 149.66,384.645 149.5,386.5C 148.442,393.85 147.275,401.184 146,408.5C 144.374,411.128 142.374,413.461 140,415.5C 141.412,404.277 143.912,393.277 147.5,382.5 Z"/></g>
<g><path style="opacity:1" fill="#141414" d="M 668.5,416.5 C 669.117,416.611 669.617,416.944 670,417.5C 671.619,425.927 673.619,434.26 676,442.5C 676.82,456.706 672.82,469.372 664,480.5C 656.058,489.448 647.225,497.281 637.5,504C 628.893,507.302 620.893,511.635 613.5,517C 594.28,523.296 575.614,530.963 557.5,540C 535.077,547.604 512.411,554.271 489.5,560C 470.569,562.908 451.569,565.241 432.5,567C 422.167,567.667 411.833,567.667 401.5,567C 377.521,565.26 353.521,563.927 329.5,563C 288.931,556.527 250.265,544.193 213.5,526C 190.515,513.347 171.682,496.18 157,474.5C 150.182,462.569 148.182,449.902 151,436.5C 151.383,435.944 151.883,435.611 152.5,435.5C 150.169,446.68 152.669,456.68 160,465.5C 171.938,480.105 185.771,492.605 201.5,503C 240.405,524.283 281.405,540.283 324.5,551C 336.248,552.188 347.914,553.855 359.5,556C 404.22,559.768 448.553,557.101 492.5,548C 517.92,540.526 543.253,532.859 568.5,525C 597.937,513.542 623.77,496.709 646,474.5C 651.399,466.092 656.399,457.425 661,448.5C 664.649,438.064 667.149,427.398 668.5,416.5 Z"/></g>
<g><path style="opacity:1" fill="#141414" d="M 478.5,672.5 C 485.872,678.44 494.205,679.94 503.5,677C 506.732,675.77 509.399,673.77 511.5,671C 512.5,670.333 513.5,670.333 514.5,671C 512.476,676.438 510.142,681.772 507.5,687C 510.8,688.879 514.134,688.879 517.5,687C 532.745,675.358 541.412,659.858 543.5,640.5C 542.824,633.638 540.657,627.305 537,621.5C 523.858,607.513 507.691,599.846 488.5,598.5C 480.873,598.024 477.54,601.691 478.5,609.5C 479.213,614.311 480.547,618.978 482.5,623.5C 480.083,625.107 477.416,626.107 474.5,626.5C 472.491,621.266 471.158,615.766 470.5,610C 470.586,606.241 471.586,602.741 473.5,599.5C 473.167,598.5 472.5,597.833 471.5,597.5C 469.364,598.472 468.197,600.139 468,602.5C 467.081,608.966 467.581,615.299 469.5,621.5C 459.019,625.309 450.519,631.642 444,640.5C 430.5,618.167 417,595.833 403.5,573.5C 437.551,572.702 471.217,568.702 504.5,561.5C 506.299,561.577 507.966,562.077 509.5,563C 520.782,574.621 532.948,585.121 546,594.5C 546.265,596.163 545.765,597.663 544.5,599C 549.027,601.543 552.194,605.376 554,610.5C 565.459,638.3 560.959,663.134 540.5,685C 534.687,690.075 528.354,694.408 521.5,698C 505.454,705.563 492.62,702.063 483,687.5C 480.383,682.817 478.883,677.817 478.5,672.5 Z"/></g>
<g><path style="opacity:1" fill="#1a1a1a" d="M 341.5,626.5 C 340.957,626.56 340.624,626.893 340.5,627.5C 342.415,637.065 343.749,646.732 344.5,656.5C 344.66,659.696 343.66,662.363 341.5,664.5C 336.277,662.889 331.277,660.723 326.5,658C 319.953,652.954 314.286,647.12 309.5,640.5C 307.682,644.136 305.849,647.802 304,651.5C 301.757,653.282 299.257,653.782 296.5,653C 288.502,649.673 284.835,643.673 285.5,635C 285.51,621.304 289.344,608.804 297,597.5C 303.059,590.276 309.559,583.609 316.5,577.5C 326.26,575.198 334.26,577.864 340.5,585.5C 341.079,580.029 342.246,574.696 344,569.5C 347.819,568.73 351.653,569.063 355.5,570.5C 348.17,588.493 343.503,607.16 341.5,626.5 Z"/></g>
<g><path style="opacity:1" fill="#d6d4d4" d="M 360.5,674.5 C 365.51,683.351 371.51,691.517 378.5,699C 384.877,703.189 391.544,706.855 398.5,710C 417.397,716.636 424.897,710.136 421,690.5C 413.14,671.699 409.307,652.032 409.5,631.5C 398.974,626.785 387.974,624.118 376.5,623.5C 367.747,622.705 360.081,625.039 353.5,630.5C 350.807,627.803 348.473,624.803 346.5,621.5C 349.911,604.187 354.411,587.187 360,570.5C 364.748,569.365 369.581,569.198 374.5,570C 381.807,570.95 389.14,571.617 396.5,572C 412.113,596.047 427.113,620.547 441.5,645.5C 435.945,660.017 436.445,674.35 443,688.5C 450.196,696.084 459.03,698.917 469.5,697C 472.713,696.394 475.713,695.227 478.5,693.5C 479.748,694.04 480.915,694.707 482,695.5C 480.68,711.111 480.346,726.777 481,742.5C 481.518,749.13 482.685,755.63 484.5,762C 484.095,762.945 483.428,763.612 482.5,764C 447.431,774.811 415.097,769.477 385.5,748C 370.855,738.357 359.355,725.857 351,710.5C 348.215,702.028 346.382,693.361 345.5,684.5C 351.705,682.903 356.705,679.569 360.5,674.5 Z"/></g>
<g><path style="opacity:1" fill="#141414" d="M 316.5,577.5 C 309.559,583.609 303.059,590.276 297,597.5C 289.344,608.804 285.51,621.304 285.5,635C 284.835,643.673 288.502,649.673 296.5,653C 299.257,653.782 301.757,653.282 304,651.5C 305.849,647.802 307.682,644.136 309.5,640.5C 314.286,647.12 319.953,652.954 326.5,658C 331.277,660.723 336.277,662.889 341.5,664.5C 343.66,662.363 344.66,659.696 344.5,656.5C 343.749,646.732 342.415,637.065 340.5,627.5C 340.624,626.893 340.957,626.56 341.5,626.5C 351.199,635.23 356.699,646.23 358,659.5C 359.809,668.085 356.976,674.585 349.5,679C 336.43,684.976 325.264,682.476 316,671.5C 315.5,670 315,668.5 314.5,667C 316.52,664.379 316.853,661.545 315.5,658.5C 312.756,662.751 309.422,666.585 305.5,670C 299.786,671.57 294.12,671.237 288.5,669C 276.97,657.72 273.47,644.22 278,628.5C 282.284,608.737 292.45,592.904 308.5,581C 310.818,579.007 313.484,577.841 316.5,577.5 Z"/></g>
<g><path style="opacity:1" fill="#1a1a1a" d="M 478.5,672.5 C 478.817,669.428 478.484,666.428 477.5,663.5C 474.915,671.11 474.915,678.777 477.5,686.5C 477.124,688.383 476.124,689.883 474.5,691C 467.964,693.968 461.297,694.301 454.5,692C 446.932,689.671 443.099,684.504 443,676.5C 438.427,654.149 446.26,637.982 466.5,628C 469.207,627.605 471.873,627.105 474.5,626.5C 477.416,626.107 480.083,625.107 482.5,623.5C 480.547,618.978 479.213,614.311 478.5,609.5C 477.54,601.691 480.873,598.024 488.5,598.5C 507.691,599.846 523.858,607.513 537,621.5C 540.657,627.305 542.824,633.638 543.5,640.5C 541.412,659.858 532.745,675.358 517.5,687C 514.134,688.879 510.8,688.879 507.5,687C 510.142,681.772 512.476,676.438 514.5,671C 513.5,670.333 512.5,670.333 511.5,671C 509.399,673.77 506.732,675.77 503.5,677C 494.205,679.94 485.872,678.44 478.5,672.5 Z"/></g>
<g><path style="opacity:1" fill="#1a1a1a" d="M 598.5,698.5 C 597.912,721.899 590.746,742.899 577,761.5C 565.289,772.94 551.456,780.607 535.5,784.5C 518.038,781.872 507.538,771.872 504,754.5C 503.302,747.265 502.468,740.098 501.5,733C 502.126,732.25 502.626,731.416 503,730.5C 508.809,736.106 515.809,738.772 524,738.5C 531.939,738.279 538.772,735.446 544.5,730C 552.225,722.272 558.391,713.439 563,703.5C 563.794,700.529 564.461,697.529 565,694.5C 565.418,681.971 566.251,669.471 567.5,657C 567.12,651.981 566.454,647.148 565.5,642.5C 564.922,628.765 561.588,615.765 555.5,603.5C 556.002,602.479 556.668,602.312 557.5,603C 571.596,617.015 581.763,633.515 588,652.5C 593.227,667.473 596.727,682.806 598.5,698.5 Z"/></g>
<g><path style="opacity:1" fill="#e6e6e6" d="M 360.5,674.5 C 363.083,665.193 362.917,655.859 360,646.5C 358.097,641.032 355.93,635.699 353.5,630.5C 360.081,625.039 367.747,622.705 376.5,623.5C 387.974,624.118 398.974,626.785 409.5,631.5C 409.307,652.032 413.14,671.699 421,690.5C 424.897,710.136 417.397,716.636 398.5,710C 391.544,706.855 384.877,703.189 378.5,699C 371.51,691.517 365.51,683.351 360.5,674.5 Z"/></g>
<g><path style="opacity:1" fill="#141414" d="M 565.5,642.5 C 566.454,647.148 567.12,651.981 567.5,657C 566.251,669.471 565.418,681.971 565,694.5C 564.461,697.529 563.794,700.529 563,703.5C 558.391,713.439 552.225,722.272 544.5,730C 538.772,735.446 531.939,738.279 524,738.5C 515.809,738.772 508.809,736.106 503,730.5C 502.626,731.416 502.126,732.25 501.5,733C 502.468,740.098 503.302,747.265 504,754.5C 507.538,771.872 518.038,781.872 535.5,784.5C 551.456,780.607 565.289,772.94 577,761.5C 590.746,742.899 597.912,721.899 598.5,698.5C 602.933,721.449 598.766,742.782 586,762.5C 585.175,764.701 585.675,766.534 587.5,768C 598.604,767.364 607.771,771.197 615,779.5C 618.98,786.624 623.814,793.124 629.5,799C 632.661,800.413 635.661,802.08 638.5,804C 634.952,805.941 631.286,807.607 627.5,809C 619.193,809.999 610.86,810.832 602.5,811.5C 601.423,814.474 601.423,817.474 602.5,820.5C 582.318,821.048 562.318,819.548 542.5,816C 513.218,805.719 494.718,785.552 487,755.5C 483.667,736.833 483.667,718.167 487,699.5C 491.793,704.268 497.627,706.601 504.5,706.5C 516.071,705.922 526.405,702.088 535.5,695C 552.137,681.903 561.637,664.736 564,643.5C 564.383,642.944 564.883,642.611 565.5,642.5 Z"/></g>
<g><path style="opacity:1" fill="#1a1a1a" d="M 787.5,677.5 C 783.628,689.244 778.128,700.244 771,710.5C 762.283,720.095 753.449,729.595 744.5,739C 710.903,758.851 674.903,766.517 636.5,762C 626.306,760.259 620.973,754.259 620.5,744C 621.979,734.728 623.979,725.561 626.5,716.5C 626.262,713.201 625.262,710.201 623.5,707.5C 624.949,706.828 626.282,706.161 627.5,705.5C 633.509,705.334 639.509,705.501 645.5,706C 665.31,710.379 685.31,711.379 705.5,709C 717.405,706.587 728.738,702.587 739.5,697C 746.283,691.221 753.616,686.221 761.5,682C 769.093,674.4 777.26,667.567 786,661.5C 786.945,661.905 787.612,662.572 788,663.5C 788.648,668.204 788.481,672.871 787.5,677.5 Z"/></g>
<g><path style="opacity:1" fill="#131313" d="M 350.5,718.5 C 349.043,720.242 347.876,722.242 347,724.5C 338.283,720.644 330.616,715.311 324,708.5C 322.417,720.502 325.084,731.502 332,741.5C 338.772,748.117 345.939,754.117 353.5,759.5C 338.303,758.317 327.136,750.984 320,737.5C 312.742,718.114 311.742,698.447 317,678.5C 323.898,685.032 332.065,687.698 341.5,686.5C 342.023,697.933 345.023,708.6 350.5,718.5 Z"/></g>
<g><path style="opacity:1" fill="#141414" d="M 787.5,677.5 C 785.944,702.342 777.777,724.676 763,744.5C 755.61,751.115 747.444,756.615 738.5,761C 724.3,765.467 709.966,769.467 695.5,773C 671.8,773.505 648.467,776.671 625.5,782.5C 624.5,782.333 623.5,782.167 622.5,782C 615.422,770.621 605.089,764.621 591.5,764C 601.563,746.917 606.229,728.417 605.5,708.5C 612.937,708.149 620.27,707.149 627.5,705.5C 626.282,706.161 624.949,706.828 623.5,707.5C 625.262,710.201 626.262,713.201 626.5,716.5C 623.979,725.561 621.979,734.728 620.5,744C 620.973,754.259 626.306,760.259 636.5,762C 674.903,766.517 710.903,758.851 744.5,739C 753.449,729.595 762.283,720.095 771,710.5C 778.128,700.244 783.628,689.244 787.5,677.5 Z"/></g>
<g><path style="opacity:1" fill="#1a1a1a" d="M 350.5,718.5 C 353.904,722.965 357.071,727.631 360,732.5C 365.289,737.867 370.789,742.867 376.5,747.5C 378.142,754.451 381.142,760.785 385.5,766.5C 382.554,767.655 379.554,767.821 376.5,767C 370.378,765.471 364.378,763.638 358.5,761.5C 356.95,760.559 355.284,759.893 353.5,759.5C 345.939,754.117 338.772,748.117 332,741.5C 325.084,731.502 322.417,720.502 324,708.5C 330.616,715.311 338.283,720.644 347,724.5C 347.876,722.242 349.043,720.242 350.5,718.5 Z"/></g>
<g><path style="opacity:1" fill="#141414" d="M 376.5,747.5 C 388.389,755.614 401.056,762.447 414.5,768C 415.749,770.21 415.582,772.376 414,774.5C 406.476,785.682 396.31,793.515 383.5,798C 375.218,799.923 366.885,801.59 358.5,803C 353.761,803.726 349.095,803.393 344.5,802C 346.809,799.513 349.476,797.513 352.5,796C 356.633,790.866 361.133,786.032 366,781.5C 366.612,779.763 365.946,778.763 364,778.5C 361.71,779.724 359.544,781.057 357.5,782.5C 358.172,779.658 359.506,777.158 361.5,775C 351.161,771.609 340.828,768.109 330.5,764.5C 331.932,762.673 333.599,761.006 335.5,759.5C 342.062,762.14 348.729,764.474 355.5,766.5C 356.442,766.392 357.275,766.059 358,765.5C 357.645,764.041 357.811,762.707 358.5,761.5C 364.378,763.638 370.378,765.471 376.5,767C 379.554,767.821 382.554,767.655 385.5,766.5C 381.142,760.785 378.142,754.451 376.5,747.5 Z"/></g>
<g><path style="opacity:1" fill="#1a1a1a" d="M 330.5,764.5 C 340.828,768.109 351.161,771.609 361.5,775C 359.506,777.158 358.172,779.658 357.5,782.5C 346.393,790.126 334.06,792.626 320.5,790C 315.177,788.923 310.677,786.423 307,782.5C 305.504,780.55 305.337,778.55 306.5,776.5C 315.084,773.541 323.084,769.541 330.5,764.5 Z"/></g>
<g><path style="opacity:1" fill="#1a1a1a" d="M 578.5,780.5 C 593.089,778.218 605.255,782.552 615,793.5C 615.688,794.332 615.521,794.998 614.5,795.5C 607.334,800.602 599.334,802.935 590.5,802.5C 590.692,805.601 591.358,808.601 592.5,811.5C 587.593,811.932 582.926,810.765 578.5,808C 572.243,803.287 566.076,798.454 560,793.5C 558.148,790.653 558.648,788.153 561.5,786C 567.137,783.682 572.803,781.849 578.5,780.5 Z"/></g>

        
<g><path style="opacity:0.904" fill="#020202" d="M 492.5,247.5 C 515.533,247.263 533.366,256.596 546,275.5C 550.875,284.412 555.042,293.579 558.5,303C 558.158,305.515 556.825,307.348 554.5,308.5C 552.205,306.52 549.539,305.353 546.5,305C 526.722,303.823 507.555,306.657 489,313.5C 491.296,328.823 493.796,344.156 496.5,359.5C 515.133,358.568 532.466,353.235 548.5,343.5C 551.079,344.888 551.079,346.388 548.5,348C 540.888,351.139 533.554,354.806 526.5,359C 517.117,363.072 507.45,366.239 497.5,368.5C 497.666,377.506 497.5,386.506 497,395.5C 496.586,395.957 496.086,396.291 495.5,396.5C 494.502,387.525 494.168,378.525 494.5,369.5C 474.538,371.28 454.538,371.78 434.5,371C 431.711,370.759 429.044,370.092 426.5,369C 429.84,366.991 433.507,365.824 437.5,365.5C 456.034,367.058 474.367,365.724 492.5,361.5C 493.422,356.507 493.255,351.507 492,346.5C 490.128,336.142 488.128,325.809 486,315.5C 485.439,314.978 484.772,314.645 484,314.5C 460.075,322.547 437.575,333.38 416.5,347C 413.333,350.167 410.167,353.333 407,356.5C 406.773,363.246 407.94,369.746 410.5,376C 408.984,382.558 406.484,388.725 403,394.5C 390.558,401.825 379.725,399.658 370.5,388C 367.5,386 364.5,386 361.5,388C 355.888,397.661 347.888,400.327 337.5,396C 334.667,394.5 332.5,392.333 331,389.5C 329.616,383.862 328.45,378.195 327.5,372.5C 326.325,372.281 325.325,372.614 324.5,373.5C 318.891,387.897 310.891,400.73 300.5,412C 298.223,413.959 295.723,415.459 293,416.5C 282.155,412.329 272.322,406.496 263.5,399C 245.45,388.357 226.117,384.857 205.5,388.5C 197.369,365.942 200.535,344.942 215,325.5C 215.218,305.905 222.385,289.405 236.5,276C 243.041,271.46 250.041,267.793 257.5,265C 263.793,264.142 269.793,265.142 275.5,268C 294.627,282.096 309.127,299.929 319,321.5C 323.344,332.367 327.177,343.367 330.5,354.5C 342.609,360.703 355.443,364.37 369,365.5C 378.23,363.734 387.397,361.734 396.5,359.5C 395.021,355.198 393.521,350.865 392,346.5C 391.46,332.433 394.46,319.1 401,306.5C 406.344,296.474 412.677,287.141 420,278.5C 431.941,268.442 445.108,260.275 459.5,254C 470.366,250.443 481.366,248.276 492.5,247.5 Z"/></g>
<g><path style="opacity:1" fill="#1b1b1b" d="M 491.5,251.5 C 512.015,251.342 528.515,259.342 541,275.5C 546.139,283.77 550.139,292.437 553,301.5C 545.161,299.952 536.995,299.452 528.5,300C 514.582,301.784 500.915,304.451 487.5,308C 484.415,296.075 480.915,284.242 477,272.5C 475.926,268.681 474.093,265.348 471.5,262.5C 475.843,277.668 480.176,293.168 484.5,309C 466.264,316.451 448.264,324.451 430.5,333C 420.352,339.081 411.352,346.581 403.5,355.5C 402.549,356.326 401.549,356.492 400.5,356C 397.116,351.224 395.116,345.891 394.5,340C 396.138,329.947 398.638,320.114 402,310.5C 405.755,305.997 408.755,300.997 411,295.5C 415.048,291.12 418.715,286.454 422,281.5C 436.682,268.507 453.516,259.341 472.5,254C 478.988,253.216 485.322,252.383 491.5,251.5 Z"/></g>
<g><path style="opacity:1" fill="#1b1b1b" d="M 256.5,269.5 C 263.905,268.705 270.571,270.539 276.5,275C 302.483,295.471 318.317,321.971 324,354.5C 322.601,353.773 321.101,353.273 319.5,353C 298.875,335.523 275.209,324.189 248.5,319C 238.929,317.048 229.263,316.214 219.5,316.5C 223.054,293.637 235.388,277.97 256.5,269.5 Z"/></g>
<g><path style="opacity:1" fill="#f3f2e5" d="M 223.5,320.5 C 258.583,321.886 289.249,334.053 315.5,357C 322.049,356.381 324.215,359.214 322,365.5C 317.972,381.561 310.305,395.561 299,407.5C 302.815,380.294 292.981,359.46 269.5,345C 256.136,341.189 243.469,342.856 231.5,350C 220.786,357.876 212.452,367.709 206.5,379.5C 203.61,364.357 205.777,350.024 213,336.5C 216.356,330.996 219.856,325.663 223.5,320.5 Z"/></g>
<g><path style="opacity:1" fill="#1b1b1b" d="M 327.5,358.5 C 327.56,357.957 327.893,357.624 328.5,357.5C 343.24,366.685 359.24,370.519 376.5,369C 385.084,366.187 393.751,363.687 402.5,361.5C 404.299,368.98 404.799,376.646 404,384.5C 402.453,391.217 398.286,394.884 391.5,395.5C 383.4,395.118 377.067,391.618 372.5,385C 367.996,381.538 363.663,381.704 359.5,385.5C 357.294,388.203 354.961,390.703 352.5,393C 347.713,393.879 343.047,393.545 338.5,392C 337.333,390.833 336.167,389.667 335,388.5C 332.616,381.015 331.283,373.348 331,365.5C 330.856,362.558 329.689,360.224 327.5,358.5 Z"/></g>

        
<g><path style="opacity:0.984" fill="#1d1d1b" d="M 174.5,344.5 C 175.167,349.167 175.833,353.833 176.5,358.5C 178.111,375.277 187.278,384.611 204,386.5C 231.975,382.162 256.475,389.329 277.5,408C 293.139,416.546 309.806,421.88 327.5,424C 356.497,424.928 385.497,425.261 414.5,425C 429.134,423.395 443.468,420.395 457.5,416C 471.005,408.08 484.672,400.413 498.5,393C 513.647,387.395 528.98,382.395 544.5,378C 559.842,375.537 575.009,376.37 590,380.5C 595.831,378.557 601.498,376.223 607,373.5C 607.638,372.391 608.138,371.225 608.5,370C 607.069,365.361 605.069,361.027 602.5,357C 598.071,354.898 593.905,352.398 590,349.5C 589.085,347.08 589.918,345.747 592.5,345.5C 608.084,348.324 615.251,357.657 614,373.5C 612.833,375.333 611.667,377.167 610.5,379C 605.202,381.66 599.869,384.327 594.5,387C 587.007,387.313 579.673,386.313 572.5,384C 555.682,381.297 540.015,384.131 525.5,392.5C 525.631,391.624 525.298,390.957 524.5,390.5C 523.261,390.942 522.261,391.609 521.5,392.5C 520.791,393.404 519.791,393.737 518.5,393.5C 514.838,393.723 511.505,394.723 508.5,396.5C 505.759,396.707 503.426,397.707 501.5,399.5C 501.158,400.338 500.492,400.672 499.5,400.5C 494.914,401.46 490.914,403.46 487.5,406.5C 487.158,407.338 486.492,407.672 485.5,407.5C 483.973,407.427 482.973,408.094 482.5,409.5C 467.186,420.144 450.186,426.977 431.5,430C 432.637,435.082 432.804,440.249 432,445.5C 431.5,446 431,446.5 430.5,447C 422.694,448.674 414.861,449.841 407,450.5C 404.245,446.366 403.078,441.699 403.5,436.5C 403.5,434.833 403.5,433.167 403.5,431.5C 396.313,431.175 389.313,431.509 382.5,432.5C 376.223,432.451 370.056,431.784 364,430.5C 363.138,436.433 361.971,442.266 360.5,448C 353.216,449.125 345.883,449.959 338.5,450.5C 335.825,449.523 334.325,447.523 334,444.5C 332.925,440.23 332.425,435.897 332.5,431.5C 319.607,430.116 306.94,428.116 294.5,425.5C 296.933,424.452 296.933,423.786 294.5,423.5C 290.703,423.128 287.37,421.794 284.5,419.5C 281.485,417.326 278.151,415.659 274.5,414.5C 273.415,412.413 271.749,411.08 269.5,410.5C 268.508,410.672 267.842,410.338 267.5,409.5C 267.027,408.094 266.027,407.427 264.5,407.5C 246.393,392.864 225.893,388.198 203,393.5C 182.474,390.465 171.974,378.465 171.5,357.5C 171.86,353.483 172.36,349.483 173,345.5C 173.383,344.944 173.883,344.611 174.5,344.5 Z"/></g>
<g><path style="opacity:0.294" fill="#8b8a83" d="M 174.5,344.5 C 174.56,343.957 174.893,343.624 175.5,343.5C 176.494,348.456 176.827,353.456 176.5,358.5C 175.833,353.833 175.167,349.167 174.5,344.5 Z"/></g>
<g><path style="opacity:0.024" fill="#cacabf" d="M 525.5,392.5 C 524.167,392.5 522.833,392.5 521.5,392.5C 522.261,391.609 523.261,390.942 524.5,390.5C 525.298,390.957 525.631,391.624 525.5,392.5 Z"/></g>
<g><path style="opacity:0.024" fill="#d6d5ca" d="M 518.5,393.5 C 515.495,395.277 512.162,396.277 508.5,396.5C 511.505,394.723 514.838,393.723 518.5,393.5 Z"/></g>
<g><path style="opacity:0.039" fill="#d2d1c6" d="M 508.5,396.5 C 506.574,398.293 504.241,399.293 501.5,399.5C 503.426,397.707 505.759,396.707 508.5,396.5 Z"/></g>
<g><path style="opacity:0.031" fill="#d8d7cc" d="M 499.5,400.5 C 495.818,403.008 491.818,405.008 487.5,406.5C 490.914,403.46 494.914,401.46 499.5,400.5 Z"/></g>
<g><path style="opacity:0.055" fill="#d1d0c5" d="M 264.5,407.5 C 266.027,407.427 267.027,408.094 267.5,409.5C 265.973,409.573 264.973,408.906 264.5,407.5 Z"/></g>
<g><path style="opacity:0.02" fill="#dfded2" d="M 485.5,407.5 C 485.027,408.906 484.027,409.573 482.5,409.5C 482.973,408.094 483.973,407.427 485.5,407.5 Z"/></g>
<g><path style="opacity:0.102" fill="#b9b8af" d="M 269.5,410.5 C 271.749,411.08 273.415,412.413 274.5,414.5C 272.251,413.92 270.585,412.587 269.5,410.5 Z"/></g>
<g><path style="opacity:0.039" fill="#d0d0c5" d="M 274.5,414.5 C 278.151,415.659 281.485,417.326 284.5,419.5C 280.58,418.873 277.247,417.207 274.5,414.5 Z"/></g>
<g><path style="opacity:0.031" fill="#d7d6cb" d="M 294.5,423.5 C 296.933,423.786 296.933,424.452 294.5,425.5C 293.494,425.062 293.494,424.396 294.5,423.5 Z"/></g>
<g><path style="opacity:1" fill="#ecebdf" d="M 423.5,429.5 C 425.167,429.5 426.833,429.5 428.5,429.5C 428.8,434.099 428.467,438.599 427.5,443C 421.173,443.651 414.84,444.151 408.5,444.5C 408.046,440.185 407.046,436.019 405.5,432C 411.721,431.729 417.721,430.896 423.5,429.5 Z"/></g>
<g><path style="opacity:1" fill="#f3f2e5" d="M 352.5,429.5 C 354.117,430.038 355.784,430.371 357.5,430.5C 357.5,434.833 357.5,439.167 357.5,443.5C 351.203,444.32 344.869,444.653 338.5,444.5C 337.833,440.167 337.167,435.833 336.5,431.5C 342.069,431.624 347.402,430.957 352.5,429.5 Z"/></g>
<g><path style="opacity:0.09" fill="#75756e" d="M 382.5,432.5 C 389.313,431.509 396.313,431.175 403.5,431.5C 403.5,433.167 403.5,434.833 403.5,436.5C 402.566,435.432 402.232,434.099 402.5,432.5C 395.833,432.5 389.167,432.5 382.5,432.5 Z"/></g>

        
<g><path style="opacity:0.994" fill="#1c1c1b" d="M 394.5,241.5 C 393.791,240.596 392.791,240.263 391.5,240.5C 391.5,242.167 391.5,243.833 391.5,245.5C 391.395,249.319 390.562,252.986 389,256.5C 387.321,259.699 385.321,260.033 383,257.5C 383.07,251.993 380.737,247.993 376,245.5C 372.584,247.992 370.418,251.325 369.5,255.5C 368.127,255.657 366.793,255.49 365.5,255C 361.071,251.705 356.571,248.538 352,245.5C 347.629,248.431 343.796,251.931 340.5,256C 339.5,256.667 338.5,256.667 337.5,256C 335.48,250.719 334.48,245.219 334.5,239.5C 334.5,238.5 334.5,237.5 334.5,236.5C 332.901,236.232 331.568,236.566 330.5,237.5C 324.003,240.981 321.503,238.981 323,231.5C 324.357,228.102 326.19,225.102 328.5,222.5C 329.289,222.217 329.956,221.717 330.5,221C 327.304,220.195 324.304,220.362 321.5,221.5C 317.924,222.813 314.258,223.313 310.5,223C 309.524,220.853 309.691,218.686 311,216.5C 316.593,208.448 324.093,202.948 333.5,200C 324.528,200.535 322.528,197.202 327.5,190C 329.441,188.097 331.774,187.264 334.5,187.5C 336.552,186.947 336.885,185.947 335.5,184.5C 334.023,182.193 332.023,180.36 329.5,179C 321.319,175.606 312.986,172.606 304.5,170C 301.654,169.121 300.987,167.454 302.5,165C 315.061,159.042 327.728,159.042 340.5,165C 355.345,170.679 365.679,180.846 371.5,195.5C 372.596,199.289 373.263,199.289 373.5,195.5C 377.16,183.177 383.16,172.177 391.5,162.5C 398.406,155.547 406.74,151.547 416.5,150.5C 415.726,157.132 412.893,162.798 408,167.5C 404.697,172.441 402.197,177.774 400.5,183.5C 405.328,183.469 410.328,183.635 415.5,184C 417.576,185.884 417.91,188.051 416.5,190.5C 412.206,191.645 408.539,193.812 405.5,197C 418.699,196.375 425.699,202.542 426.5,215.5C 419.799,216.682 414.132,219.682 409.5,224.5C 410.61,233.138 410.776,241.804 410,250.5C 409.592,253.42 408.259,255.754 406,257.5C 405.333,256.833 404.667,256.167 404,255.5C 403.946,252.139 402.946,249.139 401,246.5C 398.648,244.97 396.481,243.303 394.5,241.5 Z"/></g>
<g><path style="opacity:1" fill="#d7d6ca" d="M 408.5,202.5 C 405.167,202.5 401.833,202.5 398.5,202.5C 398.274,199.751 398.607,197.084 399.5,194.5C 397.051,193.09 394.884,193.424 393,195.5C 392.654,184.04 395.821,173.707 402.5,164.5C 400.833,163.334 399.166,163.334 397.5,164.5C 400.468,160.514 404.468,158.348 409.5,158C 401.586,167.41 397.252,178.243 396.5,190.5C 400.011,188.915 403.678,188.415 407.5,189C 404.333,190.833 401.833,193.333 400,196.5C 399.506,198.134 399.34,199.801 399.5,201.5C 402.713,201.19 405.713,201.523 408.5,202.5 Z"/></g>
<g><path style="opacity:1" fill="#f3f2e5" d="M 408.5,202.5 C 409.167,202.5 409.833,202.5 410.5,202.5C 410.423,203.75 409.756,204.583 408.5,205C 410.285,206.163 412.285,206.83 414.5,207C 417.207,210.35 416.207,212.017 411.5,212C 409,214.5 406.5,217 404,219.5C 403.805,224.418 403.305,229.251 402.5,234C 403.38,235.356 403.714,236.856 403.5,238.5C 401.861,238.074 400.528,238.074 399.5,238.5C 396.111,236.78 392.444,236.113 388.5,236.5C 387.992,241.216 387.158,245.882 386,250.5C 382.844,246.178 379.344,242.178 375.5,238.5C 373.547,239.761 371.547,240.927 369.5,242C 369.957,242.414 370.291,242.914 370.5,243.5C 368.808,245.359 367.308,247.359 366,249.5C 361.283,246.402 357.116,242.735 353.5,238.5C 350.961,239.931 348.628,241.597 346.5,243.5C 345.178,243.33 344.011,243.663 343,244.5C 342.667,243.833 342.333,243.167 342,242.5C 342.614,238.479 342.447,234.479 341.5,230.5C 338.788,230.263 336.288,230.263 334,230.5C 333.333,229.5 333.333,228.5 334,227.5C 335.022,225.336 336.189,223.336 337.5,221.5C 337.191,218.654 335.525,217.154 332.5,217C 327.116,216.495 321.782,216.495 316.5,217C 318.557,213.277 321.557,210.61 325.5,209C 330.138,206.003 334.971,204.503 340,204.5C 341.841,198.501 339.674,194.834 333.5,193.5C 335.664,191.316 338.331,189.983 341.5,189.5C 340.088,183.766 337.088,179.099 332.5,175.5C 331.473,173.474 330.139,171.641 328.5,170C 328.833,169.5 329.167,169 329.5,168.5C 330.736,169.246 332.07,169.579 333.5,169.5C 344.555,172.119 353.388,178.119 360,187.5C 363.841,193.178 367.174,199.178 370,205.5C 371.699,206.406 373.533,206.739 375.5,206.5C 377.343,194.144 381.843,182.81 389,172.5C 391.047,168.952 393.88,166.285 397.5,164.5C 399.166,163.334 400.833,163.334 402.5,164.5C 395.821,173.707 392.654,184.04 393,195.5C 394.884,193.424 397.051,193.09 399.5,194.5C 398.607,197.084 398.274,199.751 398.5,202.5C 401.833,202.5 405.167,202.5 408.5,202.5 Z"/></g>
<g><path style="opacity:1" fill="#cfcec2" d="M 333.5,169.5 C 332.07,169.579 330.736,169.246 329.5,168.5C 329.167,169 328.833,169.5 328.5,170C 330.139,171.641 331.473,173.474 332.5,175.5C 326.495,172.498 320.495,169.498 314.5,166.5C 318.122,165.341 321.789,165.175 325.5,166C 328.666,166.322 331.333,167.489 333.5,169.5 Z"/></g>
<g><path style="opacity:0.561" fill="#93928a" d="M 335.5,184.5 C 336.885,185.947 336.552,186.947 334.5,187.5C 335.11,186.609 335.443,185.609 335.5,184.5 Z"/></g>
<g><path style="opacity:1" fill="#92928a" d="M 371.5,195.5 C 372.167,195.5 372.833,195.5 373.5,195.5C 373.263,199.289 372.596,199.289 371.5,195.5 Z"/></g>
<g><path style="opacity:1" fill="#d9d8cb" d="M 410.5,202.5 C 416.016,203.181 420.016,206.014 422.5,211C 415.592,212.922 410.092,216.755 406,222.5C 406.522,230.127 406.522,237.794 406,245.5C 403.628,243.297 401.461,240.963 399.5,238.5C 400.528,238.074 401.861,238.074 403.5,238.5C 403.714,236.856 403.38,235.356 402.5,234C 403.305,229.251 403.805,224.418 404,219.5C 406.5,217 409,214.5 411.5,212C 416.207,212.017 417.207,210.35 414.5,207C 412.285,206.83 410.285,206.163 408.5,205C 409.756,204.583 410.423,203.75 410.5,202.5 Z"/></g>
<g><path style="opacity:0.447" fill="#706f69" d="M 321.5,221.5 C 324.304,220.362 327.304,220.195 330.5,221C 329.956,221.717 329.289,222.217 328.5,222.5C 326.393,221.532 324.059,221.198 321.5,221.5 Z"/></g>
<g><path style="opacity:1" fill="#d6d5c9" d="M 337.5,221.5 C 336.189,223.336 335.022,225.336 334,227.5C 333.333,228.5 333.333,229.5 334,230.5C 336.288,230.263 338.788,230.263 341.5,230.5C 342.447,234.479 342.614,238.479 342,242.5C 342.333,243.167 342.667,243.833 343,244.5C 344.011,243.663 345.178,243.33 346.5,243.5C 344.229,245.266 342.063,247.266 340,249.5C 337.689,243.959 336.856,238.293 337.5,232.5C 334.073,232.976 330.74,232.976 327.5,232.5C 329.464,227.538 332.798,223.871 337.5,221.5 Z"/></g>
<g><path style="opacity:0.18" fill="#b1b0a7" d="M 330.5,237.5 C 331.568,236.566 332.901,236.232 334.5,236.5C 334.5,237.5 334.5,238.5 334.5,239.5C 333.533,238.194 332.199,237.527 330.5,237.5 Z"/></g>
<g><path style="opacity:0.424" fill="#84847d" d="M 394.5,241.5 C 393.022,242.448 392.022,243.781 391.5,245.5C 391.5,243.833 391.5,242.167 391.5,240.5C 392.791,240.263 393.791,240.596 394.5,241.5 Z"/></g>

    </svg>
