
    <svg width="862" height="862" viewBox="0 0 862 862" fill="none" xmlns="http://www.w3.org/2000/svg">
        
<g><path style="opacity:1" fill="#f6f6e8" d="M -0.5,-0.5 C 286.833,-0.5 574.167,-0.5 861.5,-0.5C 861.5,286.833 861.5,574.167 861.5,861.5C 574.167,861.5 286.833,861.5 -0.5,861.5C -0.5,574.167 -0.5,286.833 -0.5,-0.5 Z"/></g>

        
<g><path style="opacity:0.983" fill="#1a1a19" d="M 578.5,540.5 C 583.993,540.916 589.326,542.082 594.5,544C 599.237,547.614 603.403,551.781 607,556.5C 613.977,570.057 616.311,584.39 614,599.5C 611.931,603.236 608.931,605.903 605,607.5C 603.018,607.01 601.351,606.01 600,604.5C 594.275,609.717 588.442,609.717 582.5,604.5C 577.923,613.337 572.256,614.337 565.5,607.5C 561.53,612.973 556.196,614.806 549.5,613C 548.299,612.097 547.465,610.931 547,609.5C 541.931,617.452 536.764,617.452 531.5,609.5C 527.737,613.765 523.737,617.932 519.5,622C 516.106,622.752 512.773,622.585 509.5,621.5C 508.194,620.088 507.36,618.421 507,616.5C 505.425,609.568 504.258,602.568 503.5,595.5C 504.335,583.317 510.669,578.317 522.5,580.5C 523.795,579.902 525.128,579.402 526.5,579C 535.197,570.637 543.531,561.97 551.5,553C 559.592,546.617 568.592,542.45 578.5,540.5 Z"/></g>
<g><path style="opacity:1" fill="#d9d8cb" d="M 587.5,601.5 C 588.496,601.586 589.329,601.252 590,600.5C 592.94,596.545 595.94,592.545 599,588.5C 599.37,579.339 598.37,570.339 596,561.5C 591.36,554.156 584.693,549.822 576,548.5C 573.538,549.159 571.038,549.493 568.5,549.5C 581.297,543.74 592.13,546.407 601,557.5C 608.853,570.951 611.186,585.285 608,600.5C 606.604,602.527 604.938,602.86 603,601.5C 602.091,598.089 601.091,594.755 600,591.5C 598.35,595.573 596.516,599.573 594.5,603.5C 591.584,604.861 589.251,604.195 587.5,601.5 Z"/></g>
<g><path style="opacity:1" fill="#f4f3e6" d="M 587.5,601.5 C 585.433,599.682 584.1,597.349 583.5,594.5C 582.635,593.417 581.635,593.251 580.5,594C 579.955,598.074 578.621,601.907 576.5,605.5C 574.878,607.439 573.044,607.772 571,606.5C 568.863,602.486 567.03,598.486 565.5,594.5C 564.522,594.977 563.689,595.643 563,596.5C 563.284,605.334 559.118,609.667 550.5,609.5C 550.348,605.228 549.348,601.228 547.5,597.5C 545.179,600.394 544.012,603.727 544,607.5C 541.618,612.067 538.951,612.4 536,608.5C 535.887,606.026 534.887,604.026 533,602.5C 527.856,607.313 523.023,612.48 518.5,618C 516.098,618.814 513.765,618.647 511.5,617.5C 508.811,609.37 507.645,601.036 508,592.5C 508.668,588.501 510.835,585.668 514.5,584C 518.801,584.363 523.134,584.363 527.5,584C 529.167,583 530.833,582 532.5,581C 540.864,572.97 548.864,564.637 556.5,556C 560.367,553.567 564.367,551.4 568.5,549.5C 571.038,549.493 573.538,549.159 576,548.5C 584.693,549.822 591.36,554.156 596,561.5C 598.37,570.339 599.37,579.339 599,588.5C 595.94,592.545 592.94,596.545 590,600.5C 589.329,601.252 588.496,601.586 587.5,601.5 Z"/></g>
<g><path style="opacity:0.982" fill="#191918" d="M 290.5,554.5 C 298.253,554.104 305.92,554.604 313.5,556C 315.5,557.333 317.5,558.667 319.5,560C 322.228,566.042 326.895,569.709 333.5,571C 335.378,572.543 336.878,574.376 338,576.5C 338.242,583.196 338.742,589.862 339.5,596.5C 339.461,598.587 338.461,599.921 336.5,600.5C 332.274,599.93 328.108,599.263 324,598.5C 322.5,600 321,601.5 319.5,603C 317.287,603.626 315.12,603.459 313,602.5C 306.564,605.689 301.23,604.356 297,598.5C 284.481,607.161 276.648,603.994 273.5,589C 271.944,573.778 277.611,562.278 290.5,554.5 Z"/></g>
<g><path style="opacity:1" fill="#f4f3e6" d="M 334.5,587.5 C 334.5,590.167 334.5,592.833 334.5,595.5C 333.167,595.5 331.833,595.5 330.5,595.5C 327.482,595.335 324.482,595.502 321.5,596C 320.022,598.039 318.022,598.872 315.5,598.5C 315.5,597.5 315.5,596.5 315.5,595.5C 312.326,596.015 309.326,597.015 306.5,598.5C 305.5,598.333 304.5,598.167 303.5,598C 301.441,595.366 299.275,592.866 297,590.5C 296.292,591.381 295.458,592.047 294.5,592.5C 290.404,593.285 287.07,592.118 284.5,589C 284.833,588.667 285.167,588.333 285.5,588C 283.667,587.5 282.5,586.333 282,584.5C 281.501,580.179 281.334,575.846 281.5,571.5C 281.709,570.078 282.209,568.745 283,567.5C 286.167,565 289.333,562.5 292.5,560C 298.167,559.333 303.833,559.333 309.5,560C 314.42,562.916 318.753,566.582 322.5,571C 326.232,572.461 329.732,574.294 333,576.5C 333.936,580.114 334.436,583.78 334.5,587.5 Z"/></g>
<g><path style="opacity:1" fill="#d7d6c9" d="M 281.5,571.5 C 281.334,575.846 281.501,580.179 282,584.5C 282.5,586.333 283.667,587.5 285.5,588C 285.167,588.333 284.833,588.667 284.5,589C 287.07,592.118 290.404,593.285 294.5,592.5C 293.641,595.452 291.641,597.285 288.5,598C 285.364,599.041 282.864,598.207 281,595.5C 279.409,588.608 279.076,581.608 280,574.5C 280.232,573.263 280.732,572.263 281.5,571.5 Z"/></g>
<g><path style="opacity:1" fill="#64635e" d="M 334.5,587.5 C 335.477,590.287 335.81,593.287 335.5,596.5C 333.585,596.784 331.919,596.451 330.5,595.5C 331.833,595.5 333.167,595.5 334.5,595.5C 334.5,592.833 334.5,590.167 334.5,587.5 Z"/></g>

        
<g><path style="opacity:0.994" fill="#0e0109" d="M 505.5,18.5 C 529.919,17.7264 553.919,20.5598 577.5,27C 609.101,35.4222 639.767,46.4222 669.5,60C 698.643,78.4613 725.476,99.9613 750,124.5C 769.217,147.939 781.717,174.606 787.5,204.5C 787.255,206.663 786.255,208.33 784.5,209.5C 759.247,199.852 733.247,192.685 706.5,188C 674.881,182.925 645.214,188.259 617.5,204C 595.206,220.746 581.706,242.913 577,270.5C 573.386,276.063 568.219,279.23 561.5,280C 535.059,282.696 509.726,278.696 485.5,268C 468.941,259.107 453.775,248.273 440,235.5C 437.168,231.336 435.001,226.836 433.5,222C 433.645,221.228 433.978,220.561 434.5,220C 452.214,214.488 469.881,208.821 487.5,203C 509.336,194.838 527.502,181.671 542,163.5C 552.415,149.418 554.082,134.418 547,118.5C 546.505,116.527 546.338,114.527 546.5,112.5C 552.944,108.776 559.611,105.276 566.5,102C 576.482,99.0056 586.482,96.339 596.5,94C 561.281,62.2167 520.614,40.05 474.5,27.5C 473.417,26.635 473.251,25.635 474,24.5C 475.816,23.6705 477.649,22.8372 479.5,22C 488.308,20.784 496.974,19.6174 505.5,18.5 Z"/></g>
<g><path style="opacity:1" fill="#49003c" d="M 536.5,178.5 C 532.634,187.737 526.967,195.737 519.5,202.5C 514.794,206.131 509.627,207.464 504,206.5C 496.838,208.748 490.838,212.748 486,218.5C 484.069,223.607 484.403,228.607 487,233.5C 490.254,235.791 492.921,238.125 495,240.5C 495.914,239.346 496.747,239.513 497.5,241C 504.826,241.75 511.992,242.917 519,244.5C 521.97,242.75 523.97,243.417 525,246.5C 526.593,244.715 528.093,244.548 529.5,246C 534.182,246.309 538.682,247.143 543,248.5C 546.294,248.408 549.461,247.741 552.5,246.5C 553.145,244.568 554.479,243.401 556.5,243C 556.167,242.667 555.833,242.333 555.5,242C 556.931,240.438 558.431,238.938 560,237.5C 561.001,231.488 562.501,225.988 564.5,221C 563.366,219.984 563.699,219.317 565.5,219C 565.167,218.667 564.833,218.333 564.5,218C 566.449,215.862 568.116,213.529 569.5,211C 570.073,206.056 572.239,201.556 576,197.5C 578.802,190.563 582.135,183.896 586,177.5C 589.93,168.736 589.263,160.402 584,152.5C 583.586,152.957 583.086,153.291 582.5,153.5C 581.646,152.478 580.646,151.645 579.5,151C 576.5,150.5 573.5,150 570.5,149.5C 565.463,150.851 560.797,153.018 556.5,156C 555.167,156.667 555.167,157.333 556.5,158C 555.747,159.487 554.914,159.654 554,158.5C 552.887,159.76 552.72,160.927 553.5,162C 552.184,162.528 551.517,162.028 551.5,160.5C 555.372,153.012 557.372,145.012 557.5,136.5C 556.979,128.972 555.812,121.638 554,114.5C 561.541,109.649 569.707,106.149 578.5,104C 586.88,102.857 595.047,101.023 603,98.5C 603.667,96.5 603.667,94.5 603,92.5C 569.977,61.2256 531.477,39.0589 487.5,26C 509.177,22.4787 530.844,22.812 552.5,27C 580.437,32.9794 607.77,40.9794 634.5,51C 645.916,55.8057 657.25,60.8057 668.5,66C 692.933,82.0919 715.933,100.092 737.5,120C 759.107,143.315 773.44,170.482 780.5,201.5C 764.34,196.17 748.006,191.336 731.5,187C 702.541,180.217 673.541,179.883 644.5,186C 603.465,199.407 579.465,227.407 572.5,270C 568.034,272.266 563.368,273.933 558.5,275C 532.789,277.248 508.455,272.581 485.5,261C 470.334,252.665 456.5,242.498 444,230.5C 442.36,228.421 441.194,226.088 440.5,223.5C 453.443,219.514 466.443,215.68 479.5,212C 493.13,207.352 506.13,201.352 518.5,194C 525.012,189.313 531.012,184.146 536.5,178.5 Z"/></g>
<g><path style="opacity:0.994" fill="#120a09" d="M 110.5,109.5 C 117.11,104.559 123.11,98.8922 128.5,92.5C 136.353,85.1529 144.687,78.3196 153.5,72C 170.937,64.1151 187.937,55.4484 204.5,46C 222.928,39.3172 241.928,35.3172 261.5,34C 268.833,33.3333 276.167,33.3333 283.5,34C 284.406,35.6995 284.739,37.5328 284.5,39.5C 282.473,39.3379 280.473,39.5045 278.5,40C 251.079,56.5854 230.079,79.0854 215.5,107.5C 223.11,109.983 230.443,113.149 237.5,117C 239.543,119.009 241.543,121.009 243.5,123C 243.578,128.964 243.411,135.131 243,141.5C 242.488,146.038 240.988,150.204 238.5,154C 248.461,168.641 257.628,183.808 266,199.5C 276.165,211.143 285.665,223.143 294.5,235.5C 285.24,264.602 266.573,285.435 238.5,298C 232.801,299.002 227.301,300.502 222,302.5C 219.446,302.42 217.946,301.086 217.5,298.5C 226.852,273.567 224.685,249.567 211,226.5C 195.302,204.14 174.468,188.64 148.5,180C 123.327,176.617 100.993,182.95 81.5,199C 79.8876,199.72 78.3876,199.554 77,198.5C 77.0751,189.833 77.7417,181.166 79,172.5C 83.4608,161.784 87.1275,150.784 90,139.5C 95.9148,128.773 102.748,118.773 110.5,109.5 Z"/></g>
<g><path style="opacity:1" fill="#4a003c" d="M 261.5,40.5 C 262.791,40.2627 263.791,40.596 264.5,41.5C 245.765,55.7374 229.931,72.7374 217,92.5C 213.985,97.5251 211.818,102.858 210.5,108.5C 209.167,108.5 207.833,108.5 206.5,108.5C 206.452,111.292 207.785,113.125 210.5,114C 213.527,113.16 216.527,113.493 219.5,115C 226.422,117.706 232.589,121.54 238,126.5C 239.132,134.462 238.132,142.128 235,149.5C 233.5,150.333 232.333,151.5 231.5,153C 236.731,162.635 242.064,172.135 247.5,181.5C 246.194,180.032 244.694,178.699 243,177.5C 239.655,178.938 236.155,179.938 232.5,180.5C 230.895,179.57 229.395,179.57 228,180.5C 227.085,179.672 226.419,178.672 226,177.5C 225.026,179.878 224.359,179.544 224,176.5C 220.837,173.262 217.503,170.262 214,167.5C 212.416,167.988 211.249,168.988 210.5,170.5C 208.675,169.429 207.508,170.096 207,172.5C 206.342,174.8 205.842,177.133 205.5,179.5C 205.962,182.27 205.962,184.936 205.5,187.5C 205.76,189.187 206.427,190.687 207.5,192C 207.167,192.333 206.833,192.667 206.5,193C 212.625,202.583 217.958,212.583 222.5,223C 221.833,223.333 221.167,223.667 220.5,224C 221.989,227.185 223.656,230.351 225.5,233.5C 225.145,234.522 224.478,235.189 223.5,235.5C 217.513,222.384 209.18,210.884 198.5,201C 191.833,195.667 185.167,190.333 178.5,185C 145.593,166.828 113.926,168.662 83.5,190.5C 82.5318,188.393 82.1984,186.059 82.5,183.5C 86.3549,170.11 90.5216,156.776 95,143.5C 99.3557,136.789 103.189,129.789 106.5,122.5C 125.392,100.429 147.392,82.2628 172.5,68C 184.022,63.841 194.688,58.5076 204.5,52C 223.072,45.919 242.072,42.0857 261.5,40.5 Z"/></g>
<g><path style="opacity:1" fill="#324100" d="M 261.5,40.5 C 262.708,39.218 264.042,39.218 265.5,40.5C 265.376,41.1067 265.043,41.44 264.5,41.5C 263.791,40.596 262.791,40.2627 261.5,40.5 Z"/></g>
<g><path style="opacity:1" fill="#5d0040" d="M 597.5,133.5 C 598.678,131.662 598.345,129.995 596.5,128.5C 594.326,125.485 592.659,122.151 591.5,118.5C 591.167,116.5 590.833,114.5 590.5,112.5C 590.328,111.508 590.662,110.842 591.5,110.5C 593.027,110.573 594.027,109.906 594.5,108.5C 599.072,107.906 603.406,106.573 607.5,104.5C 608.842,105.902 609.676,105.569 610,103.5C 611.388,104.554 612.888,104.72 614.5,104C 620.102,101.799 625.769,99.7994 631.5,98C 632.077,96.286 633.577,94.786 636,93.5C 636.333,93.8333 636.667,94.1667 637,94.5C 636.852,93.175 637.018,92.0084 637.5,91C 631.321,86.7433 625.321,82.2433 619.5,77.5C 610.296,75.4417 602.796,70.775 597,63.5C 596,63.5 595,63.5 594,63.5C 593.558,61.3215 592.558,60.6548 591,61.5C 589.318,59.4011 587.652,58.0678 586,57.5C 585.586,57.9574 585.086,58.2907 584.5,58.5C 577.452,55.429 570.452,52.2623 563.5,49C 561.047,47.1521 560.047,44.6521 560.5,41.5C 562.199,41.3398 563.866,41.5065 565.5,42C 569.019,43.783 572.519,45.6163 576,47.5C 576.667,46.8333 577.333,46.1667 578,45.5C 579.307,46.7717 580.807,47.7717 582.5,48.5C 587.751,49.8675 592.751,51.0341 597.5,52C 596.5,52.3333 595.5,52.6667 594.5,53C 596.791,54.877 598.791,54.7103 600.5,52.5C 601.192,53.0253 601.692,53.6919 602,54.5C 602.561,53.9781 603.228,53.6448 604,53.5C 606.5,54.3333 609,55.1667 611.5,56C 612.852,58.0922 614.686,59.5922 617,60.5C 617.945,60.0946 618.612,59.428 619,58.5C 624.693,63.3778 631.193,65.3778 638.5,64.5C 639.799,65.09 640.632,66.09 641,67.5C 642.049,66.4829 643.216,66.3162 644.5,67C 648.022,68.6763 651.356,70.6763 654.5,73C 656.218,73.346 657.885,73.846 659.5,74.5C 660.086,74.2907 660.586,73.9574 661,73.5C 662.648,76.5528 664.982,77.5528 668,76.5C 675.514,80.4488 682.681,84.9488 689.5,90C 691.976,92.7318 694.643,95.2318 697.5,97.5C 698.086,97.2907 698.586,96.9574 699,96.5C 704.074,104.409 710.574,110.742 718.5,115.5C 718.351,116.552 718.517,117.552 719,118.5C 724.964,127.04 731.131,134.54 737.5,141C 737.167,141.333 736.833,141.667 736.5,142C 738.679,142.442 739.345,143.442 738.5,145C 739.253,146.487 740.086,146.654 741,145.5C 743.139,148.939 745.639,152.106 748.5,155C 747.892,157.184 748.559,159.184 750.5,161C 749.663,162.011 749.33,163.178 749.5,164.5C 750.5,164.5 751.5,164.5 752.5,164.5C 752.658,167.579 752.658,170.746 752.5,174C 754.004,175.337 755.004,177.004 755.5,179C 754.214,181.423 752.714,182.923 751,183.5C 742.901,180.294 734.568,177.627 726,175.5C 725.667,175.833 725.333,176.167 725,176.5C 721.026,175.611 716.86,174.278 712.5,172.5C 711.038,173.471 709.705,173.138 708.5,171.5C 704.608,172.327 700.775,171.993 697,170.5C 683.81,170.627 670.31,170.627 656.5,170.5C 653.67,171.932 650.836,172.265 648,171.5C 642.51,172.799 637.51,174.466 633,176.5C 632.374,174.009 631.541,174.009 630.5,176.5C 628.836,175.777 627.169,176.11 625.5,177.5C 622.833,177.5 620.167,177.5 617.5,177.5C 616.481,176.313 615.314,175.313 614,174.5C 613.667,174.833 613.333,175.167 613,175.5C 607.725,170.736 605.392,164.736 606,157.5C 605.682,155.939 604.849,154.772 603.5,154C 605.709,153.043 605.543,151.876 603,150.5C 601.617,144.615 599.784,138.948 597.5,133.5 Z"/></g>
<g><path style="opacity:1" fill="#5d0041" d="M 225.5,53.5 C 225.83,55.9991 225.83,58.1658 225.5,60C 219.527,67.3109 213.527,74.6443 207.5,82C 207.833,82.3333 208.167,82.6667 208.5,83C 202.934,90.1183 197.601,97.4516 192.5,105C 192.833,105.333 193.167,105.667 193.5,106C 192.574,109.35 191.241,112.516 189.5,115.5C 191.133,117.387 190.8,118.887 188.5,120C 189,120.5 189.5,121 190,121.5C 191.566,122.061 192.899,121.394 194,119.5C 197.118,120.397 200.118,120.397 203,119.5C 204.667,120.167 206.333,120.833 208,121.5C 208.333,121.167 208.667,120.833 209,120.5C 210.713,121.878 212.047,123.545 213,125.5C 213.333,125.167 213.667,124.833 214,124.5C 216.635,126.461 218.469,128.961 219.5,132C 219.21,135.275 218.71,138.775 218,142.5C 217.054,144.788 215.887,146.955 214.5,149C 214.957,149.414 215.291,149.914 215.5,150.5C 214.833,150.833 214.167,151.167 213.5,151.5C 213.709,152.086 214.043,152.586 214.5,153C 211.686,155.07 209.186,157.57 207,160.5C 206.07,163.362 204.403,165.695 202,167.5C 201.517,168.448 201.351,169.448 201.5,170.5C 197.103,170.575 192.77,170.075 188.5,169C 181.084,166.236 173.917,163.736 167,161.5C 166.667,161.833 166.333,162.167 166,162.5C 163.26,161.718 160.426,161.218 157.5,161C 144.233,160.615 131.067,160.448 118,160.5C 111.693,161.146 105.526,162.479 99.5,164.5C 99.5792,163.07 99.2458,161.736 98.5,160.5C 103.149,147.274 108.982,134.94 116,123.5C 116.333,123.833 116.667,124.167 117,124.5C 118.439,122.725 119.439,120.725 120,118.5C 124.244,115.442 128.411,111.442 132.5,106.5C 139.064,102.386 144.564,97.7193 149,92.5C 149.333,92.8333 149.667,93.1667 150,93.5C 154.681,89.6494 159.181,85.6494 163.5,81.5C 164.086,81.7093 164.586,82.0426 165,82.5C 168.937,78.6226 173.77,76.4559 179.5,76C 186.94,71.4353 194.607,66.7687 202.5,62C 206.338,60.526 210.338,59.526 214.5,59C 214.167,58.6667 213.833,58.3333 213.5,58C 216.471,57.5291 219.138,56.3625 221.5,54.5C 223.297,55.9321 224.63,55.5988 225.5,53.5 Z"/></g>
<g><path style="opacity:0.749" fill="#28091e" d="M 128.5,92.5 C 123.11,98.8922 117.11,104.559 110.5,109.5C 115.89,103.108 121.89,97.4412 128.5,92.5 Z"/></g>
<g><path style="opacity:1" fill="#53321c" d="M 594.5,108.5 C 594.027,109.906 593.027,110.573 591.5,110.5C 591.973,109.094 592.973,108.427 594.5,108.5 Z"/></g>
<g><path style="opacity:1" fill="#542713" d="M 590.5,112.5 C 590.833,114.5 591.167,116.5 591.5,118.5C 589.539,116.68 589.206,114.68 590.5,112.5 Z"/></g>
<g><path style="opacity:1" fill="#522f17" d="M 596.5,128.5 C 598.345,129.995 598.678,131.662 597.5,133.5C 596.962,131.883 596.629,130.216 596.5,128.5 Z"/></g>
<g><path style="opacity:1" fill="#5d0040" d="M 536.5,178.5 C 541.5,172.5 546.5,166.5 551.5,160.5C 551.517,162.028 552.184,162.528 553.5,162C 552.72,160.927 552.887,159.76 554,158.5C 554.914,159.654 555.747,159.487 556.5,158C 555.167,157.333 555.167,156.667 556.5,156C 560.797,153.018 565.463,150.851 570.5,149.5C 573.5,150 576.5,150.5 579.5,151C 580.646,151.645 581.646,152.478 582.5,153.5C 583.086,153.291 583.586,152.957 584,152.5C 589.263,160.402 589.93,168.736 586,177.5C 582.135,183.896 578.802,190.563 576,197.5C 572.239,201.556 570.073,206.056 569.5,211C 568.116,213.529 566.449,215.862 564.5,218C 564.833,218.333 565.167,218.667 565.5,219C 563.699,219.317 563.366,219.984 564.5,221C 562.501,225.988 561.001,231.488 560,237.5C 558.431,238.938 556.931,240.438 555.5,242C 555.833,242.333 556.167,242.667 556.5,243C 554.479,243.401 553.145,244.568 552.5,246.5C 549.461,247.741 546.294,248.408 543,248.5C 538.682,247.143 534.182,246.309 529.5,246C 528.093,244.548 526.593,244.715 525,246.5C 523.97,243.417 521.97,242.75 519,244.5C 511.992,242.917 504.826,241.75 497.5,241C 496.747,239.513 495.914,239.346 495,240.5C 492.921,238.125 490.254,235.791 487,233.5C 484.403,228.607 484.069,223.607 486,218.5C 490.838,212.748 496.838,208.748 504,206.5C 509.627,207.464 514.794,206.131 519.5,202.5C 526.967,195.737 532.634,187.737 536.5,178.5 Z"/></g>
<g><path style="opacity:1" fill="#5d0041" d="M 247.5,181.5 C 251.485,188.131 255.485,194.798 259.5,201.5C 259.884,205.586 260.717,209.586 262,213.5C 264.061,219.669 266.894,225.502 270.5,231C 269.978,231.561 269.645,232.228 269.5,233C 271.391,235.717 272.057,238.551 271.5,241.5C 266.541,246.724 262.041,252.391 258,258.5C 251.141,264.818 245.308,271.151 240.5,277.5C 237.833,277.833 235.167,278.167 232.5,278.5C 232.069,274.663 231.402,270.997 230.5,267.5C 229.687,256.427 227.353,245.76 223.5,235.5C 224.478,235.189 225.145,234.522 225.5,233.5C 223.656,230.351 221.989,227.185 220.5,224C 221.167,223.667 221.833,223.333 222.5,223C 217.958,212.583 212.625,202.583 206.5,193C 206.833,192.667 207.167,192.333 207.5,192C 206.427,190.687 205.76,189.187 205.5,187.5C 205.962,184.936 205.962,182.27 205.5,179.5C 205.842,177.133 206.342,174.8 207,172.5C 207.508,170.096 208.675,169.429 210.5,170.5C 211.249,168.988 212.416,167.988 214,167.5C 217.503,170.262 220.837,173.262 224,176.5C 224.359,179.544 225.026,179.878 226,177.5C 226.419,178.672 227.085,179.672 228,180.5C 229.395,179.57 230.895,179.57 232.5,180.5C 236.155,179.938 239.655,178.938 243,177.5C 244.694,178.699 246.194,180.032 247.5,181.5 Z"/></g>
<g><path style="opacity:1" fill="#273d00" d="M 82.5,183.5 C 82.1984,186.059 82.5318,188.393 83.5,190.5C 83.44,191.043 83.1067,191.376 82.5,191.5C 81.1997,188.691 81.1997,186.024 82.5,183.5 Z"/></g>
<g><path style="opacity:1" fill="#4a003c" d="M 259.5,201.5 C 268.424,212.935 277.59,224.268 287,235.5C 286.42,242.685 284.086,249.352 280,255.5C 268.87,271.626 254.37,283.793 236.5,292C 233.436,293.366 230.436,293.866 227.5,293.5C 229.205,284.941 230.205,276.275 230.5,267.5C 231.402,270.997 232.069,274.663 232.5,278.5C 235.167,278.167 237.833,277.833 240.5,277.5C 245.308,271.151 251.141,264.818 258,258.5C 262.041,252.391 266.541,246.724 271.5,241.5C 272.057,238.551 271.391,235.717 269.5,233C 269.645,232.228 269.978,231.561 270.5,231C 266.894,225.502 264.061,219.669 262,213.5C 260.717,209.586 259.884,205.586 259.5,201.5 Z"/></g>

        
<g><path style="opacity:0.994" fill="#181c1b" d="M 567.5,264.5 C 567.427,266.027 568.094,267.027 569.5,267.5C 570.833,268.167 571.833,269.167 572.5,270.5C 572.427,272.027 573.094,273.027 574.5,273.5C 576.786,276.463 578.619,279.796 580,283.5C 581.333,288.167 582.667,292.833 584,297.5C 600.968,293.905 616.801,296.738 631.5,306C 657.957,323.456 680.123,345.29 698,371.5C 700.529,375.926 702.362,380.592 703.5,385.5C 703.41,388.152 704.076,390.485 705.5,392.5C 706.37,394.032 706.036,395.532 704.5,397C 701.814,398.368 699.147,399.701 696.5,401C 687.337,403.06 678.337,403.893 669.5,403.5C 671.81,407.254 673.643,411.254 675,415.5C 676.619,423.927 678.619,432.26 681,440.5C 682.454,454.02 679.787,466.687 673,478.5C 663.749,491.086 652.582,501.586 639.5,510C 630.893,513.302 622.893,517.635 615.5,523C 597.029,529.157 579.029,536.491 561.5,545C 545.683,550.606 529.683,555.606 513.5,560C 527.668,574.176 543.001,586.843 559.5,598C 576.758,613.656 588.591,632.823 595,655.5C 600.246,671.481 603.746,687.814 605.5,704.5C 615.856,702.179 626.356,700.846 637,700.5C 653.9,703.09 670.9,704.757 688,705.5C 707.617,704.722 725.784,699.222 742.5,689C 757.923,678.567 772.423,667.067 786,654.5C 787.653,654.82 788.653,655.82 789,657.5C 790.41,661.976 791.577,666.476 792.5,671C 792.058,695.003 785.891,717.503 774,738.5C 761.43,755.698 744.596,766.531 723.5,771C 714.162,773.335 704.828,775.668 695.5,778C 672.316,777.979 649.649,781.312 627.5,788C 631.324,793.922 636.657,797.922 643.5,800C 646.319,802.72 645.986,805.053 642.5,807C 635.644,812.007 627.978,814.507 619.5,814.5C 615.167,814.5 610.833,814.5 606.5,814.5C 606.263,815.791 606.596,816.791 607.5,817.5C 609.143,819.708 608.81,821.541 606.5,823C 599.093,824.492 591.593,825.325 584,825.5C 570.833,824.357 557.666,823.19 544.5,822C 528.753,817.882 515.253,810.049 504,798.5C 495.911,789.336 489.577,779.003 485,767.5C 473.056,772.575 460.556,774.908 447.5,774.5C 441.513,773.858 435.513,773.358 429.5,773C 427,772.625 424.667,771.792 422.5,770.5C 418.78,774.733 415.613,779.4 413,784.5C 396.732,800.487 377.065,808.487 354,808.5C 349.103,808.068 344.269,807.234 339.5,806C 337.709,805.585 336.376,804.585 335.5,803C 338.138,800.346 341.138,798.18 344.5,796.5C 345.973,795.928 347.307,795.095 348.5,794C 346.609,793.797 344.943,794.297 343.5,795.5C 334.515,796.911 325.515,796.744 316.5,795C 304.562,791.925 299.562,784.425 301.5,772.5C 312.272,769.781 321.939,764.947 330.5,758C 319.87,750.041 313.37,739.541 311,726.5C 307.602,710.123 307.769,693.789 311.5,677.5C 312.793,675.636 312.793,673.636 311.5,671.5C 310.893,671.624 310.56,671.957 310.5,672.5C 309.013,673.804 307.346,674.97 305.5,676C 298.059,677.01 291.059,675.843 284.5,672.5C 275.52,664.574 271.187,654.574 271.5,642.5C 272.908,618.525 282.242,598.358 299.5,582C 310.392,573.408 322.392,571.241 335.5,575.5C 336.947,576.885 337.947,576.552 338.5,574.5C 338.433,573.041 338.766,571.708 339.5,570.5C 340.757,569.377 340.424,568.711 338.5,568.5C 326.038,567.642 313.704,565.808 301.5,563C 279.858,557.675 258.525,551.341 237.5,544C 217.724,535.619 199.39,524.952 182.5,512C 179.629,509.297 176.962,506.464 174.5,503.5C 174.027,502.094 173.027,501.427 171.5,501.5C 155.808,488.291 146.475,471.458 143.5,451C 144.485,443.505 144.985,436.005 145,428.5C 139.772,431.396 134.272,432.062 128.5,430.5C 127.063,426.472 126.397,422.305 126.5,418C 128.512,388.142 139.012,361.642 158,338.5C 167.466,327.852 178.966,320.352 192.5,316C 198.537,315.303 204.537,315.47 210.5,316.5C 212.5,305.171 217.167,295.171 224.5,286.5C 225.906,286.027 226.573,285.027 226.5,283.5C 228.616,277.549 231.783,272.215 236,267.5C 246.355,255.578 258.188,245.412 271.5,237C 347.364,211.021 424.364,207.021 502.5,225C 512.956,228.227 522.956,232.56 532.5,238C 541.167,244.671 550.501,250.338 560.5,255C 562.476,258.463 564.81,261.63 567.5,264.5 Z"/></g>
<g><path style="opacity:1" fill="#29bf9b" d="M 587.5,310.5 C 586.895,306.028 588.561,303.028 592.5,301.5C 599.257,301.123 605.924,301.623 612.5,303C 623.41,307.12 633.41,312.787 642.5,320C 660.452,334.449 676.119,350.949 689.5,369.5C 691.14,388.025 682.807,395.525 664.5,392C 658.088,389.643 651.755,387.31 645.5,385C 648,386.833 650.5,388.667 653,390.5C 653.6,392.91 654.766,394.91 656.5,396.5C 658.725,400.235 661.558,403.568 665,406.5C 667.332,409.822 668.498,413.489 668.5,417.5C 666.958,428.041 664.458,438.374 661,448.5C 657,455.833 653,463.167 649,470.5C 636.03,485.726 620.863,498.226 603.5,508C 592.041,514.045 580.375,519.711 568.5,525C 543.32,532.284 518.32,539.95 493.5,548C 482.687,549.259 472.02,551.259 461.5,554C 447.882,555.731 434.215,556.898 420.5,557.5C 403.181,557.048 385.847,556.882 368.5,557C 353.791,555.323 339.125,553.323 324.5,551C 295.042,542.775 266.042,533.108 237.5,522C 214.876,512.026 194.21,499.026 175.5,483C 165.633,473.492 157.8,462.659 152,450.5C 151.501,445.845 151.334,441.179 151.5,436.5C 154.006,428.629 155.006,420.629 154.5,412.5C 153.817,412.863 153.15,413.196 152.5,413.5C 148.453,418.44 143.286,421.44 137,422.5C 134.013,422.01 132.18,420.343 131.5,417.5C 133.163,407.851 134.663,398.185 136,388.5C 140.728,378.044 145.728,367.711 151,357.5C 159.991,342.175 172.491,330.675 188.5,323C 197.005,320.179 205.672,319.679 214.5,321.5C 215.279,315.66 216.779,309.993 219,304.5C 225.667,293.833 232.333,283.167 239,272.5C 250.023,259.799 262.523,248.966 276.5,240C 327.954,223.758 380.621,217.091 434.5,220C 436.285,221.163 438.285,221.83 440.5,222C 464.689,222.932 488.356,226.932 511.5,234C 526.492,241.827 541.158,250.161 555.5,259C 568.676,270.184 576.51,284.351 579,301.5C 581.005,308.828 584.672,315.162 590,320.5C 589.506,317.164 588.672,313.831 587.5,310.5 Z"/></g>
<g><path style="opacity:0.725" fill="#7f7d7b" d="M 567.5,264.5 C 568.906,264.973 569.573,265.973 569.5,267.5C 568.094,267.027 567.427,266.027 567.5,264.5 Z"/></g>
<g><path style="opacity:0.545" fill="#807d7b" d="M 572.5,270.5 C 573.906,270.973 574.573,271.973 574.5,273.5C 573.094,273.027 572.427,272.027 572.5,270.5 Z"/></g>
<g><path style="opacity:0.486" fill="#817f7c" d="M 226.5,283.5 C 226.573,285.027 225.906,286.027 224.5,286.5C 224.427,284.973 225.094,283.973 226.5,283.5 Z"/></g>
<g><path style="opacity:1" fill="#258d7d" d="M 592.5,301.5 C 588.561,303.028 586.895,306.028 587.5,310.5C 585.98,308.11 584.98,305.443 584.5,302.5C 587.127,301.908 589.794,301.575 592.5,301.5 Z"/></g>
<g><path style="opacity:1" fill="#0a0e0c" d="M 618.5,337.5 C 624.632,343.789 631.299,349.623 638.5,355C 649.79,362.609 661.79,368.943 674.5,374C 677.242,375.886 678.909,378.386 679.5,381.5C 673.457,380.485 667.79,378.318 662.5,375C 649.168,367.333 636.668,358.499 625,348.5C 623,345.833 621,343.167 619,340.5C 618.517,339.552 618.351,338.552 618.5,337.5 Z"/></g>
<g><path style="opacity:1" fill="#239180" d="M 689.5,369.5 C 695.393,376.932 698.726,385.265 699.5,394.5C 693.023,397.562 686.19,398.895 679,398.5C 675.833,398.333 672.667,398.167 669.5,398C 665.09,396.449 660.757,394.949 656.5,393.5C 656.5,394.5 656.5,395.5 656.5,396.5C 654.766,394.91 653.6,392.91 653,390.5C 650.5,388.667 648,386.833 645.5,385C 651.755,387.31 658.088,389.643 664.5,392C 682.807,395.525 691.14,388.025 689.5,369.5 Z"/></g>
<g><path style="opacity:1" fill="#080d0c" d="M 147.5,382.5 C 148.993,383.312 149.66,384.645 149.5,386.5C 148.225,393.816 147.058,401.15 146,408.5C 144.374,411.128 142.374,413.461 140,415.5C 141.213,404.227 143.713,393.227 147.5,382.5 Z"/></g>
<g><path style="opacity:0.686" fill="#676562" d="M 703.5,385.5 C 704.924,387.515 705.59,389.848 705.5,392.5C 704.076,390.485 703.41,388.152 703.5,385.5 Z"/></g>
<g><path style="opacity:1" fill="#248f7f" d="M 152.5,413.5 C 149.619,421.965 143.619,426.631 134.5,427.5C 133.201,426.91 132.368,425.91 132,424.5C 131.503,422.19 131.337,419.857 131.5,417.5C 132.18,420.343 134.013,422.01 137,422.5C 143.286,421.44 148.453,418.44 152.5,413.5 Z"/></g>
<g><path style="opacity:1" fill="#229080" d="M 668.5,417.5 C 669.586,417.62 670.253,418.287 670.5,419.5C 672.505,428.85 674.505,438.183 676.5,447.5C 675.399,460.687 670.732,472.354 662.5,482.5C 657.167,487.167 652.167,492.167 647.5,497.5C 636.091,503.71 624.757,510.21 613.5,517C 594.28,523.296 575.614,530.963 557.5,540C 535.062,547.646 512.395,554.312 489.5,560C 464.818,564.023 439.984,566.523 415,567.5C 386.539,565.485 358.039,563.985 329.5,563C 288.931,556.527 250.265,544.193 213.5,526C 189.832,512.998 170.665,495.165 156,472.5C 149.589,460.938 148.089,448.938 151.5,436.5C 151.334,441.179 151.501,445.845 152,450.5C 157.8,462.659 165.633,473.492 175.5,483C 194.21,499.026 214.876,512.026 237.5,522C 266.042,533.108 295.042,542.775 324.5,551C 339.125,553.323 353.791,555.323 368.5,557C 385.847,556.882 403.181,557.048 420.5,557.5C 434.215,556.898 447.882,555.731 461.5,554C 472.02,551.259 482.687,549.259 493.5,548C 518.32,539.95 543.32,532.284 568.5,525C 580.375,519.711 592.041,514.045 603.5,508C 620.863,498.226 636.03,485.726 649,470.5C 653,463.167 657,455.833 661,448.5C 664.458,438.374 666.958,428.041 668.5,417.5 Z"/></g>
<g><path style="opacity:1" fill="#0d3631" d="M 662.5,482.5 C 658.5,488.5 653.5,493.5 647.5,497.5C 652.167,492.167 657.167,487.167 662.5,482.5 Z"/></g>
<g><path style="opacity:0.718" fill="#827f7d" d="M 171.5,501.5 C 173.027,501.427 174.027,502.094 174.5,503.5C 172.973,503.573 171.973,502.906 171.5,501.5 Z"/></g>
<g><path style="opacity:1" fill="#229080" d="M 478.5,672.5 C 485.91,678.441 494.243,679.941 503.5,677C 506.732,675.77 509.399,673.77 511.5,671C 512.5,670.333 513.5,670.333 514.5,671C 512.476,676.438 510.142,681.772 507.5,687C 510.833,689 514.167,689 517.5,687C 531.421,676.687 539.921,662.853 543,645.5C 544.038,633.747 540.205,623.913 531.5,616C 520.808,606.822 508.475,601.155 494.5,599C 490.5,598.333 486.5,598.333 482.5,599C 479.515,601.777 478.182,605.277 478.5,609.5C 479.213,614.311 480.547,618.978 482.5,623.5C 479.407,625.309 476.074,626.309 472.5,626.5C 472.923,625.735 473.257,624.902 473.5,624C 472.021,618.752 471.021,613.419 470.5,608C 470.59,604.806 471.59,601.973 473.5,599.5C 473.167,598.5 472.5,597.833 471.5,597.5C 469.364,598.472 468.197,600.139 468,602.5C 467.081,608.966 467.581,615.299 469.5,621.5C 458.98,625.321 450.48,631.654 444,640.5C 430.726,618.269 417.226,596.269 403.5,574.5C 414.63,572.841 425.963,571.841 437.5,571.5C 461.059,569.586 484.392,566.42 507.5,562C 519.747,573.585 532.58,584.418 546,594.5C 546.333,596.047 545.833,597.38 544.5,598.5C 548.847,601.371 552.014,605.371 554,610.5C 566.153,641.08 559.987,667.247 535.5,689C 525.224,698.136 513.224,702.136 499.5,701C 492.521,698.359 487.021,693.859 483,687.5C 480.383,682.817 478.883,677.817 478.5,672.5 Z"/></g>
<g><path style="opacity:0.118" fill="#c8c4c1" d="M 338.5,568.5 C 340.424,568.711 340.757,569.377 339.5,570.5C 339.167,569.833 338.833,569.167 338.5,568.5 Z"/></g>
<g><path style="opacity:1" fill="#29bf9b" d="M 341.5,624.5 C 340.876,624.917 340.543,625.584 340.5,626.5C 342.307,636.262 343.64,646.096 344.5,656C 344.554,658.873 343.888,661.54 342.5,664C 336.839,663.182 331.506,661.182 326.5,658C 319.953,652.954 314.286,647.12 309.5,640.5C 307.682,644.136 305.849,647.802 304,651.5C 296.56,654.165 290.893,651.832 287,644.5C 283.449,623.824 288.782,605.824 303,590.5C 307.998,584.965 313.498,580.298 319.5,576.5C 326.113,576.151 332.113,577.818 337.5,581.5C 337.712,583.384 338.712,584.717 340.5,585.5C 341.487,582.232 341.82,578.898 341.5,575.5C 342.216,573.444 342.883,571.277 343.5,569C 347.568,568.7 351.568,569.2 355.5,570.5C 348.593,587.894 343.926,605.894 341.5,624.5 Z"/></g>
<g><path style="opacity:1" fill="#7db8aa" d="M 360.5,674.5 C 365.636,683.259 371.636,691.426 378.5,699C 384.877,703.189 391.544,706.855 398.5,710C 417.349,716.655 424.849,710.155 421,690.5C 413.133,671.662 409.299,651.996 409.5,631.5C 398.974,626.785 387.974,624.118 376.5,623.5C 367.747,622.705 360.081,625.039 353.5,630.5C 351.127,627.469 348.794,624.469 346.5,621.5C 349.487,606.708 352.987,592.041 357,577.5C 357.93,575.064 359.097,572.731 360.5,570.5C 364.795,569.339 369.129,569.172 373.5,570C 381.953,570.635 390.287,571.801 398.5,573.5C 412.833,597.5 427.167,621.5 441.5,645.5C 436.166,659.522 436.333,673.522 442,687.5C 449.259,695.897 458.426,699.063 469.5,697C 472.798,696.513 475.798,695.347 478.5,693.5C 480.786,693.96 482.119,695.293 482.5,697.5C 479.29,719.151 479.957,740.651 484.5,762C 484.167,762.5 483.833,763 483.5,763.5C 454.121,772.925 425.787,770.425 398.5,756C 385.188,748.027 373.021,738.527 362,727.5C 358.333,721.833 354.667,716.167 351,710.5C 348.591,702.618 346.757,694.618 345.5,686.5C 351.447,683.692 356.447,679.692 360.5,674.5 Z"/></g>
<g><path style="opacity:1" fill="#0d3530" d="M 437.5,571.5 C 425.963,571.841 414.63,572.841 403.5,574.5C 402.596,573.791 402.263,572.791 402.5,571.5C 414.167,571.5 425.833,571.5 437.5,571.5 Z"/></g>
<g><path style="opacity:0.553" fill="#918f8c" d="M 338.5,574.5 C 337.947,576.552 336.947,576.885 335.5,575.5C 336.609,575.443 337.609,575.11 338.5,574.5 Z"/></g>
<g><path style="opacity:1" fill="#216b59" d="M 341.5,575.5 C 341.82,578.898 341.487,582.232 340.5,585.5C 338.712,584.717 337.712,583.384 337.5,581.5C 338.458,581.953 339.292,582.619 340,583.5C 340.183,580.635 340.683,577.969 341.5,575.5 Z"/></g>
<g><path style="opacity:1" fill="#229080" d="M 319.5,576.5 C 313.498,580.298 307.998,584.965 303,590.5C 288.782,605.824 283.449,623.824 287,644.5C 290.893,651.832 296.56,654.165 304,651.5C 305.849,647.802 307.682,644.136 309.5,640.5C 314.286,647.12 319.953,652.954 326.5,658C 331.506,661.182 336.839,663.182 342.5,664C 343.888,661.54 344.554,658.873 344.5,656C 343.64,646.096 342.307,636.262 340.5,626.5C 340.543,625.584 340.876,624.917 341.5,624.5C 343.341,627.86 345.841,630.86 349,633.5C 356.123,645.314 358.79,657.981 357,671.5C 347.754,683.243 336.587,685.409 323.5,678C 320.61,676.062 317.944,673.895 315.5,671.5C 315.325,667.14 315.325,662.806 315.5,658.5C 312.383,663.451 308.383,667.618 303.5,671C 299.152,671.238 294.819,670.905 290.5,670C 278.528,660.766 274.028,648.599 277,633.5C 280.837,610.292 292.337,592.125 311.5,579C 313.909,577.293 316.575,576.46 319.5,576.5 Z"/></g>
<g><path style="opacity:1" fill="#29bf9b" d="M 478.5,672.5 C 478.817,669.428 478.484,666.428 477.5,663.5C 476.056,665.608 475.39,667.941 475.5,670.5C 473.625,679.348 467.958,684.015 458.5,684.5C 453.558,684.071 449.725,681.738 447,677.5C 444.588,674.01 442.755,670.343 441.5,666.5C 441.688,651.961 447.354,640.127 458.5,631C 463.181,629.138 467.848,627.638 472.5,626.5C 476.074,626.309 479.407,625.309 482.5,623.5C 480.547,618.978 479.213,614.311 478.5,609.5C 478.182,605.277 479.515,601.777 482.5,599C 486.5,598.333 490.5,598.333 494.5,599C 508.475,601.155 520.808,606.822 531.5,616C 540.205,623.913 544.038,633.747 543,645.5C 539.921,662.853 531.421,676.687 517.5,687C 514.167,689 510.833,689 507.5,687C 510.142,681.772 512.476,676.438 514.5,671C 513.5,670.333 512.5,670.333 511.5,671C 509.399,673.77 506.732,675.77 503.5,677C 494.243,679.941 485.91,678.441 478.5,672.5 Z"/></g>
<g><path style="opacity:1" fill="#29bf9b" d="M 598.5,692.5 C 599.49,721.091 590.49,745.924 571.5,767C 560.734,776.049 548.4,781.882 534.5,784.5C 518.075,781.578 507.908,771.912 504,755.5C 503.528,748.944 502.695,742.444 501.5,736C 501.833,734.167 502.167,732.333 502.5,730.5C 514.579,739.962 527.245,740.796 540.5,733C 553.445,722.257 561.612,708.757 565,692.5C 565.483,680.641 566.316,668.808 567.5,657C 567.12,651.981 566.454,647.148 565.5,642.5C 565.039,628.701 561.705,615.701 555.5,603.5C 556.002,602.479 556.668,602.312 557.5,603C 568.9,613.932 577.733,626.765 584,641.5C 590.378,658.125 595.211,675.125 598.5,692.5 Z"/></g>
<g><path style="opacity:1" fill="#97d9cf" d="M 360.5,674.5 C 363.081,665.176 362.914,655.842 360,646.5C 358.097,641.032 355.93,635.699 353.5,630.5C 360.081,625.039 367.747,622.705 376.5,623.5C 387.974,624.118 398.974,626.785 409.5,631.5C 409.299,651.996 413.133,671.662 421,690.5C 424.849,710.155 417.349,716.655 398.5,710C 391.544,706.855 384.877,703.189 378.5,699C 371.636,691.426 365.636,683.259 360.5,674.5 Z"/></g>
<g><path style="opacity:1" fill="#229080" d="M 565.5,642.5 C 566.454,647.148 567.12,651.981 567.5,657C 566.316,668.808 565.483,680.641 565,692.5C 561.612,708.757 553.445,722.257 540.5,733C 527.245,740.796 514.579,739.962 502.5,730.5C 502.167,732.333 501.833,734.167 501.5,736C 502.695,742.444 503.528,748.944 504,755.5C 507.908,771.912 518.075,781.578 534.5,784.5C 548.4,781.882 560.734,776.049 571.5,767C 590.49,745.924 599.49,721.091 598.5,692.5C 603.674,717.432 599.507,740.766 586,762.5C 585.175,764.701 585.675,766.534 587.5,768C 598.616,767.367 607.783,771.2 615,779.5C 618.98,786.624 623.814,793.124 629.5,799C 632.371,800.935 635.371,802.601 638.5,804C 627.231,809.772 615.231,812.105 602.5,811C 601.427,814.112 601.427,817.279 602.5,820.5C 584.783,820.736 567.116,819.903 549.5,818C 516.667,809.167 495.833,788.333 487,755.5C 483.667,736.833 483.667,718.167 487,699.5C 491.793,704.268 497.627,706.601 504.5,706.5C 533.083,702.106 551.916,686.106 561,658.5C 562.256,653.552 563.256,648.552 564,643.5C 564.383,642.944 564.883,642.611 565.5,642.5 Z"/></g>
<g><path style="opacity:1" fill="#29bf9b" d="M 787.5,679.5 C 783.589,688.656 779.089,697.656 774,706.5C 764.941,718.565 754.774,729.731 743.5,740C 709.488,759.269 673.155,766.602 634.5,762C 624.967,759.273 620.301,752.939 620.5,743C 620.476,736.45 621.976,730.283 625,724.5C 625.667,719.5 625.667,714.5 625,709.5C 624.308,708.975 623.808,708.308 623.5,707.5C 624.949,706.828 626.282,706.161 627.5,705.5C 639.063,704.809 650.396,705.976 661.5,709C 692.448,714.426 721.115,708.759 747.5,692C 760.32,681.85 773.153,671.683 786,661.5C 786.945,661.905 787.612,662.572 788,663.5C 788.529,668.854 788.362,674.187 787.5,679.5 Z"/></g>
<g><path style="opacity:0.18" fill="#a19e9b" d="M 310.5,672.5 C 310.56,671.957 310.893,671.624 311.5,671.5C 312.793,673.636 312.793,675.636 311.5,677.5C 311.784,675.585 311.451,673.919 310.5,672.5 Z"/></g>
<g><path style="opacity:1" fill="#228f7f" d="M 441.5,666.5 C 442.755,670.343 444.588,674.01 447,677.5C 449.725,681.738 453.558,684.071 458.5,684.5C 467.958,684.015 473.625,679.348 475.5,670.5C 475.435,676.617 475.935,682.617 477,688.5C 475.681,690.487 473.848,691.654 471.5,692C 450.998,695.91 440.998,687.41 441.5,666.5 Z"/></g>
<g><path style="opacity:1" fill="#228f80" d="M 352.5,720.5 C 351.542,720.047 350.708,719.381 350,718.5C 349,720.5 348,722.5 347,724.5C 338.32,720.657 330.654,715.324 324,708.5C 322.417,720.502 325.084,731.502 332,741.5C 338.772,748.117 345.939,754.117 353.5,759.5C 344.842,759.336 337.175,756.503 330.5,751C 327.333,747.167 324.167,743.333 321,739.5C 312.829,719.59 311.496,699.257 317,678.5C 323.898,685.032 332.065,687.698 341.5,686.5C 342.041,694.666 343.541,702.666 346,710.5C 348.143,713.962 350.31,717.296 352.5,720.5 Z"/></g>
<g><path style="opacity:1" fill="#239080" d="M 787.5,679.5 C 785.332,704.316 776.665,726.483 761.5,746C 754.373,751.787 746.707,756.787 738.5,761C 722.074,766.273 705.407,770.606 688.5,774C 667.112,774.009 646.112,776.843 625.5,782.5C 624.5,782.333 623.5,782.167 622.5,782C 615.399,770.59 605.065,764.59 591.5,764C 601.553,746.955 606.22,728.455 605.5,708.5C 612.937,708.149 620.27,707.149 627.5,705.5C 626.282,706.161 624.949,706.828 623.5,707.5C 623.808,708.308 624.308,708.975 625,709.5C 625.667,714.5 625.667,719.5 625,724.5C 621.976,730.283 620.476,736.45 620.5,743C 620.301,752.939 624.967,759.273 634.5,762C 673.155,766.602 709.488,759.269 743.5,740C 754.774,729.731 764.941,718.565 774,706.5C 779.089,697.656 783.589,688.656 787.5,679.5 Z"/></g>
<g><path style="opacity:1" fill="#29bf9b" d="M 352.5,720.5 C 354.344,724.192 356.677,727.525 359.5,730.5C 361.833,734.833 365.167,738.167 369.5,740.5C 372.027,742.605 374.36,744.939 376.5,747.5C 379.123,754.311 382.457,760.811 386.5,767C 376.625,767.76 367.292,765.927 358.5,761.5C 356.95,760.559 355.284,759.893 353.5,759.5C 345.939,754.117 338.772,748.117 332,741.5C 325.084,731.502 322.417,720.502 324,708.5C 330.654,715.324 338.32,720.657 347,724.5C 348,722.5 349,720.5 350,718.5C 350.708,719.381 351.542,720.047 352.5,720.5 Z"/></g>
<g><path style="opacity:1" fill="#165545" d="M 359.5,730.5 C 363.167,733.5 366.5,736.833 369.5,740.5C 365.167,738.167 361.833,734.833 359.5,730.5 Z"/></g>
<g><path style="opacity:1" fill="#229080" d="M 376.5,747.5 C 382.599,751.083 388.599,754.917 394.5,759C 400.94,762.554 407.607,765.554 414.5,768C 415.554,769.388 415.72,770.888 415,772.5C 404.324,788.934 389.157,798.434 369.5,801C 361.218,803.53 352.885,803.864 344.5,802C 352.628,796.206 359.795,789.373 366,781.5C 366.612,779.763 365.946,778.763 364,778.5C 361.373,779.634 359.207,781.3 357.5,783.5C 358.547,780.404 359.88,777.404 361.5,774.5C 351.183,771.672 341.017,768.339 331,764.5C 329.862,764.989 328.695,765.322 327.5,765.5C 330.385,763.969 333.052,761.969 335.5,759.5C 342.062,762.14 348.729,764.474 355.5,766.5C 356.442,766.392 357.275,766.059 358,765.5C 357.645,764.041 357.811,762.707 358.5,761.5C 367.292,765.927 376.625,767.76 386.5,767C 382.457,760.811 379.123,754.311 376.5,747.5 Z"/></g>
<g><path style="opacity:1" fill="#29be9a" d="M 357.5,783.5 C 343.133,791.218 328.133,792.552 312.5,787.5C 311.089,785.086 309.089,783.419 306.5,782.5C 305.532,780.393 305.198,778.059 305.5,775.5C 313.871,774.312 321.205,770.979 327.5,765.5C 328.695,765.322 329.862,764.989 331,764.5C 341.017,768.339 351.183,771.672 361.5,774.5C 359.88,777.404 358.547,780.404 357.5,783.5 Z"/></g>
<g><path style="opacity:1" fill="#28be9b" d="M 577.5,780.5 C 592.442,778.021 604.942,782.354 615,793.5C 615.688,794.332 615.521,794.998 614.5,795.5C 607.333,800.626 599.333,802.959 590.5,802.5C 590.692,805.601 591.358,808.601 592.5,811.5C 587.462,812.33 582.795,811.164 578.5,808C 572.243,803.287 566.076,798.454 560,793.5C 558.148,790.653 558.648,788.153 561.5,786C 566.844,783.841 572.177,782.008 577.5,780.5 Z"/></g>
<g><path style="opacity:1" fill="#1d6553" d="M 306.5,782.5 C 309.089,783.419 311.089,785.086 312.5,787.5C 309.911,786.581 307.911,784.914 306.5,782.5 Z"/></g>
<g><path style="opacity:0.165" fill="#b0aca9" d="M 344.5,796.5 C 344.5,795.833 344.167,795.5 343.5,795.5C 344.943,794.297 346.609,793.797 348.5,794C 347.307,795.095 345.973,795.928 344.5,796.5 Z"/></g>
<g><path style="opacity:0.282" fill="#afaba8" d="M 619.5,814.5 C 615.232,814.869 611.232,815.869 607.5,817.5C 606.596,816.791 606.263,815.791 606.5,814.5C 610.833,814.5 615.167,814.5 619.5,814.5 Z"/></g>

        
<g><path style="opacity:0.992" fill="#181417" d="M 560.5,379.5 C 564.387,375.727 566.72,371.06 567.5,365.5C 569.686,364.177 571.186,362.177 572,359.5C 578.954,340.152 574.454,323.985 558.5,311C 545.232,303.032 531.232,296.699 516.5,292C 506.207,290.529 495.873,290.196 485.5,291C 479.383,293.373 473.05,294.706 466.5,295C 461.341,297.412 456.341,300.079 451.5,303C 444.575,308.38 437.742,313.88 431,319.5C 423.646,329.539 417.313,340.205 412,351.5C 411.012,369.022 416.845,383.856 429.5,396C 434.651,398.996 439.651,402.162 444.5,405.5C 446.713,407.86 449.379,409.694 452.5,411C 459.011,412.032 465.344,411.532 471.5,409.5C 472.107,409.624 472.44,409.957 472.5,410.5C 469.227,413.144 465.56,415.311 461.5,417C 456.665,417.586 451.999,416.92 447.5,415C 440.357,408.927 432.69,403.594 424.5,399C 421.121,394.41 417.621,389.91 414,385.5C 412.441,383.783 411.608,381.783 411.5,379.5C 411.291,378.078 410.791,376.745 410,375.5C 409.505,377.473 409.338,379.473 409.5,381.5C 406.726,398.056 397.392,403.556 381.5,398C 377.252,395.757 373.586,392.757 370.5,389C 368.246,387.349 365.912,387.182 363.5,388.5C 358.442,397.689 350.775,400.856 340.5,398C 336.532,397.036 333.365,394.869 331,391.5C 328.383,383.698 326.716,375.698 326,367.5C 325.461,370.529 324.794,373.529 324,376.5C 317.405,391.893 308.238,405.393 296.5,417C 294.598,418.796 292.598,418.963 290.5,417.5C 293.117,412.886 296.117,408.553 299.5,404.5C 300.189,405.774 301.023,405.774 302,404.5C 307.333,395.833 312.667,387.167 318,378.5C 321.248,370.808 322.248,362.808 321,354.5C 313.81,339.274 303.643,326.441 290.5,316C 283.789,313.765 277.456,310.765 271.5,307C 246.755,303.29 227.921,312.123 215,333.5C 207.453,345.776 204.286,359.11 205.5,373.5C 205.294,376.495 205.96,379.162 207.5,381.5C 207.878,383.921 208.545,386.254 209.5,388.5C 208.116,389.801 206.616,389.801 205,388.5C 196.903,365.733 199.903,344.399 214,324.5C 214.811,302.71 223.644,285.21 240.5,272C 247.094,267.201 254.428,264.368 262.5,263.5C 267.334,263.944 272.001,265.11 276.5,267C 305.719,288.241 323.719,316.741 330.5,352.5C 330.821,354.048 331.821,354.715 333.5,354.5C 344.853,360.061 356.853,363.394 369.5,364.5C 379.284,361.745 389.284,360.245 399.5,360C 396.14,347.665 395.64,335.165 398,322.5C 400.262,313.712 402.929,305.046 406,296.5C 409.946,290.221 414.279,284.221 419,278.5C 434.232,264.13 452.065,254.297 472.5,249C 492.538,243.576 511.538,245.909 529.5,256C 538.534,261.893 545.367,269.726 550,279.5C 554.515,287.881 558.348,296.548 561.5,305.5C 584.461,325.683 587.628,348.683 571,374.5C 569.5,376 568,377.5 566.5,379C 564.527,379.495 562.527,379.662 560.5,379.5 Z"/></g>
<g><path style="opacity:1" fill="#6e1b68" d="M 529.5,262.5 C 532.167,265.833 535.167,268.833 538.5,271.5C 544.711,280.92 549.544,290.92 553,301.5C 524.317,282.89 493.817,279.39 461.5,291C 454.299,294.098 447.965,298.431 442.5,304C 436.129,307.365 430.629,311.865 426,317.5C 418.399,328.107 412.065,339.441 407,351.5C 406.457,356.243 406.457,360.91 407,365.5C 404.135,360.234 402.469,354.567 402,348.5C 400.813,331.241 403.479,314.574 410,298.5C 423.165,279.316 440.665,265.483 462.5,257C 485.869,247.939 508.203,249.772 529.5,262.5 Z"/></g>
<g><path style="opacity:1" fill="#341231" d="M 529.5,262.5 C 533.5,264.5 536.5,267.5 538.5,271.5C 535.167,268.833 532.167,265.833 529.5,262.5 Z"/></g>
<g><path style="opacity:1" fill="#6e1b68" d="M 254.5,269.5 C 261.221,268.751 267.554,269.918 273.5,273C 298.388,291.387 314.721,315.554 322.5,345.5C 321.5,345.5 320.5,345.5 319.5,345.5C 319.116,341.396 317.616,337.729 315,334.5C 309.501,328.025 304.001,321.525 298.5,315C 289.756,309.294 280.422,304.628 270.5,301C 255.52,298.908 241.52,301.908 228.5,310C 225.667,312.833 222.833,315.667 220,318.5C 219.333,316.167 219.333,313.833 220,311.5C 224.55,299.238 231.05,288.072 239.5,278C 245.21,276.153 250.21,273.319 254.5,269.5 Z"/></g>
<g><path style="opacity:1" fill="#f5f3e7" d="M 567.5,365.5 C 563.649,360.486 558.983,356.319 553.5,353C 543.606,346.886 533.272,341.552 522.5,337C 465.992,324.661 439.992,347.494 444.5,405.5C 439.651,402.162 434.651,398.996 429.5,396C 416.845,383.856 411.012,369.022 412,351.5C 417.313,340.205 423.646,329.539 431,319.5C 437.742,313.88 444.575,308.38 451.5,303C 456.341,300.079 461.341,297.412 466.5,295C 473.05,294.706 479.383,293.373 485.5,291C 495.873,290.196 506.207,290.529 516.5,292C 531.232,296.699 545.232,303.032 558.5,311C 574.454,323.985 578.954,340.152 572,359.5C 571.186,362.177 569.686,364.177 567.5,365.5 Z"/></g>
<g><path style="opacity:1" fill="#f4f3e6" d="M 299.5,404.5 C 302.394,391.294 300.228,378.96 293,367.5C 289.193,362.059 285.027,356.892 280.5,352C 271.732,343.889 261.398,340.889 249.5,343C 229.362,346.966 215.362,358.466 207.5,377.5C 206.833,376.167 206.167,374.833 205.5,373.5C 204.286,359.11 207.453,345.776 215,333.5C 227.921,312.123 246.755,303.29 271.5,307C 277.456,310.765 283.789,313.765 290.5,316C 303.643,326.441 313.81,339.274 321,354.5C 322.248,362.808 321.248,370.808 318,378.5C 312.667,387.167 307.333,395.833 302,404.5C 301.023,405.774 300.189,405.774 299.5,404.5 Z"/></g>
<g><path style="opacity:1" fill="#6f1c69" d="M 567.5,365.5 C 566.72,371.06 564.387,375.727 560.5,379.5C 555.42,379.25 550.42,379.75 545.5,381C 531.312,384.729 517.312,389.063 503.5,394C 492.51,398.492 482.176,403.992 472.5,410.5C 472.44,409.957 472.107,409.624 471.5,409.5C 465.344,411.532 459.011,412.032 452.5,411C 449.379,409.694 446.713,407.86 444.5,405.5C 439.992,347.494 465.992,324.661 522.5,337C 533.272,341.552 543.606,346.886 553.5,353C 558.983,356.319 563.649,360.486 567.5,365.5 Z"/></g>
<g><path style="opacity:1" fill="#6f1c69" d="M 299.5,404.5 C 296.117,408.553 293.117,412.886 290.5,417.5C 280.354,412.929 271.02,407.096 262.5,400C 246.099,390.353 228.432,386.52 209.5,388.5C 208.545,386.254 207.878,383.921 207.5,381.5C 207.5,380.167 207.5,378.833 207.5,377.5C 215.362,358.466 229.362,346.966 249.5,343C 261.398,340.889 271.732,343.889 280.5,352C 285.027,356.892 289.193,362.059 293,367.5C 300.228,378.96 302.394,391.294 299.5,404.5 Z"/></g>
<g><path style="opacity:0.573" fill="#83827b" d="M 330.5,352.5 C 331.71,352.932 332.71,353.599 333.5,354.5C 331.821,354.715 330.821,354.048 330.5,352.5 Z"/></g>
<g><path style="opacity:1" fill="#6e1b68" d="M 329.5,358.5 C 340.896,364.687 353.062,368.354 366,369.5C 374.961,368.124 383.961,367.124 393,366.5C 398.609,365.552 402.442,367.552 404.5,372.5C 406.973,380.27 405.306,386.937 399.5,392.5C 393.208,396.306 386.875,396.14 380.5,392C 377.007,386.991 372.34,383.824 366.5,382.5C 363.972,382.763 361.639,383.596 359.5,385C 357.481,388.014 355.148,390.68 352.5,393C 344.85,395.304 339.017,393.138 335,386.5C 333.419,377.08 331.586,367.746 329.5,358.5 Z"/></g>
<g><path style="opacity:1" fill="#9e8095" d="M 205.5,373.5 C 206.167,374.833 206.833,376.167 207.5,377.5C 207.5,378.833 207.5,380.167 207.5,381.5C 205.96,379.162 205.294,376.495 205.5,373.5 Z"/></g>
<g><path style="opacity:0.008" fill="#92928a" d="M 411.5,379.5 C 410.833,380.167 410.167,380.833 409.5,381.5C 409.338,379.473 409.505,377.473 410,375.5C 410.791,376.745 411.291,378.078 411.5,379.5 Z"/></g>
<g><path style="opacity:0.005" fill="#000000" d="M 226.5,392.5 C 227.386,391.224 228.386,391.224 229.5,392.5C 228.575,393.562 227.575,393.562 226.5,392.5 Z"/></g>
<g><path style="opacity:0.004" fill="#000000" d="M 212.5,393.5 C 212.897,392.475 213.563,392.308 214.5,393C 213.906,393.464 213.239,393.631 212.5,393.5 Z"/></g>

        
<g><path style="opacity:0.983" fill="#212120" d="M 592.5,349.5 C 591.89,348.609 591.557,347.609 591.5,346.5C 599.093,346.538 605.593,349.538 611,355.5C 613.002,360.007 614.502,364.674 615.5,369.5C 615.02,373.293 613.353,376.46 610.5,379C 604.352,382.078 598.019,384.578 591.5,386.5C 585.054,385.936 578.72,384.77 572.5,383C 564.833,382.333 557.167,382.333 549.5,383C 541.284,384.787 533.618,387.62 526.5,391.5C 526.631,390.624 526.298,389.957 525.5,389.5C 524.261,389.942 523.261,390.609 522.5,391.5C 521.791,392.404 520.791,392.737 519.5,392.5C 515.838,392.723 512.505,393.723 509.5,395.5C 506.759,395.707 504.426,396.707 502.5,398.5C 502.158,399.338 501.492,399.672 500.5,399.5C 495.914,400.46 491.914,402.46 488.5,405.5C 488.158,406.338 487.492,406.672 486.5,406.5C 484.973,406.427 483.973,407.094 483.5,408.5C 481.326,408.75 479.659,409.75 478.5,411.5C 477.167,411.5 476.5,412.167 476.5,413.5C 475.878,414.627 475.045,415.627 474,416.5C 472.951,415.483 471.784,415.316 470.5,416C 465.147,418.701 459.814,421.368 454.5,424C 422.871,431.862 391.038,433.695 359,429.5C 340.208,432.375 321.708,431.042 303.5,425.5C 300.905,426.237 298.238,426.237 295.5,425.5C 295.953,424.542 296.619,423.708 297.5,423C 296.906,422.536 296.239,422.369 295.5,422.5C 291.703,422.128 288.37,420.794 285.5,418.5C 282.485,416.326 279.151,414.659 275.5,413.5C 274.415,411.413 272.749,410.08 270.5,409.5C 269.508,409.672 268.842,409.338 268.5,408.5C 268.027,407.094 267.027,406.427 265.5,406.5C 264.352,403.913 262.685,402.913 260.5,403.5C 251.198,397.055 240.864,392.722 229.5,390.5C 219.197,391.724 208.863,392.224 198.5,392C 183.151,388.16 174.651,378.326 173,362.5C 172.333,357.833 172.333,353.167 173,348.5C 173.036,346.059 173.869,344.059 175.5,342.5C 176.086,342.709 176.586,343.043 177,343.5C 176.529,354.347 178.529,364.681 183,374.5C 188.543,381.974 196.043,385.974 205.5,386.5C 232.733,382.303 256.733,389.137 277.5,407C 291.297,414.71 305.964,420.044 321.5,423C 345.953,423.754 370.453,424.587 395,425.5C 414.476,425.449 433.642,422.949 452.5,418C 469.5,409 486.5,400 503.5,391C 518.586,385.527 533.92,380.86 549.5,377C 557.5,376.333 565.5,376.333 573.5,377C 580.063,378.986 586.73,379.986 593.5,380C 597.749,377.806 602.082,375.806 606.5,374C 607.872,372.758 608.872,371.258 609.5,369.5C 608.098,365.461 606.598,361.461 605,357.5C 600.684,354.934 596.517,352.267 592.5,349.5 Z"/></g>
<g><path style="opacity:0.231" fill="#9b9b93" d="M 591.5,346.5 C 591.557,347.609 591.89,348.609 592.5,349.5C 590.448,348.947 590.115,347.947 591.5,346.5 Z"/></g>
<g><path style="opacity:0.012" fill="#b3b2a9" d="M 526.5,391.5 C 525.472,391.926 524.139,391.926 522.5,391.5C 523.261,390.609 524.261,389.942 525.5,389.5C 526.298,389.957 526.631,390.624 526.5,391.5 Z"/></g>
<g><path style="opacity:0.149" fill="#d6d5ca" d="M 519.5,392.5 C 516.495,394.277 513.162,395.277 509.5,395.5C 512.505,393.723 515.838,392.723 519.5,392.5 Z"/></g>
<g><path style="opacity:0.196" fill="#d2d1c6" d="M 509.5,395.5 C 507.574,397.293 505.241,398.293 502.5,398.5C 504.426,396.707 506.759,395.707 509.5,395.5 Z"/></g>
<g><path style="opacity:0.294" fill="#a8a79f" d="M 260.5,403.5 C 262.685,402.913 264.352,403.913 265.5,406.5C 263.589,405.925 261.922,404.925 260.5,403.5 Z"/></g>
<g><path style="opacity:0.173" fill="#d8d7cc" d="M 500.5,399.5 C 496.818,402.008 492.818,404.008 488.5,405.5C 491.914,402.46 495.914,400.46 500.5,399.5 Z"/></g>
<g><path style="opacity:0.235" fill="#d1d0c5" d="M 265.5,406.5 C 267.027,406.427 268.027,407.094 268.5,408.5C 266.973,408.573 265.973,407.906 265.5,406.5 Z"/></g>
<g><path style="opacity:0.141" fill="#dfded2" d="M 486.5,406.5 C 486.027,407.906 485.027,408.573 483.5,408.5C 483.973,407.094 484.973,406.427 486.5,406.5 Z"/></g>
<g><path style="opacity:0.067" fill="#d3d2c7" d="M 483.5,408.5 C 482.341,410.25 480.674,411.25 478.5,411.5C 479.659,409.75 481.326,408.75 483.5,408.5 Z"/></g>
<g><path style="opacity:0.012" fill="#d5d4c9" d="M 478.5,411.5 C 478.167,412.5 477.5,413.167 476.5,413.5C 476.5,412.167 477.167,411.5 478.5,411.5 Z"/></g>
<g><path style="opacity:0.322" fill="#b9b8af" d="M 270.5,409.5 C 272.749,410.08 274.415,411.413 275.5,413.5C 273.251,412.92 271.585,411.587 270.5,409.5 Z"/></g>
<g><path style="opacity:0.196" fill="#d0d0c5" d="M 275.5,413.5 C 279.151,414.659 282.485,416.326 285.5,418.5C 281.58,417.873 278.247,416.207 275.5,413.5 Z"/></g>
<g><path style="opacity:0.027" fill="#d9d8cd" d="M 295.5,422.5 C 296.239,422.369 296.906,422.536 297.5,423C 296.619,423.708 295.953,424.542 295.5,425.5C 294.375,424.652 294.375,423.652 295.5,422.5 Z"/></g>

        
<g><path style="opacity:0.994" fill="#1c1c1b" d="M 394.5,241.5 C 393.791,240.596 392.791,240.263 391.5,240.5C 391.5,242.167 391.5,243.833 391.5,245.5C 391.395,249.319 390.562,252.986 389,256.5C 387.321,259.699 385.321,260.033 383,257.5C 383.07,251.993 380.737,247.993 376,245.5C 372.584,247.992 370.418,251.325 369.5,255.5C 368.127,255.657 366.793,255.49 365.5,255C 361.071,251.705 356.571,248.538 352,245.5C 347.629,248.431 343.796,251.931 340.5,256C 339.5,256.667 338.5,256.667 337.5,256C 335.48,250.719 334.48,245.219 334.5,239.5C 334.5,238.5 334.5,237.5 334.5,236.5C 332.901,236.232 331.568,236.566 330.5,237.5C 324.003,240.981 321.503,238.981 323,231.5C 324.357,228.102 326.19,225.102 328.5,222.5C 329.289,222.217 329.956,221.717 330.5,221C 327.304,220.195 324.304,220.362 321.5,221.5C 317.924,222.813 314.258,223.313 310.5,223C 309.524,220.853 309.691,218.686 311,216.5C 316.593,208.448 324.093,202.948 333.5,200C 324.528,200.535 322.528,197.202 327.5,190C 329.441,188.097 331.774,187.264 334.5,187.5C 336.552,186.947 336.885,185.947 335.5,184.5C 334.023,182.193 332.023,180.36 329.5,179C 321.319,175.606 312.986,172.606 304.5,170C 301.654,169.121 300.987,167.454 302.5,165C 315.061,159.042 327.728,159.042 340.5,165C 355.345,170.679 365.679,180.846 371.5,195.5C 372.596,199.289 373.263,199.289 373.5,195.5C 377.16,183.177 383.16,172.177 391.5,162.5C 398.406,155.547 406.74,151.547 416.5,150.5C 415.726,157.132 412.893,162.798 408,167.5C 404.697,172.441 402.197,177.774 400.5,183.5C 405.328,183.469 410.328,183.635 415.5,184C 417.576,185.884 417.91,188.051 416.5,190.5C 412.206,191.645 408.539,193.812 405.5,197C 418.699,196.375 425.699,202.542 426.5,215.5C 419.799,216.682 414.132,219.682 409.5,224.5C 410.61,233.138 410.776,241.804 410,250.5C 409.592,253.42 408.259,255.754 406,257.5C 405.333,256.833 404.667,256.167 404,255.5C 403.946,252.139 402.946,249.139 401,246.5C 398.648,244.97 396.481,243.303 394.5,241.5 Z"/></g>
<g><path style="opacity:1" fill="#d7d6ca" d="M 408.5,202.5 C 405.167,202.5 401.833,202.5 398.5,202.5C 398.274,199.751 398.607,197.084 399.5,194.5C 397.051,193.09 394.884,193.424 393,195.5C 392.654,184.04 395.821,173.707 402.5,164.5C 400.833,163.334 399.166,163.334 397.5,164.5C 400.468,160.514 404.468,158.348 409.5,158C 401.586,167.41 397.252,178.243 396.5,190.5C 400.011,188.915 403.678,188.415 407.5,189C 404.333,190.833 401.833,193.333 400,196.5C 399.506,198.134 399.34,199.801 399.5,201.5C 402.713,201.19 405.713,201.523 408.5,202.5 Z"/></g>
<g><path style="opacity:1" fill="#f3f2e5" d="M 408.5,202.5 C 409.167,202.5 409.833,202.5 410.5,202.5C 410.423,203.75 409.756,204.583 408.5,205C 410.285,206.163 412.285,206.83 414.5,207C 417.207,210.35 416.207,212.017 411.5,212C 409,214.5 406.5,217 404,219.5C 403.805,224.418 403.305,229.251 402.5,234C 403.38,235.356 403.714,236.856 403.5,238.5C 401.861,238.074 400.528,238.074 399.5,238.5C 396.111,236.78 392.444,236.113 388.5,236.5C 387.992,241.216 387.158,245.882 386,250.5C 382.844,246.178 379.344,242.178 375.5,238.5C 373.547,239.761 371.547,240.927 369.5,242C 369.957,242.414 370.291,242.914 370.5,243.5C 368.808,245.359 367.308,247.359 366,249.5C 361.283,246.402 357.116,242.735 353.5,238.5C 350.961,239.931 348.628,241.597 346.5,243.5C 345.178,243.33 344.011,243.663 343,244.5C 342.667,243.833 342.333,243.167 342,242.5C 342.614,238.479 342.447,234.479 341.5,230.5C 338.788,230.263 336.288,230.263 334,230.5C 333.333,229.5 333.333,228.5 334,227.5C 335.022,225.336 336.189,223.336 337.5,221.5C 337.191,218.654 335.525,217.154 332.5,217C 327.116,216.495 321.782,216.495 316.5,217C 318.557,213.277 321.557,210.61 325.5,209C 330.138,206.003 334.971,204.503 340,204.5C 341.841,198.501 339.674,194.834 333.5,193.5C 335.664,191.316 338.331,189.983 341.5,189.5C 340.088,183.766 337.088,179.099 332.5,175.5C 331.473,173.474 330.139,171.641 328.5,170C 328.833,169.5 329.167,169 329.5,168.5C 330.736,169.246 332.07,169.579 333.5,169.5C 344.555,172.119 353.388,178.119 360,187.5C 363.841,193.178 367.174,199.178 370,205.5C 371.699,206.406 373.533,206.739 375.5,206.5C 377.343,194.144 381.843,182.81 389,172.5C 391.047,168.952 393.88,166.285 397.5,164.5C 399.166,163.334 400.833,163.334 402.5,164.5C 395.821,173.707 392.654,184.04 393,195.5C 394.884,193.424 397.051,193.09 399.5,194.5C 398.607,197.084 398.274,199.751 398.5,202.5C 401.833,202.5 405.167,202.5 408.5,202.5 Z"/></g>
<g><path style="opacity:1" fill="#cfcec2" d="M 333.5,169.5 C 332.07,169.579 330.736,169.246 329.5,168.5C 329.167,169 328.833,169.5 328.5,170C 330.139,171.641 331.473,173.474 332.5,175.5C 326.495,172.498 320.495,169.498 314.5,166.5C 318.122,165.341 321.789,165.175 325.5,166C 328.666,166.322 331.333,167.489 333.5,169.5 Z"/></g>
<g><path style="opacity:0.561" fill="#93928a" d="M 335.5,184.5 C 336.885,185.947 336.552,186.947 334.5,187.5C 335.11,186.609 335.443,185.609 335.5,184.5 Z"/></g>
<g><path style="opacity:1" fill="#92928a" d="M 371.5,195.5 C 372.167,195.5 372.833,195.5 373.5,195.5C 373.263,199.289 372.596,199.289 371.5,195.5 Z"/></g>
<g><path style="opacity:1" fill="#d9d8cb" d="M 410.5,202.5 C 416.016,203.181 420.016,206.014 422.5,211C 415.592,212.922 410.092,216.755 406,222.5C 406.522,230.127 406.522,237.794 406,245.5C 403.628,243.297 401.461,240.963 399.5,238.5C 400.528,238.074 401.861,238.074 403.5,238.5C 403.714,236.856 403.38,235.356 402.5,234C 403.305,229.251 403.805,224.418 404,219.5C 406.5,217 409,214.5 411.5,212C 416.207,212.017 417.207,210.35 414.5,207C 412.285,206.83 410.285,206.163 408.5,205C 409.756,204.583 410.423,203.75 410.5,202.5 Z"/></g>
<g><path style="opacity:0.447" fill="#706f69" d="M 321.5,221.5 C 324.304,220.362 327.304,220.195 330.5,221C 329.956,221.717 329.289,222.217 328.5,222.5C 326.393,221.532 324.059,221.198 321.5,221.5 Z"/></g>
<g><path style="opacity:1" fill="#d6d5c9" d="M 337.5,221.5 C 336.189,223.336 335.022,225.336 334,227.5C 333.333,228.5 333.333,229.5 334,230.5C 336.288,230.263 338.788,230.263 341.5,230.5C 342.447,234.479 342.614,238.479 342,242.5C 342.333,243.167 342.667,243.833 343,244.5C 344.011,243.663 345.178,243.33 346.5,243.5C 344.229,245.266 342.063,247.266 340,249.5C 337.689,243.959 336.856,238.293 337.5,232.5C 334.073,232.976 330.74,232.976 327.5,232.5C 329.464,227.538 332.798,223.871 337.5,221.5 Z"/></g>
<g><path style="opacity:0.18" fill="#b1b0a7" d="M 330.5,237.5 C 331.568,236.566 332.901,236.232 334.5,236.5C 334.5,237.5 334.5,238.5 334.5,239.5C 333.533,238.194 332.199,237.527 330.5,237.5 Z"/></g>
<g><path style="opacity:0.424" fill="#84847d" d="M 394.5,241.5 C 393.022,242.448 392.022,243.781 391.5,245.5C 391.5,243.833 391.5,242.167 391.5,240.5C 392.791,240.263 393.791,240.596 394.5,241.5 Z"/></g>

    </svg>
