
    <svg width="862" height="862" viewBox="0 0 862 862" fill="none" xmlns="http://www.w3.org/2000/svg">
        
<g><path style="opacity:1" fill="#f6f6e8" d="M -0.5,-0.5 C 286.833,-0.5 574.167,-0.5 861.5,-0.5C 861.5,286.833 861.5,574.167 861.5,861.5C 574.167,861.5 286.833,861.5 -0.5,861.5C -0.5,574.167 -0.5,286.833 -0.5,-0.5 Z"/></g>

        
<g><path style="opacity:0.983" fill="#1a1a19" d="M 578.5,540.5 C 583.993,540.916 589.326,542.082 594.5,544C 599.237,547.614 603.403,551.781 607,556.5C 613.977,570.057 616.311,584.39 614,599.5C 611.931,603.236 608.931,605.903 605,607.5C 603.018,607.01 601.351,606.01 600,604.5C 594.275,609.717 588.442,609.717 582.5,604.5C 577.923,613.337 572.256,614.337 565.5,607.5C 561.53,612.973 556.196,614.806 549.5,613C 548.299,612.097 547.465,610.931 547,609.5C 541.931,617.452 536.764,617.452 531.5,609.5C 527.737,613.765 523.737,617.932 519.5,622C 516.106,622.752 512.773,622.585 509.5,621.5C 508.194,620.088 507.36,618.421 507,616.5C 505.425,609.568 504.258,602.568 503.5,595.5C 504.335,583.317 510.669,578.317 522.5,580.5C 523.795,579.902 525.128,579.402 526.5,579C 535.197,570.637 543.531,561.97 551.5,553C 559.592,546.617 568.592,542.45 578.5,540.5 Z"/></g>
<g><path style="opacity:1" fill="#d9d8cb" d="M 587.5,601.5 C 588.496,601.586 589.329,601.252 590,600.5C 592.94,596.545 595.94,592.545 599,588.5C 599.37,579.339 598.37,570.339 596,561.5C 591.36,554.156 584.693,549.822 576,548.5C 573.538,549.159 571.038,549.493 568.5,549.5C 581.297,543.74 592.13,546.407 601,557.5C 608.853,570.951 611.186,585.285 608,600.5C 606.604,602.527 604.938,602.86 603,601.5C 602.091,598.089 601.091,594.755 600,591.5C 598.35,595.573 596.516,599.573 594.5,603.5C 591.584,604.861 589.251,604.195 587.5,601.5 Z"/></g>
<g><path style="opacity:1" fill="#f4f3e6" d="M 587.5,601.5 C 585.433,599.682 584.1,597.349 583.5,594.5C 582.635,593.417 581.635,593.251 580.5,594C 579.955,598.074 578.621,601.907 576.5,605.5C 574.878,607.439 573.044,607.772 571,606.5C 568.863,602.486 567.03,598.486 565.5,594.5C 564.522,594.977 563.689,595.643 563,596.5C 563.284,605.334 559.118,609.667 550.5,609.5C 550.348,605.228 549.348,601.228 547.5,597.5C 545.179,600.394 544.012,603.727 544,607.5C 541.618,612.067 538.951,612.4 536,608.5C 535.887,606.026 534.887,604.026 533,602.5C 527.856,607.313 523.023,612.48 518.5,618C 516.098,618.814 513.765,618.647 511.5,617.5C 508.811,609.37 507.645,601.036 508,592.5C 508.668,588.501 510.835,585.668 514.5,584C 518.801,584.363 523.134,584.363 527.5,584C 529.167,583 530.833,582 532.5,581C 540.864,572.97 548.864,564.637 556.5,556C 560.367,553.567 564.367,551.4 568.5,549.5C 571.038,549.493 573.538,549.159 576,548.5C 584.693,549.822 591.36,554.156 596,561.5C 598.37,570.339 599.37,579.339 599,588.5C 595.94,592.545 592.94,596.545 590,600.5C 589.329,601.252 588.496,601.586 587.5,601.5 Z"/></g>
<g><path style="opacity:0.982" fill="#191918" d="M 290.5,554.5 C 298.253,554.104 305.92,554.604 313.5,556C 315.5,557.333 317.5,558.667 319.5,560C 322.228,566.042 326.895,569.709 333.5,571C 335.378,572.543 336.878,574.376 338,576.5C 338.242,583.196 338.742,589.862 339.5,596.5C 339.461,598.587 338.461,599.921 336.5,600.5C 332.274,599.93 328.108,599.263 324,598.5C 322.5,600 321,601.5 319.5,603C 317.287,603.626 315.12,603.459 313,602.5C 306.564,605.689 301.23,604.356 297,598.5C 284.481,607.161 276.648,603.994 273.5,589C 271.944,573.778 277.611,562.278 290.5,554.5 Z"/></g>
<g><path style="opacity:1" fill="#f4f3e6" d="M 334.5,587.5 C 334.5,590.167 334.5,592.833 334.5,595.5C 333.167,595.5 331.833,595.5 330.5,595.5C 327.482,595.335 324.482,595.502 321.5,596C 320.022,598.039 318.022,598.872 315.5,598.5C 315.5,597.5 315.5,596.5 315.5,595.5C 312.326,596.015 309.326,597.015 306.5,598.5C 305.5,598.333 304.5,598.167 303.5,598C 301.441,595.366 299.275,592.866 297,590.5C 296.292,591.381 295.458,592.047 294.5,592.5C 290.404,593.285 287.07,592.118 284.5,589C 284.833,588.667 285.167,588.333 285.5,588C 283.667,587.5 282.5,586.333 282,584.5C 281.501,580.179 281.334,575.846 281.5,571.5C 281.709,570.078 282.209,568.745 283,567.5C 286.167,565 289.333,562.5 292.5,560C 298.167,559.333 303.833,559.333 309.5,560C 314.42,562.916 318.753,566.582 322.5,571C 326.232,572.461 329.732,574.294 333,576.5C 333.936,580.114 334.436,583.78 334.5,587.5 Z"/></g>
<g><path style="opacity:1" fill="#d7d6c9" d="M 281.5,571.5 C 281.334,575.846 281.501,580.179 282,584.5C 282.5,586.333 283.667,587.5 285.5,588C 285.167,588.333 284.833,588.667 284.5,589C 287.07,592.118 290.404,593.285 294.5,592.5C 293.641,595.452 291.641,597.285 288.5,598C 285.364,599.041 282.864,598.207 281,595.5C 279.409,588.608 279.076,581.608 280,574.5C 280.232,573.263 280.732,572.263 281.5,571.5 Z"/></g>
<g><path style="opacity:1" fill="#64635e" d="M 334.5,587.5 C 335.477,590.287 335.81,593.287 335.5,596.5C 333.585,596.784 331.919,596.451 330.5,595.5C 331.833,595.5 333.167,595.5 334.5,595.5C 334.5,592.833 334.5,590.167 334.5,587.5 Z"/></g>

        
<g><path style="opacity:0.995" fill="#0d0108" d="M 473.5,207.5 C 474.906,207.027 475.573,206.027 475.5,204.5C 504.858,171.312 541.525,150.812 585.5,143C 595.5,142.333 605.5,142.333 615.5,143C 635.085,147.195 654.085,153.195 672.5,161C 684.508,168.007 695.675,176.174 706,185.5C 718.296,204.303 719.463,223.636 709.5,243.5C 702.685,251.482 695.685,259.316 688.5,267C 694.886,266.122 701.386,265.622 708,265.5C 730.255,265.765 739.422,276.931 735.5,299C 732.443,310.782 726.776,321.115 718.5,330C 703.713,339.671 700.213,336.838 708,321.5C 708.533,312.097 705.7,303.93 699.5,297C 693.141,295.462 686.808,295.795 680.5,298C 671.181,302.329 661.514,305.662 651.5,308C 639.733,310.294 628.066,309.961 616.5,307C 601.803,301.15 597.636,291.317 604,277.5C 608.289,268.546 615.123,262.379 624.5,259C 634.556,256.738 644.222,253.404 653.5,249C 666.451,241.987 670.451,231.487 665.5,217.5C 660.121,218.006 654.787,218.839 649.5,220C 635.894,224.954 623.227,231.62 611.5,240C 600.368,249.464 589.534,259.297 579,269.5C 576.413,278.42 570.747,284.42 562,287.5C 539.83,286.332 518.663,281.166 498.5,272C 477.606,260.387 467.439,242.554 468,218.5C 469.188,214.387 471.021,210.72 473.5,207.5 Z"/></g>
<g><path style="opacity:1" fill="#5d0040" d="M 665.5,211.5 C 664.833,210.833 664.167,210.167 663.5,209.5C 656.996,202.592 653.329,194.258 652.5,184.5C 650.976,185.527 650.309,187.027 650.5,189C 651.085,197.335 654.418,204.168 660.5,209.5C 660.631,210.239 660.464,210.906 660,211.5C 656.971,211.719 653.804,211.386 650.5,210.5C 649.186,211.313 648.019,212.313 647,213.5C 643.505,212.894 640.005,212.56 636.5,212.5C 635.201,213.09 634.368,214.09 634,215.5C 627.802,214.645 621.468,215.312 615,217.5C 612.872,216.145 611.038,216.478 609.5,218.5C 603.69,212.225 598.856,205.225 595,197.5C 594.398,193.117 593.565,188.784 592.5,184.5C 591.914,184.709 591.414,185.043 591,185.5C 590.249,190.572 590.582,195.572 592,200.5C 595.603,207.257 599.77,213.591 604.5,219.5C 597.842,220.816 591.509,223.316 585.5,227C 578.086,231 571.086,235.5 564.5,240.5C 559.969,238.478 556.136,235.478 553,231.5C 548.605,225.434 544.605,219.1 541,212.5C 540.626,210.102 540.626,207.769 541,205.5C 540.282,204.549 539.449,204.383 538.5,205C 537.183,209.175 537.349,213.342 539,217.5C 543.667,224.167 548.333,230.833 553,237.5C 555.688,239.364 558.188,241.364 560.5,243.5C 556.477,247.697 551.81,251.197 546.5,254C 541.959,258.555 538.126,263.722 535,269.5C 534.097,270.701 532.931,271.535 531.5,272C 532.694,274.658 531.694,275.824 528.5,275.5C 510.948,272.975 496.114,265.308 484,252.5C 475.793,241.877 472.46,229.877 474,216.5C 479.044,208.449 485.211,201.283 492.5,195C 500.788,189.047 508.788,182.714 516.5,176C 537.633,162.269 560.633,153.269 585.5,149C 598.265,147.978 610.932,148.645 623.5,151C 635.167,154.667 646.833,158.333 658.5,162C 671.468,167.814 683.468,175.148 694.5,184C 707.681,195.516 712.848,210.016 710,227.5C 705.833,223.333 701.667,219.167 697.5,215C 687.093,211.199 676.427,210.032 665.5,211.5 Z"/></g>
<g><path style="opacity:0.995" fill="#0d0109" d="M 112.5,314.5 C 112.5,315.5 112.5,316.5 112.5,317.5C 110.833,317.5 109.167,317.5 107.5,317.5C 93.0443,315.87 82.211,308.87 75,296.5C 74.3333,289.833 74.3333,283.167 75,276.5C 78.8445,267.16 85.0112,259.827 93.5,254.5C 80.7205,242.664 77.5539,228.664 84,212.5C 113.08,174.018 151.58,158.852 199.5,167C 239.52,172.709 270.353,192.543 292,226.5C 294,233.167 294,239.833 292,246.5C 287.692,260.783 281.026,273.783 272,285.5C 262.038,293.783 250.872,299.949 238.5,304C 232.845,304.819 227.345,304.319 222,302.5C 221.424,300.623 221.591,298.789 222.5,297C 218.747,289.407 215.58,281.573 213,273.5C 203.563,260.398 193.063,248.231 181.5,237C 167.625,227.703 152.625,220.703 136.5,216C 132.833,215.333 129.167,215.333 125.5,216C 122.528,217.141 120.861,219.308 120.5,222.5C 122.316,224.817 124.316,226.984 126.5,229C 134.833,232.667 143.167,236.333 151.5,240C 161.408,247.205 171.575,254.038 182,260.5C 188.153,269.822 187.986,278.989 181.5,288C 171.767,294.339 161.434,295.339 150.5,291C 143.153,288.657 135.819,286.323 128.5,284C 114.435,281.747 107.602,287.58 108,301.5C 109.012,306.038 110.512,310.371 112.5,314.5 Z"/></g>
<g><path style="opacity:1" fill="#5d0040" d="M 280.5,260.5 C 273.408,262.325 265.908,263.992 258,265.5C 255.593,265.327 253.26,265.327 251,265.5C 250.064,263.292 248.398,261.958 246,261.5C 242.944,257.921 240.111,254.254 237.5,250.5C 241.447,244.27 244.613,237.604 247,230.5C 247.5,223.508 247.666,216.508 247.5,209.5C 245.876,209.36 244.71,210.027 244,211.5C 245.339,225.011 241.839,237.011 233.5,247.5C 232.448,247.649 231.448,247.483 230.5,247C 229.36,245.027 228.027,243.193 226.5,241.5C 219.996,238.664 213.996,234.997 208.5,230.5C 204.821,230.274 201.821,228.774 199.5,226C 197.187,225.338 194.854,224.838 192.5,224.5C 192.169,222.678 191.502,221.011 190.5,219.5C 192.977,209.974 194.144,200.307 194,190.5C 192.921,188.606 191.587,188.273 190,189.5C 190.235,199.811 188.735,209.811 185.5,219.5C 180.752,217.315 175.919,215.315 171,213.5C 170.667,213.833 170.333,214.167 170,214.5C 168.659,211.813 166.993,210.147 165,209.5C 164.586,209.957 164.086,210.291 163.5,210.5C 160.988,209.62 158.821,208.287 157,206.5C 155.004,207.341 153.171,207.008 151.5,205.5C 151.664,202.813 151.497,200.146 151,197.5C 150.29,196.027 149.124,195.36 147.5,195.5C 147.5,198.167 147.5,200.833 147.5,203.5C 138.79,203.16 130.123,201.493 121.5,198.5C 120.914,198.709 120.414,199.043 120,199.5C 119.261,198.426 118.261,197.759 117,197.5C 112.922,197.292 108.755,197.625 104.5,198.5C 118.15,183.538 135.15,174.705 155.5,172C 210.132,164.251 253.632,182.418 286,226.5C 287.555,231.382 287.888,236.382 287,241.5C 285.328,248.016 283.161,254.35 280.5,260.5 Z"/></g>
<g><path style="opacity:1" fill="#050004" d="M 663.5,209.5 C 662.5,209.5 661.5,209.5 660.5,209.5C 654.418,204.168 651.085,197.335 650.5,189C 650.309,187.027 650.976,185.527 652.5,184.5C 653.329,194.258 656.996,202.592 663.5,209.5 Z"/></g>
<g><path style="opacity:1" fill="#49003b" d="M 147.5,203.5 C 147.504,207.236 146.171,210.236 143.5,212.5C 138.959,210.82 134.293,209.653 129.5,209C 117.46,208.419 105.46,208.419 93.5,209C 96.3981,204.6 100.065,201.1 104.5,198.5C 108.755,197.625 112.922,197.292 117,197.5C 118.261,197.759 119.261,198.426 120,199.5C 120.414,199.043 120.914,198.709 121.5,198.5C 130.123,201.493 138.79,203.16 147.5,203.5 Z"/></g>
<g><path style="opacity:1" fill="#060003" d="M 564.5,240.5 C 568.956,242.892 573.623,245.058 578.5,247C 580.559,248.185 580.726,249.352 579,250.5C 572.926,247.865 566.76,245.532 560.5,243.5C 558.188,241.364 555.688,239.364 553,237.5C 548.333,230.833 543.667,224.167 539,217.5C 537.349,213.342 537.183,209.175 538.5,205C 539.449,204.383 540.282,204.549 541,205.5C 540.626,207.769 540.626,210.102 541,212.5C 544.605,219.1 548.605,225.434 553,231.5C 556.136,235.478 559.969,238.478 564.5,240.5 Z"/></g>
<g><path style="opacity:0.506" fill="#340427" d="M 475.5,204.5 C 475.573,206.027 474.906,207.027 473.5,207.5C 473.427,205.973 474.094,204.973 475.5,204.5 Z"/></g>
<g><path style="opacity:1" fill="#49003b" d="M 151.5,205.5 C 153.171,207.008 155.004,207.341 157,206.5C 158.821,208.287 160.988,209.62 163.5,210.5C 164.086,210.291 164.586,209.957 165,209.5C 166.993,210.147 168.659,211.813 170,214.5C 170.333,214.167 170.667,213.833 171,213.5C 175.919,215.315 180.752,217.315 185.5,219.5C 185.047,225.124 182.047,227.624 176.5,227C 168.001,221.777 159.001,217.61 149.5,214.5C 149.167,214.167 148.833,213.833 148.5,213.5C 149.516,210.718 150.516,208.051 151.5,205.5 Z"/></g>
<g><path style="opacity:1" fill="#49003b" d="M 660.5,209.5 C 661.5,209.5 662.5,209.5 663.5,209.5C 664.167,210.167 664.833,210.833 665.5,211.5C 649.811,214.078 634.978,219.411 621,227.5C 616.705,225.032 612.871,222.032 609.5,218.5C 611.038,216.478 612.872,216.145 615,217.5C 621.468,215.312 627.802,214.645 634,215.5C 634.368,214.09 635.201,213.09 636.5,212.5C 640.005,212.56 643.505,212.894 647,213.5C 648.019,212.313 649.186,211.313 650.5,210.5C 653.804,211.386 656.971,211.719 660,211.5C 660.464,210.906 660.631,210.239 660.5,209.5 Z"/></g>
<g><path style="opacity:1" fill="#49003b" d="M 117.5,251.5 C 118.239,251.631 118.906,251.464 119.5,251C 112.904,246.096 106.737,240.596 101,234.5C 98.1181,229.119 96.6181,223.619 96.5,218C 99.4106,217.302 100.077,215.802 98.5,213.5C 105.443,212.206 112.443,212.206 119.5,213.5C 113.845,219.7 114.178,225.534 120.5,231C 129.944,236.107 139.611,240.774 149.5,245C 154.328,248.581 159.328,251.915 164.5,255C 168.833,258 168.5,260.333 163.5,262C 159.5,262.667 155.5,262.667 151.5,262C 140.336,257.554 129.003,254.054 117.5,251.5 Z"/></g>
<g><path style="opacity:1" fill="#5b0040" d="M 98.5,213.5 C 100.077,215.802 99.4106,217.302 96.5,218C 96.6181,223.619 98.1181,229.119 101,234.5C 106.737,240.596 112.904,246.096 119.5,251C 118.906,251.464 118.239,251.631 117.5,251.5C 111.771,251.212 106.104,251.546 100.5,252.5C 87.8447,244.041 83.3447,232.374 87,217.5C 87.5,216.333 88.3333,215.5 89.5,215C 92.4781,214.304 95.4781,213.804 98.5,213.5 Z"/></g>
<g><path style="opacity:1" fill="#49003c" d="M 696.5,222.5 C 695.153,225.681 694.32,229.014 694,232.5C 691.12,238.482 687.787,244.148 684,249.5C 674.161,258.884 663.994,267.051 653.5,274C 653.728,274.399 654.062,274.565 654.5,274.5C 647.518,277.324 640.518,277.157 633.5,274C 630.277,270.888 629.777,267.388 632,263.5C 643.993,260.67 654.993,255.67 665,248.5C 672.653,239.202 674.487,228.868 670.5,217.5C 671.438,216.447 672.605,215.78 674,215.5C 679.473,216.455 684.973,217.289 690.5,218C 692.747,219.277 694.747,220.777 696.5,222.5 Z"/></g>
<g><path style="opacity:1" fill="#49003c" d="M 604.5,219.5 C 607.944,223.061 611.944,225.894 616.5,228C 617.451,228.718 617.617,229.551 617,230.5C 603.218,240.56 590.218,251.56 578,263.5C 574.501,267.672 571.834,272.338 570,277.5C 568.5,279 567,280.5 565.5,282C 552.853,281.115 540.52,278.949 528.5,275.5C 531.694,275.824 532.694,274.658 531.5,272C 532.931,271.535 534.097,270.701 535,269.5C 538.126,263.722 541.959,258.555 546.5,254C 551.81,251.197 556.477,247.697 560.5,243.5C 566.76,245.532 572.926,247.865 579,250.5C 580.726,249.352 580.559,248.185 578.5,247C 573.623,245.058 568.956,242.892 564.5,240.5C 571.086,235.5 578.086,231 585.5,227C 591.509,223.316 597.842,220.816 604.5,219.5 Z"/></g>
<g><path style="opacity:1" fill="#49003c" d="M 190.5,219.5 C 191.502,221.011 192.169,222.678 192.5,224.5C 194.854,224.838 197.187,225.338 199.5,226C 201.821,228.774 204.821,230.274 208.5,230.5C 213.996,234.997 219.996,238.664 226.5,241.5C 228.027,243.193 229.36,245.027 230.5,247C 231.448,247.483 232.448,247.649 233.5,247.5C 229.168,257.739 221.668,262.072 211,260.5C 203.413,249.577 194.413,239.91 184,231.5C 186.381,227.746 188.548,223.746 190.5,219.5 Z"/></g>
<g><path style="opacity:1" fill="#5b0040" d="M 696.5,222.5 C 704.085,225.669 706.918,231.335 705,239.5C 698.005,250.307 689.505,259.807 679.5,268C 671.395,270.988 663.062,273.155 654.5,274.5C 654.062,274.565 653.728,274.399 653.5,274C 663.994,267.051 674.161,258.884 684,249.5C 687.787,244.148 691.12,238.482 694,232.5C 694.32,229.014 695.153,225.681 696.5,222.5 Z"/></g>
<g><path style="opacity:1" fill="#49003c" d="M 237.5,250.5 C 240.111,254.254 242.944,257.921 246,261.5C 248.398,261.958 250.064,263.292 251,265.5C 253.26,265.327 255.593,265.327 258,265.5C 265.908,263.992 273.408,262.325 280.5,260.5C 277.146,269.373 272.146,277.207 265.5,284C 258.833,288 252.167,292 245.5,296C 240.066,298.239 234.399,299.406 228.5,299.5C 228.322,296.784 227.822,294.117 227,291.5C 223.518,285.533 220.851,279.199 219,272.5C 217.204,269.073 215.037,265.906 212.5,263C 215.652,264.186 218.985,264.519 222.5,264C 228.967,261.028 233.967,256.528 237.5,250.5 Z"/></g>
<g><path style="opacity:1" fill="#5c0040" d="M 179.5,268.5 C 179.489,270.017 178.823,271.184 177.5,272C 175.028,273.46 172.361,274.46 169.5,275C 168.953,275.925 168.287,276.758 167.5,277.5C 160.548,276.548 153.882,274.714 147.5,272C 141.367,271.982 135.2,271.149 129,269.5C 126.667,270.167 124.333,270.833 122,271.5C 121.667,270.833 121.333,270.167 121,269.5C 120.409,272.145 119.075,272.811 117,271.5C 111.035,273.067 105.535,275.567 100.5,279C 100.833,279.333 101.167,279.667 101.5,280C 99.5,281.667 97.5,283.333 95.5,285C 95.8333,285.333 96.1667,285.667 96.5,286C 95.5399,287.419 94.7065,288.919 94,290.5C 93.7685,294.555 93.2685,298.555 92.5,302.5C 93.2739,303.711 94.1072,303.711 95,302.5C 95.484,304.193 94.984,305.527 93.5,306.5C 80.0563,300.938 75.8896,291.271 81,277.5C 83.3581,281.358 86.5248,284.358 90.5,286.5C 91.5827,285.635 91.7494,284.635 91,283.5C 86.2333,280.291 83.8999,275.958 84,270.5C 87.8,264.533 92.9666,260.2 99.5,257.5C 100.142,261.023 101.308,264.356 103,267.5C 104.808,269.843 106.974,270.51 109.5,269.5C 105.328,266.152 103.661,261.819 104.5,256.5C 120.195,257.005 135.195,260.505 149.5,267C 158.355,268.992 166.189,267.159 173,261.5C 176.74,262.405 178.906,264.739 179.5,268.5 Z"/></g>
<g><path style="opacity:1" fill="#5c0040" d="M 680.5,283.5 C 679.778,283.918 679.278,284.584 679,285.5C 678.586,285.043 678.086,284.709 677.5,284.5C 674.045,285.767 670.545,286.767 667,287.5C 665.807,285.557 664.307,285.724 662.5,288C 659.574,288.218 656.74,288.718 654,289.5C 653.667,289.167 653.333,288.833 653,288.5C 652.228,289.849 651.061,290.682 649.5,291C 640.501,291.385 631.668,291.552 623,291.5C 615.686,290.53 610.853,287.197 608.5,281.5C 611.821,273.346 617.655,267.68 626,264.5C 625.677,272.379 629.177,277.545 636.5,280C 641.799,281.145 647.132,281.478 652.5,281C 662.989,277.877 673.656,275.71 684.5,274.5C 684.498,278.165 683.165,281.165 680.5,283.5 Z"/></g>
<g><path style="opacity:1" fill="#49003c" d="M 179.5,268.5 C 182.568,274.585 181.568,280.085 176.5,285C 168.662,287.967 160.662,288.3 152.5,286C 145.153,283.657 137.819,281.323 130.5,279C 110.008,275.828 101.175,284.328 104,304.5C 104.642,306.762 105.475,308.929 106.5,311C 101.714,310.794 97.381,309.294 93.5,306.5C 94.984,305.527 95.484,304.193 95,302.5C 94.1072,303.711 93.2739,303.711 92.5,302.5C 93.2685,298.555 93.7685,294.555 94,290.5C 94.7065,288.919 95.5399,287.419 96.5,286C 96.1667,285.667 95.8333,285.333 95.5,285C 97.5,283.333 99.5,281.667 101.5,280C 101.167,279.667 100.833,279.333 100.5,279C 105.535,275.567 111.035,273.067 117,271.5C 119.075,272.811 120.409,272.145 121,269.5C 121.333,270.167 121.667,270.833 122,271.5C 124.333,270.833 126.667,270.167 129,269.5C 135.2,271.149 141.367,271.982 147.5,272C 153.882,274.714 160.548,276.548 167.5,277.5C 168.287,276.758 168.953,275.925 169.5,275C 172.361,274.46 175.028,273.46 177.5,272C 178.823,271.184 179.489,270.017 179.5,268.5 Z"/></g>
<g><path style="opacity:1" fill="#5c0040" d="M 720.5,318.5 C 719.305,318.134 718.639,317.301 718.5,316C 719.71,311.217 719.043,306.717 716.5,302.5C 716.833,301.833 717.167,301.167 717.5,300.5C 716.738,300.089 715.738,299.923 714.5,300C 715.634,298.984 715.301,298.317 713.5,298C 714.458,296.853 714.125,295.853 712.5,295C 713.641,294.259 713.641,293.425 712.5,292.5C 710.291,291.937 708.791,290.604 708,288.5C 707.667,289.167 707.333,289.833 707,290.5C 700.892,284.874 693.392,282.874 684.5,284.5C 686.318,280.653 687.984,276.82 689.5,273C 698.793,271.558 708.126,271.224 717.5,272C 720.446,272.806 723.112,274.139 725.5,276C 725.964,278.405 726.131,280.905 726,283.5C 728.071,280.584 729.405,280.918 730,284.5C 731.392,297.151 728.225,308.484 720.5,318.5 Z"/></g>
<g><path style="opacity:1" fill="#49003b" d="M 608.5,281.5 C 610.853,287.197 615.686,290.53 623,291.5C 631.668,291.552 640.501,291.385 649.5,291C 651.061,290.682 652.228,289.849 653,288.5C 653.333,288.833 653.667,289.167 654,289.5C 656.74,288.718 659.574,288.218 662.5,288C 664.307,285.724 665.807,285.557 667,287.5C 670.545,286.767 674.045,285.767 677.5,284.5C 678.086,284.709 678.586,285.043 679,285.5C 679.278,284.584 679.778,283.918 680.5,283.5C 681.211,285.842 682.544,286.175 684.5,284.5C 693.392,282.874 700.892,284.874 707,290.5C 707.333,289.833 707.667,289.167 708,288.5C 708.791,290.604 710.291,291.937 712.5,292.5C 713.641,293.425 713.641,294.259 712.5,295C 714.125,295.853 714.458,296.853 713.5,298C 715.301,298.317 715.634,298.984 714.5,300C 715.738,299.923 716.738,300.089 717.5,300.5C 717.167,301.167 716.833,301.833 716.5,302.5C 719.043,306.717 719.71,311.217 718.5,316C 718.639,317.301 719.305,318.134 720.5,318.5C 718.252,322.254 715.419,325.588 712,328.5C 714.926,315.856 712.592,304.19 705,293.5C 690.942,288.92 677.442,290.42 664.5,298C 651.228,302.848 637.561,304.515 623.5,303C 617.013,301.508 611.513,298.341 607,293.5C 604.727,289.059 605.227,285.059 608.5,281.5 Z"/></g>
<g><path style="opacity:0.749" fill="#26061e" d="M 112.5,314.5 C 113.434,315.568 113.768,316.901 113.5,318.5C 111.265,318.795 109.265,318.461 107.5,317.5C 109.167,317.5 110.833,317.5 112.5,317.5C 112.5,316.5 112.5,315.5 112.5,314.5 Z"/></g>

        
<g><path style="opacity:0.998" fill="#181d1b" d="M 567.5,264.5 C 567.427,266.027 568.094,267.027 569.5,267.5C 570.833,268.167 571.833,269.167 572.5,270.5C 572.427,272.027 573.094,273.027 574.5,273.5C 576.786,276.463 578.619,279.796 580,283.5C 581.333,288.167 582.667,292.833 584,297.5C 600.968,293.905 616.801,296.738 631.5,306C 657.957,323.456 680.123,345.29 698,371.5C 700.529,375.926 702.362,380.592 703.5,385.5C 703.41,388.152 704.076,390.485 705.5,392.5C 706.37,394.032 706.036,395.532 704.5,397C 701.814,398.368 699.147,399.701 696.5,401C 687.337,403.06 678.337,403.893 669.5,403.5C 671.81,407.254 673.643,411.254 675,415.5C 676.619,423.927 678.619,432.26 681,440.5C 682.454,454.02 679.787,466.687 673,478.5C 663.749,491.086 652.582,501.586 639.5,510C 630.893,513.302 622.893,517.635 615.5,523C 597.029,529.157 579.029,536.491 561.5,545C 545.683,550.606 529.683,555.606 513.5,560C 521.167,567 528.833,574 536.5,581C 541.889,585.389 547.556,589.389 553.5,593C 559.667,598.5 565.833,604 572,609.5C 578.423,618.674 584.09,628.34 589,638.5C 598.788,663.109 604.621,688.609 606.5,715C 605.825,731.869 601.492,747.703 593.5,762.5C 592.711,762.783 592.044,763.283 591.5,764C 593.134,764.494 594.801,764.66 596.5,764.5C 603.201,764.682 609.201,766.849 614.5,771C 619.719,777.218 624.552,783.718 629,790.5C 633.064,794.786 637.897,797.952 643.5,800C 646.319,802.72 645.986,805.053 642.5,807C 635.644,812.007 627.978,814.507 619.5,814.5C 615.167,814.5 610.833,814.5 606.5,814.5C 606.263,815.791 606.596,816.791 607.5,817.5C 609.143,819.708 608.81,821.541 606.5,823C 599.093,824.492 591.593,825.325 584,825.5C 570.833,824.357 557.666,823.19 544.5,822C 528.753,817.882 515.253,810.049 504,798.5C 495.911,789.336 489.577,779.003 485,767.5C 473.056,772.575 460.556,774.908 447.5,774.5C 441.513,773.858 435.513,773.358 429.5,773C 427,772.625 424.667,771.792 422.5,770.5C 418.78,774.733 415.613,779.4 413,784.5C 396.732,800.487 377.065,808.487 354,808.5C 349.103,808.068 344.269,807.234 339.5,806C 337.709,805.585 336.376,804.585 335.5,803C 338.138,800.346 341.138,798.18 344.5,796.5C 345.973,795.928 347.307,795.095 348.5,794C 346.609,793.797 344.943,794.297 343.5,795.5C 334.515,796.911 325.515,796.744 316.5,795C 304.562,791.925 299.562,784.425 301.5,772.5C 312.272,769.781 321.939,764.947 330.5,758C 319.87,750.041 313.37,739.541 311,726.5C 307.602,710.123 307.769,693.789 311.5,677.5C 312.793,675.636 312.793,673.636 311.5,671.5C 310.893,671.624 310.56,671.957 310.5,672.5C 309.013,673.804 307.346,674.97 305.5,676C 298.059,677.01 291.059,675.843 284.5,672.5C 275.52,664.574 271.187,654.574 271.5,642.5C 272.908,618.525 282.242,598.358 299.5,582C 310.392,573.408 322.392,571.241 335.5,575.5C 336.947,576.885 337.947,576.552 338.5,574.5C 338.433,573.041 338.766,571.708 339.5,570.5C 340.757,569.377 340.424,568.711 338.5,568.5C 326.038,567.642 313.704,565.808 301.5,563C 279.858,557.675 258.525,551.341 237.5,544C 217.724,535.619 199.39,524.952 182.5,512C 179.629,509.297 176.962,506.464 174.5,503.5C 174.027,502.094 173.027,501.427 171.5,501.5C 155.808,488.291 146.475,471.458 143.5,451C 144.485,443.505 144.985,436.005 145,428.5C 139.772,431.396 134.272,432.062 128.5,430.5C 127.063,426.472 126.397,422.305 126.5,418C 128.512,388.142 139.012,361.642 158,338.5C 167.466,327.852 178.966,320.352 192.5,316C 198.537,315.303 204.537,315.47 210.5,316.5C 212.5,305.171 217.167,295.171 224.5,286.5C 225.906,286.027 226.573,285.027 226.5,283.5C 228.616,277.549 231.783,272.215 236,267.5C 246.355,255.578 258.188,245.412 271.5,237C 347.364,211.021 424.364,207.021 502.5,225C 512.956,228.227 522.956,232.56 532.5,238C 541.167,244.671 550.501,250.338 560.5,255C 562.476,258.463 564.81,261.63 567.5,264.5 Z"/></g>
<g><path style="opacity:1" fill="#29bf9b" d="M 587.5,310.5 C 586.895,306.028 588.561,303.028 592.5,301.5C 599.257,301.123 605.924,301.623 612.5,303C 623.41,307.12 633.41,312.787 642.5,320C 660.452,334.449 676.119,350.949 689.5,369.5C 691.14,388.025 682.807,395.525 664.5,392C 658.088,389.643 651.755,387.31 645.5,385C 648,386.833 650.5,388.667 653,390.5C 653.6,392.91 654.766,394.91 656.5,396.5C 658.725,400.235 661.558,403.568 665,406.5C 667.332,409.822 668.498,413.489 668.5,417.5C 666.958,428.041 664.458,438.374 661,448.5C 657,455.833 653,463.167 649,470.5C 636.03,485.726 620.863,498.226 603.5,508C 592.041,514.045 580.375,519.711 568.5,525C 543.32,532.284 518.32,539.95 493.5,548C 482.687,549.259 472.02,551.259 461.5,554C 447.882,555.731 434.215,556.898 420.5,557.5C 403.181,557.048 385.847,556.882 368.5,557C 353.791,555.323 339.125,553.323 324.5,551C 295.042,542.775 266.042,533.108 237.5,522C 214.876,512.026 194.21,499.026 175.5,483C 165.633,473.492 157.8,462.659 152,450.5C 151.501,445.845 151.334,441.179 151.5,436.5C 154.006,428.629 155.006,420.629 154.5,412.5C 153.817,412.863 153.15,413.196 152.5,413.5C 148.453,418.44 143.286,421.44 137,422.5C 134.013,422.01 132.18,420.343 131.5,417.5C 133.163,407.851 134.663,398.185 136,388.5C 140.728,378.044 145.728,367.711 151,357.5C 159.991,342.175 172.491,330.675 188.5,323C 197.005,320.179 205.672,319.679 214.5,321.5C 215.279,315.66 216.779,309.993 219,304.5C 225.667,293.833 232.333,283.167 239,272.5C 250.023,259.799 262.523,248.966 276.5,240C 327.954,223.758 380.621,217.091 434.5,220C 436.285,221.163 438.285,221.83 440.5,222C 464.689,222.932 488.356,226.932 511.5,234C 526.492,241.827 541.158,250.161 555.5,259C 568.676,270.184 576.51,284.351 579,301.5C 581.005,308.828 584.672,315.162 590,320.5C 589.506,317.164 588.672,313.831 587.5,310.5 Z"/></g>
<g><path style="opacity:0.725" fill="#7f7d7b" d="M 567.5,264.5 C 568.906,264.973 569.573,265.973 569.5,267.5C 568.094,267.027 567.427,266.027 567.5,264.5 Z"/></g>
<g><path style="opacity:0.545" fill="#807d7b" d="M 572.5,270.5 C 573.906,270.973 574.573,271.973 574.5,273.5C 573.094,273.027 572.427,272.027 572.5,270.5 Z"/></g>
<g><path style="opacity:0.486" fill="#817f7c" d="M 226.5,283.5 C 226.573,285.027 225.906,286.027 224.5,286.5C 224.427,284.973 225.094,283.973 226.5,283.5 Z"/></g>
<g><path style="opacity:1" fill="#258d7d" d="M 592.5,301.5 C 588.561,303.028 586.895,306.028 587.5,310.5C 585.98,308.11 584.98,305.443 584.5,302.5C 587.127,301.908 589.794,301.575 592.5,301.5 Z"/></g>
<g><path style="opacity:1" fill="#0a0e0c" d="M 618.5,337.5 C 624.632,343.789 631.299,349.623 638.5,355C 649.79,362.609 661.79,368.943 674.5,374C 677.242,375.886 678.909,378.386 679.5,381.5C 673.457,380.485 667.79,378.318 662.5,375C 649.168,367.333 636.668,358.499 625,348.5C 623,345.833 621,343.167 619,340.5C 618.517,339.552 618.351,338.552 618.5,337.5 Z"/></g>
<g><path style="opacity:1" fill="#239180" d="M 689.5,369.5 C 695.393,376.932 698.726,385.265 699.5,394.5C 693.023,397.562 686.19,398.895 679,398.5C 675.833,398.333 672.667,398.167 669.5,398C 665.09,396.449 660.757,394.949 656.5,393.5C 656.5,394.5 656.5,395.5 656.5,396.5C 654.766,394.91 653.6,392.91 653,390.5C 650.5,388.667 648,386.833 645.5,385C 651.755,387.31 658.088,389.643 664.5,392C 682.807,395.525 691.14,388.025 689.5,369.5 Z"/></g>
<g><path style="opacity:1" fill="#080d0c" d="M 147.5,382.5 C 148.993,383.312 149.66,384.645 149.5,386.5C 148.225,393.816 147.058,401.15 146,408.5C 144.374,411.128 142.374,413.461 140,415.5C 141.213,404.227 143.713,393.227 147.5,382.5 Z"/></g>
<g><path style="opacity:0.686" fill="#676562" d="M 703.5,385.5 C 704.924,387.515 705.59,389.848 705.5,392.5C 704.076,390.485 703.41,388.152 703.5,385.5 Z"/></g>
<g><path style="opacity:1" fill="#248f7f" d="M 152.5,413.5 C 149.619,421.965 143.619,426.631 134.5,427.5C 133.201,426.91 132.368,425.91 132,424.5C 131.503,422.19 131.337,419.857 131.5,417.5C 132.18,420.343 134.013,422.01 137,422.5C 143.286,421.44 148.453,418.44 152.5,413.5 Z"/></g>
<g><path style="opacity:1" fill="#229080" d="M 668.5,417.5 C 669.586,417.62 670.253,418.287 670.5,419.5C 672.505,428.85 674.505,438.183 676.5,447.5C 675.399,460.687 670.732,472.354 662.5,482.5C 657.167,487.167 652.167,492.167 647.5,497.5C 636.091,503.71 624.757,510.21 613.5,517C 594.28,523.296 575.614,530.963 557.5,540C 535.062,547.646 512.395,554.312 489.5,560C 464.818,564.023 439.984,566.523 415,567.5C 386.539,565.485 358.039,563.985 329.5,563C 288.931,556.527 250.265,544.193 213.5,526C 189.832,512.998 170.665,495.165 156,472.5C 149.589,460.938 148.089,448.938 151.5,436.5C 151.334,441.179 151.501,445.845 152,450.5C 157.8,462.659 165.633,473.492 175.5,483C 194.21,499.026 214.876,512.026 237.5,522C 266.042,533.108 295.042,542.775 324.5,551C 339.125,553.323 353.791,555.323 368.5,557C 385.847,556.882 403.181,557.048 420.5,557.5C 434.215,556.898 447.882,555.731 461.5,554C 472.02,551.259 482.687,549.259 493.5,548C 518.32,539.95 543.32,532.284 568.5,525C 580.375,519.711 592.041,514.045 603.5,508C 620.863,498.226 636.03,485.726 649,470.5C 653,463.167 657,455.833 661,448.5C 664.458,438.374 666.958,428.041 668.5,417.5 Z"/></g>
<g><path style="opacity:1" fill="#0d3631" d="M 662.5,482.5 C 658.5,488.5 653.5,493.5 647.5,497.5C 652.167,492.167 657.167,487.167 662.5,482.5 Z"/></g>
<g><path style="opacity:0.718" fill="#827f7d" d="M 171.5,501.5 C 173.027,501.427 174.027,502.094 174.5,503.5C 172.973,503.573 171.973,502.906 171.5,501.5 Z"/></g>
<g><path style="opacity:1" fill="#229080" d="M 478.5,672.5 C 485.91,678.441 494.243,679.941 503.5,677C 506.732,675.77 509.399,673.77 511.5,671C 512.5,670.333 513.5,670.333 514.5,671C 512.476,676.438 510.142,681.772 507.5,687C 510.833,689 514.167,689 517.5,687C 531.421,676.687 539.921,662.853 543,645.5C 544.038,633.747 540.205,623.913 531.5,616C 520.808,606.822 508.475,601.155 494.5,599C 490.5,598.333 486.5,598.333 482.5,599C 479.515,601.777 478.182,605.277 478.5,609.5C 479.213,614.311 480.547,618.978 482.5,623.5C 479.407,625.309 476.074,626.309 472.5,626.5C 472.923,625.735 473.257,624.902 473.5,624C 472.021,618.752 471.021,613.419 470.5,608C 470.59,604.806 471.59,601.973 473.5,599.5C 473.167,598.5 472.5,597.833 471.5,597.5C 469.364,598.472 468.197,600.139 468,602.5C 467.081,608.966 467.581,615.299 469.5,621.5C 458.98,625.321 450.48,631.654 444,640.5C 430.726,618.269 417.226,596.269 403.5,574.5C 414.63,572.841 425.963,571.841 437.5,571.5C 461.059,569.586 484.392,566.42 507.5,562C 519.747,573.585 532.58,584.418 546,594.5C 546.333,596.047 545.833,597.38 544.5,598.5C 548.847,601.371 552.014,605.371 554,610.5C 566.153,641.08 559.987,667.247 535.5,689C 525.224,698.136 513.224,702.136 499.5,701C 492.521,698.359 487.021,693.859 483,687.5C 480.383,682.817 478.883,677.817 478.5,672.5 Z"/></g>
<g><path style="opacity:0.118" fill="#c8c4c1" d="M 338.5,568.5 C 340.424,568.711 340.757,569.377 339.5,570.5C 339.167,569.833 338.833,569.167 338.5,568.5 Z"/></g>
<g><path style="opacity:1" fill="#29bf9b" d="M 341.5,624.5 C 340.876,624.917 340.543,625.584 340.5,626.5C 342.307,636.262 343.64,646.096 344.5,656C 344.554,658.873 343.888,661.54 342.5,664C 336.839,663.182 331.506,661.182 326.5,658C 319.953,652.954 314.286,647.12 309.5,640.5C 307.682,644.136 305.849,647.802 304,651.5C 296.56,654.165 290.893,651.832 287,644.5C 283.449,623.824 288.782,605.824 303,590.5C 307.998,584.965 313.498,580.298 319.5,576.5C 326.113,576.151 332.113,577.818 337.5,581.5C 337.712,583.384 338.712,584.717 340.5,585.5C 341.487,582.232 341.82,578.898 341.5,575.5C 342.216,573.444 342.883,571.277 343.5,569C 347.568,568.7 351.568,569.2 355.5,570.5C 348.593,587.894 343.926,605.894 341.5,624.5 Z"/></g>
<g><path style="opacity:1" fill="#7db8aa" d="M 360.5,674.5 C 365.636,683.259 371.636,691.426 378.5,699C 384.877,703.189 391.544,706.855 398.5,710C 417.349,716.655 424.849,710.155 421,690.5C 413.133,671.662 409.299,651.996 409.5,631.5C 398.974,626.785 387.974,624.118 376.5,623.5C 367.747,622.705 360.081,625.039 353.5,630.5C 351.127,627.469 348.794,624.469 346.5,621.5C 349.487,606.708 352.987,592.041 357,577.5C 357.93,575.064 359.097,572.731 360.5,570.5C 364.795,569.339 369.129,569.172 373.5,570C 381.953,570.635 390.287,571.801 398.5,573.5C 412.833,597.5 427.167,621.5 441.5,645.5C 436.166,659.522 436.333,673.522 442,687.5C 449.259,695.897 458.426,699.063 469.5,697C 472.798,696.513 475.798,695.347 478.5,693.5C 480.786,693.96 482.119,695.293 482.5,697.5C 479.29,719.151 479.957,740.651 484.5,762C 484.167,762.5 483.833,763 483.5,763.5C 454.121,772.925 425.787,770.425 398.5,756C 385.188,748.027 373.021,738.527 362,727.5C 358.333,721.833 354.667,716.167 351,710.5C 348.591,702.618 346.757,694.618 345.5,686.5C 351.447,683.692 356.447,679.692 360.5,674.5 Z"/></g>
<g><path style="opacity:1" fill="#0d3530" d="M 437.5,571.5 C 425.963,571.841 414.63,572.841 403.5,574.5C 402.596,573.791 402.263,572.791 402.5,571.5C 414.167,571.5 425.833,571.5 437.5,571.5 Z"/></g>
<g><path style="opacity:0.553" fill="#918f8c" d="M 338.5,574.5 C 337.947,576.552 336.947,576.885 335.5,575.5C 336.609,575.443 337.609,575.11 338.5,574.5 Z"/></g>
<g><path style="opacity:1" fill="#216b59" d="M 341.5,575.5 C 341.82,578.898 341.487,582.232 340.5,585.5C 338.712,584.717 337.712,583.384 337.5,581.5C 338.458,581.953 339.292,582.619 340,583.5C 340.183,580.635 340.683,577.969 341.5,575.5 Z"/></g>
<g><path style="opacity:1" fill="#229080" d="M 319.5,576.5 C 313.498,580.298 307.998,584.965 303,590.5C 288.782,605.824 283.449,623.824 287,644.5C 290.893,651.832 296.56,654.165 304,651.5C 305.849,647.802 307.682,644.136 309.5,640.5C 314.286,647.12 319.953,652.954 326.5,658C 331.506,661.182 336.839,663.182 342.5,664C 343.888,661.54 344.554,658.873 344.5,656C 343.64,646.096 342.307,636.262 340.5,626.5C 340.543,625.584 340.876,624.917 341.5,624.5C 343.341,627.86 345.841,630.86 349,633.5C 356.123,645.314 358.79,657.981 357,671.5C 347.754,683.243 336.587,685.409 323.5,678C 320.61,676.062 317.944,673.895 315.5,671.5C 315.325,667.14 315.325,662.806 315.5,658.5C 312.383,663.451 308.383,667.618 303.5,671C 299.152,671.238 294.819,670.905 290.5,670C 278.528,660.766 274.028,648.599 277,633.5C 280.837,610.292 292.337,592.125 311.5,579C 313.909,577.293 316.575,576.46 319.5,576.5 Z"/></g>
<g><path style="opacity:1" fill="#29bf9b" d="M 478.5,672.5 C 478.817,669.428 478.484,666.428 477.5,663.5C 476.056,665.608 475.39,667.941 475.5,670.5C 473.625,679.348 467.958,684.015 458.5,684.5C 453.558,684.071 449.725,681.738 447,677.5C 444.588,674.01 442.755,670.343 441.5,666.5C 441.688,651.961 447.354,640.127 458.5,631C 463.181,629.138 467.848,627.638 472.5,626.5C 476.074,626.309 479.407,625.309 482.5,623.5C 480.547,618.978 479.213,614.311 478.5,609.5C 478.182,605.277 479.515,601.777 482.5,599C 486.5,598.333 490.5,598.333 494.5,599C 508.475,601.155 520.808,606.822 531.5,616C 540.205,623.913 544.038,633.747 543,645.5C 539.921,662.853 531.421,676.687 517.5,687C 514.167,689 510.833,689 507.5,687C 510.142,681.772 512.476,676.438 514.5,671C 513.5,670.333 512.5,670.333 511.5,671C 509.399,673.77 506.732,675.77 503.5,677C 494.243,679.941 485.91,678.441 478.5,672.5 Z"/></g>
<g><path style="opacity:1" fill="#29bf9b" d="M 598.5,692.5 C 599.49,721.091 590.49,745.924 571.5,767C 560.734,776.049 548.4,781.882 534.5,784.5C 518.075,781.578 507.908,771.912 504,755.5C 503.528,748.944 502.695,742.444 501.5,736C 501.833,734.167 502.167,732.333 502.5,730.5C 514.579,739.962 527.245,740.796 540.5,733C 553.445,722.257 561.612,708.757 565,692.5C 565.483,680.641 566.316,668.808 567.5,657C 567.12,651.981 566.454,647.148 565.5,642.5C 565.039,628.701 561.705,615.701 555.5,603.5C 556.002,602.479 556.668,602.312 557.5,603C 571.596,617.015 581.763,633.515 588,652.5C 592.713,665.589 596.213,678.922 598.5,692.5 Z"/></g>
<g><path style="opacity:1" fill="#97d9cf" d="M 360.5,674.5 C 363.081,665.176 362.914,655.842 360,646.5C 358.097,641.032 355.93,635.699 353.5,630.5C 360.081,625.039 367.747,622.705 376.5,623.5C 387.974,624.118 398.974,626.785 409.5,631.5C 409.299,651.996 413.133,671.662 421,690.5C 424.849,710.155 417.349,716.655 398.5,710C 391.544,706.855 384.877,703.189 378.5,699C 371.636,691.426 365.636,683.259 360.5,674.5 Z"/></g>
<g><path style="opacity:1" fill="#229080" d="M 565.5,642.5 C 566.454,647.148 567.12,651.981 567.5,657C 566.316,668.808 565.483,680.641 565,692.5C 561.612,708.757 553.445,722.257 540.5,733C 527.245,740.796 514.579,739.962 502.5,730.5C 502.167,732.333 501.833,734.167 501.5,736C 502.695,742.444 503.528,748.944 504,755.5C 507.908,771.912 518.075,781.578 534.5,784.5C 548.4,781.882 560.734,776.049 571.5,767C 590.49,745.924 599.49,721.091 598.5,692.5C 603.674,717.432 599.507,740.766 586,762.5C 585.175,764.701 585.675,766.534 587.5,768C 598.616,767.367 607.783,771.2 615,779.5C 618.98,786.624 623.814,793.124 629.5,799C 632.371,800.935 635.371,802.601 638.5,804C 627.231,809.772 615.231,812.105 602.5,811C 601.427,814.112 601.427,817.279 602.5,820.5C 584.783,820.736 567.116,819.903 549.5,818C 516.667,809.167 495.833,788.333 487,755.5C 483.667,736.833 483.667,718.167 487,699.5C 491.793,704.268 497.627,706.601 504.5,706.5C 533.083,702.106 551.916,686.106 561,658.5C 562.256,653.552 563.256,648.552 564,643.5C 564.383,642.944 564.883,642.611 565.5,642.5 Z"/></g>
<g><path style="opacity:0.18" fill="#a19e9b" d="M 310.5,672.5 C 310.56,671.957 310.893,671.624 311.5,671.5C 312.793,673.636 312.793,675.636 311.5,677.5C 311.784,675.585 311.451,673.919 310.5,672.5 Z"/></g>
<g><path style="opacity:1" fill="#228f7f" d="M 441.5,666.5 C 442.755,670.343 444.588,674.01 447,677.5C 449.725,681.738 453.558,684.071 458.5,684.5C 467.958,684.015 473.625,679.348 475.5,670.5C 475.435,676.617 475.935,682.617 477,688.5C 475.681,690.487 473.848,691.654 471.5,692C 450.998,695.91 440.998,687.41 441.5,666.5 Z"/></g>
<g><path style="opacity:1" fill="#228f80" d="M 352.5,720.5 C 351.542,720.047 350.708,719.381 350,718.5C 349,720.5 348,722.5 347,724.5C 338.32,720.657 330.654,715.324 324,708.5C 322.417,720.502 325.084,731.502 332,741.5C 338.772,748.117 345.939,754.117 353.5,759.5C 344.842,759.336 337.175,756.503 330.5,751C 327.333,747.167 324.167,743.333 321,739.5C 312.829,719.59 311.496,699.257 317,678.5C 323.898,685.032 332.065,687.698 341.5,686.5C 342.041,694.666 343.541,702.666 346,710.5C 348.143,713.962 350.31,717.296 352.5,720.5 Z"/></g>
<g><path style="opacity:1" fill="#29bf9b" d="M 352.5,720.5 C 354.344,724.192 356.677,727.525 359.5,730.5C 361.833,734.833 365.167,738.167 369.5,740.5C 372.027,742.605 374.36,744.939 376.5,747.5C 379.123,754.311 382.457,760.811 386.5,767C 376.625,767.76 367.292,765.927 358.5,761.5C 356.95,760.559 355.284,759.893 353.5,759.5C 345.939,754.117 338.772,748.117 332,741.5C 325.084,731.502 322.417,720.502 324,708.5C 330.654,715.324 338.32,720.657 347,724.5C 348,722.5 349,720.5 350,718.5C 350.708,719.381 351.542,720.047 352.5,720.5 Z"/></g>
<g><path style="opacity:1" fill="#165545" d="M 359.5,730.5 C 363.167,733.5 366.5,736.833 369.5,740.5C 365.167,738.167 361.833,734.833 359.5,730.5 Z"/></g>
<g><path style="opacity:1" fill="#229080" d="M 376.5,747.5 C 382.599,751.083 388.599,754.917 394.5,759C 400.94,762.554 407.607,765.554 414.5,768C 415.554,769.388 415.72,770.888 415,772.5C 404.324,788.934 389.157,798.434 369.5,801C 361.218,803.53 352.885,803.864 344.5,802C 352.628,796.206 359.795,789.373 366,781.5C 366.612,779.763 365.946,778.763 364,778.5C 361.373,779.634 359.207,781.3 357.5,783.5C 358.547,780.404 359.88,777.404 361.5,774.5C 351.183,771.672 341.017,768.339 331,764.5C 329.862,764.989 328.695,765.322 327.5,765.5C 330.385,763.969 333.052,761.969 335.5,759.5C 342.062,762.14 348.729,764.474 355.5,766.5C 356.442,766.392 357.275,766.059 358,765.5C 357.645,764.041 357.811,762.707 358.5,761.5C 367.292,765.927 376.625,767.76 386.5,767C 382.457,760.811 379.123,754.311 376.5,747.5 Z"/></g>
<g><path style="opacity:0.039" fill="#d7d3cf" d="M 593.5,762.5 C 594.5,763.167 595.5,763.833 596.5,764.5C 594.801,764.66 593.134,764.494 591.5,764C 592.044,763.283 592.711,762.783 593.5,762.5 Z"/></g>
<g><path style="opacity:1" fill="#29be9a" d="M 357.5,783.5 C 343.133,791.218 328.133,792.552 312.5,787.5C 311.089,785.086 309.089,783.419 306.5,782.5C 305.532,780.393 305.198,778.059 305.5,775.5C 313.871,774.312 321.205,770.979 327.5,765.5C 328.695,765.322 329.862,764.989 331,764.5C 341.017,768.339 351.183,771.672 361.5,774.5C 359.88,777.404 358.547,780.404 357.5,783.5 Z"/></g>
<g><path style="opacity:1" fill="#28be9b" d="M 577.5,780.5 C 592.442,778.021 604.942,782.354 615,793.5C 615.688,794.332 615.521,794.998 614.5,795.5C 607.333,800.626 599.333,802.959 590.5,802.5C 590.692,805.601 591.358,808.601 592.5,811.5C 587.462,812.33 582.795,811.164 578.5,808C 572.243,803.287 566.076,798.454 560,793.5C 558.148,790.653 558.648,788.153 561.5,786C 566.844,783.841 572.177,782.008 577.5,780.5 Z"/></g>
<g><path style="opacity:1" fill="#1d6553" d="M 306.5,782.5 C 309.089,783.419 311.089,785.086 312.5,787.5C 309.911,786.581 307.911,784.914 306.5,782.5 Z"/></g>
<g><path style="opacity:0.165" fill="#b0aca9" d="M 344.5,796.5 C 344.5,795.833 344.167,795.5 343.5,795.5C 344.943,794.297 346.609,793.797 348.5,794C 347.307,795.095 345.973,795.928 344.5,796.5 Z"/></g>
<g><path style="opacity:0.282" fill="#afaba8" d="M 619.5,814.5 C 615.232,814.869 611.232,815.869 607.5,817.5C 606.596,816.791 606.263,815.791 606.5,814.5C 610.833,814.5 615.167,814.5 619.5,814.5 Z"/></g>

        
<g><path style="opacity:0.957" fill="#020202" d="M 492.5,247.5 C 518.036,247.341 536.869,258.341 549,280.5C 553.515,288.881 557.348,297.548 560.5,306.5C 580.242,322.468 585.075,342.135 575,365.5C 572.44,370.116 569.273,374.282 565.5,378C 559.833,378.333 554.167,378.667 548.5,379C 532.92,382.86 517.586,387.527 502.5,393C 487.559,400.719 472.726,408.553 458,416.5C 454.948,415.289 451.781,414.455 448.5,414C 441.357,407.927 433.69,402.594 425.5,398C 420.197,391.208 415.031,384.375 410,377.5C 408.789,383.132 406.789,388.466 404,393.5C 397.729,399.968 390.562,401.135 382.5,397C 378.252,394.757 374.586,391.757 371.5,388C 368.577,386.29 365.577,386.123 362.5,387.5C 357.09,397.358 349.09,400.191 338.5,396C 336.04,394.542 333.873,392.709 332,390.5C 329.522,382.254 327.522,373.921 326,365.5C 320.148,383.041 311.315,398.874 299.5,413C 296.163,415.671 292.496,417.837 288.5,419.5C 285.681,417.718 283.681,415.218 282.5,412C 275.993,407.914 269.66,403.58 263.5,399C 245.723,388.644 226.723,384.977 206.5,388C 204.615,385.061 203.115,381.895 202,378.5C 199.281,359.042 203.615,341.375 215,325.5C 215.811,303.71 224.644,286.21 241.5,273C 247.839,268.496 254.839,265.662 262.5,264.5C 266.961,265.153 271.294,266.32 275.5,268C 295.875,282.044 310.709,300.544 320,323.5C 324.116,333.515 327.616,343.682 330.5,354C 348.492,364.612 367.492,367.279 387.5,362C 391.821,361.501 396.154,361.334 400.5,361.5C 397.258,348.95 396.758,336.284 399,323.5C 401.262,314.712 403.929,306.046 407,297.5C 410.946,291.221 415.279,285.221 420,279.5C 440.443,260.191 464.61,249.524 492.5,247.5 Z"/></g>
<g><path style="opacity:1" fill="#1b1b1b" d="M 491.5,251.5 C 512.865,250.933 529.698,259.266 542,276.5C 546.498,283.995 550.331,291.829 553.5,300C 553.167,300.5 552.833,301 552.5,301.5C 519.409,280.417 485.409,278.917 450.5,297C 445.732,301.769 440.399,305.769 434.5,309C 422.693,321.445 413.526,335.612 407,351.5C 406.393,354.202 406.56,356.868 407.5,359.5C 407.444,360.737 406.944,361.737 406,362.5C 403.451,358.185 402.118,353.519 402,348.5C 400.755,329.153 404.422,310.819 413,293.5C 417.194,288.94 421.028,284.106 424.5,279C 431.007,274.914 437.34,270.58 443.5,266C 458.431,257.108 474.431,252.275 491.5,251.5 Z"/></g>
<g><path style="opacity:1" fill="#1b1b1b" d="M 256.5,269.5 C 263.393,268.655 269.727,270.155 275.5,274C 299.943,292.441 315.443,316.607 322,346.5C 315.942,336.442 309.108,326.942 301.5,318C 298.167,315.333 294.833,312.667 291.5,310C 285.132,308.102 279.132,305.435 273.5,302C 252.722,297.821 234.889,303.321 220,318.5C 221.281,302.771 227.781,289.604 239.5,279C 244.938,275.284 250.605,272.118 256.5,269.5 Z"/></g>
<g><path style="opacity:1" fill="#f5f4e7" d="M 485.5,290.5 C 498.715,289.757 511.715,290.924 524.5,294C 536.342,298.72 547.675,304.387 558.5,311C 574.454,323.985 578.954,340.152 572,359.5C 571.152,361.874 569.819,363.874 568,365.5C 551.898,352.421 534.065,342.255 514.5,335C 496.911,330.718 480.244,333.051 464.5,342C 453.109,351.471 446.609,363.638 445,378.5C 444.667,387.5 444.333,396.5 444,405.5C 426.579,396.662 415.912,382.662 412,363.5C 411.174,358.411 411.508,353.411 413,348.5C 419.809,335.709 427.976,323.876 437.5,313C 443.693,309.738 449.36,305.738 454.5,301C 458.5,299 462.5,297 466.5,295C 473.116,294.187 479.45,292.687 485.5,290.5 Z"/></g>
<g><path style="opacity:1" fill="#f4f3e6" d="M 253.5,305.5 C 259.577,305.196 265.577,305.696 271.5,307C 277.456,310.765 283.789,313.765 290.5,316C 296.662,321.162 302.495,326.662 308,332.5C 312.333,339.833 316.667,347.167 321,354.5C 322.248,362.796 321.248,370.796 318,378.5C 312.651,387.877 306.818,396.877 300.5,405.5C 302.259,378.186 291.259,357.686 267.5,344C 247.309,340.175 230.809,346.341 218,362.5C 213.818,368.199 210.152,374.199 207,380.5C 203.492,363.884 206.159,348.217 215,333.5C 219.456,327.375 224.289,321.542 229.5,316C 237.041,311.217 245.041,307.717 253.5,305.5 Z"/></g>
<g><path style="opacity:1" fill="#1b1b1b" d="M 328.5,359.5 C 328.735,358.903 329.235,358.57 330,358.5C 339.985,363.606 350.485,367.106 361.5,369C 366.5,369.667 371.5,369.667 376.5,369C 384.799,366.081 393.133,365.414 401.5,367C 406.883,376.063 406.217,384.729 399.5,393C 389.58,396.899 381.247,394.566 374.5,386C 370.619,382.357 366.285,381.69 361.5,384C 358.462,386.703 355.795,389.703 353.5,393C 348.411,393.826 343.411,393.492 338.5,392C 336.951,390.786 335.785,389.286 335,387.5C 332.764,379.317 331.43,370.984 331,362.5C 330.623,361.058 329.79,360.058 328.5,359.5 Z"/></g>

        
<g><path style="opacity:0.993" fill="#20201e" d="M 591.5,350.5 C 590.89,349.609 590.557,348.609 590.5,347.5C 598.093,347.538 604.593,350.538 610,356.5C 612.002,361.007 613.502,365.674 614.5,370.5C 614.02,374.293 612.353,377.46 609.5,380C 604.5,382.333 599.5,384.667 594.5,387C 582.992,386.084 571.492,384.917 560,383.5C 549.575,383.44 539.575,385.44 530,389.5C 529.099,405.656 527.099,421.656 524,437.5C 515.846,455.806 507.18,473.806 498,491.5C 496.381,493.772 494.548,495.772 492.5,497.5C 491.558,497.392 490.725,497.059 490,496.5C 490.124,476.86 487.791,457.527 483,438.5C 480.491,430.264 476.491,422.931 471,416.5C 465.075,419.213 459.241,422.046 453.5,425C 421.871,432.862 390.038,434.695 358,430.5C 338.546,433.337 319.379,432.004 300.5,426.5C 296.372,429.29 293.372,432.957 291.5,437.5C 286.174,448.647 282.34,460.313 280,472.5C 279.983,480.544 279.816,488.544 279.5,496.5C 278.448,498.256 276.781,498.923 274.5,498.5C 263.666,480.855 255.833,461.855 251,441.5C 248.471,427.539 249.971,414.039 255.5,401C 246.898,396.699 237.898,393.532 228.5,391.5C 218.197,392.724 207.863,393.224 197.5,393C 182.147,389.146 173.647,379.313 172,363.5C 171.333,358.833 171.333,354.167 172,349.5C 172.036,347.059 172.869,345.059 174.5,343.5C 175.086,343.709 175.586,344.043 176,344.5C 175.529,355.347 177.529,365.681 182,375.5C 187.543,382.974 195.043,386.974 204.5,387.5C 232.498,383.446 257.164,390.613 278.5,409C 291.714,416.182 305.714,421.182 320.5,424C 344.953,424.754 369.453,425.587 394,426.5C 413.476,426.449 432.642,423.949 451.5,419C 468.5,410 485.5,401 502.5,392C 517.586,386.527 532.92,381.86 548.5,378C 556.5,377.333 564.5,377.333 572.5,378C 579.063,379.986 585.73,380.986 592.5,381C 596.749,378.806 601.082,376.806 605.5,375C 606.872,373.758 607.872,372.258 608.5,370.5C 607.098,366.461 605.598,362.461 604,358.5C 599.684,355.934 595.517,353.267 591.5,350.5 Z"/></g>
<g><path style="opacity:0.408" fill="#9b9b93" d="M 590.5,347.5 C 590.557,348.609 590.89,349.609 591.5,350.5C 589.448,349.947 589.115,348.947 590.5,347.5 Z"/></g>
<g><path style="opacity:1" fill="#f3f2e5" d="M 523.5,390.5 C 524.649,390.791 525.316,391.624 525.5,393C 523.612,406.547 521.446,420.047 519,433.5C 511.787,450.924 503.787,467.924 495,484.5C 495.151,468.559 493.151,452.892 489,437.5C 485.392,429.112 480.892,421.278 475.5,414C 481.968,408.926 488.968,404.593 496.5,401C 505.492,397.175 514.492,393.675 523.5,390.5 Z"/></g>
<g><path style="opacity:1" fill="#f3f2e5" d="M 259.5,403.5 C 270.581,412.379 282.915,419.212 296.5,424C 280.894,441.812 273.394,462.645 274,486.5C 266.227,471.515 260.227,455.848 256,439.5C 254.469,427.135 255.636,415.135 259.5,403.5 Z"/></g>
<g><path style="opacity:0.751" fill="#e9e8dc" d="M 300.5,426.5 C 300.046,432.284 297.046,435.951 291.5,437.5C 293.372,432.957 296.372,429.29 300.5,426.5 Z"/></g>
<g><path style="opacity:0.796" fill="#62625d" d="M 279.5,496.5 C 280.404,497.209 280.737,498.209 280.5,499.5C 278.265,499.795 276.265,499.461 274.5,498.5C 276.781,498.923 278.448,498.256 279.5,496.5 Z"/></g>

        
<g><path style="opacity:0.995" fill="#1c1c1b" d="M 307.5,214.5 C 308.002,216.085 309.002,216.585 310.5,216C 309.934,215.005 309.267,214.172 308.5,213.5C 299.902,191.41 300.736,169.743 311,148.5C 322.522,132.273 327.855,133.94 327,153.5C 327.714,156.595 328.714,159.595 330,162.5C 335.333,171.167 340.667,179.833 346,188.5C 341.215,161.413 349.049,138.913 369.5,121C 370.793,120.51 372.127,120.343 373.5,120.5C 374.829,127.793 375.995,135.127 377,142.5C 380.222,149.499 382.222,156.833 383,164.5C 385.41,170.318 388.077,175.985 391,181.5C 397.794,189.963 404.961,198.13 412.5,206C 415.772,207.608 418.772,209.608 421.5,212C 431.547,215.509 441.88,217.842 452.5,219C 453.846,221.794 453.346,224.294 451,226.5C 428.926,226.652 407.76,231.152 387.5,240C 377.184,246.129 370.351,254.962 367,266.5C 358.544,273.768 348.71,277.934 337.5,279C 289.856,282.691 268.69,260.858 274,213.5C 276.226,202.052 280.393,191.385 286.5,181.5C 287.651,180.269 288.817,180.269 290,181.5C 292.172,194.514 298.005,205.514 307.5,214.5 Z"/></g>
<g><path style="opacity:1" fill="#dcdbce" d="M 371.5,145.5 C 370.883,145.611 370.383,145.944 370,146.5C 369.751,145.376 369.251,144.376 368.5,143.5C 363.262,150.262 360.095,157.929 359,166.5C 358.389,179.845 358.556,193.178 359.5,206.5C 352.856,206.243 346.523,204.743 340.5,202C 332.86,191.218 325.86,180.051 319.5,168.5C 315.654,173.496 314.488,179.162 316,185.5C 318.255,198.521 321.755,211.188 326.5,223.5C 325.696,225.136 324.696,226.636 323.5,228C 318.833,228.667 314.167,228.667 309.5,228C 302.456,224.596 295.456,221.096 288.5,217.5C 287.122,224.294 287.622,230.96 290,237.5C 293.412,244.658 297.078,251.658 301,258.5C 305.31,262.645 309.477,266.978 313.5,271.5C 318.11,272.493 322.777,273.16 327.5,273.5C 301.094,275.527 284.927,263.527 279,237.5C 276.762,221.795 279.596,207.129 287.5,193.5C 291.671,203.845 298.004,212.678 306.5,220C 310.275,222.351 313.608,221.851 316.5,218.5C 313.264,213.631 311.097,208.297 310,202.5C 307.722,190.183 307.388,177.85 309,165.5C 311.037,157.755 314.87,151.088 320.5,145.5C 322.091,155.767 325.591,165.434 331,174.5C 335.454,179.628 339.121,185.295 342,191.5C 344.247,194.509 346.581,194.842 349,192.5C 349.899,181.514 350.566,170.514 351,159.5C 353.401,147.369 359.401,137.369 369,129.5C 370.234,134.767 371.067,140.1 371.5,145.5 Z"/></g>
<g><path style="opacity:1" fill="#f5f4e7" d="M 371.5,145.5 C 374.821,152.817 376.987,160.484 378,168.5C 380,173.167 382,177.833 384,182.5C 389.814,188.802 395.147,195.468 400,202.5C 410.041,214.534 422.875,221.367 438.5,223C 418.956,223.801 400.623,228.801 383.5,238C 379.033,241.465 374.867,245.298 371,249.5C 370.055,245.886 369.388,242.219 369,238.5C 368.311,237.643 367.478,236.977 366.5,236.5C 365.669,243.476 365.169,250.476 365,257.5C 364.3,261.066 362.467,263.9 359.5,266C 349.492,271.336 338.825,273.836 327.5,273.5C 322.777,273.16 318.11,272.493 313.5,271.5C 309.477,266.978 305.31,262.645 301,258.5C 297.078,251.658 293.412,244.658 290,237.5C 287.622,230.96 287.122,224.294 288.5,217.5C 295.456,221.096 302.456,224.596 309.5,228C 314.167,228.667 318.833,228.667 323.5,228C 324.696,226.636 325.696,225.136 326.5,223.5C 321.755,211.188 318.255,198.521 316,185.5C 314.488,179.162 315.654,173.496 319.5,168.5C 325.86,180.051 332.86,191.218 340.5,202C 346.523,204.743 352.856,206.243 359.5,206.5C 358.556,193.178 358.389,179.845 359,166.5C 360.095,157.929 363.262,150.262 368.5,143.5C 369.251,144.376 369.751,145.376 370,146.5C 370.383,145.944 370.883,145.611 371.5,145.5 Z"/></g>
<g><path style="opacity:1" fill="#84847d" d="M 308.5,213.5 C 309.267,214.172 309.934,215.005 310.5,216C 309.002,216.585 308.002,216.085 307.5,214.5C 308.167,214.5 308.5,214.167 308.5,213.5 Z"/></g>

    </svg>
