
    <svg width="862" height="862" viewBox="0 0 862 862" fill="none" xmlns="http://www.w3.org/2000/svg">
        
<g><path style="opacity:1" fill="#f6f6e8" d="M -0.5,-0.5 C 286.833,-0.5 574.167,-0.5 861.5,-0.5C 861.5,286.833 861.5,574.167 861.5,861.5C 574.167,861.5 286.833,861.5 -0.5,861.5C -0.5,574.167 -0.5,286.833 -0.5,-0.5 Z"/></g>

        
        
<g><path style="opacity:0.997" fill="#1a1918" d="M 608.5,271.5 C 609.906,271.027 610.573,270.027 610.5,268.5C 614.234,264.12 618.901,260.953 624.5,259C 636.122,256.679 647.122,252.679 657.5,247C 667.385,239.172 670.052,229.339 665.5,217.5C 660.121,218.006 654.787,218.839 649.5,220C 635.894,224.954 623.227,231.62 611.5,240C 600.368,249.464 589.534,259.297 579,269.5C 573.788,285.037 563.288,290.537 547.5,286C 525.22,283.693 504.886,276.359 486.5,264C 473.295,251.722 467.128,236.555 468,218.5C 469.427,213.878 471.427,209.545 474,205.5C 492.341,185.818 513.507,169.984 537.5,158C 565.391,143.687 594.724,139.354 625.5,145C 640.042,149.07 654.375,153.736 668.5,159C 683.409,166.586 696.576,176.42 708,188.5C 718.19,206.416 718.69,224.749 709.5,243.5C 702.685,251.482 695.685,259.316 688.5,267C 694.886,266.122 701.386,265.622 708,265.5C 728.859,265.361 738.193,275.695 736,296.5C 734.014,307.802 729.348,317.802 722,326.5C 717.175,332.254 711.175,334.921 704,334.5C 703.126,331.997 703.793,329.997 706,328.5C 709.498,317.808 707.998,307.808 701.5,298.5C 698.574,296.921 695.407,295.921 692,295.5C 688.197,296.461 684.364,297.294 680.5,298C 671.181,302.329 661.514,305.662 651.5,308C 639.733,310.294 628.066,309.961 616.5,307C 597.907,298.41 595.24,286.577 608.5,271.5 Z"/></g>
<g><path style="opacity:1" fill="#f5f4e7" d="M 672.5,210.5 C 669.145,210.909 666.145,210.242 663.5,208.5C 660.471,206.628 658.305,203.961 657,200.5C 654.989,195.302 653.489,189.969 652.5,184.5C 651.914,184.709 651.414,185.043 651,185.5C 650.784,192.965 652.617,199.965 656.5,206.5C 657.852,207.524 659.185,208.524 660.5,209.5C 643.807,212.36 626.807,215.027 609.5,217.5C 599.37,208.91 593.704,197.91 592.5,184.5C 591.914,184.709 591.414,185.043 591,185.5C 590.249,190.572 590.582,195.572 592,200.5C 595.603,207.257 599.77,213.591 604.5,219.5C 597.75,220.873 591.416,223.373 585.5,227C 578.443,231.521 571.443,236.021 564.5,240.5C 559.969,238.478 556.136,235.478 553,231.5C 548.605,225.434 544.605,219.1 541,212.5C 540.626,210.102 540.626,207.769 541,205.5C 539.989,204.663 538.822,204.33 537.5,204.5C 537.21,208.936 537.71,213.27 539,217.5C 543.667,224.167 548.333,230.833 553,237.5C 555.713,239.72 558.546,241.72 561.5,243.5C 557.975,247.183 553.975,250.35 549.5,253C 542.183,259.143 536.183,266.31 531.5,274.5C 530.675,275.386 529.675,275.719 528.5,275.5C 511.096,272.654 496.263,264.987 484,252.5C 475.993,241.813 472.659,229.813 474,216.5C 478.709,208.785 484.542,201.951 491.5,196C 518.182,171.325 549.516,155.659 585.5,149C 600.447,147.517 615.113,148.85 629.5,153C 641.637,156.601 653.637,160.601 665.5,165C 678.449,171.949 690.282,180.449 701,190.5C 708.852,201.577 711.852,213.91 710,227.5C 705.833,223.333 701.667,219.167 697.5,215C 689.45,211.89 681.116,210.39 672.5,210.5 Z"/></g>
<g><path style="opacity:0.997" fill="#1a1a19" d="M 112.5,314.5 C 112.5,315.5 112.5,316.5 112.5,317.5C 110.833,317.5 109.167,317.5 107.5,317.5C 93.0443,315.87 82.211,308.87 75,296.5C 74.3333,289.833 74.3333,283.167 75,276.5C 78.8445,267.16 85.0112,259.827 93.5,254.5C 80.7205,242.664 77.5539,228.664 84,212.5C 113.08,174.018 151.58,158.852 199.5,167C 239.52,172.709 270.353,192.543 292,226.5C 294,233.167 294,239.833 292,246.5C 287.692,260.783 281.026,273.783 272,285.5C 262.038,293.783 250.872,299.949 238.5,304C 232.845,304.819 227.345,304.319 222,302.5C 221.424,300.623 221.591,298.789 222.5,297C 218.747,289.407 215.58,281.573 213,273.5C 203.563,260.398 193.063,248.231 181.5,237C 167.625,227.703 152.625,220.703 136.5,216C 132.833,215.333 129.167,215.333 125.5,216C 122.528,217.141 120.861,219.308 120.5,222.5C 122.316,224.817 124.316,226.984 126.5,229C 134.833,232.667 143.167,236.333 151.5,240C 161.408,247.205 171.575,254.038 182,260.5C 188.153,269.822 187.986,278.989 181.5,288C 171.767,294.339 161.434,295.339 150.5,291C 143.153,288.657 135.819,286.323 128.5,284C 114.435,281.747 107.602,287.58 108,301.5C 109.012,306.038 110.512,310.371 112.5,314.5 Z"/></g>
<g><path style="opacity:1" fill="#f5f4e7" d="M 280.5,260.5 C 270.675,263.291 260.675,264.791 250.5,265C 245.566,260.574 241.233,255.74 237.5,250.5C 240.477,245.326 243.311,239.992 246,234.5C 247.33,226.227 247.83,217.893 247.5,209.5C 245.876,209.36 244.71,210.027 244,211.5C 245.234,224.956 241.734,236.956 233.5,247.5C 220.547,237.679 206.547,229.346 191.5,222.5C 190.614,221.675 190.281,220.675 190.5,219.5C 193.426,209.702 194.593,199.702 194,189.5C 192.667,188.167 191.333,188.167 190,189.5C 190.117,199.792 188.617,209.792 185.5,219.5C 174.015,215.01 162.681,210.344 151.5,205.5C 151.665,202.482 151.498,199.482 151,196.5C 149.989,195.663 148.822,195.33 147.5,195.5C 147.5,197.5 147.5,199.5 147.5,201.5C 146.596,202.209 146.263,203.209 146.5,204.5C 132.782,200.557 118.782,198.557 104.5,198.5C 110.013,192.824 116.013,187.658 122.5,183C 142.278,172.792 163.278,168.792 185.5,171C 206.853,172.008 226.853,177.675 245.5,188C 261.913,198.412 275.747,211.579 287,227.5C 287.667,232.167 287.667,236.833 287,241.5C 284.933,247.867 282.766,254.201 280.5,260.5 Z"/></g>
<g><path style="opacity:1" fill="#111110" d="M 663.5,208.5 C 662.791,209.404 661.791,209.737 660.5,209.5C 659.185,208.524 657.852,207.524 656.5,206.5C 652.617,199.965 650.784,192.965 651,185.5C 651.414,185.043 651.914,184.709 652.5,184.5C 653.489,189.969 654.989,195.302 657,200.5C 658.305,203.961 660.471,206.628 663.5,208.5 Z"/></g>
<g><path style="opacity:1" fill="#c3c2b3" d="M 104.5,198.5 C 118.782,198.557 132.782,200.557 146.5,204.5C 146.263,203.209 146.596,202.209 147.5,201.5C 147.453,204.568 146.953,207.568 146,210.5C 145.481,211.516 144.647,212.182 143.5,212.5C 138.371,210.402 133.038,209.235 127.5,209C 116.113,208.401 104.78,208.401 93.5,209C 96.3981,204.6 100.065,201.1 104.5,198.5 Z"/></g>
<g><path style="opacity:1" fill="#121211" d="M 564.5,240.5 C 568.956,242.892 573.623,245.058 578.5,247C 580.559,248.185 580.726,249.352 579,250.5C 573.178,248.061 567.344,245.728 561.5,243.5C 558.546,241.72 555.713,239.72 553,237.5C 548.333,230.833 543.667,224.167 539,217.5C 537.71,213.27 537.21,208.936 537.5,204.5C 538.822,204.33 539.989,204.663 541,205.5C 540.626,207.769 540.626,210.102 541,212.5C 544.605,219.1 548.605,225.434 553,231.5C 556.136,235.478 559.969,238.478 564.5,240.5 Z"/></g>
<g><path style="opacity:1" fill="#c4c3b4" d="M 151.5,205.5 C 162.681,210.344 174.015,215.01 185.5,219.5C 185.047,225.124 182.047,227.624 176.5,227C 168.001,221.777 159.001,217.61 149.5,214.5C 149.167,214.167 148.833,213.833 148.5,213.5C 149.516,210.718 150.516,208.051 151.5,205.5 Z"/></g>
<g><path style="opacity:1" fill="#c3c2b4" d="M 663.5,208.5 C 666.145,210.242 669.145,210.909 672.5,210.5C 665.694,211.986 658.694,213.153 651.5,214C 640.966,217.731 630.8,222.231 621,227.5C 616.323,224.98 612.489,221.646 609.5,217.5C 626.807,215.027 643.807,212.36 660.5,209.5C 661.791,209.737 662.791,209.404 663.5,208.5 Z"/></g>
<g><path style="opacity:1" fill="#c3c2b3" d="M 116.5,251.5 C 117.552,251.649 118.552,251.483 119.5,251C 114.94,246.806 110.106,242.972 105,239.5C 97.7149,232.169 95.5482,223.502 98.5,213.5C 105.443,212.206 112.443,212.206 119.5,213.5C 113.851,219.742 114.184,225.576 120.5,231C 129.77,236.468 139.436,241.135 149.5,245C 155.087,248.71 160.587,252.543 166,256.5C 167.033,259.217 166.2,261.051 163.5,262C 159.5,262.667 155.5,262.667 151.5,262C 140.041,257.391 128.375,253.891 116.5,251.5 Z"/></g>
<g><path style="opacity:1" fill="#f1f0e3" d="M 98.5,213.5 C 95.5482,223.502 97.7149,232.169 105,239.5C 110.106,242.972 114.94,246.806 119.5,251C 118.552,251.483 117.552,251.649 116.5,251.5C 111.103,251.215 105.77,251.549 100.5,252.5C 88.1962,243.886 83.6962,232.219 87,217.5C 90.244,214.695 94.0773,213.362 98.5,213.5 Z"/></g>
<g><path style="opacity:1" fill="#c4c3b4" d="M 698.5,223.5 C 694.809,229.874 691.309,236.541 688,243.5C 677.761,256.912 665.261,267.579 650.5,275.5C 644.757,277.121 639.09,276.621 633.5,274C 630.019,270.603 629.686,266.936 632.5,263C 644.393,260.469 655.226,255.635 665,248.5C 672.653,239.202 674.487,228.868 670.5,217.5C 680.931,215.051 690.264,217.051 698.5,223.5 Z"/></g>
<g><path style="opacity:1" fill="#c5c4b5" d="M 604.5,219.5 C 607.944,223.061 611.944,225.894 616.5,228C 617.451,228.718 617.617,229.551 617,230.5C 603.258,240.55 590.258,251.55 578,263.5C 574.501,267.672 571.834,272.338 570,277.5C 568.5,279 567,280.5 565.5,282C 552.856,281.116 540.523,278.949 528.5,275.5C 529.675,275.719 530.675,275.386 531.5,274.5C 536.183,266.31 542.183,259.143 549.5,253C 553.975,250.35 557.975,247.183 561.5,243.5C 567.344,245.728 573.178,248.061 579,250.5C 580.726,249.352 580.559,248.185 578.5,247C 573.623,245.058 568.956,242.892 564.5,240.5C 571.443,236.021 578.443,231.521 585.5,227C 591.416,223.373 597.75,220.873 604.5,219.5 Z"/></g>
<g><path style="opacity:1" fill="#c5c4b5" d="M 190.5,219.5 C 190.281,220.675 190.614,221.675 191.5,222.5C 206.547,229.346 220.547,237.679 233.5,247.5C 229.227,257.713 221.727,262.046 211,260.5C 203.413,249.577 194.413,239.91 184,231.5C 186.381,227.746 188.548,223.746 190.5,219.5 Z"/></g>
<g><path style="opacity:1" fill="#f2f1e4" d="M 698.5,223.5 C 700.928,225.492 703.094,227.825 705,230.5C 705.667,233.5 705.667,236.5 705,239.5C 697.537,250.928 688.371,260.762 677.5,269C 668.563,271.48 659.563,273.647 650.5,275.5C 665.261,267.579 677.761,256.912 688,243.5C 691.309,236.541 694.809,229.874 698.5,223.5 Z"/></g>
<g><path style="opacity:1" fill="#c4c3b4" d="M 237.5,250.5 C 241.233,255.74 245.566,260.574 250.5,265C 260.675,264.791 270.675,263.291 280.5,260.5C 277.146,269.373 272.146,277.207 265.5,284C 258.833,288 252.167,292 245.5,296C 240.09,298.382 234.424,299.549 228.5,299.5C 228.322,296.784 227.822,294.117 227,291.5C 223.518,285.533 220.851,279.199 219,272.5C 217.224,269.059 215.057,265.892 212.5,263C 215.652,264.186 218.985,264.519 222.5,264C 228.967,261.028 233.967,256.528 237.5,250.5 Z"/></g>
<g><path style="opacity:1" fill="#f2f1e4" d="M 179.5,268.5 C 179.586,269.496 179.252,270.329 178.5,271C 174.296,273.231 170.129,275.398 166,277.5C 156.192,275.256 146.358,273.09 136.5,271C 117.41,267.132 103.244,273.632 94,290.5C 93.3333,294.5 93.3333,298.5 94,302.5C 94.2735,304.329 95.1068,305.829 96.5,307C 96.2716,307.399 95.9382,307.565 95.5,307.5C 80.9751,302.451 75.9751,292.451 80.5,277.5C 83.2109,281.212 86.5442,284.212 90.5,286.5C 91.5827,285.635 91.7494,284.635 91,283.5C 86.2333,280.291 83.8999,275.958 84,270.5C 87.8,264.533 92.9666,260.2 99.5,257.5C 100.367,260.935 101.534,264.268 103,267.5C 104.808,269.843 106.974,270.51 109.5,269.5C 105.328,266.152 103.661,261.819 104.5,256.5C 120.16,257.132 135.16,260.632 149.5,267C 158.355,268.992 166.189,267.159 173,261.5C 176.716,262.432 178.883,264.766 179.5,268.5 Z"/></g>
<g><path style="opacity:1" fill="#f2f1e4" d="M 680.5,284.5 C 669.924,285.417 659.59,287.584 649.5,291C 639.167,291.667 628.833,291.667 618.5,291C 615.833,289 613.167,287 610.5,285C 609.177,284.184 608.511,283.017 608.5,281.5C 611.821,273.346 617.655,267.68 626,264.5C 626.886,277.057 633.719,282.723 646.5,281.5C 659.093,278.648 671.76,276.314 684.5,274.5C 683.752,278.006 682.419,281.34 680.5,284.5 Z"/></g>
<g><path style="opacity:0.529" fill="#83837c" d="M 610.5,268.5 C 610.573,270.027 609.906,271.027 608.5,271.5C 608.427,269.973 609.094,268.973 610.5,268.5 Z"/></g>
<g><path style="opacity:1" fill="#c4c3b4" d="M 179.5,268.5 C 182.568,274.585 181.568,280.085 176.5,285C 170.388,287.414 164.054,288.081 157.5,287C 148.3,284.933 139.3,282.266 130.5,279C 125.5,278.333 120.5,278.333 115.5,279C 106.346,282.815 102.18,289.649 103,299.5C 103.568,303.537 104.735,307.37 106.5,311C 102.324,311.33 98.6574,310.163 95.5,307.5C 95.9382,307.565 96.2716,307.399 96.5,307C 95.1068,305.829 94.2735,304.329 94,302.5C 93.3333,298.5 93.3333,294.5 94,290.5C 103.244,273.632 117.41,267.132 136.5,271C 146.358,273.09 156.192,275.256 166,277.5C 170.129,275.398 174.296,273.231 178.5,271C 179.252,270.329 179.586,269.496 179.5,268.5 Z"/></g>
<g><path style="opacity:1" fill="#f2f1e5" d="M 716.5,323.5 C 722.189,298.325 711.856,284.991 685.5,283.5C 686.279,279.702 687.613,276.202 689.5,273C 698.787,271.517 708.121,271.184 717.5,272C 720.329,273.247 722.995,274.747 725.5,276.5C 725.887,278.731 726.053,281.064 726,283.5C 727.512,281.043 728.846,281.043 730,283.5C 731.164,298.842 726.664,312.175 716.5,323.5 Z"/></g>
<g><path style="opacity:1" fill="#c4c3b4" d="M 608.5,281.5 C 608.511,283.017 609.177,284.184 610.5,285C 613.167,287 615.833,289 618.5,291C 628.833,291.667 639.167,291.667 649.5,291C 659.59,287.584 669.924,285.417 680.5,284.5C 680.735,285.097 681.235,285.43 682,285.5C 683.303,285.022 684.469,284.355 685.5,283.5C 711.856,284.991 722.189,298.325 716.5,323.5C 715.165,325.903 713.498,327.236 711.5,327.5C 714.582,317.057 713.415,307.057 708,297.5C 706.833,295 705,293.167 702.5,292C 689.111,289.341 676.445,291.341 664.5,298C 651.228,302.848 637.561,304.515 623.5,303C 617.013,301.508 611.513,298.341 607,293.5C 604.727,289.059 605.227,285.059 608.5,281.5 Z"/></g>
<g><path style="opacity:0.749" fill="#63635d" d="M 112.5,314.5 C 113.434,315.568 113.768,316.901 113.5,318.5C 111.265,318.795 109.265,318.461 107.5,317.5C 109.167,317.5 110.833,317.5 112.5,317.5C 112.5,316.5 112.5,315.5 112.5,314.5 Z"/></g>

        
<g><path style="opacity:0.999" fill="#1d1a17" d="M 567.5,264.5 C 567.427,266.027 568.094,267.027 569.5,267.5C 570.833,268.167 571.833,269.167 572.5,270.5C 572.427,272.027 573.094,273.027 574.5,273.5C 576.786,276.463 578.619,279.796 580,283.5C 581.333,288.167 582.667,292.833 584,297.5C 600.968,293.905 616.801,296.738 631.5,306C 657.957,323.456 680.123,345.29 698,371.5C 700.529,375.926 702.362,380.592 703.5,385.5C 703.41,388.152 704.076,390.485 705.5,392.5C 706.37,394.032 706.036,395.532 704.5,397C 701.814,398.368 699.147,399.701 696.5,401C 687.337,403.06 678.337,403.893 669.5,403.5C 671.81,407.254 673.643,411.254 675,415.5C 676.619,423.927 678.619,432.26 681,440.5C 682.454,454.02 679.787,466.687 673,478.5C 663.749,491.086 652.582,501.586 639.5,510C 630.893,513.302 622.893,517.635 615.5,523C 597.029,529.157 579.029,536.491 561.5,545C 545.683,550.606 529.683,555.606 513.5,560C 527.668,574.176 543.001,586.843 559.5,598C 576.758,613.656 588.591,632.823 595,655.5C 600.246,671.481 603.746,687.814 605.5,704.5C 615.856,702.179 626.356,700.846 637,700.5C 653.9,703.09 670.9,704.757 688,705.5C 707.617,704.722 725.784,699.222 742.5,689C 757.923,678.567 772.423,667.067 786,654.5C 787.653,654.82 788.653,655.82 789,657.5C 790.41,661.976 791.577,666.476 792.5,671C 792.058,695.003 785.891,717.503 774,738.5C 761.43,755.698 744.596,766.531 723.5,771C 714.162,773.335 704.828,775.668 695.5,778C 672.316,777.979 649.649,781.312 627.5,788C 631.324,793.922 636.657,797.922 643.5,800C 646.319,802.72 645.986,805.053 642.5,807C 635.644,812.007 627.978,814.507 619.5,814.5C 615.167,814.5 610.833,814.5 606.5,814.5C 606.263,815.791 606.596,816.791 607.5,817.5C 609.143,819.708 608.81,821.541 606.5,823C 599.093,824.492 591.593,825.325 584,825.5C 570.833,824.357 557.666,823.19 544.5,822C 528.753,817.882 515.253,810.049 504,798.5C 495.911,789.336 489.577,779.003 485,767.5C 473.056,772.575 460.556,774.908 447.5,774.5C 441.513,773.858 435.513,773.358 429.5,773C 427,772.625 424.667,771.792 422.5,770.5C 418.78,774.733 415.613,779.4 413,784.5C 396.732,800.487 377.065,808.487 354,808.5C 349.103,808.068 344.269,807.234 339.5,806C 337.709,805.585 336.376,804.585 335.5,803C 338.138,800.346 341.138,798.18 344.5,796.5C 345.973,795.928 347.307,795.095 348.5,794C 346.609,793.797 344.943,794.297 343.5,795.5C 334.515,796.911 325.515,796.744 316.5,795C 304.562,791.925 299.562,784.425 301.5,772.5C 312.272,769.781 321.939,764.947 330.5,758C 319.87,750.041 313.37,739.541 311,726.5C 307.602,710.123 307.769,693.789 311.5,677.5C 312.793,675.636 312.793,673.636 311.5,671.5C 310.893,671.624 310.56,671.957 310.5,672.5C 309.013,673.804 307.346,674.97 305.5,676C 298.059,677.01 291.059,675.843 284.5,672.5C 275.52,664.574 271.187,654.574 271.5,642.5C 272.908,618.525 282.242,598.358 299.5,582C 310.392,573.408 322.392,571.241 335.5,575.5C 336.947,576.885 337.947,576.552 338.5,574.5C 338.433,573.041 338.766,571.708 339.5,570.5C 340.757,569.377 340.424,568.711 338.5,568.5C 326.038,567.642 313.704,565.808 301.5,563C 279.858,557.675 258.525,551.341 237.5,544C 217.724,535.619 199.39,524.952 182.5,512C 179.629,509.297 176.962,506.464 174.5,503.5C 174.027,502.094 173.027,501.427 171.5,501.5C 155.808,488.291 146.475,471.458 143.5,451C 144.485,443.505 144.985,436.005 145,428.5C 139.772,431.396 134.272,432.062 128.5,430.5C 127.063,426.472 126.397,422.305 126.5,418C 128.512,388.142 139.012,361.642 158,338.5C 167.466,327.852 178.966,320.352 192.5,316C 198.537,315.303 204.537,315.47 210.5,316.5C 212.5,305.171 217.167,295.171 224.5,286.5C 225.906,286.027 226.573,285.027 226.5,283.5C 228.616,277.549 231.783,272.215 236,267.5C 246.355,255.578 258.188,245.412 271.5,237C 347.364,211.021 424.364,207.021 502.5,225C 512.956,228.227 522.956,232.56 532.5,238C 541.167,244.671 550.501,250.338 560.5,255C 562.476,258.463 564.81,261.63 567.5,264.5 Z"/></g>
<g><path style="opacity:1" fill="#bf8c29" d="M 689.5,369.5 C 691.799,386.029 684.799,393.529 668.5,392C 660.466,390.429 652.799,388.096 645.5,385C 648,386.833 650.5,388.667 653,390.5C 653.6,392.91 654.766,394.91 656.5,396.5C 658.725,400.235 661.558,403.568 665,406.5C 667.332,409.822 668.498,413.489 668.5,417.5C 664.857,445.287 652.857,468.787 632.5,488C 608.86,506.157 582.86,520.157 554.5,530C 532.28,535.789 510.28,542.123 488.5,549C 473.872,551.542 459.206,553.875 444.5,556C 436.649,556.284 428.816,556.784 421,557.5C 403.515,557.036 386.015,556.869 368.5,557C 353.791,555.323 339.125,553.323 324.5,551C 294.282,542.816 264.615,532.816 235.5,521C 223.215,515.191 211.215,508.858 199.5,502C 188.352,493.999 177.852,485.166 168,475.5C 163.667,469.833 159.333,464.167 155,458.5C 152.079,451.45 150.912,444.117 151.5,436.5C 153.967,428.619 154.967,420.619 154.5,412.5C 153.817,412.863 153.15,413.196 152.5,413.5C 148.453,418.44 143.286,421.44 137,422.5C 134.013,422.01 132.18,420.343 131.5,417.5C 133.163,407.851 134.663,398.185 136,388.5C 142.627,371.901 151.294,356.568 162,342.5C 172.461,330.184 185.628,322.85 201.5,320.5C 205.844,320.786 210.177,321.12 214.5,321.5C 215.279,315.66 216.779,309.993 219,304.5C 225.064,295.43 230.731,286.097 236,276.5C 248.038,261.454 262.205,248.954 278.5,239C 326.471,224.712 375.471,218.045 425.5,219C 444.678,222.103 464.012,224.77 483.5,227C 499.944,229.148 515.277,234.481 529.5,243C 538.665,249.084 547.998,254.917 557.5,260.5C 569.837,272.665 577.337,287.332 580,304.5C 582.319,310.473 585.653,315.807 590,320.5C 590.167,320 590.333,319.5 590.5,319C 588.062,313.631 586.062,308.131 584.5,302.5C 592.798,301.426 601.132,301.26 609.5,302C 616.404,304.451 623.07,307.451 629.5,311C 646.183,323.008 661.683,336.508 676,351.5C 680.717,357.377 685.217,363.377 689.5,369.5 Z"/></g>
<g><path style="opacity:0.925" fill="#7c7b7f" d="M 567.5,264.5 C 568.906,264.973 569.573,265.973 569.5,267.5C 568.094,267.027 567.427,266.027 567.5,264.5 Z"/></g>
<g><path style="opacity:0.792" fill="#7c7b80" d="M 572.5,270.5 C 573.906,270.973 574.573,271.973 574.5,273.5C 573.094,273.027 572.427,272.027 572.5,270.5 Z"/></g>
<g><path style="opacity:0.737" fill="#7d7c81" d="M 226.5,283.5 C 226.573,285.027 225.906,286.027 224.5,286.5C 224.427,284.973 225.094,283.973 226.5,283.5 Z"/></g>
<g><path style="opacity:1" fill="#0f0d0a" d="M 618.5,337.5 C 624.632,343.789 631.299,349.623 638.5,355C 649.79,362.609 661.79,368.943 674.5,374C 677.242,375.886 678.909,378.386 679.5,381.5C 673.457,380.485 667.79,378.318 662.5,375C 649.168,367.333 636.668,358.499 625,348.5C 623,345.833 621,343.167 619,340.5C 618.517,339.552 618.351,338.552 618.5,337.5 Z"/></g>
<g><path style="opacity:1" fill="#927623" d="M 689.5,369.5 C 695.393,376.932 698.726,385.265 699.5,394.5C 690.168,398.106 680.502,399.273 670.5,398C 665.664,396.734 660.998,395.234 656.5,393.5C 656.5,394.5 656.5,395.5 656.5,396.5C 654.766,394.91 653.6,392.91 653,390.5C 650.5,388.667 648,386.833 645.5,385C 652.799,388.096 660.466,390.429 668.5,392C 684.799,393.529 691.799,386.029 689.5,369.5 Z"/></g>
<g><path style="opacity:1" fill="#0f0d09" d="M 147.5,382.5 C 148.993,383.312 149.66,384.645 149.5,386.5C 148.225,393.816 147.058,401.15 146,408.5C 144.374,411.128 142.374,413.461 140,415.5C 141.16,404.203 143.66,393.203 147.5,382.5 Z"/></g>
<g><path style="opacity:0.902" fill="#646366" d="M 703.5,385.5 C 704.924,387.515 705.59,389.848 705.5,392.5C 704.076,390.485 703.41,388.152 703.5,385.5 Z"/></g>
<g><path style="opacity:1" fill="#907524" d="M 152.5,413.5 C 151.147,417.032 149.147,420.199 146.5,423C 142.539,424.598 138.539,426.098 134.5,427.5C 132.024,424.717 131.024,421.384 131.5,417.5C 132.18,420.343 134.013,422.01 137,422.5C 143.286,421.44 148.453,418.44 152.5,413.5 Z"/></g>
<g><path style="opacity:1" fill="#907522" d="M 668.5,417.5 C 669.586,417.62 670.253,418.287 670.5,419.5C 671.519,426.451 673.353,433.117 676,439.5C 677.41,455.767 672.91,470.101 662.5,482.5C 657.167,487.167 652.167,492.167 647.5,497.5C 636.091,503.71 624.757,510.21 613.5,517C 594.16,523.003 575.493,530.67 557.5,540C 544.961,543.68 532.627,547.846 520.5,552.5C 486.035,561.537 450.868,566.537 415,567.5C 386.539,565.485 358.039,563.985 329.5,563C 288.926,556.526 250.26,544.192 213.5,526C 205.302,521.072 197.302,515.905 189.5,510.5C 187.431,507.427 184.764,505.094 181.5,503.5C 176.509,498.009 171.342,492.675 166,487.5C 159.26,478.687 154.093,469.02 150.5,458.5C 150.167,455.5 149.833,452.5 149.5,449.5C 149.316,444.893 149.983,440.56 151.5,436.5C 150.912,444.117 152.079,451.45 155,458.5C 159.333,464.167 163.667,469.833 168,475.5C 177.852,485.166 188.352,493.999 199.5,502C 211.215,508.858 223.215,515.191 235.5,521C 264.615,532.816 294.282,542.816 324.5,551C 339.125,553.323 353.791,555.323 368.5,557C 386.015,556.869 403.515,557.036 421,557.5C 428.816,556.784 436.649,556.284 444.5,556C 459.206,553.875 473.872,551.542 488.5,549C 510.28,542.123 532.28,535.789 554.5,530C 582.86,520.157 608.86,506.157 632.5,488C 652.857,468.787 664.857,445.287 668.5,417.5 Z"/></g>
<g><path style="opacity:1" fill="#362d0d" d="M 662.5,482.5 C 658.5,488.5 653.5,493.5 647.5,497.5C 652.167,492.167 657.167,487.167 662.5,482.5 Z"/></g>
<g><path style="opacity:0.922" fill="#7e7d82" d="M 171.5,501.5 C 173.027,501.427 174.027,502.094 174.5,503.5C 172.973,503.573 171.973,502.906 171.5,501.5 Z"/></g>
<g><path style="opacity:1" fill="#443815" d="M 181.5,503.5 C 184.764,505.094 187.431,507.427 189.5,510.5C 186.236,508.906 183.569,506.573 181.5,503.5 Z"/></g>
<g><path style="opacity:1" fill="#907522" d="M 478.5,664.5 C 479.166,667.689 479.833,671.023 480.5,674.5C 491.766,680.708 502.099,679.541 511.5,671C 512.5,670.333 513.5,670.333 514.5,671C 512.476,676.438 510.142,681.772 507.5,687C 510.8,688.879 514.134,688.879 517.5,687C 534.375,674.082 542.875,656.915 543,635.5C 540.566,628.126 536.733,621.626 531.5,616C 520.808,606.822 508.475,601.155 494.5,599C 490.5,598.333 486.5,598.333 482.5,599C 479.515,601.777 478.182,605.277 478.5,609.5C 479.237,614.315 480.57,618.982 482.5,623.5C 479.479,625.423 476.146,626.423 472.5,626.5C 472.923,625.735 473.257,624.902 473.5,624C 469.779,615.709 469.779,607.543 473.5,599.5C 473.167,598.5 472.5,597.833 471.5,597.5C 469.364,598.472 468.197,600.139 468,602.5C 467.021,608.983 467.521,615.316 469.5,621.5C 458.98,625.321 450.48,631.654 444,640.5C 430.726,618.269 417.226,596.269 403.5,574.5C 414.63,572.841 425.963,571.841 437.5,571.5C 461.059,569.586 484.392,566.42 507.5,562C 515.432,567.928 522.765,574.595 529.5,582C 535,586.167 540.5,590.333 546,594.5C 546.333,596.047 545.833,597.38 544.5,598.5C 548.847,601.371 552.014,605.371 554,610.5C 567.078,647.602 556.911,676.435 523.5,697C 501.368,707.015 486.535,700.515 479,677.5C 478.501,673.179 478.334,668.846 478.5,664.5 Z"/></g>
<g><path style="opacity:0.22" fill="#c3c1c8" d="M 338.5,568.5 C 340.424,568.711 340.757,569.377 339.5,570.5C 339.167,569.833 338.833,569.167 338.5,568.5 Z"/></g>
<g><path style="opacity:1" fill="#564117" d="M 347.5,568.5 C 350.5,568.5 353.5,568.5 356.5,568.5C 356.737,569.791 356.404,570.791 355.5,571.5C 353.143,569.902 350.477,568.902 347.5,568.5 Z"/></g>
<g><path style="opacity:1" fill="#bf8c29" d="M 347.5,568.5 C 350.477,568.902 353.143,569.902 355.5,571.5C 353.205,575.186 351.372,579.186 350,583.5C 346.333,597.002 343.5,610.669 341.5,624.5C 340.876,624.917 340.543,625.584 340.5,626.5C 342.307,636.262 343.64,646.096 344.5,656C 344.765,659.378 343.765,662.212 341.5,664.5C 336.277,662.889 331.277,660.723 326.5,658C 319.953,652.954 314.286,647.12 309.5,640.5C 307.682,644.136 305.849,647.802 304,651.5C 296.56,654.165 290.893,651.832 287,644.5C 283.449,623.824 288.782,605.824 303,590.5C 307.998,584.965 313.498,580.298 319.5,576.5C 326.113,576.151 332.113,577.818 337.5,581.5C 337.712,583.384 338.712,584.717 340.5,585.5C 341.487,582.232 341.82,578.898 341.5,575.5C 342.309,573.708 342.809,571.708 343,569.5C 344.356,568.62 345.856,568.286 347.5,568.5 Z"/></g>
<g><path style="opacity:1" fill="#b8a47d" d="M 360.5,674.5 C 365.636,683.259 371.636,691.426 378.5,699C 384.877,703.189 391.544,706.855 398.5,710C 417.349,716.655 424.849,710.155 421,690.5C 413.133,671.664 409.3,651.998 409.5,631.5C 398.985,626.788 387.985,624.121 376.5,623.5C 367.747,622.705 360.081,625.039 353.5,630.5C 351.127,627.469 348.794,624.469 346.5,621.5C 349.487,606.708 352.987,592.041 357,577.5C 357.93,575.064 359.097,572.731 360.5,570.5C 364.795,569.339 369.129,569.172 373.5,570C 381.953,570.635 390.287,571.801 398.5,573.5C 412.833,597.5 427.167,621.5 441.5,645.5C 436.166,659.522 436.333,673.522 442,687.5C 449.259,695.897 458.426,699.063 469.5,697C 472.798,696.513 475.798,695.347 478.5,693.5C 480.786,693.96 482.119,695.293 482.5,697.5C 479.29,719.151 479.957,740.651 484.5,762C 484.167,762.5 483.833,763 483.5,763.5C 454.121,772.925 425.787,770.425 398.5,756C 385.188,748.027 373.021,738.527 362,727.5C 358.333,721.833 354.667,716.167 351,710.5C 348.591,702.618 346.757,694.618 345.5,686.5C 351.447,683.692 356.447,679.692 360.5,674.5 Z"/></g>
<g><path style="opacity:1" fill="#352c0d" d="M 437.5,571.5 C 425.963,571.841 414.63,572.841 403.5,574.5C 402.596,573.791 402.263,572.791 402.5,571.5C 414.167,571.5 425.833,571.5 437.5,571.5 Z"/></g>
<g><path style="opacity:0.8" fill="#8d8c91" d="M 338.5,574.5 C 337.947,576.552 336.947,576.885 335.5,575.5C 336.609,575.443 337.609,575.11 338.5,574.5 Z"/></g>
<g><path style="opacity:1" fill="#6b5121" d="M 341.5,575.5 C 341.82,578.898 341.487,582.232 340.5,585.5C 338.712,584.717 337.712,583.384 337.5,581.5C 338.458,581.953 339.292,582.619 340,583.5C 340.183,580.635 340.683,577.969 341.5,575.5 Z"/></g>
<g><path style="opacity:1" fill="#907522" d="M 319.5,576.5 C 313.498,580.298 307.998,584.965 303,590.5C 288.782,605.824 283.449,623.824 287,644.5C 290.893,651.832 296.56,654.165 304,651.5C 305.849,647.802 307.682,644.136 309.5,640.5C 314.286,647.12 319.953,652.954 326.5,658C 331.277,660.723 336.277,662.889 341.5,664.5C 343.765,662.212 344.765,659.378 344.5,656C 343.64,646.096 342.307,636.262 340.5,626.5C 340.543,625.584 340.876,624.917 341.5,624.5C 343.341,627.86 345.841,630.86 349,633.5C 356.123,645.314 358.79,657.981 357,671.5C 347.68,683.246 336.514,685.412 323.5,678C 320.61,676.062 317.944,673.895 315.5,671.5C 315.325,667.14 315.325,662.806 315.5,658.5C 312.383,663.451 308.383,667.618 303.5,671C 299.152,671.238 294.819,670.905 290.5,670C 278.528,660.766 274.028,648.599 277,633.5C 280.856,610.244 292.356,592.078 311.5,579C 313.909,577.293 316.575,576.46 319.5,576.5 Z"/></g>
<g><path style="opacity:1" fill="#bf8c29" d="M 478.5,664.5 C 477.698,663.115 477.031,663.282 476.5,665C 475.767,666.766 475.433,668.599 475.5,670.5C 473.625,679.348 467.958,684.015 458.5,684.5C 456.423,684.308 454.423,683.808 452.5,683C 448.306,679.402 444.972,675.235 442.5,670.5C 440.508,647.227 450.508,632.56 472.5,626.5C 476.146,626.423 479.479,625.423 482.5,623.5C 480.57,618.982 479.237,614.315 478.5,609.5C 478.182,605.277 479.515,601.777 482.5,599C 486.5,598.333 490.5,598.333 494.5,599C 508.475,601.155 520.808,606.822 531.5,616C 536.733,621.626 540.566,628.126 543,635.5C 542.875,656.915 534.375,674.082 517.5,687C 514.134,688.879 510.8,688.879 507.5,687C 510.142,681.772 512.476,676.438 514.5,671C 513.5,670.333 512.5,670.333 511.5,671C 502.099,679.541 491.766,680.708 480.5,674.5C 479.833,671.023 479.166,667.689 478.5,664.5 Z"/></g>
<g><path style="opacity:1" fill="#bf8c29" d="M 598.5,692.5 C 599.489,721.099 590.489,745.932 571.5,767C 560.734,776.049 548.4,781.882 534.5,784.5C 529.953,784.113 525.619,782.947 521.5,781C 517.383,777.85 513.549,774.35 510,770.5C 503.9,757.822 501.4,744.488 502.5,730.5C 514.579,739.962 527.245,740.796 540.5,733C 549.488,725.157 556.654,715.99 562,705.5C 563.632,700.97 564.632,696.304 565,691.5C 565.482,680.307 566.315,669.14 567.5,658C 567.154,652.313 566.487,646.813 565.5,641.5C 564.929,628.041 561.596,615.374 555.5,603.5C 556.002,602.479 556.668,602.312 557.5,603C 564.067,608.57 569.567,615.07 574,622.5C 585.844,644.531 594.011,667.864 598.5,692.5 Z"/></g>
<g><path style="opacity:1" fill="#d9c897" d="M 360.5,674.5 C 363.081,665.176 362.914,655.842 360,646.5C 358.097,641.032 355.93,635.699 353.5,630.5C 360.081,625.039 367.747,622.705 376.5,623.5C 387.985,624.121 398.985,626.788 409.5,631.5C 409.3,651.998 413.133,671.664 421,690.5C 424.849,710.155 417.349,716.655 398.5,710C 391.544,706.855 384.877,703.189 378.5,699C 371.636,691.426 365.636,683.259 360.5,674.5 Z"/></g>
<g><path style="opacity:1" fill="#907522" d="M 565.5,641.5 C 566.487,646.813 567.154,652.313 567.5,658C 566.315,669.14 565.482,680.307 565,691.5C 564.632,696.304 563.632,700.97 562,705.5C 556.654,715.99 549.488,725.157 540.5,733C 527.245,740.796 514.579,739.962 502.5,730.5C 501.4,744.488 503.9,757.822 510,770.5C 513.549,774.35 517.383,777.85 521.5,781C 525.619,782.947 529.953,784.113 534.5,784.5C 548.4,781.882 560.734,776.049 571.5,767C 590.489,745.932 599.489,721.099 598.5,692.5C 603.516,717.402 599.349,740.735 586,762.5C 585.376,764.464 585.876,766.131 587.5,767.5C 595.429,767.814 602.762,769.98 609.5,774C 615.186,779.876 620.02,786.376 624,793.5C 628.072,798.113 632.905,801.613 638.5,804C 627.231,809.772 615.231,812.105 602.5,811C 601.427,814.112 601.427,817.279 602.5,820.5C 585.114,820.76 567.781,819.927 550.5,818C 517.122,809.622 495.955,788.789 487,755.5C 483.667,736.832 483.667,718.165 487,699.5C 493.328,705.496 500.828,707.663 509.5,706C 520.861,704.32 530.527,699.486 538.5,691.5C 542.771,688.899 546.437,685.566 549.5,681.5C 557.392,669.152 562.725,655.818 565.5,641.5 Z"/></g>
<g><path style="opacity:1" fill="#bf8c28" d="M 787.5,679.5 C 781.178,695.783 772.011,710.45 760,723.5C 754.833,728.667 749.667,733.833 744.5,739C 709.396,759.895 671.729,767.228 631.5,761C 621.58,755.307 618.08,746.807 621,735.5C 625.065,727.249 626.399,718.582 625,709.5C 624.308,708.975 623.808,708.308 623.5,707.5C 624.949,706.828 626.282,706.161 627.5,705.5C 639.063,704.809 650.396,705.976 661.5,709C 692.448,714.426 721.115,708.759 747.5,692C 760.32,681.85 773.153,671.683 786,661.5C 786.945,661.905 787.612,662.572 788,663.5C 788.529,668.854 788.362,674.187 787.5,679.5 Z"/></g>
<g><path style="opacity:0.329" fill="#9d9ba1" d="M 310.5,672.5 C 310.56,671.957 310.893,671.624 311.5,671.5C 312.793,673.636 312.793,675.636 311.5,677.5C 311.784,675.585 311.451,673.919 310.5,672.5 Z"/></g>
<g><path style="opacity:1" fill="#907522" d="M 442.5,670.5 C 444.972,675.235 448.306,679.402 452.5,683C 454.423,683.808 456.423,684.308 458.5,684.5C 467.958,684.015 473.625,679.348 475.5,670.5C 475.435,676.617 475.935,682.617 477,688.5C 472.998,691.925 468.332,693.258 463,692.5C 453.344,693.516 447.01,689.516 444,680.5C 442.957,677.243 442.457,673.91 442.5,670.5 Z"/></g>
<g><path style="opacity:1" fill="#907522" d="M 350.5,718.5 C 349.043,720.242 347.876,722.242 347,724.5C 338.32,720.657 330.654,715.324 324,708.5C 322.417,720.502 325.084,731.502 332,741.5C 338.772,748.117 345.939,754.117 353.5,759.5C 344.097,759.463 336.097,756.13 329.5,749.5C 320.929,741.019 316.095,730.685 315,718.5C 312.858,705.077 313.358,691.743 316.5,678.5C 323.643,684.906 331.976,687.572 341.5,686.5C 342.028,697.955 345.028,708.621 350.5,718.5 Z"/></g>
<g><path style="opacity:1" fill="#423715" d="M 549.5,681.5 C 546.437,685.566 542.771,688.899 538.5,691.5C 541.563,687.434 545.229,684.101 549.5,681.5 Z"/></g>
<g><path style="opacity:1" fill="#917622" d="M 787.5,679.5 C 785.734,698.631 780.234,716.631 771,733.5C 762.16,746.677 750.327,756.177 735.5,762C 720.029,766.784 704.363,770.784 688.5,774C 667.134,774.171 646.134,777.005 625.5,782.5C 624.5,782.333 623.5,782.167 622.5,782C 615.554,771.021 605.554,764.854 592.5,763.5C 601.702,746.357 606.035,728.023 605.5,708.5C 612.937,708.149 620.27,707.149 627.5,705.5C 626.282,706.161 624.949,706.828 623.5,707.5C 623.808,708.308 624.308,708.975 625,709.5C 626.399,718.582 625.065,727.249 621,735.5C 618.08,746.807 621.58,755.307 631.5,761C 671.729,767.228 709.396,759.895 744.5,739C 749.667,733.833 754.833,728.667 760,723.5C 772.011,710.45 781.178,695.783 787.5,679.5 Z"/></g>
<g><path style="opacity:1" fill="#bf8c29" d="M 350.5,718.5 C 353.199,722.19 355.865,725.857 358.5,729.5C 361.5,734.5 365.5,738.5 370.5,741.5C 372.806,743.139 374.806,745.139 376.5,747.5C 379.123,754.311 382.457,760.811 386.5,767C 376.104,767.806 366.437,765.639 357.5,760.5C 356.167,760.167 354.833,759.833 353.5,759.5C 345.939,754.117 338.772,748.117 332,741.5C 325.084,731.502 322.417,720.502 324,708.5C 330.654,715.324 338.32,720.657 347,724.5C 347.876,722.242 349.043,720.242 350.5,718.5 Z"/></g>
<g><path style="opacity:1" fill="#594317" d="M 358.5,729.5 C 362.833,733.167 366.833,737.167 370.5,741.5C 365.5,738.5 361.5,734.5 358.5,729.5 Z"/></g>
<g><path style="opacity:1" fill="#907522" d="M 376.5,747.5 C 386.001,753.478 395.667,759.311 405.5,765C 408.56,765.848 411.56,766.848 414.5,768C 415.554,769.388 415.72,770.888 415,772.5C 407.523,784.636 397.023,793.136 383.5,798C 373.403,800.219 363.236,802.053 353,803.5C 350.102,803.363 347.269,802.863 344.5,802C 346.763,800.383 348.763,798.55 350.5,796.5C 354.167,794.833 356.833,792.167 358.5,788.5C 361.16,785.867 363.827,783.2 366.5,780.5C 366.113,779.28 365.28,778.613 364,778.5C 361.062,779.283 358.896,780.95 357.5,783.5C 356.833,783.5 356.167,783.5 355.5,783.5C 355.351,782.448 355.517,781.448 356,780.5C 356.893,781.711 357.726,781.711 358.5,780.5C 359.5,778.5 360.5,776.5 361.5,774.5C 350.87,771.956 340.536,768.623 330.5,764.5C 331.812,762.521 333.479,760.855 335.5,759.5C 342.062,762.14 348.729,764.474 355.5,766.5C 357,766.547 358,765.881 358.5,764.5C 358.212,763.139 357.879,761.806 357.5,760.5C 366.437,765.639 376.104,767.806 386.5,767C 382.457,760.811 379.123,754.311 376.5,747.5 Z"/></g>
<g><path style="opacity:1" fill="#bf8c29" d="M 330.5,764.5 C 340.536,768.623 350.87,771.956 361.5,774.5C 360.5,776.5 359.5,778.5 358.5,780.5C 357.726,781.711 356.893,781.711 356,780.5C 355.517,781.448 355.351,782.448 355.5,783.5C 352.833,785.167 350.167,786.833 347.5,788.5C 335.721,791.431 324.054,791.097 312.5,787.5C 310.873,785.37 309.04,783.37 307,781.5C 306.506,779.866 306.34,778.199 306.5,776.5C 308.553,776.598 310.22,775.931 311.5,774.5C 318.28,771.944 324.614,768.611 330.5,764.5 Z"/></g>
<g><path style="opacity:1" fill="#6c521f" d="M 311.5,774.5 C 310.22,775.931 308.553,776.598 306.5,776.5C 306.34,778.199 306.506,779.866 307,781.5C 309.04,783.37 310.873,785.37 312.5,787.5C 306.834,785.49 304.5,781.49 305.5,775.5C 307.5,775.167 309.5,774.833 311.5,774.5 Z"/></g>
<g><path style="opacity:1" fill="#be8c28" d="M 578.5,780.5 C 592.956,778.595 605.122,782.928 615,793.5C 615.688,794.332 615.521,794.998 614.5,795.5C 607.334,800.602 599.334,802.935 590.5,802.5C 590.692,805.601 591.358,808.601 592.5,811.5C 587.462,812.33 582.795,811.164 578.5,808C 572.243,803.287 566.076,798.454 560,793.5C 558.148,790.653 558.648,788.153 561.5,786C 567.137,783.682 572.803,781.849 578.5,780.5 Z"/></g>
<g><path style="opacity:1" fill="#543e15" d="M 355.5,783.5 C 356.167,783.5 356.833,783.5 357.5,783.5C 354.753,786.207 351.42,787.873 347.5,788.5C 350.167,786.833 352.833,785.167 355.5,783.5 Z"/></g>
<g><path style="opacity:1" fill="#403513" d="M 358.5,788.5 C 356.833,792.167 354.167,794.833 350.5,796.5C 352.833,793.5 355.5,790.833 358.5,788.5 Z"/></g>
<g><path style="opacity:0.302" fill="#aba9b0" d="M 344.5,796.5 C 344.5,795.833 344.167,795.5 343.5,795.5C 344.943,794.297 346.609,793.797 348.5,794C 347.307,795.095 345.973,795.928 344.5,796.5 Z"/></g>
<g><path style="opacity:0.486" fill="#a9a8ae" d="M 619.5,814.5 C 615.232,814.869 611.232,815.869 607.5,817.5C 606.596,816.791 606.263,815.791 606.5,814.5C 610.833,814.5 615.167,814.5 619.5,814.5 Z"/></g>

        
<g><path style="opacity:0.99" fill="#0d0d0c" d="M 491.5,399.5 C 488.373,390.073 487.207,380.406 488,370.5C 493.707,351.6 504.873,336.767 521.5,326C 529.79,320.847 538.79,318.014 548.5,317.5C 553.844,317.666 559.177,317.499 564.5,317C 563.956,316.283 563.289,315.783 562.5,315.5C 543.882,300.011 522.382,291.678 498,290.5C 490.519,289.916 483.352,291.082 476.5,294C 467.781,294.352 459.781,297.019 452.5,302C 448.062,306.439 443.062,310.106 437.5,313C 426.246,324.92 417.412,338.42 411,353.5C 410.725,371 417.225,385.5 430.5,397C 436.108,400.276 441.442,403.943 446.5,408C 453.054,411.537 460.054,413.37 467.5,413.5C 461.67,418.019 455.336,418.686 448.5,415.5C 448.027,414.094 447.027,413.427 445.5,413.5C 443.46,411.823 441.46,410.156 439.5,408.5C 439.027,407.094 438.027,406.427 436.5,406.5C 436.027,405.094 435.027,404.427 433.5,404.5C 431.566,403.89 429.899,402.89 428.5,401.5C 428.027,400.094 427.027,399.427 425.5,399.5C 418.88,393.601 413.713,386.601 410,378.5C 406.877,399.48 395.71,405.313 376.5,396C 373.568,392.395 370.068,389.561 366,387.5C 362.461,389.2 359.794,391.867 358,395.5C 348.298,401.028 339.298,400.028 331,392.5C 329.096,389.077 328.263,385.41 328.5,381.5C 328.34,379.847 327.674,378.514 326.5,377.5C 325.596,376.791 325.263,375.791 325.5,374.5C 325.785,372.712 325.452,371.045 324.5,369.5C 323.614,370.325 323.281,371.325 323.5,372.5C 319.576,387.848 311.909,401.015 300.5,412C 297.294,414.034 293.96,415.867 290.5,417.5C 287.941,416.392 285.608,415.059 283.5,413.5C 293.172,410.41 301.005,404.744 307,396.5C 313.986,386.753 318.486,375.92 320.5,364C 319.275,355.717 315.775,348.55 310,342.5C 305.854,331.015 298.687,321.848 288.5,315C 280.952,312.433 273.619,309.433 266.5,306C 242.475,304.844 224.809,314.844 213.5,336C 239.356,338.522 258.189,351.355 270,374.5C 276.027,385.384 278.193,397.051 276.5,409.5C 271.718,406.601 267.051,403.434 262.5,400C 244.46,389.359 225.127,385.859 204.5,389.5C 199.943,380.073 198.443,370.073 200,359.5C 201.081,348.03 204.914,337.697 211.5,328.5C 212.906,328.027 213.573,327.027 213.5,325.5C 213.783,305.751 221.117,288.917 235.5,275C 242.164,270.005 249.497,266.338 257.5,264C 268.382,263.052 277.716,266.386 285.5,274C 309.981,294.926 323.981,321.426 327.5,353.5C 336.02,355.759 344.353,358.592 352.5,362C 357.986,362.927 363.486,363.76 369,364.5C 376.968,362.671 384.968,361.337 393,360.5C 395.093,361.246 397.093,361.579 399,361.5C 395.196,337.601 398.196,314.601 408,292.5C 410.985,287.689 414.485,283.356 418.5,279.5C 419.906,279.027 420.573,278.027 420.5,276.5C 431.962,266.925 444.629,259.091 458.5,253C 510.456,235.392 544.289,252.559 560,304.5C 580.639,319.759 586.305,339.425 577,363.5C 574.366,369.272 570.866,374.439 566.5,379C 540.258,381.247 515.258,388.08 491.5,399.5 Z"/></g>
<g><path style="opacity:1" fill="#1b1b1b" d="M 491.5,251.5 C 512.005,251.336 528.505,259.336 541,275.5C 545.694,283.554 549.861,291.888 553.5,300.5C 553.167,300.833 552.833,301.167 552.5,301.5C 517.98,279.718 482.98,278.885 447.5,299C 444.215,302.973 440.215,305.973 435.5,308C 425.414,318.343 416.914,329.843 410,342.5C 406.414,349.494 405.08,356.827 406,364.5C 405.255,362.797 404.421,361.13 403.5,359.5C 403.063,345.559 403.563,331.559 405,317.5C 407.148,302.37 413.648,289.537 424.5,279C 432.5,273.667 440.5,268.333 448.5,263C 462.09,255.855 476.423,252.021 491.5,251.5 Z"/></g>
<g><path style="opacity:1" fill="#1b1b1b" d="M 256.5,269.5 C 263.905,268.705 270.571,270.539 276.5,275C 296.955,290.782 311.122,310.949 319,335.5C 320.328,340.457 320.994,345.457 321,350.5C 316.333,341.833 311.667,333.167 307,324.5C 302.468,319.633 297.634,315.133 292.5,311C 282.442,305.884 271.942,302.051 261,299.5C 244.754,300.462 231.087,306.795 220,318.5C 222.473,294.866 234.64,278.532 256.5,269.5 Z"/></g>
<g><path style="opacity:0.529" fill="#82827b" d="M 420.5,276.5 C 420.573,278.027 419.906,279.027 418.5,279.5C 418.427,277.973 419.094,276.973 420.5,276.5 Z"/></g>
<g><path style="opacity:0.998" fill="#f5f4e7" d="M 562.5,315.5 C 557.833,316.167 553.167,316.833 548.5,317.5C 538.79,318.014 529.79,320.847 521.5,326C 504.873,336.767 493.707,351.6 488,370.5C 487.207,380.406 488.373,390.073 491.5,399.5C 483.472,404.178 475.472,408.845 467.5,413.5C 460.054,413.37 453.054,411.537 446.5,408C 441.442,403.943 436.108,400.276 430.5,397C 417.225,385.5 410.725,371 411,353.5C 417.412,338.42 426.246,324.92 437.5,313C 443.062,310.106 448.062,306.439 452.5,302C 459.781,297.019 467.781,294.352 476.5,294C 483.352,291.082 490.519,289.916 498,290.5C 522.382,291.678 543.882,300.011 562.5,315.5 Z"/></g>
<g><path style="opacity:0.999" fill="#f5f4e7" d="M 283.5,413.5 C 280.669,412.921 278.336,411.588 276.5,409.5C 278.193,397.051 276.027,385.384 270,374.5C 258.189,351.355 239.356,338.522 213.5,336C 224.809,314.844 242.475,304.844 266.5,306C 273.619,309.433 280.952,312.433 288.5,315C 298.687,321.848 305.854,331.015 310,342.5C 315.775,348.55 319.275,355.717 320.5,364C 318.486,375.92 313.986,386.753 307,396.5C 301.005,404.744 293.172,410.41 283.5,413.5 Z"/></g>
<g><path style="opacity:1" fill="#6e6e68" d="M 562.5,315.5 C 563.289,315.783 563.956,316.283 564.5,317C 559.177,317.499 553.844,317.666 548.5,317.5C 553.167,316.833 557.833,316.167 562.5,315.5 Z"/></g>
<g><path style="opacity:0.506" fill="#808079" d="M 213.5,325.5 C 213.573,327.027 212.906,328.027 211.5,328.5C 211.427,326.973 212.094,325.973 213.5,325.5 Z"/></g>
<g><path style="opacity:1" fill="#1b1b1b" d="M 327.5,359.5 C 338.316,363.238 349.316,366.404 360.5,369C 365.833,369.667 371.167,369.667 376.5,369C 383.809,367.503 391.143,366.503 398.5,366C 404.726,372.015 406.226,379.182 403,387.5C 399.871,394.148 394.704,396.648 387.5,395C 381.182,393.689 376.182,390.356 372.5,385C 367.996,381.538 363.663,381.704 359.5,385.5C 357.294,388.203 354.961,390.703 352.5,393C 348.5,393.667 344.5,393.667 340.5,393C 338.376,391.878 336.543,390.378 335,388.5C 332.025,378.933 329.525,369.266 327.5,359.5 Z"/></g>
<g><path style="opacity:1" fill="#5c5c57" d="M 325.5,374.5 C 324.833,373.833 324.167,373.167 323.5,372.5C 323.281,371.325 323.614,370.325 324.5,369.5C 325.452,371.045 325.785,372.712 325.5,374.5 Z"/></g>
<g><path style="opacity:0.4" fill="#97968e" d="M 326.5,377.5 C 327.674,378.514 328.34,379.847 328.5,381.5C 326.896,380.713 326.229,379.38 326.5,377.5 Z"/></g>
<g><path style="opacity:0.012" fill="#000000" d="M 549.5,383.5 C 550.833,384.167 550.833,384.167 549.5,383.5 Z"/></g>
<g><path style="opacity:0.02" fill="#000000" d="M 545.5,384.5 C 546.833,385.167 546.833,385.167 545.5,384.5 Z"/></g>
<g><path style="opacity:0.022" fill="#000000" d="M 541.5,386.5 C 541.897,385.475 542.563,385.308 543.5,386C 542.906,386.464 542.239,386.631 541.5,386.5 Z"/></g>
<g><path style="opacity:0.018" fill="#000000" d="M 538.5,387.5 C 538.897,386.475 539.563,386.308 540.5,387C 539.906,387.464 539.239,387.631 538.5,387.5 Z"/></g>
<g><path style="opacity:0.016" fill="#000000" d="M 534.5,388.5 C 534.897,387.475 535.563,387.308 536.5,388C 535.906,388.464 535.239,388.631 534.5,388.5 Z"/></g>
<g><path style="opacity:0.012" fill="#000000" d="M 530.5,389.5 C 530.897,388.475 531.563,388.308 532.5,389C 531.906,389.464 531.239,389.631 530.5,389.5 Z"/></g>
<g><path style="opacity:0.04" fill="#000000" d="M 226.5,391.5 C 228.103,391.312 229.437,391.812 230.5,393C 228.167,393.667 225.833,393.667 223.5,393C 224.737,392.768 225.737,392.268 226.5,391.5 Z"/></g>
<g><path style="opacity:0.042" fill="#000000" d="M 210.5,393.5 C 211.946,392.387 213.613,392.22 215.5,393C 213.866,393.494 212.199,393.66 210.5,393.5 Z"/></g>
<g><path style="opacity:0.016" fill="#000000" d="M 233.5,392.5 C 234.833,393.167 234.833,393.167 233.5,392.5 Z"/></g>
<g><path style="opacity:0.012" fill="#000000" d="M 236.5,394.5 C 236.897,393.475 237.563,393.308 238.5,394C 237.906,394.464 237.239,394.631 236.5,394.5 Z"/></g>
<g><path style="opacity:0.016" fill="#000000" d="M 239.5,395.5 C 239.897,394.475 240.563,394.308 241.5,395C 240.906,395.464 240.239,395.631 239.5,395.5 Z"/></g>
<g><path style="opacity:0.012" fill="#000000" d="M 242.5,395.5 C 243.833,396.167 243.833,396.167 242.5,395.5 Z"/></g>
<g><path style="opacity:0.016" fill="#000000" d="M 245.5,396.5 C 246.833,397.167 246.833,397.167 245.5,396.5 Z"/></g>
<g><path style="opacity:0.012" fill="#000000" d="M 247.5,397.5 C 248.833,398.167 248.833,398.167 247.5,397.5 Z"/></g>
<g><path style="opacity:0.02" fill="#000000" d="M 250.5,398.5 C 251.833,399.167 251.833,399.167 250.5,398.5 Z"/></g>
<g><path style="opacity:0.02" fill="#000000" d="M 252.5,399.5 C 253.833,400.167 253.833,400.167 252.5,399.5 Z"/></g>
<g><path style="opacity:0.012" fill="#000000" d="M 254.5,400.5 C 255.833,401.167 255.833,401.167 254.5,400.5 Z"/></g>
<g><path style="opacity:0.529" fill="#7c7b75" d="M 425.5,399.5 C 427.027,399.427 428.027,400.094 428.5,401.5C 426.973,401.573 425.973,400.906 425.5,399.5 Z"/></g>
<g><path style="opacity:0.529" fill="#7c7b75" d="M 433.5,404.5 C 435.027,404.427 436.027,405.094 436.5,406.5C 434.973,406.573 433.973,405.906 433.5,404.5 Z"/></g>
<g><path style="opacity:0.545" fill="#7a7a73" d="M 436.5,406.5 C 438.027,406.427 439.027,407.094 439.5,408.5C 437.973,408.573 436.973,407.906 436.5,406.5 Z"/></g>
<g><path style="opacity:0.529" fill="#7f7f78" d="M 445.5,413.5 C 447.027,413.427 448.027,414.094 448.5,415.5C 446.973,415.573 445.973,414.906 445.5,413.5 Z"/></g>

        
<g><path style="opacity:0.985" fill="#20201f" d="M 591.5,350.5 C 590.89,349.609 590.557,348.609 590.5,347.5C 598.093,347.538 604.593,350.538 610,356.5C 612.002,361.007 613.502,365.674 614.5,370.5C 614.02,374.293 612.353,377.46 609.5,380C 603.352,383.078 597.019,385.578 590.5,387.5C 584.054,386.936 577.72,385.77 571.5,384C 563.833,383.333 556.167,383.333 548.5,384C 540.284,385.787 532.618,388.62 525.5,392.5C 525.631,391.624 525.298,390.957 524.5,390.5C 523.261,390.942 522.261,391.609 521.5,392.5C 520.791,393.404 519.791,393.737 518.5,393.5C 514.838,393.723 511.505,394.723 508.5,396.5C 505.759,396.707 503.426,397.707 501.5,399.5C 501.158,400.338 500.492,400.672 499.5,400.5C 494.914,401.46 490.914,403.46 487.5,406.5C 487.158,407.338 486.492,407.672 485.5,407.5C 483.973,407.427 482.973,408.094 482.5,409.5C 480.326,409.75 478.659,410.75 477.5,412.5C 476.167,412.5 475.5,413.167 475.5,414.5C 474.878,415.627 474.045,416.627 473,417.5C 471.951,416.483 470.784,416.316 469.5,417C 464.147,419.701 458.814,422.368 453.5,425C 440.182,427.885 426.849,430.552 413.5,433C 407.153,442.527 401.986,452.694 398,463.5C 395.706,464.852 393.206,465.519 390.5,465.5C 382.205,463.808 373.871,462.308 365.5,461C 361.367,455.866 356.867,451.032 352,446.5C 349.027,442.026 345.86,437.693 342.5,433.5C 328.924,432.583 315.59,430.25 302.5,426.5C 299.905,427.237 297.238,427.237 294.5,426.5C 294.953,425.542 295.619,424.708 296.5,424C 295.906,423.536 295.239,423.369 294.5,423.5C 290.703,423.128 287.37,421.794 284.5,419.5C 281.485,417.326 278.151,415.659 274.5,414.5C 273.415,412.413 271.749,411.08 269.5,410.5C 268.508,410.672 267.842,410.338 267.5,409.5C 267.027,408.094 266.027,407.427 264.5,407.5C 263.352,404.913 261.685,403.913 259.5,404.5C 250.198,398.055 239.864,393.722 228.5,391.5C 218.197,392.724 207.863,393.224 197.5,393C 182.151,389.16 173.651,379.326 172,363.5C 171.333,358.833 171.333,354.167 172,349.5C 172.036,347.059 172.869,345.059 174.5,343.5C 175.086,343.709 175.586,344.043 176,344.5C 175.529,355.347 177.529,365.681 182,375.5C 187.543,382.974 195.043,386.974 204.5,387.5C 231.733,383.303 255.733,390.137 276.5,408C 290.297,415.71 304.964,421.044 320.5,424C 344.953,424.754 369.453,425.587 394,426.5C 413.476,426.449 432.642,423.949 451.5,419C 468.5,410 485.5,401 502.5,392C 517.586,386.527 532.92,381.86 548.5,378C 556.5,377.333 564.5,377.333 572.5,378C 579.063,379.986 585.73,380.986 592.5,381C 596.749,378.806 601.082,376.806 605.5,375C 606.872,373.758 607.872,372.258 608.5,370.5C 607.098,366.461 605.598,362.461 604,358.5C 599.684,355.934 595.517,353.267 591.5,350.5 Z"/></g>
<g><path style="opacity:0.231" fill="#9b9b93" d="M 590.5,347.5 C 590.557,348.609 590.89,349.609 591.5,350.5C 589.448,349.947 589.115,348.947 590.5,347.5 Z"/></g>
<g><path style="opacity:0.012" fill="#b3b2a9" d="M 525.5,392.5 C 524.472,392.926 523.139,392.926 521.5,392.5C 522.261,391.609 523.261,390.942 524.5,390.5C 525.298,390.957 525.631,391.624 525.5,392.5 Z"/></g>
<g><path style="opacity:0.149" fill="#d6d5ca" d="M 518.5,393.5 C 515.495,395.277 512.162,396.277 508.5,396.5C 511.505,394.723 514.838,393.723 518.5,393.5 Z"/></g>
<g><path style="opacity:0.196" fill="#d2d1c6" d="M 508.5,396.5 C 506.574,398.293 504.241,399.293 501.5,399.5C 503.426,397.707 505.759,396.707 508.5,396.5 Z"/></g>
<g><path style="opacity:0.294" fill="#a8a79f" d="M 259.5,404.5 C 261.685,403.913 263.352,404.913 264.5,407.5C 262.589,406.925 260.922,405.925 259.5,404.5 Z"/></g>
<g><path style="opacity:0.173" fill="#d8d7cc" d="M 499.5,400.5 C 495.818,403.008 491.818,405.008 487.5,406.5C 490.914,403.46 494.914,401.46 499.5,400.5 Z"/></g>
<g><path style="opacity:0.235" fill="#d1d0c5" d="M 264.5,407.5 C 266.027,407.427 267.027,408.094 267.5,409.5C 265.973,409.573 264.973,408.906 264.5,407.5 Z"/></g>
<g><path style="opacity:0.141" fill="#dfded2" d="M 485.5,407.5 C 485.027,408.906 484.027,409.573 482.5,409.5C 482.973,408.094 483.973,407.427 485.5,407.5 Z"/></g>
<g><path style="opacity:0.067" fill="#d3d2c7" d="M 482.5,409.5 C 481.341,411.25 479.674,412.25 477.5,412.5C 478.659,410.75 480.326,409.75 482.5,409.5 Z"/></g>
<g><path style="opacity:0.012" fill="#d5d4c9" d="M 477.5,412.5 C 477.167,413.5 476.5,414.167 475.5,414.5C 475.5,413.167 476.167,412.5 477.5,412.5 Z"/></g>
<g><path style="opacity:0.322" fill="#b9b8af" d="M 269.5,410.5 C 271.749,411.08 273.415,412.413 274.5,414.5C 272.251,413.92 270.585,412.587 269.5,410.5 Z"/></g>
<g><path style="opacity:0.196" fill="#d0d0c5" d="M 274.5,414.5 C 278.151,415.659 281.485,417.326 284.5,419.5C 280.58,418.873 277.247,417.207 274.5,414.5 Z"/></g>
<g><path style="opacity:0.027" fill="#d9d8cd" d="M 294.5,423.5 C 295.239,423.369 295.906,423.536 296.5,424C 295.619,424.708 294.953,425.542 294.5,426.5C 293.375,425.652 293.375,424.652 294.5,423.5 Z"/></g>
<g><path style="opacity:1" fill="#f1f0e3" d="M 350.5,430.5 C 360.215,430.459 369.882,431.125 379.5,432.5C 389.146,431.411 398.812,431.245 408.5,432C 402.865,440.766 397.865,449.933 393.5,459.5C 392.833,459.833 392.167,460.167 391.5,460.5C 383.983,458.204 376.316,456.704 368.5,456C 361.627,448.795 355.127,441.295 349,433.5C 348.761,432.212 349.261,431.212 350.5,430.5 Z"/></g>

        
<g><path style="opacity:0.991" fill="#070709" d="M 369.5,120.5 C 370.833,120.5 372.167,120.5 373.5,120.5C 374.829,127.793 375.995,135.127 377,142.5C 380.222,149.499 382.222,156.833 383,164.5C 385.41,170.318 388.077,175.985 391,181.5C 397.794,189.963 404.961,198.13 412.5,206C 416.873,209.186 421.54,211.853 426.5,214C 435.081,216.097 443.747,217.764 452.5,219C 453.894,222.093 453.227,224.759 450.5,227C 430.107,226.898 410.441,230.565 391.5,238C 379.024,243.808 370.858,253.308 367,266.5C 355.463,275.515 342.296,279.849 327.5,279.5C 295.365,280.389 277.198,265.055 273,233.5C 272.179,214.784 276.679,197.45 286.5,181.5C 287.365,180.417 288.365,180.251 289.5,181C 291.882,194.264 298.048,205.431 308,214.5C 303.426,198.844 302.092,182.844 304,166.5C 306.194,155.608 311.36,146.441 319.5,139C 321,138.5 322.5,138 324,137.5C 324.945,137.905 325.612,138.572 326,139.5C 325.78,147.468 327.114,155.135 330,162.5C 335.333,171.167 340.667,179.833 346,188.5C 345.199,175.055 346.199,161.721 349,148.5C 354.151,137.861 360.985,128.528 369.5,120.5 Z"/></g>
<g><path style="opacity:1" fill="#2d2d3a" d="M 373.5,152.5 C 371.366,151.297 370.032,149.463 369.5,147C 368.5,146.333 367.5,146.333 366.5,147C 366.833,147.333 367.167,147.667 367.5,148C 363.138,150.623 361.472,154.29 362.5,159C 360.408,159.953 360.075,161.286 361.5,163C 360.5,165.333 359.5,167.667 358.5,170C 359.308,170.308 359.975,170.808 360.5,171.5C 358.318,173.734 357.985,176.234 359.5,179C 359.025,180.763 358.358,182.43 357.5,184C 359.434,185.729 359.434,187.729 357.5,190C 358.167,191.333 358.833,192.667 359.5,194C 359.267,197.466 358.933,201.3 358.5,205.5C 357.808,206.025 357.308,206.692 357,207.5C 355.806,206.57 354.473,205.903 353,205.5C 350.946,206.079 348.946,206.412 347,206.5C 346.517,205.552 346.351,204.552 346.5,203.5C 344.436,203.313 342.436,202.813 340.5,202C 339.5,199.667 337.833,198 335.5,197C 335.833,196.667 336.167,196.333 336.5,196C 335.514,193.672 333.514,191.672 330.5,190C 330.833,189.667 331.167,189.333 331.5,189C 329.833,188 328.5,186.667 327.5,185C 327.833,184.667 328.167,184.333 328.5,184C 327.5,183 326.5,182 325.5,181C 325.833,180.667 326.167,180.333 326.5,180C 324.996,178.509 324.163,176.676 324,174.5C 321.917,172.348 320.417,170.348 319.5,168.5C 318.032,170.792 317.032,172.959 316.5,175C 316.833,175.333 317.167,175.667 317.5,176C 316.692,176.308 316.025,176.808 315.5,177.5C 316.78,179.702 316.78,181.868 315.5,184C 316.167,184.667 316.833,185.333 317.5,186C 316.283,188.011 316.616,190.011 318.5,192C 317.941,192.725 317.608,193.558 317.5,194.5C 318.755,199.502 320.421,204.335 322.5,209C 322.167,209.333 321.833,209.667 321.5,210C 323.866,214.26 325.532,218.427 326.5,222.5C 326.035,225.471 324.535,227.805 322,229.5C 312.901,229.677 304.901,227.344 298,222.5C 297.667,222.833 297.333,223.167 297,223.5C 296.424,220.876 295.09,220.209 293,221.5C 292.683,219.699 292.016,219.366 291,220.5C 290.632,219.09 289.799,218.09 288.5,217.5C 287.831,220.93 287.497,224.263 287.5,227.5C 287.529,229.029 288.196,230.196 289.5,231C 289.167,231.333 288.833,231.667 288.5,232C 288.846,236.025 290.512,239.358 293.5,242C 293.167,242.333 292.833,242.667 292.5,243C 294.865,246.328 297.032,250.495 299,255.5C 299.333,255.167 299.667,254.833 300,254.5C 301.347,259.54 305.18,263.874 311.5,267.5C 312.246,268.736 312.579,270.07 312.5,271.5C 316.425,271.43 320.091,272.097 323.5,273.5C 298.519,273.351 283.686,261.018 279,236.5C 277.516,224.501 278.849,212.835 283,201.5C 284.015,198.79 285.515,196.457 287.5,194.5C 292.1,204.27 298.433,212.77 306.5,220C 310.275,222.351 313.608,221.851 316.5,218.5C 313.264,213.631 311.097,208.297 310,202.5C 307.534,190.194 307.201,177.86 309,165.5C 311.037,157.755 314.87,151.088 320.5,145.5C 321.205,153.249 323.372,160.582 327,167.5C 332.396,175.234 337.396,183.234 342,191.5C 344.247,194.509 346.581,194.842 349,192.5C 349.756,179.806 350.756,167.139 352,154.5C 355.417,144.676 361.083,136.342 369,129.5C 370.085,137.268 371.585,144.935 373.5,152.5 Z"/></g>
<g><path style="opacity:1" fill="#333340" d="M 373.5,152.5 C 375.929,156.791 377.096,161.458 377,166.5C 379.333,171.833 381.667,177.167 384,182.5C 389.333,189.167 394.667,195.833 400,202.5C 409.902,214.065 422.402,220.899 437.5,223C 416.978,223.876 397.978,229.543 380.5,240C 377.333,243.167 374.167,246.333 371,249.5C 370.226,245.853 369.559,242.186 369,238.5C 365.827,235.671 364.327,236.505 364.5,241C 366.241,248.365 365.741,255.532 363,262.5C 357.518,267.657 351.018,270.824 343.5,272C 336.897,273.274 330.23,273.774 323.5,273.5C 320.091,272.097 316.425,271.43 312.5,271.5C 312.579,270.07 312.246,268.736 311.5,267.5C 305.18,263.874 301.347,259.54 300,254.5C 299.667,254.833 299.333,255.167 299,255.5C 297.032,250.495 294.865,246.328 292.5,243C 292.833,242.667 293.167,242.333 293.5,242C 290.512,239.358 288.846,236.025 288.5,232C 288.833,231.667 289.167,231.333 289.5,231C 288.196,230.196 287.529,229.029 287.5,227.5C 287.497,224.263 287.831,220.93 288.5,217.5C 289.799,218.09 290.632,219.09 291,220.5C 292.016,219.366 292.683,219.699 293,221.5C 295.09,220.209 296.424,220.876 297,223.5C 297.333,223.167 297.667,222.833 298,222.5C 304.901,227.344 312.901,229.677 322,229.5C 324.535,227.805 326.035,225.471 326.5,222.5C 325.532,218.427 323.866,214.26 321.5,210C 321.833,209.667 322.167,209.333 322.5,209C 320.421,204.335 318.755,199.502 317.5,194.5C 317.608,193.558 317.941,192.725 318.5,192C 316.616,190.011 316.283,188.011 317.5,186C 316.833,185.333 316.167,184.667 315.5,184C 316.78,181.868 316.78,179.702 315.5,177.5C 316.025,176.808 316.692,176.308 317.5,176C 317.167,175.667 316.833,175.333 316.5,175C 317.032,172.959 318.032,170.792 319.5,168.5C 320.417,170.348 321.917,172.348 324,174.5C 324.163,176.676 324.996,178.509 326.5,180C 326.167,180.333 325.833,180.667 325.5,181C 326.5,182 327.5,183 328.5,184C 328.167,184.333 327.833,184.667 327.5,185C 328.5,186.667 329.833,188 331.5,189C 331.167,189.333 330.833,189.667 330.5,190C 333.514,191.672 335.514,193.672 336.5,196C 336.167,196.333 335.833,196.667 335.5,197C 337.833,198 339.5,199.667 340.5,202C 342.436,202.813 344.436,203.313 346.5,203.5C 346.351,204.552 346.517,205.552 347,206.5C 348.946,206.412 350.946,206.079 353,205.5C 354.473,205.903 355.806,206.57 357,207.5C 357.308,206.692 357.808,206.025 358.5,205.5C 358.933,201.3 359.267,197.466 359.5,194C 358.833,192.667 358.167,191.333 357.5,190C 359.434,187.729 359.434,185.729 357.5,184C 358.358,182.43 359.025,180.763 359.5,179C 357.985,176.234 358.318,173.734 360.5,171.5C 359.975,170.808 359.308,170.308 358.5,170C 359.5,167.667 360.5,165.333 361.5,163C 360.075,161.286 360.408,159.953 362.5,159C 361.472,154.29 363.138,150.623 367.5,148C 367.167,147.667 366.833,147.333 366.5,147C 367.5,146.333 368.5,146.333 369.5,147C 370.032,149.463 371.366,151.297 373.5,152.5 Z"/></g>

    </svg>
