
    <svg width="862" height="862" viewBox="0 0 862 862" fill="none" xmlns="http://www.w3.org/2000/svg">
        
<g><path style="opacity:1" fill="#f6f6e8" d="M -0.5,-0.5 C 286.833,-0.5 574.167,-0.5 861.5,-0.5C 861.5,286.833 861.5,574.167 861.5,861.5C 574.167,861.5 286.833,861.5 -0.5,861.5C -0.5,574.167 -0.5,286.833 -0.5,-0.5 Z"/></g>

        
<g><path style="opacity:0.983" fill="#1a1a19" d="M 578.5,540.5 C 583.993,540.916 589.326,542.082 594.5,544C 599.237,547.614 603.403,551.781 607,556.5C 613.977,570.057 616.311,584.39 614,599.5C 611.931,603.236 608.931,605.903 605,607.5C 603.018,607.01 601.351,606.01 600,604.5C 594.275,609.717 588.442,609.717 582.5,604.5C 577.923,613.337 572.256,614.337 565.5,607.5C 561.53,612.973 556.196,614.806 549.5,613C 548.299,612.097 547.465,610.931 547,609.5C 541.931,617.452 536.764,617.452 531.5,609.5C 527.737,613.765 523.737,617.932 519.5,622C 516.106,622.752 512.773,622.585 509.5,621.5C 508.194,620.088 507.36,618.421 507,616.5C 505.425,609.568 504.258,602.568 503.5,595.5C 504.335,583.317 510.669,578.317 522.5,580.5C 523.795,579.902 525.128,579.402 526.5,579C 535.197,570.637 543.531,561.97 551.5,553C 559.592,546.617 568.592,542.45 578.5,540.5 Z"/></g>
<g><path style="opacity:1" fill="#d9d8cb" d="M 587.5,601.5 C 588.496,601.586 589.329,601.252 590,600.5C 592.94,596.545 595.94,592.545 599,588.5C 599.37,579.339 598.37,570.339 596,561.5C 591.36,554.156 584.693,549.822 576,548.5C 573.538,549.159 571.038,549.493 568.5,549.5C 581.297,543.74 592.13,546.407 601,557.5C 608.853,570.951 611.186,585.285 608,600.5C 606.604,602.527 604.938,602.86 603,601.5C 602.091,598.089 601.091,594.755 600,591.5C 598.35,595.573 596.516,599.573 594.5,603.5C 591.584,604.861 589.251,604.195 587.5,601.5 Z"/></g>
<g><path style="opacity:1" fill="#f4f3e6" d="M 587.5,601.5 C 585.433,599.682 584.1,597.349 583.5,594.5C 582.635,593.417 581.635,593.251 580.5,594C 579.955,598.074 578.621,601.907 576.5,605.5C 574.878,607.439 573.044,607.772 571,606.5C 568.863,602.486 567.03,598.486 565.5,594.5C 564.522,594.977 563.689,595.643 563,596.5C 563.284,605.334 559.118,609.667 550.5,609.5C 550.348,605.228 549.348,601.228 547.5,597.5C 545.179,600.394 544.012,603.727 544,607.5C 541.618,612.067 538.951,612.4 536,608.5C 535.887,606.026 534.887,604.026 533,602.5C 527.856,607.313 523.023,612.48 518.5,618C 516.098,618.814 513.765,618.647 511.5,617.5C 508.811,609.37 507.645,601.036 508,592.5C 508.668,588.501 510.835,585.668 514.5,584C 518.801,584.363 523.134,584.363 527.5,584C 529.167,583 530.833,582 532.5,581C 540.864,572.97 548.864,564.637 556.5,556C 560.367,553.567 564.367,551.4 568.5,549.5C 571.038,549.493 573.538,549.159 576,548.5C 584.693,549.822 591.36,554.156 596,561.5C 598.37,570.339 599.37,579.339 599,588.5C 595.94,592.545 592.94,596.545 590,600.5C 589.329,601.252 588.496,601.586 587.5,601.5 Z"/></g>
<g><path style="opacity:0.982" fill="#191918" d="M 290.5,554.5 C 298.253,554.104 305.92,554.604 313.5,556C 315.5,557.333 317.5,558.667 319.5,560C 322.228,566.042 326.895,569.709 333.5,571C 335.378,572.543 336.878,574.376 338,576.5C 338.242,583.196 338.742,589.862 339.5,596.5C 339.461,598.587 338.461,599.921 336.5,600.5C 332.274,599.93 328.108,599.263 324,598.5C 322.5,600 321,601.5 319.5,603C 317.287,603.626 315.12,603.459 313,602.5C 306.564,605.689 301.23,604.356 297,598.5C 284.481,607.161 276.648,603.994 273.5,589C 271.944,573.778 277.611,562.278 290.5,554.5 Z"/></g>
<g><path style="opacity:1" fill="#f4f3e6" d="M 334.5,587.5 C 334.5,590.167 334.5,592.833 334.5,595.5C 333.167,595.5 331.833,595.5 330.5,595.5C 327.482,595.335 324.482,595.502 321.5,596C 320.022,598.039 318.022,598.872 315.5,598.5C 315.5,597.5 315.5,596.5 315.5,595.5C 312.326,596.015 309.326,597.015 306.5,598.5C 305.5,598.333 304.5,598.167 303.5,598C 301.441,595.366 299.275,592.866 297,590.5C 296.292,591.381 295.458,592.047 294.5,592.5C 290.404,593.285 287.07,592.118 284.5,589C 284.833,588.667 285.167,588.333 285.5,588C 283.667,587.5 282.5,586.333 282,584.5C 281.501,580.179 281.334,575.846 281.5,571.5C 281.709,570.078 282.209,568.745 283,567.5C 286.167,565 289.333,562.5 292.5,560C 298.167,559.333 303.833,559.333 309.5,560C 314.42,562.916 318.753,566.582 322.5,571C 326.232,572.461 329.732,574.294 333,576.5C 333.936,580.114 334.436,583.78 334.5,587.5 Z"/></g>
<g><path style="opacity:1" fill="#d7d6c9" d="M 281.5,571.5 C 281.334,575.846 281.501,580.179 282,584.5C 282.5,586.333 283.667,587.5 285.5,588C 285.167,588.333 284.833,588.667 284.5,589C 287.07,592.118 290.404,593.285 294.5,592.5C 293.641,595.452 291.641,597.285 288.5,598C 285.364,599.041 282.864,598.207 281,595.5C 279.409,588.608 279.076,581.608 280,574.5C 280.232,573.263 280.732,572.263 281.5,571.5 Z"/></g>
<g><path style="opacity:1" fill="#64635e" d="M 334.5,587.5 C 335.477,590.287 335.81,593.287 335.5,596.5C 333.585,596.784 331.919,596.451 330.5,595.5C 331.833,595.5 333.167,595.5 334.5,595.5C 334.5,592.833 334.5,590.167 334.5,587.5 Z"/></g>

        
<g><path style="opacity:0.996" fill="#140d09" d="M 505.5,18.5 C 529.919,17.7264 553.919,20.5598 577.5,27C 609.101,35.4222 639.767,46.4222 669.5,60C 698.643,78.4613 725.476,99.9613 750,124.5C 769.217,147.939 781.717,174.606 787.5,204.5C 787.255,206.663 786.255,208.33 784.5,209.5C 759.247,199.852 733.247,192.685 706.5,188C 674.881,182.925 645.214,188.259 617.5,204C 595.206,220.746 581.706,242.913 577,270.5C 573.386,276.063 568.219,279.23 561.5,280C 535.059,282.696 509.726,278.696 485.5,268C 468.941,259.107 453.775,248.273 440,235.5C 437.168,231.336 435.001,226.836 433.5,222C 433.645,221.228 433.978,220.561 434.5,220C 452.214,214.488 469.881,208.821 487.5,203C 509.336,194.838 527.502,181.671 542,163.5C 552.415,149.418 554.082,134.418 547,118.5C 546.505,116.527 546.338,114.527 546.5,112.5C 552.944,108.776 559.611,105.276 566.5,102C 576.482,99.0056 586.482,96.339 596.5,94C 561.281,62.2167 520.614,40.05 474.5,27.5C 473.417,26.635 473.251,25.635 474,24.5C 475.816,23.6705 477.649,22.8372 479.5,22C 488.308,20.784 496.974,19.6174 505.5,18.5 Z"/></g>
<g><path style="opacity:1" fill="#824125" d="M 534.5,181.5 C 534.611,182.117 534.944,182.617 535.5,183C 533.045,185.404 531.212,188.238 530,191.5C 526,196.833 521.333,201.5 516,205.5C 515.439,204.978 514.772,204.645 514,204.5C 511.6,206.2 508.934,207.533 506,208.5C 505.055,208.095 504.388,207.428 504,206.5C 502.129,208.303 499.962,209.636 497.5,210.5C 496.914,210.291 496.414,209.957 496,209.5C 495.558,211.679 494.558,212.345 493,211.5C 491.601,212.227 490.101,212.727 488.5,213C 488.833,213.333 489.167,213.667 489.5,214C 487.02,214.915 486.353,216.415 487.5,218.5C 486.021,220.765 484.687,223.099 483.5,225.5C 485.42,227.666 486.586,230.666 487,234.5C 487.914,233.346 488.747,233.513 489.5,235C 489.167,235.333 488.833,235.667 488.5,236C 491.22,236.723 493.387,238.223 495,240.5C 495.333,240.167 495.667,239.833 496,239.5C 497.194,241.525 498.694,241.859 500.5,240.5C 504.237,242.444 507.737,242.778 511,241.5C 511.667,242.167 512.333,242.833 513,243.5C 516.06,244.568 519.393,244.568 523,243.5C 524.555,245.146 526.221,245.479 528,244.5C 528.667,245.167 529.333,245.833 530,246.5C 532.012,246.475 534.012,246.475 536,246.5C 538.399,249.023 541.065,250.356 544,250.5C 545.399,249.773 546.899,249.273 548.5,249C 548.167,248.667 547.833,248.333 547.5,248C 548.76,246.887 549.927,246.72 551,247.5C 554.864,243.616 558.364,239.45 561.5,235C 560.756,232.149 560.756,229.483 561.5,227C 562.672,226.581 563.672,225.915 564.5,225C 564.507,223.417 564.174,221.751 563.5,220C 566.429,215.885 568.596,211.385 570,206.5C 571.131,207.604 571.965,207.271 572.5,205.5C 571.128,203.38 571.795,202.38 574.5,202.5C 575.556,198.832 576.722,195.165 578,191.5C 578.667,194.167 579.333,194.167 580,191.5C 580.988,188.576 581.654,185.576 582,182.5C 582.333,183.5 582.667,184.5 583,185.5C 584.119,182.943 584.285,180.443 583.5,178C 588.448,172.409 589.782,165.909 587.5,158.5C 586.081,156.664 584.914,154.664 584,152.5C 583.586,152.957 583.086,153.291 582.5,153.5C 581.646,152.478 580.646,151.645 579.5,151C 577.109,150.713 574.776,150.213 572.5,149.5C 570.554,151.087 569.054,150.754 568,148.5C 566.364,152.011 565.197,152.344 564.5,149.5C 561.539,150.183 561.205,151.016 563.5,152C 561.079,154.094 558.412,155.76 555.5,157C 556.654,157.914 556.487,158.747 555,159.5C 554.667,159.167 554.333,158.833 554,158.5C 552.887,159.76 552.72,160.927 553.5,162C 551.751,162.785 550.084,163.618 548.5,164.5C 558.396,149.261 560.063,133.095 553.5,116C 556.103,112.692 559.436,110.359 563.5,109C 575.456,104.475 587.789,101.475 600.5,100C 603.661,97.9207 604.328,95.0873 602.5,91.5C 569.367,60.9222 531.034,39.0888 487.5,26C 492.051,24.7852 496.718,24.1186 501.5,24C 529.033,22.7422 556.033,26.0755 582.5,34C 611.325,42.1631 639.325,52.4964 666.5,65C 697.353,84.5175 725.186,107.684 750,134.5C 765.051,154.603 775.218,176.936 780.5,201.5C 764.34,196.17 748.006,191.336 731.5,187C 702.541,180.229 673.541,179.896 644.5,186C 603.461,199.42 579.461,227.42 572.5,270C 568.05,272.261 563.383,273.928 558.5,275C 532.793,277.222 508.46,272.555 485.5,261C 470.334,252.665 456.5,242.498 444,230.5C 442.833,228.167 441.667,225.833 440.5,223.5C 453.443,219.514 466.443,215.68 479.5,212C 499.666,204.922 518,194.755 534.5,181.5 Z"/></g>
<g><path style="opacity:0.996" fill="#15140d" d="M 110.5,109.5 C 117.11,104.559 123.11,98.8922 128.5,92.5C 136.353,85.1529 144.687,78.3196 153.5,72C 170.937,64.1151 187.937,55.4484 204.5,46C 222.928,39.3172 241.928,35.3172 261.5,34C 268.833,33.3333 276.167,33.3333 283.5,34C 284.406,35.6995 284.739,37.5328 284.5,39.5C 282.473,39.3379 280.473,39.5045 278.5,40C 251.079,56.5854 230.079,79.0854 215.5,107.5C 223.11,109.983 230.443,113.149 237.5,117C 239.543,119.009 241.543,121.009 243.5,123C 243.578,128.964 243.411,135.131 243,141.5C 242.488,146.038 240.988,150.204 238.5,154C 248.461,168.641 257.628,183.808 266,199.5C 276.165,211.143 285.665,223.143 294.5,235.5C 285.24,264.602 266.573,285.435 238.5,298C 232.801,299.002 227.301,300.502 222,302.5C 219.446,302.42 217.946,301.086 217.5,298.5C 226.852,273.567 224.685,249.567 211,226.5C 195.302,204.14 174.468,188.64 148.5,180C 123.327,176.617 100.993,182.95 81.5,199C 79.8876,199.72 78.3876,199.554 77,198.5C 77.0751,189.833 77.7417,181.166 79,172.5C 83.4608,161.784 87.1275,150.784 90,139.5C 95.9148,128.773 102.748,118.773 110.5,109.5 Z"/></g>
<g><path style="opacity:1" fill="#088c34" d="M 261.5,40.5 C 262.708,39.218 264.042,39.218 265.5,40.5C 265.376,41.1067 265.043,41.44 264.5,41.5C 263.791,40.596 262.791,40.2627 261.5,40.5 Z"/></g>
<g><path style="opacity:1" fill="#824426" d="M 261.5,40.5 C 262.791,40.2627 263.791,40.596 264.5,41.5C 252.897,50.4347 242.23,60.4347 232.5,71.5C 227.912,78.9221 222.745,85.9221 217,92.5C 213.985,97.5251 211.818,102.858 210.5,108.5C 207.433,108.121 206.433,109.121 207.5,111.5C 208.29,112.401 209.29,113.068 210.5,113.5C 220.409,115.02 229.576,119.02 238,125.5C 238.895,133.301 238.228,140.967 236,148.5C 234.839,149.995 233.673,151.495 232.5,153C 236.125,160.42 240.125,167.587 244.5,174.5C 244.657,175.873 244.49,177.207 244,178.5C 242.984,177.366 242.317,177.699 242,179.5C 241.667,178.833 241.333,178.167 241,177.5C 238.645,178.051 236.312,179.385 234,181.5C 232.238,181.056 232.405,180.556 234.5,180C 233.167,179.333 231.833,179.333 230.5,180C 231.696,180.654 231.696,181.154 230.5,181.5C 228.575,181.163 227.075,179.83 226,177.5C 225.667,177.833 225.333,178.167 225,178.5C 223.933,177.809 222.766,177.309 221.5,177C 222.28,175.927 222.113,174.76 221,173.5C 220.667,173.833 220.333,174.167 220,174.5C 218.685,171.508 216.685,169.175 214,167.5C 212.416,167.988 211.249,168.988 210.5,170.5C 209.914,170.291 209.414,169.957 209,169.5C 206.806,171.389 206.306,173.556 207.5,176C 206.76,177.785 206.093,179.618 205.5,181.5C 206.01,184.244 206.01,187.244 205.5,190.5C 207.672,192.985 209.672,196.152 211.5,200C 211.167,200.333 210.833,200.667 210.5,201C 213.156,202.003 214.156,203.67 213.5,206C 214.029,208.429 215.363,210.262 217.5,211.5C 218.074,213.059 218.74,214.559 219.5,216C 219.167,216.333 218.833,216.667 218.5,217C 220.558,218.49 221.891,220.49 222.5,223C 221.833,223.333 221.167,223.667 220.5,224C 221.833,225.667 223.167,227.333 224.5,229C 225.411,232.063 225.411,235.23 224.5,238.5C 218.88,223.691 209.88,211.191 197.5,201C 185.361,189.267 171.361,180.6 155.5,175C 129.005,169.127 105.005,174.294 83.5,190.5C 82.5318,188.393 82.1984,186.059 82.5,183.5C 86.1742,170.473 90.0076,157.473 94,144.5C 98.6302,137.049 102.964,129.382 107,121.5C 130.107,94.0315 158.274,73.5315 191.5,60C 200.927,52.6306 211.593,47.964 223.5,46C 236.198,43.9971 248.865,42.1638 261.5,40.5 Z"/></g>
<g><path style="opacity:1" fill="#916340" d="M 560.5,41.5 C 563.596,40.9066 565.929,41.9066 567.5,44.5C 568.086,44.2907 568.586,43.9574 569,43.5C 571.301,45.5985 573.635,46.9319 576,47.5C 577.806,45.0481 579.306,45.3814 580.5,48.5C 581.861,49.2435 584.361,49.2435 588,48.5C 589.46,50.4224 591.127,51.0891 593,50.5C 594.399,51.2266 595.899,51.7266 597.5,52C 596.346,52.9138 596.513,53.7471 598,54.5C 600.071,51.5845 601.405,51.9178 602,55.5C 602.388,54.572 603.055,53.9054 604,53.5C 606.5,54.3333 609,55.1667 611.5,56C 612.502,57.6718 613.668,58.8384 615,59.5C 616.268,59.3842 617.602,59.0509 619,58.5C 621.863,61.5153 625.363,63.3487 629.5,64C 629.167,64.3333 628.833,64.6667 628.5,65C 630.938,65.6821 633.105,65.1821 635,63.5C 636.011,63.8919 636.511,64.5585 636.5,65.5C 637.167,65.1667 637.833,64.8333 638.5,64.5C 643.73,67.5719 649.063,70.4052 654.5,73C 656.218,73.346 657.885,73.846 659.5,74.5C 660.803,73.2822 661.803,73.6155 662.5,75.5C 663.086,75.2907 663.586,74.9574 664,74.5C 664.415,76.2909 665.415,77.6243 667,78.5C 667.333,77.8333 667.667,77.1667 668,76.5C 669.857,78.5185 672.024,80.1851 674.5,81.5C 675.451,80.6744 676.451,80.5078 677.5,81C 679.156,82.8294 681.156,84.1628 683.5,85C 683.167,85.3333 682.833,85.6667 682.5,86C 686.743,87.1971 689.91,89.6971 692,93.5C 694.464,92.4744 696.298,93.3077 697.5,96C 696.66,97.6665 697.16,97.8331 699,96.5C 704.481,104.314 710.981,111.147 718.5,117C 718.167,117.333 717.833,117.667 717.5,118C 720.805,119.436 722.971,121.936 724,125.5C 724.914,124.346 725.747,124.513 726.5,126C 726.167,126.333 725.833,126.667 725.5,127C 728.058,129.298 729.891,132.132 731,135.5C 734.283,136.053 736.449,137.886 737.5,141C 737.167,141.333 736.833,141.667 736.5,142C 738.679,142.442 739.345,143.442 738.5,145C 740.651,145.191 742.651,146.358 744.5,148.5C 745.005,151.188 746.338,153.355 748.5,155C 747.903,156.628 748.237,158.295 749.5,160C 749.034,161.299 749.034,162.799 749.5,164.5C 750.5,164.5 751.5,164.5 752.5,164.5C 752.22,167.272 752.887,169.772 754.5,172C 752.012,173.685 752.345,175.019 755.5,176C 755.112,177.808 755.112,179.475 755.5,181C 754.953,181.925 754.287,182.758 753.5,183.5C 751.259,182.36 749.092,182.36 747,183.5C 745.333,182.5 743.667,181.5 742,180.5C 741.667,180.833 741.333,181.167 741,181.5C 739.823,179.824 738.323,178.491 736.5,177.5C 735.914,177.709 735.414,178.043 735,178.5C 732,177.5 729,176.5 726,175.5C 724,175.5 722,175.5 720,175.5C 717.546,174.656 715.046,173.656 712.5,172.5C 711.038,173.471 709.705,173.138 708.5,171.5C 705.674,171.686 702.841,172.019 700,172.5C 698.674,172.245 697.674,171.578 697,170.5C 686.504,171.473 675.838,171.473 665,170.5C 663.289,170.439 661.956,171.106 661,172.5C 659.68,172.201 658.18,172.034 656.5,172C 657.696,171.346 657.696,170.846 656.5,170.5C 654.866,170.968 653.7,171.968 653,173.5C 652.15,172.576 651.15,172.576 650,173.5C 649.055,173.095 648.388,172.428 648,171.5C 644.308,172.094 640.975,173.428 638,175.5C 636.026,175.353 634.026,175.019 632,174.5C 630.203,176.156 628.036,177.156 625.5,177.5C 622.833,177.5 620.167,177.5 617.5,177.5C 616.481,176.313 615.314,175.313 614,174.5C 613.577,175.956 612.744,176.456 611.5,176C 610.333,174.833 609.167,173.667 608,172.5C 606.915,167.563 606.248,162.563 606,157.5C 605.682,155.939 604.849,154.772 603.5,154C 605.709,153.043 605.543,151.876 603,150.5C 599.724,138.081 595.224,126.081 589.5,114.5C 589.848,112.303 590.848,110.47 592.5,109C 596.387,107.54 600.22,107.04 604,107.5C 605.168,106.491 606.335,105.491 607.5,104.5C 608.883,107.076 609.717,106.742 610,103.5C 610.667,104.167 611.333,104.833 612,105.5C 614.056,103.681 616.223,103.015 618.5,103.5C 620.333,101.833 622.167,100.167 624,98.5C 624.875,100.513 626.209,100.513 628,98.5C 628.333,98.8333 628.667,99.1667 629,99.5C 631.326,97.5455 633.659,95.5455 636,93.5C 637.243,94.3363 638.41,94.003 639.5,92.5C 637.851,91.3523 636.351,90.019 635,88.5C 634.667,88.8333 634.333,89.1667 634,89.5C 632.029,86.3615 629.196,84.6948 625.5,84.5C 623.95,81.1111 621.45,78.4445 618,76.5C 617.667,76.8333 617.333,77.1667 617,77.5C 614.03,75.5987 610.864,74.0987 607.5,73C 604.477,70.1036 601.144,67.9369 597.5,66.5C 597.649,65.448 597.483,64.448 597,63.5C 596,63.5 595,63.5 594,63.5C 593.558,61.3215 592.558,60.6548 591,61.5C 589.899,59.6061 588.566,58.9394 587,59.5C 584.532,58.8957 582.532,57.5624 581,55.5C 580.667,55.8333 580.333,56.1667 580,56.5C 573.686,53.2599 567.186,50.4265 560.5,48C 558.412,45.5353 558.412,43.3686 560.5,41.5 Z"/></g>
<g><path style="opacity:1" fill="#916340" d="M 225.5,53.5 C 227.96,55.5169 227.627,57.3502 224.5,59C 224.833,59.3333 225.167,59.6667 225.5,60C 223.127,61.9803 220.961,64.1469 219,66.5C 217.035,73.1209 213.202,78.2876 207.5,82C 207.957,82.414 208.291,82.914 208.5,83.5C 207.478,84.354 206.645,85.354 206,86.5C 205.667,86.1667 205.333,85.8333 205,85.5C 204.556,88.6108 203.223,91.2775 201,93.5C 200.667,93.1667 200.333,92.8333 200,92.5C 199.667,93.8333 199.333,95.1667 199,96.5C 196.658,99.1671 194.491,102 192.5,105C 193.634,106.016 193.301,106.683 191.5,107C 192.479,108.779 192.146,110.445 190.5,112C 191.833,113.84 191.666,114.34 190,113.5C 189.764,115.764 189.264,117.931 188.5,120C 189,120.5 189.5,121 190,121.5C 191.566,122.061 192.899,121.394 194,119.5C 197.719,120.059 201.719,120.059 206,119.5C 206.853,121.125 207.853,121.458 209,120.5C 211.843,123.675 215.01,126.509 218.5,129C 217.542,130.147 217.875,131.147 219.5,132C 219.5,134 219.5,136 219.5,138C 217.665,138.928 217.332,140.094 218.5,141.5C 217.35,144.138 216.016,146.638 214.5,149C 214.957,149.414 215.291,149.914 215.5,150.5C 214.833,150.833 214.167,151.167 213.5,151.5C 214.55,153.102 213.883,153.935 211.5,154C 212.167,154.333 212.833,154.667 213.5,155C 211.234,155.932 209.234,157.266 207.5,159C 207.071,161.092 205.738,163.092 203.5,165C 203.833,165.333 204.167,165.667 204.5,166C 202.015,167.487 199.848,169.321 198,171.5C 195.546,170.802 193.213,169.802 191,168.5C 188.693,167.855 186.193,167.855 183.5,168.5C 179.16,166.719 174.993,164.719 171,162.5C 169.286,163.925 167.953,163.592 167,161.5C 165.372,162.097 163.705,161.763 162,160.5C 147.274,161.815 132.607,161.815 118,160.5C 117.692,161.308 117.192,161.975 116.5,162.5C 116.167,161.833 115.833,161.167 115.5,160.5C 112.157,161.026 108.99,162.026 106,163.5C 104.75,162.427 103.416,162.427 102,163.5C 99.0302,161.886 98.8636,159.886 101.5,157.5C 99.8953,154.42 100.562,151.92 103.5,150C 103.167,149.667 102.833,149.333 102.5,149C 105.017,144.315 107.351,139.482 109.5,134.5C 109.291,133.914 108.957,133.414 108.5,133C 111.415,131.883 113.415,129.883 114.5,127C 114.167,126.667 113.833,126.333 113.5,126C 114.743,123.966 116.243,123.133 118,123.5C 118.862,121.913 119.529,120.246 120,118.5C 120.667,117.167 121.333,117.167 122,118.5C 122.333,117.5 122.667,116.5 123,115.5C 125.811,114.777 128.311,112.944 130.5,110C 130.167,109.667 129.833,109.333 129.5,109C 130.5,108.667 131.5,108.333 132.5,108C 132.167,107.667 131.833,107.333 131.5,107C 139.307,101.045 147.307,95.2119 155.5,89.5C 157.333,87.1667 159.167,84.8333 161,82.5C 162,82.8333 163,83.1667 164,83.5C 165.333,82.1667 166.667,80.8333 168,79.5C 168.333,79.8333 168.667,80.1667 169,80.5C 171,79.1667 173,77.8333 175,76.5C 176.333,76.5 177.667,76.5 179,76.5C 181.884,75.4402 183.717,73.9402 184.5,72C 186.134,71.5065 187.801,71.3398 189.5,71.5C 189.413,68.4017 189.913,68.0684 191,70.5C 191.29,68.9559 191.956,67.6226 193,66.5C 198.717,65.5131 204.217,63.1798 209.5,59.5C 211.224,60.6613 212.89,60.4947 214.5,59C 213.66,57.3335 214.16,57.1669 216,58.5C 217.93,55.6041 220.43,54.6041 223.5,55.5C 224.522,55.1445 225.189,54.4778 225.5,53.5 Z"/></g>
<g><path style="opacity:0.749" fill="#3f2b1d" d="M 128.5,92.5 C 123.11,98.8922 117.11,104.559 110.5,109.5C 115.89,103.108 121.89,97.4412 128.5,92.5 Z"/></g>
<g><path style="opacity:1" fill="#366c32" d="M 207.5,111.5 C 209.179,111.285 210.179,111.952 210.5,113.5C 209.29,113.068 208.29,112.401 207.5,111.5 Z"/></g>
<g><path style="opacity:1" fill="#916340" d="M 534.5,181.5 C 539.167,175.833 543.833,170.167 548.5,164.5C 550.084,163.618 551.751,162.785 553.5,162C 552.72,160.927 552.887,159.76 554,158.5C 554.333,158.833 554.667,159.167 555,159.5C 556.487,158.747 556.654,157.914 555.5,157C 558.412,155.76 561.079,154.094 563.5,152C 561.205,151.016 561.539,150.183 564.5,149.5C 565.197,152.344 566.364,152.011 568,148.5C 569.054,150.754 570.554,151.087 572.5,149.5C 574.776,150.213 577.109,150.713 579.5,151C 580.646,151.645 581.646,152.478 582.5,153.5C 583.086,153.291 583.586,152.957 584,152.5C 584.914,154.664 586.081,156.664 587.5,158.5C 589.782,165.909 588.448,172.409 583.5,178C 584.285,180.443 584.119,182.943 583,185.5C 582.667,184.5 582.333,183.5 582,182.5C 581.654,185.576 580.988,188.576 580,191.5C 579.333,194.167 578.667,194.167 578,191.5C 576.722,195.165 575.556,198.832 574.5,202.5C 571.795,202.38 571.128,203.38 572.5,205.5C 571.965,207.271 571.131,207.604 570,206.5C 568.596,211.385 566.429,215.885 563.5,220C 564.174,221.751 564.507,223.417 564.5,225C 563.672,225.915 562.672,226.581 561.5,227C 560.756,229.483 560.756,232.149 561.5,235C 558.364,239.45 554.864,243.616 551,247.5C 549.927,246.72 548.76,246.887 547.5,248C 547.833,248.333 548.167,248.667 548.5,249C 546.899,249.273 545.399,249.773 544,250.5C 541.065,250.356 538.399,249.023 536,246.5C 534.012,246.475 532.012,246.475 530,246.5C 529.333,245.833 528.667,245.167 528,244.5C 526.221,245.479 524.555,245.146 523,243.5C 519.393,244.568 516.06,244.568 513,243.5C 512.333,242.833 511.667,242.167 511,241.5C 507.737,242.778 504.237,242.444 500.5,240.5C 498.694,241.859 497.194,241.525 496,239.5C 495.667,239.833 495.333,240.167 495,240.5C 493.387,238.223 491.22,236.723 488.5,236C 488.833,235.667 489.167,235.333 489.5,235C 488.747,233.513 487.914,233.346 487,234.5C 486.586,230.666 485.42,227.666 483.5,225.5C 484.687,223.099 486.021,220.765 487.5,218.5C 486.353,216.415 487.02,214.915 489.5,214C 489.167,213.667 488.833,213.333 488.5,213C 490.101,212.727 491.601,212.227 493,211.5C 494.558,212.345 495.558,211.679 496,209.5C 496.414,209.957 496.914,210.291 497.5,210.5C 499.962,209.636 502.129,208.303 504,206.5C 504.388,207.428 505.055,208.095 506,208.5C 508.934,207.533 511.6,206.2 514,204.5C 514.772,204.645 515.439,204.978 516,205.5C 521.333,201.5 526,196.833 530,191.5C 531.212,188.238 533.045,185.404 535.5,183C 534.944,182.617 534.611,182.117 534.5,181.5 Z"/></g>
<g><path style="opacity:1" fill="#906340" d="M 244.5,174.5 C 249.9,184.296 255.566,193.962 261.5,203.5C 260.722,205.664 260.388,207.83 260.5,210C 261.061,211.676 262.061,213.009 263.5,214C 262.167,215.84 262.334,216.34 264,215.5C 265.551,221.602 267.718,226.769 270.5,231C 269.663,232.011 269.33,233.178 269.5,234.5C 270.5,234.5 271.5,234.5 272.5,234.5C 272.421,235.93 272.754,237.264 273.5,238.5C 272.624,239.251 271.624,239.751 270.5,240C 271.167,240.333 271.833,240.667 272.5,241C 270.981,242.351 269.648,243.851 268.5,245.5C 267.914,245.291 267.414,244.957 267,244.5C 265.507,249.316 262.674,253.149 258.5,256C 258.833,256.333 259.167,256.667 259.5,257C 256.272,258.563 254.105,261.063 253,264.5C 251.853,263.542 250.853,263.875 250,265.5C 247.333,268.833 244.667,272.167 242,275.5C 241.667,275.167 241.333,274.833 241,274.5C 240.667,275.5 240.333,276.5 240,277.5C 237.89,277.725 235.223,277.725 232,277.5C 231.984,274.979 232.151,272.479 232.5,270C 232.491,268.596 231.991,267.43 231,266.5C 230.814,269.036 230.314,271.369 229.5,273.5C 229.666,267.491 229.499,261.491 229,255.5C 227.183,249.914 225.683,244.247 224.5,238.5C 225.411,235.23 225.411,232.063 224.5,229C 223.167,227.333 221.833,225.667 220.5,224C 221.167,223.667 221.833,223.333 222.5,223C 221.891,220.49 220.558,218.49 218.5,217C 218.833,216.667 219.167,216.333 219.5,216C 218.74,214.559 218.074,213.059 217.5,211.5C 215.363,210.262 214.029,208.429 213.5,206C 214.156,203.67 213.156,202.003 210.5,201C 210.833,200.667 211.167,200.333 211.5,200C 209.672,196.152 207.672,192.985 205.5,190.5C 206.01,187.244 206.01,184.244 205.5,181.5C 206.093,179.618 206.76,177.785 207.5,176C 206.306,173.556 206.806,171.389 209,169.5C 209.414,169.957 209.914,170.291 210.5,170.5C 211.249,168.988 212.416,167.988 214,167.5C 216.685,169.175 218.685,171.508 220,174.5C 220.333,174.167 220.667,173.833 221,173.5C 222.113,174.76 222.28,175.927 221.5,177C 222.766,177.309 223.933,177.809 225,178.5C 225.333,178.167 225.667,177.833 226,177.5C 227.075,179.83 228.575,181.163 230.5,181.5C 231.696,181.154 231.696,180.654 230.5,180C 231.833,179.333 233.167,179.333 234.5,180C 232.405,180.556 232.238,181.056 234,181.5C 236.312,179.385 238.645,178.051 241,177.5C 241.333,178.167 241.667,178.833 242,179.5C 242.317,177.699 242.984,177.366 244,178.5C 244.49,177.207 244.657,175.873 244.5,174.5 Z"/></g>
<g><path style="opacity:1" fill="#008a42" d="M 82.5,183.5 C 82.1984,186.059 82.5318,188.393 83.5,190.5C 83.44,191.043 83.1067,191.376 82.5,191.5C 81.1997,188.691 81.1997,186.024 82.5,183.5 Z"/></g>
<g><path style="opacity:1" fill="#824425" d="M 261.5,203.5 C 270.486,213.667 278.986,224.333 287,235.5C 287.201,238.515 286.868,241.515 286,244.5C 273.8,269.29 254.634,285.957 228.5,294.5C 228.167,294.167 227.833,293.833 227.5,293.5C 229.27,286.971 229.936,280.304 229.5,273.5C 230.314,271.369 230.814,269.036 231,266.5C 231.991,267.43 232.491,268.596 232.5,270C 232.151,272.479 231.984,274.979 232,277.5C 235.223,277.725 237.89,277.725 240,277.5C 240.333,276.5 240.667,275.5 241,274.5C 241.333,274.833 241.667,275.167 242,275.5C 244.667,272.167 247.333,268.833 250,265.5C 250.853,263.875 251.853,263.542 253,264.5C 254.105,261.063 256.272,258.563 259.5,257C 259.167,256.667 258.833,256.333 258.5,256C 262.674,253.149 265.507,249.316 267,244.5C 267.414,244.957 267.914,245.291 268.5,245.5C 269.648,243.851 270.981,242.351 272.5,241C 271.833,240.667 271.167,240.333 270.5,240C 271.624,239.751 272.624,239.251 273.5,238.5C 272.754,237.264 272.421,235.93 272.5,234.5C 271.5,234.5 270.5,234.5 269.5,234.5C 269.33,233.178 269.663,232.011 270.5,231C 267.718,226.769 265.551,221.602 264,215.5C 262.334,216.34 262.167,215.84 263.5,214C 262.061,213.009 261.061,211.676 260.5,210C 260.388,207.83 260.722,205.664 261.5,203.5 Z"/></g>

        
<g><path style="opacity:0.998" fill="#181c1e" d="M 567.5,264.5 C 567.427,266.027 568.094,267.027 569.5,267.5C 570.833,268.167 571.833,269.167 572.5,270.5C 572.427,272.027 573.094,273.027 574.5,273.5C 576.786,276.463 578.619,279.796 580,283.5C 581.333,288.167 582.667,292.833 584,297.5C 600.968,293.905 616.801,296.738 631.5,306C 657.957,323.456 680.123,345.29 698,371.5C 700.529,375.926 702.362,380.592 703.5,385.5C 703.41,388.152 704.076,390.485 705.5,392.5C 706.37,394.032 706.036,395.532 704.5,397C 701.814,398.368 699.147,399.701 696.5,401C 687.337,403.06 678.337,403.893 669.5,403.5C 671.81,407.254 673.643,411.254 675,415.5C 676.619,423.927 678.619,432.26 681,440.5C 682.454,454.02 679.787,466.687 673,478.5C 663.749,491.086 652.582,501.586 639.5,510C 630.893,513.302 622.893,517.635 615.5,523C 597.029,529.157 579.029,536.491 561.5,545C 545.683,550.606 529.683,555.606 513.5,560C 521.167,567 528.833,574 536.5,581C 541.889,585.389 547.556,589.389 553.5,593C 559.667,598.5 565.833,604 572,609.5C 578.423,618.674 584.09,628.34 589,638.5C 598.788,663.109 604.621,688.609 606.5,715C 605.825,731.869 601.492,747.703 593.5,762.5C 592.711,762.783 592.044,763.283 591.5,764C 593.134,764.494 594.801,764.66 596.5,764.5C 603.201,764.682 609.201,766.849 614.5,771C 619.719,777.218 624.552,783.718 629,790.5C 633.064,794.786 637.897,797.952 643.5,800C 646.319,802.72 645.986,805.053 642.5,807C 635.644,812.007 627.978,814.507 619.5,814.5C 615.167,814.5 610.833,814.5 606.5,814.5C 606.263,815.791 606.596,816.791 607.5,817.5C 609.143,819.708 608.81,821.541 606.5,823C 599.093,824.492 591.593,825.325 584,825.5C 570.833,824.357 557.666,823.19 544.5,822C 528.753,817.882 515.253,810.049 504,798.5C 495.911,789.336 489.577,779.003 485,767.5C 473.056,772.575 460.556,774.908 447.5,774.5C 441.513,773.858 435.513,773.358 429.5,773C 427,772.625 424.667,771.792 422.5,770.5C 418.78,774.733 415.613,779.4 413,784.5C 396.732,800.487 377.065,808.487 354,808.5C 349.103,808.068 344.269,807.234 339.5,806C 337.709,805.585 336.376,804.585 335.5,803C 338.138,800.346 341.138,798.18 344.5,796.5C 345.973,795.928 347.307,795.095 348.5,794C 346.609,793.797 344.943,794.297 343.5,795.5C 334.515,796.911 325.515,796.744 316.5,795C 304.562,791.925 299.562,784.425 301.5,772.5C 312.272,769.781 321.939,764.947 330.5,758C 319.87,750.041 313.37,739.541 311,726.5C 307.602,710.123 307.769,693.789 311.5,677.5C 312.793,675.636 312.793,673.636 311.5,671.5C 310.893,671.624 310.56,671.957 310.5,672.5C 309.013,673.804 307.346,674.97 305.5,676C 298.059,677.01 291.059,675.843 284.5,672.5C 275.52,664.574 271.187,654.574 271.5,642.5C 272.908,618.525 282.242,598.358 299.5,582C 310.392,573.408 322.392,571.241 335.5,575.5C 336.947,576.885 337.947,576.552 338.5,574.5C 338.433,573.041 338.766,571.708 339.5,570.5C 340.757,569.377 340.424,568.711 338.5,568.5C 326.038,567.642 313.704,565.808 301.5,563C 279.858,557.675 258.525,551.341 237.5,544C 217.724,535.619 199.39,524.952 182.5,512C 179.629,509.297 176.962,506.464 174.5,503.5C 174.027,502.094 173.027,501.427 171.5,501.5C 155.808,488.291 146.475,471.458 143.5,451C 144.485,443.505 144.985,436.005 145,428.5C 139.772,431.396 134.272,432.062 128.5,430.5C 127.063,426.472 126.397,422.305 126.5,418C 128.512,388.142 139.012,361.642 158,338.5C 167.466,327.852 178.966,320.352 192.5,316C 198.537,315.303 204.537,315.47 210.5,316.5C 212.5,305.171 217.167,295.171 224.5,286.5C 225.906,286.027 226.573,285.027 226.5,283.5C 228.616,277.549 231.783,272.215 236,267.5C 246.355,255.578 258.188,245.412 271.5,237C 347.364,211.021 424.364,207.021 502.5,225C 512.956,228.227 522.956,232.56 532.5,238C 541.167,244.671 550.501,250.338 560.5,255C 562.476,258.463 564.81,261.63 567.5,264.5 Z"/></g>
<g><path style="opacity:1" fill="#01b5e8" d="M 587.5,310.5 C 586.895,306.028 588.561,303.028 592.5,301.5C 599.257,301.123 605.924,301.623 612.5,303C 623.41,307.12 633.41,312.787 642.5,320C 660.452,334.449 676.119,350.949 689.5,369.5C 691.221,387.94 682.888,395.44 664.5,392C 658.088,389.643 651.755,387.31 645.5,385C 647.667,386.5 649.833,388 652,389.5C 653.524,391.898 655.024,394.231 656.5,396.5C 659.07,399.917 661.903,403.25 665,406.5C 667.332,409.822 668.498,413.489 668.5,417.5C 664.859,445.281 652.859,468.781 632.5,488C 613.065,503.392 591.732,515.725 568.5,525C 543.342,532.276 518.342,539.943 493.5,548C 448.331,557.276 402.664,559.943 356.5,556C 345.966,553.533 335.3,551.866 324.5,551C 295.111,542.537 266.111,532.87 237.5,522C 215.351,512.1 195.018,499.434 176.5,484C 168.977,475.778 161.81,467.278 155,458.5C 151.984,451.485 150.817,444.152 151.5,436.5C 153.969,428.598 154.969,420.598 154.5,412.5C 153.817,412.863 153.15,413.196 152.5,413.5C 148.574,418.296 143.574,421.296 137.5,422.5C 135.199,422.016 133.199,421.016 131.5,419.5C 132.842,409.136 134.342,398.803 136,388.5C 140.728,378.044 145.728,367.711 151,357.5C 160.887,340.274 175.054,328.108 193.5,321C 200.189,320.622 206.856,320.622 213.5,321C 224.894,285.557 246.56,258.224 278.5,239C 326.456,224.714 375.456,218.047 425.5,219C 438.948,221.656 452.615,223.323 466.5,224C 488.8,226.156 509.8,232.49 529.5,243C 538.999,249.251 548.666,255.251 558.5,261C 569.705,272.243 576.538,285.743 579,301.5C 581.39,308.619 585.057,314.953 590,320.5C 589.506,317.164 588.672,313.831 587.5,310.5 Z"/></g>
<g><path style="opacity:0.725" fill="#81807a" d="M 567.5,264.5 C 568.906,264.973 569.573,265.973 569.5,267.5C 568.094,267.027 567.427,266.027 567.5,264.5 Z"/></g>
<g><path style="opacity:0.545" fill="#81807a" d="M 572.5,270.5 C 573.906,270.973 574.573,271.973 574.5,273.5C 573.094,273.027 572.427,272.027 572.5,270.5 Z"/></g>
<g><path style="opacity:0.486" fill="#82827b" d="M 226.5,283.5 C 226.573,285.027 225.906,286.027 224.5,286.5C 224.427,284.973 225.094,283.973 226.5,283.5 Z"/></g>
<g><path style="opacity:1" fill="#0c7aaa" d="M 592.5,301.5 C 588.561,303.028 586.895,306.028 587.5,310.5C 585.98,308.11 584.98,305.443 584.5,302.5C 587.127,301.908 589.794,301.575 592.5,301.5 Z"/></g>
<g><path style="opacity:1" fill="#070b0c" d="M 618.5,337.5 C 634.542,353.376 653.208,365.543 674.5,374C 676.954,375.74 678.454,377.907 679,380.5C 677.612,381.554 676.112,381.72 674.5,381C 660.835,373.503 647.502,365.503 634.5,357C 629.973,352.473 625.473,347.973 621,343.5C 619.441,341.783 618.608,339.783 618.5,337.5 Z"/></g>
<g><path style="opacity:1" fill="#077baf" d="M 689.5,369.5 C 695.393,376.932 698.726,385.265 699.5,394.5C 689.842,398.206 679.842,399.373 669.5,398C 665.09,396.449 660.757,394.949 656.5,393.5C 656.5,394.5 656.5,395.5 656.5,396.5C 655.024,394.231 653.524,391.898 652,389.5C 649.833,388 647.667,386.5 645.5,385C 651.755,387.31 658.088,389.643 664.5,392C 682.888,395.44 691.221,387.94 689.5,369.5 Z"/></g>
<g><path style="opacity:1" fill="#070d0e" d="M 147.5,382.5 C 148.947,383.134 149.613,384.301 149.5,386C 148.279,393.491 147.113,400.991 146,408.5C 144.374,411.128 142.374,413.461 140,415.5C 141.213,404.227 143.713,393.227 147.5,382.5 Z"/></g>
<g><path style="opacity:0.686" fill="#686862" d="M 703.5,385.5 C 704.924,387.515 705.59,389.848 705.5,392.5C 704.076,390.485 703.41,388.152 703.5,385.5 Z"/></g>
<g><path style="opacity:1" fill="#097aac" d="M 152.5,413.5 C 149.619,421.965 143.619,426.631 134.5,427.5C 132.016,425.464 131.016,422.798 131.5,419.5C 133.199,421.016 135.199,422.016 137.5,422.5C 143.574,421.296 148.574,418.296 152.5,413.5 Z"/></g>
<g><path style="opacity:1" fill="#067aae" d="M 668.5,417.5 C 669.586,417.62 670.253,418.287 670.5,419.5C 672.505,428.85 674.505,438.183 676.5,447.5C 675.399,460.687 670.732,472.354 662.5,482.5C 657.167,487.167 652.167,492.167 647.5,497.5C 636.091,503.71 624.757,510.21 613.5,517C 594.28,523.296 575.614,530.963 557.5,540C 535.004,547.711 512.337,554.377 489.5,560C 464.817,564.039 439.984,566.539 415,567.5C 386.539,565.485 358.039,563.985 329.5,563C 288.931,556.527 250.265,544.193 213.5,526C 189.832,512.998 170.665,495.165 156,472.5C 149.589,460.938 148.089,448.938 151.5,436.5C 150.817,444.152 151.984,451.485 155,458.5C 161.81,467.278 168.977,475.778 176.5,484C 195.018,499.434 215.351,512.1 237.5,522C 266.111,532.87 295.111,542.537 324.5,551C 335.3,551.866 345.966,553.533 356.5,556C 402.664,559.943 448.331,557.276 493.5,548C 518.342,539.943 543.342,532.276 568.5,525C 591.732,515.725 613.065,503.392 632.5,488C 652.859,468.781 664.859,445.281 668.5,417.5 Z"/></g>
<g><path style="opacity:1" fill="#022d41" d="M 662.5,482.5 C 658.5,488.5 653.5,493.5 647.5,497.5C 652.167,492.167 657.167,487.167 662.5,482.5 Z"/></g>
<g><path style="opacity:0.718" fill="#83837c" d="M 171.5,501.5 C 173.027,501.427 174.027,502.094 174.5,503.5C 172.973,503.573 171.973,502.906 171.5,501.5 Z"/></g>
<g><path style="opacity:1" fill="#0579ae" d="M 478.5,672.5 C 479.316,674.144 480.65,675.31 482.5,676C 493.813,680.752 503.813,678.919 512.5,670.5C 512.833,670.833 513.167,671.167 513.5,671.5C 512.03,674.308 511.197,677.308 511,680.5C 510.269,682.899 509.102,685.065 507.5,687C 510.833,689 514.167,689 517.5,687C 531.421,676.687 539.921,662.853 543,645.5C 543.947,633.228 539.78,623.061 530.5,615C 523.496,610.163 516.163,605.829 508.5,602C 499.47,598.897 490.303,598.064 481,599.5C 477.485,607.683 477.985,615.683 482.5,623.5C 479.407,625.309 476.074,626.309 472.5,626.5C 472.923,625.735 473.257,624.902 473.5,624C 472.021,618.752 471.021,613.419 470.5,608C 470.59,604.806 471.59,601.973 473.5,599.5C 473.167,598.5 472.5,597.833 471.5,597.5C 469.364,598.472 468.197,600.139 468,602.5C 467.081,608.966 467.581,615.299 469.5,621.5C 458.98,625.321 450.48,631.654 444,640.5C 430.726,618.269 417.226,596.269 403.5,574.5C 414.63,572.841 425.963,571.841 437.5,571.5C 461.059,569.586 484.392,566.42 507.5,562C 519.747,573.585 532.58,584.418 546,594.5C 546.333,596.047 545.833,597.38 544.5,598.5C 548.847,601.371 552.014,605.371 554,610.5C 566.153,641.08 559.987,667.247 535.5,689C 525.224,698.136 513.224,702.136 499.5,701C 492.521,698.359 487.021,693.859 483,687.5C 480.383,682.817 478.883,677.817 478.5,672.5 Z"/></g>
<g><path style="opacity:0.118" fill="#cacabf" d="M 338.5,568.5 C 340.424,568.711 340.757,569.377 339.5,570.5C 339.167,569.833 338.833,569.167 338.5,568.5 Z"/></g>
<g><path style="opacity:1" fill="#01b5e8" d="M 341.5,624.5 C 340.876,624.917 340.543,625.584 340.5,626.5C 342.326,636.254 343.659,646.087 344.5,656C 344.554,658.873 343.888,661.54 342.5,664C 336.839,663.182 331.506,661.182 326.5,658C 319.953,652.954 314.286,647.12 309.5,640.5C 307.682,644.136 305.849,647.802 304,651.5C 296.56,654.165 290.893,651.832 287,644.5C 283.432,623.869 288.766,605.869 303,590.5C 307.859,584.786 313.359,580.119 319.5,576.5C 326.113,576.151 332.113,577.818 337.5,581.5C 337.712,583.384 338.712,584.717 340.5,585.5C 341.487,582.232 341.82,578.898 341.5,575.5C 342.216,573.444 342.883,571.277 343.5,569C 347.541,568.838 351.541,569.338 355.5,570.5C 348.587,587.907 343.921,605.907 341.5,624.5 Z"/></g>
<g><path style="opacity:1" fill="#6db4c8" d="M 360.5,674.5 C 365.636,683.259 371.636,691.426 378.5,699C 384.877,703.189 391.544,706.855 398.5,710C 417.349,716.655 424.849,710.155 421,690.5C 413.133,671.662 409.299,651.996 409.5,631.5C 398.974,626.785 387.974,624.118 376.5,623.5C 367.747,622.705 360.081,625.039 353.5,630.5C 351.158,627.493 348.825,624.493 346.5,621.5C 349.487,606.708 352.987,592.041 357,577.5C 357.93,575.064 359.097,572.731 360.5,570.5C 364.795,569.339 369.129,569.172 373.5,570C 381.953,570.635 390.287,571.801 398.5,573.5C 412.833,597.5 427.167,621.5 441.5,645.5C 436.166,659.522 436.333,673.522 442,687.5C 449.259,695.897 458.426,699.063 469.5,697C 472.798,696.513 475.798,695.347 478.5,693.5C 480.786,693.96 482.119,695.293 482.5,697.5C 479.307,719.149 479.973,740.649 484.5,762C 484.167,762.5 483.833,763 483.5,763.5C 454.121,772.925 425.787,770.425 398.5,756C 385.188,748.027 373.021,738.527 362,727.5C 358.333,721.833 354.667,716.167 351,710.5C 348.591,702.618 346.757,694.618 345.5,686.5C 351.447,683.692 356.447,679.692 360.5,674.5 Z"/></g>
<g><path style="opacity:1" fill="#022c40" d="M 437.5,571.5 C 425.963,571.841 414.63,572.841 403.5,574.5C 402.596,573.791 402.263,572.791 402.5,571.5C 414.167,571.5 425.833,571.5 437.5,571.5 Z"/></g>
<g><path style="opacity:0.553" fill="#93928a" d="M 338.5,574.5 C 337.947,576.552 336.947,576.885 335.5,575.5C 336.609,575.443 337.609,575.11 338.5,574.5 Z"/></g>
<g><path style="opacity:1" fill="#0d677f" d="M 341.5,575.5 C 341.82,578.898 341.487,582.232 340.5,585.5C 338.712,584.717 337.712,583.384 337.5,581.5C 338.458,581.953 339.292,582.619 340,583.5C 340.183,580.635 340.683,577.969 341.5,575.5 Z"/></g>
<g><path style="opacity:1" fill="#0679ad" d="M 319.5,576.5 C 313.359,580.119 307.859,584.786 303,590.5C 288.766,605.869 283.432,623.869 287,644.5C 290.893,651.832 296.56,654.165 304,651.5C 305.849,647.802 307.682,644.136 309.5,640.5C 314.286,647.12 319.953,652.954 326.5,658C 331.506,661.182 336.839,663.182 342.5,664C 343.888,661.54 344.554,658.873 344.5,656C 343.659,646.087 342.326,636.254 340.5,626.5C 340.543,625.584 340.876,624.917 341.5,624.5C 343.341,627.86 345.841,630.86 349,633.5C 356.123,645.314 358.79,657.981 357,671.5C 347.754,683.243 336.587,685.409 323.5,678C 320.61,676.062 317.944,673.895 315.5,671.5C 315.325,667.14 315.325,662.806 315.5,658.5C 312.383,663.451 308.383,667.618 303.5,671C 299.152,671.238 294.819,670.905 290.5,670C 278.528,660.766 274.028,648.599 277,633.5C 280.837,610.292 292.337,592.125 311.5,579C 313.909,577.293 316.575,576.46 319.5,576.5 Z"/></g>
<g><path style="opacity:1" fill="#01b5e8" d="M 478.5,672.5 C 478.817,669.428 478.484,666.428 477.5,663.5C 476.056,665.608 475.39,667.941 475.5,670.5C 473.625,679.348 467.958,684.015 458.5,684.5C 455.512,684.283 452.845,683.283 450.5,681.5C 447.814,678.097 445.147,674.764 442.5,671.5C 440.031,647.715 450.031,632.715 472.5,626.5C 476.074,626.309 479.407,625.309 482.5,623.5C 477.985,615.683 477.485,607.683 481,599.5C 490.303,598.064 499.47,598.897 508.5,602C 516.163,605.829 523.496,610.163 530.5,615C 539.78,623.061 543.947,633.228 543,645.5C 539.921,662.853 531.421,676.687 517.5,687C 514.167,689 510.833,689 507.5,687C 509.102,685.065 510.269,682.899 511,680.5C 511.197,677.308 512.03,674.308 513.5,671.5C 513.167,671.167 512.833,670.833 512.5,670.5C 503.813,678.919 493.813,680.752 482.5,676C 480.65,675.31 479.316,674.144 478.5,672.5 Z"/></g>
<g><path style="opacity:1" fill="#01b5e8" d="M 598.5,692.5 C 599.585,721.745 590.251,746.912 570.5,768C 559.897,776.467 547.897,781.967 534.5,784.5C 524.3,783.481 516.133,778.815 510,770.5C 503.835,757.837 501.335,744.504 502.5,730.5C 515.107,740.264 528.107,740.764 541.5,732C 553.871,721.408 561.704,708.241 565,692.5C 565.414,680.636 566.247,668.803 567.5,657C 567.12,651.981 566.454,647.148 565.5,642.5C 565.039,628.701 561.705,615.701 555.5,603.5C 556.002,602.479 556.668,602.312 557.5,603C 571.596,617.015 581.763,633.515 588,652.5C 592.713,665.589 596.213,678.922 598.5,692.5 Z"/></g>
<g><path style="opacity:1" fill="#86cdeb" d="M 360.5,674.5 C 363.081,665.176 362.914,655.842 360,646.5C 358.097,641.032 355.93,635.699 353.5,630.5C 360.081,625.039 367.747,622.705 376.5,623.5C 387.974,624.118 398.974,626.785 409.5,631.5C 409.299,651.996 413.133,671.662 421,690.5C 424.849,710.155 417.349,716.655 398.5,710C 391.544,706.855 384.877,703.189 378.5,699C 371.636,691.426 365.636,683.259 360.5,674.5 Z"/></g>
<g><path style="opacity:1" fill="#0579ae" d="M 565.5,642.5 C 566.454,647.148 567.12,651.981 567.5,657C 566.247,668.803 565.414,680.636 565,692.5C 561.704,708.241 553.871,721.408 541.5,732C 528.107,740.764 515.107,740.264 502.5,730.5C 501.335,744.504 503.835,757.837 510,770.5C 516.133,778.815 524.3,783.481 534.5,784.5C 547.897,781.967 559.897,776.467 570.5,768C 590.251,746.912 599.585,721.745 598.5,692.5C 603.674,717.432 599.507,740.766 586,762.5C 585.175,764.701 585.675,766.534 587.5,768C 598.616,767.367 607.783,771.2 615,779.5C 618.98,786.624 623.814,793.124 629.5,799C 632.371,800.935 635.371,802.601 638.5,804C 634.952,805.941 631.286,807.607 627.5,809C 619.203,810.072 610.87,810.739 602.5,811C 601.427,814.112 601.427,817.279 602.5,820.5C 584.783,820.736 567.116,819.903 549.5,818C 516.675,809.175 495.842,788.342 487,755.5C 483.693,736.831 483.693,718.165 487,699.5C 491.793,704.268 497.627,706.601 504.5,706.5C 533.083,702.106 551.916,686.106 561,658.5C 562.256,653.552 563.256,648.552 564,643.5C 564.383,642.944 564.883,642.611 565.5,642.5 Z"/></g>
<g><path style="opacity:0.18" fill="#a3a29a" d="M 310.5,672.5 C 310.56,671.957 310.893,671.624 311.5,671.5C 312.793,673.636 312.793,675.636 311.5,677.5C 311.784,675.585 311.451,673.919 310.5,672.5 Z"/></g>
<g><path style="opacity:1" fill="#0679ad" d="M 475.5,670.5 C 475.435,676.617 475.935,682.617 477,688.5C 473.037,691.93 468.37,693.263 463,692.5C 452.011,693.17 445.344,688.17 443,677.5C 442.505,675.527 442.338,673.527 442.5,671.5C 445.147,674.764 447.814,678.097 450.5,681.5C 452.845,683.283 455.512,684.283 458.5,684.5C 467.958,684.015 473.625,679.348 475.5,670.5 Z"/></g>
<g><path style="opacity:1" fill="#0679ad" d="M 352.5,720.5 C 351.542,720.047 350.708,719.381 350,718.5C 349,720.5 348,722.5 347,724.5C 338.32,720.657 330.654,715.324 324,708.5C 322.417,720.502 325.084,731.502 332,741.5C 338.772,748.117 345.939,754.117 353.5,759.5C 344.664,759.444 336.997,756.444 330.5,750.5C 322.396,743.714 317.562,735.048 316,724.5C 312.459,709.051 312.792,693.718 317,678.5C 323.898,685.032 332.065,687.698 341.5,686.5C 342.041,694.666 343.541,702.666 346,710.5C 348.143,713.962 350.31,717.296 352.5,720.5 Z"/></g>
<g><path style="opacity:1" fill="#01b4e7" d="M 352.5,720.5 C 354.344,724.192 356.677,727.525 359.5,730.5C 361.833,734.833 365.167,738.167 369.5,740.5C 372.027,742.605 374.36,744.939 376.5,747.5C 378.637,754.608 381.971,761.108 386.5,767C 376.493,768.153 367.159,766.32 358.5,761.5C 356.95,760.559 355.284,759.893 353.5,759.5C 345.939,754.117 338.772,748.117 332,741.5C 325.084,731.502 322.417,720.502 324,708.5C 330.654,715.324 338.32,720.657 347,724.5C 348,722.5 349,720.5 350,718.5C 350.708,719.381 351.542,720.047 352.5,720.5 Z"/></g>
<g><path style="opacity:1" fill="#045267" d="M 359.5,730.5 C 363.167,733.5 366.5,736.833 369.5,740.5C 365.167,738.167 361.833,734.833 359.5,730.5 Z"/></g>
<g><path style="opacity:1" fill="#0679ae" d="M 376.5,747.5 C 382.599,751.083 388.599,754.917 394.5,759C 400.94,762.554 407.607,765.554 414.5,768C 415.554,769.388 415.72,770.888 415,772.5C 404.324,788.934 389.157,798.434 369.5,801C 361.218,803.53 352.885,803.864 344.5,802C 352.628,796.206 359.795,789.373 366,781.5C 366.612,779.763 365.946,778.763 364,778.5C 361.373,779.634 359.207,781.3 357.5,783.5C 358.547,780.404 359.88,777.404 361.5,774.5C 350.93,771.981 340.93,768.314 331.5,763.5C 332.479,761.855 333.812,760.521 335.5,759.5C 342.062,762.14 348.729,764.474 355.5,766.5C 356.442,766.392 357.275,766.059 358,765.5C 357.645,764.041 357.811,762.707 358.5,761.5C 367.159,766.32 376.493,768.153 386.5,767C 381.971,761.108 378.637,754.608 376.5,747.5 Z"/></g>
<g><path style="opacity:0.039" fill="#dad9cd" d="M 593.5,762.5 C 594.5,763.167 595.5,763.833 596.5,764.5C 594.801,764.66 593.134,764.494 591.5,764C 592.044,763.283 592.711,762.783 593.5,762.5 Z"/></g>
<g><path style="opacity:1" fill="#01b4e6" d="M 331.5,763.5 C 340.93,768.314 350.93,771.981 361.5,774.5C 359.88,777.404 358.547,780.404 357.5,783.5C 343.133,791.218 328.133,792.552 312.5,787.5C 311.089,785.086 309.089,783.419 306.5,782.5C 305.532,780.393 305.198,778.059 305.5,775.5C 315.177,773.661 323.843,769.661 331.5,763.5 Z"/></g>
<g><path style="opacity:1" fill="#01b4e7" d="M 577.5,780.5 C 592.957,777.906 605.623,782.573 615.5,794.5C 608.26,800.357 599.926,803.024 590.5,802.5C 590.911,805.553 591.577,808.553 592.5,811.5C 587.462,812.33 582.795,811.164 578.5,808C 571.727,803.194 565.227,798.028 559,792.5C 558.542,789.904 559.375,787.737 561.5,786C 566.846,783.83 572.179,781.997 577.5,780.5 Z"/></g>
<g><path style="opacity:1" fill="#086179" d="M 306.5,782.5 C 309.089,783.419 311.089,785.086 312.5,787.5C 309.911,786.581 307.911,784.914 306.5,782.5 Z"/></g>
<g><path style="opacity:0.165" fill="#b2b1a8" d="M 344.5,796.5 C 344.5,795.833 344.167,795.5 343.5,795.5C 344.943,794.297 346.609,793.797 348.5,794C 347.307,795.095 345.973,795.928 344.5,796.5 Z"/></g>
<g><path style="opacity:0.282" fill="#b1b0a7" d="M 619.5,814.5 C 615.232,814.869 611.232,815.869 607.5,817.5C 606.596,816.791 606.263,815.791 606.5,814.5C 610.833,814.5 615.167,814.5 619.5,814.5 Z"/></g>

        
<g><path style="opacity:0.99" fill="#0d0d0c" d="M 491.5,399.5 C 488.373,390.073 487.207,380.406 488,370.5C 493.707,351.6 504.873,336.767 521.5,326C 529.79,320.847 538.79,318.014 548.5,317.5C 553.844,317.666 559.177,317.499 564.5,317C 563.956,316.283 563.289,315.783 562.5,315.5C 543.882,300.011 522.382,291.678 498,290.5C 490.519,289.916 483.352,291.082 476.5,294C 467.781,294.352 459.781,297.019 452.5,302C 448.062,306.439 443.062,310.106 437.5,313C 426.246,324.92 417.412,338.42 411,353.5C 410.725,371 417.225,385.5 430.5,397C 436.108,400.276 441.442,403.943 446.5,408C 453.054,411.537 460.054,413.37 467.5,413.5C 461.67,418.019 455.336,418.686 448.5,415.5C 448.027,414.094 447.027,413.427 445.5,413.5C 443.46,411.823 441.46,410.156 439.5,408.5C 439.027,407.094 438.027,406.427 436.5,406.5C 436.027,405.094 435.027,404.427 433.5,404.5C 431.566,403.89 429.899,402.89 428.5,401.5C 428.027,400.094 427.027,399.427 425.5,399.5C 418.88,393.601 413.713,386.601 410,378.5C 406.877,399.48 395.71,405.313 376.5,396C 373.568,392.395 370.068,389.561 366,387.5C 362.461,389.2 359.794,391.867 358,395.5C 348.298,401.028 339.298,400.028 331,392.5C 329.096,389.077 328.263,385.41 328.5,381.5C 328.34,379.847 327.674,378.514 326.5,377.5C 325.596,376.791 325.263,375.791 325.5,374.5C 325.785,372.712 325.452,371.045 324.5,369.5C 323.614,370.325 323.281,371.325 323.5,372.5C 319.576,387.848 311.909,401.015 300.5,412C 297.294,414.034 293.96,415.867 290.5,417.5C 287.941,416.392 285.608,415.059 283.5,413.5C 293.172,410.41 301.005,404.744 307,396.5C 313.986,386.753 318.486,375.92 320.5,364C 319.275,355.717 315.775,348.55 310,342.5C 305.854,331.015 298.687,321.848 288.5,315C 280.952,312.433 273.619,309.433 266.5,306C 242.475,304.844 224.809,314.844 213.5,336C 239.356,338.522 258.189,351.355 270,374.5C 276.027,385.384 278.193,397.051 276.5,409.5C 271.718,406.601 267.051,403.434 262.5,400C 244.46,389.359 225.127,385.859 204.5,389.5C 199.943,380.073 198.443,370.073 200,359.5C 201.081,348.03 204.914,337.697 211.5,328.5C 212.906,328.027 213.573,327.027 213.5,325.5C 213.783,305.751 221.117,288.917 235.5,275C 242.164,270.005 249.497,266.338 257.5,264C 268.382,263.052 277.716,266.386 285.5,274C 309.981,294.926 323.981,321.426 327.5,353.5C 336.02,355.759 344.353,358.592 352.5,362C 357.986,362.927 363.486,363.76 369,364.5C 376.968,362.671 384.968,361.337 393,360.5C 395.093,361.246 397.093,361.579 399,361.5C 395.196,337.601 398.196,314.601 408,292.5C 410.985,287.689 414.485,283.356 418.5,279.5C 419.906,279.027 420.573,278.027 420.5,276.5C 431.962,266.925 444.629,259.091 458.5,253C 510.456,235.392 544.289,252.559 560,304.5C 580.639,319.759 586.305,339.425 577,363.5C 574.366,369.272 570.866,374.439 566.5,379C 540.258,381.247 515.258,388.08 491.5,399.5 Z"/></g>
<g><path style="opacity:1" fill="#1b1b1b" d="M 491.5,251.5 C 512.005,251.336 528.505,259.336 541,275.5C 545.694,283.554 549.861,291.888 553.5,300.5C 553.167,300.833 552.833,301.167 552.5,301.5C 517.98,279.718 482.98,278.885 447.5,299C 444.215,302.973 440.215,305.973 435.5,308C 425.414,318.343 416.914,329.843 410,342.5C 406.414,349.494 405.08,356.827 406,364.5C 405.255,362.797 404.421,361.13 403.5,359.5C 403.063,345.559 403.563,331.559 405,317.5C 407.148,302.37 413.648,289.537 424.5,279C 432.5,273.667 440.5,268.333 448.5,263C 462.09,255.855 476.423,252.021 491.5,251.5 Z"/></g>
<g><path style="opacity:1" fill="#1b1b1b" d="M 256.5,269.5 C 263.905,268.705 270.571,270.539 276.5,275C 296.955,290.782 311.122,310.949 319,335.5C 320.328,340.457 320.994,345.457 321,350.5C 316.333,341.833 311.667,333.167 307,324.5C 302.468,319.633 297.634,315.133 292.5,311C 282.442,305.884 271.942,302.051 261,299.5C 244.754,300.462 231.087,306.795 220,318.5C 222.473,294.866 234.64,278.532 256.5,269.5 Z"/></g>
<g><path style="opacity:0.529" fill="#82827b" d="M 420.5,276.5 C 420.573,278.027 419.906,279.027 418.5,279.5C 418.427,277.973 419.094,276.973 420.5,276.5 Z"/></g>
<g><path style="opacity:0.998" fill="#f5f4e7" d="M 562.5,315.5 C 557.833,316.167 553.167,316.833 548.5,317.5C 538.79,318.014 529.79,320.847 521.5,326C 504.873,336.767 493.707,351.6 488,370.5C 487.207,380.406 488.373,390.073 491.5,399.5C 483.472,404.178 475.472,408.845 467.5,413.5C 460.054,413.37 453.054,411.537 446.5,408C 441.442,403.943 436.108,400.276 430.5,397C 417.225,385.5 410.725,371 411,353.5C 417.412,338.42 426.246,324.92 437.5,313C 443.062,310.106 448.062,306.439 452.5,302C 459.781,297.019 467.781,294.352 476.5,294C 483.352,291.082 490.519,289.916 498,290.5C 522.382,291.678 543.882,300.011 562.5,315.5 Z"/></g>
<g><path style="opacity:0.999" fill="#f5f4e7" d="M 283.5,413.5 C 280.669,412.921 278.336,411.588 276.5,409.5C 278.193,397.051 276.027,385.384 270,374.5C 258.189,351.355 239.356,338.522 213.5,336C 224.809,314.844 242.475,304.844 266.5,306C 273.619,309.433 280.952,312.433 288.5,315C 298.687,321.848 305.854,331.015 310,342.5C 315.775,348.55 319.275,355.717 320.5,364C 318.486,375.92 313.986,386.753 307,396.5C 301.005,404.744 293.172,410.41 283.5,413.5 Z"/></g>
<g><path style="opacity:1" fill="#6e6e68" d="M 562.5,315.5 C 563.289,315.783 563.956,316.283 564.5,317C 559.177,317.499 553.844,317.666 548.5,317.5C 553.167,316.833 557.833,316.167 562.5,315.5 Z"/></g>
<g><path style="opacity:0.506" fill="#808079" d="M 213.5,325.5 C 213.573,327.027 212.906,328.027 211.5,328.5C 211.427,326.973 212.094,325.973 213.5,325.5 Z"/></g>
<g><path style="opacity:1" fill="#1b1b1b" d="M 327.5,359.5 C 338.316,363.238 349.316,366.404 360.5,369C 365.833,369.667 371.167,369.667 376.5,369C 383.809,367.503 391.143,366.503 398.5,366C 404.726,372.015 406.226,379.182 403,387.5C 399.871,394.148 394.704,396.648 387.5,395C 381.182,393.689 376.182,390.356 372.5,385C 367.996,381.538 363.663,381.704 359.5,385.5C 357.294,388.203 354.961,390.703 352.5,393C 348.5,393.667 344.5,393.667 340.5,393C 338.376,391.878 336.543,390.378 335,388.5C 332.025,378.933 329.525,369.266 327.5,359.5 Z"/></g>
<g><path style="opacity:1" fill="#5c5c57" d="M 325.5,374.5 C 324.833,373.833 324.167,373.167 323.5,372.5C 323.281,371.325 323.614,370.325 324.5,369.5C 325.452,371.045 325.785,372.712 325.5,374.5 Z"/></g>
<g><path style="opacity:0.4" fill="#97968e" d="M 326.5,377.5 C 327.674,378.514 328.34,379.847 328.5,381.5C 326.896,380.713 326.229,379.38 326.5,377.5 Z"/></g>
<g><path style="opacity:0.012" fill="#000000" d="M 549.5,383.5 C 550.833,384.167 550.833,384.167 549.5,383.5 Z"/></g>
<g><path style="opacity:0.02" fill="#000000" d="M 545.5,384.5 C 546.833,385.167 546.833,385.167 545.5,384.5 Z"/></g>
<g><path style="opacity:0.022" fill="#000000" d="M 541.5,386.5 C 541.897,385.475 542.563,385.308 543.5,386C 542.906,386.464 542.239,386.631 541.5,386.5 Z"/></g>
<g><path style="opacity:0.018" fill="#000000" d="M 538.5,387.5 C 538.897,386.475 539.563,386.308 540.5,387C 539.906,387.464 539.239,387.631 538.5,387.5 Z"/></g>
<g><path style="opacity:0.016" fill="#000000" d="M 534.5,388.5 C 534.897,387.475 535.563,387.308 536.5,388C 535.906,388.464 535.239,388.631 534.5,388.5 Z"/></g>
<g><path style="opacity:0.012" fill="#000000" d="M 530.5,389.5 C 530.897,388.475 531.563,388.308 532.5,389C 531.906,389.464 531.239,389.631 530.5,389.5 Z"/></g>
<g><path style="opacity:0.04" fill="#000000" d="M 226.5,391.5 C 228.103,391.312 229.437,391.812 230.5,393C 228.167,393.667 225.833,393.667 223.5,393C 224.737,392.768 225.737,392.268 226.5,391.5 Z"/></g>
<g><path style="opacity:0.042" fill="#000000" d="M 210.5,393.5 C 211.946,392.387 213.613,392.22 215.5,393C 213.866,393.494 212.199,393.66 210.5,393.5 Z"/></g>
<g><path style="opacity:0.016" fill="#000000" d="M 233.5,392.5 C 234.833,393.167 234.833,393.167 233.5,392.5 Z"/></g>
<g><path style="opacity:0.012" fill="#000000" d="M 236.5,394.5 C 236.897,393.475 237.563,393.308 238.5,394C 237.906,394.464 237.239,394.631 236.5,394.5 Z"/></g>
<g><path style="opacity:0.016" fill="#000000" d="M 239.5,395.5 C 239.897,394.475 240.563,394.308 241.5,395C 240.906,395.464 240.239,395.631 239.5,395.5 Z"/></g>
<g><path style="opacity:0.012" fill="#000000" d="M 242.5,395.5 C 243.833,396.167 243.833,396.167 242.5,395.5 Z"/></g>
<g><path style="opacity:0.016" fill="#000000" d="M 245.5,396.5 C 246.833,397.167 246.833,397.167 245.5,396.5 Z"/></g>
<g><path style="opacity:0.012" fill="#000000" d="M 247.5,397.5 C 248.833,398.167 248.833,398.167 247.5,397.5 Z"/></g>
<g><path style="opacity:0.02" fill="#000000" d="M 250.5,398.5 C 251.833,399.167 251.833,399.167 250.5,398.5 Z"/></g>
<g><path style="opacity:0.02" fill="#000000" d="M 252.5,399.5 C 253.833,400.167 253.833,400.167 252.5,399.5 Z"/></g>
<g><path style="opacity:0.012" fill="#000000" d="M 254.5,400.5 C 255.833,401.167 255.833,401.167 254.5,400.5 Z"/></g>
<g><path style="opacity:0.529" fill="#7c7b75" d="M 425.5,399.5 C 427.027,399.427 428.027,400.094 428.5,401.5C 426.973,401.573 425.973,400.906 425.5,399.5 Z"/></g>
<g><path style="opacity:0.529" fill="#7c7b75" d="M 433.5,404.5 C 435.027,404.427 436.027,405.094 436.5,406.5C 434.973,406.573 433.973,405.906 433.5,404.5 Z"/></g>
<g><path style="opacity:0.545" fill="#7a7a73" d="M 436.5,406.5 C 438.027,406.427 439.027,407.094 439.5,408.5C 437.973,408.573 436.973,407.906 436.5,406.5 Z"/></g>
<g><path style="opacity:0.529" fill="#7f7f78" d="M 445.5,413.5 C 447.027,413.427 448.027,414.094 448.5,415.5C 446.973,415.573 445.973,414.906 445.5,413.5 Z"/></g>

        
<g><path style="opacity:0.985" fill="#20201f" d="M 591.5,350.5 C 590.89,349.609 590.557,348.609 590.5,347.5C 598.093,347.538 604.593,350.538 610,356.5C 612.002,361.007 613.502,365.674 614.5,370.5C 614.02,374.293 612.353,377.46 609.5,380C 603.352,383.078 597.019,385.578 590.5,387.5C 584.054,386.936 577.72,385.77 571.5,384C 563.833,383.333 556.167,383.333 548.5,384C 540.284,385.787 532.618,388.62 525.5,392.5C 525.631,391.624 525.298,390.957 524.5,390.5C 523.261,390.942 522.261,391.609 521.5,392.5C 520.791,393.404 519.791,393.737 518.5,393.5C 514.838,393.723 511.505,394.723 508.5,396.5C 505.759,396.707 503.426,397.707 501.5,399.5C 501.158,400.338 500.492,400.672 499.5,400.5C 494.914,401.46 490.914,403.46 487.5,406.5C 487.158,407.338 486.492,407.672 485.5,407.5C 483.973,407.427 482.973,408.094 482.5,409.5C 480.326,409.75 478.659,410.75 477.5,412.5C 476.167,412.5 475.5,413.167 475.5,414.5C 474.878,415.627 474.045,416.627 473,417.5C 471.951,416.483 470.784,416.316 469.5,417C 464.147,419.701 458.814,422.368 453.5,425C 440.182,427.885 426.849,430.552 413.5,433C 407.153,442.527 401.986,452.694 398,463.5C 395.706,464.852 393.206,465.519 390.5,465.5C 382.205,463.808 373.871,462.308 365.5,461C 361.367,455.866 356.867,451.032 352,446.5C 349.027,442.026 345.86,437.693 342.5,433.5C 328.924,432.583 315.59,430.25 302.5,426.5C 299.905,427.237 297.238,427.237 294.5,426.5C 294.953,425.542 295.619,424.708 296.5,424C 295.906,423.536 295.239,423.369 294.5,423.5C 290.703,423.128 287.37,421.794 284.5,419.5C 281.485,417.326 278.151,415.659 274.5,414.5C 273.415,412.413 271.749,411.08 269.5,410.5C 268.508,410.672 267.842,410.338 267.5,409.5C 267.027,408.094 266.027,407.427 264.5,407.5C 263.352,404.913 261.685,403.913 259.5,404.5C 250.198,398.055 239.864,393.722 228.5,391.5C 218.197,392.724 207.863,393.224 197.5,393C 182.151,389.16 173.651,379.326 172,363.5C 171.333,358.833 171.333,354.167 172,349.5C 172.036,347.059 172.869,345.059 174.5,343.5C 175.086,343.709 175.586,344.043 176,344.5C 175.529,355.347 177.529,365.681 182,375.5C 187.543,382.974 195.043,386.974 204.5,387.5C 231.733,383.303 255.733,390.137 276.5,408C 290.297,415.71 304.964,421.044 320.5,424C 344.953,424.754 369.453,425.587 394,426.5C 413.476,426.449 432.642,423.949 451.5,419C 468.5,410 485.5,401 502.5,392C 517.586,386.527 532.92,381.86 548.5,378C 556.5,377.333 564.5,377.333 572.5,378C 579.063,379.986 585.73,380.986 592.5,381C 596.749,378.806 601.082,376.806 605.5,375C 606.872,373.758 607.872,372.258 608.5,370.5C 607.098,366.461 605.598,362.461 604,358.5C 599.684,355.934 595.517,353.267 591.5,350.5 Z"/></g>
<g><path style="opacity:0.231" fill="#9b9b93" d="M 590.5,347.5 C 590.557,348.609 590.89,349.609 591.5,350.5C 589.448,349.947 589.115,348.947 590.5,347.5 Z"/></g>
<g><path style="opacity:0.012" fill="#b3b2a9" d="M 525.5,392.5 C 524.472,392.926 523.139,392.926 521.5,392.5C 522.261,391.609 523.261,390.942 524.5,390.5C 525.298,390.957 525.631,391.624 525.5,392.5 Z"/></g>
<g><path style="opacity:0.149" fill="#d6d5ca" d="M 518.5,393.5 C 515.495,395.277 512.162,396.277 508.5,396.5C 511.505,394.723 514.838,393.723 518.5,393.5 Z"/></g>
<g><path style="opacity:0.196" fill="#d2d1c6" d="M 508.5,396.5 C 506.574,398.293 504.241,399.293 501.5,399.5C 503.426,397.707 505.759,396.707 508.5,396.5 Z"/></g>
<g><path style="opacity:0.294" fill="#a8a79f" d="M 259.5,404.5 C 261.685,403.913 263.352,404.913 264.5,407.5C 262.589,406.925 260.922,405.925 259.5,404.5 Z"/></g>
<g><path style="opacity:0.173" fill="#d8d7cc" d="M 499.5,400.5 C 495.818,403.008 491.818,405.008 487.5,406.5C 490.914,403.46 494.914,401.46 499.5,400.5 Z"/></g>
<g><path style="opacity:0.235" fill="#d1d0c5" d="M 264.5,407.5 C 266.027,407.427 267.027,408.094 267.5,409.5C 265.973,409.573 264.973,408.906 264.5,407.5 Z"/></g>
<g><path style="opacity:0.141" fill="#dfded2" d="M 485.5,407.5 C 485.027,408.906 484.027,409.573 482.5,409.5C 482.973,408.094 483.973,407.427 485.5,407.5 Z"/></g>
<g><path style="opacity:0.067" fill="#d3d2c7" d="M 482.5,409.5 C 481.341,411.25 479.674,412.25 477.5,412.5C 478.659,410.75 480.326,409.75 482.5,409.5 Z"/></g>
<g><path style="opacity:0.012" fill="#d5d4c9" d="M 477.5,412.5 C 477.167,413.5 476.5,414.167 475.5,414.5C 475.5,413.167 476.167,412.5 477.5,412.5 Z"/></g>
<g><path style="opacity:0.322" fill="#b9b8af" d="M 269.5,410.5 C 271.749,411.08 273.415,412.413 274.5,414.5C 272.251,413.92 270.585,412.587 269.5,410.5 Z"/></g>
<g><path style="opacity:0.196" fill="#d0d0c5" d="M 274.5,414.5 C 278.151,415.659 281.485,417.326 284.5,419.5C 280.58,418.873 277.247,417.207 274.5,414.5 Z"/></g>
<g><path style="opacity:0.027" fill="#d9d8cd" d="M 294.5,423.5 C 295.239,423.369 295.906,423.536 296.5,424C 295.619,424.708 294.953,425.542 294.5,426.5C 293.375,425.652 293.375,424.652 294.5,423.5 Z"/></g>
<g><path style="opacity:1" fill="#f1f0e3" d="M 350.5,430.5 C 360.215,430.459 369.882,431.125 379.5,432.5C 389.146,431.411 398.812,431.245 408.5,432C 402.865,440.766 397.865,449.933 393.5,459.5C 392.833,459.833 392.167,460.167 391.5,460.5C 383.983,458.204 376.316,456.704 368.5,456C 361.627,448.795 355.127,441.295 349,433.5C 348.761,432.212 349.261,431.212 350.5,430.5 Z"/></g>

        
<g><path style="opacity:0.99" fill="#07070a" d="M 334.5,239.5 C 334.5,238.5 334.5,237.5 334.5,236.5C 333.209,236.263 332.209,236.596 331.5,237.5C 329.254,237.936 327.087,238.603 325,239.5C 322.67,237.336 322.003,234.669 323,231.5C 324.455,228.088 326.288,224.921 328.5,222C 323.233,221.326 318.066,221.826 313,223.5C 311.029,223.719 309.862,222.885 309.5,221C 311.237,215.253 314.57,210.586 319.5,207C 324.198,204.651 328.864,202.318 333.5,200C 324.528,200.535 322.528,197.202 327.5,190C 330.253,188.499 332.92,186.999 335.5,185.5C 334.296,182.585 332.296,180.419 329.5,179C 320.577,175.47 311.577,172.137 302.5,169C 301.483,167.951 301.316,166.784 302,165.5C 307.762,162.001 314.095,160.334 321,160.5C 344.639,162.708 361.472,174.374 371.5,195.5C 372.548,197.933 373.214,197.933 373.5,195.5C 377.16,183.177 383.16,172.177 391.5,162.5C 398.406,155.547 406.74,151.547 416.5,150.5C 415.726,157.132 412.893,162.798 408,167.5C 404.697,172.441 402.197,177.774 400.5,183.5C 405.328,183.469 410.328,183.635 415.5,184C 417.576,185.884 417.91,188.051 416.5,190.5C 412.206,191.645 408.539,193.812 405.5,197C 418.699,196.375 425.699,202.542 426.5,215.5C 419.799,216.682 414.132,219.682 409.5,224.5C 410.61,233.138 410.776,241.804 410,250.5C 409.592,253.42 408.259,255.754 406,257.5C 405.333,256.833 404.667,256.167 404,255.5C 403.664,248.505 400.164,243.839 393.5,241.5C 392.246,247.457 390.246,253.123 387.5,258.5C 385.694,259.859 384.194,259.525 383,257.5C 383.07,251.993 380.737,247.993 376,245.5C 372.584,247.992 370.418,251.325 369.5,255.5C 368.127,255.657 366.793,255.49 365.5,255C 361.071,251.705 356.571,248.538 352,245.5C 347.629,248.431 343.796,251.931 340.5,256C 339.5,256.667 338.5,256.667 337.5,256C 335.48,250.719 334.48,245.219 334.5,239.5 Z"/></g>
<g><path style="opacity:1" fill="#2c2d39" d="M 400.5,195.5 C 400.5,194.5 400.5,193.5 400.5,192.5C 396.914,192.848 393.914,194.015 391.5,196C 392.048,186.264 394.548,176.764 399,167.5C 402.333,166.167 402.333,164.833 399,163.5C 398.617,164.056 398.117,164.389 397.5,164.5C 400.468,160.514 404.468,158.348 409.5,158C 401.586,167.41 397.252,178.243 396.5,190.5C 400.011,188.915 403.678,188.415 407.5,189C 404.642,190.694 402.309,192.861 400.5,195.5 Z"/></g>
<g><path style="opacity:1" fill="#333340" d="M 400.5,195.5 C 399.659,197.379 399.325,199.379 399.5,201.5C 403.234,201.323 406.901,201.656 410.5,202.5C 410.423,203.75 409.756,204.583 408.5,205C 410.285,206.163 412.285,206.83 414.5,207C 413.167,207.667 413.167,208.333 414.5,209C 410,212.167 406.167,216 403,220.5C 403.059,225.287 403.226,230.12 403.5,235C 401.109,236.309 401.109,237.309 403.5,238C 401.892,238.658 400.725,238.158 400,236.5C 399.536,237.094 399.369,237.761 399.5,238.5C 396.099,236.616 392.433,236.116 388.5,237C 387.741,241.471 386.908,245.971 386,250.5C 383.287,245.747 379.787,241.747 375.5,238.5C 373.821,239.782 371.987,240.782 370,241.5C 369.913,244.578 368.579,246.912 366,248.5C 360.951,246.231 356.784,242.898 353.5,238.5C 350.87,239.804 348.537,241.47 346.5,243.5C 345.5,243.5 344.5,243.5 343.5,243.5C 343.64,241.876 342.973,240.71 341.5,240C 342.177,237.018 342.177,234.185 341.5,231.5C 340.758,230.713 339.925,230.047 339,229.5C 336.761,230.869 334.927,230.369 333.5,228C 335.008,225.906 336.342,223.74 337.5,221.5C 337.5,221.167 337.5,220.833 337.5,220.5C 338.097,220.265 338.43,219.765 338.5,219C 336.976,217.806 335.81,216.306 335,214.5C 331.716,214.387 328.383,214.72 325,215.5C 324.626,214.584 324.126,213.75 323.5,213C 328.342,210.053 333.342,207.553 338.5,205.5C 339.167,205.5 339.833,205.5 340.5,205.5C 342.734,204.296 345.067,203.13 347.5,202C 344.701,201.561 343.701,200.228 344.5,198C 343.167,197 341.833,196 340.5,195C 341.155,193.513 342.155,192.347 343.5,191.5C 344.631,189.926 344.798,188.259 344,186.5C 341.675,183.173 339.342,179.839 337,176.5C 334.238,175.019 331.571,173.353 329,171.5C 328.626,170.584 328.126,169.75 327.5,169C 328.416,168.722 329.082,168.222 329.5,167.5C 341.896,170.723 352.063,177.39 360,187.5C 363.841,193.178 367.174,199.178 370,205.5C 371.396,207.527 373.062,207.86 375,206.5C 377.94,192.62 383.607,179.953 392,168.5C 393.992,167.335 395.825,166.002 397.5,164.5C 398.117,164.389 398.617,164.056 399,163.5C 402.333,164.833 402.333,166.167 399,167.5C 394.548,176.764 392.048,186.264 391.5,196C 393.914,194.015 396.914,192.848 400.5,192.5C 400.5,193.5 400.5,194.5 400.5,195.5 Z"/></g>
<g><path style="opacity:1" fill="#2c2d3a" d="M 329.5,167.5 C 329.082,168.222 328.416,168.722 327.5,169C 328.126,169.75 328.626,170.584 329,171.5C 331.571,173.353 334.238,175.019 337,176.5C 339.342,179.839 341.675,183.173 344,186.5C 344.798,188.259 344.631,189.926 343.5,191.5C 342.155,192.347 341.155,193.513 340.5,195C 341.833,196 343.167,197 344.5,198C 343.701,200.228 344.701,201.561 347.5,202C 345.067,203.13 342.734,204.296 340.5,205.5C 342.213,199.063 339.879,195.063 333.5,193.5C 335.664,191.316 338.331,189.983 341.5,189.5C 340.302,184.134 337.635,179.634 333.5,176C 327.136,172.818 320.802,169.651 314.5,166.5C 319.741,165.1 324.741,165.434 329.5,167.5 Z"/></g>
<g><path style="opacity:0.024" fill="#292a35" d="M 371.5,195.5 C 372.167,195.5 372.833,195.5 373.5,195.5C 373.214,197.933 372.548,197.933 371.5,195.5 Z"/></g>
<g><path style="opacity:1" fill="#2d2d3a" d="M 410.5,202.5 C 415.782,202.972 419.449,205.639 421.5,210.5C 415.285,213.224 410.118,217.224 406,222.5C 406.682,229.818 406.515,237.151 405.5,244.5C 403.146,242.812 401.146,240.812 399.5,238.5C 399.369,237.761 399.536,237.094 400,236.5C 400.725,238.158 401.892,238.658 403.5,238C 401.109,237.309 401.109,236.309 403.5,235C 403.226,230.12 403.059,225.287 403,220.5C 406.167,216 410,212.167 414.5,209C 413.167,208.333 413.167,207.667 414.5,207C 412.285,206.83 410.285,206.163 408.5,205C 409.756,204.583 410.423,203.75 410.5,202.5 Z"/></g>
<g><path style="opacity:1" fill="#2b2c38" d="M 338.5,205.5 C 333.342,207.553 328.342,210.053 323.5,213C 324.126,213.75 324.626,214.584 325,215.5C 328.383,214.72 331.716,214.387 335,214.5C 335.81,216.306 336.976,217.806 338.5,219C 338.43,219.765 338.097,220.265 337.5,220.5C 336.64,218.386 334.973,217.22 332.5,217C 327.116,216.495 321.782,216.495 316.5,217C 322.249,209.629 329.582,205.796 338.5,205.5 Z"/></g>
<g><path style="opacity:1" fill="#2c2c39" d="M 337.5,221.5 C 336.342,223.74 335.008,225.906 333.5,228C 334.927,230.369 336.761,230.869 339,229.5C 339.925,230.047 340.758,230.713 341.5,231.5C 342.177,234.185 342.177,237.018 341.5,240C 342.973,240.71 343.64,241.876 343.5,243.5C 344.5,243.5 345.5,243.5 346.5,243.5C 344.229,245.266 342.063,247.266 340,249.5C 337.689,243.959 336.856,238.293 337.5,232.5C 334.073,232.976 330.74,232.976 327.5,232.5C 329.464,227.538 332.798,223.871 337.5,221.5 Z"/></g>
<g><path style="opacity:0.157" fill="#272733" d="M 331.5,237.5 C 332.209,236.596 333.209,236.263 334.5,236.5C 334.5,237.5 334.5,238.5 334.5,239.5C 333.778,238.449 332.778,237.782 331.5,237.5 Z"/></g>

    </svg>
