
    <svg width="862" height="862" viewBox="0 0 862 862" fill="none" xmlns="http://www.w3.org/2000/svg">
        
<g><path style="opacity:1" fill="#f6f6e8" d="M -0.5,-0.5 C 286.833,-0.5 574.167,-0.5 861.5,-0.5C 861.5,286.833 861.5,574.167 861.5,861.5C 574.167,861.5 286.833,861.5 -0.5,861.5C -0.5,574.167 -0.5,286.833 -0.5,-0.5 Z"/></g>

        
<g><path style="opacity:0.983" fill="#1a1a19" d="M 578.5,540.5 C 583.993,540.916 589.326,542.082 594.5,544C 599.237,547.614 603.403,551.781 607,556.5C 613.977,570.057 616.311,584.39 614,599.5C 611.931,603.236 608.931,605.903 605,607.5C 603.018,607.01 601.351,606.01 600,604.5C 594.275,609.717 588.442,609.717 582.5,604.5C 577.923,613.337 572.256,614.337 565.5,607.5C 561.53,612.973 556.196,614.806 549.5,613C 548.299,612.097 547.465,610.931 547,609.5C 541.931,617.452 536.764,617.452 531.5,609.5C 527.737,613.765 523.737,617.932 519.5,622C 516.106,622.752 512.773,622.585 509.5,621.5C 508.194,620.088 507.36,618.421 507,616.5C 505.425,609.568 504.258,602.568 503.5,595.5C 504.335,583.317 510.669,578.317 522.5,580.5C 523.795,579.902 525.128,579.402 526.5,579C 535.197,570.637 543.531,561.97 551.5,553C 559.592,546.617 568.592,542.45 578.5,540.5 Z"/></g>
<g><path style="opacity:1" fill="#d9d8cb" d="M 587.5,601.5 C 588.496,601.586 589.329,601.252 590,600.5C 592.94,596.545 595.94,592.545 599,588.5C 599.37,579.339 598.37,570.339 596,561.5C 591.36,554.156 584.693,549.822 576,548.5C 573.538,549.159 571.038,549.493 568.5,549.5C 581.297,543.74 592.13,546.407 601,557.5C 608.853,570.951 611.186,585.285 608,600.5C 606.604,602.527 604.938,602.86 603,601.5C 602.091,598.089 601.091,594.755 600,591.5C 598.35,595.573 596.516,599.573 594.5,603.5C 591.584,604.861 589.251,604.195 587.5,601.5 Z"/></g>
<g><path style="opacity:1" fill="#f4f3e6" d="M 587.5,601.5 C 585.433,599.682 584.1,597.349 583.5,594.5C 582.635,593.417 581.635,593.251 580.5,594C 579.955,598.074 578.621,601.907 576.5,605.5C 574.878,607.439 573.044,607.772 571,606.5C 568.863,602.486 567.03,598.486 565.5,594.5C 564.522,594.977 563.689,595.643 563,596.5C 563.284,605.334 559.118,609.667 550.5,609.5C 550.348,605.228 549.348,601.228 547.5,597.5C 545.179,600.394 544.012,603.727 544,607.5C 541.618,612.067 538.951,612.4 536,608.5C 535.887,606.026 534.887,604.026 533,602.5C 527.856,607.313 523.023,612.48 518.5,618C 516.098,618.814 513.765,618.647 511.5,617.5C 508.811,609.37 507.645,601.036 508,592.5C 508.668,588.501 510.835,585.668 514.5,584C 518.801,584.363 523.134,584.363 527.5,584C 529.167,583 530.833,582 532.5,581C 540.864,572.97 548.864,564.637 556.5,556C 560.367,553.567 564.367,551.4 568.5,549.5C 571.038,549.493 573.538,549.159 576,548.5C 584.693,549.822 591.36,554.156 596,561.5C 598.37,570.339 599.37,579.339 599,588.5C 595.94,592.545 592.94,596.545 590,600.5C 589.329,601.252 588.496,601.586 587.5,601.5 Z"/></g>
<g><path style="opacity:0.982" fill="#191918" d="M 290.5,554.5 C 298.253,554.104 305.92,554.604 313.5,556C 315.5,557.333 317.5,558.667 319.5,560C 322.228,566.042 326.895,569.709 333.5,571C 335.378,572.543 336.878,574.376 338,576.5C 338.242,583.196 338.742,589.862 339.5,596.5C 339.461,598.587 338.461,599.921 336.5,600.5C 332.274,599.93 328.108,599.263 324,598.5C 322.5,600 321,601.5 319.5,603C 317.287,603.626 315.12,603.459 313,602.5C 306.564,605.689 301.23,604.356 297,598.5C 284.481,607.161 276.648,603.994 273.5,589C 271.944,573.778 277.611,562.278 290.5,554.5 Z"/></g>
<g><path style="opacity:1" fill="#f4f3e6" d="M 334.5,587.5 C 334.5,590.167 334.5,592.833 334.5,595.5C 333.167,595.5 331.833,595.5 330.5,595.5C 327.482,595.335 324.482,595.502 321.5,596C 320.022,598.039 318.022,598.872 315.5,598.5C 315.5,597.5 315.5,596.5 315.5,595.5C 312.326,596.015 309.326,597.015 306.5,598.5C 305.5,598.333 304.5,598.167 303.5,598C 301.441,595.366 299.275,592.866 297,590.5C 296.292,591.381 295.458,592.047 294.5,592.5C 290.404,593.285 287.07,592.118 284.5,589C 284.833,588.667 285.167,588.333 285.5,588C 283.667,587.5 282.5,586.333 282,584.5C 281.501,580.179 281.334,575.846 281.5,571.5C 281.709,570.078 282.209,568.745 283,567.5C 286.167,565 289.333,562.5 292.5,560C 298.167,559.333 303.833,559.333 309.5,560C 314.42,562.916 318.753,566.582 322.5,571C 326.232,572.461 329.732,574.294 333,576.5C 333.936,580.114 334.436,583.78 334.5,587.5 Z"/></g>
<g><path style="opacity:1" fill="#d7d6c9" d="M 281.5,571.5 C 281.334,575.846 281.501,580.179 282,584.5C 282.5,586.333 283.667,587.5 285.5,588C 285.167,588.333 284.833,588.667 284.5,589C 287.07,592.118 290.404,593.285 294.5,592.5C 293.641,595.452 291.641,597.285 288.5,598C 285.364,599.041 282.864,598.207 281,595.5C 279.409,588.608 279.076,581.608 280,574.5C 280.232,573.263 280.732,572.263 281.5,571.5 Z"/></g>
<g><path style="opacity:1" fill="#64635e" d="M 334.5,587.5 C 335.477,590.287 335.81,593.287 335.5,596.5C 333.585,596.784 331.919,596.451 330.5,595.5C 331.833,595.5 333.167,595.5 334.5,595.5C 334.5,592.833 334.5,590.167 334.5,587.5 Z"/></g>

        
<g><path style="opacity:0.997" fill="#1a1918" d="M 608.5,271.5 C 609.906,271.027 610.573,270.027 610.5,268.5C 614.234,264.12 618.901,260.953 624.5,259C 636.122,256.679 647.122,252.679 657.5,247C 667.385,239.172 670.052,229.339 665.5,217.5C 660.121,218.006 654.787,218.839 649.5,220C 635.894,224.954 623.227,231.62 611.5,240C 600.368,249.464 589.534,259.297 579,269.5C 573.788,285.037 563.288,290.537 547.5,286C 525.22,283.693 504.886,276.359 486.5,264C 473.295,251.722 467.128,236.555 468,218.5C 469.427,213.878 471.427,209.545 474,205.5C 492.341,185.818 513.507,169.984 537.5,158C 565.391,143.687 594.724,139.354 625.5,145C 640.042,149.07 654.375,153.736 668.5,159C 683.409,166.586 696.576,176.42 708,188.5C 718.19,206.416 718.69,224.749 709.5,243.5C 702.685,251.482 695.685,259.316 688.5,267C 694.886,266.122 701.386,265.622 708,265.5C 728.859,265.361 738.193,275.695 736,296.5C 734.014,307.802 729.348,317.802 722,326.5C 717.175,332.254 711.175,334.921 704,334.5C 703.126,331.997 703.793,329.997 706,328.5C 709.498,317.808 707.998,307.808 701.5,298.5C 698.574,296.921 695.407,295.921 692,295.5C 688.197,296.461 684.364,297.294 680.5,298C 671.181,302.329 661.514,305.662 651.5,308C 639.733,310.294 628.066,309.961 616.5,307C 597.907,298.41 595.24,286.577 608.5,271.5 Z"/></g>
<g><path style="opacity:1" fill="#f5f4e7" d="M 672.5,210.5 C 669.145,210.909 666.145,210.242 663.5,208.5C 660.471,206.628 658.305,203.961 657,200.5C 654.989,195.302 653.489,189.969 652.5,184.5C 651.914,184.709 651.414,185.043 651,185.5C 650.784,192.965 652.617,199.965 656.5,206.5C 657.852,207.524 659.185,208.524 660.5,209.5C 643.807,212.36 626.807,215.027 609.5,217.5C 599.37,208.91 593.704,197.91 592.5,184.5C 591.914,184.709 591.414,185.043 591,185.5C 590.249,190.572 590.582,195.572 592,200.5C 595.603,207.257 599.77,213.591 604.5,219.5C 597.75,220.873 591.416,223.373 585.5,227C 578.443,231.521 571.443,236.021 564.5,240.5C 559.969,238.478 556.136,235.478 553,231.5C 548.605,225.434 544.605,219.1 541,212.5C 540.626,210.102 540.626,207.769 541,205.5C 539.989,204.663 538.822,204.33 537.5,204.5C 537.21,208.936 537.71,213.27 539,217.5C 543.667,224.167 548.333,230.833 553,237.5C 555.713,239.72 558.546,241.72 561.5,243.5C 557.975,247.183 553.975,250.35 549.5,253C 542.183,259.143 536.183,266.31 531.5,274.5C 530.675,275.386 529.675,275.719 528.5,275.5C 511.096,272.654 496.263,264.987 484,252.5C 475.993,241.813 472.659,229.813 474,216.5C 478.709,208.785 484.542,201.951 491.5,196C 518.182,171.325 549.516,155.659 585.5,149C 600.447,147.517 615.113,148.85 629.5,153C 641.637,156.601 653.637,160.601 665.5,165C 678.449,171.949 690.282,180.449 701,190.5C 708.852,201.577 711.852,213.91 710,227.5C 705.833,223.333 701.667,219.167 697.5,215C 689.45,211.89 681.116,210.39 672.5,210.5 Z"/></g>
<g><path style="opacity:0.997" fill="#1a1a19" d="M 112.5,314.5 C 112.5,315.5 112.5,316.5 112.5,317.5C 110.833,317.5 109.167,317.5 107.5,317.5C 93.0443,315.87 82.211,308.87 75,296.5C 74.3333,289.833 74.3333,283.167 75,276.5C 78.8445,267.16 85.0112,259.827 93.5,254.5C 80.7205,242.664 77.5539,228.664 84,212.5C 113.08,174.018 151.58,158.852 199.5,167C 239.52,172.709 270.353,192.543 292,226.5C 294,233.167 294,239.833 292,246.5C 287.692,260.783 281.026,273.783 272,285.5C 262.038,293.783 250.872,299.949 238.5,304C 232.845,304.819 227.345,304.319 222,302.5C 221.424,300.623 221.591,298.789 222.5,297C 218.747,289.407 215.58,281.573 213,273.5C 203.563,260.398 193.063,248.231 181.5,237C 167.625,227.703 152.625,220.703 136.5,216C 132.833,215.333 129.167,215.333 125.5,216C 122.528,217.141 120.861,219.308 120.5,222.5C 122.316,224.817 124.316,226.984 126.5,229C 134.833,232.667 143.167,236.333 151.5,240C 161.408,247.205 171.575,254.038 182,260.5C 188.153,269.822 187.986,278.989 181.5,288C 171.767,294.339 161.434,295.339 150.5,291C 143.153,288.657 135.819,286.323 128.5,284C 114.435,281.747 107.602,287.58 108,301.5C 109.012,306.038 110.512,310.371 112.5,314.5 Z"/></g>
<g><path style="opacity:1" fill="#f5f4e7" d="M 280.5,260.5 C 270.675,263.291 260.675,264.791 250.5,265C 245.566,260.574 241.233,255.74 237.5,250.5C 240.477,245.326 243.311,239.992 246,234.5C 247.33,226.227 247.83,217.893 247.5,209.5C 245.876,209.36 244.71,210.027 244,211.5C 245.234,224.956 241.734,236.956 233.5,247.5C 220.547,237.679 206.547,229.346 191.5,222.5C 190.614,221.675 190.281,220.675 190.5,219.5C 193.426,209.702 194.593,199.702 194,189.5C 192.667,188.167 191.333,188.167 190,189.5C 190.117,199.792 188.617,209.792 185.5,219.5C 174.015,215.01 162.681,210.344 151.5,205.5C 151.665,202.482 151.498,199.482 151,196.5C 149.989,195.663 148.822,195.33 147.5,195.5C 147.5,197.5 147.5,199.5 147.5,201.5C 146.596,202.209 146.263,203.209 146.5,204.5C 132.782,200.557 118.782,198.557 104.5,198.5C 110.013,192.824 116.013,187.658 122.5,183C 142.278,172.792 163.278,168.792 185.5,171C 206.853,172.008 226.853,177.675 245.5,188C 261.913,198.412 275.747,211.579 287,227.5C 287.667,232.167 287.667,236.833 287,241.5C 284.933,247.867 282.766,254.201 280.5,260.5 Z"/></g>
<g><path style="opacity:1" fill="#111110" d="M 663.5,208.5 C 662.791,209.404 661.791,209.737 660.5,209.5C 659.185,208.524 657.852,207.524 656.5,206.5C 652.617,199.965 650.784,192.965 651,185.5C 651.414,185.043 651.914,184.709 652.5,184.5C 653.489,189.969 654.989,195.302 657,200.5C 658.305,203.961 660.471,206.628 663.5,208.5 Z"/></g>
<g><path style="opacity:1" fill="#c3c2b3" d="M 104.5,198.5 C 118.782,198.557 132.782,200.557 146.5,204.5C 146.263,203.209 146.596,202.209 147.5,201.5C 147.453,204.568 146.953,207.568 146,210.5C 145.481,211.516 144.647,212.182 143.5,212.5C 138.371,210.402 133.038,209.235 127.5,209C 116.113,208.401 104.78,208.401 93.5,209C 96.3981,204.6 100.065,201.1 104.5,198.5 Z"/></g>
<g><path style="opacity:1" fill="#121211" d="M 564.5,240.5 C 568.956,242.892 573.623,245.058 578.5,247C 580.559,248.185 580.726,249.352 579,250.5C 573.178,248.061 567.344,245.728 561.5,243.5C 558.546,241.72 555.713,239.72 553,237.5C 548.333,230.833 543.667,224.167 539,217.5C 537.71,213.27 537.21,208.936 537.5,204.5C 538.822,204.33 539.989,204.663 541,205.5C 540.626,207.769 540.626,210.102 541,212.5C 544.605,219.1 548.605,225.434 553,231.5C 556.136,235.478 559.969,238.478 564.5,240.5 Z"/></g>
<g><path style="opacity:1" fill="#c4c3b4" d="M 151.5,205.5 C 162.681,210.344 174.015,215.01 185.5,219.5C 185.047,225.124 182.047,227.624 176.5,227C 168.001,221.777 159.001,217.61 149.5,214.5C 149.167,214.167 148.833,213.833 148.5,213.5C 149.516,210.718 150.516,208.051 151.5,205.5 Z"/></g>
<g><path style="opacity:1" fill="#c3c2b4" d="M 663.5,208.5 C 666.145,210.242 669.145,210.909 672.5,210.5C 665.694,211.986 658.694,213.153 651.5,214C 640.966,217.731 630.8,222.231 621,227.5C 616.323,224.98 612.489,221.646 609.5,217.5C 626.807,215.027 643.807,212.36 660.5,209.5C 661.791,209.737 662.791,209.404 663.5,208.5 Z"/></g>
<g><path style="opacity:1" fill="#c3c2b3" d="M 116.5,251.5 C 117.552,251.649 118.552,251.483 119.5,251C 114.94,246.806 110.106,242.972 105,239.5C 97.7149,232.169 95.5482,223.502 98.5,213.5C 105.443,212.206 112.443,212.206 119.5,213.5C 113.851,219.742 114.184,225.576 120.5,231C 129.77,236.468 139.436,241.135 149.5,245C 155.087,248.71 160.587,252.543 166,256.5C 167.033,259.217 166.2,261.051 163.5,262C 159.5,262.667 155.5,262.667 151.5,262C 140.041,257.391 128.375,253.891 116.5,251.5 Z"/></g>
<g><path style="opacity:1" fill="#f1f0e3" d="M 98.5,213.5 C 95.5482,223.502 97.7149,232.169 105,239.5C 110.106,242.972 114.94,246.806 119.5,251C 118.552,251.483 117.552,251.649 116.5,251.5C 111.103,251.215 105.77,251.549 100.5,252.5C 88.1962,243.886 83.6962,232.219 87,217.5C 90.244,214.695 94.0773,213.362 98.5,213.5 Z"/></g>
<g><path style="opacity:1" fill="#c4c3b4" d="M 698.5,223.5 C 694.809,229.874 691.309,236.541 688,243.5C 677.761,256.912 665.261,267.579 650.5,275.5C 644.757,277.121 639.09,276.621 633.5,274C 630.019,270.603 629.686,266.936 632.5,263C 644.393,260.469 655.226,255.635 665,248.5C 672.653,239.202 674.487,228.868 670.5,217.5C 680.931,215.051 690.264,217.051 698.5,223.5 Z"/></g>
<g><path style="opacity:1" fill="#c5c4b5" d="M 604.5,219.5 C 607.944,223.061 611.944,225.894 616.5,228C 617.451,228.718 617.617,229.551 617,230.5C 603.258,240.55 590.258,251.55 578,263.5C 574.501,267.672 571.834,272.338 570,277.5C 568.5,279 567,280.5 565.5,282C 552.856,281.116 540.523,278.949 528.5,275.5C 529.675,275.719 530.675,275.386 531.5,274.5C 536.183,266.31 542.183,259.143 549.5,253C 553.975,250.35 557.975,247.183 561.5,243.5C 567.344,245.728 573.178,248.061 579,250.5C 580.726,249.352 580.559,248.185 578.5,247C 573.623,245.058 568.956,242.892 564.5,240.5C 571.443,236.021 578.443,231.521 585.5,227C 591.416,223.373 597.75,220.873 604.5,219.5 Z"/></g>
<g><path style="opacity:1" fill="#c5c4b5" d="M 190.5,219.5 C 190.281,220.675 190.614,221.675 191.5,222.5C 206.547,229.346 220.547,237.679 233.5,247.5C 229.227,257.713 221.727,262.046 211,260.5C 203.413,249.577 194.413,239.91 184,231.5C 186.381,227.746 188.548,223.746 190.5,219.5 Z"/></g>
<g><path style="opacity:1" fill="#f2f1e4" d="M 698.5,223.5 C 700.928,225.492 703.094,227.825 705,230.5C 705.667,233.5 705.667,236.5 705,239.5C 697.537,250.928 688.371,260.762 677.5,269C 668.563,271.48 659.563,273.647 650.5,275.5C 665.261,267.579 677.761,256.912 688,243.5C 691.309,236.541 694.809,229.874 698.5,223.5 Z"/></g>
<g><path style="opacity:1" fill="#c4c3b4" d="M 237.5,250.5 C 241.233,255.74 245.566,260.574 250.5,265C 260.675,264.791 270.675,263.291 280.5,260.5C 277.146,269.373 272.146,277.207 265.5,284C 258.833,288 252.167,292 245.5,296C 240.09,298.382 234.424,299.549 228.5,299.5C 228.322,296.784 227.822,294.117 227,291.5C 223.518,285.533 220.851,279.199 219,272.5C 217.224,269.059 215.057,265.892 212.5,263C 215.652,264.186 218.985,264.519 222.5,264C 228.967,261.028 233.967,256.528 237.5,250.5 Z"/></g>
<g><path style="opacity:1" fill="#f2f1e4" d="M 179.5,268.5 C 179.586,269.496 179.252,270.329 178.5,271C 174.296,273.231 170.129,275.398 166,277.5C 156.192,275.256 146.358,273.09 136.5,271C 117.41,267.132 103.244,273.632 94,290.5C 93.3333,294.5 93.3333,298.5 94,302.5C 94.2735,304.329 95.1068,305.829 96.5,307C 96.2716,307.399 95.9382,307.565 95.5,307.5C 80.9751,302.451 75.9751,292.451 80.5,277.5C 83.2109,281.212 86.5442,284.212 90.5,286.5C 91.5827,285.635 91.7494,284.635 91,283.5C 86.2333,280.291 83.8999,275.958 84,270.5C 87.8,264.533 92.9666,260.2 99.5,257.5C 100.367,260.935 101.534,264.268 103,267.5C 104.808,269.843 106.974,270.51 109.5,269.5C 105.328,266.152 103.661,261.819 104.5,256.5C 120.16,257.132 135.16,260.632 149.5,267C 158.355,268.992 166.189,267.159 173,261.5C 176.716,262.432 178.883,264.766 179.5,268.5 Z"/></g>
<g><path style="opacity:1" fill="#f2f1e4" d="M 680.5,284.5 C 669.924,285.417 659.59,287.584 649.5,291C 639.167,291.667 628.833,291.667 618.5,291C 615.833,289 613.167,287 610.5,285C 609.177,284.184 608.511,283.017 608.5,281.5C 611.821,273.346 617.655,267.68 626,264.5C 626.886,277.057 633.719,282.723 646.5,281.5C 659.093,278.648 671.76,276.314 684.5,274.5C 683.752,278.006 682.419,281.34 680.5,284.5 Z"/></g>
<g><path style="opacity:0.529" fill="#83837c" d="M 610.5,268.5 C 610.573,270.027 609.906,271.027 608.5,271.5C 608.427,269.973 609.094,268.973 610.5,268.5 Z"/></g>
<g><path style="opacity:1" fill="#c4c3b4" d="M 179.5,268.5 C 182.568,274.585 181.568,280.085 176.5,285C 170.388,287.414 164.054,288.081 157.5,287C 148.3,284.933 139.3,282.266 130.5,279C 125.5,278.333 120.5,278.333 115.5,279C 106.346,282.815 102.18,289.649 103,299.5C 103.568,303.537 104.735,307.37 106.5,311C 102.324,311.33 98.6574,310.163 95.5,307.5C 95.9382,307.565 96.2716,307.399 96.5,307C 95.1068,305.829 94.2735,304.329 94,302.5C 93.3333,298.5 93.3333,294.5 94,290.5C 103.244,273.632 117.41,267.132 136.5,271C 146.358,273.09 156.192,275.256 166,277.5C 170.129,275.398 174.296,273.231 178.5,271C 179.252,270.329 179.586,269.496 179.5,268.5 Z"/></g>
<g><path style="opacity:1" fill="#f2f1e5" d="M 716.5,323.5 C 722.189,298.325 711.856,284.991 685.5,283.5C 686.279,279.702 687.613,276.202 689.5,273C 698.787,271.517 708.121,271.184 717.5,272C 720.329,273.247 722.995,274.747 725.5,276.5C 725.887,278.731 726.053,281.064 726,283.5C 727.512,281.043 728.846,281.043 730,283.5C 731.164,298.842 726.664,312.175 716.5,323.5 Z"/></g>
<g><path style="opacity:1" fill="#c4c3b4" d="M 608.5,281.5 C 608.511,283.017 609.177,284.184 610.5,285C 613.167,287 615.833,289 618.5,291C 628.833,291.667 639.167,291.667 649.5,291C 659.59,287.584 669.924,285.417 680.5,284.5C 680.735,285.097 681.235,285.43 682,285.5C 683.303,285.022 684.469,284.355 685.5,283.5C 711.856,284.991 722.189,298.325 716.5,323.5C 715.165,325.903 713.498,327.236 711.5,327.5C 714.582,317.057 713.415,307.057 708,297.5C 706.833,295 705,293.167 702.5,292C 689.111,289.341 676.445,291.341 664.5,298C 651.228,302.848 637.561,304.515 623.5,303C 617.013,301.508 611.513,298.341 607,293.5C 604.727,289.059 605.227,285.059 608.5,281.5 Z"/></g>
<g><path style="opacity:0.749" fill="#63635d" d="M 112.5,314.5 C 113.434,315.568 113.768,316.901 113.5,318.5C 111.265,318.795 109.265,318.461 107.5,317.5C 109.167,317.5 110.833,317.5 112.5,317.5C 112.5,316.5 112.5,315.5 112.5,314.5 Z"/></g>

        
<g><path style="opacity:0.994" fill="#080808" d="M 397.5,213.5 C 426.652,214.128 455.652,216.628 484.5,221C 501.696,223.299 517.696,228.965 532.5,238C 541.415,244.711 550.915,250.545 561,255.5C 566,261.833 571,268.167 576,274.5C 579.431,281.886 582.098,289.553 584,297.5C 600.968,293.905 616.801,296.738 631.5,306C 657.957,323.456 680.123,345.29 698,371.5C 701.828,378.655 704.662,386.155 706.5,394C 702.842,398.302 698.175,400.969 692.5,402C 684.601,403.249 676.935,403.749 669.5,403.5C 671.81,407.254 673.643,411.254 675,415.5C 676.619,423.927 678.619,432.26 681,440.5C 682.454,454.02 679.787,466.687 673,478.5C 663.749,491.086 652.582,501.586 639.5,510C 630.893,513.302 622.893,517.635 615.5,523C 597.029,529.157 579.029,536.491 561.5,545C 545.683,550.606 529.683,555.606 513.5,560C 521.167,567 528.833,574 536.5,581C 541.889,585.389 547.556,589.389 553.5,593C 559.667,598.5 565.833,604 572,609.5C 578.423,618.674 584.09,628.34 589,638.5C 598.788,663.109 604.621,688.609 606.5,715C 605.832,731.84 601.498,747.673 593.5,762.5C 601.079,763.861 608.079,766.694 614.5,771C 619.719,777.218 624.552,783.718 629,790.5C 633.064,794.786 637.897,797.952 643.5,800C 644.293,801.085 644.96,802.252 645.5,803.5C 640.621,808.778 634.621,812.278 627.5,814C 620.872,815.052 614.206,815.552 607.5,815.5C 607.62,817.199 607.954,818.865 608.5,820.5C 608.182,821.647 607.516,822.481 606.5,823C 599.093,824.492 591.593,825.325 584,825.5C 570.833,824.357 557.666,823.19 544.5,822C 528.753,817.882 515.253,810.049 504,798.5C 495.911,789.336 489.577,779.003 485,767.5C 473.056,772.575 460.556,774.908 447.5,774.5C 441.513,773.858 435.513,773.358 429.5,773C 427,772.625 424.667,771.792 422.5,770.5C 418.78,774.733 415.613,779.4 413,784.5C 395.052,801.708 373.552,809.541 348.5,808C 344.343,807.271 340.343,806.104 336.5,804.5C 335.167,803.5 335.167,802.5 336.5,801.5C 338.833,800 341.167,798.5 343.5,797C 344.696,796.346 344.696,795.846 343.5,795.5C 335.883,796.633 328.216,796.8 320.5,796C 311.363,794.508 304.863,789.675 301,781.5C 300.179,778.446 300.345,775.446 301.5,772.5C 312.272,769.781 321.939,764.947 330.5,758C 319.87,750.041 313.37,739.541 311,726.5C 309.463,718.908 308.63,711.241 308.5,703.5C 309.559,693.159 310.392,682.825 311,672.5C 308.094,675.369 304.594,676.702 300.5,676.5C 294.742,676.543 289.409,675.209 284.5,672.5C 273.656,662.134 269.489,649.467 272,634.5C 275.346,612.289 285.512,594.122 302.5,580C 312.952,573.232 324.119,571.732 336,575.5C 337.967,574.507 339.134,572.84 339.5,570.5C 305.015,564.297 271.015,555.463 237.5,544C 209.322,532.837 184.822,516.337 164,494.5C 152.732,482.13 145.899,467.63 143.5,451C 144.485,443.505 144.985,436.005 145,428.5C 140.155,431.151 134.989,431.984 129.5,431C 127.954,429.56 127.121,427.727 127,425.5C 126.788,413.092 127.788,400.758 130,388.5C 135.912,374.746 142.579,361.413 150,348.5C 160.721,333.106 174.888,322.273 192.5,316C 198.537,315.303 204.537,315.47 210.5,316.5C 211.252,310.492 213.086,304.826 216,299.5C 222.667,288.833 229.333,278.167 236,267.5C 246.355,255.578 258.188,245.412 271.5,237C 312.624,223.821 354.624,215.987 397.5,213.5 Z"/></g>
<g><path style="opacity:1" fill="#1a1a1a" d="M 668.5,416.5 C 667.149,427.398 664.649,438.064 661,448.5C 656.399,457.425 651.399,466.092 646,474.5C 623.77,496.709 597.937,513.542 568.5,525C 543.253,532.859 517.92,540.526 492.5,548C 448.553,557.101 404.22,559.768 359.5,556C 347.914,553.855 336.248,552.188 324.5,551C 281.405,540.283 240.405,524.283 201.5,503C 185.771,492.605 171.938,480.105 160,465.5C 152.669,456.68 150.169,446.68 152.5,435.5C 154.204,427.844 154.871,420.177 154.5,412.5C 152.056,416.118 149.39,419.618 146.5,423C 142.683,424.995 138.683,426.495 134.5,427.5C 133.201,426.91 132.368,425.91 132,424.5C 131.833,422.5 131.667,420.5 131.5,418.5C 132.991,409.545 134.157,400.545 135,391.5C 141.604,374.286 150.271,358.286 161,343.5C 170.285,333.114 181.451,325.614 194.5,321C 200.862,320.576 207.195,320.576 213.5,321C 224.905,285.517 246.572,258.184 278.5,239C 326.469,224.712 375.469,218.046 425.5,219C 447.106,221.764 468.773,224.764 490.5,228C 502.4,230.411 513.733,234.411 524.5,240C 535.498,247.501 546.832,254.501 558.5,261C 569.707,272.248 576.541,285.748 579,301.5C 581.376,308.587 585.043,314.92 590,320.5C 590.167,320.167 590.333,319.833 590.5,319.5C 588.2,313.909 586.2,308.242 584.5,302.5C 599.35,299.458 613.35,301.625 626.5,309C 652.248,326.081 674.082,347.248 692,372.5C 695.8,378.933 698.633,385.766 700.5,393C 698.652,395.093 696.319,396.426 693.5,397C 680.718,399.865 668.385,398.698 656.5,393.5C 656.372,395.655 656.872,397.655 658,399.5C 664.052,403.607 667.552,409.273 668.5,416.5 Z"/></g>
<g><path style="opacity:1" fill="#010101" d="M 618.5,337.5 C 634.542,353.376 653.208,365.543 674.5,374C 676.954,375.74 678.454,377.907 679,380.5C 677.612,381.554 676.112,381.72 674.5,381C 654.654,371.331 636.821,358.831 621,343.5C 619.441,341.783 618.608,339.783 618.5,337.5 Z"/></g>
<g><path style="opacity:1" fill="#010101" d="M 147.5,382.5 C 148.993,383.312 149.66,384.645 149.5,386.5C 148.442,393.85 147.275,401.184 146,408.5C 144.374,411.128 142.374,413.461 140,415.5C 141.412,404.277 143.912,393.277 147.5,382.5 Z"/></g>
<g><path style="opacity:1" fill="#141414" d="M 668.5,416.5 C 669.117,416.611 669.617,416.944 670,417.5C 671.619,425.927 673.619,434.26 676,442.5C 676.82,456.706 672.82,469.372 664,480.5C 656.058,489.448 647.225,497.281 637.5,504C 628.893,507.302 620.893,511.635 613.5,517C 594.28,523.296 575.614,530.963 557.5,540C 535.077,547.604 512.411,554.271 489.5,560C 470.569,562.908 451.569,565.241 432.5,567C 422.167,567.667 411.833,567.667 401.5,567C 377.521,565.26 353.521,563.927 329.5,563C 288.931,556.527 250.265,544.193 213.5,526C 190.515,513.347 171.682,496.18 157,474.5C 150.182,462.569 148.182,449.902 151,436.5C 151.383,435.944 151.883,435.611 152.5,435.5C 150.169,446.68 152.669,456.68 160,465.5C 171.938,480.105 185.771,492.605 201.5,503C 240.405,524.283 281.405,540.283 324.5,551C 336.248,552.188 347.914,553.855 359.5,556C 404.22,559.768 448.553,557.101 492.5,548C 517.92,540.526 543.253,532.859 568.5,525C 597.937,513.542 623.77,496.709 646,474.5C 651.399,466.092 656.399,457.425 661,448.5C 664.649,438.064 667.149,427.398 668.5,416.5 Z"/></g>
<g><path style="opacity:1" fill="#141414" d="M 478.5,672.5 C 485.872,678.44 494.205,679.94 503.5,677C 506.732,675.77 509.399,673.77 511.5,671C 512.5,670.333 513.5,670.333 514.5,671C 512.476,676.438 510.142,681.772 507.5,687C 510.8,688.879 514.134,688.879 517.5,687C 532.745,675.358 541.412,659.858 543.5,640.5C 542.824,633.638 540.657,627.305 537,621.5C 523.858,607.513 507.691,599.846 488.5,598.5C 480.873,598.024 477.54,601.691 478.5,609.5C 479.213,614.311 480.547,618.978 482.5,623.5C 480.083,625.107 477.416,626.107 474.5,626.5C 472.491,621.266 471.158,615.766 470.5,610C 470.586,606.241 471.586,602.741 473.5,599.5C 473.167,598.5 472.5,597.833 471.5,597.5C 469.364,598.472 468.197,600.139 468,602.5C 467.081,608.966 467.581,615.299 469.5,621.5C 459.019,625.309 450.519,631.642 444,640.5C 430.5,618.167 417,595.833 403.5,573.5C 437.551,572.702 471.217,568.702 504.5,561.5C 506.299,561.577 507.966,562.077 509.5,563C 520.782,574.621 532.948,585.121 546,594.5C 546.265,596.163 545.765,597.663 544.5,599C 549.027,601.543 552.194,605.376 554,610.5C 565.459,638.3 560.959,663.134 540.5,685C 534.687,690.075 528.354,694.408 521.5,698C 505.454,705.563 492.62,702.063 483,687.5C 480.383,682.817 478.883,677.817 478.5,672.5 Z"/></g>
<g><path style="opacity:1" fill="#1a1a1a" d="M 341.5,626.5 C 340.957,626.56 340.624,626.893 340.5,627.5C 342.415,637.065 343.749,646.732 344.5,656.5C 344.66,659.696 343.66,662.363 341.5,664.5C 336.277,662.889 331.277,660.723 326.5,658C 319.953,652.954 314.286,647.12 309.5,640.5C 307.682,644.136 305.849,647.802 304,651.5C 301.757,653.282 299.257,653.782 296.5,653C 288.502,649.673 284.835,643.673 285.5,635C 285.51,621.304 289.344,608.804 297,597.5C 303.059,590.276 309.559,583.609 316.5,577.5C 326.26,575.198 334.26,577.864 340.5,585.5C 341.079,580.029 342.246,574.696 344,569.5C 347.819,568.73 351.653,569.063 355.5,570.5C 348.17,588.493 343.503,607.16 341.5,626.5 Z"/></g>
<g><path style="opacity:1" fill="#d6d4d4" d="M 360.5,674.5 C 365.51,683.351 371.51,691.517 378.5,699C 384.877,703.189 391.544,706.855 398.5,710C 417.397,716.636 424.897,710.136 421,690.5C 413.14,671.699 409.307,652.032 409.5,631.5C 398.974,626.785 387.974,624.118 376.5,623.5C 367.747,622.705 360.081,625.039 353.5,630.5C 350.807,627.803 348.473,624.803 346.5,621.5C 349.911,604.187 354.411,587.187 360,570.5C 364.748,569.365 369.581,569.198 374.5,570C 381.807,570.95 389.14,571.617 396.5,572C 412.113,596.047 427.113,620.547 441.5,645.5C 435.945,660.017 436.445,674.35 443,688.5C 450.196,696.084 459.03,698.917 469.5,697C 472.713,696.394 475.713,695.227 478.5,693.5C 479.748,694.04 480.915,694.707 482,695.5C 480.68,711.111 480.346,726.777 481,742.5C 481.518,749.13 482.685,755.63 484.5,762C 484.095,762.945 483.428,763.612 482.5,764C 447.431,774.811 415.097,769.477 385.5,748C 370.855,738.357 359.355,725.857 351,710.5C 348.215,702.028 346.382,693.361 345.5,684.5C 351.705,682.903 356.705,679.569 360.5,674.5 Z"/></g>
<g><path style="opacity:1" fill="#141414" d="M 316.5,577.5 C 309.559,583.609 303.059,590.276 297,597.5C 289.344,608.804 285.51,621.304 285.5,635C 284.835,643.673 288.502,649.673 296.5,653C 299.257,653.782 301.757,653.282 304,651.5C 305.849,647.802 307.682,644.136 309.5,640.5C 314.286,647.12 319.953,652.954 326.5,658C 331.277,660.723 336.277,662.889 341.5,664.5C 343.66,662.363 344.66,659.696 344.5,656.5C 343.749,646.732 342.415,637.065 340.5,627.5C 340.624,626.893 340.957,626.56 341.5,626.5C 351.199,635.23 356.699,646.23 358,659.5C 359.809,668.085 356.976,674.585 349.5,679C 336.43,684.976 325.264,682.476 316,671.5C 315.5,670 315,668.5 314.5,667C 316.52,664.379 316.853,661.545 315.5,658.5C 312.756,662.751 309.422,666.585 305.5,670C 299.786,671.57 294.12,671.237 288.5,669C 276.97,657.72 273.47,644.22 278,628.5C 282.284,608.737 292.45,592.904 308.5,581C 310.818,579.007 313.484,577.841 316.5,577.5 Z"/></g>
<g><path style="opacity:1" fill="#1a1a1a" d="M 478.5,672.5 C 478.817,669.428 478.484,666.428 477.5,663.5C 474.915,671.11 474.915,678.777 477.5,686.5C 477.124,688.383 476.124,689.883 474.5,691C 467.964,693.968 461.297,694.301 454.5,692C 446.932,689.671 443.099,684.504 443,676.5C 438.427,654.149 446.26,637.982 466.5,628C 469.207,627.605 471.873,627.105 474.5,626.5C 477.416,626.107 480.083,625.107 482.5,623.5C 480.547,618.978 479.213,614.311 478.5,609.5C 477.54,601.691 480.873,598.024 488.5,598.5C 507.691,599.846 523.858,607.513 537,621.5C 540.657,627.305 542.824,633.638 543.5,640.5C 541.412,659.858 532.745,675.358 517.5,687C 514.134,688.879 510.8,688.879 507.5,687C 510.142,681.772 512.476,676.438 514.5,671C 513.5,670.333 512.5,670.333 511.5,671C 509.399,673.77 506.732,675.77 503.5,677C 494.205,679.94 485.872,678.44 478.5,672.5 Z"/></g>
<g><path style="opacity:1" fill="#1a1a1a" d="M 598.5,698.5 C 597.912,721.899 590.746,742.899 577,761.5C 565.289,772.94 551.456,780.607 535.5,784.5C 518.038,781.872 507.538,771.872 504,754.5C 503.302,747.265 502.468,740.098 501.5,733C 502.126,732.25 502.626,731.416 503,730.5C 508.809,736.106 515.809,738.772 524,738.5C 531.939,738.279 538.772,735.446 544.5,730C 552.225,722.272 558.391,713.439 563,703.5C 563.794,700.529 564.461,697.529 565,694.5C 565.418,681.971 566.251,669.471 567.5,657C 567.12,651.981 566.454,647.148 565.5,642.5C 564.922,628.765 561.588,615.765 555.5,603.5C 556.002,602.479 556.668,602.312 557.5,603C 571.596,617.015 581.763,633.515 588,652.5C 593.227,667.473 596.727,682.806 598.5,698.5 Z"/></g>
<g><path style="opacity:1" fill="#e6e6e6" d="M 360.5,674.5 C 363.083,665.193 362.917,655.859 360,646.5C 358.097,641.032 355.93,635.699 353.5,630.5C 360.081,625.039 367.747,622.705 376.5,623.5C 387.974,624.118 398.974,626.785 409.5,631.5C 409.307,652.032 413.14,671.699 421,690.5C 424.897,710.136 417.397,716.636 398.5,710C 391.544,706.855 384.877,703.189 378.5,699C 371.51,691.517 365.51,683.351 360.5,674.5 Z"/></g>
<g><path style="opacity:1" fill="#141414" d="M 565.5,642.5 C 566.454,647.148 567.12,651.981 567.5,657C 566.251,669.471 565.418,681.971 565,694.5C 564.461,697.529 563.794,700.529 563,703.5C 558.391,713.439 552.225,722.272 544.5,730C 538.772,735.446 531.939,738.279 524,738.5C 515.809,738.772 508.809,736.106 503,730.5C 502.626,731.416 502.126,732.25 501.5,733C 502.468,740.098 503.302,747.265 504,754.5C 507.538,771.872 518.038,781.872 535.5,784.5C 551.456,780.607 565.289,772.94 577,761.5C 590.746,742.899 597.912,721.899 598.5,698.5C 602.933,721.449 598.766,742.782 586,762.5C 585.175,764.701 585.675,766.534 587.5,768C 598.604,767.364 607.771,771.197 615,779.5C 618.98,786.624 623.814,793.124 629.5,799C 632.661,800.413 635.661,802.08 638.5,804C 634.952,805.941 631.286,807.607 627.5,809C 619.193,809.999 610.86,810.832 602.5,811.5C 601.423,814.474 601.423,817.474 602.5,820.5C 582.318,821.048 562.318,819.548 542.5,816C 513.218,805.719 494.718,785.552 487,755.5C 483.667,736.833 483.667,718.167 487,699.5C 491.793,704.268 497.627,706.601 504.5,706.5C 516.071,705.922 526.405,702.088 535.5,695C 552.137,681.903 561.637,664.736 564,643.5C 564.383,642.944 564.883,642.611 565.5,642.5 Z"/></g>
<g><path style="opacity:1" fill="#131313" d="M 350.5,718.5 C 349.043,720.242 347.876,722.242 347,724.5C 338.283,720.644 330.616,715.311 324,708.5C 322.417,720.502 325.084,731.502 332,741.5C 338.772,748.117 345.939,754.117 353.5,759.5C 338.303,758.317 327.136,750.984 320,737.5C 312.742,718.114 311.742,698.447 317,678.5C 323.898,685.032 332.065,687.698 341.5,686.5C 342.023,697.933 345.023,708.6 350.5,718.5 Z"/></g>
<g><path style="opacity:1" fill="#1a1a1a" d="M 350.5,718.5 C 353.904,722.965 357.071,727.631 360,732.5C 365.289,737.867 370.789,742.867 376.5,747.5C 378.142,754.451 381.142,760.785 385.5,766.5C 382.554,767.655 379.554,767.821 376.5,767C 370.378,765.471 364.378,763.638 358.5,761.5C 356.95,760.559 355.284,759.893 353.5,759.5C 345.939,754.117 338.772,748.117 332,741.5C 325.084,731.502 322.417,720.502 324,708.5C 330.616,715.311 338.283,720.644 347,724.5C 347.876,722.242 349.043,720.242 350.5,718.5 Z"/></g>
<g><path style="opacity:1" fill="#141414" d="M 376.5,747.5 C 388.389,755.614 401.056,762.447 414.5,768C 415.749,770.21 415.582,772.376 414,774.5C 406.476,785.682 396.31,793.515 383.5,798C 375.218,799.923 366.885,801.59 358.5,803C 353.761,803.726 349.095,803.393 344.5,802C 346.809,799.513 349.476,797.513 352.5,796C 356.633,790.866 361.133,786.032 366,781.5C 366.612,779.763 365.946,778.763 364,778.5C 361.71,779.724 359.544,781.057 357.5,782.5C 358.172,779.658 359.506,777.158 361.5,775C 351.161,771.609 340.828,768.109 330.5,764.5C 331.932,762.673 333.599,761.006 335.5,759.5C 342.062,762.14 348.729,764.474 355.5,766.5C 356.442,766.392 357.275,766.059 358,765.5C 357.645,764.041 357.811,762.707 358.5,761.5C 364.378,763.638 370.378,765.471 376.5,767C 379.554,767.821 382.554,767.655 385.5,766.5C 381.142,760.785 378.142,754.451 376.5,747.5 Z"/></g>
<g><path style="opacity:1" fill="#1a1a1a" d="M 330.5,764.5 C 340.828,768.109 351.161,771.609 361.5,775C 359.506,777.158 358.172,779.658 357.5,782.5C 346.393,790.126 334.06,792.626 320.5,790C 315.177,788.923 310.677,786.423 307,782.5C 305.504,780.55 305.337,778.55 306.5,776.5C 315.084,773.541 323.084,769.541 330.5,764.5 Z"/></g>
<g><path style="opacity:1" fill="#1a1a1a" d="M 578.5,780.5 C 593.089,778.218 605.255,782.552 615,793.5C 615.688,794.332 615.521,794.998 614.5,795.5C 607.334,800.602 599.334,802.935 590.5,802.5C 590.692,805.601 591.358,808.601 592.5,811.5C 587.593,811.932 582.926,810.765 578.5,808C 572.243,803.287 566.076,798.454 560,793.5C 558.148,790.653 558.648,788.153 561.5,786C 567.137,783.682 572.803,781.849 578.5,780.5 Z"/></g>

        
<g><path style="opacity:0.967" fill="#060605" d="M 527.5,255.5 C 527.821,257.048 528.821,257.715 530.5,257.5C 530.973,258.906 531.973,259.573 533.5,259.5C 534.167,259.5 534.5,259.833 534.5,260.5C 535.5,262.167 536.833,263.5 538.5,264.5C 539.401,265.29 540.068,266.29 540.5,267.5C 540.833,268.167 541.167,268.833 541.5,269.5C 541.5,270.167 541.833,270.5 542.5,270.5C 542.833,271.5 543.5,272.167 544.5,272.5C 548.966,279.767 552.633,287.433 555.5,295.5C 555.328,296.492 555.662,297.158 556.5,297.5C 557.234,298.708 557.567,300.041 557.5,301.5C 557.088,303.973 558.088,305.306 560.5,305.5C 561.167,305.5 561.5,305.833 561.5,306.5C 565.572,310.565 569.238,314.898 572.5,319.5C 572.427,321.027 573.094,322.027 574.5,322.5C 574.932,323.71 575.599,324.71 576.5,325.5C 577.167,325.5 577.5,325.833 577.5,326.5C 576.167,326.833 576.167,327.167 577.5,327.5C 577.394,330.079 578.061,332.412 579.5,334.5C 578.833,334.5 578.5,334.833 578.5,335.5C 578.5,336.167 578.5,336.833 578.5,337.5C 578.5,338.167 578.833,338.5 579.5,338.5C 579.5,341.5 579.5,344.5 579.5,347.5C 578.766,348.708 578.433,350.041 578.5,351.5C 578.414,352.496 578.748,353.329 579.5,354C 578.244,354.417 577.577,355.25 577.5,356.5C 576.662,356.842 576.328,357.508 576.5,358.5C 573.924,366.149 569.924,372.983 564.5,379C 559.5,379.333 554.5,379.667 549.5,380C 533.92,383.86 518.586,388.527 503.5,394C 488.559,401.719 473.726,409.553 459,417.5C 454.438,416.568 449.938,415.401 445.5,414C 439.386,408.555 432.72,403.888 425.5,400C 419.038,393.533 413.705,386.367 409.5,378.5C 409.539,377.244 409.039,376.244 408,375.5C 407.503,377.81 407.337,380.143 407.5,382.5C 406.302,387.228 404.302,391.561 401.5,395.5C 400.833,396.167 400.167,396.833 399.5,397.5C 399.167,396.167 398.833,396.167 398.5,397.5C 394.267,400.54 389.267,401.04 383.5,399C 377.399,396.908 372.399,393.241 368.5,388C 366.167,387.333 363.833,387.333 361.5,388C 354.912,398.527 345.912,401.194 334.5,396C 331.894,394.062 330.061,391.562 329,388.5C 326.764,380.317 325.43,371.984 325,363.5C 323.383,361.237 321.55,359.237 319.5,357.5C 319.44,356.957 319.107,356.624 318.5,356.5C 317.504,362.463 317.171,368.463 317.5,374.5C 316.534,385.066 313.201,394.733 307.5,403.5C 306.833,403.5 306.5,403.833 306.5,404.5C 305.833,404.5 305.5,404.833 305.5,405.5C 304.5,405.833 303.833,406.5 303.5,407.5C 300.267,411.779 296.267,415.112 291.5,417.5C 280.875,413.19 271.208,407.357 262.5,400C 244.46,389.359 225.127,385.859 204.5,389.5C 195.728,365.623 199.061,343.456 214.5,323C 214.126,312.745 216.293,302.911 221,293.5C 224.444,287.724 228.277,282.224 232.5,277C 238.566,272.605 244.9,268.605 251.5,265C 257.114,263.575 262.614,263.075 268,263.5C 268.317,265.301 268.984,265.634 270,264.5C 272.099,265.131 273.932,266.131 275.5,267.5C 276.795,268.488 278.128,269.488 279.5,270.5C 280.795,271.488 282.128,272.488 283.5,273.5C 284.833,275.5 286.5,277.167 288.5,278.5C 289.222,279.551 290.222,280.218 291.5,280.5C 291.738,282.404 292.738,283.738 294.5,284.5C 295.833,285.833 297.167,287.167 298.5,288.5C 298.833,289.5 299.5,290.167 300.5,290.5C 301.167,291.5 301.833,292.5 302.5,293.5C 303.512,294.872 304.512,296.205 305.5,297.5C 305.833,298.5 306.5,299.167 307.5,299.5C 308.058,300.79 309.058,301.623 310.5,302C 309.944,302.383 309.611,302.883 309.5,303.5C 309.427,305.027 310.094,306.027 311.5,306.5C 312.757,311.229 314.757,315.562 317.5,319.5C 317.932,320.71 318.599,321.71 319.5,322.5C 320.167,322.5 320.5,322.833 320.5,323.5C 319.957,323.56 319.624,323.893 319.5,324.5C 320.238,326.065 321.238,327.732 322.5,329.5C 321.167,330.167 321.167,330.833 322.5,331.5C 323.09,332.766 323.59,334.099 324,335.5C 325.666,334.66 325.833,335.16 324.5,337C 325.704,340.716 326.538,344.55 327,348.5C 327.992,351.323 329.825,353.323 332.5,354.5C 333.209,355.404 334.209,355.737 335.5,355.5C 351.438,363.985 369.105,365.485 388.5,360C 392.448,357.213 396.114,354.213 399.5,351C 398.695,347.197 398.028,343.364 397.5,339.5C 397.956,327.421 399.122,315.421 401,303.5C 405.684,293.458 411.851,284.458 419.5,276.5C 431.26,267.248 443.927,259.415 457.5,253C 478.032,245.674 498.699,245.008 519.5,251C 522.391,252.274 525.058,253.774 527.5,255.5 Z"/></g>
<g><path style="opacity:1" fill="#1b1b1b" d="M 493.5,250.5 C 513.919,251.621 529.752,260.621 541,277.5C 546.447,286.561 550.947,296.061 554.5,306C 529.002,307.141 503.669,309.807 478.5,314C 450.146,320.158 424.813,332.324 402.5,350.5C 401.34,348.854 400.673,347.021 400.5,345C 401.268,335.523 401.768,326.023 402,316.5C 402.793,311.789 403.793,307.122 405,302.5C 409.743,295.358 414.743,288.358 420,281.5C 440.771,262.194 465.271,251.861 493.5,250.5 Z"/></g>
<g><path style="opacity:0.753" fill="#7a7973" d="M 527.5,255.5 C 528.71,255.932 529.71,256.599 530.5,257.5C 528.821,257.715 527.821,257.048 527.5,255.5 Z"/></g>
<g><path style="opacity:0.004" fill="#d4d3c8" d="M 530.5,257.5 C 532.027,257.427 533.027,258.094 533.5,259.5C 531.973,259.573 530.973,258.906 530.5,257.5 Z"/></g>
<g><path style="opacity:0.004" fill="#edecdf" d="M 534.5,260.5 C 536.833,260.833 538.167,262.167 538.5,264.5C 536.833,263.5 535.5,262.167 534.5,260.5 Z"/></g>
<g><path style="opacity:0.004" fill="#f6f6e8" d="M 275.5,266.5 C 276.833,267.167 276.833,267.167 275.5,266.5 Z"/></g>
<g><path style="opacity:0.004" fill="#f2f1e4" d="M 540.5,267.5 C 542.424,267.711 542.757,268.377 541.5,269.5C 541.167,268.833 540.833,268.167 540.5,267.5 Z"/></g>
<g><path style="opacity:1" fill="#1b1b1b" d="M 257.5,268.5 C 263.581,269.027 269.248,270.86 274.5,274C 300.656,294.504 316.322,321.004 321.5,353.5C 307.027,343.088 291.694,333.922 275.5,326C 256.698,319.533 237.365,315.866 217.5,315C 220.037,303.427 224.871,292.927 232,283.5C 239.617,276.783 248.117,271.783 257.5,268.5 Z"/></g>
<g><path style="opacity:0.004" fill="#f6f6e8" d="M 279.5,269.5 C 280.833,270.167 280.833,270.167 279.5,269.5 Z"/></g>
<g><path style="opacity:0.004" fill="#edece0" d="M 542.5,270.5 C 543.833,270.5 544.5,271.167 544.5,272.5C 543.5,272.167 542.833,271.5 542.5,270.5 Z"/></g>
<g><path style="opacity:0.004" fill="#dcdbcf" d="M 283.5,273.5 C 286.167,274.167 287.833,275.833 288.5,278.5C 286.5,277.167 284.833,275.5 283.5,273.5 Z"/></g>
<g><path style="opacity:0.035" fill="#888780" d="M 291.5,280.5 C 293.262,281.262 294.262,282.596 294.5,284.5C 292.738,283.738 291.738,282.404 291.5,280.5 Z"/></g>
<g><path style="opacity:0.004" fill="#ebeade" d="M 298.5,288.5 C 299.833,288.5 300.5,289.167 300.5,290.5C 299.5,290.167 298.833,289.5 298.5,288.5 Z"/></g>
<g><path style="opacity:0.004" fill="#dcdbd0" d="M 302.5,293.5 C 304.912,293.694 305.912,295.027 305.5,297.5C 304.512,296.205 303.512,294.872 302.5,293.5 Z"/></g>
<g><path style="opacity:0.051" fill="#aaa9a0" d="M 555.5,295.5 C 557.105,296.006 557.439,296.673 556.5,297.5C 555.662,297.158 555.328,296.492 555.5,295.5 Z"/></g>
<g><path style="opacity:0.004" fill="#e8e7db" d="M 305.5,297.5 C 306.833,297.5 307.5,298.167 307.5,299.5C 306.5,299.167 305.833,298.5 305.5,297.5 Z"/></g>
<g><path style="opacity:0.059" fill="#a8a79f" d="M 557.5,301.5 C 558.488,302.795 559.488,304.128 560.5,305.5C 558.088,305.306 557.088,303.973 557.5,301.5 Z"/></g>
<g><path style="opacity:0.016" fill="#a6a69d" d="M 309.5,303.5 C 310.906,303.973 311.573,304.973 311.5,306.5C 310.094,306.027 309.427,305.027 309.5,303.5 Z"/></g>
<g><path style="opacity:1" fill="#f3f2e5" d="M 537.5,310.5 C 543.842,310.334 550.175,310.5 556.5,311C 575.021,326.27 578.354,344.437 566.5,365.5C 552.55,354.515 537.55,345.015 521.5,337C 464.404,324.086 438.237,346.919 443,405.5C 436.311,401.322 429.978,396.655 424,391.5C 418.408,383.971 413.074,376.304 408,368.5C 406.6,363.169 405.6,357.836 405,352.5C 429.427,333.71 456.927,321.543 487.5,316C 504.299,314.025 520.966,312.192 537.5,310.5 Z"/></g>
<g><path style="opacity:0.008" fill="#e5e4d8" d="M 561.5,306.5 C 566.992,309.323 570.659,313.656 572.5,319.5C 569.238,314.898 565.572,310.565 561.5,306.5 Z"/></g>
<g><path style="opacity:0.004" fill="#e6e5d9" d="M 317.5,319.5 C 319.048,319.821 319.715,320.821 319.5,322.5C 318.599,321.71 317.932,320.71 317.5,319.5 Z"/></g>
<g><path style="opacity:1" fill="#f2f1e4" d="M 222.5,319.5 C 255.759,321.304 285.259,332.638 311,353.5C 314.194,369.338 311.861,384.338 304,398.5C 302,400.5 300,402.5 298,404.5C 300.325,377.65 289.825,357.483 266.5,344C 244.603,339.53 227.103,346.364 214,364.5C 210.479,369.542 207.479,374.875 205,380.5C 201.502,362.994 204.502,346.661 214,331.5C 216.689,327.325 219.523,323.325 222.5,319.5 Z"/></g>
<g><path style="opacity:0.027" fill="#85857e" d="M 572.5,319.5 C 573.906,319.973 574.573,320.973 574.5,322.5C 573.094,322.027 572.427,321.027 572.5,319.5 Z"/></g>
<g><path style="opacity:0.004" fill="#e5e4d8" d="M 574.5,322.5 C 576.048,322.821 576.715,323.821 576.5,325.5C 575.599,324.71 574.932,323.71 574.5,322.5 Z"/></g>
<g><path style="opacity:0.004" fill="#f6f6e8" d="M 320.5,323.5 C 321.833,324.167 321.833,324.167 320.5,323.5 Z"/></g>
<g><path style="opacity:0.004" fill="#f6f6e8" d="M 577.5,326.5 C 578.833,327.167 578.833,327.167 577.5,326.5 Z"/></g>
<g><path style="opacity:0.004" fill="#f6f6e8" d="M 322.5,329.5 C 323.833,330.167 323.833,330.833 322.5,331.5C 322.5,330.833 322.5,330.167 322.5,329.5 Z"/></g>
<g><path style="opacity:0.004" fill="#f6f6e8" d="M 579.5,334.5 C 580.833,335.167 580.833,335.167 579.5,334.5 Z"/></g>
<g><path style="opacity:0.004" fill="#d4d3c8" d="M 578.5,335.5 C 578.833,335.5 579.167,335.5 579.5,335.5C 580.625,336.652 580.625,337.652 579.5,338.5C 578.833,338.5 578.5,338.167 578.5,337.5C 578.5,336.833 578.5,336.167 578.5,335.5 Z"/></g>
<g><path style="opacity:0.004" fill="#f6f6e8" d="M 580.5,339.5 C 581.629,341.628 581.796,343.961 581,346.5C 580.503,344.19 580.337,341.857 580.5,339.5 Z"/></g>
<g><path style="opacity:0.027" fill="#bebdb3" d="M 579.5,347.5 C 580.354,348.632 580.354,349.965 579.5,351.5C 579.167,351.5 578.833,351.5 578.5,351.5C 578.433,350.041 578.766,348.708 579.5,347.5 Z"/></g>
<g><path style="opacity:0.004" fill="#f6f6e8" d="M 579.5,351.5 C 580.833,352.167 580.833,352.167 579.5,351.5 Z"/></g>
<g><path style="opacity:0.102" fill="#85857e" d="M 335.5,355.5 C 334.209,355.737 333.209,355.404 332.5,354.5C 332.435,354.062 332.601,353.728 333,353.5C 333.995,354.066 334.828,354.733 335.5,355.5 Z"/></g>
<g><path style="opacity:0.004" fill="#f6f6e8" d="M 578.5,355.5 C 579.833,356.167 579.833,356.167 578.5,355.5 Z"/></g>
<g><path style="opacity:1" fill="#1b1b1b" d="M 327.5,357.5 C 334.917,361.206 342.583,364.373 350.5,367C 363.045,369.556 375.379,368.89 387.5,365C 391.183,363.159 394.516,360.826 397.5,358C 398.5,357.333 399.5,357.333 400.5,358C 405.783,368.611 405.617,379.111 400,389.5C 395.86,394.211 390.694,395.711 384.5,394C 378.851,392.027 374.184,388.694 370.5,384C 366.546,380.862 362.546,380.862 358.5,384C 356.402,386.854 354.069,389.521 351.5,392C 343.806,394.989 337.64,393.155 333,386.5C 330.946,376.834 329.112,367.168 327.5,357.5 Z"/></g>
<g><path style="opacity:0.004" fill="#d2d1c6" d="M 577.5,356.5 C 577.833,356.5 578.167,356.5 578.5,356.5C 578.167,357.167 577.833,357.833 577.5,358.5C 577.167,358.5 576.833,358.5 576.5,358.5C 576.328,357.508 576.662,356.842 577.5,356.5 Z"/></g>
<g><path style="opacity:0.004" fill="#f6f6e8" d="M 577.5,358.5 C 578.833,359.167 578.833,359.167 577.5,358.5 Z"/></g>
<g><path style="opacity:0.095" fill="#d3d2c7" d="M 319.5,357.5 C 318.874,363.268 318.207,368.934 317.5,374.5C 317.171,368.463 317.504,362.463 318.5,356.5C 319.107,356.624 319.44,356.957 319.5,357.5 Z"/></g>
<g><path style="opacity:0.031" fill="#908f88" d="M 409.5,378.5 C 408.833,379.833 408.167,381.167 407.5,382.5C 407.337,380.143 407.503,377.81 408,375.5C 409.039,376.244 409.539,377.244 409.5,378.5 Z"/></g>
<g><path style="opacity:0.012" fill="#000000" d="M 549.5,383.5 C 550.833,384.167 550.833,384.167 549.5,383.5 Z"/></g>
<g><path style="opacity:0.02" fill="#000000" d="M 545.5,384.5 C 546.833,385.167 546.833,385.167 545.5,384.5 Z"/></g>
<g><path style="opacity:0.022" fill="#000000" d="M 541.5,386.5 C 541.897,385.475 542.563,385.308 543.5,386C 542.906,386.464 542.239,386.631 541.5,386.5 Z"/></g>
<g><path style="opacity:0.018" fill="#000000" d="M 538.5,387.5 C 538.897,386.475 539.563,386.308 540.5,387C 539.906,387.464 539.239,387.631 538.5,387.5 Z"/></g>
<g><path style="opacity:0.016" fill="#000000" d="M 534.5,388.5 C 534.897,387.475 535.563,387.308 536.5,388C 535.906,388.464 535.239,388.631 534.5,388.5 Z"/></g>
<g><path style="opacity:0.012" fill="#000000" d="M 530.5,389.5 C 530.897,388.475 531.563,388.308 532.5,389C 531.906,389.464 531.239,389.631 530.5,389.5 Z"/></g>
<g><path style="opacity:0.04" fill="#000000" d="M 226.5,391.5 C 228.103,391.312 229.437,391.812 230.5,393C 228.167,393.667 225.833,393.667 223.5,393C 224.737,392.768 225.737,392.268 226.5,391.5 Z"/></g>
<g><path style="opacity:0.042" fill="#000000" d="M 210.5,393.5 C 211.946,392.387 213.613,392.22 215.5,393C 213.866,393.494 212.199,393.66 210.5,393.5 Z"/></g>
<g><path style="opacity:0.016" fill="#000000" d="M 233.5,392.5 C 234.833,393.167 234.833,393.167 233.5,392.5 Z"/></g>
<g><path style="opacity:0.012" fill="#000000" d="M 236.5,394.5 C 236.897,393.475 237.563,393.308 238.5,394C 237.906,394.464 237.239,394.631 236.5,394.5 Z"/></g>
<g><path style="opacity:0.016" fill="#000000" d="M 239.5,395.5 C 239.897,394.475 240.563,394.308 241.5,395C 240.906,395.464 240.239,395.631 239.5,395.5 Z"/></g>
<g><path style="opacity:0.012" fill="#000000" d="M 242.5,395.5 C 243.833,396.167 243.833,396.167 242.5,395.5 Z"/></g>
<g><path style="opacity:0.004" fill="#f6f6e8" d="M 401.5,395.5 C 402.833,396.167 402.833,396.167 401.5,395.5 Z"/></g>
<g><path style="opacity:0.016" fill="#000000" d="M 245.5,396.5 C 246.833,397.167 246.833,397.167 245.5,396.5 Z"/></g>
<g><path style="opacity:0.012" fill="#000000" d="M 247.5,397.5 C 248.833,398.167 248.833,398.167 247.5,397.5 Z"/></g>
<g><path style="opacity:0.004" fill="#f6f6e8" d="M 398.5,397.5 C 398.833,397.5 399.167,397.5 399.5,397.5C 399.315,398.17 398.981,398.17 398.5,397.5 Z"/></g>
<g><path style="opacity:0.02" fill="#000000" d="M 250.5,398.5 C 251.833,399.167 251.833,399.167 250.5,398.5 Z"/></g>
<g><path style="opacity:0.02" fill="#000000" d="M 252.5,399.5 C 253.833,400.167 253.833,400.167 252.5,399.5 Z"/></g>
<g><path style="opacity:0.012" fill="#000000" d="M 254.5,400.5 C 255.833,401.167 255.833,401.167 254.5,400.5 Z"/></g>
<g><path style="opacity:0.004" fill="#f6f6e8" d="M 307.5,403.5 C 308.833,404.167 308.833,404.167 307.5,403.5 Z"/></g>
<g><path style="opacity:0.004" fill="#f6f6e8" d="M 306.5,404.5 C 306.833,404.5 307.167,404.5 307.5,404.5C 307.315,405.17 306.981,405.17 306.5,404.5 Z"/></g>
<g><path style="opacity:0.004" fill="#eeede1" d="M 305.5,405.5 C 305.833,405.5 306.167,405.5 306.5,405.5C 306.027,406.906 305.027,407.573 303.5,407.5C 303.833,406.5 304.5,405.833 305.5,405.5 Z"/></g>

        
<g><path style="opacity:0.983" fill="#212120" d="M 592.5,349.5 C 591.89,348.609 591.557,347.609 591.5,346.5C 599.093,346.538 605.593,349.538 611,355.5C 613.002,360.007 614.502,364.674 615.5,369.5C 615.02,373.293 613.353,376.46 610.5,379C 604.352,382.078 598.019,384.578 591.5,386.5C 585.054,385.936 578.72,384.77 572.5,383C 564.833,382.333 557.167,382.333 549.5,383C 541.284,384.787 533.618,387.62 526.5,391.5C 526.631,390.624 526.298,389.957 525.5,389.5C 524.261,389.942 523.261,390.609 522.5,391.5C 521.791,392.404 520.791,392.737 519.5,392.5C 515.838,392.723 512.505,393.723 509.5,395.5C 506.759,395.707 504.426,396.707 502.5,398.5C 502.158,399.338 501.492,399.672 500.5,399.5C 495.914,400.46 491.914,402.46 488.5,405.5C 488.158,406.338 487.492,406.672 486.5,406.5C 484.973,406.427 483.973,407.094 483.5,408.5C 481.326,408.75 479.659,409.75 478.5,411.5C 477.167,411.5 476.5,412.167 476.5,413.5C 475.878,414.627 475.045,415.627 474,416.5C 472.951,415.483 471.784,415.316 470.5,416C 465.147,418.701 459.814,421.368 454.5,424C 422.871,431.862 391.038,433.695 359,429.5C 340.208,432.375 321.708,431.042 303.5,425.5C 300.905,426.237 298.238,426.237 295.5,425.5C 295.953,424.542 296.619,423.708 297.5,423C 296.906,422.536 296.239,422.369 295.5,422.5C 291.703,422.128 288.37,420.794 285.5,418.5C 282.485,416.326 279.151,414.659 275.5,413.5C 274.415,411.413 272.749,410.08 270.5,409.5C 269.508,409.672 268.842,409.338 268.5,408.5C 268.027,407.094 267.027,406.427 265.5,406.5C 264.352,403.913 262.685,402.913 260.5,403.5C 251.198,397.055 240.864,392.722 229.5,390.5C 219.197,391.724 208.863,392.224 198.5,392C 183.151,388.16 174.651,378.326 173,362.5C 172.333,357.833 172.333,353.167 173,348.5C 173.036,346.059 173.869,344.059 175.5,342.5C 176.086,342.709 176.586,343.043 177,343.5C 176.529,354.347 178.529,364.681 183,374.5C 188.543,381.974 196.043,385.974 205.5,386.5C 232.733,382.303 256.733,389.137 277.5,407C 291.297,414.71 305.964,420.044 321.5,423C 345.953,423.754 370.453,424.587 395,425.5C 414.476,425.449 433.642,422.949 452.5,418C 469.5,409 486.5,400 503.5,391C 518.586,385.527 533.92,380.86 549.5,377C 557.5,376.333 565.5,376.333 573.5,377C 580.063,378.986 586.73,379.986 593.5,380C 597.749,377.806 602.082,375.806 606.5,374C 607.872,372.758 608.872,371.258 609.5,369.5C 608.098,365.461 606.598,361.461 605,357.5C 600.684,354.934 596.517,352.267 592.5,349.5 Z"/></g>
<g><path style="opacity:0.231" fill="#9b9b93" d="M 591.5,346.5 C 591.557,347.609 591.89,348.609 592.5,349.5C 590.448,348.947 590.115,347.947 591.5,346.5 Z"/></g>
<g><path style="opacity:0.012" fill="#b3b2a9" d="M 526.5,391.5 C 525.472,391.926 524.139,391.926 522.5,391.5C 523.261,390.609 524.261,389.942 525.5,389.5C 526.298,389.957 526.631,390.624 526.5,391.5 Z"/></g>
<g><path style="opacity:0.149" fill="#d6d5ca" d="M 519.5,392.5 C 516.495,394.277 513.162,395.277 509.5,395.5C 512.505,393.723 515.838,392.723 519.5,392.5 Z"/></g>
<g><path style="opacity:0.196" fill="#d2d1c6" d="M 509.5,395.5 C 507.574,397.293 505.241,398.293 502.5,398.5C 504.426,396.707 506.759,395.707 509.5,395.5 Z"/></g>
<g><path style="opacity:0.294" fill="#a8a79f" d="M 260.5,403.5 C 262.685,402.913 264.352,403.913 265.5,406.5C 263.589,405.925 261.922,404.925 260.5,403.5 Z"/></g>
<g><path style="opacity:0.173" fill="#d8d7cc" d="M 500.5,399.5 C 496.818,402.008 492.818,404.008 488.5,405.5C 491.914,402.46 495.914,400.46 500.5,399.5 Z"/></g>
<g><path style="opacity:0.235" fill="#d1d0c5" d="M 265.5,406.5 C 267.027,406.427 268.027,407.094 268.5,408.5C 266.973,408.573 265.973,407.906 265.5,406.5 Z"/></g>
<g><path style="opacity:0.141" fill="#dfded2" d="M 486.5,406.5 C 486.027,407.906 485.027,408.573 483.5,408.5C 483.973,407.094 484.973,406.427 486.5,406.5 Z"/></g>
<g><path style="opacity:0.067" fill="#d3d2c7" d="M 483.5,408.5 C 482.341,410.25 480.674,411.25 478.5,411.5C 479.659,409.75 481.326,408.75 483.5,408.5 Z"/></g>
<g><path style="opacity:0.012" fill="#d5d4c9" d="M 478.5,411.5 C 478.167,412.5 477.5,413.167 476.5,413.5C 476.5,412.167 477.167,411.5 478.5,411.5 Z"/></g>
<g><path style="opacity:0.322" fill="#b9b8af" d="M 270.5,409.5 C 272.749,410.08 274.415,411.413 275.5,413.5C 273.251,412.92 271.585,411.587 270.5,409.5 Z"/></g>
<g><path style="opacity:0.196" fill="#d0d0c5" d="M 275.5,413.5 C 279.151,414.659 282.485,416.326 285.5,418.5C 281.58,417.873 278.247,416.207 275.5,413.5 Z"/></g>
<g><path style="opacity:0.027" fill="#d9d8cd" d="M 295.5,422.5 C 296.239,422.369 296.906,422.536 297.5,423C 296.619,423.708 295.953,424.542 295.5,425.5C 294.375,424.652 294.375,423.652 295.5,422.5 Z"/></g>

        
<g><path style="opacity:0.99" fill="#07070a" d="M 334.5,239.5 C 334.5,238.5 334.5,237.5 334.5,236.5C 333.209,236.263 332.209,236.596 331.5,237.5C 329.254,237.936 327.087,238.603 325,239.5C 322.67,237.336 322.003,234.669 323,231.5C 324.455,228.088 326.288,224.921 328.5,222C 323.233,221.326 318.066,221.826 313,223.5C 311.029,223.719 309.862,222.885 309.5,221C 311.237,215.253 314.57,210.586 319.5,207C 324.198,204.651 328.864,202.318 333.5,200C 324.528,200.535 322.528,197.202 327.5,190C 330.253,188.499 332.92,186.999 335.5,185.5C 334.296,182.585 332.296,180.419 329.5,179C 320.577,175.47 311.577,172.137 302.5,169C 301.483,167.951 301.316,166.784 302,165.5C 307.762,162.001 314.095,160.334 321,160.5C 344.639,162.708 361.472,174.374 371.5,195.5C 372.548,197.933 373.214,197.933 373.5,195.5C 377.16,183.177 383.16,172.177 391.5,162.5C 398.406,155.547 406.74,151.547 416.5,150.5C 415.726,157.132 412.893,162.798 408,167.5C 404.697,172.441 402.197,177.774 400.5,183.5C 405.328,183.469 410.328,183.635 415.5,184C 417.576,185.884 417.91,188.051 416.5,190.5C 412.206,191.645 408.539,193.812 405.5,197C 418.699,196.375 425.699,202.542 426.5,215.5C 419.799,216.682 414.132,219.682 409.5,224.5C 410.61,233.138 410.776,241.804 410,250.5C 409.592,253.42 408.259,255.754 406,257.5C 405.333,256.833 404.667,256.167 404,255.5C 403.664,248.505 400.164,243.839 393.5,241.5C 392.246,247.457 390.246,253.123 387.5,258.5C 385.694,259.859 384.194,259.525 383,257.5C 383.07,251.993 380.737,247.993 376,245.5C 372.584,247.992 370.418,251.325 369.5,255.5C 368.127,255.657 366.793,255.49 365.5,255C 361.071,251.705 356.571,248.538 352,245.5C 347.629,248.431 343.796,251.931 340.5,256C 339.5,256.667 338.5,256.667 337.5,256C 335.48,250.719 334.48,245.219 334.5,239.5 Z"/></g>
<g><path style="opacity:1" fill="#2c2d39" d="M 400.5,195.5 C 400.5,194.5 400.5,193.5 400.5,192.5C 396.914,192.848 393.914,194.015 391.5,196C 392.048,186.264 394.548,176.764 399,167.5C 402.333,166.167 402.333,164.833 399,163.5C 398.617,164.056 398.117,164.389 397.5,164.5C 400.468,160.514 404.468,158.348 409.5,158C 401.586,167.41 397.252,178.243 396.5,190.5C 400.011,188.915 403.678,188.415 407.5,189C 404.642,190.694 402.309,192.861 400.5,195.5 Z"/></g>
<g><path style="opacity:1" fill="#333340" d="M 400.5,195.5 C 399.659,197.379 399.325,199.379 399.5,201.5C 403.234,201.323 406.901,201.656 410.5,202.5C 410.423,203.75 409.756,204.583 408.5,205C 410.285,206.163 412.285,206.83 414.5,207C 413.167,207.667 413.167,208.333 414.5,209C 410,212.167 406.167,216 403,220.5C 403.059,225.287 403.226,230.12 403.5,235C 401.109,236.309 401.109,237.309 403.5,238C 401.892,238.658 400.725,238.158 400,236.5C 399.536,237.094 399.369,237.761 399.5,238.5C 396.099,236.616 392.433,236.116 388.5,237C 387.741,241.471 386.908,245.971 386,250.5C 383.287,245.747 379.787,241.747 375.5,238.5C 373.821,239.782 371.987,240.782 370,241.5C 369.913,244.578 368.579,246.912 366,248.5C 360.951,246.231 356.784,242.898 353.5,238.5C 350.87,239.804 348.537,241.47 346.5,243.5C 345.5,243.5 344.5,243.5 343.5,243.5C 343.64,241.876 342.973,240.71 341.5,240C 342.177,237.018 342.177,234.185 341.5,231.5C 340.758,230.713 339.925,230.047 339,229.5C 336.761,230.869 334.927,230.369 333.5,228C 335.008,225.906 336.342,223.74 337.5,221.5C 337.5,221.167 337.5,220.833 337.5,220.5C 338.097,220.265 338.43,219.765 338.5,219C 336.976,217.806 335.81,216.306 335,214.5C 331.716,214.387 328.383,214.72 325,215.5C 324.626,214.584 324.126,213.75 323.5,213C 328.342,210.053 333.342,207.553 338.5,205.5C 339.167,205.5 339.833,205.5 340.5,205.5C 342.734,204.296 345.067,203.13 347.5,202C 344.701,201.561 343.701,200.228 344.5,198C 343.167,197 341.833,196 340.5,195C 341.155,193.513 342.155,192.347 343.5,191.5C 344.631,189.926 344.798,188.259 344,186.5C 341.675,183.173 339.342,179.839 337,176.5C 334.238,175.019 331.571,173.353 329,171.5C 328.626,170.584 328.126,169.75 327.5,169C 328.416,168.722 329.082,168.222 329.5,167.5C 341.896,170.723 352.063,177.39 360,187.5C 363.841,193.178 367.174,199.178 370,205.5C 371.396,207.527 373.062,207.86 375,206.5C 377.94,192.62 383.607,179.953 392,168.5C 393.992,167.335 395.825,166.002 397.5,164.5C 398.117,164.389 398.617,164.056 399,163.5C 402.333,164.833 402.333,166.167 399,167.5C 394.548,176.764 392.048,186.264 391.5,196C 393.914,194.015 396.914,192.848 400.5,192.5C 400.5,193.5 400.5,194.5 400.5,195.5 Z"/></g>
<g><path style="opacity:1" fill="#2c2d3a" d="M 329.5,167.5 C 329.082,168.222 328.416,168.722 327.5,169C 328.126,169.75 328.626,170.584 329,171.5C 331.571,173.353 334.238,175.019 337,176.5C 339.342,179.839 341.675,183.173 344,186.5C 344.798,188.259 344.631,189.926 343.5,191.5C 342.155,192.347 341.155,193.513 340.5,195C 341.833,196 343.167,197 344.5,198C 343.701,200.228 344.701,201.561 347.5,202C 345.067,203.13 342.734,204.296 340.5,205.5C 342.213,199.063 339.879,195.063 333.5,193.5C 335.664,191.316 338.331,189.983 341.5,189.5C 340.302,184.134 337.635,179.634 333.5,176C 327.136,172.818 320.802,169.651 314.5,166.5C 319.741,165.1 324.741,165.434 329.5,167.5 Z"/></g>
<g><path style="opacity:0.024" fill="#292a35" d="M 371.5,195.5 C 372.167,195.5 372.833,195.5 373.5,195.5C 373.214,197.933 372.548,197.933 371.5,195.5 Z"/></g>
<g><path style="opacity:1" fill="#2d2d3a" d="M 410.5,202.5 C 415.782,202.972 419.449,205.639 421.5,210.5C 415.285,213.224 410.118,217.224 406,222.5C 406.682,229.818 406.515,237.151 405.5,244.5C 403.146,242.812 401.146,240.812 399.5,238.5C 399.369,237.761 399.536,237.094 400,236.5C 400.725,238.158 401.892,238.658 403.5,238C 401.109,237.309 401.109,236.309 403.5,235C 403.226,230.12 403.059,225.287 403,220.5C 406.167,216 410,212.167 414.5,209C 413.167,208.333 413.167,207.667 414.5,207C 412.285,206.83 410.285,206.163 408.5,205C 409.756,204.583 410.423,203.75 410.5,202.5 Z"/></g>
<g><path style="opacity:1" fill="#2b2c38" d="M 338.5,205.5 C 333.342,207.553 328.342,210.053 323.5,213C 324.126,213.75 324.626,214.584 325,215.5C 328.383,214.72 331.716,214.387 335,214.5C 335.81,216.306 336.976,217.806 338.5,219C 338.43,219.765 338.097,220.265 337.5,220.5C 336.64,218.386 334.973,217.22 332.5,217C 327.116,216.495 321.782,216.495 316.5,217C 322.249,209.629 329.582,205.796 338.5,205.5 Z"/></g>
<g><path style="opacity:1" fill="#2c2c39" d="M 337.5,221.5 C 336.342,223.74 335.008,225.906 333.5,228C 334.927,230.369 336.761,230.869 339,229.5C 339.925,230.047 340.758,230.713 341.5,231.5C 342.177,234.185 342.177,237.018 341.5,240C 342.973,240.71 343.64,241.876 343.5,243.5C 344.5,243.5 345.5,243.5 346.5,243.5C 344.229,245.266 342.063,247.266 340,249.5C 337.689,243.959 336.856,238.293 337.5,232.5C 334.073,232.976 330.74,232.976 327.5,232.5C 329.464,227.538 332.798,223.871 337.5,221.5 Z"/></g>
<g><path style="opacity:0.157" fill="#272733" d="M 331.5,237.5 C 332.209,236.596 333.209,236.263 334.5,236.5C 334.5,237.5 334.5,238.5 334.5,239.5C 333.778,238.449 332.778,237.782 331.5,237.5 Z"/></g>

    </svg>
