
    <svg width="862" height="862" viewBox="0 0 862 862" fill="none" xmlns="http://www.w3.org/2000/svg">
        
<g><path style="opacity:1" fill="#f6f6e8" d="M -0.5,-0.5 C 286.833,-0.5 574.167,-0.5 861.5,-0.5C 861.5,286.833 861.5,574.167 861.5,861.5C 574.167,861.5 286.833,861.5 -0.5,861.5C -0.5,574.167 -0.5,286.833 -0.5,-0.5 Z"/></g>

        
<g><path style="opacity:0.983" fill="#1a1a19" d="M 578.5,540.5 C 583.993,540.916 589.326,542.082 594.5,544C 599.237,547.614 603.403,551.781 607,556.5C 613.977,570.057 616.311,584.39 614,599.5C 611.931,603.236 608.931,605.903 605,607.5C 603.018,607.01 601.351,606.01 600,604.5C 594.275,609.717 588.442,609.717 582.5,604.5C 577.923,613.337 572.256,614.337 565.5,607.5C 561.53,612.973 556.196,614.806 549.5,613C 548.299,612.097 547.465,610.931 547,609.5C 541.931,617.452 536.764,617.452 531.5,609.5C 527.737,613.765 523.737,617.932 519.5,622C 516.106,622.752 512.773,622.585 509.5,621.5C 508.194,620.088 507.36,618.421 507,616.5C 505.425,609.568 504.258,602.568 503.5,595.5C 504.335,583.317 510.669,578.317 522.5,580.5C 523.795,579.902 525.128,579.402 526.5,579C 535.197,570.637 543.531,561.97 551.5,553C 559.592,546.617 568.592,542.45 578.5,540.5 Z"/></g>
<g><path style="opacity:1" fill="#d9d8cb" d="M 587.5,601.5 C 588.496,601.586 589.329,601.252 590,600.5C 592.94,596.545 595.94,592.545 599,588.5C 599.37,579.339 598.37,570.339 596,561.5C 591.36,554.156 584.693,549.822 576,548.5C 573.538,549.159 571.038,549.493 568.5,549.5C 581.297,543.74 592.13,546.407 601,557.5C 608.853,570.951 611.186,585.285 608,600.5C 606.604,602.527 604.938,602.86 603,601.5C 602.091,598.089 601.091,594.755 600,591.5C 598.35,595.573 596.516,599.573 594.5,603.5C 591.584,604.861 589.251,604.195 587.5,601.5 Z"/></g>
<g><path style="opacity:1" fill="#f4f3e6" d="M 587.5,601.5 C 585.433,599.682 584.1,597.349 583.5,594.5C 582.635,593.417 581.635,593.251 580.5,594C 579.955,598.074 578.621,601.907 576.5,605.5C 574.878,607.439 573.044,607.772 571,606.5C 568.863,602.486 567.03,598.486 565.5,594.5C 564.522,594.977 563.689,595.643 563,596.5C 563.284,605.334 559.118,609.667 550.5,609.5C 550.348,605.228 549.348,601.228 547.5,597.5C 545.179,600.394 544.012,603.727 544,607.5C 541.618,612.067 538.951,612.4 536,608.5C 535.887,606.026 534.887,604.026 533,602.5C 527.856,607.313 523.023,612.48 518.5,618C 516.098,618.814 513.765,618.647 511.5,617.5C 508.811,609.37 507.645,601.036 508,592.5C 508.668,588.501 510.835,585.668 514.5,584C 518.801,584.363 523.134,584.363 527.5,584C 529.167,583 530.833,582 532.5,581C 540.864,572.97 548.864,564.637 556.5,556C 560.367,553.567 564.367,551.4 568.5,549.5C 571.038,549.493 573.538,549.159 576,548.5C 584.693,549.822 591.36,554.156 596,561.5C 598.37,570.339 599.37,579.339 599,588.5C 595.94,592.545 592.94,596.545 590,600.5C 589.329,601.252 588.496,601.586 587.5,601.5 Z"/></g>
<g><path style="opacity:0.982" fill="#191918" d="M 290.5,554.5 C 298.253,554.104 305.92,554.604 313.5,556C 315.5,557.333 317.5,558.667 319.5,560C 322.228,566.042 326.895,569.709 333.5,571C 335.378,572.543 336.878,574.376 338,576.5C 338.242,583.196 338.742,589.862 339.5,596.5C 339.461,598.587 338.461,599.921 336.5,600.5C 332.274,599.93 328.108,599.263 324,598.5C 322.5,600 321,601.5 319.5,603C 317.287,603.626 315.12,603.459 313,602.5C 306.564,605.689 301.23,604.356 297,598.5C 284.481,607.161 276.648,603.994 273.5,589C 271.944,573.778 277.611,562.278 290.5,554.5 Z"/></g>
<g><path style="opacity:1" fill="#f4f3e6" d="M 334.5,587.5 C 334.5,590.167 334.5,592.833 334.5,595.5C 333.167,595.5 331.833,595.5 330.5,595.5C 327.482,595.335 324.482,595.502 321.5,596C 320.022,598.039 318.022,598.872 315.5,598.5C 315.5,597.5 315.5,596.5 315.5,595.5C 312.326,596.015 309.326,597.015 306.5,598.5C 305.5,598.333 304.5,598.167 303.5,598C 301.441,595.366 299.275,592.866 297,590.5C 296.292,591.381 295.458,592.047 294.5,592.5C 290.404,593.285 287.07,592.118 284.5,589C 284.833,588.667 285.167,588.333 285.5,588C 283.667,587.5 282.5,586.333 282,584.5C 281.501,580.179 281.334,575.846 281.5,571.5C 281.709,570.078 282.209,568.745 283,567.5C 286.167,565 289.333,562.5 292.5,560C 298.167,559.333 303.833,559.333 309.5,560C 314.42,562.916 318.753,566.582 322.5,571C 326.232,572.461 329.732,574.294 333,576.5C 333.936,580.114 334.436,583.78 334.5,587.5 Z"/></g>
<g><path style="opacity:1" fill="#d7d6c9" d="M 281.5,571.5 C 281.334,575.846 281.501,580.179 282,584.5C 282.5,586.333 283.667,587.5 285.5,588C 285.167,588.333 284.833,588.667 284.5,589C 287.07,592.118 290.404,593.285 294.5,592.5C 293.641,595.452 291.641,597.285 288.5,598C 285.364,599.041 282.864,598.207 281,595.5C 279.409,588.608 279.076,581.608 280,574.5C 280.232,573.263 280.732,572.263 281.5,571.5 Z"/></g>
<g><path style="opacity:1" fill="#64635e" d="M 334.5,587.5 C 335.477,590.287 335.81,593.287 335.5,596.5C 333.585,596.784 331.919,596.451 330.5,595.5C 331.833,595.5 333.167,595.5 334.5,595.5C 334.5,592.833 334.5,590.167 334.5,587.5 Z"/></g>

        
<g><path style="opacity:0.992" fill="#0c0108" d="M 427.5,213.5 C 430.696,214.112 433.696,214.112 436.5,213.5C 456.851,207.882 476.518,200.382 495.5,191C 517.431,177.874 538.097,163.04 557.5,146.5C 559.749,145.92 561.415,144.587 562.5,142.5C 564.5,139.833 566.833,137.5 569.5,135.5C 572.427,134.243 574.761,132.243 576.5,129.5C 590.233,116.27 603.066,102.27 615,87.5C 624.918,71.1912 634.251,55.5245 643,40.5C 645.745,49.4667 647.578,58.6334 648.5,68C 647.312,78.9407 645.479,89.7741 643,100.5C 635.941,126.678 628.274,152.678 620,178.5C 611.784,195.598 604.117,212.931 597,230.5C 591.559,238.38 586.892,246.714 583,255.5C 579.213,260.956 575.046,266.123 570.5,271C 547.78,274.587 525.113,274.253 502.5,270C 475.47,261.573 451.97,247.407 432,227.5C 428.906,223.067 427.406,218.4 427.5,213.5 Z"/></g>
<g><path style="opacity:1" fill="#49003b" d="M 640.5,80.5 C 639.801,78.444 638.801,76.444 637.5,74.5C 638.833,73.5 638.833,72.5 637.5,71.5C 638.025,70.8076 638.692,70.3076 639.5,70C 638.669,68.1078 637.669,66.2744 636.5,64.5C 637.989,62.1949 639.489,59.8616 641,57.5C 643.061,65.3372 642.895,73.0038 640.5,80.5 Z"/></g>
<g><path style="opacity:1" fill="#5d0040" d="M 636.5,64.5 C 637.669,66.2744 638.669,68.1078 639.5,70C 638.692,70.3076 638.025,70.8076 637.5,71.5C 638.833,72.5 638.833,73.5 637.5,74.5C 638.801,76.444 639.801,78.444 640.5,80.5C 638.371,93.309 635.538,105.976 632,118.5C 625.83,140.174 618.996,161.507 611.5,182.5C 607.835,184.642 605.335,187.309 604,190.5C 603.667,190.167 603.333,189.833 603,189.5C 602.517,190.448 602.351,191.448 602.5,192.5C 598.418,195.078 594.418,197.911 590.5,201C 589.805,203.466 587.805,205.133 584.5,206C 583.663,207.011 583.33,208.178 583.5,209.5C 580.708,209.452 578.875,210.785 578,213.5C 575.849,214.588 573.682,216.422 571.5,219C 566.236,222.359 560.903,226.192 555.5,230.5C 550.562,230.466 545.896,229.299 541.5,227C 533.57,222.73 525.903,218.064 518.5,213C 510.876,207.263 507.542,199.763 508.5,190.5C 523.298,181.355 537.464,171.355 551,160.5C 554.322,165.804 557.655,171.138 561,176.5C 568.358,185.767 577.858,189.934 589.5,189C 590.833,188.333 590.833,187.667 589.5,187C 573.03,184.209 561.53,175.043 555,159.5C 554.333,158.5 554.333,157.5 555,156.5C 582.113,134.389 606.113,109.389 627,81.5C 630.179,75.8061 633.345,70.1394 636.5,64.5 Z"/></g>
<g><path style="opacity:0.991" fill="#0b0107" d="M 163.5,81.5 C 163.402,83.5529 164.069,85.2196 165.5,86.5C 167.9,93.3682 169.9,100.368 171.5,107.5C 171.402,109.553 172.069,111.22 173.5,112.5C 175.314,118.78 177.647,124.78 180.5,130.5C 182.362,134.75 184.028,139.083 185.5,143.5C 185.75,145.674 186.75,147.341 188.5,148.5C 189.338,148.842 189.672,149.508 189.5,150.5C 189.427,152.027 190.094,153.027 191.5,153.5C 191.738,155.404 192.738,156.738 194.5,157.5C 196.745,160.32 198.745,163.32 200.5,166.5C 200.738,168.404 201.738,169.738 203.5,170.5C 204.167,170.5 204.5,170.833 204.5,171.5C 204.427,173.027 205.094,174.027 206.5,174.5C 207.167,174.5 207.5,174.833 207.5,175.5C 207.427,177.027 208.094,178.027 209.5,178.5C 211.727,180.607 213.727,182.94 215.5,185.5C 216.757,188.427 218.757,190.761 221.5,192.5C 226.69,197.904 232.357,202.57 238.5,206.5C 239.802,208.822 241.802,210.155 244.5,210.5C 249.016,213.256 253.349,216.256 257.5,219.5C 257.973,220.906 258.973,221.573 260.5,221.5C 262.992,223.768 265.658,224.768 268.5,224.5C 269.833,224.833 271.167,225.167 272.5,225.5C 273.784,227.614 275.784,228.614 278.5,228.5C 279.93,228.421 281.264,228.754 282.5,229.5C 285.756,227.162 288.589,227.829 291,231.5C 292.652,235.926 292.818,240.259 291.5,244.5C 290.388,246.599 289.721,248.933 289.5,251.5C 287.841,256.827 285.174,261.493 281.5,265.5C 279.738,266.262 278.738,267.596 278.5,269.5C 278.573,271.027 277.906,272.027 276.5,272.5C 273.757,274.239 271.757,276.573 270.5,279.5C 266.878,283.308 262.878,286.641 258.5,289.5C 254.561,291.446 250.894,293.779 247.5,296.5C 244.386,298.391 241.052,299.724 237.5,300.5C 235.143,300.337 232.81,300.503 230.5,301C 229.944,301.383 229.611,301.883 229.5,302.5C 226.865,303.729 224.199,303.729 221.5,302.5C 220.289,301.28 220.289,300.113 221.5,299C 219.907,298.051 218.574,296.885 217.5,295.5C 216.415,293.413 214.749,292.08 212.5,291.5C 208.5,288.167 204.833,284.5 201.5,280.5C 200.5,278.833 199.167,277.5 197.5,276.5C 195.5,275.167 193.833,273.5 192.5,271.5C 192.573,269.973 191.906,268.973 190.5,268.5C 188.451,267.118 186.785,265.452 185.5,263.5C 184.92,261.251 183.587,259.585 181.5,258.5C 177.773,254.727 174.773,250.394 172.5,245.5C 172.771,243.62 172.104,242.287 170.5,241.5C 169.662,241.158 169.328,240.492 169.5,239.5C 169.573,237.973 168.906,236.973 167.5,236.5C 164.326,231.484 161.659,226.151 159.5,220.5C 157.07,212.533 154.07,204.866 150.5,197.5C 147.894,190.347 145.894,183.014 144.5,175.5C 143.987,171.121 143.153,166.787 142,162.5C 141.617,161.944 141.117,161.611 140.5,161.5C 140.5,161.167 140.5,160.833 140.5,160.5C 141.156,159.378 141.489,158.045 141.5,156.5C 140.93,146.006 140.264,135.673 139.5,125.5C 139.5,125.167 139.5,124.833 139.5,124.5C 140.725,123.848 141.392,122.681 141.5,121C 142.163,117.527 142.496,114.027 142.5,110.5C 144.163,108.562 144.829,106.228 144.5,103.5C 146.264,97.527 148.597,91.8603 151.5,86.5C 153.008,84.8185 154.008,82.8185 154.5,80.5C 155.906,80.0269 156.573,79.0269 156.5,77.5C 157.261,76.6091 158.261,75.9424 159.5,75.5C 161.252,77.2459 162.585,79.2459 163.5,81.5 Z"/></g>
<g><path style="opacity:0.212" fill="#3b0230" d="M 156.5,77.5 C 156.573,79.0269 155.906,80.0269 154.5,80.5C 154.427,78.9731 155.094,77.9731 156.5,77.5 Z"/></g>
<g><path style="opacity:0.016" fill="#42002f" d="M 163.5,81.5 C 164.931,82.7804 165.598,84.4471 165.5,86.5C 164.069,85.2196 163.402,83.5529 163.5,81.5 Z"/></g>
<g><path style="opacity:0.106" fill="#3a002b" d="M 154.5,80.5 C 154.008,82.8185 153.008,84.8185 151.5,86.5C 151.461,83.911 152.461,81.911 154.5,80.5 Z"/></g>
<g><path style="opacity:1" fill="#49003c" d="M 162.5,94.5 C 160.542,96.1 159.208,98.2666 158.5,101C 157.852,105.297 157.852,109.464 158.5,113.5C 157.975,114.192 157.308,114.692 156.5,115C 156.581,128.07 159.247,140.57 164.5,152.5C 164.291,153.086 163.957,153.586 163.5,154C 165.953,155.88 167.953,158.213 169.5,161C 169.167,161.333 168.833,161.667 168.5,162C 174.238,172.162 179.571,182.162 184.5,192C 184.167,192.333 183.833,192.667 183.5,193C 184.448,193.483 185.448,193.649 186.5,193.5C 186.884,197.272 188.55,200.272 191.5,202.5C 187.969,204.937 184.469,204.937 181,202.5C 180.333,203.833 180.333,205.167 181,206.5C 185.119,207.659 189.286,207.659 193.5,206.5C 195.283,212.062 198.116,217.062 202,221.5C 202.229,224.458 203.396,226.958 205.5,229C 205.167,229.333 204.833,229.667 204.5,230C 206.373,231.085 208.04,232.418 209.5,234C 209.167,234.333 208.833,234.667 208.5,235C 211.251,239.837 214.251,244.503 217.5,249C 217.167,249.333 216.833,249.667 216.5,250C 218.323,250.997 219.99,252.164 221.5,253.5C 219.067,256.687 216.067,258.353 212.5,258.5C 213,259.881 214,260.547 215.5,260.5C 218.183,259.49 220.849,258.49 223.5,257.5C 227.976,263.102 232.309,269.935 236.5,278C 236.167,278.333 235.833,278.667 235.5,279C 236.448,279.483 237.448,279.649 238.5,279.5C 238.351,280.552 238.517,281.552 239,282.5C 241.44,285.416 243.607,288.416 245.5,291.5C 241.477,293.839 237.144,295.672 232.5,297C 229.406,297.652 226.406,297.318 223.5,296C 209.603,282.772 196.436,268.939 184,254.5C 160.559,219.756 147.392,181.422 144.5,139.5C 144.103,120.755 148.27,103.089 157,86.5C 157.689,85.6433 158.522,84.9767 159.5,84.5C 161.119,87.6423 162.119,90.9756 162.5,94.5 Z"/></g>
<g><path style="opacity:1" fill="#5c0041" d="M 162.5,94.5 C 166.999,109.164 171.999,123.664 177.5,138C 176.833,140 176.167,142 175.5,144C 176.108,146.184 175.441,148.184 173.5,150C 176.775,149.743 178.941,147.91 180,144.5C 188.664,159.494 198.497,173.661 209.5,187C 207.413,190.508 205.08,193.842 202.5,197C 199.09,199.372 195.423,201.205 191.5,202.5C 188.55,200.272 186.884,197.272 186.5,193.5C 185.448,193.649 184.448,193.483 183.5,193C 183.833,192.667 184.167,192.333 184.5,192C 179.571,182.162 174.238,172.162 168.5,162C 168.833,161.667 169.167,161.333 169.5,161C 167.953,158.213 165.953,155.88 163.5,154C 163.957,153.586 164.291,153.086 164.5,152.5C 159.247,140.57 156.581,128.07 156.5,115C 157.308,114.692 157.975,114.192 158.5,113.5C 157.852,109.464 157.852,105.297 158.5,101C 159.208,98.2666 160.542,96.1 162.5,94.5 Z"/></g>
<g><path style="opacity:0.441" fill="#2a021e" d="M 144.5,103.5 C 144.829,106.228 144.163,108.562 142.5,110.5C 142.41,107.848 143.076,105.515 144.5,103.5 Z"/></g>
<g><path style="opacity:0.235" fill="#370226" d="M 171.5,107.5 C 172.931,108.78 173.598,110.447 173.5,112.5C 172.069,111.22 171.402,109.553 171.5,107.5 Z"/></g>
<g><path style="opacity:0.263" fill="#25031d" d="M 142.5,110.5 C 142.496,114.027 142.163,117.527 141.5,121C 141.392,122.681 140.725,123.848 139.5,124.5C 139.754,119.556 140.754,114.889 142.5,110.5 Z"/></g>
<g><path style="opacity:0.122" fill="#3b0030" d="M 173.5,112.5 C 176.907,117.997 179.241,123.997 180.5,130.5C 177.647,124.78 175.314,118.78 173.5,112.5 Z"/></g>
<g><path style="opacity:0.773" fill="#28091f" d="M 576.5,129.5 C 574.761,132.243 572.427,134.243 569.5,135.5C 571.239,132.757 573.573,130.757 576.5,129.5 Z"/></g>
<g><path style="opacity:0.655" fill="#27021b" d="M 139.5,125.5 C 140.264,135.673 140.93,146.006 141.5,156.5C 141.489,158.045 141.156,159.378 140.5,160.5C 139.542,148.884 139.209,137.217 139.5,125.5 Z"/></g>
<g><path style="opacity:0.169" fill="#400231" d="M 185.5,143.5 C 187.25,144.659 188.25,146.326 188.5,148.5C 186.75,147.341 185.75,145.674 185.5,143.5 Z"/></g>
<g><path style="opacity:0.82" fill="#280920" d="M 562.5,142.5 C 561.415,144.587 559.749,145.92 557.5,146.5C 558.585,144.413 560.251,143.08 562.5,142.5 Z"/></g>
<g><path style="opacity:0.314" fill="#390127" d="M 189.5,150.5 C 190.906,150.973 191.573,151.973 191.5,153.5C 190.094,153.027 189.427,152.027 189.5,150.5 Z"/></g>
<g><path style="opacity:0.329" fill="#3d0133" d="M 191.5,153.5 C 193.262,154.262 194.262,155.596 194.5,157.5C 192.738,156.738 191.738,155.404 191.5,153.5 Z"/></g>
<g><path style="opacity:0.227" fill="#350127" d="M 140.5,161.5 C 141.117,161.611 141.617,161.944 142,162.5C 143.153,166.787 143.987,171.121 144.5,175.5C 142.565,171.107 141.232,166.441 140.5,161.5 Z"/></g>
<g><path style="opacity:0.737" fill="#300527" d="M 200.5,166.5 C 202.262,167.262 203.262,168.596 203.5,170.5C 201.738,169.738 200.738,168.404 200.5,166.5 Z"/></g>
<g><path style="opacity:0.306" fill="#3f0034" d="M 204.5,171.5 C 205.906,171.973 206.573,172.973 206.5,174.5C 205.094,174.027 204.427,173.027 204.5,171.5 Z"/></g>
<g><path style="opacity:0.537" fill="#370132" d="M 207.5,175.5 C 208.906,175.973 209.573,176.973 209.5,178.5C 208.094,178.027 207.427,177.027 207.5,175.5 Z"/></g>
<g><path style="opacity:1" fill="#49003c" d="M 611.5,182.5 C 604.129,197.911 597.295,213.578 591,229.5C 585.559,237.38 580.892,245.714 577,254.5C 574.167,258 571.333,261.5 568.5,265C 548.005,269.753 527.672,269.586 507.5,264.5C 510.374,264.377 512.874,263.377 515,261.5C 515.333,261.833 515.667,262.167 516,262.5C 517.684,260.299 519.684,259.633 522,260.5C 523.667,258.833 525.333,257.167 527,255.5C 527.333,255.833 527.667,256.167 528,256.5C 534.334,248.992 541.5,241.659 549.5,234.5C 555.05,234.763 560.55,234.43 566,233.5C 566.5,233.167 567,232.833 567.5,232.5C 563.353,231.833 559.353,231.166 555.5,230.5C 560.903,226.192 566.236,222.359 571.5,219C 573.682,216.422 575.849,214.588 578,213.5C 578.875,210.785 580.708,209.452 583.5,209.5C 583.33,208.178 583.663,207.011 584.5,206C 587.805,205.133 589.805,203.466 590.5,201C 594.418,197.911 598.418,195.078 602.5,192.5C 602.351,191.448 602.517,190.448 603,189.5C 603.333,189.833 603.667,190.167 604,190.5C 605.335,187.309 607.835,184.642 611.5,182.5 Z"/></g>
<g><path style="opacity:0.498" fill="#37022a" d="M 215.5,185.5 C 218.243,187.239 220.243,189.573 221.5,192.5C 218.757,190.761 216.757,188.427 215.5,185.5 Z"/></g>
<g><path style="opacity:1" fill="#5d0040" d="M 549.5,234.5 C 541.5,241.659 534.334,248.992 528,256.5C 527.667,256.167 527.333,255.833 527,255.5C 525.333,257.167 523.667,258.833 522,260.5C 519.684,259.633 517.684,260.299 516,262.5C 515.667,262.167 515.333,261.833 515,261.5C 512.874,263.377 510.374,264.377 507.5,264.5C 493.351,261.76 480.351,256.26 468.5,248C 455.902,240.708 444.902,231.541 435.5,220.5C 455.158,215.558 474.158,208.725 492.5,200C 496.167,197.833 499.833,195.667 503.5,193.5C 504.843,201.351 508.176,208.185 513.5,214C 524.149,223.137 536.149,229.971 549.5,234.5 Z"/></g>
<g><path style="opacity:0.122" fill="#3d012f" d="M 150.5,197.5 C 154.07,204.866 157.07,212.533 159.5,220.5C 155.533,213.274 152.533,205.608 150.5,197.5 Z"/></g>
<g><path style="opacity:0.173" fill="#25011b" d="M 238.5,206.5 C 240.853,207.34 242.853,208.674 244.5,210.5C 241.802,210.155 239.802,208.822 238.5,206.5 Z"/></g>
<g><path style="opacity:0.314" fill="#340326" d="M 427.5,213.5 C 430.344,212.449 433.344,212.449 436.5,213.5C 433.696,214.112 430.696,214.112 427.5,213.5 Z"/></g>
<g><path style="opacity:0.012" fill="#400035" d="M 257.5,219.5 C 259.027,219.427 260.027,220.094 260.5,221.5C 258.973,221.573 257.973,220.906 257.5,219.5 Z"/></g>
<g><path style="opacity:0.055" fill="#360127" d="M 260.5,221.5 C 263.443,221.98 266.11,222.98 268.5,224.5C 265.658,224.768 262.992,223.768 260.5,221.5 Z"/></g>
<g><path style="opacity:1" fill="#080005" d="M 223.5,257.5 C 220.849,258.49 218.183,259.49 215.5,260.5C 214,260.547 213,259.881 212.5,258.5C 216.067,258.353 219.067,256.687 221.5,253.5C 232.351,245.148 241.684,235.315 249.5,224C 250.332,223.312 250.998,223.479 251.5,224.5C 244.277,237.382 234.944,248.382 223.5,257.5 Z"/></g>
<g><path style="opacity:1" fill="#5c0041" d="M 245.5,291.5 C 243.607,288.416 241.44,285.416 239,282.5C 238.517,281.552 238.351,280.552 238.5,279.5C 237.448,279.649 236.448,279.483 235.5,279C 235.833,278.667 236.167,278.333 236.5,278C 232.309,269.935 227.976,263.102 223.5,257.5C 234.944,248.382 244.277,237.382 251.5,224.5C 250.998,223.479 250.332,223.312 249.5,224C 241.684,235.315 232.351,245.148 221.5,253.5C 219.99,252.164 218.323,250.997 216.5,250C 216.833,249.667 217.167,249.333 217.5,249C 214.251,244.503 211.251,239.837 208.5,235C 208.833,234.667 209.167,234.333 209.5,234C 208.04,232.418 206.373,231.085 204.5,230C 204.833,229.667 205.167,229.333 205.5,229C 203.396,226.958 202.229,224.458 202,221.5C 198.116,217.062 195.283,212.062 193.5,206.5C 202.539,203.628 208.372,197.628 211,188.5C 215.8,194.302 220.967,199.802 226.5,205C 236.442,211.276 246.108,217.943 255.5,225C 265.695,228.841 275.861,232.675 286,236.5C 286.667,239.833 286.667,243.167 286,246.5C 277.927,266.405 264.427,281.405 245.5,291.5 Z"/></g>
<g><path style="opacity:0.698" fill="#26041e" d="M 272.5,225.5 C 274.75,226.13 276.75,227.13 278.5,228.5C 275.784,228.614 273.784,227.614 272.5,225.5 Z"/></g>
<g><path style="opacity:0.027" fill="#4b003c" d="M 167.5,236.5 C 168.906,236.973 169.573,237.973 169.5,239.5C 168.094,239.027 167.427,238.027 167.5,236.5 Z"/></g>
<g><path style="opacity:0.176" fill="#470035" d="M 170.5,241.5 C 172.104,242.287 172.771,243.62 172.5,245.5C 171.326,244.486 170.66,243.153 170.5,241.5 Z"/></g>
<g><path style="opacity:0.471" fill="#34022b" d="M 291.5,244.5 C 291.829,247.228 291.163,249.562 289.5,251.5C 289.721,248.933 290.388,246.599 291.5,244.5 Z"/></g>
<g><path style="opacity:0.071" fill="#37022a" d="M 181.5,258.5 C 183.587,259.585 184.92,261.251 185.5,263.5C 183.413,262.415 182.08,260.749 181.5,258.5 Z"/></g>
<g><path style="opacity:0.063" fill="#3f012f" d="M 281.5,265.5 C 281.262,267.404 280.262,268.738 278.5,269.5C 278.738,267.596 279.738,266.262 281.5,265.5 Z"/></g>
<g><path style="opacity:0.027" fill="#390228" d="M 190.5,268.5 C 191.906,268.973 192.573,269.973 192.5,271.5C 191.094,271.027 190.427,270.027 190.5,268.5 Z"/></g>
<g><path style="opacity:0.004" fill="#4b0039" d="M 197.5,276.5 C 199.167,277.5 200.5,278.833 201.5,280.5C 199.167,280.167 197.833,278.833 197.5,276.5 Z"/></g>
<g><path style="opacity:0.055" fill="#27031d" d="M 276.5,272.5 C 275.243,275.427 273.243,277.761 270.5,279.5C 271.757,276.573 273.757,274.239 276.5,272.5 Z"/></g>
<g><path style="opacity:0.078" fill="#340328" d="M 258.5,289.5 C 255.642,293.01 251.976,295.343 247.5,296.5C 250.894,293.779 254.561,291.446 258.5,289.5 Z"/></g>
<g><path style="opacity:0.322" fill="#3b012b" d="M 212.5,291.5 C 214.749,292.08 216.415,293.413 217.5,295.5C 215.251,294.92 213.585,293.587 212.5,291.5 Z"/></g>
<g><path style="opacity:0.761" fill="#27051e" d="M 237.5,300.5 C 235.039,301.531 232.373,302.198 229.5,302.5C 229.611,301.883 229.944,301.383 230.5,301C 232.81,300.503 235.143,300.337 237.5,300.5 Z"/></g>

        
<g><path style="opacity:0.998" fill="#1e1817" d="M 567.5,264.5 C 567.427,266.027 568.094,267.027 569.5,267.5C 570.833,268.167 571.833,269.167 572.5,270.5C 572.427,272.027 573.094,273.027 574.5,273.5C 576.786,276.463 578.619,279.796 580,283.5C 581.333,288.167 582.667,292.833 584,297.5C 600.968,293.905 616.801,296.738 631.5,306C 657.957,323.456 680.123,345.29 698,371.5C 700.529,375.926 702.362,380.592 703.5,385.5C 703.41,388.152 704.076,390.485 705.5,392.5C 706.37,394.032 706.036,395.532 704.5,397C 701.814,398.368 699.147,399.701 696.5,401C 687.337,403.06 678.337,403.893 669.5,403.5C 671.81,407.254 673.643,411.254 675,415.5C 676.619,423.927 678.619,432.26 681,440.5C 682.454,454.02 679.787,466.687 673,478.5C 663.749,491.086 652.582,501.586 639.5,510C 630.893,513.302 622.893,517.635 615.5,523C 597.029,529.157 579.029,536.491 561.5,545C 545.683,550.606 529.683,555.606 513.5,560C 521.167,567 528.833,574 536.5,581C 541.889,585.389 547.556,589.389 553.5,593C 559.667,598.5 565.833,604 572,609.5C 578.423,618.674 584.09,628.34 589,638.5C 598.788,663.109 604.621,688.609 606.5,715C 605.825,731.869 601.492,747.703 593.5,762.5C 592.711,762.783 592.044,763.283 591.5,764C 593.134,764.494 594.801,764.66 596.5,764.5C 603.201,764.682 609.201,766.849 614.5,771C 619.719,777.218 624.552,783.718 629,790.5C 633.064,794.786 637.897,797.952 643.5,800C 646.319,802.72 645.986,805.053 642.5,807C 635.644,812.007 627.978,814.507 619.5,814.5C 615.167,814.5 610.833,814.5 606.5,814.5C 606.263,815.791 606.596,816.791 607.5,817.5C 609.143,819.708 608.81,821.541 606.5,823C 599.093,824.492 591.593,825.325 584,825.5C 570.833,824.357 557.666,823.19 544.5,822C 528.753,817.882 515.253,810.049 504,798.5C 495.911,789.336 489.577,779.003 485,767.5C 473.056,772.575 460.556,774.908 447.5,774.5C 441.513,773.858 435.513,773.358 429.5,773C 427,772.625 424.667,771.792 422.5,770.5C 418.78,774.733 415.613,779.4 413,784.5C 396.732,800.487 377.065,808.487 354,808.5C 349.103,808.068 344.269,807.234 339.5,806C 337.709,805.585 336.376,804.585 335.5,803C 338.138,800.346 341.138,798.18 344.5,796.5C 345.973,795.928 347.307,795.095 348.5,794C 346.609,793.797 344.943,794.297 343.5,795.5C 334.515,796.911 325.515,796.744 316.5,795C 304.562,791.925 299.562,784.425 301.5,772.5C 312.272,769.781 321.939,764.947 330.5,758C 319.87,750.041 313.37,739.541 311,726.5C 307.602,710.123 307.769,693.789 311.5,677.5C 312.793,675.636 312.793,673.636 311.5,671.5C 310.893,671.624 310.56,671.957 310.5,672.5C 309.013,673.804 307.346,674.97 305.5,676C 298.059,677.01 291.059,675.843 284.5,672.5C 275.52,664.574 271.187,654.574 271.5,642.5C 272.908,618.525 282.242,598.358 299.5,582C 310.392,573.408 322.392,571.241 335.5,575.5C 336.947,576.885 337.947,576.552 338.5,574.5C 338.433,573.041 338.766,571.708 339.5,570.5C 340.757,569.377 340.424,568.711 338.5,568.5C 326.038,567.642 313.704,565.808 301.5,563C 279.858,557.675 258.525,551.341 237.5,544C 217.724,535.619 199.39,524.952 182.5,512C 179.629,509.297 176.962,506.464 174.5,503.5C 174.027,502.094 173.027,501.427 171.5,501.5C 155.808,488.291 146.475,471.458 143.5,451C 144.485,443.505 144.985,436.005 145,428.5C 139.772,431.396 134.272,432.062 128.5,430.5C 127.063,426.472 126.397,422.305 126.5,418C 128.512,388.142 139.012,361.642 158,338.5C 167.466,327.852 178.966,320.352 192.5,316C 198.537,315.303 204.537,315.47 210.5,316.5C 212.5,305.171 217.167,295.171 224.5,286.5C 225.906,286.027 226.573,285.027 226.5,283.5C 228.616,277.549 231.783,272.215 236,267.5C 246.355,255.578 258.188,245.412 271.5,237C 347.364,211.021 424.364,207.021 502.5,225C 512.956,228.227 522.956,232.56 532.5,238C 541.167,244.671 550.501,250.338 560.5,255C 562.476,258.463 564.81,261.63 567.5,264.5 Z"/></g>
<g><path style="opacity:1" fill="#bf4929" d="M 689.5,370.5 C 691.143,387.025 683.81,394.191 667.5,392C 659.85,390.226 652.517,387.893 645.5,385C 647.911,386.955 650.411,388.789 653,390.5C 653.6,392.91 654.766,394.91 656.5,396.5C 658.725,400.235 661.558,403.568 665,406.5C 667.332,409.822 668.498,413.489 668.5,417.5C 664.857,445.287 652.857,468.787 632.5,488C 612.937,503.194 591.603,515.527 568.5,525C 543.245,532.311 518.245,539.977 493.5,548C 469.713,552.803 445.713,555.97 421.5,557.5C 399.511,556.721 377.511,556.221 355.5,556C 300.326,547.075 248.326,529.075 199.5,502C 188.352,493.999 177.852,485.166 168,475.5C 163.667,469.833 159.333,464.167 155,458.5C 152.079,451.45 150.912,444.117 151.5,436.5C 153.967,428.619 154.967,420.619 154.5,412.5C 153.817,412.863 153.15,413.196 152.5,413.5C 148.453,418.44 143.286,421.44 137,422.5C 134.013,422.01 132.18,420.343 131.5,417.5C 133.163,407.851 134.663,398.185 136,388.5C 141,378.167 146,367.833 151,357.5C 160.956,339.874 175.456,327.707 194.5,321C 201.21,320.952 207.877,320.786 214.5,320.5C 215.486,315.039 216.986,309.705 219,304.5C 225.064,295.43 230.731,286.097 236,276.5C 248.038,261.454 262.205,248.954 278.5,239C 321.88,226.104 366.213,219.27 411.5,218.5C 429.662,220.888 447.996,222.721 466.5,224C 488.815,226.061 509.815,232.394 529.5,243C 538.665,249.084 547.998,254.917 557.5,260.5C 569.837,272.665 577.337,287.332 580,304.5C 582.319,310.473 585.653,315.807 590,320.5C 590.167,320 590.333,319.5 590.5,319C 588.062,313.631 586.062,308.131 584.5,302.5C 599.892,299.165 614.225,301.665 627.5,310C 633.833,314.333 640.167,318.667 646.5,323C 656.03,332.864 665.863,342.364 676,351.5C 681.01,357.54 685.51,363.874 689.5,370.5 Z"/></g>
<g><path style="opacity:0.725" fill="#7b7b7f" d="M 567.5,264.5 C 568.906,264.973 569.573,265.973 569.5,267.5C 568.094,267.027 567.427,266.027 567.5,264.5 Z"/></g>
<g><path style="opacity:0.545" fill="#7b7c80" d="M 572.5,270.5 C 573.906,270.973 574.573,271.973 574.5,273.5C 573.094,273.027 572.427,272.027 572.5,270.5 Z"/></g>
<g><path style="opacity:0.486" fill="#7c7c81" d="M 226.5,283.5 C 226.573,285.027 225.906,286.027 224.5,286.5C 224.427,284.973 225.094,283.973 226.5,283.5 Z"/></g>
<g><path style="opacity:1" fill="#120d0c" d="M 618.5,337.5 C 624.632,343.789 631.299,349.623 638.5,355C 649.79,362.609 661.79,368.943 674.5,374C 677.242,375.886 678.909,378.386 679.5,381.5C 675.869,381.84 672.536,381.006 669.5,379C 657.665,371.917 645.998,364.583 634.5,357C 629.097,352.719 624.263,347.886 620,342.5C 618.991,340.975 618.491,339.308 618.5,337.5 Z"/></g>
<g><path style="opacity:1" fill="#914423" d="M 689.5,370.5 C 695.642,377.437 698.976,385.437 699.5,394.5C 689.842,398.206 679.842,399.373 669.5,398C 665.09,396.449 660.757,394.949 656.5,393.5C 656.5,394.5 656.5,395.5 656.5,396.5C 654.766,394.91 653.6,392.91 653,390.5C 650.411,388.789 647.911,386.955 645.5,385C 652.517,387.893 659.85,390.226 667.5,392C 683.81,394.191 691.143,387.025 689.5,370.5 Z"/></g>
<g><path style="opacity:1" fill="#100a09" d="M 147.5,382.5 C 148.993,383.312 149.66,384.645 149.5,386.5C 148.225,393.816 147.058,401.15 146,408.5C 144.374,411.128 142.374,413.461 140,415.5C 141.168,404.157 143.668,393.157 147.5,382.5 Z"/></g>
<g><path style="opacity:0.686" fill="#626367" d="M 703.5,385.5 C 704.924,387.515 705.59,389.848 705.5,392.5C 704.076,390.485 703.41,388.152 703.5,385.5 Z"/></g>
<g><path style="opacity:1" fill="#904423" d="M 152.5,413.5 C 151.147,417.032 149.147,420.199 146.5,423C 142.539,424.598 138.539,426.098 134.5,427.5C 132.024,424.717 131.024,421.384 131.5,417.5C 132.18,420.343 134.013,422.01 137,422.5C 143.286,421.44 148.453,418.44 152.5,413.5 Z"/></g>
<g><path style="opacity:1" fill="#914422" d="M 668.5,417.5 C 669.586,417.62 670.253,418.287 670.5,419.5C 672.505,428.85 674.505,438.183 676.5,447.5C 675.399,460.687 670.732,472.354 662.5,482.5C 657.167,487.167 652.167,492.167 647.5,497.5C 636.091,503.71 624.757,510.21 613.5,517C 606.363,518.934 599.363,521.268 592.5,524C 536.568,551.456 477.401,565.956 415,567.5C 386.535,565.415 358.035,563.915 329.5,563C 288.931,556.527 250.265,544.193 213.5,526C 189.858,513.027 170.692,495.194 156,472.5C 149.589,460.938 148.089,448.938 151.5,436.5C 150.912,444.117 152.079,451.45 155,458.5C 159.333,464.167 163.667,469.833 168,475.5C 177.852,485.166 188.352,493.999 199.5,502C 248.326,529.075 300.326,547.075 355.5,556C 377.511,556.221 399.511,556.721 421.5,557.5C 445.713,555.97 469.713,552.803 493.5,548C 518.245,539.977 543.245,532.311 568.5,525C 591.603,515.527 612.937,503.194 632.5,488C 652.857,468.787 664.857,445.287 668.5,417.5 Z"/></g>
<g><path style="opacity:1" fill="#361a0d" d="M 662.5,482.5 C 658.5,488.5 653.5,493.5 647.5,497.5C 652.167,492.167 657.167,487.167 662.5,482.5 Z"/></g>
<g><path style="opacity:0.718" fill="#7d7d82" d="M 171.5,501.5 C 173.027,501.427 174.027,502.094 174.5,503.5C 172.973,503.573 171.973,502.906 171.5,501.5 Z"/></g>
<g><path style="opacity:1" fill="#904422" d="M 478.5,664.5 C 479.166,667.689 479.833,671.023 480.5,674.5C 491.766,680.708 502.099,679.541 511.5,671C 512.5,670.333 513.5,670.333 514.5,671C 512.476,676.438 510.142,681.772 507.5,687C 510.8,688.879 514.134,688.879 517.5,687C 534.375,674.082 542.875,656.915 543,635.5C 540.721,625.964 535.554,618.464 527.5,613C 517.543,605.023 506.21,600.356 493.5,599C 483.452,595.672 478.452,599.172 478.5,609.5C 479.237,614.315 480.57,618.982 482.5,623.5C 479.479,625.423 476.146,626.423 472.5,626.5C 472.923,625.735 473.257,624.902 473.5,624C 469.779,615.709 469.779,607.543 473.5,599.5C 473.167,598.5 472.5,597.833 471.5,597.5C 469.364,598.472 468.197,600.139 468,602.5C 467.081,608.966 467.581,615.299 469.5,621.5C 459.016,625.31 450.516,631.643 444,640.5C 430.726,618.269 417.226,596.269 403.5,574.5C 414.63,572.841 425.963,571.841 437.5,571.5C 461.059,569.586 484.392,566.42 507.5,562C 515.432,567.928 522.765,574.595 529.5,582C 535,586.167 540.5,590.333 546,594.5C 546.333,596.047 545.833,597.38 544.5,598.5C 548.847,601.371 552.014,605.371 554,610.5C 567.091,647.562 556.924,676.395 523.5,697C 501.368,707.015 486.535,700.515 479,677.5C 478.501,673.179 478.334,668.846 478.5,664.5 Z"/></g>
<g><path style="opacity:0.118" fill="#c1c1c8" d="M 338.5,568.5 C 340.424,568.711 340.757,569.377 339.5,570.5C 339.167,569.833 338.833,569.167 338.5,568.5 Z"/></g>
<g><path style="opacity:1" fill="#bf4929" d="M 342.5,618.5 C 341.534,620.792 340.867,623.292 340.5,626C 342.271,635.937 343.604,645.937 344.5,656C 344.554,658.873 343.888,661.54 342.5,664C 336.849,663.188 331.516,661.188 326.5,658C 319.953,652.954 314.286,647.12 309.5,640.5C 307.682,644.136 305.849,647.802 304,651.5C 301.757,653.282 299.257,653.782 296.5,653C 286.625,647.741 283.125,639.575 286,628.5C 287.608,614.006 293.275,601.339 303,590.5C 307.998,584.965 313.498,580.298 319.5,576.5C 326.045,576.302 332.045,577.969 337.5,581.5C 337.712,583.384 338.712,584.717 340.5,585.5C 341.487,582.232 341.82,578.898 341.5,575.5C 342.216,573.444 342.883,571.277 343.5,569C 347.601,568.516 351.601,569.016 355.5,570.5C 349.146,585.93 344.812,601.93 342.5,618.5 Z"/></g>
<g><path style="opacity:1" fill="#b88a7d" d="M 360.5,674.5 C 365.636,683.259 371.636,691.426 378.5,699C 384.877,703.189 391.544,706.855 398.5,710C 417.397,716.636 424.897,710.136 421,690.5C 413.216,671.683 409.383,652.016 409.5,631.5C 398.985,626.788 387.985,624.121 376.5,623.5C 367.747,622.705 360.081,625.039 353.5,630.5C 351.158,627.493 348.825,624.493 346.5,621.5C 349.487,606.708 352.987,592.041 357,577.5C 357.93,575.064 359.097,572.731 360.5,570.5C 364.795,569.339 369.129,569.172 373.5,570C 381.953,570.635 390.287,571.801 398.5,573.5C 412.833,597.5 427.167,621.5 441.5,645.5C 436.166,659.522 436.333,673.522 442,687.5C 449.259,695.897 458.426,699.063 469.5,697C 472.798,696.513 475.798,695.347 478.5,693.5C 480.786,693.96 482.119,695.293 482.5,697.5C 479.307,719.149 479.973,740.649 484.5,762C 484.167,762.5 483.833,763 483.5,763.5C 454.121,772.925 425.787,770.425 398.5,756C 385.188,748.027 373.021,738.527 362,727.5C 358.333,721.833 354.667,716.167 351,710.5C 348.591,702.618 346.757,694.618 345.5,686.5C 351.447,683.692 356.447,679.692 360.5,674.5 Z"/></g>
<g><path style="opacity:1" fill="#351a0d" d="M 437.5,571.5 C 425.963,571.841 414.63,572.841 403.5,574.5C 402.596,573.791 402.263,572.791 402.5,571.5C 414.167,571.5 425.833,571.5 437.5,571.5 Z"/></g>
<g><path style="opacity:0.553" fill="#8c8d91" d="M 338.5,574.5 C 337.947,576.552 336.947,576.885 335.5,575.5C 336.609,575.443 337.609,575.11 338.5,574.5 Z"/></g>
<g><path style="opacity:1" fill="#6b3022" d="M 341.5,575.5 C 341.82,578.898 341.487,582.232 340.5,585.5C 338.712,584.717 337.712,583.384 337.5,581.5C 338.458,581.953 339.292,582.619 340,583.5C 340.183,580.635 340.683,577.969 341.5,575.5 Z"/></g>
<g><path style="opacity:1" fill="#904422" d="M 319.5,576.5 C 313.498,580.298 307.998,584.965 303,590.5C 293.275,601.339 287.608,614.006 286,628.5C 283.125,639.575 286.625,647.741 296.5,653C 299.257,653.782 301.757,653.282 304,651.5C 305.849,647.802 307.682,644.136 309.5,640.5C 314.286,647.12 319.953,652.954 326.5,658C 331.516,661.188 336.849,663.188 342.5,664C 343.888,661.54 344.554,658.873 344.5,656C 343.604,645.937 342.271,635.937 340.5,626C 340.867,623.292 341.534,620.792 342.5,618.5C 342.656,621.066 342.322,623.566 341.5,626C 354.654,638.43 359.821,653.597 357,671.5C 343.497,686.123 329.83,686.123 316,671.5C 316.27,667.131 316.104,662.798 315.5,658.5C 312.756,662.751 309.422,666.585 305.5,670C 299.786,671.57 294.12,671.237 288.5,669C 278.166,659.382 274.332,647.548 277,633.5C 280.837,610.292 292.337,592.125 311.5,579C 313.909,577.293 316.575,576.46 319.5,576.5 Z"/></g>
<g><path style="opacity:1" fill="#bf4929" d="M 478.5,664.5 C 477.698,663.115 477.031,663.282 476.5,665C 475.852,666.44 475.519,667.94 475.5,669.5C 474.09,678.893 468.423,683.893 458.5,684.5C 456.423,684.308 454.423,683.808 452.5,683C 448.306,679.402 444.972,675.235 442.5,670.5C 440.358,647.343 450.358,632.676 472.5,626.5C 476.146,626.423 479.479,625.423 482.5,623.5C 480.57,618.982 479.237,614.315 478.5,609.5C 478.452,599.172 483.452,595.672 493.5,599C 506.21,600.356 517.543,605.023 527.5,613C 535.554,618.464 540.721,625.964 543,635.5C 542.875,656.915 534.375,674.082 517.5,687C 514.134,688.879 510.8,688.879 507.5,687C 510.142,681.772 512.476,676.438 514.5,671C 513.5,670.333 512.5,670.333 511.5,671C 502.099,679.541 491.766,680.708 480.5,674.5C 479.833,671.023 479.166,667.689 478.5,664.5 Z"/></g>
<g><path style="opacity:1" fill="#bf4829" d="M 598.5,692.5 C 599.489,721.099 590.489,745.932 571.5,767C 560.734,776.049 548.4,781.882 534.5,784.5C 518.048,781.551 507.882,771.884 504,755.5C 503.528,748.944 502.695,742.444 501.5,736C 501.833,734.167 502.167,732.333 502.5,730.5C 514.579,739.962 527.245,740.796 540.5,733C 549.488,725.157 556.654,715.99 562,705.5C 563.632,700.97 564.632,696.304 565,691.5C 565.532,679.978 566.366,668.478 567.5,657C 567.295,651.63 566.628,646.463 565.5,641.5C 564.818,628.074 561.485,615.407 555.5,603.5C 556.002,602.479 556.668,602.312 557.5,603C 564.067,608.57 569.567,615.07 574,622.5C 585.833,644.496 593.999,667.829 598.5,692.5 Z"/></g>
<g><path style="opacity:1" fill="#d9ab97" d="M 360.5,674.5 C 363.081,665.176 362.914,655.842 360,646.5C 358.097,641.032 355.93,635.699 353.5,630.5C 360.081,625.039 367.747,622.705 376.5,623.5C 387.985,624.121 398.985,626.788 409.5,631.5C 409.383,652.016 413.216,671.683 421,690.5C 424.897,710.136 417.397,716.636 398.5,710C 391.544,706.855 384.877,703.189 378.5,699C 371.636,691.426 365.636,683.259 360.5,674.5 Z"/></g>
<g><path style="opacity:1" fill="#904422" d="M 565.5,641.5 C 566.628,646.463 567.295,651.63 567.5,657C 566.366,668.478 565.532,679.978 565,691.5C 564.632,696.304 563.632,700.97 562,705.5C 556.654,715.99 549.488,725.157 540.5,733C 527.245,740.796 514.579,739.962 502.5,730.5C 502.167,732.333 501.833,734.167 501.5,736C 502.695,742.444 503.528,748.944 504,755.5C 507.882,771.884 518.048,781.551 534.5,784.5C 548.4,781.882 560.734,776.049 571.5,767C 590.489,745.932 599.489,721.099 598.5,692.5C 602.271,711.126 600.771,729.459 594,747.5C 590.779,753.174 587.945,759.008 585.5,765C 585.755,766.326 586.422,767.326 587.5,768C 598.616,767.367 607.783,771.2 615,779.5C 618.98,786.624 623.814,793.124 629.5,799C 632.371,800.935 635.371,802.601 638.5,804C 627.231,809.772 615.231,812.105 602.5,811C 601.427,814.112 601.427,817.279 602.5,820.5C 584.783,820.736 567.116,819.903 549.5,818C 516.675,809.175 495.842,788.342 487,755.5C 483.667,736.832 483.667,718.165 487,699.5C 491.655,704.166 497.322,706.499 504,706.5C 532.966,702.548 551.966,686.548 561,658.5C 562.072,652.609 563.572,646.942 565.5,641.5 Z"/></g>
<g><path style="opacity:0.18" fill="#9b9ca1" d="M 310.5,672.5 C 310.56,671.957 310.893,671.624 311.5,671.5C 312.793,673.636 312.793,675.636 311.5,677.5C 311.784,675.585 311.451,673.919 310.5,672.5 Z"/></g>
<g><path style="opacity:1" fill="#904422" d="M 475.5,669.5 C 475.399,675.951 475.899,682.284 477,688.5C 472.998,691.925 468.332,693.258 463,692.5C 453.344,693.516 447.01,689.516 444,680.5C 442.957,677.243 442.457,673.91 442.5,670.5C 444.972,675.235 448.306,679.402 452.5,683C 454.423,683.808 456.423,684.308 458.5,684.5C 468.423,683.893 474.09,678.893 475.5,669.5 Z"/></g>
<g><path style="opacity:1" fill="#904322" d="M 352.5,720.5 C 351.542,720.047 350.708,719.381 350,718.5C 349,720.5 348,722.5 347,724.5C 338.32,720.657 330.654,715.324 324,708.5C 322.417,720.502 325.084,731.502 332,741.5C 338.772,748.117 345.939,754.117 353.5,759.5C 344.653,759.441 336.986,756.441 330.5,750.5C 327.146,746.981 323.98,743.314 321,739.5C 312.829,719.599 311.496,699.266 317,678.5C 323.898,685.032 332.065,687.698 341.5,686.5C 342.041,694.666 343.541,702.666 346,710.5C 348.143,713.962 350.31,717.296 352.5,720.5 Z"/></g>
<g><path style="opacity:1" fill="#bf4928" d="M 352.5,720.5 C 354.255,723.68 356.255,726.68 358.5,729.5C 361.5,734.5 365.5,738.5 370.5,741.5C 372.806,743.139 374.806,745.139 376.5,747.5C 379.123,754.311 382.457,760.811 386.5,767C 376.659,767.776 367.326,765.943 358.5,761.5C 356.95,760.559 355.284,759.893 353.5,759.5C 345.939,754.117 338.772,748.117 332,741.5C 325.084,731.502 322.417,720.502 324,708.5C 330.654,715.324 338.32,720.657 347,724.5C 348,722.5 349,720.5 350,718.5C 350.708,719.381 351.542,720.047 352.5,720.5 Z"/></g>
<g><path style="opacity:1" fill="#592518" d="M 358.5,729.5 C 362.833,733.167 366.833,737.167 370.5,741.5C 365.5,738.5 361.5,734.5 358.5,729.5 Z"/></g>
<g><path style="opacity:1" fill="#904422" d="M 376.5,747.5 C 386.001,753.478 395.667,759.311 405.5,765C 408.56,765.848 411.56,766.848 414.5,768C 415.554,769.388 415.72,770.888 415,772.5C 403.245,790.64 386.411,800.474 364.5,802C 357.816,803.87 351.15,803.87 344.5,802C 353.524,795.983 360.691,788.483 366,779.5C 365.439,778.978 364.772,778.645 364,778.5C 361.062,779.283 358.896,780.95 357.5,783.5C 358.547,780.404 359.88,777.404 361.5,774.5C 351.037,772.068 340.87,768.735 331,764.5C 329.862,764.989 328.695,765.322 327.5,765.5C 330.385,763.969 333.052,761.969 335.5,759.5C 342.062,762.14 348.729,764.474 355.5,766.5C 356.442,766.392 357.275,766.059 358,765.5C 357.645,764.041 357.811,762.707 358.5,761.5C 367.326,765.943 376.659,767.776 386.5,767C 382.457,760.811 379.123,754.311 376.5,747.5 Z"/></g>
<g><path style="opacity:0.039" fill="#cfd0d7" d="M 593.5,762.5 C 594.5,763.167 595.5,763.833 596.5,764.5C 594.801,764.66 593.134,764.494 591.5,764C 592.044,763.283 592.711,762.783 593.5,762.5 Z"/></g>
<g><path style="opacity:1" fill="#bf4929" d="M 357.5,783.5 C 353.849,784.659 350.515,786.326 347.5,788.5C 335.721,791.431 324.054,791.097 312.5,787.5C 310.873,785.37 309.04,783.37 307,781.5C 306.506,779.866 306.34,778.199 306.5,776.5C 308.553,776.598 310.22,775.931 311.5,774.5C 317.489,772.509 322.823,769.509 327.5,765.5C 328.695,765.322 329.862,764.989 331,764.5C 340.87,768.735 351.037,772.068 361.5,774.5C 359.88,777.404 358.547,780.404 357.5,783.5 Z"/></g>
<g><path style="opacity:1" fill="#6c2f1f" d="M 311.5,774.5 C 310.22,775.931 308.553,776.598 306.5,776.5C 306.34,778.199 306.506,779.866 307,781.5C 309.04,783.37 310.873,785.37 312.5,787.5C 306.834,785.49 304.5,781.49 305.5,775.5C 307.5,775.167 309.5,774.833 311.5,774.5 Z"/></g>
<g><path style="opacity:1" fill="#be4928" d="M 578.5,780.5 C 592.956,778.595 605.122,782.928 615,793.5C 615.688,794.332 615.521,794.998 614.5,795.5C 607.334,800.602 599.334,802.935 590.5,802.5C 590.692,805.601 591.358,808.601 592.5,811.5C 587.462,812.33 582.795,811.164 578.5,808C 572.243,803.287 566.076,798.454 560,793.5C 558.148,790.653 558.648,788.153 561.5,786C 567.137,783.682 572.803,781.849 578.5,780.5 Z"/></g>
<g><path style="opacity:1" fill="#542215" d="M 357.5,783.5 C 354.753,786.207 351.42,787.873 347.5,788.5C 350.515,786.326 353.849,784.659 357.5,783.5 Z"/></g>
<g><path style="opacity:0.165" fill="#a9aab0" d="M 344.5,796.5 C 344.5,795.833 344.167,795.5 343.5,795.5C 344.943,794.297 346.609,793.797 348.5,794C 347.307,795.095 345.973,795.928 344.5,796.5 Z"/></g>
<g><path style="opacity:0.282" fill="#a8a9af" d="M 619.5,814.5 C 615.232,814.869 611.232,815.869 607.5,817.5C 606.596,816.791 606.263,815.791 606.5,814.5C 610.833,814.5 615.167,814.5 619.5,814.5 Z"/></g>

        
<g><path style="opacity:0.967" fill="#060605" d="M 527.5,255.5 C 527.821,257.048 528.821,257.715 530.5,257.5C 530.973,258.906 531.973,259.573 533.5,259.5C 534.167,259.5 534.5,259.833 534.5,260.5C 535.5,262.167 536.833,263.5 538.5,264.5C 539.401,265.29 540.068,266.29 540.5,267.5C 540.833,268.167 541.167,268.833 541.5,269.5C 541.5,270.167 541.833,270.5 542.5,270.5C 542.833,271.5 543.5,272.167 544.5,272.5C 548.966,279.767 552.633,287.433 555.5,295.5C 555.328,296.492 555.662,297.158 556.5,297.5C 557.234,298.708 557.567,300.041 557.5,301.5C 557.088,303.973 558.088,305.306 560.5,305.5C 561.167,305.5 561.5,305.833 561.5,306.5C 565.572,310.565 569.238,314.898 572.5,319.5C 572.427,321.027 573.094,322.027 574.5,322.5C 574.932,323.71 575.599,324.71 576.5,325.5C 577.167,325.5 577.5,325.833 577.5,326.5C 576.167,326.833 576.167,327.167 577.5,327.5C 577.394,330.079 578.061,332.412 579.5,334.5C 578.833,334.5 578.5,334.833 578.5,335.5C 578.5,336.167 578.5,336.833 578.5,337.5C 578.5,338.167 578.833,338.5 579.5,338.5C 579.5,341.5 579.5,344.5 579.5,347.5C 578.766,348.708 578.433,350.041 578.5,351.5C 578.414,352.496 578.748,353.329 579.5,354C 578.244,354.417 577.577,355.25 577.5,356.5C 576.662,356.842 576.328,357.508 576.5,358.5C 573.924,366.149 569.924,372.983 564.5,379C 559.5,379.333 554.5,379.667 549.5,380C 533.92,383.86 518.586,388.527 503.5,394C 488.559,401.719 473.726,409.553 459,417.5C 454.438,416.568 449.938,415.401 445.5,414C 439.386,408.555 432.72,403.888 425.5,400C 419.038,393.533 413.705,386.367 409.5,378.5C 409.539,377.244 409.039,376.244 408,375.5C 407.503,377.81 407.337,380.143 407.5,382.5C 406.302,387.228 404.302,391.561 401.5,395.5C 400.833,396.167 400.167,396.833 399.5,397.5C 399.167,396.167 398.833,396.167 398.5,397.5C 394.267,400.54 389.267,401.04 383.5,399C 377.399,396.908 372.399,393.241 368.5,388C 366.167,387.333 363.833,387.333 361.5,388C 354.912,398.527 345.912,401.194 334.5,396C 331.894,394.062 330.061,391.562 329,388.5C 326.764,380.317 325.43,371.984 325,363.5C 323.383,361.237 321.55,359.237 319.5,357.5C 319.44,356.957 319.107,356.624 318.5,356.5C 317.504,362.463 317.171,368.463 317.5,374.5C 316.534,385.066 313.201,394.733 307.5,403.5C 306.833,403.5 306.5,403.833 306.5,404.5C 305.833,404.5 305.5,404.833 305.5,405.5C 304.5,405.833 303.833,406.5 303.5,407.5C 300.267,411.779 296.267,415.112 291.5,417.5C 280.875,413.19 271.208,407.357 262.5,400C 244.46,389.359 225.127,385.859 204.5,389.5C 195.728,365.623 199.061,343.456 214.5,323C 214.126,312.745 216.293,302.911 221,293.5C 224.444,287.724 228.277,282.224 232.5,277C 238.566,272.605 244.9,268.605 251.5,265C 257.114,263.575 262.614,263.075 268,263.5C 268.317,265.301 268.984,265.634 270,264.5C 272.099,265.131 273.932,266.131 275.5,267.5C 276.795,268.488 278.128,269.488 279.5,270.5C 280.795,271.488 282.128,272.488 283.5,273.5C 284.833,275.5 286.5,277.167 288.5,278.5C 289.222,279.551 290.222,280.218 291.5,280.5C 291.738,282.404 292.738,283.738 294.5,284.5C 295.833,285.833 297.167,287.167 298.5,288.5C 298.833,289.5 299.5,290.167 300.5,290.5C 301.167,291.5 301.833,292.5 302.5,293.5C 303.512,294.872 304.512,296.205 305.5,297.5C 305.833,298.5 306.5,299.167 307.5,299.5C 308.058,300.79 309.058,301.623 310.5,302C 309.944,302.383 309.611,302.883 309.5,303.5C 309.427,305.027 310.094,306.027 311.5,306.5C 312.757,311.229 314.757,315.562 317.5,319.5C 317.932,320.71 318.599,321.71 319.5,322.5C 320.167,322.5 320.5,322.833 320.5,323.5C 319.957,323.56 319.624,323.893 319.5,324.5C 320.238,326.065 321.238,327.732 322.5,329.5C 321.167,330.167 321.167,330.833 322.5,331.5C 323.09,332.766 323.59,334.099 324,335.5C 325.666,334.66 325.833,335.16 324.5,337C 325.704,340.716 326.538,344.55 327,348.5C 327.992,351.323 329.825,353.323 332.5,354.5C 333.209,355.404 334.209,355.737 335.5,355.5C 351.438,363.985 369.105,365.485 388.5,360C 392.448,357.213 396.114,354.213 399.5,351C 398.695,347.197 398.028,343.364 397.5,339.5C 397.956,327.421 399.122,315.421 401,303.5C 405.684,293.458 411.851,284.458 419.5,276.5C 431.26,267.248 443.927,259.415 457.5,253C 478.032,245.674 498.699,245.008 519.5,251C 522.391,252.274 525.058,253.774 527.5,255.5 Z"/></g>
<g><path style="opacity:1" fill="#1b1b1b" d="M 493.5,250.5 C 513.919,251.621 529.752,260.621 541,277.5C 546.447,286.561 550.947,296.061 554.5,306C 529.002,307.141 503.669,309.807 478.5,314C 450.146,320.158 424.813,332.324 402.5,350.5C 401.34,348.854 400.673,347.021 400.5,345C 401.268,335.523 401.768,326.023 402,316.5C 402.793,311.789 403.793,307.122 405,302.5C 409.743,295.358 414.743,288.358 420,281.5C 440.771,262.194 465.271,251.861 493.5,250.5 Z"/></g>
<g><path style="opacity:0.753" fill="#7a7973" d="M 527.5,255.5 C 528.71,255.932 529.71,256.599 530.5,257.5C 528.821,257.715 527.821,257.048 527.5,255.5 Z"/></g>
<g><path style="opacity:0.004" fill="#d4d3c8" d="M 530.5,257.5 C 532.027,257.427 533.027,258.094 533.5,259.5C 531.973,259.573 530.973,258.906 530.5,257.5 Z"/></g>
<g><path style="opacity:0.004" fill="#edecdf" d="M 534.5,260.5 C 536.833,260.833 538.167,262.167 538.5,264.5C 536.833,263.5 535.5,262.167 534.5,260.5 Z"/></g>
<g><path style="opacity:0.004" fill="#f6f6e8" d="M 275.5,266.5 C 276.833,267.167 276.833,267.167 275.5,266.5 Z"/></g>
<g><path style="opacity:0.004" fill="#f2f1e4" d="M 540.5,267.5 C 542.424,267.711 542.757,268.377 541.5,269.5C 541.167,268.833 540.833,268.167 540.5,267.5 Z"/></g>
<g><path style="opacity:1" fill="#1b1b1b" d="M 257.5,268.5 C 263.581,269.027 269.248,270.86 274.5,274C 300.656,294.504 316.322,321.004 321.5,353.5C 307.027,343.088 291.694,333.922 275.5,326C 256.698,319.533 237.365,315.866 217.5,315C 220.037,303.427 224.871,292.927 232,283.5C 239.617,276.783 248.117,271.783 257.5,268.5 Z"/></g>
<g><path style="opacity:0.004" fill="#f6f6e8" d="M 279.5,269.5 C 280.833,270.167 280.833,270.167 279.5,269.5 Z"/></g>
<g><path style="opacity:0.004" fill="#edece0" d="M 542.5,270.5 C 543.833,270.5 544.5,271.167 544.5,272.5C 543.5,272.167 542.833,271.5 542.5,270.5 Z"/></g>
<g><path style="opacity:0.004" fill="#dcdbcf" d="M 283.5,273.5 C 286.167,274.167 287.833,275.833 288.5,278.5C 286.5,277.167 284.833,275.5 283.5,273.5 Z"/></g>
<g><path style="opacity:0.035" fill="#888780" d="M 291.5,280.5 C 293.262,281.262 294.262,282.596 294.5,284.5C 292.738,283.738 291.738,282.404 291.5,280.5 Z"/></g>
<g><path style="opacity:0.004" fill="#ebeade" d="M 298.5,288.5 C 299.833,288.5 300.5,289.167 300.5,290.5C 299.5,290.167 298.833,289.5 298.5,288.5 Z"/></g>
<g><path style="opacity:0.004" fill="#dcdbd0" d="M 302.5,293.5 C 304.912,293.694 305.912,295.027 305.5,297.5C 304.512,296.205 303.512,294.872 302.5,293.5 Z"/></g>
<g><path style="opacity:0.051" fill="#aaa9a0" d="M 555.5,295.5 C 557.105,296.006 557.439,296.673 556.5,297.5C 555.662,297.158 555.328,296.492 555.5,295.5 Z"/></g>
<g><path style="opacity:0.004" fill="#e8e7db" d="M 305.5,297.5 C 306.833,297.5 307.5,298.167 307.5,299.5C 306.5,299.167 305.833,298.5 305.5,297.5 Z"/></g>
<g><path style="opacity:0.059" fill="#a8a79f" d="M 557.5,301.5 C 558.488,302.795 559.488,304.128 560.5,305.5C 558.088,305.306 557.088,303.973 557.5,301.5 Z"/></g>
<g><path style="opacity:0.016" fill="#a6a69d" d="M 309.5,303.5 C 310.906,303.973 311.573,304.973 311.5,306.5C 310.094,306.027 309.427,305.027 309.5,303.5 Z"/></g>
<g><path style="opacity:1" fill="#f3f2e5" d="M 537.5,310.5 C 543.842,310.334 550.175,310.5 556.5,311C 575.021,326.27 578.354,344.437 566.5,365.5C 552.55,354.515 537.55,345.015 521.5,337C 464.404,324.086 438.237,346.919 443,405.5C 436.311,401.322 429.978,396.655 424,391.5C 418.408,383.971 413.074,376.304 408,368.5C 406.6,363.169 405.6,357.836 405,352.5C 429.427,333.71 456.927,321.543 487.5,316C 504.299,314.025 520.966,312.192 537.5,310.5 Z"/></g>
<g><path style="opacity:0.008" fill="#e5e4d8" d="M 561.5,306.5 C 566.992,309.323 570.659,313.656 572.5,319.5C 569.238,314.898 565.572,310.565 561.5,306.5 Z"/></g>
<g><path style="opacity:0.004" fill="#e6e5d9" d="M 317.5,319.5 C 319.048,319.821 319.715,320.821 319.5,322.5C 318.599,321.71 317.932,320.71 317.5,319.5 Z"/></g>
<g><path style="opacity:1" fill="#f2f1e4" d="M 222.5,319.5 C 255.759,321.304 285.259,332.638 311,353.5C 314.194,369.338 311.861,384.338 304,398.5C 302,400.5 300,402.5 298,404.5C 300.325,377.65 289.825,357.483 266.5,344C 244.603,339.53 227.103,346.364 214,364.5C 210.479,369.542 207.479,374.875 205,380.5C 201.502,362.994 204.502,346.661 214,331.5C 216.689,327.325 219.523,323.325 222.5,319.5 Z"/></g>
<g><path style="opacity:0.027" fill="#85857e" d="M 572.5,319.5 C 573.906,319.973 574.573,320.973 574.5,322.5C 573.094,322.027 572.427,321.027 572.5,319.5 Z"/></g>
<g><path style="opacity:0.004" fill="#e5e4d8" d="M 574.5,322.5 C 576.048,322.821 576.715,323.821 576.5,325.5C 575.599,324.71 574.932,323.71 574.5,322.5 Z"/></g>
<g><path style="opacity:0.004" fill="#f6f6e8" d="M 320.5,323.5 C 321.833,324.167 321.833,324.167 320.5,323.5 Z"/></g>
<g><path style="opacity:0.004" fill="#f6f6e8" d="M 577.5,326.5 C 578.833,327.167 578.833,327.167 577.5,326.5 Z"/></g>
<g><path style="opacity:0.004" fill="#f6f6e8" d="M 322.5,329.5 C 323.833,330.167 323.833,330.833 322.5,331.5C 322.5,330.833 322.5,330.167 322.5,329.5 Z"/></g>
<g><path style="opacity:0.004" fill="#f6f6e8" d="M 579.5,334.5 C 580.833,335.167 580.833,335.167 579.5,334.5 Z"/></g>
<g><path style="opacity:0.004" fill="#d4d3c8" d="M 578.5,335.5 C 578.833,335.5 579.167,335.5 579.5,335.5C 580.625,336.652 580.625,337.652 579.5,338.5C 578.833,338.5 578.5,338.167 578.5,337.5C 578.5,336.833 578.5,336.167 578.5,335.5 Z"/></g>
<g><path style="opacity:0.004" fill="#f6f6e8" d="M 580.5,339.5 C 581.629,341.628 581.796,343.961 581,346.5C 580.503,344.19 580.337,341.857 580.5,339.5 Z"/></g>
<g><path style="opacity:0.027" fill="#bebdb3" d="M 579.5,347.5 C 580.354,348.632 580.354,349.965 579.5,351.5C 579.167,351.5 578.833,351.5 578.5,351.5C 578.433,350.041 578.766,348.708 579.5,347.5 Z"/></g>
<g><path style="opacity:0.004" fill="#f6f6e8" d="M 579.5,351.5 C 580.833,352.167 580.833,352.167 579.5,351.5 Z"/></g>
<g><path style="opacity:0.102" fill="#85857e" d="M 335.5,355.5 C 334.209,355.737 333.209,355.404 332.5,354.5C 332.435,354.062 332.601,353.728 333,353.5C 333.995,354.066 334.828,354.733 335.5,355.5 Z"/></g>
<g><path style="opacity:0.004" fill="#f6f6e8" d="M 578.5,355.5 C 579.833,356.167 579.833,356.167 578.5,355.5 Z"/></g>
<g><path style="opacity:1" fill="#1b1b1b" d="M 327.5,357.5 C 334.917,361.206 342.583,364.373 350.5,367C 363.045,369.556 375.379,368.89 387.5,365C 391.183,363.159 394.516,360.826 397.5,358C 398.5,357.333 399.5,357.333 400.5,358C 405.783,368.611 405.617,379.111 400,389.5C 395.86,394.211 390.694,395.711 384.5,394C 378.851,392.027 374.184,388.694 370.5,384C 366.546,380.862 362.546,380.862 358.5,384C 356.402,386.854 354.069,389.521 351.5,392C 343.806,394.989 337.64,393.155 333,386.5C 330.946,376.834 329.112,367.168 327.5,357.5 Z"/></g>
<g><path style="opacity:0.004" fill="#d2d1c6" d="M 577.5,356.5 C 577.833,356.5 578.167,356.5 578.5,356.5C 578.167,357.167 577.833,357.833 577.5,358.5C 577.167,358.5 576.833,358.5 576.5,358.5C 576.328,357.508 576.662,356.842 577.5,356.5 Z"/></g>
<g><path style="opacity:0.004" fill="#f6f6e8" d="M 577.5,358.5 C 578.833,359.167 578.833,359.167 577.5,358.5 Z"/></g>
<g><path style="opacity:0.095" fill="#d3d2c7" d="M 319.5,357.5 C 318.874,363.268 318.207,368.934 317.5,374.5C 317.171,368.463 317.504,362.463 318.5,356.5C 319.107,356.624 319.44,356.957 319.5,357.5 Z"/></g>
<g><path style="opacity:0.031" fill="#908f88" d="M 409.5,378.5 C 408.833,379.833 408.167,381.167 407.5,382.5C 407.337,380.143 407.503,377.81 408,375.5C 409.039,376.244 409.539,377.244 409.5,378.5 Z"/></g>
<g><path style="opacity:0.012" fill="#000000" d="M 549.5,383.5 C 550.833,384.167 550.833,384.167 549.5,383.5 Z"/></g>
<g><path style="opacity:0.02" fill="#000000" d="M 545.5,384.5 C 546.833,385.167 546.833,385.167 545.5,384.5 Z"/></g>
<g><path style="opacity:0.022" fill="#000000" d="M 541.5,386.5 C 541.897,385.475 542.563,385.308 543.5,386C 542.906,386.464 542.239,386.631 541.5,386.5 Z"/></g>
<g><path style="opacity:0.018" fill="#000000" d="M 538.5,387.5 C 538.897,386.475 539.563,386.308 540.5,387C 539.906,387.464 539.239,387.631 538.5,387.5 Z"/></g>
<g><path style="opacity:0.016" fill="#000000" d="M 534.5,388.5 C 534.897,387.475 535.563,387.308 536.5,388C 535.906,388.464 535.239,388.631 534.5,388.5 Z"/></g>
<g><path style="opacity:0.012" fill="#000000" d="M 530.5,389.5 C 530.897,388.475 531.563,388.308 532.5,389C 531.906,389.464 531.239,389.631 530.5,389.5 Z"/></g>
<g><path style="opacity:0.04" fill="#000000" d="M 226.5,391.5 C 228.103,391.312 229.437,391.812 230.5,393C 228.167,393.667 225.833,393.667 223.5,393C 224.737,392.768 225.737,392.268 226.5,391.5 Z"/></g>
<g><path style="opacity:0.042" fill="#000000" d="M 210.5,393.5 C 211.946,392.387 213.613,392.22 215.5,393C 213.866,393.494 212.199,393.66 210.5,393.5 Z"/></g>
<g><path style="opacity:0.016" fill="#000000" d="M 233.5,392.5 C 234.833,393.167 234.833,393.167 233.5,392.5 Z"/></g>
<g><path style="opacity:0.012" fill="#000000" d="M 236.5,394.5 C 236.897,393.475 237.563,393.308 238.5,394C 237.906,394.464 237.239,394.631 236.5,394.5 Z"/></g>
<g><path style="opacity:0.016" fill="#000000" d="M 239.5,395.5 C 239.897,394.475 240.563,394.308 241.5,395C 240.906,395.464 240.239,395.631 239.5,395.5 Z"/></g>
<g><path style="opacity:0.012" fill="#000000" d="M 242.5,395.5 C 243.833,396.167 243.833,396.167 242.5,395.5 Z"/></g>
<g><path style="opacity:0.004" fill="#f6f6e8" d="M 401.5,395.5 C 402.833,396.167 402.833,396.167 401.5,395.5 Z"/></g>
<g><path style="opacity:0.016" fill="#000000" d="M 245.5,396.5 C 246.833,397.167 246.833,397.167 245.5,396.5 Z"/></g>
<g><path style="opacity:0.012" fill="#000000" d="M 247.5,397.5 C 248.833,398.167 248.833,398.167 247.5,397.5 Z"/></g>
<g><path style="opacity:0.004" fill="#f6f6e8" d="M 398.5,397.5 C 398.833,397.5 399.167,397.5 399.5,397.5C 399.315,398.17 398.981,398.17 398.5,397.5 Z"/></g>
<g><path style="opacity:0.02" fill="#000000" d="M 250.5,398.5 C 251.833,399.167 251.833,399.167 250.5,398.5 Z"/></g>
<g><path style="opacity:0.02" fill="#000000" d="M 252.5,399.5 C 253.833,400.167 253.833,400.167 252.5,399.5 Z"/></g>
<g><path style="opacity:0.012" fill="#000000" d="M 254.5,400.5 C 255.833,401.167 255.833,401.167 254.5,400.5 Z"/></g>
<g><path style="opacity:0.004" fill="#f6f6e8" d="M 307.5,403.5 C 308.833,404.167 308.833,404.167 307.5,403.5 Z"/></g>
<g><path style="opacity:0.004" fill="#f6f6e8" d="M 306.5,404.5 C 306.833,404.5 307.167,404.5 307.5,404.5C 307.315,405.17 306.981,405.17 306.5,404.5 Z"/></g>
<g><path style="opacity:0.004" fill="#eeede1" d="M 305.5,405.5 C 305.833,405.5 306.167,405.5 306.5,405.5C 306.027,406.906 305.027,407.573 303.5,407.5C 303.833,406.5 304.5,405.833 305.5,405.5 Z"/></g>

        
<g><path style="opacity:0.985" fill="#20201f" d="M 591.5,350.5 C 590.89,349.609 590.557,348.609 590.5,347.5C 598.093,347.538 604.593,350.538 610,356.5C 612.002,361.007 613.502,365.674 614.5,370.5C 614.02,374.293 612.353,377.46 609.5,380C 603.352,383.078 597.019,385.578 590.5,387.5C 584.054,386.936 577.72,385.77 571.5,384C 563.833,383.333 556.167,383.333 548.5,384C 540.284,385.787 532.618,388.62 525.5,392.5C 525.631,391.624 525.298,390.957 524.5,390.5C 523.261,390.942 522.261,391.609 521.5,392.5C 520.791,393.404 519.791,393.737 518.5,393.5C 514.838,393.723 511.505,394.723 508.5,396.5C 505.759,396.707 503.426,397.707 501.5,399.5C 501.158,400.338 500.492,400.672 499.5,400.5C 494.914,401.46 490.914,403.46 487.5,406.5C 487.158,407.338 486.492,407.672 485.5,407.5C 483.973,407.427 482.973,408.094 482.5,409.5C 480.326,409.75 478.659,410.75 477.5,412.5C 476.167,412.5 475.5,413.167 475.5,414.5C 474.878,415.627 474.045,416.627 473,417.5C 471.951,416.483 470.784,416.316 469.5,417C 464.147,419.701 458.814,422.368 453.5,425C 440.182,427.885 426.849,430.552 413.5,433C 407.153,442.527 401.986,452.694 398,463.5C 395.706,464.852 393.206,465.519 390.5,465.5C 382.205,463.808 373.871,462.308 365.5,461C 361.367,455.866 356.867,451.032 352,446.5C 349.027,442.026 345.86,437.693 342.5,433.5C 328.924,432.583 315.59,430.25 302.5,426.5C 299.905,427.237 297.238,427.237 294.5,426.5C 294.953,425.542 295.619,424.708 296.5,424C 295.906,423.536 295.239,423.369 294.5,423.5C 290.703,423.128 287.37,421.794 284.5,419.5C 281.485,417.326 278.151,415.659 274.5,414.5C 273.415,412.413 271.749,411.08 269.5,410.5C 268.508,410.672 267.842,410.338 267.5,409.5C 267.027,408.094 266.027,407.427 264.5,407.5C 263.352,404.913 261.685,403.913 259.5,404.5C 250.198,398.055 239.864,393.722 228.5,391.5C 218.197,392.724 207.863,393.224 197.5,393C 182.151,389.16 173.651,379.326 172,363.5C 171.333,358.833 171.333,354.167 172,349.5C 172.036,347.059 172.869,345.059 174.5,343.5C 175.086,343.709 175.586,344.043 176,344.5C 175.529,355.347 177.529,365.681 182,375.5C 187.543,382.974 195.043,386.974 204.5,387.5C 231.733,383.303 255.733,390.137 276.5,408C 290.297,415.71 304.964,421.044 320.5,424C 344.953,424.754 369.453,425.587 394,426.5C 413.476,426.449 432.642,423.949 451.5,419C 468.5,410 485.5,401 502.5,392C 517.586,386.527 532.92,381.86 548.5,378C 556.5,377.333 564.5,377.333 572.5,378C 579.063,379.986 585.73,380.986 592.5,381C 596.749,378.806 601.082,376.806 605.5,375C 606.872,373.758 607.872,372.258 608.5,370.5C 607.098,366.461 605.598,362.461 604,358.5C 599.684,355.934 595.517,353.267 591.5,350.5 Z"/></g>
<g><path style="opacity:0.231" fill="#9b9b93" d="M 590.5,347.5 C 590.557,348.609 590.89,349.609 591.5,350.5C 589.448,349.947 589.115,348.947 590.5,347.5 Z"/></g>
<g><path style="opacity:0.012" fill="#b3b2a9" d="M 525.5,392.5 C 524.472,392.926 523.139,392.926 521.5,392.5C 522.261,391.609 523.261,390.942 524.5,390.5C 525.298,390.957 525.631,391.624 525.5,392.5 Z"/></g>
<g><path style="opacity:0.149" fill="#d6d5ca" d="M 518.5,393.5 C 515.495,395.277 512.162,396.277 508.5,396.5C 511.505,394.723 514.838,393.723 518.5,393.5 Z"/></g>
<g><path style="opacity:0.196" fill="#d2d1c6" d="M 508.5,396.5 C 506.574,398.293 504.241,399.293 501.5,399.5C 503.426,397.707 505.759,396.707 508.5,396.5 Z"/></g>
<g><path style="opacity:0.294" fill="#a8a79f" d="M 259.5,404.5 C 261.685,403.913 263.352,404.913 264.5,407.5C 262.589,406.925 260.922,405.925 259.5,404.5 Z"/></g>
<g><path style="opacity:0.173" fill="#d8d7cc" d="M 499.5,400.5 C 495.818,403.008 491.818,405.008 487.5,406.5C 490.914,403.46 494.914,401.46 499.5,400.5 Z"/></g>
<g><path style="opacity:0.235" fill="#d1d0c5" d="M 264.5,407.5 C 266.027,407.427 267.027,408.094 267.5,409.5C 265.973,409.573 264.973,408.906 264.5,407.5 Z"/></g>
<g><path style="opacity:0.141" fill="#dfded2" d="M 485.5,407.5 C 485.027,408.906 484.027,409.573 482.5,409.5C 482.973,408.094 483.973,407.427 485.5,407.5 Z"/></g>
<g><path style="opacity:0.067" fill="#d3d2c7" d="M 482.5,409.5 C 481.341,411.25 479.674,412.25 477.5,412.5C 478.659,410.75 480.326,409.75 482.5,409.5 Z"/></g>
<g><path style="opacity:0.012" fill="#d5d4c9" d="M 477.5,412.5 C 477.167,413.5 476.5,414.167 475.5,414.5C 475.5,413.167 476.167,412.5 477.5,412.5 Z"/></g>
<g><path style="opacity:0.322" fill="#b9b8af" d="M 269.5,410.5 C 271.749,411.08 273.415,412.413 274.5,414.5C 272.251,413.92 270.585,412.587 269.5,410.5 Z"/></g>
<g><path style="opacity:0.196" fill="#d0d0c5" d="M 274.5,414.5 C 278.151,415.659 281.485,417.326 284.5,419.5C 280.58,418.873 277.247,417.207 274.5,414.5 Z"/></g>
<g><path style="opacity:0.027" fill="#d9d8cd" d="M 294.5,423.5 C 295.239,423.369 295.906,423.536 296.5,424C 295.619,424.708 294.953,425.542 294.5,426.5C 293.375,425.652 293.375,424.652 294.5,423.5 Z"/></g>
<g><path style="opacity:1" fill="#f1f0e3" d="M 350.5,430.5 C 360.215,430.459 369.882,431.125 379.5,432.5C 389.146,431.411 398.812,431.245 408.5,432C 402.865,440.766 397.865,449.933 393.5,459.5C 392.833,459.833 392.167,460.167 391.5,460.5C 383.983,458.204 376.316,456.704 368.5,456C 361.627,448.795 355.127,441.295 349,433.5C 348.761,432.212 349.261,431.212 350.5,430.5 Z"/></g>

        
<g><path style="opacity:0.991" fill="#070709" d="M 369.5,120.5 C 370.833,120.5 372.167,120.5 373.5,120.5C 374.829,127.793 375.995,135.127 377,142.5C 380.222,149.499 382.222,156.833 383,164.5C 385.41,170.318 388.077,175.985 391,181.5C 397.794,189.963 404.961,198.13 412.5,206C 416.873,209.186 421.54,211.853 426.5,214C 435.081,216.097 443.747,217.764 452.5,219C 453.894,222.093 453.227,224.759 450.5,227C 430.107,226.898 410.441,230.565 391.5,238C 379.024,243.808 370.858,253.308 367,266.5C 355.463,275.515 342.296,279.849 327.5,279.5C 295.365,280.389 277.198,265.055 273,233.5C 272.179,214.784 276.679,197.45 286.5,181.5C 287.365,180.417 288.365,180.251 289.5,181C 291.882,194.264 298.048,205.431 308,214.5C 303.426,198.844 302.092,182.844 304,166.5C 306.194,155.608 311.36,146.441 319.5,139C 321,138.5 322.5,138 324,137.5C 324.945,137.905 325.612,138.572 326,139.5C 325.78,147.468 327.114,155.135 330,162.5C 335.333,171.167 340.667,179.833 346,188.5C 345.199,175.055 346.199,161.721 349,148.5C 354.151,137.861 360.985,128.528 369.5,120.5 Z"/></g>
<g><path style="opacity:1" fill="#2d2d3a" d="M 373.5,152.5 C 371.366,151.297 370.032,149.463 369.5,147C 368.5,146.333 367.5,146.333 366.5,147C 366.833,147.333 367.167,147.667 367.5,148C 363.138,150.623 361.472,154.29 362.5,159C 360.408,159.953 360.075,161.286 361.5,163C 360.5,165.333 359.5,167.667 358.5,170C 359.308,170.308 359.975,170.808 360.5,171.5C 358.318,173.734 357.985,176.234 359.5,179C 359.025,180.763 358.358,182.43 357.5,184C 359.434,185.729 359.434,187.729 357.5,190C 358.167,191.333 358.833,192.667 359.5,194C 359.267,197.466 358.933,201.3 358.5,205.5C 357.808,206.025 357.308,206.692 357,207.5C 355.806,206.57 354.473,205.903 353,205.5C 350.946,206.079 348.946,206.412 347,206.5C 346.517,205.552 346.351,204.552 346.5,203.5C 344.436,203.313 342.436,202.813 340.5,202C 339.5,199.667 337.833,198 335.5,197C 335.833,196.667 336.167,196.333 336.5,196C 335.514,193.672 333.514,191.672 330.5,190C 330.833,189.667 331.167,189.333 331.5,189C 329.833,188 328.5,186.667 327.5,185C 327.833,184.667 328.167,184.333 328.5,184C 327.5,183 326.5,182 325.5,181C 325.833,180.667 326.167,180.333 326.5,180C 324.996,178.509 324.163,176.676 324,174.5C 321.917,172.348 320.417,170.348 319.5,168.5C 318.032,170.792 317.032,172.959 316.5,175C 316.833,175.333 317.167,175.667 317.5,176C 316.692,176.308 316.025,176.808 315.5,177.5C 316.78,179.702 316.78,181.868 315.5,184C 316.167,184.667 316.833,185.333 317.5,186C 316.283,188.011 316.616,190.011 318.5,192C 317.941,192.725 317.608,193.558 317.5,194.5C 318.755,199.502 320.421,204.335 322.5,209C 322.167,209.333 321.833,209.667 321.5,210C 323.866,214.26 325.532,218.427 326.5,222.5C 326.035,225.471 324.535,227.805 322,229.5C 312.901,229.677 304.901,227.344 298,222.5C 297.667,222.833 297.333,223.167 297,223.5C 296.424,220.876 295.09,220.209 293,221.5C 292.683,219.699 292.016,219.366 291,220.5C 290.632,219.09 289.799,218.09 288.5,217.5C 287.831,220.93 287.497,224.263 287.5,227.5C 287.529,229.029 288.196,230.196 289.5,231C 289.167,231.333 288.833,231.667 288.5,232C 288.846,236.025 290.512,239.358 293.5,242C 293.167,242.333 292.833,242.667 292.5,243C 294.865,246.328 297.032,250.495 299,255.5C 299.333,255.167 299.667,254.833 300,254.5C 301.347,259.54 305.18,263.874 311.5,267.5C 312.246,268.736 312.579,270.07 312.5,271.5C 316.425,271.43 320.091,272.097 323.5,273.5C 298.519,273.351 283.686,261.018 279,236.5C 277.516,224.501 278.849,212.835 283,201.5C 284.015,198.79 285.515,196.457 287.5,194.5C 292.1,204.27 298.433,212.77 306.5,220C 310.275,222.351 313.608,221.851 316.5,218.5C 313.264,213.631 311.097,208.297 310,202.5C 307.534,190.194 307.201,177.86 309,165.5C 311.037,157.755 314.87,151.088 320.5,145.5C 321.205,153.249 323.372,160.582 327,167.5C 332.396,175.234 337.396,183.234 342,191.5C 344.247,194.509 346.581,194.842 349,192.5C 349.756,179.806 350.756,167.139 352,154.5C 355.417,144.676 361.083,136.342 369,129.5C 370.085,137.268 371.585,144.935 373.5,152.5 Z"/></g>
<g><path style="opacity:1" fill="#333340" d="M 373.5,152.5 C 375.929,156.791 377.096,161.458 377,166.5C 379.333,171.833 381.667,177.167 384,182.5C 389.333,189.167 394.667,195.833 400,202.5C 409.902,214.065 422.402,220.899 437.5,223C 416.978,223.876 397.978,229.543 380.5,240C 377.333,243.167 374.167,246.333 371,249.5C 370.226,245.853 369.559,242.186 369,238.5C 365.827,235.671 364.327,236.505 364.5,241C 366.241,248.365 365.741,255.532 363,262.5C 357.518,267.657 351.018,270.824 343.5,272C 336.897,273.274 330.23,273.774 323.5,273.5C 320.091,272.097 316.425,271.43 312.5,271.5C 312.579,270.07 312.246,268.736 311.5,267.5C 305.18,263.874 301.347,259.54 300,254.5C 299.667,254.833 299.333,255.167 299,255.5C 297.032,250.495 294.865,246.328 292.5,243C 292.833,242.667 293.167,242.333 293.5,242C 290.512,239.358 288.846,236.025 288.5,232C 288.833,231.667 289.167,231.333 289.5,231C 288.196,230.196 287.529,229.029 287.5,227.5C 287.497,224.263 287.831,220.93 288.5,217.5C 289.799,218.09 290.632,219.09 291,220.5C 292.016,219.366 292.683,219.699 293,221.5C 295.09,220.209 296.424,220.876 297,223.5C 297.333,223.167 297.667,222.833 298,222.5C 304.901,227.344 312.901,229.677 322,229.5C 324.535,227.805 326.035,225.471 326.5,222.5C 325.532,218.427 323.866,214.26 321.5,210C 321.833,209.667 322.167,209.333 322.5,209C 320.421,204.335 318.755,199.502 317.5,194.5C 317.608,193.558 317.941,192.725 318.5,192C 316.616,190.011 316.283,188.011 317.5,186C 316.833,185.333 316.167,184.667 315.5,184C 316.78,181.868 316.78,179.702 315.5,177.5C 316.025,176.808 316.692,176.308 317.5,176C 317.167,175.667 316.833,175.333 316.5,175C 317.032,172.959 318.032,170.792 319.5,168.5C 320.417,170.348 321.917,172.348 324,174.5C 324.163,176.676 324.996,178.509 326.5,180C 326.167,180.333 325.833,180.667 325.5,181C 326.5,182 327.5,183 328.5,184C 328.167,184.333 327.833,184.667 327.5,185C 328.5,186.667 329.833,188 331.5,189C 331.167,189.333 330.833,189.667 330.5,190C 333.514,191.672 335.514,193.672 336.5,196C 336.167,196.333 335.833,196.667 335.5,197C 337.833,198 339.5,199.667 340.5,202C 342.436,202.813 344.436,203.313 346.5,203.5C 346.351,204.552 346.517,205.552 347,206.5C 348.946,206.412 350.946,206.079 353,205.5C 354.473,205.903 355.806,206.57 357,207.5C 357.308,206.692 357.808,206.025 358.5,205.5C 358.933,201.3 359.267,197.466 359.5,194C 358.833,192.667 358.167,191.333 357.5,190C 359.434,187.729 359.434,185.729 357.5,184C 358.358,182.43 359.025,180.763 359.5,179C 357.985,176.234 358.318,173.734 360.5,171.5C 359.975,170.808 359.308,170.308 358.5,170C 359.5,167.667 360.5,165.333 361.5,163C 360.075,161.286 360.408,159.953 362.5,159C 361.472,154.29 363.138,150.623 367.5,148C 367.167,147.667 366.833,147.333 366.5,147C 367.5,146.333 368.5,146.333 369.5,147C 370.032,149.463 371.366,151.297 373.5,152.5 Z"/></g>

    </svg>
