
    <svg width="862" height="862" viewBox="0 0 862 862" fill="none" xmlns="http://www.w3.org/2000/svg">
        
<g><path style="opacity:1" fill="#f6f6e8" d="M -0.5,-0.5 C 286.833,-0.5 574.167,-0.5 861.5,-0.5C 861.5,286.833 861.5,574.167 861.5,861.5C 574.167,861.5 286.833,861.5 -0.5,861.5C -0.5,574.167 -0.5,286.833 -0.5,-0.5 Z"/></g>

        
<g><path style="opacity:0.983" fill="#1a1a19" d="M 578.5,540.5 C 583.993,540.916 589.326,542.082 594.5,544C 599.237,547.614 603.403,551.781 607,556.5C 613.977,570.057 616.311,584.39 614,599.5C 611.931,603.236 608.931,605.903 605,607.5C 603.018,607.01 601.351,606.01 600,604.5C 594.275,609.717 588.442,609.717 582.5,604.5C 577.923,613.337 572.256,614.337 565.5,607.5C 561.53,612.973 556.196,614.806 549.5,613C 548.299,612.097 547.465,610.931 547,609.5C 541.931,617.452 536.764,617.452 531.5,609.5C 527.737,613.765 523.737,617.932 519.5,622C 516.106,622.752 512.773,622.585 509.5,621.5C 508.194,620.088 507.36,618.421 507,616.5C 505.425,609.568 504.258,602.568 503.5,595.5C 504.335,583.317 510.669,578.317 522.5,580.5C 523.795,579.902 525.128,579.402 526.5,579C 535.197,570.637 543.531,561.97 551.5,553C 559.592,546.617 568.592,542.45 578.5,540.5 Z"/></g>
<g><path style="opacity:1" fill="#d9d8cb" d="M 587.5,601.5 C 588.496,601.586 589.329,601.252 590,600.5C 592.94,596.545 595.94,592.545 599,588.5C 599.37,579.339 598.37,570.339 596,561.5C 591.36,554.156 584.693,549.822 576,548.5C 573.538,549.159 571.038,549.493 568.5,549.5C 581.297,543.74 592.13,546.407 601,557.5C 608.853,570.951 611.186,585.285 608,600.5C 606.604,602.527 604.938,602.86 603,601.5C 602.091,598.089 601.091,594.755 600,591.5C 598.35,595.573 596.516,599.573 594.5,603.5C 591.584,604.861 589.251,604.195 587.5,601.5 Z"/></g>
<g><path style="opacity:1" fill="#f4f3e6" d="M 587.5,601.5 C 585.433,599.682 584.1,597.349 583.5,594.5C 582.635,593.417 581.635,593.251 580.5,594C 579.955,598.074 578.621,601.907 576.5,605.5C 574.878,607.439 573.044,607.772 571,606.5C 568.863,602.486 567.03,598.486 565.5,594.5C 564.522,594.977 563.689,595.643 563,596.5C 563.284,605.334 559.118,609.667 550.5,609.5C 550.348,605.228 549.348,601.228 547.5,597.5C 545.179,600.394 544.012,603.727 544,607.5C 541.618,612.067 538.951,612.4 536,608.5C 535.887,606.026 534.887,604.026 533,602.5C 527.856,607.313 523.023,612.48 518.5,618C 516.098,618.814 513.765,618.647 511.5,617.5C 508.811,609.37 507.645,601.036 508,592.5C 508.668,588.501 510.835,585.668 514.5,584C 518.801,584.363 523.134,584.363 527.5,584C 529.167,583 530.833,582 532.5,581C 540.864,572.97 548.864,564.637 556.5,556C 560.367,553.567 564.367,551.4 568.5,549.5C 571.038,549.493 573.538,549.159 576,548.5C 584.693,549.822 591.36,554.156 596,561.5C 598.37,570.339 599.37,579.339 599,588.5C 595.94,592.545 592.94,596.545 590,600.5C 589.329,601.252 588.496,601.586 587.5,601.5 Z"/></g>
<g><path style="opacity:0.982" fill="#191918" d="M 290.5,554.5 C 298.253,554.104 305.92,554.604 313.5,556C 315.5,557.333 317.5,558.667 319.5,560C 322.228,566.042 326.895,569.709 333.5,571C 335.378,572.543 336.878,574.376 338,576.5C 338.242,583.196 338.742,589.862 339.5,596.5C 339.461,598.587 338.461,599.921 336.5,600.5C 332.274,599.93 328.108,599.263 324,598.5C 322.5,600 321,601.5 319.5,603C 317.287,603.626 315.12,603.459 313,602.5C 306.564,605.689 301.23,604.356 297,598.5C 284.481,607.161 276.648,603.994 273.5,589C 271.944,573.778 277.611,562.278 290.5,554.5 Z"/></g>
<g><path style="opacity:1" fill="#f4f3e6" d="M 334.5,587.5 C 334.5,590.167 334.5,592.833 334.5,595.5C 333.167,595.5 331.833,595.5 330.5,595.5C 327.482,595.335 324.482,595.502 321.5,596C 320.022,598.039 318.022,598.872 315.5,598.5C 315.5,597.5 315.5,596.5 315.5,595.5C 312.326,596.015 309.326,597.015 306.5,598.5C 305.5,598.333 304.5,598.167 303.5,598C 301.441,595.366 299.275,592.866 297,590.5C 296.292,591.381 295.458,592.047 294.5,592.5C 290.404,593.285 287.07,592.118 284.5,589C 284.833,588.667 285.167,588.333 285.5,588C 283.667,587.5 282.5,586.333 282,584.5C 281.501,580.179 281.334,575.846 281.5,571.5C 281.709,570.078 282.209,568.745 283,567.5C 286.167,565 289.333,562.5 292.5,560C 298.167,559.333 303.833,559.333 309.5,560C 314.42,562.916 318.753,566.582 322.5,571C 326.232,572.461 329.732,574.294 333,576.5C 333.936,580.114 334.436,583.78 334.5,587.5 Z"/></g>
<g><path style="opacity:1" fill="#d7d6c9" d="M 281.5,571.5 C 281.334,575.846 281.501,580.179 282,584.5C 282.5,586.333 283.667,587.5 285.5,588C 285.167,588.333 284.833,588.667 284.5,589C 287.07,592.118 290.404,593.285 294.5,592.5C 293.641,595.452 291.641,597.285 288.5,598C 285.364,599.041 282.864,598.207 281,595.5C 279.409,588.608 279.076,581.608 280,574.5C 280.232,573.263 280.732,572.263 281.5,571.5 Z"/></g>
<g><path style="opacity:1" fill="#64635e" d="M 334.5,587.5 C 335.477,590.287 335.81,593.287 335.5,596.5C 333.585,596.784 331.919,596.451 330.5,595.5C 331.833,595.5 333.167,595.5 334.5,595.5C 334.5,592.833 334.5,590.167 334.5,587.5 Z"/></g>

        
<g><path style="opacity:0.992" fill="#0e0200" d="M 427.5,213.5 C 431.015,214.239 434.348,214.239 437.5,213.5C 457.44,207.685 476.773,200.185 495.5,191C 539.434,164.086 578.267,130.92 612,91.5C 623.718,75.0452 633.551,57.7118 641.5,39.5C 643.784,43.0917 645.284,47.0917 646,51.5C 647.981,58.7292 648.647,66.0625 648,73.5C 640.855,110.937 630.855,147.604 618,183.5C 610.177,198.812 603.177,214.479 597,230.5C 591.559,238.38 586.892,246.714 583,255.5C 579.213,260.956 575.046,266.123 570.5,271C 547.78,274.587 525.113,274.253 502.5,270C 475.47,261.573 451.97,247.407 432,227.5C 428.906,223.067 427.406,218.4 427.5,213.5 Z"/></g>
<g><path style="opacity:1" fill="#480600" d="M 639.5,86.5 C 639.333,78.6432 638.666,70.9765 637.5,63.5C 638.403,61.3635 639.569,59.3635 641,57.5C 643.127,67.4034 642.627,77.0701 639.5,86.5 Z"/></g>
<g><path style="opacity:1" fill="#5d1100" d="M 637.5,63.5 C 638.666,70.9765 639.333,78.6432 639.5,86.5C 631.952,119.13 622.619,151.13 611.5,182.5C 594.072,199.89 575.405,215.89 555.5,230.5C 539.118,226.893 524.951,219.226 513,207.5C 509.506,202.214 508.006,196.547 508.5,190.5C 523.298,181.355 537.464,171.355 551,160.5C 554.322,165.804 557.655,171.138 561,176.5C 566.521,183.026 573.354,187.526 581.5,190C 584.721,190.797 587.721,190.297 590.5,188.5C 573.252,184.768 561.252,174.601 554.5,158C 575.614,139.22 595.781,119.387 615,98.5C 623.508,87.4845 631.008,75.8178 637.5,63.5 Z"/></g>
<g><path style="opacity:0.991" fill="#0e0200" d="M 163.5,81.5 C 163.402,83.5529 164.069,85.2196 165.5,86.5C 167.9,93.3682 169.9,100.368 171.5,107.5C 171.402,109.553 172.069,111.22 173.5,112.5C 175.314,118.78 177.647,124.78 180.5,130.5C 182.966,137.43 185.966,144.096 189.5,150.5C 189.427,152.027 190.094,153.027 191.5,153.5C 191.738,155.404 192.738,156.738 194.5,157.5C 198.189,161.865 201.522,166.531 204.5,171.5C 204.427,173.027 205.094,174.027 206.5,174.5C 207.167,174.5 207.5,174.833 207.5,175.5C 207.427,177.027 208.094,178.027 209.5,178.5C 211.727,180.607 213.727,182.94 215.5,185.5C 216.757,188.427 218.757,190.761 221.5,192.5C 233.146,201.988 245.146,210.988 257.5,219.5C 257.973,220.906 258.973,221.573 260.5,221.5C 262.992,223.768 265.658,224.768 268.5,224.5C 273.295,225.765 277.962,227.432 282.5,229.5C 287.333,227.167 290.5,228.834 292,234.5C 292.629,238.871 292.463,243.204 291.5,247.5C 289.896,248.287 289.229,249.62 289.5,251.5C 287.841,256.827 285.174,261.493 281.5,265.5C 280.094,265.973 279.427,266.973 279.5,268.5C 273.833,277.5 266.5,284.833 257.5,290.5C 255.973,290.427 254.973,291.094 254.5,292.5C 245.762,298.772 235.929,302.439 225,303.5C 221.45,303.517 220.283,302.017 221.5,299C 219.907,298.051 218.574,296.885 217.5,295.5C 216.738,293.738 215.404,292.738 213.5,292.5C 209.167,288.833 205.167,284.833 201.5,280.5C 200.5,278.833 199.167,277.5 197.5,276.5C 185.509,266.187 176.175,253.854 169.5,239.5C 169.573,237.973 168.906,236.973 167.5,236.5C 164.326,231.484 161.659,226.151 159.5,220.5C 157.07,212.533 154.07,204.866 150.5,197.5C 147.894,190.347 145.894,183.014 144.5,175.5C 143.987,171.121 143.153,166.787 142,162.5C 141.617,161.944 141.117,161.611 140.5,161.5C 140.5,161.167 140.5,160.833 140.5,160.5C 141.794,158.32 141.461,156.32 139.5,154.5C 139.5,143.833 139.5,133.167 139.5,122.5C 141.966,118.982 142.966,114.982 142.5,110.5C 144.411,106.767 145.744,102.767 146.5,98.5C 147.655,94.2025 149.321,90.2025 151.5,86.5C 153.008,84.8185 154.008,82.8185 154.5,80.5C 155.906,80.0269 156.573,79.0269 156.5,77.5C 157.261,76.6091 158.261,75.9424 159.5,75.5C 161.252,77.2459 162.585,79.2459 163.5,81.5 Z"/></g>
<g><path style="opacity:0.212" fill="#3b0702" d="M 156.5,77.5 C 156.573,79.0269 155.906,80.0269 154.5,80.5C 154.427,78.9731 155.094,77.9731 156.5,77.5 Z"/></g>
<g><path style="opacity:0.016" fill="#420b00" d="M 163.5,81.5 C 164.931,82.7804 165.598,84.4471 165.5,86.5C 164.069,85.2196 163.402,83.5529 163.5,81.5 Z"/></g>
<g><path style="opacity:0.106" fill="#3a0700" d="M 154.5,80.5 C 154.008,82.8185 153.008,84.8185 151.5,86.5C 151.461,83.911 152.461,81.911 154.5,80.5 Z"/></g>
<g><path style="opacity:1" fill="#490400" d="M 162.5,94.5 C 161.503,94.4701 160.836,94.9701 160.5,96C 157.987,102.732 156.987,109.732 157.5,117C 156.995,126.715 158.162,136.215 161,145.5C 169.115,165.739 179.282,184.739 191.5,202.5C 187.969,204.937 184.469,204.937 181,202.5C 180.333,203.833 180.333,205.167 181,206.5C 185.119,207.659 189.286,207.659 193.5,206.5C 199.628,219.484 206.461,232.151 214,244.5C 216.042,247.94 218.542,250.94 221.5,253.5C 219.067,256.687 216.067,258.353 212.5,258.5C 213,259.881 214,260.547 215.5,260.5C 218.183,259.49 220.849,258.49 223.5,257.5C 230.487,268.801 237.487,280.134 244.5,291.5C 239.92,294.754 234.753,296.754 229,297.5C 225.571,297.043 222.737,295.543 220.5,293C 206.564,280.069 193.731,266.236 182,251.5C 159.976,217.422 147.476,180.088 144.5,139.5C 144.038,119.571 149.038,101.238 159.5,84.5C 161.003,87.6773 162.003,91.0106 162.5,94.5 Z"/></g>
<g><path style="opacity:1" fill="#5c1100" d="M 162.5,94.5 C 166.782,109.234 171.782,123.734 177.5,138C 176.833,140 176.167,142 175.5,144C 175.957,144.414 176.291,144.914 176.5,145.5C 175.5,146.833 174.5,148.167 173.5,149.5C 174.365,150.583 175.365,150.749 176.5,150C 178.041,148.421 179.208,146.587 180,144.5C 188.664,159.494 198.497,173.661 209.5,187C 207.004,189.656 205.004,192.656 203.5,196C 199.845,198.827 195.845,200.993 191.5,202.5C 179.282,184.739 169.115,165.739 161,145.5C 158.162,136.215 156.995,126.715 157.5,117C 156.987,109.732 157.987,102.732 160.5,96C 160.836,94.9701 161.503,94.4701 162.5,94.5 Z"/></g>
<g><path style="opacity:0.671" fill="#2e0b00" d="M 146.5,98.5 C 145.744,102.767 144.411,106.767 142.5,110.5C 142.861,106.085 144.194,102.085 146.5,98.5 Z"/></g>
<g><path style="opacity:0.235" fill="#370c00" d="M 171.5,107.5 C 172.931,108.78 173.598,110.447 173.5,112.5C 172.069,111.22 171.402,109.553 171.5,107.5 Z"/></g>
<g><path style="opacity:0.263" fill="#290802" d="M 142.5,110.5 C 142.966,114.982 141.966,118.982 139.5,122.5C 140.008,118.264 141.008,114.264 142.5,110.5 Z"/></g>
<g><path style="opacity:0.251" fill="#3d0800" d="M 173.5,112.5 C 176.907,117.997 179.241,123.997 180.5,130.5C 177.647,124.78 175.314,118.78 173.5,112.5 Z"/></g>
<g><path style="opacity:0.314" fill="#390c00" d="M 189.5,150.5 C 190.906,150.973 191.573,151.973 191.5,153.5C 190.094,153.027 189.427,152.027 189.5,150.5 Z"/></g>
<g><path style="opacity:0.329" fill="#3d0502" d="M 191.5,153.5 C 193.262,154.262 194.262,155.596 194.5,157.5C 192.738,156.738 191.738,155.404 191.5,153.5 Z"/></g>
<g><path style="opacity:0.316" fill="#380800" d="M 139.5,154.5 C 141.461,156.32 141.794,158.32 140.5,160.5C 139.85,158.565 139.517,156.565 139.5,154.5 Z"/></g>
<g><path style="opacity:0.227" fill="#340900" d="M 140.5,161.5 C 141.117,161.611 141.617,161.944 142,162.5C 143.153,166.787 143.987,171.121 144.5,175.5C 142.565,171.107 141.232,166.441 140.5,161.5 Z"/></g>
<g><path style="opacity:0.306" fill="#3f0402" d="M 204.5,171.5 C 205.906,171.973 206.573,172.973 206.5,174.5C 205.094,174.027 204.427,173.027 204.5,171.5 Z"/></g>
<g><path style="opacity:0.376" fill="#3a0501" d="M 207.5,175.5 C 208.906,175.973 209.573,176.973 209.5,178.5C 208.094,178.027 207.427,177.027 207.5,175.5 Z"/></g>
<g><path style="opacity:1" fill="#490400" d="M 611.5,182.5 C 604.129,197.911 597.295,213.578 591,229.5C 585.559,237.38 580.892,245.714 577,254.5C 574.167,258 571.333,261.5 568.5,265C 548.008,269.725 527.675,269.559 507.5,264.5C 509.199,264.66 510.866,264.494 512.5,264C 517.395,261.52 522.395,259.186 527.5,257C 535.706,250.294 543.04,242.794 549.5,234.5C 555.767,236.176 561.767,235.509 567.5,232.5C 563.353,231.833 559.353,231.166 555.5,230.5C 575.405,215.89 594.072,199.89 611.5,182.5 Z"/></g>
<g><path style="opacity:0.498" fill="#380a00" d="M 215.5,185.5 C 218.243,187.239 220.243,189.573 221.5,192.5C 218.757,190.761 216.757,188.427 215.5,185.5 Z"/></g>
<g><path style="opacity:1" fill="#5d1100" d="M 549.5,234.5 C 543.04,242.794 535.706,250.294 527.5,257C 522.395,259.186 517.395,261.52 512.5,264C 510.866,264.494 509.199,264.66 507.5,264.5C 500.924,263.587 494.591,261.753 488.5,259C 469.68,249.511 452.514,237.678 437,223.5C 436.5,222.5 436,221.5 435.5,220.5C 459.54,214.543 482.373,205.543 504,193.5C 504.969,201.937 508.469,209.103 514.5,215C 524.994,223.581 536.661,230.081 549.5,234.5 Z"/></g>
<g><path style="opacity:0.122" fill="#3d0800" d="M 150.5,197.5 C 154.07,204.866 157.07,212.533 159.5,220.5C 155.533,213.274 152.533,205.608 150.5,197.5 Z"/></g>
<g><path style="opacity:0.678" fill="#2d0b00" d="M 427.5,213.5 C 430.668,212.556 434.001,212.556 437.5,213.5C 434.348,214.239 431.015,214.239 427.5,213.5 Z"/></g>
<g><path style="opacity:0.012" fill="#3f0400" d="M 257.5,219.5 C 259.027,219.427 260.027,220.094 260.5,221.5C 258.973,221.573 257.973,220.906 257.5,219.5 Z"/></g>
<g><path style="opacity:0.055" fill="#360a00" d="M 260.5,221.5 C 263.443,221.98 266.11,222.98 268.5,224.5C 265.658,224.768 262.992,223.768 260.5,221.5 Z"/></g>
<g><path style="opacity:1" fill="#0b0100" d="M 223.5,257.5 C 220.849,258.49 218.183,259.49 215.5,260.5C 214,260.547 213,259.881 212.5,258.5C 216.067,258.353 219.067,256.687 221.5,253.5C 232.23,245.437 241.23,235.771 248.5,224.5C 249.5,223.167 250.5,223.167 251.5,224.5C 244.728,237.735 235.395,248.735 223.5,257.5 Z"/></g>
<g><path style="opacity:1" fill="#5d1100" d="M 244.5,291.5 C 237.487,280.134 230.487,268.801 223.5,257.5C 235.395,248.735 244.728,237.735 251.5,224.5C 250.5,223.167 249.5,223.167 248.5,224.5C 241.23,235.771 232.23,245.437 221.5,253.5C 218.542,250.94 216.042,247.94 214,244.5C 206.461,232.151 199.628,219.484 193.5,206.5C 202.105,203.56 208.105,197.894 211.5,189.5C 216.291,194.792 221.291,199.959 226.5,205C 235.675,211.087 244.675,217.421 253.5,224C 264.115,228.76 274.948,232.927 286,236.5C 286.791,240.926 286.457,245.259 285,249.5C 276.025,268.63 262.525,282.63 244.5,291.5 Z"/></g>
<g><path style="opacity:0.027" fill="#4a0600" d="M 167.5,236.5 C 168.906,236.973 169.573,237.973 169.5,239.5C 168.094,239.027 167.427,238.027 167.5,236.5 Z"/></g>
<g><path style="opacity:0.369" fill="#3d0c00" d="M 291.5,247.5 C 291.34,249.153 290.674,250.486 289.5,251.5C 289.229,249.62 289.896,248.287 291.5,247.5 Z"/></g>
<g><path style="opacity:0.063" fill="#430c00" d="M 281.5,265.5 C 281.573,267.027 280.906,268.027 279.5,268.5C 279.427,266.973 280.094,265.973 281.5,265.5 Z"/></g>
<g><path style="opacity:0.004" fill="#4b0b00" d="M 197.5,276.5 C 199.167,277.5 200.5,278.833 201.5,280.5C 199.167,280.167 197.833,278.833 197.5,276.5 Z"/></g>
<g><path style="opacity:0.008" fill="#3f0c00" d="M 257.5,290.5 C 257.027,291.906 256.027,292.573 254.5,292.5C 254.973,291.094 255.973,290.427 257.5,290.5 Z"/></g>
<g><path style="opacity:0.443" fill="#3b0b01" d="M 213.5,292.5 C 215.404,292.738 216.738,293.738 217.5,295.5C 215.596,295.262 214.262,294.262 213.5,292.5 Z"/></g>

        
<g><path style="opacity:0.998" fill="#181d1b" d="M 567.5,264.5 C 567.427,266.027 568.094,267.027 569.5,267.5C 570.833,268.167 571.833,269.167 572.5,270.5C 572.427,272.027 573.094,273.027 574.5,273.5C 576.786,276.463 578.619,279.796 580,283.5C 581.333,288.167 582.667,292.833 584,297.5C 600.968,293.905 616.801,296.738 631.5,306C 657.957,323.456 680.123,345.29 698,371.5C 700.529,375.926 702.362,380.592 703.5,385.5C 703.41,388.152 704.076,390.485 705.5,392.5C 706.37,394.032 706.036,395.532 704.5,397C 701.814,398.368 699.147,399.701 696.5,401C 687.337,403.06 678.337,403.893 669.5,403.5C 671.81,407.254 673.643,411.254 675,415.5C 676.619,423.927 678.619,432.26 681,440.5C 682.454,454.02 679.787,466.687 673,478.5C 663.749,491.086 652.582,501.586 639.5,510C 630.893,513.302 622.893,517.635 615.5,523C 597.029,529.157 579.029,536.491 561.5,545C 545.683,550.606 529.683,555.606 513.5,560C 521.167,567 528.833,574 536.5,581C 541.889,585.389 547.556,589.389 553.5,593C 559.667,598.5 565.833,604 572,609.5C 578.423,618.674 584.09,628.34 589,638.5C 598.788,663.109 604.621,688.609 606.5,715C 605.825,731.869 601.492,747.703 593.5,762.5C 592.711,762.783 592.044,763.283 591.5,764C 593.134,764.494 594.801,764.66 596.5,764.5C 603.201,764.682 609.201,766.849 614.5,771C 619.719,777.218 624.552,783.718 629,790.5C 633.064,794.786 637.897,797.952 643.5,800C 646.319,802.72 645.986,805.053 642.5,807C 635.644,812.007 627.978,814.507 619.5,814.5C 615.167,814.5 610.833,814.5 606.5,814.5C 606.263,815.791 606.596,816.791 607.5,817.5C 609.143,819.708 608.81,821.541 606.5,823C 599.093,824.492 591.593,825.325 584,825.5C 570.833,824.357 557.666,823.19 544.5,822C 528.753,817.882 515.253,810.049 504,798.5C 495.911,789.336 489.577,779.003 485,767.5C 473.056,772.575 460.556,774.908 447.5,774.5C 441.513,773.858 435.513,773.358 429.5,773C 427,772.625 424.667,771.792 422.5,770.5C 418.78,774.733 415.613,779.4 413,784.5C 396.732,800.487 377.065,808.487 354,808.5C 349.103,808.068 344.269,807.234 339.5,806C 337.709,805.585 336.376,804.585 335.5,803C 338.138,800.346 341.138,798.18 344.5,796.5C 345.973,795.928 347.307,795.095 348.5,794C 346.609,793.797 344.943,794.297 343.5,795.5C 334.515,796.911 325.515,796.744 316.5,795C 304.562,791.925 299.562,784.425 301.5,772.5C 312.272,769.781 321.939,764.947 330.5,758C 319.87,750.041 313.37,739.541 311,726.5C 307.602,710.123 307.769,693.789 311.5,677.5C 312.793,675.636 312.793,673.636 311.5,671.5C 310.893,671.624 310.56,671.957 310.5,672.5C 309.013,673.804 307.346,674.97 305.5,676C 298.059,677.01 291.059,675.843 284.5,672.5C 275.52,664.574 271.187,654.574 271.5,642.5C 272.908,618.525 282.242,598.358 299.5,582C 310.392,573.408 322.392,571.241 335.5,575.5C 336.947,576.885 337.947,576.552 338.5,574.5C 338.433,573.041 338.766,571.708 339.5,570.5C 340.757,569.377 340.424,568.711 338.5,568.5C 326.038,567.642 313.704,565.808 301.5,563C 279.858,557.675 258.525,551.341 237.5,544C 217.724,535.619 199.39,524.952 182.5,512C 179.629,509.297 176.962,506.464 174.5,503.5C 174.027,502.094 173.027,501.427 171.5,501.5C 155.808,488.291 146.475,471.458 143.5,451C 144.485,443.505 144.985,436.005 145,428.5C 139.772,431.396 134.272,432.062 128.5,430.5C 127.063,426.472 126.397,422.305 126.5,418C 128.512,388.142 139.012,361.642 158,338.5C 167.466,327.852 178.966,320.352 192.5,316C 198.537,315.303 204.537,315.47 210.5,316.5C 212.5,305.171 217.167,295.171 224.5,286.5C 225.906,286.027 226.573,285.027 226.5,283.5C 228.616,277.549 231.783,272.215 236,267.5C 246.355,255.578 258.188,245.412 271.5,237C 347.364,211.021 424.364,207.021 502.5,225C 512.956,228.227 522.956,232.56 532.5,238C 541.167,244.671 550.501,250.338 560.5,255C 562.476,258.463 564.81,261.63 567.5,264.5 Z"/></g>
<g><path style="opacity:1" fill="#29bf9b" d="M 587.5,310.5 C 586.895,306.028 588.561,303.028 592.5,301.5C 599.257,301.123 605.924,301.623 612.5,303C 623.41,307.12 633.41,312.787 642.5,320C 660.452,334.449 676.119,350.949 689.5,369.5C 691.14,388.025 682.807,395.525 664.5,392C 658.088,389.643 651.755,387.31 645.5,385C 648,386.833 650.5,388.667 653,390.5C 653.6,392.91 654.766,394.91 656.5,396.5C 658.725,400.235 661.558,403.568 665,406.5C 667.332,409.822 668.498,413.489 668.5,417.5C 666.958,428.041 664.458,438.374 661,448.5C 657,455.833 653,463.167 649,470.5C 636.03,485.726 620.863,498.226 603.5,508C 592.041,514.045 580.375,519.711 568.5,525C 543.32,532.284 518.32,539.95 493.5,548C 482.687,549.259 472.02,551.259 461.5,554C 447.882,555.731 434.215,556.898 420.5,557.5C 403.181,557.048 385.847,556.882 368.5,557C 353.791,555.323 339.125,553.323 324.5,551C 295.042,542.775 266.042,533.108 237.5,522C 214.876,512.026 194.21,499.026 175.5,483C 165.633,473.492 157.8,462.659 152,450.5C 151.501,445.845 151.334,441.179 151.5,436.5C 154.006,428.629 155.006,420.629 154.5,412.5C 153.817,412.863 153.15,413.196 152.5,413.5C 148.453,418.44 143.286,421.44 137,422.5C 134.013,422.01 132.18,420.343 131.5,417.5C 133.163,407.851 134.663,398.185 136,388.5C 140.728,378.044 145.728,367.711 151,357.5C 159.991,342.175 172.491,330.675 188.5,323C 197.005,320.179 205.672,319.679 214.5,321.5C 215.279,315.66 216.779,309.993 219,304.5C 225.667,293.833 232.333,283.167 239,272.5C 250.023,259.799 262.523,248.966 276.5,240C 327.954,223.758 380.621,217.091 434.5,220C 436.285,221.163 438.285,221.83 440.5,222C 464.689,222.932 488.356,226.932 511.5,234C 526.492,241.827 541.158,250.161 555.5,259C 568.676,270.184 576.51,284.351 579,301.5C 581.005,308.828 584.672,315.162 590,320.5C 589.506,317.164 588.672,313.831 587.5,310.5 Z"/></g>
<g><path style="opacity:0.725" fill="#7f7d7b" d="M 567.5,264.5 C 568.906,264.973 569.573,265.973 569.5,267.5C 568.094,267.027 567.427,266.027 567.5,264.5 Z"/></g>
<g><path style="opacity:0.545" fill="#807d7b" d="M 572.5,270.5 C 573.906,270.973 574.573,271.973 574.5,273.5C 573.094,273.027 572.427,272.027 572.5,270.5 Z"/></g>
<g><path style="opacity:0.486" fill="#817f7c" d="M 226.5,283.5 C 226.573,285.027 225.906,286.027 224.5,286.5C 224.427,284.973 225.094,283.973 226.5,283.5 Z"/></g>
<g><path style="opacity:1" fill="#258d7d" d="M 592.5,301.5 C 588.561,303.028 586.895,306.028 587.5,310.5C 585.98,308.11 584.98,305.443 584.5,302.5C 587.127,301.908 589.794,301.575 592.5,301.5 Z"/></g>
<g><path style="opacity:1" fill="#0a0e0c" d="M 618.5,337.5 C 624.632,343.789 631.299,349.623 638.5,355C 649.79,362.609 661.79,368.943 674.5,374C 677.242,375.886 678.909,378.386 679.5,381.5C 673.457,380.485 667.79,378.318 662.5,375C 649.168,367.333 636.668,358.499 625,348.5C 623,345.833 621,343.167 619,340.5C 618.517,339.552 618.351,338.552 618.5,337.5 Z"/></g>
<g><path style="opacity:1" fill="#239180" d="M 689.5,369.5 C 695.393,376.932 698.726,385.265 699.5,394.5C 693.023,397.562 686.19,398.895 679,398.5C 675.833,398.333 672.667,398.167 669.5,398C 665.09,396.449 660.757,394.949 656.5,393.5C 656.5,394.5 656.5,395.5 656.5,396.5C 654.766,394.91 653.6,392.91 653,390.5C 650.5,388.667 648,386.833 645.5,385C 651.755,387.31 658.088,389.643 664.5,392C 682.807,395.525 691.14,388.025 689.5,369.5 Z"/></g>
<g><path style="opacity:1" fill="#080d0c" d="M 147.5,382.5 C 148.993,383.312 149.66,384.645 149.5,386.5C 148.225,393.816 147.058,401.15 146,408.5C 144.374,411.128 142.374,413.461 140,415.5C 141.213,404.227 143.713,393.227 147.5,382.5 Z"/></g>
<g><path style="opacity:0.686" fill="#676562" d="M 703.5,385.5 C 704.924,387.515 705.59,389.848 705.5,392.5C 704.076,390.485 703.41,388.152 703.5,385.5 Z"/></g>
<g><path style="opacity:1" fill="#248f7f" d="M 152.5,413.5 C 149.619,421.965 143.619,426.631 134.5,427.5C 133.201,426.91 132.368,425.91 132,424.5C 131.503,422.19 131.337,419.857 131.5,417.5C 132.18,420.343 134.013,422.01 137,422.5C 143.286,421.44 148.453,418.44 152.5,413.5 Z"/></g>
<g><path style="opacity:1" fill="#229080" d="M 668.5,417.5 C 669.586,417.62 670.253,418.287 670.5,419.5C 672.505,428.85 674.505,438.183 676.5,447.5C 675.399,460.687 670.732,472.354 662.5,482.5C 657.167,487.167 652.167,492.167 647.5,497.5C 636.091,503.71 624.757,510.21 613.5,517C 594.28,523.296 575.614,530.963 557.5,540C 535.062,547.646 512.395,554.312 489.5,560C 464.818,564.023 439.984,566.523 415,567.5C 386.539,565.485 358.039,563.985 329.5,563C 288.931,556.527 250.265,544.193 213.5,526C 189.832,512.998 170.665,495.165 156,472.5C 149.589,460.938 148.089,448.938 151.5,436.5C 151.334,441.179 151.501,445.845 152,450.5C 157.8,462.659 165.633,473.492 175.5,483C 194.21,499.026 214.876,512.026 237.5,522C 266.042,533.108 295.042,542.775 324.5,551C 339.125,553.323 353.791,555.323 368.5,557C 385.847,556.882 403.181,557.048 420.5,557.5C 434.215,556.898 447.882,555.731 461.5,554C 472.02,551.259 482.687,549.259 493.5,548C 518.32,539.95 543.32,532.284 568.5,525C 580.375,519.711 592.041,514.045 603.5,508C 620.863,498.226 636.03,485.726 649,470.5C 653,463.167 657,455.833 661,448.5C 664.458,438.374 666.958,428.041 668.5,417.5 Z"/></g>
<g><path style="opacity:1" fill="#0d3631" d="M 662.5,482.5 C 658.5,488.5 653.5,493.5 647.5,497.5C 652.167,492.167 657.167,487.167 662.5,482.5 Z"/></g>
<g><path style="opacity:0.718" fill="#827f7d" d="M 171.5,501.5 C 173.027,501.427 174.027,502.094 174.5,503.5C 172.973,503.573 171.973,502.906 171.5,501.5 Z"/></g>
<g><path style="opacity:1" fill="#229080" d="M 478.5,672.5 C 485.91,678.441 494.243,679.941 503.5,677C 506.732,675.77 509.399,673.77 511.5,671C 512.5,670.333 513.5,670.333 514.5,671C 512.476,676.438 510.142,681.772 507.5,687C 510.833,689 514.167,689 517.5,687C 531.421,676.687 539.921,662.853 543,645.5C 544.038,633.747 540.205,623.913 531.5,616C 520.808,606.822 508.475,601.155 494.5,599C 490.5,598.333 486.5,598.333 482.5,599C 479.515,601.777 478.182,605.277 478.5,609.5C 479.213,614.311 480.547,618.978 482.5,623.5C 479.407,625.309 476.074,626.309 472.5,626.5C 472.923,625.735 473.257,624.902 473.5,624C 472.021,618.752 471.021,613.419 470.5,608C 470.59,604.806 471.59,601.973 473.5,599.5C 473.167,598.5 472.5,597.833 471.5,597.5C 469.364,598.472 468.197,600.139 468,602.5C 467.081,608.966 467.581,615.299 469.5,621.5C 458.98,625.321 450.48,631.654 444,640.5C 430.726,618.269 417.226,596.269 403.5,574.5C 414.63,572.841 425.963,571.841 437.5,571.5C 461.059,569.586 484.392,566.42 507.5,562C 519.747,573.585 532.58,584.418 546,594.5C 546.333,596.047 545.833,597.38 544.5,598.5C 548.847,601.371 552.014,605.371 554,610.5C 566.153,641.08 559.987,667.247 535.5,689C 525.224,698.136 513.224,702.136 499.5,701C 492.521,698.359 487.021,693.859 483,687.5C 480.383,682.817 478.883,677.817 478.5,672.5 Z"/></g>
<g><path style="opacity:0.118" fill="#c8c4c1" d="M 338.5,568.5 C 340.424,568.711 340.757,569.377 339.5,570.5C 339.167,569.833 338.833,569.167 338.5,568.5 Z"/></g>
<g><path style="opacity:1" fill="#29bf9b" d="M 341.5,624.5 C 340.876,624.917 340.543,625.584 340.5,626.5C 342.307,636.262 343.64,646.096 344.5,656C 344.554,658.873 343.888,661.54 342.5,664C 336.839,663.182 331.506,661.182 326.5,658C 319.953,652.954 314.286,647.12 309.5,640.5C 307.682,644.136 305.849,647.802 304,651.5C 296.56,654.165 290.893,651.832 287,644.5C 283.449,623.824 288.782,605.824 303,590.5C 307.998,584.965 313.498,580.298 319.5,576.5C 326.113,576.151 332.113,577.818 337.5,581.5C 337.712,583.384 338.712,584.717 340.5,585.5C 341.487,582.232 341.82,578.898 341.5,575.5C 342.216,573.444 342.883,571.277 343.5,569C 347.568,568.7 351.568,569.2 355.5,570.5C 348.593,587.894 343.926,605.894 341.5,624.5 Z"/></g>
<g><path style="opacity:1" fill="#7db8aa" d="M 360.5,674.5 C 365.636,683.259 371.636,691.426 378.5,699C 384.877,703.189 391.544,706.855 398.5,710C 417.349,716.655 424.849,710.155 421,690.5C 413.133,671.662 409.299,651.996 409.5,631.5C 398.974,626.785 387.974,624.118 376.5,623.5C 367.747,622.705 360.081,625.039 353.5,630.5C 351.127,627.469 348.794,624.469 346.5,621.5C 349.487,606.708 352.987,592.041 357,577.5C 357.93,575.064 359.097,572.731 360.5,570.5C 364.795,569.339 369.129,569.172 373.5,570C 381.953,570.635 390.287,571.801 398.5,573.5C 412.833,597.5 427.167,621.5 441.5,645.5C 436.166,659.522 436.333,673.522 442,687.5C 449.259,695.897 458.426,699.063 469.5,697C 472.798,696.513 475.798,695.347 478.5,693.5C 480.786,693.96 482.119,695.293 482.5,697.5C 479.29,719.151 479.957,740.651 484.5,762C 484.167,762.5 483.833,763 483.5,763.5C 454.121,772.925 425.787,770.425 398.5,756C 385.188,748.027 373.021,738.527 362,727.5C 358.333,721.833 354.667,716.167 351,710.5C 348.591,702.618 346.757,694.618 345.5,686.5C 351.447,683.692 356.447,679.692 360.5,674.5 Z"/></g>
<g><path style="opacity:1" fill="#0d3530" d="M 437.5,571.5 C 425.963,571.841 414.63,572.841 403.5,574.5C 402.596,573.791 402.263,572.791 402.5,571.5C 414.167,571.5 425.833,571.5 437.5,571.5 Z"/></g>
<g><path style="opacity:0.553" fill="#918f8c" d="M 338.5,574.5 C 337.947,576.552 336.947,576.885 335.5,575.5C 336.609,575.443 337.609,575.11 338.5,574.5 Z"/></g>
<g><path style="opacity:1" fill="#216b59" d="M 341.5,575.5 C 341.82,578.898 341.487,582.232 340.5,585.5C 338.712,584.717 337.712,583.384 337.5,581.5C 338.458,581.953 339.292,582.619 340,583.5C 340.183,580.635 340.683,577.969 341.5,575.5 Z"/></g>
<g><path style="opacity:1" fill="#229080" d="M 319.5,576.5 C 313.498,580.298 307.998,584.965 303,590.5C 288.782,605.824 283.449,623.824 287,644.5C 290.893,651.832 296.56,654.165 304,651.5C 305.849,647.802 307.682,644.136 309.5,640.5C 314.286,647.12 319.953,652.954 326.5,658C 331.506,661.182 336.839,663.182 342.5,664C 343.888,661.54 344.554,658.873 344.5,656C 343.64,646.096 342.307,636.262 340.5,626.5C 340.543,625.584 340.876,624.917 341.5,624.5C 343.341,627.86 345.841,630.86 349,633.5C 356.123,645.314 358.79,657.981 357,671.5C 347.754,683.243 336.587,685.409 323.5,678C 320.61,676.062 317.944,673.895 315.5,671.5C 315.325,667.14 315.325,662.806 315.5,658.5C 312.383,663.451 308.383,667.618 303.5,671C 299.152,671.238 294.819,670.905 290.5,670C 278.528,660.766 274.028,648.599 277,633.5C 280.837,610.292 292.337,592.125 311.5,579C 313.909,577.293 316.575,576.46 319.5,576.5 Z"/></g>
<g><path style="opacity:1" fill="#29bf9b" d="M 478.5,672.5 C 478.817,669.428 478.484,666.428 477.5,663.5C 476.056,665.608 475.39,667.941 475.5,670.5C 473.625,679.348 467.958,684.015 458.5,684.5C 453.558,684.071 449.725,681.738 447,677.5C 444.588,674.01 442.755,670.343 441.5,666.5C 441.688,651.961 447.354,640.127 458.5,631C 463.181,629.138 467.848,627.638 472.5,626.5C 476.074,626.309 479.407,625.309 482.5,623.5C 480.547,618.978 479.213,614.311 478.5,609.5C 478.182,605.277 479.515,601.777 482.5,599C 486.5,598.333 490.5,598.333 494.5,599C 508.475,601.155 520.808,606.822 531.5,616C 540.205,623.913 544.038,633.747 543,645.5C 539.921,662.853 531.421,676.687 517.5,687C 514.167,689 510.833,689 507.5,687C 510.142,681.772 512.476,676.438 514.5,671C 513.5,670.333 512.5,670.333 511.5,671C 509.399,673.77 506.732,675.77 503.5,677C 494.243,679.941 485.91,678.441 478.5,672.5 Z"/></g>
<g><path style="opacity:1" fill="#29bf9b" d="M 598.5,692.5 C 599.49,721.091 590.49,745.924 571.5,767C 560.734,776.049 548.4,781.882 534.5,784.5C 518.075,781.578 507.908,771.912 504,755.5C 503.528,748.944 502.695,742.444 501.5,736C 501.833,734.167 502.167,732.333 502.5,730.5C 514.579,739.962 527.245,740.796 540.5,733C 553.445,722.257 561.612,708.757 565,692.5C 565.483,680.641 566.316,668.808 567.5,657C 567.12,651.981 566.454,647.148 565.5,642.5C 565.039,628.701 561.705,615.701 555.5,603.5C 556.002,602.479 556.668,602.312 557.5,603C 571.596,617.015 581.763,633.515 588,652.5C 592.713,665.589 596.213,678.922 598.5,692.5 Z"/></g>
<g><path style="opacity:1" fill="#97d9cf" d="M 360.5,674.5 C 363.081,665.176 362.914,655.842 360,646.5C 358.097,641.032 355.93,635.699 353.5,630.5C 360.081,625.039 367.747,622.705 376.5,623.5C 387.974,624.118 398.974,626.785 409.5,631.5C 409.299,651.996 413.133,671.662 421,690.5C 424.849,710.155 417.349,716.655 398.5,710C 391.544,706.855 384.877,703.189 378.5,699C 371.636,691.426 365.636,683.259 360.5,674.5 Z"/></g>
<g><path style="opacity:1" fill="#229080" d="M 565.5,642.5 C 566.454,647.148 567.12,651.981 567.5,657C 566.316,668.808 565.483,680.641 565,692.5C 561.612,708.757 553.445,722.257 540.5,733C 527.245,740.796 514.579,739.962 502.5,730.5C 502.167,732.333 501.833,734.167 501.5,736C 502.695,742.444 503.528,748.944 504,755.5C 507.908,771.912 518.075,781.578 534.5,784.5C 548.4,781.882 560.734,776.049 571.5,767C 590.49,745.924 599.49,721.091 598.5,692.5C 603.674,717.432 599.507,740.766 586,762.5C 585.175,764.701 585.675,766.534 587.5,768C 598.616,767.367 607.783,771.2 615,779.5C 618.98,786.624 623.814,793.124 629.5,799C 632.371,800.935 635.371,802.601 638.5,804C 627.231,809.772 615.231,812.105 602.5,811C 601.427,814.112 601.427,817.279 602.5,820.5C 584.783,820.736 567.116,819.903 549.5,818C 516.667,809.167 495.833,788.333 487,755.5C 483.667,736.833 483.667,718.167 487,699.5C 491.793,704.268 497.627,706.601 504.5,706.5C 533.083,702.106 551.916,686.106 561,658.5C 562.256,653.552 563.256,648.552 564,643.5C 564.383,642.944 564.883,642.611 565.5,642.5 Z"/></g>
<g><path style="opacity:0.18" fill="#a19e9b" d="M 310.5,672.5 C 310.56,671.957 310.893,671.624 311.5,671.5C 312.793,673.636 312.793,675.636 311.5,677.5C 311.784,675.585 311.451,673.919 310.5,672.5 Z"/></g>
<g><path style="opacity:1" fill="#228f7f" d="M 441.5,666.5 C 442.755,670.343 444.588,674.01 447,677.5C 449.725,681.738 453.558,684.071 458.5,684.5C 467.958,684.015 473.625,679.348 475.5,670.5C 475.435,676.617 475.935,682.617 477,688.5C 475.681,690.487 473.848,691.654 471.5,692C 450.998,695.91 440.998,687.41 441.5,666.5 Z"/></g>
<g><path style="opacity:1" fill="#228f80" d="M 352.5,720.5 C 351.542,720.047 350.708,719.381 350,718.5C 349,720.5 348,722.5 347,724.5C 338.32,720.657 330.654,715.324 324,708.5C 322.417,720.502 325.084,731.502 332,741.5C 338.772,748.117 345.939,754.117 353.5,759.5C 344.842,759.336 337.175,756.503 330.5,751C 327.333,747.167 324.167,743.333 321,739.5C 312.829,719.59 311.496,699.257 317,678.5C 323.898,685.032 332.065,687.698 341.5,686.5C 342.041,694.666 343.541,702.666 346,710.5C 348.143,713.962 350.31,717.296 352.5,720.5 Z"/></g>
<g><path style="opacity:1" fill="#29bf9b" d="M 352.5,720.5 C 354.344,724.192 356.677,727.525 359.5,730.5C 361.833,734.833 365.167,738.167 369.5,740.5C 372.027,742.605 374.36,744.939 376.5,747.5C 379.123,754.311 382.457,760.811 386.5,767C 376.625,767.76 367.292,765.927 358.5,761.5C 356.95,760.559 355.284,759.893 353.5,759.5C 345.939,754.117 338.772,748.117 332,741.5C 325.084,731.502 322.417,720.502 324,708.5C 330.654,715.324 338.32,720.657 347,724.5C 348,722.5 349,720.5 350,718.5C 350.708,719.381 351.542,720.047 352.5,720.5 Z"/></g>
<g><path style="opacity:1" fill="#165545" d="M 359.5,730.5 C 363.167,733.5 366.5,736.833 369.5,740.5C 365.167,738.167 361.833,734.833 359.5,730.5 Z"/></g>
<g><path style="opacity:1" fill="#229080" d="M 376.5,747.5 C 382.599,751.083 388.599,754.917 394.5,759C 400.94,762.554 407.607,765.554 414.5,768C 415.554,769.388 415.72,770.888 415,772.5C 404.324,788.934 389.157,798.434 369.5,801C 361.218,803.53 352.885,803.864 344.5,802C 352.628,796.206 359.795,789.373 366,781.5C 366.612,779.763 365.946,778.763 364,778.5C 361.373,779.634 359.207,781.3 357.5,783.5C 358.547,780.404 359.88,777.404 361.5,774.5C 351.183,771.672 341.017,768.339 331,764.5C 329.862,764.989 328.695,765.322 327.5,765.5C 330.385,763.969 333.052,761.969 335.5,759.5C 342.062,762.14 348.729,764.474 355.5,766.5C 356.442,766.392 357.275,766.059 358,765.5C 357.645,764.041 357.811,762.707 358.5,761.5C 367.292,765.927 376.625,767.76 386.5,767C 382.457,760.811 379.123,754.311 376.5,747.5 Z"/></g>
<g><path style="opacity:0.039" fill="#d7d3cf" d="M 593.5,762.5 C 594.5,763.167 595.5,763.833 596.5,764.5C 594.801,764.66 593.134,764.494 591.5,764C 592.044,763.283 592.711,762.783 593.5,762.5 Z"/></g>
<g><path style="opacity:1" fill="#29be9a" d="M 357.5,783.5 C 343.133,791.218 328.133,792.552 312.5,787.5C 311.089,785.086 309.089,783.419 306.5,782.5C 305.532,780.393 305.198,778.059 305.5,775.5C 313.871,774.312 321.205,770.979 327.5,765.5C 328.695,765.322 329.862,764.989 331,764.5C 341.017,768.339 351.183,771.672 361.5,774.5C 359.88,777.404 358.547,780.404 357.5,783.5 Z"/></g>
<g><path style="opacity:1" fill="#28be9b" d="M 577.5,780.5 C 592.442,778.021 604.942,782.354 615,793.5C 615.688,794.332 615.521,794.998 614.5,795.5C 607.333,800.626 599.333,802.959 590.5,802.5C 590.692,805.601 591.358,808.601 592.5,811.5C 587.462,812.33 582.795,811.164 578.5,808C 572.243,803.287 566.076,798.454 560,793.5C 558.148,790.653 558.648,788.153 561.5,786C 566.844,783.841 572.177,782.008 577.5,780.5 Z"/></g>
<g><path style="opacity:1" fill="#1d6553" d="M 306.5,782.5 C 309.089,783.419 311.089,785.086 312.5,787.5C 309.911,786.581 307.911,784.914 306.5,782.5 Z"/></g>
<g><path style="opacity:0.165" fill="#b0aca9" d="M 344.5,796.5 C 344.5,795.833 344.167,795.5 343.5,795.5C 344.943,794.297 346.609,793.797 348.5,794C 347.307,795.095 345.973,795.928 344.5,796.5 Z"/></g>
<g><path style="opacity:0.282" fill="#afaba8" d="M 619.5,814.5 C 615.232,814.869 611.232,815.869 607.5,817.5C 606.596,816.791 606.263,815.791 606.5,814.5C 610.833,814.5 615.167,814.5 619.5,814.5 Z"/></g>

        
<g><path style="opacity:0.99" fill="#0d0d0c" d="M 491.5,399.5 C 488.373,390.073 487.207,380.406 488,370.5C 493.707,351.6 504.873,336.767 521.5,326C 529.79,320.847 538.79,318.014 548.5,317.5C 553.844,317.666 559.177,317.499 564.5,317C 563.956,316.283 563.289,315.783 562.5,315.5C 543.882,300.011 522.382,291.678 498,290.5C 490.519,289.916 483.352,291.082 476.5,294C 467.781,294.352 459.781,297.019 452.5,302C 448.062,306.439 443.062,310.106 437.5,313C 426.246,324.92 417.412,338.42 411,353.5C 410.725,371 417.225,385.5 430.5,397C 436.108,400.276 441.442,403.943 446.5,408C 453.054,411.537 460.054,413.37 467.5,413.5C 461.67,418.019 455.336,418.686 448.5,415.5C 448.027,414.094 447.027,413.427 445.5,413.5C 443.46,411.823 441.46,410.156 439.5,408.5C 439.027,407.094 438.027,406.427 436.5,406.5C 436.027,405.094 435.027,404.427 433.5,404.5C 431.566,403.89 429.899,402.89 428.5,401.5C 428.027,400.094 427.027,399.427 425.5,399.5C 418.88,393.601 413.713,386.601 410,378.5C 406.877,399.48 395.71,405.313 376.5,396C 373.568,392.395 370.068,389.561 366,387.5C 362.461,389.2 359.794,391.867 358,395.5C 348.298,401.028 339.298,400.028 331,392.5C 329.096,389.077 328.263,385.41 328.5,381.5C 328.34,379.847 327.674,378.514 326.5,377.5C 325.596,376.791 325.263,375.791 325.5,374.5C 325.785,372.712 325.452,371.045 324.5,369.5C 323.614,370.325 323.281,371.325 323.5,372.5C 319.576,387.848 311.909,401.015 300.5,412C 297.294,414.034 293.96,415.867 290.5,417.5C 287.941,416.392 285.608,415.059 283.5,413.5C 293.172,410.41 301.005,404.744 307,396.5C 313.986,386.753 318.486,375.92 320.5,364C 319.275,355.717 315.775,348.55 310,342.5C 305.854,331.015 298.687,321.848 288.5,315C 280.952,312.433 273.619,309.433 266.5,306C 242.475,304.844 224.809,314.844 213.5,336C 239.356,338.522 258.189,351.355 270,374.5C 276.027,385.384 278.193,397.051 276.5,409.5C 271.718,406.601 267.051,403.434 262.5,400C 244.46,389.359 225.127,385.859 204.5,389.5C 199.943,380.073 198.443,370.073 200,359.5C 201.081,348.03 204.914,337.697 211.5,328.5C 212.906,328.027 213.573,327.027 213.5,325.5C 213.783,305.751 221.117,288.917 235.5,275C 242.164,270.005 249.497,266.338 257.5,264C 268.382,263.052 277.716,266.386 285.5,274C 309.981,294.926 323.981,321.426 327.5,353.5C 336.02,355.759 344.353,358.592 352.5,362C 357.986,362.927 363.486,363.76 369,364.5C 376.968,362.671 384.968,361.337 393,360.5C 395.093,361.246 397.093,361.579 399,361.5C 395.196,337.601 398.196,314.601 408,292.5C 410.985,287.689 414.485,283.356 418.5,279.5C 419.906,279.027 420.573,278.027 420.5,276.5C 431.962,266.925 444.629,259.091 458.5,253C 510.456,235.392 544.289,252.559 560,304.5C 580.639,319.759 586.305,339.425 577,363.5C 574.366,369.272 570.866,374.439 566.5,379C 540.258,381.247 515.258,388.08 491.5,399.5 Z"/></g>
<g><path style="opacity:1" fill="#1b1b1b" d="M 491.5,251.5 C 512.005,251.336 528.505,259.336 541,275.5C 545.694,283.554 549.861,291.888 553.5,300.5C 553.167,300.833 552.833,301.167 552.5,301.5C 517.98,279.718 482.98,278.885 447.5,299C 444.215,302.973 440.215,305.973 435.5,308C 425.414,318.343 416.914,329.843 410,342.5C 406.414,349.494 405.08,356.827 406,364.5C 405.255,362.797 404.421,361.13 403.5,359.5C 403.063,345.559 403.563,331.559 405,317.5C 407.148,302.37 413.648,289.537 424.5,279C 432.5,273.667 440.5,268.333 448.5,263C 462.09,255.855 476.423,252.021 491.5,251.5 Z"/></g>
<g><path style="opacity:1" fill="#1b1b1b" d="M 256.5,269.5 C 263.905,268.705 270.571,270.539 276.5,275C 296.955,290.782 311.122,310.949 319,335.5C 320.328,340.457 320.994,345.457 321,350.5C 316.333,341.833 311.667,333.167 307,324.5C 302.468,319.633 297.634,315.133 292.5,311C 282.442,305.884 271.942,302.051 261,299.5C 244.754,300.462 231.087,306.795 220,318.5C 222.473,294.866 234.64,278.532 256.5,269.5 Z"/></g>
<g><path style="opacity:0.529" fill="#82827b" d="M 420.5,276.5 C 420.573,278.027 419.906,279.027 418.5,279.5C 418.427,277.973 419.094,276.973 420.5,276.5 Z"/></g>
<g><path style="opacity:0.998" fill="#f5f4e7" d="M 562.5,315.5 C 557.833,316.167 553.167,316.833 548.5,317.5C 538.79,318.014 529.79,320.847 521.5,326C 504.873,336.767 493.707,351.6 488,370.5C 487.207,380.406 488.373,390.073 491.5,399.5C 483.472,404.178 475.472,408.845 467.5,413.5C 460.054,413.37 453.054,411.537 446.5,408C 441.442,403.943 436.108,400.276 430.5,397C 417.225,385.5 410.725,371 411,353.5C 417.412,338.42 426.246,324.92 437.5,313C 443.062,310.106 448.062,306.439 452.5,302C 459.781,297.019 467.781,294.352 476.5,294C 483.352,291.082 490.519,289.916 498,290.5C 522.382,291.678 543.882,300.011 562.5,315.5 Z"/></g>
<g><path style="opacity:0.999" fill="#f5f4e7" d="M 283.5,413.5 C 280.669,412.921 278.336,411.588 276.5,409.5C 278.193,397.051 276.027,385.384 270,374.5C 258.189,351.355 239.356,338.522 213.5,336C 224.809,314.844 242.475,304.844 266.5,306C 273.619,309.433 280.952,312.433 288.5,315C 298.687,321.848 305.854,331.015 310,342.5C 315.775,348.55 319.275,355.717 320.5,364C 318.486,375.92 313.986,386.753 307,396.5C 301.005,404.744 293.172,410.41 283.5,413.5 Z"/></g>
<g><path style="opacity:1" fill="#6e6e68" d="M 562.5,315.5 C 563.289,315.783 563.956,316.283 564.5,317C 559.177,317.499 553.844,317.666 548.5,317.5C 553.167,316.833 557.833,316.167 562.5,315.5 Z"/></g>
<g><path style="opacity:0.506" fill="#808079" d="M 213.5,325.5 C 213.573,327.027 212.906,328.027 211.5,328.5C 211.427,326.973 212.094,325.973 213.5,325.5 Z"/></g>
<g><path style="opacity:1" fill="#1b1b1b" d="M 327.5,359.5 C 338.316,363.238 349.316,366.404 360.5,369C 365.833,369.667 371.167,369.667 376.5,369C 383.809,367.503 391.143,366.503 398.5,366C 404.726,372.015 406.226,379.182 403,387.5C 399.871,394.148 394.704,396.648 387.5,395C 381.182,393.689 376.182,390.356 372.5,385C 367.996,381.538 363.663,381.704 359.5,385.5C 357.294,388.203 354.961,390.703 352.5,393C 348.5,393.667 344.5,393.667 340.5,393C 338.376,391.878 336.543,390.378 335,388.5C 332.025,378.933 329.525,369.266 327.5,359.5 Z"/></g>
<g><path style="opacity:1" fill="#5c5c57" d="M 325.5,374.5 C 324.833,373.833 324.167,373.167 323.5,372.5C 323.281,371.325 323.614,370.325 324.5,369.5C 325.452,371.045 325.785,372.712 325.5,374.5 Z"/></g>
<g><path style="opacity:0.4" fill="#97968e" d="M 326.5,377.5 C 327.674,378.514 328.34,379.847 328.5,381.5C 326.896,380.713 326.229,379.38 326.5,377.5 Z"/></g>
<g><path style="opacity:0.012" fill="#000000" d="M 549.5,383.5 C 550.833,384.167 550.833,384.167 549.5,383.5 Z"/></g>
<g><path style="opacity:0.02" fill="#000000" d="M 545.5,384.5 C 546.833,385.167 546.833,385.167 545.5,384.5 Z"/></g>
<g><path style="opacity:0.022" fill="#000000" d="M 541.5,386.5 C 541.897,385.475 542.563,385.308 543.5,386C 542.906,386.464 542.239,386.631 541.5,386.5 Z"/></g>
<g><path style="opacity:0.018" fill="#000000" d="M 538.5,387.5 C 538.897,386.475 539.563,386.308 540.5,387C 539.906,387.464 539.239,387.631 538.5,387.5 Z"/></g>
<g><path style="opacity:0.016" fill="#000000" d="M 534.5,388.5 C 534.897,387.475 535.563,387.308 536.5,388C 535.906,388.464 535.239,388.631 534.5,388.5 Z"/></g>
<g><path style="opacity:0.012" fill="#000000" d="M 530.5,389.5 C 530.897,388.475 531.563,388.308 532.5,389C 531.906,389.464 531.239,389.631 530.5,389.5 Z"/></g>
<g><path style="opacity:0.04" fill="#000000" d="M 226.5,391.5 C 228.103,391.312 229.437,391.812 230.5,393C 228.167,393.667 225.833,393.667 223.5,393C 224.737,392.768 225.737,392.268 226.5,391.5 Z"/></g>
<g><path style="opacity:0.042" fill="#000000" d="M 210.5,393.5 C 211.946,392.387 213.613,392.22 215.5,393C 213.866,393.494 212.199,393.66 210.5,393.5 Z"/></g>
<g><path style="opacity:0.016" fill="#000000" d="M 233.5,392.5 C 234.833,393.167 234.833,393.167 233.5,392.5 Z"/></g>
<g><path style="opacity:0.012" fill="#000000" d="M 236.5,394.5 C 236.897,393.475 237.563,393.308 238.5,394C 237.906,394.464 237.239,394.631 236.5,394.5 Z"/></g>
<g><path style="opacity:0.016" fill="#000000" d="M 239.5,395.5 C 239.897,394.475 240.563,394.308 241.5,395C 240.906,395.464 240.239,395.631 239.5,395.5 Z"/></g>
<g><path style="opacity:0.012" fill="#000000" d="M 242.5,395.5 C 243.833,396.167 243.833,396.167 242.5,395.5 Z"/></g>
<g><path style="opacity:0.016" fill="#000000" d="M 245.5,396.5 C 246.833,397.167 246.833,397.167 245.5,396.5 Z"/></g>
<g><path style="opacity:0.012" fill="#000000" d="M 247.5,397.5 C 248.833,398.167 248.833,398.167 247.5,397.5 Z"/></g>
<g><path style="opacity:0.02" fill="#000000" d="M 250.5,398.5 C 251.833,399.167 251.833,399.167 250.5,398.5 Z"/></g>
<g><path style="opacity:0.02" fill="#000000" d="M 252.5,399.5 C 253.833,400.167 253.833,400.167 252.5,399.5 Z"/></g>
<g><path style="opacity:0.012" fill="#000000" d="M 254.5,400.5 C 255.833,401.167 255.833,401.167 254.5,400.5 Z"/></g>
<g><path style="opacity:0.529" fill="#7c7b75" d="M 425.5,399.5 C 427.027,399.427 428.027,400.094 428.5,401.5C 426.973,401.573 425.973,400.906 425.5,399.5 Z"/></g>
<g><path style="opacity:0.529" fill="#7c7b75" d="M 433.5,404.5 C 435.027,404.427 436.027,405.094 436.5,406.5C 434.973,406.573 433.973,405.906 433.5,404.5 Z"/></g>
<g><path style="opacity:0.545" fill="#7a7a73" d="M 436.5,406.5 C 438.027,406.427 439.027,407.094 439.5,408.5C 437.973,408.573 436.973,407.906 436.5,406.5 Z"/></g>
<g><path style="opacity:0.529" fill="#7f7f78" d="M 445.5,413.5 C 447.027,413.427 448.027,414.094 448.5,415.5C 446.973,415.573 445.973,414.906 445.5,413.5 Z"/></g>

        
<g><path style="opacity:0.993" fill="#20201e" d="M 591.5,350.5 C 590.89,349.609 590.557,348.609 590.5,347.5C 598.093,347.538 604.593,350.538 610,356.5C 612.002,361.007 613.502,365.674 614.5,370.5C 614.02,374.293 612.353,377.46 609.5,380C 604.5,382.333 599.5,384.667 594.5,387C 582.992,386.084 571.492,384.917 560,383.5C 549.575,383.44 539.575,385.44 530,389.5C 529.099,405.656 527.099,421.656 524,437.5C 515.846,455.806 507.18,473.806 498,491.5C 496.381,493.772 494.548,495.772 492.5,497.5C 491.558,497.392 490.725,497.059 490,496.5C 490.124,476.86 487.791,457.527 483,438.5C 480.491,430.264 476.491,422.931 471,416.5C 465.075,419.213 459.241,422.046 453.5,425C 421.871,432.862 390.038,434.695 358,430.5C 338.546,433.337 319.379,432.004 300.5,426.5C 296.372,429.29 293.372,432.957 291.5,437.5C 286.174,448.647 282.34,460.313 280,472.5C 279.983,480.544 279.816,488.544 279.5,496.5C 278.448,498.256 276.781,498.923 274.5,498.5C 263.666,480.855 255.833,461.855 251,441.5C 248.471,427.539 249.971,414.039 255.5,401C 246.898,396.699 237.898,393.532 228.5,391.5C 218.197,392.724 207.863,393.224 197.5,393C 182.147,389.146 173.647,379.313 172,363.5C 171.333,358.833 171.333,354.167 172,349.5C 172.036,347.059 172.869,345.059 174.5,343.5C 175.086,343.709 175.586,344.043 176,344.5C 175.529,355.347 177.529,365.681 182,375.5C 187.543,382.974 195.043,386.974 204.5,387.5C 232.498,383.446 257.164,390.613 278.5,409C 291.714,416.182 305.714,421.182 320.5,424C 344.953,424.754 369.453,425.587 394,426.5C 413.476,426.449 432.642,423.949 451.5,419C 468.5,410 485.5,401 502.5,392C 517.586,386.527 532.92,381.86 548.5,378C 556.5,377.333 564.5,377.333 572.5,378C 579.063,379.986 585.73,380.986 592.5,381C 596.749,378.806 601.082,376.806 605.5,375C 606.872,373.758 607.872,372.258 608.5,370.5C 607.098,366.461 605.598,362.461 604,358.5C 599.684,355.934 595.517,353.267 591.5,350.5 Z"/></g>
<g><path style="opacity:0.408" fill="#9b9b93" d="M 590.5,347.5 C 590.557,348.609 590.89,349.609 591.5,350.5C 589.448,349.947 589.115,348.947 590.5,347.5 Z"/></g>
<g><path style="opacity:1" fill="#f3f2e5" d="M 523.5,390.5 C 524.649,390.791 525.316,391.624 525.5,393C 523.612,406.547 521.446,420.047 519,433.5C 511.787,450.924 503.787,467.924 495,484.5C 495.151,468.559 493.151,452.892 489,437.5C 485.392,429.112 480.892,421.278 475.5,414C 481.968,408.926 488.968,404.593 496.5,401C 505.492,397.175 514.492,393.675 523.5,390.5 Z"/></g>
<g><path style="opacity:1" fill="#f3f2e5" d="M 259.5,403.5 C 270.581,412.379 282.915,419.212 296.5,424C 280.894,441.812 273.394,462.645 274,486.5C 266.227,471.515 260.227,455.848 256,439.5C 254.469,427.135 255.636,415.135 259.5,403.5 Z"/></g>
<g><path style="opacity:0.751" fill="#e9e8dc" d="M 300.5,426.5 C 300.046,432.284 297.046,435.951 291.5,437.5C 293.372,432.957 296.372,429.29 300.5,426.5 Z"/></g>
<g><path style="opacity:0.796" fill="#62625d" d="M 279.5,496.5 C 280.404,497.209 280.737,498.209 280.5,499.5C 278.265,499.795 276.265,499.461 274.5,498.5C 276.781,498.923 278.448,498.256 279.5,496.5 Z"/></g>

        
<g><path style="opacity:0.995" fill="#1c1c1b" d="M 307.5,214.5 C 308.002,216.085 309.002,216.585 310.5,216C 309.934,215.005 309.267,214.172 308.5,213.5C 299.902,191.41 300.736,169.743 311,148.5C 322.522,132.273 327.855,133.94 327,153.5C 327.714,156.595 328.714,159.595 330,162.5C 335.333,171.167 340.667,179.833 346,188.5C 341.215,161.413 349.049,138.913 369.5,121C 370.793,120.51 372.127,120.343 373.5,120.5C 374.829,127.793 375.995,135.127 377,142.5C 380.222,149.499 382.222,156.833 383,164.5C 385.41,170.318 388.077,175.985 391,181.5C 397.794,189.963 404.961,198.13 412.5,206C 415.772,207.608 418.772,209.608 421.5,212C 431.547,215.509 441.88,217.842 452.5,219C 453.846,221.794 453.346,224.294 451,226.5C 428.926,226.652 407.76,231.152 387.5,240C 377.184,246.129 370.351,254.962 367,266.5C 358.544,273.768 348.71,277.934 337.5,279C 289.856,282.691 268.69,260.858 274,213.5C 276.226,202.052 280.393,191.385 286.5,181.5C 287.651,180.269 288.817,180.269 290,181.5C 292.172,194.514 298.005,205.514 307.5,214.5 Z"/></g>
<g><path style="opacity:1" fill="#dcdbce" d="M 371.5,145.5 C 370.883,145.611 370.383,145.944 370,146.5C 369.751,145.376 369.251,144.376 368.5,143.5C 363.262,150.262 360.095,157.929 359,166.5C 358.389,179.845 358.556,193.178 359.5,206.5C 352.856,206.243 346.523,204.743 340.5,202C 332.86,191.218 325.86,180.051 319.5,168.5C 315.654,173.496 314.488,179.162 316,185.5C 318.255,198.521 321.755,211.188 326.5,223.5C 325.696,225.136 324.696,226.636 323.5,228C 318.833,228.667 314.167,228.667 309.5,228C 302.456,224.596 295.456,221.096 288.5,217.5C 287.122,224.294 287.622,230.96 290,237.5C 293.412,244.658 297.078,251.658 301,258.5C 305.31,262.645 309.477,266.978 313.5,271.5C 318.11,272.493 322.777,273.16 327.5,273.5C 301.094,275.527 284.927,263.527 279,237.5C 276.762,221.795 279.596,207.129 287.5,193.5C 291.671,203.845 298.004,212.678 306.5,220C 310.275,222.351 313.608,221.851 316.5,218.5C 313.264,213.631 311.097,208.297 310,202.5C 307.722,190.183 307.388,177.85 309,165.5C 311.037,157.755 314.87,151.088 320.5,145.5C 322.091,155.767 325.591,165.434 331,174.5C 335.454,179.628 339.121,185.295 342,191.5C 344.247,194.509 346.581,194.842 349,192.5C 349.899,181.514 350.566,170.514 351,159.5C 353.401,147.369 359.401,137.369 369,129.5C 370.234,134.767 371.067,140.1 371.5,145.5 Z"/></g>
<g><path style="opacity:1" fill="#f5f4e7" d="M 371.5,145.5 C 374.821,152.817 376.987,160.484 378,168.5C 380,173.167 382,177.833 384,182.5C 389.814,188.802 395.147,195.468 400,202.5C 410.041,214.534 422.875,221.367 438.5,223C 418.956,223.801 400.623,228.801 383.5,238C 379.033,241.465 374.867,245.298 371,249.5C 370.055,245.886 369.388,242.219 369,238.5C 368.311,237.643 367.478,236.977 366.5,236.5C 365.669,243.476 365.169,250.476 365,257.5C 364.3,261.066 362.467,263.9 359.5,266C 349.492,271.336 338.825,273.836 327.5,273.5C 322.777,273.16 318.11,272.493 313.5,271.5C 309.477,266.978 305.31,262.645 301,258.5C 297.078,251.658 293.412,244.658 290,237.5C 287.622,230.96 287.122,224.294 288.5,217.5C 295.456,221.096 302.456,224.596 309.5,228C 314.167,228.667 318.833,228.667 323.5,228C 324.696,226.636 325.696,225.136 326.5,223.5C 321.755,211.188 318.255,198.521 316,185.5C 314.488,179.162 315.654,173.496 319.5,168.5C 325.86,180.051 332.86,191.218 340.5,202C 346.523,204.743 352.856,206.243 359.5,206.5C 358.556,193.178 358.389,179.845 359,166.5C 360.095,157.929 363.262,150.262 368.5,143.5C 369.251,144.376 369.751,145.376 370,146.5C 370.383,145.944 370.883,145.611 371.5,145.5 Z"/></g>
<g><path style="opacity:1" fill="#84847d" d="M 308.5,213.5 C 309.267,214.172 309.934,215.005 310.5,216C 309.002,216.585 308.002,216.085 307.5,214.5C 308.167,214.5 308.5,214.167 308.5,213.5 Z"/></g>

    </svg>
