
    <svg width="862" height="862" viewBox="0 0 862 862" fill="none" xmlns="http://www.w3.org/2000/svg">
        
<g><path style="opacity:1" fill="#f6f6e8" d="M -0.5,-0.5 C 286.833,-0.5 574.167,-0.5 861.5,-0.5C 861.5,286.833 861.5,574.167 861.5,861.5C 574.167,861.5 286.833,861.5 -0.5,861.5C -0.5,574.167 -0.5,286.833 -0.5,-0.5 Z"/></g>

        
        
<g><path style="opacity:0.992" fill="#030b0b" d="M 427.5,213.5 C 431.015,214.239 434.348,214.239 437.5,213.5C 457.44,207.685 476.773,200.185 495.5,191C 517.431,177.874 538.097,163.04 557.5,146.5C 559.749,145.92 561.415,144.587 562.5,142.5C 564.5,139.833 566.833,137.5 569.5,135.5C 572.427,134.243 574.761,132.243 576.5,129.5C 590.233,116.27 603.066,102.27 615,87.5C 624.918,71.1912 634.251,55.5245 643,40.5C 645.745,49.4667 647.578,58.6334 648.5,68C 647.312,78.9407 645.479,89.7741 643,100.5C 635.941,126.678 628.274,152.678 620,178.5C 611.784,195.598 604.117,212.931 597,230.5C 591.559,238.38 586.892,246.714 583,255.5C 579.213,260.956 575.046,266.123 570.5,271C 547.78,274.587 525.113,274.253 502.5,270C 475.47,261.573 451.97,247.407 432,227.5C 428.906,223.067 427.406,218.4 427.5,213.5 Z"/></g>
<g><path style="opacity:1" fill="#004844" d="M 640.5,80.5 C 639.801,78.444 638.801,76.444 637.5,74.5C 638.833,73.5 638.833,72.5 637.5,71.5C 638.025,70.8076 638.692,70.3076 639.5,70C 638.669,68.1078 637.669,66.2744 636.5,64.5C 637.989,62.1949 639.489,59.8616 641,57.5C 643.061,65.3372 642.895,73.0038 640.5,80.5 Z"/></g>
<g><path style="opacity:1" fill="#005a5d" d="M 636.5,64.5 C 637.669,66.2744 638.669,68.1078 639.5,70C 638.692,70.3076 638.025,70.8076 637.5,71.5C 638.833,72.5 638.833,73.5 637.5,74.5C 638.801,76.444 639.801,78.444 640.5,80.5C 633.241,115.267 623.574,149.267 611.5,182.5C 609.394,184.521 607.061,186.354 604.5,188C 605.654,188.914 605.487,189.747 604,190.5C 603.667,190.167 603.333,189.833 603,189.5C 602.51,190.793 602.343,192.127 602.5,193.5C 601.448,193.351 600.448,193.517 599.5,194C 597.097,197.067 594.097,199.4 590.5,201C 589.359,201.741 589.359,202.575 590.5,203.5C 588.098,204.575 585.764,205.742 583.5,207C 584.167,207.333 584.833,207.667 585.5,208C 584.069,208.465 582.903,209.299 582,210.5C 581.667,210.167 581.333,209.833 581,209.5C 575.703,216.124 569.203,221.291 561.5,225C 560.833,226.333 559.833,227.333 558.5,228C 558.833,228.333 559.167,228.667 559.5,229C 557.753,229.352 556.086,229.852 554.5,230.5C 537.123,226.565 522.623,217.898 511,204.5C 508.853,199.947 508.02,195.28 508.5,190.5C 523.298,181.355 537.464,171.355 551,160.5C 554.322,165.804 557.655,171.138 561,176.5C 568.629,186.241 578.463,190.241 590.5,188.5C 576.572,185.435 565.739,177.768 558,165.5C 556.086,162.702 555.086,159.702 555,156.5C 576.269,138.566 596.269,119.233 615,98.5C 623.181,87.8167 630.348,76.4834 636.5,64.5 Z"/></g>
<g><path style="opacity:0.991" fill="#020a0a" d="M 163.5,81.5 C 163.595,83.7857 164.262,85.7857 165.5,87.5C 168.072,93.8926 170.072,100.559 171.5,107.5C 173.93,115.467 176.93,123.134 180.5,130.5C 182.362,134.75 184.028,139.083 185.5,143.5C 185.75,145.674 186.75,147.341 188.5,148.5C 189.338,148.842 189.672,149.508 189.5,150.5C 189.427,152.027 190.094,153.027 191.5,153.5C 191.738,155.404 192.738,156.738 194.5,157.5C 197.883,161.553 200.883,165.886 203.5,170.5C 203.738,172.404 204.738,173.738 206.5,174.5C 207.167,174.5 207.5,174.833 207.5,175.5C 207.427,177.027 208.094,178.027 209.5,178.5C 211.727,180.607 213.727,182.94 215.5,185.5C 216.757,188.427 218.757,190.761 221.5,192.5C 224.297,194.795 226.964,197.295 229.5,200C 238.178,205.339 246.511,211.173 254.5,217.5C 255.733,219.796 257.733,221.13 260.5,221.5C 262.992,223.768 265.658,224.768 268.5,224.5C 269.833,224.833 271.167,225.167 272.5,225.5C 273.784,227.614 275.784,228.614 278.5,228.5C 279.93,228.421 281.264,228.754 282.5,229.5C 285.756,227.162 288.589,227.829 291,231.5C 292.652,235.926 292.818,240.259 291.5,244.5C 290.388,246.599 289.721,248.933 289.5,251.5C 287.841,256.827 285.174,261.493 281.5,265.5C 279.738,266.262 278.738,267.596 278.5,269.5C 278.573,271.027 277.906,272.027 276.5,272.5C 273.757,274.239 271.757,276.573 270.5,279.5C 266.878,283.308 262.878,286.641 258.5,289.5C 254.561,291.446 250.894,293.779 247.5,296.5C 244.386,298.391 241.052,299.724 237.5,300.5C 234.482,300.335 231.482,300.502 228.5,301C 227.619,301.708 226.953,302.542 226.5,303.5C 224.712,303.785 223.045,303.452 221.5,302.5C 220.289,301.28 220.289,300.113 221.5,299C 219.907,298.051 218.574,296.885 217.5,295.5C 215.761,292.757 213.427,290.757 210.5,289.5C 207.167,286.833 204.167,283.833 201.5,280.5C 200.5,278.833 199.167,277.5 197.5,276.5C 195.5,275.167 193.833,273.5 192.5,271.5C 192.573,269.973 191.906,268.973 190.5,268.5C 188.451,267.118 186.785,265.452 185.5,263.5C 184.92,261.251 183.587,259.585 181.5,258.5C 177.773,254.727 174.773,250.394 172.5,245.5C 172.771,243.62 172.104,242.287 170.5,241.5C 169.662,241.158 169.328,240.492 169.5,239.5C 169.573,237.973 168.906,236.973 167.5,236.5C 164.659,232.151 162.326,227.484 160.5,222.5C 157.541,213.943 154.208,205.61 150.5,197.5C 147.894,190.347 145.894,183.014 144.5,175.5C 144.029,171.644 143.362,167.811 142.5,164C 142.316,162.624 141.649,161.791 140.5,161.5C 140.5,161.167 140.5,160.833 140.5,160.5C 141.678,158.662 141.345,156.995 139.5,155.5C 139.5,145.167 139.5,134.833 139.5,124.5C 140.693,124.03 141.36,123.03 141.5,121.5C 141.48,120.274 141.147,119.274 140.5,118.5C 140.5,117.833 140.5,117.167 140.5,116.5C 141.117,116.389 141.617,116.056 142,115.5C 143.413,109.77 144.913,104.103 146.5,98.5C 147.655,94.2025 149.321,90.2025 151.5,86.5C 153.008,84.8185 154.008,82.8185 154.5,80.5C 155.906,80.0269 156.573,79.0269 156.5,77.5C 157.261,76.6091 158.261,75.9424 159.5,75.5C 161.252,77.2459 162.585,79.2459 163.5,81.5 Z"/></g>
<g><path style="opacity:0.212" fill="#003936" d="M 156.5,77.5 C 156.573,79.0269 155.906,80.0269 154.5,80.5C 154.427,78.9731 155.094,77.9731 156.5,77.5 Z"/></g>
<g><path style="opacity:0.369" fill="#003939" d="M 154.5,80.5 C 154.008,82.8185 153.008,84.8185 151.5,86.5C 151.461,83.911 152.461,81.911 154.5,80.5 Z"/></g>
<g><path style="opacity:0.016" fill="#003c3d" d="M 163.5,81.5 C 165.074,83.1016 165.741,85.1016 165.5,87.5C 164.262,85.7857 163.595,83.7857 163.5,81.5 Z"/></g>
<g><path style="opacity:1" fill="#004943" d="M 162.5,93.5 C 160.751,96.1966 159.084,99.0299 157.5,102C 159.513,102.875 159.513,104.209 157.5,106C 157.616,107.268 157.949,108.602 158.5,110C 155.922,112.157 155.922,113.323 158.5,113.5C 157.975,114.192 157.308,114.692 156.5,115C 158.973,116.742 158.973,118.575 156.5,120.5C 157.833,122.833 157.833,125.167 156.5,127.5C 156.818,128.647 157.484,129.481 158.5,130C 157.283,132.011 157.616,134.011 159.5,136C 158.298,140.407 159.631,144.407 163.5,148C 162.833,148.333 162.167,148.667 161.5,149C 162.313,150.314 163.313,151.481 164.5,152.5C 164.291,153.086 163.957,153.586 163.5,154C 165.953,155.88 167.953,158.213 169.5,161C 169.167,161.333 168.833,161.667 168.5,162C 170.958,167.649 173.958,172.983 177.5,178C 175.983,180.761 176.816,182.594 180,183.5C 181.586,186.294 183.086,189.128 184.5,192C 184.167,192.333 183.833,192.667 183.5,193C 184.766,193.309 185.933,193.809 187,194.5C 188.169,197.449 189.669,200.116 191.5,202.5C 187.969,204.937 184.469,204.937 181,202.5C 180.28,204.112 180.446,205.612 181.5,207C 185.255,207.755 188.922,207.589 192.5,206.5C 195.844,211.905 199.511,217.738 203.5,224C 202.911,225.873 203.578,227.54 205.5,229C 205.167,229.333 204.833,229.667 204.5,230C 205.448,230.483 206.448,230.649 207.5,230.5C 210.24,239.523 214.906,247.189 221.5,253.5C 219.067,256.687 216.067,258.353 212.5,258.5C 213,259.881 214,260.547 215.5,260.5C 218.183,259.49 220.849,258.49 223.5,257.5C 223.574,259.411 224.574,260.578 226.5,261C 225.366,262.016 225.699,262.683 227.5,263C 227.167,263.333 226.833,263.667 226.5,264C 228.833,265 230.5,266.667 231.5,269C 231.167,269.333 230.833,269.667 230.5,270C 233.562,271.808 235.562,274.475 236.5,278C 236.167,278.333 235.833,278.667 235.5,279C 239.009,279.571 240.343,281.404 239.5,284.5C 240.5,285.167 241.5,285.833 242.5,286.5C 242.291,287.086 241.957,287.586 241.5,288C 242.539,289.617 243.539,290.783 244.5,291.5C 238.802,296.216 232.302,297.883 225,296.5C 201.554,277.065 182.554,254.065 168,227.5C 154.848,199.557 147.015,170.224 144.5,139.5C 144.289,130.729 145.123,122.062 147,113.5C 149.466,105.769 152.133,98.1026 155,90.5C 155.782,87.9242 157.282,85.9242 159.5,84.5C 160.962,87.3471 161.962,90.3471 162.5,93.5 Z"/></g>
<g><path style="opacity:1" fill="#00595b" d="M 162.5,93.5 C 166.817,108.619 171.817,123.452 177.5,138C 176.833,140 176.167,142 175.5,144C 175.957,144.414 176.291,144.914 176.5,145.5C 175.5,146.833 174.5,148.167 173.5,149.5C 177.042,150.172 179.209,148.506 180,144.5C 188.664,159.494 198.497,173.661 209.5,187C 206.92,190.158 204.587,193.492 202.5,197C 199.09,199.372 195.423,201.205 191.5,202.5C 189.669,200.116 188.169,197.449 187,194.5C 185.933,193.809 184.766,193.309 183.5,193C 183.833,192.667 184.167,192.333 184.5,192C 183.086,189.128 181.586,186.294 180,183.5C 176.816,182.594 175.983,180.761 177.5,178C 173.958,172.983 170.958,167.649 168.5,162C 168.833,161.667 169.167,161.333 169.5,161C 167.953,158.213 165.953,155.88 163.5,154C 163.957,153.586 164.291,153.086 164.5,152.5C 163.313,151.481 162.313,150.314 161.5,149C 162.167,148.667 162.833,148.333 163.5,148C 159.631,144.407 158.298,140.407 159.5,136C 157.616,134.011 157.283,132.011 158.5,130C 157.484,129.481 156.818,128.647 156.5,127.5C 157.833,125.167 157.833,122.833 156.5,120.5C 158.973,118.575 158.973,116.742 156.5,115C 157.308,114.692 157.975,114.192 158.5,113.5C 155.922,113.323 155.922,112.157 158.5,110C 157.949,108.602 157.616,107.268 157.5,106C 159.513,104.209 159.513,102.875 157.5,102C 159.084,99.0299 160.751,96.1966 162.5,93.5 Z"/></g>
<g><path style="opacity:0.671" fill="#022d2e" d="M 146.5,98.5 C 144.913,104.103 143.413,109.77 142,115.5C 141.617,116.056 141.117,116.389 140.5,116.5C 141.593,110.098 143.593,104.098 146.5,98.5 Z"/></g>
<g><path style="opacity:0.094" fill="#003a38" d="M 171.5,107.5 C 175.462,114.708 178.462,122.375 180.5,130.5C 176.93,123.134 173.93,115.467 171.5,107.5 Z"/></g>
<g><path style="opacity:0.745" fill="#022727" d="M 140.5,118.5 C 141.147,119.274 141.48,120.274 141.5,121.5C 141.36,123.03 140.693,124.03 139.5,124.5C 139.325,122.379 139.659,120.379 140.5,118.5 Z"/></g>
<g><path style="opacity:0.678" fill="#072828" d="M 576.5,129.5 C 574.761,132.243 572.427,134.243 569.5,135.5C 571.239,132.757 573.573,130.757 576.5,129.5 Z"/></g>
<g><path style="opacity:0.169" fill="#013e3d" d="M 185.5,143.5 C 187.25,144.659 188.25,146.326 188.5,148.5C 186.75,147.341 185.75,145.674 185.5,143.5 Z"/></g>
<g><path style="opacity:0.82" fill="#082726" d="M 562.5,142.5 C 561.415,144.587 559.749,145.92 557.5,146.5C 558.585,144.413 560.251,143.08 562.5,142.5 Z"/></g>
<g><path style="opacity:0.573" fill="#003638" d="M 189.5,150.5 C 190.906,150.973 191.573,151.973 191.5,153.5C 190.094,153.027 189.427,152.027 189.5,150.5 Z"/></g>
<g><path style="opacity:0.6" fill="#003b36" d="M 191.5,153.5 C 193.262,154.262 194.262,155.596 194.5,157.5C 192.738,156.738 191.738,155.404 191.5,153.5 Z"/></g>
<g><path style="opacity:0.349" fill="#003a37" d="M 139.5,155.5 C 141.345,156.995 141.678,158.662 140.5,160.5C 139.962,158.883 139.629,157.216 139.5,155.5 Z"/></g>
<g><path style="opacity:0.569" fill="#00302e" d="M 140.5,161.5 C 141.649,161.791 142.316,162.624 142.5,164C 143.362,167.811 144.029,171.644 144.5,175.5C 142.565,171.107 141.232,166.441 140.5,161.5 Z"/></g>
<g><path style="opacity:0.478" fill="#01312d" d="M 203.5,170.5 C 205.262,171.262 206.262,172.596 206.5,174.5C 204.738,173.738 203.738,172.404 203.5,170.5 Z"/></g>
<g><path style="opacity:0.537" fill="#00372f" d="M 207.5,175.5 C 208.906,175.973 209.573,176.973 209.5,178.5C 208.094,178.027 207.427,177.027 207.5,175.5 Z"/></g>
<g><path style="opacity:0.71" fill="#02312f" d="M 215.5,185.5 C 218.243,187.239 220.243,189.573 221.5,192.5C 218.757,190.761 216.757,188.427 215.5,185.5 Z"/></g>
<g><path style="opacity:1" fill="#004943" d="M 611.5,182.5 C 604.129,197.911 597.295,213.578 591,229.5C 585.559,237.38 580.892,245.714 577,254.5C 574.167,258 571.333,261.5 568.5,265C 548.005,269.753 527.672,269.586 507.5,264.5C 510.374,264.377 512.874,263.377 515,261.5C 515.333,261.833 515.667,262.167 516,262.5C 517.684,260.299 519.684,259.633 522,260.5C 523.667,258.833 525.333,257.167 527,255.5C 527.333,255.833 527.667,256.167 528,256.5C 531.618,253.612 535.118,250.612 538.5,247.5C 538.291,246.914 537.957,246.414 537.5,246C 541.764,242.339 545.764,238.505 549.5,234.5C 554.511,234.666 559.511,234.499 564.5,234C 565.624,233.751 566.624,233.251 567.5,232.5C 563.018,231.833 558.684,231.166 554.5,230.5C 556.086,229.852 557.753,229.352 559.5,229C 559.167,228.667 558.833,228.333 558.5,228C 559.833,227.333 560.833,226.333 561.5,225C 569.203,221.291 575.703,216.124 581,209.5C 581.333,209.833 581.667,210.167 582,210.5C 582.903,209.299 584.069,208.465 585.5,208C 584.833,207.667 584.167,207.333 583.5,207C 585.764,205.742 588.098,204.575 590.5,203.5C 589.359,202.575 589.359,201.741 590.5,201C 594.097,199.4 597.097,197.067 599.5,194C 600.448,193.517 601.448,193.351 602.5,193.5C 602.343,192.127 602.51,190.793 603,189.5C 603.333,189.833 603.667,190.167 604,190.5C 605.487,189.747 605.654,188.914 604.5,188C 607.061,186.354 609.394,184.521 611.5,182.5 Z"/></g>
<g><path style="opacity:1" fill="#005a5d" d="M 549.5,234.5 C 545.764,238.505 541.764,242.339 537.5,246C 537.957,246.414 538.291,246.914 538.5,247.5C 535.118,250.612 531.618,253.612 528,256.5C 527.667,256.167 527.333,255.833 527,255.5C 525.333,257.167 523.667,258.833 522,260.5C 519.684,259.633 517.684,260.299 516,262.5C 515.667,262.167 515.333,261.833 515,261.5C 512.874,263.377 510.374,264.377 507.5,264.5C 497.25,262.713 487.583,259.213 478.5,254C 463.689,245.176 449.856,235.01 437,223.5C 436.5,222.5 436,221.5 435.5,220.5C 455.135,215.565 474.135,208.732 492.5,200C 496.252,197.707 500.086,195.54 504,193.5C 504.974,201.947 508.474,209.114 514.5,215C 524.994,223.581 536.661,230.081 549.5,234.5 Z"/></g>
<g><path style="opacity:0.576" fill="#003736" d="M 150.5,197.5 C 154.208,205.61 157.541,213.943 160.5,222.5C 156.005,214.691 152.671,206.358 150.5,197.5 Z"/></g>
<g><path style="opacity:0.678" fill="#032b2d" d="M 427.5,213.5 C 430.668,212.556 434.001,212.556 437.5,213.5C 434.348,214.239 431.015,214.239 427.5,213.5 Z"/></g>
<g><path style="opacity:0.012" fill="#023431" d="M 254.5,217.5 C 256.882,218.351 258.882,219.684 260.5,221.5C 257.733,221.13 255.733,219.796 254.5,217.5 Z"/></g>
<g><path style="opacity:0.055" fill="#003434" d="M 260.5,221.5 C 263.443,221.98 266.11,222.98 268.5,224.5C 265.658,224.768 262.992,223.768 260.5,221.5 Z"/></g>
<g><path style="opacity:1" fill="#000808" d="M 223.5,257.5 C 220.849,258.49 218.183,259.49 215.5,260.5C 214,260.547 213,259.881 212.5,258.5C 216.067,258.353 219.067,256.687 221.5,253.5C 227.429,249.076 232.929,244.076 238,238.5C 241.453,233.379 245.286,228.546 249.5,224C 250.332,223.312 250.998,223.479 251.5,224.5C 247.979,231.85 243.479,238.516 238,244.5C 233.568,249.44 228.735,253.773 223.5,257.5 Z"/></g>
<g><path style="opacity:1" fill="#005a5c" d="M 244.5,291.5 C 243.539,290.783 242.539,289.617 241.5,288C 241.957,287.586 242.291,287.086 242.5,286.5C 241.5,285.833 240.5,285.167 239.5,284.5C 240.343,281.404 239.009,279.571 235.5,279C 235.833,278.667 236.167,278.333 236.5,278C 235.562,274.475 233.562,271.808 230.5,270C 230.833,269.667 231.167,269.333 231.5,269C 230.5,266.667 228.833,265 226.5,264C 226.833,263.667 227.167,263.333 227.5,263C 225.699,262.683 225.366,262.016 226.5,261C 224.574,260.578 223.574,259.411 223.5,257.5C 228.735,253.773 233.568,249.44 238,244.5C 243.479,238.516 247.979,231.85 251.5,224.5C 250.998,223.479 250.332,223.312 249.5,224C 245.286,228.546 241.453,233.379 238,238.5C 232.929,244.076 227.429,249.076 221.5,253.5C 214.906,247.189 210.24,239.523 207.5,230.5C 206.448,230.649 205.448,230.483 204.5,230C 204.833,229.667 205.167,229.333 205.5,229C 203.578,227.54 202.911,225.873 203.5,224C 199.511,217.738 195.844,211.905 192.5,206.5C 202.138,204.029 208.304,198.029 211,188.5C 215.8,194.302 220.967,199.802 226.5,205C 236.026,210.595 245.026,216.929 253.5,224C 264.272,228.368 275.105,232.534 286,236.5C 286.981,244.907 284.981,252.574 280,259.5C 270.793,273.915 258.96,284.581 244.5,291.5 Z"/></g>
<g><path style="opacity:0.753" fill="#022625" d="M 272.5,225.5 C 274.75,226.13 276.75,227.13 278.5,228.5C 275.784,228.614 273.784,227.614 272.5,225.5 Z"/></g>
<g><path style="opacity:0.027" fill="#004944" d="M 167.5,236.5 C 168.906,236.973 169.573,237.973 169.5,239.5C 168.094,239.027 167.427,238.027 167.5,236.5 Z"/></g>
<g><path style="opacity:0.176" fill="#004543" d="M 170.5,241.5 C 172.104,242.287 172.771,243.62 172.5,245.5C 171.326,244.486 170.66,243.153 170.5,241.5 Z"/></g>
<g><path style="opacity:0.369" fill="#013634" d="M 291.5,244.5 C 291.829,247.228 291.163,249.562 289.5,251.5C 289.721,248.933 290.388,246.599 291.5,244.5 Z"/></g>
<g><path style="opacity:0.071" fill="#013535" d="M 181.5,258.5 C 183.587,259.585 184.92,261.251 185.5,263.5C 183.413,262.415 182.08,260.749 181.5,258.5 Z"/></g>
<g><path style="opacity:0.063" fill="#003d3d" d="M 281.5,265.5 C 281.262,267.404 280.262,268.738 278.5,269.5C 278.738,267.596 279.738,266.262 281.5,265.5 Z"/></g>
<g><path style="opacity:0.027" fill="#003639" d="M 190.5,268.5 C 191.906,268.973 192.573,269.973 192.5,271.5C 191.094,271.027 190.427,270.027 190.5,268.5 Z"/></g>
<g><path style="opacity:0.004" fill="#004948" d="M 197.5,276.5 C 199.167,277.5 200.5,278.833 201.5,280.5C 199.167,280.167 197.833,278.833 197.5,276.5 Z"/></g>
<g><path style="opacity:0.055" fill="#012627" d="M 276.5,272.5 C 275.243,275.427 273.243,277.761 270.5,279.5C 271.757,276.573 273.757,274.239 276.5,272.5 Z"/></g>
<g><path style="opacity:0.855" fill="#042b2b" d="M 210.5,289.5 C 213.427,290.757 215.761,292.757 217.5,295.5C 214.573,294.243 212.239,292.243 210.5,289.5 Z"/></g>
<g><path style="opacity:0.078" fill="#013433" d="M 258.5,289.5 C 255.642,293.01 251.976,295.343 247.5,296.5C 250.894,293.779 254.561,291.446 258.5,289.5 Z"/></g>
<g><path style="opacity:0.935" fill="#07201f" d="M 237.5,300.5 C 233.981,301.632 230.314,302.632 226.5,303.5C 226.953,302.542 227.619,301.708 228.5,301C 231.482,300.502 234.482,300.335 237.5,300.5 Z"/></g>

        
<g><path style="opacity:0.99" fill="#070707" d="M 397.5,213.5 C 426.652,214.128 455.652,216.628 484.5,221C 501.696,223.299 517.696,228.965 532.5,238C 541.415,244.711 550.915,250.545 561,255.5C 566,261.833 571,268.167 576,274.5C 579.431,281.886 582.098,289.553 584,297.5C 600.968,293.905 616.801,296.738 631.5,306C 639.341,311.087 647.008,316.42 654.5,322C 663.667,331.167 672.833,340.333 682,349.5C 688.828,358.487 695.162,367.821 701,377.5C 703.243,382.896 705.076,388.396 706.5,394C 702.842,398.302 698.175,400.969 692.5,402C 684.601,403.249 676.935,403.749 669.5,403.5C 671.81,407.254 673.643,411.254 675,415.5C 676.619,423.927 678.619,432.26 681,440.5C 682.454,454.02 679.787,466.687 673,478.5C 663.749,491.086 652.582,501.586 639.5,510C 630.893,513.302 622.893,517.635 615.5,523C 597.029,529.157 579.029,536.491 561.5,545C 545.683,550.606 529.683,555.606 513.5,560C 527.668,574.176 543.001,586.843 559.5,598C 576.758,613.656 588.591,632.823 595,655.5C 600.246,671.481 603.746,687.814 605.5,704.5C 615.856,702.179 626.356,700.846 637,700.5C 653.9,703.09 670.9,704.757 688,705.5C 707.617,704.722 725.784,699.222 742.5,689C 757.923,678.567 772.423,667.067 786,654.5C 787.653,654.82 788.653,655.82 789,657.5C 790.41,661.976 791.577,666.476 792.5,671C 791.961,696.289 785.127,719.789 772,741.5C 763.125,752.196 752.292,760.362 739.5,766C 722.469,771.591 705.135,775.925 687.5,779C 666.989,778.73 646.989,781.73 627.5,788C 631.324,793.922 636.657,797.922 643.5,800C 644.765,801.337 645.265,802.837 645,804.5C 634.166,813.497 621.666,817.164 607.5,815.5C 607.62,817.199 607.954,818.865 608.5,820.5C 608.182,821.647 607.516,822.481 606.5,823C 599.093,824.492 591.593,825.325 584,825.5C 570.833,824.357 557.666,823.19 544.5,822C 528.753,817.882 515.253,810.049 504,798.5C 495.911,789.336 489.577,779.003 485,767.5C 473.056,772.575 460.556,774.908 447.5,774.5C 441.513,773.858 435.513,773.358 429.5,773C 427,772.625 424.667,771.792 422.5,770.5C 418.78,774.733 415.613,779.4 413,784.5C 395.052,801.708 373.552,809.541 348.5,808C 344.343,807.271 340.343,806.104 336.5,804.5C 335.167,803.5 335.167,802.5 336.5,801.5C 338.833,800 341.167,798.5 343.5,797C 344.696,796.346 344.696,795.846 343.5,795.5C 335.883,796.633 328.216,796.8 320.5,796C 311.363,794.508 304.863,789.675 301,781.5C 300.179,778.446 300.345,775.446 301.5,772.5C 312.272,769.781 321.939,764.947 330.5,758C 319.87,750.041 313.37,739.541 311,726.5C 309.463,718.908 308.63,711.241 308.5,703.5C 309.559,693.159 310.392,682.825 311,672.5C 308.094,675.369 304.594,676.702 300.5,676.5C 294.742,676.543 289.409,675.209 284.5,672.5C 273.656,662.134 269.489,649.467 272,634.5C 275.346,612.289 285.512,594.122 302.5,580C 312.952,573.232 324.119,571.732 336,575.5C 337.967,574.507 339.134,572.84 339.5,570.5C 305.015,564.297 271.015,555.463 237.5,544C 209.322,532.837 184.822,516.337 164,494.5C 152.732,482.13 145.899,467.63 143.5,451C 144.485,443.505 144.985,436.005 145,428.5C 140.155,431.151 134.989,431.984 129.5,431C 127.954,429.56 127.121,427.727 127,425.5C 126.788,413.092 127.788,400.758 130,388.5C 135.912,374.746 142.579,361.413 150,348.5C 160.721,333.106 174.888,322.273 192.5,316C 198.537,315.303 204.537,315.47 210.5,316.5C 211.252,310.492 213.086,304.826 216,299.5C 222.667,288.833 229.333,278.167 236,267.5C 246.355,255.578 258.188,245.412 271.5,237C 312.624,223.821 354.624,215.987 397.5,213.5 Z"/></g>
<g><path style="opacity:1" fill="#1a1a1a" d="M 668.5,416.5 C 667.149,427.398 664.649,438.064 661,448.5C 656.399,457.425 651.399,466.092 646,474.5C 623.77,496.709 597.937,513.542 568.5,525C 543.253,532.859 517.92,540.526 492.5,548C 448.553,557.101 404.22,559.768 359.5,556C 347.914,553.855 336.248,552.188 324.5,551C 281.405,540.283 240.405,524.283 201.5,503C 185.771,492.605 171.938,480.105 160,465.5C 152.669,456.68 150.169,446.68 152.5,435.5C 154.204,427.844 154.871,420.177 154.5,412.5C 152.056,416.118 149.39,419.618 146.5,423C 142.683,424.995 138.683,426.495 134.5,427.5C 133.201,426.91 132.368,425.91 132,424.5C 131.833,422.5 131.667,420.5 131.5,418.5C 132.991,409.545 134.157,400.545 135,391.5C 141.604,374.286 150.271,358.286 161,343.5C 170.285,333.114 181.451,325.614 194.5,321C 200.862,320.576 207.195,320.576 213.5,321C 224.905,285.517 246.572,258.184 278.5,239C 326.469,224.712 375.469,218.046 425.5,219C 447.106,221.764 468.773,224.764 490.5,228C 502.4,230.411 513.733,234.411 524.5,240C 535.498,247.501 546.832,254.501 558.5,261C 569.707,272.248 576.541,285.748 579,301.5C 581.376,308.587 585.043,314.92 590,320.5C 590.167,320.167 590.333,319.833 590.5,319.5C 588.2,313.909 586.2,308.242 584.5,302.5C 599.35,299.458 613.35,301.625 626.5,309C 652.248,326.081 674.082,347.248 692,372.5C 695.8,378.933 698.633,385.766 700.5,393C 698.652,395.093 696.319,396.426 693.5,397C 680.718,399.865 668.385,398.698 656.5,393.5C 656.372,395.655 656.872,397.655 658,399.5C 664.052,403.607 667.552,409.273 668.5,416.5 Z"/></g>
<g><path style="opacity:1" fill="#010101" d="M 618.5,337.5 C 634.542,353.376 653.208,365.543 674.5,374C 676.954,375.74 678.454,377.907 679,380.5C 677.612,381.554 676.112,381.72 674.5,381C 654.654,371.331 636.821,358.831 621,343.5C 619.441,341.783 618.608,339.783 618.5,337.5 Z"/></g>
<g><path style="opacity:1" fill="#010101" d="M 147.5,382.5 C 148.993,383.312 149.66,384.645 149.5,386.5C 148.442,393.85 147.275,401.184 146,408.5C 144.374,411.128 142.374,413.461 140,415.5C 141.412,404.277 143.912,393.277 147.5,382.5 Z"/></g>
<g><path style="opacity:1" fill="#141414" d="M 668.5,416.5 C 669.117,416.611 669.617,416.944 670,417.5C 671.619,425.927 673.619,434.26 676,442.5C 676.82,456.706 672.82,469.372 664,480.5C 656.058,489.448 647.225,497.281 637.5,504C 628.893,507.302 620.893,511.635 613.5,517C 594.28,523.296 575.614,530.963 557.5,540C 535.077,547.604 512.411,554.271 489.5,560C 470.569,562.908 451.569,565.241 432.5,567C 422.167,567.667 411.833,567.667 401.5,567C 377.521,565.26 353.521,563.927 329.5,563C 288.931,556.527 250.265,544.193 213.5,526C 190.515,513.347 171.682,496.18 157,474.5C 150.182,462.569 148.182,449.902 151,436.5C 151.383,435.944 151.883,435.611 152.5,435.5C 150.169,446.68 152.669,456.68 160,465.5C 171.938,480.105 185.771,492.605 201.5,503C 240.405,524.283 281.405,540.283 324.5,551C 336.248,552.188 347.914,553.855 359.5,556C 404.22,559.768 448.553,557.101 492.5,548C 517.92,540.526 543.253,532.859 568.5,525C 597.937,513.542 623.77,496.709 646,474.5C 651.399,466.092 656.399,457.425 661,448.5C 664.649,438.064 667.149,427.398 668.5,416.5 Z"/></g>
<g><path style="opacity:1" fill="#141414" d="M 478.5,672.5 C 485.872,678.44 494.205,679.94 503.5,677C 506.732,675.77 509.399,673.77 511.5,671C 512.5,670.333 513.5,670.333 514.5,671C 512.476,676.438 510.142,681.772 507.5,687C 510.8,688.879 514.134,688.879 517.5,687C 532.745,675.358 541.412,659.858 543.5,640.5C 542.824,633.638 540.657,627.305 537,621.5C 523.858,607.513 507.691,599.846 488.5,598.5C 480.873,598.024 477.54,601.691 478.5,609.5C 479.213,614.311 480.547,618.978 482.5,623.5C 480.083,625.107 477.416,626.107 474.5,626.5C 472.491,621.266 471.158,615.766 470.5,610C 470.586,606.241 471.586,602.741 473.5,599.5C 473.167,598.5 472.5,597.833 471.5,597.5C 469.364,598.472 468.197,600.139 468,602.5C 467.081,608.966 467.581,615.299 469.5,621.5C 459.019,625.309 450.519,631.642 444,640.5C 430.5,618.167 417,595.833 403.5,573.5C 437.551,572.702 471.217,568.702 504.5,561.5C 506.299,561.577 507.966,562.077 509.5,563C 520.782,574.621 532.948,585.121 546,594.5C 546.265,596.163 545.765,597.663 544.5,599C 549.027,601.543 552.194,605.376 554,610.5C 565.459,638.3 560.959,663.134 540.5,685C 534.687,690.075 528.354,694.408 521.5,698C 505.454,705.563 492.62,702.063 483,687.5C 480.383,682.817 478.883,677.817 478.5,672.5 Z"/></g>
<g><path style="opacity:1" fill="#1a1a1a" d="M 341.5,626.5 C 340.957,626.56 340.624,626.893 340.5,627.5C 342.415,637.065 343.749,646.732 344.5,656.5C 344.66,659.696 343.66,662.363 341.5,664.5C 336.277,662.889 331.277,660.723 326.5,658C 319.953,652.954 314.286,647.12 309.5,640.5C 307.682,644.136 305.849,647.802 304,651.5C 301.757,653.282 299.257,653.782 296.5,653C 288.502,649.673 284.835,643.673 285.5,635C 285.51,621.304 289.344,608.804 297,597.5C 303.059,590.276 309.559,583.609 316.5,577.5C 326.26,575.198 334.26,577.864 340.5,585.5C 341.079,580.029 342.246,574.696 344,569.5C 347.819,568.73 351.653,569.063 355.5,570.5C 348.17,588.493 343.503,607.16 341.5,626.5 Z"/></g>
<g><path style="opacity:1" fill="#d6d4d4" d="M 360.5,674.5 C 365.51,683.351 371.51,691.517 378.5,699C 384.877,703.189 391.544,706.855 398.5,710C 417.397,716.636 424.897,710.136 421,690.5C 413.14,671.699 409.307,652.032 409.5,631.5C 398.974,626.785 387.974,624.118 376.5,623.5C 367.747,622.705 360.081,625.039 353.5,630.5C 350.807,627.803 348.473,624.803 346.5,621.5C 349.911,604.187 354.411,587.187 360,570.5C 364.748,569.365 369.581,569.198 374.5,570C 381.807,570.95 389.14,571.617 396.5,572C 412.113,596.047 427.113,620.547 441.5,645.5C 435.945,660.017 436.445,674.35 443,688.5C 450.196,696.084 459.03,698.917 469.5,697C 472.713,696.394 475.713,695.227 478.5,693.5C 479.748,694.04 480.915,694.707 482,695.5C 480.68,711.111 480.346,726.777 481,742.5C 481.518,749.13 482.685,755.63 484.5,762C 484.095,762.945 483.428,763.612 482.5,764C 447.431,774.811 415.097,769.477 385.5,748C 370.855,738.357 359.355,725.857 351,710.5C 348.215,702.028 346.382,693.361 345.5,684.5C 351.705,682.903 356.705,679.569 360.5,674.5 Z"/></g>
<g><path style="opacity:1" fill="#141414" d="M 316.5,577.5 C 309.559,583.609 303.059,590.276 297,597.5C 289.344,608.804 285.51,621.304 285.5,635C 284.835,643.673 288.502,649.673 296.5,653C 299.257,653.782 301.757,653.282 304,651.5C 305.849,647.802 307.682,644.136 309.5,640.5C 314.286,647.12 319.953,652.954 326.5,658C 331.277,660.723 336.277,662.889 341.5,664.5C 343.66,662.363 344.66,659.696 344.5,656.5C 343.749,646.732 342.415,637.065 340.5,627.5C 340.624,626.893 340.957,626.56 341.5,626.5C 351.199,635.23 356.699,646.23 358,659.5C 359.809,668.085 356.976,674.585 349.5,679C 336.43,684.976 325.264,682.476 316,671.5C 315.5,670 315,668.5 314.5,667C 316.52,664.379 316.853,661.545 315.5,658.5C 312.756,662.751 309.422,666.585 305.5,670C 299.786,671.57 294.12,671.237 288.5,669C 276.97,657.72 273.47,644.22 278,628.5C 282.284,608.737 292.45,592.904 308.5,581C 310.818,579.007 313.484,577.841 316.5,577.5 Z"/></g>
<g><path style="opacity:1" fill="#1a1a1a" d="M 478.5,672.5 C 478.817,669.428 478.484,666.428 477.5,663.5C 474.915,671.11 474.915,678.777 477.5,686.5C 477.124,688.383 476.124,689.883 474.5,691C 467.964,693.968 461.297,694.301 454.5,692C 446.932,689.671 443.099,684.504 443,676.5C 438.427,654.149 446.26,637.982 466.5,628C 469.207,627.605 471.873,627.105 474.5,626.5C 477.416,626.107 480.083,625.107 482.5,623.5C 480.547,618.978 479.213,614.311 478.5,609.5C 477.54,601.691 480.873,598.024 488.5,598.5C 507.691,599.846 523.858,607.513 537,621.5C 540.657,627.305 542.824,633.638 543.5,640.5C 541.412,659.858 532.745,675.358 517.5,687C 514.134,688.879 510.8,688.879 507.5,687C 510.142,681.772 512.476,676.438 514.5,671C 513.5,670.333 512.5,670.333 511.5,671C 509.399,673.77 506.732,675.77 503.5,677C 494.205,679.94 485.872,678.44 478.5,672.5 Z"/></g>
<g><path style="opacity:1" fill="#1a1a1a" d="M 598.5,698.5 C 597.912,721.899 590.746,742.899 577,761.5C 565.289,772.94 551.456,780.607 535.5,784.5C 518.038,781.872 507.538,771.872 504,754.5C 503.302,747.265 502.468,740.098 501.5,733C 502.126,732.25 502.626,731.416 503,730.5C 508.809,736.106 515.809,738.772 524,738.5C 531.939,738.279 538.772,735.446 544.5,730C 552.225,722.272 558.391,713.439 563,703.5C 563.794,700.529 564.461,697.529 565,694.5C 565.418,681.971 566.251,669.471 567.5,657C 567.12,651.981 566.454,647.148 565.5,642.5C 564.922,628.765 561.588,615.765 555.5,603.5C 556.002,602.479 556.668,602.312 557.5,603C 571.596,617.015 581.763,633.515 588,652.5C 593.227,667.473 596.727,682.806 598.5,698.5 Z"/></g>
<g><path style="opacity:1" fill="#e6e6e6" d="M 360.5,674.5 C 363.083,665.193 362.917,655.859 360,646.5C 358.097,641.032 355.93,635.699 353.5,630.5C 360.081,625.039 367.747,622.705 376.5,623.5C 387.974,624.118 398.974,626.785 409.5,631.5C 409.307,652.032 413.14,671.699 421,690.5C 424.897,710.136 417.397,716.636 398.5,710C 391.544,706.855 384.877,703.189 378.5,699C 371.51,691.517 365.51,683.351 360.5,674.5 Z"/></g>
<g><path style="opacity:1" fill="#141414" d="M 565.5,642.5 C 566.454,647.148 567.12,651.981 567.5,657C 566.251,669.471 565.418,681.971 565,694.5C 564.461,697.529 563.794,700.529 563,703.5C 558.391,713.439 552.225,722.272 544.5,730C 538.772,735.446 531.939,738.279 524,738.5C 515.809,738.772 508.809,736.106 503,730.5C 502.626,731.416 502.126,732.25 501.5,733C 502.468,740.098 503.302,747.265 504,754.5C 507.538,771.872 518.038,781.872 535.5,784.5C 551.456,780.607 565.289,772.94 577,761.5C 590.746,742.899 597.912,721.899 598.5,698.5C 602.933,721.449 598.766,742.782 586,762.5C 585.175,764.701 585.675,766.534 587.5,768C 598.604,767.364 607.771,771.197 615,779.5C 618.98,786.624 623.814,793.124 629.5,799C 632.661,800.413 635.661,802.08 638.5,804C 634.952,805.941 631.286,807.607 627.5,809C 619.193,809.999 610.86,810.832 602.5,811.5C 601.423,814.474 601.423,817.474 602.5,820.5C 582.318,821.048 562.318,819.548 542.5,816C 513.218,805.719 494.718,785.552 487,755.5C 483.667,736.833 483.667,718.167 487,699.5C 491.793,704.268 497.627,706.601 504.5,706.5C 516.071,705.922 526.405,702.088 535.5,695C 552.137,681.903 561.637,664.736 564,643.5C 564.383,642.944 564.883,642.611 565.5,642.5 Z"/></g>
<g><path style="opacity:1" fill="#1a1a1a" d="M 787.5,677.5 C 783.628,689.244 778.128,700.244 771,710.5C 762.283,720.095 753.449,729.595 744.5,739C 710.903,758.851 674.903,766.517 636.5,762C 626.306,760.259 620.973,754.259 620.5,744C 621.979,734.728 623.979,725.561 626.5,716.5C 626.262,713.201 625.262,710.201 623.5,707.5C 624.949,706.828 626.282,706.161 627.5,705.5C 633.509,705.334 639.509,705.501 645.5,706C 665.31,710.379 685.31,711.379 705.5,709C 717.405,706.587 728.738,702.587 739.5,697C 746.283,691.221 753.616,686.221 761.5,682C 769.093,674.4 777.26,667.567 786,661.5C 786.945,661.905 787.612,662.572 788,663.5C 788.648,668.204 788.481,672.871 787.5,677.5 Z"/></g>
<g><path style="opacity:1" fill="#131313" d="M 350.5,718.5 C 349.043,720.242 347.876,722.242 347,724.5C 338.283,720.644 330.616,715.311 324,708.5C 322.417,720.502 325.084,731.502 332,741.5C 338.772,748.117 345.939,754.117 353.5,759.5C 338.303,758.317 327.136,750.984 320,737.5C 312.742,718.114 311.742,698.447 317,678.5C 323.898,685.032 332.065,687.698 341.5,686.5C 342.023,697.933 345.023,708.6 350.5,718.5 Z"/></g>
<g><path style="opacity:1" fill="#141414" d="M 787.5,677.5 C 785.944,702.342 777.777,724.676 763,744.5C 755.61,751.115 747.444,756.615 738.5,761C 724.3,765.467 709.966,769.467 695.5,773C 671.8,773.505 648.467,776.671 625.5,782.5C 624.5,782.333 623.5,782.167 622.5,782C 615.422,770.621 605.089,764.621 591.5,764C 601.563,746.917 606.229,728.417 605.5,708.5C 612.937,708.149 620.27,707.149 627.5,705.5C 626.282,706.161 624.949,706.828 623.5,707.5C 625.262,710.201 626.262,713.201 626.5,716.5C 623.979,725.561 621.979,734.728 620.5,744C 620.973,754.259 626.306,760.259 636.5,762C 674.903,766.517 710.903,758.851 744.5,739C 753.449,729.595 762.283,720.095 771,710.5C 778.128,700.244 783.628,689.244 787.5,677.5 Z"/></g>
<g><path style="opacity:1" fill="#1a1a1a" d="M 350.5,718.5 C 353.904,722.965 357.071,727.631 360,732.5C 365.289,737.867 370.789,742.867 376.5,747.5C 378.142,754.451 381.142,760.785 385.5,766.5C 382.554,767.655 379.554,767.821 376.5,767C 370.378,765.471 364.378,763.638 358.5,761.5C 356.95,760.559 355.284,759.893 353.5,759.5C 345.939,754.117 338.772,748.117 332,741.5C 325.084,731.502 322.417,720.502 324,708.5C 330.616,715.311 338.283,720.644 347,724.5C 347.876,722.242 349.043,720.242 350.5,718.5 Z"/></g>
<g><path style="opacity:1" fill="#141414" d="M 376.5,747.5 C 388.389,755.614 401.056,762.447 414.5,768C 415.749,770.21 415.582,772.376 414,774.5C 406.476,785.682 396.31,793.515 383.5,798C 375.218,799.923 366.885,801.59 358.5,803C 353.761,803.726 349.095,803.393 344.5,802C 346.809,799.513 349.476,797.513 352.5,796C 356.633,790.866 361.133,786.032 366,781.5C 366.612,779.763 365.946,778.763 364,778.5C 361.71,779.724 359.544,781.057 357.5,782.5C 358.172,779.658 359.506,777.158 361.5,775C 351.161,771.609 340.828,768.109 330.5,764.5C 331.932,762.673 333.599,761.006 335.5,759.5C 342.062,762.14 348.729,764.474 355.5,766.5C 356.442,766.392 357.275,766.059 358,765.5C 357.645,764.041 357.811,762.707 358.5,761.5C 364.378,763.638 370.378,765.471 376.5,767C 379.554,767.821 382.554,767.655 385.5,766.5C 381.142,760.785 378.142,754.451 376.5,747.5 Z"/></g>
<g><path style="opacity:1" fill="#1a1a1a" d="M 330.5,764.5 C 340.828,768.109 351.161,771.609 361.5,775C 359.506,777.158 358.172,779.658 357.5,782.5C 346.393,790.126 334.06,792.626 320.5,790C 315.177,788.923 310.677,786.423 307,782.5C 305.504,780.55 305.337,778.55 306.5,776.5C 315.084,773.541 323.084,769.541 330.5,764.5 Z"/></g>
<g><path style="opacity:1" fill="#1a1a1a" d="M 578.5,780.5 C 593.089,778.218 605.255,782.552 615,793.5C 615.688,794.332 615.521,794.998 614.5,795.5C 607.334,800.602 599.334,802.935 590.5,802.5C 590.692,805.601 591.358,808.601 592.5,811.5C 587.593,811.932 582.926,810.765 578.5,808C 572.243,803.287 566.076,798.454 560,793.5C 558.148,790.653 558.648,788.153 561.5,786C 567.137,783.682 572.803,781.849 578.5,780.5 Z"/></g>

        
<g><path style="opacity:0.957" fill="#020202" d="M 492.5,247.5 C 518.036,247.341 536.869,258.341 549,280.5C 553.515,288.881 557.348,297.548 560.5,306.5C 580.242,322.468 585.075,342.135 575,365.5C 572.44,370.116 569.273,374.282 565.5,378C 559.833,378.333 554.167,378.667 548.5,379C 532.92,382.86 517.586,387.527 502.5,393C 487.559,400.719 472.726,408.553 458,416.5C 454.948,415.289 451.781,414.455 448.5,414C 441.357,407.927 433.69,402.594 425.5,398C 420.197,391.208 415.031,384.375 410,377.5C 408.789,383.132 406.789,388.466 404,393.5C 397.729,399.968 390.562,401.135 382.5,397C 378.252,394.757 374.586,391.757 371.5,388C 368.577,386.29 365.577,386.123 362.5,387.5C 357.09,397.358 349.09,400.191 338.5,396C 336.04,394.542 333.873,392.709 332,390.5C 329.522,382.254 327.522,373.921 326,365.5C 320.148,383.041 311.315,398.874 299.5,413C 296.163,415.671 292.496,417.837 288.5,419.5C 285.681,417.718 283.681,415.218 282.5,412C 275.993,407.914 269.66,403.58 263.5,399C 245.723,388.644 226.723,384.977 206.5,388C 204.615,385.061 203.115,381.895 202,378.5C 199.281,359.042 203.615,341.375 215,325.5C 215.811,303.71 224.644,286.21 241.5,273C 247.839,268.496 254.839,265.662 262.5,264.5C 266.961,265.153 271.294,266.32 275.5,268C 295.875,282.044 310.709,300.544 320,323.5C 324.116,333.515 327.616,343.682 330.5,354C 348.492,364.612 367.492,367.279 387.5,362C 391.821,361.501 396.154,361.334 400.5,361.5C 397.258,348.95 396.758,336.284 399,323.5C 401.262,314.712 403.929,306.046 407,297.5C 410.946,291.221 415.279,285.221 420,279.5C 440.443,260.191 464.61,249.524 492.5,247.5 Z"/></g>
<g><path style="opacity:1" fill="#1b1b1b" d="M 491.5,251.5 C 512.865,250.933 529.698,259.266 542,276.5C 546.498,283.995 550.331,291.829 553.5,300C 553.167,300.5 552.833,301 552.5,301.5C 519.409,280.417 485.409,278.917 450.5,297C 445.732,301.769 440.399,305.769 434.5,309C 422.693,321.445 413.526,335.612 407,351.5C 406.393,354.202 406.56,356.868 407.5,359.5C 407.444,360.737 406.944,361.737 406,362.5C 403.451,358.185 402.118,353.519 402,348.5C 400.755,329.153 404.422,310.819 413,293.5C 417.194,288.94 421.028,284.106 424.5,279C 431.007,274.914 437.34,270.58 443.5,266C 458.431,257.108 474.431,252.275 491.5,251.5 Z"/></g>
<g><path style="opacity:1" fill="#1b1b1b" d="M 256.5,269.5 C 263.393,268.655 269.727,270.155 275.5,274C 299.943,292.441 315.443,316.607 322,346.5C 315.942,336.442 309.108,326.942 301.5,318C 298.167,315.333 294.833,312.667 291.5,310C 285.132,308.102 279.132,305.435 273.5,302C 252.722,297.821 234.889,303.321 220,318.5C 221.281,302.771 227.781,289.604 239.5,279C 244.938,275.284 250.605,272.118 256.5,269.5 Z"/></g>
<g><path style="opacity:1" fill="#f5f4e7" d="M 485.5,290.5 C 498.715,289.757 511.715,290.924 524.5,294C 536.342,298.72 547.675,304.387 558.5,311C 574.454,323.985 578.954,340.152 572,359.5C 571.152,361.874 569.819,363.874 568,365.5C 551.898,352.421 534.065,342.255 514.5,335C 496.911,330.718 480.244,333.051 464.5,342C 453.109,351.471 446.609,363.638 445,378.5C 444.667,387.5 444.333,396.5 444,405.5C 426.579,396.662 415.912,382.662 412,363.5C 411.174,358.411 411.508,353.411 413,348.5C 419.809,335.709 427.976,323.876 437.5,313C 443.693,309.738 449.36,305.738 454.5,301C 458.5,299 462.5,297 466.5,295C 473.116,294.187 479.45,292.687 485.5,290.5 Z"/></g>
<g><path style="opacity:1" fill="#f4f3e6" d="M 253.5,305.5 C 259.577,305.196 265.577,305.696 271.5,307C 277.456,310.765 283.789,313.765 290.5,316C 296.662,321.162 302.495,326.662 308,332.5C 312.333,339.833 316.667,347.167 321,354.5C 322.248,362.796 321.248,370.796 318,378.5C 312.651,387.877 306.818,396.877 300.5,405.5C 302.259,378.186 291.259,357.686 267.5,344C 247.309,340.175 230.809,346.341 218,362.5C 213.818,368.199 210.152,374.199 207,380.5C 203.492,363.884 206.159,348.217 215,333.5C 219.456,327.375 224.289,321.542 229.5,316C 237.041,311.217 245.041,307.717 253.5,305.5 Z"/></g>
<g><path style="opacity:1" fill="#1b1b1b" d="M 328.5,359.5 C 328.735,358.903 329.235,358.57 330,358.5C 339.985,363.606 350.485,367.106 361.5,369C 366.5,369.667 371.5,369.667 376.5,369C 384.799,366.081 393.133,365.414 401.5,367C 406.883,376.063 406.217,384.729 399.5,393C 389.58,396.899 381.247,394.566 374.5,386C 370.619,382.357 366.285,381.69 361.5,384C 358.462,386.703 355.795,389.703 353.5,393C 348.411,393.826 343.411,393.492 338.5,392C 336.951,390.786 335.785,389.286 335,387.5C 332.764,379.317 331.43,370.984 331,362.5C 330.623,361.058 329.79,360.058 328.5,359.5 Z"/></g>

        
<g><path style="opacity:0.993" fill="#1d1d1c" d="M 533.5,373.5 C 533.427,375.027 534.094,376.027 535.5,376.5C 536.421,377.981 537.588,379.314 539,380.5C 546.114,378.049 553.447,377.049 561,377.5C 571.496,377.782 581.829,379.115 592,381.5C 596.31,378.951 600.81,376.785 605.5,375C 607.124,373.883 608.124,372.383 608.5,370.5C 607.169,365.662 605.169,361.162 602.5,357C 598.071,354.898 593.905,352.398 590,349.5C 589.652,347.077 590.818,346.077 593.5,346.5C 609.841,350.195 616.341,360.195 613,376.5C 603.38,385.408 592.213,388.574 579.5,386C 560.501,380.976 542.501,383.143 525.5,392.5C 525.631,391.624 525.298,390.957 524.5,390.5C 523.261,390.942 522.261,391.609 521.5,392.5C 520.791,393.404 519.791,393.737 518.5,393.5C 514.838,393.723 511.505,394.723 508.5,396.5C 505.759,396.707 503.426,397.707 501.5,399.5C 501.158,400.338 500.492,400.672 499.5,400.5C 494.914,401.46 490.914,403.46 487.5,406.5C 487.158,407.338 486.492,407.672 485.5,407.5C 483.973,407.427 482.973,408.094 482.5,409.5C 474.4,414.478 466.067,419.312 457.5,424C 443.308,427.421 428.975,430.088 414.5,432C 407.568,441.695 402.068,452.195 398,463.5C 395.706,464.852 393.206,465.519 390.5,465.5C 382.205,463.808 373.871,462.308 365.5,461C 361.367,455.866 356.867,451.032 352,446.5C 349.027,442.026 345.86,437.693 342.5,433.5C 326.223,431.676 310.223,429.009 294.5,425.5C 296.933,424.452 296.933,423.786 294.5,423.5C 290.703,423.128 287.37,421.794 284.5,419.5C 281.485,417.326 278.151,415.659 274.5,414.5C 273.415,412.413 271.749,411.08 269.5,410.5C 268.508,410.672 267.842,410.338 267.5,409.5C 267.027,408.094 266.027,407.427 264.5,407.5C 246.393,392.864 225.893,388.198 203,393.5C 187.393,392.379 177.393,384.379 173,369.5C 171.522,361.889 171.188,354.222 172,346.5C 172.576,343.876 173.91,343.209 176,344.5C 175.322,355.382 177.322,365.715 182,375.5C 187.666,382.337 194.999,386.337 204,387.5C 211.838,386.851 219.672,386.184 227.5,385.5C 228.689,385.756 229.856,386.089 231,386.5C 235.355,381.808 239.355,376.808 243,371.5C 252.878,352.411 262.212,333.077 271,313.5C 272.667,312.167 274.333,312.167 276,313.5C 278.194,316.554 279.861,319.888 281,323.5C 287.817,352.886 289.65,382.552 286.5,412.5C 310.116,423.996 334.949,427.996 361,424.5C 392.623,428.793 423.79,426.627 454.5,418C 456.833,416.833 459.167,415.667 461.5,414.5C 462.664,408.193 462.831,401.859 462,395.5C 457.444,368.94 451.777,342.606 445,316.5C 444.347,314.436 443.18,312.769 441.5,311.5C 441.709,310.914 442.043,310.414 442.5,310C 447.572,309.249 452.572,309.582 457.5,311C 484.557,324.944 508.391,343.111 529,365.5C 530.765,368.032 532.265,370.699 533.5,373.5 Z"/></g>
<g><path style="opacity:1" fill="#f5f4e7" d="M 469.5,410.5 C 468.833,406.5 468.167,402.5 467.5,398.5C 463.802,370.345 457.802,342.678 449.5,315.5C 454.683,316.058 459.683,317.891 464.5,321C 474.66,328.247 484.994,335.247 495.5,342C 505.667,351.5 515.833,361 526,370.5C 528.305,374.304 530.805,377.97 533.5,381.5C 518.166,386.445 503.166,392.278 488.5,399C 482.111,402.856 475.778,406.689 469.5,410.5 Z"/></g>
<g><path style="opacity:1" fill="#f2f1e4" d="M 273.5,321.5 C 274.79,322.058 275.623,323.058 276,324.5C 282.555,352.81 284.721,381.476 282.5,410.5C 274.922,407.036 267.922,402.536 261.5,397C 253.654,393.663 245.654,390.83 237.5,388.5C 238.608,384.869 240.774,381.869 244,379.5C 247.919,373.33 251.586,366.997 255,360.5C 261.178,347.478 267.345,334.478 273.5,321.5 Z"/></g>
<g><path style="opacity:0.514" fill="#85857e" d="M 533.5,373.5 C 534.906,373.973 535.573,374.973 535.5,376.5C 534.094,376.027 533.427,375.027 533.5,373.5 Z"/></g>
<g><path style="opacity:0.024" fill="#cacabf" d="M 525.5,392.5 C 524.167,392.5 522.833,392.5 521.5,392.5C 522.261,391.609 523.261,390.942 524.5,390.5C 525.298,390.957 525.631,391.624 525.5,392.5 Z"/></g>
<g><path style="opacity:0.024" fill="#d6d5ca" d="M 518.5,393.5 C 515.495,395.277 512.162,396.277 508.5,396.5C 511.505,394.723 514.838,393.723 518.5,393.5 Z"/></g>
<g><path style="opacity:0.039" fill="#d2d1c6" d="M 508.5,396.5 C 506.574,398.293 504.241,399.293 501.5,399.5C 503.426,397.707 505.759,396.707 508.5,396.5 Z"/></g>
<g><path style="opacity:0.031" fill="#d8d7cc" d="M 499.5,400.5 C 495.818,403.008 491.818,405.008 487.5,406.5C 490.914,403.46 494.914,401.46 499.5,400.5 Z"/></g>
<g><path style="opacity:1" fill="#82817a" d="M 467.5,398.5 C 468.167,402.5 468.833,406.5 469.5,410.5C 469.44,411.043 469.107,411.376 468.5,411.5C 467.508,407.217 467.174,402.884 467.5,398.5 Z"/></g>
<g><path style="opacity:0.055" fill="#d1d0c5" d="M 264.5,407.5 C 266.027,407.427 267.027,408.094 267.5,409.5C 265.973,409.573 264.973,408.906 264.5,407.5 Z"/></g>
<g><path style="opacity:0.02" fill="#dfded2" d="M 485.5,407.5 C 485.027,408.906 484.027,409.573 482.5,409.5C 482.973,408.094 483.973,407.427 485.5,407.5 Z"/></g>
<g><path style="opacity:0.102" fill="#b9b8af" d="M 269.5,410.5 C 271.749,411.08 273.415,412.413 274.5,414.5C 272.251,413.92 270.585,412.587 269.5,410.5 Z"/></g>
<g><path style="opacity:0.039" fill="#d0d0c5" d="M 274.5,414.5 C 278.151,415.659 281.485,417.326 284.5,419.5C 280.58,418.873 277.247,417.207 274.5,414.5 Z"/></g>
<g><path style="opacity:0.031" fill="#d7d6cb" d="M 294.5,423.5 C 296.933,423.786 296.933,424.452 294.5,425.5C 293.494,425.062 293.494,424.396 294.5,423.5 Z"/></g>
<g><path style="opacity:1" fill="#f1f0e3" d="M 350.5,430.5 C 360.215,430.459 369.882,431.125 379.5,432.5C 389.146,431.411 398.812,431.245 408.5,432C 402.865,440.766 397.865,449.933 393.5,459.5C 392.833,459.833 392.167,460.167 391.5,460.5C 383.983,458.204 376.316,456.704 368.5,456C 361.627,448.795 355.127,441.295 349,433.5C 348.761,432.212 349.261,431.212 350.5,430.5 Z"/></g>

        
<g><path style="opacity:0.994" fill="#1c1c1b" d="M 394.5,241.5 C 393.791,240.596 392.791,240.263 391.5,240.5C 391.5,242.167 391.5,243.833 391.5,245.5C 391.395,249.319 390.562,252.986 389,256.5C 387.321,259.699 385.321,260.033 383,257.5C 383.07,251.993 380.737,247.993 376,245.5C 372.584,247.992 370.418,251.325 369.5,255.5C 368.127,255.657 366.793,255.49 365.5,255C 361.071,251.705 356.571,248.538 352,245.5C 347.629,248.431 343.796,251.931 340.5,256C 339.5,256.667 338.5,256.667 337.5,256C 335.48,250.719 334.48,245.219 334.5,239.5C 334.5,238.5 334.5,237.5 334.5,236.5C 332.901,236.232 331.568,236.566 330.5,237.5C 324.003,240.981 321.503,238.981 323,231.5C 324.357,228.102 326.19,225.102 328.5,222.5C 329.289,222.217 329.956,221.717 330.5,221C 327.304,220.195 324.304,220.362 321.5,221.5C 317.924,222.813 314.258,223.313 310.5,223C 309.524,220.853 309.691,218.686 311,216.5C 316.593,208.448 324.093,202.948 333.5,200C 324.528,200.535 322.528,197.202 327.5,190C 329.441,188.097 331.774,187.264 334.5,187.5C 336.552,186.947 336.885,185.947 335.5,184.5C 334.023,182.193 332.023,180.36 329.5,179C 321.319,175.606 312.986,172.606 304.5,170C 301.654,169.121 300.987,167.454 302.5,165C 315.061,159.042 327.728,159.042 340.5,165C 355.345,170.679 365.679,180.846 371.5,195.5C 372.596,199.289 373.263,199.289 373.5,195.5C 377.16,183.177 383.16,172.177 391.5,162.5C 398.406,155.547 406.74,151.547 416.5,150.5C 415.726,157.132 412.893,162.798 408,167.5C 404.697,172.441 402.197,177.774 400.5,183.5C 405.328,183.469 410.328,183.635 415.5,184C 417.576,185.884 417.91,188.051 416.5,190.5C 412.206,191.645 408.539,193.812 405.5,197C 418.699,196.375 425.699,202.542 426.5,215.5C 419.799,216.682 414.132,219.682 409.5,224.5C 410.61,233.138 410.776,241.804 410,250.5C 409.592,253.42 408.259,255.754 406,257.5C 405.333,256.833 404.667,256.167 404,255.5C 403.946,252.139 402.946,249.139 401,246.5C 398.648,244.97 396.481,243.303 394.5,241.5 Z"/></g>
<g><path style="opacity:1" fill="#d7d6ca" d="M 408.5,202.5 C 405.167,202.5 401.833,202.5 398.5,202.5C 398.274,199.751 398.607,197.084 399.5,194.5C 397.051,193.09 394.884,193.424 393,195.5C 392.654,184.04 395.821,173.707 402.5,164.5C 400.833,163.334 399.166,163.334 397.5,164.5C 400.468,160.514 404.468,158.348 409.5,158C 401.586,167.41 397.252,178.243 396.5,190.5C 400.011,188.915 403.678,188.415 407.5,189C 404.333,190.833 401.833,193.333 400,196.5C 399.506,198.134 399.34,199.801 399.5,201.5C 402.713,201.19 405.713,201.523 408.5,202.5 Z"/></g>
<g><path style="opacity:1" fill="#f3f2e5" d="M 408.5,202.5 C 409.167,202.5 409.833,202.5 410.5,202.5C 410.423,203.75 409.756,204.583 408.5,205C 410.285,206.163 412.285,206.83 414.5,207C 417.207,210.35 416.207,212.017 411.5,212C 409,214.5 406.5,217 404,219.5C 403.805,224.418 403.305,229.251 402.5,234C 403.38,235.356 403.714,236.856 403.5,238.5C 401.861,238.074 400.528,238.074 399.5,238.5C 396.111,236.78 392.444,236.113 388.5,236.5C 387.992,241.216 387.158,245.882 386,250.5C 382.844,246.178 379.344,242.178 375.5,238.5C 373.547,239.761 371.547,240.927 369.5,242C 369.957,242.414 370.291,242.914 370.5,243.5C 368.808,245.359 367.308,247.359 366,249.5C 361.283,246.402 357.116,242.735 353.5,238.5C 350.961,239.931 348.628,241.597 346.5,243.5C 345.178,243.33 344.011,243.663 343,244.5C 342.667,243.833 342.333,243.167 342,242.5C 342.614,238.479 342.447,234.479 341.5,230.5C 338.788,230.263 336.288,230.263 334,230.5C 333.333,229.5 333.333,228.5 334,227.5C 335.022,225.336 336.189,223.336 337.5,221.5C 337.191,218.654 335.525,217.154 332.5,217C 327.116,216.495 321.782,216.495 316.5,217C 318.557,213.277 321.557,210.61 325.5,209C 330.138,206.003 334.971,204.503 340,204.5C 341.841,198.501 339.674,194.834 333.5,193.5C 335.664,191.316 338.331,189.983 341.5,189.5C 340.088,183.766 337.088,179.099 332.5,175.5C 331.473,173.474 330.139,171.641 328.5,170C 328.833,169.5 329.167,169 329.5,168.5C 330.736,169.246 332.07,169.579 333.5,169.5C 344.555,172.119 353.388,178.119 360,187.5C 363.841,193.178 367.174,199.178 370,205.5C 371.699,206.406 373.533,206.739 375.5,206.5C 377.343,194.144 381.843,182.81 389,172.5C 391.047,168.952 393.88,166.285 397.5,164.5C 399.166,163.334 400.833,163.334 402.5,164.5C 395.821,173.707 392.654,184.04 393,195.5C 394.884,193.424 397.051,193.09 399.5,194.5C 398.607,197.084 398.274,199.751 398.5,202.5C 401.833,202.5 405.167,202.5 408.5,202.5 Z"/></g>
<g><path style="opacity:1" fill="#cfcec2" d="M 333.5,169.5 C 332.07,169.579 330.736,169.246 329.5,168.5C 329.167,169 328.833,169.5 328.5,170C 330.139,171.641 331.473,173.474 332.5,175.5C 326.495,172.498 320.495,169.498 314.5,166.5C 318.122,165.341 321.789,165.175 325.5,166C 328.666,166.322 331.333,167.489 333.5,169.5 Z"/></g>
<g><path style="opacity:0.561" fill="#93928a" d="M 335.5,184.5 C 336.885,185.947 336.552,186.947 334.5,187.5C 335.11,186.609 335.443,185.609 335.5,184.5 Z"/></g>
<g><path style="opacity:1" fill="#92928a" d="M 371.5,195.5 C 372.167,195.5 372.833,195.5 373.5,195.5C 373.263,199.289 372.596,199.289 371.5,195.5 Z"/></g>
<g><path style="opacity:1" fill="#d9d8cb" d="M 410.5,202.5 C 416.016,203.181 420.016,206.014 422.5,211C 415.592,212.922 410.092,216.755 406,222.5C 406.522,230.127 406.522,237.794 406,245.5C 403.628,243.297 401.461,240.963 399.5,238.5C 400.528,238.074 401.861,238.074 403.5,238.5C 403.714,236.856 403.38,235.356 402.5,234C 403.305,229.251 403.805,224.418 404,219.5C 406.5,217 409,214.5 411.5,212C 416.207,212.017 417.207,210.35 414.5,207C 412.285,206.83 410.285,206.163 408.5,205C 409.756,204.583 410.423,203.75 410.5,202.5 Z"/></g>
<g><path style="opacity:0.447" fill="#706f69" d="M 321.5,221.5 C 324.304,220.362 327.304,220.195 330.5,221C 329.956,221.717 329.289,222.217 328.5,222.5C 326.393,221.532 324.059,221.198 321.5,221.5 Z"/></g>
<g><path style="opacity:1" fill="#d6d5c9" d="M 337.5,221.5 C 336.189,223.336 335.022,225.336 334,227.5C 333.333,228.5 333.333,229.5 334,230.5C 336.288,230.263 338.788,230.263 341.5,230.5C 342.447,234.479 342.614,238.479 342,242.5C 342.333,243.167 342.667,243.833 343,244.5C 344.011,243.663 345.178,243.33 346.5,243.5C 344.229,245.266 342.063,247.266 340,249.5C 337.689,243.959 336.856,238.293 337.5,232.5C 334.073,232.976 330.74,232.976 327.5,232.5C 329.464,227.538 332.798,223.871 337.5,221.5 Z"/></g>
<g><path style="opacity:0.18" fill="#b1b0a7" d="M 330.5,237.5 C 331.568,236.566 332.901,236.232 334.5,236.5C 334.5,237.5 334.5,238.5 334.5,239.5C 333.533,238.194 332.199,237.527 330.5,237.5 Z"/></g>
<g><path style="opacity:0.424" fill="#84847d" d="M 394.5,241.5 C 393.022,242.448 392.022,243.781 391.5,245.5C 391.5,243.833 391.5,242.167 391.5,240.5C 392.791,240.263 393.791,240.596 394.5,241.5 Z"/></g>

    </svg>
