
    <svg width="862" height="862" viewBox="0 0 862 862" fill="none" xmlns="http://www.w3.org/2000/svg">
        
<g><path style="opacity:1" fill="#f6f6e8" d="M -0.5,-0.5 C 286.833,-0.5 574.167,-0.5 861.5,-0.5C 861.5,286.833 861.5,574.167 861.5,861.5C 574.167,861.5 286.833,861.5 -0.5,861.5C -0.5,574.167 -0.5,286.833 -0.5,-0.5 Z"/></g>

        
<g><path style="opacity:0.983" fill="#1a1a19" d="M 578.5,540.5 C 583.993,540.916 589.326,542.082 594.5,544C 599.237,547.614 603.403,551.781 607,556.5C 613.977,570.057 616.311,584.39 614,599.5C 611.931,603.236 608.931,605.903 605,607.5C 603.018,607.01 601.351,606.01 600,604.5C 594.275,609.717 588.442,609.717 582.5,604.5C 577.923,613.337 572.256,614.337 565.5,607.5C 561.53,612.973 556.196,614.806 549.5,613C 548.299,612.097 547.465,610.931 547,609.5C 541.931,617.452 536.764,617.452 531.5,609.5C 527.737,613.765 523.737,617.932 519.5,622C 516.106,622.752 512.773,622.585 509.5,621.5C 508.194,620.088 507.36,618.421 507,616.5C 505.425,609.568 504.258,602.568 503.5,595.5C 504.335,583.317 510.669,578.317 522.5,580.5C 523.795,579.902 525.128,579.402 526.5,579C 535.197,570.637 543.531,561.97 551.5,553C 559.592,546.617 568.592,542.45 578.5,540.5 Z"/></g>
<g><path style="opacity:1" fill="#d9d8cb" d="M 587.5,601.5 C 588.496,601.586 589.329,601.252 590,600.5C 592.94,596.545 595.94,592.545 599,588.5C 599.37,579.339 598.37,570.339 596,561.5C 591.36,554.156 584.693,549.822 576,548.5C 573.538,549.159 571.038,549.493 568.5,549.5C 581.297,543.74 592.13,546.407 601,557.5C 608.853,570.951 611.186,585.285 608,600.5C 606.604,602.527 604.938,602.86 603,601.5C 602.091,598.089 601.091,594.755 600,591.5C 598.35,595.573 596.516,599.573 594.5,603.5C 591.584,604.861 589.251,604.195 587.5,601.5 Z"/></g>
<g><path style="opacity:1" fill="#f4f3e6" d="M 587.5,601.5 C 585.433,599.682 584.1,597.349 583.5,594.5C 582.635,593.417 581.635,593.251 580.5,594C 579.955,598.074 578.621,601.907 576.5,605.5C 574.878,607.439 573.044,607.772 571,606.5C 568.863,602.486 567.03,598.486 565.5,594.5C 564.522,594.977 563.689,595.643 563,596.5C 563.284,605.334 559.118,609.667 550.5,609.5C 550.348,605.228 549.348,601.228 547.5,597.5C 545.179,600.394 544.012,603.727 544,607.5C 541.618,612.067 538.951,612.4 536,608.5C 535.887,606.026 534.887,604.026 533,602.5C 527.856,607.313 523.023,612.48 518.5,618C 516.098,618.814 513.765,618.647 511.5,617.5C 508.811,609.37 507.645,601.036 508,592.5C 508.668,588.501 510.835,585.668 514.5,584C 518.801,584.363 523.134,584.363 527.5,584C 529.167,583 530.833,582 532.5,581C 540.864,572.97 548.864,564.637 556.5,556C 560.367,553.567 564.367,551.4 568.5,549.5C 571.038,549.493 573.538,549.159 576,548.5C 584.693,549.822 591.36,554.156 596,561.5C 598.37,570.339 599.37,579.339 599,588.5C 595.94,592.545 592.94,596.545 590,600.5C 589.329,601.252 588.496,601.586 587.5,601.5 Z"/></g>
<g><path style="opacity:0.982" fill="#191918" d="M 290.5,554.5 C 298.253,554.104 305.92,554.604 313.5,556C 315.5,557.333 317.5,558.667 319.5,560C 322.228,566.042 326.895,569.709 333.5,571C 335.378,572.543 336.878,574.376 338,576.5C 338.242,583.196 338.742,589.862 339.5,596.5C 339.461,598.587 338.461,599.921 336.5,600.5C 332.274,599.93 328.108,599.263 324,598.5C 322.5,600 321,601.5 319.5,603C 317.287,603.626 315.12,603.459 313,602.5C 306.564,605.689 301.23,604.356 297,598.5C 284.481,607.161 276.648,603.994 273.5,589C 271.944,573.778 277.611,562.278 290.5,554.5 Z"/></g>
<g><path style="opacity:1" fill="#f4f3e6" d="M 334.5,587.5 C 334.5,590.167 334.5,592.833 334.5,595.5C 333.167,595.5 331.833,595.5 330.5,595.5C 327.482,595.335 324.482,595.502 321.5,596C 320.022,598.039 318.022,598.872 315.5,598.5C 315.5,597.5 315.5,596.5 315.5,595.5C 312.326,596.015 309.326,597.015 306.5,598.5C 305.5,598.333 304.5,598.167 303.5,598C 301.441,595.366 299.275,592.866 297,590.5C 296.292,591.381 295.458,592.047 294.5,592.5C 290.404,593.285 287.07,592.118 284.5,589C 284.833,588.667 285.167,588.333 285.5,588C 283.667,587.5 282.5,586.333 282,584.5C 281.501,580.179 281.334,575.846 281.5,571.5C 281.709,570.078 282.209,568.745 283,567.5C 286.167,565 289.333,562.5 292.5,560C 298.167,559.333 303.833,559.333 309.5,560C 314.42,562.916 318.753,566.582 322.5,571C 326.232,572.461 329.732,574.294 333,576.5C 333.936,580.114 334.436,583.78 334.5,587.5 Z"/></g>
<g><path style="opacity:1" fill="#d7d6c9" d="M 281.5,571.5 C 281.334,575.846 281.501,580.179 282,584.5C 282.5,586.333 283.667,587.5 285.5,588C 285.167,588.333 284.833,588.667 284.5,589C 287.07,592.118 290.404,593.285 294.5,592.5C 293.641,595.452 291.641,597.285 288.5,598C 285.364,599.041 282.864,598.207 281,595.5C 279.409,588.608 279.076,581.608 280,574.5C 280.232,573.263 280.732,572.263 281.5,571.5 Z"/></g>
<g><path style="opacity:1" fill="#64635e" d="M 334.5,587.5 C 335.477,590.287 335.81,593.287 335.5,596.5C 333.585,596.784 331.919,596.451 330.5,595.5C 331.833,595.5 333.167,595.5 334.5,595.5C 334.5,592.833 334.5,590.167 334.5,587.5 Z"/></g>

        
<g><path style="opacity:0.997" fill="#130c08" d="M 585.5,142.5 C 618.064,141.521 648.731,148.688 677.5,164C 686.447,169.947 695.114,176.28 703.5,183C 714.043,196.673 717.876,211.839 715,228.5C 713.465,233.604 711.632,238.604 709.5,243.5C 702.685,251.482 695.685,259.316 688.5,267C 694.886,266.122 701.386,265.622 708,265.5C 730.255,265.765 739.422,276.931 735.5,299C 732.443,310.782 726.776,321.115 718.5,330C 703.713,339.671 700.213,336.838 708,321.5C 708.533,312.097 705.7,303.93 699.5,297C 693.141,295.462 686.808,295.795 680.5,298C 669.05,303.483 657.05,307.15 644.5,309C 631.183,311.395 618.849,309.062 607.5,302C 599.758,295.533 598.258,288.033 603,279.5C 607.229,269.604 614.396,262.771 624.5,259C 636.122,256.679 647.122,252.679 657.5,247C 667.385,239.172 670.052,229.339 665.5,217.5C 660.121,218.006 654.787,218.839 649.5,220C 628.159,228.35 609.159,240.35 592.5,256C 588,260.5 583.5,265 579,269.5C 573.788,285.037 563.288,290.537 547.5,286C 525.22,283.693 504.886,276.359 486.5,264C 473.295,251.722 467.128,236.555 468,218.5C 469.427,213.878 471.427,209.545 474,205.5C 488.146,191.361 503.313,178.527 519.5,167C 529.711,161.728 540.044,156.728 550.5,152C 562.08,148.024 573.746,144.858 585.5,142.5 Z"/></g>
<g><path style="opacity:1" fill="#916340" d="M 674.5,210.5 C 670.855,209.95 667.689,209.95 665,210.5C 664.722,209.584 664.222,208.918 663.5,208.5C 660.471,206.628 658.305,203.961 657,200.5C 655.059,195.299 653.559,189.966 652.5,184.5C 650.976,185.527 650.309,187.027 650.5,189C 651.273,195.651 653.439,201.818 657,207.5C 658.113,208.305 659.279,208.972 660.5,209.5C 660.631,210.239 660.464,210.906 660,211.5C 657.248,211.288 654.082,210.955 650.5,210.5C 647.971,211.599 645.471,212.599 643,213.5C 640.747,213.369 638.581,213.035 636.5,212.5C 635.201,213.09 634.368,214.09 634,215.5C 630.092,214.125 626.092,214.792 622,217.5C 618.678,216.558 615.511,216.225 612.5,216.5C 611.482,217.193 610.482,217.859 609.5,218.5C 602.515,211.337 597.348,203.003 594,193.5C 593.821,190.447 593.321,187.447 592.5,184.5C 591.914,184.709 591.414,185.043 591,185.5C 590.249,190.572 590.582,195.572 592,200.5C 595.603,207.257 599.77,213.591 604.5,219.5C 603.357,219.793 602.023,219.793 600.5,219.5C 598.654,221.592 596.321,222.926 593.5,223.5C 592.914,223.291 592.414,222.957 592,222.5C 589.29,225.186 586.29,227.519 583,229.5C 581.984,228.366 581.317,228.699 581,230.5C 580.667,230.167 580.333,229.833 580,229.5C 578.764,231.538 576.931,232.705 574.5,233C 574.833,233.333 575.167,233.667 575.5,234C 574.062,234.219 572.729,234.719 571.5,235.5C 570.669,238.672 568.669,240.338 565.5,240.5C 560.394,238.907 556.227,235.907 553,231.5C 548.605,225.434 544.605,219.1 541,212.5C 540.626,210.102 540.626,207.769 541,205.5C 539.989,204.663 538.822,204.33 537.5,204.5C 537.21,208.936 537.71,213.27 539,217.5C 543.333,223.833 547.667,230.167 552,236.5C 554.628,239.21 557.461,241.544 560.5,243.5C 556.477,247.697 551.81,251.197 546.5,254C 546.319,257.85 544.319,260.183 540.5,261C 539.15,262.718 537.983,264.552 537,266.5C 536.667,266.167 536.333,265.833 536,265.5C 536.063,268.767 534.563,270.934 531.5,272C 532.413,273.414 532.413,274.914 531.5,276.5C 513.09,273.379 497.256,265.379 484,252.5C 476.191,241.739 472.857,229.739 474,216.5C 478.709,208.785 484.542,201.951 491.5,196C 500.016,189.574 508.349,182.907 516.5,176C 537.635,162.267 560.635,153.267 585.5,149C 600.74,147.648 615.74,148.981 630.5,153C 645.739,157.3 660.405,162.966 674.5,170C 685.797,176.399 695.63,184.566 704,194.5C 709.659,204.809 711.659,215.809 710,227.5C 705.468,222.633 700.634,218.133 695.5,214C 688.723,211.462 681.723,210.296 674.5,210.5 Z"/></g>
<g><path style="opacity:0.996" fill="#140d08" d="M 174.5,164.5 C 224.809,164.566 263.976,185.233 292,226.5C 294.158,234.271 293.825,241.938 291,249.5C 286.623,263.427 279.789,275.927 270.5,287C 262.225,293.056 253.392,298.223 244,302.5C 236.894,304.964 229.728,305.13 222.5,303C 221.308,301.055 221.308,299.055 222.5,297C 218.747,289.407 215.58,281.573 213,273.5C 203.563,260.398 193.063,248.231 181.5,237C 167.625,227.703 152.625,220.703 136.5,216C 132.833,215.333 129.167,215.333 125.5,216C 122.528,217.141 120.861,219.308 120.5,222.5C 122.316,224.817 124.316,226.984 126.5,229C 134.833,232.667 143.167,236.333 151.5,240C 161.408,247.205 171.575,254.038 182,260.5C 188.153,269.822 187.986,278.989 181.5,288C 171.767,294.339 161.434,295.339 150.5,291C 143.153,288.657 135.819,286.323 128.5,284C 117.047,281.545 110.047,285.878 107.5,297C 108.614,304.497 110.614,311.663 113.5,318.5C 100.871,317.267 89.704,312.6 80,304.5C 77.9376,302.099 76.2709,299.433 75,296.5C 74.1041,288.754 74.4375,281.087 76,273.5C 80.018,265.44 85.8514,259.107 93.5,254.5C 80.7205,242.664 77.5539,228.664 84,212.5C 93.8725,199.627 105.373,188.46 118.5,179C 136.158,169.753 154.825,164.92 174.5,164.5 Z"/></g>
<g><path style="opacity:1" fill="#916340" d="M 280.5,260.5 C 279.213,261.831 277.047,262.831 274,263.5C 272.684,260.972 271.517,260.972 270.5,263.5C 268.694,262.141 267.194,262.475 266,264.5C 263.084,262.987 260.418,263.32 258,265.5C 256.457,264.715 254.79,264.715 253,265.5C 251.11,265.215 249.777,264.215 249,262.5C 247.636,263.258 246.469,262.758 245.5,261C 245.833,260.667 246.167,260.333 246.5,260C 243,257.331 239.667,254.498 236.5,251.5C 240.161,246.184 243.328,240.517 246,234.5C 247.37,226.236 247.87,217.903 247.5,209.5C 245.876,209.36 244.71,210.027 244,211.5C 245.234,224.956 241.734,236.956 233.5,247.5C 232.761,247.631 232.094,247.464 231.5,247C 232.833,246.333 232.833,245.667 231.5,245C 229.975,243.991 228.308,243.491 226.5,243.5C 226.5,242.5 226.5,241.5 226.5,240.5C 224.833,240.5 223.167,240.5 221.5,240.5C 221.5,239.5 221.5,238.5 221.5,237.5C 217.567,237.804 214.567,236.304 212.5,233C 209.494,230.886 206.16,229.553 202.5,229C 201.167,228.333 201.167,227.667 202.5,227C 199.5,224.997 196.167,224.164 192.5,224.5C 192.169,222.678 191.502,221.011 190.5,219.5C 192.155,211.723 193.489,203.889 194.5,196C 194.333,193.833 194.167,191.667 194,189.5C 192.667,188.167 191.333,188.167 190,189.5C 190.106,199.791 188.606,209.791 185.5,219.5C 183.007,219.671 181.174,218.671 180,216.5C 179.667,216.833 179.333,217.167 179,217.5C 177.601,216.773 176.101,216.273 174.5,216C 173.167,215.333 173.167,214.667 174.5,214C 172.729,211.887 171.229,212.053 170,214.5C 169,213.167 168,211.833 167,210.5C 165.984,211.634 165.317,211.301 165,209.5C 164.667,209.833 164.333,210.167 164,210.5C 162.316,208.299 160.316,207.633 158,208.5C 157.676,206.431 156.842,206.098 155.5,207.5C 153.517,207.185 152.184,206.185 151.5,204.5C 151.664,201.813 151.497,199.146 151,196.5C 149.989,195.663 148.822,195.33 147.5,195.5C 147.5,197.167 147.5,198.833 147.5,200.5C 146.837,202.042 146.17,203.709 145.5,205.5C 143.807,203.973 141.973,202.64 140,201.5C 139.586,201.957 139.086,202.291 138.5,202.5C 135.133,201.554 131.8,200.554 128.5,199.5C 125.565,199.899 122.731,199.899 120,199.5C 119.261,198.426 118.261,197.759 117,197.5C 114.064,198.035 111.397,198.035 109,197.5C 107.556,199.155 105.722,199.822 103.5,199.5C 109.345,193.492 115.678,187.992 122.5,183C 141.944,172.887 162.611,168.887 184.5,171C 227.599,172.959 261.432,191.459 286,226.5C 287.555,231.382 287.888,236.382 287,241.5C 284.933,247.867 282.766,254.201 280.5,260.5 Z"/></g>
<g><path style="opacity:1" fill="#0c0604" d="M 663.5,208.5 C 662.791,209.404 661.791,209.737 660.5,209.5C 659.279,208.972 658.113,208.305 657,207.5C 653.439,201.818 651.273,195.651 650.5,189C 650.309,187.027 650.976,185.527 652.5,184.5C 653.559,189.966 655.059,195.299 657,200.5C 658.305,203.961 660.471,206.628 663.5,208.5 Z"/></g>
<g><path style="opacity:1" fill="#814125" d="M 147.5,200.5 C 147.543,203.91 147.043,207.243 146,210.5C 145.481,211.516 144.647,212.182 143.5,212.5C 138.371,210.402 133.038,209.235 127.5,209C 116.113,208.401 104.78,208.401 93.5,209C 96.0658,204.932 99.3991,201.765 103.5,199.5C 105.722,199.822 107.556,199.155 109,197.5C 111.397,198.035 114.064,198.035 117,197.5C 118.261,197.759 119.261,198.426 120,199.5C 122.731,199.899 125.565,199.899 128.5,199.5C 131.8,200.554 135.133,201.554 138.5,202.5C 139.086,202.291 139.586,201.957 140,201.5C 141.973,202.64 143.807,203.973 145.5,205.5C 146.17,203.709 146.837,202.042 147.5,200.5 Z"/></g>
<g><path style="opacity:1" fill="#0e0805" d="M 565.5,240.5 C 569.152,242.787 573.152,244.621 577.5,246C 578.687,247.019 579.687,248.186 580.5,249.5C 580,249.833 579.5,250.167 579,250.5C 572.789,248.241 566.622,245.907 560.5,243.5C 557.461,241.544 554.628,239.21 552,236.5C 547.667,230.167 543.333,223.833 539,217.5C 537.71,213.27 537.21,208.936 537.5,204.5C 538.822,204.33 539.989,204.663 541,205.5C 540.626,207.769 540.626,210.102 541,212.5C 544.605,219.1 548.605,225.434 553,231.5C 556.227,235.907 560.394,238.907 565.5,240.5 Z"/></g>
<g><path style="opacity:1" fill="#814125" d="M 151.5,204.5 C 152.184,206.185 153.517,207.185 155.5,207.5C 156.842,206.098 157.676,206.431 158,208.5C 160.316,207.633 162.316,208.299 164,210.5C 164.333,210.167 164.667,209.833 165,209.5C 165.317,211.301 165.984,211.634 167,210.5C 168,211.833 169,213.167 170,214.5C 171.229,212.053 172.729,211.887 174.5,214C 173.167,214.667 173.167,215.333 174.5,216C 176.101,216.273 177.601,216.773 179,217.5C 179.333,217.167 179.667,216.833 180,216.5C 181.174,218.671 183.007,219.671 185.5,219.5C 185.047,225.124 182.047,227.624 176.5,227C 168.001,221.777 159.001,217.61 149.5,214.5C 149.167,214.167 148.833,213.833 148.5,213.5C 149.635,210.418 150.635,207.418 151.5,204.5 Z"/></g>
<g><path style="opacity:1" fill="#804225" d="M 663.5,208.5 C 664.222,208.918 664.722,209.584 665,210.5C 667.689,209.95 670.855,209.95 674.5,210.5C 665.901,211.593 657.234,213.093 648.5,215C 638.962,218.399 629.796,222.566 621,227.5C 616.705,225.032 612.871,222.032 609.5,218.5C 610.482,217.859 611.482,217.193 612.5,216.5C 615.511,216.225 618.678,216.558 622,217.5C 626.092,214.792 630.092,214.125 634,215.5C 634.368,214.09 635.201,213.09 636.5,212.5C 638.581,213.035 640.747,213.369 643,213.5C 645.471,212.599 647.971,211.599 650.5,210.5C 654.082,210.955 657.248,211.288 660,211.5C 660.464,210.906 660.631,210.239 660.5,209.5C 661.791,209.737 662.791,209.404 663.5,208.5 Z"/></g>
<g><path style="opacity:1" fill="#814125" d="M 99.5,213.5 C 106.011,212.182 112.678,212.182 119.5,213.5C 114.302,219.112 114.302,224.612 119.5,230C 129.167,235.563 139.167,240.563 149.5,245C 154.738,249.203 160.238,253.036 166,256.5C 167.033,259.217 166.2,261.051 163.5,262C 159.5,262.667 155.5,262.667 151.5,262C 141.613,258.092 131.613,254.925 121.5,252.5C 121.938,252.565 122.272,252.399 122.5,252C 119.107,251.606 116.94,249.773 116,246.5C 115.282,247.451 114.449,247.617 113.5,247C 114.866,244.562 114.366,244.062 112,245.5C 104.753,241.582 99.5867,235.749 96.5,228C 97.8333,225.667 97.8333,223.333 96.5,221C 98.5689,220.676 98.9023,219.842 97.5,218.5C 97.9767,217.522 98.6433,216.689 99.5,216C 98.3659,214.984 98.6992,214.317 100.5,214C 100.272,213.601 99.9382,213.435 99.5,213.5 Z"/></g>
<g><path style="opacity:1" fill="#8e613f" d="M 99.5,213.5 C 99.9382,213.435 100.272,213.601 100.5,214C 98.6992,214.317 98.3659,214.984 99.5,216C 98.6433,216.689 97.9767,217.522 97.5,218.5C 98.9023,219.842 98.5689,220.676 96.5,221C 97.8333,223.333 97.8333,225.667 96.5,228C 99.5867,235.749 104.753,241.582 112,245.5C 114.366,244.062 114.866,244.562 113.5,247C 114.449,247.617 115.282,247.451 116,246.5C 116.94,249.773 119.107,251.606 122.5,252C 122.272,252.399 121.938,252.565 121.5,252.5C 114.479,251.289 107.479,251.289 100.5,252.5C 88.226,243.846 83.726,232.18 87,217.5C 90.5443,214.486 94.711,213.153 99.5,213.5 Z"/></g>
<g><path style="opacity:1" fill="#824125" d="M 697.5,223.5 C 697.063,225.074 696.063,226.241 694.5,227C 696.767,228.081 696.934,229.581 695,231.5C 693.859,233.609 692.359,235.442 690.5,237C 691.517,238.049 691.684,239.216 691,240.5C 689.59,241.787 688.09,242.954 686.5,244C 687.167,244.333 687.833,244.667 688.5,245C 684.942,246.892 682.442,249.725 681,253.5C 678.833,254.333 677.333,255.833 676.5,258C 673.19,257.771 671.356,259.271 671,262.5C 668.871,261.137 668.371,261.471 669.5,263.5C 666.319,265.419 662.985,267.919 659.5,271C 658.451,271.492 657.451,271.326 656.5,270.5C 655.476,271.853 654.143,272.52 652.5,272.5C 652.5,273.5 652.5,274.5 652.5,275.5C 645.963,277.215 639.629,276.715 633.5,274C 630.019,270.603 629.686,266.936 632.5,263C 644.389,260.471 655.222,255.638 665,248.5C 672.665,239.229 674.498,228.895 670.5,217.5C 677.173,216.444 683.839,216.61 690.5,218C 693.266,219.371 695.599,221.204 697.5,223.5 Z"/></g>
<g><path style="opacity:1" fill="#824125" d="M 604.5,219.5 C 607.944,223.061 611.944,225.894 616.5,228C 617.451,228.718 617.617,229.551 617,230.5C 602.847,240.085 589.847,251.085 578,263.5C 574.501,267.672 571.834,272.338 570,277.5C 568.5,279 567,280.5 565.5,282C 553.925,281.126 542.592,279.293 531.5,276.5C 532.413,274.914 532.413,273.414 531.5,272C 534.563,270.934 536.063,268.767 536,265.5C 536.333,265.833 536.667,266.167 537,266.5C 537.983,264.552 539.15,262.718 540.5,261C 544.319,260.183 546.319,257.85 546.5,254C 551.81,251.197 556.477,247.697 560.5,243.5C 566.622,245.907 572.789,248.241 579,250.5C 579.5,250.167 580,249.833 580.5,249.5C 579.687,248.186 578.687,247.019 577.5,246C 573.152,244.621 569.152,242.787 565.5,240.5C 568.669,240.338 570.669,238.672 571.5,235.5C 572.729,234.719 574.062,234.219 575.5,234C 575.167,233.667 574.833,233.333 574.5,233C 576.931,232.705 578.764,231.538 580,229.5C 580.333,229.833 580.667,230.167 581,230.5C 581.317,228.699 581.984,228.366 583,229.5C 586.29,227.519 589.29,225.186 592,222.5C 592.414,222.957 592.914,223.291 593.5,223.5C 596.321,222.926 598.654,221.592 600.5,219.5C 602.023,219.793 603.357,219.793 604.5,219.5 Z"/></g>
<g><path style="opacity:1" fill="#824125" d="M 190.5,219.5 C 191.502,221.011 192.169,222.678 192.5,224.5C 196.167,224.164 199.5,224.997 202.5,227C 201.167,227.667 201.167,228.333 202.5,229C 206.16,229.553 209.494,230.886 212.5,233C 214.567,236.304 217.567,237.804 221.5,237.5C 221.5,238.5 221.5,239.5 221.5,240.5C 223.167,240.5 224.833,240.5 226.5,240.5C 226.5,241.5 226.5,242.5 226.5,243.5C 228.308,243.491 229.975,243.991 231.5,245C 232.833,245.667 232.833,246.333 231.5,247C 232.094,247.464 232.761,247.631 233.5,247.5C 229.227,257.713 221.727,262.046 211,260.5C 203.413,249.577 194.413,239.91 184,231.5C 186.381,227.746 188.548,223.746 190.5,219.5 Z"/></g>
<g><path style="opacity:1" fill="#8f613f" d="M 697.5,223.5 C 700.11,225.606 702.61,227.94 705,230.5C 705.667,233.5 705.667,236.5 705,239.5C 703.248,242.672 701.248,245.672 699,248.5C 693.167,255.667 686.667,262.167 679.5,268C 670.564,270.712 661.564,273.212 652.5,275.5C 652.5,274.5 652.5,273.5 652.5,272.5C 654.143,272.52 655.476,271.853 656.5,270.5C 657.451,271.326 658.451,271.492 659.5,271C 662.985,267.919 666.319,265.419 669.5,263.5C 668.371,261.471 668.871,261.137 671,262.5C 671.356,259.271 673.19,257.771 676.5,258C 677.333,255.833 678.833,254.333 681,253.5C 682.442,249.725 684.942,246.892 688.5,245C 687.833,244.667 687.167,244.333 686.5,244C 688.09,242.954 689.59,241.787 691,240.5C 691.684,239.216 691.517,238.049 690.5,237C 692.359,235.442 693.859,233.609 695,231.5C 696.934,229.581 696.767,228.081 694.5,227C 696.063,226.241 697.063,225.074 697.5,223.5 Z"/></g>
<g><path style="opacity:1" fill="#824125" d="M 236.5,251.5 C 239.667,254.498 243,257.331 246.5,260C 246.167,260.333 245.833,260.667 245.5,261C 246.469,262.758 247.636,263.258 249,262.5C 249.777,264.215 251.11,265.215 253,265.5C 254.79,264.715 256.457,264.715 258,265.5C 260.418,263.32 263.084,262.987 266,264.5C 267.194,262.475 268.694,262.141 270.5,263.5C 271.517,260.972 272.684,260.972 274,263.5C 277.047,262.831 279.213,261.831 280.5,260.5C 277.235,268.863 272.568,276.363 266.5,283C 259.668,287.584 252.668,291.917 245.5,296C 240.09,298.382 234.424,299.549 228.5,299.5C 228.579,296.729 228.079,294.063 227,291.5C 223.518,285.533 220.851,279.199 219,272.5C 217.224,269.059 215.057,265.892 212.5,263C 223.249,265.463 231.249,261.63 236.5,251.5 Z"/></g>
<g><path style="opacity:1" fill="#8f613f" d="M 180.5,271.5 C 178.54,272.138 176.707,272.138 175,271.5C 172.383,273.414 169.883,275.414 167.5,277.5C 165.326,276.137 163.159,275.803 161,276.5C 157.924,275.712 154.758,275.212 151.5,275C 149.709,274.585 148.376,273.585 147.5,272C 145.559,271.257 143.726,271.424 142,272.5C 139.826,270.824 137.326,269.824 134.5,269.5C 129.927,270.548 125.427,270.548 121,269.5C 120.36,271.398 119.027,271.732 117,270.5C 115.112,270.796 113.278,271.296 111.5,272C 111.833,272.333 112.167,272.667 112.5,273C 109.813,273.341 107.813,274.674 106.5,277C 104.564,277.813 102.564,278.313 100.5,278.5C 100.5,279.833 100.5,281.167 100.5,282.5C 98.3193,282.284 96.6526,283.117 95.5,285C 96.1162,287.39 96.1162,289.556 95.5,291.5C 94.8721,293.258 93.8721,294.758 92.5,296C 93.3266,297.893 93.3266,300.059 92.5,302.5C 93.5,303.333 94.5,304.167 95.5,305C 94.5842,305.278 93.9175,305.778 93.5,306.5C 80.2922,301.07 75.9589,291.403 80.5,277.5C 83.2109,281.212 86.5442,284.212 90.5,286.5C 91.5827,285.635 91.7494,284.635 91,283.5C 86.2333,280.291 83.8999,275.958 84,270.5C 87.8837,264.641 93.0504,260.308 99.5,257.5C 100.333,260.5 101.167,263.5 102,266.5C 103.94,269.402 106.44,270.402 109.5,269.5C 105.328,266.152 103.661,261.819 104.5,256.5C 120.194,257.007 135.194,260.507 149.5,267C 158.355,268.992 166.189,267.159 173,261.5C 177.21,263.544 179.71,266.878 180.5,271.5 Z"/></g>
<g><path style="opacity:1" fill="#8f613f" d="M 680.5,284.5 C 677.184,285.466 673.85,286.466 670.5,287.5C 668.941,286.926 667.441,286.26 666,285.5C 660.648,288.611 655.481,289.944 650.5,289.5C 649.672,290.415 648.672,291.081 647.5,291.5C 637.942,290.758 628.275,290.758 618.5,291.5C 616.018,289.539 613.352,287.706 610.5,286C 611.34,284.334 610.84,284.167 609,285.5C 608.283,284.956 607.783,284.289 607.5,283.5C 610.757,274.409 616.923,268.076 626,264.5C 625.725,271.785 628.892,276.952 635.5,280C 641.461,281.239 647.461,281.573 653.5,281C 663.618,277.743 673.952,275.576 684.5,274.5C 683.752,278.006 682.419,281.34 680.5,284.5 Z"/></g>
<g><path style="opacity:1" fill="#824225" d="M 180.5,271.5 C 182.349,279.286 179.349,284.453 171.5,287C 166.833,287.667 162.167,287.667 157.5,287C 148.3,284.933 139.3,282.266 130.5,279C 106.011,276.986 98.0112,287.486 106.5,310.5C 101.748,310.807 97.4144,309.473 93.5,306.5C 93.9175,305.778 94.5842,305.278 95.5,305C 94.5,304.167 93.5,303.333 92.5,302.5C 93.3266,300.059 93.3266,297.893 92.5,296C 93.8721,294.758 94.8721,293.258 95.5,291.5C 96.1162,289.556 96.1162,287.39 95.5,285C 96.6526,283.117 98.3193,282.284 100.5,282.5C 100.5,281.167 100.5,279.833 100.5,278.5C 102.564,278.313 104.564,277.813 106.5,277C 107.813,274.674 109.813,273.341 112.5,273C 112.167,272.667 111.833,272.333 111.5,272C 113.278,271.296 115.112,270.796 117,270.5C 119.027,271.732 120.36,271.398 121,269.5C 125.427,270.548 129.927,270.548 134.5,269.5C 137.326,269.824 139.826,270.824 142,272.5C 143.726,271.424 145.559,271.257 147.5,272C 148.376,273.585 149.709,274.585 151.5,275C 154.758,275.212 157.924,275.712 161,276.5C 163.159,275.803 165.326,276.137 167.5,277.5C 169.883,275.414 172.383,273.414 175,271.5C 176.707,272.138 178.54,272.138 180.5,271.5 Z"/></g>
<g><path style="opacity:1" fill="#90623f" d="M 719.5,319.5 C 718.761,319.631 718.094,319.464 717.5,319C 718.747,317.542 718.747,316.042 717.5,314.5C 717.846,313.304 718.346,313.304 719,314.5C 719.44,311.339 718.607,308.506 716.5,306C 717.475,303.588 716.808,301.588 714.5,300C 715.634,298.984 715.301,298.317 713.5,298C 714.308,297.692 714.975,297.192 715.5,296.5C 714.753,296.264 713.92,295.93 713,295.5C 712.581,291.148 711.914,290.815 711,294.5C 709.113,292.974 708.113,290.974 708,288.5C 707.683,290.301 707.016,290.634 706,289.5C 705.517,288.552 705.351,287.552 705.5,286.5C 702.684,288.217 700.517,287.551 699,284.5C 698.667,284.833 698.333,285.167 698,285.5C 696.293,284.541 694.459,283.875 692.5,283.5C 690.313,284.072 687.979,284.072 685.5,283.5C 686.466,279.783 687.8,276.283 689.5,273C 698.797,271.602 708.13,271.268 717.5,272C 720.329,273.247 722.995,274.747 725.5,276.5C 725.887,278.731 726.053,281.064 726,283.5C 727.512,281.043 728.846,281.043 730,283.5C 731.455,297.023 727.955,309.023 719.5,319.5 Z"/></g>
<g><path style="opacity:1" fill="#814225" d="M 607.5,283.5 C 607.783,284.289 608.283,284.956 609,285.5C 610.84,284.167 611.34,284.334 610.5,286C 613.352,287.706 616.018,289.539 618.5,291.5C 628.275,290.758 637.942,290.758 647.5,291.5C 648.672,291.081 649.672,290.415 650.5,289.5C 655.481,289.944 660.648,288.611 666,285.5C 667.441,286.26 668.941,286.926 670.5,287.5C 673.85,286.466 677.184,285.466 680.5,284.5C 680.735,285.097 681.235,285.43 682,285.5C 683.303,285.022 684.469,284.355 685.5,283.5C 687.979,284.072 690.313,284.072 692.5,283.5C 694.459,283.875 696.293,284.541 698,285.5C 698.333,285.167 698.667,284.833 699,284.5C 700.517,287.551 702.684,288.217 705.5,286.5C 705.351,287.552 705.517,288.552 706,289.5C 707.016,290.634 707.683,290.301 708,288.5C 708.113,290.974 709.113,292.974 711,294.5C 711.914,290.815 712.581,291.148 713,295.5C 713.92,295.93 714.753,296.264 715.5,296.5C 714.975,297.192 714.308,297.692 713.5,298C 715.301,298.317 715.634,298.984 714.5,300C 716.808,301.588 717.475,303.588 716.5,306C 718.607,308.506 719.44,311.339 719,314.5C 718.346,313.304 717.846,313.304 717.5,314.5C 718.747,316.042 718.747,317.542 717.5,319C 718.094,319.464 718.761,319.631 719.5,319.5C 717.588,322.919 715.088,325.919 712,328.5C 714.381,318.584 713.381,308.917 709,299.5C 707.168,296.639 705.001,294.139 702.5,292C 696.569,290.529 690.569,290.196 684.5,291C 672.945,294.94 661.278,298.607 649.5,302C 640.875,303.419 632.208,303.752 623.5,303C 617.013,301.508 611.513,298.341 607,293.5C 604.882,289.901 605.049,286.568 607.5,283.5 Z"/></g>

        
<g><path style="opacity:0.994" fill="#1c1f20" d="M 703.5,385.5 C 703.41,388.152 704.076,390.485 705.5,392.5C 706.37,394.032 706.036,395.532 704.5,397C 701.814,398.368 699.147,399.701 696.5,401C 687.337,403.06 678.337,403.893 669.5,403.5C 671.81,407.254 673.643,411.254 675,415.5C 676.619,423.927 678.619,432.26 681,440.5C 682.454,454.02 679.787,466.687 673,478.5C 663.749,491.086 652.582,501.586 639.5,510C 630.893,513.302 622.893,517.635 615.5,523C 597.029,529.157 579.029,536.491 561.5,545C 545.683,550.606 529.683,555.606 513.5,560C 527.668,574.176 543.001,586.843 559.5,598C 576.758,613.656 588.591,632.823 595,655.5C 600.246,671.481 603.746,687.814 605.5,704.5C 615.856,702.179 626.356,700.846 637,700.5C 653.9,703.09 670.9,704.757 688,705.5C 707.617,704.722 725.784,699.222 742.5,689C 757.923,678.567 772.423,667.067 786,654.5C 787.653,654.82 788.653,655.82 789,657.5C 790.41,661.976 791.577,666.476 792.5,671C 792.058,695.003 785.891,717.503 774,738.5C 761.43,755.698 744.596,766.531 723.5,771C 714.162,773.335 704.828,775.668 695.5,778C 672.316,777.979 649.649,781.312 627.5,788C 631.324,793.922 636.657,797.922 643.5,800C 646.319,802.72 645.986,805.053 642.5,807C 635.644,812.007 627.978,814.507 619.5,814.5C 615.167,814.5 610.833,814.5 606.5,814.5C 606.263,815.791 606.596,816.791 607.5,817.5C 609.143,819.708 608.81,821.541 606.5,823C 599.093,824.492 591.593,825.325 584,825.5C 570.833,824.357 557.666,823.19 544.5,822C 528.753,817.882 515.253,810.049 504,798.5C 495.911,789.336 489.577,779.003 485,767.5C 473.056,772.575 460.556,774.908 447.5,774.5C 441.513,773.858 435.513,773.358 429.5,773C 427,772.625 424.667,771.792 422.5,770.5C 418.78,774.733 415.613,779.4 413,784.5C 396.732,800.487 377.065,808.487 354,808.5C 349.103,808.068 344.269,807.234 339.5,806C 337.709,805.585 336.376,804.585 335.5,803C 338.138,800.346 341.138,798.18 344.5,796.5C 345.973,795.928 347.307,795.095 348.5,794C 346.609,793.797 344.943,794.297 343.5,795.5C 334.515,796.911 325.515,796.744 316.5,795C 304.562,791.925 299.562,784.425 301.5,772.5C 312.272,769.781 321.939,764.947 330.5,758C 319.87,750.041 313.37,739.541 311,726.5C 307.602,710.123 307.769,693.789 311.5,677.5C 312.793,675.636 312.793,673.636 311.5,671.5C 310.893,671.624 310.56,671.957 310.5,672.5C 309.013,673.804 307.346,674.97 305.5,676C 298.059,677.01 291.059,675.843 284.5,672.5C 275.52,664.574 271.187,654.574 271.5,642.5C 272.908,618.525 282.242,598.358 299.5,582C 310.392,573.408 322.392,571.241 335.5,575.5C 336.947,576.885 337.947,576.552 338.5,574.5C 338.433,573.041 338.766,571.708 339.5,570.5C 340.757,569.377 340.424,568.711 338.5,568.5C 315.681,566.503 293.348,562.003 271.5,555C 242.136,546.981 214.802,534.648 189.5,518C 175.252,507.086 163.085,494.253 153,479.5C 143.563,463.572 140.896,446.572 145,428.5C 139.772,431.396 134.272,432.062 128.5,430.5C 127.063,426.472 126.397,422.305 126.5,418C 128.512,388.142 139.012,361.642 158,338.5C 167.466,327.852 178.966,320.352 192.5,316C 198.537,315.303 204.537,315.47 210.5,316.5C 211.252,310.492 213.086,304.826 216,299.5C 222.667,288.833 229.333,278.167 236,267.5C 246.355,255.578 258.188,245.412 271.5,237C 349.867,210.135 429.201,206.801 509.5,227C 517.288,230.394 524.955,234.061 532.5,238C 541.167,244.671 550.501,250.338 560.5,255C 565.667,261.5 570.833,268 576,274.5C 579.431,281.886 582.098,289.553 584,297.5C 600.968,293.905 616.801,296.738 631.5,306C 657.957,323.456 680.123,345.29 698,371.5C 700.529,375.926 702.362,380.592 703.5,385.5 Z"/></g>
<g><path style="opacity:1" fill="#fefefe" d="M 689.5,369.5 C 691.394,388.441 683.061,395.941 664.5,392C 659.57,389.912 654.57,388.246 649.5,387C 651.982,389.553 654.315,392.053 656.5,394.5C 656.491,396.308 656.991,397.975 658,399.5C 663.267,403.266 666.767,408.266 668.5,414.5C 666.094,444.812 653.427,469.979 630.5,490C 609.172,505.502 586.172,518.168 561.5,528C 537.744,534.712 514.077,541.712 490.5,549C 467.909,553.643 445.076,556.476 422,557.5C 403.845,556.985 385.678,556.818 367.5,557C 353.151,555.163 338.817,553.163 324.5,551C 281.912,540.25 241.245,524.583 202.5,504C 184.13,492.633 168.63,478.133 156,460.5C 152.008,453.009 150.508,445.009 151.5,436.5C 153.986,428.609 154.986,420.609 154.5,412.5C 152.056,416.118 149.39,419.618 146.5,423C 142.683,424.995 138.683,426.495 134.5,427.5C 133.201,426.91 132.368,425.91 132,424.5C 131.833,422.5 131.667,420.5 131.5,418.5C 132.829,409.519 133.995,400.519 135,391.5C 141.619,374.254 150.285,358.254 161,343.5C 170.072,333.387 180.905,325.887 193.5,321C 200.189,320.622 206.856,320.622 213.5,321C 224.905,285.517 246.572,258.184 278.5,239C 326.787,224.631 376.12,217.964 426.5,219C 447.799,221.481 469.132,224.481 490.5,228C 501.708,230.134 512.375,233.801 522.5,239C 534.166,246.835 546.166,254.169 558.5,261C 569.707,272.248 576.541,285.748 579,301.5C 581.376,308.587 585.043,314.92 590,320.5C 588.297,314.55 586.463,308.55 584.5,302.5C 599.35,299.458 613.35,301.625 626.5,309C 651.248,325.248 672.248,345.414 689.5,369.5 Z"/></g>
<g><path style="opacity:1" fill="#0a0d0e" d="M 618.5,337.5 C 634.542,353.376 653.208,365.543 674.5,374C 676.954,375.74 678.454,377.907 679,380.5C 677.612,381.554 676.112,381.72 674.5,381C 654.654,371.331 636.821,358.831 621,343.5C 619.441,341.783 618.608,339.783 618.5,337.5 Z"/></g>
<g><path style="opacity:1" fill="#dcebf2" d="M 689.5,369.5 C 695.393,376.932 698.726,385.265 699.5,394.5C 685.507,400.14 671.674,399.807 658,393.5C 657.235,393.57 656.735,393.903 656.5,394.5C 654.315,392.053 651.982,389.553 649.5,387C 654.57,388.246 659.57,389.912 664.5,392C 683.061,395.941 691.394,388.441 689.5,369.5 Z"/></g>
<g><path style="opacity:1" fill="#070a0b" d="M 147.5,382.5 C 148.947,383.134 149.613,384.301 149.5,386C 148.047,393.453 146.881,400.953 146,408.5C 144.374,411.128 142.374,413.461 140,415.5C 141.412,404.277 143.912,393.277 147.5,382.5 Z"/></g>
<g><path style="opacity:0.686" fill="#686862" d="M 703.5,385.5 C 704.924,387.515 705.59,389.848 705.5,392.5C 704.076,390.485 703.41,388.152 703.5,385.5 Z"/></g>
<g><path style="opacity:1" fill="#dcecf3" d="M 668.5,414.5 C 671.657,425.264 674.324,436.264 676.5,447.5C 675.399,460.687 670.732,472.354 662.5,482.5C 657.167,487.167 652.167,492.167 647.5,497.5C 636.091,503.71 624.757,510.21 613.5,517C 594.28,523.296 575.614,530.963 557.5,540C 520.924,553.415 483.257,562.081 444.5,566C 434.682,566.81 424.849,567.31 415,567.5C 386.526,565.51 358.026,564.01 329.5,563C 288.931,556.527 250.265,544.193 213.5,526C 189.805,512.97 170.639,495.137 156,472.5C 149.589,460.938 148.089,448.938 151.5,436.5C 150.508,445.009 152.008,453.009 156,460.5C 168.63,478.133 184.13,492.633 202.5,504C 241.245,524.583 281.912,540.25 324.5,551C 338.817,553.163 353.151,555.163 367.5,557C 385.678,556.818 403.845,556.985 422,557.5C 445.076,556.476 467.909,553.643 490.5,549C 514.077,541.712 537.744,534.712 561.5,528C 586.172,518.168 609.172,505.502 630.5,490C 653.427,469.979 666.094,444.812 668.5,414.5 Z"/></g>
<g><path style="opacity:1" fill="#284c5d" d="M 662.5,482.5 C 658.5,488.5 653.5,493.5 647.5,497.5C 652.167,492.167 657.167,487.167 662.5,482.5 Z"/></g>
<g><path style="opacity:1" fill="#dcecf3" d="M 478.5,672.5 C 479.316,674.144 480.65,675.31 482.5,676C 493.934,680.724 504.101,678.891 513,670.5C 512.484,676.348 510.651,681.848 507.5,687C 510.833,689 514.167,689 517.5,687C 527.596,680.224 534.763,671.058 539,659.5C 547.187,642.518 544.353,627.685 530.5,615C 520.216,606.692 508.55,601.359 495.5,599C 490.581,598.198 485.748,598.365 481,599.5C 479.209,602.784 478.042,606.284 477.5,610C 478.872,614.616 480.538,619.116 482.5,623.5C 479.358,625.119 476.024,626.119 472.5,626.5C 473.018,625.423 473.352,624.256 473.5,623C 469.778,615.111 469.778,607.278 473.5,599.5C 473.167,598.5 472.5,597.833 471.5,597.5C 469.364,598.472 468.197,600.139 468,602.5C 467.081,608.966 467.581,615.299 469.5,621.5C 459.019,625.309 450.519,631.642 444,640.5C 430.726,618.269 417.226,596.269 403.5,574.5C 414.63,572.841 425.963,571.841 437.5,571.5C 461.059,569.586 484.392,566.42 507.5,562C 519.747,573.585 532.58,584.418 546,594.5C 546.333,596.047 545.833,597.38 544.5,598.5C 548.847,601.371 552.014,605.371 554,610.5C 566.396,641.748 559.896,668.248 534.5,690C 524.347,698.455 512.68,702.122 499.5,701C 486.796,695.778 479.796,686.278 478.5,672.5 Z"/></g>
<g><path style="opacity:0.118" fill="#cacabf" d="M 338.5,568.5 C 340.424,568.711 340.757,569.377 339.5,570.5C 339.167,569.833 338.833,569.167 338.5,568.5 Z"/></g>
<g><path style="opacity:1" fill="#fefefe" d="M 350.5,568.5 C 352.531,568.972 354.198,569.972 355.5,571.5C 348.201,589.029 343.534,607.362 341.5,626.5C 340.957,626.56 340.624,626.893 340.5,627.5C 343.402,639.705 344.402,652.038 343.5,664.5C 337.267,663.811 331.6,661.644 326.5,658C 319.953,652.954 314.286,647.12 309.5,640.5C 307.682,644.136 305.849,647.802 304,651.5C 302.562,652.718 300.895,653.385 299,653.5C 292.8,651.961 288.466,648.294 286,642.5C 283.921,626.075 287.588,611.075 297,597.5C 303.005,590.663 309.171,583.996 315.5,577.5C 324.715,575.295 332.881,577.295 340,583.5C 341.277,578.507 342.444,573.507 343.5,568.5C 345.833,568.5 348.167,568.5 350.5,568.5 Z"/></g>
<g><path style="opacity:1" fill="#56838f" d="M 350.5,568.5 C 352.5,568.5 354.5,568.5 356.5,568.5C 356.737,569.791 356.404,570.791 355.5,571.5C 354.198,569.972 352.531,568.972 350.5,568.5 Z"/></g>
<g><path style="opacity:1" fill="#dce8e1" d="M 384.5,747.5 C 383.415,745.413 381.749,744.08 379.5,743.5C 376.846,741.591 374.18,739.591 371.5,737.5C 368.833,734.167 365.833,731.167 362.5,728.5C 358.89,722.384 355.057,716.384 351,710.5C 348.215,702.028 346.382,693.361 345.5,684.5C 349.437,684.198 352.437,682.365 354.5,679C 358.134,678.204 360.134,676.037 360.5,672.5C 369.744,695.227 386.577,708.561 411,712.5C 415.943,712.369 419.276,710.036 421,705.5C 421.667,700.5 421.667,695.5 421,690.5C 416.96,682.666 414.293,674.333 413,665.5C 411.296,653.98 409.796,642.48 408.5,631C 398.182,626.92 387.515,624.42 376.5,623.5C 369.904,623.232 363.571,624.399 357.5,627C 355.536,628.451 354.203,630.284 353.5,632.5C 350.992,629.035 348.658,625.369 346.5,621.5C 349.238,604.046 353.572,587.046 359.5,570.5C 362,570.167 364.5,569.833 367,569.5C 377.457,570.851 387.957,571.518 398.5,571.5C 401.759,576.356 404.259,581.69 406,587.5C 410.554,595.574 415.888,603.24 422,610.5C 424.51,617.239 428.176,623.239 433,628.5C 435.591,634.266 438.424,639.933 441.5,645.5C 436.062,659.608 436.395,673.608 442.5,687.5C 445.024,689.19 447.024,691.357 448.5,694C 458.616,698.787 468.616,698.62 478.5,693.5C 479.748,694.04 480.915,694.707 482,695.5C 480.68,711.111 480.346,726.777 481,742.5C 481.574,749.111 482.741,755.611 484.5,762C 484.095,762.945 483.428,763.612 482.5,764C 456.041,771.965 430.041,770.632 404.5,760C 398.167,755.14 391.5,750.973 384.5,747.5 Z"/></g>
<g><path style="opacity:1" fill="#214657" d="M 437.5,571.5 C 425.963,571.841 414.63,572.841 403.5,574.5C 402.596,573.791 402.263,572.791 402.5,571.5C 414.167,571.5 425.833,571.5 437.5,571.5 Z"/></g>
<g><path style="opacity:0.553" fill="#93928a" d="M 338.5,574.5 C 337.947,576.552 336.947,576.885 335.5,575.5C 336.609,575.443 337.609,575.11 338.5,574.5 Z"/></g>
<g><path style="opacity:1" fill="#dbebf3" d="M 315.5,577.5 C 309.171,583.996 303.005,590.663 297,597.5C 287.588,611.075 283.921,626.075 286,642.5C 288.466,648.294 292.8,651.961 299,653.5C 300.895,653.385 302.562,652.718 304,651.5C 305.849,647.802 307.682,644.136 309.5,640.5C 314.286,647.12 319.953,652.954 326.5,658C 331.6,661.644 337.267,663.811 343.5,664.5C 344.402,652.038 343.402,639.705 340.5,627.5C 340.624,626.893 340.957,626.56 341.5,626.5C 351.199,635.23 356.699,646.23 358,659.5C 359.809,668.085 356.976,674.585 349.5,679C 336.467,684.992 325.3,682.492 316,671.5C 315.5,670 315,668.5 314.5,667C 316.52,664.379 316.853,661.545 315.5,658.5C 312.756,662.751 309.422,666.585 305.5,670C 299.786,671.57 294.12,671.237 288.5,669C 276.97,657.72 273.47,644.22 278,628.5C 282.014,612.17 289.847,598.003 301.5,586C 305.807,582.517 310.473,579.683 315.5,577.5 Z"/></g>
<g><path style="opacity:1" fill="#fefefe" d="M 478.5,672.5 C 478.042,660.675 477.042,660.675 475.5,672.5C 472.509,680.273 466.676,684.273 458,684.5C 455.105,684.468 452.605,683.468 450.5,681.5C 447.814,678.097 445.147,674.764 442.5,671.5C 441.705,666.851 441.539,662.184 442,657.5C 443.242,651.51 445.242,645.844 448,640.5C 451.167,638.667 453.667,636.167 455.5,633C 460.98,630.059 466.647,627.892 472.5,626.5C 476.024,626.119 479.358,625.119 482.5,623.5C 480.538,619.116 478.872,614.616 477.5,610C 478.042,606.284 479.209,602.784 481,599.5C 485.748,598.365 490.581,598.198 495.5,599C 508.55,601.359 520.216,606.692 530.5,615C 544.353,627.685 547.187,642.518 539,659.5C 534.763,671.058 527.596,680.224 517.5,687C 514.167,689 510.833,689 507.5,687C 510.651,681.848 512.484,676.348 513,670.5C 504.101,678.891 493.934,680.724 482.5,676C 480.65,675.31 479.316,674.144 478.5,672.5 Z"/></g>
<g><path style="opacity:1" fill="#fefefe" d="M 598.5,692.5 C 599.891,721.853 590.557,747.02 570.5,768C 559.762,776.618 547.595,782.118 534,784.5C 518.296,781.468 508.296,772.135 504,756.5C 503.426,749.631 502.592,742.797 501.5,736C 501.833,734.167 502.167,732.333 502.5,730.5C 511.083,737.071 520.75,739.237 531.5,737C 540.772,733.068 548.272,726.901 554,718.5C 555.752,715.328 557.752,712.328 560,709.5C 561.618,705.932 562.951,702.265 564,698.5C 566.3,679.719 566.8,661.052 565.5,642.5C 564.701,628.837 561.368,615.837 555.5,603.5C 556.002,602.479 556.668,602.312 557.5,603C 561.367,607.202 565.533,611.035 570,614.5C 573.327,622.496 577.66,629.829 583,636.5C 586.661,648.151 590.328,659.818 594,671.5C 595.405,678.541 596.905,685.541 598.5,692.5 Z"/></g>
<g><path style="opacity:1" fill="#eaf0e8" d="M 360.5,672.5 C 361.573,666.885 361.74,661.218 361,655.5C 359.593,647.445 357.093,639.779 353.5,632.5C 354.203,630.284 355.536,628.451 357.5,627C 363.571,624.399 369.904,623.232 376.5,623.5C 387.515,624.42 398.182,626.92 408.5,631C 409.796,642.48 411.296,653.98 413,665.5C 414.293,674.333 416.96,682.666 421,690.5C 421.667,695.5 421.667,700.5 421,705.5C 419.276,710.036 415.943,712.369 411,712.5C 386.577,708.561 369.744,695.227 360.5,672.5 Z"/></g>
<g><path style="opacity:1" fill="#dcecf3" d="M 565.5,642.5 C 566.8,661.052 566.3,679.719 564,698.5C 562.951,702.265 561.618,705.932 560,709.5C 557.752,712.328 555.752,715.328 554,718.5C 548.272,726.901 540.772,733.068 531.5,737C 520.75,739.237 511.083,737.071 502.5,730.5C 502.167,732.333 501.833,734.167 501.5,736C 502.592,742.797 503.426,749.631 504,756.5C 508.296,772.135 518.296,781.468 534,784.5C 547.595,782.118 559.762,776.618 570.5,768C 590.557,747.02 599.891,721.853 598.5,692.5C 603.668,717.492 599.501,740.826 586,762.5C 585.175,764.701 585.675,766.534 587.5,768C 598.604,767.364 607.771,771.197 615,779.5C 618.98,786.624 623.814,793.124 629.5,799C 632.661,800.413 635.661,802.08 638.5,804C 634.952,805.941 631.286,807.607 627.5,809C 619.193,809.999 610.86,810.832 602.5,811.5C 601.423,814.474 601.423,817.474 602.5,820.5C 583.395,820.922 564.395,819.756 545.5,817C 534.801,813.483 524.801,808.65 515.5,802.5C 513.167,799.5 510.5,796.833 507.5,794.5C 491.098,775.322 483.432,752.989 484.5,727.5C 484.49,718.091 485.323,708.757 487,699.5C 493.371,705.304 500.871,707.47 509.5,706C 520.99,704.087 530.99,699.254 539.5,691.5C 542.833,688.833 545.833,685.833 548.5,682.5C 556.689,670.778 561.856,657.778 564,643.5C 564.383,642.944 564.883,642.611 565.5,642.5 Z"/></g>
<g><path style="opacity:1" fill="#fefefe" d="M 787.5,680.5 C 783.424,690.646 778.258,700.312 772,709.5C 763.871,719.298 755.371,728.798 746.5,738C 713.345,758.493 677.345,766.827 638.5,763C 627.468,761.302 621.135,754.968 619.5,744C 620.32,736.888 622.153,730.054 625,723.5C 625.667,719.167 625.667,714.833 625,710.5C 624.338,709.016 623.504,707.683 622.5,706.5C 636.103,704.226 649.77,705.059 663.5,709C 691.557,713.721 717.89,709.054 742.5,695C 757.557,684.616 772.057,673.449 786,661.5C 786.945,661.905 787.612,662.572 788,663.5C 788.469,669.182 788.302,674.848 787.5,680.5 Z"/></g>
<g><path style="opacity:0.18" fill="#a3a29a" d="M 310.5,672.5 C 310.56,671.957 310.893,671.624 311.5,671.5C 312.793,673.636 312.793,675.636 311.5,677.5C 311.784,675.585 311.451,673.919 310.5,672.5 Z"/></g>
<g><path style="opacity:1" fill="#d9eaf1" d="M 442.5,671.5 C 445.147,674.764 447.814,678.097 450.5,681.5C 452.605,683.468 455.105,684.468 458,684.5C 466.676,684.273 472.509,680.273 475.5,672.5C 475.532,677.945 476.032,683.278 477,688.5C 473.472,691.584 469.306,693.251 464.5,693.5C 458.194,693.511 452.527,691.677 447.5,688C 444.363,682.955 442.697,677.455 442.5,671.5 Z"/></g>
<g><path style="opacity:1" fill="#dbecf3" d="M 349.5,717.5 C 349.122,720.022 348.289,722.355 347,724.5C 338.527,720.366 330.86,715.032 324,708.5C 323.242,714.891 323.576,721.224 325,727.5C 327.333,732.167 329.667,736.833 332,741.5C 338.772,748.117 345.939,754.117 353.5,759.5C 344.842,759.336 337.175,756.503 330.5,751C 328.037,747.535 325.204,744.369 322,741.5C 312.917,721.081 311.25,700.081 317,678.5C 323.898,685.032 332.065,687.698 341.5,686.5C 342.151,697.438 344.817,707.772 349.5,717.5 Z"/></g>
<g><path style="opacity:1" fill="#dcecf3" d="M 787.5,680.5 C 785.042,704.898 776.376,726.731 761.5,746C 754.373,751.787 746.707,756.787 738.5,761C 722.074,766.273 705.407,770.606 688.5,774C 667.13,774.13 646.13,776.963 625.5,782.5C 621.978,780.82 619.145,778.153 617,774.5C 610.217,767.918 602.051,764.251 592.5,763.5C 601.702,746.357 606.035,728.023 605.5,708.5C 611.238,708.377 616.904,707.71 622.5,706.5C 623.504,707.683 624.338,709.016 625,710.5C 625.667,714.833 625.667,719.167 625,723.5C 622.153,730.054 620.32,736.888 619.5,744C 621.135,754.968 627.468,761.302 638.5,763C 677.345,766.827 713.345,758.493 746.5,738C 755.371,728.798 763.871,719.298 772,709.5C 778.258,700.312 783.424,690.646 787.5,680.5 Z"/></g>
<g><path style="opacity:1" fill="#335869" d="M 548.5,682.5 C 545.833,685.833 542.833,688.833 539.5,691.5C 541.5,687.5 544.5,684.5 548.5,682.5 Z"/></g>
<g><path style="opacity:1" fill="#fcfcfd" d="M 349.5,717.5 C 354.089,721.292 357.756,725.959 360.5,731.5C 362.5,735.5 365.5,738.5 369.5,740.5C 373.108,741.759 375.441,744.092 376.5,747.5C 379.163,754.327 382.497,760.827 386.5,767C 376.544,768.177 367.211,766.344 358.5,761.5C 356.447,761.598 354.78,760.931 353.5,759.5C 345.939,754.117 338.772,748.117 332,741.5C 329.667,736.833 327.333,732.167 325,727.5C 323.576,721.224 323.242,714.891 324,708.5C 330.86,715.032 338.527,720.366 347,724.5C 348.289,722.355 349.122,720.022 349.5,717.5 Z"/></g>
<g><path style="opacity:1" fill="#627475" d="M 362.5,728.5 C 365.833,731.167 368.833,734.167 371.5,737.5C 367.5,735.5 364.5,732.5 362.5,728.5 Z"/></g>
<g><path style="opacity:1" fill="#8badb6" d="M 360.5,731.5 C 363.833,734.167 366.833,737.167 369.5,740.5C 365.5,738.5 362.5,735.5 360.5,731.5 Z"/></g>
<g><path style="opacity:1" fill="#687a7b" d="M 379.5,743.5 C 381.749,744.08 383.415,745.413 384.5,747.5C 382.251,746.92 380.585,745.587 379.5,743.5 Z"/></g>
<g><path style="opacity:1" fill="#dbecf3" d="M 376.5,747.5 C 386.948,753.896 397.615,760.062 408.5,766C 410.813,766.662 413.146,767.162 415.5,767.5C 415.66,769.199 415.494,770.866 415,772.5C 408.073,783.563 398.573,791.73 386.5,797C 372.775,801.685 358.775,803.352 344.5,802C 346.396,799.932 348.396,798.099 350.5,796.5C 353.833,795.167 356.167,792.833 357.5,789.5C 360.812,786.854 363.812,783.854 366.5,780.5C 366.113,779.28 365.28,778.613 364,778.5C 362.357,779.315 360.857,780.315 359.5,781.5C 359.528,778.749 360.528,776.415 362.5,774.5C 351.538,772.182 341.205,768.516 331.5,763.5C 332.479,761.855 333.812,760.521 335.5,759.5C 342.062,762.14 348.729,764.474 355.5,766.5C 356.442,766.392 357.275,766.059 358,765.5C 357.645,764.041 357.811,762.707 358.5,761.5C 367.211,766.344 376.544,768.177 386.5,767C 382.497,760.827 379.163,754.327 376.5,747.5 Z"/></g>
<g><path style="opacity:1" fill="#f4f7f8" d="M 331.5,763.5 C 341.205,768.516 351.538,772.182 362.5,774.5C 360.528,776.415 359.528,778.749 359.5,781.5C 354.576,786.465 348.576,789.631 341.5,791C 335.167,791.667 328.833,791.667 322.5,791C 315.818,790.409 310.318,787.576 306,782.5C 305.503,780.19 305.337,777.857 305.5,775.5C 307.564,775.313 309.564,774.813 311.5,774C 318.105,770.199 324.772,766.699 331.5,763.5 Z"/></g>
<g><path style="opacity:1" fill="#fefefe" d="M 577.5,780.5 C 592.945,777.899 605.612,782.566 615.5,794.5C 608.527,799.993 600.527,802.826 591.5,803C 591.043,803.414 590.709,803.914 590.5,804.5C 594.481,811.958 592.481,814.125 584.5,811C 574.633,805.789 565.967,799.122 558.5,791C 558.99,789.018 559.99,787.351 561.5,786C 566.846,783.83 572.179,781.997 577.5,780.5 Z"/></g>
<g><path style="opacity:1" fill="#4c6c7b" d="M 357.5,789.5 C 356.167,792.833 353.833,795.167 350.5,796.5C 352.5,793.833 354.833,791.5 357.5,789.5 Z"/></g>
<g><path style="opacity:0.165" fill="#b2b1a8" d="M 344.5,796.5 C 344.5,795.833 344.167,795.5 343.5,795.5C 344.943,794.297 346.609,793.797 348.5,794C 347.307,795.095 345.973,795.928 344.5,796.5 Z"/></g>
<g><path style="opacity:1" fill="#294e5f" d="M 507.5,794.5 C 510.5,796.833 513.167,799.5 515.5,802.5C 511.833,800.833 509.167,798.167 507.5,794.5 Z"/></g>
<g><path style="opacity:0.282" fill="#b1b0a7" d="M 619.5,814.5 C 615.232,814.869 611.232,815.869 607.5,817.5C 606.596,816.791 606.263,815.791 606.5,814.5C 610.833,814.5 615.167,814.5 619.5,814.5 Z"/></g>

        
<g><path style="opacity:0.99" fill="#0d0d0c" d="M 491.5,399.5 C 488.373,390.073 487.207,380.406 488,370.5C 493.707,351.6 504.873,336.767 521.5,326C 529.79,320.847 538.79,318.014 548.5,317.5C 553.844,317.666 559.177,317.499 564.5,317C 563.956,316.283 563.289,315.783 562.5,315.5C 543.882,300.011 522.382,291.678 498,290.5C 490.519,289.916 483.352,291.082 476.5,294C 467.781,294.352 459.781,297.019 452.5,302C 448.062,306.439 443.062,310.106 437.5,313C 426.246,324.92 417.412,338.42 411,353.5C 410.725,371 417.225,385.5 430.5,397C 436.108,400.276 441.442,403.943 446.5,408C 453.054,411.537 460.054,413.37 467.5,413.5C 461.67,418.019 455.336,418.686 448.5,415.5C 448.027,414.094 447.027,413.427 445.5,413.5C 443.46,411.823 441.46,410.156 439.5,408.5C 439.027,407.094 438.027,406.427 436.5,406.5C 436.027,405.094 435.027,404.427 433.5,404.5C 431.566,403.89 429.899,402.89 428.5,401.5C 428.027,400.094 427.027,399.427 425.5,399.5C 418.88,393.601 413.713,386.601 410,378.5C 406.877,399.48 395.71,405.313 376.5,396C 373.568,392.395 370.068,389.561 366,387.5C 362.461,389.2 359.794,391.867 358,395.5C 348.298,401.028 339.298,400.028 331,392.5C 329.096,389.077 328.263,385.41 328.5,381.5C 328.34,379.847 327.674,378.514 326.5,377.5C 325.596,376.791 325.263,375.791 325.5,374.5C 325.785,372.712 325.452,371.045 324.5,369.5C 323.614,370.325 323.281,371.325 323.5,372.5C 319.576,387.848 311.909,401.015 300.5,412C 297.294,414.034 293.96,415.867 290.5,417.5C 287.941,416.392 285.608,415.059 283.5,413.5C 293.172,410.41 301.005,404.744 307,396.5C 313.986,386.753 318.486,375.92 320.5,364C 319.275,355.717 315.775,348.55 310,342.5C 305.854,331.015 298.687,321.848 288.5,315C 280.952,312.433 273.619,309.433 266.5,306C 242.475,304.844 224.809,314.844 213.5,336C 239.356,338.522 258.189,351.355 270,374.5C 276.027,385.384 278.193,397.051 276.5,409.5C 271.718,406.601 267.051,403.434 262.5,400C 244.46,389.359 225.127,385.859 204.5,389.5C 199.943,380.073 198.443,370.073 200,359.5C 201.081,348.03 204.914,337.697 211.5,328.5C 212.906,328.027 213.573,327.027 213.5,325.5C 213.783,305.751 221.117,288.917 235.5,275C 242.164,270.005 249.497,266.338 257.5,264C 268.382,263.052 277.716,266.386 285.5,274C 309.981,294.926 323.981,321.426 327.5,353.5C 336.02,355.759 344.353,358.592 352.5,362C 357.986,362.927 363.486,363.76 369,364.5C 376.968,362.671 384.968,361.337 393,360.5C 395.093,361.246 397.093,361.579 399,361.5C 395.196,337.601 398.196,314.601 408,292.5C 410.985,287.689 414.485,283.356 418.5,279.5C 419.906,279.027 420.573,278.027 420.5,276.5C 431.962,266.925 444.629,259.091 458.5,253C 510.456,235.392 544.289,252.559 560,304.5C 580.639,319.759 586.305,339.425 577,363.5C 574.366,369.272 570.866,374.439 566.5,379C 540.258,381.247 515.258,388.08 491.5,399.5 Z"/></g>
<g><path style="opacity:1" fill="#1b1b1b" d="M 491.5,251.5 C 512.005,251.336 528.505,259.336 541,275.5C 545.694,283.554 549.861,291.888 553.5,300.5C 553.167,300.833 552.833,301.167 552.5,301.5C 517.98,279.718 482.98,278.885 447.5,299C 444.215,302.973 440.215,305.973 435.5,308C 425.414,318.343 416.914,329.843 410,342.5C 406.414,349.494 405.08,356.827 406,364.5C 405.255,362.797 404.421,361.13 403.5,359.5C 403.063,345.559 403.563,331.559 405,317.5C 407.148,302.37 413.648,289.537 424.5,279C 432.5,273.667 440.5,268.333 448.5,263C 462.09,255.855 476.423,252.021 491.5,251.5 Z"/></g>
<g><path style="opacity:1" fill="#1b1b1b" d="M 256.5,269.5 C 263.905,268.705 270.571,270.539 276.5,275C 296.955,290.782 311.122,310.949 319,335.5C 320.328,340.457 320.994,345.457 321,350.5C 316.333,341.833 311.667,333.167 307,324.5C 302.468,319.633 297.634,315.133 292.5,311C 282.442,305.884 271.942,302.051 261,299.5C 244.754,300.462 231.087,306.795 220,318.5C 222.473,294.866 234.64,278.532 256.5,269.5 Z"/></g>
<g><path style="opacity:0.529" fill="#82827b" d="M 420.5,276.5 C 420.573,278.027 419.906,279.027 418.5,279.5C 418.427,277.973 419.094,276.973 420.5,276.5 Z"/></g>
<g><path style="opacity:0.998" fill="#f5f4e7" d="M 562.5,315.5 C 557.833,316.167 553.167,316.833 548.5,317.5C 538.79,318.014 529.79,320.847 521.5,326C 504.873,336.767 493.707,351.6 488,370.5C 487.207,380.406 488.373,390.073 491.5,399.5C 483.472,404.178 475.472,408.845 467.5,413.5C 460.054,413.37 453.054,411.537 446.5,408C 441.442,403.943 436.108,400.276 430.5,397C 417.225,385.5 410.725,371 411,353.5C 417.412,338.42 426.246,324.92 437.5,313C 443.062,310.106 448.062,306.439 452.5,302C 459.781,297.019 467.781,294.352 476.5,294C 483.352,291.082 490.519,289.916 498,290.5C 522.382,291.678 543.882,300.011 562.5,315.5 Z"/></g>
<g><path style="opacity:0.999" fill="#f5f4e7" d="M 283.5,413.5 C 280.669,412.921 278.336,411.588 276.5,409.5C 278.193,397.051 276.027,385.384 270,374.5C 258.189,351.355 239.356,338.522 213.5,336C 224.809,314.844 242.475,304.844 266.5,306C 273.619,309.433 280.952,312.433 288.5,315C 298.687,321.848 305.854,331.015 310,342.5C 315.775,348.55 319.275,355.717 320.5,364C 318.486,375.92 313.986,386.753 307,396.5C 301.005,404.744 293.172,410.41 283.5,413.5 Z"/></g>
<g><path style="opacity:1" fill="#6e6e68" d="M 562.5,315.5 C 563.289,315.783 563.956,316.283 564.5,317C 559.177,317.499 553.844,317.666 548.5,317.5C 553.167,316.833 557.833,316.167 562.5,315.5 Z"/></g>
<g><path style="opacity:0.506" fill="#808079" d="M 213.5,325.5 C 213.573,327.027 212.906,328.027 211.5,328.5C 211.427,326.973 212.094,325.973 213.5,325.5 Z"/></g>
<g><path style="opacity:1" fill="#1b1b1b" d="M 327.5,359.5 C 338.316,363.238 349.316,366.404 360.5,369C 365.833,369.667 371.167,369.667 376.5,369C 383.809,367.503 391.143,366.503 398.5,366C 404.726,372.015 406.226,379.182 403,387.5C 399.871,394.148 394.704,396.648 387.5,395C 381.182,393.689 376.182,390.356 372.5,385C 367.996,381.538 363.663,381.704 359.5,385.5C 357.294,388.203 354.961,390.703 352.5,393C 348.5,393.667 344.5,393.667 340.5,393C 338.376,391.878 336.543,390.378 335,388.5C 332.025,378.933 329.525,369.266 327.5,359.5 Z"/></g>
<g><path style="opacity:1" fill="#5c5c57" d="M 325.5,374.5 C 324.833,373.833 324.167,373.167 323.5,372.5C 323.281,371.325 323.614,370.325 324.5,369.5C 325.452,371.045 325.785,372.712 325.5,374.5 Z"/></g>
<g><path style="opacity:0.4" fill="#97968e" d="M 326.5,377.5 C 327.674,378.514 328.34,379.847 328.5,381.5C 326.896,380.713 326.229,379.38 326.5,377.5 Z"/></g>
<g><path style="opacity:0.012" fill="#000000" d="M 549.5,383.5 C 550.833,384.167 550.833,384.167 549.5,383.5 Z"/></g>
<g><path style="opacity:0.02" fill="#000000" d="M 545.5,384.5 C 546.833,385.167 546.833,385.167 545.5,384.5 Z"/></g>
<g><path style="opacity:0.022" fill="#000000" d="M 541.5,386.5 C 541.897,385.475 542.563,385.308 543.5,386C 542.906,386.464 542.239,386.631 541.5,386.5 Z"/></g>
<g><path style="opacity:0.018" fill="#000000" d="M 538.5,387.5 C 538.897,386.475 539.563,386.308 540.5,387C 539.906,387.464 539.239,387.631 538.5,387.5 Z"/></g>
<g><path style="opacity:0.016" fill="#000000" d="M 534.5,388.5 C 534.897,387.475 535.563,387.308 536.5,388C 535.906,388.464 535.239,388.631 534.5,388.5 Z"/></g>
<g><path style="opacity:0.012" fill="#000000" d="M 530.5,389.5 C 530.897,388.475 531.563,388.308 532.5,389C 531.906,389.464 531.239,389.631 530.5,389.5 Z"/></g>
<g><path style="opacity:0.04" fill="#000000" d="M 226.5,391.5 C 228.103,391.312 229.437,391.812 230.5,393C 228.167,393.667 225.833,393.667 223.5,393C 224.737,392.768 225.737,392.268 226.5,391.5 Z"/></g>
<g><path style="opacity:0.042" fill="#000000" d="M 210.5,393.5 C 211.946,392.387 213.613,392.22 215.5,393C 213.866,393.494 212.199,393.66 210.5,393.5 Z"/></g>
<g><path style="opacity:0.016" fill="#000000" d="M 233.5,392.5 C 234.833,393.167 234.833,393.167 233.5,392.5 Z"/></g>
<g><path style="opacity:0.012" fill="#000000" d="M 236.5,394.5 C 236.897,393.475 237.563,393.308 238.5,394C 237.906,394.464 237.239,394.631 236.5,394.5 Z"/></g>
<g><path style="opacity:0.016" fill="#000000" d="M 239.5,395.5 C 239.897,394.475 240.563,394.308 241.5,395C 240.906,395.464 240.239,395.631 239.5,395.5 Z"/></g>
<g><path style="opacity:0.012" fill="#000000" d="M 242.5,395.5 C 243.833,396.167 243.833,396.167 242.5,395.5 Z"/></g>
<g><path style="opacity:0.016" fill="#000000" d="M 245.5,396.5 C 246.833,397.167 246.833,397.167 245.5,396.5 Z"/></g>
<g><path style="opacity:0.012" fill="#000000" d="M 247.5,397.5 C 248.833,398.167 248.833,398.167 247.5,397.5 Z"/></g>
<g><path style="opacity:0.02" fill="#000000" d="M 250.5,398.5 C 251.833,399.167 251.833,399.167 250.5,398.5 Z"/></g>
<g><path style="opacity:0.02" fill="#000000" d="M 252.5,399.5 C 253.833,400.167 253.833,400.167 252.5,399.5 Z"/></g>
<g><path style="opacity:0.012" fill="#000000" d="M 254.5,400.5 C 255.833,401.167 255.833,401.167 254.5,400.5 Z"/></g>
<g><path style="opacity:0.529" fill="#7c7b75" d="M 425.5,399.5 C 427.027,399.427 428.027,400.094 428.5,401.5C 426.973,401.573 425.973,400.906 425.5,399.5 Z"/></g>
<g><path style="opacity:0.529" fill="#7c7b75" d="M 433.5,404.5 C 435.027,404.427 436.027,405.094 436.5,406.5C 434.973,406.573 433.973,405.906 433.5,404.5 Z"/></g>
<g><path style="opacity:0.545" fill="#7a7a73" d="M 436.5,406.5 C 438.027,406.427 439.027,407.094 439.5,408.5C 437.973,408.573 436.973,407.906 436.5,406.5 Z"/></g>
<g><path style="opacity:0.529" fill="#7f7f78" d="M 445.5,413.5 C 447.027,413.427 448.027,414.094 448.5,415.5C 446.973,415.573 445.973,414.906 445.5,413.5 Z"/></g>

        
<g><path style="opacity:0.993" fill="#1d1d1c" d="M 533.5,373.5 C 533.427,375.027 534.094,376.027 535.5,376.5C 536.421,377.981 537.588,379.314 539,380.5C 546.114,378.049 553.447,377.049 561,377.5C 571.496,377.782 581.829,379.115 592,381.5C 596.31,378.951 600.81,376.785 605.5,375C 607.124,373.883 608.124,372.383 608.5,370.5C 607.169,365.662 605.169,361.162 602.5,357C 598.071,354.898 593.905,352.398 590,349.5C 589.652,347.077 590.818,346.077 593.5,346.5C 609.841,350.195 616.341,360.195 613,376.5C 603.38,385.408 592.213,388.574 579.5,386C 560.501,380.976 542.501,383.143 525.5,392.5C 525.631,391.624 525.298,390.957 524.5,390.5C 523.261,390.942 522.261,391.609 521.5,392.5C 520.791,393.404 519.791,393.737 518.5,393.5C 514.838,393.723 511.505,394.723 508.5,396.5C 505.759,396.707 503.426,397.707 501.5,399.5C 501.158,400.338 500.492,400.672 499.5,400.5C 494.914,401.46 490.914,403.46 487.5,406.5C 487.158,407.338 486.492,407.672 485.5,407.5C 483.973,407.427 482.973,408.094 482.5,409.5C 474.4,414.478 466.067,419.312 457.5,424C 443.308,427.421 428.975,430.088 414.5,432C 407.568,441.695 402.068,452.195 398,463.5C 395.706,464.852 393.206,465.519 390.5,465.5C 382.205,463.808 373.871,462.308 365.5,461C 361.367,455.866 356.867,451.032 352,446.5C 349.027,442.026 345.86,437.693 342.5,433.5C 326.223,431.676 310.223,429.009 294.5,425.5C 296.933,424.452 296.933,423.786 294.5,423.5C 290.703,423.128 287.37,421.794 284.5,419.5C 281.485,417.326 278.151,415.659 274.5,414.5C 273.415,412.413 271.749,411.08 269.5,410.5C 268.508,410.672 267.842,410.338 267.5,409.5C 267.027,408.094 266.027,407.427 264.5,407.5C 246.393,392.864 225.893,388.198 203,393.5C 187.393,392.379 177.393,384.379 173,369.5C 171.522,361.889 171.188,354.222 172,346.5C 172.576,343.876 173.91,343.209 176,344.5C 175.322,355.382 177.322,365.715 182,375.5C 187.666,382.337 194.999,386.337 204,387.5C 211.838,386.851 219.672,386.184 227.5,385.5C 228.689,385.756 229.856,386.089 231,386.5C 235.355,381.808 239.355,376.808 243,371.5C 252.878,352.411 262.212,333.077 271,313.5C 272.667,312.167 274.333,312.167 276,313.5C 278.194,316.554 279.861,319.888 281,323.5C 287.817,352.886 289.65,382.552 286.5,412.5C 310.116,423.996 334.949,427.996 361,424.5C 392.623,428.793 423.79,426.627 454.5,418C 456.833,416.833 459.167,415.667 461.5,414.5C 462.664,408.193 462.831,401.859 462,395.5C 457.444,368.94 451.777,342.606 445,316.5C 444.347,314.436 443.18,312.769 441.5,311.5C 441.709,310.914 442.043,310.414 442.5,310C 447.572,309.249 452.572,309.582 457.5,311C 484.557,324.944 508.391,343.111 529,365.5C 530.765,368.032 532.265,370.699 533.5,373.5 Z"/></g>
<g><path style="opacity:1" fill="#f5f4e7" d="M 469.5,410.5 C 468.833,406.5 468.167,402.5 467.5,398.5C 463.802,370.345 457.802,342.678 449.5,315.5C 454.683,316.058 459.683,317.891 464.5,321C 474.66,328.247 484.994,335.247 495.5,342C 505.667,351.5 515.833,361 526,370.5C 528.305,374.304 530.805,377.97 533.5,381.5C 518.166,386.445 503.166,392.278 488.5,399C 482.111,402.856 475.778,406.689 469.5,410.5 Z"/></g>
<g><path style="opacity:1" fill="#f2f1e4" d="M 273.5,321.5 C 274.79,322.058 275.623,323.058 276,324.5C 282.555,352.81 284.721,381.476 282.5,410.5C 274.922,407.036 267.922,402.536 261.5,397C 253.654,393.663 245.654,390.83 237.5,388.5C 238.608,384.869 240.774,381.869 244,379.5C 247.919,373.33 251.586,366.997 255,360.5C 261.178,347.478 267.345,334.478 273.5,321.5 Z"/></g>
<g><path style="opacity:0.514" fill="#85857e" d="M 533.5,373.5 C 534.906,373.973 535.573,374.973 535.5,376.5C 534.094,376.027 533.427,375.027 533.5,373.5 Z"/></g>
<g><path style="opacity:0.024" fill="#cacabf" d="M 525.5,392.5 C 524.167,392.5 522.833,392.5 521.5,392.5C 522.261,391.609 523.261,390.942 524.5,390.5C 525.298,390.957 525.631,391.624 525.5,392.5 Z"/></g>
<g><path style="opacity:0.024" fill="#d6d5ca" d="M 518.5,393.5 C 515.495,395.277 512.162,396.277 508.5,396.5C 511.505,394.723 514.838,393.723 518.5,393.5 Z"/></g>
<g><path style="opacity:0.039" fill="#d2d1c6" d="M 508.5,396.5 C 506.574,398.293 504.241,399.293 501.5,399.5C 503.426,397.707 505.759,396.707 508.5,396.5 Z"/></g>
<g><path style="opacity:0.031" fill="#d8d7cc" d="M 499.5,400.5 C 495.818,403.008 491.818,405.008 487.5,406.5C 490.914,403.46 494.914,401.46 499.5,400.5 Z"/></g>
<g><path style="opacity:1" fill="#82817a" d="M 467.5,398.5 C 468.167,402.5 468.833,406.5 469.5,410.5C 469.44,411.043 469.107,411.376 468.5,411.5C 467.508,407.217 467.174,402.884 467.5,398.5 Z"/></g>
<g><path style="opacity:0.055" fill="#d1d0c5" d="M 264.5,407.5 C 266.027,407.427 267.027,408.094 267.5,409.5C 265.973,409.573 264.973,408.906 264.5,407.5 Z"/></g>
<g><path style="opacity:0.02" fill="#dfded2" d="M 485.5,407.5 C 485.027,408.906 484.027,409.573 482.5,409.5C 482.973,408.094 483.973,407.427 485.5,407.5 Z"/></g>
<g><path style="opacity:0.102" fill="#b9b8af" d="M 269.5,410.5 C 271.749,411.08 273.415,412.413 274.5,414.5C 272.251,413.92 270.585,412.587 269.5,410.5 Z"/></g>
<g><path style="opacity:0.039" fill="#d0d0c5" d="M 274.5,414.5 C 278.151,415.659 281.485,417.326 284.5,419.5C 280.58,418.873 277.247,417.207 274.5,414.5 Z"/></g>
<g><path style="opacity:0.031" fill="#d7d6cb" d="M 294.5,423.5 C 296.933,423.786 296.933,424.452 294.5,425.5C 293.494,425.062 293.494,424.396 294.5,423.5 Z"/></g>
<g><path style="opacity:1" fill="#f1f0e3" d="M 350.5,430.5 C 360.215,430.459 369.882,431.125 379.5,432.5C 389.146,431.411 398.812,431.245 408.5,432C 402.865,440.766 397.865,449.933 393.5,459.5C 392.833,459.833 392.167,460.167 391.5,460.5C 383.983,458.204 376.316,456.704 368.5,456C 361.627,448.795 355.127,441.295 349,433.5C 348.761,432.212 349.261,431.212 350.5,430.5 Z"/></g>

        

<g transform="translate(0.000000,862.000000) scale(0.100000,-0.100000)"
fill="#000000" stroke="none">
</g>

    </svg>
