
    <svg width="862" height="862" viewBox="0 0 862 862" fill="none" xmlns="http://www.w3.org/2000/svg">
        
<g><path style="opacity:1" fill="#f6f6e8" d="M -0.5,-0.5 C 286.833,-0.5 574.167,-0.5 861.5,-0.5C 861.5,286.833 861.5,574.167 861.5,861.5C 574.167,861.5 286.833,861.5 -0.5,861.5C -0.5,574.167 -0.5,286.833 -0.5,-0.5 Z"/></g>

        
<g><path style="opacity:0.983" fill="#1a1a19" d="M 578.5,540.5 C 583.993,540.916 589.326,542.082 594.5,544C 599.237,547.614 603.403,551.781 607,556.5C 613.977,570.057 616.311,584.39 614,599.5C 611.931,603.236 608.931,605.903 605,607.5C 603.018,607.01 601.351,606.01 600,604.5C 594.275,609.717 588.442,609.717 582.5,604.5C 577.923,613.337 572.256,614.337 565.5,607.5C 561.53,612.973 556.196,614.806 549.5,613C 548.299,612.097 547.465,610.931 547,609.5C 541.931,617.452 536.764,617.452 531.5,609.5C 527.737,613.765 523.737,617.932 519.5,622C 516.106,622.752 512.773,622.585 509.5,621.5C 508.194,620.088 507.36,618.421 507,616.5C 505.425,609.568 504.258,602.568 503.5,595.5C 504.335,583.317 510.669,578.317 522.5,580.5C 523.795,579.902 525.128,579.402 526.5,579C 535.197,570.637 543.531,561.97 551.5,553C 559.592,546.617 568.592,542.45 578.5,540.5 Z"/></g>
<g><path style="opacity:1" fill="#d9d8cb" d="M 587.5,601.5 C 588.496,601.586 589.329,601.252 590,600.5C 592.94,596.545 595.94,592.545 599,588.5C 599.37,579.339 598.37,570.339 596,561.5C 591.36,554.156 584.693,549.822 576,548.5C 573.538,549.159 571.038,549.493 568.5,549.5C 581.297,543.74 592.13,546.407 601,557.5C 608.853,570.951 611.186,585.285 608,600.5C 606.604,602.527 604.938,602.86 603,601.5C 602.091,598.089 601.091,594.755 600,591.5C 598.35,595.573 596.516,599.573 594.5,603.5C 591.584,604.861 589.251,604.195 587.5,601.5 Z"/></g>
<g><path style="opacity:1" fill="#f4f3e6" d="M 587.5,601.5 C 585.433,599.682 584.1,597.349 583.5,594.5C 582.635,593.417 581.635,593.251 580.5,594C 579.955,598.074 578.621,601.907 576.5,605.5C 574.878,607.439 573.044,607.772 571,606.5C 568.863,602.486 567.03,598.486 565.5,594.5C 564.522,594.977 563.689,595.643 563,596.5C 563.284,605.334 559.118,609.667 550.5,609.5C 550.348,605.228 549.348,601.228 547.5,597.5C 545.179,600.394 544.012,603.727 544,607.5C 541.618,612.067 538.951,612.4 536,608.5C 535.887,606.026 534.887,604.026 533,602.5C 527.856,607.313 523.023,612.48 518.5,618C 516.098,618.814 513.765,618.647 511.5,617.5C 508.811,609.37 507.645,601.036 508,592.5C 508.668,588.501 510.835,585.668 514.5,584C 518.801,584.363 523.134,584.363 527.5,584C 529.167,583 530.833,582 532.5,581C 540.864,572.97 548.864,564.637 556.5,556C 560.367,553.567 564.367,551.4 568.5,549.5C 571.038,549.493 573.538,549.159 576,548.5C 584.693,549.822 591.36,554.156 596,561.5C 598.37,570.339 599.37,579.339 599,588.5C 595.94,592.545 592.94,596.545 590,600.5C 589.329,601.252 588.496,601.586 587.5,601.5 Z"/></g>
<g><path style="opacity:0.982" fill="#191918" d="M 290.5,554.5 C 298.253,554.104 305.92,554.604 313.5,556C 315.5,557.333 317.5,558.667 319.5,560C 322.228,566.042 326.895,569.709 333.5,571C 335.378,572.543 336.878,574.376 338,576.5C 338.242,583.196 338.742,589.862 339.5,596.5C 339.461,598.587 338.461,599.921 336.5,600.5C 332.274,599.93 328.108,599.263 324,598.5C 322.5,600 321,601.5 319.5,603C 317.287,603.626 315.12,603.459 313,602.5C 306.564,605.689 301.23,604.356 297,598.5C 284.481,607.161 276.648,603.994 273.5,589C 271.944,573.778 277.611,562.278 290.5,554.5 Z"/></g>
<g><path style="opacity:1" fill="#f4f3e6" d="M 334.5,587.5 C 334.5,590.167 334.5,592.833 334.5,595.5C 333.167,595.5 331.833,595.5 330.5,595.5C 327.482,595.335 324.482,595.502 321.5,596C 320.022,598.039 318.022,598.872 315.5,598.5C 315.5,597.5 315.5,596.5 315.5,595.5C 312.326,596.015 309.326,597.015 306.5,598.5C 305.5,598.333 304.5,598.167 303.5,598C 301.441,595.366 299.275,592.866 297,590.5C 296.292,591.381 295.458,592.047 294.5,592.5C 290.404,593.285 287.07,592.118 284.5,589C 284.833,588.667 285.167,588.333 285.5,588C 283.667,587.5 282.5,586.333 282,584.5C 281.501,580.179 281.334,575.846 281.5,571.5C 281.709,570.078 282.209,568.745 283,567.5C 286.167,565 289.333,562.5 292.5,560C 298.167,559.333 303.833,559.333 309.5,560C 314.42,562.916 318.753,566.582 322.5,571C 326.232,572.461 329.732,574.294 333,576.5C 333.936,580.114 334.436,583.78 334.5,587.5 Z"/></g>
<g><path style="opacity:1" fill="#d7d6c9" d="M 281.5,571.5 C 281.334,575.846 281.501,580.179 282,584.5C 282.5,586.333 283.667,587.5 285.5,588C 285.167,588.333 284.833,588.667 284.5,589C 287.07,592.118 290.404,593.285 294.5,592.5C 293.641,595.452 291.641,597.285 288.5,598C 285.364,599.041 282.864,598.207 281,595.5C 279.409,588.608 279.076,581.608 280,574.5C 280.232,573.263 280.732,572.263 281.5,571.5 Z"/></g>
<g><path style="opacity:1" fill="#64635e" d="M 334.5,587.5 C 335.477,590.287 335.81,593.287 335.5,596.5C 333.585,596.784 331.919,596.451 330.5,595.5C 331.833,595.5 333.167,595.5 334.5,595.5C 334.5,592.833 334.5,590.167 334.5,587.5 Z"/></g>

        
<g><path style="opacity:0.994" fill="#030d0d" d="M 614.5,157.5 C 614.34,155.847 613.674,154.514 612.5,153.5C 612.5,154.5 612.5,155.5 612.5,156.5C 609.072,156.547 606.072,157.713 603.5,160C 588.1,175.301 578.933,193.801 576,215.5C 575.099,235.825 574.433,256.159 574,276.5C 558.53,280.267 542.697,283.267 526.5,285.5C 504.327,281.329 485.494,270.996 470,254.5C 471.165,217.843 480.165,183.176 497,150.5C 511.833,126.333 531.333,106.833 555.5,92C 567.772,85.3257 580.772,82.4924 594.5,83.5C 605.911,85.6861 617.244,88.5194 628.5,92C 652.948,101.96 673.448,117.126 690,137.5C 704.876,159.136 711.876,183.136 711,209.5C 701.117,232.022 684.284,239.856 660.5,233C 649.358,228.015 639.525,221.182 631,212.5C 628.746,208.993 626.746,205.327 625,201.5C 623.375,186.337 619.875,171.67 614.5,157.5 Z"/></g>
<g><path style="opacity:1" fill="#005a5d" d="M 599.5,127.5 C 597.316,128.266 594.982,128.933 592.5,129.5C 591.483,126.972 590.316,126.972 589,129.5C 588.667,129.167 588.333,128.833 588,128.5C 587.385,130.116 586.385,131.449 585,132.5C 584.667,131.833 584.333,131.167 584,130.5C 583.228,131.849 582.061,132.682 580.5,133C 582.301,133.317 582.634,133.984 581.5,135C 580.216,135.684 579.049,135.517 578,134.5C 577.017,136.448 575.85,138.282 574.5,140C 571.368,142.899 568.202,145.066 565,146.5C 564.942,149.559 563.609,151.892 561,153.5C 560.667,153.167 560.333,152.833 560,152.5C 558.191,157.439 555.357,161.772 551.5,165.5C 549.629,170.074 547.629,174.574 545.5,179C 545.833,179.333 546.167,179.667 546.5,180C 544.839,182.628 542.672,185.461 540,188.5C 538.495,194.641 535.995,200.641 532.5,206.5C 534.658,208.026 534.325,209.526 531.5,211C 532.517,212.049 532.684,213.216 532,214.5C 531.346,213.304 530.846,213.304 530.5,214.5C 530.977,215.478 531.643,216.311 532.5,217C 529.978,221.429 529.978,225.762 532.5,230C 531.833,230.333 531.167,230.667 530.5,231C 531.098,233.792 532.098,236.458 533.5,239C 532.293,240.3 531.626,241.8 531.5,243.5C 532.552,243.351 533.552,243.517 534.5,244C 535.167,246 536.5,247.333 538.5,248C 538.043,248.414 537.709,248.914 537.5,249.5C 540.077,249.66 541.91,251.327 543,254.5C 545.165,255.583 547.165,256.916 549,258.5C 551.997,258.423 554.997,258.09 558,257.5C 558.667,258.167 559.333,258.833 560,259.5C 562.237,258.944 564.237,257.944 566,256.5C 566.414,256.957 566.914,257.291 567.5,257.5C 568.489,261.107 568.823,264.774 568.5,268.5C 567.842,269.398 567.176,270.398 566.5,271.5C 551.522,276.102 536.188,278.268 520.5,278C 515.677,277.17 511.011,275.836 506.5,274C 500.998,270.415 495.331,267.081 489.5,264C 484.167,260 478.833,256 473.5,252C 476.342,217.501 485.842,184.668 502,153.5C 514.078,134.19 529.245,117.69 547.5,104C 555.828,98.3362 564.828,94.0029 574.5,91C 593.059,88.7587 611.059,91.092 628.5,98C 646.643,106.815 663.143,117.982 678,131.5C 684.78,139.616 690.78,148.282 696,157.5C 699.583,166.661 702.583,175.995 705,185.5C 710.269,201.208 706.435,214.041 693.5,224C 684.467,229.544 674.8,230.877 664.5,228C 653.922,223.408 644.422,217.242 636,209.5C 634,206.167 632,202.833 630,199.5C 628.603,186.577 625.936,173.91 622,161.5C 616.923,150.347 611.59,139.347 606,128.5C 603.119,123.442 598.953,120.109 593.5,118.5C 588.002,119.338 586.335,122.338 588.5,127.5C 589.138,125.03 590.638,123.363 593,122.5C 595.341,124.016 597.508,125.683 599.5,127.5 Z"/></g>
<g><path style="opacity:0.992" fill="#030d0d" d="M 163.5,95.5 C 174.943,95.0349 186.276,95.8682 197.5,98C 206.481,102.314 212.648,109.147 216,118.5C 229.057,133.622 241.39,149.288 253,165.5C 265.57,190.976 278.903,215.976 293,240.5C 293.667,245.5 293.667,250.5 293,255.5C 290.064,261.222 287.731,267.222 286,273.5C 279.349,283.819 270.516,291.652 259.5,297C 250.619,299.831 241.619,300.165 232.5,298C 229.993,297.907 227.826,297.074 226,295.5C 225.647,294.328 225.813,293.162 226.5,292C 222.493,281.47 219.659,270.637 218,259.5C 212.471,246.581 207.138,233.581 202,220.5C 195.527,207.228 186.86,195.562 176,185.5C 176.125,192.254 177.125,198.921 179,205.5C 181.447,214.866 184.28,224.033 187.5,233C 187.344,237.136 186.177,240.969 184,244.5C 179.5,249 175,253.5 170.5,258C 152.753,266.41 135.086,266.41 117.5,258C 100.412,242.239 93.745,222.739 97.5,199.5C 97.6667,194.5 97.8333,189.5 98,184.5C 100.239,173.19 102.239,161.856 104,150.5C 109.333,141.167 114.667,131.833 120,122.5C 125.727,112.775 133.894,105.941 144.5,102C 150.979,99.8968 157.313,97.7301 163.5,95.5 Z"/></g>
<g><path style="opacity:1" fill="#005a5d" d="M 227.5,278.5 C 227.33,277.178 227.663,276.011 228.5,275C 230.347,275.141 232.18,275.308 234,275.5C 236.019,273.812 237.686,271.812 239,269.5C 239.333,270.167 239.667,270.833 240,271.5C 240.653,269.436 241.82,267.769 243.5,266.5C 242.975,265.808 242.308,265.308 241.5,265C 243.592,264.047 243.925,262.714 242.5,261C 243.448,260.517 244.448,260.351 245.5,260.5C 245.5,256.5 245.5,252.5 245.5,248.5C 241.901,248.738 241.567,247.738 244.5,245.5C 243.519,241.687 241.519,238.52 238.5,236C 239.517,234.951 239.684,233.784 239,232.5C 235.356,229.558 233.689,225.892 234,221.5C 232.414,220.624 230.914,219.624 229.5,218.5C 229.833,217.833 230.167,217.167 230.5,216.5C 228.703,214.869 227.536,212.869 227,210.5C 226.086,211.654 225.253,211.487 224.5,210C 225.167,209.667 225.833,209.333 226.5,209C 223.973,205.543 221.306,202.21 218.5,199C 220.569,198.676 220.902,197.842 219.5,196.5C 217.841,195.183 216.674,193.517 216,191.5C 214.927,192.28 213.76,192.113 212.5,191C 214.878,190.026 214.544,189.359 211.5,189C 209.644,186.49 207.477,184.324 205,182.5C 204.667,182.833 204.333,183.167 204,183.5C 203.03,180.179 200.863,178.513 197.5,178.5C 197.649,177.448 197.483,176.448 197,175.5C 196.282,176.451 195.449,176.617 194.5,176C 192.75,173.982 191.416,171.815 190.5,169.5C 188.495,163.663 184.495,161.496 178.5,163C 174.316,166.54 171.816,171.04 171,176.5C 170.581,190.498 172.581,204.165 177,217.5C 178.863,221.884 180.696,226.217 182.5,230.5C 182.132,233.638 181.299,236.638 180,239.5C 175.167,244.333 170.333,249.167 165.5,254C 151.897,259.406 138.23,259.739 124.5,255C 114.416,248.364 107.583,239.197 104,227.5C 103,213.508 102.667,199.508 103,185.5C 105.388,175.281 107.055,164.948 108,154.5C 114.162,142.838 120.829,131.504 128,120.5C 137.857,109.866 150.023,103.366 164.5,101C 174.203,100.256 183.87,100.589 193.5,102C 196.833,103.667 200.167,105.333 203.5,107C 206.779,112.386 209.946,117.886 213,123.5C 224.381,137.213 235.381,151.213 246,165.5C 260.155,193.284 274.655,220.784 289.5,248C 286.583,255.005 284.083,262.172 282,269.5C 278.167,274 274.333,278.5 270.5,283C 259.242,292.318 246.242,295.818 231.5,293.5C 230.167,288.501 228.834,283.501 227.5,278.5 Z"/></g>
<g><path style="opacity:1" fill="#004944" d="M 599.5,127.5 C 605.912,134.991 610.246,143.657 612.5,153.5C 609.456,152.171 606.456,152.337 603.5,154C 584.006,169.735 573.173,190.235 571,215.5C 570.567,233.344 569.734,251.011 568.5,268.5C 568.823,264.774 568.489,261.107 567.5,257.5C 566.914,257.291 566.414,256.957 566,256.5C 564.237,257.944 562.237,258.944 560,259.5C 559.333,258.833 558.667,258.167 558,257.5C 554.997,258.09 551.997,258.423 549,258.5C 547.165,256.916 545.165,255.583 543,254.5C 541.91,251.327 540.077,249.66 537.5,249.5C 537.709,248.914 538.043,248.414 538.5,248C 536.5,247.333 535.167,246 534.5,244C 533.552,243.517 532.552,243.351 531.5,243.5C 531.626,241.8 532.293,240.3 533.5,239C 532.098,236.458 531.098,233.792 530.5,231C 531.167,230.667 531.833,230.333 532.5,230C 529.978,225.762 529.978,221.429 532.5,217C 531.643,216.311 530.977,215.478 530.5,214.5C 530.846,213.304 531.346,213.304 532,214.5C 532.684,213.216 532.517,212.049 531.5,211C 534.325,209.526 534.658,208.026 532.5,206.5C 535.995,200.641 538.495,194.641 540,188.5C 542.672,185.461 544.839,182.628 546.5,180C 546.167,179.667 545.833,179.333 545.5,179C 547.629,174.574 549.629,170.074 551.5,165.5C 555.357,161.772 558.191,157.439 560,152.5C 560.333,152.833 560.667,153.167 561,153.5C 563.609,151.892 564.942,149.559 565,146.5C 568.202,145.066 571.368,142.899 574.5,140C 575.85,138.282 577.017,136.448 578,134.5C 579.049,135.517 580.216,135.684 581.5,135C 582.634,133.984 582.301,133.317 580.5,133C 582.061,132.682 583.228,131.849 584,130.5C 584.333,131.167 584.667,131.833 585,132.5C 586.385,131.449 587.385,130.116 588,128.5C 588.333,128.833 588.667,129.167 589,129.5C 590.316,126.972 591.483,126.972 592.5,129.5C 594.982,128.933 597.316,128.266 599.5,127.5 Z"/></g>
<g><path style="opacity:1" fill="#003d3f" d="M 612.5,153.5 C 613.674,154.514 614.34,155.847 614.5,157.5C 613.833,157.167 613.167,156.833 612.5,156.5C 612.5,155.5 612.5,154.5 612.5,153.5 Z"/></g>
<g><path style="opacity:1" fill="#004a44" d="M 190.5,169.5 C 191.416,171.815 192.75,173.982 194.5,176C 195.449,176.617 196.282,176.451 197,175.5C 197.483,176.448 197.649,177.448 197.5,178.5C 200.863,178.513 203.03,180.179 204,183.5C 204.333,183.167 204.667,182.833 205,182.5C 207.477,184.324 209.644,186.49 211.5,189C 214.544,189.359 214.878,190.026 212.5,191C 213.76,192.113 214.927,192.28 216,191.5C 216.674,193.517 217.841,195.183 219.5,196.5C 220.902,197.842 220.569,198.676 218.5,199C 221.306,202.21 223.973,205.543 226.5,209C 225.833,209.333 225.167,209.667 224.5,210C 225.253,211.487 226.086,211.654 227,210.5C 227.536,212.869 228.703,214.869 230.5,216.5C 230.167,217.167 229.833,217.833 229.5,218.5C 230.914,219.624 232.414,220.624 234,221.5C 233.689,225.892 235.356,229.558 239,232.5C 239.684,233.784 239.517,234.951 238.5,236C 241.519,238.52 243.519,241.687 244.5,245.5C 241.567,247.738 241.901,248.738 245.5,248.5C 245.5,252.5 245.5,256.5 245.5,260.5C 244.448,260.351 243.448,260.517 242.5,261C 243.925,262.714 243.592,264.047 241.5,265C 242.308,265.308 242.975,265.808 243.5,266.5C 241.82,267.769 240.653,269.436 240,271.5C 239.667,270.833 239.333,270.167 239,269.5C 237.686,271.812 236.019,273.812 234,275.5C 232.18,275.308 230.347,275.141 228.5,275C 227.663,276.011 227.33,277.178 227.5,278.5C 225.414,270.276 223.248,261.942 221,253.5C 214.61,239.664 208.61,225.664 203,211.5C 195.375,198.865 185.875,187.698 174.5,178C 175.56,175.263 176.394,172.43 177,169.5C 182.728,163.847 187.062,164.847 190,172.5C 190.483,171.552 190.649,170.552 190.5,169.5 Z"/></g>

        
<g><path style="opacity:0.998" fill="#191919" d="M 567.5,264.5 C 567.427,266.027 568.094,267.027 569.5,267.5C 572.889,269.725 575.389,272.725 577,276.5C 579.793,283.332 582.126,290.332 584,297.5C 600.968,293.905 616.801,296.738 631.5,306C 655.874,322.039 676.708,341.873 694,365.5C 699.911,374.23 704.077,383.73 706.5,394C 702.842,398.302 698.175,400.969 692.5,402C 684.965,403.55 677.465,403.716 670,402.5C 671.622,406.676 673.289,411.01 675,415.5C 676.619,423.927 678.619,432.26 681,440.5C 682.454,454.02 679.787,466.687 673,478.5C 663.749,491.086 652.582,501.586 639.5,510C 630.893,513.302 622.893,517.635 615.5,523C 597.029,529.157 579.029,536.491 561.5,545C 545.683,550.606 529.683,555.606 513.5,560C 521.167,567 528.833,574 536.5,581C 541.889,585.389 547.556,589.389 553.5,593C 559.667,598.5 565.833,604 572,609.5C 578.423,618.674 584.09,628.34 589,638.5C 598.788,663.109 604.621,688.609 606.5,715C 605.825,731.869 601.492,747.703 593.5,762.5C 592.711,762.783 592.044,763.283 591.5,764C 593.134,764.494 594.801,764.66 596.5,764.5C 603.201,764.682 609.201,766.849 614.5,771C 619.719,777.218 624.552,783.718 629,790.5C 633.064,794.786 637.897,797.952 643.5,800C 646.319,802.72 645.986,805.053 642.5,807C 635.644,812.007 627.978,814.507 619.5,814.5C 615.167,814.5 610.833,814.5 606.5,814.5C 606.263,815.791 606.596,816.791 607.5,817.5C 609.143,819.708 608.81,821.541 606.5,823C 599.093,824.492 591.593,825.325 584,825.5C 570.833,824.357 557.666,823.19 544.5,822C 528.753,817.882 515.253,810.049 504,798.5C 495.911,789.336 489.577,779.003 485,767.5C 473.056,772.575 460.556,774.908 447.5,774.5C 441.513,773.858 435.513,773.358 429.5,773C 427,772.625 424.667,771.792 422.5,770.5C 418.78,774.733 415.613,779.4 413,784.5C 396.732,800.487 377.065,808.487 354,808.5C 349.103,808.068 344.269,807.234 339.5,806C 337.709,805.585 336.376,804.585 335.5,803C 338.138,800.346 341.138,798.18 344.5,796.5C 345.973,795.928 347.307,795.095 348.5,794C 346.609,793.797 344.943,794.297 343.5,795.5C 334.515,796.911 325.515,796.744 316.5,795C 304.562,791.925 299.562,784.425 301.5,772.5C 312.272,769.781 321.939,764.947 330.5,758C 319.87,750.041 313.37,739.541 311,726.5C 307.602,710.123 307.769,693.789 311.5,677.5C 312.793,675.636 312.793,673.636 311.5,671.5C 310.893,671.624 310.56,671.957 310.5,672.5C 309.013,673.804 307.346,674.97 305.5,676C 298.059,677.01 291.059,675.843 284.5,672.5C 275.52,664.574 271.187,654.574 271.5,642.5C 272.908,618.525 282.242,598.358 299.5,582C 310.392,573.408 322.392,571.241 335.5,575.5C 336.947,576.885 337.947,576.552 338.5,574.5C 338.433,573.041 338.766,571.708 339.5,570.5C 340.757,569.377 340.424,568.711 338.5,568.5C 326.038,567.642 313.704,565.808 301.5,563C 279.858,557.675 258.525,551.341 237.5,544C 217.724,535.619 199.39,524.952 182.5,512C 179.629,509.297 176.962,506.464 174.5,503.5C 174.027,502.094 173.027,501.427 171.5,501.5C 155.808,488.291 146.475,471.458 143.5,451C 144.485,443.505 144.985,436.005 145,428.5C 139.772,431.396 134.272,432.062 128.5,430.5C 127.063,426.472 126.397,422.305 126.5,418C 128.512,388.142 139.012,361.642 158,338.5C 167.466,327.852 178.966,320.352 192.5,316C 198.537,315.303 204.537,315.47 210.5,316.5C 212.5,305.171 217.167,295.171 224.5,286.5C 225.906,286.027 226.573,285.027 226.5,283.5C 226.992,281.181 227.992,279.181 229.5,277.5C 230.906,277.027 231.573,276.027 231.5,274.5C 242.367,259.469 255.701,246.969 271.5,237C 349.867,210.135 429.201,206.801 509.5,227C 517.288,230.394 524.955,234.061 532.5,238C 541.167,244.671 550.501,250.338 560.5,255C 562.476,258.463 564.81,261.63 567.5,264.5 Z"/></g>
<g><path style="opacity:1" fill="#747474" d="M 689.5,370.5 C 690.902,387.925 682.902,395.091 665.5,392C 658.055,389.299 650.722,386.633 643.5,384C 649.312,386.856 653.645,391.023 656.5,396.5C 659.649,400.095 662.816,403.762 666,407.5C 667.549,410.312 668.382,413.312 668.5,416.5C 666.96,427.329 664.46,437.996 661,448.5C 656.587,456.995 651.92,465.328 647,473.5C 624.616,496.285 598.45,513.452 568.5,525C 533.438,537.135 497.772,546.802 461.5,554C 448.218,555.752 434.884,556.918 421.5,557.5C 403.85,557.023 386.183,556.857 368.5,557C 353.786,555.321 339.12,553.321 324.5,551C 294.298,542.821 264.631,532.821 235.5,521C 216.909,512.707 199.575,502.374 183.5,490C 172.265,480.999 162.765,470.499 155,458.5C 152.079,451.45 150.912,444.117 151.5,436.5C 153.812,428.669 154.979,420.669 155,412.5C 154.329,413.252 153.496,413.586 152.5,413.5C 148.453,418.44 143.286,421.44 137,422.5C 134.013,422.01 132.18,420.343 131.5,417.5C 132.785,407.793 134.285,398.126 136,388.5C 140.527,379.252 144.86,369.918 149,360.5C 159.166,341.997 173.999,328.83 193.5,321C 200.196,320.559 206.863,320.559 213.5,321C 215.227,316.265 216.727,311.432 218,306.5C 223.919,296.998 229.586,287.331 235,277.5C 247.29,262.212 261.79,249.379 278.5,239C 321.88,226.104 366.213,219.27 411.5,218.5C 429.758,220.539 448.091,222.373 466.5,224C 487.579,226.012 507.579,231.679 526.5,241C 536.332,248.086 546.666,254.419 557.5,260C 569.285,271.403 576.452,285.237 579,301.5C 581.39,308.619 585.057,314.953 590,320.5C 590.167,320.167 590.333,319.833 590.5,319.5C 588.2,313.909 586.2,308.242 584.5,302.5C 599.35,299.458 613.35,301.625 626.5,309C 634.778,314.278 642.778,319.945 650.5,326C 659.333,334.833 668.167,343.667 677,352.5C 681.433,358.384 685.599,364.384 689.5,370.5 Z"/></g>
<g><path style="opacity:0.725" fill="#7d7d7d" d="M 567.5,264.5 C 568.906,264.973 569.573,265.973 569.5,267.5C 568.094,267.027 567.427,266.027 567.5,264.5 Z"/></g>
<g><path style="opacity:0.486" fill="#7e7e7e" d="M 231.5,274.5 C 231.573,276.027 230.906,277.027 229.5,277.5C 229.427,275.973 230.094,274.973 231.5,274.5 Z"/></g>
<g><path style="opacity:0.486" fill="#7e7e7e" d="M 226.5,283.5 C 226.573,285.027 225.906,286.027 224.5,286.5C 224.427,284.973 225.094,283.973 226.5,283.5 Z"/></g>
<g><path style="opacity:1" fill="#060606" d="M 618.5,337.5 C 624.258,343.084 630.258,348.584 636.5,354C 648.598,361.716 661.264,368.383 674.5,374C 676.954,375.74 678.454,377.907 679,380.5C 677.612,381.554 676.112,381.72 674.5,381C 655.168,371.421 637.668,359.255 622,344.5C 620.121,342.473 618.954,340.14 618.5,337.5 Z"/></g>
<g><path style="opacity:1" fill="#5a5a5a" d="M 689.5,370.5 C 694.856,377.048 698.523,384.548 700.5,393C 698.652,395.093 696.319,396.426 693.5,397C 680.712,399.885 668.379,398.718 656.5,393.5C 656.5,394.5 656.5,395.5 656.5,396.5C 653.645,391.023 649.312,386.856 643.5,384C 650.722,386.633 658.055,389.299 665.5,392C 682.902,395.091 690.902,387.925 689.5,370.5 Z"/></g>
<g><path style="opacity:1" fill="#060606" d="M 147.5,382.5 C 148.947,383.134 149.613,384.301 149.5,386C 148.279,393.491 147.113,400.991 146,408.5C 144.374,411.128 142.374,413.461 140,415.5C 141.411,404.282 143.911,393.282 147.5,382.5 Z"/></g>
<g><path style="opacity:1" fill="#595959" d="M 152.5,413.5 C 149.619,421.965 143.619,426.631 134.5,427.5C 133.201,426.91 132.368,425.91 132,424.5C 131.503,422.19 131.337,419.857 131.5,417.5C 132.18,420.343 134.013,422.01 137,422.5C 143.286,421.44 148.453,418.44 152.5,413.5 Z"/></g>
<g><path style="opacity:1" fill="#5a5a5a" d="M 668.5,416.5 C 669.117,416.611 669.617,416.944 670,417.5C 672.171,427.514 674.337,437.514 676.5,447.5C 675.668,459.82 671.501,470.82 664,480.5C 656.058,489.448 647.225,497.281 637.5,504C 628.893,507.302 620.893,511.635 613.5,517C 594.377,523.561 575.711,531.228 557.5,540C 533.486,548.228 509.153,555.228 484.5,561C 466.207,563.412 447.874,565.412 429.5,567C 419.833,567.667 410.167,567.667 400.5,567C 376.857,565.241 353.19,563.908 329.5,563C 288.931,556.527 250.265,544.193 213.5,526C 192.263,514.431 174.43,498.931 160,479.5C 150.917,466.205 148.084,451.872 151.5,436.5C 150.912,444.117 152.079,451.45 155,458.5C 162.765,470.499 172.265,480.999 183.5,490C 199.575,502.374 216.909,512.707 235.5,521C 264.631,532.821 294.298,542.821 324.5,551C 339.12,553.321 353.786,555.321 368.5,557C 386.183,556.857 403.85,557.023 421.5,557.5C 434.884,556.918 448.218,555.752 461.5,554C 497.772,546.802 533.438,537.135 568.5,525C 598.45,513.452 624.616,496.285 647,473.5C 651.92,465.328 656.587,456.995 661,448.5C 664.46,437.996 666.96,427.329 668.5,416.5 Z"/></g>
<g><path style="opacity:0.718" fill="#7f7f7f" d="M 171.5,501.5 C 173.027,501.427 174.027,502.094 174.5,503.5C 172.973,503.573 171.973,502.906 171.5,501.5 Z"/></g>
<g><path style="opacity:1" fill="#595959" d="M 478.5,672.5 C 479.316,674.144 480.65,675.31 482.5,676C 493.934,680.724 504.101,678.891 513,670.5C 512.484,676.348 510.651,681.848 507.5,687C 510.833,689 514.167,689 517.5,687C 531.421,676.687 539.921,662.853 543,645.5C 543.947,633.228 539.78,623.061 530.5,615C 523.496,610.163 516.163,605.829 508.5,602C 499.47,598.897 490.303,598.064 481,599.5C 477.485,607.683 477.985,615.683 482.5,623.5C 479.407,625.309 476.074,626.309 472.5,626.5C 473.018,625.423 473.352,624.256 473.5,623C 469.778,615.111 469.778,607.278 473.5,599.5C 473.167,598.5 472.5,597.833 471.5,597.5C 469.364,598.472 468.197,600.139 468,602.5C 467.081,608.966 467.581,615.299 469.5,621.5C 459.058,625.296 450.558,631.63 444,640.5C 430.5,618.167 417,595.833 403.5,573.5C 437.551,572.702 471.217,568.702 504.5,561.5C 506.299,561.577 507.966,562.077 509.5,563C 520.782,574.621 532.948,585.121 546,594.5C 546.265,596.163 545.765,597.663 544.5,599C 549.027,601.543 552.194,605.376 554,610.5C 565.425,638.292 560.925,663.126 540.5,685C 534.687,690.075 528.354,694.408 521.5,698C 505.398,705.566 492.565,702.066 483,687.5C 480.383,682.817 478.883,677.817 478.5,672.5 Z"/></g>
<g><path style="opacity:0.118" fill="#c4c4c4" d="M 338.5,568.5 C 340.424,568.711 340.757,569.377 339.5,570.5C 339.167,569.833 338.833,569.167 338.5,568.5 Z"/></g>
<g><path style="opacity:1" fill="#747474" d="M 341.5,626.5 C 340.957,626.56 340.624,626.893 340.5,627.5C 342.423,637.058 343.757,646.724 344.5,656.5C 344.406,658.923 343.906,661.256 343,663.5C 342.439,664.022 341.772,664.355 341,664.5C 335.989,662.745 331.156,660.578 326.5,658C 319.953,652.954 314.286,647.12 309.5,640.5C 307.682,644.136 305.849,647.802 304,651.5C 296.56,654.165 290.893,651.832 287,644.5C 283.432,623.869 288.766,605.869 303,590.5C 307.859,584.786 313.359,580.119 319.5,576.5C 327.483,576.346 334.483,578.679 340.5,583.5C 340.918,578.414 342.251,573.58 344.5,569C 348.256,568.625 351.922,569.125 355.5,570.5C 348.327,588.524 343.661,607.191 341.5,626.5 Z"/></g>
<g><path style="opacity:1" fill="#9a9a9a" d="M 360.5,674.5 C 365.636,683.259 371.636,691.426 378.5,699C 384.877,703.189 391.544,706.855 398.5,710C 417.397,716.636 424.897,710.136 421,690.5C 413.216,671.683 409.383,652.016 409.5,631.5C 398.985,626.788 387.985,624.121 376.5,623.5C 367.747,622.705 360.081,625.039 353.5,630.5C 350.807,627.803 348.473,624.803 346.5,621.5C 349.487,606.708 352.987,592.041 357,577.5C 357.93,575.064 359.097,572.731 360.5,570.5C 362.667,570.167 364.833,569.833 367,569.5C 377.186,570.567 387.352,571.567 397.5,572.5C 412.418,596.667 427.085,621.001 441.5,645.5C 436.166,659.522 436.333,673.522 442,687.5C 449.259,695.897 458.426,699.063 469.5,697C 472.798,696.513 475.798,695.347 478.5,693.5C 480.786,693.96 482.119,695.293 482.5,697.5C 479.307,719.149 479.973,740.649 484.5,762C 484.167,762.5 483.833,763 483.5,763.5C 454.121,772.925 425.787,770.425 398.5,756C 385.188,748.027 373.021,738.527 362,727.5C 358.333,721.833 354.667,716.167 351,710.5C 348.531,702.626 346.698,694.626 345.5,686.5C 348.84,684.43 352.174,682.263 355.5,680C 357.402,678.27 359.069,676.437 360.5,674.5 Z"/></g>
<g><path style="opacity:0.553" fill="#8f8f8f" d="M 338.5,574.5 C 337.947,576.552 336.947,576.885 335.5,575.5C 336.609,575.443 337.609,575.11 338.5,574.5 Z"/></g>
<g><path style="opacity:1" fill="#595959" d="M 319.5,576.5 C 313.359,580.119 307.859,584.786 303,590.5C 288.766,605.869 283.432,623.869 287,644.5C 290.893,651.832 296.56,654.165 304,651.5C 305.849,647.802 307.682,644.136 309.5,640.5C 314.286,647.12 319.953,652.954 326.5,658C 331.156,660.578 335.989,662.745 341,664.5C 341.772,664.355 342.439,664.022 343,663.5C 343.906,661.256 344.406,658.923 344.5,656.5C 343.757,646.724 342.423,637.058 340.5,627.5C 340.624,626.893 340.957,626.56 341.5,626.5C 351.199,635.23 356.699,646.23 358,659.5C 359.809,668.085 356.976,674.585 349.5,679C 336.467,684.992 325.3,682.492 316,671.5C 315.5,670 315,668.5 314.5,667C 316.52,664.379 316.853,661.545 315.5,658.5C 312.383,663.451 308.383,667.618 303.5,671C 299.152,671.238 294.819,670.905 290.5,670C 278.528,660.766 274.028,648.599 277,633.5C 280.837,610.292 292.337,592.125 311.5,579C 313.909,577.293 316.575,576.46 319.5,576.5 Z"/></g>
<g><path style="opacity:1" fill="#747474" d="M 478.5,672.5 C 478.817,669.428 478.484,666.428 477.5,663.5C 476.056,665.608 475.39,667.941 475.5,670.5C 473.625,679.348 467.958,684.015 458.5,684.5C 455.512,684.283 452.845,683.283 450.5,681.5C 447.814,678.097 445.147,674.764 442.5,671.5C 439.876,647.833 449.876,632.833 472.5,626.5C 476.074,626.309 479.407,625.309 482.5,623.5C 477.985,615.683 477.485,607.683 481,599.5C 490.303,598.064 499.47,598.897 508.5,602C 516.163,605.829 523.496,610.163 530.5,615C 539.78,623.061 543.947,633.228 543,645.5C 539.921,662.853 531.421,676.687 517.5,687C 514.167,689 510.833,689 507.5,687C 510.651,681.848 512.484,676.348 513,670.5C 504.101,678.891 493.934,680.724 482.5,676C 480.65,675.31 479.316,674.144 478.5,672.5 Z"/></g>
<g><path style="opacity:1" fill="#747474" d="M 598.5,698.5 C 598.426,725.588 589.092,748.755 570.5,768C 559.897,776.467 547.897,781.967 534.5,784.5C 517.611,781.445 507.444,771.445 504,754.5C 503.406,748.293 502.572,742.126 501.5,736C 501.833,734.167 502.167,732.333 502.5,730.5C 513.145,739.213 524.812,740.713 537.5,735C 550.384,725.714 559.218,713.548 564,698.5C 565.245,684.678 566.411,670.844 567.5,657C 567.12,651.981 566.454,647.148 565.5,642.5C 564.83,628.805 561.496,615.805 555.5,603.5C 556.002,602.479 556.668,602.312 557.5,603C 569.419,613.659 578.252,626.492 584,641.5C 591.615,659.836 596.448,678.836 598.5,698.5 Z"/></g>
<g><path style="opacity:1" fill="#b8b8b8" d="M 360.5,674.5 C 363.251,664.076 362.751,653.743 359,643.5C 357.154,639.145 355.321,634.812 353.5,630.5C 360.081,625.039 367.747,622.705 376.5,623.5C 387.985,624.121 398.985,626.788 409.5,631.5C 409.383,652.016 413.216,671.683 421,690.5C 424.897,710.136 417.397,716.636 398.5,710C 391.544,706.855 384.877,703.189 378.5,699C 371.636,691.426 365.636,683.259 360.5,674.5 Z"/></g>
<g><path style="opacity:1" fill="#595959" d="M 565.5,642.5 C 566.454,647.148 567.12,651.981 567.5,657C 566.411,670.844 565.245,684.678 564,698.5C 559.218,713.548 550.384,725.714 537.5,735C 524.812,740.713 513.145,739.213 502.5,730.5C 502.167,732.333 501.833,734.167 501.5,736C 502.572,742.126 503.406,748.293 504,754.5C 507.444,771.445 517.611,781.445 534.5,784.5C 547.897,781.967 559.897,776.467 570.5,768C 589.092,748.755 598.426,725.588 598.5,698.5C 602.933,721.449 598.766,742.782 586,762.5C 585.175,764.701 585.675,766.534 587.5,768C 598.604,767.364 607.771,771.197 615,779.5C 618.98,786.624 623.814,793.124 629.5,799C 632.661,800.413 635.661,802.08 638.5,804C 634.952,805.941 631.286,807.607 627.5,809C 619.193,809.999 610.86,810.832 602.5,811.5C 601.423,814.474 601.423,817.474 602.5,820.5C 584.783,820.736 567.116,819.903 549.5,818C 516.667,809.167 495.833,788.333 487,755.5C 483.667,736.833 483.667,718.167 487,699.5C 491.793,704.268 497.627,706.601 504.5,706.5C 525.326,704.005 541.492,694.005 553,676.5C 558.507,665.462 562.674,654.128 565.5,642.5 Z"/></g>
<g><path style="opacity:1" fill="#595959" d="M 475.5,670.5 C 475.435,676.617 475.935,682.617 477,688.5C 473.472,691.584 469.306,693.251 464.5,693.5C 449.477,693.811 442.144,686.477 442.5,671.5C 445.147,674.764 447.814,678.097 450.5,681.5C 452.845,683.283 455.512,684.283 458.5,684.5C 467.958,684.015 473.625,679.348 475.5,670.5 Z"/></g>
<g><path style="opacity:0.18" fill="#9e9e9e" d="M 310.5,672.5 C 310.56,671.957 310.893,671.624 311.5,671.5C 312.793,673.636 312.793,675.636 311.5,677.5C 311.784,675.585 311.451,673.919 310.5,672.5 Z"/></g>
<g><path style="opacity:1" fill="#595959" d="M 350.5,718.5 C 349.043,720.242 347.876,722.242 347,724.5C 338.32,720.657 330.654,715.324 324,708.5C 322.417,720.502 325.084,731.502 332,741.5C 338.772,748.117 345.939,754.117 353.5,759.5C 344.842,759.336 337.175,756.503 330.5,751C 328.037,747.535 325.204,744.369 322,741.5C 312.917,721.081 311.25,700.081 317,678.5C 323.898,685.032 332.065,687.698 341.5,686.5C 342.025,697.943 345.025,708.61 350.5,718.5 Z"/></g>
<g><path style="opacity:1" fill="#747474" d="M 350.5,718.5 C 353.904,722.965 357.071,727.631 360,732.5C 365.289,737.867 370.789,742.867 376.5,747.5C 379.148,754.295 382.482,760.795 386.5,767C 376.802,767.387 367.468,765.554 358.5,761.5C 356.95,760.559 355.284,759.893 353.5,759.5C 345.939,754.117 338.772,748.117 332,741.5C 325.084,731.502 322.417,720.502 324,708.5C 330.654,715.324 338.32,720.657 347,724.5C 347.876,722.242 349.043,720.242 350.5,718.5 Z"/></g>
<g><path style="opacity:1" fill="#595959" d="M 376.5,747.5 C 382.999,751.811 389.665,755.978 396.5,760C 402.274,763.222 408.274,765.888 414.5,768C 415.749,770.21 415.582,772.376 414,774.5C 406.476,785.682 396.31,793.515 383.5,798C 375.234,799.989 366.9,801.656 358.5,803C 353.761,803.726 349.095,803.393 344.5,802C 346.809,799.513 349.476,797.513 352.5,796C 356.633,790.866 361.133,786.032 366,781.5C 366.612,779.763 365.946,778.763 364,778.5C 362.019,779.65 360.186,780.984 358.5,782.5C 358.924,779.646 359.924,776.979 361.5,774.5C 352.07,771.913 342.737,768.913 333.5,765.5C 332.287,765.253 331.62,764.586 331.5,763.5C 332.479,761.855 333.812,760.521 335.5,759.5C 342.062,762.14 348.729,764.474 355.5,766.5C 356.442,766.392 357.275,766.059 358,765.5C 357.645,764.041 357.811,762.707 358.5,761.5C 367.468,765.554 376.802,767.387 386.5,767C 382.482,760.795 379.148,754.295 376.5,747.5 Z"/></g>
<g><path style="opacity:0.039" fill="#d3d3d3" d="M 593.5,762.5 C 594.5,763.167 595.5,763.833 596.5,764.5C 594.801,764.66 593.134,764.494 591.5,764C 592.044,763.283 592.711,762.783 593.5,762.5 Z"/></g>
<g><path style="opacity:1" fill="#747474" d="M 331.5,763.5 C 331.62,764.586 332.287,765.253 333.5,765.5C 342.737,768.913 352.07,771.913 361.5,774.5C 359.924,776.979 358.924,779.646 358.5,782.5C 346.952,790.089 334.285,792.589 320.5,790C 314.309,788.792 309.475,785.626 306,780.5C 305.219,779.056 305.386,777.723 306.5,776.5C 315.584,773.459 323.917,769.126 331.5,763.5 Z"/></g>
<g><path style="opacity:1" fill="#747474" d="M 577.5,780.5 C 592.957,777.906 605.623,782.573 615.5,794.5C 608.26,800.357 599.926,803.024 590.5,802.5C 590.911,805.553 591.577,808.553 592.5,811.5C 587.462,812.33 582.795,811.164 578.5,808C 571.727,803.194 565.227,798.028 559,792.5C 558.542,789.904 559.375,787.737 561.5,786C 566.846,783.83 572.179,781.997 577.5,780.5 Z"/></g>
<g><path style="opacity:0.165" fill="#adadad" d="M 344.5,796.5 C 344.5,795.833 344.167,795.5 343.5,795.5C 344.943,794.297 346.609,793.797 348.5,794C 347.307,795.095 345.973,795.928 344.5,796.5 Z"/></g>
<g><path style="opacity:0.282" fill="#acacac" d="M 619.5,814.5 C 615.232,814.869 611.232,815.869 607.5,817.5C 606.596,816.791 606.263,815.791 606.5,814.5C 610.833,814.5 615.167,814.5 619.5,814.5 Z"/></g>

        
<g><path style="opacity:0.992" fill="#181417" d="M 560.5,379.5 C 564.387,375.727 566.72,371.06 567.5,365.5C 569.686,364.177 571.186,362.177 572,359.5C 578.954,340.152 574.454,323.985 558.5,311C 545.232,303.032 531.232,296.699 516.5,292C 506.207,290.529 495.873,290.196 485.5,291C 479.383,293.373 473.05,294.706 466.5,295C 461.341,297.412 456.341,300.079 451.5,303C 444.575,308.38 437.742,313.88 431,319.5C 423.646,329.539 417.313,340.205 412,351.5C 411.012,369.022 416.845,383.856 429.5,396C 434.651,398.996 439.651,402.162 444.5,405.5C 446.713,407.86 449.379,409.694 452.5,411C 459.011,412.032 465.344,411.532 471.5,409.5C 472.107,409.624 472.44,409.957 472.5,410.5C 469.227,413.144 465.56,415.311 461.5,417C 456.665,417.586 451.999,416.92 447.5,415C 440.357,408.927 432.69,403.594 424.5,399C 421.121,394.41 417.621,389.91 414,385.5C 412.441,383.783 411.608,381.783 411.5,379.5C 411.291,378.078 410.791,376.745 410,375.5C 409.505,377.473 409.338,379.473 409.5,381.5C 406.726,398.056 397.392,403.556 381.5,398C 377.252,395.757 373.586,392.757 370.5,389C 368.246,387.349 365.912,387.182 363.5,388.5C 358.442,397.689 350.775,400.856 340.5,398C 336.532,397.036 333.365,394.869 331,391.5C 328.383,383.698 326.716,375.698 326,367.5C 325.461,370.529 324.794,373.529 324,376.5C 317.405,391.893 308.238,405.393 296.5,417C 294.598,418.796 292.598,418.963 290.5,417.5C 293.117,412.886 296.117,408.553 299.5,404.5C 300.189,405.774 301.023,405.774 302,404.5C 307.333,395.833 312.667,387.167 318,378.5C 321.248,370.808 322.248,362.808 321,354.5C 313.81,339.274 303.643,326.441 290.5,316C 283.789,313.765 277.456,310.765 271.5,307C 246.755,303.29 227.921,312.123 215,333.5C 207.453,345.776 204.286,359.11 205.5,373.5C 205.294,376.495 205.96,379.162 207.5,381.5C 207.878,383.921 208.545,386.254 209.5,388.5C 208.116,389.801 206.616,389.801 205,388.5C 196.903,365.733 199.903,344.399 214,324.5C 214.811,302.71 223.644,285.21 240.5,272C 247.094,267.201 254.428,264.368 262.5,263.5C 267.334,263.944 272.001,265.11 276.5,267C 305.719,288.241 323.719,316.741 330.5,352.5C 330.821,354.048 331.821,354.715 333.5,354.5C 344.853,360.061 356.853,363.394 369.5,364.5C 379.284,361.745 389.284,360.245 399.5,360C 396.14,347.665 395.64,335.165 398,322.5C 400.262,313.712 402.929,305.046 406,296.5C 409.946,290.221 414.279,284.221 419,278.5C 434.232,264.13 452.065,254.297 472.5,249C 492.538,243.576 511.538,245.909 529.5,256C 538.534,261.893 545.367,269.726 550,279.5C 554.515,287.881 558.348,296.548 561.5,305.5C 584.461,325.683 587.628,348.683 571,374.5C 569.5,376 568,377.5 566.5,379C 564.527,379.495 562.527,379.662 560.5,379.5 Z"/></g>
<g><path style="opacity:1" fill="#6e1b68" d="M 529.5,262.5 C 532.167,265.833 535.167,268.833 538.5,271.5C 544.711,280.92 549.544,290.92 553,301.5C 524.317,282.89 493.817,279.39 461.5,291C 454.299,294.098 447.965,298.431 442.5,304C 436.129,307.365 430.629,311.865 426,317.5C 418.399,328.107 412.065,339.441 407,351.5C 406.457,356.243 406.457,360.91 407,365.5C 404.135,360.234 402.469,354.567 402,348.5C 400.813,331.241 403.479,314.574 410,298.5C 423.165,279.316 440.665,265.483 462.5,257C 485.869,247.939 508.203,249.772 529.5,262.5 Z"/></g>
<g><path style="opacity:1" fill="#341231" d="M 529.5,262.5 C 533.5,264.5 536.5,267.5 538.5,271.5C 535.167,268.833 532.167,265.833 529.5,262.5 Z"/></g>
<g><path style="opacity:1" fill="#6e1b68" d="M 254.5,269.5 C 261.221,268.751 267.554,269.918 273.5,273C 298.388,291.387 314.721,315.554 322.5,345.5C 321.5,345.5 320.5,345.5 319.5,345.5C 319.116,341.396 317.616,337.729 315,334.5C 309.501,328.025 304.001,321.525 298.5,315C 289.756,309.294 280.422,304.628 270.5,301C 255.52,298.908 241.52,301.908 228.5,310C 225.667,312.833 222.833,315.667 220,318.5C 219.333,316.167 219.333,313.833 220,311.5C 224.55,299.238 231.05,288.072 239.5,278C 245.21,276.153 250.21,273.319 254.5,269.5 Z"/></g>
<g><path style="opacity:1" fill="#f5f3e7" d="M 567.5,365.5 C 563.649,360.486 558.983,356.319 553.5,353C 543.606,346.886 533.272,341.552 522.5,337C 465.992,324.661 439.992,347.494 444.5,405.5C 439.651,402.162 434.651,398.996 429.5,396C 416.845,383.856 411.012,369.022 412,351.5C 417.313,340.205 423.646,329.539 431,319.5C 437.742,313.88 444.575,308.38 451.5,303C 456.341,300.079 461.341,297.412 466.5,295C 473.05,294.706 479.383,293.373 485.5,291C 495.873,290.196 506.207,290.529 516.5,292C 531.232,296.699 545.232,303.032 558.5,311C 574.454,323.985 578.954,340.152 572,359.5C 571.186,362.177 569.686,364.177 567.5,365.5 Z"/></g>
<g><path style="opacity:1" fill="#f4f3e6" d="M 299.5,404.5 C 302.394,391.294 300.228,378.96 293,367.5C 289.193,362.059 285.027,356.892 280.5,352C 271.732,343.889 261.398,340.889 249.5,343C 229.362,346.966 215.362,358.466 207.5,377.5C 206.833,376.167 206.167,374.833 205.5,373.5C 204.286,359.11 207.453,345.776 215,333.5C 227.921,312.123 246.755,303.29 271.5,307C 277.456,310.765 283.789,313.765 290.5,316C 303.643,326.441 313.81,339.274 321,354.5C 322.248,362.808 321.248,370.808 318,378.5C 312.667,387.167 307.333,395.833 302,404.5C 301.023,405.774 300.189,405.774 299.5,404.5 Z"/></g>
<g><path style="opacity:1" fill="#6f1c69" d="M 567.5,365.5 C 566.72,371.06 564.387,375.727 560.5,379.5C 555.42,379.25 550.42,379.75 545.5,381C 531.312,384.729 517.312,389.063 503.5,394C 492.51,398.492 482.176,403.992 472.5,410.5C 472.44,409.957 472.107,409.624 471.5,409.5C 465.344,411.532 459.011,412.032 452.5,411C 449.379,409.694 446.713,407.86 444.5,405.5C 439.992,347.494 465.992,324.661 522.5,337C 533.272,341.552 543.606,346.886 553.5,353C 558.983,356.319 563.649,360.486 567.5,365.5 Z"/></g>
<g><path style="opacity:1" fill="#6f1c69" d="M 299.5,404.5 C 296.117,408.553 293.117,412.886 290.5,417.5C 280.354,412.929 271.02,407.096 262.5,400C 246.099,390.353 228.432,386.52 209.5,388.5C 208.545,386.254 207.878,383.921 207.5,381.5C 207.5,380.167 207.5,378.833 207.5,377.5C 215.362,358.466 229.362,346.966 249.5,343C 261.398,340.889 271.732,343.889 280.5,352C 285.027,356.892 289.193,362.059 293,367.5C 300.228,378.96 302.394,391.294 299.5,404.5 Z"/></g>
<g><path style="opacity:0.573" fill="#83827b" d="M 330.5,352.5 C 331.71,352.932 332.71,353.599 333.5,354.5C 331.821,354.715 330.821,354.048 330.5,352.5 Z"/></g>
<g><path style="opacity:1" fill="#6e1b68" d="M 329.5,358.5 C 340.896,364.687 353.062,368.354 366,369.5C 374.961,368.124 383.961,367.124 393,366.5C 398.609,365.552 402.442,367.552 404.5,372.5C 406.973,380.27 405.306,386.937 399.5,392.5C 393.208,396.306 386.875,396.14 380.5,392C 377.007,386.991 372.34,383.824 366.5,382.5C 363.972,382.763 361.639,383.596 359.5,385C 357.481,388.014 355.148,390.68 352.5,393C 344.85,395.304 339.017,393.138 335,386.5C 333.419,377.08 331.586,367.746 329.5,358.5 Z"/></g>
<g><path style="opacity:1" fill="#9e8095" d="M 205.5,373.5 C 206.167,374.833 206.833,376.167 207.5,377.5C 207.5,378.833 207.5,380.167 207.5,381.5C 205.96,379.162 205.294,376.495 205.5,373.5 Z"/></g>
<g><path style="opacity:0.008" fill="#92928a" d="M 411.5,379.5 C 410.833,380.167 410.167,380.833 409.5,381.5C 409.338,379.473 409.505,377.473 410,375.5C 410.791,376.745 411.291,378.078 411.5,379.5 Z"/></g>
<g><path style="opacity:0.005" fill="#000000" d="M 226.5,392.5 C 227.386,391.224 228.386,391.224 229.5,392.5C 228.575,393.562 227.575,393.562 226.5,392.5 Z"/></g>
<g><path style="opacity:0.004" fill="#000000" d="M 212.5,393.5 C 212.897,392.475 213.563,392.308 214.5,393C 213.906,393.464 213.239,393.631 212.5,393.5 Z"/></g>

        
<g><path style="opacity:0.993" fill="#1d1d1c" d="M 533.5,373.5 C 533.427,375.027 534.094,376.027 535.5,376.5C 536.421,377.981 537.588,379.314 539,380.5C 546.114,378.049 553.447,377.049 561,377.5C 571.496,377.782 581.829,379.115 592,381.5C 596.31,378.951 600.81,376.785 605.5,375C 607.124,373.883 608.124,372.383 608.5,370.5C 607.169,365.662 605.169,361.162 602.5,357C 598.071,354.898 593.905,352.398 590,349.5C 589.652,347.077 590.818,346.077 593.5,346.5C 609.841,350.195 616.341,360.195 613,376.5C 603.38,385.408 592.213,388.574 579.5,386C 560.501,380.976 542.501,383.143 525.5,392.5C 525.631,391.624 525.298,390.957 524.5,390.5C 523.261,390.942 522.261,391.609 521.5,392.5C 520.791,393.404 519.791,393.737 518.5,393.5C 514.838,393.723 511.505,394.723 508.5,396.5C 505.759,396.707 503.426,397.707 501.5,399.5C 501.158,400.338 500.492,400.672 499.5,400.5C 494.914,401.46 490.914,403.46 487.5,406.5C 487.158,407.338 486.492,407.672 485.5,407.5C 483.973,407.427 482.973,408.094 482.5,409.5C 474.4,414.478 466.067,419.312 457.5,424C 443.308,427.421 428.975,430.088 414.5,432C 407.568,441.695 402.068,452.195 398,463.5C 395.706,464.852 393.206,465.519 390.5,465.5C 382.205,463.808 373.871,462.308 365.5,461C 361.367,455.866 356.867,451.032 352,446.5C 349.027,442.026 345.86,437.693 342.5,433.5C 326.223,431.676 310.223,429.009 294.5,425.5C 296.933,424.452 296.933,423.786 294.5,423.5C 290.703,423.128 287.37,421.794 284.5,419.5C 281.485,417.326 278.151,415.659 274.5,414.5C 273.415,412.413 271.749,411.08 269.5,410.5C 268.508,410.672 267.842,410.338 267.5,409.5C 267.027,408.094 266.027,407.427 264.5,407.5C 246.393,392.864 225.893,388.198 203,393.5C 187.393,392.379 177.393,384.379 173,369.5C 171.522,361.889 171.188,354.222 172,346.5C 172.576,343.876 173.91,343.209 176,344.5C 175.322,355.382 177.322,365.715 182,375.5C 187.666,382.337 194.999,386.337 204,387.5C 211.838,386.851 219.672,386.184 227.5,385.5C 228.689,385.756 229.856,386.089 231,386.5C 235.355,381.808 239.355,376.808 243,371.5C 252.878,352.411 262.212,333.077 271,313.5C 272.667,312.167 274.333,312.167 276,313.5C 278.194,316.554 279.861,319.888 281,323.5C 287.817,352.886 289.65,382.552 286.5,412.5C 310.116,423.996 334.949,427.996 361,424.5C 392.623,428.793 423.79,426.627 454.5,418C 456.833,416.833 459.167,415.667 461.5,414.5C 462.664,408.193 462.831,401.859 462,395.5C 457.444,368.94 451.777,342.606 445,316.5C 444.347,314.436 443.18,312.769 441.5,311.5C 441.709,310.914 442.043,310.414 442.5,310C 447.572,309.249 452.572,309.582 457.5,311C 484.557,324.944 508.391,343.111 529,365.5C 530.765,368.032 532.265,370.699 533.5,373.5 Z"/></g>
<g><path style="opacity:1" fill="#f5f4e7" d="M 469.5,410.5 C 468.833,406.5 468.167,402.5 467.5,398.5C 463.802,370.345 457.802,342.678 449.5,315.5C 454.683,316.058 459.683,317.891 464.5,321C 474.66,328.247 484.994,335.247 495.5,342C 505.667,351.5 515.833,361 526,370.5C 528.305,374.304 530.805,377.97 533.5,381.5C 518.166,386.445 503.166,392.278 488.5,399C 482.111,402.856 475.778,406.689 469.5,410.5 Z"/></g>
<g><path style="opacity:1" fill="#f2f1e4" d="M 273.5,321.5 C 274.79,322.058 275.623,323.058 276,324.5C 282.555,352.81 284.721,381.476 282.5,410.5C 274.922,407.036 267.922,402.536 261.5,397C 253.654,393.663 245.654,390.83 237.5,388.5C 238.608,384.869 240.774,381.869 244,379.5C 247.919,373.33 251.586,366.997 255,360.5C 261.178,347.478 267.345,334.478 273.5,321.5 Z"/></g>
<g><path style="opacity:0.514" fill="#85857e" d="M 533.5,373.5 C 534.906,373.973 535.573,374.973 535.5,376.5C 534.094,376.027 533.427,375.027 533.5,373.5 Z"/></g>
<g><path style="opacity:0.024" fill="#cacabf" d="M 525.5,392.5 C 524.167,392.5 522.833,392.5 521.5,392.5C 522.261,391.609 523.261,390.942 524.5,390.5C 525.298,390.957 525.631,391.624 525.5,392.5 Z"/></g>
<g><path style="opacity:0.024" fill="#d6d5ca" d="M 518.5,393.5 C 515.495,395.277 512.162,396.277 508.5,396.5C 511.505,394.723 514.838,393.723 518.5,393.5 Z"/></g>
<g><path style="opacity:0.039" fill="#d2d1c6" d="M 508.5,396.5 C 506.574,398.293 504.241,399.293 501.5,399.5C 503.426,397.707 505.759,396.707 508.5,396.5 Z"/></g>
<g><path style="opacity:0.031" fill="#d8d7cc" d="M 499.5,400.5 C 495.818,403.008 491.818,405.008 487.5,406.5C 490.914,403.46 494.914,401.46 499.5,400.5 Z"/></g>
<g><path style="opacity:1" fill="#82817a" d="M 467.5,398.5 C 468.167,402.5 468.833,406.5 469.5,410.5C 469.44,411.043 469.107,411.376 468.5,411.5C 467.508,407.217 467.174,402.884 467.5,398.5 Z"/></g>
<g><path style="opacity:0.055" fill="#d1d0c5" d="M 264.5,407.5 C 266.027,407.427 267.027,408.094 267.5,409.5C 265.973,409.573 264.973,408.906 264.5,407.5 Z"/></g>
<g><path style="opacity:0.02" fill="#dfded2" d="M 485.5,407.5 C 485.027,408.906 484.027,409.573 482.5,409.5C 482.973,408.094 483.973,407.427 485.5,407.5 Z"/></g>
<g><path style="opacity:0.102" fill="#b9b8af" d="M 269.5,410.5 C 271.749,411.08 273.415,412.413 274.5,414.5C 272.251,413.92 270.585,412.587 269.5,410.5 Z"/></g>
<g><path style="opacity:0.039" fill="#d0d0c5" d="M 274.5,414.5 C 278.151,415.659 281.485,417.326 284.5,419.5C 280.58,418.873 277.247,417.207 274.5,414.5 Z"/></g>
<g><path style="opacity:0.031" fill="#d7d6cb" d="M 294.5,423.5 C 296.933,423.786 296.933,424.452 294.5,425.5C 293.494,425.062 293.494,424.396 294.5,423.5 Z"/></g>
<g><path style="opacity:1" fill="#f1f0e3" d="M 350.5,430.5 C 360.215,430.459 369.882,431.125 379.5,432.5C 389.146,431.411 398.812,431.245 408.5,432C 402.865,440.766 397.865,449.933 393.5,459.5C 392.833,459.833 392.167,460.167 391.5,460.5C 383.983,458.204 376.316,456.704 368.5,456C 361.627,448.795 355.127,441.295 349,433.5C 348.761,432.212 349.261,431.212 350.5,430.5 Z"/></g>

        

<g transform="translate(0.000000,862.000000) scale(0.100000,-0.100000)"
fill="#000000" stroke="none">
</g>

    </svg>
