
    <svg width="862" height="862" viewBox="0 0 862 862" fill="none" xmlns="http://www.w3.org/2000/svg">
        
<g><path style="opacity:1" fill="#f6f6e8" d="M -0.5,-0.5 C 286.833,-0.5 574.167,-0.5 861.5,-0.5C 861.5,286.833 861.5,574.167 861.5,861.5C 574.167,861.5 286.833,861.5 -0.5,861.5C -0.5,574.167 -0.5,286.833 -0.5,-0.5 Z"/></g>

        
<g><path style="opacity:0.983" fill="#1a1a19" d="M 578.5,540.5 C 583.993,540.916 589.326,542.082 594.5,544C 599.237,547.614 603.403,551.781 607,556.5C 613.977,570.057 616.311,584.39 614,599.5C 611.931,603.236 608.931,605.903 605,607.5C 603.018,607.01 601.351,606.01 600,604.5C 594.275,609.717 588.442,609.717 582.5,604.5C 577.923,613.337 572.256,614.337 565.5,607.5C 561.53,612.973 556.196,614.806 549.5,613C 548.299,612.097 547.465,610.931 547,609.5C 541.931,617.452 536.764,617.452 531.5,609.5C 527.737,613.765 523.737,617.932 519.5,622C 516.106,622.752 512.773,622.585 509.5,621.5C 508.194,620.088 507.36,618.421 507,616.5C 505.425,609.568 504.258,602.568 503.5,595.5C 504.335,583.317 510.669,578.317 522.5,580.5C 523.795,579.902 525.128,579.402 526.5,579C 535.197,570.637 543.531,561.97 551.5,553C 559.592,546.617 568.592,542.45 578.5,540.5 Z"/></g>
<g><path style="opacity:1" fill="#d9d8cb" d="M 587.5,601.5 C 588.496,601.586 589.329,601.252 590,600.5C 592.94,596.545 595.94,592.545 599,588.5C 599.37,579.339 598.37,570.339 596,561.5C 591.36,554.156 584.693,549.822 576,548.5C 573.538,549.159 571.038,549.493 568.5,549.5C 581.297,543.74 592.13,546.407 601,557.5C 608.853,570.951 611.186,585.285 608,600.5C 606.604,602.527 604.938,602.86 603,601.5C 602.091,598.089 601.091,594.755 600,591.5C 598.35,595.573 596.516,599.573 594.5,603.5C 591.584,604.861 589.251,604.195 587.5,601.5 Z"/></g>
<g><path style="opacity:1" fill="#f4f3e6" d="M 587.5,601.5 C 585.433,599.682 584.1,597.349 583.5,594.5C 582.635,593.417 581.635,593.251 580.5,594C 579.955,598.074 578.621,601.907 576.5,605.5C 574.878,607.439 573.044,607.772 571,606.5C 568.863,602.486 567.03,598.486 565.5,594.5C 564.522,594.977 563.689,595.643 563,596.5C 563.284,605.334 559.118,609.667 550.5,609.5C 550.348,605.228 549.348,601.228 547.5,597.5C 545.179,600.394 544.012,603.727 544,607.5C 541.618,612.067 538.951,612.4 536,608.5C 535.887,606.026 534.887,604.026 533,602.5C 527.856,607.313 523.023,612.48 518.5,618C 516.098,618.814 513.765,618.647 511.5,617.5C 508.811,609.37 507.645,601.036 508,592.5C 508.668,588.501 510.835,585.668 514.5,584C 518.801,584.363 523.134,584.363 527.5,584C 529.167,583 530.833,582 532.5,581C 540.864,572.97 548.864,564.637 556.5,556C 560.367,553.567 564.367,551.4 568.5,549.5C 571.038,549.493 573.538,549.159 576,548.5C 584.693,549.822 591.36,554.156 596,561.5C 598.37,570.339 599.37,579.339 599,588.5C 595.94,592.545 592.94,596.545 590,600.5C 589.329,601.252 588.496,601.586 587.5,601.5 Z"/></g>
<g><path style="opacity:0.982" fill="#191918" d="M 290.5,554.5 C 298.253,554.104 305.92,554.604 313.5,556C 315.5,557.333 317.5,558.667 319.5,560C 322.228,566.042 326.895,569.709 333.5,571C 335.378,572.543 336.878,574.376 338,576.5C 338.242,583.196 338.742,589.862 339.5,596.5C 339.461,598.587 338.461,599.921 336.5,600.5C 332.274,599.93 328.108,599.263 324,598.5C 322.5,600 321,601.5 319.5,603C 317.287,603.626 315.12,603.459 313,602.5C 306.564,605.689 301.23,604.356 297,598.5C 284.481,607.161 276.648,603.994 273.5,589C 271.944,573.778 277.611,562.278 290.5,554.5 Z"/></g>
<g><path style="opacity:1" fill="#f4f3e6" d="M 334.5,587.5 C 334.5,590.167 334.5,592.833 334.5,595.5C 333.167,595.5 331.833,595.5 330.5,595.5C 327.482,595.335 324.482,595.502 321.5,596C 320.022,598.039 318.022,598.872 315.5,598.5C 315.5,597.5 315.5,596.5 315.5,595.5C 312.326,596.015 309.326,597.015 306.5,598.5C 305.5,598.333 304.5,598.167 303.5,598C 301.441,595.366 299.275,592.866 297,590.5C 296.292,591.381 295.458,592.047 294.5,592.5C 290.404,593.285 287.07,592.118 284.5,589C 284.833,588.667 285.167,588.333 285.5,588C 283.667,587.5 282.5,586.333 282,584.5C 281.501,580.179 281.334,575.846 281.5,571.5C 281.709,570.078 282.209,568.745 283,567.5C 286.167,565 289.333,562.5 292.5,560C 298.167,559.333 303.833,559.333 309.5,560C 314.42,562.916 318.753,566.582 322.5,571C 326.232,572.461 329.732,574.294 333,576.5C 333.936,580.114 334.436,583.78 334.5,587.5 Z"/></g>
<g><path style="opacity:1" fill="#d7d6c9" d="M 281.5,571.5 C 281.334,575.846 281.501,580.179 282,584.5C 282.5,586.333 283.667,587.5 285.5,588C 285.167,588.333 284.833,588.667 284.5,589C 287.07,592.118 290.404,593.285 294.5,592.5C 293.641,595.452 291.641,597.285 288.5,598C 285.364,599.041 282.864,598.207 281,595.5C 279.409,588.608 279.076,581.608 280,574.5C 280.232,573.263 280.732,572.263 281.5,571.5 Z"/></g>
<g><path style="opacity:1" fill="#64635e" d="M 334.5,587.5 C 335.477,590.287 335.81,593.287 335.5,596.5C 333.585,596.784 331.919,596.451 330.5,595.5C 331.833,595.5 333.167,595.5 334.5,595.5C 334.5,592.833 334.5,590.167 334.5,587.5 Z"/></g>

        
<g><path style="opacity:0.995" fill="#0f0200" d="M 585.5,142.5 C 618.064,141.521 648.731,148.688 677.5,164C 686.447,169.947 695.114,176.28 703.5,183C 714.043,196.673 717.876,211.839 715,228.5C 713.465,233.604 711.632,238.604 709.5,243.5C 702.685,251.482 695.685,259.316 688.5,267C 694.886,266.122 701.386,265.622 708,265.5C 730.255,265.765 739.422,276.931 735.5,299C 732.443,310.782 726.776,321.115 718.5,330C 703.713,339.671 700.213,336.838 708,321.5C 708.533,312.097 705.7,303.93 699.5,297C 693.141,295.462 686.808,295.795 680.5,298C 669.05,303.483 657.05,307.15 644.5,309C 631.183,311.395 618.849,309.062 607.5,302C 599.758,295.533 598.258,288.033 603,279.5C 607.229,269.604 614.396,262.771 624.5,259C 636.122,256.679 647.122,252.679 657.5,247C 667.385,239.172 670.052,229.339 665.5,217.5C 660.121,218.006 654.787,218.839 649.5,220C 628.159,228.35 609.159,240.35 592.5,256C 588,260.5 583.5,265 579,269.5C 573.788,285.037 563.288,290.537 547.5,286C 525.22,283.693 504.886,276.359 486.5,264C 473.295,251.722 467.128,236.555 468,218.5C 469.427,213.878 471.427,209.545 474,205.5C 488.146,191.361 503.313,178.527 519.5,167C 529.711,161.728 540.044,156.728 550.5,152C 562.08,148.024 573.746,144.858 585.5,142.5 Z"/></g>
<g><path style="opacity:1" fill="#5d1100" d="M 672.5,210.5 C 669.287,210.81 666.287,210.477 663.5,209.5C 660.834,206.98 658.668,203.98 657,200.5C 655.31,195.214 653.81,189.88 652.5,184.5C 650.976,185.527 650.309,187.027 650.5,189C 651.19,194.403 652.69,199.57 655,204.5C 656.055,207.056 657.888,208.723 660.5,209.5C 643.718,212.355 626.718,215.355 609.5,218.5C 605.499,213.661 601.666,208.661 598,203.5C 595.223,197.454 593.39,191.121 592.5,184.5C 591.914,184.709 591.414,185.043 591,185.5C 590.174,190.589 590.508,195.589 592,200.5C 595.603,207.257 599.77,213.591 604.5,219.5C 590.203,224.148 577.203,231.148 565.5,240.5C 560.738,239.249 556.905,236.582 554,232.5C 549.273,226.103 544.94,219.436 541,212.5C 540.626,210.102 540.626,207.769 541,205.5C 539.989,204.663 538.822,204.33 537.5,204.5C 537.023,209.742 537.856,214.742 540,219.5C 544.246,224.991 548.246,230.658 552,236.5C 554.752,239.453 557.918,241.786 561.5,243.5C 553.678,249.923 546.011,256.59 538.5,263.5C 536.054,268.486 532.721,272.486 528.5,275.5C 511.724,272.529 497.224,265.196 485,253.5C 476.493,242.643 472.826,230.309 474,216.5C 478.709,208.785 484.542,201.951 491.5,196C 501.962,186.938 512.962,178.605 524.5,171C 539.404,162.712 555.071,156.379 571.5,152C 588.097,147.814 604.764,147.481 621.5,151C 652.099,156.383 678.599,169.55 701,190.5C 708.819,201.577 711.819,213.91 710,227.5C 705.468,222.633 700.634,218.133 695.5,214C 688.093,211.133 680.426,209.966 672.5,210.5 Z"/></g>
<g><path style="opacity:0.995" fill="#0f0200" d="M 174.5,164.5 C 224.809,164.566 263.976,185.233 292,226.5C 294.158,234.271 293.825,241.938 291,249.5C 286.623,263.427 279.789,275.927 270.5,287C 262.225,293.056 253.392,298.223 244,302.5C 236.894,304.964 229.728,305.13 222.5,303C 221.308,301.055 221.308,299.055 222.5,297C 218.747,289.407 215.58,281.573 213,273.5C 203.563,260.398 193.063,248.231 181.5,237C 167.625,227.703 152.625,220.703 136.5,216C 132.833,215.333 129.167,215.333 125.5,216C 122.528,217.141 120.861,219.308 120.5,222.5C 122.316,224.817 124.316,226.984 126.5,229C 134.833,232.667 143.167,236.333 151.5,240C 161.408,247.205 171.575,254.038 182,260.5C 188.153,269.822 187.986,278.989 181.5,288C 171.767,294.339 161.434,295.339 150.5,291C 143.153,288.657 135.819,286.323 128.5,284C 117.047,281.545 110.047,285.878 107.5,297C 108.614,304.497 110.614,311.663 113.5,318.5C 100.871,317.267 89.704,312.6 80,304.5C 77.9376,302.099 76.2709,299.433 75,296.5C 74.1041,288.754 74.4375,281.087 76,273.5C 80.018,265.44 85.8514,259.107 93.5,254.5C 80.7205,242.664 77.5539,228.664 84,212.5C 93.8725,199.627 105.373,188.46 118.5,179C 136.158,169.753 154.825,164.92 174.5,164.5 Z"/></g>
<g><path style="opacity:1" fill="#5d1100" d="M 280.5,260.5 C 270.741,263.606 260.741,265.106 250.5,265C 245.566,260.574 241.233,255.74 237.5,250.5C 241.461,244.244 244.627,237.577 247,230.5C 247.5,223.508 247.666,216.508 247.5,209.5C 245.876,209.36 244.71,210.027 244,211.5C 245.234,224.956 241.734,236.956 233.5,247.5C 227.279,242.464 220.612,237.964 213.5,234C 205.124,230.403 197.458,225.903 190.5,220.5C 192.154,212.059 193.488,203.559 194.5,195C 194.333,193.167 194.167,191.333 194,189.5C 192.667,188.167 191.333,188.167 190,189.5C 190.117,199.792 188.617,209.792 185.5,219.5C 173.915,215.372 162.582,210.705 151.5,205.5C 151.665,202.482 151.498,199.482 151,196.5C 149.959,194.689 148.793,194.355 147.5,195.5C 146.681,198.305 146.181,201.305 146,204.5C 132.578,199.985 118.745,197.985 104.5,198.5C 110.013,192.824 116.013,187.658 122.5,183C 149.074,170.387 176.741,167.387 205.5,174C 227.92,177.712 247.587,187.045 264.5,202C 272.039,209.87 279.206,218.037 286,226.5C 287.555,231.382 287.888,236.382 287,241.5C 284.933,247.867 282.766,254.201 280.5,260.5 Z"/></g>
<g><path style="opacity:1" fill="#0a0100" d="M 663.5,209.5 C 662.5,209.5 661.5,209.5 660.5,209.5C 657.888,208.723 656.055,207.056 655,204.5C 652.69,199.57 651.19,194.403 650.5,189C 650.309,187.027 650.976,185.527 652.5,184.5C 653.81,189.88 655.31,195.214 657,200.5C 658.668,203.98 660.834,206.98 663.5,209.5 Z"/></g>
<g><path style="opacity:1" fill="#490400" d="M 147.5,195.5 C 147.791,201.303 147.125,206.97 145.5,212.5C 140.205,211.237 134.872,210.07 129.5,209C 117.446,208.397 105.446,208.397 93.5,209C 96.3773,204.622 100.044,201.122 104.5,198.5C 118.745,197.985 132.578,199.985 146,204.5C 146.181,201.305 146.681,198.305 147.5,195.5 Z"/></g>
<g><path style="opacity:1" fill="#090100" d="M 565.5,240.5 C 569.65,242.737 573.984,244.903 578.5,247C 580.559,248.185 580.726,249.352 579,250.5C 573.018,248.453 567.185,246.119 561.5,243.5C 557.918,241.786 554.752,239.453 552,236.5C 548.246,230.658 544.246,224.991 540,219.5C 537.856,214.742 537.023,209.742 537.5,204.5C 538.822,204.33 539.989,204.663 541,205.5C 540.626,207.769 540.626,210.102 541,212.5C 544.94,219.436 549.273,226.103 554,232.5C 556.905,236.582 560.738,239.249 565.5,240.5 Z"/></g>
<g><path style="opacity:1" fill="#490500" d="M 151.5,205.5 C 162.582,210.705 173.915,215.372 185.5,219.5C 185.047,225.124 182.047,227.624 176.5,227C 168.001,221.777 159.001,217.61 149.5,214.5C 149.167,214.167 148.833,213.833 148.5,213.5C 149.516,210.718 150.516,208.051 151.5,205.5 Z"/></g>
<g><path style="opacity:1" fill="#490600" d="M 660.5,209.5 C 661.5,209.5 662.5,209.5 663.5,209.5C 666.287,210.477 669.287,210.81 672.5,210.5C 654.216,211.928 637.216,217.595 621.5,227.5C 616.892,225.213 612.892,222.213 609.5,218.5C 626.718,215.355 643.718,212.355 660.5,209.5 Z"/></g>
<g><path style="opacity:1" fill="#490400" d="M 117.5,251.5 C 118.239,251.631 118.906,251.464 119.5,251C 115.12,246.952 110.454,243.285 105.5,240C 97.7488,232.652 95.4155,223.819 98.5,213.5C 105.443,212.206 112.443,212.206 119.5,213.5C 113.927,219.777 114.26,225.61 120.5,231C 129.739,236.452 139.405,241.119 149.5,245C 154.738,249.203 160.238,253.036 166,256.5C 167.033,259.217 166.2,261.051 163.5,262C 159.5,262.667 155.5,262.667 151.5,262C 140.336,257.554 129.003,254.054 117.5,251.5 Z"/></g>
<g><path style="opacity:1" fill="#5b1000" d="M 98.5,213.5 C 95.4155,223.819 97.7488,232.652 105.5,240C 110.454,243.285 115.12,246.952 119.5,251C 118.906,251.464 118.239,251.631 117.5,251.5C 111.771,251.212 106.104,251.546 100.5,252.5C 86.9384,243.088 82.9384,230.755 88.5,215.5C 91.757,214.449 95.0903,213.782 98.5,213.5 Z"/></g>
<g><path style="opacity:1" fill="#490400" d="M 695.5,221.5 C 695.887,226.08 695.053,230.414 693,234.5C 689.667,239.833 686.333,245.167 683,250.5C 673.558,259.121 663.725,267.121 653.5,274.5C 646.878,277.284 640.211,277.117 633.5,274C 630.277,270.888 629.777,267.388 632,263.5C 643.993,260.67 654.993,255.67 665,248.5C 672.653,239.202 674.487,228.868 670.5,217.5C 676.845,216.389 683.178,216.555 689.5,218C 691.727,218.941 693.727,220.108 695.5,221.5 Z"/></g>
<g><path style="opacity:1" fill="#490400" d="M 604.5,219.5 C 607.944,223.061 611.944,225.894 616.5,228C 617.451,228.718 617.617,229.551 617,230.5C 602.887,240.075 589.887,251.075 578,263.5C 574.501,267.672 571.834,272.338 570,277.5C 568.5,279 567,280.5 565.5,282C 552.87,281.118 540.537,278.951 528.5,275.5C 532.721,272.486 536.054,268.486 538.5,263.5C 546.011,256.59 553.678,249.923 561.5,243.5C 567.185,246.119 573.018,248.453 579,250.5C 580.726,249.352 580.559,248.185 578.5,247C 573.984,244.903 569.65,242.737 565.5,240.5C 577.203,231.148 590.203,224.148 604.5,219.5 Z"/></g>
<g><path style="opacity:1" fill="#490400" d="M 190.5,220.5 C 197.458,225.903 205.124,230.403 213.5,234C 220.612,237.964 227.279,242.464 233.5,247.5C 229.227,257.713 221.727,262.046 211,260.5C 203.413,249.577 194.413,239.91 184,231.5C 183.333,230.833 183.333,230.167 184,229.5C 186.678,226.786 188.845,223.786 190.5,220.5 Z"/></g>
<g><path style="opacity:1" fill="#5c1000" d="M 695.5,221.5 C 698.771,224.268 701.938,227.268 705,230.5C 706.242,235.694 705.242,240.36 702,244.5C 695.538,253.296 688.038,261.129 679.5,268C 671.005,270.866 662.338,273.032 653.5,274.5C 663.725,267.121 673.558,259.121 683,250.5C 686.333,245.167 689.667,239.833 693,234.5C 695.053,230.414 695.887,226.08 695.5,221.5 Z"/></g>
<g><path style="opacity:1" fill="#490400" d="M 237.5,250.5 C 241.233,255.74 245.566,260.574 250.5,265C 260.741,265.106 270.741,263.606 280.5,260.5C 277.146,269.373 272.146,277.207 265.5,284C 258.833,288 252.167,292 245.5,296C 240.09,298.382 234.424,299.549 228.5,299.5C 228.322,296.784 227.822,294.117 227,291.5C 223.518,285.533 220.851,279.199 219,272.5C 217.224,269.059 215.057,265.892 212.5,263C 214.746,263.428 217.079,263.928 219.5,264.5C 221.577,264.308 223.577,263.808 225.5,263C 230.405,259.597 234.405,255.43 237.5,250.5 Z"/></g>
<g><path style="opacity:1" fill="#5c1100" d="M 179.5,268.5 C 179.489,270.017 178.823,271.184 177.5,272C 173.781,273.859 170.114,275.693 166.5,277.5C 156.592,275.024 146.592,272.857 136.5,271C 119.522,267.542 106.022,272.708 96,286.5C 95.3333,288.5 94.6667,290.5 94,292.5C 93.8959,297.267 93.7293,301.934 93.5,306.5C 80.0563,300.938 75.8896,291.271 81,277.5C 83.3581,281.358 86.5248,284.358 90.5,286.5C 91.5827,285.635 91.7494,284.635 91,283.5C 86.2568,280.341 83.9235,276.008 84,270.5C 87.8837,264.641 93.0504,260.308 99.5,257.5C 100.333,260.5 101.167,263.5 102,266.5C 103.94,269.402 106.44,270.402 109.5,269.5C 105.328,266.152 103.661,261.819 104.5,256.5C 120.16,257.132 135.16,260.632 149.5,267C 158.355,268.992 166.189,267.159 173,261.5C 176.4,262.732 178.567,265.065 179.5,268.5 Z"/></g>
<g><path style="opacity:1" fill="#5c1100" d="M 680.5,284.5 C 669.936,285.448 659.603,287.614 649.5,291C 638.485,291.832 627.485,291.666 616.5,290.5C 613.719,287.48 611.052,284.48 608.5,281.5C 611.821,273.346 617.655,267.68 626,264.5C 625.725,271.785 628.892,276.952 635.5,280C 640.799,281.145 646.132,281.478 651.5,281C 662.44,278.4 673.44,276.233 684.5,274.5C 683.724,278.052 682.391,281.386 680.5,284.5 Z"/></g>
<g><path style="opacity:1" fill="#490500" d="M 179.5,268.5 C 182.568,274.585 181.568,280.085 176.5,285C 168.662,287.967 160.662,288.3 152.5,286C 146.618,284.595 140.951,282.595 135.5,280C 124.344,275.219 114.511,277.052 106,285.5C 101.459,294.04 101.625,302.54 106.5,311C 101.714,310.794 97.381,309.294 93.5,306.5C 93.7293,301.934 93.8959,297.267 94,292.5C 94.6667,290.5 95.3333,288.5 96,286.5C 106.022,272.708 119.522,267.542 136.5,271C 146.592,272.857 156.592,275.024 166.5,277.5C 170.114,275.693 173.781,273.859 177.5,272C 178.823,271.184 179.489,270.017 179.5,268.5 Z"/></g>
<g><path style="opacity:1" fill="#5c1100" d="M 717.5,322.5 C 716.535,321.279 716.702,319.946 718,318.5C 720.615,304.06 715.449,293.56 702.5,287C 696.746,285.602 691.079,284.435 685.5,283.5C 687.023,280.37 687.689,277.037 687.5,273.5C 697.414,271.623 707.414,271.123 717.5,272C 721.046,273.267 724.046,275.267 726.5,278C 725.591,279.789 725.424,281.623 726,283.5C 728.071,280.584 729.405,280.918 730,284.5C 730.923,298.896 726.757,311.562 717.5,322.5 Z"/></g>
<g><path style="opacity:1" fill="#490500" d="M 608.5,281.5 C 611.052,284.48 613.719,287.48 616.5,290.5C 627.485,291.666 638.485,291.832 649.5,291C 659.603,287.614 669.936,285.448 680.5,284.5C 680.735,285.097 681.235,285.43 682,285.5C 683.303,285.022 684.469,284.355 685.5,283.5C 691.079,284.435 696.746,285.602 702.5,287C 715.449,293.56 720.615,304.06 718,318.5C 716.702,319.946 716.535,321.279 717.5,322.5C 715.839,325.218 713.839,326.884 711.5,327.5C 714.585,317.069 713.419,307.069 708,297.5C 706.833,295 705,293.167 702.5,292C 696.903,290.544 691.237,290.211 685.5,291C 673.526,294.648 661.526,298.315 649.5,302C 640.875,303.419 632.208,303.752 623.5,303C 617.002,301.503 611.502,298.337 607,293.5C 604.936,289.116 605.436,285.116 608.5,281.5 Z"/></g>

        
<g><path style="opacity:0.998" fill="#1d1b17" d="M 567.5,264.5 C 567.427,266.027 568.094,267.027 569.5,267.5C 570.833,268.167 571.833,269.167 572.5,270.5C 572.427,272.027 573.094,273.027 574.5,273.5C 576.786,276.463 578.619,279.796 580,283.5C 581.333,288.167 582.667,292.833 584,297.5C 600.968,293.905 616.801,296.738 631.5,306C 657.957,323.456 680.123,345.29 698,371.5C 700.529,375.926 702.362,380.592 703.5,385.5C 703.41,388.152 704.076,390.485 705.5,392.5C 706.37,394.032 706.036,395.532 704.5,397C 701.814,398.368 699.147,399.701 696.5,401C 687.337,403.06 678.337,403.893 669.5,403.5C 671.81,407.254 673.643,411.254 675,415.5C 676.619,423.927 678.619,432.26 681,440.5C 682.454,454.02 679.787,466.687 673,478.5C 663.749,491.086 652.582,501.586 639.5,510C 630.893,513.302 622.893,517.635 615.5,523C 597.029,529.157 579.029,536.491 561.5,545C 545.683,550.606 529.683,555.606 513.5,560C 521.167,567 528.833,574 536.5,581C 541.889,585.389 547.556,589.389 553.5,593C 559.667,598.5 565.833,604 572,609.5C 578.423,618.674 584.09,628.34 589,638.5C 598.788,663.109 604.621,688.609 606.5,715C 605.825,731.869 601.492,747.703 593.5,762.5C 592.711,762.783 592.044,763.283 591.5,764C 593.134,764.494 594.801,764.66 596.5,764.5C 603.201,764.682 609.201,766.849 614.5,771C 619.719,777.218 624.552,783.718 629,790.5C 633.064,794.786 637.897,797.952 643.5,800C 646.319,802.72 645.986,805.053 642.5,807C 635.644,812.007 627.978,814.507 619.5,814.5C 615.167,814.5 610.833,814.5 606.5,814.5C 606.263,815.791 606.596,816.791 607.5,817.5C 609.143,819.708 608.81,821.541 606.5,823C 599.093,824.492 591.593,825.325 584,825.5C 570.833,824.357 557.666,823.19 544.5,822C 528.753,817.882 515.253,810.049 504,798.5C 495.911,789.336 489.577,779.003 485,767.5C 473.056,772.575 460.556,774.908 447.5,774.5C 441.513,773.858 435.513,773.358 429.5,773C 427,772.625 424.667,771.792 422.5,770.5C 418.78,774.733 415.613,779.4 413,784.5C 396.732,800.487 377.065,808.487 354,808.5C 349.103,808.068 344.269,807.234 339.5,806C 337.709,805.585 336.376,804.585 335.5,803C 338.138,800.346 341.138,798.18 344.5,796.5C 345.973,795.928 347.307,795.095 348.5,794C 346.609,793.797 344.943,794.297 343.5,795.5C 334.515,796.911 325.515,796.744 316.5,795C 304.562,791.925 299.562,784.425 301.5,772.5C 312.272,769.781 321.939,764.947 330.5,758C 319.87,750.041 313.37,739.541 311,726.5C 307.602,710.123 307.769,693.789 311.5,677.5C 312.793,675.636 312.793,673.636 311.5,671.5C 310.893,671.624 310.56,671.957 310.5,672.5C 309.013,673.804 307.346,674.97 305.5,676C 298.059,677.01 291.059,675.843 284.5,672.5C 275.52,664.574 271.187,654.574 271.5,642.5C 272.908,618.525 282.242,598.358 299.5,582C 310.392,573.408 322.392,571.241 335.5,575.5C 336.947,576.885 337.947,576.552 338.5,574.5C 338.433,573.041 338.766,571.708 339.5,570.5C 340.757,569.377 340.424,568.711 338.5,568.5C 326.038,567.642 313.704,565.808 301.5,563C 279.858,557.675 258.525,551.341 237.5,544C 217.724,535.619 199.39,524.952 182.5,512C 179.629,509.297 176.962,506.464 174.5,503.5C 174.027,502.094 173.027,501.427 171.5,501.5C 155.808,488.291 146.475,471.458 143.5,451C 144.485,443.505 144.985,436.005 145,428.5C 139.772,431.396 134.272,432.062 128.5,430.5C 127.063,426.472 126.397,422.305 126.5,418C 128.512,388.142 139.012,361.642 158,338.5C 167.466,327.852 178.966,320.352 192.5,316C 198.537,315.303 204.537,315.47 210.5,316.5C 212.5,305.171 217.167,295.171 224.5,286.5C 225.906,286.027 226.573,285.027 226.5,283.5C 228.616,277.549 231.783,272.215 236,267.5C 246.355,255.578 258.188,245.412 271.5,237C 347.364,211.021 424.364,207.021 502.5,225C 512.956,228.227 522.956,232.56 532.5,238C 541.167,244.671 550.501,250.338 560.5,255C 562.476,258.463 564.81,261.63 567.5,264.5 Z"/></g>
<g><path style="opacity:1" fill="#bf8c29" d="M 689.5,369.5 C 691.799,386.029 684.799,393.529 668.5,392C 660.466,390.429 652.799,388.096 645.5,385C 648,386.833 650.5,388.667 653,390.5C 653.6,392.91 654.766,394.91 656.5,396.5C 658.725,400.235 661.558,403.568 665,406.5C 667.332,409.822 668.498,413.489 668.5,417.5C 664.857,445.287 652.857,468.787 632.5,488C 608.86,506.157 582.86,520.157 554.5,530C 532.28,535.789 510.28,542.123 488.5,549C 473.872,551.542 459.206,553.875 444.5,556C 436.649,556.284 428.816,556.784 421,557.5C 403.515,557.036 386.015,556.869 368.5,557C 353.791,555.323 339.125,553.323 324.5,551C 294.282,542.816 264.615,532.816 235.5,521C 223.215,515.191 211.215,508.858 199.5,502C 188.352,493.999 177.852,485.166 168,475.5C 163.667,469.833 159.333,464.167 155,458.5C 152.079,451.45 150.912,444.117 151.5,436.5C 153.967,428.619 154.967,420.619 154.5,412.5C 153.817,412.863 153.15,413.196 152.5,413.5C 148.453,418.44 143.286,421.44 137,422.5C 134.013,422.01 132.18,420.343 131.5,417.5C 133.163,407.851 134.663,398.185 136,388.5C 142.627,371.901 151.294,356.568 162,342.5C 172.461,330.184 185.628,322.85 201.5,320.5C 205.844,320.786 210.177,321.12 214.5,321.5C 215.279,315.66 216.779,309.993 219,304.5C 225.064,295.43 230.731,286.097 236,276.5C 248.038,261.454 262.205,248.954 278.5,239C 326.471,224.712 375.471,218.045 425.5,219C 444.678,222.103 464.012,224.77 483.5,227C 499.944,229.148 515.277,234.481 529.5,243C 538.665,249.084 547.998,254.917 557.5,260.5C 569.837,272.665 577.337,287.332 580,304.5C 582.319,310.473 585.653,315.807 590,320.5C 590.167,320 590.333,319.5 590.5,319C 588.062,313.631 586.062,308.131 584.5,302.5C 592.798,301.426 601.132,301.26 609.5,302C 616.404,304.451 623.07,307.451 629.5,311C 646.183,323.008 661.683,336.508 676,351.5C 680.717,357.377 685.217,363.377 689.5,369.5 Z"/></g>
<g><path style="opacity:0.725" fill="#7c7b7f" d="M 567.5,264.5 C 568.906,264.973 569.573,265.973 569.5,267.5C 568.094,267.027 567.427,266.027 567.5,264.5 Z"/></g>
<g><path style="opacity:0.545" fill="#7d7b80" d="M 572.5,270.5 C 573.906,270.973 574.573,271.973 574.5,273.5C 573.094,273.027 572.427,272.027 572.5,270.5 Z"/></g>
<g><path style="opacity:0.486" fill="#7e7c81" d="M 226.5,283.5 C 226.573,285.027 225.906,286.027 224.5,286.5C 224.427,284.973 225.094,283.973 226.5,283.5 Z"/></g>
<g><path style="opacity:1" fill="#0f0d0a" d="M 618.5,337.5 C 624.632,343.789 631.299,349.623 638.5,355C 649.79,362.609 661.79,368.943 674.5,374C 677.242,375.886 678.909,378.386 679.5,381.5C 673.457,380.485 667.79,378.318 662.5,375C 649.168,367.333 636.668,358.499 625,348.5C 623,345.833 621,343.167 619,340.5C 618.517,339.552 618.351,338.552 618.5,337.5 Z"/></g>
<g><path style="opacity:1" fill="#927623" d="M 689.5,369.5 C 695.393,376.932 698.726,385.265 699.5,394.5C 690.168,398.106 680.502,399.273 670.5,398C 665.664,396.734 660.998,395.234 656.5,393.5C 656.5,394.5 656.5,395.5 656.5,396.5C 654.766,394.91 653.6,392.91 653,390.5C 650.5,388.667 648,386.833 645.5,385C 652.799,388.096 660.466,390.429 668.5,392C 684.799,393.529 691.799,386.029 689.5,369.5 Z"/></g>
<g><path style="opacity:1" fill="#0f0d09" d="M 147.5,382.5 C 148.993,383.312 149.66,384.645 149.5,386.5C 148.225,393.816 147.058,401.15 146,408.5C 144.374,411.128 142.374,413.461 140,415.5C 141.16,404.203 143.66,393.203 147.5,382.5 Z"/></g>
<g><path style="opacity:0.686" fill="#646267" d="M 703.5,385.5 C 704.924,387.515 705.59,389.848 705.5,392.5C 704.076,390.485 703.41,388.152 703.5,385.5 Z"/></g>
<g><path style="opacity:1" fill="#907524" d="M 152.5,413.5 C 151.147,417.032 149.147,420.199 146.5,423C 142.539,424.598 138.539,426.098 134.5,427.5C 132.024,424.717 131.024,421.384 131.5,417.5C 132.18,420.343 134.013,422.01 137,422.5C 143.286,421.44 148.453,418.44 152.5,413.5 Z"/></g>
<g><path style="opacity:1" fill="#907522" d="M 668.5,417.5 C 669.586,417.62 670.253,418.287 670.5,419.5C 671.519,426.451 673.353,433.117 676,439.5C 677.41,455.767 672.91,470.101 662.5,482.5C 657.167,487.167 652.167,492.167 647.5,497.5C 636.091,503.71 624.757,510.21 613.5,517C 594.16,523.003 575.493,530.67 557.5,540C 544.961,543.68 532.627,547.846 520.5,552.5C 486.035,561.537 450.868,566.537 415,567.5C 386.539,565.485 358.039,563.985 329.5,563C 288.926,556.526 250.26,544.192 213.5,526C 205.302,521.072 197.302,515.905 189.5,510.5C 187.431,507.427 184.764,505.094 181.5,503.5C 176.509,498.009 171.342,492.675 166,487.5C 159.26,478.687 154.093,469.02 150.5,458.5C 150.167,455.5 149.833,452.5 149.5,449.5C 149.316,444.893 149.983,440.56 151.5,436.5C 150.912,444.117 152.079,451.45 155,458.5C 159.333,464.167 163.667,469.833 168,475.5C 177.852,485.166 188.352,493.999 199.5,502C 211.215,508.858 223.215,515.191 235.5,521C 264.615,532.816 294.282,542.816 324.5,551C 339.125,553.323 353.791,555.323 368.5,557C 386.015,556.869 403.515,557.036 421,557.5C 428.816,556.784 436.649,556.284 444.5,556C 459.206,553.875 473.872,551.542 488.5,549C 510.28,542.123 532.28,535.789 554.5,530C 582.86,520.157 608.86,506.157 632.5,488C 652.857,468.787 664.857,445.287 668.5,417.5 Z"/></g>
<g><path style="opacity:1" fill="#362d0d" d="M 662.5,482.5 C 658.5,488.5 653.5,493.5 647.5,497.5C 652.167,492.167 657.167,487.167 662.5,482.5 Z"/></g>
<g><path style="opacity:0.718" fill="#7f7d82" d="M 171.5,501.5 C 173.027,501.427 174.027,502.094 174.5,503.5C 172.973,503.573 171.973,502.906 171.5,501.5 Z"/></g>
<g><path style="opacity:1" fill="#443815" d="M 181.5,503.5 C 184.764,505.094 187.431,507.427 189.5,510.5C 186.236,508.906 183.569,506.573 181.5,503.5 Z"/></g>
<g><path style="opacity:1" fill="#907522" d="M 478.5,664.5 C 479.166,667.689 479.833,671.023 480.5,674.5C 491.766,680.708 502.099,679.541 511.5,671C 512.5,670.333 513.5,670.333 514.5,671C 512.476,676.438 510.142,681.772 507.5,687C 510.8,688.879 514.134,688.879 517.5,687C 534.375,674.082 542.875,656.915 543,635.5C 540.566,628.126 536.733,621.626 531.5,616C 520.808,606.822 508.475,601.155 494.5,599C 490.5,598.333 486.5,598.333 482.5,599C 479.515,601.777 478.182,605.277 478.5,609.5C 479.237,614.315 480.57,618.982 482.5,623.5C 479.479,625.423 476.146,626.423 472.5,626.5C 472.923,625.735 473.257,624.902 473.5,624C 469.779,615.709 469.779,607.543 473.5,599.5C 473.167,598.5 472.5,597.833 471.5,597.5C 469.364,598.472 468.197,600.139 468,602.5C 467.021,608.983 467.521,615.316 469.5,621.5C 458.98,625.321 450.48,631.654 444,640.5C 430.726,618.269 417.226,596.269 403.5,574.5C 414.63,572.841 425.963,571.841 437.5,571.5C 461.059,569.586 484.392,566.42 507.5,562C 515.432,567.928 522.765,574.595 529.5,582C 535,586.167 540.5,590.333 546,594.5C 546.333,596.047 545.833,597.38 544.5,598.5C 548.847,601.371 552.014,605.371 554,610.5C 567.078,647.602 556.911,676.435 523.5,697C 501.368,707.015 486.535,700.515 479,677.5C 478.501,673.179 478.334,668.846 478.5,664.5 Z"/></g>
<g><path style="opacity:0.118" fill="#c3c1c8" d="M 338.5,568.5 C 340.424,568.711 340.757,569.377 339.5,570.5C 339.167,569.833 338.833,569.167 338.5,568.5 Z"/></g>
<g><path style="opacity:1" fill="#564117" d="M 347.5,568.5 C 350.5,568.5 353.5,568.5 356.5,568.5C 356.737,569.791 356.404,570.791 355.5,571.5C 353.143,569.902 350.477,568.902 347.5,568.5 Z"/></g>
<g><path style="opacity:1" fill="#bf8c29" d="M 347.5,568.5 C 350.477,568.902 353.143,569.902 355.5,571.5C 353.205,575.186 351.372,579.186 350,583.5C 346.333,597.002 343.5,610.669 341.5,624.5C 340.876,624.917 340.543,625.584 340.5,626.5C 342.307,636.262 343.64,646.096 344.5,656C 344.765,659.378 343.765,662.212 341.5,664.5C 336.277,662.889 331.277,660.723 326.5,658C 319.953,652.954 314.286,647.12 309.5,640.5C 307.682,644.136 305.849,647.802 304,651.5C 296.56,654.165 290.893,651.832 287,644.5C 283.449,623.824 288.782,605.824 303,590.5C 307.998,584.965 313.498,580.298 319.5,576.5C 326.113,576.151 332.113,577.818 337.5,581.5C 337.712,583.384 338.712,584.717 340.5,585.5C 341.487,582.232 341.82,578.898 341.5,575.5C 342.309,573.708 342.809,571.708 343,569.5C 344.356,568.62 345.856,568.286 347.5,568.5 Z"/></g>
<g><path style="opacity:1" fill="#b8a47d" d="M 360.5,674.5 C 365.636,683.259 371.636,691.426 378.5,699C 384.877,703.189 391.544,706.855 398.5,710C 417.349,716.655 424.849,710.155 421,690.5C 413.133,671.664 409.3,651.998 409.5,631.5C 398.985,626.788 387.985,624.121 376.5,623.5C 367.747,622.705 360.081,625.039 353.5,630.5C 351.127,627.469 348.794,624.469 346.5,621.5C 349.487,606.708 352.987,592.041 357,577.5C 357.93,575.064 359.097,572.731 360.5,570.5C 364.795,569.339 369.129,569.172 373.5,570C 381.953,570.635 390.287,571.801 398.5,573.5C 412.833,597.5 427.167,621.5 441.5,645.5C 436.166,659.522 436.333,673.522 442,687.5C 449.259,695.897 458.426,699.063 469.5,697C 472.798,696.513 475.798,695.347 478.5,693.5C 480.786,693.96 482.119,695.293 482.5,697.5C 479.29,719.151 479.957,740.651 484.5,762C 484.167,762.5 483.833,763 483.5,763.5C 454.121,772.925 425.787,770.425 398.5,756C 385.188,748.027 373.021,738.527 362,727.5C 358.333,721.833 354.667,716.167 351,710.5C 348.591,702.618 346.757,694.618 345.5,686.5C 351.447,683.692 356.447,679.692 360.5,674.5 Z"/></g>
<g><path style="opacity:1" fill="#352c0d" d="M 437.5,571.5 C 425.963,571.841 414.63,572.841 403.5,574.5C 402.596,573.791 402.263,572.791 402.5,571.5C 414.167,571.5 425.833,571.5 437.5,571.5 Z"/></g>
<g><path style="opacity:0.553" fill="#8e8c91" d="M 338.5,574.5 C 337.947,576.552 336.947,576.885 335.5,575.5C 336.609,575.443 337.609,575.11 338.5,574.5 Z"/></g>
<g><path style="opacity:1" fill="#6b5121" d="M 341.5,575.5 C 341.82,578.898 341.487,582.232 340.5,585.5C 338.712,584.717 337.712,583.384 337.5,581.5C 338.458,581.953 339.292,582.619 340,583.5C 340.183,580.635 340.683,577.969 341.5,575.5 Z"/></g>
<g><path style="opacity:1" fill="#907522" d="M 319.5,576.5 C 313.498,580.298 307.998,584.965 303,590.5C 288.782,605.824 283.449,623.824 287,644.5C 290.893,651.832 296.56,654.165 304,651.5C 305.849,647.802 307.682,644.136 309.5,640.5C 314.286,647.12 319.953,652.954 326.5,658C 331.277,660.723 336.277,662.889 341.5,664.5C 343.765,662.212 344.765,659.378 344.5,656C 343.64,646.096 342.307,636.262 340.5,626.5C 340.543,625.584 340.876,624.917 341.5,624.5C 343.341,627.86 345.841,630.86 349,633.5C 356.123,645.314 358.79,657.981 357,671.5C 347.74,683.201 336.574,685.367 323.5,678C 320.61,676.062 317.944,673.895 315.5,671.5C 315.325,667.14 315.325,662.806 315.5,658.5C 312.383,663.451 308.383,667.618 303.5,671C 299.152,671.238 294.819,670.905 290.5,670C 278.528,660.766 274.028,648.599 277,633.5C 280.856,610.244 292.356,592.078 311.5,579C 313.909,577.293 316.575,576.46 319.5,576.5 Z"/></g>
<g><path style="opacity:1" fill="#bf8c29" d="M 478.5,664.5 C 477.698,663.115 477.031,663.282 476.5,665C 475.767,666.766 475.433,668.599 475.5,670.5C 473.625,679.348 467.958,684.015 458.5,684.5C 456.423,684.308 454.423,683.808 452.5,683C 448.306,679.402 444.972,675.235 442.5,670.5C 440.508,647.227 450.508,632.56 472.5,626.5C 476.146,626.423 479.479,625.423 482.5,623.5C 480.57,618.982 479.237,614.315 478.5,609.5C 478.182,605.277 479.515,601.777 482.5,599C 486.5,598.333 490.5,598.333 494.5,599C 508.475,601.155 520.808,606.822 531.5,616C 536.733,621.626 540.566,628.126 543,635.5C 542.875,656.915 534.375,674.082 517.5,687C 514.134,688.879 510.8,688.879 507.5,687C 510.142,681.772 512.476,676.438 514.5,671C 513.5,670.333 512.5,670.333 511.5,671C 502.099,679.541 491.766,680.708 480.5,674.5C 479.833,671.023 479.166,667.689 478.5,664.5 Z"/></g>
<g><path style="opacity:1" fill="#bf8c29" d="M 598.5,692.5 C 599.489,721.099 590.489,745.932 571.5,767C 560.734,776.049 548.4,781.882 534.5,784.5C 529.953,784.113 525.619,782.947 521.5,781C 517.383,777.85 513.549,774.35 510,770.5C 503.9,757.822 501.4,744.488 502.5,730.5C 514.579,739.962 527.245,740.796 540.5,733C 549.488,725.157 556.654,715.99 562,705.5C 563.632,700.97 564.632,696.304 565,691.5C 565.482,680.307 566.315,669.14 567.5,658C 567.154,652.313 566.487,646.813 565.5,641.5C 564.929,628.041 561.596,615.374 555.5,603.5C 556.002,602.479 556.668,602.312 557.5,603C 564.067,608.57 569.567,615.07 574,622.5C 585.844,644.531 594.011,667.864 598.5,692.5 Z"/></g>
<g><path style="opacity:1" fill="#d9c897" d="M 360.5,674.5 C 363.081,665.176 362.914,655.842 360,646.5C 358.097,641.032 355.93,635.699 353.5,630.5C 360.081,625.039 367.747,622.705 376.5,623.5C 387.985,624.121 398.985,626.788 409.5,631.5C 409.3,651.998 413.133,671.664 421,690.5C 424.849,710.155 417.349,716.655 398.5,710C 391.544,706.855 384.877,703.189 378.5,699C 371.636,691.426 365.636,683.259 360.5,674.5 Z"/></g>
<g><path style="opacity:1" fill="#907522" d="M 565.5,641.5 C 566.487,646.813 567.154,652.313 567.5,658C 566.315,669.14 565.482,680.307 565,691.5C 564.632,696.304 563.632,700.97 562,705.5C 556.654,715.99 549.488,725.157 540.5,733C 527.245,740.796 514.579,739.962 502.5,730.5C 501.4,744.488 503.9,757.822 510,770.5C 513.549,774.35 517.383,777.85 521.5,781C 525.619,782.947 529.953,784.113 534.5,784.5C 548.4,781.882 560.734,776.049 571.5,767C 590.489,745.932 599.489,721.099 598.5,692.5C 603.516,717.402 599.349,740.735 586,762.5C 585.376,764.464 585.876,766.131 587.5,767.5C 595.429,767.814 602.762,769.98 609.5,774C 615.186,779.876 620.02,786.376 624,793.5C 628.072,798.113 632.905,801.613 638.5,804C 627.231,809.772 615.231,812.105 602.5,811C 601.427,814.112 601.427,817.279 602.5,820.5C 585.114,820.76 567.781,819.927 550.5,818C 517.122,809.622 495.955,788.789 487,755.5C 483.667,736.832 483.667,718.165 487,699.5C 493.328,705.496 500.828,707.663 509.5,706C 520.861,704.32 530.527,699.486 538.5,691.5C 542.771,688.899 546.437,685.566 549.5,681.5C 557.392,669.152 562.725,655.818 565.5,641.5 Z"/></g>
<g><path style="opacity:0.18" fill="#9d9ba1" d="M 310.5,672.5 C 310.56,671.957 310.893,671.624 311.5,671.5C 312.793,673.636 312.793,675.636 311.5,677.5C 311.784,675.585 311.451,673.919 310.5,672.5 Z"/></g>
<g><path style="opacity:1" fill="#907522" d="M 442.5,670.5 C 444.972,675.235 448.306,679.402 452.5,683C 454.423,683.808 456.423,684.308 458.5,684.5C 467.958,684.015 473.625,679.348 475.5,670.5C 475.435,676.617 475.935,682.617 477,688.5C 472.998,691.925 468.332,693.258 463,692.5C 453.344,693.516 447.01,689.516 444,680.5C 442.957,677.243 442.457,673.91 442.5,670.5 Z"/></g>
<g><path style="opacity:1" fill="#907522" d="M 350.5,718.5 C 349.043,720.242 347.876,722.242 347,724.5C 338.32,720.657 330.654,715.324 324,708.5C 322.417,720.502 325.084,731.502 332,741.5C 338.772,748.117 345.939,754.117 353.5,759.5C 344.097,759.463 336.097,756.13 329.5,749.5C 320.929,741.019 316.095,730.685 315,718.5C 312.858,705.077 313.358,691.743 316.5,678.5C 323.643,684.906 331.976,687.572 341.5,686.5C 342.028,697.955 345.028,708.621 350.5,718.5 Z"/></g>
<g><path style="opacity:1" fill="#423715" d="M 549.5,681.5 C 546.437,685.566 542.771,688.899 538.5,691.5C 541.563,687.434 545.229,684.101 549.5,681.5 Z"/></g>
<g><path style="opacity:1" fill="#bf8c29" d="M 350.5,718.5 C 353.199,722.19 355.865,725.857 358.5,729.5C 361.5,734.5 365.5,738.5 370.5,741.5C 372.806,743.139 374.806,745.139 376.5,747.5C 379.123,754.311 382.457,760.811 386.5,767C 376.104,767.806 366.437,765.639 357.5,760.5C 356.167,760.167 354.833,759.833 353.5,759.5C 345.939,754.117 338.772,748.117 332,741.5C 325.084,731.502 322.417,720.502 324,708.5C 330.654,715.324 338.32,720.657 347,724.5C 347.876,722.242 349.043,720.242 350.5,718.5 Z"/></g>
<g><path style="opacity:1" fill="#594317" d="M 358.5,729.5 C 362.833,733.167 366.833,737.167 370.5,741.5C 365.5,738.5 361.5,734.5 358.5,729.5 Z"/></g>
<g><path style="opacity:1" fill="#907522" d="M 376.5,747.5 C 386.001,753.478 395.667,759.311 405.5,765C 408.56,765.848 411.56,766.848 414.5,768C 415.554,769.388 415.72,770.888 415,772.5C 407.523,784.636 397.023,793.136 383.5,798C 373.403,800.219 363.236,802.053 353,803.5C 350.102,803.363 347.269,802.863 344.5,802C 346.763,800.383 348.763,798.55 350.5,796.5C 354.167,794.833 356.833,792.167 358.5,788.5C 361.16,785.867 363.827,783.2 366.5,780.5C 366.113,779.28 365.28,778.613 364,778.5C 361.062,779.283 358.896,780.95 357.5,783.5C 356.833,783.5 356.167,783.5 355.5,783.5C 355.351,782.448 355.517,781.448 356,780.5C 356.893,781.711 357.726,781.711 358.5,780.5C 359.5,778.5 360.5,776.5 361.5,774.5C 350.87,771.956 340.536,768.623 330.5,764.5C 331.812,762.521 333.479,760.855 335.5,759.5C 342.062,762.14 348.729,764.474 355.5,766.5C 357,766.547 358,765.881 358.5,764.5C 358.212,763.139 357.879,761.806 357.5,760.5C 366.437,765.639 376.104,767.806 386.5,767C 382.457,760.811 379.123,754.311 376.5,747.5 Z"/></g>
<g><path style="opacity:0.039" fill="#d2cfd7" d="M 593.5,762.5 C 594.5,763.167 595.5,763.833 596.5,764.5C 594.801,764.66 593.134,764.494 591.5,764C 592.044,763.283 592.711,762.783 593.5,762.5 Z"/></g>
<g><path style="opacity:1" fill="#bf8c29" d="M 330.5,764.5 C 340.536,768.623 350.87,771.956 361.5,774.5C 360.5,776.5 359.5,778.5 358.5,780.5C 357.726,781.711 356.893,781.711 356,780.5C 355.517,781.448 355.351,782.448 355.5,783.5C 352.833,785.167 350.167,786.833 347.5,788.5C 335.721,791.431 324.054,791.097 312.5,787.5C 310.873,785.37 309.04,783.37 307,781.5C 306.506,779.866 306.34,778.199 306.5,776.5C 308.553,776.598 310.22,775.931 311.5,774.5C 318.28,771.944 324.614,768.611 330.5,764.5 Z"/></g>
<g><path style="opacity:1" fill="#6c521f" d="M 311.5,774.5 C 310.22,775.931 308.553,776.598 306.5,776.5C 306.34,778.199 306.506,779.866 307,781.5C 309.04,783.37 310.873,785.37 312.5,787.5C 306.834,785.49 304.5,781.49 305.5,775.5C 307.5,775.167 309.5,774.833 311.5,774.5 Z"/></g>
<g><path style="opacity:1" fill="#be8c28" d="M 578.5,780.5 C 592.956,778.595 605.122,782.928 615,793.5C 615.688,794.332 615.521,794.998 614.5,795.5C 607.334,800.602 599.334,802.935 590.5,802.5C 590.692,805.601 591.358,808.601 592.5,811.5C 587.462,812.33 582.795,811.164 578.5,808C 572.243,803.287 566.076,798.454 560,793.5C 558.148,790.653 558.648,788.153 561.5,786C 567.137,783.682 572.803,781.849 578.5,780.5 Z"/></g>
<g><path style="opacity:1" fill="#543e15" d="M 355.5,783.5 C 356.167,783.5 356.833,783.5 357.5,783.5C 354.753,786.207 351.42,787.873 347.5,788.5C 350.167,786.833 352.833,785.167 355.5,783.5 Z"/></g>
<g><path style="opacity:1" fill="#403513" d="M 358.5,788.5 C 356.833,792.167 354.167,794.833 350.5,796.5C 352.833,793.5 355.5,790.833 358.5,788.5 Z"/></g>
<g><path style="opacity:0.165" fill="#aca9b0" d="M 344.5,796.5 C 344.5,795.833 344.167,795.5 343.5,795.5C 344.943,794.297 346.609,793.797 348.5,794C 347.307,795.095 345.973,795.928 344.5,796.5 Z"/></g>
<g><path style="opacity:0.282" fill="#aaa8af" d="M 619.5,814.5 C 615.232,814.869 611.232,815.869 607.5,817.5C 606.596,816.791 606.263,815.791 606.5,814.5C 610.833,814.5 615.167,814.5 619.5,814.5 Z"/></g>

        
<g><path style="opacity:0.967" fill="#060605" d="M 527.5,255.5 C 527.821,257.048 528.821,257.715 530.5,257.5C 530.973,258.906 531.973,259.573 533.5,259.5C 534.167,259.5 534.5,259.833 534.5,260.5C 535.5,262.167 536.833,263.5 538.5,264.5C 539.401,265.29 540.068,266.29 540.5,267.5C 540.833,268.167 541.167,268.833 541.5,269.5C 541.5,270.167 541.833,270.5 542.5,270.5C 542.833,271.5 543.5,272.167 544.5,272.5C 548.966,279.767 552.633,287.433 555.5,295.5C 555.328,296.492 555.662,297.158 556.5,297.5C 557.234,298.708 557.567,300.041 557.5,301.5C 557.088,303.973 558.088,305.306 560.5,305.5C 561.167,305.5 561.5,305.833 561.5,306.5C 565.572,310.565 569.238,314.898 572.5,319.5C 572.427,321.027 573.094,322.027 574.5,322.5C 574.932,323.71 575.599,324.71 576.5,325.5C 577.167,325.5 577.5,325.833 577.5,326.5C 576.167,326.833 576.167,327.167 577.5,327.5C 577.394,330.079 578.061,332.412 579.5,334.5C 578.833,334.5 578.5,334.833 578.5,335.5C 578.5,336.167 578.5,336.833 578.5,337.5C 578.5,338.167 578.833,338.5 579.5,338.5C 579.5,341.5 579.5,344.5 579.5,347.5C 578.766,348.708 578.433,350.041 578.5,351.5C 578.414,352.496 578.748,353.329 579.5,354C 578.244,354.417 577.577,355.25 577.5,356.5C 576.662,356.842 576.328,357.508 576.5,358.5C 573.924,366.149 569.924,372.983 564.5,379C 559.5,379.333 554.5,379.667 549.5,380C 533.92,383.86 518.586,388.527 503.5,394C 488.559,401.719 473.726,409.553 459,417.5C 454.438,416.568 449.938,415.401 445.5,414C 439.386,408.555 432.72,403.888 425.5,400C 419.038,393.533 413.705,386.367 409.5,378.5C 409.539,377.244 409.039,376.244 408,375.5C 407.503,377.81 407.337,380.143 407.5,382.5C 406.302,387.228 404.302,391.561 401.5,395.5C 400.833,396.167 400.167,396.833 399.5,397.5C 399.167,396.167 398.833,396.167 398.5,397.5C 394.267,400.54 389.267,401.04 383.5,399C 377.399,396.908 372.399,393.241 368.5,388C 366.167,387.333 363.833,387.333 361.5,388C 354.912,398.527 345.912,401.194 334.5,396C 331.894,394.062 330.061,391.562 329,388.5C 326.764,380.317 325.43,371.984 325,363.5C 323.383,361.237 321.55,359.237 319.5,357.5C 319.44,356.957 319.107,356.624 318.5,356.5C 317.504,362.463 317.171,368.463 317.5,374.5C 316.534,385.066 313.201,394.733 307.5,403.5C 306.833,403.5 306.5,403.833 306.5,404.5C 305.833,404.5 305.5,404.833 305.5,405.5C 304.5,405.833 303.833,406.5 303.5,407.5C 300.267,411.779 296.267,415.112 291.5,417.5C 280.875,413.19 271.208,407.357 262.5,400C 244.46,389.359 225.127,385.859 204.5,389.5C 195.728,365.623 199.061,343.456 214.5,323C 214.126,312.745 216.293,302.911 221,293.5C 224.444,287.724 228.277,282.224 232.5,277C 238.566,272.605 244.9,268.605 251.5,265C 257.114,263.575 262.614,263.075 268,263.5C 268.317,265.301 268.984,265.634 270,264.5C 272.099,265.131 273.932,266.131 275.5,267.5C 276.795,268.488 278.128,269.488 279.5,270.5C 280.795,271.488 282.128,272.488 283.5,273.5C 284.833,275.5 286.5,277.167 288.5,278.5C 289.222,279.551 290.222,280.218 291.5,280.5C 291.738,282.404 292.738,283.738 294.5,284.5C 295.833,285.833 297.167,287.167 298.5,288.5C 298.833,289.5 299.5,290.167 300.5,290.5C 301.167,291.5 301.833,292.5 302.5,293.5C 303.512,294.872 304.512,296.205 305.5,297.5C 305.833,298.5 306.5,299.167 307.5,299.5C 308.058,300.79 309.058,301.623 310.5,302C 309.944,302.383 309.611,302.883 309.5,303.5C 309.427,305.027 310.094,306.027 311.5,306.5C 312.757,311.229 314.757,315.562 317.5,319.5C 317.932,320.71 318.599,321.71 319.5,322.5C 320.167,322.5 320.5,322.833 320.5,323.5C 319.957,323.56 319.624,323.893 319.5,324.5C 320.238,326.065 321.238,327.732 322.5,329.5C 321.167,330.167 321.167,330.833 322.5,331.5C 323.09,332.766 323.59,334.099 324,335.5C 325.666,334.66 325.833,335.16 324.5,337C 325.704,340.716 326.538,344.55 327,348.5C 327.992,351.323 329.825,353.323 332.5,354.5C 333.209,355.404 334.209,355.737 335.5,355.5C 351.438,363.985 369.105,365.485 388.5,360C 392.448,357.213 396.114,354.213 399.5,351C 398.695,347.197 398.028,343.364 397.5,339.5C 397.956,327.421 399.122,315.421 401,303.5C 405.684,293.458 411.851,284.458 419.5,276.5C 431.26,267.248 443.927,259.415 457.5,253C 478.032,245.674 498.699,245.008 519.5,251C 522.391,252.274 525.058,253.774 527.5,255.5 Z"/></g>
<g><path style="opacity:1" fill="#1b1b1b" d="M 493.5,250.5 C 513.919,251.621 529.752,260.621 541,277.5C 546.447,286.561 550.947,296.061 554.5,306C 529.002,307.141 503.669,309.807 478.5,314C 450.146,320.158 424.813,332.324 402.5,350.5C 401.34,348.854 400.673,347.021 400.5,345C 401.268,335.523 401.768,326.023 402,316.5C 402.793,311.789 403.793,307.122 405,302.5C 409.743,295.358 414.743,288.358 420,281.5C 440.771,262.194 465.271,251.861 493.5,250.5 Z"/></g>
<g><path style="opacity:0.753" fill="#7a7973" d="M 527.5,255.5 C 528.71,255.932 529.71,256.599 530.5,257.5C 528.821,257.715 527.821,257.048 527.5,255.5 Z"/></g>
<g><path style="opacity:0.004" fill="#d4d3c8" d="M 530.5,257.5 C 532.027,257.427 533.027,258.094 533.5,259.5C 531.973,259.573 530.973,258.906 530.5,257.5 Z"/></g>
<g><path style="opacity:0.004" fill="#edecdf" d="M 534.5,260.5 C 536.833,260.833 538.167,262.167 538.5,264.5C 536.833,263.5 535.5,262.167 534.5,260.5 Z"/></g>
<g><path style="opacity:0.004" fill="#f6f6e8" d="M 275.5,266.5 C 276.833,267.167 276.833,267.167 275.5,266.5 Z"/></g>
<g><path style="opacity:0.004" fill="#f2f1e4" d="M 540.5,267.5 C 542.424,267.711 542.757,268.377 541.5,269.5C 541.167,268.833 540.833,268.167 540.5,267.5 Z"/></g>
<g><path style="opacity:1" fill="#1b1b1b" d="M 257.5,268.5 C 263.581,269.027 269.248,270.86 274.5,274C 300.656,294.504 316.322,321.004 321.5,353.5C 307.027,343.088 291.694,333.922 275.5,326C 256.698,319.533 237.365,315.866 217.5,315C 220.037,303.427 224.871,292.927 232,283.5C 239.617,276.783 248.117,271.783 257.5,268.5 Z"/></g>
<g><path style="opacity:0.004" fill="#f6f6e8" d="M 279.5,269.5 C 280.833,270.167 280.833,270.167 279.5,269.5 Z"/></g>
<g><path style="opacity:0.004" fill="#edece0" d="M 542.5,270.5 C 543.833,270.5 544.5,271.167 544.5,272.5C 543.5,272.167 542.833,271.5 542.5,270.5 Z"/></g>
<g><path style="opacity:0.004" fill="#dcdbcf" d="M 283.5,273.5 C 286.167,274.167 287.833,275.833 288.5,278.5C 286.5,277.167 284.833,275.5 283.5,273.5 Z"/></g>
<g><path style="opacity:0.035" fill="#888780" d="M 291.5,280.5 C 293.262,281.262 294.262,282.596 294.5,284.5C 292.738,283.738 291.738,282.404 291.5,280.5 Z"/></g>
<g><path style="opacity:0.004" fill="#ebeade" d="M 298.5,288.5 C 299.833,288.5 300.5,289.167 300.5,290.5C 299.5,290.167 298.833,289.5 298.5,288.5 Z"/></g>
<g><path style="opacity:0.004" fill="#dcdbd0" d="M 302.5,293.5 C 304.912,293.694 305.912,295.027 305.5,297.5C 304.512,296.205 303.512,294.872 302.5,293.5 Z"/></g>
<g><path style="opacity:0.051" fill="#aaa9a0" d="M 555.5,295.5 C 557.105,296.006 557.439,296.673 556.5,297.5C 555.662,297.158 555.328,296.492 555.5,295.5 Z"/></g>
<g><path style="opacity:0.004" fill="#e8e7db" d="M 305.5,297.5 C 306.833,297.5 307.5,298.167 307.5,299.5C 306.5,299.167 305.833,298.5 305.5,297.5 Z"/></g>
<g><path style="opacity:0.059" fill="#a8a79f" d="M 557.5,301.5 C 558.488,302.795 559.488,304.128 560.5,305.5C 558.088,305.306 557.088,303.973 557.5,301.5 Z"/></g>
<g><path style="opacity:0.016" fill="#a6a69d" d="M 309.5,303.5 C 310.906,303.973 311.573,304.973 311.5,306.5C 310.094,306.027 309.427,305.027 309.5,303.5 Z"/></g>
<g><path style="opacity:1" fill="#f3f2e5" d="M 537.5,310.5 C 543.842,310.334 550.175,310.5 556.5,311C 575.021,326.27 578.354,344.437 566.5,365.5C 552.55,354.515 537.55,345.015 521.5,337C 464.404,324.086 438.237,346.919 443,405.5C 436.311,401.322 429.978,396.655 424,391.5C 418.408,383.971 413.074,376.304 408,368.5C 406.6,363.169 405.6,357.836 405,352.5C 429.427,333.71 456.927,321.543 487.5,316C 504.299,314.025 520.966,312.192 537.5,310.5 Z"/></g>
<g><path style="opacity:0.008" fill="#e5e4d8" d="M 561.5,306.5 C 566.992,309.323 570.659,313.656 572.5,319.5C 569.238,314.898 565.572,310.565 561.5,306.5 Z"/></g>
<g><path style="opacity:0.004" fill="#e6e5d9" d="M 317.5,319.5 C 319.048,319.821 319.715,320.821 319.5,322.5C 318.599,321.71 317.932,320.71 317.5,319.5 Z"/></g>
<g><path style="opacity:1" fill="#f2f1e4" d="M 222.5,319.5 C 255.759,321.304 285.259,332.638 311,353.5C 314.194,369.338 311.861,384.338 304,398.5C 302,400.5 300,402.5 298,404.5C 300.325,377.65 289.825,357.483 266.5,344C 244.603,339.53 227.103,346.364 214,364.5C 210.479,369.542 207.479,374.875 205,380.5C 201.502,362.994 204.502,346.661 214,331.5C 216.689,327.325 219.523,323.325 222.5,319.5 Z"/></g>
<g><path style="opacity:0.027" fill="#85857e" d="M 572.5,319.5 C 573.906,319.973 574.573,320.973 574.5,322.5C 573.094,322.027 572.427,321.027 572.5,319.5 Z"/></g>
<g><path style="opacity:0.004" fill="#e5e4d8" d="M 574.5,322.5 C 576.048,322.821 576.715,323.821 576.5,325.5C 575.599,324.71 574.932,323.71 574.5,322.5 Z"/></g>
<g><path style="opacity:0.004" fill="#f6f6e8" d="M 320.5,323.5 C 321.833,324.167 321.833,324.167 320.5,323.5 Z"/></g>
<g><path style="opacity:0.004" fill="#f6f6e8" d="M 577.5,326.5 C 578.833,327.167 578.833,327.167 577.5,326.5 Z"/></g>
<g><path style="opacity:0.004" fill="#f6f6e8" d="M 322.5,329.5 C 323.833,330.167 323.833,330.833 322.5,331.5C 322.5,330.833 322.5,330.167 322.5,329.5 Z"/></g>
<g><path style="opacity:0.004" fill="#f6f6e8" d="M 579.5,334.5 C 580.833,335.167 580.833,335.167 579.5,334.5 Z"/></g>
<g><path style="opacity:0.004" fill="#d4d3c8" d="M 578.5,335.5 C 578.833,335.5 579.167,335.5 579.5,335.5C 580.625,336.652 580.625,337.652 579.5,338.5C 578.833,338.5 578.5,338.167 578.5,337.5C 578.5,336.833 578.5,336.167 578.5,335.5 Z"/></g>
<g><path style="opacity:0.004" fill="#f6f6e8" d="M 580.5,339.5 C 581.629,341.628 581.796,343.961 581,346.5C 580.503,344.19 580.337,341.857 580.5,339.5 Z"/></g>
<g><path style="opacity:0.027" fill="#bebdb3" d="M 579.5,347.5 C 580.354,348.632 580.354,349.965 579.5,351.5C 579.167,351.5 578.833,351.5 578.5,351.5C 578.433,350.041 578.766,348.708 579.5,347.5 Z"/></g>
<g><path style="opacity:0.004" fill="#f6f6e8" d="M 579.5,351.5 C 580.833,352.167 580.833,352.167 579.5,351.5 Z"/></g>
<g><path style="opacity:0.102" fill="#85857e" d="M 335.5,355.5 C 334.209,355.737 333.209,355.404 332.5,354.5C 332.435,354.062 332.601,353.728 333,353.5C 333.995,354.066 334.828,354.733 335.5,355.5 Z"/></g>
<g><path style="opacity:0.004" fill="#f6f6e8" d="M 578.5,355.5 C 579.833,356.167 579.833,356.167 578.5,355.5 Z"/></g>
<g><path style="opacity:1" fill="#1b1b1b" d="M 327.5,357.5 C 334.917,361.206 342.583,364.373 350.5,367C 363.045,369.556 375.379,368.89 387.5,365C 391.183,363.159 394.516,360.826 397.5,358C 398.5,357.333 399.5,357.333 400.5,358C 405.783,368.611 405.617,379.111 400,389.5C 395.86,394.211 390.694,395.711 384.5,394C 378.851,392.027 374.184,388.694 370.5,384C 366.546,380.862 362.546,380.862 358.5,384C 356.402,386.854 354.069,389.521 351.5,392C 343.806,394.989 337.64,393.155 333,386.5C 330.946,376.834 329.112,367.168 327.5,357.5 Z"/></g>
<g><path style="opacity:0.004" fill="#d2d1c6" d="M 577.5,356.5 C 577.833,356.5 578.167,356.5 578.5,356.5C 578.167,357.167 577.833,357.833 577.5,358.5C 577.167,358.5 576.833,358.5 576.5,358.5C 576.328,357.508 576.662,356.842 577.5,356.5 Z"/></g>
<g><path style="opacity:0.004" fill="#f6f6e8" d="M 577.5,358.5 C 578.833,359.167 578.833,359.167 577.5,358.5 Z"/></g>
<g><path style="opacity:0.095" fill="#d3d2c7" d="M 319.5,357.5 C 318.874,363.268 318.207,368.934 317.5,374.5C 317.171,368.463 317.504,362.463 318.5,356.5C 319.107,356.624 319.44,356.957 319.5,357.5 Z"/></g>
<g><path style="opacity:0.031" fill="#908f88" d="M 409.5,378.5 C 408.833,379.833 408.167,381.167 407.5,382.5C 407.337,380.143 407.503,377.81 408,375.5C 409.039,376.244 409.539,377.244 409.5,378.5 Z"/></g>
<g><path style="opacity:0.012" fill="#000000" d="M 549.5,383.5 C 550.833,384.167 550.833,384.167 549.5,383.5 Z"/></g>
<g><path style="opacity:0.02" fill="#000000" d="M 545.5,384.5 C 546.833,385.167 546.833,385.167 545.5,384.5 Z"/></g>
<g><path style="opacity:0.022" fill="#000000" d="M 541.5,386.5 C 541.897,385.475 542.563,385.308 543.5,386C 542.906,386.464 542.239,386.631 541.5,386.5 Z"/></g>
<g><path style="opacity:0.018" fill="#000000" d="M 538.5,387.5 C 538.897,386.475 539.563,386.308 540.5,387C 539.906,387.464 539.239,387.631 538.5,387.5 Z"/></g>
<g><path style="opacity:0.016" fill="#000000" d="M 534.5,388.5 C 534.897,387.475 535.563,387.308 536.5,388C 535.906,388.464 535.239,388.631 534.5,388.5 Z"/></g>
<g><path style="opacity:0.012" fill="#000000" d="M 530.5,389.5 C 530.897,388.475 531.563,388.308 532.5,389C 531.906,389.464 531.239,389.631 530.5,389.5 Z"/></g>
<g><path style="opacity:0.04" fill="#000000" d="M 226.5,391.5 C 228.103,391.312 229.437,391.812 230.5,393C 228.167,393.667 225.833,393.667 223.5,393C 224.737,392.768 225.737,392.268 226.5,391.5 Z"/></g>
<g><path style="opacity:0.042" fill="#000000" d="M 210.5,393.5 C 211.946,392.387 213.613,392.22 215.5,393C 213.866,393.494 212.199,393.66 210.5,393.5 Z"/></g>
<g><path style="opacity:0.016" fill="#000000" d="M 233.5,392.5 C 234.833,393.167 234.833,393.167 233.5,392.5 Z"/></g>
<g><path style="opacity:0.012" fill="#000000" d="M 236.5,394.5 C 236.897,393.475 237.563,393.308 238.5,394C 237.906,394.464 237.239,394.631 236.5,394.5 Z"/></g>
<g><path style="opacity:0.016" fill="#000000" d="M 239.5,395.5 C 239.897,394.475 240.563,394.308 241.5,395C 240.906,395.464 240.239,395.631 239.5,395.5 Z"/></g>
<g><path style="opacity:0.012" fill="#000000" d="M 242.5,395.5 C 243.833,396.167 243.833,396.167 242.5,395.5 Z"/></g>
<g><path style="opacity:0.004" fill="#f6f6e8" d="M 401.5,395.5 C 402.833,396.167 402.833,396.167 401.5,395.5 Z"/></g>
<g><path style="opacity:0.016" fill="#000000" d="M 245.5,396.5 C 246.833,397.167 246.833,397.167 245.5,396.5 Z"/></g>
<g><path style="opacity:0.012" fill="#000000" d="M 247.5,397.5 C 248.833,398.167 248.833,398.167 247.5,397.5 Z"/></g>
<g><path style="opacity:0.004" fill="#f6f6e8" d="M 398.5,397.5 C 398.833,397.5 399.167,397.5 399.5,397.5C 399.315,398.17 398.981,398.17 398.5,397.5 Z"/></g>
<g><path style="opacity:0.02" fill="#000000" d="M 250.5,398.5 C 251.833,399.167 251.833,399.167 250.5,398.5 Z"/></g>
<g><path style="opacity:0.02" fill="#000000" d="M 252.5,399.5 C 253.833,400.167 253.833,400.167 252.5,399.5 Z"/></g>
<g><path style="opacity:0.012" fill="#000000" d="M 254.5,400.5 C 255.833,401.167 255.833,401.167 254.5,400.5 Z"/></g>
<g><path style="opacity:0.004" fill="#f6f6e8" d="M 307.5,403.5 C 308.833,404.167 308.833,404.167 307.5,403.5 Z"/></g>
<g><path style="opacity:0.004" fill="#f6f6e8" d="M 306.5,404.5 C 306.833,404.5 307.167,404.5 307.5,404.5C 307.315,405.17 306.981,405.17 306.5,404.5 Z"/></g>
<g><path style="opacity:0.004" fill="#eeede1" d="M 305.5,405.5 C 305.833,405.5 306.167,405.5 306.5,405.5C 306.027,406.906 305.027,407.573 303.5,407.5C 303.833,406.5 304.5,405.833 305.5,405.5 Z"/></g>

        
<g><path style="opacity:0.993" fill="#1d1d1c" d="M 533.5,373.5 C 533.427,375.027 534.094,376.027 535.5,376.5C 536.421,377.981 537.588,379.314 539,380.5C 546.114,378.049 553.447,377.049 561,377.5C 571.496,377.782 581.829,379.115 592,381.5C 596.31,378.951 600.81,376.785 605.5,375C 607.124,373.883 608.124,372.383 608.5,370.5C 607.169,365.662 605.169,361.162 602.5,357C 598.071,354.898 593.905,352.398 590,349.5C 589.652,347.077 590.818,346.077 593.5,346.5C 609.841,350.195 616.341,360.195 613,376.5C 603.38,385.408 592.213,388.574 579.5,386C 560.501,380.976 542.501,383.143 525.5,392.5C 525.631,391.624 525.298,390.957 524.5,390.5C 523.261,390.942 522.261,391.609 521.5,392.5C 520.791,393.404 519.791,393.737 518.5,393.5C 514.838,393.723 511.505,394.723 508.5,396.5C 505.759,396.707 503.426,397.707 501.5,399.5C 501.158,400.338 500.492,400.672 499.5,400.5C 494.914,401.46 490.914,403.46 487.5,406.5C 487.158,407.338 486.492,407.672 485.5,407.5C 483.973,407.427 482.973,408.094 482.5,409.5C 474.4,414.478 466.067,419.312 457.5,424C 443.308,427.421 428.975,430.088 414.5,432C 407.568,441.695 402.068,452.195 398,463.5C 395.706,464.852 393.206,465.519 390.5,465.5C 382.205,463.808 373.871,462.308 365.5,461C 361.367,455.866 356.867,451.032 352,446.5C 349.027,442.026 345.86,437.693 342.5,433.5C 326.223,431.676 310.223,429.009 294.5,425.5C 296.933,424.452 296.933,423.786 294.5,423.5C 290.703,423.128 287.37,421.794 284.5,419.5C 281.485,417.326 278.151,415.659 274.5,414.5C 273.415,412.413 271.749,411.08 269.5,410.5C 268.508,410.672 267.842,410.338 267.5,409.5C 267.027,408.094 266.027,407.427 264.5,407.5C 246.393,392.864 225.893,388.198 203,393.5C 187.393,392.379 177.393,384.379 173,369.5C 171.522,361.889 171.188,354.222 172,346.5C 172.576,343.876 173.91,343.209 176,344.5C 175.322,355.382 177.322,365.715 182,375.5C 187.666,382.337 194.999,386.337 204,387.5C 211.838,386.851 219.672,386.184 227.5,385.5C 228.689,385.756 229.856,386.089 231,386.5C 235.355,381.808 239.355,376.808 243,371.5C 252.878,352.411 262.212,333.077 271,313.5C 272.667,312.167 274.333,312.167 276,313.5C 278.194,316.554 279.861,319.888 281,323.5C 287.817,352.886 289.65,382.552 286.5,412.5C 310.116,423.996 334.949,427.996 361,424.5C 392.623,428.793 423.79,426.627 454.5,418C 456.833,416.833 459.167,415.667 461.5,414.5C 462.664,408.193 462.831,401.859 462,395.5C 457.444,368.94 451.777,342.606 445,316.5C 444.347,314.436 443.18,312.769 441.5,311.5C 441.709,310.914 442.043,310.414 442.5,310C 447.572,309.249 452.572,309.582 457.5,311C 484.557,324.944 508.391,343.111 529,365.5C 530.765,368.032 532.265,370.699 533.5,373.5 Z"/></g>
<g><path style="opacity:1" fill="#f5f4e7" d="M 469.5,410.5 C 468.833,406.5 468.167,402.5 467.5,398.5C 463.802,370.345 457.802,342.678 449.5,315.5C 454.683,316.058 459.683,317.891 464.5,321C 474.66,328.247 484.994,335.247 495.5,342C 505.667,351.5 515.833,361 526,370.5C 528.305,374.304 530.805,377.97 533.5,381.5C 518.166,386.445 503.166,392.278 488.5,399C 482.111,402.856 475.778,406.689 469.5,410.5 Z"/></g>
<g><path style="opacity:1" fill="#f2f1e4" d="M 273.5,321.5 C 274.79,322.058 275.623,323.058 276,324.5C 282.555,352.81 284.721,381.476 282.5,410.5C 274.922,407.036 267.922,402.536 261.5,397C 253.654,393.663 245.654,390.83 237.5,388.5C 238.608,384.869 240.774,381.869 244,379.5C 247.919,373.33 251.586,366.997 255,360.5C 261.178,347.478 267.345,334.478 273.5,321.5 Z"/></g>
<g><path style="opacity:0.514" fill="#85857e" d="M 533.5,373.5 C 534.906,373.973 535.573,374.973 535.5,376.5C 534.094,376.027 533.427,375.027 533.5,373.5 Z"/></g>
<g><path style="opacity:0.024" fill="#cacabf" d="M 525.5,392.5 C 524.167,392.5 522.833,392.5 521.5,392.5C 522.261,391.609 523.261,390.942 524.5,390.5C 525.298,390.957 525.631,391.624 525.5,392.5 Z"/></g>
<g><path style="opacity:0.024" fill="#d6d5ca" d="M 518.5,393.5 C 515.495,395.277 512.162,396.277 508.5,396.5C 511.505,394.723 514.838,393.723 518.5,393.5 Z"/></g>
<g><path style="opacity:0.039" fill="#d2d1c6" d="M 508.5,396.5 C 506.574,398.293 504.241,399.293 501.5,399.5C 503.426,397.707 505.759,396.707 508.5,396.5 Z"/></g>
<g><path style="opacity:0.031" fill="#d8d7cc" d="M 499.5,400.5 C 495.818,403.008 491.818,405.008 487.5,406.5C 490.914,403.46 494.914,401.46 499.5,400.5 Z"/></g>
<g><path style="opacity:1" fill="#82817a" d="M 467.5,398.5 C 468.167,402.5 468.833,406.5 469.5,410.5C 469.44,411.043 469.107,411.376 468.5,411.5C 467.508,407.217 467.174,402.884 467.5,398.5 Z"/></g>
<g><path style="opacity:0.055" fill="#d1d0c5" d="M 264.5,407.5 C 266.027,407.427 267.027,408.094 267.5,409.5C 265.973,409.573 264.973,408.906 264.5,407.5 Z"/></g>
<g><path style="opacity:0.02" fill="#dfded2" d="M 485.5,407.5 C 485.027,408.906 484.027,409.573 482.5,409.5C 482.973,408.094 483.973,407.427 485.5,407.5 Z"/></g>
<g><path style="opacity:0.102" fill="#b9b8af" d="M 269.5,410.5 C 271.749,411.08 273.415,412.413 274.5,414.5C 272.251,413.92 270.585,412.587 269.5,410.5 Z"/></g>
<g><path style="opacity:0.039" fill="#d0d0c5" d="M 274.5,414.5 C 278.151,415.659 281.485,417.326 284.5,419.5C 280.58,418.873 277.247,417.207 274.5,414.5 Z"/></g>
<g><path style="opacity:0.031" fill="#d7d6cb" d="M 294.5,423.5 C 296.933,423.786 296.933,424.452 294.5,425.5C 293.494,425.062 293.494,424.396 294.5,423.5 Z"/></g>
<g><path style="opacity:1" fill="#f1f0e3" d="M 350.5,430.5 C 360.215,430.459 369.882,431.125 379.5,432.5C 389.146,431.411 398.812,431.245 408.5,432C 402.865,440.766 397.865,449.933 393.5,459.5C 392.833,459.833 392.167,460.167 391.5,460.5C 383.983,458.204 376.316,456.704 368.5,456C 361.627,448.795 355.127,441.295 349,433.5C 348.761,432.212 349.261,431.212 350.5,430.5 Z"/></g>

        
<g><path style="opacity:0.991" fill="#070709" d="M 369.5,120.5 C 370.833,120.5 372.167,120.5 373.5,120.5C 374.829,127.793 375.995,135.127 377,142.5C 380.222,149.499 382.222,156.833 383,164.5C 385.41,170.318 388.077,175.985 391,181.5C 397.794,189.963 404.961,198.13 412.5,206C 416.873,209.186 421.54,211.853 426.5,214C 435.081,216.097 443.747,217.764 452.5,219C 453.894,222.093 453.227,224.759 450.5,227C 430.107,226.898 410.441,230.565 391.5,238C 379.024,243.808 370.858,253.308 367,266.5C 355.463,275.515 342.296,279.849 327.5,279.5C 295.365,280.389 277.198,265.055 273,233.5C 272.179,214.784 276.679,197.45 286.5,181.5C 287.365,180.417 288.365,180.251 289.5,181C 291.882,194.264 298.048,205.431 308,214.5C 303.426,198.844 302.092,182.844 304,166.5C 306.194,155.608 311.36,146.441 319.5,139C 321,138.5 322.5,138 324,137.5C 324.945,137.905 325.612,138.572 326,139.5C 325.78,147.468 327.114,155.135 330,162.5C 335.333,171.167 340.667,179.833 346,188.5C 345.199,175.055 346.199,161.721 349,148.5C 354.151,137.861 360.985,128.528 369.5,120.5 Z"/></g>
<g><path style="opacity:1" fill="#2d2d3a" d="M 373.5,152.5 C 371.366,151.297 370.032,149.463 369.5,147C 368.5,146.333 367.5,146.333 366.5,147C 366.833,147.333 367.167,147.667 367.5,148C 363.138,150.623 361.472,154.29 362.5,159C 360.408,159.953 360.075,161.286 361.5,163C 360.5,165.333 359.5,167.667 358.5,170C 359.308,170.308 359.975,170.808 360.5,171.5C 358.318,173.734 357.985,176.234 359.5,179C 359.025,180.763 358.358,182.43 357.5,184C 359.434,185.729 359.434,187.729 357.5,190C 358.167,191.333 358.833,192.667 359.5,194C 359.267,197.466 358.933,201.3 358.5,205.5C 357.808,206.025 357.308,206.692 357,207.5C 355.806,206.57 354.473,205.903 353,205.5C 350.946,206.079 348.946,206.412 347,206.5C 346.517,205.552 346.351,204.552 346.5,203.5C 344.436,203.313 342.436,202.813 340.5,202C 339.5,199.667 337.833,198 335.5,197C 335.833,196.667 336.167,196.333 336.5,196C 335.514,193.672 333.514,191.672 330.5,190C 330.833,189.667 331.167,189.333 331.5,189C 329.833,188 328.5,186.667 327.5,185C 327.833,184.667 328.167,184.333 328.5,184C 327.5,183 326.5,182 325.5,181C 325.833,180.667 326.167,180.333 326.5,180C 324.996,178.509 324.163,176.676 324,174.5C 321.917,172.348 320.417,170.348 319.5,168.5C 318.032,170.792 317.032,172.959 316.5,175C 316.833,175.333 317.167,175.667 317.5,176C 316.692,176.308 316.025,176.808 315.5,177.5C 316.78,179.702 316.78,181.868 315.5,184C 316.167,184.667 316.833,185.333 317.5,186C 316.283,188.011 316.616,190.011 318.5,192C 317.941,192.725 317.608,193.558 317.5,194.5C 318.755,199.502 320.421,204.335 322.5,209C 322.167,209.333 321.833,209.667 321.5,210C 323.866,214.26 325.532,218.427 326.5,222.5C 326.035,225.471 324.535,227.805 322,229.5C 312.901,229.677 304.901,227.344 298,222.5C 297.667,222.833 297.333,223.167 297,223.5C 296.424,220.876 295.09,220.209 293,221.5C 292.683,219.699 292.016,219.366 291,220.5C 290.632,219.09 289.799,218.09 288.5,217.5C 287.831,220.93 287.497,224.263 287.5,227.5C 287.529,229.029 288.196,230.196 289.5,231C 289.167,231.333 288.833,231.667 288.5,232C 288.846,236.025 290.512,239.358 293.5,242C 293.167,242.333 292.833,242.667 292.5,243C 294.865,246.328 297.032,250.495 299,255.5C 299.333,255.167 299.667,254.833 300,254.5C 301.347,259.54 305.18,263.874 311.5,267.5C 312.246,268.736 312.579,270.07 312.5,271.5C 316.425,271.43 320.091,272.097 323.5,273.5C 298.519,273.351 283.686,261.018 279,236.5C 277.516,224.501 278.849,212.835 283,201.5C 284.015,198.79 285.515,196.457 287.5,194.5C 292.1,204.27 298.433,212.77 306.5,220C 310.275,222.351 313.608,221.851 316.5,218.5C 313.264,213.631 311.097,208.297 310,202.5C 307.534,190.194 307.201,177.86 309,165.5C 311.037,157.755 314.87,151.088 320.5,145.5C 321.205,153.249 323.372,160.582 327,167.5C 332.396,175.234 337.396,183.234 342,191.5C 344.247,194.509 346.581,194.842 349,192.5C 349.756,179.806 350.756,167.139 352,154.5C 355.417,144.676 361.083,136.342 369,129.5C 370.085,137.268 371.585,144.935 373.5,152.5 Z"/></g>
<g><path style="opacity:1" fill="#333340" d="M 373.5,152.5 C 375.929,156.791 377.096,161.458 377,166.5C 379.333,171.833 381.667,177.167 384,182.5C 389.333,189.167 394.667,195.833 400,202.5C 409.902,214.065 422.402,220.899 437.5,223C 416.978,223.876 397.978,229.543 380.5,240C 377.333,243.167 374.167,246.333 371,249.5C 370.226,245.853 369.559,242.186 369,238.5C 365.827,235.671 364.327,236.505 364.5,241C 366.241,248.365 365.741,255.532 363,262.5C 357.518,267.657 351.018,270.824 343.5,272C 336.897,273.274 330.23,273.774 323.5,273.5C 320.091,272.097 316.425,271.43 312.5,271.5C 312.579,270.07 312.246,268.736 311.5,267.5C 305.18,263.874 301.347,259.54 300,254.5C 299.667,254.833 299.333,255.167 299,255.5C 297.032,250.495 294.865,246.328 292.5,243C 292.833,242.667 293.167,242.333 293.5,242C 290.512,239.358 288.846,236.025 288.5,232C 288.833,231.667 289.167,231.333 289.5,231C 288.196,230.196 287.529,229.029 287.5,227.5C 287.497,224.263 287.831,220.93 288.5,217.5C 289.799,218.09 290.632,219.09 291,220.5C 292.016,219.366 292.683,219.699 293,221.5C 295.09,220.209 296.424,220.876 297,223.5C 297.333,223.167 297.667,222.833 298,222.5C 304.901,227.344 312.901,229.677 322,229.5C 324.535,227.805 326.035,225.471 326.5,222.5C 325.532,218.427 323.866,214.26 321.5,210C 321.833,209.667 322.167,209.333 322.5,209C 320.421,204.335 318.755,199.502 317.5,194.5C 317.608,193.558 317.941,192.725 318.5,192C 316.616,190.011 316.283,188.011 317.5,186C 316.833,185.333 316.167,184.667 315.5,184C 316.78,181.868 316.78,179.702 315.5,177.5C 316.025,176.808 316.692,176.308 317.5,176C 317.167,175.667 316.833,175.333 316.5,175C 317.032,172.959 318.032,170.792 319.5,168.5C 320.417,170.348 321.917,172.348 324,174.5C 324.163,176.676 324.996,178.509 326.5,180C 326.167,180.333 325.833,180.667 325.5,181C 326.5,182 327.5,183 328.5,184C 328.167,184.333 327.833,184.667 327.5,185C 328.5,186.667 329.833,188 331.5,189C 331.167,189.333 330.833,189.667 330.5,190C 333.514,191.672 335.514,193.672 336.5,196C 336.167,196.333 335.833,196.667 335.5,197C 337.833,198 339.5,199.667 340.5,202C 342.436,202.813 344.436,203.313 346.5,203.5C 346.351,204.552 346.517,205.552 347,206.5C 348.946,206.412 350.946,206.079 353,205.5C 354.473,205.903 355.806,206.57 357,207.5C 357.308,206.692 357.808,206.025 358.5,205.5C 358.933,201.3 359.267,197.466 359.5,194C 358.833,192.667 358.167,191.333 357.5,190C 359.434,187.729 359.434,185.729 357.5,184C 358.358,182.43 359.025,180.763 359.5,179C 357.985,176.234 358.318,173.734 360.5,171.5C 359.975,170.808 359.308,170.308 358.5,170C 359.5,167.667 360.5,165.333 361.5,163C 360.075,161.286 360.408,159.953 362.5,159C 361.472,154.29 363.138,150.623 367.5,148C 367.167,147.667 366.833,147.333 366.5,147C 367.5,146.333 368.5,146.333 369.5,147C 370.032,149.463 371.366,151.297 373.5,152.5 Z"/></g>

    </svg>
