
    <svg width="862" height="862" viewBox="0 0 862 862" fill="none" xmlns="http://www.w3.org/2000/svg">
        
<g><path style="opacity:1" fill="#f6f6e8" d="M -0.5,-0.5 C 286.833,-0.5 574.167,-0.5 861.5,-0.5C 861.5,286.833 861.5,574.167 861.5,861.5C 574.167,861.5 286.833,861.5 -0.5,861.5C -0.5,574.167 -0.5,286.833 -0.5,-0.5 Z"/></g>

        
<g><path style="opacity:0.983" fill="#1a1a19" d="M 578.5,540.5 C 583.993,540.916 589.326,542.082 594.5,544C 599.237,547.614 603.403,551.781 607,556.5C 613.977,570.057 616.311,584.39 614,599.5C 611.931,603.236 608.931,605.903 605,607.5C 603.018,607.01 601.351,606.01 600,604.5C 594.275,609.717 588.442,609.717 582.5,604.5C 577.923,613.337 572.256,614.337 565.5,607.5C 561.53,612.973 556.196,614.806 549.5,613C 548.299,612.097 547.465,610.931 547,609.5C 541.931,617.452 536.764,617.452 531.5,609.5C 527.737,613.765 523.737,617.932 519.5,622C 516.106,622.752 512.773,622.585 509.5,621.5C 508.194,620.088 507.36,618.421 507,616.5C 505.425,609.568 504.258,602.568 503.5,595.5C 504.335,583.317 510.669,578.317 522.5,580.5C 523.795,579.902 525.128,579.402 526.5,579C 535.197,570.637 543.531,561.97 551.5,553C 559.592,546.617 568.592,542.45 578.5,540.5 Z"/></g>
<g><path style="opacity:1" fill="#d9d8cb" d="M 587.5,601.5 C 588.496,601.586 589.329,601.252 590,600.5C 592.94,596.545 595.94,592.545 599,588.5C 599.37,579.339 598.37,570.339 596,561.5C 591.36,554.156 584.693,549.822 576,548.5C 573.538,549.159 571.038,549.493 568.5,549.5C 581.297,543.74 592.13,546.407 601,557.5C 608.853,570.951 611.186,585.285 608,600.5C 606.604,602.527 604.938,602.86 603,601.5C 602.091,598.089 601.091,594.755 600,591.5C 598.35,595.573 596.516,599.573 594.5,603.5C 591.584,604.861 589.251,604.195 587.5,601.5 Z"/></g>
<g><path style="opacity:1" fill="#f4f3e6" d="M 587.5,601.5 C 585.433,599.682 584.1,597.349 583.5,594.5C 582.635,593.417 581.635,593.251 580.5,594C 579.955,598.074 578.621,601.907 576.5,605.5C 574.878,607.439 573.044,607.772 571,606.5C 568.863,602.486 567.03,598.486 565.5,594.5C 564.522,594.977 563.689,595.643 563,596.5C 563.284,605.334 559.118,609.667 550.5,609.5C 550.348,605.228 549.348,601.228 547.5,597.5C 545.179,600.394 544.012,603.727 544,607.5C 541.618,612.067 538.951,612.4 536,608.5C 535.887,606.026 534.887,604.026 533,602.5C 527.856,607.313 523.023,612.48 518.5,618C 516.098,618.814 513.765,618.647 511.5,617.5C 508.811,609.37 507.645,601.036 508,592.5C 508.668,588.501 510.835,585.668 514.5,584C 518.801,584.363 523.134,584.363 527.5,584C 529.167,583 530.833,582 532.5,581C 540.864,572.97 548.864,564.637 556.5,556C 560.367,553.567 564.367,551.4 568.5,549.5C 571.038,549.493 573.538,549.159 576,548.5C 584.693,549.822 591.36,554.156 596,561.5C 598.37,570.339 599.37,579.339 599,588.5C 595.94,592.545 592.94,596.545 590,600.5C 589.329,601.252 588.496,601.586 587.5,601.5 Z"/></g>
<g><path style="opacity:0.982" fill="#191918" d="M 290.5,554.5 C 298.253,554.104 305.92,554.604 313.5,556C 315.5,557.333 317.5,558.667 319.5,560C 322.228,566.042 326.895,569.709 333.5,571C 335.378,572.543 336.878,574.376 338,576.5C 338.242,583.196 338.742,589.862 339.5,596.5C 339.461,598.587 338.461,599.921 336.5,600.5C 332.274,599.93 328.108,599.263 324,598.5C 322.5,600 321,601.5 319.5,603C 317.287,603.626 315.12,603.459 313,602.5C 306.564,605.689 301.23,604.356 297,598.5C 284.481,607.161 276.648,603.994 273.5,589C 271.944,573.778 277.611,562.278 290.5,554.5 Z"/></g>
<g><path style="opacity:1" fill="#f4f3e6" d="M 334.5,587.5 C 334.5,590.167 334.5,592.833 334.5,595.5C 333.167,595.5 331.833,595.5 330.5,595.5C 327.482,595.335 324.482,595.502 321.5,596C 320.022,598.039 318.022,598.872 315.5,598.5C 315.5,597.5 315.5,596.5 315.5,595.5C 312.326,596.015 309.326,597.015 306.5,598.5C 305.5,598.333 304.5,598.167 303.5,598C 301.441,595.366 299.275,592.866 297,590.5C 296.292,591.381 295.458,592.047 294.5,592.5C 290.404,593.285 287.07,592.118 284.5,589C 284.833,588.667 285.167,588.333 285.5,588C 283.667,587.5 282.5,586.333 282,584.5C 281.501,580.179 281.334,575.846 281.5,571.5C 281.709,570.078 282.209,568.745 283,567.5C 286.167,565 289.333,562.5 292.5,560C 298.167,559.333 303.833,559.333 309.5,560C 314.42,562.916 318.753,566.582 322.5,571C 326.232,572.461 329.732,574.294 333,576.5C 333.936,580.114 334.436,583.78 334.5,587.5 Z"/></g>
<g><path style="opacity:1" fill="#d7d6c9" d="M 281.5,571.5 C 281.334,575.846 281.501,580.179 282,584.5C 282.5,586.333 283.667,587.5 285.5,588C 285.167,588.333 284.833,588.667 284.5,589C 287.07,592.118 290.404,593.285 294.5,592.5C 293.641,595.452 291.641,597.285 288.5,598C 285.364,599.041 282.864,598.207 281,595.5C 279.409,588.608 279.076,581.608 280,574.5C 280.232,573.263 280.732,572.263 281.5,571.5 Z"/></g>
<g><path style="opacity:1" fill="#64635e" d="M 334.5,587.5 C 335.477,590.287 335.81,593.287 335.5,596.5C 333.585,596.784 331.919,596.451 330.5,595.5C 331.833,595.5 333.167,595.5 334.5,595.5C 334.5,592.833 334.5,590.167 334.5,587.5 Z"/></g>

        
<g><path style="opacity:0.994" fill="#100200" d="M 614.5,157.5 C 614.34,155.847 613.674,154.514 612.5,153.5C 612.5,154.5 612.5,155.5 612.5,156.5C 609.072,156.547 606.072,157.713 603.5,160C 588.1,175.301 578.933,193.801 576,215.5C 575.099,235.825 574.433,256.159 574,276.5C 558.53,280.267 542.697,283.267 526.5,285.5C 504.327,281.329 485.494,270.996 470,254.5C 471.165,217.843 480.165,183.176 497,150.5C 511.833,126.333 531.333,106.833 555.5,92C 567.772,85.3257 580.772,82.4924 594.5,83.5C 605.911,85.6861 617.244,88.5194 628.5,92C 652.948,101.96 673.448,117.126 690,137.5C 704.876,159.136 711.876,183.136 711,209.5C 701.117,232.022 684.284,239.856 660.5,233C 649.358,228.015 639.525,221.182 631,212.5C 628.746,208.993 626.746,205.327 625,201.5C 623.375,186.337 619.875,171.67 614.5,157.5 Z"/></g>
<g><path style="opacity:1" fill="#5d1100" d="M 599.5,127.5 C 594.626,128.654 589.626,129.82 584.5,131C 578.689,135.31 573.023,139.81 567.5,144.5C 563.201,150.635 558.701,156.635 554,162.5C 549.652,170.532 545.319,178.532 541,186.5C 531.27,204.54 528.604,223.54 533,243.5C 538.099,249.273 543.765,254.273 550,258.5C 554.692,258.499 559.525,258.332 564.5,258C 565.766,257.691 566.933,257.191 568,256.5C 568.499,260.486 568.666,264.486 568.5,268.5C 567.814,269.848 566.814,271.015 565.5,272C 550.768,276.101 535.768,278.101 520.5,278C 515.677,277.17 511.011,275.836 506.5,274C 500.998,270.415 495.331,267.081 489.5,264C 484.167,260 478.833,256 473.5,252C 476.341,217.506 485.841,184.673 502,153.5C 512.035,139.126 523.201,125.626 535.5,113C 547.137,103.346 560.137,96.0122 574.5,91C 584.163,89.055 593.83,89.055 603.5,91C 611.878,93.1778 620.211,95.5111 628.5,98C 646.643,106.815 663.143,117.982 678,131.5C 684.158,139.149 689.825,147.149 695,155.5C 698.912,165.321 702.246,175.321 705,185.5C 710.052,201.15 706.219,213.983 693.5,224C 684.467,229.544 674.8,230.877 664.5,228C 654.741,223.041 645.574,217.207 637,210.5C 634.417,207.003 632.084,203.336 630,199.5C 628.558,188.743 626.558,178.076 624,167.5C 618.392,152.953 611.726,138.953 604,125.5C 600.483,120.915 595.983,118.749 590.5,119C 587.537,121.271 586.87,124.104 588.5,127.5C 589.556,125.354 591.056,123.688 593,122.5C 595.341,124.016 597.508,125.683 599.5,127.5 Z"/></g>
<g><path style="opacity:0.992" fill="#110200" d="M 163.5,95.5 C 174.943,95.0349 186.276,95.8682 197.5,98C 206.481,102.314 212.648,109.147 216,118.5C 229.057,133.622 241.39,149.288 253,165.5C 265.57,190.976 278.903,215.976 293,240.5C 293.667,245.5 293.667,250.5 293,255.5C 290.064,261.222 287.731,267.222 286,273.5C 279.349,283.819 270.516,291.652 259.5,297C 250.619,299.831 241.619,300.165 232.5,298C 229.993,297.907 227.826,297.074 226,295.5C 225.647,294.328 225.813,293.162 226.5,292C 222.493,281.47 219.659,270.637 218,259.5C 212.471,246.581 207.138,233.581 202,220.5C 195.527,207.228 186.86,195.562 176,185.5C 176.125,192.254 177.125,198.921 179,205.5C 181.447,214.866 184.28,224.033 187.5,233C 187.344,237.136 186.177,240.969 184,244.5C 179.5,249 175,253.5 170.5,258C 152.753,266.41 135.086,266.41 117.5,258C 100.412,242.239 93.745,222.739 97.5,199.5C 97.6667,194.5 97.8333,189.5 98,184.5C 100.239,173.19 102.239,161.856 104,150.5C 109.333,141.167 114.667,131.833 120,122.5C 125.727,112.775 133.894,105.941 144.5,102C 150.979,99.8968 157.313,97.7301 163.5,95.5 Z"/></g>
<g><path style="opacity:1" fill="#5d1100" d="M 227.5,277.5 C 241.164,272.87 246.664,263.204 244,248.5C 243.202,245.107 242.202,241.774 241,238.5C 233.222,224.101 225.555,209.767 218,195.5C 210.909,186.921 202.409,179.921 192.5,174.5C 191.83,172.709 191.163,171.042 190.5,169.5C 188.495,163.663 184.495,161.496 178.5,163C 171.772,170.191 169.272,178.691 171,188.5C 172.666,203.169 176.499,217.169 182.5,230.5C 182.132,233.638 181.299,236.638 180,239.5C 175.167,244.333 170.333,249.167 165.5,254C 151.873,259.223 138.206,259.556 124.5,255C 115.031,248.853 108.531,240.353 105,229.5C 103.699,218.055 102.866,206.555 102.5,195C 104.587,181.891 106.42,168.724 108,155.5C 113.894,143.377 120.561,131.71 128,120.5C 147.18,102.223 169.68,96.3899 195.5,103C 198.167,104.333 200.833,105.667 203.5,107C 206.664,112.482 209.831,117.982 213,123.5C 224.381,137.213 235.381,151.213 246,165.5C 260.372,193.334 274.872,221.001 289.5,248.5C 286.392,255.717 283.559,263.051 281,270.5C 274.755,280.368 266.255,287.535 255.5,292C 247.571,293.363 239.571,293.863 231.5,293.5C 229.97,288.239 228.637,282.905 227.5,277.5 Z"/></g>
<g><path style="opacity:1" fill="#490400" d="M 599.5,127.5 C 605.895,134.956 610.228,143.623 612.5,153.5C 609.456,152.171 606.456,152.337 603.5,154C 591.577,163.923 582.744,176.09 577,190.5C 574.373,198.341 572.373,206.341 571,214.5C 570.325,232.667 569.491,250.667 568.5,268.5C 568.666,264.486 568.499,260.486 568,256.5C 566.933,257.191 565.766,257.691 564.5,258C 559.525,258.332 554.692,258.499 550,258.5C 543.765,254.273 538.099,249.273 533,243.5C 528.604,223.54 531.27,204.54 541,186.5C 545.319,178.532 549.652,170.532 554,162.5C 558.701,156.635 563.201,150.635 567.5,144.5C 573.023,139.81 578.689,135.31 584.5,131C 589.626,129.82 594.626,128.654 599.5,127.5 Z"/></g>
<g><path style="opacity:1" fill="#400b00" d="M 612.5,153.5 C 613.674,154.514 614.34,155.847 614.5,157.5C 613.833,157.167 613.167,156.833 612.5,156.5C 612.5,155.5 612.5,154.5 612.5,153.5 Z"/></g>
<g><path style="opacity:1" fill="#590e00" d="M 188.5,169.5 C 188.631,170.376 188.298,171.043 187.5,171.5C 184.793,170.422 182.126,169.422 179.5,168.5C 180.145,167.188 181.145,166.188 182.5,165.5C 184.911,166.361 186.911,167.694 188.5,169.5 Z"/></g>
<g><path style="opacity:1" fill="#490400" d="M 179.5,168.5 C 182.126,169.422 184.793,170.422 187.5,171.5C 188.298,171.043 188.631,170.376 188.5,169.5C 189.268,170.263 189.768,171.263 190,172.5C 190.483,171.552 190.649,170.552 190.5,169.5C 191.163,171.042 191.83,172.709 192.5,174.5C 202.409,179.921 210.909,186.921 218,195.5C 225.555,209.767 233.222,224.101 241,238.5C 242.202,241.774 243.202,245.107 244,248.5C 246.664,263.204 241.164,272.87 227.5,277.5C 225.286,269.641 223.12,261.641 221,253.5C 214.61,239.664 208.61,225.664 203,211.5C 195.375,198.865 185.875,187.698 174.5,178C 175.56,175.263 176.394,172.43 177,169.5C 177.671,168.748 178.504,168.414 179.5,168.5 Z"/></g>

        
<g><path style="opacity:0.99" fill="#070707" d="M 397.5,213.5 C 426.652,214.128 455.652,216.628 484.5,221C 501.696,223.299 517.696,228.965 532.5,238C 541.415,244.711 550.915,250.545 561,255.5C 566,261.833 571,268.167 576,274.5C 579.431,281.886 582.098,289.553 584,297.5C 600.968,293.905 616.801,296.738 631.5,306C 639.341,311.087 647.008,316.42 654.5,322C 663.667,331.167 672.833,340.333 682,349.5C 688.828,358.487 695.162,367.821 701,377.5C 703.243,382.896 705.076,388.396 706.5,394C 702.842,398.302 698.175,400.969 692.5,402C 684.601,403.249 676.935,403.749 669.5,403.5C 671.81,407.254 673.643,411.254 675,415.5C 676.619,423.927 678.619,432.26 681,440.5C 682.454,454.02 679.787,466.687 673,478.5C 663.749,491.086 652.582,501.586 639.5,510C 630.893,513.302 622.893,517.635 615.5,523C 597.029,529.157 579.029,536.491 561.5,545C 545.683,550.606 529.683,555.606 513.5,560C 527.668,574.176 543.001,586.843 559.5,598C 576.758,613.656 588.591,632.823 595,655.5C 600.246,671.481 603.746,687.814 605.5,704.5C 615.856,702.179 626.356,700.846 637,700.5C 653.9,703.09 670.9,704.757 688,705.5C 707.617,704.722 725.784,699.222 742.5,689C 757.923,678.567 772.423,667.067 786,654.5C 787.653,654.82 788.653,655.82 789,657.5C 790.41,661.976 791.577,666.476 792.5,671C 791.961,696.289 785.127,719.789 772,741.5C 763.125,752.196 752.292,760.362 739.5,766C 722.469,771.591 705.135,775.925 687.5,779C 666.989,778.73 646.989,781.73 627.5,788C 631.324,793.922 636.657,797.922 643.5,800C 644.765,801.337 645.265,802.837 645,804.5C 634.166,813.497 621.666,817.164 607.5,815.5C 607.62,817.199 607.954,818.865 608.5,820.5C 608.182,821.647 607.516,822.481 606.5,823C 599.093,824.492 591.593,825.325 584,825.5C 570.833,824.357 557.666,823.19 544.5,822C 528.753,817.882 515.253,810.049 504,798.5C 495.911,789.336 489.577,779.003 485,767.5C 473.056,772.575 460.556,774.908 447.5,774.5C 441.513,773.858 435.513,773.358 429.5,773C 427,772.625 424.667,771.792 422.5,770.5C 418.78,774.733 415.613,779.4 413,784.5C 395.052,801.708 373.552,809.541 348.5,808C 344.343,807.271 340.343,806.104 336.5,804.5C 335.167,803.5 335.167,802.5 336.5,801.5C 338.833,800 341.167,798.5 343.5,797C 344.696,796.346 344.696,795.846 343.5,795.5C 335.883,796.633 328.216,796.8 320.5,796C 311.363,794.508 304.863,789.675 301,781.5C 300.179,778.446 300.345,775.446 301.5,772.5C 312.272,769.781 321.939,764.947 330.5,758C 319.87,750.041 313.37,739.541 311,726.5C 309.463,718.908 308.63,711.241 308.5,703.5C 309.559,693.159 310.392,682.825 311,672.5C 308.094,675.369 304.594,676.702 300.5,676.5C 294.742,676.543 289.409,675.209 284.5,672.5C 273.656,662.134 269.489,649.467 272,634.5C 275.346,612.289 285.512,594.122 302.5,580C 312.952,573.232 324.119,571.732 336,575.5C 337.967,574.507 339.134,572.84 339.5,570.5C 305.015,564.297 271.015,555.463 237.5,544C 209.322,532.837 184.822,516.337 164,494.5C 152.732,482.13 145.899,467.63 143.5,451C 144.485,443.505 144.985,436.005 145,428.5C 140.155,431.151 134.989,431.984 129.5,431C 127.954,429.56 127.121,427.727 127,425.5C 126.788,413.092 127.788,400.758 130,388.5C 135.912,374.746 142.579,361.413 150,348.5C 160.721,333.106 174.888,322.273 192.5,316C 198.537,315.303 204.537,315.47 210.5,316.5C 211.252,310.492 213.086,304.826 216,299.5C 222.667,288.833 229.333,278.167 236,267.5C 246.355,255.578 258.188,245.412 271.5,237C 312.624,223.821 354.624,215.987 397.5,213.5 Z"/></g>
<g><path style="opacity:1" fill="#1a1a1a" d="M 668.5,416.5 C 667.149,427.398 664.649,438.064 661,448.5C 656.399,457.425 651.399,466.092 646,474.5C 623.77,496.709 597.937,513.542 568.5,525C 543.253,532.859 517.92,540.526 492.5,548C 448.553,557.101 404.22,559.768 359.5,556C 347.914,553.855 336.248,552.188 324.5,551C 281.405,540.283 240.405,524.283 201.5,503C 185.771,492.605 171.938,480.105 160,465.5C 152.669,456.68 150.169,446.68 152.5,435.5C 154.204,427.844 154.871,420.177 154.5,412.5C 152.056,416.118 149.39,419.618 146.5,423C 142.683,424.995 138.683,426.495 134.5,427.5C 133.201,426.91 132.368,425.91 132,424.5C 131.833,422.5 131.667,420.5 131.5,418.5C 132.991,409.545 134.157,400.545 135,391.5C 141.604,374.286 150.271,358.286 161,343.5C 170.285,333.114 181.451,325.614 194.5,321C 200.862,320.576 207.195,320.576 213.5,321C 224.905,285.517 246.572,258.184 278.5,239C 326.469,224.712 375.469,218.046 425.5,219C 447.106,221.764 468.773,224.764 490.5,228C 502.4,230.411 513.733,234.411 524.5,240C 535.498,247.501 546.832,254.501 558.5,261C 569.707,272.248 576.541,285.748 579,301.5C 581.376,308.587 585.043,314.92 590,320.5C 590.167,320.167 590.333,319.833 590.5,319.5C 588.2,313.909 586.2,308.242 584.5,302.5C 599.35,299.458 613.35,301.625 626.5,309C 652.248,326.081 674.082,347.248 692,372.5C 695.8,378.933 698.633,385.766 700.5,393C 698.652,395.093 696.319,396.426 693.5,397C 680.718,399.865 668.385,398.698 656.5,393.5C 656.372,395.655 656.872,397.655 658,399.5C 664.052,403.607 667.552,409.273 668.5,416.5 Z"/></g>
<g><path style="opacity:1" fill="#010101" d="M 618.5,337.5 C 634.542,353.376 653.208,365.543 674.5,374C 676.954,375.74 678.454,377.907 679,380.5C 677.612,381.554 676.112,381.72 674.5,381C 654.654,371.331 636.821,358.831 621,343.5C 619.441,341.783 618.608,339.783 618.5,337.5 Z"/></g>
<g><path style="opacity:1" fill="#010101" d="M 147.5,382.5 C 148.993,383.312 149.66,384.645 149.5,386.5C 148.442,393.85 147.275,401.184 146,408.5C 144.374,411.128 142.374,413.461 140,415.5C 141.412,404.277 143.912,393.277 147.5,382.5 Z"/></g>
<g><path style="opacity:1" fill="#141414" d="M 668.5,416.5 C 669.117,416.611 669.617,416.944 670,417.5C 671.619,425.927 673.619,434.26 676,442.5C 676.82,456.706 672.82,469.372 664,480.5C 656.058,489.448 647.225,497.281 637.5,504C 628.893,507.302 620.893,511.635 613.5,517C 594.28,523.296 575.614,530.963 557.5,540C 535.077,547.604 512.411,554.271 489.5,560C 470.569,562.908 451.569,565.241 432.5,567C 422.167,567.667 411.833,567.667 401.5,567C 377.521,565.26 353.521,563.927 329.5,563C 288.931,556.527 250.265,544.193 213.5,526C 190.515,513.347 171.682,496.18 157,474.5C 150.182,462.569 148.182,449.902 151,436.5C 151.383,435.944 151.883,435.611 152.5,435.5C 150.169,446.68 152.669,456.68 160,465.5C 171.938,480.105 185.771,492.605 201.5,503C 240.405,524.283 281.405,540.283 324.5,551C 336.248,552.188 347.914,553.855 359.5,556C 404.22,559.768 448.553,557.101 492.5,548C 517.92,540.526 543.253,532.859 568.5,525C 597.937,513.542 623.77,496.709 646,474.5C 651.399,466.092 656.399,457.425 661,448.5C 664.649,438.064 667.149,427.398 668.5,416.5 Z"/></g>
<g><path style="opacity:1" fill="#141414" d="M 478.5,672.5 C 485.872,678.44 494.205,679.94 503.5,677C 506.732,675.77 509.399,673.77 511.5,671C 512.5,670.333 513.5,670.333 514.5,671C 512.476,676.438 510.142,681.772 507.5,687C 510.8,688.879 514.134,688.879 517.5,687C 532.745,675.358 541.412,659.858 543.5,640.5C 542.824,633.638 540.657,627.305 537,621.5C 523.858,607.513 507.691,599.846 488.5,598.5C 480.873,598.024 477.54,601.691 478.5,609.5C 479.213,614.311 480.547,618.978 482.5,623.5C 480.083,625.107 477.416,626.107 474.5,626.5C 472.491,621.266 471.158,615.766 470.5,610C 470.586,606.241 471.586,602.741 473.5,599.5C 473.167,598.5 472.5,597.833 471.5,597.5C 469.364,598.472 468.197,600.139 468,602.5C 467.081,608.966 467.581,615.299 469.5,621.5C 459.019,625.309 450.519,631.642 444,640.5C 430.5,618.167 417,595.833 403.5,573.5C 437.551,572.702 471.217,568.702 504.5,561.5C 506.299,561.577 507.966,562.077 509.5,563C 520.782,574.621 532.948,585.121 546,594.5C 546.265,596.163 545.765,597.663 544.5,599C 549.027,601.543 552.194,605.376 554,610.5C 565.459,638.3 560.959,663.134 540.5,685C 534.687,690.075 528.354,694.408 521.5,698C 505.454,705.563 492.62,702.063 483,687.5C 480.383,682.817 478.883,677.817 478.5,672.5 Z"/></g>
<g><path style="opacity:1" fill="#1a1a1a" d="M 341.5,626.5 C 340.957,626.56 340.624,626.893 340.5,627.5C 342.415,637.065 343.749,646.732 344.5,656.5C 344.66,659.696 343.66,662.363 341.5,664.5C 336.277,662.889 331.277,660.723 326.5,658C 319.953,652.954 314.286,647.12 309.5,640.5C 307.682,644.136 305.849,647.802 304,651.5C 301.757,653.282 299.257,653.782 296.5,653C 288.502,649.673 284.835,643.673 285.5,635C 285.51,621.304 289.344,608.804 297,597.5C 303.059,590.276 309.559,583.609 316.5,577.5C 326.26,575.198 334.26,577.864 340.5,585.5C 341.079,580.029 342.246,574.696 344,569.5C 347.819,568.73 351.653,569.063 355.5,570.5C 348.17,588.493 343.503,607.16 341.5,626.5 Z"/></g>
<g><path style="opacity:1" fill="#d6d4d4" d="M 360.5,674.5 C 365.51,683.351 371.51,691.517 378.5,699C 384.877,703.189 391.544,706.855 398.5,710C 417.397,716.636 424.897,710.136 421,690.5C 413.14,671.699 409.307,652.032 409.5,631.5C 398.974,626.785 387.974,624.118 376.5,623.5C 367.747,622.705 360.081,625.039 353.5,630.5C 350.807,627.803 348.473,624.803 346.5,621.5C 349.911,604.187 354.411,587.187 360,570.5C 364.748,569.365 369.581,569.198 374.5,570C 381.807,570.95 389.14,571.617 396.5,572C 412.113,596.047 427.113,620.547 441.5,645.5C 435.945,660.017 436.445,674.35 443,688.5C 450.196,696.084 459.03,698.917 469.5,697C 472.713,696.394 475.713,695.227 478.5,693.5C 479.748,694.04 480.915,694.707 482,695.5C 480.68,711.111 480.346,726.777 481,742.5C 481.518,749.13 482.685,755.63 484.5,762C 484.095,762.945 483.428,763.612 482.5,764C 447.431,774.811 415.097,769.477 385.5,748C 370.855,738.357 359.355,725.857 351,710.5C 348.215,702.028 346.382,693.361 345.5,684.5C 351.705,682.903 356.705,679.569 360.5,674.5 Z"/></g>
<g><path style="opacity:1" fill="#141414" d="M 316.5,577.5 C 309.559,583.609 303.059,590.276 297,597.5C 289.344,608.804 285.51,621.304 285.5,635C 284.835,643.673 288.502,649.673 296.5,653C 299.257,653.782 301.757,653.282 304,651.5C 305.849,647.802 307.682,644.136 309.5,640.5C 314.286,647.12 319.953,652.954 326.5,658C 331.277,660.723 336.277,662.889 341.5,664.5C 343.66,662.363 344.66,659.696 344.5,656.5C 343.749,646.732 342.415,637.065 340.5,627.5C 340.624,626.893 340.957,626.56 341.5,626.5C 351.199,635.23 356.699,646.23 358,659.5C 359.809,668.085 356.976,674.585 349.5,679C 336.43,684.976 325.264,682.476 316,671.5C 315.5,670 315,668.5 314.5,667C 316.52,664.379 316.853,661.545 315.5,658.5C 312.756,662.751 309.422,666.585 305.5,670C 299.786,671.57 294.12,671.237 288.5,669C 276.97,657.72 273.47,644.22 278,628.5C 282.284,608.737 292.45,592.904 308.5,581C 310.818,579.007 313.484,577.841 316.5,577.5 Z"/></g>
<g><path style="opacity:1" fill="#1a1a1a" d="M 478.5,672.5 C 478.817,669.428 478.484,666.428 477.5,663.5C 474.915,671.11 474.915,678.777 477.5,686.5C 477.124,688.383 476.124,689.883 474.5,691C 467.964,693.968 461.297,694.301 454.5,692C 446.932,689.671 443.099,684.504 443,676.5C 438.427,654.149 446.26,637.982 466.5,628C 469.207,627.605 471.873,627.105 474.5,626.5C 477.416,626.107 480.083,625.107 482.5,623.5C 480.547,618.978 479.213,614.311 478.5,609.5C 477.54,601.691 480.873,598.024 488.5,598.5C 507.691,599.846 523.858,607.513 537,621.5C 540.657,627.305 542.824,633.638 543.5,640.5C 541.412,659.858 532.745,675.358 517.5,687C 514.134,688.879 510.8,688.879 507.5,687C 510.142,681.772 512.476,676.438 514.5,671C 513.5,670.333 512.5,670.333 511.5,671C 509.399,673.77 506.732,675.77 503.5,677C 494.205,679.94 485.872,678.44 478.5,672.5 Z"/></g>
<g><path style="opacity:1" fill="#1a1a1a" d="M 598.5,698.5 C 597.912,721.899 590.746,742.899 577,761.5C 565.289,772.94 551.456,780.607 535.5,784.5C 518.038,781.872 507.538,771.872 504,754.5C 503.302,747.265 502.468,740.098 501.5,733C 502.126,732.25 502.626,731.416 503,730.5C 508.809,736.106 515.809,738.772 524,738.5C 531.939,738.279 538.772,735.446 544.5,730C 552.225,722.272 558.391,713.439 563,703.5C 563.794,700.529 564.461,697.529 565,694.5C 565.418,681.971 566.251,669.471 567.5,657C 567.12,651.981 566.454,647.148 565.5,642.5C 564.922,628.765 561.588,615.765 555.5,603.5C 556.002,602.479 556.668,602.312 557.5,603C 571.596,617.015 581.763,633.515 588,652.5C 593.227,667.473 596.727,682.806 598.5,698.5 Z"/></g>
<g><path style="opacity:1" fill="#e6e6e6" d="M 360.5,674.5 C 363.083,665.193 362.917,655.859 360,646.5C 358.097,641.032 355.93,635.699 353.5,630.5C 360.081,625.039 367.747,622.705 376.5,623.5C 387.974,624.118 398.974,626.785 409.5,631.5C 409.307,652.032 413.14,671.699 421,690.5C 424.897,710.136 417.397,716.636 398.5,710C 391.544,706.855 384.877,703.189 378.5,699C 371.51,691.517 365.51,683.351 360.5,674.5 Z"/></g>
<g><path style="opacity:1" fill="#141414" d="M 565.5,642.5 C 566.454,647.148 567.12,651.981 567.5,657C 566.251,669.471 565.418,681.971 565,694.5C 564.461,697.529 563.794,700.529 563,703.5C 558.391,713.439 552.225,722.272 544.5,730C 538.772,735.446 531.939,738.279 524,738.5C 515.809,738.772 508.809,736.106 503,730.5C 502.626,731.416 502.126,732.25 501.5,733C 502.468,740.098 503.302,747.265 504,754.5C 507.538,771.872 518.038,781.872 535.5,784.5C 551.456,780.607 565.289,772.94 577,761.5C 590.746,742.899 597.912,721.899 598.5,698.5C 602.933,721.449 598.766,742.782 586,762.5C 585.175,764.701 585.675,766.534 587.5,768C 598.604,767.364 607.771,771.197 615,779.5C 618.98,786.624 623.814,793.124 629.5,799C 632.661,800.413 635.661,802.08 638.5,804C 634.952,805.941 631.286,807.607 627.5,809C 619.193,809.999 610.86,810.832 602.5,811.5C 601.423,814.474 601.423,817.474 602.5,820.5C 582.318,821.048 562.318,819.548 542.5,816C 513.218,805.719 494.718,785.552 487,755.5C 483.667,736.833 483.667,718.167 487,699.5C 491.793,704.268 497.627,706.601 504.5,706.5C 516.071,705.922 526.405,702.088 535.5,695C 552.137,681.903 561.637,664.736 564,643.5C 564.383,642.944 564.883,642.611 565.5,642.5 Z"/></g>
<g><path style="opacity:1" fill="#1a1a1a" d="M 787.5,677.5 C 783.628,689.244 778.128,700.244 771,710.5C 762.283,720.095 753.449,729.595 744.5,739C 710.903,758.851 674.903,766.517 636.5,762C 626.306,760.259 620.973,754.259 620.5,744C 621.979,734.728 623.979,725.561 626.5,716.5C 626.262,713.201 625.262,710.201 623.5,707.5C 624.949,706.828 626.282,706.161 627.5,705.5C 633.509,705.334 639.509,705.501 645.5,706C 665.31,710.379 685.31,711.379 705.5,709C 717.405,706.587 728.738,702.587 739.5,697C 746.283,691.221 753.616,686.221 761.5,682C 769.093,674.4 777.26,667.567 786,661.5C 786.945,661.905 787.612,662.572 788,663.5C 788.648,668.204 788.481,672.871 787.5,677.5 Z"/></g>
<g><path style="opacity:1" fill="#131313" d="M 350.5,718.5 C 349.043,720.242 347.876,722.242 347,724.5C 338.283,720.644 330.616,715.311 324,708.5C 322.417,720.502 325.084,731.502 332,741.5C 338.772,748.117 345.939,754.117 353.5,759.5C 338.303,758.317 327.136,750.984 320,737.5C 312.742,718.114 311.742,698.447 317,678.5C 323.898,685.032 332.065,687.698 341.5,686.5C 342.023,697.933 345.023,708.6 350.5,718.5 Z"/></g>
<g><path style="opacity:1" fill="#141414" d="M 787.5,677.5 C 785.944,702.342 777.777,724.676 763,744.5C 755.61,751.115 747.444,756.615 738.5,761C 724.3,765.467 709.966,769.467 695.5,773C 671.8,773.505 648.467,776.671 625.5,782.5C 624.5,782.333 623.5,782.167 622.5,782C 615.422,770.621 605.089,764.621 591.5,764C 601.563,746.917 606.229,728.417 605.5,708.5C 612.937,708.149 620.27,707.149 627.5,705.5C 626.282,706.161 624.949,706.828 623.5,707.5C 625.262,710.201 626.262,713.201 626.5,716.5C 623.979,725.561 621.979,734.728 620.5,744C 620.973,754.259 626.306,760.259 636.5,762C 674.903,766.517 710.903,758.851 744.5,739C 753.449,729.595 762.283,720.095 771,710.5C 778.128,700.244 783.628,689.244 787.5,677.5 Z"/></g>
<g><path style="opacity:1" fill="#1a1a1a" d="M 350.5,718.5 C 353.904,722.965 357.071,727.631 360,732.5C 365.289,737.867 370.789,742.867 376.5,747.5C 378.142,754.451 381.142,760.785 385.5,766.5C 382.554,767.655 379.554,767.821 376.5,767C 370.378,765.471 364.378,763.638 358.5,761.5C 356.95,760.559 355.284,759.893 353.5,759.5C 345.939,754.117 338.772,748.117 332,741.5C 325.084,731.502 322.417,720.502 324,708.5C 330.616,715.311 338.283,720.644 347,724.5C 347.876,722.242 349.043,720.242 350.5,718.5 Z"/></g>
<g><path style="opacity:1" fill="#141414" d="M 376.5,747.5 C 388.389,755.614 401.056,762.447 414.5,768C 415.749,770.21 415.582,772.376 414,774.5C 406.476,785.682 396.31,793.515 383.5,798C 375.218,799.923 366.885,801.59 358.5,803C 353.761,803.726 349.095,803.393 344.5,802C 346.809,799.513 349.476,797.513 352.5,796C 356.633,790.866 361.133,786.032 366,781.5C 366.612,779.763 365.946,778.763 364,778.5C 361.71,779.724 359.544,781.057 357.5,782.5C 358.172,779.658 359.506,777.158 361.5,775C 351.161,771.609 340.828,768.109 330.5,764.5C 331.932,762.673 333.599,761.006 335.5,759.5C 342.062,762.14 348.729,764.474 355.5,766.5C 356.442,766.392 357.275,766.059 358,765.5C 357.645,764.041 357.811,762.707 358.5,761.5C 364.378,763.638 370.378,765.471 376.5,767C 379.554,767.821 382.554,767.655 385.5,766.5C 381.142,760.785 378.142,754.451 376.5,747.5 Z"/></g>
<g><path style="opacity:1" fill="#1a1a1a" d="M 330.5,764.5 C 340.828,768.109 351.161,771.609 361.5,775C 359.506,777.158 358.172,779.658 357.5,782.5C 346.393,790.126 334.06,792.626 320.5,790C 315.177,788.923 310.677,786.423 307,782.5C 305.504,780.55 305.337,778.55 306.5,776.5C 315.084,773.541 323.084,769.541 330.5,764.5 Z"/></g>
<g><path style="opacity:1" fill="#1a1a1a" d="M 578.5,780.5 C 593.089,778.218 605.255,782.552 615,793.5C 615.688,794.332 615.521,794.998 614.5,795.5C 607.334,800.602 599.334,802.935 590.5,802.5C 590.692,805.601 591.358,808.601 592.5,811.5C 587.593,811.932 582.926,810.765 578.5,808C 572.243,803.287 566.076,798.454 560,793.5C 558.148,790.653 558.648,788.153 561.5,786C 567.137,783.682 572.803,781.849 578.5,780.5 Z"/></g>

        
<g><path style="opacity:0.904" fill="#020202" d="M 492.5,247.5 C 515.533,247.263 533.366,256.596 546,275.5C 550.875,284.412 555.042,293.579 558.5,303C 558.158,305.515 556.825,307.348 554.5,308.5C 552.205,306.52 549.539,305.353 546.5,305C 526.722,303.823 507.555,306.657 489,313.5C 491.296,328.823 493.796,344.156 496.5,359.5C 515.133,358.568 532.466,353.235 548.5,343.5C 551.079,344.888 551.079,346.388 548.5,348C 540.888,351.139 533.554,354.806 526.5,359C 517.117,363.072 507.45,366.239 497.5,368.5C 497.666,377.506 497.5,386.506 497,395.5C 496.586,395.957 496.086,396.291 495.5,396.5C 494.502,387.525 494.168,378.525 494.5,369.5C 474.538,371.28 454.538,371.78 434.5,371C 431.711,370.759 429.044,370.092 426.5,369C 429.84,366.991 433.507,365.824 437.5,365.5C 456.034,367.058 474.367,365.724 492.5,361.5C 493.422,356.507 493.255,351.507 492,346.5C 490.128,336.142 488.128,325.809 486,315.5C 485.439,314.978 484.772,314.645 484,314.5C 460.075,322.547 437.575,333.38 416.5,347C 413.333,350.167 410.167,353.333 407,356.5C 406.773,363.246 407.94,369.746 410.5,376C 408.984,382.558 406.484,388.725 403,394.5C 390.558,401.825 379.725,399.658 370.5,388C 367.5,386 364.5,386 361.5,388C 355.888,397.661 347.888,400.327 337.5,396C 334.667,394.5 332.5,392.333 331,389.5C 329.616,383.862 328.45,378.195 327.5,372.5C 326.325,372.281 325.325,372.614 324.5,373.5C 318.891,387.897 310.891,400.73 300.5,412C 298.223,413.959 295.723,415.459 293,416.5C 282.155,412.329 272.322,406.496 263.5,399C 245.45,388.357 226.117,384.857 205.5,388.5C 197.369,365.942 200.535,344.942 215,325.5C 215.218,305.905 222.385,289.405 236.5,276C 243.041,271.46 250.041,267.793 257.5,265C 263.793,264.142 269.793,265.142 275.5,268C 294.627,282.096 309.127,299.929 319,321.5C 323.344,332.367 327.177,343.367 330.5,354.5C 342.609,360.703 355.443,364.37 369,365.5C 378.23,363.734 387.397,361.734 396.5,359.5C 395.021,355.198 393.521,350.865 392,346.5C 391.46,332.433 394.46,319.1 401,306.5C 406.344,296.474 412.677,287.141 420,278.5C 431.941,268.442 445.108,260.275 459.5,254C 470.366,250.443 481.366,248.276 492.5,247.5 Z"/></g>
<g><path style="opacity:1" fill="#1b1b1b" d="M 491.5,251.5 C 512.015,251.342 528.515,259.342 541,275.5C 546.139,283.77 550.139,292.437 553,301.5C 545.161,299.952 536.995,299.452 528.5,300C 514.582,301.784 500.915,304.451 487.5,308C 484.415,296.075 480.915,284.242 477,272.5C 475.926,268.681 474.093,265.348 471.5,262.5C 475.843,277.668 480.176,293.168 484.5,309C 466.264,316.451 448.264,324.451 430.5,333C 420.352,339.081 411.352,346.581 403.5,355.5C 402.549,356.326 401.549,356.492 400.5,356C 397.116,351.224 395.116,345.891 394.5,340C 396.138,329.947 398.638,320.114 402,310.5C 405.755,305.997 408.755,300.997 411,295.5C 415.048,291.12 418.715,286.454 422,281.5C 436.682,268.507 453.516,259.341 472.5,254C 478.988,253.216 485.322,252.383 491.5,251.5 Z"/></g>
<g><path style="opacity:1" fill="#1b1b1b" d="M 256.5,269.5 C 263.905,268.705 270.571,270.539 276.5,275C 302.483,295.471 318.317,321.971 324,354.5C 322.601,353.773 321.101,353.273 319.5,353C 298.875,335.523 275.209,324.189 248.5,319C 238.929,317.048 229.263,316.214 219.5,316.5C 223.054,293.637 235.388,277.97 256.5,269.5 Z"/></g>
<g><path style="opacity:1" fill="#f3f2e5" d="M 223.5,320.5 C 258.583,321.886 289.249,334.053 315.5,357C 322.049,356.381 324.215,359.214 322,365.5C 317.972,381.561 310.305,395.561 299,407.5C 302.815,380.294 292.981,359.46 269.5,345C 256.136,341.189 243.469,342.856 231.5,350C 220.786,357.876 212.452,367.709 206.5,379.5C 203.61,364.357 205.777,350.024 213,336.5C 216.356,330.996 219.856,325.663 223.5,320.5 Z"/></g>
<g><path style="opacity:1" fill="#1b1b1b" d="M 327.5,358.5 C 327.56,357.957 327.893,357.624 328.5,357.5C 343.24,366.685 359.24,370.519 376.5,369C 385.084,366.187 393.751,363.687 402.5,361.5C 404.299,368.98 404.799,376.646 404,384.5C 402.453,391.217 398.286,394.884 391.5,395.5C 383.4,395.118 377.067,391.618 372.5,385C 367.996,381.538 363.663,381.704 359.5,385.5C 357.294,388.203 354.961,390.703 352.5,393C 347.713,393.879 343.047,393.545 338.5,392C 337.333,390.833 336.167,389.667 335,388.5C 332.616,381.015 331.283,373.348 331,365.5C 330.856,362.558 329.689,360.224 327.5,358.5 Z"/></g>

        
<g><path style="opacity:0.993" fill="#20201e" d="M 591.5,350.5 C 590.89,349.609 590.557,348.609 590.5,347.5C 598.093,347.538 604.593,350.538 610,356.5C 612.002,361.007 613.502,365.674 614.5,370.5C 614.02,374.293 612.353,377.46 609.5,380C 604.5,382.333 599.5,384.667 594.5,387C 582.992,386.084 571.492,384.917 560,383.5C 549.575,383.44 539.575,385.44 530,389.5C 529.099,405.656 527.099,421.656 524,437.5C 515.846,455.806 507.18,473.806 498,491.5C 496.381,493.772 494.548,495.772 492.5,497.5C 491.558,497.392 490.725,497.059 490,496.5C 490.124,476.86 487.791,457.527 483,438.5C 480.491,430.264 476.491,422.931 471,416.5C 465.075,419.213 459.241,422.046 453.5,425C 421.871,432.862 390.038,434.695 358,430.5C 338.546,433.337 319.379,432.004 300.5,426.5C 296.372,429.29 293.372,432.957 291.5,437.5C 286.174,448.647 282.34,460.313 280,472.5C 279.983,480.544 279.816,488.544 279.5,496.5C 278.448,498.256 276.781,498.923 274.5,498.5C 263.666,480.855 255.833,461.855 251,441.5C 248.471,427.539 249.971,414.039 255.5,401C 246.898,396.699 237.898,393.532 228.5,391.5C 218.197,392.724 207.863,393.224 197.5,393C 182.147,389.146 173.647,379.313 172,363.5C 171.333,358.833 171.333,354.167 172,349.5C 172.036,347.059 172.869,345.059 174.5,343.5C 175.086,343.709 175.586,344.043 176,344.5C 175.529,355.347 177.529,365.681 182,375.5C 187.543,382.974 195.043,386.974 204.5,387.5C 232.498,383.446 257.164,390.613 278.5,409C 291.714,416.182 305.714,421.182 320.5,424C 344.953,424.754 369.453,425.587 394,426.5C 413.476,426.449 432.642,423.949 451.5,419C 468.5,410 485.5,401 502.5,392C 517.586,386.527 532.92,381.86 548.5,378C 556.5,377.333 564.5,377.333 572.5,378C 579.063,379.986 585.73,380.986 592.5,381C 596.749,378.806 601.082,376.806 605.5,375C 606.872,373.758 607.872,372.258 608.5,370.5C 607.098,366.461 605.598,362.461 604,358.5C 599.684,355.934 595.517,353.267 591.5,350.5 Z"/></g>
<g><path style="opacity:0.408" fill="#9b9b93" d="M 590.5,347.5 C 590.557,348.609 590.89,349.609 591.5,350.5C 589.448,349.947 589.115,348.947 590.5,347.5 Z"/></g>
<g><path style="opacity:1" fill="#f3f2e5" d="M 523.5,390.5 C 524.649,390.791 525.316,391.624 525.5,393C 523.612,406.547 521.446,420.047 519,433.5C 511.787,450.924 503.787,467.924 495,484.5C 495.151,468.559 493.151,452.892 489,437.5C 485.392,429.112 480.892,421.278 475.5,414C 481.968,408.926 488.968,404.593 496.5,401C 505.492,397.175 514.492,393.675 523.5,390.5 Z"/></g>
<g><path style="opacity:1" fill="#f3f2e5" d="M 259.5,403.5 C 270.581,412.379 282.915,419.212 296.5,424C 280.894,441.812 273.394,462.645 274,486.5C 266.227,471.515 260.227,455.848 256,439.5C 254.469,427.135 255.636,415.135 259.5,403.5 Z"/></g>
<g><path style="opacity:0.751" fill="#e9e8dc" d="M 300.5,426.5 C 300.046,432.284 297.046,435.951 291.5,437.5C 293.372,432.957 296.372,429.29 300.5,426.5 Z"/></g>
<g><path style="opacity:0.796" fill="#62625d" d="M 279.5,496.5 C 280.404,497.209 280.737,498.209 280.5,499.5C 278.265,499.795 276.265,499.461 274.5,498.5C 276.781,498.923 278.448,498.256 279.5,496.5 Z"/></g>

        
<g><path style="opacity:0.991" fill="#070709" d="M 369.5,120.5 C 370.833,120.5 372.167,120.5 373.5,120.5C 374.829,127.793 375.995,135.127 377,142.5C 380.222,149.499 382.222,156.833 383,164.5C 385.41,170.318 388.077,175.985 391,181.5C 397.794,189.963 404.961,198.13 412.5,206C 416.873,209.186 421.54,211.853 426.5,214C 435.081,216.097 443.747,217.764 452.5,219C 453.894,222.093 453.227,224.759 450.5,227C 430.107,226.898 410.441,230.565 391.5,238C 379.024,243.808 370.858,253.308 367,266.5C 355.463,275.515 342.296,279.849 327.5,279.5C 295.365,280.389 277.198,265.055 273,233.5C 272.179,214.784 276.679,197.45 286.5,181.5C 287.365,180.417 288.365,180.251 289.5,181C 291.882,194.264 298.048,205.431 308,214.5C 303.426,198.844 302.092,182.844 304,166.5C 306.194,155.608 311.36,146.441 319.5,139C 321,138.5 322.5,138 324,137.5C 324.945,137.905 325.612,138.572 326,139.5C 325.78,147.468 327.114,155.135 330,162.5C 335.333,171.167 340.667,179.833 346,188.5C 345.199,175.055 346.199,161.721 349,148.5C 354.151,137.861 360.985,128.528 369.5,120.5 Z"/></g>
<g><path style="opacity:1" fill="#2d2d3a" d="M 373.5,152.5 C 371.366,151.297 370.032,149.463 369.5,147C 368.5,146.333 367.5,146.333 366.5,147C 366.833,147.333 367.167,147.667 367.5,148C 363.138,150.623 361.472,154.29 362.5,159C 360.408,159.953 360.075,161.286 361.5,163C 360.5,165.333 359.5,167.667 358.5,170C 359.308,170.308 359.975,170.808 360.5,171.5C 358.318,173.734 357.985,176.234 359.5,179C 359.025,180.763 358.358,182.43 357.5,184C 359.434,185.729 359.434,187.729 357.5,190C 358.167,191.333 358.833,192.667 359.5,194C 359.267,197.466 358.933,201.3 358.5,205.5C 357.808,206.025 357.308,206.692 357,207.5C 355.806,206.57 354.473,205.903 353,205.5C 350.946,206.079 348.946,206.412 347,206.5C 346.517,205.552 346.351,204.552 346.5,203.5C 344.436,203.313 342.436,202.813 340.5,202C 339.5,199.667 337.833,198 335.5,197C 335.833,196.667 336.167,196.333 336.5,196C 335.514,193.672 333.514,191.672 330.5,190C 330.833,189.667 331.167,189.333 331.5,189C 329.833,188 328.5,186.667 327.5,185C 327.833,184.667 328.167,184.333 328.5,184C 327.5,183 326.5,182 325.5,181C 325.833,180.667 326.167,180.333 326.5,180C 324.996,178.509 324.163,176.676 324,174.5C 321.917,172.348 320.417,170.348 319.5,168.5C 318.032,170.792 317.032,172.959 316.5,175C 316.833,175.333 317.167,175.667 317.5,176C 316.692,176.308 316.025,176.808 315.5,177.5C 316.78,179.702 316.78,181.868 315.5,184C 316.167,184.667 316.833,185.333 317.5,186C 316.283,188.011 316.616,190.011 318.5,192C 317.941,192.725 317.608,193.558 317.5,194.5C 318.755,199.502 320.421,204.335 322.5,209C 322.167,209.333 321.833,209.667 321.5,210C 323.866,214.26 325.532,218.427 326.5,222.5C 326.035,225.471 324.535,227.805 322,229.5C 312.901,229.677 304.901,227.344 298,222.5C 297.667,222.833 297.333,223.167 297,223.5C 296.424,220.876 295.09,220.209 293,221.5C 292.683,219.699 292.016,219.366 291,220.5C 290.632,219.09 289.799,218.09 288.5,217.5C 287.831,220.93 287.497,224.263 287.5,227.5C 287.529,229.029 288.196,230.196 289.5,231C 289.167,231.333 288.833,231.667 288.5,232C 288.846,236.025 290.512,239.358 293.5,242C 293.167,242.333 292.833,242.667 292.5,243C 294.865,246.328 297.032,250.495 299,255.5C 299.333,255.167 299.667,254.833 300,254.5C 301.347,259.54 305.18,263.874 311.5,267.5C 312.246,268.736 312.579,270.07 312.5,271.5C 316.425,271.43 320.091,272.097 323.5,273.5C 298.519,273.351 283.686,261.018 279,236.5C 277.516,224.501 278.849,212.835 283,201.5C 284.015,198.79 285.515,196.457 287.5,194.5C 292.1,204.27 298.433,212.77 306.5,220C 310.275,222.351 313.608,221.851 316.5,218.5C 313.264,213.631 311.097,208.297 310,202.5C 307.534,190.194 307.201,177.86 309,165.5C 311.037,157.755 314.87,151.088 320.5,145.5C 321.205,153.249 323.372,160.582 327,167.5C 332.396,175.234 337.396,183.234 342,191.5C 344.247,194.509 346.581,194.842 349,192.5C 349.756,179.806 350.756,167.139 352,154.5C 355.417,144.676 361.083,136.342 369,129.5C 370.085,137.268 371.585,144.935 373.5,152.5 Z"/></g>
<g><path style="opacity:1" fill="#333340" d="M 373.5,152.5 C 375.929,156.791 377.096,161.458 377,166.5C 379.333,171.833 381.667,177.167 384,182.5C 389.333,189.167 394.667,195.833 400,202.5C 409.902,214.065 422.402,220.899 437.5,223C 416.978,223.876 397.978,229.543 380.5,240C 377.333,243.167 374.167,246.333 371,249.5C 370.226,245.853 369.559,242.186 369,238.5C 365.827,235.671 364.327,236.505 364.5,241C 366.241,248.365 365.741,255.532 363,262.5C 357.518,267.657 351.018,270.824 343.5,272C 336.897,273.274 330.23,273.774 323.5,273.5C 320.091,272.097 316.425,271.43 312.5,271.5C 312.579,270.07 312.246,268.736 311.5,267.5C 305.18,263.874 301.347,259.54 300,254.5C 299.667,254.833 299.333,255.167 299,255.5C 297.032,250.495 294.865,246.328 292.5,243C 292.833,242.667 293.167,242.333 293.5,242C 290.512,239.358 288.846,236.025 288.5,232C 288.833,231.667 289.167,231.333 289.5,231C 288.196,230.196 287.529,229.029 287.5,227.5C 287.497,224.263 287.831,220.93 288.5,217.5C 289.799,218.09 290.632,219.09 291,220.5C 292.016,219.366 292.683,219.699 293,221.5C 295.09,220.209 296.424,220.876 297,223.5C 297.333,223.167 297.667,222.833 298,222.5C 304.901,227.344 312.901,229.677 322,229.5C 324.535,227.805 326.035,225.471 326.5,222.5C 325.532,218.427 323.866,214.26 321.5,210C 321.833,209.667 322.167,209.333 322.5,209C 320.421,204.335 318.755,199.502 317.5,194.5C 317.608,193.558 317.941,192.725 318.5,192C 316.616,190.011 316.283,188.011 317.5,186C 316.833,185.333 316.167,184.667 315.5,184C 316.78,181.868 316.78,179.702 315.5,177.5C 316.025,176.808 316.692,176.308 317.5,176C 317.167,175.667 316.833,175.333 316.5,175C 317.032,172.959 318.032,170.792 319.5,168.5C 320.417,170.348 321.917,172.348 324,174.5C 324.163,176.676 324.996,178.509 326.5,180C 326.167,180.333 325.833,180.667 325.5,181C 326.5,182 327.5,183 328.5,184C 328.167,184.333 327.833,184.667 327.5,185C 328.5,186.667 329.833,188 331.5,189C 331.167,189.333 330.833,189.667 330.5,190C 333.514,191.672 335.514,193.672 336.5,196C 336.167,196.333 335.833,196.667 335.5,197C 337.833,198 339.5,199.667 340.5,202C 342.436,202.813 344.436,203.313 346.5,203.5C 346.351,204.552 346.517,205.552 347,206.5C 348.946,206.412 350.946,206.079 353,205.5C 354.473,205.903 355.806,206.57 357,207.5C 357.308,206.692 357.808,206.025 358.5,205.5C 358.933,201.3 359.267,197.466 359.5,194C 358.833,192.667 358.167,191.333 357.5,190C 359.434,187.729 359.434,185.729 357.5,184C 358.358,182.43 359.025,180.763 359.5,179C 357.985,176.234 358.318,173.734 360.5,171.5C 359.975,170.808 359.308,170.308 358.5,170C 359.5,167.667 360.5,165.333 361.5,163C 360.075,161.286 360.408,159.953 362.5,159C 361.472,154.29 363.138,150.623 367.5,148C 367.167,147.667 366.833,147.333 366.5,147C 367.5,146.333 368.5,146.333 369.5,147C 370.032,149.463 371.366,151.297 373.5,152.5 Z"/></g>

    </svg>
