
    <svg width="862" height="862" viewBox="0 0 862 862" fill="none" xmlns="http://www.w3.org/2000/svg">
        
<g><path style="opacity:1" fill="#f6f6e8" d="M -0.5,-0.5 C 286.833,-0.5 574.167,-0.5 861.5,-0.5C 861.5,286.833 861.5,574.167 861.5,861.5C 574.167,861.5 286.833,861.5 -0.5,861.5C -0.5,574.167 -0.5,286.833 -0.5,-0.5 Z"/></g>

        
        
<g><path style="opacity:0.996" fill="#150e09" d="M 614.5,157.5 C 614.34,155.847 613.674,154.514 612.5,153.5C 612.5,154.5 612.5,155.5 612.5,156.5C 609.072,156.547 606.072,157.713 603.5,160C 588.1,175.301 578.933,193.801 576,215.5C 575.099,235.825 574.433,256.159 574,276.5C 558.53,280.267 542.697,283.267 526.5,285.5C 504.327,281.329 485.494,270.996 470,254.5C 471.165,217.843 480.165,183.176 497,150.5C 511.833,126.333 531.333,106.833 555.5,92C 567.772,85.3257 580.772,82.4924 594.5,83.5C 605.911,85.6861 617.244,88.5194 628.5,92C 652.948,101.96 673.448,117.126 690,137.5C 704.876,159.136 711.876,183.136 711,209.5C 701.117,232.022 684.284,239.856 660.5,233C 649.358,228.015 639.525,221.182 631,212.5C 628.746,208.993 626.746,205.327 625,201.5C 623.375,186.337 619.875,171.67 614.5,157.5 Z"/></g>
<g><path style="opacity:1" fill="#916340" d="M 599.5,127.5 C 597.316,128.266 594.982,128.933 592.5,129.5C 591.483,126.972 590.316,126.972 589,129.5C 587.984,128.366 587.317,128.699 587,130.5C 586,130.5 585,130.5 584,130.5C 583.935,132.883 583.102,133.55 581.5,132.5C 580.667,133.5 579.833,134.5 579,135.5C 578.667,135.167 578.333,134.833 578,134.5C 576.812,135.563 576.312,136.897 576.5,138.5C 573.645,139.834 571.145,141.834 569,144.5C 567.434,143.939 566.101,144.606 565,146.5C 563.858,150.983 561.192,154.316 557,156.5C 554.798,161.876 551.631,167.042 547.5,172C 547.957,172.414 548.291,172.914 548.5,173.5C 545.183,178.009 543.016,182.675 542,187.5C 540.933,188.191 539.766,188.691 538.5,189C 538.833,190 539.167,191 539.5,192C 537.622,194.805 535.955,197.472 534.5,200C 535.022,202.289 534.355,204.456 532.5,206.5C 534.658,208.026 534.325,209.526 531.5,211C 533.973,212.402 533.973,213.902 531.5,215.5C 532.002,216.716 532.335,217.883 532.5,219C 531.833,219.667 531.167,220.333 530.5,221C 530.673,223.407 530.673,225.74 530.5,228C 532.891,229.309 532.891,230.309 530.5,231C 530.784,232.956 530.784,235.123 530.5,237.5C 531.5,237.5 532.5,237.5 533.5,237.5C 533.374,239.2 532.707,240.7 531.5,242C 531.862,243.225 532.362,244.391 533,245.5C 533.451,243.071 534.285,242.904 535.5,245C 534.167,246.84 534.334,247.34 536,246.5C 536.923,247.759 537.757,249.092 538.5,250.5C 539.086,250.291 539.586,249.957 540,249.5C 541.266,252.72 543.433,255.053 546.5,256.5C 547.675,255.145 548.675,255.312 549.5,257C 547.099,257.805 547.266,258.638 550,259.5C 550.308,258.692 550.808,258.025 551.5,257.5C 553.702,258.78 555.868,258.78 558,257.5C 559.402,259.973 560.902,259.973 562.5,257.5C 564.07,257.694 565.57,257.694 567,257.5C 567.374,255.509 568.207,253.842 569.5,252.5C 569.828,257.875 569.495,263.208 568.5,268.5C 567.833,269.5 567.167,270.5 566.5,271.5C 553.09,275.077 539.423,277.411 525.5,278.5C 518.961,277.826 512.628,276.326 506.5,274C 500.998,270.415 495.331,267.081 489.5,264C 484.167,260 478.833,256 473.5,252C 476.34,217.51 485.84,184.677 502,153.5C 514.078,134.19 529.245,117.69 547.5,104C 556.076,98.7507 565.076,94.4174 574.5,91C 595.457,88.4259 615.457,91.7592 634.5,101C 656.299,111.474 674.466,126.307 689,145.5C 700.978,164.047 706.645,184.381 706,206.5C 698.489,225.673 684.656,232.84 664.5,228C 656.671,223.92 649.004,219.587 641.5,215C 636.813,210.457 632.98,205.291 630,199.5C 628.287,186.645 625.62,173.978 622,161.5C 616.923,150.347 611.59,139.347 606,128.5C 602.819,123.839 598.652,120.506 593.5,118.5C 588.002,119.338 586.335,122.338 588.5,127.5C 589.138,125.03 590.638,123.363 593,122.5C 595.341,124.016 597.508,125.683 599.5,127.5 Z"/></g>
<g><path style="opacity:0.995" fill="#160e0a" d="M 163.5,95.5 C 174.943,95.0349 186.276,95.8682 197.5,98C 206.481,102.314 212.648,109.147 216,118.5C 229.057,133.622 241.39,149.288 253,165.5C 265.57,190.976 278.903,215.976 293,240.5C 293.667,245.5 293.667,250.5 293,255.5C 290.064,261.222 287.731,267.222 286,273.5C 279.349,283.819 270.516,291.652 259.5,297C 250.619,299.831 241.619,300.165 232.5,298C 229.993,297.907 227.826,297.074 226,295.5C 225.647,294.328 225.813,293.162 226.5,292C 222.493,281.47 219.659,270.637 218,259.5C 212.471,246.581 207.138,233.581 202,220.5C 195.527,207.228 186.86,195.562 176,185.5C 176.125,192.254 177.125,198.921 179,205.5C 181.447,214.866 184.28,224.033 187.5,233C 187.344,237.136 186.177,240.969 184,244.5C 179.5,249 175,253.5 170.5,258C 152.753,266.41 135.086,266.41 117.5,258C 100.412,242.239 93.745,222.739 97.5,199.5C 97.6667,194.5 97.8333,189.5 98,184.5C 100.239,173.19 102.239,161.856 104,150.5C 109.333,141.167 114.667,131.833 120,122.5C 125.727,112.775 133.894,105.941 144.5,102C 150.979,99.8968 157.313,97.7301 163.5,95.5 Z"/></g>
<g><path style="opacity:1" fill="#916340" d="M 227.5,277.5 C 228.234,274.224 230.067,273.558 233,275.5C 235.188,275.646 236.521,274.646 237,272.5C 237.333,272.833 237.667,273.167 238,273.5C 239.631,270.965 241.465,268.632 243.5,266.5C 242.975,265.808 242.308,265.308 241.5,265C 243.592,264.047 243.925,262.714 242.5,261C 243.448,260.517 244.448,260.351 245.5,260.5C 245.5,256.5 245.5,252.5 245.5,248.5C 241.901,248.738 241.567,247.738 244.5,245.5C 243.519,241.687 241.519,238.52 238.5,236C 239.337,234.989 239.67,233.822 239.5,232.5C 238.448,232.649 237.448,232.483 236.5,232C 235.761,230.235 235.761,228.235 236.5,226C 235.286,223.309 233.452,221.142 231,219.5C 230.122,216.291 228.789,213.291 227,210.5C 226.086,211.654 225.253,211.487 224.5,210C 224.957,209.586 225.291,209.086 225.5,208.5C 224.5,207.167 223.5,205.833 222.5,204.5C 222.709,203.914 223.043,203.414 223.5,203C 221.651,201.907 219.984,200.574 218.5,199C 219.517,197.951 219.684,196.784 219,195.5C 218.667,196.167 218.333,196.833 218,197.5C 214.974,193.744 212.641,190.077 211,186.5C 210.667,186.833 210.333,187.167 210,187.5C 208.983,184.151 206.983,182.817 204,183.5C 203.03,180.179 200.863,178.513 197.5,178.5C 197.881,176.058 197.214,175.391 195.5,176.5C 191.168,175.679 188.001,173.346 186,169.5C 184.16,170.833 183.66,170.666 184.5,169C 182.658,169.068 180.991,168.901 179.5,168.5C 181.785,164.729 184.451,164.562 187.5,168C 188.893,169.171 189.727,170.671 190,172.5C 190.868,168.328 189.368,165.162 185.5,163C 179.756,161.394 175.756,163.394 173.5,169C 170.737,175.576 169.903,182.409 171,189.5C 172.522,203.889 176.356,217.556 182.5,230.5C 182.132,233.638 181.299,236.638 180,239.5C 175.167,244.333 170.333,249.167 165.5,254C 153.745,258.295 141.745,259.295 129.5,257C 117.962,252.46 110.129,244.294 106,232.5C 105.178,230.212 104.511,227.878 104,225.5C 103.587,214.996 103.087,204.496 102.5,194C 104.333,180.833 106.167,167.666 108,154.5C 113.667,144.5 119.333,134.5 125,124.5C 133.932,112.607 145.766,105.107 160.5,102C 172.222,99.9025 183.889,100.236 195.5,103C 198.912,104.455 202.079,106.288 205,108.5C 207.397,113.627 210.064,118.627 213,123.5C 224.381,137.213 235.381,151.213 246,165.5C 259.505,192.514 273.505,219.18 288,245.5C 286.646,267.536 275.812,283.036 255.5,292C 247.571,293.363 239.571,293.863 231.5,293.5C 230.167,288.167 228.833,282.833 227.5,277.5 Z"/></g>
<g><path style="opacity:1" fill="#824125" d="M 599.5,127.5 C 605.912,134.991 610.246,143.657 612.5,153.5C 608.094,152.13 604.094,152.963 600.5,156C 583.255,172.016 573.422,191.849 571,215.5C 570.619,227.843 570.119,240.176 569.5,252.5C 568.207,253.842 567.374,255.509 567,257.5C 565.57,257.694 564.07,257.694 562.5,257.5C 560.902,259.973 559.402,259.973 558,257.5C 555.868,258.78 553.702,258.78 551.5,257.5C 550.808,258.025 550.308,258.692 550,259.5C 547.266,258.638 547.099,257.805 549.5,257C 548.675,255.312 547.675,255.145 546.5,256.5C 543.433,255.053 541.266,252.72 540,249.5C 539.586,249.957 539.086,250.291 538.5,250.5C 537.757,249.092 536.923,247.759 536,246.5C 534.334,247.34 534.167,246.84 535.5,245C 534.285,242.904 533.451,243.071 533,245.5C 532.362,244.391 531.862,243.225 531.5,242C 532.707,240.7 533.374,239.2 533.5,237.5C 532.5,237.5 531.5,237.5 530.5,237.5C 530.784,235.123 530.784,232.956 530.5,231C 532.891,230.309 532.891,229.309 530.5,228C 530.673,225.74 530.673,223.407 530.5,221C 531.167,220.333 531.833,219.667 532.5,219C 532.335,217.883 532.002,216.716 531.5,215.5C 533.973,213.902 533.973,212.402 531.5,211C 534.325,209.526 534.658,208.026 532.5,206.5C 534.355,204.456 535.022,202.289 534.5,200C 535.955,197.472 537.622,194.805 539.5,192C 539.167,191 538.833,190 538.5,189C 539.766,188.691 540.933,188.191 542,187.5C 543.016,182.675 545.183,178.009 548.5,173.5C 548.291,172.914 547.957,172.414 547.5,172C 551.631,167.042 554.798,161.876 557,156.5C 561.192,154.316 563.858,150.983 565,146.5C 566.101,144.606 567.434,143.939 569,144.5C 571.145,141.834 573.645,139.834 576.5,138.5C 576.312,136.897 576.812,135.563 578,134.5C 578.333,134.833 578.667,135.167 579,135.5C 579.833,134.5 580.667,133.5 581.5,132.5C 583.102,133.55 583.935,132.883 584,130.5C 585,130.5 586,130.5 587,130.5C 587.317,128.699 587.984,128.366 589,129.5C 590.316,126.972 591.483,126.972 592.5,129.5C 594.982,128.933 597.316,128.266 599.5,127.5 Z"/></g>
<g><path style="opacity:1" fill="#65432d" d="M 612.5,153.5 C 613.674,154.514 614.34,155.847 614.5,157.5C 613.833,157.167 613.167,156.833 612.5,156.5C 612.5,155.5 612.5,154.5 612.5,153.5 Z"/></g>
<g><path style="opacity:1" fill="#824125" d="M 179.5,168.5 C 180.991,168.901 182.658,169.068 184.5,169C 183.66,170.666 184.16,170.833 186,169.5C 188.001,173.346 191.168,175.679 195.5,176.5C 197.214,175.391 197.881,176.058 197.5,178.5C 200.863,178.513 203.03,180.179 204,183.5C 206.983,182.817 208.983,184.151 210,187.5C 210.333,187.167 210.667,186.833 211,186.5C 212.641,190.077 214.974,193.744 218,197.5C 218.333,196.833 218.667,196.167 219,195.5C 219.684,196.784 219.517,197.951 218.5,199C 219.984,200.574 221.651,201.907 223.5,203C 223.043,203.414 222.709,203.914 222.5,204.5C 223.5,205.833 224.5,207.167 225.5,208.5C 225.291,209.086 224.957,209.586 224.5,210C 225.253,211.487 226.086,211.654 227,210.5C 228.789,213.291 230.122,216.291 231,219.5C 233.452,221.142 235.286,223.309 236.5,226C 235.761,228.235 235.761,230.235 236.5,232C 237.448,232.483 238.448,232.649 239.5,232.5C 239.67,233.822 239.337,234.989 238.5,236C 241.519,238.52 243.519,241.687 244.5,245.5C 241.567,247.738 241.901,248.738 245.5,248.5C 245.5,252.5 245.5,256.5 245.5,260.5C 244.448,260.351 243.448,260.517 242.5,261C 243.925,262.714 243.592,264.047 241.5,265C 242.308,265.308 242.975,265.808 243.5,266.5C 241.465,268.632 239.631,270.965 238,273.5C 237.667,273.167 237.333,272.833 237,272.5C 236.521,274.646 235.188,275.646 233,275.5C 230.067,273.558 228.234,274.224 227.5,277.5C 225.286,269.641 223.12,261.641 221,253.5C 214.61,239.664 208.61,225.664 203,211.5C 195.879,199.368 186.879,188.701 176,179.5C 175.454,176.101 175.787,172.768 177,169.5C 177.671,168.748 178.504,168.414 179.5,168.5 Z"/></g>

        
<g><path style="opacity:0.998" fill="#1c2021" d="M 703.5,385.5 C 703.41,388.152 704.076,390.485 705.5,392.5C 706.37,394.032 706.036,395.532 704.5,397C 701.814,398.368 699.147,399.701 696.5,401C 687.337,403.06 678.337,403.893 669.5,403.5C 671.81,407.254 673.643,411.254 675,415.5C 676.619,423.927 678.619,432.26 681,440.5C 682.454,454.02 679.787,466.687 673,478.5C 663.749,491.086 652.582,501.586 639.5,510C 630.893,513.302 622.893,517.635 615.5,523C 597.029,529.157 579.029,536.491 561.5,545C 545.683,550.606 529.683,555.606 513.5,560C 521.167,567 528.833,574 536.5,581C 541.889,585.389 547.556,589.389 553.5,593C 559.667,598.5 565.833,604 572,609.5C 578.423,618.674 584.09,628.34 589,638.5C 598.788,663.109 604.621,688.609 606.5,715C 605.825,731.869 601.492,747.703 593.5,762.5C 592.711,762.783 592.044,763.283 591.5,764C 593.134,764.494 594.801,764.66 596.5,764.5C 603.201,764.682 609.201,766.849 614.5,771C 619.719,777.218 624.552,783.718 629,790.5C 633.064,794.786 637.897,797.952 643.5,800C 646.319,802.72 645.986,805.053 642.5,807C 635.644,812.007 627.978,814.507 619.5,814.5C 615.167,814.5 610.833,814.5 606.5,814.5C 606.263,815.791 606.596,816.791 607.5,817.5C 609.143,819.708 608.81,821.541 606.5,823C 599.093,824.492 591.593,825.325 584,825.5C 570.833,824.357 557.666,823.19 544.5,822C 528.753,817.882 515.253,810.049 504,798.5C 495.911,789.336 489.577,779.003 485,767.5C 473.056,772.575 460.556,774.908 447.5,774.5C 441.513,773.858 435.513,773.358 429.5,773C 427,772.625 424.667,771.792 422.5,770.5C 418.78,774.733 415.613,779.4 413,784.5C 396.732,800.487 377.065,808.487 354,808.5C 349.103,808.068 344.269,807.234 339.5,806C 337.709,805.585 336.376,804.585 335.5,803C 338.138,800.346 341.138,798.18 344.5,796.5C 345.973,795.928 347.307,795.095 348.5,794C 346.609,793.797 344.943,794.297 343.5,795.5C 334.515,796.911 325.515,796.744 316.5,795C 304.562,791.925 299.562,784.425 301.5,772.5C 312.272,769.781 321.939,764.947 330.5,758C 319.87,750.041 313.37,739.541 311,726.5C 307.602,710.123 307.769,693.789 311.5,677.5C 312.793,675.636 312.793,673.636 311.5,671.5C 310.893,671.624 310.56,671.957 310.5,672.5C 309.013,673.804 307.346,674.97 305.5,676C 298.059,677.01 291.059,675.843 284.5,672.5C 275.52,664.574 271.187,654.574 271.5,642.5C 272.908,618.525 282.242,598.358 299.5,582C 310.392,573.408 322.392,571.241 335.5,575.5C 336.947,576.885 337.947,576.552 338.5,574.5C 338.433,573.041 338.766,571.708 339.5,570.5C 340.757,569.377 340.424,568.711 338.5,568.5C 315.681,566.503 293.348,562.003 271.5,555C 242.136,546.981 214.802,534.648 189.5,518C 175.252,507.086 163.085,494.253 153,479.5C 143.563,463.572 140.896,446.572 145,428.5C 139.772,431.396 134.272,432.062 128.5,430.5C 127.063,426.472 126.397,422.305 126.5,418C 128.512,388.142 139.012,361.642 158,338.5C 167.466,327.852 178.966,320.352 192.5,316C 198.537,315.303 204.537,315.47 210.5,316.5C 211.252,310.492 213.086,304.826 216,299.5C 222.667,288.833 229.333,278.167 236,267.5C 246.355,255.578 258.188,245.412 271.5,237C 349.867,210.135 429.201,206.801 509.5,227C 517.288,230.394 524.955,234.061 532.5,238C 541.167,244.671 550.501,250.338 560.5,255C 565.667,261.5 570.833,268 576,274.5C 579.431,281.886 582.098,289.553 584,297.5C 600.968,293.905 616.801,296.738 631.5,306C 657.957,323.456 680.123,345.29 698,371.5C 700.529,375.926 702.362,380.592 703.5,385.5 Z"/></g>
<g><path style="opacity:1" fill="#fefefe" d="M 689.5,369.5 C 691.394,388.441 683.061,395.941 664.5,392C 659.57,389.912 654.57,388.246 649.5,387C 651.982,389.553 654.315,392.053 656.5,394.5C 656.491,396.308 656.991,397.975 658,399.5C 663.267,403.266 666.767,408.266 668.5,414.5C 666.094,444.812 653.427,469.979 630.5,490C 609.172,505.502 586.172,518.168 561.5,528C 537.744,534.712 514.077,541.712 490.5,549C 467.909,553.643 445.076,556.476 422,557.5C 403.845,556.985 385.678,556.818 367.5,557C 353.151,555.163 338.817,553.163 324.5,551C 281.912,540.25 241.245,524.583 202.5,504C 184.13,492.633 168.63,478.133 156,460.5C 152.008,453.009 150.508,445.009 151.5,436.5C 153.986,428.609 154.986,420.609 154.5,412.5C 152.056,416.118 149.39,419.618 146.5,423C 142.683,424.995 138.683,426.495 134.5,427.5C 133.201,426.91 132.368,425.91 132,424.5C 131.833,422.5 131.667,420.5 131.5,418.5C 132.829,409.519 133.995,400.519 135,391.5C 141.619,374.254 150.285,358.254 161,343.5C 170.072,333.387 180.905,325.887 193.5,321C 200.189,320.622 206.856,320.622 213.5,321C 224.905,285.517 246.572,258.184 278.5,239C 326.787,224.631 376.12,217.964 426.5,219C 447.799,221.481 469.132,224.481 490.5,228C 501.708,230.134 512.375,233.801 522.5,239C 534.166,246.835 546.166,254.169 558.5,261C 569.707,272.248 576.541,285.748 579,301.5C 581.376,308.587 585.043,314.92 590,320.5C 588.297,314.55 586.463,308.55 584.5,302.5C 599.35,299.458 613.35,301.625 626.5,309C 651.248,325.248 672.248,345.414 689.5,369.5 Z"/></g>
<g><path style="opacity:1" fill="#0a0d0e" d="M 618.5,337.5 C 634.542,353.376 653.208,365.543 674.5,374C 676.954,375.74 678.454,377.907 679,380.5C 677.612,381.554 676.112,381.72 674.5,381C 654.654,371.331 636.821,358.831 621,343.5C 619.441,341.783 618.608,339.783 618.5,337.5 Z"/></g>
<g><path style="opacity:1" fill="#dcebf2" d="M 689.5,369.5 C 695.393,376.932 698.726,385.265 699.5,394.5C 685.507,400.14 671.674,399.807 658,393.5C 657.235,393.57 656.735,393.903 656.5,394.5C 654.315,392.053 651.982,389.553 649.5,387C 654.57,388.246 659.57,389.912 664.5,392C 683.061,395.941 691.394,388.441 689.5,369.5 Z"/></g>
<g><path style="opacity:1" fill="#070a0b" d="M 147.5,382.5 C 148.947,383.134 149.613,384.301 149.5,386C 148.047,393.453 146.881,400.953 146,408.5C 144.374,411.128 142.374,413.461 140,415.5C 141.412,404.277 143.912,393.277 147.5,382.5 Z"/></g>
<g><path style="opacity:0.686" fill="#686862" d="M 703.5,385.5 C 704.924,387.515 705.59,389.848 705.5,392.5C 704.076,390.485 703.41,388.152 703.5,385.5 Z"/></g>
<g><path style="opacity:1" fill="#dcecf3" d="M 668.5,414.5 C 671.657,425.264 674.324,436.264 676.5,447.5C 675.399,460.687 670.732,472.354 662.5,482.5C 657.167,487.167 652.167,492.167 647.5,497.5C 636.091,503.71 624.757,510.21 613.5,517C 594.28,523.296 575.614,530.963 557.5,540C 520.924,553.415 483.257,562.081 444.5,566C 434.682,566.81 424.849,567.31 415,567.5C 386.526,565.51 358.026,564.01 329.5,563C 288.931,556.527 250.265,544.193 213.5,526C 189.805,512.97 170.639,495.137 156,472.5C 149.589,460.938 148.089,448.938 151.5,436.5C 150.508,445.009 152.008,453.009 156,460.5C 168.63,478.133 184.13,492.633 202.5,504C 241.245,524.583 281.912,540.25 324.5,551C 338.817,553.163 353.151,555.163 367.5,557C 385.678,556.818 403.845,556.985 422,557.5C 445.076,556.476 467.909,553.643 490.5,549C 514.077,541.712 537.744,534.712 561.5,528C 586.172,518.168 609.172,505.502 630.5,490C 653.427,469.979 666.094,444.812 668.5,414.5 Z"/></g>
<g><path style="opacity:1" fill="#284c5d" d="M 662.5,482.5 C 658.5,488.5 653.5,493.5 647.5,497.5C 652.167,492.167 657.167,487.167 662.5,482.5 Z"/></g>
<g><path style="opacity:1" fill="#dcecf3" d="M 478.5,672.5 C 479.316,674.144 480.65,675.31 482.5,676C 493.934,680.724 504.101,678.891 513,670.5C 512.484,676.348 510.651,681.848 507.5,687C 510.833,689 514.167,689 517.5,687C 527.596,680.224 534.763,671.058 539,659.5C 547.187,642.518 544.353,627.685 530.5,615C 520.216,606.692 508.55,601.359 495.5,599C 490.581,598.198 485.748,598.365 481,599.5C 479.209,602.784 478.042,606.284 477.5,610C 478.872,614.616 480.538,619.116 482.5,623.5C 479.358,625.119 476.024,626.119 472.5,626.5C 473.018,625.423 473.352,624.256 473.5,623C 469.778,615.111 469.778,607.278 473.5,599.5C 473.167,598.5 472.5,597.833 471.5,597.5C 469.364,598.472 468.197,600.139 468,602.5C 467.081,608.966 467.581,615.299 469.5,621.5C 459.019,625.309 450.519,631.642 444,640.5C 430.726,618.269 417.226,596.269 403.5,574.5C 414.63,572.841 425.963,571.841 437.5,571.5C 461.059,569.586 484.392,566.42 507.5,562C 519.747,573.585 532.58,584.418 546,594.5C 546.333,596.047 545.833,597.38 544.5,598.5C 548.847,601.371 552.014,605.371 554,610.5C 566.396,641.748 559.896,668.248 534.5,690C 524.347,698.455 512.68,702.122 499.5,701C 486.796,695.778 479.796,686.278 478.5,672.5 Z"/></g>
<g><path style="opacity:0.118" fill="#cacabf" d="M 338.5,568.5 C 340.424,568.711 340.757,569.377 339.5,570.5C 339.167,569.833 338.833,569.167 338.5,568.5 Z"/></g>
<g><path style="opacity:1" fill="#fefefe" d="M 350.5,568.5 C 352.531,568.972 354.198,569.972 355.5,571.5C 348.201,589.029 343.534,607.362 341.5,626.5C 340.957,626.56 340.624,626.893 340.5,627.5C 343.402,639.705 344.402,652.038 343.5,664.5C 337.267,663.811 331.6,661.644 326.5,658C 319.953,652.954 314.286,647.12 309.5,640.5C 307.682,644.136 305.849,647.802 304,651.5C 302.562,652.718 300.895,653.385 299,653.5C 292.8,651.961 288.466,648.294 286,642.5C 283.921,626.075 287.588,611.075 297,597.5C 303.005,590.663 309.171,583.996 315.5,577.5C 324.715,575.295 332.881,577.295 340,583.5C 341.277,578.507 342.444,573.507 343.5,568.5C 345.833,568.5 348.167,568.5 350.5,568.5 Z"/></g>
<g><path style="opacity:1" fill="#56838f" d="M 350.5,568.5 C 352.5,568.5 354.5,568.5 356.5,568.5C 356.737,569.791 356.404,570.791 355.5,571.5C 354.198,569.972 352.531,568.972 350.5,568.5 Z"/></g>
<g><path style="opacity:1" fill="#dce8e2" d="M 384.5,747.5 C 383.415,745.413 381.749,744.08 379.5,743.5C 376.846,741.591 374.18,739.591 371.5,737.5C 368.833,734.167 365.833,731.167 362.5,728.5C 358.89,722.384 355.057,716.384 351,710.5C 348.215,702.028 346.382,693.361 345.5,684.5C 349.437,684.198 352.437,682.365 354.5,679C 358.134,678.204 360.134,676.037 360.5,672.5C 369.744,695.227 386.577,708.561 411,712.5C 415.943,712.369 419.276,710.036 421,705.5C 421.667,700.5 421.667,695.5 421,690.5C 416.96,682.666 414.293,674.333 413,665.5C 411.296,653.98 409.796,642.48 408.5,631C 398.182,626.92 387.515,624.42 376.5,623.5C 369.904,623.232 363.571,624.399 357.5,627C 355.536,628.451 354.203,630.284 353.5,632.5C 350.992,629.035 348.658,625.369 346.5,621.5C 349.238,604.046 353.572,587.046 359.5,570.5C 362,570.167 364.5,569.833 367,569.5C 377.457,570.851 387.957,571.518 398.5,571.5C 401.759,576.356 404.259,581.69 406,587.5C 410.554,595.574 415.888,603.24 422,610.5C 422.333,611.833 422.667,613.167 423,614.5C 425.241,618.532 427.907,622.198 431,625.5C 434.183,632.223 437.683,638.89 441.5,645.5C 436.062,659.608 436.395,673.608 442.5,687.5C 445.024,689.19 447.024,691.357 448.5,694C 458.616,698.787 468.616,698.62 478.5,693.5C 479.748,694.04 480.915,694.707 482,695.5C 480.68,711.111 480.346,726.777 481,742.5C 481.574,749.111 482.741,755.611 484.5,762C 484.095,762.945 483.428,763.612 482.5,764C 456.041,771.965 430.041,770.632 404.5,760C 398.167,755.14 391.5,750.973 384.5,747.5 Z"/></g>
<g><path style="opacity:1" fill="#214657" d="M 437.5,571.5 C 425.963,571.841 414.63,572.841 403.5,574.5C 402.596,573.791 402.263,572.791 402.5,571.5C 414.167,571.5 425.833,571.5 437.5,571.5 Z"/></g>
<g><path style="opacity:0.553" fill="#93928a" d="M 338.5,574.5 C 337.947,576.552 336.947,576.885 335.5,575.5C 336.609,575.443 337.609,575.11 338.5,574.5 Z"/></g>
<g><path style="opacity:1" fill="#dbebf3" d="M 315.5,577.5 C 309.171,583.996 303.005,590.663 297,597.5C 287.588,611.075 283.921,626.075 286,642.5C 288.466,648.294 292.8,651.961 299,653.5C 300.895,653.385 302.562,652.718 304,651.5C 305.849,647.802 307.682,644.136 309.5,640.5C 314.286,647.12 319.953,652.954 326.5,658C 331.6,661.644 337.267,663.811 343.5,664.5C 344.402,652.038 343.402,639.705 340.5,627.5C 340.624,626.893 340.957,626.56 341.5,626.5C 351.199,635.23 356.699,646.23 358,659.5C 359.809,668.085 356.976,674.585 349.5,679C 336.467,684.992 325.3,682.492 316,671.5C 315.5,670 315,668.5 314.5,667C 316.52,664.379 316.853,661.545 315.5,658.5C 312.756,662.751 309.422,666.585 305.5,670C 299.786,671.57 294.12,671.237 288.5,669C 276.97,657.72 273.47,644.22 278,628.5C 282.014,612.17 289.847,598.003 301.5,586C 305.807,582.517 310.473,579.683 315.5,577.5 Z"/></g>
<g><path style="opacity:1" fill="#fefefe" d="M 478.5,672.5 C 478.042,660.675 477.042,660.675 475.5,672.5C 472.509,680.273 466.676,684.273 458,684.5C 455.105,684.468 452.605,683.468 450.5,681.5C 447.814,678.097 445.147,674.764 442.5,671.5C 441.705,666.851 441.539,662.184 442,657.5C 443.242,651.51 445.242,645.844 448,640.5C 451.167,638.667 453.667,636.167 455.5,633C 460.98,630.059 466.647,627.892 472.5,626.5C 476.024,626.119 479.358,625.119 482.5,623.5C 480.538,619.116 478.872,614.616 477.5,610C 478.042,606.284 479.209,602.784 481,599.5C 485.748,598.365 490.581,598.198 495.5,599C 508.55,601.359 520.216,606.692 530.5,615C 544.353,627.685 547.187,642.518 539,659.5C 534.763,671.058 527.596,680.224 517.5,687C 514.167,689 510.833,689 507.5,687C 510.651,681.848 512.484,676.348 513,670.5C 504.101,678.891 493.934,680.724 482.5,676C 480.65,675.31 479.316,674.144 478.5,672.5 Z"/></g>
<g><path style="opacity:1" fill="#fefefe" d="M 598.5,692.5 C 599.891,721.853 590.557,747.02 570.5,768C 559.762,776.618 547.595,782.118 534,784.5C 518.296,781.468 508.296,772.135 504,756.5C 503.426,749.631 502.592,742.797 501.5,736C 501.833,734.167 502.167,732.333 502.5,730.5C 511.083,737.071 520.75,739.237 531.5,737C 540.772,733.068 548.272,726.901 554,718.5C 555.752,715.328 557.752,712.328 560,709.5C 561.618,705.932 562.951,702.265 564,698.5C 566.3,679.719 566.8,661.052 565.5,642.5C 564.701,628.837 561.368,615.837 555.5,603.5C 556.002,602.479 556.668,602.312 557.5,603C 561.367,607.202 565.533,611.035 570,614.5C 573.327,622.496 577.66,629.829 583,636.5C 586.661,648.151 590.328,659.818 594,671.5C 595.405,678.541 596.905,685.541 598.5,692.5 Z"/></g>
<g><path style="opacity:1" fill="#eaf0e8" d="M 360.5,672.5 C 361.573,666.885 361.74,661.218 361,655.5C 359.593,647.445 357.093,639.779 353.5,632.5C 354.203,630.284 355.536,628.451 357.5,627C 363.571,624.399 369.904,623.232 376.5,623.5C 387.515,624.42 398.182,626.92 408.5,631C 409.796,642.48 411.296,653.98 413,665.5C 414.293,674.333 416.96,682.666 421,690.5C 421.667,695.5 421.667,700.5 421,705.5C 419.276,710.036 415.943,712.369 411,712.5C 386.577,708.561 369.744,695.227 360.5,672.5 Z"/></g>
<g><path style="opacity:1" fill="#dcecf3" d="M 565.5,642.5 C 566.8,661.052 566.3,679.719 564,698.5C 562.951,702.265 561.618,705.932 560,709.5C 557.752,712.328 555.752,715.328 554,718.5C 548.272,726.901 540.772,733.068 531.5,737C 520.75,739.237 511.083,737.071 502.5,730.5C 502.167,732.333 501.833,734.167 501.5,736C 502.592,742.797 503.426,749.631 504,756.5C 508.296,772.135 518.296,781.468 534,784.5C 547.595,782.118 559.762,776.618 570.5,768C 590.557,747.02 599.891,721.853 598.5,692.5C 603.668,717.492 599.501,740.826 586,762.5C 585.175,764.701 585.675,766.534 587.5,768C 598.604,767.364 607.771,771.197 615,779.5C 618.98,786.624 623.814,793.124 629.5,799C 632.661,800.413 635.661,802.08 638.5,804C 634.952,805.941 631.286,807.607 627.5,809C 619.193,809.999 610.86,810.832 602.5,811.5C 601.423,814.474 601.423,817.474 602.5,820.5C 583.395,820.922 564.395,819.756 545.5,817C 534.801,813.483 524.801,808.65 515.5,802.5C 513.167,799.5 510.5,796.833 507.5,794.5C 491.098,775.322 483.432,752.989 484.5,727.5C 484.49,718.091 485.323,708.757 487,699.5C 493.371,705.304 500.871,707.47 509.5,706C 520.99,704.087 530.99,699.254 539.5,691.5C 542.833,688.833 545.833,685.833 548.5,682.5C 556.689,670.778 561.856,657.778 564,643.5C 564.383,642.944 564.883,642.611 565.5,642.5 Z"/></g>
<g><path style="opacity:0.18" fill="#a3a29a" d="M 310.5,672.5 C 310.56,671.957 310.893,671.624 311.5,671.5C 312.793,673.636 312.793,675.636 311.5,677.5C 311.784,675.585 311.451,673.919 310.5,672.5 Z"/></g>
<g><path style="opacity:1" fill="#d9eaf1" d="M 442.5,671.5 C 445.147,674.764 447.814,678.097 450.5,681.5C 452.605,683.468 455.105,684.468 458,684.5C 466.676,684.273 472.509,680.273 475.5,672.5C 475.532,677.945 476.032,683.278 477,688.5C 473.472,691.584 469.306,693.251 464.5,693.5C 458.194,693.511 452.527,691.677 447.5,688C 444.363,682.955 442.697,677.455 442.5,671.5 Z"/></g>
<g><path style="opacity:1" fill="#dbecf3" d="M 349.5,717.5 C 349.122,720.022 348.289,722.355 347,724.5C 338.527,720.366 330.86,715.032 324,708.5C 323.242,714.891 323.576,721.224 325,727.5C 327.333,732.167 329.667,736.833 332,741.5C 338.772,748.117 345.939,754.117 353.5,759.5C 344.842,759.336 337.175,756.503 330.5,751C 328.037,747.535 325.204,744.369 322,741.5C 312.917,721.081 311.25,700.081 317,678.5C 323.898,685.032 332.065,687.698 341.5,686.5C 342.151,697.438 344.817,707.772 349.5,717.5 Z"/></g>
<g><path style="opacity:1" fill="#335869" d="M 548.5,682.5 C 545.833,685.833 542.833,688.833 539.5,691.5C 541.5,687.5 544.5,684.5 548.5,682.5 Z"/></g>
<g><path style="opacity:1" fill="#fcfcfd" d="M 349.5,717.5 C 354.089,721.292 357.756,725.959 360.5,731.5C 362.5,735.5 365.5,738.5 369.5,740.5C 373.108,741.759 375.441,744.092 376.5,747.5C 379.163,754.327 382.497,760.827 386.5,767C 376.544,768.177 367.211,766.344 358.5,761.5C 356.447,761.598 354.78,760.931 353.5,759.5C 345.939,754.117 338.772,748.117 332,741.5C 329.667,736.833 327.333,732.167 325,727.5C 323.576,721.224 323.242,714.891 324,708.5C 330.86,715.032 338.527,720.366 347,724.5C 348.289,722.355 349.122,720.022 349.5,717.5 Z"/></g>
<g><path style="opacity:1" fill="#627475" d="M 362.5,728.5 C 365.833,731.167 368.833,734.167 371.5,737.5C 367.5,735.5 364.5,732.5 362.5,728.5 Z"/></g>
<g><path style="opacity:1" fill="#8badb6" d="M 360.5,731.5 C 363.833,734.167 366.833,737.167 369.5,740.5C 365.5,738.5 362.5,735.5 360.5,731.5 Z"/></g>
<g><path style="opacity:1" fill="#687a7b" d="M 379.5,743.5 C 381.749,744.08 383.415,745.413 384.5,747.5C 382.251,746.92 380.585,745.587 379.5,743.5 Z"/></g>
<g><path style="opacity:1" fill="#dbecf3" d="M 376.5,747.5 C 386.948,753.896 397.615,760.062 408.5,766C 410.813,766.662 413.146,767.162 415.5,767.5C 415.66,769.199 415.494,770.866 415,772.5C 408.073,783.563 398.573,791.73 386.5,797C 372.775,801.685 358.775,803.352 344.5,802C 346.396,799.932 348.396,798.099 350.5,796.5C 353.833,795.167 356.167,792.833 357.5,789.5C 360.812,786.854 363.812,783.854 366.5,780.5C 366.113,779.28 365.28,778.613 364,778.5C 362.357,779.315 360.857,780.315 359.5,781.5C 359.528,778.749 360.528,776.415 362.5,774.5C 351.538,772.182 341.205,768.516 331.5,763.5C 332.479,761.855 333.812,760.521 335.5,759.5C 342.062,762.14 348.729,764.474 355.5,766.5C 356.442,766.392 357.275,766.059 358,765.5C 357.645,764.041 357.811,762.707 358.5,761.5C 367.211,766.344 376.544,768.177 386.5,767C 382.497,760.827 379.163,754.327 376.5,747.5 Z"/></g>
<g><path style="opacity:0.039" fill="#dad9cd" d="M 593.5,762.5 C 594.5,763.167 595.5,763.833 596.5,764.5C 594.801,764.66 593.134,764.494 591.5,764C 592.044,763.283 592.711,762.783 593.5,762.5 Z"/></g>
<g><path style="opacity:1" fill="#f4f7f8" d="M 331.5,763.5 C 341.205,768.516 351.538,772.182 362.5,774.5C 360.528,776.415 359.528,778.749 359.5,781.5C 354.576,786.465 348.576,789.631 341.5,791C 335.167,791.667 328.833,791.667 322.5,791C 315.818,790.409 310.318,787.576 306,782.5C 305.503,780.19 305.337,777.857 305.5,775.5C 307.564,775.313 309.564,774.813 311.5,774C 318.105,770.199 324.772,766.699 331.5,763.5 Z"/></g>
<g><path style="opacity:1" fill="#fefefe" d="M 577.5,780.5 C 592.945,777.899 605.612,782.566 615.5,794.5C 608.527,799.993 600.527,802.826 591.5,803C 591.043,803.414 590.709,803.914 590.5,804.5C 594.481,811.958 592.481,814.125 584.5,811C 574.633,805.789 565.967,799.122 558.5,791C 558.99,789.018 559.99,787.351 561.5,786C 566.846,783.83 572.179,781.997 577.5,780.5 Z"/></g>
<g><path style="opacity:1" fill="#4c6c7b" d="M 357.5,789.5 C 356.167,792.833 353.833,795.167 350.5,796.5C 352.5,793.833 354.833,791.5 357.5,789.5 Z"/></g>
<g><path style="opacity:0.165" fill="#b2b1a8" d="M 344.5,796.5 C 344.5,795.833 344.167,795.5 343.5,795.5C 344.943,794.297 346.609,793.797 348.5,794C 347.307,795.095 345.973,795.928 344.5,796.5 Z"/></g>
<g><path style="opacity:1" fill="#294e5f" d="M 507.5,794.5 C 510.5,796.833 513.167,799.5 515.5,802.5C 511.833,800.833 509.167,798.167 507.5,794.5 Z"/></g>
<g><path style="opacity:0.282" fill="#b1b0a7" d="M 619.5,814.5 C 615.232,814.869 611.232,815.869 607.5,817.5C 606.596,816.791 606.263,815.791 606.5,814.5C 610.833,814.5 615.167,814.5 619.5,814.5 Z"/></g>

        
<g><path style="opacity:0.957" fill="#020202" d="M 492.5,247.5 C 518.036,247.341 536.869,258.341 549,280.5C 553.515,288.881 557.348,297.548 560.5,306.5C 580.242,322.468 585.075,342.135 575,365.5C 572.44,370.116 569.273,374.282 565.5,378C 559.833,378.333 554.167,378.667 548.5,379C 532.92,382.86 517.586,387.527 502.5,393C 487.559,400.719 472.726,408.553 458,416.5C 454.948,415.289 451.781,414.455 448.5,414C 441.357,407.927 433.69,402.594 425.5,398C 420.197,391.208 415.031,384.375 410,377.5C 408.789,383.132 406.789,388.466 404,393.5C 397.729,399.968 390.562,401.135 382.5,397C 378.252,394.757 374.586,391.757 371.5,388C 368.577,386.29 365.577,386.123 362.5,387.5C 357.09,397.358 349.09,400.191 338.5,396C 336.04,394.542 333.873,392.709 332,390.5C 329.522,382.254 327.522,373.921 326,365.5C 320.148,383.041 311.315,398.874 299.5,413C 296.163,415.671 292.496,417.837 288.5,419.5C 285.681,417.718 283.681,415.218 282.5,412C 275.993,407.914 269.66,403.58 263.5,399C 245.723,388.644 226.723,384.977 206.5,388C 204.615,385.061 203.115,381.895 202,378.5C 199.281,359.042 203.615,341.375 215,325.5C 215.811,303.71 224.644,286.21 241.5,273C 247.839,268.496 254.839,265.662 262.5,264.5C 266.961,265.153 271.294,266.32 275.5,268C 295.875,282.044 310.709,300.544 320,323.5C 324.116,333.515 327.616,343.682 330.5,354C 348.492,364.612 367.492,367.279 387.5,362C 391.821,361.501 396.154,361.334 400.5,361.5C 397.258,348.95 396.758,336.284 399,323.5C 401.262,314.712 403.929,306.046 407,297.5C 410.946,291.221 415.279,285.221 420,279.5C 440.443,260.191 464.61,249.524 492.5,247.5 Z"/></g>
<g><path style="opacity:1" fill="#1b1b1b" d="M 491.5,251.5 C 512.865,250.933 529.698,259.266 542,276.5C 546.498,283.995 550.331,291.829 553.5,300C 553.167,300.5 552.833,301 552.5,301.5C 519.409,280.417 485.409,278.917 450.5,297C 445.732,301.769 440.399,305.769 434.5,309C 422.693,321.445 413.526,335.612 407,351.5C 406.393,354.202 406.56,356.868 407.5,359.5C 407.444,360.737 406.944,361.737 406,362.5C 403.451,358.185 402.118,353.519 402,348.5C 400.755,329.153 404.422,310.819 413,293.5C 417.194,288.94 421.028,284.106 424.5,279C 431.007,274.914 437.34,270.58 443.5,266C 458.431,257.108 474.431,252.275 491.5,251.5 Z"/></g>
<g><path style="opacity:1" fill="#1b1b1b" d="M 256.5,269.5 C 263.393,268.655 269.727,270.155 275.5,274C 299.943,292.441 315.443,316.607 322,346.5C 315.942,336.442 309.108,326.942 301.5,318C 298.167,315.333 294.833,312.667 291.5,310C 285.132,308.102 279.132,305.435 273.5,302C 252.722,297.821 234.889,303.321 220,318.5C 221.281,302.771 227.781,289.604 239.5,279C 244.938,275.284 250.605,272.118 256.5,269.5 Z"/></g>
<g><path style="opacity:1" fill="#f5f4e7" d="M 485.5,290.5 C 498.715,289.757 511.715,290.924 524.5,294C 536.342,298.72 547.675,304.387 558.5,311C 574.454,323.985 578.954,340.152 572,359.5C 571.152,361.874 569.819,363.874 568,365.5C 551.898,352.421 534.065,342.255 514.5,335C 496.911,330.718 480.244,333.051 464.5,342C 453.109,351.471 446.609,363.638 445,378.5C 444.667,387.5 444.333,396.5 444,405.5C 426.579,396.662 415.912,382.662 412,363.5C 411.174,358.411 411.508,353.411 413,348.5C 419.809,335.709 427.976,323.876 437.5,313C 443.693,309.738 449.36,305.738 454.5,301C 458.5,299 462.5,297 466.5,295C 473.116,294.187 479.45,292.687 485.5,290.5 Z"/></g>
<g><path style="opacity:1" fill="#f4f3e6" d="M 253.5,305.5 C 259.577,305.196 265.577,305.696 271.5,307C 277.456,310.765 283.789,313.765 290.5,316C 296.662,321.162 302.495,326.662 308,332.5C 312.333,339.833 316.667,347.167 321,354.5C 322.248,362.796 321.248,370.796 318,378.5C 312.651,387.877 306.818,396.877 300.5,405.5C 302.259,378.186 291.259,357.686 267.5,344C 247.309,340.175 230.809,346.341 218,362.5C 213.818,368.199 210.152,374.199 207,380.5C 203.492,363.884 206.159,348.217 215,333.5C 219.456,327.375 224.289,321.542 229.5,316C 237.041,311.217 245.041,307.717 253.5,305.5 Z"/></g>
<g><path style="opacity:1" fill="#1b1b1b" d="M 328.5,359.5 C 328.735,358.903 329.235,358.57 330,358.5C 339.985,363.606 350.485,367.106 361.5,369C 366.5,369.667 371.5,369.667 376.5,369C 384.799,366.081 393.133,365.414 401.5,367C 406.883,376.063 406.217,384.729 399.5,393C 389.58,396.899 381.247,394.566 374.5,386C 370.619,382.357 366.285,381.69 361.5,384C 358.462,386.703 355.795,389.703 353.5,393C 348.411,393.826 343.411,393.492 338.5,392C 336.951,390.786 335.785,389.286 335,387.5C 332.764,379.317 331.43,370.984 331,362.5C 330.623,361.058 329.79,360.058 328.5,359.5 Z"/></g>

        
<g><path style="opacity:0.983" fill="#212120" d="M 592.5,349.5 C 591.89,348.609 591.557,347.609 591.5,346.5C 599.093,346.538 605.593,349.538 611,355.5C 613.002,360.007 614.502,364.674 615.5,369.5C 615.02,373.293 613.353,376.46 610.5,379C 604.352,382.078 598.019,384.578 591.5,386.5C 585.054,385.936 578.72,384.77 572.5,383C 564.833,382.333 557.167,382.333 549.5,383C 541.284,384.787 533.618,387.62 526.5,391.5C 526.631,390.624 526.298,389.957 525.5,389.5C 524.261,389.942 523.261,390.609 522.5,391.5C 521.791,392.404 520.791,392.737 519.5,392.5C 515.838,392.723 512.505,393.723 509.5,395.5C 506.759,395.707 504.426,396.707 502.5,398.5C 502.158,399.338 501.492,399.672 500.5,399.5C 495.914,400.46 491.914,402.46 488.5,405.5C 488.158,406.338 487.492,406.672 486.5,406.5C 484.973,406.427 483.973,407.094 483.5,408.5C 481.326,408.75 479.659,409.75 478.5,411.5C 477.167,411.5 476.5,412.167 476.5,413.5C 475.878,414.627 475.045,415.627 474,416.5C 472.951,415.483 471.784,415.316 470.5,416C 465.147,418.701 459.814,421.368 454.5,424C 422.871,431.862 391.038,433.695 359,429.5C 340.208,432.375 321.708,431.042 303.5,425.5C 300.905,426.237 298.238,426.237 295.5,425.5C 295.953,424.542 296.619,423.708 297.5,423C 296.906,422.536 296.239,422.369 295.5,422.5C 291.703,422.128 288.37,420.794 285.5,418.5C 282.485,416.326 279.151,414.659 275.5,413.5C 274.415,411.413 272.749,410.08 270.5,409.5C 269.508,409.672 268.842,409.338 268.5,408.5C 268.027,407.094 267.027,406.427 265.5,406.5C 264.352,403.913 262.685,402.913 260.5,403.5C 251.198,397.055 240.864,392.722 229.5,390.5C 219.197,391.724 208.863,392.224 198.5,392C 183.151,388.16 174.651,378.326 173,362.5C 172.333,357.833 172.333,353.167 173,348.5C 173.036,346.059 173.869,344.059 175.5,342.5C 176.086,342.709 176.586,343.043 177,343.5C 176.529,354.347 178.529,364.681 183,374.5C 188.543,381.974 196.043,385.974 205.5,386.5C 232.733,382.303 256.733,389.137 277.5,407C 291.297,414.71 305.964,420.044 321.5,423C 345.953,423.754 370.453,424.587 395,425.5C 414.476,425.449 433.642,422.949 452.5,418C 469.5,409 486.5,400 503.5,391C 518.586,385.527 533.92,380.86 549.5,377C 557.5,376.333 565.5,376.333 573.5,377C 580.063,378.986 586.73,379.986 593.5,380C 597.749,377.806 602.082,375.806 606.5,374C 607.872,372.758 608.872,371.258 609.5,369.5C 608.098,365.461 606.598,361.461 605,357.5C 600.684,354.934 596.517,352.267 592.5,349.5 Z"/></g>
<g><path style="opacity:0.231" fill="#9b9b93" d="M 591.5,346.5 C 591.557,347.609 591.89,348.609 592.5,349.5C 590.448,348.947 590.115,347.947 591.5,346.5 Z"/></g>
<g><path style="opacity:0.012" fill="#b3b2a9" d="M 526.5,391.5 C 525.472,391.926 524.139,391.926 522.5,391.5C 523.261,390.609 524.261,389.942 525.5,389.5C 526.298,389.957 526.631,390.624 526.5,391.5 Z"/></g>
<g><path style="opacity:0.149" fill="#d6d5ca" d="M 519.5,392.5 C 516.495,394.277 513.162,395.277 509.5,395.5C 512.505,393.723 515.838,392.723 519.5,392.5 Z"/></g>
<g><path style="opacity:0.196" fill="#d2d1c6" d="M 509.5,395.5 C 507.574,397.293 505.241,398.293 502.5,398.5C 504.426,396.707 506.759,395.707 509.5,395.5 Z"/></g>
<g><path style="opacity:0.294" fill="#a8a79f" d="M 260.5,403.5 C 262.685,402.913 264.352,403.913 265.5,406.5C 263.589,405.925 261.922,404.925 260.5,403.5 Z"/></g>
<g><path style="opacity:0.173" fill="#d8d7cc" d="M 500.5,399.5 C 496.818,402.008 492.818,404.008 488.5,405.5C 491.914,402.46 495.914,400.46 500.5,399.5 Z"/></g>
<g><path style="opacity:0.235" fill="#d1d0c5" d="M 265.5,406.5 C 267.027,406.427 268.027,407.094 268.5,408.5C 266.973,408.573 265.973,407.906 265.5,406.5 Z"/></g>
<g><path style="opacity:0.141" fill="#dfded2" d="M 486.5,406.5 C 486.027,407.906 485.027,408.573 483.5,408.5C 483.973,407.094 484.973,406.427 486.5,406.5 Z"/></g>
<g><path style="opacity:0.067" fill="#d3d2c7" d="M 483.5,408.5 C 482.341,410.25 480.674,411.25 478.5,411.5C 479.659,409.75 481.326,408.75 483.5,408.5 Z"/></g>
<g><path style="opacity:0.012" fill="#d5d4c9" d="M 478.5,411.5 C 478.167,412.5 477.5,413.167 476.5,413.5C 476.5,412.167 477.167,411.5 478.5,411.5 Z"/></g>
<g><path style="opacity:0.322" fill="#b9b8af" d="M 270.5,409.5 C 272.749,410.08 274.415,411.413 275.5,413.5C 273.251,412.92 271.585,411.587 270.5,409.5 Z"/></g>
<g><path style="opacity:0.196" fill="#d0d0c5" d="M 275.5,413.5 C 279.151,414.659 282.485,416.326 285.5,418.5C 281.58,417.873 278.247,416.207 275.5,413.5 Z"/></g>
<g><path style="opacity:0.027" fill="#d9d8cd" d="M 295.5,422.5 C 296.239,422.369 296.906,422.536 297.5,423C 296.619,423.708 295.953,424.542 295.5,425.5C 294.375,424.652 294.375,423.652 295.5,422.5 Z"/></g>

        
<g><path style="opacity:0.991" fill="#212120" d="M 344.5,175.5 C 351.144,185.439 357.311,195.772 363,206.5C 368.262,210.091 372.429,214.591 375.5,220C 373.738,228.307 368.572,232.141 360,231.5C 358.106,231.42 356.273,231.087 354.5,230.5C 344.08,219.095 338.414,205.595 337.5,190C 337.607,183.955 339.94,179.122 344.5,175.5 Z"/></g>
<g><path style="opacity:1" fill="#f0efe2" d="M 360.5,210.5 C 360.5,212.5 360.5,214.5 360.5,216.5C 357.315,216.98 354.481,216.314 352,214.5C 349.696,206.742 346.529,199.408 342.5,192.5C 342.192,190.076 342.526,187.743 343.5,185.5C 344.5,184.167 345.5,184.167 346.5,185.5C 350.925,194.022 355.592,202.356 360.5,210.5 Z"/></g>
<g><path style="opacity:0.992" fill="#1c1c1b" d="M 392.5,187.5 C 394.39,187.297 395.89,187.963 397,189.5C 401.387,198.534 407.221,206.368 414.5,213C 398.563,220.196 390.563,215.029 390.5,197.5C 390.253,193.865 390.92,190.532 392.5,187.5 Z"/></g>
<g><path style="opacity:1" fill="#d9d8cb" d="M 342.5,192.5 C 346.529,199.408 349.696,206.742 352,214.5C 354.481,216.314 357.315,216.98 360.5,216.5C 360.5,214.5 360.5,212.5 360.5,210.5C 374.506,219.653 373.172,225.153 356.5,227C 348.282,216.986 343.616,205.486 342.5,192.5 Z"/></g>
<g><path style="opacity:1" fill="#cfcec3" d="M 394.5,196.5 C 395.496,196.414 396.329,196.748 397,197.5C 399.215,202.1 402.048,206.266 405.5,210C 402.007,211.004 398.841,210.504 396,208.5C 394.734,204.605 394.234,200.605 394.5,196.5 Z"/></g>
<g><path style="opacity:0.992" fill="#1e1e1c" d="M 311.5,207.5 C 312.376,207.369 313.043,207.702 313.5,208.5C 320.836,223.674 330.503,237.174 342.5,249C 345.722,251.888 349.222,254.388 353,256.5C 350.787,270.352 342.62,276.185 328.5,274C 313.783,259.373 306.616,241.539 307,220.5C 307.739,215.863 309.239,211.529 311.5,207.5 Z"/></g>
<g><path style="opacity:1" fill="#f0efe3" d="M 338.5,252.5 C 339.171,253.847 339.171,255.014 338.5,256C 334.694,259.158 330.36,260.492 325.5,260C 324.529,258.519 323.196,257.685 321.5,257.5C 316.86,248.407 313.694,238.74 312,228.5C 311.11,224.618 311.61,220.952 313.5,217.5C 319.918,230.577 328.252,242.244 338.5,252.5 Z"/></g>
<g><path style="opacity:1" fill="#d9d8cb" d="M 338.5,252.5 C 341.767,254.427 344.767,256.761 347.5,259.5C 343.949,267.111 337.949,270.277 329.5,269C 326.223,265.563 323.557,261.729 321.5,257.5C 323.196,257.685 324.529,258.519 325.5,260C 330.36,260.492 334.694,259.158 338.5,256C 339.171,255.014 339.171,253.847 338.5,252.5 Z"/></g>

    </svg>
