
    <svg width="862" height="862" viewBox="0 0 862 862" fill="none" xmlns="http://www.w3.org/2000/svg">
        
<g><path style="opacity:1" fill="#f6f6e8" d="M -0.5,-0.5 C 286.833,-0.5 574.167,-0.5 861.5,-0.5C 861.5,286.833 861.5,574.167 861.5,861.5C 574.167,861.5 286.833,861.5 -0.5,861.5C -0.5,574.167 -0.5,286.833 -0.5,-0.5 Z"/></g>

        
<g><path style="opacity:0.983" fill="#1a1a19" d="M 578.5,540.5 C 583.993,540.916 589.326,542.082 594.5,544C 599.237,547.614 603.403,551.781 607,556.5C 613.977,570.057 616.311,584.39 614,599.5C 611.931,603.236 608.931,605.903 605,607.5C 603.018,607.01 601.351,606.01 600,604.5C 594.275,609.717 588.442,609.717 582.5,604.5C 577.923,613.337 572.256,614.337 565.5,607.5C 561.53,612.973 556.196,614.806 549.5,613C 548.299,612.097 547.465,610.931 547,609.5C 541.931,617.452 536.764,617.452 531.5,609.5C 527.737,613.765 523.737,617.932 519.5,622C 516.106,622.752 512.773,622.585 509.5,621.5C 508.194,620.088 507.36,618.421 507,616.5C 505.425,609.568 504.258,602.568 503.5,595.5C 504.335,583.317 510.669,578.317 522.5,580.5C 523.795,579.902 525.128,579.402 526.5,579C 535.197,570.637 543.531,561.97 551.5,553C 559.592,546.617 568.592,542.45 578.5,540.5 Z"/></g>
<g><path style="opacity:1" fill="#d9d8cb" d="M 587.5,601.5 C 588.496,601.586 589.329,601.252 590,600.5C 592.94,596.545 595.94,592.545 599,588.5C 599.37,579.339 598.37,570.339 596,561.5C 591.36,554.156 584.693,549.822 576,548.5C 573.538,549.159 571.038,549.493 568.5,549.5C 581.297,543.74 592.13,546.407 601,557.5C 608.853,570.951 611.186,585.285 608,600.5C 606.604,602.527 604.938,602.86 603,601.5C 602.091,598.089 601.091,594.755 600,591.5C 598.35,595.573 596.516,599.573 594.5,603.5C 591.584,604.861 589.251,604.195 587.5,601.5 Z"/></g>
<g><path style="opacity:1" fill="#f4f3e6" d="M 587.5,601.5 C 585.433,599.682 584.1,597.349 583.5,594.5C 582.635,593.417 581.635,593.251 580.5,594C 579.955,598.074 578.621,601.907 576.5,605.5C 574.878,607.439 573.044,607.772 571,606.5C 568.863,602.486 567.03,598.486 565.5,594.5C 564.522,594.977 563.689,595.643 563,596.5C 563.284,605.334 559.118,609.667 550.5,609.5C 550.348,605.228 549.348,601.228 547.5,597.5C 545.179,600.394 544.012,603.727 544,607.5C 541.618,612.067 538.951,612.4 536,608.5C 535.887,606.026 534.887,604.026 533,602.5C 527.856,607.313 523.023,612.48 518.5,618C 516.098,618.814 513.765,618.647 511.5,617.5C 508.811,609.37 507.645,601.036 508,592.5C 508.668,588.501 510.835,585.668 514.5,584C 518.801,584.363 523.134,584.363 527.5,584C 529.167,583 530.833,582 532.5,581C 540.864,572.97 548.864,564.637 556.5,556C 560.367,553.567 564.367,551.4 568.5,549.5C 571.038,549.493 573.538,549.159 576,548.5C 584.693,549.822 591.36,554.156 596,561.5C 598.37,570.339 599.37,579.339 599,588.5C 595.94,592.545 592.94,596.545 590,600.5C 589.329,601.252 588.496,601.586 587.5,601.5 Z"/></g>
<g><path style="opacity:0.982" fill="#191918" d="M 290.5,554.5 C 298.253,554.104 305.92,554.604 313.5,556C 315.5,557.333 317.5,558.667 319.5,560C 322.228,566.042 326.895,569.709 333.5,571C 335.378,572.543 336.878,574.376 338,576.5C 338.242,583.196 338.742,589.862 339.5,596.5C 339.461,598.587 338.461,599.921 336.5,600.5C 332.274,599.93 328.108,599.263 324,598.5C 322.5,600 321,601.5 319.5,603C 317.287,603.626 315.12,603.459 313,602.5C 306.564,605.689 301.23,604.356 297,598.5C 284.481,607.161 276.648,603.994 273.5,589C 271.944,573.778 277.611,562.278 290.5,554.5 Z"/></g>
<g><path style="opacity:1" fill="#f4f3e6" d="M 334.5,587.5 C 334.5,590.167 334.5,592.833 334.5,595.5C 333.167,595.5 331.833,595.5 330.5,595.5C 327.482,595.335 324.482,595.502 321.5,596C 320.022,598.039 318.022,598.872 315.5,598.5C 315.5,597.5 315.5,596.5 315.5,595.5C 312.326,596.015 309.326,597.015 306.5,598.5C 305.5,598.333 304.5,598.167 303.5,598C 301.441,595.366 299.275,592.866 297,590.5C 296.292,591.381 295.458,592.047 294.5,592.5C 290.404,593.285 287.07,592.118 284.5,589C 284.833,588.667 285.167,588.333 285.5,588C 283.667,587.5 282.5,586.333 282,584.5C 281.501,580.179 281.334,575.846 281.5,571.5C 281.709,570.078 282.209,568.745 283,567.5C 286.167,565 289.333,562.5 292.5,560C 298.167,559.333 303.833,559.333 309.5,560C 314.42,562.916 318.753,566.582 322.5,571C 326.232,572.461 329.732,574.294 333,576.5C 333.936,580.114 334.436,583.78 334.5,587.5 Z"/></g>
<g><path style="opacity:1" fill="#d7d6c9" d="M 281.5,571.5 C 281.334,575.846 281.501,580.179 282,584.5C 282.5,586.333 283.667,587.5 285.5,588C 285.167,588.333 284.833,588.667 284.5,589C 287.07,592.118 290.404,593.285 294.5,592.5C 293.641,595.452 291.641,597.285 288.5,598C 285.364,599.041 282.864,598.207 281,595.5C 279.409,588.608 279.076,581.608 280,574.5C 280.232,573.263 280.732,572.263 281.5,571.5 Z"/></g>
<g><path style="opacity:1" fill="#64635e" d="M 334.5,587.5 C 335.477,590.287 335.81,593.287 335.5,596.5C 333.585,596.784 331.919,596.451 330.5,595.5C 331.833,595.5 333.167,595.5 334.5,595.5C 334.5,592.833 334.5,590.167 334.5,587.5 Z"/></g>

        
<g><path style="opacity:0.996" fill="#140d09" d="M 505.5,18.5 C 529.919,17.7264 553.919,20.5598 577.5,27C 609.101,35.4222 639.767,46.4222 669.5,60C 698.643,78.4613 725.476,99.9613 750,124.5C 769.217,147.939 781.717,174.606 787.5,204.5C 787.255,206.663 786.255,208.33 784.5,209.5C 759.247,199.852 733.247,192.685 706.5,188C 674.881,182.925 645.214,188.259 617.5,204C 595.206,220.746 581.706,242.913 577,270.5C 573.386,276.063 568.219,279.23 561.5,280C 535.059,282.696 509.726,278.696 485.5,268C 468.941,259.107 453.775,248.273 440,235.5C 437.168,231.336 435.001,226.836 433.5,222C 433.645,221.228 433.978,220.561 434.5,220C 452.214,214.488 469.881,208.821 487.5,203C 509.336,194.838 527.502,181.671 542,163.5C 552.415,149.418 554.082,134.418 547,118.5C 546.505,116.527 546.338,114.527 546.5,112.5C 552.944,108.776 559.611,105.276 566.5,102C 576.482,99.0056 586.482,96.339 596.5,94C 561.281,62.2167 520.614,40.05 474.5,27.5C 473.417,26.635 473.251,25.635 474,24.5C 475.816,23.6705 477.649,22.8372 479.5,22C 488.308,20.784 496.974,19.6174 505.5,18.5 Z"/></g>
<g><path style="opacity:1" fill="#824125" d="M 534.5,181.5 C 534.611,182.117 534.944,182.617 535.5,183C 533.045,185.404 531.212,188.238 530,191.5C 526,196.833 521.333,201.5 516,205.5C 515.439,204.978 514.772,204.645 514,204.5C 511.6,206.2 508.934,207.533 506,208.5C 505.055,208.095 504.388,207.428 504,206.5C 502.129,208.303 499.962,209.636 497.5,210.5C 496.914,210.291 496.414,209.957 496,209.5C 495.558,211.679 494.558,212.345 493,211.5C 491.601,212.227 490.101,212.727 488.5,213C 488.833,213.333 489.167,213.667 489.5,214C 487.02,214.915 486.353,216.415 487.5,218.5C 486.021,220.765 484.687,223.099 483.5,225.5C 485.42,227.666 486.586,230.666 487,234.5C 487.914,233.346 488.747,233.513 489.5,235C 489.167,235.333 488.833,235.667 488.5,236C 491.22,236.723 493.387,238.223 495,240.5C 495.333,240.167 495.667,239.833 496,239.5C 497.194,241.525 498.694,241.859 500.5,240.5C 504.237,242.444 507.737,242.778 511,241.5C 511.667,242.167 512.333,242.833 513,243.5C 516.06,244.568 519.393,244.568 523,243.5C 524.555,245.146 526.221,245.479 528,244.5C 528.667,245.167 529.333,245.833 530,246.5C 532.012,246.475 534.012,246.475 536,246.5C 538.399,249.023 541.065,250.356 544,250.5C 545.399,249.773 546.899,249.273 548.5,249C 548.167,248.667 547.833,248.333 547.5,248C 548.76,246.887 549.927,246.72 551,247.5C 554.864,243.616 558.364,239.45 561.5,235C 560.756,232.149 560.756,229.483 561.5,227C 562.672,226.581 563.672,225.915 564.5,225C 564.507,223.417 564.174,221.751 563.5,220C 566.429,215.885 568.596,211.385 570,206.5C 571.131,207.604 571.965,207.271 572.5,205.5C 571.128,203.38 571.795,202.38 574.5,202.5C 575.556,198.832 576.722,195.165 578,191.5C 578.667,194.167 579.333,194.167 580,191.5C 580.988,188.576 581.654,185.576 582,182.5C 582.333,183.5 582.667,184.5 583,185.5C 584.119,182.943 584.285,180.443 583.5,178C 588.448,172.409 589.782,165.909 587.5,158.5C 586.081,156.664 584.914,154.664 584,152.5C 583.586,152.957 583.086,153.291 582.5,153.5C 581.646,152.478 580.646,151.645 579.5,151C 577.109,150.713 574.776,150.213 572.5,149.5C 570.554,151.087 569.054,150.754 568,148.5C 566.364,152.011 565.197,152.344 564.5,149.5C 561.539,150.183 561.205,151.016 563.5,152C 561.079,154.094 558.412,155.76 555.5,157C 556.654,157.914 556.487,158.747 555,159.5C 554.667,159.167 554.333,158.833 554,158.5C 552.887,159.76 552.72,160.927 553.5,162C 551.751,162.785 550.084,163.618 548.5,164.5C 558.396,149.261 560.063,133.095 553.5,116C 556.103,112.692 559.436,110.359 563.5,109C 575.456,104.475 587.789,101.475 600.5,100C 603.661,97.9207 604.328,95.0873 602.5,91.5C 569.367,60.9222 531.034,39.0888 487.5,26C 492.051,24.7852 496.718,24.1186 501.5,24C 529.033,22.7422 556.033,26.0755 582.5,34C 611.325,42.1631 639.325,52.4964 666.5,65C 697.353,84.5175 725.186,107.684 750,134.5C 765.051,154.603 775.218,176.936 780.5,201.5C 764.34,196.17 748.006,191.336 731.5,187C 702.541,180.229 673.541,179.896 644.5,186C 603.461,199.42 579.461,227.42 572.5,270C 568.05,272.261 563.383,273.928 558.5,275C 532.793,277.222 508.46,272.555 485.5,261C 470.334,252.665 456.5,242.498 444,230.5C 442.833,228.167 441.667,225.833 440.5,223.5C 453.443,219.514 466.443,215.68 479.5,212C 499.666,204.922 518,194.755 534.5,181.5 Z"/></g>
<g><path style="opacity:0.996" fill="#15140d" d="M 110.5,109.5 C 117.11,104.559 123.11,98.8922 128.5,92.5C 136.353,85.1529 144.687,78.3196 153.5,72C 170.937,64.1151 187.937,55.4484 204.5,46C 222.928,39.3172 241.928,35.3172 261.5,34C 268.833,33.3333 276.167,33.3333 283.5,34C 284.406,35.6995 284.739,37.5328 284.5,39.5C 282.473,39.3379 280.473,39.5045 278.5,40C 251.079,56.5854 230.079,79.0854 215.5,107.5C 223.11,109.983 230.443,113.149 237.5,117C 239.543,119.009 241.543,121.009 243.5,123C 243.578,128.964 243.411,135.131 243,141.5C 242.488,146.038 240.988,150.204 238.5,154C 248.461,168.641 257.628,183.808 266,199.5C 276.165,211.143 285.665,223.143 294.5,235.5C 285.24,264.602 266.573,285.435 238.5,298C 232.801,299.002 227.301,300.502 222,302.5C 219.446,302.42 217.946,301.086 217.5,298.5C 226.852,273.567 224.685,249.567 211,226.5C 195.302,204.14 174.468,188.64 148.5,180C 123.327,176.617 100.993,182.95 81.5,199C 79.8876,199.72 78.3876,199.554 77,198.5C 77.0751,189.833 77.7417,181.166 79,172.5C 83.4608,161.784 87.1275,150.784 90,139.5C 95.9148,128.773 102.748,118.773 110.5,109.5 Z"/></g>
<g><path style="opacity:1" fill="#088c34" d="M 261.5,40.5 C 262.708,39.218 264.042,39.218 265.5,40.5C 265.376,41.1067 265.043,41.44 264.5,41.5C 263.791,40.596 262.791,40.2627 261.5,40.5 Z"/></g>
<g><path style="opacity:1" fill="#824426" d="M 261.5,40.5 C 262.791,40.2627 263.791,40.596 264.5,41.5C 252.897,50.4347 242.23,60.4347 232.5,71.5C 227.912,78.9221 222.745,85.9221 217,92.5C 213.985,97.5251 211.818,102.858 210.5,108.5C 207.433,108.121 206.433,109.121 207.5,111.5C 208.29,112.401 209.29,113.068 210.5,113.5C 220.409,115.02 229.576,119.02 238,125.5C 238.895,133.301 238.228,140.967 236,148.5C 234.839,149.995 233.673,151.495 232.5,153C 236.125,160.42 240.125,167.587 244.5,174.5C 244.657,175.873 244.49,177.207 244,178.5C 242.984,177.366 242.317,177.699 242,179.5C 241.667,178.833 241.333,178.167 241,177.5C 238.645,178.051 236.312,179.385 234,181.5C 232.238,181.056 232.405,180.556 234.5,180C 233.167,179.333 231.833,179.333 230.5,180C 231.696,180.654 231.696,181.154 230.5,181.5C 228.575,181.163 227.075,179.83 226,177.5C 225.667,177.833 225.333,178.167 225,178.5C 223.933,177.809 222.766,177.309 221.5,177C 222.28,175.927 222.113,174.76 221,173.5C 220.667,173.833 220.333,174.167 220,174.5C 218.685,171.508 216.685,169.175 214,167.5C 212.416,167.988 211.249,168.988 210.5,170.5C 209.914,170.291 209.414,169.957 209,169.5C 206.806,171.389 206.306,173.556 207.5,176C 206.76,177.785 206.093,179.618 205.5,181.5C 206.01,184.244 206.01,187.244 205.5,190.5C 207.672,192.985 209.672,196.152 211.5,200C 211.167,200.333 210.833,200.667 210.5,201C 213.156,202.003 214.156,203.67 213.5,206C 214.029,208.429 215.363,210.262 217.5,211.5C 218.074,213.059 218.74,214.559 219.5,216C 219.167,216.333 218.833,216.667 218.5,217C 220.558,218.49 221.891,220.49 222.5,223C 221.833,223.333 221.167,223.667 220.5,224C 221.833,225.667 223.167,227.333 224.5,229C 225.411,232.063 225.411,235.23 224.5,238.5C 218.88,223.691 209.88,211.191 197.5,201C 185.361,189.267 171.361,180.6 155.5,175C 129.005,169.127 105.005,174.294 83.5,190.5C 82.5318,188.393 82.1984,186.059 82.5,183.5C 86.1742,170.473 90.0076,157.473 94,144.5C 98.6302,137.049 102.964,129.382 107,121.5C 130.107,94.0315 158.274,73.5315 191.5,60C 200.927,52.6306 211.593,47.964 223.5,46C 236.198,43.9971 248.865,42.1638 261.5,40.5 Z"/></g>
<g><path style="opacity:1" fill="#916340" d="M 560.5,41.5 C 563.596,40.9066 565.929,41.9066 567.5,44.5C 568.086,44.2907 568.586,43.9574 569,43.5C 571.301,45.5985 573.635,46.9319 576,47.5C 577.806,45.0481 579.306,45.3814 580.5,48.5C 581.861,49.2435 584.361,49.2435 588,48.5C 589.46,50.4224 591.127,51.0891 593,50.5C 594.399,51.2266 595.899,51.7266 597.5,52C 596.346,52.9138 596.513,53.7471 598,54.5C 600.071,51.5845 601.405,51.9178 602,55.5C 602.388,54.572 603.055,53.9054 604,53.5C 606.5,54.3333 609,55.1667 611.5,56C 612.502,57.6718 613.668,58.8384 615,59.5C 616.268,59.3842 617.602,59.0509 619,58.5C 621.863,61.5153 625.363,63.3487 629.5,64C 629.167,64.3333 628.833,64.6667 628.5,65C 630.938,65.6821 633.105,65.1821 635,63.5C 636.011,63.8919 636.511,64.5585 636.5,65.5C 637.167,65.1667 637.833,64.8333 638.5,64.5C 643.73,67.5719 649.063,70.4052 654.5,73C 656.218,73.346 657.885,73.846 659.5,74.5C 660.803,73.2822 661.803,73.6155 662.5,75.5C 663.086,75.2907 663.586,74.9574 664,74.5C 664.415,76.2909 665.415,77.6243 667,78.5C 667.333,77.8333 667.667,77.1667 668,76.5C 669.857,78.5185 672.024,80.1851 674.5,81.5C 675.451,80.6744 676.451,80.5078 677.5,81C 679.156,82.8294 681.156,84.1628 683.5,85C 683.167,85.3333 682.833,85.6667 682.5,86C 686.743,87.1971 689.91,89.6971 692,93.5C 694.464,92.4744 696.298,93.3077 697.5,96C 696.66,97.6665 697.16,97.8331 699,96.5C 704.481,104.314 710.981,111.147 718.5,117C 718.167,117.333 717.833,117.667 717.5,118C 720.805,119.436 722.971,121.936 724,125.5C 724.914,124.346 725.747,124.513 726.5,126C 726.167,126.333 725.833,126.667 725.5,127C 728.058,129.298 729.891,132.132 731,135.5C 734.283,136.053 736.449,137.886 737.5,141C 737.167,141.333 736.833,141.667 736.5,142C 738.679,142.442 739.345,143.442 738.5,145C 740.651,145.191 742.651,146.358 744.5,148.5C 745.005,151.188 746.338,153.355 748.5,155C 747.903,156.628 748.237,158.295 749.5,160C 749.034,161.299 749.034,162.799 749.5,164.5C 750.5,164.5 751.5,164.5 752.5,164.5C 752.22,167.272 752.887,169.772 754.5,172C 752.012,173.685 752.345,175.019 755.5,176C 755.112,177.808 755.112,179.475 755.5,181C 754.953,181.925 754.287,182.758 753.5,183.5C 751.259,182.36 749.092,182.36 747,183.5C 745.333,182.5 743.667,181.5 742,180.5C 741.667,180.833 741.333,181.167 741,181.5C 739.823,179.824 738.323,178.491 736.5,177.5C 735.914,177.709 735.414,178.043 735,178.5C 732,177.5 729,176.5 726,175.5C 724,175.5 722,175.5 720,175.5C 717.546,174.656 715.046,173.656 712.5,172.5C 711.038,173.471 709.705,173.138 708.5,171.5C 705.674,171.686 702.841,172.019 700,172.5C 698.674,172.245 697.674,171.578 697,170.5C 686.504,171.473 675.838,171.473 665,170.5C 663.289,170.439 661.956,171.106 661,172.5C 659.68,172.201 658.18,172.034 656.5,172C 657.696,171.346 657.696,170.846 656.5,170.5C 654.866,170.968 653.7,171.968 653,173.5C 652.15,172.576 651.15,172.576 650,173.5C 649.055,173.095 648.388,172.428 648,171.5C 644.308,172.094 640.975,173.428 638,175.5C 636.026,175.353 634.026,175.019 632,174.5C 630.203,176.156 628.036,177.156 625.5,177.5C 622.833,177.5 620.167,177.5 617.5,177.5C 616.481,176.313 615.314,175.313 614,174.5C 613.577,175.956 612.744,176.456 611.5,176C 610.333,174.833 609.167,173.667 608,172.5C 606.915,167.563 606.248,162.563 606,157.5C 605.682,155.939 604.849,154.772 603.5,154C 605.709,153.043 605.543,151.876 603,150.5C 599.724,138.081 595.224,126.081 589.5,114.5C 589.848,112.303 590.848,110.47 592.5,109C 596.387,107.54 600.22,107.04 604,107.5C 605.168,106.491 606.335,105.491 607.5,104.5C 608.883,107.076 609.717,106.742 610,103.5C 610.667,104.167 611.333,104.833 612,105.5C 614.056,103.681 616.223,103.015 618.5,103.5C 620.333,101.833 622.167,100.167 624,98.5C 624.875,100.513 626.209,100.513 628,98.5C 628.333,98.8333 628.667,99.1667 629,99.5C 631.326,97.5455 633.659,95.5455 636,93.5C 637.243,94.3363 638.41,94.003 639.5,92.5C 637.851,91.3523 636.351,90.019 635,88.5C 634.667,88.8333 634.333,89.1667 634,89.5C 632.029,86.3615 629.196,84.6948 625.5,84.5C 623.95,81.1111 621.45,78.4445 618,76.5C 617.667,76.8333 617.333,77.1667 617,77.5C 614.03,75.5987 610.864,74.0987 607.5,73C 604.477,70.1036 601.144,67.9369 597.5,66.5C 597.649,65.448 597.483,64.448 597,63.5C 596,63.5 595,63.5 594,63.5C 593.558,61.3215 592.558,60.6548 591,61.5C 589.899,59.6061 588.566,58.9394 587,59.5C 584.532,58.8957 582.532,57.5624 581,55.5C 580.667,55.8333 580.333,56.1667 580,56.5C 573.686,53.2599 567.186,50.4265 560.5,48C 558.412,45.5353 558.412,43.3686 560.5,41.5 Z"/></g>
<g><path style="opacity:1" fill="#916340" d="M 225.5,53.5 C 227.96,55.5169 227.627,57.3502 224.5,59C 224.833,59.3333 225.167,59.6667 225.5,60C 223.127,61.9803 220.961,64.1469 219,66.5C 217.035,73.1209 213.202,78.2876 207.5,82C 207.957,82.414 208.291,82.914 208.5,83.5C 207.478,84.354 206.645,85.354 206,86.5C 205.667,86.1667 205.333,85.8333 205,85.5C 204.556,88.6108 203.223,91.2775 201,93.5C 200.667,93.1667 200.333,92.8333 200,92.5C 199.667,93.8333 199.333,95.1667 199,96.5C 196.658,99.1671 194.491,102 192.5,105C 193.634,106.016 193.301,106.683 191.5,107C 192.479,108.779 192.146,110.445 190.5,112C 191.833,113.84 191.666,114.34 190,113.5C 189.764,115.764 189.264,117.931 188.5,120C 189,120.5 189.5,121 190,121.5C 191.566,122.061 192.899,121.394 194,119.5C 197.719,120.059 201.719,120.059 206,119.5C 206.853,121.125 207.853,121.458 209,120.5C 211.843,123.675 215.01,126.509 218.5,129C 217.542,130.147 217.875,131.147 219.5,132C 219.5,134 219.5,136 219.5,138C 217.665,138.928 217.332,140.094 218.5,141.5C 217.35,144.138 216.016,146.638 214.5,149C 214.957,149.414 215.291,149.914 215.5,150.5C 214.833,150.833 214.167,151.167 213.5,151.5C 214.55,153.102 213.883,153.935 211.5,154C 212.167,154.333 212.833,154.667 213.5,155C 211.234,155.932 209.234,157.266 207.5,159C 207.071,161.092 205.738,163.092 203.5,165C 203.833,165.333 204.167,165.667 204.5,166C 202.015,167.487 199.848,169.321 198,171.5C 195.546,170.802 193.213,169.802 191,168.5C 188.693,167.855 186.193,167.855 183.5,168.5C 179.16,166.719 174.993,164.719 171,162.5C 169.286,163.925 167.953,163.592 167,161.5C 165.372,162.097 163.705,161.763 162,160.5C 147.274,161.815 132.607,161.815 118,160.5C 117.692,161.308 117.192,161.975 116.5,162.5C 116.167,161.833 115.833,161.167 115.5,160.5C 112.157,161.026 108.99,162.026 106,163.5C 104.75,162.427 103.416,162.427 102,163.5C 99.0302,161.886 98.8636,159.886 101.5,157.5C 99.8953,154.42 100.562,151.92 103.5,150C 103.167,149.667 102.833,149.333 102.5,149C 105.017,144.315 107.351,139.482 109.5,134.5C 109.291,133.914 108.957,133.414 108.5,133C 111.415,131.883 113.415,129.883 114.5,127C 114.167,126.667 113.833,126.333 113.5,126C 114.743,123.966 116.243,123.133 118,123.5C 118.862,121.913 119.529,120.246 120,118.5C 120.667,117.167 121.333,117.167 122,118.5C 122.333,117.5 122.667,116.5 123,115.5C 125.811,114.777 128.311,112.944 130.5,110C 130.167,109.667 129.833,109.333 129.5,109C 130.5,108.667 131.5,108.333 132.5,108C 132.167,107.667 131.833,107.333 131.5,107C 139.307,101.045 147.307,95.2119 155.5,89.5C 157.333,87.1667 159.167,84.8333 161,82.5C 162,82.8333 163,83.1667 164,83.5C 165.333,82.1667 166.667,80.8333 168,79.5C 168.333,79.8333 168.667,80.1667 169,80.5C 171,79.1667 173,77.8333 175,76.5C 176.333,76.5 177.667,76.5 179,76.5C 181.884,75.4402 183.717,73.9402 184.5,72C 186.134,71.5065 187.801,71.3398 189.5,71.5C 189.413,68.4017 189.913,68.0684 191,70.5C 191.29,68.9559 191.956,67.6226 193,66.5C 198.717,65.5131 204.217,63.1798 209.5,59.5C 211.224,60.6613 212.89,60.4947 214.5,59C 213.66,57.3335 214.16,57.1669 216,58.5C 217.93,55.6041 220.43,54.6041 223.5,55.5C 224.522,55.1445 225.189,54.4778 225.5,53.5 Z"/></g>
<g><path style="opacity:0.749" fill="#3f2b1d" d="M 128.5,92.5 C 123.11,98.8922 117.11,104.559 110.5,109.5C 115.89,103.108 121.89,97.4412 128.5,92.5 Z"/></g>
<g><path style="opacity:1" fill="#366c32" d="M 207.5,111.5 C 209.179,111.285 210.179,111.952 210.5,113.5C 209.29,113.068 208.29,112.401 207.5,111.5 Z"/></g>
<g><path style="opacity:1" fill="#916340" d="M 534.5,181.5 C 539.167,175.833 543.833,170.167 548.5,164.5C 550.084,163.618 551.751,162.785 553.5,162C 552.72,160.927 552.887,159.76 554,158.5C 554.333,158.833 554.667,159.167 555,159.5C 556.487,158.747 556.654,157.914 555.5,157C 558.412,155.76 561.079,154.094 563.5,152C 561.205,151.016 561.539,150.183 564.5,149.5C 565.197,152.344 566.364,152.011 568,148.5C 569.054,150.754 570.554,151.087 572.5,149.5C 574.776,150.213 577.109,150.713 579.5,151C 580.646,151.645 581.646,152.478 582.5,153.5C 583.086,153.291 583.586,152.957 584,152.5C 584.914,154.664 586.081,156.664 587.5,158.5C 589.782,165.909 588.448,172.409 583.5,178C 584.285,180.443 584.119,182.943 583,185.5C 582.667,184.5 582.333,183.5 582,182.5C 581.654,185.576 580.988,188.576 580,191.5C 579.333,194.167 578.667,194.167 578,191.5C 576.722,195.165 575.556,198.832 574.5,202.5C 571.795,202.38 571.128,203.38 572.5,205.5C 571.965,207.271 571.131,207.604 570,206.5C 568.596,211.385 566.429,215.885 563.5,220C 564.174,221.751 564.507,223.417 564.5,225C 563.672,225.915 562.672,226.581 561.5,227C 560.756,229.483 560.756,232.149 561.5,235C 558.364,239.45 554.864,243.616 551,247.5C 549.927,246.72 548.76,246.887 547.5,248C 547.833,248.333 548.167,248.667 548.5,249C 546.899,249.273 545.399,249.773 544,250.5C 541.065,250.356 538.399,249.023 536,246.5C 534.012,246.475 532.012,246.475 530,246.5C 529.333,245.833 528.667,245.167 528,244.5C 526.221,245.479 524.555,245.146 523,243.5C 519.393,244.568 516.06,244.568 513,243.5C 512.333,242.833 511.667,242.167 511,241.5C 507.737,242.778 504.237,242.444 500.5,240.5C 498.694,241.859 497.194,241.525 496,239.5C 495.667,239.833 495.333,240.167 495,240.5C 493.387,238.223 491.22,236.723 488.5,236C 488.833,235.667 489.167,235.333 489.5,235C 488.747,233.513 487.914,233.346 487,234.5C 486.586,230.666 485.42,227.666 483.5,225.5C 484.687,223.099 486.021,220.765 487.5,218.5C 486.353,216.415 487.02,214.915 489.5,214C 489.167,213.667 488.833,213.333 488.5,213C 490.101,212.727 491.601,212.227 493,211.5C 494.558,212.345 495.558,211.679 496,209.5C 496.414,209.957 496.914,210.291 497.5,210.5C 499.962,209.636 502.129,208.303 504,206.5C 504.388,207.428 505.055,208.095 506,208.5C 508.934,207.533 511.6,206.2 514,204.5C 514.772,204.645 515.439,204.978 516,205.5C 521.333,201.5 526,196.833 530,191.5C 531.212,188.238 533.045,185.404 535.5,183C 534.944,182.617 534.611,182.117 534.5,181.5 Z"/></g>
<g><path style="opacity:1" fill="#906340" d="M 244.5,174.5 C 249.9,184.296 255.566,193.962 261.5,203.5C 260.722,205.664 260.388,207.83 260.5,210C 261.061,211.676 262.061,213.009 263.5,214C 262.167,215.84 262.334,216.34 264,215.5C 265.551,221.602 267.718,226.769 270.5,231C 269.663,232.011 269.33,233.178 269.5,234.5C 270.5,234.5 271.5,234.5 272.5,234.5C 272.421,235.93 272.754,237.264 273.5,238.5C 272.624,239.251 271.624,239.751 270.5,240C 271.167,240.333 271.833,240.667 272.5,241C 270.981,242.351 269.648,243.851 268.5,245.5C 267.914,245.291 267.414,244.957 267,244.5C 265.507,249.316 262.674,253.149 258.5,256C 258.833,256.333 259.167,256.667 259.5,257C 256.272,258.563 254.105,261.063 253,264.5C 251.853,263.542 250.853,263.875 250,265.5C 247.333,268.833 244.667,272.167 242,275.5C 241.667,275.167 241.333,274.833 241,274.5C 240.667,275.5 240.333,276.5 240,277.5C 237.89,277.725 235.223,277.725 232,277.5C 231.984,274.979 232.151,272.479 232.5,270C 232.491,268.596 231.991,267.43 231,266.5C 230.814,269.036 230.314,271.369 229.5,273.5C 229.666,267.491 229.499,261.491 229,255.5C 227.183,249.914 225.683,244.247 224.5,238.5C 225.411,235.23 225.411,232.063 224.5,229C 223.167,227.333 221.833,225.667 220.5,224C 221.167,223.667 221.833,223.333 222.5,223C 221.891,220.49 220.558,218.49 218.5,217C 218.833,216.667 219.167,216.333 219.5,216C 218.74,214.559 218.074,213.059 217.5,211.5C 215.363,210.262 214.029,208.429 213.5,206C 214.156,203.67 213.156,202.003 210.5,201C 210.833,200.667 211.167,200.333 211.5,200C 209.672,196.152 207.672,192.985 205.5,190.5C 206.01,187.244 206.01,184.244 205.5,181.5C 206.093,179.618 206.76,177.785 207.5,176C 206.306,173.556 206.806,171.389 209,169.5C 209.414,169.957 209.914,170.291 210.5,170.5C 211.249,168.988 212.416,167.988 214,167.5C 216.685,169.175 218.685,171.508 220,174.5C 220.333,174.167 220.667,173.833 221,173.5C 222.113,174.76 222.28,175.927 221.5,177C 222.766,177.309 223.933,177.809 225,178.5C 225.333,178.167 225.667,177.833 226,177.5C 227.075,179.83 228.575,181.163 230.5,181.5C 231.696,181.154 231.696,180.654 230.5,180C 231.833,179.333 233.167,179.333 234.5,180C 232.405,180.556 232.238,181.056 234,181.5C 236.312,179.385 238.645,178.051 241,177.5C 241.333,178.167 241.667,178.833 242,179.5C 242.317,177.699 242.984,177.366 244,178.5C 244.49,177.207 244.657,175.873 244.5,174.5 Z"/></g>
<g><path style="opacity:1" fill="#008a42" d="M 82.5,183.5 C 82.1984,186.059 82.5318,188.393 83.5,190.5C 83.44,191.043 83.1067,191.376 82.5,191.5C 81.1997,188.691 81.1997,186.024 82.5,183.5 Z"/></g>
<g><path style="opacity:1" fill="#824425" d="M 261.5,203.5 C 270.486,213.667 278.986,224.333 287,235.5C 287.201,238.515 286.868,241.515 286,244.5C 273.8,269.29 254.634,285.957 228.5,294.5C 228.167,294.167 227.833,293.833 227.5,293.5C 229.27,286.971 229.936,280.304 229.5,273.5C 230.314,271.369 230.814,269.036 231,266.5C 231.991,267.43 232.491,268.596 232.5,270C 232.151,272.479 231.984,274.979 232,277.5C 235.223,277.725 237.89,277.725 240,277.5C 240.333,276.5 240.667,275.5 241,274.5C 241.333,274.833 241.667,275.167 242,275.5C 244.667,272.167 247.333,268.833 250,265.5C 250.853,263.875 251.853,263.542 253,264.5C 254.105,261.063 256.272,258.563 259.5,257C 259.167,256.667 258.833,256.333 258.5,256C 262.674,253.149 265.507,249.316 267,244.5C 267.414,244.957 267.914,245.291 268.5,245.5C 269.648,243.851 270.981,242.351 272.5,241C 271.833,240.667 271.167,240.333 270.5,240C 271.624,239.751 272.624,239.251 273.5,238.5C 272.754,237.264 272.421,235.93 272.5,234.5C 271.5,234.5 270.5,234.5 269.5,234.5C 269.33,233.178 269.663,232.011 270.5,231C 267.718,226.769 265.551,221.602 264,215.5C 262.334,216.34 262.167,215.84 263.5,214C 262.061,213.009 261.061,211.676 260.5,210C 260.388,207.83 260.722,205.664 261.5,203.5 Z"/></g>

        
<g><path style="opacity:0.998" fill="#1e1817" d="M 567.5,264.5 C 567.427,266.027 568.094,267.027 569.5,267.5C 570.833,268.167 571.833,269.167 572.5,270.5C 572.427,272.027 573.094,273.027 574.5,273.5C 576.786,276.463 578.619,279.796 580,283.5C 581.333,288.167 582.667,292.833 584,297.5C 600.968,293.905 616.801,296.738 631.5,306C 657.957,323.456 680.123,345.29 698,371.5C 700.529,375.926 702.362,380.592 703.5,385.5C 703.41,388.152 704.076,390.485 705.5,392.5C 706.37,394.032 706.036,395.532 704.5,397C 701.814,398.368 699.147,399.701 696.5,401C 687.337,403.06 678.337,403.893 669.5,403.5C 671.81,407.254 673.643,411.254 675,415.5C 676.619,423.927 678.619,432.26 681,440.5C 682.454,454.02 679.787,466.687 673,478.5C 663.749,491.086 652.582,501.586 639.5,510C 630.893,513.302 622.893,517.635 615.5,523C 597.029,529.157 579.029,536.491 561.5,545C 545.683,550.606 529.683,555.606 513.5,560C 521.167,567 528.833,574 536.5,581C 541.889,585.389 547.556,589.389 553.5,593C 559.667,598.5 565.833,604 572,609.5C 578.423,618.674 584.09,628.34 589,638.5C 598.788,663.109 604.621,688.609 606.5,715C 605.825,731.869 601.492,747.703 593.5,762.5C 592.711,762.783 592.044,763.283 591.5,764C 593.134,764.494 594.801,764.66 596.5,764.5C 603.201,764.682 609.201,766.849 614.5,771C 619.719,777.218 624.552,783.718 629,790.5C 633.064,794.786 637.897,797.952 643.5,800C 646.319,802.72 645.986,805.053 642.5,807C 635.644,812.007 627.978,814.507 619.5,814.5C 615.167,814.5 610.833,814.5 606.5,814.5C 606.263,815.791 606.596,816.791 607.5,817.5C 609.143,819.708 608.81,821.541 606.5,823C 599.093,824.492 591.593,825.325 584,825.5C 570.833,824.357 557.666,823.19 544.5,822C 528.753,817.882 515.253,810.049 504,798.5C 495.911,789.336 489.577,779.003 485,767.5C 473.056,772.575 460.556,774.908 447.5,774.5C 441.513,773.858 435.513,773.358 429.5,773C 427,772.625 424.667,771.792 422.5,770.5C 418.78,774.733 415.613,779.4 413,784.5C 396.732,800.487 377.065,808.487 354,808.5C 349.103,808.068 344.269,807.234 339.5,806C 337.709,805.585 336.376,804.585 335.5,803C 338.138,800.346 341.138,798.18 344.5,796.5C 345.973,795.928 347.307,795.095 348.5,794C 346.609,793.797 344.943,794.297 343.5,795.5C 334.515,796.911 325.515,796.744 316.5,795C 304.562,791.925 299.562,784.425 301.5,772.5C 312.272,769.781 321.939,764.947 330.5,758C 319.87,750.041 313.37,739.541 311,726.5C 307.602,710.123 307.769,693.789 311.5,677.5C 312.793,675.636 312.793,673.636 311.5,671.5C 310.893,671.624 310.56,671.957 310.5,672.5C 309.013,673.804 307.346,674.97 305.5,676C 298.059,677.01 291.059,675.843 284.5,672.5C 275.52,664.574 271.187,654.574 271.5,642.5C 272.908,618.525 282.242,598.358 299.5,582C 310.392,573.408 322.392,571.241 335.5,575.5C 336.947,576.885 337.947,576.552 338.5,574.5C 338.433,573.041 338.766,571.708 339.5,570.5C 340.757,569.377 340.424,568.711 338.5,568.5C 326.038,567.642 313.704,565.808 301.5,563C 279.858,557.675 258.525,551.341 237.5,544C 217.724,535.619 199.39,524.952 182.5,512C 179.629,509.297 176.962,506.464 174.5,503.5C 174.027,502.094 173.027,501.427 171.5,501.5C 155.808,488.291 146.475,471.458 143.5,451C 144.485,443.505 144.985,436.005 145,428.5C 139.772,431.396 134.272,432.062 128.5,430.5C 127.063,426.472 126.397,422.305 126.5,418C 128.512,388.142 139.012,361.642 158,338.5C 167.466,327.852 178.966,320.352 192.5,316C 198.537,315.303 204.537,315.47 210.5,316.5C 212.5,305.171 217.167,295.171 224.5,286.5C 225.906,286.027 226.573,285.027 226.5,283.5C 228.616,277.549 231.783,272.215 236,267.5C 246.355,255.578 258.188,245.412 271.5,237C 347.364,211.021 424.364,207.021 502.5,225C 512.956,228.227 522.956,232.56 532.5,238C 541.167,244.671 550.501,250.338 560.5,255C 562.476,258.463 564.81,261.63 567.5,264.5 Z"/></g>
<g><path style="opacity:1" fill="#bf4929" d="M 689.5,370.5 C 691.143,387.025 683.81,394.191 667.5,392C 659.85,390.226 652.517,387.893 645.5,385C 647.911,386.955 650.411,388.789 653,390.5C 653.6,392.91 654.766,394.91 656.5,396.5C 658.725,400.235 661.558,403.568 665,406.5C 667.332,409.822 668.498,413.489 668.5,417.5C 664.857,445.287 652.857,468.787 632.5,488C 612.937,503.194 591.603,515.527 568.5,525C 543.245,532.311 518.245,539.977 493.5,548C 469.713,552.803 445.713,555.97 421.5,557.5C 399.511,556.721 377.511,556.221 355.5,556C 300.326,547.075 248.326,529.075 199.5,502C 188.352,493.999 177.852,485.166 168,475.5C 163.667,469.833 159.333,464.167 155,458.5C 152.079,451.45 150.912,444.117 151.5,436.5C 153.967,428.619 154.967,420.619 154.5,412.5C 153.817,412.863 153.15,413.196 152.5,413.5C 148.453,418.44 143.286,421.44 137,422.5C 134.013,422.01 132.18,420.343 131.5,417.5C 133.163,407.851 134.663,398.185 136,388.5C 141,378.167 146,367.833 151,357.5C 160.956,339.874 175.456,327.707 194.5,321C 201.21,320.952 207.877,320.786 214.5,320.5C 215.486,315.039 216.986,309.705 219,304.5C 225.064,295.43 230.731,286.097 236,276.5C 248.038,261.454 262.205,248.954 278.5,239C 321.88,226.104 366.213,219.27 411.5,218.5C 429.662,220.888 447.996,222.721 466.5,224C 488.815,226.061 509.815,232.394 529.5,243C 538.665,249.084 547.998,254.917 557.5,260.5C 569.837,272.665 577.337,287.332 580,304.5C 582.319,310.473 585.653,315.807 590,320.5C 590.167,320 590.333,319.5 590.5,319C 588.062,313.631 586.062,308.131 584.5,302.5C 599.892,299.165 614.225,301.665 627.5,310C 633.833,314.333 640.167,318.667 646.5,323C 656.03,332.864 665.863,342.364 676,351.5C 681.01,357.54 685.51,363.874 689.5,370.5 Z"/></g>
<g><path style="opacity:0.725" fill="#7b7b7f" d="M 567.5,264.5 C 568.906,264.973 569.573,265.973 569.5,267.5C 568.094,267.027 567.427,266.027 567.5,264.5 Z"/></g>
<g><path style="opacity:0.545" fill="#7b7c80" d="M 572.5,270.5 C 573.906,270.973 574.573,271.973 574.5,273.5C 573.094,273.027 572.427,272.027 572.5,270.5 Z"/></g>
<g><path style="opacity:0.486" fill="#7c7c81" d="M 226.5,283.5 C 226.573,285.027 225.906,286.027 224.5,286.5C 224.427,284.973 225.094,283.973 226.5,283.5 Z"/></g>
<g><path style="opacity:1" fill="#120d0c" d="M 618.5,337.5 C 624.632,343.789 631.299,349.623 638.5,355C 649.79,362.609 661.79,368.943 674.5,374C 677.242,375.886 678.909,378.386 679.5,381.5C 675.869,381.84 672.536,381.006 669.5,379C 657.665,371.917 645.998,364.583 634.5,357C 629.097,352.719 624.263,347.886 620,342.5C 618.991,340.975 618.491,339.308 618.5,337.5 Z"/></g>
<g><path style="opacity:1" fill="#914423" d="M 689.5,370.5 C 695.642,377.437 698.976,385.437 699.5,394.5C 689.842,398.206 679.842,399.373 669.5,398C 665.09,396.449 660.757,394.949 656.5,393.5C 656.5,394.5 656.5,395.5 656.5,396.5C 654.766,394.91 653.6,392.91 653,390.5C 650.411,388.789 647.911,386.955 645.5,385C 652.517,387.893 659.85,390.226 667.5,392C 683.81,394.191 691.143,387.025 689.5,370.5 Z"/></g>
<g><path style="opacity:1" fill="#100a09" d="M 147.5,382.5 C 148.993,383.312 149.66,384.645 149.5,386.5C 148.225,393.816 147.058,401.15 146,408.5C 144.374,411.128 142.374,413.461 140,415.5C 141.168,404.157 143.668,393.157 147.5,382.5 Z"/></g>
<g><path style="opacity:0.686" fill="#626367" d="M 703.5,385.5 C 704.924,387.515 705.59,389.848 705.5,392.5C 704.076,390.485 703.41,388.152 703.5,385.5 Z"/></g>
<g><path style="opacity:1" fill="#904423" d="M 152.5,413.5 C 151.147,417.032 149.147,420.199 146.5,423C 142.539,424.598 138.539,426.098 134.5,427.5C 132.024,424.717 131.024,421.384 131.5,417.5C 132.18,420.343 134.013,422.01 137,422.5C 143.286,421.44 148.453,418.44 152.5,413.5 Z"/></g>
<g><path style="opacity:1" fill="#914422" d="M 668.5,417.5 C 669.586,417.62 670.253,418.287 670.5,419.5C 672.505,428.85 674.505,438.183 676.5,447.5C 675.399,460.687 670.732,472.354 662.5,482.5C 657.167,487.167 652.167,492.167 647.5,497.5C 636.091,503.71 624.757,510.21 613.5,517C 606.363,518.934 599.363,521.268 592.5,524C 536.568,551.456 477.401,565.956 415,567.5C 386.535,565.415 358.035,563.915 329.5,563C 288.931,556.527 250.265,544.193 213.5,526C 189.858,513.027 170.692,495.194 156,472.5C 149.589,460.938 148.089,448.938 151.5,436.5C 150.912,444.117 152.079,451.45 155,458.5C 159.333,464.167 163.667,469.833 168,475.5C 177.852,485.166 188.352,493.999 199.5,502C 248.326,529.075 300.326,547.075 355.5,556C 377.511,556.221 399.511,556.721 421.5,557.5C 445.713,555.97 469.713,552.803 493.5,548C 518.245,539.977 543.245,532.311 568.5,525C 591.603,515.527 612.937,503.194 632.5,488C 652.857,468.787 664.857,445.287 668.5,417.5 Z"/></g>
<g><path style="opacity:1" fill="#361a0d" d="M 662.5,482.5 C 658.5,488.5 653.5,493.5 647.5,497.5C 652.167,492.167 657.167,487.167 662.5,482.5 Z"/></g>
<g><path style="opacity:0.718" fill="#7d7d82" d="M 171.5,501.5 C 173.027,501.427 174.027,502.094 174.5,503.5C 172.973,503.573 171.973,502.906 171.5,501.5 Z"/></g>
<g><path style="opacity:1" fill="#904422" d="M 478.5,664.5 C 479.166,667.689 479.833,671.023 480.5,674.5C 491.766,680.708 502.099,679.541 511.5,671C 512.5,670.333 513.5,670.333 514.5,671C 512.476,676.438 510.142,681.772 507.5,687C 510.8,688.879 514.134,688.879 517.5,687C 534.375,674.082 542.875,656.915 543,635.5C 540.721,625.964 535.554,618.464 527.5,613C 517.543,605.023 506.21,600.356 493.5,599C 483.452,595.672 478.452,599.172 478.5,609.5C 479.237,614.315 480.57,618.982 482.5,623.5C 479.479,625.423 476.146,626.423 472.5,626.5C 472.923,625.735 473.257,624.902 473.5,624C 469.779,615.709 469.779,607.543 473.5,599.5C 473.167,598.5 472.5,597.833 471.5,597.5C 469.364,598.472 468.197,600.139 468,602.5C 467.081,608.966 467.581,615.299 469.5,621.5C 459.016,625.31 450.516,631.643 444,640.5C 430.726,618.269 417.226,596.269 403.5,574.5C 414.63,572.841 425.963,571.841 437.5,571.5C 461.059,569.586 484.392,566.42 507.5,562C 515.432,567.928 522.765,574.595 529.5,582C 535,586.167 540.5,590.333 546,594.5C 546.333,596.047 545.833,597.38 544.5,598.5C 548.847,601.371 552.014,605.371 554,610.5C 567.091,647.562 556.924,676.395 523.5,697C 501.368,707.015 486.535,700.515 479,677.5C 478.501,673.179 478.334,668.846 478.5,664.5 Z"/></g>
<g><path style="opacity:0.118" fill="#c1c1c8" d="M 338.5,568.5 C 340.424,568.711 340.757,569.377 339.5,570.5C 339.167,569.833 338.833,569.167 338.5,568.5 Z"/></g>
<g><path style="opacity:1" fill="#bf4929" d="M 342.5,618.5 C 341.534,620.792 340.867,623.292 340.5,626C 342.271,635.937 343.604,645.937 344.5,656C 344.554,658.873 343.888,661.54 342.5,664C 336.849,663.188 331.516,661.188 326.5,658C 319.953,652.954 314.286,647.12 309.5,640.5C 307.682,644.136 305.849,647.802 304,651.5C 301.757,653.282 299.257,653.782 296.5,653C 286.625,647.741 283.125,639.575 286,628.5C 287.608,614.006 293.275,601.339 303,590.5C 307.998,584.965 313.498,580.298 319.5,576.5C 326.045,576.302 332.045,577.969 337.5,581.5C 337.712,583.384 338.712,584.717 340.5,585.5C 341.487,582.232 341.82,578.898 341.5,575.5C 342.216,573.444 342.883,571.277 343.5,569C 347.601,568.516 351.601,569.016 355.5,570.5C 349.146,585.93 344.812,601.93 342.5,618.5 Z"/></g>
<g><path style="opacity:1" fill="#b88a7d" d="M 360.5,674.5 C 365.636,683.259 371.636,691.426 378.5,699C 384.877,703.189 391.544,706.855 398.5,710C 417.397,716.636 424.897,710.136 421,690.5C 413.216,671.683 409.383,652.016 409.5,631.5C 398.985,626.788 387.985,624.121 376.5,623.5C 367.747,622.705 360.081,625.039 353.5,630.5C 351.158,627.493 348.825,624.493 346.5,621.5C 349.487,606.708 352.987,592.041 357,577.5C 357.93,575.064 359.097,572.731 360.5,570.5C 364.795,569.339 369.129,569.172 373.5,570C 381.953,570.635 390.287,571.801 398.5,573.5C 412.833,597.5 427.167,621.5 441.5,645.5C 436.166,659.522 436.333,673.522 442,687.5C 449.259,695.897 458.426,699.063 469.5,697C 472.798,696.513 475.798,695.347 478.5,693.5C 480.786,693.96 482.119,695.293 482.5,697.5C 479.307,719.149 479.973,740.649 484.5,762C 484.167,762.5 483.833,763 483.5,763.5C 454.121,772.925 425.787,770.425 398.5,756C 385.188,748.027 373.021,738.527 362,727.5C 358.333,721.833 354.667,716.167 351,710.5C 348.591,702.618 346.757,694.618 345.5,686.5C 351.447,683.692 356.447,679.692 360.5,674.5 Z"/></g>
<g><path style="opacity:1" fill="#351a0d" d="M 437.5,571.5 C 425.963,571.841 414.63,572.841 403.5,574.5C 402.596,573.791 402.263,572.791 402.5,571.5C 414.167,571.5 425.833,571.5 437.5,571.5 Z"/></g>
<g><path style="opacity:0.553" fill="#8c8d91" d="M 338.5,574.5 C 337.947,576.552 336.947,576.885 335.5,575.5C 336.609,575.443 337.609,575.11 338.5,574.5 Z"/></g>
<g><path style="opacity:1" fill="#6b3022" d="M 341.5,575.5 C 341.82,578.898 341.487,582.232 340.5,585.5C 338.712,584.717 337.712,583.384 337.5,581.5C 338.458,581.953 339.292,582.619 340,583.5C 340.183,580.635 340.683,577.969 341.5,575.5 Z"/></g>
<g><path style="opacity:1" fill="#904422" d="M 319.5,576.5 C 313.498,580.298 307.998,584.965 303,590.5C 293.275,601.339 287.608,614.006 286,628.5C 283.125,639.575 286.625,647.741 296.5,653C 299.257,653.782 301.757,653.282 304,651.5C 305.849,647.802 307.682,644.136 309.5,640.5C 314.286,647.12 319.953,652.954 326.5,658C 331.516,661.188 336.849,663.188 342.5,664C 343.888,661.54 344.554,658.873 344.5,656C 343.604,645.937 342.271,635.937 340.5,626C 340.867,623.292 341.534,620.792 342.5,618.5C 342.656,621.066 342.322,623.566 341.5,626C 354.654,638.43 359.821,653.597 357,671.5C 343.497,686.123 329.83,686.123 316,671.5C 316.27,667.131 316.104,662.798 315.5,658.5C 312.756,662.751 309.422,666.585 305.5,670C 299.786,671.57 294.12,671.237 288.5,669C 278.166,659.382 274.332,647.548 277,633.5C 280.837,610.292 292.337,592.125 311.5,579C 313.909,577.293 316.575,576.46 319.5,576.5 Z"/></g>
<g><path style="opacity:1" fill="#bf4929" d="M 478.5,664.5 C 477.698,663.115 477.031,663.282 476.5,665C 475.852,666.44 475.519,667.94 475.5,669.5C 474.09,678.893 468.423,683.893 458.5,684.5C 456.423,684.308 454.423,683.808 452.5,683C 448.306,679.402 444.972,675.235 442.5,670.5C 440.358,647.343 450.358,632.676 472.5,626.5C 476.146,626.423 479.479,625.423 482.5,623.5C 480.57,618.982 479.237,614.315 478.5,609.5C 478.452,599.172 483.452,595.672 493.5,599C 506.21,600.356 517.543,605.023 527.5,613C 535.554,618.464 540.721,625.964 543,635.5C 542.875,656.915 534.375,674.082 517.5,687C 514.134,688.879 510.8,688.879 507.5,687C 510.142,681.772 512.476,676.438 514.5,671C 513.5,670.333 512.5,670.333 511.5,671C 502.099,679.541 491.766,680.708 480.5,674.5C 479.833,671.023 479.166,667.689 478.5,664.5 Z"/></g>
<g><path style="opacity:1" fill="#bf4829" d="M 598.5,692.5 C 599.489,721.099 590.489,745.932 571.5,767C 560.734,776.049 548.4,781.882 534.5,784.5C 518.048,781.551 507.882,771.884 504,755.5C 503.528,748.944 502.695,742.444 501.5,736C 501.833,734.167 502.167,732.333 502.5,730.5C 514.579,739.962 527.245,740.796 540.5,733C 549.488,725.157 556.654,715.99 562,705.5C 563.632,700.97 564.632,696.304 565,691.5C 565.532,679.978 566.366,668.478 567.5,657C 567.295,651.63 566.628,646.463 565.5,641.5C 564.818,628.074 561.485,615.407 555.5,603.5C 556.002,602.479 556.668,602.312 557.5,603C 564.067,608.57 569.567,615.07 574,622.5C 585.833,644.496 593.999,667.829 598.5,692.5 Z"/></g>
<g><path style="opacity:1" fill="#d9ab97" d="M 360.5,674.5 C 363.081,665.176 362.914,655.842 360,646.5C 358.097,641.032 355.93,635.699 353.5,630.5C 360.081,625.039 367.747,622.705 376.5,623.5C 387.985,624.121 398.985,626.788 409.5,631.5C 409.383,652.016 413.216,671.683 421,690.5C 424.897,710.136 417.397,716.636 398.5,710C 391.544,706.855 384.877,703.189 378.5,699C 371.636,691.426 365.636,683.259 360.5,674.5 Z"/></g>
<g><path style="opacity:1" fill="#904422" d="M 565.5,641.5 C 566.628,646.463 567.295,651.63 567.5,657C 566.366,668.478 565.532,679.978 565,691.5C 564.632,696.304 563.632,700.97 562,705.5C 556.654,715.99 549.488,725.157 540.5,733C 527.245,740.796 514.579,739.962 502.5,730.5C 502.167,732.333 501.833,734.167 501.5,736C 502.695,742.444 503.528,748.944 504,755.5C 507.882,771.884 518.048,781.551 534.5,784.5C 548.4,781.882 560.734,776.049 571.5,767C 590.489,745.932 599.489,721.099 598.5,692.5C 602.271,711.126 600.771,729.459 594,747.5C 590.779,753.174 587.945,759.008 585.5,765C 585.755,766.326 586.422,767.326 587.5,768C 598.616,767.367 607.783,771.2 615,779.5C 618.98,786.624 623.814,793.124 629.5,799C 632.371,800.935 635.371,802.601 638.5,804C 627.231,809.772 615.231,812.105 602.5,811C 601.427,814.112 601.427,817.279 602.5,820.5C 584.783,820.736 567.116,819.903 549.5,818C 516.675,809.175 495.842,788.342 487,755.5C 483.667,736.832 483.667,718.165 487,699.5C 491.655,704.166 497.322,706.499 504,706.5C 532.966,702.548 551.966,686.548 561,658.5C 562.072,652.609 563.572,646.942 565.5,641.5 Z"/></g>
<g><path style="opacity:0.18" fill="#9b9ca1" d="M 310.5,672.5 C 310.56,671.957 310.893,671.624 311.5,671.5C 312.793,673.636 312.793,675.636 311.5,677.5C 311.784,675.585 311.451,673.919 310.5,672.5 Z"/></g>
<g><path style="opacity:1" fill="#904422" d="M 475.5,669.5 C 475.399,675.951 475.899,682.284 477,688.5C 472.998,691.925 468.332,693.258 463,692.5C 453.344,693.516 447.01,689.516 444,680.5C 442.957,677.243 442.457,673.91 442.5,670.5C 444.972,675.235 448.306,679.402 452.5,683C 454.423,683.808 456.423,684.308 458.5,684.5C 468.423,683.893 474.09,678.893 475.5,669.5 Z"/></g>
<g><path style="opacity:1" fill="#904322" d="M 352.5,720.5 C 351.542,720.047 350.708,719.381 350,718.5C 349,720.5 348,722.5 347,724.5C 338.32,720.657 330.654,715.324 324,708.5C 322.417,720.502 325.084,731.502 332,741.5C 338.772,748.117 345.939,754.117 353.5,759.5C 344.653,759.441 336.986,756.441 330.5,750.5C 327.146,746.981 323.98,743.314 321,739.5C 312.829,719.599 311.496,699.266 317,678.5C 323.898,685.032 332.065,687.698 341.5,686.5C 342.041,694.666 343.541,702.666 346,710.5C 348.143,713.962 350.31,717.296 352.5,720.5 Z"/></g>
<g><path style="opacity:1" fill="#bf4928" d="M 352.5,720.5 C 354.255,723.68 356.255,726.68 358.5,729.5C 361.5,734.5 365.5,738.5 370.5,741.5C 372.806,743.139 374.806,745.139 376.5,747.5C 379.123,754.311 382.457,760.811 386.5,767C 376.659,767.776 367.326,765.943 358.5,761.5C 356.95,760.559 355.284,759.893 353.5,759.5C 345.939,754.117 338.772,748.117 332,741.5C 325.084,731.502 322.417,720.502 324,708.5C 330.654,715.324 338.32,720.657 347,724.5C 348,722.5 349,720.5 350,718.5C 350.708,719.381 351.542,720.047 352.5,720.5 Z"/></g>
<g><path style="opacity:1" fill="#592518" d="M 358.5,729.5 C 362.833,733.167 366.833,737.167 370.5,741.5C 365.5,738.5 361.5,734.5 358.5,729.5 Z"/></g>
<g><path style="opacity:1" fill="#904422" d="M 376.5,747.5 C 386.001,753.478 395.667,759.311 405.5,765C 408.56,765.848 411.56,766.848 414.5,768C 415.554,769.388 415.72,770.888 415,772.5C 403.245,790.64 386.411,800.474 364.5,802C 357.816,803.87 351.15,803.87 344.5,802C 353.524,795.983 360.691,788.483 366,779.5C 365.439,778.978 364.772,778.645 364,778.5C 361.062,779.283 358.896,780.95 357.5,783.5C 358.547,780.404 359.88,777.404 361.5,774.5C 351.037,772.068 340.87,768.735 331,764.5C 329.862,764.989 328.695,765.322 327.5,765.5C 330.385,763.969 333.052,761.969 335.5,759.5C 342.062,762.14 348.729,764.474 355.5,766.5C 356.442,766.392 357.275,766.059 358,765.5C 357.645,764.041 357.811,762.707 358.5,761.5C 367.326,765.943 376.659,767.776 386.5,767C 382.457,760.811 379.123,754.311 376.5,747.5 Z"/></g>
<g><path style="opacity:0.039" fill="#cfd0d7" d="M 593.5,762.5 C 594.5,763.167 595.5,763.833 596.5,764.5C 594.801,764.66 593.134,764.494 591.5,764C 592.044,763.283 592.711,762.783 593.5,762.5 Z"/></g>
<g><path style="opacity:1" fill="#bf4929" d="M 357.5,783.5 C 353.849,784.659 350.515,786.326 347.5,788.5C 335.721,791.431 324.054,791.097 312.5,787.5C 310.873,785.37 309.04,783.37 307,781.5C 306.506,779.866 306.34,778.199 306.5,776.5C 308.553,776.598 310.22,775.931 311.5,774.5C 317.489,772.509 322.823,769.509 327.5,765.5C 328.695,765.322 329.862,764.989 331,764.5C 340.87,768.735 351.037,772.068 361.5,774.5C 359.88,777.404 358.547,780.404 357.5,783.5 Z"/></g>
<g><path style="opacity:1" fill="#6c2f1f" d="M 311.5,774.5 C 310.22,775.931 308.553,776.598 306.5,776.5C 306.34,778.199 306.506,779.866 307,781.5C 309.04,783.37 310.873,785.37 312.5,787.5C 306.834,785.49 304.5,781.49 305.5,775.5C 307.5,775.167 309.5,774.833 311.5,774.5 Z"/></g>
<g><path style="opacity:1" fill="#be4928" d="M 578.5,780.5 C 592.956,778.595 605.122,782.928 615,793.5C 615.688,794.332 615.521,794.998 614.5,795.5C 607.334,800.602 599.334,802.935 590.5,802.5C 590.692,805.601 591.358,808.601 592.5,811.5C 587.462,812.33 582.795,811.164 578.5,808C 572.243,803.287 566.076,798.454 560,793.5C 558.148,790.653 558.648,788.153 561.5,786C 567.137,783.682 572.803,781.849 578.5,780.5 Z"/></g>
<g><path style="opacity:1" fill="#542215" d="M 357.5,783.5 C 354.753,786.207 351.42,787.873 347.5,788.5C 350.515,786.326 353.849,784.659 357.5,783.5 Z"/></g>
<g><path style="opacity:0.165" fill="#a9aab0" d="M 344.5,796.5 C 344.5,795.833 344.167,795.5 343.5,795.5C 344.943,794.297 346.609,793.797 348.5,794C 347.307,795.095 345.973,795.928 344.5,796.5 Z"/></g>
<g><path style="opacity:0.282" fill="#a8a9af" d="M 619.5,814.5 C 615.232,814.869 611.232,815.869 607.5,817.5C 606.596,816.791 606.263,815.791 606.5,814.5C 610.833,814.5 615.167,814.5 619.5,814.5 Z"/></g>

        
<g><path style="opacity:0.967" fill="#060605" d="M 527.5,255.5 C 527.821,257.048 528.821,257.715 530.5,257.5C 530.973,258.906 531.973,259.573 533.5,259.5C 534.167,259.5 534.5,259.833 534.5,260.5C 535.5,262.167 536.833,263.5 538.5,264.5C 539.401,265.29 540.068,266.29 540.5,267.5C 540.833,268.167 541.167,268.833 541.5,269.5C 541.5,270.167 541.833,270.5 542.5,270.5C 542.833,271.5 543.5,272.167 544.5,272.5C 548.966,279.767 552.633,287.433 555.5,295.5C 555.328,296.492 555.662,297.158 556.5,297.5C 557.234,298.708 557.567,300.041 557.5,301.5C 557.088,303.973 558.088,305.306 560.5,305.5C 561.167,305.5 561.5,305.833 561.5,306.5C 565.572,310.565 569.238,314.898 572.5,319.5C 572.427,321.027 573.094,322.027 574.5,322.5C 574.932,323.71 575.599,324.71 576.5,325.5C 577.167,325.5 577.5,325.833 577.5,326.5C 576.167,326.833 576.167,327.167 577.5,327.5C 577.394,330.079 578.061,332.412 579.5,334.5C 578.833,334.5 578.5,334.833 578.5,335.5C 578.5,336.167 578.5,336.833 578.5,337.5C 578.5,338.167 578.833,338.5 579.5,338.5C 579.5,341.5 579.5,344.5 579.5,347.5C 578.766,348.708 578.433,350.041 578.5,351.5C 578.414,352.496 578.748,353.329 579.5,354C 578.244,354.417 577.577,355.25 577.5,356.5C 576.662,356.842 576.328,357.508 576.5,358.5C 573.924,366.149 569.924,372.983 564.5,379C 559.5,379.333 554.5,379.667 549.5,380C 533.92,383.86 518.586,388.527 503.5,394C 488.559,401.719 473.726,409.553 459,417.5C 454.438,416.568 449.938,415.401 445.5,414C 439.386,408.555 432.72,403.888 425.5,400C 419.038,393.533 413.705,386.367 409.5,378.5C 409.539,377.244 409.039,376.244 408,375.5C 407.503,377.81 407.337,380.143 407.5,382.5C 406.302,387.228 404.302,391.561 401.5,395.5C 400.833,396.167 400.167,396.833 399.5,397.5C 399.167,396.167 398.833,396.167 398.5,397.5C 394.267,400.54 389.267,401.04 383.5,399C 377.399,396.908 372.399,393.241 368.5,388C 366.167,387.333 363.833,387.333 361.5,388C 354.912,398.527 345.912,401.194 334.5,396C 331.894,394.062 330.061,391.562 329,388.5C 326.764,380.317 325.43,371.984 325,363.5C 323.383,361.237 321.55,359.237 319.5,357.5C 319.44,356.957 319.107,356.624 318.5,356.5C 317.504,362.463 317.171,368.463 317.5,374.5C 316.534,385.066 313.201,394.733 307.5,403.5C 306.833,403.5 306.5,403.833 306.5,404.5C 305.833,404.5 305.5,404.833 305.5,405.5C 304.5,405.833 303.833,406.5 303.5,407.5C 300.267,411.779 296.267,415.112 291.5,417.5C 280.875,413.19 271.208,407.357 262.5,400C 244.46,389.359 225.127,385.859 204.5,389.5C 195.728,365.623 199.061,343.456 214.5,323C 214.126,312.745 216.293,302.911 221,293.5C 224.444,287.724 228.277,282.224 232.5,277C 238.566,272.605 244.9,268.605 251.5,265C 257.114,263.575 262.614,263.075 268,263.5C 268.317,265.301 268.984,265.634 270,264.5C 272.099,265.131 273.932,266.131 275.5,267.5C 276.795,268.488 278.128,269.488 279.5,270.5C 280.795,271.488 282.128,272.488 283.5,273.5C 284.833,275.5 286.5,277.167 288.5,278.5C 289.222,279.551 290.222,280.218 291.5,280.5C 291.738,282.404 292.738,283.738 294.5,284.5C 295.833,285.833 297.167,287.167 298.5,288.5C 298.833,289.5 299.5,290.167 300.5,290.5C 301.167,291.5 301.833,292.5 302.5,293.5C 303.512,294.872 304.512,296.205 305.5,297.5C 305.833,298.5 306.5,299.167 307.5,299.5C 308.058,300.79 309.058,301.623 310.5,302C 309.944,302.383 309.611,302.883 309.5,303.5C 309.427,305.027 310.094,306.027 311.5,306.5C 312.757,311.229 314.757,315.562 317.5,319.5C 317.932,320.71 318.599,321.71 319.5,322.5C 320.167,322.5 320.5,322.833 320.5,323.5C 319.957,323.56 319.624,323.893 319.5,324.5C 320.238,326.065 321.238,327.732 322.5,329.5C 321.167,330.167 321.167,330.833 322.5,331.5C 323.09,332.766 323.59,334.099 324,335.5C 325.666,334.66 325.833,335.16 324.5,337C 325.704,340.716 326.538,344.55 327,348.5C 327.992,351.323 329.825,353.323 332.5,354.5C 333.209,355.404 334.209,355.737 335.5,355.5C 351.438,363.985 369.105,365.485 388.5,360C 392.448,357.213 396.114,354.213 399.5,351C 398.695,347.197 398.028,343.364 397.5,339.5C 397.956,327.421 399.122,315.421 401,303.5C 405.684,293.458 411.851,284.458 419.5,276.5C 431.26,267.248 443.927,259.415 457.5,253C 478.032,245.674 498.699,245.008 519.5,251C 522.391,252.274 525.058,253.774 527.5,255.5 Z"/></g>
<g><path style="opacity:1" fill="#1b1b1b" d="M 493.5,250.5 C 513.919,251.621 529.752,260.621 541,277.5C 546.447,286.561 550.947,296.061 554.5,306C 529.002,307.141 503.669,309.807 478.5,314C 450.146,320.158 424.813,332.324 402.5,350.5C 401.34,348.854 400.673,347.021 400.5,345C 401.268,335.523 401.768,326.023 402,316.5C 402.793,311.789 403.793,307.122 405,302.5C 409.743,295.358 414.743,288.358 420,281.5C 440.771,262.194 465.271,251.861 493.5,250.5 Z"/></g>
<g><path style="opacity:0.753" fill="#7a7973" d="M 527.5,255.5 C 528.71,255.932 529.71,256.599 530.5,257.5C 528.821,257.715 527.821,257.048 527.5,255.5 Z"/></g>
<g><path style="opacity:0.004" fill="#d4d3c8" d="M 530.5,257.5 C 532.027,257.427 533.027,258.094 533.5,259.5C 531.973,259.573 530.973,258.906 530.5,257.5 Z"/></g>
<g><path style="opacity:0.004" fill="#edecdf" d="M 534.5,260.5 C 536.833,260.833 538.167,262.167 538.5,264.5C 536.833,263.5 535.5,262.167 534.5,260.5 Z"/></g>
<g><path style="opacity:0.004" fill="#f6f6e8" d="M 275.5,266.5 C 276.833,267.167 276.833,267.167 275.5,266.5 Z"/></g>
<g><path style="opacity:0.004" fill="#f2f1e4" d="M 540.5,267.5 C 542.424,267.711 542.757,268.377 541.5,269.5C 541.167,268.833 540.833,268.167 540.5,267.5 Z"/></g>
<g><path style="opacity:1" fill="#1b1b1b" d="M 257.5,268.5 C 263.581,269.027 269.248,270.86 274.5,274C 300.656,294.504 316.322,321.004 321.5,353.5C 307.027,343.088 291.694,333.922 275.5,326C 256.698,319.533 237.365,315.866 217.5,315C 220.037,303.427 224.871,292.927 232,283.5C 239.617,276.783 248.117,271.783 257.5,268.5 Z"/></g>
<g><path style="opacity:0.004" fill="#f6f6e8" d="M 279.5,269.5 C 280.833,270.167 280.833,270.167 279.5,269.5 Z"/></g>
<g><path style="opacity:0.004" fill="#edece0" d="M 542.5,270.5 C 543.833,270.5 544.5,271.167 544.5,272.5C 543.5,272.167 542.833,271.5 542.5,270.5 Z"/></g>
<g><path style="opacity:0.004" fill="#dcdbcf" d="M 283.5,273.5 C 286.167,274.167 287.833,275.833 288.5,278.5C 286.5,277.167 284.833,275.5 283.5,273.5 Z"/></g>
<g><path style="opacity:0.035" fill="#888780" d="M 291.5,280.5 C 293.262,281.262 294.262,282.596 294.5,284.5C 292.738,283.738 291.738,282.404 291.5,280.5 Z"/></g>
<g><path style="opacity:0.004" fill="#ebeade" d="M 298.5,288.5 C 299.833,288.5 300.5,289.167 300.5,290.5C 299.5,290.167 298.833,289.5 298.5,288.5 Z"/></g>
<g><path style="opacity:0.004" fill="#dcdbd0" d="M 302.5,293.5 C 304.912,293.694 305.912,295.027 305.5,297.5C 304.512,296.205 303.512,294.872 302.5,293.5 Z"/></g>
<g><path style="opacity:0.051" fill="#aaa9a0" d="M 555.5,295.5 C 557.105,296.006 557.439,296.673 556.5,297.5C 555.662,297.158 555.328,296.492 555.5,295.5 Z"/></g>
<g><path style="opacity:0.004" fill="#e8e7db" d="M 305.5,297.5 C 306.833,297.5 307.5,298.167 307.5,299.5C 306.5,299.167 305.833,298.5 305.5,297.5 Z"/></g>
<g><path style="opacity:0.059" fill="#a8a79f" d="M 557.5,301.5 C 558.488,302.795 559.488,304.128 560.5,305.5C 558.088,305.306 557.088,303.973 557.5,301.5 Z"/></g>
<g><path style="opacity:0.016" fill="#a6a69d" d="M 309.5,303.5 C 310.906,303.973 311.573,304.973 311.5,306.5C 310.094,306.027 309.427,305.027 309.5,303.5 Z"/></g>
<g><path style="opacity:1" fill="#f3f2e5" d="M 537.5,310.5 C 543.842,310.334 550.175,310.5 556.5,311C 575.021,326.27 578.354,344.437 566.5,365.5C 552.55,354.515 537.55,345.015 521.5,337C 464.404,324.086 438.237,346.919 443,405.5C 436.311,401.322 429.978,396.655 424,391.5C 418.408,383.971 413.074,376.304 408,368.5C 406.6,363.169 405.6,357.836 405,352.5C 429.427,333.71 456.927,321.543 487.5,316C 504.299,314.025 520.966,312.192 537.5,310.5 Z"/></g>
<g><path style="opacity:0.008" fill="#e5e4d8" d="M 561.5,306.5 C 566.992,309.323 570.659,313.656 572.5,319.5C 569.238,314.898 565.572,310.565 561.5,306.5 Z"/></g>
<g><path style="opacity:0.004" fill="#e6e5d9" d="M 317.5,319.5 C 319.048,319.821 319.715,320.821 319.5,322.5C 318.599,321.71 317.932,320.71 317.5,319.5 Z"/></g>
<g><path style="opacity:1" fill="#f2f1e4" d="M 222.5,319.5 C 255.759,321.304 285.259,332.638 311,353.5C 314.194,369.338 311.861,384.338 304,398.5C 302,400.5 300,402.5 298,404.5C 300.325,377.65 289.825,357.483 266.5,344C 244.603,339.53 227.103,346.364 214,364.5C 210.479,369.542 207.479,374.875 205,380.5C 201.502,362.994 204.502,346.661 214,331.5C 216.689,327.325 219.523,323.325 222.5,319.5 Z"/></g>
<g><path style="opacity:0.027" fill="#85857e" d="M 572.5,319.5 C 573.906,319.973 574.573,320.973 574.5,322.5C 573.094,322.027 572.427,321.027 572.5,319.5 Z"/></g>
<g><path style="opacity:0.004" fill="#e5e4d8" d="M 574.5,322.5 C 576.048,322.821 576.715,323.821 576.5,325.5C 575.599,324.71 574.932,323.71 574.5,322.5 Z"/></g>
<g><path style="opacity:0.004" fill="#f6f6e8" d="M 320.5,323.5 C 321.833,324.167 321.833,324.167 320.5,323.5 Z"/></g>
<g><path style="opacity:0.004" fill="#f6f6e8" d="M 577.5,326.5 C 578.833,327.167 578.833,327.167 577.5,326.5 Z"/></g>
<g><path style="opacity:0.004" fill="#f6f6e8" d="M 322.5,329.5 C 323.833,330.167 323.833,330.833 322.5,331.5C 322.5,330.833 322.5,330.167 322.5,329.5 Z"/></g>
<g><path style="opacity:0.004" fill="#f6f6e8" d="M 579.5,334.5 C 580.833,335.167 580.833,335.167 579.5,334.5 Z"/></g>
<g><path style="opacity:0.004" fill="#d4d3c8" d="M 578.5,335.5 C 578.833,335.5 579.167,335.5 579.5,335.5C 580.625,336.652 580.625,337.652 579.5,338.5C 578.833,338.5 578.5,338.167 578.5,337.5C 578.5,336.833 578.5,336.167 578.5,335.5 Z"/></g>
<g><path style="opacity:0.004" fill="#f6f6e8" d="M 580.5,339.5 C 581.629,341.628 581.796,343.961 581,346.5C 580.503,344.19 580.337,341.857 580.5,339.5 Z"/></g>
<g><path style="opacity:0.027" fill="#bebdb3" d="M 579.5,347.5 C 580.354,348.632 580.354,349.965 579.5,351.5C 579.167,351.5 578.833,351.5 578.5,351.5C 578.433,350.041 578.766,348.708 579.5,347.5 Z"/></g>
<g><path style="opacity:0.004" fill="#f6f6e8" d="M 579.5,351.5 C 580.833,352.167 580.833,352.167 579.5,351.5 Z"/></g>
<g><path style="opacity:0.102" fill="#85857e" d="M 335.5,355.5 C 334.209,355.737 333.209,355.404 332.5,354.5C 332.435,354.062 332.601,353.728 333,353.5C 333.995,354.066 334.828,354.733 335.5,355.5 Z"/></g>
<g><path style="opacity:0.004" fill="#f6f6e8" d="M 578.5,355.5 C 579.833,356.167 579.833,356.167 578.5,355.5 Z"/></g>
<g><path style="opacity:1" fill="#1b1b1b" d="M 327.5,357.5 C 334.917,361.206 342.583,364.373 350.5,367C 363.045,369.556 375.379,368.89 387.5,365C 391.183,363.159 394.516,360.826 397.5,358C 398.5,357.333 399.5,357.333 400.5,358C 405.783,368.611 405.617,379.111 400,389.5C 395.86,394.211 390.694,395.711 384.5,394C 378.851,392.027 374.184,388.694 370.5,384C 366.546,380.862 362.546,380.862 358.5,384C 356.402,386.854 354.069,389.521 351.5,392C 343.806,394.989 337.64,393.155 333,386.5C 330.946,376.834 329.112,367.168 327.5,357.5 Z"/></g>
<g><path style="opacity:0.004" fill="#d2d1c6" d="M 577.5,356.5 C 577.833,356.5 578.167,356.5 578.5,356.5C 578.167,357.167 577.833,357.833 577.5,358.5C 577.167,358.5 576.833,358.5 576.5,358.5C 576.328,357.508 576.662,356.842 577.5,356.5 Z"/></g>
<g><path style="opacity:0.004" fill="#f6f6e8" d="M 577.5,358.5 C 578.833,359.167 578.833,359.167 577.5,358.5 Z"/></g>
<g><path style="opacity:0.095" fill="#d3d2c7" d="M 319.5,357.5 C 318.874,363.268 318.207,368.934 317.5,374.5C 317.171,368.463 317.504,362.463 318.5,356.5C 319.107,356.624 319.44,356.957 319.5,357.5 Z"/></g>
<g><path style="opacity:0.031" fill="#908f88" d="M 409.5,378.5 C 408.833,379.833 408.167,381.167 407.5,382.5C 407.337,380.143 407.503,377.81 408,375.5C 409.039,376.244 409.539,377.244 409.5,378.5 Z"/></g>
<g><path style="opacity:0.012" fill="#000000" d="M 549.5,383.5 C 550.833,384.167 550.833,384.167 549.5,383.5 Z"/></g>
<g><path style="opacity:0.02" fill="#000000" d="M 545.5,384.5 C 546.833,385.167 546.833,385.167 545.5,384.5 Z"/></g>
<g><path style="opacity:0.022" fill="#000000" d="M 541.5,386.5 C 541.897,385.475 542.563,385.308 543.5,386C 542.906,386.464 542.239,386.631 541.5,386.5 Z"/></g>
<g><path style="opacity:0.018" fill="#000000" d="M 538.5,387.5 C 538.897,386.475 539.563,386.308 540.5,387C 539.906,387.464 539.239,387.631 538.5,387.5 Z"/></g>
<g><path style="opacity:0.016" fill="#000000" d="M 534.5,388.5 C 534.897,387.475 535.563,387.308 536.5,388C 535.906,388.464 535.239,388.631 534.5,388.5 Z"/></g>
<g><path style="opacity:0.012" fill="#000000" d="M 530.5,389.5 C 530.897,388.475 531.563,388.308 532.5,389C 531.906,389.464 531.239,389.631 530.5,389.5 Z"/></g>
<g><path style="opacity:0.04" fill="#000000" d="M 226.5,391.5 C 228.103,391.312 229.437,391.812 230.5,393C 228.167,393.667 225.833,393.667 223.5,393C 224.737,392.768 225.737,392.268 226.5,391.5 Z"/></g>
<g><path style="opacity:0.042" fill="#000000" d="M 210.5,393.5 C 211.946,392.387 213.613,392.22 215.5,393C 213.866,393.494 212.199,393.66 210.5,393.5 Z"/></g>
<g><path style="opacity:0.016" fill="#000000" d="M 233.5,392.5 C 234.833,393.167 234.833,393.167 233.5,392.5 Z"/></g>
<g><path style="opacity:0.012" fill="#000000" d="M 236.5,394.5 C 236.897,393.475 237.563,393.308 238.5,394C 237.906,394.464 237.239,394.631 236.5,394.5 Z"/></g>
<g><path style="opacity:0.016" fill="#000000" d="M 239.5,395.5 C 239.897,394.475 240.563,394.308 241.5,395C 240.906,395.464 240.239,395.631 239.5,395.5 Z"/></g>
<g><path style="opacity:0.012" fill="#000000" d="M 242.5,395.5 C 243.833,396.167 243.833,396.167 242.5,395.5 Z"/></g>
<g><path style="opacity:0.004" fill="#f6f6e8" d="M 401.5,395.5 C 402.833,396.167 402.833,396.167 401.5,395.5 Z"/></g>
<g><path style="opacity:0.016" fill="#000000" d="M 245.5,396.5 C 246.833,397.167 246.833,397.167 245.5,396.5 Z"/></g>
<g><path style="opacity:0.012" fill="#000000" d="M 247.5,397.5 C 248.833,398.167 248.833,398.167 247.5,397.5 Z"/></g>
<g><path style="opacity:0.004" fill="#f6f6e8" d="M 398.5,397.5 C 398.833,397.5 399.167,397.5 399.5,397.5C 399.315,398.17 398.981,398.17 398.5,397.5 Z"/></g>
<g><path style="opacity:0.02" fill="#000000" d="M 250.5,398.5 C 251.833,399.167 251.833,399.167 250.5,398.5 Z"/></g>
<g><path style="opacity:0.02" fill="#000000" d="M 252.5,399.5 C 253.833,400.167 253.833,400.167 252.5,399.5 Z"/></g>
<g><path style="opacity:0.012" fill="#000000" d="M 254.5,400.5 C 255.833,401.167 255.833,401.167 254.5,400.5 Z"/></g>
<g><path style="opacity:0.004" fill="#f6f6e8" d="M 307.5,403.5 C 308.833,404.167 308.833,404.167 307.5,403.5 Z"/></g>
<g><path style="opacity:0.004" fill="#f6f6e8" d="M 306.5,404.5 C 306.833,404.5 307.167,404.5 307.5,404.5C 307.315,405.17 306.981,405.17 306.5,404.5 Z"/></g>
<g><path style="opacity:0.004" fill="#eeede1" d="M 305.5,405.5 C 305.833,405.5 306.167,405.5 306.5,405.5C 306.027,406.906 305.027,407.573 303.5,407.5C 303.833,406.5 304.5,405.833 305.5,405.5 Z"/></g>

        
<g><path style="opacity:0.984" fill="#1d1d1b" d="M 174.5,344.5 C 175.167,349.167 175.833,353.833 176.5,358.5C 178.111,375.277 187.278,384.611 204,386.5C 231.975,382.162 256.475,389.329 277.5,408C 293.139,416.546 309.806,421.88 327.5,424C 356.497,424.928 385.497,425.261 414.5,425C 429.134,423.395 443.468,420.395 457.5,416C 471.005,408.08 484.672,400.413 498.5,393C 513.647,387.395 528.98,382.395 544.5,378C 559.842,375.537 575.009,376.37 590,380.5C 595.831,378.557 601.498,376.223 607,373.5C 607.638,372.391 608.138,371.225 608.5,370C 607.069,365.361 605.069,361.027 602.5,357C 598.071,354.898 593.905,352.398 590,349.5C 589.085,347.08 589.918,345.747 592.5,345.5C 608.084,348.324 615.251,357.657 614,373.5C 612.833,375.333 611.667,377.167 610.5,379C 605.202,381.66 599.869,384.327 594.5,387C 587.007,387.313 579.673,386.313 572.5,384C 555.682,381.297 540.015,384.131 525.5,392.5C 525.631,391.624 525.298,390.957 524.5,390.5C 523.261,390.942 522.261,391.609 521.5,392.5C 520.791,393.404 519.791,393.737 518.5,393.5C 514.838,393.723 511.505,394.723 508.5,396.5C 505.759,396.707 503.426,397.707 501.5,399.5C 501.158,400.338 500.492,400.672 499.5,400.5C 494.914,401.46 490.914,403.46 487.5,406.5C 487.158,407.338 486.492,407.672 485.5,407.5C 483.973,407.427 482.973,408.094 482.5,409.5C 467.186,420.144 450.186,426.977 431.5,430C 432.637,435.082 432.804,440.249 432,445.5C 431.5,446 431,446.5 430.5,447C 422.694,448.674 414.861,449.841 407,450.5C 404.245,446.366 403.078,441.699 403.5,436.5C 403.5,434.833 403.5,433.167 403.5,431.5C 396.313,431.175 389.313,431.509 382.5,432.5C 376.223,432.451 370.056,431.784 364,430.5C 363.138,436.433 361.971,442.266 360.5,448C 353.216,449.125 345.883,449.959 338.5,450.5C 335.825,449.523 334.325,447.523 334,444.5C 332.925,440.23 332.425,435.897 332.5,431.5C 319.607,430.116 306.94,428.116 294.5,425.5C 296.933,424.452 296.933,423.786 294.5,423.5C 290.703,423.128 287.37,421.794 284.5,419.5C 281.485,417.326 278.151,415.659 274.5,414.5C 273.415,412.413 271.749,411.08 269.5,410.5C 268.508,410.672 267.842,410.338 267.5,409.5C 267.027,408.094 266.027,407.427 264.5,407.5C 246.393,392.864 225.893,388.198 203,393.5C 182.474,390.465 171.974,378.465 171.5,357.5C 171.86,353.483 172.36,349.483 173,345.5C 173.383,344.944 173.883,344.611 174.5,344.5 Z"/></g>
<g><path style="opacity:0.294" fill="#8b8a83" d="M 174.5,344.5 C 174.56,343.957 174.893,343.624 175.5,343.5C 176.494,348.456 176.827,353.456 176.5,358.5C 175.833,353.833 175.167,349.167 174.5,344.5 Z"/></g>
<g><path style="opacity:0.024" fill="#cacabf" d="M 525.5,392.5 C 524.167,392.5 522.833,392.5 521.5,392.5C 522.261,391.609 523.261,390.942 524.5,390.5C 525.298,390.957 525.631,391.624 525.5,392.5 Z"/></g>
<g><path style="opacity:0.024" fill="#d6d5ca" d="M 518.5,393.5 C 515.495,395.277 512.162,396.277 508.5,396.5C 511.505,394.723 514.838,393.723 518.5,393.5 Z"/></g>
<g><path style="opacity:0.039" fill="#d2d1c6" d="M 508.5,396.5 C 506.574,398.293 504.241,399.293 501.5,399.5C 503.426,397.707 505.759,396.707 508.5,396.5 Z"/></g>
<g><path style="opacity:0.031" fill="#d8d7cc" d="M 499.5,400.5 C 495.818,403.008 491.818,405.008 487.5,406.5C 490.914,403.46 494.914,401.46 499.5,400.5 Z"/></g>
<g><path style="opacity:0.055" fill="#d1d0c5" d="M 264.5,407.5 C 266.027,407.427 267.027,408.094 267.5,409.5C 265.973,409.573 264.973,408.906 264.5,407.5 Z"/></g>
<g><path style="opacity:0.02" fill="#dfded2" d="M 485.5,407.5 C 485.027,408.906 484.027,409.573 482.5,409.5C 482.973,408.094 483.973,407.427 485.5,407.5 Z"/></g>
<g><path style="opacity:0.102" fill="#b9b8af" d="M 269.5,410.5 C 271.749,411.08 273.415,412.413 274.5,414.5C 272.251,413.92 270.585,412.587 269.5,410.5 Z"/></g>
<g><path style="opacity:0.039" fill="#d0d0c5" d="M 274.5,414.5 C 278.151,415.659 281.485,417.326 284.5,419.5C 280.58,418.873 277.247,417.207 274.5,414.5 Z"/></g>
<g><path style="opacity:0.031" fill="#d7d6cb" d="M 294.5,423.5 C 296.933,423.786 296.933,424.452 294.5,425.5C 293.494,425.062 293.494,424.396 294.5,423.5 Z"/></g>
<g><path style="opacity:1" fill="#ecebdf" d="M 423.5,429.5 C 425.167,429.5 426.833,429.5 428.5,429.5C 428.8,434.099 428.467,438.599 427.5,443C 421.173,443.651 414.84,444.151 408.5,444.5C 408.046,440.185 407.046,436.019 405.5,432C 411.721,431.729 417.721,430.896 423.5,429.5 Z"/></g>
<g><path style="opacity:1" fill="#f3f2e5" d="M 352.5,429.5 C 354.117,430.038 355.784,430.371 357.5,430.5C 357.5,434.833 357.5,439.167 357.5,443.5C 351.203,444.32 344.869,444.653 338.5,444.5C 337.833,440.167 337.167,435.833 336.5,431.5C 342.069,431.624 347.402,430.957 352.5,429.5 Z"/></g>
<g><path style="opacity:0.09" fill="#75756e" d="M 382.5,432.5 C 389.313,431.509 396.313,431.175 403.5,431.5C 403.5,433.167 403.5,434.833 403.5,436.5C 402.566,435.432 402.232,434.099 402.5,432.5C 395.833,432.5 389.167,432.5 382.5,432.5 Z"/></g>

        
<g><path style="opacity:0.994" fill="#1c1c1b" d="M 394.5,241.5 C 393.791,240.596 392.791,240.263 391.5,240.5C 391.5,242.167 391.5,243.833 391.5,245.5C 391.395,249.319 390.562,252.986 389,256.5C 387.321,259.699 385.321,260.033 383,257.5C 383.07,251.993 380.737,247.993 376,245.5C 372.584,247.992 370.418,251.325 369.5,255.5C 368.127,255.657 366.793,255.49 365.5,255C 361.071,251.705 356.571,248.538 352,245.5C 347.629,248.431 343.796,251.931 340.5,256C 339.5,256.667 338.5,256.667 337.5,256C 335.48,250.719 334.48,245.219 334.5,239.5C 334.5,238.5 334.5,237.5 334.5,236.5C 332.901,236.232 331.568,236.566 330.5,237.5C 324.003,240.981 321.503,238.981 323,231.5C 324.357,228.102 326.19,225.102 328.5,222.5C 329.289,222.217 329.956,221.717 330.5,221C 327.304,220.195 324.304,220.362 321.5,221.5C 317.924,222.813 314.258,223.313 310.5,223C 309.524,220.853 309.691,218.686 311,216.5C 316.593,208.448 324.093,202.948 333.5,200C 324.528,200.535 322.528,197.202 327.5,190C 329.441,188.097 331.774,187.264 334.5,187.5C 336.552,186.947 336.885,185.947 335.5,184.5C 334.023,182.193 332.023,180.36 329.5,179C 321.319,175.606 312.986,172.606 304.5,170C 301.654,169.121 300.987,167.454 302.5,165C 315.061,159.042 327.728,159.042 340.5,165C 355.345,170.679 365.679,180.846 371.5,195.5C 372.596,199.289 373.263,199.289 373.5,195.5C 377.16,183.177 383.16,172.177 391.5,162.5C 398.406,155.547 406.74,151.547 416.5,150.5C 415.726,157.132 412.893,162.798 408,167.5C 404.697,172.441 402.197,177.774 400.5,183.5C 405.328,183.469 410.328,183.635 415.5,184C 417.576,185.884 417.91,188.051 416.5,190.5C 412.206,191.645 408.539,193.812 405.5,197C 418.699,196.375 425.699,202.542 426.5,215.5C 419.799,216.682 414.132,219.682 409.5,224.5C 410.61,233.138 410.776,241.804 410,250.5C 409.592,253.42 408.259,255.754 406,257.5C 405.333,256.833 404.667,256.167 404,255.5C 403.946,252.139 402.946,249.139 401,246.5C 398.648,244.97 396.481,243.303 394.5,241.5 Z"/></g>
<g><path style="opacity:1" fill="#d7d6ca" d="M 408.5,202.5 C 405.167,202.5 401.833,202.5 398.5,202.5C 398.274,199.751 398.607,197.084 399.5,194.5C 397.051,193.09 394.884,193.424 393,195.5C 392.654,184.04 395.821,173.707 402.5,164.5C 400.833,163.334 399.166,163.334 397.5,164.5C 400.468,160.514 404.468,158.348 409.5,158C 401.586,167.41 397.252,178.243 396.5,190.5C 400.011,188.915 403.678,188.415 407.5,189C 404.333,190.833 401.833,193.333 400,196.5C 399.506,198.134 399.34,199.801 399.5,201.5C 402.713,201.19 405.713,201.523 408.5,202.5 Z"/></g>
<g><path style="opacity:1" fill="#f3f2e5" d="M 408.5,202.5 C 409.167,202.5 409.833,202.5 410.5,202.5C 410.423,203.75 409.756,204.583 408.5,205C 410.285,206.163 412.285,206.83 414.5,207C 417.207,210.35 416.207,212.017 411.5,212C 409,214.5 406.5,217 404,219.5C 403.805,224.418 403.305,229.251 402.5,234C 403.38,235.356 403.714,236.856 403.5,238.5C 401.861,238.074 400.528,238.074 399.5,238.5C 396.111,236.78 392.444,236.113 388.5,236.5C 387.992,241.216 387.158,245.882 386,250.5C 382.844,246.178 379.344,242.178 375.5,238.5C 373.547,239.761 371.547,240.927 369.5,242C 369.957,242.414 370.291,242.914 370.5,243.5C 368.808,245.359 367.308,247.359 366,249.5C 361.283,246.402 357.116,242.735 353.5,238.5C 350.961,239.931 348.628,241.597 346.5,243.5C 345.178,243.33 344.011,243.663 343,244.5C 342.667,243.833 342.333,243.167 342,242.5C 342.614,238.479 342.447,234.479 341.5,230.5C 338.788,230.263 336.288,230.263 334,230.5C 333.333,229.5 333.333,228.5 334,227.5C 335.022,225.336 336.189,223.336 337.5,221.5C 337.191,218.654 335.525,217.154 332.5,217C 327.116,216.495 321.782,216.495 316.5,217C 318.557,213.277 321.557,210.61 325.5,209C 330.138,206.003 334.971,204.503 340,204.5C 341.841,198.501 339.674,194.834 333.5,193.5C 335.664,191.316 338.331,189.983 341.5,189.5C 340.088,183.766 337.088,179.099 332.5,175.5C 331.473,173.474 330.139,171.641 328.5,170C 328.833,169.5 329.167,169 329.5,168.5C 330.736,169.246 332.07,169.579 333.5,169.5C 344.555,172.119 353.388,178.119 360,187.5C 363.841,193.178 367.174,199.178 370,205.5C 371.699,206.406 373.533,206.739 375.5,206.5C 377.343,194.144 381.843,182.81 389,172.5C 391.047,168.952 393.88,166.285 397.5,164.5C 399.166,163.334 400.833,163.334 402.5,164.5C 395.821,173.707 392.654,184.04 393,195.5C 394.884,193.424 397.051,193.09 399.5,194.5C 398.607,197.084 398.274,199.751 398.5,202.5C 401.833,202.5 405.167,202.5 408.5,202.5 Z"/></g>
<g><path style="opacity:1" fill="#cfcec2" d="M 333.5,169.5 C 332.07,169.579 330.736,169.246 329.5,168.5C 329.167,169 328.833,169.5 328.5,170C 330.139,171.641 331.473,173.474 332.5,175.5C 326.495,172.498 320.495,169.498 314.5,166.5C 318.122,165.341 321.789,165.175 325.5,166C 328.666,166.322 331.333,167.489 333.5,169.5 Z"/></g>
<g><path style="opacity:0.561" fill="#93928a" d="M 335.5,184.5 C 336.885,185.947 336.552,186.947 334.5,187.5C 335.11,186.609 335.443,185.609 335.5,184.5 Z"/></g>
<g><path style="opacity:1" fill="#92928a" d="M 371.5,195.5 C 372.167,195.5 372.833,195.5 373.5,195.5C 373.263,199.289 372.596,199.289 371.5,195.5 Z"/></g>
<g><path style="opacity:1" fill="#d9d8cb" d="M 410.5,202.5 C 416.016,203.181 420.016,206.014 422.5,211C 415.592,212.922 410.092,216.755 406,222.5C 406.522,230.127 406.522,237.794 406,245.5C 403.628,243.297 401.461,240.963 399.5,238.5C 400.528,238.074 401.861,238.074 403.5,238.5C 403.714,236.856 403.38,235.356 402.5,234C 403.305,229.251 403.805,224.418 404,219.5C 406.5,217 409,214.5 411.5,212C 416.207,212.017 417.207,210.35 414.5,207C 412.285,206.83 410.285,206.163 408.5,205C 409.756,204.583 410.423,203.75 410.5,202.5 Z"/></g>
<g><path style="opacity:0.447" fill="#706f69" d="M 321.5,221.5 C 324.304,220.362 327.304,220.195 330.5,221C 329.956,221.717 329.289,222.217 328.5,222.5C 326.393,221.532 324.059,221.198 321.5,221.5 Z"/></g>
<g><path style="opacity:1" fill="#d6d5c9" d="M 337.5,221.5 C 336.189,223.336 335.022,225.336 334,227.5C 333.333,228.5 333.333,229.5 334,230.5C 336.288,230.263 338.788,230.263 341.5,230.5C 342.447,234.479 342.614,238.479 342,242.5C 342.333,243.167 342.667,243.833 343,244.5C 344.011,243.663 345.178,243.33 346.5,243.5C 344.229,245.266 342.063,247.266 340,249.5C 337.689,243.959 336.856,238.293 337.5,232.5C 334.073,232.976 330.74,232.976 327.5,232.5C 329.464,227.538 332.798,223.871 337.5,221.5 Z"/></g>
<g><path style="opacity:0.18" fill="#b1b0a7" d="M 330.5,237.5 C 331.568,236.566 332.901,236.232 334.5,236.5C 334.5,237.5 334.5,238.5 334.5,239.5C 333.533,238.194 332.199,237.527 330.5,237.5 Z"/></g>
<g><path style="opacity:0.424" fill="#84847d" d="M 394.5,241.5 C 393.022,242.448 392.022,243.781 391.5,245.5C 391.5,243.833 391.5,242.167 391.5,240.5C 392.791,240.263 393.791,240.596 394.5,241.5 Z"/></g>

    </svg>
