
    <svg width="862" height="862" viewBox="0 0 862 862" fill="none" xmlns="http://www.w3.org/2000/svg">
        
<g><path style="opacity:1" fill="#f6f6e8" d="M -0.5,-0.5 C 286.833,-0.5 574.167,-0.5 861.5,-0.5C 861.5,286.833 861.5,574.167 861.5,861.5C 574.167,861.5 286.833,861.5 -0.5,861.5C -0.5,574.167 -0.5,286.833 -0.5,-0.5 Z"/></g>

        
<g><path style="opacity:0.983" fill="#1a1a19" d="M 578.5,540.5 C 583.993,540.916 589.326,542.082 594.5,544C 599.237,547.614 603.403,551.781 607,556.5C 613.977,570.057 616.311,584.39 614,599.5C 611.931,603.236 608.931,605.903 605,607.5C 603.018,607.01 601.351,606.01 600,604.5C 594.275,609.717 588.442,609.717 582.5,604.5C 577.923,613.337 572.256,614.337 565.5,607.5C 561.53,612.973 556.196,614.806 549.5,613C 548.299,612.097 547.465,610.931 547,609.5C 541.931,617.452 536.764,617.452 531.5,609.5C 527.737,613.765 523.737,617.932 519.5,622C 516.106,622.752 512.773,622.585 509.5,621.5C 508.194,620.088 507.36,618.421 507,616.5C 505.425,609.568 504.258,602.568 503.5,595.5C 504.335,583.317 510.669,578.317 522.5,580.5C 523.795,579.902 525.128,579.402 526.5,579C 535.197,570.637 543.531,561.97 551.5,553C 559.592,546.617 568.592,542.45 578.5,540.5 Z"/></g>
<g><path style="opacity:1" fill="#d9d8cb" d="M 587.5,601.5 C 588.496,601.586 589.329,601.252 590,600.5C 592.94,596.545 595.94,592.545 599,588.5C 599.37,579.339 598.37,570.339 596,561.5C 591.36,554.156 584.693,549.822 576,548.5C 573.538,549.159 571.038,549.493 568.5,549.5C 581.297,543.74 592.13,546.407 601,557.5C 608.853,570.951 611.186,585.285 608,600.5C 606.604,602.527 604.938,602.86 603,601.5C 602.091,598.089 601.091,594.755 600,591.5C 598.35,595.573 596.516,599.573 594.5,603.5C 591.584,604.861 589.251,604.195 587.5,601.5 Z"/></g>
<g><path style="opacity:1" fill="#f4f3e6" d="M 587.5,601.5 C 585.433,599.682 584.1,597.349 583.5,594.5C 582.635,593.417 581.635,593.251 580.5,594C 579.955,598.074 578.621,601.907 576.5,605.5C 574.878,607.439 573.044,607.772 571,606.5C 568.863,602.486 567.03,598.486 565.5,594.5C 564.522,594.977 563.689,595.643 563,596.5C 563.284,605.334 559.118,609.667 550.5,609.5C 550.348,605.228 549.348,601.228 547.5,597.5C 545.179,600.394 544.012,603.727 544,607.5C 541.618,612.067 538.951,612.4 536,608.5C 535.887,606.026 534.887,604.026 533,602.5C 527.856,607.313 523.023,612.48 518.5,618C 516.098,618.814 513.765,618.647 511.5,617.5C 508.811,609.37 507.645,601.036 508,592.5C 508.668,588.501 510.835,585.668 514.5,584C 518.801,584.363 523.134,584.363 527.5,584C 529.167,583 530.833,582 532.5,581C 540.864,572.97 548.864,564.637 556.5,556C 560.367,553.567 564.367,551.4 568.5,549.5C 571.038,549.493 573.538,549.159 576,548.5C 584.693,549.822 591.36,554.156 596,561.5C 598.37,570.339 599.37,579.339 599,588.5C 595.94,592.545 592.94,596.545 590,600.5C 589.329,601.252 588.496,601.586 587.5,601.5 Z"/></g>
<g><path style="opacity:0.982" fill="#191918" d="M 290.5,554.5 C 298.253,554.104 305.92,554.604 313.5,556C 315.5,557.333 317.5,558.667 319.5,560C 322.228,566.042 326.895,569.709 333.5,571C 335.378,572.543 336.878,574.376 338,576.5C 338.242,583.196 338.742,589.862 339.5,596.5C 339.461,598.587 338.461,599.921 336.5,600.5C 332.274,599.93 328.108,599.263 324,598.5C 322.5,600 321,601.5 319.5,603C 317.287,603.626 315.12,603.459 313,602.5C 306.564,605.689 301.23,604.356 297,598.5C 284.481,607.161 276.648,603.994 273.5,589C 271.944,573.778 277.611,562.278 290.5,554.5 Z"/></g>
<g><path style="opacity:1" fill="#f4f3e6" d="M 334.5,587.5 C 334.5,590.167 334.5,592.833 334.5,595.5C 333.167,595.5 331.833,595.5 330.5,595.5C 327.482,595.335 324.482,595.502 321.5,596C 320.022,598.039 318.022,598.872 315.5,598.5C 315.5,597.5 315.5,596.5 315.5,595.5C 312.326,596.015 309.326,597.015 306.5,598.5C 305.5,598.333 304.5,598.167 303.5,598C 301.441,595.366 299.275,592.866 297,590.5C 296.292,591.381 295.458,592.047 294.5,592.5C 290.404,593.285 287.07,592.118 284.5,589C 284.833,588.667 285.167,588.333 285.5,588C 283.667,587.5 282.5,586.333 282,584.5C 281.501,580.179 281.334,575.846 281.5,571.5C 281.709,570.078 282.209,568.745 283,567.5C 286.167,565 289.333,562.5 292.5,560C 298.167,559.333 303.833,559.333 309.5,560C 314.42,562.916 318.753,566.582 322.5,571C 326.232,572.461 329.732,574.294 333,576.5C 333.936,580.114 334.436,583.78 334.5,587.5 Z"/></g>
<g><path style="opacity:1" fill="#d7d6c9" d="M 281.5,571.5 C 281.334,575.846 281.501,580.179 282,584.5C 282.5,586.333 283.667,587.5 285.5,588C 285.167,588.333 284.833,588.667 284.5,589C 287.07,592.118 290.404,593.285 294.5,592.5C 293.641,595.452 291.641,597.285 288.5,598C 285.364,599.041 282.864,598.207 281,595.5C 279.409,588.608 279.076,581.608 280,574.5C 280.232,573.263 280.732,572.263 281.5,571.5 Z"/></g>
<g><path style="opacity:1" fill="#64635e" d="M 334.5,587.5 C 335.477,590.287 335.81,593.287 335.5,596.5C 333.585,596.784 331.919,596.451 330.5,595.5C 331.833,595.5 333.167,595.5 334.5,595.5C 334.5,592.833 334.5,590.167 334.5,587.5 Z"/></g>

        
<g><path style="opacity:0.994" fill="#030c0c" d="M 505.5,18.5 C 529.919,17.7264 553.919,20.5598 577.5,27C 609.101,35.4222 639.767,46.4222 669.5,60C 698.643,78.4613 725.476,99.9613 750,124.5C 769.217,147.939 781.717,174.606 787.5,204.5C 787.255,206.663 786.255,208.33 784.5,209.5C 759.247,199.852 733.247,192.685 706.5,188C 674.881,182.925 645.214,188.259 617.5,204C 595.206,220.746 581.706,242.913 577,270.5C 573.386,276.063 568.219,279.23 561.5,280C 535.059,282.696 509.726,278.696 485.5,268C 468.941,259.107 453.775,248.273 440,235.5C 437.168,231.336 435.001,226.836 433.5,222C 433.645,221.228 433.978,220.561 434.5,220C 452.214,214.488 469.881,208.821 487.5,203C 509.336,194.838 527.502,181.671 542,163.5C 552.415,149.418 554.082,134.418 547,118.5C 546.505,116.527 546.338,114.527 546.5,112.5C 552.944,108.776 559.611,105.276 566.5,102C 576.482,99.0056 586.482,96.339 596.5,94C 561.281,62.2167 520.614,40.05 474.5,27.5C 473.417,26.635 473.251,25.635 474,24.5C 475.816,23.6705 477.649,22.8372 479.5,22C 488.308,20.784 496.974,19.6174 505.5,18.5 Z"/></g>
<g><path style="opacity:1" fill="#004944" d="M 536.5,178.5 C 535.704,182.297 533.704,185.297 530.5,187.5C 529.846,189.115 529.346,190.782 529,192.5C 525.167,196.333 521.333,200.167 517.5,204C 514,205.665 510.667,206.832 507.5,207.5C 506.228,207.43 505.062,207.097 504,206.5C 497.898,209.133 492.065,212.133 486.5,215.5C 484.923,220.055 484.09,224.722 484,229.5C 484.414,229.043 484.914,228.709 485.5,228.5C 486.098,231.187 487.431,233.354 489.5,235C 489.167,235.333 488.833,235.667 488.5,236C 491.333,236.167 492.833,237.667 493,240.5C 493.333,239.833 493.667,239.167 494,238.5C 495.655,238.802 496.988,240.136 498,242.5C 502.324,242.351 506.658,242.017 511,241.5C 514.341,243.671 518.008,245.005 522,245.5C 523.16,243.203 524.16,243.536 525,246.5C 526.851,244.219 528.518,244.219 530,246.5C 531.049,245.483 532.216,245.316 533.5,246C 532.304,246.654 532.304,247.154 533.5,247.5C 536.245,246.025 538.412,246.691 540,249.5C 544.19,248.732 548.357,247.732 552.5,246.5C 555.239,243.13 558.239,239.297 561.5,235C 560.202,232.501 560.536,230.167 562.5,228C 562.167,227.667 561.833,227.333 561.5,227C 564.018,225.12 564.685,222.787 563.5,220C 564.162,218.668 565.328,217.502 567,216.5C 568.617,213.073 569.617,209.74 570,206.5C 570.667,207.833 571.333,207.833 572,206.5C 571.169,203.263 572.336,200.763 575.5,199C 574.167,197.16 574.334,196.66 576,197.5C 576.729,193.113 578.729,189.447 582,186.5C 583.933,181.535 585.933,176.535 588,171.5C 589.294,164.56 587.961,158.227 584,152.5C 583.586,152.957 583.086,153.291 582.5,153.5C 582.331,152.603 581.998,151.603 581.5,150.5C 580.914,150.709 580.414,151.043 580,151.5C 577.978,150.214 575.811,149.214 573.5,148.5C 571.629,149.767 569.796,149.767 568,148.5C 564.436,151.369 560.602,153.869 556.5,156C 555.167,156.667 555.167,157.333 556.5,158C 555.747,159.487 554.914,159.654 554,158.5C 552.887,159.76 552.72,160.927 553.5,162C 552.184,162.528 551.517,162.028 551.5,160.5C 558.566,145.989 559.233,131.156 553.5,116C 556.103,112.692 559.436,110.359 563.5,109C 575.485,104.613 587.819,101.613 600.5,100C 603.379,98.3342 604.212,95.8342 603,92.5C 598.833,88.3333 594.667,84.1667 590.5,80C 577.512,70.5047 564.179,61.5047 550.5,53C 540.849,48.5089 531.515,43.5089 522.5,38C 511.167,34 499.833,30 488.5,26C 509.79,22.4719 531.123,22.8052 552.5,27C 582.164,33.4436 611.164,42.1103 639.5,53C 660.688,60.9222 680.022,71.9222 697.5,86C 710.5,97 723.5,108 736.5,119C 758.807,142.416 773.473,169.916 780.5,201.5C 763.076,195.638 745.409,190.471 727.5,186C 699.794,180.142 672.127,180.142 644.5,186C 603.461,199.42 579.461,227.42 572.5,270C 569.583,271.528 566.583,272.861 563.5,274C 536.135,277.591 510.135,273.258 485.5,261C 470.334,252.665 456.5,242.498 444,230.5C 442.833,228.167 441.667,225.833 440.5,223.5C 459.863,218.434 478.863,212.268 497.5,205C 504.342,201.078 511.342,197.412 518.5,194C 525.012,189.313 531.012,184.146 536.5,178.5 Z"/></g>
<g><path style="opacity:0.994" fill="#0c0c12" d="M 110.5,109.5 C 116.833,105.167 122.167,99.8333 126.5,93.5C 135.313,86.1972 144.313,79.0306 153.5,72C 170.937,64.1151 187.937,55.4484 204.5,46C 222.928,39.3172 241.928,35.3172 261.5,34C 268.833,33.3333 276.167,33.3333 283.5,34C 284.406,35.6995 284.739,37.5328 284.5,39.5C 282.473,39.3379 280.473,39.5045 278.5,40C 251.079,56.5854 230.079,79.0854 215.5,107.5C 223.11,109.983 230.443,113.149 237.5,117C 239.543,119.009 241.543,121.009 243.5,123C 243.578,128.964 243.411,135.131 243,141.5C 242.488,146.038 240.988,150.204 238.5,154C 248.461,168.641 257.628,183.808 266,199.5C 276.165,211.143 285.665,223.143 294.5,235.5C 285.24,264.602 266.573,285.435 238.5,298C 232.801,299.002 227.301,300.502 222,302.5C 219.446,302.42 217.946,301.086 217.5,298.5C 226.852,273.567 224.685,249.567 211,226.5C 195.302,204.14 174.468,188.64 148.5,180C 123.327,176.617 100.993,182.95 81.5,199C 79.8876,199.72 78.3876,199.554 77,198.5C 77.0751,189.833 77.7417,181.166 79,172.5C 83.4608,161.784 87.1275,150.784 90,139.5C 95.9148,128.773 102.748,118.773 110.5,109.5 Z"/></g>
<g><path style="opacity:1" fill="#004a44" d="M 261.5,40.5 C 262.791,40.2627 263.791,40.596 264.5,41.5C 243.286,57.2151 226.12,76.5484 213,99.5C 211.855,102.432 211.022,105.432 210.5,108.5C 209.167,108.5 207.833,108.5 206.5,108.5C 206.452,111.292 207.785,113.125 210.5,114C 220.933,114.96 230.1,119.126 238,126.5C 239.8,136.465 237.633,145.298 231.5,153C 236.717,162.603 242.05,172.103 247.5,181.5C 246.194,180.032 244.694,178.699 243,177.5C 242.333,180.167 241.667,180.167 241,177.5C 240,178.5 239,179.5 238,180.5C 234.257,177.585 231.757,177.918 230.5,181.5C 228.575,181.163 227.075,179.83 226,177.5C 225.026,179.878 224.359,179.544 224,176.5C 221.02,173.67 217.854,170.337 214.5,166.5C 212.833,167.5 211.5,168.833 210.5,170.5C 209.575,169.359 208.741,169.359 208,170.5C 206.924,174.102 206.09,177.769 205.5,181.5C 205.945,183.388 205.945,185.388 205.5,187.5C 205.76,189.187 206.427,190.687 207.5,192C 207.167,192.333 206.833,192.667 206.5,193C 207.944,194.707 209.277,196.54 210.5,198.5C 209.429,200.325 210.096,201.492 212.5,202C 210.314,202.604 210.148,203.77 212,205.5C 213.067,206.191 214.234,206.691 215.5,207C 214.353,209.085 215.02,210.585 217.5,211.5C 216.754,212.736 216.421,214.07 216.5,215.5C 217.552,215.351 218.552,215.517 219.5,216C 219.167,216.333 218.833,216.667 218.5,217C 220.558,218.49 221.891,220.49 222.5,223C 219.833,223.667 219.833,224.333 222.5,225C 222.131,228.053 223.131,230.887 225.5,233.5C 225.145,234.522 224.478,235.189 223.5,235.5C 217.511,222.379 209.178,210.879 198.5,201C 191.833,195.667 185.167,190.333 178.5,185C 145.593,166.828 113.926,168.662 83.5,190.5C 82.5318,188.393 82.1984,186.059 82.5,183.5C 86.3549,170.11 90.5216,156.776 95,143.5C 99.2205,136.893 103.054,130.06 106.5,123C 129.187,96.1832 156.02,75.6832 187,61.5C 188,61.5 189,61.5 190,61.5C 194.632,58.8573 198.965,55.8573 203,52.5C 204.016,53.6341 204.683,53.3008 205,51.5C 206.998,52.2714 208.665,51.6048 210,49.5C 210.414,49.9574 210.914,50.2907 211.5,50.5C 216.069,48.6994 220.735,47.1994 225.5,46C 237.507,43.8366 249.507,42.0033 261.5,40.5 Z"/></g>
<g><path style="opacity:1" fill="#3c003e" d="M 261.5,40.5 C 262.708,39.218 264.042,39.218 265.5,40.5C 265.376,41.1067 265.043,41.44 264.5,41.5C 263.791,40.596 262.791,40.2627 261.5,40.5 Z"/></g>
<g><path style="opacity:1" fill="#005a5d" d="M 602.5,148.5 C 603.097,148.265 603.43,147.765 603.5,147C 602.767,144.28 601.767,141.78 600.5,139.5C 599.463,138.07 598.796,136.403 598.5,134.5C 598.741,132.102 598.074,130.102 596.5,128.5C 596.771,126.62 596.104,125.287 594.5,124.5C 592.992,122.819 591.992,120.819 591.5,118.5C 591.167,116.5 590.833,114.5 590.5,112.5C 590.328,111.508 590.662,110.842 591.5,110.5C 593.027,110.573 594.027,109.906 594.5,108.5C 597.713,107.317 600.88,106.984 604,107.5C 605.168,106.491 606.335,105.491 607.5,104.5C 608.842,105.902 609.676,105.569 610,103.5C 612.498,104.598 614.998,104.432 617.5,103C 622.102,101.133 626.768,99.4662 631.5,98C 632.845,95.8068 634.845,94.3068 637.5,93.5C 634.998,91.5858 632.998,89.2525 631.5,86.5C 627.217,83.8847 623.217,80.8847 619.5,77.5C 617.958,76.2532 616.458,76.2532 615,77.5C 611.324,74.8212 607.491,72.3212 603.5,70C 601.624,67.4913 599.457,65.3246 597,63.5C 596,63.5 595,63.5 594,63.5C 593.558,61.3215 592.558,60.6548 591,61.5C 589.318,59.4011 587.652,58.0678 586,57.5C 585.586,57.9574 585.086,58.2907 584.5,58.5C 579.913,57.3898 575.413,55.3898 571,52.5C 568.679,53.3613 567.513,52.3613 567.5,49.5C 562.565,50.8463 559.565,48.8463 558.5,43.5C 561.923,40.588 564.923,40.9213 567.5,44.5C 568.167,44.1667 568.833,43.8333 569.5,43.5C 570.696,43.8457 570.696,44.3457 569.5,45C 572.047,45.0674 574.214,45.9007 576,47.5C 577.806,45.0481 579.306,45.3814 580.5,48.5C 581.861,49.2435 584.361,49.2435 588,48.5C 591.622,49.3375 594.956,51.3375 598,54.5C 599.512,52.0426 600.846,52.0426 602,54.5C 602.561,53.9781 603.228,53.6448 604,53.5C 606.5,54.3333 609,55.1667 611.5,56C 612.126,56.7504 612.626,57.5838 613,58.5C 614.728,59.2402 616.728,59.2402 619,58.5C 620.648,59.717 622.481,60.5503 624.5,61C 623.366,62.016 623.699,62.6827 625.5,63C 629.864,64.4009 634.197,64.9009 638.5,64.5C 639.799,65.09 640.632,66.09 641,67.5C 641.561,66.9781 642.228,66.6448 643,66.5C 645.248,67.9548 647.748,68.7882 650.5,69C 653.029,72.9956 656.529,74.4956 661,73.5C 661.605,75.4812 662.605,75.8146 664,74.5C 664.483,75.448 664.649,76.448 664.5,77.5C 665.822,77.67 666.989,77.3366 668,76.5C 669.824,78.7258 671.657,80.2258 673.5,81C 675.5,81.6667 677.5,82.3333 679.5,83C 678.66,84.6665 679.16,84.8331 681,83.5C 681.75,84.1258 682.584,84.6258 683.5,85C 683.167,85.3333 682.833,85.6667 682.5,86C 684.392,86.9734 686.392,87.6401 688.5,88C 689.667,89.8333 690.833,91.6667 692,93.5C 694.464,92.4744 696.298,93.3077 697.5,96C 696.66,97.6665 697.16,97.8331 699,96.5C 704.074,104.409 710.574,110.742 718.5,115.5C 718.491,117.308 718.991,118.975 720,120.5C 724.234,125.043 728.401,130.377 732.5,136.5C 734.102,135.45 734.935,136.117 735,138.5C 735.333,138.167 735.667,137.833 736,137.5C 736.309,138.766 736.809,139.933 737.5,141C 737.167,141.333 736.833,141.667 736.5,142C 737.833,142.667 739.167,143.333 740.5,144C 739.833,144.333 739.167,144.667 738.5,145C 739.552,146.119 740.719,146.619 742,146.5C 743.4,149.902 745.567,152.736 748.5,155C 747.366,156.016 747.699,156.683 749.5,157C 749.525,159.012 749.525,161.012 749.5,163C 751.06,165.768 752.393,168.602 753.5,171.5C 753.392,172.442 753.059,173.275 752.5,174C 753.672,174.419 754.672,175.085 755.5,176C 754.167,177 754.167,178 755.5,179C 754.214,181.423 752.714,182.923 751,183.5C 748.925,181.352 746.592,181.018 744,182.5C 743.167,181.667 742.333,180.833 741.5,180C 736.199,178.875 731.032,177.375 726,175.5C 724,175.5 722,175.5 720,175.5C 717.433,174.73 714.933,173.73 712.5,172.5C 711.038,173.471 709.705,173.138 708.5,171.5C 707.167,172.167 705.833,172.833 704.5,173.5C 703.555,171.483 702.055,171.15 700,172.5C 698.674,172.245 697.674,171.578 697,170.5C 686.199,171.422 675.199,171.422 664,170.5C 661.726,172.563 659.226,172.563 656.5,170.5C 654.866,170.968 653.7,171.968 653,173.5C 651.333,172.833 649.667,172.167 648,171.5C 642.51,172.799 637.51,174.466 633,176.5C 632.374,174.009 631.541,174.009 630.5,176.5C 628.836,175.777 627.169,176.11 625.5,177.5C 622.833,177.5 620.167,177.5 617.5,177.5C 615.826,174.746 614.159,174.413 612.5,176.5C 610.851,175.352 609.351,174.019 608,172.5C 607.227,167.834 606.561,162.834 606,157.5C 605.682,155.939 604.849,154.772 603.5,154C 604.167,153.667 604.833,153.333 605.5,153C 603.859,151.871 602.859,150.371 602.5,148.5 Z"/></g>
<g><path style="opacity:1" fill="#005a5d" d="M 225.5,53.5 C 226.478,53.811 227.145,54.4777 227.5,55.5C 226.438,56.7701 225.438,57.9367 224.5,59C 224.833,59.3333 225.167,59.6667 225.5,60C 220.176,64.459 216.176,69.959 213.5,76.5C 211.603,78.4763 209.603,80.3096 207.5,82C 207.833,82.3333 208.167,82.6667 208.5,83C 205.587,86.5618 202.587,90.0618 199.5,93.5C 200.534,96.0572 199.534,97.3905 196.5,97.5C 196.358,100.617 195.024,103.117 192.5,105C 193.925,106.714 193.592,108.047 191.5,109C 191.833,109.333 192.167,109.667 192.5,110C 189.773,112.241 189.106,114.907 190.5,118C 188.343,119.085 188.176,120.251 190,121.5C 191.566,122.061 192.899,121.394 194,119.5C 197.975,119.549 201.975,119.549 206,119.5C 206.853,121.125 207.853,121.458 209,120.5C 210.713,121.878 212.047,123.545 213,125.5C 213.333,125.167 213.667,124.833 214,124.5C 218.608,128.003 220.108,132.169 218.5,137C 219.167,137.667 219.833,138.333 220.5,139C 217.681,141.383 216.515,144.216 217,147.5C 216.25,148.126 215.416,148.626 214.5,149C 214.5,150.333 214.5,151.667 214.5,153C 211.701,153.439 210.701,154.772 211.5,157C 209.479,157.513 207.979,158.68 207,160.5C 206.07,163.362 204.403,165.695 202,167.5C 201.517,168.448 201.351,169.448 201.5,170.5C 197.103,170.575 192.77,170.075 188.5,169C 181.084,166.236 173.917,163.736 167,161.5C 166.333,162.167 165.667,162.833 165,163.5C 162.389,162.929 159.889,162.096 157.5,161C 144.233,160.615 131.067,160.448 118,160.5C 113.119,161.174 108.286,162.174 103.5,163.5C 101.382,163.24 99.7158,162.24 98.5,160.5C 101.608,152.971 104.608,145.304 107.5,137.5C 108.382,136.24 109.382,135.074 110.5,134C 109.833,133.667 109.167,133.333 108.5,133C 111.415,131.883 113.415,129.883 114.5,127C 114.167,126.667 113.833,126.333 113.5,126C 114.743,123.966 116.243,123.133 118,123.5C 118.862,121.913 119.529,120.246 120,118.5C 120.667,117.167 121.333,117.167 122,118.5C 122.333,117.5 122.667,116.5 123,115.5C 125.811,114.777 128.311,112.944 130.5,110C 130.167,109.667 129.833,109.333 129.5,109C 130.5,108.667 131.5,108.333 132.5,108C 132.167,107.667 131.833,107.333 131.5,107C 133.5,106 135.5,105 137.5,104C 136.167,103 136.167,102 137.5,101C 141.31,99.8701 144.643,97.8701 147.5,95C 147.167,94.6667 146.833,94.3333 146.5,94C 148.132,92.6896 149.799,92.1896 151.5,92.5C 155.533,88.7977 159.533,85.1311 163.5,81.5C 164.086,81.7093 164.586,82.0426 165,82.5C 167.225,81.0611 169.225,79.3945 171,77.5C 171.718,78.4506 172.551,78.6172 173.5,78C 174.833,77.3333 174.833,76.6667 173.5,76C 174.872,75.5983 176.205,75.0983 177.5,74.5C 178.192,75.0253 178.692,75.6919 179,76.5C 181.884,75.4402 183.717,73.9402 184.5,72C 186.134,71.5065 187.801,71.3398 189.5,71.5C 189.351,70.448 189.517,69.448 190,68.5C 190.333,68.8333 190.667,69.1667 191,69.5C 195.464,67.0248 199.63,64.1914 203.5,61C 204.784,60.3162 205.951,60.4829 207,61.5C 208.194,59.4746 209.694,59.1413 211.5,60.5C 212.5,60 213.5,59.5 214.5,59C 213.66,57.3335 214.16,57.1669 216,58.5C 217.93,55.6041 220.43,54.6041 223.5,55.5C 224.522,55.1445 225.189,54.4778 225.5,53.5 Z"/></g>
<g><path style="opacity:0.749" fill="#092628" d="M 126.5,93.5 C 122.167,99.8333 116.833,105.167 110.5,109.5C 115.5,103.833 120.833,98.5 126.5,93.5 Z"/></g>
<g><path style="opacity:1" fill="#322855" d="M 594.5,108.5 C 594.027,109.906 593.027,110.573 591.5,110.5C 591.973,109.094 592.973,108.427 594.5,108.5 Z"/></g>
<g><path style="opacity:1" fill="#221e53" d="M 590.5,112.5 C 590.833,114.5 591.167,116.5 591.5,118.5C 589.539,116.68 589.206,114.68 590.5,112.5 Z"/></g>
<g><path style="opacity:1" fill="#241e50" d="M 594.5,124.5 C 596.104,125.287 596.771,126.62 596.5,128.5C 595.326,127.486 594.66,126.153 594.5,124.5 Z"/></g>
<g><path style="opacity:1" fill="#2c2253" d="M 596.5,128.5 C 598.074,130.102 598.741,132.102 598.5,134.5C 597.262,132.786 596.595,130.786 596.5,128.5 Z"/></g>
<g><path style="opacity:1" fill="#2c2354" d="M 600.5,139.5 C 601.767,141.78 602.767,144.28 603.5,147C 603.43,147.765 603.097,148.265 602.5,148.5C 601.422,145.598 600.756,142.598 600.5,139.5 Z"/></g>
<g><path style="opacity:1" fill="#005a5d" d="M 536.5,178.5 C 541.5,172.5 546.5,166.5 551.5,160.5C 551.517,162.028 552.184,162.528 553.5,162C 552.72,160.927 552.887,159.76 554,158.5C 554.914,159.654 555.747,159.487 556.5,158C 555.167,157.333 555.167,156.667 556.5,156C 560.602,153.869 564.436,151.369 568,148.5C 569.796,149.767 571.629,149.767 573.5,148.5C 575.811,149.214 577.978,150.214 580,151.5C 580.414,151.043 580.914,150.709 581.5,150.5C 581.998,151.603 582.331,152.603 582.5,153.5C 583.086,153.291 583.586,152.957 584,152.5C 587.961,158.227 589.294,164.56 588,171.5C 585.933,176.535 583.933,181.535 582,186.5C 578.729,189.447 576.729,193.113 576,197.5C 574.334,196.66 574.167,197.16 575.5,199C 572.336,200.763 571.169,203.263 572,206.5C 571.333,207.833 570.667,207.833 570,206.5C 569.617,209.74 568.617,213.073 567,216.5C 565.328,217.502 564.162,218.668 563.5,220C 564.685,222.787 564.018,225.12 561.5,227C 561.833,227.333 562.167,227.667 562.5,228C 560.536,230.167 560.202,232.501 561.5,235C 558.239,239.297 555.239,243.13 552.5,246.5C 548.357,247.732 544.19,248.732 540,249.5C 538.412,246.691 536.245,246.025 533.5,247.5C 532.304,247.154 532.304,246.654 533.5,246C 532.216,245.316 531.049,245.483 530,246.5C 528.518,244.219 526.851,244.219 525,246.5C 524.16,243.536 523.16,243.203 522,245.5C 518.008,245.005 514.341,243.671 511,241.5C 506.658,242.017 502.324,242.351 498,242.5C 496.988,240.136 495.655,238.802 494,238.5C 493.667,239.167 493.333,239.833 493,240.5C 492.833,237.667 491.333,236.167 488.5,236C 488.833,235.667 489.167,235.333 489.5,235C 487.431,233.354 486.098,231.187 485.5,228.5C 484.914,228.709 484.414,229.043 484,229.5C 484.09,224.722 484.923,220.055 486.5,215.5C 492.065,212.133 497.898,209.133 504,206.5C 505.062,207.097 506.228,207.43 507.5,207.5C 510.667,206.832 514,205.665 517.5,204C 521.333,200.167 525.167,196.333 529,192.5C 529.346,190.782 529.846,189.115 530.5,187.5C 533.704,185.297 535.704,182.297 536.5,178.5 Z"/></g>
<g><path style="opacity:1" fill="#005a5d" d="M 247.5,181.5 C 251.404,187.634 255.071,193.968 258.5,200.5C 259.776,208.761 262.443,215.761 266.5,221.5C 266.291,222.086 265.957,222.586 265.5,223C 268.788,226.358 270.121,230.191 269.5,234.5C 270.5,234.5 271.5,234.5 272.5,234.5C 272.421,235.93 272.754,237.264 273.5,238.5C 272.624,239.251 271.624,239.751 270.5,240C 271.167,240.333 271.833,240.667 272.5,241C 269.056,243.958 266.056,247.291 263.5,251C 263.833,251.333 264.167,251.667 264.5,252C 260.019,256.833 255.186,261.333 250,265.5C 248.561,267.275 247.561,269.275 247,271.5C 246.586,271.043 246.086,270.709 245.5,270.5C 244.139,272.028 242.972,273.695 242,275.5C 241.667,275.167 241.333,274.833 241,274.5C 240.51,275.793 240.343,277.127 240.5,278.5C 238.403,277.647 236.403,277.647 234.5,278.5C 231.032,277.826 230.366,276.492 232.5,274.5C 232.998,271.937 232.331,269.603 230.5,267.5C 229.678,256.381 227.345,245.714 223.5,235.5C 224.478,235.189 225.145,234.522 225.5,233.5C 223.131,230.887 222.131,228.053 222.5,225C 219.833,224.333 219.833,223.667 222.5,223C 221.891,220.49 220.558,218.49 218.5,217C 218.833,216.667 219.167,216.333 219.5,216C 218.552,215.517 217.552,215.351 216.5,215.5C 216.421,214.07 216.754,212.736 217.5,211.5C 215.02,210.585 214.353,209.085 215.5,207C 214.234,206.691 213.067,206.191 212,205.5C 210.148,203.77 210.314,202.604 212.5,202C 210.096,201.492 209.429,200.325 210.5,198.5C 209.277,196.54 207.944,194.707 206.5,193C 206.833,192.667 207.167,192.333 207.5,192C 206.427,190.687 205.76,189.187 205.5,187.5C 205.945,185.388 205.945,183.388 205.5,181.5C 206.09,177.769 206.924,174.102 208,170.5C 208.741,169.359 209.575,169.359 210.5,170.5C 211.5,168.833 212.833,167.5 214.5,166.5C 217.854,170.337 221.02,173.67 224,176.5C 224.359,179.544 225.026,179.878 226,177.5C 227.075,179.83 228.575,181.163 230.5,181.5C 231.757,177.918 234.257,177.585 238,180.5C 239,179.5 240,178.5 241,177.5C 241.667,180.167 242.333,180.167 243,177.5C 244.694,178.699 246.194,180.032 247.5,181.5 Z"/></g>
<g><path style="opacity:1" fill="#3d0036" d="M 82.5,183.5 C 82.1984,186.059 82.5318,188.393 83.5,190.5C 83.44,191.043 83.1067,191.376 82.5,191.5C 81.1997,188.691 81.1997,186.024 82.5,183.5 Z"/></g>
<g><path style="opacity:1" fill="#004a44" d="M 258.5,200.5 C 268.524,212.528 278.191,224.861 287.5,237.5C 284.748,247.674 279.915,256.674 273,264.5C 261.076,278.874 246.243,288.874 228.5,294.5C 228.167,294.167 227.833,293.833 227.5,293.5C 229.205,284.941 230.205,276.275 230.5,267.5C 232.331,269.603 232.998,271.937 232.5,274.5C 230.366,276.492 231.032,277.826 234.5,278.5C 236.403,277.647 238.403,277.647 240.5,278.5C 240.343,277.127 240.51,275.793 241,274.5C 241.333,274.833 241.667,275.167 242,275.5C 242.972,273.695 244.139,272.028 245.5,270.5C 246.086,270.709 246.586,271.043 247,271.5C 247.561,269.275 248.561,267.275 250,265.5C 255.186,261.333 260.019,256.833 264.5,252C 264.167,251.667 263.833,251.333 263.5,251C 266.056,247.291 269.056,243.958 272.5,241C 271.833,240.667 271.167,240.333 270.5,240C 271.624,239.751 272.624,239.251 273.5,238.5C 272.754,237.264 272.421,235.93 272.5,234.5C 271.5,234.5 270.5,234.5 269.5,234.5C 270.121,230.191 268.788,226.358 265.5,223C 265.957,222.586 266.291,222.086 266.5,221.5C 262.443,215.761 259.776,208.761 258.5,200.5 Z"/></g>

        
<g><path style="opacity:0.994" fill="#171c1e" d="M 567.5,264.5 C 567.427,266.027 568.094,267.027 569.5,267.5C 570.833,268.167 571.833,269.167 572.5,270.5C 572.427,272.027 573.094,273.027 574.5,273.5C 576.786,276.463 578.619,279.796 580,283.5C 581.333,288.167 582.667,292.833 584,297.5C 600.968,293.905 616.801,296.738 631.5,306C 657.957,323.456 680.123,345.29 698,371.5C 700.529,375.926 702.362,380.592 703.5,385.5C 703.41,388.152 704.076,390.485 705.5,392.5C 706.37,394.032 706.036,395.532 704.5,397C 701.814,398.368 699.147,399.701 696.5,401C 687.337,403.06 678.337,403.893 669.5,403.5C 671.81,407.254 673.643,411.254 675,415.5C 676.619,423.927 678.619,432.26 681,440.5C 682.454,454.02 679.787,466.687 673,478.5C 663.749,491.086 652.582,501.586 639.5,510C 630.893,513.302 622.893,517.635 615.5,523C 597.029,529.157 579.029,536.491 561.5,545C 545.683,550.606 529.683,555.606 513.5,560C 527.668,574.176 543.001,586.843 559.5,598C 576.758,613.656 588.591,632.823 595,655.5C 600.246,671.481 603.746,687.814 605.5,704.5C 615.856,702.179 626.356,700.846 637,700.5C 653.9,703.09 670.9,704.757 688,705.5C 707.617,704.722 725.784,699.222 742.5,689C 757.923,678.567 772.423,667.067 786,654.5C 787.653,654.82 788.653,655.82 789,657.5C 790.41,661.976 791.577,666.476 792.5,671C 792.058,695.003 785.891,717.503 774,738.5C 761.43,755.698 744.596,766.531 723.5,771C 714.162,773.335 704.828,775.668 695.5,778C 672.316,777.979 649.649,781.312 627.5,788C 631.324,793.922 636.657,797.922 643.5,800C 646.319,802.72 645.986,805.053 642.5,807C 635.644,812.007 627.978,814.507 619.5,814.5C 615.167,814.5 610.833,814.5 606.5,814.5C 606.263,815.791 606.596,816.791 607.5,817.5C 609.143,819.708 608.81,821.541 606.5,823C 599.093,824.492 591.593,825.325 584,825.5C 570.833,824.357 557.666,823.19 544.5,822C 528.753,817.882 515.253,810.049 504,798.5C 495.911,789.336 489.577,779.003 485,767.5C 473.056,772.575 460.556,774.908 447.5,774.5C 441.513,773.858 435.513,773.358 429.5,773C 427,772.625 424.667,771.792 422.5,770.5C 418.78,774.733 415.613,779.4 413,784.5C 396.732,800.487 377.065,808.487 354,808.5C 349.103,808.068 344.269,807.234 339.5,806C 337.709,805.585 336.376,804.585 335.5,803C 338.138,800.346 341.138,798.18 344.5,796.5C 345.973,795.928 347.307,795.095 348.5,794C 346.609,793.797 344.943,794.297 343.5,795.5C 334.515,796.911 325.515,796.744 316.5,795C 304.562,791.925 299.562,784.425 301.5,772.5C 312.272,769.781 321.939,764.947 330.5,758C 319.87,750.041 313.37,739.541 311,726.5C 307.602,710.123 307.769,693.789 311.5,677.5C 312.793,675.636 312.793,673.636 311.5,671.5C 310.893,671.624 310.56,671.957 310.5,672.5C 309.013,673.804 307.346,674.97 305.5,676C 298.059,677.01 291.059,675.843 284.5,672.5C 275.52,664.574 271.187,654.574 271.5,642.5C 272.908,618.525 282.242,598.358 299.5,582C 310.392,573.408 322.392,571.241 335.5,575.5C 336.947,576.885 337.947,576.552 338.5,574.5C 338.433,573.041 338.766,571.708 339.5,570.5C 340.757,569.377 340.424,568.711 338.5,568.5C 326.038,567.642 313.704,565.808 301.5,563C 279.858,557.675 258.525,551.341 237.5,544C 217.724,535.619 199.39,524.952 182.5,512C 179.629,509.297 176.962,506.464 174.5,503.5C 174.027,502.094 173.027,501.427 171.5,501.5C 155.808,488.291 146.475,471.458 143.5,451C 144.485,443.505 144.985,436.005 145,428.5C 139.772,431.396 134.272,432.062 128.5,430.5C 127.063,426.472 126.397,422.305 126.5,418C 128.512,388.142 139.012,361.642 158,338.5C 167.466,327.852 178.966,320.352 192.5,316C 198.537,315.303 204.537,315.47 210.5,316.5C 212.5,305.171 217.167,295.171 224.5,286.5C 225.906,286.027 226.573,285.027 226.5,283.5C 228.616,277.549 231.783,272.215 236,267.5C 246.355,255.578 258.188,245.412 271.5,237C 347.364,211.021 424.364,207.021 502.5,225C 512.956,228.227 522.956,232.56 532.5,238C 541.167,244.671 550.501,250.338 560.5,255C 562.476,258.463 564.81,261.63 567.5,264.5 Z"/></g>
<g><path style="opacity:1" fill="#01b5e8" d="M 587.5,310.5 C 586.895,306.028 588.561,303.028 592.5,301.5C 599.257,301.123 605.924,301.623 612.5,303C 623.41,307.12 633.41,312.787 642.5,320C 660.452,334.449 676.119,350.949 689.5,369.5C 691.221,387.94 682.888,395.44 664.5,392C 658.088,389.643 651.755,387.31 645.5,385C 647.667,386.5 649.833,388 652,389.5C 653.524,391.898 655.024,394.231 656.5,396.5C 659.07,399.917 661.903,403.25 665,406.5C 667.332,409.822 668.498,413.489 668.5,417.5C 664.859,445.281 652.859,468.781 632.5,488C 613.065,503.392 591.732,515.725 568.5,525C 543.342,532.276 518.342,539.943 493.5,548C 448.331,557.276 402.664,559.943 356.5,556C 345.966,553.533 335.3,551.866 324.5,551C 295.111,542.537 266.111,532.87 237.5,522C 215.351,512.1 195.018,499.434 176.5,484C 168.977,475.778 161.81,467.278 155,458.5C 151.984,451.485 150.817,444.152 151.5,436.5C 153.969,428.598 154.969,420.598 154.5,412.5C 153.817,412.863 153.15,413.196 152.5,413.5C 148.574,418.296 143.574,421.296 137.5,422.5C 135.199,422.016 133.199,421.016 131.5,419.5C 132.842,409.136 134.342,398.803 136,388.5C 140.728,378.044 145.728,367.711 151,357.5C 160.887,340.274 175.054,328.108 193.5,321C 200.189,320.622 206.856,320.622 213.5,321C 224.894,285.557 246.56,258.224 278.5,239C 326.456,224.714 375.456,218.047 425.5,219C 438.948,221.656 452.615,223.323 466.5,224C 488.8,226.156 509.8,232.49 529.5,243C 538.999,249.251 548.666,255.251 558.5,261C 569.705,272.243 576.538,285.743 579,301.5C 581.39,308.619 585.057,314.953 590,320.5C 589.506,317.164 588.672,313.831 587.5,310.5 Z"/></g>
<g><path style="opacity:0.725" fill="#81807a" d="M 567.5,264.5 C 568.906,264.973 569.573,265.973 569.5,267.5C 568.094,267.027 567.427,266.027 567.5,264.5 Z"/></g>
<g><path style="opacity:0.545" fill="#81807a" d="M 572.5,270.5 C 573.906,270.973 574.573,271.973 574.5,273.5C 573.094,273.027 572.427,272.027 572.5,270.5 Z"/></g>
<g><path style="opacity:0.486" fill="#82827b" d="M 226.5,283.5 C 226.573,285.027 225.906,286.027 224.5,286.5C 224.427,284.973 225.094,283.973 226.5,283.5 Z"/></g>
<g><path style="opacity:1" fill="#0c7aaa" d="M 592.5,301.5 C 588.561,303.028 586.895,306.028 587.5,310.5C 585.98,308.11 584.98,305.443 584.5,302.5C 587.127,301.908 589.794,301.575 592.5,301.5 Z"/></g>
<g><path style="opacity:1" fill="#070b0c" d="M 618.5,337.5 C 634.542,353.376 653.208,365.543 674.5,374C 676.954,375.74 678.454,377.907 679,380.5C 677.612,381.554 676.112,381.72 674.5,381C 660.835,373.503 647.502,365.503 634.5,357C 629.973,352.473 625.473,347.973 621,343.5C 619.441,341.783 618.608,339.783 618.5,337.5 Z"/></g>
<g><path style="opacity:1" fill="#077baf" d="M 689.5,369.5 C 695.393,376.932 698.726,385.265 699.5,394.5C 689.842,398.206 679.842,399.373 669.5,398C 665.09,396.449 660.757,394.949 656.5,393.5C 656.5,394.5 656.5,395.5 656.5,396.5C 655.024,394.231 653.524,391.898 652,389.5C 649.833,388 647.667,386.5 645.5,385C 651.755,387.31 658.088,389.643 664.5,392C 682.888,395.44 691.221,387.94 689.5,369.5 Z"/></g>
<g><path style="opacity:1" fill="#070d0e" d="M 147.5,382.5 C 148.947,383.134 149.613,384.301 149.5,386C 148.279,393.491 147.113,400.991 146,408.5C 144.374,411.128 142.374,413.461 140,415.5C 141.213,404.227 143.713,393.227 147.5,382.5 Z"/></g>
<g><path style="opacity:0.686" fill="#686862" d="M 703.5,385.5 C 704.924,387.515 705.59,389.848 705.5,392.5C 704.076,390.485 703.41,388.152 703.5,385.5 Z"/></g>
<g><path style="opacity:1" fill="#097aac" d="M 152.5,413.5 C 149.619,421.965 143.619,426.631 134.5,427.5C 132.016,425.464 131.016,422.798 131.5,419.5C 133.199,421.016 135.199,422.016 137.5,422.5C 143.574,421.296 148.574,418.296 152.5,413.5 Z"/></g>
<g><path style="opacity:1" fill="#067aae" d="M 668.5,417.5 C 669.586,417.62 670.253,418.287 670.5,419.5C 672.505,428.85 674.505,438.183 676.5,447.5C 675.399,460.687 670.732,472.354 662.5,482.5C 657.167,487.167 652.167,492.167 647.5,497.5C 636.091,503.71 624.757,510.21 613.5,517C 594.28,523.296 575.614,530.963 557.5,540C 535.004,547.711 512.337,554.377 489.5,560C 464.817,564.039 439.984,566.539 415,567.5C 386.539,565.485 358.039,563.985 329.5,563C 288.931,556.527 250.265,544.193 213.5,526C 189.832,512.998 170.665,495.165 156,472.5C 149.589,460.938 148.089,448.938 151.5,436.5C 150.817,444.152 151.984,451.485 155,458.5C 161.81,467.278 168.977,475.778 176.5,484C 195.018,499.434 215.351,512.1 237.5,522C 266.111,532.87 295.111,542.537 324.5,551C 335.3,551.866 345.966,553.533 356.5,556C 402.664,559.943 448.331,557.276 493.5,548C 518.342,539.943 543.342,532.276 568.5,525C 591.732,515.725 613.065,503.392 632.5,488C 652.859,468.781 664.859,445.281 668.5,417.5 Z"/></g>
<g><path style="opacity:1" fill="#022d41" d="M 662.5,482.5 C 658.5,488.5 653.5,493.5 647.5,497.5C 652.167,492.167 657.167,487.167 662.5,482.5 Z"/></g>
<g><path style="opacity:0.718" fill="#83837c" d="M 171.5,501.5 C 173.027,501.427 174.027,502.094 174.5,503.5C 172.973,503.573 171.973,502.906 171.5,501.5 Z"/></g>
<g><path style="opacity:1" fill="#0579ae" d="M 478.5,672.5 C 479.316,674.144 480.65,675.31 482.5,676C 493.813,680.752 503.813,678.919 512.5,670.5C 512.833,670.833 513.167,671.167 513.5,671.5C 512.03,674.308 511.197,677.308 511,680.5C 510.269,682.899 509.102,685.065 507.5,687C 510.833,689 514.167,689 517.5,687C 531.421,676.687 539.921,662.853 543,645.5C 543.947,633.228 539.78,623.061 530.5,615C 523.496,610.163 516.163,605.829 508.5,602C 499.47,598.897 490.303,598.064 481,599.5C 477.485,607.683 477.985,615.683 482.5,623.5C 479.407,625.309 476.074,626.309 472.5,626.5C 472.923,625.735 473.257,624.902 473.5,624C 469.779,615.709 469.779,607.543 473.5,599.5C 473.167,598.5 472.5,597.833 471.5,597.5C 469.364,598.472 468.197,600.139 468,602.5C 467.081,608.966 467.581,615.299 469.5,621.5C 458.98,625.321 450.48,631.654 444,640.5C 430.726,618.269 417.226,596.269 403.5,574.5C 414.63,572.841 425.963,571.841 437.5,571.5C 461.059,569.586 484.392,566.42 507.5,562C 519.747,573.585 532.58,584.418 546,594.5C 546.333,596.047 545.833,597.38 544.5,598.5C 548.847,601.371 552.014,605.371 554,610.5C 566.153,641.08 559.987,667.247 535.5,689C 525.224,698.136 513.224,702.136 499.5,701C 492.521,698.359 487.021,693.859 483,687.5C 480.383,682.817 478.883,677.817 478.5,672.5 Z"/></g>
<g><path style="opacity:0.118" fill="#cacabf" d="M 338.5,568.5 C 340.424,568.711 340.757,569.377 339.5,570.5C 339.167,569.833 338.833,569.167 338.5,568.5 Z"/></g>
<g><path style="opacity:1" fill="#01b5e8" d="M 341.5,624.5 C 340.876,624.917 340.543,625.584 340.5,626.5C 342.326,636.254 343.659,646.087 344.5,656C 344.554,658.873 343.888,661.54 342.5,664C 336.839,663.182 331.506,661.182 326.5,658C 319.953,652.954 314.286,647.12 309.5,640.5C 307.682,644.136 305.849,647.802 304,651.5C 296.56,654.165 290.893,651.832 287,644.5C 283.432,623.869 288.766,605.869 303,590.5C 307.859,584.786 313.359,580.119 319.5,576.5C 326.113,576.151 332.113,577.818 337.5,581.5C 337.712,583.384 338.712,584.717 340.5,585.5C 341.487,582.232 341.82,578.898 341.5,575.5C 342.216,573.444 342.883,571.277 343.5,569C 347.541,568.838 351.541,569.338 355.5,570.5C 348.587,587.907 343.921,605.907 341.5,624.5 Z"/></g>
<g><path style="opacity:1" fill="#6db4c8" d="M 360.5,674.5 C 365.636,683.259 371.636,691.426 378.5,699C 384.877,703.189 391.544,706.855 398.5,710C 417.349,716.655 424.849,710.155 421,690.5C 413.133,671.662 409.299,651.996 409.5,631.5C 398.974,626.785 387.974,624.118 376.5,623.5C 367.747,622.705 360.081,625.039 353.5,630.5C 351.158,627.493 348.825,624.493 346.5,621.5C 349.487,606.708 352.987,592.041 357,577.5C 357.93,575.064 359.097,572.731 360.5,570.5C 364.795,569.339 369.129,569.172 373.5,570C 381.953,570.635 390.287,571.801 398.5,573.5C 412.833,597.5 427.167,621.5 441.5,645.5C 436.166,659.522 436.333,673.522 442,687.5C 449.259,695.897 458.426,699.063 469.5,697C 472.798,696.513 475.798,695.347 478.5,693.5C 480.786,693.96 482.119,695.293 482.5,697.5C 479.307,719.149 479.973,740.649 484.5,762C 484.167,762.5 483.833,763 483.5,763.5C 454.121,772.925 425.787,770.425 398.5,756C 385.188,748.027 373.021,738.527 362,727.5C 358.333,721.833 354.667,716.167 351,710.5C 348.591,702.618 346.757,694.618 345.5,686.5C 351.447,683.692 356.447,679.692 360.5,674.5 Z"/></g>
<g><path style="opacity:1" fill="#022c40" d="M 437.5,571.5 C 425.963,571.841 414.63,572.841 403.5,574.5C 402.596,573.791 402.263,572.791 402.5,571.5C 414.167,571.5 425.833,571.5 437.5,571.5 Z"/></g>
<g><path style="opacity:0.553" fill="#93928a" d="M 338.5,574.5 C 337.947,576.552 336.947,576.885 335.5,575.5C 336.609,575.443 337.609,575.11 338.5,574.5 Z"/></g>
<g><path style="opacity:1" fill="#0d677f" d="M 341.5,575.5 C 341.82,578.898 341.487,582.232 340.5,585.5C 338.712,584.717 337.712,583.384 337.5,581.5C 338.458,581.953 339.292,582.619 340,583.5C 340.183,580.635 340.683,577.969 341.5,575.5 Z"/></g>
<g><path style="opacity:1" fill="#0679ad" d="M 319.5,576.5 C 313.359,580.119 307.859,584.786 303,590.5C 288.766,605.869 283.432,623.869 287,644.5C 290.893,651.832 296.56,654.165 304,651.5C 305.849,647.802 307.682,644.136 309.5,640.5C 314.286,647.12 319.953,652.954 326.5,658C 331.506,661.182 336.839,663.182 342.5,664C 343.888,661.54 344.554,658.873 344.5,656C 343.659,646.087 342.326,636.254 340.5,626.5C 340.543,625.584 340.876,624.917 341.5,624.5C 343.341,627.86 345.841,630.86 349,633.5C 356.123,645.314 358.79,657.981 357,671.5C 347.754,683.243 336.587,685.409 323.5,678C 320.61,676.062 317.944,673.895 315.5,671.5C 315.325,667.14 315.325,662.806 315.5,658.5C 312.383,663.451 308.383,667.618 303.5,671C 299.152,671.238 294.819,670.905 290.5,670C 278.528,660.766 274.028,648.599 277,633.5C 280.837,610.292 292.337,592.125 311.5,579C 313.909,577.293 316.575,576.46 319.5,576.5 Z"/></g>
<g><path style="opacity:1" fill="#01b5e8" d="M 478.5,672.5 C 478.817,669.428 478.484,666.428 477.5,663.5C 476.056,665.608 475.39,667.941 475.5,670.5C 473.625,679.348 467.958,684.015 458.5,684.5C 455.512,684.283 452.845,683.283 450.5,681.5C 447.814,678.097 445.147,674.764 442.5,671.5C 440.031,647.715 450.031,632.715 472.5,626.5C 476.074,626.309 479.407,625.309 482.5,623.5C 477.985,615.683 477.485,607.683 481,599.5C 490.303,598.064 499.47,598.897 508.5,602C 516.163,605.829 523.496,610.163 530.5,615C 539.78,623.061 543.947,633.228 543,645.5C 539.921,662.853 531.421,676.687 517.5,687C 514.167,689 510.833,689 507.5,687C 509.102,685.065 510.269,682.899 511,680.5C 511.197,677.308 512.03,674.308 513.5,671.5C 513.167,671.167 512.833,670.833 512.5,670.5C 503.813,678.919 493.813,680.752 482.5,676C 480.65,675.31 479.316,674.144 478.5,672.5 Z"/></g>
<g><path style="opacity:1" fill="#01b5e8" d="M 598.5,692.5 C 599.585,721.745 590.251,746.912 570.5,768C 559.897,776.467 547.897,781.967 534.5,784.5C 524.3,783.481 516.133,778.815 510,770.5C 503.835,757.837 501.335,744.504 502.5,730.5C 515.107,740.264 528.107,740.764 541.5,732C 553.871,721.408 561.704,708.241 565,692.5C 565.414,680.636 566.247,668.803 567.5,657C 567.12,651.981 566.454,647.148 565.5,642.5C 565.039,628.701 561.705,615.701 555.5,603.5C 556.002,602.479 556.668,602.312 557.5,603C 571.596,617.015 581.763,633.515 588,652.5C 592.713,665.589 596.213,678.922 598.5,692.5 Z"/></g>
<g><path style="opacity:1" fill="#86cdeb" d="M 360.5,674.5 C 363.081,665.176 362.914,655.842 360,646.5C 358.097,641.032 355.93,635.699 353.5,630.5C 360.081,625.039 367.747,622.705 376.5,623.5C 387.974,624.118 398.974,626.785 409.5,631.5C 409.299,651.996 413.133,671.662 421,690.5C 424.849,710.155 417.349,716.655 398.5,710C 391.544,706.855 384.877,703.189 378.5,699C 371.636,691.426 365.636,683.259 360.5,674.5 Z"/></g>
<g><path style="opacity:1" fill="#0579ae" d="M 565.5,642.5 C 566.454,647.148 567.12,651.981 567.5,657C 566.247,668.803 565.414,680.636 565,692.5C 561.704,708.241 553.871,721.408 541.5,732C 528.107,740.764 515.107,740.264 502.5,730.5C 501.335,744.504 503.835,757.837 510,770.5C 516.133,778.815 524.3,783.481 534.5,784.5C 547.897,781.967 559.897,776.467 570.5,768C 590.251,746.912 599.585,721.745 598.5,692.5C 603.674,717.432 599.507,740.766 586,762.5C 585.175,764.701 585.675,766.534 587.5,768C 598.616,767.367 607.783,771.2 615,779.5C 618.98,786.624 623.814,793.124 629.5,799C 632.371,800.935 635.371,802.601 638.5,804C 634.952,805.941 631.286,807.607 627.5,809C 619.203,810.072 610.87,810.739 602.5,811C 601.427,814.112 601.427,817.279 602.5,820.5C 584.783,820.736 567.116,819.903 549.5,818C 516.675,809.175 495.842,788.342 487,755.5C 483.693,736.831 483.693,718.165 487,699.5C 491.793,704.268 497.627,706.601 504.5,706.5C 533.083,702.106 551.916,686.106 561,658.5C 562.256,653.552 563.256,648.552 564,643.5C 564.383,642.944 564.883,642.611 565.5,642.5 Z"/></g>
<g><path style="opacity:1" fill="#01b5e8" d="M 787.5,677.5 C 783.628,689.244 778.128,700.244 771,710.5C 762.901,720.602 754.068,730.102 744.5,739C 710.389,759.089 673.722,766.755 634.5,762C 624.967,759.273 620.301,752.939 620.5,743C 621.128,736.319 622.628,729.819 625,723.5C 625.667,718.833 625.667,714.167 625,709.5C 623.07,707.923 623.237,706.59 625.5,705.5C 632.841,705.334 640.174,705.5 647.5,706C 675.257,713.194 702.59,711.861 729.5,702C 732.167,700.667 734.833,699.333 737.5,698C 745.398,692.397 753.398,686.897 761.5,681.5C 769.242,674.252 777.409,667.585 786,661.5C 786.945,661.905 787.612,662.572 788,663.5C 788.648,668.204 788.481,672.871 787.5,677.5 Z"/></g>
<g><path style="opacity:0.18" fill="#a3a29a" d="M 310.5,672.5 C 310.56,671.957 310.893,671.624 311.5,671.5C 312.793,673.636 312.793,675.636 311.5,677.5C 311.784,675.585 311.451,673.919 310.5,672.5 Z"/></g>
<g><path style="opacity:1" fill="#0679ad" d="M 475.5,670.5 C 475.435,676.617 475.935,682.617 477,688.5C 473.037,691.93 468.37,693.263 463,692.5C 452.011,693.17 445.344,688.17 443,677.5C 442.505,675.527 442.338,673.527 442.5,671.5C 445.147,674.764 447.814,678.097 450.5,681.5C 452.845,683.283 455.512,684.283 458.5,684.5C 467.958,684.015 473.625,679.348 475.5,670.5 Z"/></g>
<g><path style="opacity:1" fill="#0679ad" d="M 352.5,720.5 C 351.542,720.047 350.708,719.381 350,718.5C 349,720.5 348,722.5 347,724.5C 338.32,720.657 330.654,715.324 324,708.5C 322.417,720.502 325.084,731.502 332,741.5C 338.772,748.117 345.939,754.117 353.5,759.5C 344.664,759.444 336.997,756.444 330.5,750.5C 322.396,743.714 317.562,735.048 316,724.5C 312.459,709.051 312.792,693.718 317,678.5C 323.898,685.032 332.065,687.698 341.5,686.5C 342.041,694.666 343.541,702.666 346,710.5C 348.143,713.962 350.31,717.296 352.5,720.5 Z"/></g>
<g><path style="opacity:1" fill="#077aae" d="M 787.5,677.5 C 785.964,702.884 777.464,725.551 762,745.5C 754.767,751.536 746.933,756.703 738.5,761C 724.004,765.624 709.337,769.624 694.5,773C 671.145,773.598 648.145,776.765 625.5,782.5C 624.5,782.333 623.5,782.167 622.5,782C 615.399,770.59 605.065,764.59 591.5,764C 601.553,746.955 606.22,728.455 605.5,708.5C 612.311,708.365 618.977,707.365 625.5,705.5C 623.237,706.59 623.07,707.923 625,709.5C 625.667,714.167 625.667,718.833 625,723.5C 622.628,729.819 621.128,736.319 620.5,743C 620.301,752.939 624.967,759.273 634.5,762C 673.722,766.755 710.389,759.089 744.5,739C 754.068,730.102 762.901,720.602 771,710.5C 778.128,700.244 783.628,689.244 787.5,677.5 Z"/></g>
<g><path style="opacity:1" fill="#01b4e7" d="M 352.5,720.5 C 354.344,724.192 356.677,727.525 359.5,730.5C 361.833,734.833 365.167,738.167 369.5,740.5C 372.027,742.605 374.36,744.939 376.5,747.5C 378.637,754.608 381.971,761.108 386.5,767C 376.493,768.153 367.159,766.32 358.5,761.5C 356.95,760.559 355.284,759.893 353.5,759.5C 345.939,754.117 338.772,748.117 332,741.5C 325.084,731.502 322.417,720.502 324,708.5C 330.654,715.324 338.32,720.657 347,724.5C 348,722.5 349,720.5 350,718.5C 350.708,719.381 351.542,720.047 352.5,720.5 Z"/></g>
<g><path style="opacity:1" fill="#045267" d="M 359.5,730.5 C 363.167,733.5 366.5,736.833 369.5,740.5C 365.167,738.167 361.833,734.833 359.5,730.5 Z"/></g>
<g><path style="opacity:1" fill="#0679ae" d="M 376.5,747.5 C 382.599,751.083 388.599,754.917 394.5,759C 400.94,762.554 407.607,765.554 414.5,768C 415.554,769.388 415.72,770.888 415,772.5C 404.324,788.934 389.157,798.434 369.5,801C 361.218,803.53 352.885,803.864 344.5,802C 352.628,796.206 359.795,789.373 366,781.5C 366.612,779.763 365.946,778.763 364,778.5C 361.373,779.634 359.207,781.3 357.5,783.5C 358.547,780.404 359.88,777.404 361.5,774.5C 350.93,771.981 340.93,768.314 331.5,763.5C 332.479,761.855 333.812,760.521 335.5,759.5C 342.062,762.14 348.729,764.474 355.5,766.5C 356.442,766.392 357.275,766.059 358,765.5C 357.645,764.041 357.811,762.707 358.5,761.5C 367.159,766.32 376.493,768.153 386.5,767C 381.971,761.108 378.637,754.608 376.5,747.5 Z"/></g>
<g><path style="opacity:1" fill="#01b4e6" d="M 331.5,763.5 C 340.93,768.314 350.93,771.981 361.5,774.5C 359.88,777.404 358.547,780.404 357.5,783.5C 343.133,791.218 328.133,792.552 312.5,787.5C 311.089,785.086 309.089,783.419 306.5,782.5C 305.532,780.393 305.198,778.059 305.5,775.5C 315.177,773.661 323.843,769.661 331.5,763.5 Z"/></g>
<g><path style="opacity:1" fill="#01b4e7" d="M 577.5,780.5 C 592.957,777.906 605.623,782.573 615.5,794.5C 608.26,800.357 599.926,803.024 590.5,802.5C 590.911,805.553 591.577,808.553 592.5,811.5C 587.462,812.33 582.795,811.164 578.5,808C 571.727,803.194 565.227,798.028 559,792.5C 558.542,789.904 559.375,787.737 561.5,786C 566.846,783.83 572.179,781.997 577.5,780.5 Z"/></g>
<g><path style="opacity:1" fill="#086179" d="M 306.5,782.5 C 309.089,783.419 311.089,785.086 312.5,787.5C 309.911,786.581 307.911,784.914 306.5,782.5 Z"/></g>
<g><path style="opacity:0.165" fill="#b2b1a8" d="M 344.5,796.5 C 344.5,795.833 344.167,795.5 343.5,795.5C 344.943,794.297 346.609,793.797 348.5,794C 347.307,795.095 345.973,795.928 344.5,796.5 Z"/></g>
<g><path style="opacity:0.282" fill="#b1b0a7" d="M 619.5,814.5 C 615.232,814.869 611.232,815.869 607.5,817.5C 606.596,816.791 606.263,815.791 606.5,814.5C 610.833,814.5 615.167,814.5 619.5,814.5 Z"/></g>

        
<g><path style="opacity:0.99" fill="#0d0d0c" d="M 491.5,399.5 C 488.373,390.073 487.207,380.406 488,370.5C 493.707,351.6 504.873,336.767 521.5,326C 529.79,320.847 538.79,318.014 548.5,317.5C 553.844,317.666 559.177,317.499 564.5,317C 563.956,316.283 563.289,315.783 562.5,315.5C 543.882,300.011 522.382,291.678 498,290.5C 490.519,289.916 483.352,291.082 476.5,294C 467.781,294.352 459.781,297.019 452.5,302C 448.062,306.439 443.062,310.106 437.5,313C 426.246,324.92 417.412,338.42 411,353.5C 410.725,371 417.225,385.5 430.5,397C 436.108,400.276 441.442,403.943 446.5,408C 453.054,411.537 460.054,413.37 467.5,413.5C 461.67,418.019 455.336,418.686 448.5,415.5C 448.027,414.094 447.027,413.427 445.5,413.5C 443.46,411.823 441.46,410.156 439.5,408.5C 439.027,407.094 438.027,406.427 436.5,406.5C 436.027,405.094 435.027,404.427 433.5,404.5C 431.566,403.89 429.899,402.89 428.5,401.5C 428.027,400.094 427.027,399.427 425.5,399.5C 418.88,393.601 413.713,386.601 410,378.5C 406.877,399.48 395.71,405.313 376.5,396C 373.568,392.395 370.068,389.561 366,387.5C 362.461,389.2 359.794,391.867 358,395.5C 348.298,401.028 339.298,400.028 331,392.5C 329.096,389.077 328.263,385.41 328.5,381.5C 328.34,379.847 327.674,378.514 326.5,377.5C 325.596,376.791 325.263,375.791 325.5,374.5C 325.785,372.712 325.452,371.045 324.5,369.5C 323.614,370.325 323.281,371.325 323.5,372.5C 319.576,387.848 311.909,401.015 300.5,412C 297.294,414.034 293.96,415.867 290.5,417.5C 287.941,416.392 285.608,415.059 283.5,413.5C 293.172,410.41 301.005,404.744 307,396.5C 313.986,386.753 318.486,375.92 320.5,364C 319.275,355.717 315.775,348.55 310,342.5C 305.854,331.015 298.687,321.848 288.5,315C 280.952,312.433 273.619,309.433 266.5,306C 242.475,304.844 224.809,314.844 213.5,336C 239.356,338.522 258.189,351.355 270,374.5C 276.027,385.384 278.193,397.051 276.5,409.5C 271.718,406.601 267.051,403.434 262.5,400C 244.46,389.359 225.127,385.859 204.5,389.5C 199.943,380.073 198.443,370.073 200,359.5C 201.081,348.03 204.914,337.697 211.5,328.5C 212.906,328.027 213.573,327.027 213.5,325.5C 213.783,305.751 221.117,288.917 235.5,275C 242.164,270.005 249.497,266.338 257.5,264C 268.382,263.052 277.716,266.386 285.5,274C 309.981,294.926 323.981,321.426 327.5,353.5C 336.02,355.759 344.353,358.592 352.5,362C 357.986,362.927 363.486,363.76 369,364.5C 376.968,362.671 384.968,361.337 393,360.5C 395.093,361.246 397.093,361.579 399,361.5C 395.196,337.601 398.196,314.601 408,292.5C 410.985,287.689 414.485,283.356 418.5,279.5C 419.906,279.027 420.573,278.027 420.5,276.5C 431.962,266.925 444.629,259.091 458.5,253C 510.456,235.392 544.289,252.559 560,304.5C 580.639,319.759 586.305,339.425 577,363.5C 574.366,369.272 570.866,374.439 566.5,379C 540.258,381.247 515.258,388.08 491.5,399.5 Z"/></g>
<g><path style="opacity:1" fill="#1b1b1b" d="M 491.5,251.5 C 512.005,251.336 528.505,259.336 541,275.5C 545.694,283.554 549.861,291.888 553.5,300.5C 553.167,300.833 552.833,301.167 552.5,301.5C 517.98,279.718 482.98,278.885 447.5,299C 444.215,302.973 440.215,305.973 435.5,308C 425.414,318.343 416.914,329.843 410,342.5C 406.414,349.494 405.08,356.827 406,364.5C 405.255,362.797 404.421,361.13 403.5,359.5C 403.063,345.559 403.563,331.559 405,317.5C 407.148,302.37 413.648,289.537 424.5,279C 432.5,273.667 440.5,268.333 448.5,263C 462.09,255.855 476.423,252.021 491.5,251.5 Z"/></g>
<g><path style="opacity:1" fill="#1b1b1b" d="M 256.5,269.5 C 263.905,268.705 270.571,270.539 276.5,275C 296.955,290.782 311.122,310.949 319,335.5C 320.328,340.457 320.994,345.457 321,350.5C 316.333,341.833 311.667,333.167 307,324.5C 302.468,319.633 297.634,315.133 292.5,311C 282.442,305.884 271.942,302.051 261,299.5C 244.754,300.462 231.087,306.795 220,318.5C 222.473,294.866 234.64,278.532 256.5,269.5 Z"/></g>
<g><path style="opacity:0.529" fill="#82827b" d="M 420.5,276.5 C 420.573,278.027 419.906,279.027 418.5,279.5C 418.427,277.973 419.094,276.973 420.5,276.5 Z"/></g>
<g><path style="opacity:0.998" fill="#f5f4e7" d="M 562.5,315.5 C 557.833,316.167 553.167,316.833 548.5,317.5C 538.79,318.014 529.79,320.847 521.5,326C 504.873,336.767 493.707,351.6 488,370.5C 487.207,380.406 488.373,390.073 491.5,399.5C 483.472,404.178 475.472,408.845 467.5,413.5C 460.054,413.37 453.054,411.537 446.5,408C 441.442,403.943 436.108,400.276 430.5,397C 417.225,385.5 410.725,371 411,353.5C 417.412,338.42 426.246,324.92 437.5,313C 443.062,310.106 448.062,306.439 452.5,302C 459.781,297.019 467.781,294.352 476.5,294C 483.352,291.082 490.519,289.916 498,290.5C 522.382,291.678 543.882,300.011 562.5,315.5 Z"/></g>
<g><path style="opacity:0.999" fill="#f5f4e7" d="M 283.5,413.5 C 280.669,412.921 278.336,411.588 276.5,409.5C 278.193,397.051 276.027,385.384 270,374.5C 258.189,351.355 239.356,338.522 213.5,336C 224.809,314.844 242.475,304.844 266.5,306C 273.619,309.433 280.952,312.433 288.5,315C 298.687,321.848 305.854,331.015 310,342.5C 315.775,348.55 319.275,355.717 320.5,364C 318.486,375.92 313.986,386.753 307,396.5C 301.005,404.744 293.172,410.41 283.5,413.5 Z"/></g>
<g><path style="opacity:1" fill="#6e6e68" d="M 562.5,315.5 C 563.289,315.783 563.956,316.283 564.5,317C 559.177,317.499 553.844,317.666 548.5,317.5C 553.167,316.833 557.833,316.167 562.5,315.5 Z"/></g>
<g><path style="opacity:0.506" fill="#808079" d="M 213.5,325.5 C 213.573,327.027 212.906,328.027 211.5,328.5C 211.427,326.973 212.094,325.973 213.5,325.5 Z"/></g>
<g><path style="opacity:1" fill="#1b1b1b" d="M 327.5,359.5 C 338.316,363.238 349.316,366.404 360.5,369C 365.833,369.667 371.167,369.667 376.5,369C 383.809,367.503 391.143,366.503 398.5,366C 404.726,372.015 406.226,379.182 403,387.5C 399.871,394.148 394.704,396.648 387.5,395C 381.182,393.689 376.182,390.356 372.5,385C 367.996,381.538 363.663,381.704 359.5,385.5C 357.294,388.203 354.961,390.703 352.5,393C 348.5,393.667 344.5,393.667 340.5,393C 338.376,391.878 336.543,390.378 335,388.5C 332.025,378.933 329.525,369.266 327.5,359.5 Z"/></g>
<g><path style="opacity:1" fill="#5c5c57" d="M 325.5,374.5 C 324.833,373.833 324.167,373.167 323.5,372.5C 323.281,371.325 323.614,370.325 324.5,369.5C 325.452,371.045 325.785,372.712 325.5,374.5 Z"/></g>
<g><path style="opacity:0.4" fill="#97968e" d="M 326.5,377.5 C 327.674,378.514 328.34,379.847 328.5,381.5C 326.896,380.713 326.229,379.38 326.5,377.5 Z"/></g>
<g><path style="opacity:0.012" fill="#000000" d="M 549.5,383.5 C 550.833,384.167 550.833,384.167 549.5,383.5 Z"/></g>
<g><path style="opacity:0.02" fill="#000000" d="M 545.5,384.5 C 546.833,385.167 546.833,385.167 545.5,384.5 Z"/></g>
<g><path style="opacity:0.022" fill="#000000" d="M 541.5,386.5 C 541.897,385.475 542.563,385.308 543.5,386C 542.906,386.464 542.239,386.631 541.5,386.5 Z"/></g>
<g><path style="opacity:0.018" fill="#000000" d="M 538.5,387.5 C 538.897,386.475 539.563,386.308 540.5,387C 539.906,387.464 539.239,387.631 538.5,387.5 Z"/></g>
<g><path style="opacity:0.016" fill="#000000" d="M 534.5,388.5 C 534.897,387.475 535.563,387.308 536.5,388C 535.906,388.464 535.239,388.631 534.5,388.5 Z"/></g>
<g><path style="opacity:0.012" fill="#000000" d="M 530.5,389.5 C 530.897,388.475 531.563,388.308 532.5,389C 531.906,389.464 531.239,389.631 530.5,389.5 Z"/></g>
<g><path style="opacity:0.04" fill="#000000" d="M 226.5,391.5 C 228.103,391.312 229.437,391.812 230.5,393C 228.167,393.667 225.833,393.667 223.5,393C 224.737,392.768 225.737,392.268 226.5,391.5 Z"/></g>
<g><path style="opacity:0.042" fill="#000000" d="M 210.5,393.5 C 211.946,392.387 213.613,392.22 215.5,393C 213.866,393.494 212.199,393.66 210.5,393.5 Z"/></g>
<g><path style="opacity:0.016" fill="#000000" d="M 233.5,392.5 C 234.833,393.167 234.833,393.167 233.5,392.5 Z"/></g>
<g><path style="opacity:0.012" fill="#000000" d="M 236.5,394.5 C 236.897,393.475 237.563,393.308 238.5,394C 237.906,394.464 237.239,394.631 236.5,394.5 Z"/></g>
<g><path style="opacity:0.016" fill="#000000" d="M 239.5,395.5 C 239.897,394.475 240.563,394.308 241.5,395C 240.906,395.464 240.239,395.631 239.5,395.5 Z"/></g>
<g><path style="opacity:0.012" fill="#000000" d="M 242.5,395.5 C 243.833,396.167 243.833,396.167 242.5,395.5 Z"/></g>
<g><path style="opacity:0.016" fill="#000000" d="M 245.5,396.5 C 246.833,397.167 246.833,397.167 245.5,396.5 Z"/></g>
<g><path style="opacity:0.012" fill="#000000" d="M 247.5,397.5 C 248.833,398.167 248.833,398.167 247.5,397.5 Z"/></g>
<g><path style="opacity:0.02" fill="#000000" d="M 250.5,398.5 C 251.833,399.167 251.833,399.167 250.5,398.5 Z"/></g>
<g><path style="opacity:0.02" fill="#000000" d="M 252.5,399.5 C 253.833,400.167 253.833,400.167 252.5,399.5 Z"/></g>
<g><path style="opacity:0.012" fill="#000000" d="M 254.5,400.5 C 255.833,401.167 255.833,401.167 254.5,400.5 Z"/></g>
<g><path style="opacity:0.529" fill="#7c7b75" d="M 425.5,399.5 C 427.027,399.427 428.027,400.094 428.5,401.5C 426.973,401.573 425.973,400.906 425.5,399.5 Z"/></g>
<g><path style="opacity:0.529" fill="#7c7b75" d="M 433.5,404.5 C 435.027,404.427 436.027,405.094 436.5,406.5C 434.973,406.573 433.973,405.906 433.5,404.5 Z"/></g>
<g><path style="opacity:0.545" fill="#7a7a73" d="M 436.5,406.5 C 438.027,406.427 439.027,407.094 439.5,408.5C 437.973,408.573 436.973,407.906 436.5,406.5 Z"/></g>
<g><path style="opacity:0.529" fill="#7f7f78" d="M 445.5,413.5 C 447.027,413.427 448.027,414.094 448.5,415.5C 446.973,415.573 445.973,414.906 445.5,413.5 Z"/></g>

        
<g><path style="opacity:0.983" fill="#212120" d="M 592.5,349.5 C 591.89,348.609 591.557,347.609 591.5,346.5C 599.093,346.538 605.593,349.538 611,355.5C 613.002,360.007 614.502,364.674 615.5,369.5C 615.02,373.293 613.353,376.46 610.5,379C 604.352,382.078 598.019,384.578 591.5,386.5C 585.054,385.936 578.72,384.77 572.5,383C 564.833,382.333 557.167,382.333 549.5,383C 541.284,384.787 533.618,387.62 526.5,391.5C 526.631,390.624 526.298,389.957 525.5,389.5C 524.261,389.942 523.261,390.609 522.5,391.5C 521.791,392.404 520.791,392.737 519.5,392.5C 515.838,392.723 512.505,393.723 509.5,395.5C 506.759,395.707 504.426,396.707 502.5,398.5C 502.158,399.338 501.492,399.672 500.5,399.5C 495.914,400.46 491.914,402.46 488.5,405.5C 488.158,406.338 487.492,406.672 486.5,406.5C 484.973,406.427 483.973,407.094 483.5,408.5C 481.326,408.75 479.659,409.75 478.5,411.5C 477.167,411.5 476.5,412.167 476.5,413.5C 475.878,414.627 475.045,415.627 474,416.5C 472.951,415.483 471.784,415.316 470.5,416C 465.147,418.701 459.814,421.368 454.5,424C 422.871,431.862 391.038,433.695 359,429.5C 340.208,432.375 321.708,431.042 303.5,425.5C 300.905,426.237 298.238,426.237 295.5,425.5C 295.953,424.542 296.619,423.708 297.5,423C 296.906,422.536 296.239,422.369 295.5,422.5C 291.703,422.128 288.37,420.794 285.5,418.5C 282.485,416.326 279.151,414.659 275.5,413.5C 274.415,411.413 272.749,410.08 270.5,409.5C 269.508,409.672 268.842,409.338 268.5,408.5C 268.027,407.094 267.027,406.427 265.5,406.5C 264.352,403.913 262.685,402.913 260.5,403.5C 251.198,397.055 240.864,392.722 229.5,390.5C 219.197,391.724 208.863,392.224 198.5,392C 183.151,388.16 174.651,378.326 173,362.5C 172.333,357.833 172.333,353.167 173,348.5C 173.036,346.059 173.869,344.059 175.5,342.5C 176.086,342.709 176.586,343.043 177,343.5C 176.529,354.347 178.529,364.681 183,374.5C 188.543,381.974 196.043,385.974 205.5,386.5C 232.733,382.303 256.733,389.137 277.5,407C 291.297,414.71 305.964,420.044 321.5,423C 345.953,423.754 370.453,424.587 395,425.5C 414.476,425.449 433.642,422.949 452.5,418C 469.5,409 486.5,400 503.5,391C 518.586,385.527 533.92,380.86 549.5,377C 557.5,376.333 565.5,376.333 573.5,377C 580.063,378.986 586.73,379.986 593.5,380C 597.749,377.806 602.082,375.806 606.5,374C 607.872,372.758 608.872,371.258 609.5,369.5C 608.098,365.461 606.598,361.461 605,357.5C 600.684,354.934 596.517,352.267 592.5,349.5 Z"/></g>
<g><path style="opacity:0.231" fill="#9b9b93" d="M 591.5,346.5 C 591.557,347.609 591.89,348.609 592.5,349.5C 590.448,348.947 590.115,347.947 591.5,346.5 Z"/></g>
<g><path style="opacity:0.012" fill="#b3b2a9" d="M 526.5,391.5 C 525.472,391.926 524.139,391.926 522.5,391.5C 523.261,390.609 524.261,389.942 525.5,389.5C 526.298,389.957 526.631,390.624 526.5,391.5 Z"/></g>
<g><path style="opacity:0.149" fill="#d6d5ca" d="M 519.5,392.5 C 516.495,394.277 513.162,395.277 509.5,395.5C 512.505,393.723 515.838,392.723 519.5,392.5 Z"/></g>
<g><path style="opacity:0.196" fill="#d2d1c6" d="M 509.5,395.5 C 507.574,397.293 505.241,398.293 502.5,398.5C 504.426,396.707 506.759,395.707 509.5,395.5 Z"/></g>
<g><path style="opacity:0.294" fill="#a8a79f" d="M 260.5,403.5 C 262.685,402.913 264.352,403.913 265.5,406.5C 263.589,405.925 261.922,404.925 260.5,403.5 Z"/></g>
<g><path style="opacity:0.173" fill="#d8d7cc" d="M 500.5,399.5 C 496.818,402.008 492.818,404.008 488.5,405.5C 491.914,402.46 495.914,400.46 500.5,399.5 Z"/></g>
<g><path style="opacity:0.235" fill="#d1d0c5" d="M 265.5,406.5 C 267.027,406.427 268.027,407.094 268.5,408.5C 266.973,408.573 265.973,407.906 265.5,406.5 Z"/></g>
<g><path style="opacity:0.141" fill="#dfded2" d="M 486.5,406.5 C 486.027,407.906 485.027,408.573 483.5,408.5C 483.973,407.094 484.973,406.427 486.5,406.5 Z"/></g>
<g><path style="opacity:0.067" fill="#d3d2c7" d="M 483.5,408.5 C 482.341,410.25 480.674,411.25 478.5,411.5C 479.659,409.75 481.326,408.75 483.5,408.5 Z"/></g>
<g><path style="opacity:0.012" fill="#d5d4c9" d="M 478.5,411.5 C 478.167,412.5 477.5,413.167 476.5,413.5C 476.5,412.167 477.167,411.5 478.5,411.5 Z"/></g>
<g><path style="opacity:0.322" fill="#b9b8af" d="M 270.5,409.5 C 272.749,410.08 274.415,411.413 275.5,413.5C 273.251,412.92 271.585,411.587 270.5,409.5 Z"/></g>
<g><path style="opacity:0.196" fill="#d0d0c5" d="M 275.5,413.5 C 279.151,414.659 282.485,416.326 285.5,418.5C 281.58,417.873 278.247,416.207 275.5,413.5 Z"/></g>
<g><path style="opacity:0.027" fill="#d9d8cd" d="M 295.5,422.5 C 296.239,422.369 296.906,422.536 297.5,423C 296.619,423.708 295.953,424.542 295.5,425.5C 294.375,424.652 294.375,423.652 295.5,422.5 Z"/></g>

        

<g transform="translate(0.000000,862.000000) scale(0.100000,-0.100000)"
fill="#000000" stroke="none">
</g>

    </svg>
