
    <svg width="862" height="862" viewBox="0 0 862 862" fill="none" xmlns="http://www.w3.org/2000/svg">
        
<g><path style="opacity:1" fill="#f6f6e8" d="M -0.5,-0.5 C 286.833,-0.5 574.167,-0.5 861.5,-0.5C 861.5,286.833 861.5,574.167 861.5,861.5C 574.167,861.5 286.833,861.5 -0.5,861.5C -0.5,574.167 -0.5,286.833 -0.5,-0.5 Z"/></g>

        
<g><path style="opacity:0.983" fill="#1a1a19" d="M 578.5,540.5 C 583.993,540.916 589.326,542.082 594.5,544C 599.237,547.614 603.403,551.781 607,556.5C 613.977,570.057 616.311,584.39 614,599.5C 611.931,603.236 608.931,605.903 605,607.5C 603.018,607.01 601.351,606.01 600,604.5C 594.275,609.717 588.442,609.717 582.5,604.5C 577.923,613.337 572.256,614.337 565.5,607.5C 561.53,612.973 556.196,614.806 549.5,613C 548.299,612.097 547.465,610.931 547,609.5C 541.931,617.452 536.764,617.452 531.5,609.5C 527.737,613.765 523.737,617.932 519.5,622C 516.106,622.752 512.773,622.585 509.5,621.5C 508.194,620.088 507.36,618.421 507,616.5C 505.425,609.568 504.258,602.568 503.5,595.5C 504.335,583.317 510.669,578.317 522.5,580.5C 523.795,579.902 525.128,579.402 526.5,579C 535.197,570.637 543.531,561.97 551.5,553C 559.592,546.617 568.592,542.45 578.5,540.5 Z"/></g>
<g><path style="opacity:1" fill="#d9d8cb" d="M 587.5,601.5 C 588.496,601.586 589.329,601.252 590,600.5C 592.94,596.545 595.94,592.545 599,588.5C 599.37,579.339 598.37,570.339 596,561.5C 591.36,554.156 584.693,549.822 576,548.5C 573.538,549.159 571.038,549.493 568.5,549.5C 581.297,543.74 592.13,546.407 601,557.5C 608.853,570.951 611.186,585.285 608,600.5C 606.604,602.527 604.938,602.86 603,601.5C 602.091,598.089 601.091,594.755 600,591.5C 598.35,595.573 596.516,599.573 594.5,603.5C 591.584,604.861 589.251,604.195 587.5,601.5 Z"/></g>
<g><path style="opacity:1" fill="#f4f3e6" d="M 587.5,601.5 C 585.433,599.682 584.1,597.349 583.5,594.5C 582.635,593.417 581.635,593.251 580.5,594C 579.955,598.074 578.621,601.907 576.5,605.5C 574.878,607.439 573.044,607.772 571,606.5C 568.863,602.486 567.03,598.486 565.5,594.5C 564.522,594.977 563.689,595.643 563,596.5C 563.284,605.334 559.118,609.667 550.5,609.5C 550.348,605.228 549.348,601.228 547.5,597.5C 545.179,600.394 544.012,603.727 544,607.5C 541.618,612.067 538.951,612.4 536,608.5C 535.887,606.026 534.887,604.026 533,602.5C 527.856,607.313 523.023,612.48 518.5,618C 516.098,618.814 513.765,618.647 511.5,617.5C 508.811,609.37 507.645,601.036 508,592.5C 508.668,588.501 510.835,585.668 514.5,584C 518.801,584.363 523.134,584.363 527.5,584C 529.167,583 530.833,582 532.5,581C 540.864,572.97 548.864,564.637 556.5,556C 560.367,553.567 564.367,551.4 568.5,549.5C 571.038,549.493 573.538,549.159 576,548.5C 584.693,549.822 591.36,554.156 596,561.5C 598.37,570.339 599.37,579.339 599,588.5C 595.94,592.545 592.94,596.545 590,600.5C 589.329,601.252 588.496,601.586 587.5,601.5 Z"/></g>
<g><path style="opacity:0.982" fill="#191918" d="M 290.5,554.5 C 298.253,554.104 305.92,554.604 313.5,556C 315.5,557.333 317.5,558.667 319.5,560C 322.228,566.042 326.895,569.709 333.5,571C 335.378,572.543 336.878,574.376 338,576.5C 338.242,583.196 338.742,589.862 339.5,596.5C 339.461,598.587 338.461,599.921 336.5,600.5C 332.274,599.93 328.108,599.263 324,598.5C 322.5,600 321,601.5 319.5,603C 317.287,603.626 315.12,603.459 313,602.5C 306.564,605.689 301.23,604.356 297,598.5C 284.481,607.161 276.648,603.994 273.5,589C 271.944,573.778 277.611,562.278 290.5,554.5 Z"/></g>
<g><path style="opacity:1" fill="#f4f3e6" d="M 334.5,587.5 C 334.5,590.167 334.5,592.833 334.5,595.5C 333.167,595.5 331.833,595.5 330.5,595.5C 327.482,595.335 324.482,595.502 321.5,596C 320.022,598.039 318.022,598.872 315.5,598.5C 315.5,597.5 315.5,596.5 315.5,595.5C 312.326,596.015 309.326,597.015 306.5,598.5C 305.5,598.333 304.5,598.167 303.5,598C 301.441,595.366 299.275,592.866 297,590.5C 296.292,591.381 295.458,592.047 294.5,592.5C 290.404,593.285 287.07,592.118 284.5,589C 284.833,588.667 285.167,588.333 285.5,588C 283.667,587.5 282.5,586.333 282,584.5C 281.501,580.179 281.334,575.846 281.5,571.5C 281.709,570.078 282.209,568.745 283,567.5C 286.167,565 289.333,562.5 292.5,560C 298.167,559.333 303.833,559.333 309.5,560C 314.42,562.916 318.753,566.582 322.5,571C 326.232,572.461 329.732,574.294 333,576.5C 333.936,580.114 334.436,583.78 334.5,587.5 Z"/></g>
<g><path style="opacity:1" fill="#d7d6c9" d="M 281.5,571.5 C 281.334,575.846 281.501,580.179 282,584.5C 282.5,586.333 283.667,587.5 285.5,588C 285.167,588.333 284.833,588.667 284.5,589C 287.07,592.118 290.404,593.285 294.5,592.5C 293.641,595.452 291.641,597.285 288.5,598C 285.364,599.041 282.864,598.207 281,595.5C 279.409,588.608 279.076,581.608 280,574.5C 280.232,573.263 280.732,572.263 281.5,571.5 Z"/></g>
<g><path style="opacity:1" fill="#64635e" d="M 334.5,587.5 C 335.477,590.287 335.81,593.287 335.5,596.5C 333.585,596.784 331.919,596.451 330.5,595.5C 331.833,595.5 333.167,595.5 334.5,595.5C 334.5,592.833 334.5,590.167 334.5,587.5 Z"/></g>

        
<g><path style="opacity:0.997" fill="#130c08" d="M 585.5,142.5 C 618.064,141.521 648.731,148.688 677.5,164C 686.447,169.947 695.114,176.28 703.5,183C 714.043,196.673 717.876,211.839 715,228.5C 713.465,233.604 711.632,238.604 709.5,243.5C 702.685,251.482 695.685,259.316 688.5,267C 694.886,266.122 701.386,265.622 708,265.5C 730.255,265.765 739.422,276.931 735.5,299C 732.443,310.782 726.776,321.115 718.5,330C 703.713,339.671 700.213,336.838 708,321.5C 708.533,312.097 705.7,303.93 699.5,297C 693.141,295.462 686.808,295.795 680.5,298C 669.05,303.483 657.05,307.15 644.5,309C 631.183,311.395 618.849,309.062 607.5,302C 599.758,295.533 598.258,288.033 603,279.5C 607.229,269.604 614.396,262.771 624.5,259C 636.122,256.679 647.122,252.679 657.5,247C 667.385,239.172 670.052,229.339 665.5,217.5C 660.121,218.006 654.787,218.839 649.5,220C 628.159,228.35 609.159,240.35 592.5,256C 588,260.5 583.5,265 579,269.5C 573.788,285.037 563.288,290.537 547.5,286C 525.22,283.693 504.886,276.359 486.5,264C 473.295,251.722 467.128,236.555 468,218.5C 469.427,213.878 471.427,209.545 474,205.5C 488.146,191.361 503.313,178.527 519.5,167C 529.711,161.728 540.044,156.728 550.5,152C 562.08,148.024 573.746,144.858 585.5,142.5 Z"/></g>
<g><path style="opacity:1" fill="#916340" d="M 674.5,210.5 C 670.855,209.95 667.689,209.95 665,210.5C 664.722,209.584 664.222,208.918 663.5,208.5C 660.471,206.628 658.305,203.961 657,200.5C 655.059,195.299 653.559,189.966 652.5,184.5C 650.976,185.527 650.309,187.027 650.5,189C 651.273,195.651 653.439,201.818 657,207.5C 658.113,208.305 659.279,208.972 660.5,209.5C 660.631,210.239 660.464,210.906 660,211.5C 657.248,211.288 654.082,210.955 650.5,210.5C 647.971,211.599 645.471,212.599 643,213.5C 640.747,213.369 638.581,213.035 636.5,212.5C 635.201,213.09 634.368,214.09 634,215.5C 630.092,214.125 626.092,214.792 622,217.5C 618.678,216.558 615.511,216.225 612.5,216.5C 611.482,217.193 610.482,217.859 609.5,218.5C 602.515,211.337 597.348,203.003 594,193.5C 593.821,190.447 593.321,187.447 592.5,184.5C 591.914,184.709 591.414,185.043 591,185.5C 590.249,190.572 590.582,195.572 592,200.5C 595.603,207.257 599.77,213.591 604.5,219.5C 603.357,219.793 602.023,219.793 600.5,219.5C 598.654,221.592 596.321,222.926 593.5,223.5C 592.914,223.291 592.414,222.957 592,222.5C 589.29,225.186 586.29,227.519 583,229.5C 581.984,228.366 581.317,228.699 581,230.5C 580.667,230.167 580.333,229.833 580,229.5C 578.764,231.538 576.931,232.705 574.5,233C 574.833,233.333 575.167,233.667 575.5,234C 574.062,234.219 572.729,234.719 571.5,235.5C 570.669,238.672 568.669,240.338 565.5,240.5C 560.394,238.907 556.227,235.907 553,231.5C 548.605,225.434 544.605,219.1 541,212.5C 540.626,210.102 540.626,207.769 541,205.5C 539.989,204.663 538.822,204.33 537.5,204.5C 537.21,208.936 537.71,213.27 539,217.5C 543.333,223.833 547.667,230.167 552,236.5C 554.628,239.21 557.461,241.544 560.5,243.5C 556.477,247.697 551.81,251.197 546.5,254C 546.319,257.85 544.319,260.183 540.5,261C 539.15,262.718 537.983,264.552 537,266.5C 536.667,266.167 536.333,265.833 536,265.5C 536.063,268.767 534.563,270.934 531.5,272C 532.413,273.414 532.413,274.914 531.5,276.5C 513.09,273.379 497.256,265.379 484,252.5C 476.191,241.739 472.857,229.739 474,216.5C 478.709,208.785 484.542,201.951 491.5,196C 500.016,189.574 508.349,182.907 516.5,176C 537.635,162.267 560.635,153.267 585.5,149C 600.74,147.648 615.74,148.981 630.5,153C 645.739,157.3 660.405,162.966 674.5,170C 685.797,176.399 695.63,184.566 704,194.5C 709.659,204.809 711.659,215.809 710,227.5C 705.468,222.633 700.634,218.133 695.5,214C 688.723,211.462 681.723,210.296 674.5,210.5 Z"/></g>
<g><path style="opacity:0.996" fill="#140d08" d="M 174.5,164.5 C 224.809,164.566 263.976,185.233 292,226.5C 294.158,234.271 293.825,241.938 291,249.5C 286.623,263.427 279.789,275.927 270.5,287C 262.225,293.056 253.392,298.223 244,302.5C 236.894,304.964 229.728,305.13 222.5,303C 221.308,301.055 221.308,299.055 222.5,297C 218.747,289.407 215.58,281.573 213,273.5C 203.563,260.398 193.063,248.231 181.5,237C 167.625,227.703 152.625,220.703 136.5,216C 132.833,215.333 129.167,215.333 125.5,216C 122.528,217.141 120.861,219.308 120.5,222.5C 122.316,224.817 124.316,226.984 126.5,229C 134.833,232.667 143.167,236.333 151.5,240C 161.408,247.205 171.575,254.038 182,260.5C 188.153,269.822 187.986,278.989 181.5,288C 171.767,294.339 161.434,295.339 150.5,291C 143.153,288.657 135.819,286.323 128.5,284C 117.047,281.545 110.047,285.878 107.5,297C 108.614,304.497 110.614,311.663 113.5,318.5C 100.871,317.267 89.704,312.6 80,304.5C 77.9376,302.099 76.2709,299.433 75,296.5C 74.1041,288.754 74.4375,281.087 76,273.5C 80.018,265.44 85.8514,259.107 93.5,254.5C 80.7205,242.664 77.5539,228.664 84,212.5C 93.8725,199.627 105.373,188.46 118.5,179C 136.158,169.753 154.825,164.92 174.5,164.5 Z"/></g>
<g><path style="opacity:1" fill="#916340" d="M 280.5,260.5 C 279.213,261.831 277.047,262.831 274,263.5C 272.684,260.972 271.517,260.972 270.5,263.5C 268.694,262.141 267.194,262.475 266,264.5C 263.084,262.987 260.418,263.32 258,265.5C 256.457,264.715 254.79,264.715 253,265.5C 251.11,265.215 249.777,264.215 249,262.5C 247.636,263.258 246.469,262.758 245.5,261C 245.833,260.667 246.167,260.333 246.5,260C 243,257.331 239.667,254.498 236.5,251.5C 240.161,246.184 243.328,240.517 246,234.5C 247.37,226.236 247.87,217.903 247.5,209.5C 245.876,209.36 244.71,210.027 244,211.5C 245.234,224.956 241.734,236.956 233.5,247.5C 232.761,247.631 232.094,247.464 231.5,247C 232.833,246.333 232.833,245.667 231.5,245C 229.975,243.991 228.308,243.491 226.5,243.5C 226.5,242.5 226.5,241.5 226.5,240.5C 224.833,240.5 223.167,240.5 221.5,240.5C 221.5,239.5 221.5,238.5 221.5,237.5C 217.567,237.804 214.567,236.304 212.5,233C 209.494,230.886 206.16,229.553 202.5,229C 201.167,228.333 201.167,227.667 202.5,227C 199.5,224.997 196.167,224.164 192.5,224.5C 192.169,222.678 191.502,221.011 190.5,219.5C 192.155,211.723 193.489,203.889 194.5,196C 194.333,193.833 194.167,191.667 194,189.5C 192.667,188.167 191.333,188.167 190,189.5C 190.106,199.791 188.606,209.791 185.5,219.5C 183.007,219.671 181.174,218.671 180,216.5C 179.667,216.833 179.333,217.167 179,217.5C 177.601,216.773 176.101,216.273 174.5,216C 173.167,215.333 173.167,214.667 174.5,214C 172.729,211.887 171.229,212.053 170,214.5C 169,213.167 168,211.833 167,210.5C 165.984,211.634 165.317,211.301 165,209.5C 164.667,209.833 164.333,210.167 164,210.5C 162.316,208.299 160.316,207.633 158,208.5C 157.676,206.431 156.842,206.098 155.5,207.5C 153.517,207.185 152.184,206.185 151.5,204.5C 151.664,201.813 151.497,199.146 151,196.5C 149.989,195.663 148.822,195.33 147.5,195.5C 147.5,197.167 147.5,198.833 147.5,200.5C 146.837,202.042 146.17,203.709 145.5,205.5C 143.807,203.973 141.973,202.64 140,201.5C 139.586,201.957 139.086,202.291 138.5,202.5C 135.133,201.554 131.8,200.554 128.5,199.5C 125.565,199.899 122.731,199.899 120,199.5C 119.261,198.426 118.261,197.759 117,197.5C 114.064,198.035 111.397,198.035 109,197.5C 107.556,199.155 105.722,199.822 103.5,199.5C 109.345,193.492 115.678,187.992 122.5,183C 141.944,172.887 162.611,168.887 184.5,171C 227.599,172.959 261.432,191.459 286,226.5C 287.555,231.382 287.888,236.382 287,241.5C 284.933,247.867 282.766,254.201 280.5,260.5 Z"/></g>
<g><path style="opacity:1" fill="#0c0604" d="M 663.5,208.5 C 662.791,209.404 661.791,209.737 660.5,209.5C 659.279,208.972 658.113,208.305 657,207.5C 653.439,201.818 651.273,195.651 650.5,189C 650.309,187.027 650.976,185.527 652.5,184.5C 653.559,189.966 655.059,195.299 657,200.5C 658.305,203.961 660.471,206.628 663.5,208.5 Z"/></g>
<g><path style="opacity:1" fill="#814125" d="M 147.5,200.5 C 147.543,203.91 147.043,207.243 146,210.5C 145.481,211.516 144.647,212.182 143.5,212.5C 138.371,210.402 133.038,209.235 127.5,209C 116.113,208.401 104.78,208.401 93.5,209C 96.0658,204.932 99.3991,201.765 103.5,199.5C 105.722,199.822 107.556,199.155 109,197.5C 111.397,198.035 114.064,198.035 117,197.5C 118.261,197.759 119.261,198.426 120,199.5C 122.731,199.899 125.565,199.899 128.5,199.5C 131.8,200.554 135.133,201.554 138.5,202.5C 139.086,202.291 139.586,201.957 140,201.5C 141.973,202.64 143.807,203.973 145.5,205.5C 146.17,203.709 146.837,202.042 147.5,200.5 Z"/></g>
<g><path style="opacity:1" fill="#0e0805" d="M 565.5,240.5 C 569.152,242.787 573.152,244.621 577.5,246C 578.687,247.019 579.687,248.186 580.5,249.5C 580,249.833 579.5,250.167 579,250.5C 572.789,248.241 566.622,245.907 560.5,243.5C 557.461,241.544 554.628,239.21 552,236.5C 547.667,230.167 543.333,223.833 539,217.5C 537.71,213.27 537.21,208.936 537.5,204.5C 538.822,204.33 539.989,204.663 541,205.5C 540.626,207.769 540.626,210.102 541,212.5C 544.605,219.1 548.605,225.434 553,231.5C 556.227,235.907 560.394,238.907 565.5,240.5 Z"/></g>
<g><path style="opacity:1" fill="#814125" d="M 151.5,204.5 C 152.184,206.185 153.517,207.185 155.5,207.5C 156.842,206.098 157.676,206.431 158,208.5C 160.316,207.633 162.316,208.299 164,210.5C 164.333,210.167 164.667,209.833 165,209.5C 165.317,211.301 165.984,211.634 167,210.5C 168,211.833 169,213.167 170,214.5C 171.229,212.053 172.729,211.887 174.5,214C 173.167,214.667 173.167,215.333 174.5,216C 176.101,216.273 177.601,216.773 179,217.5C 179.333,217.167 179.667,216.833 180,216.5C 181.174,218.671 183.007,219.671 185.5,219.5C 185.047,225.124 182.047,227.624 176.5,227C 168.001,221.777 159.001,217.61 149.5,214.5C 149.167,214.167 148.833,213.833 148.5,213.5C 149.635,210.418 150.635,207.418 151.5,204.5 Z"/></g>
<g><path style="opacity:1" fill="#804225" d="M 663.5,208.5 C 664.222,208.918 664.722,209.584 665,210.5C 667.689,209.95 670.855,209.95 674.5,210.5C 665.901,211.593 657.234,213.093 648.5,215C 638.962,218.399 629.796,222.566 621,227.5C 616.705,225.032 612.871,222.032 609.5,218.5C 610.482,217.859 611.482,217.193 612.5,216.5C 615.511,216.225 618.678,216.558 622,217.5C 626.092,214.792 630.092,214.125 634,215.5C 634.368,214.09 635.201,213.09 636.5,212.5C 638.581,213.035 640.747,213.369 643,213.5C 645.471,212.599 647.971,211.599 650.5,210.5C 654.082,210.955 657.248,211.288 660,211.5C 660.464,210.906 660.631,210.239 660.5,209.5C 661.791,209.737 662.791,209.404 663.5,208.5 Z"/></g>
<g><path style="opacity:1" fill="#814125" d="M 99.5,213.5 C 106.011,212.182 112.678,212.182 119.5,213.5C 114.302,219.112 114.302,224.612 119.5,230C 129.167,235.563 139.167,240.563 149.5,245C 154.738,249.203 160.238,253.036 166,256.5C 167.033,259.217 166.2,261.051 163.5,262C 159.5,262.667 155.5,262.667 151.5,262C 141.613,258.092 131.613,254.925 121.5,252.5C 121.938,252.565 122.272,252.399 122.5,252C 119.107,251.606 116.94,249.773 116,246.5C 115.282,247.451 114.449,247.617 113.5,247C 114.866,244.562 114.366,244.062 112,245.5C 104.753,241.582 99.5867,235.749 96.5,228C 97.8333,225.667 97.8333,223.333 96.5,221C 98.5689,220.676 98.9023,219.842 97.5,218.5C 97.9767,217.522 98.6433,216.689 99.5,216C 98.3659,214.984 98.6992,214.317 100.5,214C 100.272,213.601 99.9382,213.435 99.5,213.5 Z"/></g>
<g><path style="opacity:1" fill="#8e613f" d="M 99.5,213.5 C 99.9382,213.435 100.272,213.601 100.5,214C 98.6992,214.317 98.3659,214.984 99.5,216C 98.6433,216.689 97.9767,217.522 97.5,218.5C 98.9023,219.842 98.5689,220.676 96.5,221C 97.8333,223.333 97.8333,225.667 96.5,228C 99.5867,235.749 104.753,241.582 112,245.5C 114.366,244.062 114.866,244.562 113.5,247C 114.449,247.617 115.282,247.451 116,246.5C 116.94,249.773 119.107,251.606 122.5,252C 122.272,252.399 121.938,252.565 121.5,252.5C 114.479,251.289 107.479,251.289 100.5,252.5C 88.226,243.846 83.726,232.18 87,217.5C 90.5443,214.486 94.711,213.153 99.5,213.5 Z"/></g>
<g><path style="opacity:1" fill="#824125" d="M 697.5,223.5 C 697.063,225.074 696.063,226.241 694.5,227C 696.767,228.081 696.934,229.581 695,231.5C 693.859,233.609 692.359,235.442 690.5,237C 691.517,238.049 691.684,239.216 691,240.5C 689.59,241.787 688.09,242.954 686.5,244C 687.167,244.333 687.833,244.667 688.5,245C 684.942,246.892 682.442,249.725 681,253.5C 678.833,254.333 677.333,255.833 676.5,258C 673.19,257.771 671.356,259.271 671,262.5C 668.871,261.137 668.371,261.471 669.5,263.5C 666.319,265.419 662.985,267.919 659.5,271C 658.451,271.492 657.451,271.326 656.5,270.5C 655.476,271.853 654.143,272.52 652.5,272.5C 652.5,273.5 652.5,274.5 652.5,275.5C 645.963,277.215 639.629,276.715 633.5,274C 630.019,270.603 629.686,266.936 632.5,263C 644.389,260.471 655.222,255.638 665,248.5C 672.665,239.229 674.498,228.895 670.5,217.5C 677.173,216.444 683.839,216.61 690.5,218C 693.266,219.371 695.599,221.204 697.5,223.5 Z"/></g>
<g><path style="opacity:1" fill="#824125" d="M 604.5,219.5 C 607.944,223.061 611.944,225.894 616.5,228C 617.451,228.718 617.617,229.551 617,230.5C 602.847,240.085 589.847,251.085 578,263.5C 574.501,267.672 571.834,272.338 570,277.5C 568.5,279 567,280.5 565.5,282C 553.925,281.126 542.592,279.293 531.5,276.5C 532.413,274.914 532.413,273.414 531.5,272C 534.563,270.934 536.063,268.767 536,265.5C 536.333,265.833 536.667,266.167 537,266.5C 537.983,264.552 539.15,262.718 540.5,261C 544.319,260.183 546.319,257.85 546.5,254C 551.81,251.197 556.477,247.697 560.5,243.5C 566.622,245.907 572.789,248.241 579,250.5C 579.5,250.167 580,249.833 580.5,249.5C 579.687,248.186 578.687,247.019 577.5,246C 573.152,244.621 569.152,242.787 565.5,240.5C 568.669,240.338 570.669,238.672 571.5,235.5C 572.729,234.719 574.062,234.219 575.5,234C 575.167,233.667 574.833,233.333 574.5,233C 576.931,232.705 578.764,231.538 580,229.5C 580.333,229.833 580.667,230.167 581,230.5C 581.317,228.699 581.984,228.366 583,229.5C 586.29,227.519 589.29,225.186 592,222.5C 592.414,222.957 592.914,223.291 593.5,223.5C 596.321,222.926 598.654,221.592 600.5,219.5C 602.023,219.793 603.357,219.793 604.5,219.5 Z"/></g>
<g><path style="opacity:1" fill="#824125" d="M 190.5,219.5 C 191.502,221.011 192.169,222.678 192.5,224.5C 196.167,224.164 199.5,224.997 202.5,227C 201.167,227.667 201.167,228.333 202.5,229C 206.16,229.553 209.494,230.886 212.5,233C 214.567,236.304 217.567,237.804 221.5,237.5C 221.5,238.5 221.5,239.5 221.5,240.5C 223.167,240.5 224.833,240.5 226.5,240.5C 226.5,241.5 226.5,242.5 226.5,243.5C 228.308,243.491 229.975,243.991 231.5,245C 232.833,245.667 232.833,246.333 231.5,247C 232.094,247.464 232.761,247.631 233.5,247.5C 229.227,257.713 221.727,262.046 211,260.5C 203.413,249.577 194.413,239.91 184,231.5C 186.381,227.746 188.548,223.746 190.5,219.5 Z"/></g>
<g><path style="opacity:1" fill="#8f613f" d="M 697.5,223.5 C 700.11,225.606 702.61,227.94 705,230.5C 705.667,233.5 705.667,236.5 705,239.5C 703.248,242.672 701.248,245.672 699,248.5C 693.167,255.667 686.667,262.167 679.5,268C 670.564,270.712 661.564,273.212 652.5,275.5C 652.5,274.5 652.5,273.5 652.5,272.5C 654.143,272.52 655.476,271.853 656.5,270.5C 657.451,271.326 658.451,271.492 659.5,271C 662.985,267.919 666.319,265.419 669.5,263.5C 668.371,261.471 668.871,261.137 671,262.5C 671.356,259.271 673.19,257.771 676.5,258C 677.333,255.833 678.833,254.333 681,253.5C 682.442,249.725 684.942,246.892 688.5,245C 687.833,244.667 687.167,244.333 686.5,244C 688.09,242.954 689.59,241.787 691,240.5C 691.684,239.216 691.517,238.049 690.5,237C 692.359,235.442 693.859,233.609 695,231.5C 696.934,229.581 696.767,228.081 694.5,227C 696.063,226.241 697.063,225.074 697.5,223.5 Z"/></g>
<g><path style="opacity:1" fill="#824125" d="M 236.5,251.5 C 239.667,254.498 243,257.331 246.5,260C 246.167,260.333 245.833,260.667 245.5,261C 246.469,262.758 247.636,263.258 249,262.5C 249.777,264.215 251.11,265.215 253,265.5C 254.79,264.715 256.457,264.715 258,265.5C 260.418,263.32 263.084,262.987 266,264.5C 267.194,262.475 268.694,262.141 270.5,263.5C 271.517,260.972 272.684,260.972 274,263.5C 277.047,262.831 279.213,261.831 280.5,260.5C 277.235,268.863 272.568,276.363 266.5,283C 259.668,287.584 252.668,291.917 245.5,296C 240.09,298.382 234.424,299.549 228.5,299.5C 228.579,296.729 228.079,294.063 227,291.5C 223.518,285.533 220.851,279.199 219,272.5C 217.224,269.059 215.057,265.892 212.5,263C 223.249,265.463 231.249,261.63 236.5,251.5 Z"/></g>
<g><path style="opacity:1" fill="#8f613f" d="M 180.5,271.5 C 178.54,272.138 176.707,272.138 175,271.5C 172.383,273.414 169.883,275.414 167.5,277.5C 165.326,276.137 163.159,275.803 161,276.5C 157.924,275.712 154.758,275.212 151.5,275C 149.709,274.585 148.376,273.585 147.5,272C 145.559,271.257 143.726,271.424 142,272.5C 139.826,270.824 137.326,269.824 134.5,269.5C 129.927,270.548 125.427,270.548 121,269.5C 120.36,271.398 119.027,271.732 117,270.5C 115.112,270.796 113.278,271.296 111.5,272C 111.833,272.333 112.167,272.667 112.5,273C 109.813,273.341 107.813,274.674 106.5,277C 104.564,277.813 102.564,278.313 100.5,278.5C 100.5,279.833 100.5,281.167 100.5,282.5C 98.3193,282.284 96.6526,283.117 95.5,285C 96.1162,287.39 96.1162,289.556 95.5,291.5C 94.8721,293.258 93.8721,294.758 92.5,296C 93.3266,297.893 93.3266,300.059 92.5,302.5C 93.5,303.333 94.5,304.167 95.5,305C 94.5842,305.278 93.9175,305.778 93.5,306.5C 80.2922,301.07 75.9589,291.403 80.5,277.5C 83.2109,281.212 86.5442,284.212 90.5,286.5C 91.5827,285.635 91.7494,284.635 91,283.5C 86.2333,280.291 83.8999,275.958 84,270.5C 87.8837,264.641 93.0504,260.308 99.5,257.5C 100.333,260.5 101.167,263.5 102,266.5C 103.94,269.402 106.44,270.402 109.5,269.5C 105.328,266.152 103.661,261.819 104.5,256.5C 120.194,257.007 135.194,260.507 149.5,267C 158.355,268.992 166.189,267.159 173,261.5C 177.21,263.544 179.71,266.878 180.5,271.5 Z"/></g>
<g><path style="opacity:1" fill="#8f613f" d="M 680.5,284.5 C 677.184,285.466 673.85,286.466 670.5,287.5C 668.941,286.926 667.441,286.26 666,285.5C 660.648,288.611 655.481,289.944 650.5,289.5C 649.672,290.415 648.672,291.081 647.5,291.5C 637.942,290.758 628.275,290.758 618.5,291.5C 616.018,289.539 613.352,287.706 610.5,286C 611.34,284.334 610.84,284.167 609,285.5C 608.283,284.956 607.783,284.289 607.5,283.5C 610.757,274.409 616.923,268.076 626,264.5C 625.725,271.785 628.892,276.952 635.5,280C 641.461,281.239 647.461,281.573 653.5,281C 663.618,277.743 673.952,275.576 684.5,274.5C 683.752,278.006 682.419,281.34 680.5,284.5 Z"/></g>
<g><path style="opacity:1" fill="#824225" d="M 180.5,271.5 C 182.349,279.286 179.349,284.453 171.5,287C 166.833,287.667 162.167,287.667 157.5,287C 148.3,284.933 139.3,282.266 130.5,279C 106.011,276.986 98.0112,287.486 106.5,310.5C 101.748,310.807 97.4144,309.473 93.5,306.5C 93.9175,305.778 94.5842,305.278 95.5,305C 94.5,304.167 93.5,303.333 92.5,302.5C 93.3266,300.059 93.3266,297.893 92.5,296C 93.8721,294.758 94.8721,293.258 95.5,291.5C 96.1162,289.556 96.1162,287.39 95.5,285C 96.6526,283.117 98.3193,282.284 100.5,282.5C 100.5,281.167 100.5,279.833 100.5,278.5C 102.564,278.313 104.564,277.813 106.5,277C 107.813,274.674 109.813,273.341 112.5,273C 112.167,272.667 111.833,272.333 111.5,272C 113.278,271.296 115.112,270.796 117,270.5C 119.027,271.732 120.36,271.398 121,269.5C 125.427,270.548 129.927,270.548 134.5,269.5C 137.326,269.824 139.826,270.824 142,272.5C 143.726,271.424 145.559,271.257 147.5,272C 148.376,273.585 149.709,274.585 151.5,275C 154.758,275.212 157.924,275.712 161,276.5C 163.159,275.803 165.326,276.137 167.5,277.5C 169.883,275.414 172.383,273.414 175,271.5C 176.707,272.138 178.54,272.138 180.5,271.5 Z"/></g>
<g><path style="opacity:1" fill="#90623f" d="M 719.5,319.5 C 718.761,319.631 718.094,319.464 717.5,319C 718.747,317.542 718.747,316.042 717.5,314.5C 717.846,313.304 718.346,313.304 719,314.5C 719.44,311.339 718.607,308.506 716.5,306C 717.475,303.588 716.808,301.588 714.5,300C 715.634,298.984 715.301,298.317 713.5,298C 714.308,297.692 714.975,297.192 715.5,296.5C 714.753,296.264 713.92,295.93 713,295.5C 712.581,291.148 711.914,290.815 711,294.5C 709.113,292.974 708.113,290.974 708,288.5C 707.683,290.301 707.016,290.634 706,289.5C 705.517,288.552 705.351,287.552 705.5,286.5C 702.684,288.217 700.517,287.551 699,284.5C 698.667,284.833 698.333,285.167 698,285.5C 696.293,284.541 694.459,283.875 692.5,283.5C 690.313,284.072 687.979,284.072 685.5,283.5C 686.466,279.783 687.8,276.283 689.5,273C 698.797,271.602 708.13,271.268 717.5,272C 720.329,273.247 722.995,274.747 725.5,276.5C 725.887,278.731 726.053,281.064 726,283.5C 727.512,281.043 728.846,281.043 730,283.5C 731.455,297.023 727.955,309.023 719.5,319.5 Z"/></g>
<g><path style="opacity:1" fill="#814225" d="M 607.5,283.5 C 607.783,284.289 608.283,284.956 609,285.5C 610.84,284.167 611.34,284.334 610.5,286C 613.352,287.706 616.018,289.539 618.5,291.5C 628.275,290.758 637.942,290.758 647.5,291.5C 648.672,291.081 649.672,290.415 650.5,289.5C 655.481,289.944 660.648,288.611 666,285.5C 667.441,286.26 668.941,286.926 670.5,287.5C 673.85,286.466 677.184,285.466 680.5,284.5C 680.735,285.097 681.235,285.43 682,285.5C 683.303,285.022 684.469,284.355 685.5,283.5C 687.979,284.072 690.313,284.072 692.5,283.5C 694.459,283.875 696.293,284.541 698,285.5C 698.333,285.167 698.667,284.833 699,284.5C 700.517,287.551 702.684,288.217 705.5,286.5C 705.351,287.552 705.517,288.552 706,289.5C 707.016,290.634 707.683,290.301 708,288.5C 708.113,290.974 709.113,292.974 711,294.5C 711.914,290.815 712.581,291.148 713,295.5C 713.92,295.93 714.753,296.264 715.5,296.5C 714.975,297.192 714.308,297.692 713.5,298C 715.301,298.317 715.634,298.984 714.5,300C 716.808,301.588 717.475,303.588 716.5,306C 718.607,308.506 719.44,311.339 719,314.5C 718.346,313.304 717.846,313.304 717.5,314.5C 718.747,316.042 718.747,317.542 717.5,319C 718.094,319.464 718.761,319.631 719.5,319.5C 717.588,322.919 715.088,325.919 712,328.5C 714.381,318.584 713.381,308.917 709,299.5C 707.168,296.639 705.001,294.139 702.5,292C 696.569,290.529 690.569,290.196 684.5,291C 672.945,294.94 661.278,298.607 649.5,302C 640.875,303.419 632.208,303.752 623.5,303C 617.013,301.508 611.513,298.341 607,293.5C 604.882,289.901 605.049,286.568 607.5,283.5 Z"/></g>

        
<g><path style="opacity:0.994" fill="#080808" d="M 397.5,213.5 C 426.652,214.128 455.652,216.628 484.5,221C 501.696,223.299 517.696,228.965 532.5,238C 541.415,244.711 550.915,250.545 561,255.5C 566,261.833 571,268.167 576,274.5C 579.431,281.886 582.098,289.553 584,297.5C 600.968,293.905 616.801,296.738 631.5,306C 657.957,323.456 680.123,345.29 698,371.5C 701.828,378.655 704.662,386.155 706.5,394C 702.842,398.302 698.175,400.969 692.5,402C 684.601,403.249 676.935,403.749 669.5,403.5C 671.81,407.254 673.643,411.254 675,415.5C 676.619,423.927 678.619,432.26 681,440.5C 682.454,454.02 679.787,466.687 673,478.5C 663.749,491.086 652.582,501.586 639.5,510C 630.893,513.302 622.893,517.635 615.5,523C 597.029,529.157 579.029,536.491 561.5,545C 545.683,550.606 529.683,555.606 513.5,560C 521.167,567 528.833,574 536.5,581C 541.889,585.389 547.556,589.389 553.5,593C 559.667,598.5 565.833,604 572,609.5C 578.423,618.674 584.09,628.34 589,638.5C 598.788,663.109 604.621,688.609 606.5,715C 605.832,731.84 601.498,747.673 593.5,762.5C 601.079,763.861 608.079,766.694 614.5,771C 619.719,777.218 624.552,783.718 629,790.5C 633.064,794.786 637.897,797.952 643.5,800C 644.293,801.085 644.96,802.252 645.5,803.5C 640.621,808.778 634.621,812.278 627.5,814C 620.872,815.052 614.206,815.552 607.5,815.5C 607.62,817.199 607.954,818.865 608.5,820.5C 608.182,821.647 607.516,822.481 606.5,823C 599.093,824.492 591.593,825.325 584,825.5C 570.833,824.357 557.666,823.19 544.5,822C 528.753,817.882 515.253,810.049 504,798.5C 495.911,789.336 489.577,779.003 485,767.5C 473.056,772.575 460.556,774.908 447.5,774.5C 441.513,773.858 435.513,773.358 429.5,773C 427,772.625 424.667,771.792 422.5,770.5C 418.78,774.733 415.613,779.4 413,784.5C 395.052,801.708 373.552,809.541 348.5,808C 344.343,807.271 340.343,806.104 336.5,804.5C 335.167,803.5 335.167,802.5 336.5,801.5C 338.833,800 341.167,798.5 343.5,797C 344.696,796.346 344.696,795.846 343.5,795.5C 335.883,796.633 328.216,796.8 320.5,796C 311.363,794.508 304.863,789.675 301,781.5C 300.179,778.446 300.345,775.446 301.5,772.5C 312.272,769.781 321.939,764.947 330.5,758C 319.87,750.041 313.37,739.541 311,726.5C 309.463,718.908 308.63,711.241 308.5,703.5C 309.559,693.159 310.392,682.825 311,672.5C 308.094,675.369 304.594,676.702 300.5,676.5C 294.742,676.543 289.409,675.209 284.5,672.5C 273.656,662.134 269.489,649.467 272,634.5C 275.346,612.289 285.512,594.122 302.5,580C 312.952,573.232 324.119,571.732 336,575.5C 337.967,574.507 339.134,572.84 339.5,570.5C 305.015,564.297 271.015,555.463 237.5,544C 209.322,532.837 184.822,516.337 164,494.5C 152.732,482.13 145.899,467.63 143.5,451C 144.485,443.505 144.985,436.005 145,428.5C 140.155,431.151 134.989,431.984 129.5,431C 127.954,429.56 127.121,427.727 127,425.5C 126.788,413.092 127.788,400.758 130,388.5C 135.912,374.746 142.579,361.413 150,348.5C 160.721,333.106 174.888,322.273 192.5,316C 198.537,315.303 204.537,315.47 210.5,316.5C 211.252,310.492 213.086,304.826 216,299.5C 222.667,288.833 229.333,278.167 236,267.5C 246.355,255.578 258.188,245.412 271.5,237C 312.624,223.821 354.624,215.987 397.5,213.5 Z"/></g>
<g><path style="opacity:1" fill="#1a1a1a" d="M 668.5,416.5 C 667.149,427.398 664.649,438.064 661,448.5C 656.399,457.425 651.399,466.092 646,474.5C 623.77,496.709 597.937,513.542 568.5,525C 543.253,532.859 517.92,540.526 492.5,548C 448.553,557.101 404.22,559.768 359.5,556C 347.914,553.855 336.248,552.188 324.5,551C 281.405,540.283 240.405,524.283 201.5,503C 185.771,492.605 171.938,480.105 160,465.5C 152.669,456.68 150.169,446.68 152.5,435.5C 154.204,427.844 154.871,420.177 154.5,412.5C 152.056,416.118 149.39,419.618 146.5,423C 142.683,424.995 138.683,426.495 134.5,427.5C 133.201,426.91 132.368,425.91 132,424.5C 131.833,422.5 131.667,420.5 131.5,418.5C 132.991,409.545 134.157,400.545 135,391.5C 141.604,374.286 150.271,358.286 161,343.5C 170.285,333.114 181.451,325.614 194.5,321C 200.862,320.576 207.195,320.576 213.5,321C 224.905,285.517 246.572,258.184 278.5,239C 326.469,224.712 375.469,218.046 425.5,219C 447.106,221.764 468.773,224.764 490.5,228C 502.4,230.411 513.733,234.411 524.5,240C 535.498,247.501 546.832,254.501 558.5,261C 569.707,272.248 576.541,285.748 579,301.5C 581.376,308.587 585.043,314.92 590,320.5C 590.167,320.167 590.333,319.833 590.5,319.5C 588.2,313.909 586.2,308.242 584.5,302.5C 599.35,299.458 613.35,301.625 626.5,309C 652.248,326.081 674.082,347.248 692,372.5C 695.8,378.933 698.633,385.766 700.5,393C 698.652,395.093 696.319,396.426 693.5,397C 680.718,399.865 668.385,398.698 656.5,393.5C 656.372,395.655 656.872,397.655 658,399.5C 664.052,403.607 667.552,409.273 668.5,416.5 Z"/></g>
<g><path style="opacity:1" fill="#010101" d="M 618.5,337.5 C 634.542,353.376 653.208,365.543 674.5,374C 676.954,375.74 678.454,377.907 679,380.5C 677.612,381.554 676.112,381.72 674.5,381C 654.654,371.331 636.821,358.831 621,343.5C 619.441,341.783 618.608,339.783 618.5,337.5 Z"/></g>
<g><path style="opacity:1" fill="#010101" d="M 147.5,382.5 C 148.993,383.312 149.66,384.645 149.5,386.5C 148.442,393.85 147.275,401.184 146,408.5C 144.374,411.128 142.374,413.461 140,415.5C 141.412,404.277 143.912,393.277 147.5,382.5 Z"/></g>
<g><path style="opacity:1" fill="#141414" d="M 668.5,416.5 C 669.117,416.611 669.617,416.944 670,417.5C 671.619,425.927 673.619,434.26 676,442.5C 676.82,456.706 672.82,469.372 664,480.5C 656.058,489.448 647.225,497.281 637.5,504C 628.893,507.302 620.893,511.635 613.5,517C 594.28,523.296 575.614,530.963 557.5,540C 535.077,547.604 512.411,554.271 489.5,560C 470.569,562.908 451.569,565.241 432.5,567C 422.167,567.667 411.833,567.667 401.5,567C 377.521,565.26 353.521,563.927 329.5,563C 288.931,556.527 250.265,544.193 213.5,526C 190.515,513.347 171.682,496.18 157,474.5C 150.182,462.569 148.182,449.902 151,436.5C 151.383,435.944 151.883,435.611 152.5,435.5C 150.169,446.68 152.669,456.68 160,465.5C 171.938,480.105 185.771,492.605 201.5,503C 240.405,524.283 281.405,540.283 324.5,551C 336.248,552.188 347.914,553.855 359.5,556C 404.22,559.768 448.553,557.101 492.5,548C 517.92,540.526 543.253,532.859 568.5,525C 597.937,513.542 623.77,496.709 646,474.5C 651.399,466.092 656.399,457.425 661,448.5C 664.649,438.064 667.149,427.398 668.5,416.5 Z"/></g>
<g><path style="opacity:1" fill="#141414" d="M 478.5,672.5 C 485.872,678.44 494.205,679.94 503.5,677C 506.732,675.77 509.399,673.77 511.5,671C 512.5,670.333 513.5,670.333 514.5,671C 512.476,676.438 510.142,681.772 507.5,687C 510.8,688.879 514.134,688.879 517.5,687C 532.745,675.358 541.412,659.858 543.5,640.5C 542.824,633.638 540.657,627.305 537,621.5C 523.858,607.513 507.691,599.846 488.5,598.5C 480.873,598.024 477.54,601.691 478.5,609.5C 479.213,614.311 480.547,618.978 482.5,623.5C 480.083,625.107 477.416,626.107 474.5,626.5C 472.491,621.266 471.158,615.766 470.5,610C 470.586,606.241 471.586,602.741 473.5,599.5C 473.167,598.5 472.5,597.833 471.5,597.5C 469.364,598.472 468.197,600.139 468,602.5C 467.081,608.966 467.581,615.299 469.5,621.5C 459.019,625.309 450.519,631.642 444,640.5C 430.5,618.167 417,595.833 403.5,573.5C 437.551,572.702 471.217,568.702 504.5,561.5C 506.299,561.577 507.966,562.077 509.5,563C 520.782,574.621 532.948,585.121 546,594.5C 546.265,596.163 545.765,597.663 544.5,599C 549.027,601.543 552.194,605.376 554,610.5C 565.459,638.3 560.959,663.134 540.5,685C 534.687,690.075 528.354,694.408 521.5,698C 505.454,705.563 492.62,702.063 483,687.5C 480.383,682.817 478.883,677.817 478.5,672.5 Z"/></g>
<g><path style="opacity:1" fill="#1a1a1a" d="M 341.5,626.5 C 340.957,626.56 340.624,626.893 340.5,627.5C 342.415,637.065 343.749,646.732 344.5,656.5C 344.66,659.696 343.66,662.363 341.5,664.5C 336.277,662.889 331.277,660.723 326.5,658C 319.953,652.954 314.286,647.12 309.5,640.5C 307.682,644.136 305.849,647.802 304,651.5C 301.757,653.282 299.257,653.782 296.5,653C 288.502,649.673 284.835,643.673 285.5,635C 285.51,621.304 289.344,608.804 297,597.5C 303.059,590.276 309.559,583.609 316.5,577.5C 326.26,575.198 334.26,577.864 340.5,585.5C 341.079,580.029 342.246,574.696 344,569.5C 347.819,568.73 351.653,569.063 355.5,570.5C 348.17,588.493 343.503,607.16 341.5,626.5 Z"/></g>
<g><path style="opacity:1" fill="#d6d4d4" d="M 360.5,674.5 C 365.51,683.351 371.51,691.517 378.5,699C 384.877,703.189 391.544,706.855 398.5,710C 417.397,716.636 424.897,710.136 421,690.5C 413.14,671.699 409.307,652.032 409.5,631.5C 398.974,626.785 387.974,624.118 376.5,623.5C 367.747,622.705 360.081,625.039 353.5,630.5C 350.807,627.803 348.473,624.803 346.5,621.5C 349.911,604.187 354.411,587.187 360,570.5C 364.748,569.365 369.581,569.198 374.5,570C 381.807,570.95 389.14,571.617 396.5,572C 412.113,596.047 427.113,620.547 441.5,645.5C 435.945,660.017 436.445,674.35 443,688.5C 450.196,696.084 459.03,698.917 469.5,697C 472.713,696.394 475.713,695.227 478.5,693.5C 479.748,694.04 480.915,694.707 482,695.5C 480.68,711.111 480.346,726.777 481,742.5C 481.518,749.13 482.685,755.63 484.5,762C 484.095,762.945 483.428,763.612 482.5,764C 447.431,774.811 415.097,769.477 385.5,748C 370.855,738.357 359.355,725.857 351,710.5C 348.215,702.028 346.382,693.361 345.5,684.5C 351.705,682.903 356.705,679.569 360.5,674.5 Z"/></g>
<g><path style="opacity:1" fill="#141414" d="M 316.5,577.5 C 309.559,583.609 303.059,590.276 297,597.5C 289.344,608.804 285.51,621.304 285.5,635C 284.835,643.673 288.502,649.673 296.5,653C 299.257,653.782 301.757,653.282 304,651.5C 305.849,647.802 307.682,644.136 309.5,640.5C 314.286,647.12 319.953,652.954 326.5,658C 331.277,660.723 336.277,662.889 341.5,664.5C 343.66,662.363 344.66,659.696 344.5,656.5C 343.749,646.732 342.415,637.065 340.5,627.5C 340.624,626.893 340.957,626.56 341.5,626.5C 351.199,635.23 356.699,646.23 358,659.5C 359.809,668.085 356.976,674.585 349.5,679C 336.43,684.976 325.264,682.476 316,671.5C 315.5,670 315,668.5 314.5,667C 316.52,664.379 316.853,661.545 315.5,658.5C 312.756,662.751 309.422,666.585 305.5,670C 299.786,671.57 294.12,671.237 288.5,669C 276.97,657.72 273.47,644.22 278,628.5C 282.284,608.737 292.45,592.904 308.5,581C 310.818,579.007 313.484,577.841 316.5,577.5 Z"/></g>
<g><path style="opacity:1" fill="#1a1a1a" d="M 478.5,672.5 C 478.817,669.428 478.484,666.428 477.5,663.5C 474.915,671.11 474.915,678.777 477.5,686.5C 477.124,688.383 476.124,689.883 474.5,691C 467.964,693.968 461.297,694.301 454.5,692C 446.932,689.671 443.099,684.504 443,676.5C 438.427,654.149 446.26,637.982 466.5,628C 469.207,627.605 471.873,627.105 474.5,626.5C 477.416,626.107 480.083,625.107 482.5,623.5C 480.547,618.978 479.213,614.311 478.5,609.5C 477.54,601.691 480.873,598.024 488.5,598.5C 507.691,599.846 523.858,607.513 537,621.5C 540.657,627.305 542.824,633.638 543.5,640.5C 541.412,659.858 532.745,675.358 517.5,687C 514.134,688.879 510.8,688.879 507.5,687C 510.142,681.772 512.476,676.438 514.5,671C 513.5,670.333 512.5,670.333 511.5,671C 509.399,673.77 506.732,675.77 503.5,677C 494.205,679.94 485.872,678.44 478.5,672.5 Z"/></g>
<g><path style="opacity:1" fill="#1a1a1a" d="M 598.5,698.5 C 597.912,721.899 590.746,742.899 577,761.5C 565.289,772.94 551.456,780.607 535.5,784.5C 518.038,781.872 507.538,771.872 504,754.5C 503.302,747.265 502.468,740.098 501.5,733C 502.126,732.25 502.626,731.416 503,730.5C 508.809,736.106 515.809,738.772 524,738.5C 531.939,738.279 538.772,735.446 544.5,730C 552.225,722.272 558.391,713.439 563,703.5C 563.794,700.529 564.461,697.529 565,694.5C 565.418,681.971 566.251,669.471 567.5,657C 567.12,651.981 566.454,647.148 565.5,642.5C 564.922,628.765 561.588,615.765 555.5,603.5C 556.002,602.479 556.668,602.312 557.5,603C 571.596,617.015 581.763,633.515 588,652.5C 593.227,667.473 596.727,682.806 598.5,698.5 Z"/></g>
<g><path style="opacity:1" fill="#e6e6e6" d="M 360.5,674.5 C 363.083,665.193 362.917,655.859 360,646.5C 358.097,641.032 355.93,635.699 353.5,630.5C 360.081,625.039 367.747,622.705 376.5,623.5C 387.974,624.118 398.974,626.785 409.5,631.5C 409.307,652.032 413.14,671.699 421,690.5C 424.897,710.136 417.397,716.636 398.5,710C 391.544,706.855 384.877,703.189 378.5,699C 371.51,691.517 365.51,683.351 360.5,674.5 Z"/></g>
<g><path style="opacity:1" fill="#141414" d="M 565.5,642.5 C 566.454,647.148 567.12,651.981 567.5,657C 566.251,669.471 565.418,681.971 565,694.5C 564.461,697.529 563.794,700.529 563,703.5C 558.391,713.439 552.225,722.272 544.5,730C 538.772,735.446 531.939,738.279 524,738.5C 515.809,738.772 508.809,736.106 503,730.5C 502.626,731.416 502.126,732.25 501.5,733C 502.468,740.098 503.302,747.265 504,754.5C 507.538,771.872 518.038,781.872 535.5,784.5C 551.456,780.607 565.289,772.94 577,761.5C 590.746,742.899 597.912,721.899 598.5,698.5C 602.933,721.449 598.766,742.782 586,762.5C 585.175,764.701 585.675,766.534 587.5,768C 598.604,767.364 607.771,771.197 615,779.5C 618.98,786.624 623.814,793.124 629.5,799C 632.661,800.413 635.661,802.08 638.5,804C 634.952,805.941 631.286,807.607 627.5,809C 619.193,809.999 610.86,810.832 602.5,811.5C 601.423,814.474 601.423,817.474 602.5,820.5C 582.318,821.048 562.318,819.548 542.5,816C 513.218,805.719 494.718,785.552 487,755.5C 483.667,736.833 483.667,718.167 487,699.5C 491.793,704.268 497.627,706.601 504.5,706.5C 516.071,705.922 526.405,702.088 535.5,695C 552.137,681.903 561.637,664.736 564,643.5C 564.383,642.944 564.883,642.611 565.5,642.5 Z"/></g>
<g><path style="opacity:1" fill="#131313" d="M 350.5,718.5 C 349.043,720.242 347.876,722.242 347,724.5C 338.283,720.644 330.616,715.311 324,708.5C 322.417,720.502 325.084,731.502 332,741.5C 338.772,748.117 345.939,754.117 353.5,759.5C 338.303,758.317 327.136,750.984 320,737.5C 312.742,718.114 311.742,698.447 317,678.5C 323.898,685.032 332.065,687.698 341.5,686.5C 342.023,697.933 345.023,708.6 350.5,718.5 Z"/></g>
<g><path style="opacity:1" fill="#1a1a1a" d="M 350.5,718.5 C 353.904,722.965 357.071,727.631 360,732.5C 365.289,737.867 370.789,742.867 376.5,747.5C 378.142,754.451 381.142,760.785 385.5,766.5C 382.554,767.655 379.554,767.821 376.5,767C 370.378,765.471 364.378,763.638 358.5,761.5C 356.95,760.559 355.284,759.893 353.5,759.5C 345.939,754.117 338.772,748.117 332,741.5C 325.084,731.502 322.417,720.502 324,708.5C 330.616,715.311 338.283,720.644 347,724.5C 347.876,722.242 349.043,720.242 350.5,718.5 Z"/></g>
<g><path style="opacity:1" fill="#141414" d="M 376.5,747.5 C 388.389,755.614 401.056,762.447 414.5,768C 415.749,770.21 415.582,772.376 414,774.5C 406.476,785.682 396.31,793.515 383.5,798C 375.218,799.923 366.885,801.59 358.5,803C 353.761,803.726 349.095,803.393 344.5,802C 346.809,799.513 349.476,797.513 352.5,796C 356.633,790.866 361.133,786.032 366,781.5C 366.612,779.763 365.946,778.763 364,778.5C 361.71,779.724 359.544,781.057 357.5,782.5C 358.172,779.658 359.506,777.158 361.5,775C 351.161,771.609 340.828,768.109 330.5,764.5C 331.932,762.673 333.599,761.006 335.5,759.5C 342.062,762.14 348.729,764.474 355.5,766.5C 356.442,766.392 357.275,766.059 358,765.5C 357.645,764.041 357.811,762.707 358.5,761.5C 364.378,763.638 370.378,765.471 376.5,767C 379.554,767.821 382.554,767.655 385.5,766.5C 381.142,760.785 378.142,754.451 376.5,747.5 Z"/></g>
<g><path style="opacity:1" fill="#1a1a1a" d="M 330.5,764.5 C 340.828,768.109 351.161,771.609 361.5,775C 359.506,777.158 358.172,779.658 357.5,782.5C 346.393,790.126 334.06,792.626 320.5,790C 315.177,788.923 310.677,786.423 307,782.5C 305.504,780.55 305.337,778.55 306.5,776.5C 315.084,773.541 323.084,769.541 330.5,764.5 Z"/></g>
<g><path style="opacity:1" fill="#1a1a1a" d="M 578.5,780.5 C 593.089,778.218 605.255,782.552 615,793.5C 615.688,794.332 615.521,794.998 614.5,795.5C 607.334,800.602 599.334,802.935 590.5,802.5C 590.692,805.601 591.358,808.601 592.5,811.5C 587.593,811.932 582.926,810.765 578.5,808C 572.243,803.287 566.076,798.454 560,793.5C 558.148,790.653 558.648,788.153 561.5,786C 567.137,783.682 572.803,781.849 578.5,780.5 Z"/></g>

        
<g><path style="opacity:0.904" fill="#020202" d="M 492.5,247.5 C 515.533,247.263 533.366,256.596 546,275.5C 550.875,284.412 555.042,293.579 558.5,303C 558.158,305.515 556.825,307.348 554.5,308.5C 552.205,306.52 549.539,305.353 546.5,305C 526.722,303.823 507.555,306.657 489,313.5C 491.296,328.823 493.796,344.156 496.5,359.5C 515.133,358.568 532.466,353.235 548.5,343.5C 551.079,344.888 551.079,346.388 548.5,348C 540.888,351.139 533.554,354.806 526.5,359C 517.117,363.072 507.45,366.239 497.5,368.5C 497.666,377.506 497.5,386.506 497,395.5C 496.586,395.957 496.086,396.291 495.5,396.5C 494.502,387.525 494.168,378.525 494.5,369.5C 474.538,371.28 454.538,371.78 434.5,371C 431.711,370.759 429.044,370.092 426.5,369C 429.84,366.991 433.507,365.824 437.5,365.5C 456.034,367.058 474.367,365.724 492.5,361.5C 493.422,356.507 493.255,351.507 492,346.5C 490.128,336.142 488.128,325.809 486,315.5C 485.439,314.978 484.772,314.645 484,314.5C 460.075,322.547 437.575,333.38 416.5,347C 413.333,350.167 410.167,353.333 407,356.5C 406.773,363.246 407.94,369.746 410.5,376C 408.984,382.558 406.484,388.725 403,394.5C 390.558,401.825 379.725,399.658 370.5,388C 367.5,386 364.5,386 361.5,388C 355.888,397.661 347.888,400.327 337.5,396C 334.667,394.5 332.5,392.333 331,389.5C 329.616,383.862 328.45,378.195 327.5,372.5C 326.325,372.281 325.325,372.614 324.5,373.5C 318.891,387.897 310.891,400.73 300.5,412C 298.223,413.959 295.723,415.459 293,416.5C 282.155,412.329 272.322,406.496 263.5,399C 245.45,388.357 226.117,384.857 205.5,388.5C 197.369,365.942 200.535,344.942 215,325.5C 215.218,305.905 222.385,289.405 236.5,276C 243.041,271.46 250.041,267.793 257.5,265C 263.793,264.142 269.793,265.142 275.5,268C 294.627,282.096 309.127,299.929 319,321.5C 323.344,332.367 327.177,343.367 330.5,354.5C 342.609,360.703 355.443,364.37 369,365.5C 378.23,363.734 387.397,361.734 396.5,359.5C 395.021,355.198 393.521,350.865 392,346.5C 391.46,332.433 394.46,319.1 401,306.5C 406.344,296.474 412.677,287.141 420,278.5C 431.941,268.442 445.108,260.275 459.5,254C 470.366,250.443 481.366,248.276 492.5,247.5 Z"/></g>
<g><path style="opacity:1" fill="#1b1b1b" d="M 491.5,251.5 C 512.015,251.342 528.515,259.342 541,275.5C 546.139,283.77 550.139,292.437 553,301.5C 545.161,299.952 536.995,299.452 528.5,300C 514.582,301.784 500.915,304.451 487.5,308C 484.415,296.075 480.915,284.242 477,272.5C 475.926,268.681 474.093,265.348 471.5,262.5C 475.843,277.668 480.176,293.168 484.5,309C 466.264,316.451 448.264,324.451 430.5,333C 420.352,339.081 411.352,346.581 403.5,355.5C 402.549,356.326 401.549,356.492 400.5,356C 397.116,351.224 395.116,345.891 394.5,340C 396.138,329.947 398.638,320.114 402,310.5C 405.755,305.997 408.755,300.997 411,295.5C 415.048,291.12 418.715,286.454 422,281.5C 436.682,268.507 453.516,259.341 472.5,254C 478.988,253.216 485.322,252.383 491.5,251.5 Z"/></g>
<g><path style="opacity:1" fill="#1b1b1b" d="M 256.5,269.5 C 263.905,268.705 270.571,270.539 276.5,275C 302.483,295.471 318.317,321.971 324,354.5C 322.601,353.773 321.101,353.273 319.5,353C 298.875,335.523 275.209,324.189 248.5,319C 238.929,317.048 229.263,316.214 219.5,316.5C 223.054,293.637 235.388,277.97 256.5,269.5 Z"/></g>
<g><path style="opacity:1" fill="#f3f2e5" d="M 223.5,320.5 C 258.583,321.886 289.249,334.053 315.5,357C 322.049,356.381 324.215,359.214 322,365.5C 317.972,381.561 310.305,395.561 299,407.5C 302.815,380.294 292.981,359.46 269.5,345C 256.136,341.189 243.469,342.856 231.5,350C 220.786,357.876 212.452,367.709 206.5,379.5C 203.61,364.357 205.777,350.024 213,336.5C 216.356,330.996 219.856,325.663 223.5,320.5 Z"/></g>
<g><path style="opacity:1" fill="#1b1b1b" d="M 327.5,358.5 C 327.56,357.957 327.893,357.624 328.5,357.5C 343.24,366.685 359.24,370.519 376.5,369C 385.084,366.187 393.751,363.687 402.5,361.5C 404.299,368.98 404.799,376.646 404,384.5C 402.453,391.217 398.286,394.884 391.5,395.5C 383.4,395.118 377.067,391.618 372.5,385C 367.996,381.538 363.663,381.704 359.5,385.5C 357.294,388.203 354.961,390.703 352.5,393C 347.713,393.879 343.047,393.545 338.5,392C 337.333,390.833 336.167,389.667 335,388.5C 332.616,381.015 331.283,373.348 331,365.5C 330.856,362.558 329.689,360.224 327.5,358.5 Z"/></g>

        
<g><path style="opacity:0.993" fill="#20201e" d="M 591.5,350.5 C 590.89,349.609 590.557,348.609 590.5,347.5C 598.093,347.538 604.593,350.538 610,356.5C 612.002,361.007 613.502,365.674 614.5,370.5C 614.02,374.293 612.353,377.46 609.5,380C 604.5,382.333 599.5,384.667 594.5,387C 582.992,386.084 571.492,384.917 560,383.5C 549.575,383.44 539.575,385.44 530,389.5C 529.099,405.656 527.099,421.656 524,437.5C 515.846,455.806 507.18,473.806 498,491.5C 496.381,493.772 494.548,495.772 492.5,497.5C 491.558,497.392 490.725,497.059 490,496.5C 490.124,476.86 487.791,457.527 483,438.5C 480.491,430.264 476.491,422.931 471,416.5C 465.075,419.213 459.241,422.046 453.5,425C 421.871,432.862 390.038,434.695 358,430.5C 338.546,433.337 319.379,432.004 300.5,426.5C 296.372,429.29 293.372,432.957 291.5,437.5C 286.174,448.647 282.34,460.313 280,472.5C 279.983,480.544 279.816,488.544 279.5,496.5C 278.448,498.256 276.781,498.923 274.5,498.5C 263.666,480.855 255.833,461.855 251,441.5C 248.471,427.539 249.971,414.039 255.5,401C 246.898,396.699 237.898,393.532 228.5,391.5C 218.197,392.724 207.863,393.224 197.5,393C 182.147,389.146 173.647,379.313 172,363.5C 171.333,358.833 171.333,354.167 172,349.5C 172.036,347.059 172.869,345.059 174.5,343.5C 175.086,343.709 175.586,344.043 176,344.5C 175.529,355.347 177.529,365.681 182,375.5C 187.543,382.974 195.043,386.974 204.5,387.5C 232.498,383.446 257.164,390.613 278.5,409C 291.714,416.182 305.714,421.182 320.5,424C 344.953,424.754 369.453,425.587 394,426.5C 413.476,426.449 432.642,423.949 451.5,419C 468.5,410 485.5,401 502.5,392C 517.586,386.527 532.92,381.86 548.5,378C 556.5,377.333 564.5,377.333 572.5,378C 579.063,379.986 585.73,380.986 592.5,381C 596.749,378.806 601.082,376.806 605.5,375C 606.872,373.758 607.872,372.258 608.5,370.5C 607.098,366.461 605.598,362.461 604,358.5C 599.684,355.934 595.517,353.267 591.5,350.5 Z"/></g>
<g><path style="opacity:0.408" fill="#9b9b93" d="M 590.5,347.5 C 590.557,348.609 590.89,349.609 591.5,350.5C 589.448,349.947 589.115,348.947 590.5,347.5 Z"/></g>
<g><path style="opacity:1" fill="#f3f2e5" d="M 523.5,390.5 C 524.649,390.791 525.316,391.624 525.5,393C 523.612,406.547 521.446,420.047 519,433.5C 511.787,450.924 503.787,467.924 495,484.5C 495.151,468.559 493.151,452.892 489,437.5C 485.392,429.112 480.892,421.278 475.5,414C 481.968,408.926 488.968,404.593 496.5,401C 505.492,397.175 514.492,393.675 523.5,390.5 Z"/></g>
<g><path style="opacity:1" fill="#f3f2e5" d="M 259.5,403.5 C 270.581,412.379 282.915,419.212 296.5,424C 280.894,441.812 273.394,462.645 274,486.5C 266.227,471.515 260.227,455.848 256,439.5C 254.469,427.135 255.636,415.135 259.5,403.5 Z"/></g>
<g><path style="opacity:0.751" fill="#e9e8dc" d="M 300.5,426.5 C 300.046,432.284 297.046,435.951 291.5,437.5C 293.372,432.957 296.372,429.29 300.5,426.5 Z"/></g>
<g><path style="opacity:0.796" fill="#62625d" d="M 279.5,496.5 C 280.404,497.209 280.737,498.209 280.5,499.5C 278.265,499.795 276.265,499.461 274.5,498.5C 276.781,498.923 278.448,498.256 279.5,496.5 Z"/></g>

        
<g><path style="opacity:0.995" fill="#1c1c1b" d="M 307.5,214.5 C 308.002,216.085 309.002,216.585 310.5,216C 309.934,215.005 309.267,214.172 308.5,213.5C 299.902,191.41 300.736,169.743 311,148.5C 322.522,132.273 327.855,133.94 327,153.5C 327.714,156.595 328.714,159.595 330,162.5C 335.333,171.167 340.667,179.833 346,188.5C 341.215,161.413 349.049,138.913 369.5,121C 370.793,120.51 372.127,120.343 373.5,120.5C 374.829,127.793 375.995,135.127 377,142.5C 380.222,149.499 382.222,156.833 383,164.5C 385.41,170.318 388.077,175.985 391,181.5C 397.794,189.963 404.961,198.13 412.5,206C 415.772,207.608 418.772,209.608 421.5,212C 431.547,215.509 441.88,217.842 452.5,219C 453.846,221.794 453.346,224.294 451,226.5C 428.926,226.652 407.76,231.152 387.5,240C 377.184,246.129 370.351,254.962 367,266.5C 358.544,273.768 348.71,277.934 337.5,279C 289.856,282.691 268.69,260.858 274,213.5C 276.226,202.052 280.393,191.385 286.5,181.5C 287.651,180.269 288.817,180.269 290,181.5C 292.172,194.514 298.005,205.514 307.5,214.5 Z"/></g>
<g><path style="opacity:1" fill="#dcdbce" d="M 371.5,145.5 C 370.883,145.611 370.383,145.944 370,146.5C 369.751,145.376 369.251,144.376 368.5,143.5C 363.262,150.262 360.095,157.929 359,166.5C 358.389,179.845 358.556,193.178 359.5,206.5C 352.856,206.243 346.523,204.743 340.5,202C 332.86,191.218 325.86,180.051 319.5,168.5C 315.654,173.496 314.488,179.162 316,185.5C 318.255,198.521 321.755,211.188 326.5,223.5C 325.696,225.136 324.696,226.636 323.5,228C 318.833,228.667 314.167,228.667 309.5,228C 302.456,224.596 295.456,221.096 288.5,217.5C 287.122,224.294 287.622,230.96 290,237.5C 293.412,244.658 297.078,251.658 301,258.5C 305.31,262.645 309.477,266.978 313.5,271.5C 318.11,272.493 322.777,273.16 327.5,273.5C 301.094,275.527 284.927,263.527 279,237.5C 276.762,221.795 279.596,207.129 287.5,193.5C 291.671,203.845 298.004,212.678 306.5,220C 310.275,222.351 313.608,221.851 316.5,218.5C 313.264,213.631 311.097,208.297 310,202.5C 307.722,190.183 307.388,177.85 309,165.5C 311.037,157.755 314.87,151.088 320.5,145.5C 322.091,155.767 325.591,165.434 331,174.5C 335.454,179.628 339.121,185.295 342,191.5C 344.247,194.509 346.581,194.842 349,192.5C 349.899,181.514 350.566,170.514 351,159.5C 353.401,147.369 359.401,137.369 369,129.5C 370.234,134.767 371.067,140.1 371.5,145.5 Z"/></g>
<g><path style="opacity:1" fill="#f5f4e7" d="M 371.5,145.5 C 374.821,152.817 376.987,160.484 378,168.5C 380,173.167 382,177.833 384,182.5C 389.814,188.802 395.147,195.468 400,202.5C 410.041,214.534 422.875,221.367 438.5,223C 418.956,223.801 400.623,228.801 383.5,238C 379.033,241.465 374.867,245.298 371,249.5C 370.055,245.886 369.388,242.219 369,238.5C 368.311,237.643 367.478,236.977 366.5,236.5C 365.669,243.476 365.169,250.476 365,257.5C 364.3,261.066 362.467,263.9 359.5,266C 349.492,271.336 338.825,273.836 327.5,273.5C 322.777,273.16 318.11,272.493 313.5,271.5C 309.477,266.978 305.31,262.645 301,258.5C 297.078,251.658 293.412,244.658 290,237.5C 287.622,230.96 287.122,224.294 288.5,217.5C 295.456,221.096 302.456,224.596 309.5,228C 314.167,228.667 318.833,228.667 323.5,228C 324.696,226.636 325.696,225.136 326.5,223.5C 321.755,211.188 318.255,198.521 316,185.5C 314.488,179.162 315.654,173.496 319.5,168.5C 325.86,180.051 332.86,191.218 340.5,202C 346.523,204.743 352.856,206.243 359.5,206.5C 358.556,193.178 358.389,179.845 359,166.5C 360.095,157.929 363.262,150.262 368.5,143.5C 369.251,144.376 369.751,145.376 370,146.5C 370.383,145.944 370.883,145.611 371.5,145.5 Z"/></g>
<g><path style="opacity:1" fill="#84847d" d="M 308.5,213.5 C 309.267,214.172 309.934,215.005 310.5,216C 309.002,216.585 308.002,216.085 307.5,214.5C 308.167,214.5 308.5,214.167 308.5,213.5 Z"/></g>

    </svg>
