
    <svg width="862" height="862" viewBox="0 0 862 862" fill="none" xmlns="http://www.w3.org/2000/svg">
        
<g><path style="opacity:1" fill="#f6f6e8" d="M -0.5,-0.5 C 286.833,-0.5 574.167,-0.5 861.5,-0.5C 861.5,286.833 861.5,574.167 861.5,861.5C 574.167,861.5 286.833,861.5 -0.5,861.5C -0.5,574.167 -0.5,286.833 -0.5,-0.5 Z"/></g>

        
        
<g><path style="opacity:0.995" fill="#0f0200" d="M 585.5,142.5 C 618.064,141.521 648.731,148.688 677.5,164C 686.447,169.947 695.114,176.28 703.5,183C 714.043,196.673 717.876,211.839 715,228.5C 713.465,233.604 711.632,238.604 709.5,243.5C 702.685,251.482 695.685,259.316 688.5,267C 694.886,266.122 701.386,265.622 708,265.5C 730.255,265.765 739.422,276.931 735.5,299C 732.443,310.782 726.776,321.115 718.5,330C 703.713,339.671 700.213,336.838 708,321.5C 708.533,312.097 705.7,303.93 699.5,297C 693.141,295.462 686.808,295.795 680.5,298C 669.05,303.483 657.05,307.15 644.5,309C 631.183,311.395 618.849,309.062 607.5,302C 599.758,295.533 598.258,288.033 603,279.5C 607.229,269.604 614.396,262.771 624.5,259C 636.122,256.679 647.122,252.679 657.5,247C 667.385,239.172 670.052,229.339 665.5,217.5C 660.121,218.006 654.787,218.839 649.5,220C 628.159,228.35 609.159,240.35 592.5,256C 588,260.5 583.5,265 579,269.5C 573.788,285.037 563.288,290.537 547.5,286C 525.22,283.693 504.886,276.359 486.5,264C 473.295,251.722 467.128,236.555 468,218.5C 469.427,213.878 471.427,209.545 474,205.5C 488.146,191.361 503.313,178.527 519.5,167C 529.711,161.728 540.044,156.728 550.5,152C 562.08,148.024 573.746,144.858 585.5,142.5 Z"/></g>
<g><path style="opacity:1" fill="#5d1100" d="M 672.5,210.5 C 669.287,210.81 666.287,210.477 663.5,209.5C 660.834,206.98 658.668,203.98 657,200.5C 655.31,195.214 653.81,189.88 652.5,184.5C 650.976,185.527 650.309,187.027 650.5,189C 651.19,194.403 652.69,199.57 655,204.5C 656.055,207.056 657.888,208.723 660.5,209.5C 643.718,212.355 626.718,215.355 609.5,218.5C 605.499,213.661 601.666,208.661 598,203.5C 595.223,197.454 593.39,191.121 592.5,184.5C 591.914,184.709 591.414,185.043 591,185.5C 590.174,190.589 590.508,195.589 592,200.5C 595.603,207.257 599.77,213.591 604.5,219.5C 590.203,224.148 577.203,231.148 565.5,240.5C 560.738,239.249 556.905,236.582 554,232.5C 549.273,226.103 544.94,219.436 541,212.5C 540.626,210.102 540.626,207.769 541,205.5C 539.989,204.663 538.822,204.33 537.5,204.5C 537.023,209.742 537.856,214.742 540,219.5C 544.246,224.991 548.246,230.658 552,236.5C 554.752,239.453 557.918,241.786 561.5,243.5C 553.678,249.923 546.011,256.59 538.5,263.5C 536.054,268.486 532.721,272.486 528.5,275.5C 511.724,272.529 497.224,265.196 485,253.5C 476.493,242.643 472.826,230.309 474,216.5C 478.709,208.785 484.542,201.951 491.5,196C 501.962,186.938 512.962,178.605 524.5,171C 539.404,162.712 555.071,156.379 571.5,152C 588.097,147.814 604.764,147.481 621.5,151C 652.099,156.383 678.599,169.55 701,190.5C 708.819,201.577 711.819,213.91 710,227.5C 705.468,222.633 700.634,218.133 695.5,214C 688.093,211.133 680.426,209.966 672.5,210.5 Z"/></g>
<g><path style="opacity:0.995" fill="#0f0200" d="M 174.5,164.5 C 224.809,164.566 263.976,185.233 292,226.5C 294.158,234.271 293.825,241.938 291,249.5C 286.623,263.427 279.789,275.927 270.5,287C 262.225,293.056 253.392,298.223 244,302.5C 236.894,304.964 229.728,305.13 222.5,303C 221.308,301.055 221.308,299.055 222.5,297C 218.747,289.407 215.58,281.573 213,273.5C 203.563,260.398 193.063,248.231 181.5,237C 167.625,227.703 152.625,220.703 136.5,216C 132.833,215.333 129.167,215.333 125.5,216C 122.528,217.141 120.861,219.308 120.5,222.5C 122.316,224.817 124.316,226.984 126.5,229C 134.833,232.667 143.167,236.333 151.5,240C 161.408,247.205 171.575,254.038 182,260.5C 188.153,269.822 187.986,278.989 181.5,288C 171.767,294.339 161.434,295.339 150.5,291C 143.153,288.657 135.819,286.323 128.5,284C 117.047,281.545 110.047,285.878 107.5,297C 108.614,304.497 110.614,311.663 113.5,318.5C 100.871,317.267 89.704,312.6 80,304.5C 77.9376,302.099 76.2709,299.433 75,296.5C 74.1041,288.754 74.4375,281.087 76,273.5C 80.018,265.44 85.8514,259.107 93.5,254.5C 80.7205,242.664 77.5539,228.664 84,212.5C 93.8725,199.627 105.373,188.46 118.5,179C 136.158,169.753 154.825,164.92 174.5,164.5 Z"/></g>
<g><path style="opacity:1" fill="#5d1100" d="M 280.5,260.5 C 270.741,263.606 260.741,265.106 250.5,265C 245.566,260.574 241.233,255.74 237.5,250.5C 241.461,244.244 244.627,237.577 247,230.5C 247.5,223.508 247.666,216.508 247.5,209.5C 245.876,209.36 244.71,210.027 244,211.5C 245.234,224.956 241.734,236.956 233.5,247.5C 227.279,242.464 220.612,237.964 213.5,234C 205.124,230.403 197.458,225.903 190.5,220.5C 192.154,212.059 193.488,203.559 194.5,195C 194.333,193.167 194.167,191.333 194,189.5C 192.667,188.167 191.333,188.167 190,189.5C 190.117,199.792 188.617,209.792 185.5,219.5C 173.915,215.372 162.582,210.705 151.5,205.5C 151.665,202.482 151.498,199.482 151,196.5C 149.959,194.689 148.793,194.355 147.5,195.5C 146.681,198.305 146.181,201.305 146,204.5C 132.578,199.985 118.745,197.985 104.5,198.5C 110.013,192.824 116.013,187.658 122.5,183C 149.074,170.387 176.741,167.387 205.5,174C 227.92,177.712 247.587,187.045 264.5,202C 272.039,209.87 279.206,218.037 286,226.5C 287.555,231.382 287.888,236.382 287,241.5C 284.933,247.867 282.766,254.201 280.5,260.5 Z"/></g>
<g><path style="opacity:1" fill="#0a0100" d="M 663.5,209.5 C 662.5,209.5 661.5,209.5 660.5,209.5C 657.888,208.723 656.055,207.056 655,204.5C 652.69,199.57 651.19,194.403 650.5,189C 650.309,187.027 650.976,185.527 652.5,184.5C 653.81,189.88 655.31,195.214 657,200.5C 658.668,203.98 660.834,206.98 663.5,209.5 Z"/></g>
<g><path style="opacity:1" fill="#490400" d="M 147.5,195.5 C 147.791,201.303 147.125,206.97 145.5,212.5C 140.205,211.237 134.872,210.07 129.5,209C 117.446,208.397 105.446,208.397 93.5,209C 96.3773,204.622 100.044,201.122 104.5,198.5C 118.745,197.985 132.578,199.985 146,204.5C 146.181,201.305 146.681,198.305 147.5,195.5 Z"/></g>
<g><path style="opacity:1" fill="#090100" d="M 565.5,240.5 C 569.65,242.737 573.984,244.903 578.5,247C 580.559,248.185 580.726,249.352 579,250.5C 573.018,248.453 567.185,246.119 561.5,243.5C 557.918,241.786 554.752,239.453 552,236.5C 548.246,230.658 544.246,224.991 540,219.5C 537.856,214.742 537.023,209.742 537.5,204.5C 538.822,204.33 539.989,204.663 541,205.5C 540.626,207.769 540.626,210.102 541,212.5C 544.94,219.436 549.273,226.103 554,232.5C 556.905,236.582 560.738,239.249 565.5,240.5 Z"/></g>
<g><path style="opacity:1" fill="#490500" d="M 151.5,205.5 C 162.582,210.705 173.915,215.372 185.5,219.5C 185.047,225.124 182.047,227.624 176.5,227C 168.001,221.777 159.001,217.61 149.5,214.5C 149.167,214.167 148.833,213.833 148.5,213.5C 149.516,210.718 150.516,208.051 151.5,205.5 Z"/></g>
<g><path style="opacity:1" fill="#490600" d="M 660.5,209.5 C 661.5,209.5 662.5,209.5 663.5,209.5C 666.287,210.477 669.287,210.81 672.5,210.5C 654.216,211.928 637.216,217.595 621.5,227.5C 616.892,225.213 612.892,222.213 609.5,218.5C 626.718,215.355 643.718,212.355 660.5,209.5 Z"/></g>
<g><path style="opacity:1" fill="#490400" d="M 117.5,251.5 C 118.239,251.631 118.906,251.464 119.5,251C 115.12,246.952 110.454,243.285 105.5,240C 97.7488,232.652 95.4155,223.819 98.5,213.5C 105.443,212.206 112.443,212.206 119.5,213.5C 113.927,219.777 114.26,225.61 120.5,231C 129.739,236.452 139.405,241.119 149.5,245C 154.738,249.203 160.238,253.036 166,256.5C 167.033,259.217 166.2,261.051 163.5,262C 159.5,262.667 155.5,262.667 151.5,262C 140.336,257.554 129.003,254.054 117.5,251.5 Z"/></g>
<g><path style="opacity:1" fill="#5b1000" d="M 98.5,213.5 C 95.4155,223.819 97.7488,232.652 105.5,240C 110.454,243.285 115.12,246.952 119.5,251C 118.906,251.464 118.239,251.631 117.5,251.5C 111.771,251.212 106.104,251.546 100.5,252.5C 86.9384,243.088 82.9384,230.755 88.5,215.5C 91.757,214.449 95.0903,213.782 98.5,213.5 Z"/></g>
<g><path style="opacity:1" fill="#490400" d="M 695.5,221.5 C 695.887,226.08 695.053,230.414 693,234.5C 689.667,239.833 686.333,245.167 683,250.5C 673.558,259.121 663.725,267.121 653.5,274.5C 646.878,277.284 640.211,277.117 633.5,274C 630.277,270.888 629.777,267.388 632,263.5C 643.993,260.67 654.993,255.67 665,248.5C 672.653,239.202 674.487,228.868 670.5,217.5C 676.845,216.389 683.178,216.555 689.5,218C 691.727,218.941 693.727,220.108 695.5,221.5 Z"/></g>
<g><path style="opacity:1" fill="#490400" d="M 604.5,219.5 C 607.944,223.061 611.944,225.894 616.5,228C 617.451,228.718 617.617,229.551 617,230.5C 602.887,240.075 589.887,251.075 578,263.5C 574.501,267.672 571.834,272.338 570,277.5C 568.5,279 567,280.5 565.5,282C 552.87,281.118 540.537,278.951 528.5,275.5C 532.721,272.486 536.054,268.486 538.5,263.5C 546.011,256.59 553.678,249.923 561.5,243.5C 567.185,246.119 573.018,248.453 579,250.5C 580.726,249.352 580.559,248.185 578.5,247C 573.984,244.903 569.65,242.737 565.5,240.5C 577.203,231.148 590.203,224.148 604.5,219.5 Z"/></g>
<g><path style="opacity:1" fill="#490400" d="M 190.5,220.5 C 197.458,225.903 205.124,230.403 213.5,234C 220.612,237.964 227.279,242.464 233.5,247.5C 229.227,257.713 221.727,262.046 211,260.5C 203.413,249.577 194.413,239.91 184,231.5C 183.333,230.833 183.333,230.167 184,229.5C 186.678,226.786 188.845,223.786 190.5,220.5 Z"/></g>
<g><path style="opacity:1" fill="#5c1000" d="M 695.5,221.5 C 698.771,224.268 701.938,227.268 705,230.5C 706.242,235.694 705.242,240.36 702,244.5C 695.538,253.296 688.038,261.129 679.5,268C 671.005,270.866 662.338,273.032 653.5,274.5C 663.725,267.121 673.558,259.121 683,250.5C 686.333,245.167 689.667,239.833 693,234.5C 695.053,230.414 695.887,226.08 695.5,221.5 Z"/></g>
<g><path style="opacity:1" fill="#490400" d="M 237.5,250.5 C 241.233,255.74 245.566,260.574 250.5,265C 260.741,265.106 270.741,263.606 280.5,260.5C 277.146,269.373 272.146,277.207 265.5,284C 258.833,288 252.167,292 245.5,296C 240.09,298.382 234.424,299.549 228.5,299.5C 228.322,296.784 227.822,294.117 227,291.5C 223.518,285.533 220.851,279.199 219,272.5C 217.224,269.059 215.057,265.892 212.5,263C 214.746,263.428 217.079,263.928 219.5,264.5C 221.577,264.308 223.577,263.808 225.5,263C 230.405,259.597 234.405,255.43 237.5,250.5 Z"/></g>
<g><path style="opacity:1" fill="#5c1100" d="M 179.5,268.5 C 179.489,270.017 178.823,271.184 177.5,272C 173.781,273.859 170.114,275.693 166.5,277.5C 156.592,275.024 146.592,272.857 136.5,271C 119.522,267.542 106.022,272.708 96,286.5C 95.3333,288.5 94.6667,290.5 94,292.5C 93.8959,297.267 93.7293,301.934 93.5,306.5C 80.0563,300.938 75.8896,291.271 81,277.5C 83.3581,281.358 86.5248,284.358 90.5,286.5C 91.5827,285.635 91.7494,284.635 91,283.5C 86.2568,280.341 83.9235,276.008 84,270.5C 87.8837,264.641 93.0504,260.308 99.5,257.5C 100.333,260.5 101.167,263.5 102,266.5C 103.94,269.402 106.44,270.402 109.5,269.5C 105.328,266.152 103.661,261.819 104.5,256.5C 120.16,257.132 135.16,260.632 149.5,267C 158.355,268.992 166.189,267.159 173,261.5C 176.4,262.732 178.567,265.065 179.5,268.5 Z"/></g>
<g><path style="opacity:1" fill="#5c1100" d="M 680.5,284.5 C 669.936,285.448 659.603,287.614 649.5,291C 638.485,291.832 627.485,291.666 616.5,290.5C 613.719,287.48 611.052,284.48 608.5,281.5C 611.821,273.346 617.655,267.68 626,264.5C 625.725,271.785 628.892,276.952 635.5,280C 640.799,281.145 646.132,281.478 651.5,281C 662.44,278.4 673.44,276.233 684.5,274.5C 683.724,278.052 682.391,281.386 680.5,284.5 Z"/></g>
<g><path style="opacity:1" fill="#490500" d="M 179.5,268.5 C 182.568,274.585 181.568,280.085 176.5,285C 168.662,287.967 160.662,288.3 152.5,286C 146.618,284.595 140.951,282.595 135.5,280C 124.344,275.219 114.511,277.052 106,285.5C 101.459,294.04 101.625,302.54 106.5,311C 101.714,310.794 97.381,309.294 93.5,306.5C 93.7293,301.934 93.8959,297.267 94,292.5C 94.6667,290.5 95.3333,288.5 96,286.5C 106.022,272.708 119.522,267.542 136.5,271C 146.592,272.857 156.592,275.024 166.5,277.5C 170.114,275.693 173.781,273.859 177.5,272C 178.823,271.184 179.489,270.017 179.5,268.5 Z"/></g>
<g><path style="opacity:1" fill="#5c1100" d="M 717.5,322.5 C 716.535,321.279 716.702,319.946 718,318.5C 720.615,304.06 715.449,293.56 702.5,287C 696.746,285.602 691.079,284.435 685.5,283.5C 687.023,280.37 687.689,277.037 687.5,273.5C 697.414,271.623 707.414,271.123 717.5,272C 721.046,273.267 724.046,275.267 726.5,278C 725.591,279.789 725.424,281.623 726,283.5C 728.071,280.584 729.405,280.918 730,284.5C 730.923,298.896 726.757,311.562 717.5,322.5 Z"/></g>
<g><path style="opacity:1" fill="#490500" d="M 608.5,281.5 C 611.052,284.48 613.719,287.48 616.5,290.5C 627.485,291.666 638.485,291.832 649.5,291C 659.603,287.614 669.936,285.448 680.5,284.5C 680.735,285.097 681.235,285.43 682,285.5C 683.303,285.022 684.469,284.355 685.5,283.5C 691.079,284.435 696.746,285.602 702.5,287C 715.449,293.56 720.615,304.06 718,318.5C 716.702,319.946 716.535,321.279 717.5,322.5C 715.839,325.218 713.839,326.884 711.5,327.5C 714.585,317.069 713.419,307.069 708,297.5C 706.833,295 705,293.167 702.5,292C 696.903,290.544 691.237,290.211 685.5,291C 673.526,294.648 661.526,298.315 649.5,302C 640.875,303.419 632.208,303.752 623.5,303C 617.002,301.503 611.502,298.337 607,293.5C 604.936,289.116 605.436,285.116 608.5,281.5 Z"/></g>

        
<g><path style="opacity:0.998" fill="#191919" d="M 567.5,264.5 C 567.427,266.027 568.094,267.027 569.5,267.5C 572.889,269.725 575.389,272.725 577,276.5C 579.793,283.332 582.126,290.332 584,297.5C 600.968,293.905 616.801,296.738 631.5,306C 655.874,322.039 676.708,341.873 694,365.5C 699.911,374.23 704.077,383.73 706.5,394C 702.842,398.302 698.175,400.969 692.5,402C 684.965,403.55 677.465,403.716 670,402.5C 671.622,406.676 673.289,411.01 675,415.5C 676.619,423.927 678.619,432.26 681,440.5C 682.454,454.02 679.787,466.687 673,478.5C 663.749,491.086 652.582,501.586 639.5,510C 630.893,513.302 622.893,517.635 615.5,523C 597.029,529.157 579.029,536.491 561.5,545C 545.683,550.606 529.683,555.606 513.5,560C 521.167,567 528.833,574 536.5,581C 541.889,585.389 547.556,589.389 553.5,593C 559.667,598.5 565.833,604 572,609.5C 578.423,618.674 584.09,628.34 589,638.5C 598.788,663.109 604.621,688.609 606.5,715C 605.825,731.869 601.492,747.703 593.5,762.5C 592.711,762.783 592.044,763.283 591.5,764C 593.134,764.494 594.801,764.66 596.5,764.5C 603.201,764.682 609.201,766.849 614.5,771C 619.719,777.218 624.552,783.718 629,790.5C 633.064,794.786 637.897,797.952 643.5,800C 646.319,802.72 645.986,805.053 642.5,807C 635.644,812.007 627.978,814.507 619.5,814.5C 615.167,814.5 610.833,814.5 606.5,814.5C 606.263,815.791 606.596,816.791 607.5,817.5C 609.143,819.708 608.81,821.541 606.5,823C 599.093,824.492 591.593,825.325 584,825.5C 570.833,824.357 557.666,823.19 544.5,822C 528.753,817.882 515.253,810.049 504,798.5C 495.911,789.336 489.577,779.003 485,767.5C 473.056,772.575 460.556,774.908 447.5,774.5C 441.513,773.858 435.513,773.358 429.5,773C 427,772.625 424.667,771.792 422.5,770.5C 418.78,774.733 415.613,779.4 413,784.5C 396.732,800.487 377.065,808.487 354,808.5C 349.103,808.068 344.269,807.234 339.5,806C 337.709,805.585 336.376,804.585 335.5,803C 338.138,800.346 341.138,798.18 344.5,796.5C 345.973,795.928 347.307,795.095 348.5,794C 346.609,793.797 344.943,794.297 343.5,795.5C 334.515,796.911 325.515,796.744 316.5,795C 304.562,791.925 299.562,784.425 301.5,772.5C 312.272,769.781 321.939,764.947 330.5,758C 319.87,750.041 313.37,739.541 311,726.5C 307.602,710.123 307.769,693.789 311.5,677.5C 312.793,675.636 312.793,673.636 311.5,671.5C 310.893,671.624 310.56,671.957 310.5,672.5C 309.013,673.804 307.346,674.97 305.5,676C 298.059,677.01 291.059,675.843 284.5,672.5C 275.52,664.574 271.187,654.574 271.5,642.5C 272.908,618.525 282.242,598.358 299.5,582C 310.392,573.408 322.392,571.241 335.5,575.5C 336.947,576.885 337.947,576.552 338.5,574.5C 338.433,573.041 338.766,571.708 339.5,570.5C 340.757,569.377 340.424,568.711 338.5,568.5C 326.038,567.642 313.704,565.808 301.5,563C 279.858,557.675 258.525,551.341 237.5,544C 217.724,535.619 199.39,524.952 182.5,512C 179.629,509.297 176.962,506.464 174.5,503.5C 174.027,502.094 173.027,501.427 171.5,501.5C 155.808,488.291 146.475,471.458 143.5,451C 144.485,443.505 144.985,436.005 145,428.5C 139.772,431.396 134.272,432.062 128.5,430.5C 127.063,426.472 126.397,422.305 126.5,418C 128.512,388.142 139.012,361.642 158,338.5C 167.466,327.852 178.966,320.352 192.5,316C 198.537,315.303 204.537,315.47 210.5,316.5C 212.5,305.171 217.167,295.171 224.5,286.5C 225.906,286.027 226.573,285.027 226.5,283.5C 226.992,281.181 227.992,279.181 229.5,277.5C 230.906,277.027 231.573,276.027 231.5,274.5C 242.367,259.469 255.701,246.969 271.5,237C 349.867,210.135 429.201,206.801 509.5,227C 517.288,230.394 524.955,234.061 532.5,238C 541.167,244.671 550.501,250.338 560.5,255C 562.476,258.463 564.81,261.63 567.5,264.5 Z"/></g>
<g><path style="opacity:1" fill="#747474" d="M 689.5,370.5 C 690.902,387.925 682.902,395.091 665.5,392C 658.055,389.299 650.722,386.633 643.5,384C 649.312,386.856 653.645,391.023 656.5,396.5C 659.649,400.095 662.816,403.762 666,407.5C 667.549,410.312 668.382,413.312 668.5,416.5C 666.96,427.329 664.46,437.996 661,448.5C 656.587,456.995 651.92,465.328 647,473.5C 624.616,496.285 598.45,513.452 568.5,525C 533.438,537.135 497.772,546.802 461.5,554C 448.218,555.752 434.884,556.918 421.5,557.5C 403.85,557.023 386.183,556.857 368.5,557C 353.786,555.321 339.12,553.321 324.5,551C 294.298,542.821 264.631,532.821 235.5,521C 216.909,512.707 199.575,502.374 183.5,490C 172.265,480.999 162.765,470.499 155,458.5C 152.079,451.45 150.912,444.117 151.5,436.5C 153.812,428.669 154.979,420.669 155,412.5C 154.329,413.252 153.496,413.586 152.5,413.5C 148.453,418.44 143.286,421.44 137,422.5C 134.013,422.01 132.18,420.343 131.5,417.5C 132.785,407.793 134.285,398.126 136,388.5C 140.527,379.252 144.86,369.918 149,360.5C 159.166,341.997 173.999,328.83 193.5,321C 200.196,320.559 206.863,320.559 213.5,321C 215.227,316.265 216.727,311.432 218,306.5C 223.919,296.998 229.586,287.331 235,277.5C 247.29,262.212 261.79,249.379 278.5,239C 321.88,226.104 366.213,219.27 411.5,218.5C 429.758,220.539 448.091,222.373 466.5,224C 487.579,226.012 507.579,231.679 526.5,241C 536.332,248.086 546.666,254.419 557.5,260C 569.285,271.403 576.452,285.237 579,301.5C 581.39,308.619 585.057,314.953 590,320.5C 590.167,320.167 590.333,319.833 590.5,319.5C 588.2,313.909 586.2,308.242 584.5,302.5C 599.35,299.458 613.35,301.625 626.5,309C 634.778,314.278 642.778,319.945 650.5,326C 659.333,334.833 668.167,343.667 677,352.5C 681.433,358.384 685.599,364.384 689.5,370.5 Z"/></g>
<g><path style="opacity:0.725" fill="#7d7d7d" d="M 567.5,264.5 C 568.906,264.973 569.573,265.973 569.5,267.5C 568.094,267.027 567.427,266.027 567.5,264.5 Z"/></g>
<g><path style="opacity:0.486" fill="#7e7e7e" d="M 231.5,274.5 C 231.573,276.027 230.906,277.027 229.5,277.5C 229.427,275.973 230.094,274.973 231.5,274.5 Z"/></g>
<g><path style="opacity:0.486" fill="#7e7e7e" d="M 226.5,283.5 C 226.573,285.027 225.906,286.027 224.5,286.5C 224.427,284.973 225.094,283.973 226.5,283.5 Z"/></g>
<g><path style="opacity:1" fill="#060606" d="M 618.5,337.5 C 624.258,343.084 630.258,348.584 636.5,354C 648.598,361.716 661.264,368.383 674.5,374C 676.954,375.74 678.454,377.907 679,380.5C 677.612,381.554 676.112,381.72 674.5,381C 655.168,371.421 637.668,359.255 622,344.5C 620.121,342.473 618.954,340.14 618.5,337.5 Z"/></g>
<g><path style="opacity:1" fill="#5a5a5a" d="M 689.5,370.5 C 694.856,377.048 698.523,384.548 700.5,393C 698.652,395.093 696.319,396.426 693.5,397C 680.712,399.885 668.379,398.718 656.5,393.5C 656.5,394.5 656.5,395.5 656.5,396.5C 653.645,391.023 649.312,386.856 643.5,384C 650.722,386.633 658.055,389.299 665.5,392C 682.902,395.091 690.902,387.925 689.5,370.5 Z"/></g>
<g><path style="opacity:1" fill="#060606" d="M 147.5,382.5 C 148.947,383.134 149.613,384.301 149.5,386C 148.279,393.491 147.113,400.991 146,408.5C 144.374,411.128 142.374,413.461 140,415.5C 141.411,404.282 143.911,393.282 147.5,382.5 Z"/></g>
<g><path style="opacity:1" fill="#595959" d="M 152.5,413.5 C 149.619,421.965 143.619,426.631 134.5,427.5C 133.201,426.91 132.368,425.91 132,424.5C 131.503,422.19 131.337,419.857 131.5,417.5C 132.18,420.343 134.013,422.01 137,422.5C 143.286,421.44 148.453,418.44 152.5,413.5 Z"/></g>
<g><path style="opacity:1" fill="#5a5a5a" d="M 668.5,416.5 C 669.117,416.611 669.617,416.944 670,417.5C 672.171,427.514 674.337,437.514 676.5,447.5C 675.668,459.82 671.501,470.82 664,480.5C 656.058,489.448 647.225,497.281 637.5,504C 628.893,507.302 620.893,511.635 613.5,517C 594.377,523.561 575.711,531.228 557.5,540C 533.486,548.228 509.153,555.228 484.5,561C 466.207,563.412 447.874,565.412 429.5,567C 419.833,567.667 410.167,567.667 400.5,567C 376.857,565.241 353.19,563.908 329.5,563C 288.931,556.527 250.265,544.193 213.5,526C 192.263,514.431 174.43,498.931 160,479.5C 150.917,466.205 148.084,451.872 151.5,436.5C 150.912,444.117 152.079,451.45 155,458.5C 162.765,470.499 172.265,480.999 183.5,490C 199.575,502.374 216.909,512.707 235.5,521C 264.631,532.821 294.298,542.821 324.5,551C 339.12,553.321 353.786,555.321 368.5,557C 386.183,556.857 403.85,557.023 421.5,557.5C 434.884,556.918 448.218,555.752 461.5,554C 497.772,546.802 533.438,537.135 568.5,525C 598.45,513.452 624.616,496.285 647,473.5C 651.92,465.328 656.587,456.995 661,448.5C 664.46,437.996 666.96,427.329 668.5,416.5 Z"/></g>
<g><path style="opacity:0.718" fill="#7f7f7f" d="M 171.5,501.5 C 173.027,501.427 174.027,502.094 174.5,503.5C 172.973,503.573 171.973,502.906 171.5,501.5 Z"/></g>
<g><path style="opacity:1" fill="#595959" d="M 478.5,672.5 C 479.316,674.144 480.65,675.31 482.5,676C 493.934,680.724 504.101,678.891 513,670.5C 512.484,676.348 510.651,681.848 507.5,687C 510.833,689 514.167,689 517.5,687C 531.421,676.687 539.921,662.853 543,645.5C 543.947,633.228 539.78,623.061 530.5,615C 523.496,610.163 516.163,605.829 508.5,602C 499.47,598.897 490.303,598.064 481,599.5C 477.485,607.683 477.985,615.683 482.5,623.5C 479.407,625.309 476.074,626.309 472.5,626.5C 473.018,625.423 473.352,624.256 473.5,623C 469.778,615.111 469.778,607.278 473.5,599.5C 473.167,598.5 472.5,597.833 471.5,597.5C 469.364,598.472 468.197,600.139 468,602.5C 467.081,608.966 467.581,615.299 469.5,621.5C 459.058,625.296 450.558,631.63 444,640.5C 430.5,618.167 417,595.833 403.5,573.5C 437.551,572.702 471.217,568.702 504.5,561.5C 506.299,561.577 507.966,562.077 509.5,563C 520.782,574.621 532.948,585.121 546,594.5C 546.265,596.163 545.765,597.663 544.5,599C 549.027,601.543 552.194,605.376 554,610.5C 565.425,638.292 560.925,663.126 540.5,685C 534.687,690.075 528.354,694.408 521.5,698C 505.398,705.566 492.565,702.066 483,687.5C 480.383,682.817 478.883,677.817 478.5,672.5 Z"/></g>
<g><path style="opacity:0.118" fill="#c4c4c4" d="M 338.5,568.5 C 340.424,568.711 340.757,569.377 339.5,570.5C 339.167,569.833 338.833,569.167 338.5,568.5 Z"/></g>
<g><path style="opacity:1" fill="#747474" d="M 341.5,626.5 C 340.957,626.56 340.624,626.893 340.5,627.5C 342.423,637.058 343.757,646.724 344.5,656.5C 344.406,658.923 343.906,661.256 343,663.5C 342.439,664.022 341.772,664.355 341,664.5C 335.989,662.745 331.156,660.578 326.5,658C 319.953,652.954 314.286,647.12 309.5,640.5C 307.682,644.136 305.849,647.802 304,651.5C 296.56,654.165 290.893,651.832 287,644.5C 283.432,623.869 288.766,605.869 303,590.5C 307.859,584.786 313.359,580.119 319.5,576.5C 327.483,576.346 334.483,578.679 340.5,583.5C 340.918,578.414 342.251,573.58 344.5,569C 348.256,568.625 351.922,569.125 355.5,570.5C 348.327,588.524 343.661,607.191 341.5,626.5 Z"/></g>
<g><path style="opacity:1" fill="#9a9a9a" d="M 360.5,674.5 C 365.636,683.259 371.636,691.426 378.5,699C 384.877,703.189 391.544,706.855 398.5,710C 417.397,716.636 424.897,710.136 421,690.5C 413.216,671.683 409.383,652.016 409.5,631.5C 398.985,626.788 387.985,624.121 376.5,623.5C 367.747,622.705 360.081,625.039 353.5,630.5C 350.807,627.803 348.473,624.803 346.5,621.5C 349.487,606.708 352.987,592.041 357,577.5C 357.93,575.064 359.097,572.731 360.5,570.5C 362.667,570.167 364.833,569.833 367,569.5C 377.186,570.567 387.352,571.567 397.5,572.5C 412.418,596.667 427.085,621.001 441.5,645.5C 436.166,659.522 436.333,673.522 442,687.5C 449.259,695.897 458.426,699.063 469.5,697C 472.798,696.513 475.798,695.347 478.5,693.5C 480.786,693.96 482.119,695.293 482.5,697.5C 479.307,719.149 479.973,740.649 484.5,762C 484.167,762.5 483.833,763 483.5,763.5C 454.121,772.925 425.787,770.425 398.5,756C 385.188,748.027 373.021,738.527 362,727.5C 358.333,721.833 354.667,716.167 351,710.5C 348.531,702.626 346.698,694.626 345.5,686.5C 348.84,684.43 352.174,682.263 355.5,680C 357.402,678.27 359.069,676.437 360.5,674.5 Z"/></g>
<g><path style="opacity:0.553" fill="#8f8f8f" d="M 338.5,574.5 C 337.947,576.552 336.947,576.885 335.5,575.5C 336.609,575.443 337.609,575.11 338.5,574.5 Z"/></g>
<g><path style="opacity:1" fill="#595959" d="M 319.5,576.5 C 313.359,580.119 307.859,584.786 303,590.5C 288.766,605.869 283.432,623.869 287,644.5C 290.893,651.832 296.56,654.165 304,651.5C 305.849,647.802 307.682,644.136 309.5,640.5C 314.286,647.12 319.953,652.954 326.5,658C 331.156,660.578 335.989,662.745 341,664.5C 341.772,664.355 342.439,664.022 343,663.5C 343.906,661.256 344.406,658.923 344.5,656.5C 343.757,646.724 342.423,637.058 340.5,627.5C 340.624,626.893 340.957,626.56 341.5,626.5C 351.199,635.23 356.699,646.23 358,659.5C 359.809,668.085 356.976,674.585 349.5,679C 336.467,684.992 325.3,682.492 316,671.5C 315.5,670 315,668.5 314.5,667C 316.52,664.379 316.853,661.545 315.5,658.5C 312.383,663.451 308.383,667.618 303.5,671C 299.152,671.238 294.819,670.905 290.5,670C 278.528,660.766 274.028,648.599 277,633.5C 280.837,610.292 292.337,592.125 311.5,579C 313.909,577.293 316.575,576.46 319.5,576.5 Z"/></g>
<g><path style="opacity:1" fill="#747474" d="M 478.5,672.5 C 478.817,669.428 478.484,666.428 477.5,663.5C 476.056,665.608 475.39,667.941 475.5,670.5C 473.625,679.348 467.958,684.015 458.5,684.5C 455.512,684.283 452.845,683.283 450.5,681.5C 447.814,678.097 445.147,674.764 442.5,671.5C 439.876,647.833 449.876,632.833 472.5,626.5C 476.074,626.309 479.407,625.309 482.5,623.5C 477.985,615.683 477.485,607.683 481,599.5C 490.303,598.064 499.47,598.897 508.5,602C 516.163,605.829 523.496,610.163 530.5,615C 539.78,623.061 543.947,633.228 543,645.5C 539.921,662.853 531.421,676.687 517.5,687C 514.167,689 510.833,689 507.5,687C 510.651,681.848 512.484,676.348 513,670.5C 504.101,678.891 493.934,680.724 482.5,676C 480.65,675.31 479.316,674.144 478.5,672.5 Z"/></g>
<g><path style="opacity:1" fill="#747474" d="M 598.5,698.5 C 598.426,725.588 589.092,748.755 570.5,768C 559.897,776.467 547.897,781.967 534.5,784.5C 517.611,781.445 507.444,771.445 504,754.5C 503.406,748.293 502.572,742.126 501.5,736C 501.833,734.167 502.167,732.333 502.5,730.5C 513.145,739.213 524.812,740.713 537.5,735C 550.384,725.714 559.218,713.548 564,698.5C 565.245,684.678 566.411,670.844 567.5,657C 567.12,651.981 566.454,647.148 565.5,642.5C 564.83,628.805 561.496,615.805 555.5,603.5C 556.002,602.479 556.668,602.312 557.5,603C 569.419,613.659 578.252,626.492 584,641.5C 591.615,659.836 596.448,678.836 598.5,698.5 Z"/></g>
<g><path style="opacity:1" fill="#b8b8b8" d="M 360.5,674.5 C 363.251,664.076 362.751,653.743 359,643.5C 357.154,639.145 355.321,634.812 353.5,630.5C 360.081,625.039 367.747,622.705 376.5,623.5C 387.985,624.121 398.985,626.788 409.5,631.5C 409.383,652.016 413.216,671.683 421,690.5C 424.897,710.136 417.397,716.636 398.5,710C 391.544,706.855 384.877,703.189 378.5,699C 371.636,691.426 365.636,683.259 360.5,674.5 Z"/></g>
<g><path style="opacity:1" fill="#595959" d="M 565.5,642.5 C 566.454,647.148 567.12,651.981 567.5,657C 566.411,670.844 565.245,684.678 564,698.5C 559.218,713.548 550.384,725.714 537.5,735C 524.812,740.713 513.145,739.213 502.5,730.5C 502.167,732.333 501.833,734.167 501.5,736C 502.572,742.126 503.406,748.293 504,754.5C 507.444,771.445 517.611,781.445 534.5,784.5C 547.897,781.967 559.897,776.467 570.5,768C 589.092,748.755 598.426,725.588 598.5,698.5C 602.933,721.449 598.766,742.782 586,762.5C 585.175,764.701 585.675,766.534 587.5,768C 598.604,767.364 607.771,771.197 615,779.5C 618.98,786.624 623.814,793.124 629.5,799C 632.661,800.413 635.661,802.08 638.5,804C 634.952,805.941 631.286,807.607 627.5,809C 619.193,809.999 610.86,810.832 602.5,811.5C 601.423,814.474 601.423,817.474 602.5,820.5C 584.783,820.736 567.116,819.903 549.5,818C 516.667,809.167 495.833,788.333 487,755.5C 483.667,736.833 483.667,718.167 487,699.5C 491.793,704.268 497.627,706.601 504.5,706.5C 525.326,704.005 541.492,694.005 553,676.5C 558.507,665.462 562.674,654.128 565.5,642.5 Z"/></g>
<g><path style="opacity:1" fill="#595959" d="M 475.5,670.5 C 475.435,676.617 475.935,682.617 477,688.5C 473.472,691.584 469.306,693.251 464.5,693.5C 449.477,693.811 442.144,686.477 442.5,671.5C 445.147,674.764 447.814,678.097 450.5,681.5C 452.845,683.283 455.512,684.283 458.5,684.5C 467.958,684.015 473.625,679.348 475.5,670.5 Z"/></g>
<g><path style="opacity:0.18" fill="#9e9e9e" d="M 310.5,672.5 C 310.56,671.957 310.893,671.624 311.5,671.5C 312.793,673.636 312.793,675.636 311.5,677.5C 311.784,675.585 311.451,673.919 310.5,672.5 Z"/></g>
<g><path style="opacity:1" fill="#595959" d="M 350.5,718.5 C 349.043,720.242 347.876,722.242 347,724.5C 338.32,720.657 330.654,715.324 324,708.5C 322.417,720.502 325.084,731.502 332,741.5C 338.772,748.117 345.939,754.117 353.5,759.5C 344.842,759.336 337.175,756.503 330.5,751C 328.037,747.535 325.204,744.369 322,741.5C 312.917,721.081 311.25,700.081 317,678.5C 323.898,685.032 332.065,687.698 341.5,686.5C 342.025,697.943 345.025,708.61 350.5,718.5 Z"/></g>
<g><path style="opacity:1" fill="#747474" d="M 350.5,718.5 C 353.904,722.965 357.071,727.631 360,732.5C 365.289,737.867 370.789,742.867 376.5,747.5C 379.148,754.295 382.482,760.795 386.5,767C 376.802,767.387 367.468,765.554 358.5,761.5C 356.95,760.559 355.284,759.893 353.5,759.5C 345.939,754.117 338.772,748.117 332,741.5C 325.084,731.502 322.417,720.502 324,708.5C 330.654,715.324 338.32,720.657 347,724.5C 347.876,722.242 349.043,720.242 350.5,718.5 Z"/></g>
<g><path style="opacity:1" fill="#595959" d="M 376.5,747.5 C 382.999,751.811 389.665,755.978 396.5,760C 402.274,763.222 408.274,765.888 414.5,768C 415.749,770.21 415.582,772.376 414,774.5C 406.476,785.682 396.31,793.515 383.5,798C 375.234,799.989 366.9,801.656 358.5,803C 353.761,803.726 349.095,803.393 344.5,802C 346.809,799.513 349.476,797.513 352.5,796C 356.633,790.866 361.133,786.032 366,781.5C 366.612,779.763 365.946,778.763 364,778.5C 362.019,779.65 360.186,780.984 358.5,782.5C 358.924,779.646 359.924,776.979 361.5,774.5C 352.07,771.913 342.737,768.913 333.5,765.5C 332.287,765.253 331.62,764.586 331.5,763.5C 332.479,761.855 333.812,760.521 335.5,759.5C 342.062,762.14 348.729,764.474 355.5,766.5C 356.442,766.392 357.275,766.059 358,765.5C 357.645,764.041 357.811,762.707 358.5,761.5C 367.468,765.554 376.802,767.387 386.5,767C 382.482,760.795 379.148,754.295 376.5,747.5 Z"/></g>
<g><path style="opacity:0.039" fill="#d3d3d3" d="M 593.5,762.5 C 594.5,763.167 595.5,763.833 596.5,764.5C 594.801,764.66 593.134,764.494 591.5,764C 592.044,763.283 592.711,762.783 593.5,762.5 Z"/></g>
<g><path style="opacity:1" fill="#747474" d="M 331.5,763.5 C 331.62,764.586 332.287,765.253 333.5,765.5C 342.737,768.913 352.07,771.913 361.5,774.5C 359.924,776.979 358.924,779.646 358.5,782.5C 346.952,790.089 334.285,792.589 320.5,790C 314.309,788.792 309.475,785.626 306,780.5C 305.219,779.056 305.386,777.723 306.5,776.5C 315.584,773.459 323.917,769.126 331.5,763.5 Z"/></g>
<g><path style="opacity:1" fill="#747474" d="M 577.5,780.5 C 592.957,777.906 605.623,782.573 615.5,794.5C 608.26,800.357 599.926,803.024 590.5,802.5C 590.911,805.553 591.577,808.553 592.5,811.5C 587.462,812.33 582.795,811.164 578.5,808C 571.727,803.194 565.227,798.028 559,792.5C 558.542,789.904 559.375,787.737 561.5,786C 566.846,783.83 572.179,781.997 577.5,780.5 Z"/></g>
<g><path style="opacity:0.165" fill="#adadad" d="M 344.5,796.5 C 344.5,795.833 344.167,795.5 343.5,795.5C 344.943,794.297 346.609,793.797 348.5,794C 347.307,795.095 345.973,795.928 344.5,796.5 Z"/></g>
<g><path style="opacity:0.282" fill="#acacac" d="M 619.5,814.5 C 615.232,814.869 611.232,815.869 607.5,817.5C 606.596,816.791 606.263,815.791 606.5,814.5C 610.833,814.5 615.167,814.5 619.5,814.5 Z"/></g>

        
<g><path style="opacity:0.957" fill="#020202" d="M 492.5,247.5 C 518.036,247.341 536.869,258.341 549,280.5C 553.515,288.881 557.348,297.548 560.5,306.5C 580.242,322.468 585.075,342.135 575,365.5C 572.44,370.116 569.273,374.282 565.5,378C 559.833,378.333 554.167,378.667 548.5,379C 532.92,382.86 517.586,387.527 502.5,393C 487.559,400.719 472.726,408.553 458,416.5C 454.948,415.289 451.781,414.455 448.5,414C 441.357,407.927 433.69,402.594 425.5,398C 420.197,391.208 415.031,384.375 410,377.5C 408.789,383.132 406.789,388.466 404,393.5C 397.729,399.968 390.562,401.135 382.5,397C 378.252,394.757 374.586,391.757 371.5,388C 368.577,386.29 365.577,386.123 362.5,387.5C 357.09,397.358 349.09,400.191 338.5,396C 336.04,394.542 333.873,392.709 332,390.5C 329.522,382.254 327.522,373.921 326,365.5C 320.148,383.041 311.315,398.874 299.5,413C 296.163,415.671 292.496,417.837 288.5,419.5C 285.681,417.718 283.681,415.218 282.5,412C 275.993,407.914 269.66,403.58 263.5,399C 245.723,388.644 226.723,384.977 206.5,388C 204.615,385.061 203.115,381.895 202,378.5C 199.281,359.042 203.615,341.375 215,325.5C 215.811,303.71 224.644,286.21 241.5,273C 247.839,268.496 254.839,265.662 262.5,264.5C 266.961,265.153 271.294,266.32 275.5,268C 295.875,282.044 310.709,300.544 320,323.5C 324.116,333.515 327.616,343.682 330.5,354C 348.492,364.612 367.492,367.279 387.5,362C 391.821,361.501 396.154,361.334 400.5,361.5C 397.258,348.95 396.758,336.284 399,323.5C 401.262,314.712 403.929,306.046 407,297.5C 410.946,291.221 415.279,285.221 420,279.5C 440.443,260.191 464.61,249.524 492.5,247.5 Z"/></g>
<g><path style="opacity:1" fill="#1b1b1b" d="M 491.5,251.5 C 512.865,250.933 529.698,259.266 542,276.5C 546.498,283.995 550.331,291.829 553.5,300C 553.167,300.5 552.833,301 552.5,301.5C 519.409,280.417 485.409,278.917 450.5,297C 445.732,301.769 440.399,305.769 434.5,309C 422.693,321.445 413.526,335.612 407,351.5C 406.393,354.202 406.56,356.868 407.5,359.5C 407.444,360.737 406.944,361.737 406,362.5C 403.451,358.185 402.118,353.519 402,348.5C 400.755,329.153 404.422,310.819 413,293.5C 417.194,288.94 421.028,284.106 424.5,279C 431.007,274.914 437.34,270.58 443.5,266C 458.431,257.108 474.431,252.275 491.5,251.5 Z"/></g>
<g><path style="opacity:1" fill="#1b1b1b" d="M 256.5,269.5 C 263.393,268.655 269.727,270.155 275.5,274C 299.943,292.441 315.443,316.607 322,346.5C 315.942,336.442 309.108,326.942 301.5,318C 298.167,315.333 294.833,312.667 291.5,310C 285.132,308.102 279.132,305.435 273.5,302C 252.722,297.821 234.889,303.321 220,318.5C 221.281,302.771 227.781,289.604 239.5,279C 244.938,275.284 250.605,272.118 256.5,269.5 Z"/></g>
<g><path style="opacity:1" fill="#f5f4e7" d="M 485.5,290.5 C 498.715,289.757 511.715,290.924 524.5,294C 536.342,298.72 547.675,304.387 558.5,311C 574.454,323.985 578.954,340.152 572,359.5C 571.152,361.874 569.819,363.874 568,365.5C 551.898,352.421 534.065,342.255 514.5,335C 496.911,330.718 480.244,333.051 464.5,342C 453.109,351.471 446.609,363.638 445,378.5C 444.667,387.5 444.333,396.5 444,405.5C 426.579,396.662 415.912,382.662 412,363.5C 411.174,358.411 411.508,353.411 413,348.5C 419.809,335.709 427.976,323.876 437.5,313C 443.693,309.738 449.36,305.738 454.5,301C 458.5,299 462.5,297 466.5,295C 473.116,294.187 479.45,292.687 485.5,290.5 Z"/></g>
<g><path style="opacity:1" fill="#f4f3e6" d="M 253.5,305.5 C 259.577,305.196 265.577,305.696 271.5,307C 277.456,310.765 283.789,313.765 290.5,316C 296.662,321.162 302.495,326.662 308,332.5C 312.333,339.833 316.667,347.167 321,354.5C 322.248,362.796 321.248,370.796 318,378.5C 312.651,387.877 306.818,396.877 300.5,405.5C 302.259,378.186 291.259,357.686 267.5,344C 247.309,340.175 230.809,346.341 218,362.5C 213.818,368.199 210.152,374.199 207,380.5C 203.492,363.884 206.159,348.217 215,333.5C 219.456,327.375 224.289,321.542 229.5,316C 237.041,311.217 245.041,307.717 253.5,305.5 Z"/></g>
<g><path style="opacity:1" fill="#1b1b1b" d="M 328.5,359.5 C 328.735,358.903 329.235,358.57 330,358.5C 339.985,363.606 350.485,367.106 361.5,369C 366.5,369.667 371.5,369.667 376.5,369C 384.799,366.081 393.133,365.414 401.5,367C 406.883,376.063 406.217,384.729 399.5,393C 389.58,396.899 381.247,394.566 374.5,386C 370.619,382.357 366.285,381.69 361.5,384C 358.462,386.703 355.795,389.703 353.5,393C 348.411,393.826 343.411,393.492 338.5,392C 336.951,390.786 335.785,389.286 335,387.5C 332.764,379.317 331.43,370.984 331,362.5C 330.623,361.058 329.79,360.058 328.5,359.5 Z"/></g>

        
<g><path style="opacity:0.985" fill="#20201f" d="M 591.5,350.5 C 590.89,349.609 590.557,348.609 590.5,347.5C 598.093,347.538 604.593,350.538 610,356.5C 612.002,361.007 613.502,365.674 614.5,370.5C 614.02,374.293 612.353,377.46 609.5,380C 603.352,383.078 597.019,385.578 590.5,387.5C 584.054,386.936 577.72,385.77 571.5,384C 563.833,383.333 556.167,383.333 548.5,384C 540.284,385.787 532.618,388.62 525.5,392.5C 525.631,391.624 525.298,390.957 524.5,390.5C 523.261,390.942 522.261,391.609 521.5,392.5C 520.791,393.404 519.791,393.737 518.5,393.5C 514.838,393.723 511.505,394.723 508.5,396.5C 505.759,396.707 503.426,397.707 501.5,399.5C 501.158,400.338 500.492,400.672 499.5,400.5C 494.914,401.46 490.914,403.46 487.5,406.5C 487.158,407.338 486.492,407.672 485.5,407.5C 483.973,407.427 482.973,408.094 482.5,409.5C 480.326,409.75 478.659,410.75 477.5,412.5C 476.167,412.5 475.5,413.167 475.5,414.5C 474.878,415.627 474.045,416.627 473,417.5C 471.951,416.483 470.784,416.316 469.5,417C 464.147,419.701 458.814,422.368 453.5,425C 440.182,427.885 426.849,430.552 413.5,433C 407.153,442.527 401.986,452.694 398,463.5C 395.706,464.852 393.206,465.519 390.5,465.5C 382.205,463.808 373.871,462.308 365.5,461C 361.367,455.866 356.867,451.032 352,446.5C 349.027,442.026 345.86,437.693 342.5,433.5C 328.924,432.583 315.59,430.25 302.5,426.5C 299.905,427.237 297.238,427.237 294.5,426.5C 294.953,425.542 295.619,424.708 296.5,424C 295.906,423.536 295.239,423.369 294.5,423.5C 290.703,423.128 287.37,421.794 284.5,419.5C 281.485,417.326 278.151,415.659 274.5,414.5C 273.415,412.413 271.749,411.08 269.5,410.5C 268.508,410.672 267.842,410.338 267.5,409.5C 267.027,408.094 266.027,407.427 264.5,407.5C 263.352,404.913 261.685,403.913 259.5,404.5C 250.198,398.055 239.864,393.722 228.5,391.5C 218.197,392.724 207.863,393.224 197.5,393C 182.151,389.16 173.651,379.326 172,363.5C 171.333,358.833 171.333,354.167 172,349.5C 172.036,347.059 172.869,345.059 174.5,343.5C 175.086,343.709 175.586,344.043 176,344.5C 175.529,355.347 177.529,365.681 182,375.5C 187.543,382.974 195.043,386.974 204.5,387.5C 231.733,383.303 255.733,390.137 276.5,408C 290.297,415.71 304.964,421.044 320.5,424C 344.953,424.754 369.453,425.587 394,426.5C 413.476,426.449 432.642,423.949 451.5,419C 468.5,410 485.5,401 502.5,392C 517.586,386.527 532.92,381.86 548.5,378C 556.5,377.333 564.5,377.333 572.5,378C 579.063,379.986 585.73,380.986 592.5,381C 596.749,378.806 601.082,376.806 605.5,375C 606.872,373.758 607.872,372.258 608.5,370.5C 607.098,366.461 605.598,362.461 604,358.5C 599.684,355.934 595.517,353.267 591.5,350.5 Z"/></g>
<g><path style="opacity:0.231" fill="#9b9b93" d="M 590.5,347.5 C 590.557,348.609 590.89,349.609 591.5,350.5C 589.448,349.947 589.115,348.947 590.5,347.5 Z"/></g>
<g><path style="opacity:0.012" fill="#b3b2a9" d="M 525.5,392.5 C 524.472,392.926 523.139,392.926 521.5,392.5C 522.261,391.609 523.261,390.942 524.5,390.5C 525.298,390.957 525.631,391.624 525.5,392.5 Z"/></g>
<g><path style="opacity:0.149" fill="#d6d5ca" d="M 518.5,393.5 C 515.495,395.277 512.162,396.277 508.5,396.5C 511.505,394.723 514.838,393.723 518.5,393.5 Z"/></g>
<g><path style="opacity:0.196" fill="#d2d1c6" d="M 508.5,396.5 C 506.574,398.293 504.241,399.293 501.5,399.5C 503.426,397.707 505.759,396.707 508.5,396.5 Z"/></g>
<g><path style="opacity:0.294" fill="#a8a79f" d="M 259.5,404.5 C 261.685,403.913 263.352,404.913 264.5,407.5C 262.589,406.925 260.922,405.925 259.5,404.5 Z"/></g>
<g><path style="opacity:0.173" fill="#d8d7cc" d="M 499.5,400.5 C 495.818,403.008 491.818,405.008 487.5,406.5C 490.914,403.46 494.914,401.46 499.5,400.5 Z"/></g>
<g><path style="opacity:0.235" fill="#d1d0c5" d="M 264.5,407.5 C 266.027,407.427 267.027,408.094 267.5,409.5C 265.973,409.573 264.973,408.906 264.5,407.5 Z"/></g>
<g><path style="opacity:0.141" fill="#dfded2" d="M 485.5,407.5 C 485.027,408.906 484.027,409.573 482.5,409.5C 482.973,408.094 483.973,407.427 485.5,407.5 Z"/></g>
<g><path style="opacity:0.067" fill="#d3d2c7" d="M 482.5,409.5 C 481.341,411.25 479.674,412.25 477.5,412.5C 478.659,410.75 480.326,409.75 482.5,409.5 Z"/></g>
<g><path style="opacity:0.012" fill="#d5d4c9" d="M 477.5,412.5 C 477.167,413.5 476.5,414.167 475.5,414.5C 475.5,413.167 476.167,412.5 477.5,412.5 Z"/></g>
<g><path style="opacity:0.322" fill="#b9b8af" d="M 269.5,410.5 C 271.749,411.08 273.415,412.413 274.5,414.5C 272.251,413.92 270.585,412.587 269.5,410.5 Z"/></g>
<g><path style="opacity:0.196" fill="#d0d0c5" d="M 274.5,414.5 C 278.151,415.659 281.485,417.326 284.5,419.5C 280.58,418.873 277.247,417.207 274.5,414.5 Z"/></g>
<g><path style="opacity:0.027" fill="#d9d8cd" d="M 294.5,423.5 C 295.239,423.369 295.906,423.536 296.5,424C 295.619,424.708 294.953,425.542 294.5,426.5C 293.375,425.652 293.375,424.652 294.5,423.5 Z"/></g>
<g><path style="opacity:1" fill="#f1f0e3" d="M 350.5,430.5 C 360.215,430.459 369.882,431.125 379.5,432.5C 389.146,431.411 398.812,431.245 408.5,432C 402.865,440.766 397.865,449.933 393.5,459.5C 392.833,459.833 392.167,460.167 391.5,460.5C 383.983,458.204 376.316,456.704 368.5,456C 361.627,448.795 355.127,441.295 349,433.5C 348.761,432.212 349.261,431.212 350.5,430.5 Z"/></g>

        
<g><path style="opacity:0.994" fill="#1c1c1b" d="M 394.5,241.5 C 393.791,240.596 392.791,240.263 391.5,240.5C 391.5,242.167 391.5,243.833 391.5,245.5C 391.395,249.319 390.562,252.986 389,256.5C 387.321,259.699 385.321,260.033 383,257.5C 383.07,251.993 380.737,247.993 376,245.5C 372.584,247.992 370.418,251.325 369.5,255.5C 368.127,255.657 366.793,255.49 365.5,255C 361.071,251.705 356.571,248.538 352,245.5C 347.629,248.431 343.796,251.931 340.5,256C 339.5,256.667 338.5,256.667 337.5,256C 335.48,250.719 334.48,245.219 334.5,239.5C 334.5,238.5 334.5,237.5 334.5,236.5C 332.901,236.232 331.568,236.566 330.5,237.5C 324.003,240.981 321.503,238.981 323,231.5C 324.357,228.102 326.19,225.102 328.5,222.5C 329.289,222.217 329.956,221.717 330.5,221C 327.304,220.195 324.304,220.362 321.5,221.5C 317.924,222.813 314.258,223.313 310.5,223C 309.524,220.853 309.691,218.686 311,216.5C 316.593,208.448 324.093,202.948 333.5,200C 324.528,200.535 322.528,197.202 327.5,190C 329.441,188.097 331.774,187.264 334.5,187.5C 336.552,186.947 336.885,185.947 335.5,184.5C 334.023,182.193 332.023,180.36 329.5,179C 321.319,175.606 312.986,172.606 304.5,170C 301.654,169.121 300.987,167.454 302.5,165C 315.061,159.042 327.728,159.042 340.5,165C 355.345,170.679 365.679,180.846 371.5,195.5C 372.596,199.289 373.263,199.289 373.5,195.5C 377.16,183.177 383.16,172.177 391.5,162.5C 398.406,155.547 406.74,151.547 416.5,150.5C 415.726,157.132 412.893,162.798 408,167.5C 404.697,172.441 402.197,177.774 400.5,183.5C 405.328,183.469 410.328,183.635 415.5,184C 417.576,185.884 417.91,188.051 416.5,190.5C 412.206,191.645 408.539,193.812 405.5,197C 418.699,196.375 425.699,202.542 426.5,215.5C 419.799,216.682 414.132,219.682 409.5,224.5C 410.61,233.138 410.776,241.804 410,250.5C 409.592,253.42 408.259,255.754 406,257.5C 405.333,256.833 404.667,256.167 404,255.5C 403.946,252.139 402.946,249.139 401,246.5C 398.648,244.97 396.481,243.303 394.5,241.5 Z"/></g>
<g><path style="opacity:1" fill="#d7d6ca" d="M 408.5,202.5 C 405.167,202.5 401.833,202.5 398.5,202.5C 398.274,199.751 398.607,197.084 399.5,194.5C 397.051,193.09 394.884,193.424 393,195.5C 392.654,184.04 395.821,173.707 402.5,164.5C 400.833,163.334 399.166,163.334 397.5,164.5C 400.468,160.514 404.468,158.348 409.5,158C 401.586,167.41 397.252,178.243 396.5,190.5C 400.011,188.915 403.678,188.415 407.5,189C 404.333,190.833 401.833,193.333 400,196.5C 399.506,198.134 399.34,199.801 399.5,201.5C 402.713,201.19 405.713,201.523 408.5,202.5 Z"/></g>
<g><path style="opacity:1" fill="#f3f2e5" d="M 408.5,202.5 C 409.167,202.5 409.833,202.5 410.5,202.5C 410.423,203.75 409.756,204.583 408.5,205C 410.285,206.163 412.285,206.83 414.5,207C 417.207,210.35 416.207,212.017 411.5,212C 409,214.5 406.5,217 404,219.5C 403.805,224.418 403.305,229.251 402.5,234C 403.38,235.356 403.714,236.856 403.5,238.5C 401.861,238.074 400.528,238.074 399.5,238.5C 396.111,236.78 392.444,236.113 388.5,236.5C 387.992,241.216 387.158,245.882 386,250.5C 382.844,246.178 379.344,242.178 375.5,238.5C 373.547,239.761 371.547,240.927 369.5,242C 369.957,242.414 370.291,242.914 370.5,243.5C 368.808,245.359 367.308,247.359 366,249.5C 361.283,246.402 357.116,242.735 353.5,238.5C 350.961,239.931 348.628,241.597 346.5,243.5C 345.178,243.33 344.011,243.663 343,244.5C 342.667,243.833 342.333,243.167 342,242.5C 342.614,238.479 342.447,234.479 341.5,230.5C 338.788,230.263 336.288,230.263 334,230.5C 333.333,229.5 333.333,228.5 334,227.5C 335.022,225.336 336.189,223.336 337.5,221.5C 337.191,218.654 335.525,217.154 332.5,217C 327.116,216.495 321.782,216.495 316.5,217C 318.557,213.277 321.557,210.61 325.5,209C 330.138,206.003 334.971,204.503 340,204.5C 341.841,198.501 339.674,194.834 333.5,193.5C 335.664,191.316 338.331,189.983 341.5,189.5C 340.088,183.766 337.088,179.099 332.5,175.5C 331.473,173.474 330.139,171.641 328.5,170C 328.833,169.5 329.167,169 329.5,168.5C 330.736,169.246 332.07,169.579 333.5,169.5C 344.555,172.119 353.388,178.119 360,187.5C 363.841,193.178 367.174,199.178 370,205.5C 371.699,206.406 373.533,206.739 375.5,206.5C 377.343,194.144 381.843,182.81 389,172.5C 391.047,168.952 393.88,166.285 397.5,164.5C 399.166,163.334 400.833,163.334 402.5,164.5C 395.821,173.707 392.654,184.04 393,195.5C 394.884,193.424 397.051,193.09 399.5,194.5C 398.607,197.084 398.274,199.751 398.5,202.5C 401.833,202.5 405.167,202.5 408.5,202.5 Z"/></g>
<g><path style="opacity:1" fill="#cfcec2" d="M 333.5,169.5 C 332.07,169.579 330.736,169.246 329.5,168.5C 329.167,169 328.833,169.5 328.5,170C 330.139,171.641 331.473,173.474 332.5,175.5C 326.495,172.498 320.495,169.498 314.5,166.5C 318.122,165.341 321.789,165.175 325.5,166C 328.666,166.322 331.333,167.489 333.5,169.5 Z"/></g>
<g><path style="opacity:0.561" fill="#93928a" d="M 335.5,184.5 C 336.885,185.947 336.552,186.947 334.5,187.5C 335.11,186.609 335.443,185.609 335.5,184.5 Z"/></g>
<g><path style="opacity:1" fill="#92928a" d="M 371.5,195.5 C 372.167,195.5 372.833,195.5 373.5,195.5C 373.263,199.289 372.596,199.289 371.5,195.5 Z"/></g>
<g><path style="opacity:1" fill="#d9d8cb" d="M 410.5,202.5 C 416.016,203.181 420.016,206.014 422.5,211C 415.592,212.922 410.092,216.755 406,222.5C 406.522,230.127 406.522,237.794 406,245.5C 403.628,243.297 401.461,240.963 399.5,238.5C 400.528,238.074 401.861,238.074 403.5,238.5C 403.714,236.856 403.38,235.356 402.5,234C 403.305,229.251 403.805,224.418 404,219.5C 406.5,217 409,214.5 411.5,212C 416.207,212.017 417.207,210.35 414.5,207C 412.285,206.83 410.285,206.163 408.5,205C 409.756,204.583 410.423,203.75 410.5,202.5 Z"/></g>
<g><path style="opacity:0.447" fill="#706f69" d="M 321.5,221.5 C 324.304,220.362 327.304,220.195 330.5,221C 329.956,221.717 329.289,222.217 328.5,222.5C 326.393,221.532 324.059,221.198 321.5,221.5 Z"/></g>
<g><path style="opacity:1" fill="#d6d5c9" d="M 337.5,221.5 C 336.189,223.336 335.022,225.336 334,227.5C 333.333,228.5 333.333,229.5 334,230.5C 336.288,230.263 338.788,230.263 341.5,230.5C 342.447,234.479 342.614,238.479 342,242.5C 342.333,243.167 342.667,243.833 343,244.5C 344.011,243.663 345.178,243.33 346.5,243.5C 344.229,245.266 342.063,247.266 340,249.5C 337.689,243.959 336.856,238.293 337.5,232.5C 334.073,232.976 330.74,232.976 327.5,232.5C 329.464,227.538 332.798,223.871 337.5,221.5 Z"/></g>
<g><path style="opacity:0.18" fill="#b1b0a7" d="M 330.5,237.5 C 331.568,236.566 332.901,236.232 334.5,236.5C 334.5,237.5 334.5,238.5 334.5,239.5C 333.533,238.194 332.199,237.527 330.5,237.5 Z"/></g>
<g><path style="opacity:0.424" fill="#84847d" d="M 394.5,241.5 C 393.022,242.448 392.022,243.781 391.5,245.5C 391.5,243.833 391.5,242.167 391.5,240.5C 392.791,240.263 393.791,240.596 394.5,241.5 Z"/></g>

    </svg>
