
    <svg width="862" height="862" viewBox="0 0 862 862" fill="none" xmlns="http://www.w3.org/2000/svg">
        
<g><path style="opacity:1" fill="#f6f6e8" d="M -0.5,-0.5 C 286.833,-0.5 574.167,-0.5 861.5,-0.5C 861.5,286.833 861.5,574.167 861.5,861.5C 574.167,861.5 286.833,861.5 -0.5,861.5C -0.5,574.167 -0.5,286.833 -0.5,-0.5 Z"/></g>

        
<g><path style="opacity:0.983" fill="#1a1a19" d="M 578.5,540.5 C 583.993,540.916 589.326,542.082 594.5,544C 599.237,547.614 603.403,551.781 607,556.5C 613.977,570.057 616.311,584.39 614,599.5C 611.931,603.236 608.931,605.903 605,607.5C 603.018,607.01 601.351,606.01 600,604.5C 594.275,609.717 588.442,609.717 582.5,604.5C 577.923,613.337 572.256,614.337 565.5,607.5C 561.53,612.973 556.196,614.806 549.5,613C 548.299,612.097 547.465,610.931 547,609.5C 541.931,617.452 536.764,617.452 531.5,609.5C 527.737,613.765 523.737,617.932 519.5,622C 516.106,622.752 512.773,622.585 509.5,621.5C 508.194,620.088 507.36,618.421 507,616.5C 505.425,609.568 504.258,602.568 503.5,595.5C 504.335,583.317 510.669,578.317 522.5,580.5C 523.795,579.902 525.128,579.402 526.5,579C 535.197,570.637 543.531,561.97 551.5,553C 559.592,546.617 568.592,542.45 578.5,540.5 Z"/></g>
<g><path style="opacity:1" fill="#d9d8cb" d="M 587.5,601.5 C 588.496,601.586 589.329,601.252 590,600.5C 592.94,596.545 595.94,592.545 599,588.5C 599.37,579.339 598.37,570.339 596,561.5C 591.36,554.156 584.693,549.822 576,548.5C 573.538,549.159 571.038,549.493 568.5,549.5C 581.297,543.74 592.13,546.407 601,557.5C 608.853,570.951 611.186,585.285 608,600.5C 606.604,602.527 604.938,602.86 603,601.5C 602.091,598.089 601.091,594.755 600,591.5C 598.35,595.573 596.516,599.573 594.5,603.5C 591.584,604.861 589.251,604.195 587.5,601.5 Z"/></g>
<g><path style="opacity:1" fill="#f4f3e6" d="M 587.5,601.5 C 585.433,599.682 584.1,597.349 583.5,594.5C 582.635,593.417 581.635,593.251 580.5,594C 579.955,598.074 578.621,601.907 576.5,605.5C 574.878,607.439 573.044,607.772 571,606.5C 568.863,602.486 567.03,598.486 565.5,594.5C 564.522,594.977 563.689,595.643 563,596.5C 563.284,605.334 559.118,609.667 550.5,609.5C 550.348,605.228 549.348,601.228 547.5,597.5C 545.179,600.394 544.012,603.727 544,607.5C 541.618,612.067 538.951,612.4 536,608.5C 535.887,606.026 534.887,604.026 533,602.5C 527.856,607.313 523.023,612.48 518.5,618C 516.098,618.814 513.765,618.647 511.5,617.5C 508.811,609.37 507.645,601.036 508,592.5C 508.668,588.501 510.835,585.668 514.5,584C 518.801,584.363 523.134,584.363 527.5,584C 529.167,583 530.833,582 532.5,581C 540.864,572.97 548.864,564.637 556.5,556C 560.367,553.567 564.367,551.4 568.5,549.5C 571.038,549.493 573.538,549.159 576,548.5C 584.693,549.822 591.36,554.156 596,561.5C 598.37,570.339 599.37,579.339 599,588.5C 595.94,592.545 592.94,596.545 590,600.5C 589.329,601.252 588.496,601.586 587.5,601.5 Z"/></g>
<g><path style="opacity:0.982" fill="#191918" d="M 290.5,554.5 C 298.253,554.104 305.92,554.604 313.5,556C 315.5,557.333 317.5,558.667 319.5,560C 322.228,566.042 326.895,569.709 333.5,571C 335.378,572.543 336.878,574.376 338,576.5C 338.242,583.196 338.742,589.862 339.5,596.5C 339.461,598.587 338.461,599.921 336.5,600.5C 332.274,599.93 328.108,599.263 324,598.5C 322.5,600 321,601.5 319.5,603C 317.287,603.626 315.12,603.459 313,602.5C 306.564,605.689 301.23,604.356 297,598.5C 284.481,607.161 276.648,603.994 273.5,589C 271.944,573.778 277.611,562.278 290.5,554.5 Z"/></g>
<g><path style="opacity:1" fill="#f4f3e6" d="M 334.5,587.5 C 334.5,590.167 334.5,592.833 334.5,595.5C 333.167,595.5 331.833,595.5 330.5,595.5C 327.482,595.335 324.482,595.502 321.5,596C 320.022,598.039 318.022,598.872 315.5,598.5C 315.5,597.5 315.5,596.5 315.5,595.5C 312.326,596.015 309.326,597.015 306.5,598.5C 305.5,598.333 304.5,598.167 303.5,598C 301.441,595.366 299.275,592.866 297,590.5C 296.292,591.381 295.458,592.047 294.5,592.5C 290.404,593.285 287.07,592.118 284.5,589C 284.833,588.667 285.167,588.333 285.5,588C 283.667,587.5 282.5,586.333 282,584.5C 281.501,580.179 281.334,575.846 281.5,571.5C 281.709,570.078 282.209,568.745 283,567.5C 286.167,565 289.333,562.5 292.5,560C 298.167,559.333 303.833,559.333 309.5,560C 314.42,562.916 318.753,566.582 322.5,571C 326.232,572.461 329.732,574.294 333,576.5C 333.936,580.114 334.436,583.78 334.5,587.5 Z"/></g>
<g><path style="opacity:1" fill="#d7d6c9" d="M 281.5,571.5 C 281.334,575.846 281.501,580.179 282,584.5C 282.5,586.333 283.667,587.5 285.5,588C 285.167,588.333 284.833,588.667 284.5,589C 287.07,592.118 290.404,593.285 294.5,592.5C 293.641,595.452 291.641,597.285 288.5,598C 285.364,599.041 282.864,598.207 281,595.5C 279.409,588.608 279.076,581.608 280,574.5C 280.232,573.263 280.732,572.263 281.5,571.5 Z"/></g>
<g><path style="opacity:1" fill="#64635e" d="M 334.5,587.5 C 335.477,590.287 335.81,593.287 335.5,596.5C 333.585,596.784 331.919,596.451 330.5,595.5C 331.833,595.5 333.167,595.5 334.5,595.5C 334.5,592.833 334.5,590.167 334.5,587.5 Z"/></g>

        
<g><path style="opacity:0.992" fill="#0e0200" d="M 427.5,213.5 C 431.015,214.239 434.348,214.239 437.5,213.5C 457.44,207.685 476.773,200.185 495.5,191C 539.434,164.086 578.267,130.92 612,91.5C 623.718,75.0452 633.551,57.7118 641.5,39.5C 643.784,43.0917 645.284,47.0917 646,51.5C 647.981,58.7292 648.647,66.0625 648,73.5C 640.855,110.937 630.855,147.604 618,183.5C 610.177,198.812 603.177,214.479 597,230.5C 591.559,238.38 586.892,246.714 583,255.5C 579.213,260.956 575.046,266.123 570.5,271C 547.78,274.587 525.113,274.253 502.5,270C 475.47,261.573 451.97,247.407 432,227.5C 428.906,223.067 427.406,218.4 427.5,213.5 Z"/></g>
<g><path style="opacity:1" fill="#480600" d="M 639.5,86.5 C 639.333,78.6432 638.666,70.9765 637.5,63.5C 638.403,61.3635 639.569,59.3635 641,57.5C 643.127,67.4034 642.627,77.0701 639.5,86.5 Z"/></g>
<g><path style="opacity:1" fill="#5d1100" d="M 637.5,63.5 C 638.666,70.9765 639.333,78.6432 639.5,86.5C 631.952,119.13 622.619,151.13 611.5,182.5C 594.072,199.89 575.405,215.89 555.5,230.5C 539.118,226.893 524.951,219.226 513,207.5C 509.506,202.214 508.006,196.547 508.5,190.5C 523.298,181.355 537.464,171.355 551,160.5C 554.322,165.804 557.655,171.138 561,176.5C 566.521,183.026 573.354,187.526 581.5,190C 584.721,190.797 587.721,190.297 590.5,188.5C 573.252,184.768 561.252,174.601 554.5,158C 575.614,139.22 595.781,119.387 615,98.5C 623.508,87.4845 631.008,75.8178 637.5,63.5 Z"/></g>
<g><path style="opacity:0.991" fill="#0e0200" d="M 163.5,81.5 C 163.402,83.5529 164.069,85.2196 165.5,86.5C 167.9,93.3682 169.9,100.368 171.5,107.5C 171.402,109.553 172.069,111.22 173.5,112.5C 175.314,118.78 177.647,124.78 180.5,130.5C 182.966,137.43 185.966,144.096 189.5,150.5C 189.427,152.027 190.094,153.027 191.5,153.5C 191.738,155.404 192.738,156.738 194.5,157.5C 198.189,161.865 201.522,166.531 204.5,171.5C 204.427,173.027 205.094,174.027 206.5,174.5C 207.167,174.5 207.5,174.833 207.5,175.5C 207.427,177.027 208.094,178.027 209.5,178.5C 211.727,180.607 213.727,182.94 215.5,185.5C 216.757,188.427 218.757,190.761 221.5,192.5C 233.146,201.988 245.146,210.988 257.5,219.5C 257.973,220.906 258.973,221.573 260.5,221.5C 262.992,223.768 265.658,224.768 268.5,224.5C 273.295,225.765 277.962,227.432 282.5,229.5C 287.333,227.167 290.5,228.834 292,234.5C 292.629,238.871 292.463,243.204 291.5,247.5C 289.896,248.287 289.229,249.62 289.5,251.5C 287.841,256.827 285.174,261.493 281.5,265.5C 280.094,265.973 279.427,266.973 279.5,268.5C 273.833,277.5 266.5,284.833 257.5,290.5C 255.973,290.427 254.973,291.094 254.5,292.5C 245.762,298.772 235.929,302.439 225,303.5C 221.45,303.517 220.283,302.017 221.5,299C 219.907,298.051 218.574,296.885 217.5,295.5C 216.738,293.738 215.404,292.738 213.5,292.5C 209.167,288.833 205.167,284.833 201.5,280.5C 200.5,278.833 199.167,277.5 197.5,276.5C 185.509,266.187 176.175,253.854 169.5,239.5C 169.573,237.973 168.906,236.973 167.5,236.5C 164.326,231.484 161.659,226.151 159.5,220.5C 157.07,212.533 154.07,204.866 150.5,197.5C 147.894,190.347 145.894,183.014 144.5,175.5C 143.987,171.121 143.153,166.787 142,162.5C 141.617,161.944 141.117,161.611 140.5,161.5C 140.5,161.167 140.5,160.833 140.5,160.5C 141.794,158.32 141.461,156.32 139.5,154.5C 139.5,143.833 139.5,133.167 139.5,122.5C 141.966,118.982 142.966,114.982 142.5,110.5C 144.411,106.767 145.744,102.767 146.5,98.5C 147.655,94.2025 149.321,90.2025 151.5,86.5C 153.008,84.8185 154.008,82.8185 154.5,80.5C 155.906,80.0269 156.573,79.0269 156.5,77.5C 157.261,76.6091 158.261,75.9424 159.5,75.5C 161.252,77.2459 162.585,79.2459 163.5,81.5 Z"/></g>
<g><path style="opacity:0.212" fill="#3b0702" d="M 156.5,77.5 C 156.573,79.0269 155.906,80.0269 154.5,80.5C 154.427,78.9731 155.094,77.9731 156.5,77.5 Z"/></g>
<g><path style="opacity:0.016" fill="#420b00" d="M 163.5,81.5 C 164.931,82.7804 165.598,84.4471 165.5,86.5C 164.069,85.2196 163.402,83.5529 163.5,81.5 Z"/></g>
<g><path style="opacity:0.106" fill="#3a0700" d="M 154.5,80.5 C 154.008,82.8185 153.008,84.8185 151.5,86.5C 151.461,83.911 152.461,81.911 154.5,80.5 Z"/></g>
<g><path style="opacity:1" fill="#490400" d="M 162.5,94.5 C 161.503,94.4701 160.836,94.9701 160.5,96C 157.987,102.732 156.987,109.732 157.5,117C 156.995,126.715 158.162,136.215 161,145.5C 169.115,165.739 179.282,184.739 191.5,202.5C 187.969,204.937 184.469,204.937 181,202.5C 180.333,203.833 180.333,205.167 181,206.5C 185.119,207.659 189.286,207.659 193.5,206.5C 199.628,219.484 206.461,232.151 214,244.5C 216.042,247.94 218.542,250.94 221.5,253.5C 219.067,256.687 216.067,258.353 212.5,258.5C 213,259.881 214,260.547 215.5,260.5C 218.183,259.49 220.849,258.49 223.5,257.5C 230.487,268.801 237.487,280.134 244.5,291.5C 239.92,294.754 234.753,296.754 229,297.5C 225.571,297.043 222.737,295.543 220.5,293C 206.564,280.069 193.731,266.236 182,251.5C 159.976,217.422 147.476,180.088 144.5,139.5C 144.038,119.571 149.038,101.238 159.5,84.5C 161.003,87.6773 162.003,91.0106 162.5,94.5 Z"/></g>
<g><path style="opacity:1" fill="#5c1100" d="M 162.5,94.5 C 166.782,109.234 171.782,123.734 177.5,138C 176.833,140 176.167,142 175.5,144C 175.957,144.414 176.291,144.914 176.5,145.5C 175.5,146.833 174.5,148.167 173.5,149.5C 174.365,150.583 175.365,150.749 176.5,150C 178.041,148.421 179.208,146.587 180,144.5C 188.664,159.494 198.497,173.661 209.5,187C 207.004,189.656 205.004,192.656 203.5,196C 199.845,198.827 195.845,200.993 191.5,202.5C 179.282,184.739 169.115,165.739 161,145.5C 158.162,136.215 156.995,126.715 157.5,117C 156.987,109.732 157.987,102.732 160.5,96C 160.836,94.9701 161.503,94.4701 162.5,94.5 Z"/></g>
<g><path style="opacity:0.671" fill="#2e0b00" d="M 146.5,98.5 C 145.744,102.767 144.411,106.767 142.5,110.5C 142.861,106.085 144.194,102.085 146.5,98.5 Z"/></g>
<g><path style="opacity:0.235" fill="#370c00" d="M 171.5,107.5 C 172.931,108.78 173.598,110.447 173.5,112.5C 172.069,111.22 171.402,109.553 171.5,107.5 Z"/></g>
<g><path style="opacity:0.263" fill="#290802" d="M 142.5,110.5 C 142.966,114.982 141.966,118.982 139.5,122.5C 140.008,118.264 141.008,114.264 142.5,110.5 Z"/></g>
<g><path style="opacity:0.251" fill="#3d0800" d="M 173.5,112.5 C 176.907,117.997 179.241,123.997 180.5,130.5C 177.647,124.78 175.314,118.78 173.5,112.5 Z"/></g>
<g><path style="opacity:0.314" fill="#390c00" d="M 189.5,150.5 C 190.906,150.973 191.573,151.973 191.5,153.5C 190.094,153.027 189.427,152.027 189.5,150.5 Z"/></g>
<g><path style="opacity:0.329" fill="#3d0502" d="M 191.5,153.5 C 193.262,154.262 194.262,155.596 194.5,157.5C 192.738,156.738 191.738,155.404 191.5,153.5 Z"/></g>
<g><path style="opacity:0.316" fill="#380800" d="M 139.5,154.5 C 141.461,156.32 141.794,158.32 140.5,160.5C 139.85,158.565 139.517,156.565 139.5,154.5 Z"/></g>
<g><path style="opacity:0.227" fill="#340900" d="M 140.5,161.5 C 141.117,161.611 141.617,161.944 142,162.5C 143.153,166.787 143.987,171.121 144.5,175.5C 142.565,171.107 141.232,166.441 140.5,161.5 Z"/></g>
<g><path style="opacity:0.306" fill="#3f0402" d="M 204.5,171.5 C 205.906,171.973 206.573,172.973 206.5,174.5C 205.094,174.027 204.427,173.027 204.5,171.5 Z"/></g>
<g><path style="opacity:0.376" fill="#3a0501" d="M 207.5,175.5 C 208.906,175.973 209.573,176.973 209.5,178.5C 208.094,178.027 207.427,177.027 207.5,175.5 Z"/></g>
<g><path style="opacity:1" fill="#490400" d="M 611.5,182.5 C 604.129,197.911 597.295,213.578 591,229.5C 585.559,237.38 580.892,245.714 577,254.5C 574.167,258 571.333,261.5 568.5,265C 548.008,269.725 527.675,269.559 507.5,264.5C 509.199,264.66 510.866,264.494 512.5,264C 517.395,261.52 522.395,259.186 527.5,257C 535.706,250.294 543.04,242.794 549.5,234.5C 555.767,236.176 561.767,235.509 567.5,232.5C 563.353,231.833 559.353,231.166 555.5,230.5C 575.405,215.89 594.072,199.89 611.5,182.5 Z"/></g>
<g><path style="opacity:0.498" fill="#380a00" d="M 215.5,185.5 C 218.243,187.239 220.243,189.573 221.5,192.5C 218.757,190.761 216.757,188.427 215.5,185.5 Z"/></g>
<g><path style="opacity:1" fill="#5d1100" d="M 549.5,234.5 C 543.04,242.794 535.706,250.294 527.5,257C 522.395,259.186 517.395,261.52 512.5,264C 510.866,264.494 509.199,264.66 507.5,264.5C 500.924,263.587 494.591,261.753 488.5,259C 469.68,249.511 452.514,237.678 437,223.5C 436.5,222.5 436,221.5 435.5,220.5C 459.54,214.543 482.373,205.543 504,193.5C 504.969,201.937 508.469,209.103 514.5,215C 524.994,223.581 536.661,230.081 549.5,234.5 Z"/></g>
<g><path style="opacity:0.122" fill="#3d0800" d="M 150.5,197.5 C 154.07,204.866 157.07,212.533 159.5,220.5C 155.533,213.274 152.533,205.608 150.5,197.5 Z"/></g>
<g><path style="opacity:0.678" fill="#2d0b00" d="M 427.5,213.5 C 430.668,212.556 434.001,212.556 437.5,213.5C 434.348,214.239 431.015,214.239 427.5,213.5 Z"/></g>
<g><path style="opacity:0.012" fill="#3f0400" d="M 257.5,219.5 C 259.027,219.427 260.027,220.094 260.5,221.5C 258.973,221.573 257.973,220.906 257.5,219.5 Z"/></g>
<g><path style="opacity:0.055" fill="#360a00" d="M 260.5,221.5 C 263.443,221.98 266.11,222.98 268.5,224.5C 265.658,224.768 262.992,223.768 260.5,221.5 Z"/></g>
<g><path style="opacity:1" fill="#0b0100" d="M 223.5,257.5 C 220.849,258.49 218.183,259.49 215.5,260.5C 214,260.547 213,259.881 212.5,258.5C 216.067,258.353 219.067,256.687 221.5,253.5C 232.23,245.437 241.23,235.771 248.5,224.5C 249.5,223.167 250.5,223.167 251.5,224.5C 244.728,237.735 235.395,248.735 223.5,257.5 Z"/></g>
<g><path style="opacity:1" fill="#5d1100" d="M 244.5,291.5 C 237.487,280.134 230.487,268.801 223.5,257.5C 235.395,248.735 244.728,237.735 251.5,224.5C 250.5,223.167 249.5,223.167 248.5,224.5C 241.23,235.771 232.23,245.437 221.5,253.5C 218.542,250.94 216.042,247.94 214,244.5C 206.461,232.151 199.628,219.484 193.5,206.5C 202.105,203.56 208.105,197.894 211.5,189.5C 216.291,194.792 221.291,199.959 226.5,205C 235.675,211.087 244.675,217.421 253.5,224C 264.115,228.76 274.948,232.927 286,236.5C 286.791,240.926 286.457,245.259 285,249.5C 276.025,268.63 262.525,282.63 244.5,291.5 Z"/></g>
<g><path style="opacity:0.027" fill="#4a0600" d="M 167.5,236.5 C 168.906,236.973 169.573,237.973 169.5,239.5C 168.094,239.027 167.427,238.027 167.5,236.5 Z"/></g>
<g><path style="opacity:0.369" fill="#3d0c00" d="M 291.5,247.5 C 291.34,249.153 290.674,250.486 289.5,251.5C 289.229,249.62 289.896,248.287 291.5,247.5 Z"/></g>
<g><path style="opacity:0.063" fill="#430c00" d="M 281.5,265.5 C 281.573,267.027 280.906,268.027 279.5,268.5C 279.427,266.973 280.094,265.973 281.5,265.5 Z"/></g>
<g><path style="opacity:0.004" fill="#4b0b00" d="M 197.5,276.5 C 199.167,277.5 200.5,278.833 201.5,280.5C 199.167,280.167 197.833,278.833 197.5,276.5 Z"/></g>
<g><path style="opacity:0.008" fill="#3f0c00" d="M 257.5,290.5 C 257.027,291.906 256.027,292.573 254.5,292.5C 254.973,291.094 255.973,290.427 257.5,290.5 Z"/></g>
<g><path style="opacity:0.443" fill="#3b0b01" d="M 213.5,292.5 C 215.404,292.738 216.738,293.738 217.5,295.5C 215.596,295.262 214.262,294.262 213.5,292.5 Z"/></g>

        
<g><path style="opacity:0.99" fill="#070707" d="M 397.5,213.5 C 426.652,214.128 455.652,216.628 484.5,221C 501.696,223.299 517.696,228.965 532.5,238C 541.415,244.711 550.915,250.545 561,255.5C 566,261.833 571,268.167 576,274.5C 579.431,281.886 582.098,289.553 584,297.5C 600.968,293.905 616.801,296.738 631.5,306C 639.341,311.087 647.008,316.42 654.5,322C 663.667,331.167 672.833,340.333 682,349.5C 688.828,358.487 695.162,367.821 701,377.5C 703.243,382.896 705.076,388.396 706.5,394C 702.842,398.302 698.175,400.969 692.5,402C 684.601,403.249 676.935,403.749 669.5,403.5C 671.81,407.254 673.643,411.254 675,415.5C 676.619,423.927 678.619,432.26 681,440.5C 682.454,454.02 679.787,466.687 673,478.5C 663.749,491.086 652.582,501.586 639.5,510C 630.893,513.302 622.893,517.635 615.5,523C 597.029,529.157 579.029,536.491 561.5,545C 545.683,550.606 529.683,555.606 513.5,560C 527.668,574.176 543.001,586.843 559.5,598C 576.758,613.656 588.591,632.823 595,655.5C 600.246,671.481 603.746,687.814 605.5,704.5C 615.856,702.179 626.356,700.846 637,700.5C 653.9,703.09 670.9,704.757 688,705.5C 707.617,704.722 725.784,699.222 742.5,689C 757.923,678.567 772.423,667.067 786,654.5C 787.653,654.82 788.653,655.82 789,657.5C 790.41,661.976 791.577,666.476 792.5,671C 791.961,696.289 785.127,719.789 772,741.5C 763.125,752.196 752.292,760.362 739.5,766C 722.469,771.591 705.135,775.925 687.5,779C 666.989,778.73 646.989,781.73 627.5,788C 631.324,793.922 636.657,797.922 643.5,800C 644.765,801.337 645.265,802.837 645,804.5C 634.166,813.497 621.666,817.164 607.5,815.5C 607.62,817.199 607.954,818.865 608.5,820.5C 608.182,821.647 607.516,822.481 606.5,823C 599.093,824.492 591.593,825.325 584,825.5C 570.833,824.357 557.666,823.19 544.5,822C 528.753,817.882 515.253,810.049 504,798.5C 495.911,789.336 489.577,779.003 485,767.5C 473.056,772.575 460.556,774.908 447.5,774.5C 441.513,773.858 435.513,773.358 429.5,773C 427,772.625 424.667,771.792 422.5,770.5C 418.78,774.733 415.613,779.4 413,784.5C 395.052,801.708 373.552,809.541 348.5,808C 344.343,807.271 340.343,806.104 336.5,804.5C 335.167,803.5 335.167,802.5 336.5,801.5C 338.833,800 341.167,798.5 343.5,797C 344.696,796.346 344.696,795.846 343.5,795.5C 335.883,796.633 328.216,796.8 320.5,796C 311.363,794.508 304.863,789.675 301,781.5C 300.179,778.446 300.345,775.446 301.5,772.5C 312.272,769.781 321.939,764.947 330.5,758C 319.87,750.041 313.37,739.541 311,726.5C 309.463,718.908 308.63,711.241 308.5,703.5C 309.559,693.159 310.392,682.825 311,672.5C 308.094,675.369 304.594,676.702 300.5,676.5C 294.742,676.543 289.409,675.209 284.5,672.5C 273.656,662.134 269.489,649.467 272,634.5C 275.346,612.289 285.512,594.122 302.5,580C 312.952,573.232 324.119,571.732 336,575.5C 337.967,574.507 339.134,572.84 339.5,570.5C 305.015,564.297 271.015,555.463 237.5,544C 209.322,532.837 184.822,516.337 164,494.5C 152.732,482.13 145.899,467.63 143.5,451C 144.485,443.505 144.985,436.005 145,428.5C 140.155,431.151 134.989,431.984 129.5,431C 127.954,429.56 127.121,427.727 127,425.5C 126.788,413.092 127.788,400.758 130,388.5C 135.912,374.746 142.579,361.413 150,348.5C 160.721,333.106 174.888,322.273 192.5,316C 198.537,315.303 204.537,315.47 210.5,316.5C 211.252,310.492 213.086,304.826 216,299.5C 222.667,288.833 229.333,278.167 236,267.5C 246.355,255.578 258.188,245.412 271.5,237C 312.624,223.821 354.624,215.987 397.5,213.5 Z"/></g>
<g><path style="opacity:1" fill="#1a1a1a" d="M 668.5,416.5 C 667.149,427.398 664.649,438.064 661,448.5C 656.399,457.425 651.399,466.092 646,474.5C 623.77,496.709 597.937,513.542 568.5,525C 543.253,532.859 517.92,540.526 492.5,548C 448.553,557.101 404.22,559.768 359.5,556C 347.914,553.855 336.248,552.188 324.5,551C 281.405,540.283 240.405,524.283 201.5,503C 185.771,492.605 171.938,480.105 160,465.5C 152.669,456.68 150.169,446.68 152.5,435.5C 154.204,427.844 154.871,420.177 154.5,412.5C 152.056,416.118 149.39,419.618 146.5,423C 142.683,424.995 138.683,426.495 134.5,427.5C 133.201,426.91 132.368,425.91 132,424.5C 131.833,422.5 131.667,420.5 131.5,418.5C 132.991,409.545 134.157,400.545 135,391.5C 141.604,374.286 150.271,358.286 161,343.5C 170.285,333.114 181.451,325.614 194.5,321C 200.862,320.576 207.195,320.576 213.5,321C 224.905,285.517 246.572,258.184 278.5,239C 326.469,224.712 375.469,218.046 425.5,219C 447.106,221.764 468.773,224.764 490.5,228C 502.4,230.411 513.733,234.411 524.5,240C 535.498,247.501 546.832,254.501 558.5,261C 569.707,272.248 576.541,285.748 579,301.5C 581.376,308.587 585.043,314.92 590,320.5C 590.167,320.167 590.333,319.833 590.5,319.5C 588.2,313.909 586.2,308.242 584.5,302.5C 599.35,299.458 613.35,301.625 626.5,309C 652.248,326.081 674.082,347.248 692,372.5C 695.8,378.933 698.633,385.766 700.5,393C 698.652,395.093 696.319,396.426 693.5,397C 680.718,399.865 668.385,398.698 656.5,393.5C 656.372,395.655 656.872,397.655 658,399.5C 664.052,403.607 667.552,409.273 668.5,416.5 Z"/></g>
<g><path style="opacity:1" fill="#010101" d="M 618.5,337.5 C 634.542,353.376 653.208,365.543 674.5,374C 676.954,375.74 678.454,377.907 679,380.5C 677.612,381.554 676.112,381.72 674.5,381C 654.654,371.331 636.821,358.831 621,343.5C 619.441,341.783 618.608,339.783 618.5,337.5 Z"/></g>
<g><path style="opacity:1" fill="#010101" d="M 147.5,382.5 C 148.993,383.312 149.66,384.645 149.5,386.5C 148.442,393.85 147.275,401.184 146,408.5C 144.374,411.128 142.374,413.461 140,415.5C 141.412,404.277 143.912,393.277 147.5,382.5 Z"/></g>
<g><path style="opacity:1" fill="#141414" d="M 668.5,416.5 C 669.117,416.611 669.617,416.944 670,417.5C 671.619,425.927 673.619,434.26 676,442.5C 676.82,456.706 672.82,469.372 664,480.5C 656.058,489.448 647.225,497.281 637.5,504C 628.893,507.302 620.893,511.635 613.5,517C 594.28,523.296 575.614,530.963 557.5,540C 535.077,547.604 512.411,554.271 489.5,560C 470.569,562.908 451.569,565.241 432.5,567C 422.167,567.667 411.833,567.667 401.5,567C 377.521,565.26 353.521,563.927 329.5,563C 288.931,556.527 250.265,544.193 213.5,526C 190.515,513.347 171.682,496.18 157,474.5C 150.182,462.569 148.182,449.902 151,436.5C 151.383,435.944 151.883,435.611 152.5,435.5C 150.169,446.68 152.669,456.68 160,465.5C 171.938,480.105 185.771,492.605 201.5,503C 240.405,524.283 281.405,540.283 324.5,551C 336.248,552.188 347.914,553.855 359.5,556C 404.22,559.768 448.553,557.101 492.5,548C 517.92,540.526 543.253,532.859 568.5,525C 597.937,513.542 623.77,496.709 646,474.5C 651.399,466.092 656.399,457.425 661,448.5C 664.649,438.064 667.149,427.398 668.5,416.5 Z"/></g>
<g><path style="opacity:1" fill="#141414" d="M 478.5,672.5 C 485.872,678.44 494.205,679.94 503.5,677C 506.732,675.77 509.399,673.77 511.5,671C 512.5,670.333 513.5,670.333 514.5,671C 512.476,676.438 510.142,681.772 507.5,687C 510.8,688.879 514.134,688.879 517.5,687C 532.745,675.358 541.412,659.858 543.5,640.5C 542.824,633.638 540.657,627.305 537,621.5C 523.858,607.513 507.691,599.846 488.5,598.5C 480.873,598.024 477.54,601.691 478.5,609.5C 479.213,614.311 480.547,618.978 482.5,623.5C 480.083,625.107 477.416,626.107 474.5,626.5C 472.491,621.266 471.158,615.766 470.5,610C 470.586,606.241 471.586,602.741 473.5,599.5C 473.167,598.5 472.5,597.833 471.5,597.5C 469.364,598.472 468.197,600.139 468,602.5C 467.081,608.966 467.581,615.299 469.5,621.5C 459.019,625.309 450.519,631.642 444,640.5C 430.5,618.167 417,595.833 403.5,573.5C 437.551,572.702 471.217,568.702 504.5,561.5C 506.299,561.577 507.966,562.077 509.5,563C 520.782,574.621 532.948,585.121 546,594.5C 546.265,596.163 545.765,597.663 544.5,599C 549.027,601.543 552.194,605.376 554,610.5C 565.459,638.3 560.959,663.134 540.5,685C 534.687,690.075 528.354,694.408 521.5,698C 505.454,705.563 492.62,702.063 483,687.5C 480.383,682.817 478.883,677.817 478.5,672.5 Z"/></g>
<g><path style="opacity:1" fill="#1a1a1a" d="M 341.5,626.5 C 340.957,626.56 340.624,626.893 340.5,627.5C 342.415,637.065 343.749,646.732 344.5,656.5C 344.66,659.696 343.66,662.363 341.5,664.5C 336.277,662.889 331.277,660.723 326.5,658C 319.953,652.954 314.286,647.12 309.5,640.5C 307.682,644.136 305.849,647.802 304,651.5C 301.757,653.282 299.257,653.782 296.5,653C 288.502,649.673 284.835,643.673 285.5,635C 285.51,621.304 289.344,608.804 297,597.5C 303.059,590.276 309.559,583.609 316.5,577.5C 326.26,575.198 334.26,577.864 340.5,585.5C 341.079,580.029 342.246,574.696 344,569.5C 347.819,568.73 351.653,569.063 355.5,570.5C 348.17,588.493 343.503,607.16 341.5,626.5 Z"/></g>
<g><path style="opacity:1" fill="#d6d4d4" d="M 360.5,674.5 C 365.51,683.351 371.51,691.517 378.5,699C 384.877,703.189 391.544,706.855 398.5,710C 417.397,716.636 424.897,710.136 421,690.5C 413.14,671.699 409.307,652.032 409.5,631.5C 398.974,626.785 387.974,624.118 376.5,623.5C 367.747,622.705 360.081,625.039 353.5,630.5C 350.807,627.803 348.473,624.803 346.5,621.5C 349.911,604.187 354.411,587.187 360,570.5C 364.748,569.365 369.581,569.198 374.5,570C 381.807,570.95 389.14,571.617 396.5,572C 412.113,596.047 427.113,620.547 441.5,645.5C 435.945,660.017 436.445,674.35 443,688.5C 450.196,696.084 459.03,698.917 469.5,697C 472.713,696.394 475.713,695.227 478.5,693.5C 479.748,694.04 480.915,694.707 482,695.5C 480.68,711.111 480.346,726.777 481,742.5C 481.518,749.13 482.685,755.63 484.5,762C 484.095,762.945 483.428,763.612 482.5,764C 447.431,774.811 415.097,769.477 385.5,748C 370.855,738.357 359.355,725.857 351,710.5C 348.215,702.028 346.382,693.361 345.5,684.5C 351.705,682.903 356.705,679.569 360.5,674.5 Z"/></g>
<g><path style="opacity:1" fill="#141414" d="M 316.5,577.5 C 309.559,583.609 303.059,590.276 297,597.5C 289.344,608.804 285.51,621.304 285.5,635C 284.835,643.673 288.502,649.673 296.5,653C 299.257,653.782 301.757,653.282 304,651.5C 305.849,647.802 307.682,644.136 309.5,640.5C 314.286,647.12 319.953,652.954 326.5,658C 331.277,660.723 336.277,662.889 341.5,664.5C 343.66,662.363 344.66,659.696 344.5,656.5C 343.749,646.732 342.415,637.065 340.5,627.5C 340.624,626.893 340.957,626.56 341.5,626.5C 351.199,635.23 356.699,646.23 358,659.5C 359.809,668.085 356.976,674.585 349.5,679C 336.43,684.976 325.264,682.476 316,671.5C 315.5,670 315,668.5 314.5,667C 316.52,664.379 316.853,661.545 315.5,658.5C 312.756,662.751 309.422,666.585 305.5,670C 299.786,671.57 294.12,671.237 288.5,669C 276.97,657.72 273.47,644.22 278,628.5C 282.284,608.737 292.45,592.904 308.5,581C 310.818,579.007 313.484,577.841 316.5,577.5 Z"/></g>
<g><path style="opacity:1" fill="#1a1a1a" d="M 478.5,672.5 C 478.817,669.428 478.484,666.428 477.5,663.5C 474.915,671.11 474.915,678.777 477.5,686.5C 477.124,688.383 476.124,689.883 474.5,691C 467.964,693.968 461.297,694.301 454.5,692C 446.932,689.671 443.099,684.504 443,676.5C 438.427,654.149 446.26,637.982 466.5,628C 469.207,627.605 471.873,627.105 474.5,626.5C 477.416,626.107 480.083,625.107 482.5,623.5C 480.547,618.978 479.213,614.311 478.5,609.5C 477.54,601.691 480.873,598.024 488.5,598.5C 507.691,599.846 523.858,607.513 537,621.5C 540.657,627.305 542.824,633.638 543.5,640.5C 541.412,659.858 532.745,675.358 517.5,687C 514.134,688.879 510.8,688.879 507.5,687C 510.142,681.772 512.476,676.438 514.5,671C 513.5,670.333 512.5,670.333 511.5,671C 509.399,673.77 506.732,675.77 503.5,677C 494.205,679.94 485.872,678.44 478.5,672.5 Z"/></g>
<g><path style="opacity:1" fill="#1a1a1a" d="M 598.5,698.5 C 597.912,721.899 590.746,742.899 577,761.5C 565.289,772.94 551.456,780.607 535.5,784.5C 518.038,781.872 507.538,771.872 504,754.5C 503.302,747.265 502.468,740.098 501.5,733C 502.126,732.25 502.626,731.416 503,730.5C 508.809,736.106 515.809,738.772 524,738.5C 531.939,738.279 538.772,735.446 544.5,730C 552.225,722.272 558.391,713.439 563,703.5C 563.794,700.529 564.461,697.529 565,694.5C 565.418,681.971 566.251,669.471 567.5,657C 567.12,651.981 566.454,647.148 565.5,642.5C 564.922,628.765 561.588,615.765 555.5,603.5C 556.002,602.479 556.668,602.312 557.5,603C 571.596,617.015 581.763,633.515 588,652.5C 593.227,667.473 596.727,682.806 598.5,698.5 Z"/></g>
<g><path style="opacity:1" fill="#e6e6e6" d="M 360.5,674.5 C 363.083,665.193 362.917,655.859 360,646.5C 358.097,641.032 355.93,635.699 353.5,630.5C 360.081,625.039 367.747,622.705 376.5,623.5C 387.974,624.118 398.974,626.785 409.5,631.5C 409.307,652.032 413.14,671.699 421,690.5C 424.897,710.136 417.397,716.636 398.5,710C 391.544,706.855 384.877,703.189 378.5,699C 371.51,691.517 365.51,683.351 360.5,674.5 Z"/></g>
<g><path style="opacity:1" fill="#141414" d="M 565.5,642.5 C 566.454,647.148 567.12,651.981 567.5,657C 566.251,669.471 565.418,681.971 565,694.5C 564.461,697.529 563.794,700.529 563,703.5C 558.391,713.439 552.225,722.272 544.5,730C 538.772,735.446 531.939,738.279 524,738.5C 515.809,738.772 508.809,736.106 503,730.5C 502.626,731.416 502.126,732.25 501.5,733C 502.468,740.098 503.302,747.265 504,754.5C 507.538,771.872 518.038,781.872 535.5,784.5C 551.456,780.607 565.289,772.94 577,761.5C 590.746,742.899 597.912,721.899 598.5,698.5C 602.933,721.449 598.766,742.782 586,762.5C 585.175,764.701 585.675,766.534 587.5,768C 598.604,767.364 607.771,771.197 615,779.5C 618.98,786.624 623.814,793.124 629.5,799C 632.661,800.413 635.661,802.08 638.5,804C 634.952,805.941 631.286,807.607 627.5,809C 619.193,809.999 610.86,810.832 602.5,811.5C 601.423,814.474 601.423,817.474 602.5,820.5C 582.318,821.048 562.318,819.548 542.5,816C 513.218,805.719 494.718,785.552 487,755.5C 483.667,736.833 483.667,718.167 487,699.5C 491.793,704.268 497.627,706.601 504.5,706.5C 516.071,705.922 526.405,702.088 535.5,695C 552.137,681.903 561.637,664.736 564,643.5C 564.383,642.944 564.883,642.611 565.5,642.5 Z"/></g>
<g><path style="opacity:1" fill="#1a1a1a" d="M 787.5,677.5 C 783.628,689.244 778.128,700.244 771,710.5C 762.283,720.095 753.449,729.595 744.5,739C 710.903,758.851 674.903,766.517 636.5,762C 626.306,760.259 620.973,754.259 620.5,744C 621.979,734.728 623.979,725.561 626.5,716.5C 626.262,713.201 625.262,710.201 623.5,707.5C 624.949,706.828 626.282,706.161 627.5,705.5C 633.509,705.334 639.509,705.501 645.5,706C 665.31,710.379 685.31,711.379 705.5,709C 717.405,706.587 728.738,702.587 739.5,697C 746.283,691.221 753.616,686.221 761.5,682C 769.093,674.4 777.26,667.567 786,661.5C 786.945,661.905 787.612,662.572 788,663.5C 788.648,668.204 788.481,672.871 787.5,677.5 Z"/></g>
<g><path style="opacity:1" fill="#131313" d="M 350.5,718.5 C 349.043,720.242 347.876,722.242 347,724.5C 338.283,720.644 330.616,715.311 324,708.5C 322.417,720.502 325.084,731.502 332,741.5C 338.772,748.117 345.939,754.117 353.5,759.5C 338.303,758.317 327.136,750.984 320,737.5C 312.742,718.114 311.742,698.447 317,678.5C 323.898,685.032 332.065,687.698 341.5,686.5C 342.023,697.933 345.023,708.6 350.5,718.5 Z"/></g>
<g><path style="opacity:1" fill="#141414" d="M 787.5,677.5 C 785.944,702.342 777.777,724.676 763,744.5C 755.61,751.115 747.444,756.615 738.5,761C 724.3,765.467 709.966,769.467 695.5,773C 671.8,773.505 648.467,776.671 625.5,782.5C 624.5,782.333 623.5,782.167 622.5,782C 615.422,770.621 605.089,764.621 591.5,764C 601.563,746.917 606.229,728.417 605.5,708.5C 612.937,708.149 620.27,707.149 627.5,705.5C 626.282,706.161 624.949,706.828 623.5,707.5C 625.262,710.201 626.262,713.201 626.5,716.5C 623.979,725.561 621.979,734.728 620.5,744C 620.973,754.259 626.306,760.259 636.5,762C 674.903,766.517 710.903,758.851 744.5,739C 753.449,729.595 762.283,720.095 771,710.5C 778.128,700.244 783.628,689.244 787.5,677.5 Z"/></g>
<g><path style="opacity:1" fill="#1a1a1a" d="M 350.5,718.5 C 353.904,722.965 357.071,727.631 360,732.5C 365.289,737.867 370.789,742.867 376.5,747.5C 378.142,754.451 381.142,760.785 385.5,766.5C 382.554,767.655 379.554,767.821 376.5,767C 370.378,765.471 364.378,763.638 358.5,761.5C 356.95,760.559 355.284,759.893 353.5,759.5C 345.939,754.117 338.772,748.117 332,741.5C 325.084,731.502 322.417,720.502 324,708.5C 330.616,715.311 338.283,720.644 347,724.5C 347.876,722.242 349.043,720.242 350.5,718.5 Z"/></g>
<g><path style="opacity:1" fill="#141414" d="M 376.5,747.5 C 388.389,755.614 401.056,762.447 414.5,768C 415.749,770.21 415.582,772.376 414,774.5C 406.476,785.682 396.31,793.515 383.5,798C 375.218,799.923 366.885,801.59 358.5,803C 353.761,803.726 349.095,803.393 344.5,802C 346.809,799.513 349.476,797.513 352.5,796C 356.633,790.866 361.133,786.032 366,781.5C 366.612,779.763 365.946,778.763 364,778.5C 361.71,779.724 359.544,781.057 357.5,782.5C 358.172,779.658 359.506,777.158 361.5,775C 351.161,771.609 340.828,768.109 330.5,764.5C 331.932,762.673 333.599,761.006 335.5,759.5C 342.062,762.14 348.729,764.474 355.5,766.5C 356.442,766.392 357.275,766.059 358,765.5C 357.645,764.041 357.811,762.707 358.5,761.5C 364.378,763.638 370.378,765.471 376.5,767C 379.554,767.821 382.554,767.655 385.5,766.5C 381.142,760.785 378.142,754.451 376.5,747.5 Z"/></g>
<g><path style="opacity:1" fill="#1a1a1a" d="M 330.5,764.5 C 340.828,768.109 351.161,771.609 361.5,775C 359.506,777.158 358.172,779.658 357.5,782.5C 346.393,790.126 334.06,792.626 320.5,790C 315.177,788.923 310.677,786.423 307,782.5C 305.504,780.55 305.337,778.55 306.5,776.5C 315.084,773.541 323.084,769.541 330.5,764.5 Z"/></g>
<g><path style="opacity:1" fill="#1a1a1a" d="M 578.5,780.5 C 593.089,778.218 605.255,782.552 615,793.5C 615.688,794.332 615.521,794.998 614.5,795.5C 607.334,800.602 599.334,802.935 590.5,802.5C 590.692,805.601 591.358,808.601 592.5,811.5C 587.593,811.932 582.926,810.765 578.5,808C 572.243,803.287 566.076,798.454 560,793.5C 558.148,790.653 558.648,788.153 561.5,786C 567.137,783.682 572.803,781.849 578.5,780.5 Z"/></g>

        
<g><path style="opacity:0.992" fill="#181417" d="M 560.5,379.5 C 564.387,375.727 566.72,371.06 567.5,365.5C 569.686,364.177 571.186,362.177 572,359.5C 578.954,340.152 574.454,323.985 558.5,311C 545.232,303.032 531.232,296.699 516.5,292C 506.207,290.529 495.873,290.196 485.5,291C 479.383,293.373 473.05,294.706 466.5,295C 461.341,297.412 456.341,300.079 451.5,303C 444.575,308.38 437.742,313.88 431,319.5C 423.646,329.539 417.313,340.205 412,351.5C 411.012,369.022 416.845,383.856 429.5,396C 434.651,398.996 439.651,402.162 444.5,405.5C 446.713,407.86 449.379,409.694 452.5,411C 459.011,412.032 465.344,411.532 471.5,409.5C 472.107,409.624 472.44,409.957 472.5,410.5C 469.227,413.144 465.56,415.311 461.5,417C 456.665,417.586 451.999,416.92 447.5,415C 440.357,408.927 432.69,403.594 424.5,399C 421.121,394.41 417.621,389.91 414,385.5C 412.441,383.783 411.608,381.783 411.5,379.5C 411.291,378.078 410.791,376.745 410,375.5C 409.505,377.473 409.338,379.473 409.5,381.5C 406.726,398.056 397.392,403.556 381.5,398C 377.252,395.757 373.586,392.757 370.5,389C 368.246,387.349 365.912,387.182 363.5,388.5C 358.442,397.689 350.775,400.856 340.5,398C 336.532,397.036 333.365,394.869 331,391.5C 328.383,383.698 326.716,375.698 326,367.5C 325.461,370.529 324.794,373.529 324,376.5C 317.405,391.893 308.238,405.393 296.5,417C 294.598,418.796 292.598,418.963 290.5,417.5C 293.117,412.886 296.117,408.553 299.5,404.5C 300.189,405.774 301.023,405.774 302,404.5C 307.333,395.833 312.667,387.167 318,378.5C 321.248,370.808 322.248,362.808 321,354.5C 313.81,339.274 303.643,326.441 290.5,316C 283.789,313.765 277.456,310.765 271.5,307C 246.755,303.29 227.921,312.123 215,333.5C 207.453,345.776 204.286,359.11 205.5,373.5C 205.294,376.495 205.96,379.162 207.5,381.5C 207.878,383.921 208.545,386.254 209.5,388.5C 208.116,389.801 206.616,389.801 205,388.5C 196.903,365.733 199.903,344.399 214,324.5C 214.811,302.71 223.644,285.21 240.5,272C 247.094,267.201 254.428,264.368 262.5,263.5C 267.334,263.944 272.001,265.11 276.5,267C 305.719,288.241 323.719,316.741 330.5,352.5C 330.821,354.048 331.821,354.715 333.5,354.5C 344.853,360.061 356.853,363.394 369.5,364.5C 379.284,361.745 389.284,360.245 399.5,360C 396.14,347.665 395.64,335.165 398,322.5C 400.262,313.712 402.929,305.046 406,296.5C 409.946,290.221 414.279,284.221 419,278.5C 434.232,264.13 452.065,254.297 472.5,249C 492.538,243.576 511.538,245.909 529.5,256C 538.534,261.893 545.367,269.726 550,279.5C 554.515,287.881 558.348,296.548 561.5,305.5C 584.461,325.683 587.628,348.683 571,374.5C 569.5,376 568,377.5 566.5,379C 564.527,379.495 562.527,379.662 560.5,379.5 Z"/></g>
<g><path style="opacity:1" fill="#6e1b68" d="M 529.5,262.5 C 532.167,265.833 535.167,268.833 538.5,271.5C 544.711,280.92 549.544,290.92 553,301.5C 524.317,282.89 493.817,279.39 461.5,291C 454.299,294.098 447.965,298.431 442.5,304C 436.129,307.365 430.629,311.865 426,317.5C 418.399,328.107 412.065,339.441 407,351.5C 406.457,356.243 406.457,360.91 407,365.5C 404.135,360.234 402.469,354.567 402,348.5C 400.813,331.241 403.479,314.574 410,298.5C 423.165,279.316 440.665,265.483 462.5,257C 485.869,247.939 508.203,249.772 529.5,262.5 Z"/></g>
<g><path style="opacity:1" fill="#341231" d="M 529.5,262.5 C 533.5,264.5 536.5,267.5 538.5,271.5C 535.167,268.833 532.167,265.833 529.5,262.5 Z"/></g>
<g><path style="opacity:1" fill="#6e1b68" d="M 254.5,269.5 C 261.221,268.751 267.554,269.918 273.5,273C 298.388,291.387 314.721,315.554 322.5,345.5C 321.5,345.5 320.5,345.5 319.5,345.5C 319.116,341.396 317.616,337.729 315,334.5C 309.501,328.025 304.001,321.525 298.5,315C 289.756,309.294 280.422,304.628 270.5,301C 255.52,298.908 241.52,301.908 228.5,310C 225.667,312.833 222.833,315.667 220,318.5C 219.333,316.167 219.333,313.833 220,311.5C 224.55,299.238 231.05,288.072 239.5,278C 245.21,276.153 250.21,273.319 254.5,269.5 Z"/></g>
<g><path style="opacity:1" fill="#f5f3e7" d="M 567.5,365.5 C 563.649,360.486 558.983,356.319 553.5,353C 543.606,346.886 533.272,341.552 522.5,337C 465.992,324.661 439.992,347.494 444.5,405.5C 439.651,402.162 434.651,398.996 429.5,396C 416.845,383.856 411.012,369.022 412,351.5C 417.313,340.205 423.646,329.539 431,319.5C 437.742,313.88 444.575,308.38 451.5,303C 456.341,300.079 461.341,297.412 466.5,295C 473.05,294.706 479.383,293.373 485.5,291C 495.873,290.196 506.207,290.529 516.5,292C 531.232,296.699 545.232,303.032 558.5,311C 574.454,323.985 578.954,340.152 572,359.5C 571.186,362.177 569.686,364.177 567.5,365.5 Z"/></g>
<g><path style="opacity:1" fill="#f4f3e6" d="M 299.5,404.5 C 302.394,391.294 300.228,378.96 293,367.5C 289.193,362.059 285.027,356.892 280.5,352C 271.732,343.889 261.398,340.889 249.5,343C 229.362,346.966 215.362,358.466 207.5,377.5C 206.833,376.167 206.167,374.833 205.5,373.5C 204.286,359.11 207.453,345.776 215,333.5C 227.921,312.123 246.755,303.29 271.5,307C 277.456,310.765 283.789,313.765 290.5,316C 303.643,326.441 313.81,339.274 321,354.5C 322.248,362.808 321.248,370.808 318,378.5C 312.667,387.167 307.333,395.833 302,404.5C 301.023,405.774 300.189,405.774 299.5,404.5 Z"/></g>
<g><path style="opacity:1" fill="#6f1c69" d="M 567.5,365.5 C 566.72,371.06 564.387,375.727 560.5,379.5C 555.42,379.25 550.42,379.75 545.5,381C 531.312,384.729 517.312,389.063 503.5,394C 492.51,398.492 482.176,403.992 472.5,410.5C 472.44,409.957 472.107,409.624 471.5,409.5C 465.344,411.532 459.011,412.032 452.5,411C 449.379,409.694 446.713,407.86 444.5,405.5C 439.992,347.494 465.992,324.661 522.5,337C 533.272,341.552 543.606,346.886 553.5,353C 558.983,356.319 563.649,360.486 567.5,365.5 Z"/></g>
<g><path style="opacity:1" fill="#6f1c69" d="M 299.5,404.5 C 296.117,408.553 293.117,412.886 290.5,417.5C 280.354,412.929 271.02,407.096 262.5,400C 246.099,390.353 228.432,386.52 209.5,388.5C 208.545,386.254 207.878,383.921 207.5,381.5C 207.5,380.167 207.5,378.833 207.5,377.5C 215.362,358.466 229.362,346.966 249.5,343C 261.398,340.889 271.732,343.889 280.5,352C 285.027,356.892 289.193,362.059 293,367.5C 300.228,378.96 302.394,391.294 299.5,404.5 Z"/></g>
<g><path style="opacity:0.573" fill="#83827b" d="M 330.5,352.5 C 331.71,352.932 332.71,353.599 333.5,354.5C 331.821,354.715 330.821,354.048 330.5,352.5 Z"/></g>
<g><path style="opacity:1" fill="#6e1b68" d="M 329.5,358.5 C 340.896,364.687 353.062,368.354 366,369.5C 374.961,368.124 383.961,367.124 393,366.5C 398.609,365.552 402.442,367.552 404.5,372.5C 406.973,380.27 405.306,386.937 399.5,392.5C 393.208,396.306 386.875,396.14 380.5,392C 377.007,386.991 372.34,383.824 366.5,382.5C 363.972,382.763 361.639,383.596 359.5,385C 357.481,388.014 355.148,390.68 352.5,393C 344.85,395.304 339.017,393.138 335,386.5C 333.419,377.08 331.586,367.746 329.5,358.5 Z"/></g>
<g><path style="opacity:1" fill="#9e8095" d="M 205.5,373.5 C 206.167,374.833 206.833,376.167 207.5,377.5C 207.5,378.833 207.5,380.167 207.5,381.5C 205.96,379.162 205.294,376.495 205.5,373.5 Z"/></g>
<g><path style="opacity:0.008" fill="#92928a" d="M 411.5,379.5 C 410.833,380.167 410.167,380.833 409.5,381.5C 409.338,379.473 409.505,377.473 410,375.5C 410.791,376.745 411.291,378.078 411.5,379.5 Z"/></g>
<g><path style="opacity:0.005" fill="#000000" d="M 226.5,392.5 C 227.386,391.224 228.386,391.224 229.5,392.5C 228.575,393.562 227.575,393.562 226.5,392.5 Z"/></g>
<g><path style="opacity:0.004" fill="#000000" d="M 212.5,393.5 C 212.897,392.475 213.563,392.308 214.5,393C 213.906,393.464 213.239,393.631 212.5,393.5 Z"/></g>

        
<g><path style="opacity:0.983" fill="#212120" d="M 592.5,349.5 C 591.89,348.609 591.557,347.609 591.5,346.5C 599.093,346.538 605.593,349.538 611,355.5C 613.002,360.007 614.502,364.674 615.5,369.5C 615.02,373.293 613.353,376.46 610.5,379C 604.352,382.078 598.019,384.578 591.5,386.5C 585.054,385.936 578.72,384.77 572.5,383C 564.833,382.333 557.167,382.333 549.5,383C 541.284,384.787 533.618,387.62 526.5,391.5C 526.631,390.624 526.298,389.957 525.5,389.5C 524.261,389.942 523.261,390.609 522.5,391.5C 521.791,392.404 520.791,392.737 519.5,392.5C 515.838,392.723 512.505,393.723 509.5,395.5C 506.759,395.707 504.426,396.707 502.5,398.5C 502.158,399.338 501.492,399.672 500.5,399.5C 495.914,400.46 491.914,402.46 488.5,405.5C 488.158,406.338 487.492,406.672 486.5,406.5C 484.973,406.427 483.973,407.094 483.5,408.5C 481.326,408.75 479.659,409.75 478.5,411.5C 477.167,411.5 476.5,412.167 476.5,413.5C 475.878,414.627 475.045,415.627 474,416.5C 472.951,415.483 471.784,415.316 470.5,416C 465.147,418.701 459.814,421.368 454.5,424C 422.871,431.862 391.038,433.695 359,429.5C 340.208,432.375 321.708,431.042 303.5,425.5C 300.905,426.237 298.238,426.237 295.5,425.5C 295.953,424.542 296.619,423.708 297.5,423C 296.906,422.536 296.239,422.369 295.5,422.5C 291.703,422.128 288.37,420.794 285.5,418.5C 282.485,416.326 279.151,414.659 275.5,413.5C 274.415,411.413 272.749,410.08 270.5,409.5C 269.508,409.672 268.842,409.338 268.5,408.5C 268.027,407.094 267.027,406.427 265.5,406.5C 264.352,403.913 262.685,402.913 260.5,403.5C 251.198,397.055 240.864,392.722 229.5,390.5C 219.197,391.724 208.863,392.224 198.5,392C 183.151,388.16 174.651,378.326 173,362.5C 172.333,357.833 172.333,353.167 173,348.5C 173.036,346.059 173.869,344.059 175.5,342.5C 176.086,342.709 176.586,343.043 177,343.5C 176.529,354.347 178.529,364.681 183,374.5C 188.543,381.974 196.043,385.974 205.5,386.5C 232.733,382.303 256.733,389.137 277.5,407C 291.297,414.71 305.964,420.044 321.5,423C 345.953,423.754 370.453,424.587 395,425.5C 414.476,425.449 433.642,422.949 452.5,418C 469.5,409 486.5,400 503.5,391C 518.586,385.527 533.92,380.86 549.5,377C 557.5,376.333 565.5,376.333 573.5,377C 580.063,378.986 586.73,379.986 593.5,380C 597.749,377.806 602.082,375.806 606.5,374C 607.872,372.758 608.872,371.258 609.5,369.5C 608.098,365.461 606.598,361.461 605,357.5C 600.684,354.934 596.517,352.267 592.5,349.5 Z"/></g>
<g><path style="opacity:0.231" fill="#9b9b93" d="M 591.5,346.5 C 591.557,347.609 591.89,348.609 592.5,349.5C 590.448,348.947 590.115,347.947 591.5,346.5 Z"/></g>
<g><path style="opacity:0.012" fill="#b3b2a9" d="M 526.5,391.5 C 525.472,391.926 524.139,391.926 522.5,391.5C 523.261,390.609 524.261,389.942 525.5,389.5C 526.298,389.957 526.631,390.624 526.5,391.5 Z"/></g>
<g><path style="opacity:0.149" fill="#d6d5ca" d="M 519.5,392.5 C 516.495,394.277 513.162,395.277 509.5,395.5C 512.505,393.723 515.838,392.723 519.5,392.5 Z"/></g>
<g><path style="opacity:0.196" fill="#d2d1c6" d="M 509.5,395.5 C 507.574,397.293 505.241,398.293 502.5,398.5C 504.426,396.707 506.759,395.707 509.5,395.5 Z"/></g>
<g><path style="opacity:0.294" fill="#a8a79f" d="M 260.5,403.5 C 262.685,402.913 264.352,403.913 265.5,406.5C 263.589,405.925 261.922,404.925 260.5,403.5 Z"/></g>
<g><path style="opacity:0.173" fill="#d8d7cc" d="M 500.5,399.5 C 496.818,402.008 492.818,404.008 488.5,405.5C 491.914,402.46 495.914,400.46 500.5,399.5 Z"/></g>
<g><path style="opacity:0.235" fill="#d1d0c5" d="M 265.5,406.5 C 267.027,406.427 268.027,407.094 268.5,408.5C 266.973,408.573 265.973,407.906 265.5,406.5 Z"/></g>
<g><path style="opacity:0.141" fill="#dfded2" d="M 486.5,406.5 C 486.027,407.906 485.027,408.573 483.5,408.5C 483.973,407.094 484.973,406.427 486.5,406.5 Z"/></g>
<g><path style="opacity:0.067" fill="#d3d2c7" d="M 483.5,408.5 C 482.341,410.25 480.674,411.25 478.5,411.5C 479.659,409.75 481.326,408.75 483.5,408.5 Z"/></g>
<g><path style="opacity:0.012" fill="#d5d4c9" d="M 478.5,411.5 C 478.167,412.5 477.5,413.167 476.5,413.5C 476.5,412.167 477.167,411.5 478.5,411.5 Z"/></g>
<g><path style="opacity:0.322" fill="#b9b8af" d="M 270.5,409.5 C 272.749,410.08 274.415,411.413 275.5,413.5C 273.251,412.92 271.585,411.587 270.5,409.5 Z"/></g>
<g><path style="opacity:0.196" fill="#d0d0c5" d="M 275.5,413.5 C 279.151,414.659 282.485,416.326 285.5,418.5C 281.58,417.873 278.247,416.207 275.5,413.5 Z"/></g>
<g><path style="opacity:0.027" fill="#d9d8cd" d="M 295.5,422.5 C 296.239,422.369 296.906,422.536 297.5,423C 296.619,423.708 295.953,424.542 295.5,425.5C 294.375,424.652 294.375,423.652 295.5,422.5 Z"/></g>

        
<g><path style="opacity:0.995" fill="#1c1c1b" d="M 307.5,214.5 C 308.002,216.085 309.002,216.585 310.5,216C 309.934,215.005 309.267,214.172 308.5,213.5C 299.902,191.41 300.736,169.743 311,148.5C 322.522,132.273 327.855,133.94 327,153.5C 327.714,156.595 328.714,159.595 330,162.5C 335.333,171.167 340.667,179.833 346,188.5C 341.215,161.413 349.049,138.913 369.5,121C 370.793,120.51 372.127,120.343 373.5,120.5C 374.829,127.793 375.995,135.127 377,142.5C 380.222,149.499 382.222,156.833 383,164.5C 385.41,170.318 388.077,175.985 391,181.5C 397.794,189.963 404.961,198.13 412.5,206C 415.772,207.608 418.772,209.608 421.5,212C 431.547,215.509 441.88,217.842 452.5,219C 453.846,221.794 453.346,224.294 451,226.5C 428.926,226.652 407.76,231.152 387.5,240C 377.184,246.129 370.351,254.962 367,266.5C 358.544,273.768 348.71,277.934 337.5,279C 289.856,282.691 268.69,260.858 274,213.5C 276.226,202.052 280.393,191.385 286.5,181.5C 287.651,180.269 288.817,180.269 290,181.5C 292.172,194.514 298.005,205.514 307.5,214.5 Z"/></g>
<g><path style="opacity:1" fill="#dcdbce" d="M 371.5,145.5 C 370.883,145.611 370.383,145.944 370,146.5C 369.751,145.376 369.251,144.376 368.5,143.5C 363.262,150.262 360.095,157.929 359,166.5C 358.389,179.845 358.556,193.178 359.5,206.5C 352.856,206.243 346.523,204.743 340.5,202C 332.86,191.218 325.86,180.051 319.5,168.5C 315.654,173.496 314.488,179.162 316,185.5C 318.255,198.521 321.755,211.188 326.5,223.5C 325.696,225.136 324.696,226.636 323.5,228C 318.833,228.667 314.167,228.667 309.5,228C 302.456,224.596 295.456,221.096 288.5,217.5C 287.122,224.294 287.622,230.96 290,237.5C 293.412,244.658 297.078,251.658 301,258.5C 305.31,262.645 309.477,266.978 313.5,271.5C 318.11,272.493 322.777,273.16 327.5,273.5C 301.094,275.527 284.927,263.527 279,237.5C 276.762,221.795 279.596,207.129 287.5,193.5C 291.671,203.845 298.004,212.678 306.5,220C 310.275,222.351 313.608,221.851 316.5,218.5C 313.264,213.631 311.097,208.297 310,202.5C 307.722,190.183 307.388,177.85 309,165.5C 311.037,157.755 314.87,151.088 320.5,145.5C 322.091,155.767 325.591,165.434 331,174.5C 335.454,179.628 339.121,185.295 342,191.5C 344.247,194.509 346.581,194.842 349,192.5C 349.899,181.514 350.566,170.514 351,159.5C 353.401,147.369 359.401,137.369 369,129.5C 370.234,134.767 371.067,140.1 371.5,145.5 Z"/></g>
<g><path style="opacity:1" fill="#f5f4e7" d="M 371.5,145.5 C 374.821,152.817 376.987,160.484 378,168.5C 380,173.167 382,177.833 384,182.5C 389.814,188.802 395.147,195.468 400,202.5C 410.041,214.534 422.875,221.367 438.5,223C 418.956,223.801 400.623,228.801 383.5,238C 379.033,241.465 374.867,245.298 371,249.5C 370.055,245.886 369.388,242.219 369,238.5C 368.311,237.643 367.478,236.977 366.5,236.5C 365.669,243.476 365.169,250.476 365,257.5C 364.3,261.066 362.467,263.9 359.5,266C 349.492,271.336 338.825,273.836 327.5,273.5C 322.777,273.16 318.11,272.493 313.5,271.5C 309.477,266.978 305.31,262.645 301,258.5C 297.078,251.658 293.412,244.658 290,237.5C 287.622,230.96 287.122,224.294 288.5,217.5C 295.456,221.096 302.456,224.596 309.5,228C 314.167,228.667 318.833,228.667 323.5,228C 324.696,226.636 325.696,225.136 326.5,223.5C 321.755,211.188 318.255,198.521 316,185.5C 314.488,179.162 315.654,173.496 319.5,168.5C 325.86,180.051 332.86,191.218 340.5,202C 346.523,204.743 352.856,206.243 359.5,206.5C 358.556,193.178 358.389,179.845 359,166.5C 360.095,157.929 363.262,150.262 368.5,143.5C 369.251,144.376 369.751,145.376 370,146.5C 370.383,145.944 370.883,145.611 371.5,145.5 Z"/></g>
<g><path style="opacity:1" fill="#84847d" d="M 308.5,213.5 C 309.267,214.172 309.934,215.005 310.5,216C 309.002,216.585 308.002,216.085 307.5,214.5C 308.167,214.5 308.5,214.167 308.5,213.5 Z"/></g>

    </svg>
