
    <svg width="862" height="862" viewBox="0 0 862 862" fill="none" xmlns="http://www.w3.org/2000/svg">
        
<g><path style="opacity:1" fill="#f6f6e8" d="M -0.5,-0.5 C 286.833,-0.5 574.167,-0.5 861.5,-0.5C 861.5,286.833 861.5,574.167 861.5,861.5C 574.167,861.5 286.833,861.5 -0.5,861.5C -0.5,574.167 -0.5,286.833 -0.5,-0.5 Z"/></g>

        
<g><path style="opacity:0.983" fill="#1a1a19" d="M 578.5,540.5 C 583.993,540.916 589.326,542.082 594.5,544C 599.237,547.614 603.403,551.781 607,556.5C 613.977,570.057 616.311,584.39 614,599.5C 611.931,603.236 608.931,605.903 605,607.5C 603.018,607.01 601.351,606.01 600,604.5C 594.275,609.717 588.442,609.717 582.5,604.5C 577.923,613.337 572.256,614.337 565.5,607.5C 561.53,612.973 556.196,614.806 549.5,613C 548.299,612.097 547.465,610.931 547,609.5C 541.931,617.452 536.764,617.452 531.5,609.5C 527.737,613.765 523.737,617.932 519.5,622C 516.106,622.752 512.773,622.585 509.5,621.5C 508.194,620.088 507.36,618.421 507,616.5C 505.425,609.568 504.258,602.568 503.5,595.5C 504.335,583.317 510.669,578.317 522.5,580.5C 523.795,579.902 525.128,579.402 526.5,579C 535.197,570.637 543.531,561.97 551.5,553C 559.592,546.617 568.592,542.45 578.5,540.5 Z"/></g>
<g><path style="opacity:1" fill="#d9d8cb" d="M 587.5,601.5 C 588.496,601.586 589.329,601.252 590,600.5C 592.94,596.545 595.94,592.545 599,588.5C 599.37,579.339 598.37,570.339 596,561.5C 591.36,554.156 584.693,549.822 576,548.5C 573.538,549.159 571.038,549.493 568.5,549.5C 581.297,543.74 592.13,546.407 601,557.5C 608.853,570.951 611.186,585.285 608,600.5C 606.604,602.527 604.938,602.86 603,601.5C 602.091,598.089 601.091,594.755 600,591.5C 598.35,595.573 596.516,599.573 594.5,603.5C 591.584,604.861 589.251,604.195 587.5,601.5 Z"/></g>
<g><path style="opacity:1" fill="#f4f3e6" d="M 587.5,601.5 C 585.433,599.682 584.1,597.349 583.5,594.5C 582.635,593.417 581.635,593.251 580.5,594C 579.955,598.074 578.621,601.907 576.5,605.5C 574.878,607.439 573.044,607.772 571,606.5C 568.863,602.486 567.03,598.486 565.5,594.5C 564.522,594.977 563.689,595.643 563,596.5C 563.284,605.334 559.118,609.667 550.5,609.5C 550.348,605.228 549.348,601.228 547.5,597.5C 545.179,600.394 544.012,603.727 544,607.5C 541.618,612.067 538.951,612.4 536,608.5C 535.887,606.026 534.887,604.026 533,602.5C 527.856,607.313 523.023,612.48 518.5,618C 516.098,618.814 513.765,618.647 511.5,617.5C 508.811,609.37 507.645,601.036 508,592.5C 508.668,588.501 510.835,585.668 514.5,584C 518.801,584.363 523.134,584.363 527.5,584C 529.167,583 530.833,582 532.5,581C 540.864,572.97 548.864,564.637 556.5,556C 560.367,553.567 564.367,551.4 568.5,549.5C 571.038,549.493 573.538,549.159 576,548.5C 584.693,549.822 591.36,554.156 596,561.5C 598.37,570.339 599.37,579.339 599,588.5C 595.94,592.545 592.94,596.545 590,600.5C 589.329,601.252 588.496,601.586 587.5,601.5 Z"/></g>
<g><path style="opacity:0.982" fill="#191918" d="M 290.5,554.5 C 298.253,554.104 305.92,554.604 313.5,556C 315.5,557.333 317.5,558.667 319.5,560C 322.228,566.042 326.895,569.709 333.5,571C 335.378,572.543 336.878,574.376 338,576.5C 338.242,583.196 338.742,589.862 339.5,596.5C 339.461,598.587 338.461,599.921 336.5,600.5C 332.274,599.93 328.108,599.263 324,598.5C 322.5,600 321,601.5 319.5,603C 317.287,603.626 315.12,603.459 313,602.5C 306.564,605.689 301.23,604.356 297,598.5C 284.481,607.161 276.648,603.994 273.5,589C 271.944,573.778 277.611,562.278 290.5,554.5 Z"/></g>
<g><path style="opacity:1" fill="#f4f3e6" d="M 334.5,587.5 C 334.5,590.167 334.5,592.833 334.5,595.5C 333.167,595.5 331.833,595.5 330.5,595.5C 327.482,595.335 324.482,595.502 321.5,596C 320.022,598.039 318.022,598.872 315.5,598.5C 315.5,597.5 315.5,596.5 315.5,595.5C 312.326,596.015 309.326,597.015 306.5,598.5C 305.5,598.333 304.5,598.167 303.5,598C 301.441,595.366 299.275,592.866 297,590.5C 296.292,591.381 295.458,592.047 294.5,592.5C 290.404,593.285 287.07,592.118 284.5,589C 284.833,588.667 285.167,588.333 285.5,588C 283.667,587.5 282.5,586.333 282,584.5C 281.501,580.179 281.334,575.846 281.5,571.5C 281.709,570.078 282.209,568.745 283,567.5C 286.167,565 289.333,562.5 292.5,560C 298.167,559.333 303.833,559.333 309.5,560C 314.42,562.916 318.753,566.582 322.5,571C 326.232,572.461 329.732,574.294 333,576.5C 333.936,580.114 334.436,583.78 334.5,587.5 Z"/></g>
<g><path style="opacity:1" fill="#d7d6c9" d="M 281.5,571.5 C 281.334,575.846 281.501,580.179 282,584.5C 282.5,586.333 283.667,587.5 285.5,588C 285.167,588.333 284.833,588.667 284.5,589C 287.07,592.118 290.404,593.285 294.5,592.5C 293.641,595.452 291.641,597.285 288.5,598C 285.364,599.041 282.864,598.207 281,595.5C 279.409,588.608 279.076,581.608 280,574.5C 280.232,573.263 280.732,572.263 281.5,571.5 Z"/></g>
<g><path style="opacity:1" fill="#64635e" d="M 334.5,587.5 C 335.477,590.287 335.81,593.287 335.5,596.5C 333.585,596.784 331.919,596.451 330.5,595.5C 331.833,595.5 333.167,595.5 334.5,595.5C 334.5,592.833 334.5,590.167 334.5,587.5 Z"/></g>

        
<g><path style="opacity:0.996" fill="#150e09" d="M 614.5,157.5 C 614.34,155.847 613.674,154.514 612.5,153.5C 612.5,154.5 612.5,155.5 612.5,156.5C 609.072,156.547 606.072,157.713 603.5,160C 588.1,175.301 578.933,193.801 576,215.5C 575.099,235.825 574.433,256.159 574,276.5C 558.53,280.267 542.697,283.267 526.5,285.5C 504.327,281.329 485.494,270.996 470,254.5C 471.165,217.843 480.165,183.176 497,150.5C 511.833,126.333 531.333,106.833 555.5,92C 567.772,85.3257 580.772,82.4924 594.5,83.5C 605.911,85.6861 617.244,88.5194 628.5,92C 652.948,101.96 673.448,117.126 690,137.5C 704.876,159.136 711.876,183.136 711,209.5C 701.117,232.022 684.284,239.856 660.5,233C 649.358,228.015 639.525,221.182 631,212.5C 628.746,208.993 626.746,205.327 625,201.5C 623.375,186.337 619.875,171.67 614.5,157.5 Z"/></g>
<g><path style="opacity:1" fill="#916340" d="M 599.5,127.5 C 597.316,128.266 594.982,128.933 592.5,129.5C 591.483,126.972 590.316,126.972 589,129.5C 587.984,128.366 587.317,128.699 587,130.5C 586,130.5 585,130.5 584,130.5C 583.935,132.883 583.102,133.55 581.5,132.5C 580.667,133.5 579.833,134.5 579,135.5C 578.667,135.167 578.333,134.833 578,134.5C 576.812,135.563 576.312,136.897 576.5,138.5C 573.645,139.834 571.145,141.834 569,144.5C 567.434,143.939 566.101,144.606 565,146.5C 563.858,150.983 561.192,154.316 557,156.5C 554.798,161.876 551.631,167.042 547.5,172C 547.957,172.414 548.291,172.914 548.5,173.5C 545.183,178.009 543.016,182.675 542,187.5C 540.933,188.191 539.766,188.691 538.5,189C 538.833,190 539.167,191 539.5,192C 537.622,194.805 535.955,197.472 534.5,200C 535.022,202.289 534.355,204.456 532.5,206.5C 534.658,208.026 534.325,209.526 531.5,211C 533.973,212.402 533.973,213.902 531.5,215.5C 532.002,216.716 532.335,217.883 532.5,219C 531.833,219.667 531.167,220.333 530.5,221C 530.673,223.407 530.673,225.74 530.5,228C 532.891,229.309 532.891,230.309 530.5,231C 530.784,232.956 530.784,235.123 530.5,237.5C 531.5,237.5 532.5,237.5 533.5,237.5C 533.374,239.2 532.707,240.7 531.5,242C 531.862,243.225 532.362,244.391 533,245.5C 533.451,243.071 534.285,242.904 535.5,245C 534.167,246.84 534.334,247.34 536,246.5C 536.923,247.759 537.757,249.092 538.5,250.5C 539.086,250.291 539.586,249.957 540,249.5C 541.266,252.72 543.433,255.053 546.5,256.5C 547.675,255.145 548.675,255.312 549.5,257C 547.099,257.805 547.266,258.638 550,259.5C 550.308,258.692 550.808,258.025 551.5,257.5C 553.702,258.78 555.868,258.78 558,257.5C 559.402,259.973 560.902,259.973 562.5,257.5C 564.07,257.694 565.57,257.694 567,257.5C 567.374,255.509 568.207,253.842 569.5,252.5C 569.828,257.875 569.495,263.208 568.5,268.5C 567.833,269.5 567.167,270.5 566.5,271.5C 553.09,275.077 539.423,277.411 525.5,278.5C 518.961,277.826 512.628,276.326 506.5,274C 500.998,270.415 495.331,267.081 489.5,264C 484.167,260 478.833,256 473.5,252C 476.34,217.51 485.84,184.677 502,153.5C 514.078,134.19 529.245,117.69 547.5,104C 556.076,98.7507 565.076,94.4174 574.5,91C 595.457,88.4259 615.457,91.7592 634.5,101C 656.299,111.474 674.466,126.307 689,145.5C 700.978,164.047 706.645,184.381 706,206.5C 698.489,225.673 684.656,232.84 664.5,228C 656.671,223.92 649.004,219.587 641.5,215C 636.813,210.457 632.98,205.291 630,199.5C 628.287,186.645 625.62,173.978 622,161.5C 616.923,150.347 611.59,139.347 606,128.5C 602.819,123.839 598.652,120.506 593.5,118.5C 588.002,119.338 586.335,122.338 588.5,127.5C 589.138,125.03 590.638,123.363 593,122.5C 595.341,124.016 597.508,125.683 599.5,127.5 Z"/></g>
<g><path style="opacity:0.995" fill="#160e0a" d="M 163.5,95.5 C 174.943,95.0349 186.276,95.8682 197.5,98C 206.481,102.314 212.648,109.147 216,118.5C 229.057,133.622 241.39,149.288 253,165.5C 265.57,190.976 278.903,215.976 293,240.5C 293.667,245.5 293.667,250.5 293,255.5C 290.064,261.222 287.731,267.222 286,273.5C 279.349,283.819 270.516,291.652 259.5,297C 250.619,299.831 241.619,300.165 232.5,298C 229.993,297.907 227.826,297.074 226,295.5C 225.647,294.328 225.813,293.162 226.5,292C 222.493,281.47 219.659,270.637 218,259.5C 212.471,246.581 207.138,233.581 202,220.5C 195.527,207.228 186.86,195.562 176,185.5C 176.125,192.254 177.125,198.921 179,205.5C 181.447,214.866 184.28,224.033 187.5,233C 187.344,237.136 186.177,240.969 184,244.5C 179.5,249 175,253.5 170.5,258C 152.753,266.41 135.086,266.41 117.5,258C 100.412,242.239 93.745,222.739 97.5,199.5C 97.6667,194.5 97.8333,189.5 98,184.5C 100.239,173.19 102.239,161.856 104,150.5C 109.333,141.167 114.667,131.833 120,122.5C 125.727,112.775 133.894,105.941 144.5,102C 150.979,99.8968 157.313,97.7301 163.5,95.5 Z"/></g>
<g><path style="opacity:1" fill="#916340" d="M 227.5,277.5 C 228.234,274.224 230.067,273.558 233,275.5C 235.188,275.646 236.521,274.646 237,272.5C 237.333,272.833 237.667,273.167 238,273.5C 239.631,270.965 241.465,268.632 243.5,266.5C 242.975,265.808 242.308,265.308 241.5,265C 243.592,264.047 243.925,262.714 242.5,261C 243.448,260.517 244.448,260.351 245.5,260.5C 245.5,256.5 245.5,252.5 245.5,248.5C 241.901,248.738 241.567,247.738 244.5,245.5C 243.519,241.687 241.519,238.52 238.5,236C 239.337,234.989 239.67,233.822 239.5,232.5C 238.448,232.649 237.448,232.483 236.5,232C 235.761,230.235 235.761,228.235 236.5,226C 235.286,223.309 233.452,221.142 231,219.5C 230.122,216.291 228.789,213.291 227,210.5C 226.086,211.654 225.253,211.487 224.5,210C 224.957,209.586 225.291,209.086 225.5,208.5C 224.5,207.167 223.5,205.833 222.5,204.5C 222.709,203.914 223.043,203.414 223.5,203C 221.651,201.907 219.984,200.574 218.5,199C 219.517,197.951 219.684,196.784 219,195.5C 218.667,196.167 218.333,196.833 218,197.5C 214.974,193.744 212.641,190.077 211,186.5C 210.667,186.833 210.333,187.167 210,187.5C 208.983,184.151 206.983,182.817 204,183.5C 203.03,180.179 200.863,178.513 197.5,178.5C 197.881,176.058 197.214,175.391 195.5,176.5C 191.168,175.679 188.001,173.346 186,169.5C 184.16,170.833 183.66,170.666 184.5,169C 182.658,169.068 180.991,168.901 179.5,168.5C 181.785,164.729 184.451,164.562 187.5,168C 188.893,169.171 189.727,170.671 190,172.5C 190.868,168.328 189.368,165.162 185.5,163C 179.756,161.394 175.756,163.394 173.5,169C 170.737,175.576 169.903,182.409 171,189.5C 172.522,203.889 176.356,217.556 182.5,230.5C 182.132,233.638 181.299,236.638 180,239.5C 175.167,244.333 170.333,249.167 165.5,254C 153.745,258.295 141.745,259.295 129.5,257C 117.962,252.46 110.129,244.294 106,232.5C 105.178,230.212 104.511,227.878 104,225.5C 103.587,214.996 103.087,204.496 102.5,194C 104.333,180.833 106.167,167.666 108,154.5C 113.667,144.5 119.333,134.5 125,124.5C 133.932,112.607 145.766,105.107 160.5,102C 172.222,99.9025 183.889,100.236 195.5,103C 198.912,104.455 202.079,106.288 205,108.5C 207.397,113.627 210.064,118.627 213,123.5C 224.381,137.213 235.381,151.213 246,165.5C 259.505,192.514 273.505,219.18 288,245.5C 286.646,267.536 275.812,283.036 255.5,292C 247.571,293.363 239.571,293.863 231.5,293.5C 230.167,288.167 228.833,282.833 227.5,277.5 Z"/></g>
<g><path style="opacity:1" fill="#824125" d="M 599.5,127.5 C 605.912,134.991 610.246,143.657 612.5,153.5C 608.094,152.13 604.094,152.963 600.5,156C 583.255,172.016 573.422,191.849 571,215.5C 570.619,227.843 570.119,240.176 569.5,252.5C 568.207,253.842 567.374,255.509 567,257.5C 565.57,257.694 564.07,257.694 562.5,257.5C 560.902,259.973 559.402,259.973 558,257.5C 555.868,258.78 553.702,258.78 551.5,257.5C 550.808,258.025 550.308,258.692 550,259.5C 547.266,258.638 547.099,257.805 549.5,257C 548.675,255.312 547.675,255.145 546.5,256.5C 543.433,255.053 541.266,252.72 540,249.5C 539.586,249.957 539.086,250.291 538.5,250.5C 537.757,249.092 536.923,247.759 536,246.5C 534.334,247.34 534.167,246.84 535.5,245C 534.285,242.904 533.451,243.071 533,245.5C 532.362,244.391 531.862,243.225 531.5,242C 532.707,240.7 533.374,239.2 533.5,237.5C 532.5,237.5 531.5,237.5 530.5,237.5C 530.784,235.123 530.784,232.956 530.5,231C 532.891,230.309 532.891,229.309 530.5,228C 530.673,225.74 530.673,223.407 530.5,221C 531.167,220.333 531.833,219.667 532.5,219C 532.335,217.883 532.002,216.716 531.5,215.5C 533.973,213.902 533.973,212.402 531.5,211C 534.325,209.526 534.658,208.026 532.5,206.5C 534.355,204.456 535.022,202.289 534.5,200C 535.955,197.472 537.622,194.805 539.5,192C 539.167,191 538.833,190 538.5,189C 539.766,188.691 540.933,188.191 542,187.5C 543.016,182.675 545.183,178.009 548.5,173.5C 548.291,172.914 547.957,172.414 547.5,172C 551.631,167.042 554.798,161.876 557,156.5C 561.192,154.316 563.858,150.983 565,146.5C 566.101,144.606 567.434,143.939 569,144.5C 571.145,141.834 573.645,139.834 576.5,138.5C 576.312,136.897 576.812,135.563 578,134.5C 578.333,134.833 578.667,135.167 579,135.5C 579.833,134.5 580.667,133.5 581.5,132.5C 583.102,133.55 583.935,132.883 584,130.5C 585,130.5 586,130.5 587,130.5C 587.317,128.699 587.984,128.366 589,129.5C 590.316,126.972 591.483,126.972 592.5,129.5C 594.982,128.933 597.316,128.266 599.5,127.5 Z"/></g>
<g><path style="opacity:1" fill="#65432d" d="M 612.5,153.5 C 613.674,154.514 614.34,155.847 614.5,157.5C 613.833,157.167 613.167,156.833 612.5,156.5C 612.5,155.5 612.5,154.5 612.5,153.5 Z"/></g>
<g><path style="opacity:1" fill="#824125" d="M 179.5,168.5 C 180.991,168.901 182.658,169.068 184.5,169C 183.66,170.666 184.16,170.833 186,169.5C 188.001,173.346 191.168,175.679 195.5,176.5C 197.214,175.391 197.881,176.058 197.5,178.5C 200.863,178.513 203.03,180.179 204,183.5C 206.983,182.817 208.983,184.151 210,187.5C 210.333,187.167 210.667,186.833 211,186.5C 212.641,190.077 214.974,193.744 218,197.5C 218.333,196.833 218.667,196.167 219,195.5C 219.684,196.784 219.517,197.951 218.5,199C 219.984,200.574 221.651,201.907 223.5,203C 223.043,203.414 222.709,203.914 222.5,204.5C 223.5,205.833 224.5,207.167 225.5,208.5C 225.291,209.086 224.957,209.586 224.5,210C 225.253,211.487 226.086,211.654 227,210.5C 228.789,213.291 230.122,216.291 231,219.5C 233.452,221.142 235.286,223.309 236.5,226C 235.761,228.235 235.761,230.235 236.5,232C 237.448,232.483 238.448,232.649 239.5,232.5C 239.67,233.822 239.337,234.989 238.5,236C 241.519,238.52 243.519,241.687 244.5,245.5C 241.567,247.738 241.901,248.738 245.5,248.5C 245.5,252.5 245.5,256.5 245.5,260.5C 244.448,260.351 243.448,260.517 242.5,261C 243.925,262.714 243.592,264.047 241.5,265C 242.308,265.308 242.975,265.808 243.5,266.5C 241.465,268.632 239.631,270.965 238,273.5C 237.667,273.167 237.333,272.833 237,272.5C 236.521,274.646 235.188,275.646 233,275.5C 230.067,273.558 228.234,274.224 227.5,277.5C 225.286,269.641 223.12,261.641 221,253.5C 214.61,239.664 208.61,225.664 203,211.5C 195.879,199.368 186.879,188.701 176,179.5C 175.454,176.101 175.787,172.768 177,169.5C 177.671,168.748 178.504,168.414 179.5,168.5 Z"/></g>

        
<g><path style="opacity:0.994" fill="#171c1e" d="M 567.5,264.5 C 567.427,266.027 568.094,267.027 569.5,267.5C 570.833,268.167 571.833,269.167 572.5,270.5C 572.427,272.027 573.094,273.027 574.5,273.5C 576.786,276.463 578.619,279.796 580,283.5C 581.333,288.167 582.667,292.833 584,297.5C 600.968,293.905 616.801,296.738 631.5,306C 657.957,323.456 680.123,345.29 698,371.5C 700.529,375.926 702.362,380.592 703.5,385.5C 703.41,388.152 704.076,390.485 705.5,392.5C 706.37,394.032 706.036,395.532 704.5,397C 701.814,398.368 699.147,399.701 696.5,401C 687.337,403.06 678.337,403.893 669.5,403.5C 671.81,407.254 673.643,411.254 675,415.5C 676.619,423.927 678.619,432.26 681,440.5C 682.454,454.02 679.787,466.687 673,478.5C 663.749,491.086 652.582,501.586 639.5,510C 630.893,513.302 622.893,517.635 615.5,523C 597.029,529.157 579.029,536.491 561.5,545C 545.683,550.606 529.683,555.606 513.5,560C 527.668,574.176 543.001,586.843 559.5,598C 576.758,613.656 588.591,632.823 595,655.5C 600.246,671.481 603.746,687.814 605.5,704.5C 615.856,702.179 626.356,700.846 637,700.5C 653.9,703.09 670.9,704.757 688,705.5C 707.617,704.722 725.784,699.222 742.5,689C 757.923,678.567 772.423,667.067 786,654.5C 787.653,654.82 788.653,655.82 789,657.5C 790.41,661.976 791.577,666.476 792.5,671C 792.058,695.003 785.891,717.503 774,738.5C 761.43,755.698 744.596,766.531 723.5,771C 714.162,773.335 704.828,775.668 695.5,778C 672.316,777.979 649.649,781.312 627.5,788C 631.324,793.922 636.657,797.922 643.5,800C 646.319,802.72 645.986,805.053 642.5,807C 635.644,812.007 627.978,814.507 619.5,814.5C 615.167,814.5 610.833,814.5 606.5,814.5C 606.263,815.791 606.596,816.791 607.5,817.5C 609.143,819.708 608.81,821.541 606.5,823C 599.093,824.492 591.593,825.325 584,825.5C 570.833,824.357 557.666,823.19 544.5,822C 528.753,817.882 515.253,810.049 504,798.5C 495.911,789.336 489.577,779.003 485,767.5C 473.056,772.575 460.556,774.908 447.5,774.5C 441.513,773.858 435.513,773.358 429.5,773C 427,772.625 424.667,771.792 422.5,770.5C 418.78,774.733 415.613,779.4 413,784.5C 396.732,800.487 377.065,808.487 354,808.5C 349.103,808.068 344.269,807.234 339.5,806C 337.709,805.585 336.376,804.585 335.5,803C 338.138,800.346 341.138,798.18 344.5,796.5C 345.973,795.928 347.307,795.095 348.5,794C 346.609,793.797 344.943,794.297 343.5,795.5C 334.515,796.911 325.515,796.744 316.5,795C 304.562,791.925 299.562,784.425 301.5,772.5C 312.272,769.781 321.939,764.947 330.5,758C 319.87,750.041 313.37,739.541 311,726.5C 307.602,710.123 307.769,693.789 311.5,677.5C 312.793,675.636 312.793,673.636 311.5,671.5C 310.893,671.624 310.56,671.957 310.5,672.5C 309.013,673.804 307.346,674.97 305.5,676C 298.059,677.01 291.059,675.843 284.5,672.5C 275.52,664.574 271.187,654.574 271.5,642.5C 272.908,618.525 282.242,598.358 299.5,582C 310.392,573.408 322.392,571.241 335.5,575.5C 336.947,576.885 337.947,576.552 338.5,574.5C 338.433,573.041 338.766,571.708 339.5,570.5C 340.757,569.377 340.424,568.711 338.5,568.5C 326.038,567.642 313.704,565.808 301.5,563C 279.858,557.675 258.525,551.341 237.5,544C 217.724,535.619 199.39,524.952 182.5,512C 179.629,509.297 176.962,506.464 174.5,503.5C 174.027,502.094 173.027,501.427 171.5,501.5C 155.808,488.291 146.475,471.458 143.5,451C 144.485,443.505 144.985,436.005 145,428.5C 139.772,431.396 134.272,432.062 128.5,430.5C 127.063,426.472 126.397,422.305 126.5,418C 128.512,388.142 139.012,361.642 158,338.5C 167.466,327.852 178.966,320.352 192.5,316C 198.537,315.303 204.537,315.47 210.5,316.5C 212.5,305.171 217.167,295.171 224.5,286.5C 225.906,286.027 226.573,285.027 226.5,283.5C 228.616,277.549 231.783,272.215 236,267.5C 246.355,255.578 258.188,245.412 271.5,237C 347.364,211.021 424.364,207.021 502.5,225C 512.956,228.227 522.956,232.56 532.5,238C 541.167,244.671 550.501,250.338 560.5,255C 562.476,258.463 564.81,261.63 567.5,264.5 Z"/></g>
<g><path style="opacity:1" fill="#01b5e8" d="M 587.5,310.5 C 586.895,306.028 588.561,303.028 592.5,301.5C 599.257,301.123 605.924,301.623 612.5,303C 623.41,307.12 633.41,312.787 642.5,320C 660.452,334.449 676.119,350.949 689.5,369.5C 691.221,387.94 682.888,395.44 664.5,392C 658.088,389.643 651.755,387.31 645.5,385C 647.667,386.5 649.833,388 652,389.5C 653.524,391.898 655.024,394.231 656.5,396.5C 659.07,399.917 661.903,403.25 665,406.5C 667.332,409.822 668.498,413.489 668.5,417.5C 664.859,445.281 652.859,468.781 632.5,488C 613.065,503.392 591.732,515.725 568.5,525C 543.342,532.276 518.342,539.943 493.5,548C 448.331,557.276 402.664,559.943 356.5,556C 345.966,553.533 335.3,551.866 324.5,551C 295.111,542.537 266.111,532.87 237.5,522C 215.351,512.1 195.018,499.434 176.5,484C 168.977,475.778 161.81,467.278 155,458.5C 151.984,451.485 150.817,444.152 151.5,436.5C 153.969,428.598 154.969,420.598 154.5,412.5C 153.817,412.863 153.15,413.196 152.5,413.5C 148.574,418.296 143.574,421.296 137.5,422.5C 135.199,422.016 133.199,421.016 131.5,419.5C 132.842,409.136 134.342,398.803 136,388.5C 140.728,378.044 145.728,367.711 151,357.5C 160.887,340.274 175.054,328.108 193.5,321C 200.189,320.622 206.856,320.622 213.5,321C 224.894,285.557 246.56,258.224 278.5,239C 326.456,224.714 375.456,218.047 425.5,219C 438.948,221.656 452.615,223.323 466.5,224C 488.8,226.156 509.8,232.49 529.5,243C 538.999,249.251 548.666,255.251 558.5,261C 569.705,272.243 576.538,285.743 579,301.5C 581.39,308.619 585.057,314.953 590,320.5C 589.506,317.164 588.672,313.831 587.5,310.5 Z"/></g>
<g><path style="opacity:0.725" fill="#81807a" d="M 567.5,264.5 C 568.906,264.973 569.573,265.973 569.5,267.5C 568.094,267.027 567.427,266.027 567.5,264.5 Z"/></g>
<g><path style="opacity:0.545" fill="#81807a" d="M 572.5,270.5 C 573.906,270.973 574.573,271.973 574.5,273.5C 573.094,273.027 572.427,272.027 572.5,270.5 Z"/></g>
<g><path style="opacity:0.486" fill="#82827b" d="M 226.5,283.5 C 226.573,285.027 225.906,286.027 224.5,286.5C 224.427,284.973 225.094,283.973 226.5,283.5 Z"/></g>
<g><path style="opacity:1" fill="#0c7aaa" d="M 592.5,301.5 C 588.561,303.028 586.895,306.028 587.5,310.5C 585.98,308.11 584.98,305.443 584.5,302.5C 587.127,301.908 589.794,301.575 592.5,301.5 Z"/></g>
<g><path style="opacity:1" fill="#070b0c" d="M 618.5,337.5 C 634.542,353.376 653.208,365.543 674.5,374C 676.954,375.74 678.454,377.907 679,380.5C 677.612,381.554 676.112,381.72 674.5,381C 660.835,373.503 647.502,365.503 634.5,357C 629.973,352.473 625.473,347.973 621,343.5C 619.441,341.783 618.608,339.783 618.5,337.5 Z"/></g>
<g><path style="opacity:1" fill="#077baf" d="M 689.5,369.5 C 695.393,376.932 698.726,385.265 699.5,394.5C 689.842,398.206 679.842,399.373 669.5,398C 665.09,396.449 660.757,394.949 656.5,393.5C 656.5,394.5 656.5,395.5 656.5,396.5C 655.024,394.231 653.524,391.898 652,389.5C 649.833,388 647.667,386.5 645.5,385C 651.755,387.31 658.088,389.643 664.5,392C 682.888,395.44 691.221,387.94 689.5,369.5 Z"/></g>
<g><path style="opacity:1" fill="#070d0e" d="M 147.5,382.5 C 148.947,383.134 149.613,384.301 149.5,386C 148.279,393.491 147.113,400.991 146,408.5C 144.374,411.128 142.374,413.461 140,415.5C 141.213,404.227 143.713,393.227 147.5,382.5 Z"/></g>
<g><path style="opacity:0.686" fill="#686862" d="M 703.5,385.5 C 704.924,387.515 705.59,389.848 705.5,392.5C 704.076,390.485 703.41,388.152 703.5,385.5 Z"/></g>
<g><path style="opacity:1" fill="#097aac" d="M 152.5,413.5 C 149.619,421.965 143.619,426.631 134.5,427.5C 132.016,425.464 131.016,422.798 131.5,419.5C 133.199,421.016 135.199,422.016 137.5,422.5C 143.574,421.296 148.574,418.296 152.5,413.5 Z"/></g>
<g><path style="opacity:1" fill="#067aae" d="M 668.5,417.5 C 669.586,417.62 670.253,418.287 670.5,419.5C 672.505,428.85 674.505,438.183 676.5,447.5C 675.399,460.687 670.732,472.354 662.5,482.5C 657.167,487.167 652.167,492.167 647.5,497.5C 636.091,503.71 624.757,510.21 613.5,517C 594.28,523.296 575.614,530.963 557.5,540C 535.004,547.711 512.337,554.377 489.5,560C 464.817,564.039 439.984,566.539 415,567.5C 386.539,565.485 358.039,563.985 329.5,563C 288.931,556.527 250.265,544.193 213.5,526C 189.832,512.998 170.665,495.165 156,472.5C 149.589,460.938 148.089,448.938 151.5,436.5C 150.817,444.152 151.984,451.485 155,458.5C 161.81,467.278 168.977,475.778 176.5,484C 195.018,499.434 215.351,512.1 237.5,522C 266.111,532.87 295.111,542.537 324.5,551C 335.3,551.866 345.966,553.533 356.5,556C 402.664,559.943 448.331,557.276 493.5,548C 518.342,539.943 543.342,532.276 568.5,525C 591.732,515.725 613.065,503.392 632.5,488C 652.859,468.781 664.859,445.281 668.5,417.5 Z"/></g>
<g><path style="opacity:1" fill="#022d41" d="M 662.5,482.5 C 658.5,488.5 653.5,493.5 647.5,497.5C 652.167,492.167 657.167,487.167 662.5,482.5 Z"/></g>
<g><path style="opacity:0.718" fill="#83837c" d="M 171.5,501.5 C 173.027,501.427 174.027,502.094 174.5,503.5C 172.973,503.573 171.973,502.906 171.5,501.5 Z"/></g>
<g><path style="opacity:1" fill="#0579ae" d="M 478.5,672.5 C 479.316,674.144 480.65,675.31 482.5,676C 493.813,680.752 503.813,678.919 512.5,670.5C 512.833,670.833 513.167,671.167 513.5,671.5C 512.03,674.308 511.197,677.308 511,680.5C 510.269,682.899 509.102,685.065 507.5,687C 510.833,689 514.167,689 517.5,687C 531.421,676.687 539.921,662.853 543,645.5C 543.947,633.228 539.78,623.061 530.5,615C 523.496,610.163 516.163,605.829 508.5,602C 499.47,598.897 490.303,598.064 481,599.5C 477.485,607.683 477.985,615.683 482.5,623.5C 479.407,625.309 476.074,626.309 472.5,626.5C 472.923,625.735 473.257,624.902 473.5,624C 469.779,615.709 469.779,607.543 473.5,599.5C 473.167,598.5 472.5,597.833 471.5,597.5C 469.364,598.472 468.197,600.139 468,602.5C 467.081,608.966 467.581,615.299 469.5,621.5C 458.98,625.321 450.48,631.654 444,640.5C 430.726,618.269 417.226,596.269 403.5,574.5C 414.63,572.841 425.963,571.841 437.5,571.5C 461.059,569.586 484.392,566.42 507.5,562C 519.747,573.585 532.58,584.418 546,594.5C 546.333,596.047 545.833,597.38 544.5,598.5C 548.847,601.371 552.014,605.371 554,610.5C 566.153,641.08 559.987,667.247 535.5,689C 525.224,698.136 513.224,702.136 499.5,701C 492.521,698.359 487.021,693.859 483,687.5C 480.383,682.817 478.883,677.817 478.5,672.5 Z"/></g>
<g><path style="opacity:0.118" fill="#cacabf" d="M 338.5,568.5 C 340.424,568.711 340.757,569.377 339.5,570.5C 339.167,569.833 338.833,569.167 338.5,568.5 Z"/></g>
<g><path style="opacity:1" fill="#01b5e8" d="M 341.5,624.5 C 340.876,624.917 340.543,625.584 340.5,626.5C 342.326,636.254 343.659,646.087 344.5,656C 344.554,658.873 343.888,661.54 342.5,664C 336.839,663.182 331.506,661.182 326.5,658C 319.953,652.954 314.286,647.12 309.5,640.5C 307.682,644.136 305.849,647.802 304,651.5C 296.56,654.165 290.893,651.832 287,644.5C 283.432,623.869 288.766,605.869 303,590.5C 307.859,584.786 313.359,580.119 319.5,576.5C 326.113,576.151 332.113,577.818 337.5,581.5C 337.712,583.384 338.712,584.717 340.5,585.5C 341.487,582.232 341.82,578.898 341.5,575.5C 342.216,573.444 342.883,571.277 343.5,569C 347.541,568.838 351.541,569.338 355.5,570.5C 348.587,587.907 343.921,605.907 341.5,624.5 Z"/></g>
<g><path style="opacity:1" fill="#6db4c8" d="M 360.5,674.5 C 365.636,683.259 371.636,691.426 378.5,699C 384.877,703.189 391.544,706.855 398.5,710C 417.349,716.655 424.849,710.155 421,690.5C 413.133,671.662 409.299,651.996 409.5,631.5C 398.974,626.785 387.974,624.118 376.5,623.5C 367.747,622.705 360.081,625.039 353.5,630.5C 351.158,627.493 348.825,624.493 346.5,621.5C 349.487,606.708 352.987,592.041 357,577.5C 357.93,575.064 359.097,572.731 360.5,570.5C 364.795,569.339 369.129,569.172 373.5,570C 381.953,570.635 390.287,571.801 398.5,573.5C 412.833,597.5 427.167,621.5 441.5,645.5C 436.166,659.522 436.333,673.522 442,687.5C 449.259,695.897 458.426,699.063 469.5,697C 472.798,696.513 475.798,695.347 478.5,693.5C 480.786,693.96 482.119,695.293 482.5,697.5C 479.307,719.149 479.973,740.649 484.5,762C 484.167,762.5 483.833,763 483.5,763.5C 454.121,772.925 425.787,770.425 398.5,756C 385.188,748.027 373.021,738.527 362,727.5C 358.333,721.833 354.667,716.167 351,710.5C 348.591,702.618 346.757,694.618 345.5,686.5C 351.447,683.692 356.447,679.692 360.5,674.5 Z"/></g>
<g><path style="opacity:1" fill="#022c40" d="M 437.5,571.5 C 425.963,571.841 414.63,572.841 403.5,574.5C 402.596,573.791 402.263,572.791 402.5,571.5C 414.167,571.5 425.833,571.5 437.5,571.5 Z"/></g>
<g><path style="opacity:0.553" fill="#93928a" d="M 338.5,574.5 C 337.947,576.552 336.947,576.885 335.5,575.5C 336.609,575.443 337.609,575.11 338.5,574.5 Z"/></g>
<g><path style="opacity:1" fill="#0d677f" d="M 341.5,575.5 C 341.82,578.898 341.487,582.232 340.5,585.5C 338.712,584.717 337.712,583.384 337.5,581.5C 338.458,581.953 339.292,582.619 340,583.5C 340.183,580.635 340.683,577.969 341.5,575.5 Z"/></g>
<g><path style="opacity:1" fill="#0679ad" d="M 319.5,576.5 C 313.359,580.119 307.859,584.786 303,590.5C 288.766,605.869 283.432,623.869 287,644.5C 290.893,651.832 296.56,654.165 304,651.5C 305.849,647.802 307.682,644.136 309.5,640.5C 314.286,647.12 319.953,652.954 326.5,658C 331.506,661.182 336.839,663.182 342.5,664C 343.888,661.54 344.554,658.873 344.5,656C 343.659,646.087 342.326,636.254 340.5,626.5C 340.543,625.584 340.876,624.917 341.5,624.5C 343.341,627.86 345.841,630.86 349,633.5C 356.123,645.314 358.79,657.981 357,671.5C 347.754,683.243 336.587,685.409 323.5,678C 320.61,676.062 317.944,673.895 315.5,671.5C 315.325,667.14 315.325,662.806 315.5,658.5C 312.383,663.451 308.383,667.618 303.5,671C 299.152,671.238 294.819,670.905 290.5,670C 278.528,660.766 274.028,648.599 277,633.5C 280.837,610.292 292.337,592.125 311.5,579C 313.909,577.293 316.575,576.46 319.5,576.5 Z"/></g>
<g><path style="opacity:1" fill="#01b5e8" d="M 478.5,672.5 C 478.817,669.428 478.484,666.428 477.5,663.5C 476.056,665.608 475.39,667.941 475.5,670.5C 473.625,679.348 467.958,684.015 458.5,684.5C 455.512,684.283 452.845,683.283 450.5,681.5C 447.814,678.097 445.147,674.764 442.5,671.5C 440.031,647.715 450.031,632.715 472.5,626.5C 476.074,626.309 479.407,625.309 482.5,623.5C 477.985,615.683 477.485,607.683 481,599.5C 490.303,598.064 499.47,598.897 508.5,602C 516.163,605.829 523.496,610.163 530.5,615C 539.78,623.061 543.947,633.228 543,645.5C 539.921,662.853 531.421,676.687 517.5,687C 514.167,689 510.833,689 507.5,687C 509.102,685.065 510.269,682.899 511,680.5C 511.197,677.308 512.03,674.308 513.5,671.5C 513.167,671.167 512.833,670.833 512.5,670.5C 503.813,678.919 493.813,680.752 482.5,676C 480.65,675.31 479.316,674.144 478.5,672.5 Z"/></g>
<g><path style="opacity:1" fill="#01b5e8" d="M 598.5,692.5 C 599.585,721.745 590.251,746.912 570.5,768C 559.897,776.467 547.897,781.967 534.5,784.5C 524.3,783.481 516.133,778.815 510,770.5C 503.835,757.837 501.335,744.504 502.5,730.5C 515.107,740.264 528.107,740.764 541.5,732C 553.871,721.408 561.704,708.241 565,692.5C 565.414,680.636 566.247,668.803 567.5,657C 567.12,651.981 566.454,647.148 565.5,642.5C 565.039,628.701 561.705,615.701 555.5,603.5C 556.002,602.479 556.668,602.312 557.5,603C 571.596,617.015 581.763,633.515 588,652.5C 592.713,665.589 596.213,678.922 598.5,692.5 Z"/></g>
<g><path style="opacity:1" fill="#86cdeb" d="M 360.5,674.5 C 363.081,665.176 362.914,655.842 360,646.5C 358.097,641.032 355.93,635.699 353.5,630.5C 360.081,625.039 367.747,622.705 376.5,623.5C 387.974,624.118 398.974,626.785 409.5,631.5C 409.299,651.996 413.133,671.662 421,690.5C 424.849,710.155 417.349,716.655 398.5,710C 391.544,706.855 384.877,703.189 378.5,699C 371.636,691.426 365.636,683.259 360.5,674.5 Z"/></g>
<g><path style="opacity:1" fill="#0579ae" d="M 565.5,642.5 C 566.454,647.148 567.12,651.981 567.5,657C 566.247,668.803 565.414,680.636 565,692.5C 561.704,708.241 553.871,721.408 541.5,732C 528.107,740.764 515.107,740.264 502.5,730.5C 501.335,744.504 503.835,757.837 510,770.5C 516.133,778.815 524.3,783.481 534.5,784.5C 547.897,781.967 559.897,776.467 570.5,768C 590.251,746.912 599.585,721.745 598.5,692.5C 603.674,717.432 599.507,740.766 586,762.5C 585.175,764.701 585.675,766.534 587.5,768C 598.616,767.367 607.783,771.2 615,779.5C 618.98,786.624 623.814,793.124 629.5,799C 632.371,800.935 635.371,802.601 638.5,804C 634.952,805.941 631.286,807.607 627.5,809C 619.203,810.072 610.87,810.739 602.5,811C 601.427,814.112 601.427,817.279 602.5,820.5C 584.783,820.736 567.116,819.903 549.5,818C 516.675,809.175 495.842,788.342 487,755.5C 483.693,736.831 483.693,718.165 487,699.5C 491.793,704.268 497.627,706.601 504.5,706.5C 533.083,702.106 551.916,686.106 561,658.5C 562.256,653.552 563.256,648.552 564,643.5C 564.383,642.944 564.883,642.611 565.5,642.5 Z"/></g>
<g><path style="opacity:1" fill="#01b5e8" d="M 787.5,677.5 C 783.628,689.244 778.128,700.244 771,710.5C 762.901,720.602 754.068,730.102 744.5,739C 710.389,759.089 673.722,766.755 634.5,762C 624.967,759.273 620.301,752.939 620.5,743C 621.128,736.319 622.628,729.819 625,723.5C 625.667,718.833 625.667,714.167 625,709.5C 623.07,707.923 623.237,706.59 625.5,705.5C 632.841,705.334 640.174,705.5 647.5,706C 675.257,713.194 702.59,711.861 729.5,702C 732.167,700.667 734.833,699.333 737.5,698C 745.398,692.397 753.398,686.897 761.5,681.5C 769.242,674.252 777.409,667.585 786,661.5C 786.945,661.905 787.612,662.572 788,663.5C 788.648,668.204 788.481,672.871 787.5,677.5 Z"/></g>
<g><path style="opacity:0.18" fill="#a3a29a" d="M 310.5,672.5 C 310.56,671.957 310.893,671.624 311.5,671.5C 312.793,673.636 312.793,675.636 311.5,677.5C 311.784,675.585 311.451,673.919 310.5,672.5 Z"/></g>
<g><path style="opacity:1" fill="#0679ad" d="M 475.5,670.5 C 475.435,676.617 475.935,682.617 477,688.5C 473.037,691.93 468.37,693.263 463,692.5C 452.011,693.17 445.344,688.17 443,677.5C 442.505,675.527 442.338,673.527 442.5,671.5C 445.147,674.764 447.814,678.097 450.5,681.5C 452.845,683.283 455.512,684.283 458.5,684.5C 467.958,684.015 473.625,679.348 475.5,670.5 Z"/></g>
<g><path style="opacity:1" fill="#0679ad" d="M 352.5,720.5 C 351.542,720.047 350.708,719.381 350,718.5C 349,720.5 348,722.5 347,724.5C 338.32,720.657 330.654,715.324 324,708.5C 322.417,720.502 325.084,731.502 332,741.5C 338.772,748.117 345.939,754.117 353.5,759.5C 344.664,759.444 336.997,756.444 330.5,750.5C 322.396,743.714 317.562,735.048 316,724.5C 312.459,709.051 312.792,693.718 317,678.5C 323.898,685.032 332.065,687.698 341.5,686.5C 342.041,694.666 343.541,702.666 346,710.5C 348.143,713.962 350.31,717.296 352.5,720.5 Z"/></g>
<g><path style="opacity:1" fill="#077aae" d="M 787.5,677.5 C 785.964,702.884 777.464,725.551 762,745.5C 754.767,751.536 746.933,756.703 738.5,761C 724.004,765.624 709.337,769.624 694.5,773C 671.145,773.598 648.145,776.765 625.5,782.5C 624.5,782.333 623.5,782.167 622.5,782C 615.399,770.59 605.065,764.59 591.5,764C 601.553,746.955 606.22,728.455 605.5,708.5C 612.311,708.365 618.977,707.365 625.5,705.5C 623.237,706.59 623.07,707.923 625,709.5C 625.667,714.167 625.667,718.833 625,723.5C 622.628,729.819 621.128,736.319 620.5,743C 620.301,752.939 624.967,759.273 634.5,762C 673.722,766.755 710.389,759.089 744.5,739C 754.068,730.102 762.901,720.602 771,710.5C 778.128,700.244 783.628,689.244 787.5,677.5 Z"/></g>
<g><path style="opacity:1" fill="#01b4e7" d="M 352.5,720.5 C 354.344,724.192 356.677,727.525 359.5,730.5C 361.833,734.833 365.167,738.167 369.5,740.5C 372.027,742.605 374.36,744.939 376.5,747.5C 378.637,754.608 381.971,761.108 386.5,767C 376.493,768.153 367.159,766.32 358.5,761.5C 356.95,760.559 355.284,759.893 353.5,759.5C 345.939,754.117 338.772,748.117 332,741.5C 325.084,731.502 322.417,720.502 324,708.5C 330.654,715.324 338.32,720.657 347,724.5C 348,722.5 349,720.5 350,718.5C 350.708,719.381 351.542,720.047 352.5,720.5 Z"/></g>
<g><path style="opacity:1" fill="#045267" d="M 359.5,730.5 C 363.167,733.5 366.5,736.833 369.5,740.5C 365.167,738.167 361.833,734.833 359.5,730.5 Z"/></g>
<g><path style="opacity:1" fill="#0679ae" d="M 376.5,747.5 C 382.599,751.083 388.599,754.917 394.5,759C 400.94,762.554 407.607,765.554 414.5,768C 415.554,769.388 415.72,770.888 415,772.5C 404.324,788.934 389.157,798.434 369.5,801C 361.218,803.53 352.885,803.864 344.5,802C 352.628,796.206 359.795,789.373 366,781.5C 366.612,779.763 365.946,778.763 364,778.5C 361.373,779.634 359.207,781.3 357.5,783.5C 358.547,780.404 359.88,777.404 361.5,774.5C 350.93,771.981 340.93,768.314 331.5,763.5C 332.479,761.855 333.812,760.521 335.5,759.5C 342.062,762.14 348.729,764.474 355.5,766.5C 356.442,766.392 357.275,766.059 358,765.5C 357.645,764.041 357.811,762.707 358.5,761.5C 367.159,766.32 376.493,768.153 386.5,767C 381.971,761.108 378.637,754.608 376.5,747.5 Z"/></g>
<g><path style="opacity:1" fill="#01b4e6" d="M 331.5,763.5 C 340.93,768.314 350.93,771.981 361.5,774.5C 359.88,777.404 358.547,780.404 357.5,783.5C 343.133,791.218 328.133,792.552 312.5,787.5C 311.089,785.086 309.089,783.419 306.5,782.5C 305.532,780.393 305.198,778.059 305.5,775.5C 315.177,773.661 323.843,769.661 331.5,763.5 Z"/></g>
<g><path style="opacity:1" fill="#01b4e7" d="M 577.5,780.5 C 592.957,777.906 605.623,782.573 615.5,794.5C 608.26,800.357 599.926,803.024 590.5,802.5C 590.911,805.553 591.577,808.553 592.5,811.5C 587.462,812.33 582.795,811.164 578.5,808C 571.727,803.194 565.227,798.028 559,792.5C 558.542,789.904 559.375,787.737 561.5,786C 566.846,783.83 572.179,781.997 577.5,780.5 Z"/></g>
<g><path style="opacity:1" fill="#086179" d="M 306.5,782.5 C 309.089,783.419 311.089,785.086 312.5,787.5C 309.911,786.581 307.911,784.914 306.5,782.5 Z"/></g>
<g><path style="opacity:0.165" fill="#b2b1a8" d="M 344.5,796.5 C 344.5,795.833 344.167,795.5 343.5,795.5C 344.943,794.297 346.609,793.797 348.5,794C 347.307,795.095 345.973,795.928 344.5,796.5 Z"/></g>
<g><path style="opacity:0.282" fill="#b1b0a7" d="M 619.5,814.5 C 615.232,814.869 611.232,815.869 607.5,817.5C 606.596,816.791 606.263,815.791 606.5,814.5C 610.833,814.5 615.167,814.5 619.5,814.5 Z"/></g>

        
<g><path style="opacity:0.904" fill="#020202" d="M 492.5,247.5 C 515.533,247.263 533.366,256.596 546,275.5C 550.875,284.412 555.042,293.579 558.5,303C 558.158,305.515 556.825,307.348 554.5,308.5C 552.205,306.52 549.539,305.353 546.5,305C 526.722,303.823 507.555,306.657 489,313.5C 491.296,328.823 493.796,344.156 496.5,359.5C 515.133,358.568 532.466,353.235 548.5,343.5C 551.079,344.888 551.079,346.388 548.5,348C 540.888,351.139 533.554,354.806 526.5,359C 517.117,363.072 507.45,366.239 497.5,368.5C 497.666,377.506 497.5,386.506 497,395.5C 496.586,395.957 496.086,396.291 495.5,396.5C 494.502,387.525 494.168,378.525 494.5,369.5C 474.538,371.28 454.538,371.78 434.5,371C 431.711,370.759 429.044,370.092 426.5,369C 429.84,366.991 433.507,365.824 437.5,365.5C 456.034,367.058 474.367,365.724 492.5,361.5C 493.422,356.507 493.255,351.507 492,346.5C 490.128,336.142 488.128,325.809 486,315.5C 485.439,314.978 484.772,314.645 484,314.5C 460.075,322.547 437.575,333.38 416.5,347C 413.333,350.167 410.167,353.333 407,356.5C 406.773,363.246 407.94,369.746 410.5,376C 408.984,382.558 406.484,388.725 403,394.5C 390.558,401.825 379.725,399.658 370.5,388C 367.5,386 364.5,386 361.5,388C 355.888,397.661 347.888,400.327 337.5,396C 334.667,394.5 332.5,392.333 331,389.5C 329.616,383.862 328.45,378.195 327.5,372.5C 326.325,372.281 325.325,372.614 324.5,373.5C 318.891,387.897 310.891,400.73 300.5,412C 298.223,413.959 295.723,415.459 293,416.5C 282.155,412.329 272.322,406.496 263.5,399C 245.45,388.357 226.117,384.857 205.5,388.5C 197.369,365.942 200.535,344.942 215,325.5C 215.218,305.905 222.385,289.405 236.5,276C 243.041,271.46 250.041,267.793 257.5,265C 263.793,264.142 269.793,265.142 275.5,268C 294.627,282.096 309.127,299.929 319,321.5C 323.344,332.367 327.177,343.367 330.5,354.5C 342.609,360.703 355.443,364.37 369,365.5C 378.23,363.734 387.397,361.734 396.5,359.5C 395.021,355.198 393.521,350.865 392,346.5C 391.46,332.433 394.46,319.1 401,306.5C 406.344,296.474 412.677,287.141 420,278.5C 431.941,268.442 445.108,260.275 459.5,254C 470.366,250.443 481.366,248.276 492.5,247.5 Z"/></g>
<g><path style="opacity:1" fill="#1b1b1b" d="M 491.5,251.5 C 512.015,251.342 528.515,259.342 541,275.5C 546.139,283.77 550.139,292.437 553,301.5C 545.161,299.952 536.995,299.452 528.5,300C 514.582,301.784 500.915,304.451 487.5,308C 484.415,296.075 480.915,284.242 477,272.5C 475.926,268.681 474.093,265.348 471.5,262.5C 475.843,277.668 480.176,293.168 484.5,309C 466.264,316.451 448.264,324.451 430.5,333C 420.352,339.081 411.352,346.581 403.5,355.5C 402.549,356.326 401.549,356.492 400.5,356C 397.116,351.224 395.116,345.891 394.5,340C 396.138,329.947 398.638,320.114 402,310.5C 405.755,305.997 408.755,300.997 411,295.5C 415.048,291.12 418.715,286.454 422,281.5C 436.682,268.507 453.516,259.341 472.5,254C 478.988,253.216 485.322,252.383 491.5,251.5 Z"/></g>
<g><path style="opacity:1" fill="#1b1b1b" d="M 256.5,269.5 C 263.905,268.705 270.571,270.539 276.5,275C 302.483,295.471 318.317,321.971 324,354.5C 322.601,353.773 321.101,353.273 319.5,353C 298.875,335.523 275.209,324.189 248.5,319C 238.929,317.048 229.263,316.214 219.5,316.5C 223.054,293.637 235.388,277.97 256.5,269.5 Z"/></g>
<g><path style="opacity:1" fill="#f3f2e5" d="M 223.5,320.5 C 258.583,321.886 289.249,334.053 315.5,357C 322.049,356.381 324.215,359.214 322,365.5C 317.972,381.561 310.305,395.561 299,407.5C 302.815,380.294 292.981,359.46 269.5,345C 256.136,341.189 243.469,342.856 231.5,350C 220.786,357.876 212.452,367.709 206.5,379.5C 203.61,364.357 205.777,350.024 213,336.5C 216.356,330.996 219.856,325.663 223.5,320.5 Z"/></g>
<g><path style="opacity:1" fill="#1b1b1b" d="M 327.5,358.5 C 327.56,357.957 327.893,357.624 328.5,357.5C 343.24,366.685 359.24,370.519 376.5,369C 385.084,366.187 393.751,363.687 402.5,361.5C 404.299,368.98 404.799,376.646 404,384.5C 402.453,391.217 398.286,394.884 391.5,395.5C 383.4,395.118 377.067,391.618 372.5,385C 367.996,381.538 363.663,381.704 359.5,385.5C 357.294,388.203 354.961,390.703 352.5,393C 347.713,393.879 343.047,393.545 338.5,392C 337.333,390.833 336.167,389.667 335,388.5C 332.616,381.015 331.283,373.348 331,365.5C 330.856,362.558 329.689,360.224 327.5,358.5 Z"/></g>

        
<g><path style="opacity:0.984" fill="#1d1d1b" d="M 174.5,344.5 C 175.167,349.167 175.833,353.833 176.5,358.5C 178.111,375.277 187.278,384.611 204,386.5C 231.975,382.162 256.475,389.329 277.5,408C 293.139,416.546 309.806,421.88 327.5,424C 356.497,424.928 385.497,425.261 414.5,425C 429.134,423.395 443.468,420.395 457.5,416C 471.005,408.08 484.672,400.413 498.5,393C 513.647,387.395 528.98,382.395 544.5,378C 559.842,375.537 575.009,376.37 590,380.5C 595.831,378.557 601.498,376.223 607,373.5C 607.638,372.391 608.138,371.225 608.5,370C 607.069,365.361 605.069,361.027 602.5,357C 598.071,354.898 593.905,352.398 590,349.5C 589.085,347.08 589.918,345.747 592.5,345.5C 608.084,348.324 615.251,357.657 614,373.5C 612.833,375.333 611.667,377.167 610.5,379C 605.202,381.66 599.869,384.327 594.5,387C 587.007,387.313 579.673,386.313 572.5,384C 555.682,381.297 540.015,384.131 525.5,392.5C 525.631,391.624 525.298,390.957 524.5,390.5C 523.261,390.942 522.261,391.609 521.5,392.5C 520.791,393.404 519.791,393.737 518.5,393.5C 514.838,393.723 511.505,394.723 508.5,396.5C 505.759,396.707 503.426,397.707 501.5,399.5C 501.158,400.338 500.492,400.672 499.5,400.5C 494.914,401.46 490.914,403.46 487.5,406.5C 487.158,407.338 486.492,407.672 485.5,407.5C 483.973,407.427 482.973,408.094 482.5,409.5C 467.186,420.144 450.186,426.977 431.5,430C 432.637,435.082 432.804,440.249 432,445.5C 431.5,446 431,446.5 430.5,447C 422.694,448.674 414.861,449.841 407,450.5C 404.245,446.366 403.078,441.699 403.5,436.5C 403.5,434.833 403.5,433.167 403.5,431.5C 396.313,431.175 389.313,431.509 382.5,432.5C 376.223,432.451 370.056,431.784 364,430.5C 363.138,436.433 361.971,442.266 360.5,448C 353.216,449.125 345.883,449.959 338.5,450.5C 335.825,449.523 334.325,447.523 334,444.5C 332.925,440.23 332.425,435.897 332.5,431.5C 319.607,430.116 306.94,428.116 294.5,425.5C 296.933,424.452 296.933,423.786 294.5,423.5C 290.703,423.128 287.37,421.794 284.5,419.5C 281.485,417.326 278.151,415.659 274.5,414.5C 273.415,412.413 271.749,411.08 269.5,410.5C 268.508,410.672 267.842,410.338 267.5,409.5C 267.027,408.094 266.027,407.427 264.5,407.5C 246.393,392.864 225.893,388.198 203,393.5C 182.474,390.465 171.974,378.465 171.5,357.5C 171.86,353.483 172.36,349.483 173,345.5C 173.383,344.944 173.883,344.611 174.5,344.5 Z"/></g>
<g><path style="opacity:0.294" fill="#8b8a83" d="M 174.5,344.5 C 174.56,343.957 174.893,343.624 175.5,343.5C 176.494,348.456 176.827,353.456 176.5,358.5C 175.833,353.833 175.167,349.167 174.5,344.5 Z"/></g>
<g><path style="opacity:0.024" fill="#cacabf" d="M 525.5,392.5 C 524.167,392.5 522.833,392.5 521.5,392.5C 522.261,391.609 523.261,390.942 524.5,390.5C 525.298,390.957 525.631,391.624 525.5,392.5 Z"/></g>
<g><path style="opacity:0.024" fill="#d6d5ca" d="M 518.5,393.5 C 515.495,395.277 512.162,396.277 508.5,396.5C 511.505,394.723 514.838,393.723 518.5,393.5 Z"/></g>
<g><path style="opacity:0.039" fill="#d2d1c6" d="M 508.5,396.5 C 506.574,398.293 504.241,399.293 501.5,399.5C 503.426,397.707 505.759,396.707 508.5,396.5 Z"/></g>
<g><path style="opacity:0.031" fill="#d8d7cc" d="M 499.5,400.5 C 495.818,403.008 491.818,405.008 487.5,406.5C 490.914,403.46 494.914,401.46 499.5,400.5 Z"/></g>
<g><path style="opacity:0.055" fill="#d1d0c5" d="M 264.5,407.5 C 266.027,407.427 267.027,408.094 267.5,409.5C 265.973,409.573 264.973,408.906 264.5,407.5 Z"/></g>
<g><path style="opacity:0.02" fill="#dfded2" d="M 485.5,407.5 C 485.027,408.906 484.027,409.573 482.5,409.5C 482.973,408.094 483.973,407.427 485.5,407.5 Z"/></g>
<g><path style="opacity:0.102" fill="#b9b8af" d="M 269.5,410.5 C 271.749,411.08 273.415,412.413 274.5,414.5C 272.251,413.92 270.585,412.587 269.5,410.5 Z"/></g>
<g><path style="opacity:0.039" fill="#d0d0c5" d="M 274.5,414.5 C 278.151,415.659 281.485,417.326 284.5,419.5C 280.58,418.873 277.247,417.207 274.5,414.5 Z"/></g>
<g><path style="opacity:0.031" fill="#d7d6cb" d="M 294.5,423.5 C 296.933,423.786 296.933,424.452 294.5,425.5C 293.494,425.062 293.494,424.396 294.5,423.5 Z"/></g>
<g><path style="opacity:1" fill="#ecebdf" d="M 423.5,429.5 C 425.167,429.5 426.833,429.5 428.5,429.5C 428.8,434.099 428.467,438.599 427.5,443C 421.173,443.651 414.84,444.151 408.5,444.5C 408.046,440.185 407.046,436.019 405.5,432C 411.721,431.729 417.721,430.896 423.5,429.5 Z"/></g>
<g><path style="opacity:1" fill="#f3f2e5" d="M 352.5,429.5 C 354.117,430.038 355.784,430.371 357.5,430.5C 357.5,434.833 357.5,439.167 357.5,443.5C 351.203,444.32 344.869,444.653 338.5,444.5C 337.833,440.167 337.167,435.833 336.5,431.5C 342.069,431.624 347.402,430.957 352.5,429.5 Z"/></g>
<g><path style="opacity:0.09" fill="#75756e" d="M 382.5,432.5 C 389.313,431.509 396.313,431.175 403.5,431.5C 403.5,433.167 403.5,434.833 403.5,436.5C 402.566,435.432 402.232,434.099 402.5,432.5C 395.833,432.5 389.167,432.5 382.5,432.5 Z"/></g>

        

<g transform="translate(0.000000,862.000000) scale(0.100000,-0.100000)"
fill="#000000" stroke="none">
</g>

    </svg>
