
    <svg width="862" height="862" viewBox="0 0 862 862" fill="none" xmlns="http://www.w3.org/2000/svg">
        
<g><path style="opacity:1" fill="#f6f6e8" d="M -0.5,-0.5 C 286.833,-0.5 574.167,-0.5 861.5,-0.5C 861.5,286.833 861.5,574.167 861.5,861.5C 574.167,861.5 286.833,861.5 -0.5,861.5C -0.5,574.167 -0.5,286.833 -0.5,-0.5 Z"/></g>

        
<g><path style="opacity:0.983" fill="#1a1a19" d="M 578.5,540.5 C 583.993,540.916 589.326,542.082 594.5,544C 599.237,547.614 603.403,551.781 607,556.5C 613.977,570.057 616.311,584.39 614,599.5C 611.931,603.236 608.931,605.903 605,607.5C 603.018,607.01 601.351,606.01 600,604.5C 594.275,609.717 588.442,609.717 582.5,604.5C 577.923,613.337 572.256,614.337 565.5,607.5C 561.53,612.973 556.196,614.806 549.5,613C 548.299,612.097 547.465,610.931 547,609.5C 541.931,617.452 536.764,617.452 531.5,609.5C 527.737,613.765 523.737,617.932 519.5,622C 516.106,622.752 512.773,622.585 509.5,621.5C 508.194,620.088 507.36,618.421 507,616.5C 505.425,609.568 504.258,602.568 503.5,595.5C 504.335,583.317 510.669,578.317 522.5,580.5C 523.795,579.902 525.128,579.402 526.5,579C 535.197,570.637 543.531,561.97 551.5,553C 559.592,546.617 568.592,542.45 578.5,540.5 Z"/></g>
<g><path style="opacity:1" fill="#d9d8cb" d="M 587.5,601.5 C 588.496,601.586 589.329,601.252 590,600.5C 592.94,596.545 595.94,592.545 599,588.5C 599.37,579.339 598.37,570.339 596,561.5C 591.36,554.156 584.693,549.822 576,548.5C 573.538,549.159 571.038,549.493 568.5,549.5C 581.297,543.74 592.13,546.407 601,557.5C 608.853,570.951 611.186,585.285 608,600.5C 606.604,602.527 604.938,602.86 603,601.5C 602.091,598.089 601.091,594.755 600,591.5C 598.35,595.573 596.516,599.573 594.5,603.5C 591.584,604.861 589.251,604.195 587.5,601.5 Z"/></g>
<g><path style="opacity:1" fill="#f4f3e6" d="M 587.5,601.5 C 585.433,599.682 584.1,597.349 583.5,594.5C 582.635,593.417 581.635,593.251 580.5,594C 579.955,598.074 578.621,601.907 576.5,605.5C 574.878,607.439 573.044,607.772 571,606.5C 568.863,602.486 567.03,598.486 565.5,594.5C 564.522,594.977 563.689,595.643 563,596.5C 563.284,605.334 559.118,609.667 550.5,609.5C 550.348,605.228 549.348,601.228 547.5,597.5C 545.179,600.394 544.012,603.727 544,607.5C 541.618,612.067 538.951,612.4 536,608.5C 535.887,606.026 534.887,604.026 533,602.5C 527.856,607.313 523.023,612.48 518.5,618C 516.098,618.814 513.765,618.647 511.5,617.5C 508.811,609.37 507.645,601.036 508,592.5C 508.668,588.501 510.835,585.668 514.5,584C 518.801,584.363 523.134,584.363 527.5,584C 529.167,583 530.833,582 532.5,581C 540.864,572.97 548.864,564.637 556.5,556C 560.367,553.567 564.367,551.4 568.5,549.5C 571.038,549.493 573.538,549.159 576,548.5C 584.693,549.822 591.36,554.156 596,561.5C 598.37,570.339 599.37,579.339 599,588.5C 595.94,592.545 592.94,596.545 590,600.5C 589.329,601.252 588.496,601.586 587.5,601.5 Z"/></g>
<g><path style="opacity:0.982" fill="#191918" d="M 290.5,554.5 C 298.253,554.104 305.92,554.604 313.5,556C 315.5,557.333 317.5,558.667 319.5,560C 322.228,566.042 326.895,569.709 333.5,571C 335.378,572.543 336.878,574.376 338,576.5C 338.242,583.196 338.742,589.862 339.5,596.5C 339.461,598.587 338.461,599.921 336.5,600.5C 332.274,599.93 328.108,599.263 324,598.5C 322.5,600 321,601.5 319.5,603C 317.287,603.626 315.12,603.459 313,602.5C 306.564,605.689 301.23,604.356 297,598.5C 284.481,607.161 276.648,603.994 273.5,589C 271.944,573.778 277.611,562.278 290.5,554.5 Z"/></g>
<g><path style="opacity:1" fill="#f4f3e6" d="M 334.5,587.5 C 334.5,590.167 334.5,592.833 334.5,595.5C 333.167,595.5 331.833,595.5 330.5,595.5C 327.482,595.335 324.482,595.502 321.5,596C 320.022,598.039 318.022,598.872 315.5,598.5C 315.5,597.5 315.5,596.5 315.5,595.5C 312.326,596.015 309.326,597.015 306.5,598.5C 305.5,598.333 304.5,598.167 303.5,598C 301.441,595.366 299.275,592.866 297,590.5C 296.292,591.381 295.458,592.047 294.5,592.5C 290.404,593.285 287.07,592.118 284.5,589C 284.833,588.667 285.167,588.333 285.5,588C 283.667,587.5 282.5,586.333 282,584.5C 281.501,580.179 281.334,575.846 281.5,571.5C 281.709,570.078 282.209,568.745 283,567.5C 286.167,565 289.333,562.5 292.5,560C 298.167,559.333 303.833,559.333 309.5,560C 314.42,562.916 318.753,566.582 322.5,571C 326.232,572.461 329.732,574.294 333,576.5C 333.936,580.114 334.436,583.78 334.5,587.5 Z"/></g>
<g><path style="opacity:1" fill="#d7d6c9" d="M 281.5,571.5 C 281.334,575.846 281.501,580.179 282,584.5C 282.5,586.333 283.667,587.5 285.5,588C 285.167,588.333 284.833,588.667 284.5,589C 287.07,592.118 290.404,593.285 294.5,592.5C 293.641,595.452 291.641,597.285 288.5,598C 285.364,599.041 282.864,598.207 281,595.5C 279.409,588.608 279.076,581.608 280,574.5C 280.232,573.263 280.732,572.263 281.5,571.5 Z"/></g>
<g><path style="opacity:1" fill="#64635e" d="M 334.5,587.5 C 335.477,590.287 335.81,593.287 335.5,596.5C 333.585,596.784 331.919,596.451 330.5,595.5C 331.833,595.5 333.167,595.5 334.5,595.5C 334.5,592.833 334.5,590.167 334.5,587.5 Z"/></g>

        
<g><path style="opacity:0.992" fill="#060608" d="M 427.5,213.5 C 431.015,214.239 434.348,214.239 437.5,213.5C 457.44,207.685 476.773,200.185 495.5,191C 539.434,164.086 578.267,130.92 612,91.5C 623.718,75.0452 633.551,57.7118 641.5,39.5C 643.784,43.0917 645.284,47.0917 646,51.5C 647.981,58.7292 648.647,66.0625 648,73.5C 640.855,110.937 630.855,147.604 618,183.5C 610.177,198.812 603.177,214.479 597,230.5C 591.559,238.38 586.892,246.714 583,255.5C 579.213,260.956 575.046,266.123 570.5,271C 547.78,274.587 525.113,274.253 502.5,270C 475.47,261.573 451.97,247.407 432,227.5C 428.906,223.067 427.406,218.4 427.5,213.5 Z"/></g>
<g><path style="opacity:1" fill="#242535" d="M 639.5,84.5 C 638.962,77.1781 638.629,69.8447 638.5,62.5C 638.795,60.5767 639.628,58.9101 641,57.5C 643.215,66.7597 642.715,75.7597 639.5,84.5 Z"/></g>
<g><path style="opacity:1" fill="#333340" d="M 638.5,62.5 C 638.629,69.8447 638.962,77.1781 639.5,84.5C 632.37,117.019 623.37,149.019 612.5,180.5C 609.61,182.58 607.61,185.413 606.5,189C 603.027,191.964 599.361,194.63 595.5,197C 588.018,204.479 580.185,211.645 572,218.5C 571.667,218.167 571.333,217.833 571,217.5C 569.692,219.641 568.192,221.641 566.5,223.5C 563.374,225.129 560.707,227.295 558.5,230C 557.552,230.483 556.552,230.649 555.5,230.5C 539.11,226.889 524.943,219.222 513,207.5C 509.506,202.214 508.006,196.547 508.5,190.5C 523.298,181.355 537.464,171.355 551,160.5C 554.274,165.795 557.608,171.128 561,176.5C 566.521,183.026 573.354,187.526 581.5,190C 584.721,190.797 587.721,190.297 590.5,188.5C 573.043,184.723 561.043,174.389 554.5,157.5C 575.786,139.048 595.952,119.382 615,98.5C 623.604,86.9472 631.437,74.9472 638.5,62.5 Z"/></g>
<g><path style="opacity:0.992" fill="#060608" d="M 163.5,81.5 C 163.402,83.5529 164.069,85.2196 165.5,86.5C 167.9,93.3682 169.9,100.368 171.5,107.5C 173.93,115.467 176.93,123.134 180.5,130.5C 183.378,138.589 187.045,146.255 191.5,153.5C 191.738,155.404 192.738,156.738 194.5,157.5C 198.189,161.865 201.522,166.531 204.5,171.5C 204.427,173.027 205.094,174.027 206.5,174.5C 207.167,174.5 207.5,174.833 207.5,175.5C 207.427,177.027 208.094,178.027 209.5,178.5C 212.138,181.474 214.805,184.474 217.5,187.5C 218.08,189.749 219.413,191.415 221.5,192.5C 233.146,201.988 245.146,210.988 257.5,219.5C 257.973,220.906 258.973,221.573 260.5,221.5C 262.992,223.768 265.658,224.768 268.5,224.5C 273.295,225.765 277.962,227.432 282.5,229.5C 287.333,227.167 290.5,228.834 292,234.5C 292.497,237.146 292.664,239.813 292.5,242.5C 291.883,242.611 291.383,242.944 291,243.5C 290.433,246.168 289.933,248.834 289.5,251.5C 287.841,256.827 285.174,261.493 281.5,265.5C 280.094,265.973 279.427,266.973 279.5,268.5C 273.833,277.5 266.5,284.833 257.5,290.5C 254.796,290.67 253.129,292.003 252.5,294.5C 243.988,299.393 234.821,302.393 225,303.5C 221.45,303.517 220.283,302.017 221.5,299C 219.907,298.051 218.574,296.885 217.5,295.5C 216.738,293.738 215.404,292.738 213.5,292.5C 209.167,288.833 205.167,284.833 201.5,280.5C 200.5,278.833 199.167,277.5 197.5,276.5C 185.509,266.187 176.175,253.854 169.5,239.5C 169.573,237.973 168.906,236.973 167.5,236.5C 164.326,231.484 161.659,226.151 159.5,220.5C 157.07,212.533 154.07,204.866 150.5,197.5C 147.894,190.347 145.894,183.014 144.5,175.5C 144.147,171.087 143.314,166.754 142,162.5C 141.617,161.944 141.117,161.611 140.5,161.5C 140.5,161.167 140.5,160.833 140.5,160.5C 141.794,158.32 141.461,156.32 139.5,154.5C 139.5,144.167 139.5,133.833 139.5,123.5C 140.117,123.389 140.617,123.056 141,122.5C 141.828,118.534 142.328,114.534 142.5,110.5C 144.411,106.767 145.744,102.767 146.5,98.5C 147.655,94.2025 149.321,90.2025 151.5,86.5C 153.008,84.8185 154.008,82.8185 154.5,80.5C 155.906,80.0269 156.573,79.0269 156.5,77.5C 157.261,76.6091 158.261,75.9424 159.5,75.5C 161.252,77.2459 162.585,79.2459 163.5,81.5 Z"/></g>
<g><path style="opacity:0.212" fill="#202029" d="M 156.5,77.5 C 156.573,79.0269 155.906,80.0269 154.5,80.5C 154.427,78.9731 155.094,77.9731 156.5,77.5 Z"/></g>
<g><path style="opacity:0.016" fill="#23232d" d="M 163.5,81.5 C 164.931,82.7804 165.598,84.4471 165.5,86.5C 164.069,85.2196 163.402,83.5529 163.5,81.5 Z"/></g>
<g><path style="opacity:0.106" fill="#1f1f28" d="M 154.5,80.5 C 154.008,82.8185 153.008,84.8185 151.5,86.5C 151.461,83.911 152.461,81.911 154.5,80.5 Z"/></g>
<g><path style="opacity:1" fill="#242436" d="M 162.5,94.5 C 158.413,97.7067 156.746,102.04 157.5,107.5C 157.666,115.694 157.833,124.027 158,132.5C 158.54,136.885 159.707,141.051 161.5,145C 161.167,145.333 160.833,145.667 160.5,146C 165.166,155.351 169.833,164.684 174.5,174C 173.366,175.016 173.699,175.683 175.5,176C 175.167,176.333 174.833,176.667 174.5,177C 179.464,183.757 183.797,190.923 187.5,198.5C 188.324,200.421 189.657,201.754 191.5,202.5C 187.969,204.937 184.469,204.937 181,202.5C 180.28,204.112 180.446,205.612 181.5,207C 185.221,207.678 188.888,207.511 192.5,206.5C 198.484,216.935 204.484,227.768 210.5,239C 212.795,242.423 214.961,245.923 217,249.5C 218.307,251.192 219.807,252.525 221.5,253.5C 219.067,256.687 216.067,258.353 212.5,258.5C 213,259.881 214,260.547 215.5,260.5C 218.183,259.49 220.849,258.49 223.5,257.5C 230.167,268.692 236.834,279.359 243.5,289.5C 244.325,290.386 245.325,290.719 246.5,290.5C 241.34,294.281 235.507,296.614 229,297.5C 225.704,296.87 222.87,295.37 220.5,293C 174.244,252.321 148.911,201.155 144.5,139.5C 143.75,119.49 148.75,101.156 159.5,84.5C 161.003,87.6773 162.003,91.0106 162.5,94.5 Z"/></g>
<g><path style="opacity:1" fill="#333340" d="M 162.5,94.5 C 166.782,109.234 171.782,123.734 177.5,138C 176.718,140.74 176.218,143.574 176,146.5C 172.642,148.884 172.809,150.051 176.5,150C 178.041,148.421 179.208,146.587 180,144.5C 188.664,159.494 198.497,173.661 209.5,187C 207.045,190.078 204.711,193.244 202.5,196.5C 199.259,199.287 195.593,201.287 191.5,202.5C 189.657,201.754 188.324,200.421 187.5,198.5C 183.797,190.923 179.464,183.757 174.5,177C 174.833,176.667 175.167,176.333 175.5,176C 173.699,175.683 173.366,175.016 174.5,174C 169.833,164.684 165.166,155.351 160.5,146C 160.833,145.667 161.167,145.333 161.5,145C 159.707,141.051 158.54,136.885 158,132.5C 157.833,124.027 157.666,115.694 157.5,107.5C 156.746,102.04 158.413,97.7067 162.5,94.5 Z"/></g>
<g><path style="opacity:0.851" fill="#191920" d="M 146.5,98.5 C 145.744,102.767 144.411,106.767 142.5,110.5C 142.861,106.085 144.194,102.085 146.5,98.5 Z"/></g>
<g><path style="opacity:0.753" fill="#17171d" d="M 142.5,110.5 C 142.328,114.534 141.828,118.534 141,122.5C 140.617,123.056 140.117,123.389 139.5,123.5C 139.882,118.908 140.882,114.575 142.5,110.5 Z"/></g>
<g><path style="opacity:0.251" fill="#1f2029" d="M 171.5,107.5 C 175.462,114.708 178.462,122.375 180.5,130.5C 176.93,123.134 173.93,115.467 171.5,107.5 Z"/></g>
<g><path style="opacity:0.082" fill="#1d1d27" d="M 139.5,154.5 C 141.461,156.32 141.794,158.32 140.5,160.5C 139.85,158.565 139.517,156.565 139.5,154.5 Z"/></g>
<g><path style="opacity:0.329" fill="#21212b" d="M 191.5,153.5 C 193.262,154.262 194.262,155.596 194.5,157.5C 192.738,156.738 191.738,155.404 191.5,153.5 Z"/></g>
<g><path style="opacity:0.6" fill="#191a21" d="M 140.5,161.5 C 141.117,161.611 141.617,161.944 142,162.5C 143.314,166.754 144.147,171.087 144.5,175.5C 142.565,171.107 141.232,166.441 140.5,161.5 Z"/></g>
<g><path style="opacity:0.306" fill="#21222c" d="M 204.5,171.5 C 205.906,171.973 206.573,172.973 206.5,174.5C 205.094,174.027 204.427,173.027 204.5,171.5 Z"/></g>
<g><path style="opacity:0.376" fill="#202028" d="M 207.5,175.5 C 208.906,175.973 209.573,176.973 209.5,178.5C 208.094,178.027 207.427,177.027 207.5,175.5 Z"/></g>
<g><path style="opacity:1" fill="#242436" d="M 612.5,180.5 C 605.131,195.907 598.298,211.574 592,227.5C 586.225,236.048 581.225,245.048 577,254.5C 574.287,258.092 571.453,261.592 568.5,265C 547.994,269.724 527.66,269.558 507.5,264.5C 511.976,264.181 516.143,262.848 520,260.5C 520.333,260.833 520.667,261.167 521,261.5C 525.288,258.426 528.788,255.259 531.5,252C 532.793,251.51 534.127,251.343 535.5,251.5C 535.351,250.448 535.517,249.448 536,248.5C 541.106,243.89 545.94,239.223 550.5,234.5C 556.412,236.053 562.079,235.386 567.5,232.5C 563.353,231.833 559.353,231.166 555.5,230.5C 556.552,230.649 557.552,230.483 558.5,230C 560.707,227.295 563.374,225.129 566.5,223.5C 568.192,221.641 569.692,219.641 571,217.5C 571.333,217.833 571.667,218.167 572,218.5C 580.185,211.645 588.018,204.479 595.5,197C 599.361,194.63 603.027,191.964 606.5,189C 607.61,185.413 609.61,182.58 612.5,180.5 Z"/></g>
<g><path style="opacity:0.565" fill="#20212a" d="M 217.5,187.5 C 219.587,188.585 220.92,190.251 221.5,192.5C 219.413,191.415 218.08,189.749 217.5,187.5 Z"/></g>
<g><path style="opacity:1" fill="#333340" d="M 550.5,234.5 C 545.94,239.223 541.106,243.89 536,248.5C 535.517,249.448 535.351,250.448 535.5,251.5C 534.127,251.343 532.793,251.51 531.5,252C 528.788,255.259 525.288,258.426 521,261.5C 520.667,261.167 520.333,260.833 520,260.5C 516.143,262.848 511.976,264.181 507.5,264.5C 500.178,263.449 493.178,261.282 486.5,258C 468.341,248.841 451.841,237.341 437,223.5C 436.5,222.5 436,221.5 435.5,220.5C 459.55,214.54 482.383,205.54 504,193.5C 504.969,201.937 508.469,209.103 514.5,215C 525.223,223.862 537.223,230.362 550.5,234.5 Z"/></g>
<g><path style="opacity:0.122" fill="#202129" d="M 150.5,197.5 C 154.07,204.866 157.07,212.533 159.5,220.5C 155.533,213.274 152.533,205.608 150.5,197.5 Z"/></g>
<g><path style="opacity:0.678" fill="#191a20" d="M 427.5,213.5 C 430.668,212.556 434.001,212.556 437.5,213.5C 434.348,214.239 431.015,214.239 427.5,213.5 Z"/></g>
<g><path style="opacity:0.012" fill="#21232c" d="M 257.5,219.5 C 259.027,219.427 260.027,220.094 260.5,221.5C 258.973,221.573 257.973,220.906 257.5,219.5 Z"/></g>
<g><path style="opacity:0.055" fill="#1e1e25" d="M 260.5,221.5 C 263.443,221.98 266.11,222.98 268.5,224.5C 265.658,224.768 262.992,223.768 260.5,221.5 Z"/></g>
<g><path style="opacity:1" fill="#050506" d="M 223.5,257.5 C 220.849,258.49 218.183,259.49 215.5,260.5C 214,260.547 213,259.881 212.5,258.5C 216.067,258.353 219.067,256.687 221.5,253.5C 232.23,245.437 241.23,235.771 248.5,224.5C 249.5,223.167 250.5,223.167 251.5,224.5C 245.028,237.969 235.694,248.969 223.5,257.5 Z"/></g>
<g><path style="opacity:1" fill="#333340" d="M 246.5,290.5 C 245.325,290.719 244.325,290.386 243.5,289.5C 236.834,279.359 230.167,268.692 223.5,257.5C 235.694,248.969 245.028,237.969 251.5,224.5C 250.5,223.167 249.5,223.167 248.5,224.5C 241.23,235.771 232.23,245.437 221.5,253.5C 219.807,252.525 218.307,251.192 217,249.5C 214.961,245.923 212.795,242.423 210.5,239C 204.484,227.768 198.484,216.935 192.5,206.5C 201.679,203.987 208.012,198.32 211.5,189.5C 216.291,194.792 221.291,199.959 226.5,205C 238.564,213.394 250.897,221.394 263.5,229C 271.164,231.11 278.664,233.61 286,236.5C 286.981,244.907 284.981,252.574 280,259.5C 271.524,272.812 260.357,283.145 246.5,290.5 Z"/></g>
<g><path style="opacity:0.027" fill="#282834" d="M 167.5,236.5 C 168.906,236.973 169.573,237.973 169.5,239.5C 168.094,239.027 167.427,238.027 167.5,236.5 Z"/></g>
<g><path style="opacity:0.369" fill="#1e1e27" d="M 292.5,242.5 C 292.117,245.811 291.117,248.811 289.5,251.5C 289.933,248.834 290.433,246.168 291,243.5C 291.383,242.944 291.883,242.611 292.5,242.5 Z"/></g>
<g><path style="opacity:0.063" fill="#24242e" d="M 281.5,265.5 C 281.573,267.027 280.906,268.027 279.5,268.5C 279.427,266.973 280.094,265.973 281.5,265.5 Z"/></g>
<g><path style="opacity:0.004" fill="#282934" d="M 197.5,276.5 C 199.167,277.5 200.5,278.833 201.5,280.5C 199.167,280.167 197.833,278.833 197.5,276.5 Z"/></g>
<g><path style="opacity:0.008" fill="#202229" d="M 257.5,290.5 C 256.055,292.063 254.389,293.396 252.5,294.5C 253.129,292.003 254.796,290.67 257.5,290.5 Z"/></g>
<g><path style="opacity:0.443" fill="#202028" d="M 213.5,292.5 C 215.404,292.738 216.738,293.738 217.5,295.5C 215.596,295.262 214.262,294.262 213.5,292.5 Z"/></g>

        
<g><path style="opacity:0.998" fill="#1d1719" d="M 567.5,264.5 C 567.427,266.027 568.094,267.027 569.5,267.5C 570.833,268.167 571.833,269.167 572.5,270.5C 572.427,272.027 573.094,273.027 574.5,273.5C 576.786,276.463 578.619,279.796 580,283.5C 581.333,288.167 582.667,292.833 584,297.5C 600.968,293.905 616.801,296.738 631.5,306C 657.957,323.456 680.123,345.29 698,371.5C 700.529,375.926 702.362,380.592 703.5,385.5C 703.41,388.152 704.076,390.485 705.5,392.5C 706.37,394.032 706.036,395.532 704.5,397C 701.814,398.368 699.147,399.701 696.5,401C 687.337,403.06 678.337,403.893 669.5,403.5C 671.81,407.254 673.643,411.254 675,415.5C 676.619,423.927 678.619,432.26 681,440.5C 682.454,454.02 679.787,466.687 673,478.5C 663.749,491.086 652.582,501.586 639.5,510C 630.893,513.302 622.893,517.635 615.5,523C 597.029,529.157 579.029,536.491 561.5,545C 545.683,550.606 529.683,555.606 513.5,560C 521.167,567 528.833,574 536.5,581C 541.889,585.389 547.556,589.389 553.5,593C 559.667,598.5 565.833,604 572,609.5C 578.423,618.674 584.09,628.34 589,638.5C 598.788,663.109 604.621,688.609 606.5,715C 605.825,731.869 601.492,747.703 593.5,762.5C 592.711,762.783 592.044,763.283 591.5,764C 593.134,764.494 594.801,764.66 596.5,764.5C 603.201,764.682 609.201,766.849 614.5,771C 619.719,777.218 624.552,783.718 629,790.5C 633.064,794.786 637.897,797.952 643.5,800C 646.319,802.72 645.986,805.053 642.5,807C 635.644,812.007 627.978,814.507 619.5,814.5C 615.167,814.5 610.833,814.5 606.5,814.5C 606.263,815.791 606.596,816.791 607.5,817.5C 609.143,819.708 608.81,821.541 606.5,823C 599.093,824.492 591.593,825.325 584,825.5C 570.833,824.357 557.666,823.19 544.5,822C 528.753,817.882 515.253,810.049 504,798.5C 495.911,789.336 489.577,779.003 485,767.5C 473.056,772.575 460.556,774.908 447.5,774.5C 441.513,773.858 435.513,773.358 429.5,773C 427,772.625 424.667,771.792 422.5,770.5C 418.78,774.733 415.613,779.4 413,784.5C 396.732,800.487 377.065,808.487 354,808.5C 349.103,808.068 344.269,807.234 339.5,806C 337.709,805.585 336.376,804.585 335.5,803C 338.138,800.346 341.138,798.18 344.5,796.5C 345.973,795.928 347.307,795.095 348.5,794C 346.609,793.797 344.943,794.297 343.5,795.5C 334.515,796.911 325.515,796.744 316.5,795C 304.562,791.925 299.562,784.425 301.5,772.5C 312.272,769.781 321.939,764.947 330.5,758C 319.87,750.041 313.37,739.541 311,726.5C 307.602,710.123 307.769,693.789 311.5,677.5C 312.793,675.636 312.793,673.636 311.5,671.5C 310.893,671.624 310.56,671.957 310.5,672.5C 309.013,673.804 307.346,674.97 305.5,676C 298.059,677.01 291.059,675.843 284.5,672.5C 275.52,664.574 271.187,654.574 271.5,642.5C 272.908,618.525 282.242,598.358 299.5,582C 310.392,573.408 322.392,571.241 335.5,575.5C 336.947,576.885 337.947,576.552 338.5,574.5C 338.433,573.041 338.766,571.708 339.5,570.5C 340.757,569.377 340.424,568.711 338.5,568.5C 326.038,567.642 313.704,565.808 301.5,563C 279.858,557.675 258.525,551.341 237.5,544C 217.724,535.619 199.39,524.952 182.5,512C 179.629,509.297 176.962,506.464 174.5,503.5C 174.027,502.094 173.027,501.427 171.5,501.5C 155.808,488.291 146.475,471.458 143.5,451C 144.485,443.505 144.985,436.005 145,428.5C 139.772,431.396 134.272,432.062 128.5,430.5C 127.063,426.472 126.397,422.305 126.5,418C 128.512,388.142 139.012,361.642 158,338.5C 167.466,327.852 178.966,320.352 192.5,316C 198.537,315.303 204.537,315.47 210.5,316.5C 212.5,305.171 217.167,295.171 224.5,286.5C 225.906,286.027 226.573,285.027 226.5,283.5C 228.616,277.549 231.783,272.215 236,267.5C 246.355,255.578 258.188,245.412 271.5,237C 347.364,211.021 424.364,207.021 502.5,225C 512.956,228.227 522.956,232.56 532.5,238C 541.167,244.671 550.501,250.338 560.5,255C 562.476,258.463 564.81,261.63 567.5,264.5 Z"/></g>
<g><path style="opacity:1" fill="#bf296a" d="M 689.5,369.5 C 691.14,388.025 682.807,395.525 664.5,392C 658.088,389.643 651.755,387.31 645.5,385C 648,386.833 650.5,388.667 653,390.5C 653.6,392.91 654.766,394.91 656.5,396.5C 658.725,400.235 661.558,403.568 665,406.5C 666.454,409.071 667.62,411.738 668.5,414.5C 667.347,426.097 664.847,437.431 661,448.5C 656.587,456.995 651.92,465.328 647,473.5C 629.74,490.762 610.24,504.929 588.5,516C 570.258,524.858 551.258,531.525 531.5,536C 495.983,548.107 459.317,555.274 421.5,557.5C 399.511,556.721 377.511,556.221 355.5,556C 345.32,553.403 334.987,551.736 324.5,551C 294.373,542.44 264.707,532.44 235.5,521C 216.909,512.707 199.575,502.374 183.5,490C 172.733,480.622 163.233,470.122 155,458.5C 151.902,451.554 150.735,444.221 151.5,436.5C 153.967,428.619 154.967,420.619 154.5,412.5C 153.817,412.863 153.15,413.196 152.5,413.5C 148.453,418.44 143.286,421.44 137,422.5C 134.013,422.01 132.18,420.343 131.5,417.5C 133.163,407.851 134.663,398.185 136,388.5C 141,378.167 146,367.833 151,357.5C 159.991,342.175 172.491,330.675 188.5,323C 197.005,320.179 205.672,319.679 214.5,321.5C 215.279,315.66 216.779,309.993 219,304.5C 225.667,293.833 232.333,283.167 239,272.5C 250.406,259.081 263.572,247.915 278.5,239C 326.461,224.713 375.461,218.046 425.5,219C 447.043,222.162 468.709,225.162 490.5,228C 504.391,230.631 517.391,235.631 529.5,243C 538.665,249.084 547.998,254.917 557.5,260.5C 569.42,271.674 576.587,285.34 579,301.5C 581.005,308.828 584.672,315.162 590,320.5C 588.937,315.301 587.437,310.134 585.5,305C 585.833,304.167 586.167,303.333 586.5,302.5C 601.229,299.229 614.896,301.729 627.5,310C 645.138,321.961 661.305,335.794 676,351.5C 680.717,357.377 685.217,363.377 689.5,369.5 Z"/></g>
<g><path style="opacity:0.725" fill="#7b7e7f" d="M 567.5,264.5 C 568.906,264.973 569.573,265.973 569.5,267.5C 568.094,267.027 567.427,266.027 567.5,264.5 Z"/></g>
<g><path style="opacity:0.545" fill="#7b7f80" d="M 572.5,270.5 C 573.906,270.973 574.573,271.973 574.5,273.5C 573.094,273.027 572.427,272.027 572.5,270.5 Z"/></g>
<g><path style="opacity:0.486" fill="#7c7f81" d="M 226.5,283.5 C 226.573,285.027 225.906,286.027 224.5,286.5C 224.427,284.973 225.094,283.973 226.5,283.5 Z"/></g>
<g><path style="opacity:1" fill="#100b0d" d="M 618.5,337.5 C 624.632,343.789 631.299,349.623 638.5,355C 649.79,362.609 661.79,368.943 674.5,374C 677.242,375.886 678.909,378.386 679.5,381.5C 677.473,381.662 675.473,381.495 673.5,381C 656.213,371.778 640.046,360.945 625,348.5C 623,345.833 621,343.167 619,340.5C 618.517,339.552 618.351,338.552 618.5,337.5 Z"/></g>
<g><path style="opacity:1" fill="#912349" d="M 689.5,369.5 C 695.393,376.932 698.726,385.265 699.5,394.5C 689.842,398.206 679.842,399.373 669.5,398C 665.09,396.449 660.757,394.949 656.5,393.5C 656.5,394.5 656.5,395.5 656.5,396.5C 654.766,394.91 653.6,392.91 653,390.5C 650.5,388.667 648,386.833 645.5,385C 651.755,387.31 658.088,389.643 664.5,392C 682.807,395.525 691.14,388.025 689.5,369.5 Z"/></g>
<g><path style="opacity:1" fill="#100a0c" d="M 147.5,382.5 C 148.993,383.312 149.66,384.645 149.5,386.5C 148.225,393.816 147.058,401.15 146,408.5C 144.374,411.128 142.374,413.461 140,415.5C 141.168,404.157 143.668,393.157 147.5,382.5 Z"/></g>
<g><path style="opacity:0.686" fill="#626567" d="M 703.5,385.5 C 704.924,387.515 705.59,389.848 705.5,392.5C 704.076,390.485 703.41,388.152 703.5,385.5 Z"/></g>
<g><path style="opacity:1" fill="#902449" d="M 152.5,413.5 C 151.147,417.032 149.147,420.199 146.5,423C 142.539,424.598 138.539,426.098 134.5,427.5C 132.024,424.717 131.024,421.384 131.5,417.5C 132.18,420.343 134.013,422.01 137,422.5C 143.286,421.44 148.453,418.44 152.5,413.5 Z"/></g>
<g><path style="opacity:1" fill="#902248" d="M 668.5,414.5 C 670.805,422.825 673.305,431.159 676,439.5C 677.445,455.667 672.945,470 662.5,482.5C 657.167,487.167 652.167,492.167 647.5,497.5C 636.091,503.71 624.757,510.21 613.5,517C 594.16,523.003 575.493,530.67 557.5,540C 535.004,547.711 512.337,554.377 489.5,560C 464.814,564.003 439.981,566.503 415,567.5C 386.539,565.485 358.039,563.985 329.5,563C 288.931,556.527 250.265,544.193 213.5,526C 189.858,513.027 170.692,495.194 156,472.5C 149.626,460.947 148.126,448.947 151.5,436.5C 150.735,444.221 151.902,451.554 155,458.5C 163.233,470.122 172.733,480.622 183.5,490C 199.575,502.374 216.909,512.707 235.5,521C 264.707,532.44 294.373,542.44 324.5,551C 334.987,551.736 345.32,553.403 355.5,556C 377.511,556.221 399.511,556.721 421.5,557.5C 459.317,555.274 495.983,548.107 531.5,536C 551.258,531.525 570.258,524.858 588.5,516C 610.24,504.929 629.74,490.762 647,473.5C 651.92,465.328 656.587,456.995 661,448.5C 664.847,437.431 667.347,426.097 668.5,414.5 Z"/></g>
<g><path style="opacity:1" fill="#360d1b" d="M 662.5,482.5 C 658.5,488.5 653.5,493.5 647.5,497.5C 652.167,492.167 657.167,487.167 662.5,482.5 Z"/></g>
<g><path style="opacity:0.718" fill="#7d8082" d="M 171.5,501.5 C 173.027,501.427 174.027,502.094 174.5,503.5C 172.973,503.573 171.973,502.906 171.5,501.5 Z"/></g>
<g><path style="opacity:1" fill="#902248" d="M 478.5,672.5 C 485.91,678.441 494.243,679.941 503.5,677C 506.732,675.77 509.399,673.77 511.5,671C 512.5,670.333 513.5,670.333 514.5,671C 512.476,676.438 510.142,681.772 507.5,687C 510.833,689 514.167,689 517.5,687C 531.421,676.687 539.921,662.853 543,645.5C 544.038,633.747 540.205,623.913 531.5,616C 520.808,606.822 508.475,601.155 494.5,599C 490.5,598.333 486.5,598.333 482.5,599C 479.515,601.777 478.182,605.277 478.5,609.5C 479.213,614.311 480.547,618.978 482.5,623.5C 479.407,625.309 476.074,626.309 472.5,626.5C 472.923,625.735 473.257,624.902 473.5,624C 469.779,615.709 469.779,607.543 473.5,599.5C 473.167,598.5 472.5,597.833 471.5,597.5C 469.364,598.472 468.197,600.139 468,602.5C 467.081,608.966 467.581,615.299 469.5,621.5C 458.98,625.321 450.48,631.654 444,640.5C 430.726,618.269 417.226,596.269 403.5,574.5C 414.63,572.841 425.963,571.841 437.5,571.5C 461.059,569.586 484.392,566.42 507.5,562C 515.432,567.928 522.765,574.595 529.5,582C 535,586.167 540.5,590.333 546,594.5C 546.333,596.047 545.833,597.38 544.5,598.5C 548.847,601.371 552.014,605.371 554,610.5C 567.078,647.602 556.911,676.435 523.5,697C 507.005,705.69 493.505,702.523 483,687.5C 480.383,682.817 478.883,677.817 478.5,672.5 Z"/></g>
<g><path style="opacity:0.118" fill="#c1c6c8" d="M 338.5,568.5 C 340.424,568.711 340.757,569.377 339.5,570.5C 339.167,569.833 338.833,569.167 338.5,568.5 Z"/></g>
<g><path style="opacity:1" fill="#bf2969" d="M 341.5,624.5 C 340.876,624.917 340.543,625.584 340.5,626.5C 342.359,636.417 343.692,646.417 344.5,656.5C 345.308,663.48 342.641,665.647 336.5,663C 325.493,657.841 316.493,650.341 309.5,640.5C 307.682,644.136 305.849,647.802 304,651.5C 296.56,654.165 290.893,651.832 287,644.5C 283.436,623.858 288.77,605.858 303,590.5C 307.998,584.965 313.498,580.298 319.5,576.5C 326.113,576.151 332.113,577.818 337.5,581.5C 337.712,583.384 338.712,584.717 340.5,585.5C 341.487,582.232 341.82,578.898 341.5,575.5C 342.216,573.444 342.883,571.277 343.5,569C 347.541,568.838 351.541,569.338 355.5,570.5C 348.593,587.894 343.926,605.894 341.5,624.5 Z"/></g>
<g><path style="opacity:1" fill="#b87d96" d="M 360.5,674.5 C 365.636,683.259 371.636,691.426 378.5,699C 384.877,703.189 391.544,706.855 398.5,710C 417.349,716.655 424.849,710.155 421,690.5C 413.133,671.664 409.3,651.998 409.5,631.5C 398.985,626.788 387.985,624.121 376.5,623.5C 367.747,622.705 360.081,625.039 353.5,630.5C 350.807,627.803 348.473,624.803 346.5,621.5C 349.487,606.708 352.987,592.041 357,577.5C 357.93,575.064 359.097,572.731 360.5,570.5C 364.795,569.339 369.129,569.172 373.5,570C 381.953,570.635 390.287,571.801 398.5,573.5C 412.833,597.5 427.167,621.5 441.5,645.5C 436.166,659.522 436.333,673.522 442,687.5C 449.259,695.897 458.426,699.063 469.5,697C 472.798,696.513 475.798,695.347 478.5,693.5C 480.786,693.96 482.119,695.293 482.5,697.5C 479.307,719.149 479.973,740.649 484.5,762C 484.167,762.5 483.833,763 483.5,763.5C 454.121,772.925 425.787,770.425 398.5,756C 385.188,748.027 373.021,738.527 362,727.5C 358.333,721.833 354.667,716.167 351,710.5C 348.591,702.618 346.757,694.618 345.5,686.5C 351.447,683.692 356.447,679.692 360.5,674.5 Z"/></g>
<g><path style="opacity:1" fill="#350d1a" d="M 437.5,571.5 C 425.963,571.841 414.63,572.841 403.5,574.5C 402.596,573.791 402.263,572.791 402.5,571.5C 414.167,571.5 425.833,571.5 437.5,571.5 Z"/></g>
<g><path style="opacity:0.553" fill="#8c9091" d="M 338.5,574.5 C 337.947,576.552 336.947,576.885 335.5,575.5C 336.609,575.443 337.609,575.11 338.5,574.5 Z"/></g>
<g><path style="opacity:1" fill="#6b2142" d="M 341.5,575.5 C 341.82,578.898 341.487,582.232 340.5,585.5C 338.712,584.717 337.712,583.384 337.5,581.5C 338.458,581.953 339.292,582.619 340,583.5C 340.183,580.635 340.683,577.969 341.5,575.5 Z"/></g>
<g><path style="opacity:1" fill="#902248" d="M 319.5,576.5 C 313.498,580.298 307.998,584.965 303,590.5C 288.77,605.858 283.436,623.858 287,644.5C 290.893,651.832 296.56,654.165 304,651.5C 305.849,647.802 307.682,644.136 309.5,640.5C 316.493,650.341 325.493,657.841 336.5,663C 342.641,665.647 345.308,663.48 344.5,656.5C 343.692,646.417 342.359,636.417 340.5,626.5C 340.543,625.584 340.876,624.917 341.5,624.5C 343.341,627.86 345.841,630.86 349,633.5C 356.123,645.314 358.79,657.981 357,671.5C 347.68,683.246 336.514,685.412 323.5,678C 320.679,676.178 318.179,674.011 316,671.5C 316.27,667.131 316.104,662.798 315.5,658.5C 312.383,663.451 308.383,667.618 303.5,671C 299.152,671.238 294.819,670.905 290.5,670C 278.528,660.766 274.028,648.599 277,633.5C 280.856,610.244 292.356,592.078 311.5,579C 313.909,577.293 316.575,576.46 319.5,576.5 Z"/></g>
<g><path style="opacity:1" fill="#bf2969" d="M 478.5,672.5 C 478.817,669.428 478.484,666.428 477.5,663.5C 476.056,665.608 475.39,667.941 475.5,670.5C 473.625,679.348 467.958,684.015 458.5,684.5C 451.029,682.536 445.862,677.869 443,670.5C 442.501,665.177 442.334,659.844 442.5,654.5C 447.24,639.079 457.24,629.746 472.5,626.5C 476.074,626.309 479.407,625.309 482.5,623.5C 480.547,618.978 479.213,614.311 478.5,609.5C 478.182,605.277 479.515,601.777 482.5,599C 486.5,598.333 490.5,598.333 494.5,599C 508.475,601.155 520.808,606.822 531.5,616C 540.205,623.913 544.038,633.747 543,645.5C 539.921,662.853 531.421,676.687 517.5,687C 514.167,689 510.833,689 507.5,687C 510.142,681.772 512.476,676.438 514.5,671C 513.5,670.333 512.5,670.333 511.5,671C 509.399,673.77 506.732,675.77 503.5,677C 494.243,679.941 485.91,678.441 478.5,672.5 Z"/></g>
<g><path style="opacity:1" fill="#bf2969" d="M 598.5,692.5 C 599.479,721.163 590.479,745.997 571.5,767C 560.734,776.049 548.4,781.882 534.5,784.5C 518.075,781.578 507.908,771.912 504,755.5C 503.528,748.944 502.695,742.444 501.5,736C 501.833,734.167 502.167,732.333 502.5,730.5C 515.16,740.429 528.16,740.929 541.5,732C 554.161,721.163 561.994,707.663 565,691.5C 565.527,679.977 566.361,668.477 567.5,657C 567.12,651.981 566.454,647.148 565.5,642.5C 565.038,628.697 561.705,615.697 555.5,603.5C 556.365,602.417 557.365,602.251 558.5,603C 569.096,614.334 577.596,627.167 584,641.5C 590.382,658.136 595.215,675.136 598.5,692.5 Z"/></g>
<g><path style="opacity:1" fill="#d997ae" d="M 360.5,674.5 C 363.081,665.176 362.914,655.842 360,646.5C 358.097,641.032 355.93,635.699 353.5,630.5C 360.081,625.039 367.747,622.705 376.5,623.5C 387.985,624.121 398.985,626.788 409.5,631.5C 409.3,651.998 413.133,671.664 421,690.5C 424.849,710.155 417.349,716.655 398.5,710C 391.544,706.855 384.877,703.189 378.5,699C 371.636,691.426 365.636,683.259 360.5,674.5 Z"/></g>
<g><path style="opacity:1" fill="#902248" d="M 565.5,642.5 C 566.454,647.148 567.12,651.981 567.5,657C 566.361,668.477 565.527,679.977 565,691.5C 561.994,707.663 554.161,721.163 541.5,732C 528.16,740.929 515.16,740.429 502.5,730.5C 502.167,732.333 501.833,734.167 501.5,736C 502.695,742.444 503.528,748.944 504,755.5C 507.908,771.912 518.075,781.578 534.5,784.5C 548.4,781.882 560.734,776.049 571.5,767C 590.479,745.997 599.479,721.163 598.5,692.5C 603.516,717.402 599.349,740.735 586,762.5C 585.376,764.464 585.876,766.131 587.5,767.5C 595.429,767.814 602.762,769.98 609.5,774C 615.186,779.876 620.02,786.376 624,793.5C 628.072,798.113 632.905,801.613 638.5,804C 627.231,809.772 615.231,812.105 602.5,811C 601.903,812.062 601.57,813.228 601.5,814.5C 602.204,816.535 602.871,818.535 603.5,820.5C 585.449,820.757 567.449,819.924 549.5,818C 516.675,809.175 495.842,788.342 487,755.5C 483.667,736.833 483.667,718.167 487,699.5C 493.328,705.496 500.828,707.663 509.5,706C 541.815,697.675 559.981,676.842 564,643.5C 564.383,642.944 564.883,642.611 565.5,642.5 Z"/></g>
<g><path style="opacity:0.18" fill="#9ba0a1" d="M 310.5,672.5 C 310.56,671.957 310.893,671.624 311.5,671.5C 312.793,673.636 312.793,675.636 311.5,677.5C 311.784,675.585 311.451,673.919 310.5,672.5 Z"/></g>
<g><path style="opacity:1" fill="#8f2348" d="M 442.5,654.5 C 442.334,659.844 442.501,665.177 443,670.5C 445.862,677.869 451.029,682.536 458.5,684.5C 467.958,684.015 473.625,679.348 475.5,670.5C 475.435,676.617 475.935,682.617 477,688.5C 475.421,690.041 473.587,691.208 471.5,692C 465.833,692.667 460.167,692.667 454.5,692C 448.562,690.395 445.062,686.562 444,680.5C 441.517,671.791 441.017,663.124 442.5,654.5 Z"/></g>
<g><path style="opacity:1" fill="#8f2247" d="M 352.5,720.5 C 351.542,720.047 350.708,719.381 350,718.5C 349,720.5 348,722.5 347,724.5C 338.32,720.657 330.654,715.324 324,708.5C 322.417,720.502 325.084,731.502 332,741.5C 338.772,748.117 345.939,754.117 353.5,759.5C 344.097,759.463 336.097,756.13 329.5,749.5C 320.93,741.021 316.096,730.688 315,718.5C 312.858,705.077 313.358,691.743 316.5,678.5C 323.643,684.906 331.976,687.572 341.5,686.5C 342.041,694.666 343.541,702.666 346,710.5C 348.143,713.962 350.31,717.296 352.5,720.5 Z"/></g>
<g><path style="opacity:1" fill="#bf2969" d="M 352.5,720.5 C 354.255,723.68 356.255,726.68 358.5,729.5C 361.5,734.5 365.5,738.5 370.5,741.5C 372.806,743.139 374.806,745.139 376.5,747.5C 379.123,754.311 382.457,760.811 386.5,767C 376.625,767.76 367.292,765.927 358.5,761.5C 356.95,760.559 355.284,759.893 353.5,759.5C 345.939,754.117 338.772,748.117 332,741.5C 325.084,731.502 322.417,720.502 324,708.5C 330.654,715.324 338.32,720.657 347,724.5C 348,722.5 349,720.5 350,718.5C 350.708,719.381 351.542,720.047 352.5,720.5 Z"/></g>
<g><path style="opacity:1" fill="#591734" d="M 358.5,729.5 C 362.833,733.167 366.833,737.167 370.5,741.5C 365.5,738.5 361.5,734.5 358.5,729.5 Z"/></g>
<g><path style="opacity:1" fill="#902248" d="M 376.5,747.5 C 386.001,753.478 395.667,759.311 405.5,765C 408.56,765.848 411.56,766.848 414.5,768C 415.554,769.388 415.72,770.888 415,772.5C 405.597,787.549 392.097,796.715 374.5,800C 367.374,801.425 360.208,802.592 353,803.5C 350.102,803.363 347.269,802.863 344.5,802C 347.167,800 349.833,798 352.5,796C 357.01,790.658 361.677,785.492 366.5,780.5C 366.113,779.28 365.28,778.613 364,778.5C 361.062,779.283 358.896,780.95 357.5,783.5C 358.547,780.404 359.88,777.404 361.5,774.5C 351.183,771.672 341.017,768.339 331,764.5C 329.862,764.989 328.695,765.322 327.5,765.5C 330.385,763.969 333.052,761.969 335.5,759.5C 342.062,762.14 348.729,764.474 355.5,766.5C 356.442,766.392 357.275,766.059 358,765.5C 357.645,764.041 357.811,762.707 358.5,761.5C 367.292,765.927 376.625,767.76 386.5,767C 382.457,760.811 379.123,754.311 376.5,747.5 Z"/></g>
<g><path style="opacity:0.039" fill="#cfd5d7" d="M 593.5,762.5 C 594.5,763.167 595.5,763.833 596.5,764.5C 594.801,764.66 593.134,764.494 591.5,764C 592.044,763.283 592.711,762.783 593.5,762.5 Z"/></g>
<g><path style="opacity:1" fill="#bf2969" d="M 357.5,783.5 C 343.133,791.218 328.133,792.552 312.5,787.5C 311.415,785.413 309.749,784.08 307.5,783.5C 306.781,781.236 306.448,778.903 306.5,776.5C 308.553,776.598 310.22,775.931 311.5,774.5C 317.489,772.509 322.823,769.509 327.5,765.5C 328.695,765.322 329.862,764.989 331,764.5C 341.017,768.339 351.183,771.672 361.5,774.5C 359.88,777.404 358.547,780.404 357.5,783.5 Z"/></g>
<g><path style="opacity:1" fill="#7e264c" d="M 311.5,774.5 C 310.22,775.931 308.553,776.598 306.5,776.5C 306.448,778.903 306.781,781.236 307.5,783.5C 306.883,783.389 306.383,783.056 306,782.5C 305.503,780.19 305.337,777.857 305.5,775.5C 307.5,775.167 309.5,774.833 311.5,774.5 Z"/></g>
<g><path style="opacity:1" fill="#be2869" d="M 577.5,780.5 C 592.442,778.021 604.942,782.354 615,793.5C 615.688,794.332 615.521,794.998 614.5,795.5C 607.333,800.626 599.333,802.959 590.5,802.5C 590.692,805.601 591.358,808.601 592.5,811.5C 587.462,812.33 582.795,811.164 578.5,808C 572.243,803.287 566.076,798.454 560,793.5C 558.148,790.653 558.648,788.153 561.5,786C 566.844,783.841 572.177,782.008 577.5,780.5 Z"/></g>
<g><path style="opacity:1" fill="#641c3c" d="M 307.5,783.5 C 309.749,784.08 311.415,785.413 312.5,787.5C 310.251,786.92 308.585,785.587 307.5,783.5 Z"/></g>
<g><path style="opacity:0.165" fill="#a9aeb0" d="M 344.5,796.5 C 344.5,795.833 344.167,795.5 343.5,795.5C 344.943,794.297 346.609,793.797 348.5,794C 347.307,795.095 345.973,795.928 344.5,796.5 Z"/></g>
<g><path style="opacity:0.282" fill="#a8adaf" d="M 619.5,814.5 C 615.232,814.869 611.232,815.869 607.5,817.5C 606.596,816.791 606.263,815.791 606.5,814.5C 610.833,814.5 615.167,814.5 619.5,814.5 Z"/></g>

        
<g><path style="opacity:0.992" fill="#181417" d="M 560.5,379.5 C 564.387,375.727 566.72,371.06 567.5,365.5C 569.686,364.177 571.186,362.177 572,359.5C 578.954,340.152 574.454,323.985 558.5,311C 545.232,303.032 531.232,296.699 516.5,292C 506.207,290.529 495.873,290.196 485.5,291C 479.383,293.373 473.05,294.706 466.5,295C 461.341,297.412 456.341,300.079 451.5,303C 444.575,308.38 437.742,313.88 431,319.5C 423.646,329.539 417.313,340.205 412,351.5C 411.012,369.022 416.845,383.856 429.5,396C 434.651,398.996 439.651,402.162 444.5,405.5C 446.713,407.86 449.379,409.694 452.5,411C 459.011,412.032 465.344,411.532 471.5,409.5C 472.107,409.624 472.44,409.957 472.5,410.5C 469.227,413.144 465.56,415.311 461.5,417C 456.665,417.586 451.999,416.92 447.5,415C 440.357,408.927 432.69,403.594 424.5,399C 421.121,394.41 417.621,389.91 414,385.5C 412.441,383.783 411.608,381.783 411.5,379.5C 411.291,378.078 410.791,376.745 410,375.5C 409.505,377.473 409.338,379.473 409.5,381.5C 406.726,398.056 397.392,403.556 381.5,398C 377.252,395.757 373.586,392.757 370.5,389C 368.246,387.349 365.912,387.182 363.5,388.5C 358.442,397.689 350.775,400.856 340.5,398C 336.532,397.036 333.365,394.869 331,391.5C 328.383,383.698 326.716,375.698 326,367.5C 325.461,370.529 324.794,373.529 324,376.5C 317.405,391.893 308.238,405.393 296.5,417C 294.598,418.796 292.598,418.963 290.5,417.5C 293.117,412.886 296.117,408.553 299.5,404.5C 300.189,405.774 301.023,405.774 302,404.5C 307.333,395.833 312.667,387.167 318,378.5C 321.248,370.808 322.248,362.808 321,354.5C 313.81,339.274 303.643,326.441 290.5,316C 283.789,313.765 277.456,310.765 271.5,307C 246.755,303.29 227.921,312.123 215,333.5C 207.453,345.776 204.286,359.11 205.5,373.5C 205.294,376.495 205.96,379.162 207.5,381.5C 207.878,383.921 208.545,386.254 209.5,388.5C 208.116,389.801 206.616,389.801 205,388.5C 196.903,365.733 199.903,344.399 214,324.5C 214.811,302.71 223.644,285.21 240.5,272C 247.094,267.201 254.428,264.368 262.5,263.5C 267.334,263.944 272.001,265.11 276.5,267C 305.719,288.241 323.719,316.741 330.5,352.5C 330.821,354.048 331.821,354.715 333.5,354.5C 344.853,360.061 356.853,363.394 369.5,364.5C 379.284,361.745 389.284,360.245 399.5,360C 396.14,347.665 395.64,335.165 398,322.5C 400.262,313.712 402.929,305.046 406,296.5C 409.946,290.221 414.279,284.221 419,278.5C 434.232,264.13 452.065,254.297 472.5,249C 492.538,243.576 511.538,245.909 529.5,256C 538.534,261.893 545.367,269.726 550,279.5C 554.515,287.881 558.348,296.548 561.5,305.5C 584.461,325.683 587.628,348.683 571,374.5C 569.5,376 568,377.5 566.5,379C 564.527,379.495 562.527,379.662 560.5,379.5 Z"/></g>
<g><path style="opacity:1" fill="#6e1b68" d="M 529.5,262.5 C 532.167,265.833 535.167,268.833 538.5,271.5C 544.711,280.92 549.544,290.92 553,301.5C 524.317,282.89 493.817,279.39 461.5,291C 454.299,294.098 447.965,298.431 442.5,304C 436.129,307.365 430.629,311.865 426,317.5C 418.399,328.107 412.065,339.441 407,351.5C 406.457,356.243 406.457,360.91 407,365.5C 404.135,360.234 402.469,354.567 402,348.5C 400.813,331.241 403.479,314.574 410,298.5C 423.165,279.316 440.665,265.483 462.5,257C 485.869,247.939 508.203,249.772 529.5,262.5 Z"/></g>
<g><path style="opacity:1" fill="#341231" d="M 529.5,262.5 C 533.5,264.5 536.5,267.5 538.5,271.5C 535.167,268.833 532.167,265.833 529.5,262.5 Z"/></g>
<g><path style="opacity:1" fill="#6e1b68" d="M 254.5,269.5 C 261.221,268.751 267.554,269.918 273.5,273C 298.388,291.387 314.721,315.554 322.5,345.5C 321.5,345.5 320.5,345.5 319.5,345.5C 319.116,341.396 317.616,337.729 315,334.5C 309.501,328.025 304.001,321.525 298.5,315C 289.756,309.294 280.422,304.628 270.5,301C 255.52,298.908 241.52,301.908 228.5,310C 225.667,312.833 222.833,315.667 220,318.5C 219.333,316.167 219.333,313.833 220,311.5C 224.55,299.238 231.05,288.072 239.5,278C 245.21,276.153 250.21,273.319 254.5,269.5 Z"/></g>
<g><path style="opacity:1" fill="#f5f3e7" d="M 567.5,365.5 C 563.649,360.486 558.983,356.319 553.5,353C 543.606,346.886 533.272,341.552 522.5,337C 465.992,324.661 439.992,347.494 444.5,405.5C 439.651,402.162 434.651,398.996 429.5,396C 416.845,383.856 411.012,369.022 412,351.5C 417.313,340.205 423.646,329.539 431,319.5C 437.742,313.88 444.575,308.38 451.5,303C 456.341,300.079 461.341,297.412 466.5,295C 473.05,294.706 479.383,293.373 485.5,291C 495.873,290.196 506.207,290.529 516.5,292C 531.232,296.699 545.232,303.032 558.5,311C 574.454,323.985 578.954,340.152 572,359.5C 571.186,362.177 569.686,364.177 567.5,365.5 Z"/></g>
<g><path style="opacity:1" fill="#f4f3e6" d="M 299.5,404.5 C 302.394,391.294 300.228,378.96 293,367.5C 289.193,362.059 285.027,356.892 280.5,352C 271.732,343.889 261.398,340.889 249.5,343C 229.362,346.966 215.362,358.466 207.5,377.5C 206.833,376.167 206.167,374.833 205.5,373.5C 204.286,359.11 207.453,345.776 215,333.5C 227.921,312.123 246.755,303.29 271.5,307C 277.456,310.765 283.789,313.765 290.5,316C 303.643,326.441 313.81,339.274 321,354.5C 322.248,362.808 321.248,370.808 318,378.5C 312.667,387.167 307.333,395.833 302,404.5C 301.023,405.774 300.189,405.774 299.5,404.5 Z"/></g>
<g><path style="opacity:1" fill="#6f1c69" d="M 567.5,365.5 C 566.72,371.06 564.387,375.727 560.5,379.5C 555.42,379.25 550.42,379.75 545.5,381C 531.312,384.729 517.312,389.063 503.5,394C 492.51,398.492 482.176,403.992 472.5,410.5C 472.44,409.957 472.107,409.624 471.5,409.5C 465.344,411.532 459.011,412.032 452.5,411C 449.379,409.694 446.713,407.86 444.5,405.5C 439.992,347.494 465.992,324.661 522.5,337C 533.272,341.552 543.606,346.886 553.5,353C 558.983,356.319 563.649,360.486 567.5,365.5 Z"/></g>
<g><path style="opacity:1" fill="#6f1c69" d="M 299.5,404.5 C 296.117,408.553 293.117,412.886 290.5,417.5C 280.354,412.929 271.02,407.096 262.5,400C 246.099,390.353 228.432,386.52 209.5,388.5C 208.545,386.254 207.878,383.921 207.5,381.5C 207.5,380.167 207.5,378.833 207.5,377.5C 215.362,358.466 229.362,346.966 249.5,343C 261.398,340.889 271.732,343.889 280.5,352C 285.027,356.892 289.193,362.059 293,367.5C 300.228,378.96 302.394,391.294 299.5,404.5 Z"/></g>
<g><path style="opacity:0.573" fill="#83827b" d="M 330.5,352.5 C 331.71,352.932 332.71,353.599 333.5,354.5C 331.821,354.715 330.821,354.048 330.5,352.5 Z"/></g>
<g><path style="opacity:1" fill="#6e1b68" d="M 329.5,358.5 C 340.896,364.687 353.062,368.354 366,369.5C 374.961,368.124 383.961,367.124 393,366.5C 398.609,365.552 402.442,367.552 404.5,372.5C 406.973,380.27 405.306,386.937 399.5,392.5C 393.208,396.306 386.875,396.14 380.5,392C 377.007,386.991 372.34,383.824 366.5,382.5C 363.972,382.763 361.639,383.596 359.5,385C 357.481,388.014 355.148,390.68 352.5,393C 344.85,395.304 339.017,393.138 335,386.5C 333.419,377.08 331.586,367.746 329.5,358.5 Z"/></g>
<g><path style="opacity:1" fill="#9e8095" d="M 205.5,373.5 C 206.167,374.833 206.833,376.167 207.5,377.5C 207.5,378.833 207.5,380.167 207.5,381.5C 205.96,379.162 205.294,376.495 205.5,373.5 Z"/></g>
<g><path style="opacity:0.008" fill="#92928a" d="M 411.5,379.5 C 410.833,380.167 410.167,380.833 409.5,381.5C 409.338,379.473 409.505,377.473 410,375.5C 410.791,376.745 411.291,378.078 411.5,379.5 Z"/></g>
<g><path style="opacity:0.005" fill="#000000" d="M 226.5,392.5 C 227.386,391.224 228.386,391.224 229.5,392.5C 228.575,393.562 227.575,393.562 226.5,392.5 Z"/></g>
<g><path style="opacity:0.004" fill="#000000" d="M 212.5,393.5 C 212.897,392.475 213.563,392.308 214.5,393C 213.906,393.464 213.239,393.631 212.5,393.5 Z"/></g>

        
<g><path style="opacity:0.985" fill="#20201f" d="M 591.5,350.5 C 590.89,349.609 590.557,348.609 590.5,347.5C 598.093,347.538 604.593,350.538 610,356.5C 612.002,361.007 613.502,365.674 614.5,370.5C 614.02,374.293 612.353,377.46 609.5,380C 603.352,383.078 597.019,385.578 590.5,387.5C 584.054,386.936 577.72,385.77 571.5,384C 563.833,383.333 556.167,383.333 548.5,384C 540.284,385.787 532.618,388.62 525.5,392.5C 525.631,391.624 525.298,390.957 524.5,390.5C 523.261,390.942 522.261,391.609 521.5,392.5C 520.791,393.404 519.791,393.737 518.5,393.5C 514.838,393.723 511.505,394.723 508.5,396.5C 505.759,396.707 503.426,397.707 501.5,399.5C 501.158,400.338 500.492,400.672 499.5,400.5C 494.914,401.46 490.914,403.46 487.5,406.5C 487.158,407.338 486.492,407.672 485.5,407.5C 483.973,407.427 482.973,408.094 482.5,409.5C 480.326,409.75 478.659,410.75 477.5,412.5C 476.167,412.5 475.5,413.167 475.5,414.5C 474.878,415.627 474.045,416.627 473,417.5C 471.951,416.483 470.784,416.316 469.5,417C 464.147,419.701 458.814,422.368 453.5,425C 440.182,427.885 426.849,430.552 413.5,433C 407.153,442.527 401.986,452.694 398,463.5C 395.706,464.852 393.206,465.519 390.5,465.5C 382.205,463.808 373.871,462.308 365.5,461C 361.367,455.866 356.867,451.032 352,446.5C 349.027,442.026 345.86,437.693 342.5,433.5C 328.924,432.583 315.59,430.25 302.5,426.5C 299.905,427.237 297.238,427.237 294.5,426.5C 294.953,425.542 295.619,424.708 296.5,424C 295.906,423.536 295.239,423.369 294.5,423.5C 290.703,423.128 287.37,421.794 284.5,419.5C 281.485,417.326 278.151,415.659 274.5,414.5C 273.415,412.413 271.749,411.08 269.5,410.5C 268.508,410.672 267.842,410.338 267.5,409.5C 267.027,408.094 266.027,407.427 264.5,407.5C 263.352,404.913 261.685,403.913 259.5,404.5C 250.198,398.055 239.864,393.722 228.5,391.5C 218.197,392.724 207.863,393.224 197.5,393C 182.151,389.16 173.651,379.326 172,363.5C 171.333,358.833 171.333,354.167 172,349.5C 172.036,347.059 172.869,345.059 174.5,343.5C 175.086,343.709 175.586,344.043 176,344.5C 175.529,355.347 177.529,365.681 182,375.5C 187.543,382.974 195.043,386.974 204.5,387.5C 231.733,383.303 255.733,390.137 276.5,408C 290.297,415.71 304.964,421.044 320.5,424C 344.953,424.754 369.453,425.587 394,426.5C 413.476,426.449 432.642,423.949 451.5,419C 468.5,410 485.5,401 502.5,392C 517.586,386.527 532.92,381.86 548.5,378C 556.5,377.333 564.5,377.333 572.5,378C 579.063,379.986 585.73,380.986 592.5,381C 596.749,378.806 601.082,376.806 605.5,375C 606.872,373.758 607.872,372.258 608.5,370.5C 607.098,366.461 605.598,362.461 604,358.5C 599.684,355.934 595.517,353.267 591.5,350.5 Z"/></g>
<g><path style="opacity:0.231" fill="#9b9b93" d="M 590.5,347.5 C 590.557,348.609 590.89,349.609 591.5,350.5C 589.448,349.947 589.115,348.947 590.5,347.5 Z"/></g>
<g><path style="opacity:0.012" fill="#b3b2a9" d="M 525.5,392.5 C 524.472,392.926 523.139,392.926 521.5,392.5C 522.261,391.609 523.261,390.942 524.5,390.5C 525.298,390.957 525.631,391.624 525.5,392.5 Z"/></g>
<g><path style="opacity:0.149" fill="#d6d5ca" d="M 518.5,393.5 C 515.495,395.277 512.162,396.277 508.5,396.5C 511.505,394.723 514.838,393.723 518.5,393.5 Z"/></g>
<g><path style="opacity:0.196" fill="#d2d1c6" d="M 508.5,396.5 C 506.574,398.293 504.241,399.293 501.5,399.5C 503.426,397.707 505.759,396.707 508.5,396.5 Z"/></g>
<g><path style="opacity:0.294" fill="#a8a79f" d="M 259.5,404.5 C 261.685,403.913 263.352,404.913 264.5,407.5C 262.589,406.925 260.922,405.925 259.5,404.5 Z"/></g>
<g><path style="opacity:0.173" fill="#d8d7cc" d="M 499.5,400.5 C 495.818,403.008 491.818,405.008 487.5,406.5C 490.914,403.46 494.914,401.46 499.5,400.5 Z"/></g>
<g><path style="opacity:0.235" fill="#d1d0c5" d="M 264.5,407.5 C 266.027,407.427 267.027,408.094 267.5,409.5C 265.973,409.573 264.973,408.906 264.5,407.5 Z"/></g>
<g><path style="opacity:0.141" fill="#dfded2" d="M 485.5,407.5 C 485.027,408.906 484.027,409.573 482.5,409.5C 482.973,408.094 483.973,407.427 485.5,407.5 Z"/></g>
<g><path style="opacity:0.067" fill="#d3d2c7" d="M 482.5,409.5 C 481.341,411.25 479.674,412.25 477.5,412.5C 478.659,410.75 480.326,409.75 482.5,409.5 Z"/></g>
<g><path style="opacity:0.012" fill="#d5d4c9" d="M 477.5,412.5 C 477.167,413.5 476.5,414.167 475.5,414.5C 475.5,413.167 476.167,412.5 477.5,412.5 Z"/></g>
<g><path style="opacity:0.322" fill="#b9b8af" d="M 269.5,410.5 C 271.749,411.08 273.415,412.413 274.5,414.5C 272.251,413.92 270.585,412.587 269.5,410.5 Z"/></g>
<g><path style="opacity:0.196" fill="#d0d0c5" d="M 274.5,414.5 C 278.151,415.659 281.485,417.326 284.5,419.5C 280.58,418.873 277.247,417.207 274.5,414.5 Z"/></g>
<g><path style="opacity:0.027" fill="#d9d8cd" d="M 294.5,423.5 C 295.239,423.369 295.906,423.536 296.5,424C 295.619,424.708 294.953,425.542 294.5,426.5C 293.375,425.652 293.375,424.652 294.5,423.5 Z"/></g>
<g><path style="opacity:1" fill="#f1f0e3" d="M 350.5,430.5 C 360.215,430.459 369.882,431.125 379.5,432.5C 389.146,431.411 398.812,431.245 408.5,432C 402.865,440.766 397.865,449.933 393.5,459.5C 392.833,459.833 392.167,460.167 391.5,460.5C 383.983,458.204 376.316,456.704 368.5,456C 361.627,448.795 355.127,441.295 349,433.5C 348.761,432.212 349.261,431.212 350.5,430.5 Z"/></g>

        
<g><path style="opacity:0.99" fill="#07070a" d="M 334.5,239.5 C 334.5,238.5 334.5,237.5 334.5,236.5C 333.209,236.263 332.209,236.596 331.5,237.5C 329.254,237.936 327.087,238.603 325,239.5C 322.67,237.336 322.003,234.669 323,231.5C 324.455,228.088 326.288,224.921 328.5,222C 323.233,221.326 318.066,221.826 313,223.5C 311.029,223.719 309.862,222.885 309.5,221C 311.237,215.253 314.57,210.586 319.5,207C 324.198,204.651 328.864,202.318 333.5,200C 324.528,200.535 322.528,197.202 327.5,190C 330.253,188.499 332.92,186.999 335.5,185.5C 334.296,182.585 332.296,180.419 329.5,179C 320.577,175.47 311.577,172.137 302.5,169C 301.483,167.951 301.316,166.784 302,165.5C 307.762,162.001 314.095,160.334 321,160.5C 344.639,162.708 361.472,174.374 371.5,195.5C 372.548,197.933 373.214,197.933 373.5,195.5C 377.16,183.177 383.16,172.177 391.5,162.5C 398.406,155.547 406.74,151.547 416.5,150.5C 415.726,157.132 412.893,162.798 408,167.5C 404.697,172.441 402.197,177.774 400.5,183.5C 405.328,183.469 410.328,183.635 415.5,184C 417.576,185.884 417.91,188.051 416.5,190.5C 412.206,191.645 408.539,193.812 405.5,197C 418.699,196.375 425.699,202.542 426.5,215.5C 419.799,216.682 414.132,219.682 409.5,224.5C 410.61,233.138 410.776,241.804 410,250.5C 409.592,253.42 408.259,255.754 406,257.5C 405.333,256.833 404.667,256.167 404,255.5C 403.664,248.505 400.164,243.839 393.5,241.5C 392.246,247.457 390.246,253.123 387.5,258.5C 385.694,259.859 384.194,259.525 383,257.5C 383.07,251.993 380.737,247.993 376,245.5C 372.584,247.992 370.418,251.325 369.5,255.5C 368.127,255.657 366.793,255.49 365.5,255C 361.071,251.705 356.571,248.538 352,245.5C 347.629,248.431 343.796,251.931 340.5,256C 339.5,256.667 338.5,256.667 337.5,256C 335.48,250.719 334.48,245.219 334.5,239.5 Z"/></g>
<g><path style="opacity:1" fill="#2c2d39" d="M 400.5,195.5 C 400.5,194.5 400.5,193.5 400.5,192.5C 396.914,192.848 393.914,194.015 391.5,196C 392.048,186.264 394.548,176.764 399,167.5C 402.333,166.167 402.333,164.833 399,163.5C 398.617,164.056 398.117,164.389 397.5,164.5C 400.468,160.514 404.468,158.348 409.5,158C 401.586,167.41 397.252,178.243 396.5,190.5C 400.011,188.915 403.678,188.415 407.5,189C 404.642,190.694 402.309,192.861 400.5,195.5 Z"/></g>
<g><path style="opacity:1" fill="#333340" d="M 400.5,195.5 C 399.659,197.379 399.325,199.379 399.5,201.5C 403.234,201.323 406.901,201.656 410.5,202.5C 410.423,203.75 409.756,204.583 408.5,205C 410.285,206.163 412.285,206.83 414.5,207C 413.167,207.667 413.167,208.333 414.5,209C 410,212.167 406.167,216 403,220.5C 403.059,225.287 403.226,230.12 403.5,235C 401.109,236.309 401.109,237.309 403.5,238C 401.892,238.658 400.725,238.158 400,236.5C 399.536,237.094 399.369,237.761 399.5,238.5C 396.099,236.616 392.433,236.116 388.5,237C 387.741,241.471 386.908,245.971 386,250.5C 383.287,245.747 379.787,241.747 375.5,238.5C 373.821,239.782 371.987,240.782 370,241.5C 369.913,244.578 368.579,246.912 366,248.5C 360.951,246.231 356.784,242.898 353.5,238.5C 350.87,239.804 348.537,241.47 346.5,243.5C 345.5,243.5 344.5,243.5 343.5,243.5C 343.64,241.876 342.973,240.71 341.5,240C 342.177,237.018 342.177,234.185 341.5,231.5C 340.758,230.713 339.925,230.047 339,229.5C 336.761,230.869 334.927,230.369 333.5,228C 335.008,225.906 336.342,223.74 337.5,221.5C 337.5,221.167 337.5,220.833 337.5,220.5C 338.097,220.265 338.43,219.765 338.5,219C 336.976,217.806 335.81,216.306 335,214.5C 331.716,214.387 328.383,214.72 325,215.5C 324.626,214.584 324.126,213.75 323.5,213C 328.342,210.053 333.342,207.553 338.5,205.5C 339.167,205.5 339.833,205.5 340.5,205.5C 342.734,204.296 345.067,203.13 347.5,202C 344.701,201.561 343.701,200.228 344.5,198C 343.167,197 341.833,196 340.5,195C 341.155,193.513 342.155,192.347 343.5,191.5C 344.631,189.926 344.798,188.259 344,186.5C 341.675,183.173 339.342,179.839 337,176.5C 334.238,175.019 331.571,173.353 329,171.5C 328.626,170.584 328.126,169.75 327.5,169C 328.416,168.722 329.082,168.222 329.5,167.5C 341.896,170.723 352.063,177.39 360,187.5C 363.841,193.178 367.174,199.178 370,205.5C 371.396,207.527 373.062,207.86 375,206.5C 377.94,192.62 383.607,179.953 392,168.5C 393.992,167.335 395.825,166.002 397.5,164.5C 398.117,164.389 398.617,164.056 399,163.5C 402.333,164.833 402.333,166.167 399,167.5C 394.548,176.764 392.048,186.264 391.5,196C 393.914,194.015 396.914,192.848 400.5,192.5C 400.5,193.5 400.5,194.5 400.5,195.5 Z"/></g>
<g><path style="opacity:1" fill="#2c2d3a" d="M 329.5,167.5 C 329.082,168.222 328.416,168.722 327.5,169C 328.126,169.75 328.626,170.584 329,171.5C 331.571,173.353 334.238,175.019 337,176.5C 339.342,179.839 341.675,183.173 344,186.5C 344.798,188.259 344.631,189.926 343.5,191.5C 342.155,192.347 341.155,193.513 340.5,195C 341.833,196 343.167,197 344.5,198C 343.701,200.228 344.701,201.561 347.5,202C 345.067,203.13 342.734,204.296 340.5,205.5C 342.213,199.063 339.879,195.063 333.5,193.5C 335.664,191.316 338.331,189.983 341.5,189.5C 340.302,184.134 337.635,179.634 333.5,176C 327.136,172.818 320.802,169.651 314.5,166.5C 319.741,165.1 324.741,165.434 329.5,167.5 Z"/></g>
<g><path style="opacity:0.024" fill="#292a35" d="M 371.5,195.5 C 372.167,195.5 372.833,195.5 373.5,195.5C 373.214,197.933 372.548,197.933 371.5,195.5 Z"/></g>
<g><path style="opacity:1" fill="#2d2d3a" d="M 410.5,202.5 C 415.782,202.972 419.449,205.639 421.5,210.5C 415.285,213.224 410.118,217.224 406,222.5C 406.682,229.818 406.515,237.151 405.5,244.5C 403.146,242.812 401.146,240.812 399.5,238.5C 399.369,237.761 399.536,237.094 400,236.5C 400.725,238.158 401.892,238.658 403.5,238C 401.109,237.309 401.109,236.309 403.5,235C 403.226,230.12 403.059,225.287 403,220.5C 406.167,216 410,212.167 414.5,209C 413.167,208.333 413.167,207.667 414.5,207C 412.285,206.83 410.285,206.163 408.5,205C 409.756,204.583 410.423,203.75 410.5,202.5 Z"/></g>
<g><path style="opacity:1" fill="#2b2c38" d="M 338.5,205.5 C 333.342,207.553 328.342,210.053 323.5,213C 324.126,213.75 324.626,214.584 325,215.5C 328.383,214.72 331.716,214.387 335,214.5C 335.81,216.306 336.976,217.806 338.5,219C 338.43,219.765 338.097,220.265 337.5,220.5C 336.64,218.386 334.973,217.22 332.5,217C 327.116,216.495 321.782,216.495 316.5,217C 322.249,209.629 329.582,205.796 338.5,205.5 Z"/></g>
<g><path style="opacity:1" fill="#2c2c39" d="M 337.5,221.5 C 336.342,223.74 335.008,225.906 333.5,228C 334.927,230.369 336.761,230.869 339,229.5C 339.925,230.047 340.758,230.713 341.5,231.5C 342.177,234.185 342.177,237.018 341.5,240C 342.973,240.71 343.64,241.876 343.5,243.5C 344.5,243.5 345.5,243.5 346.5,243.5C 344.229,245.266 342.063,247.266 340,249.5C 337.689,243.959 336.856,238.293 337.5,232.5C 334.073,232.976 330.74,232.976 327.5,232.5C 329.464,227.538 332.798,223.871 337.5,221.5 Z"/></g>
<g><path style="opacity:0.157" fill="#272733" d="M 331.5,237.5 C 332.209,236.596 333.209,236.263 334.5,236.5C 334.5,237.5 334.5,238.5 334.5,239.5C 333.778,238.449 332.778,237.782 331.5,237.5 Z"/></g>

    </svg>
