
    <svg width="862" height="862" viewBox="0 0 862 862" fill="none" xmlns="http://www.w3.org/2000/svg">
        
<g><path style="opacity:1" fill="#f6f6e8" d="M -0.5,-0.5 C 286.833,-0.5 574.167,-0.5 861.5,-0.5C 861.5,286.833 861.5,574.167 861.5,861.5C 574.167,861.5 286.833,861.5 -0.5,861.5C -0.5,574.167 -0.5,286.833 -0.5,-0.5 Z"/></g>

        
<g><path style="opacity:0.983" fill="#1a1a19" d="M 578.5,540.5 C 583.993,540.916 589.326,542.082 594.5,544C 599.237,547.614 603.403,551.781 607,556.5C 613.977,570.057 616.311,584.39 614,599.5C 611.931,603.236 608.931,605.903 605,607.5C 603.018,607.01 601.351,606.01 600,604.5C 594.275,609.717 588.442,609.717 582.5,604.5C 577.923,613.337 572.256,614.337 565.5,607.5C 561.53,612.973 556.196,614.806 549.5,613C 548.299,612.097 547.465,610.931 547,609.5C 541.931,617.452 536.764,617.452 531.5,609.5C 527.737,613.765 523.737,617.932 519.5,622C 516.106,622.752 512.773,622.585 509.5,621.5C 508.194,620.088 507.36,618.421 507,616.5C 505.425,609.568 504.258,602.568 503.5,595.5C 504.335,583.317 510.669,578.317 522.5,580.5C 523.795,579.902 525.128,579.402 526.5,579C 535.197,570.637 543.531,561.97 551.5,553C 559.592,546.617 568.592,542.45 578.5,540.5 Z"/></g>
<g><path style="opacity:1" fill="#d9d8cb" d="M 587.5,601.5 C 588.496,601.586 589.329,601.252 590,600.5C 592.94,596.545 595.94,592.545 599,588.5C 599.37,579.339 598.37,570.339 596,561.5C 591.36,554.156 584.693,549.822 576,548.5C 573.538,549.159 571.038,549.493 568.5,549.5C 581.297,543.74 592.13,546.407 601,557.5C 608.853,570.951 611.186,585.285 608,600.5C 606.604,602.527 604.938,602.86 603,601.5C 602.091,598.089 601.091,594.755 600,591.5C 598.35,595.573 596.516,599.573 594.5,603.5C 591.584,604.861 589.251,604.195 587.5,601.5 Z"/></g>
<g><path style="opacity:1" fill="#f4f3e6" d="M 587.5,601.5 C 585.433,599.682 584.1,597.349 583.5,594.5C 582.635,593.417 581.635,593.251 580.5,594C 579.955,598.074 578.621,601.907 576.5,605.5C 574.878,607.439 573.044,607.772 571,606.5C 568.863,602.486 567.03,598.486 565.5,594.5C 564.522,594.977 563.689,595.643 563,596.5C 563.284,605.334 559.118,609.667 550.5,609.5C 550.348,605.228 549.348,601.228 547.5,597.5C 545.179,600.394 544.012,603.727 544,607.5C 541.618,612.067 538.951,612.4 536,608.5C 535.887,606.026 534.887,604.026 533,602.5C 527.856,607.313 523.023,612.48 518.5,618C 516.098,618.814 513.765,618.647 511.5,617.5C 508.811,609.37 507.645,601.036 508,592.5C 508.668,588.501 510.835,585.668 514.5,584C 518.801,584.363 523.134,584.363 527.5,584C 529.167,583 530.833,582 532.5,581C 540.864,572.97 548.864,564.637 556.5,556C 560.367,553.567 564.367,551.4 568.5,549.5C 571.038,549.493 573.538,549.159 576,548.5C 584.693,549.822 591.36,554.156 596,561.5C 598.37,570.339 599.37,579.339 599,588.5C 595.94,592.545 592.94,596.545 590,600.5C 589.329,601.252 588.496,601.586 587.5,601.5 Z"/></g>
<g><path style="opacity:0.982" fill="#191918" d="M 290.5,554.5 C 298.253,554.104 305.92,554.604 313.5,556C 315.5,557.333 317.5,558.667 319.5,560C 322.228,566.042 326.895,569.709 333.5,571C 335.378,572.543 336.878,574.376 338,576.5C 338.242,583.196 338.742,589.862 339.5,596.5C 339.461,598.587 338.461,599.921 336.5,600.5C 332.274,599.93 328.108,599.263 324,598.5C 322.5,600 321,601.5 319.5,603C 317.287,603.626 315.12,603.459 313,602.5C 306.564,605.689 301.23,604.356 297,598.5C 284.481,607.161 276.648,603.994 273.5,589C 271.944,573.778 277.611,562.278 290.5,554.5 Z"/></g>
<g><path style="opacity:1" fill="#f4f3e6" d="M 334.5,587.5 C 334.5,590.167 334.5,592.833 334.5,595.5C 333.167,595.5 331.833,595.5 330.5,595.5C 327.482,595.335 324.482,595.502 321.5,596C 320.022,598.039 318.022,598.872 315.5,598.5C 315.5,597.5 315.5,596.5 315.5,595.5C 312.326,596.015 309.326,597.015 306.5,598.5C 305.5,598.333 304.5,598.167 303.5,598C 301.441,595.366 299.275,592.866 297,590.5C 296.292,591.381 295.458,592.047 294.5,592.5C 290.404,593.285 287.07,592.118 284.5,589C 284.833,588.667 285.167,588.333 285.5,588C 283.667,587.5 282.5,586.333 282,584.5C 281.501,580.179 281.334,575.846 281.5,571.5C 281.709,570.078 282.209,568.745 283,567.5C 286.167,565 289.333,562.5 292.5,560C 298.167,559.333 303.833,559.333 309.5,560C 314.42,562.916 318.753,566.582 322.5,571C 326.232,572.461 329.732,574.294 333,576.5C 333.936,580.114 334.436,583.78 334.5,587.5 Z"/></g>
<g><path style="opacity:1" fill="#d7d6c9" d="M 281.5,571.5 C 281.334,575.846 281.501,580.179 282,584.5C 282.5,586.333 283.667,587.5 285.5,588C 285.167,588.333 284.833,588.667 284.5,589C 287.07,592.118 290.404,593.285 294.5,592.5C 293.641,595.452 291.641,597.285 288.5,598C 285.364,599.041 282.864,598.207 281,595.5C 279.409,588.608 279.076,581.608 280,574.5C 280.232,573.263 280.732,572.263 281.5,571.5 Z"/></g>
<g><path style="opacity:1" fill="#64635e" d="M 334.5,587.5 C 335.477,590.287 335.81,593.287 335.5,596.5C 333.585,596.784 331.919,596.451 330.5,595.5C 331.833,595.5 333.167,595.5 334.5,595.5C 334.5,592.833 334.5,590.167 334.5,587.5 Z"/></g>

        
<g><path style="opacity:0.996" fill="#150e09" d="M 614.5,157.5 C 614.34,155.847 613.674,154.514 612.5,153.5C 612.5,154.5 612.5,155.5 612.5,156.5C 609.072,156.547 606.072,157.713 603.5,160C 588.1,175.301 578.933,193.801 576,215.5C 575.099,235.825 574.433,256.159 574,276.5C 558.53,280.267 542.697,283.267 526.5,285.5C 504.327,281.329 485.494,270.996 470,254.5C 471.165,217.843 480.165,183.176 497,150.5C 511.833,126.333 531.333,106.833 555.5,92C 567.772,85.3257 580.772,82.4924 594.5,83.5C 605.911,85.6861 617.244,88.5194 628.5,92C 652.948,101.96 673.448,117.126 690,137.5C 704.876,159.136 711.876,183.136 711,209.5C 701.117,232.022 684.284,239.856 660.5,233C 649.358,228.015 639.525,221.182 631,212.5C 628.746,208.993 626.746,205.327 625,201.5C 623.375,186.337 619.875,171.67 614.5,157.5 Z"/></g>
<g><path style="opacity:1" fill="#916340" d="M 599.5,127.5 C 597.316,128.266 594.982,128.933 592.5,129.5C 591.483,126.972 590.316,126.972 589,129.5C 587.984,128.366 587.317,128.699 587,130.5C 586,130.5 585,130.5 584,130.5C 583.935,132.883 583.102,133.55 581.5,132.5C 580.667,133.5 579.833,134.5 579,135.5C 578.667,135.167 578.333,134.833 578,134.5C 576.812,135.563 576.312,136.897 576.5,138.5C 573.645,139.834 571.145,141.834 569,144.5C 567.434,143.939 566.101,144.606 565,146.5C 563.858,150.983 561.192,154.316 557,156.5C 554.798,161.876 551.631,167.042 547.5,172C 547.957,172.414 548.291,172.914 548.5,173.5C 545.183,178.009 543.016,182.675 542,187.5C 540.933,188.191 539.766,188.691 538.5,189C 538.833,190 539.167,191 539.5,192C 537.622,194.805 535.955,197.472 534.5,200C 535.022,202.289 534.355,204.456 532.5,206.5C 534.658,208.026 534.325,209.526 531.5,211C 533.973,212.402 533.973,213.902 531.5,215.5C 532.002,216.716 532.335,217.883 532.5,219C 531.833,219.667 531.167,220.333 530.5,221C 530.673,223.407 530.673,225.74 530.5,228C 532.891,229.309 532.891,230.309 530.5,231C 530.784,232.956 530.784,235.123 530.5,237.5C 531.5,237.5 532.5,237.5 533.5,237.5C 533.374,239.2 532.707,240.7 531.5,242C 531.862,243.225 532.362,244.391 533,245.5C 533.451,243.071 534.285,242.904 535.5,245C 534.167,246.84 534.334,247.34 536,246.5C 536.923,247.759 537.757,249.092 538.5,250.5C 539.086,250.291 539.586,249.957 540,249.5C 541.266,252.72 543.433,255.053 546.5,256.5C 547.675,255.145 548.675,255.312 549.5,257C 547.099,257.805 547.266,258.638 550,259.5C 550.308,258.692 550.808,258.025 551.5,257.5C 553.702,258.78 555.868,258.78 558,257.5C 559.402,259.973 560.902,259.973 562.5,257.5C 564.07,257.694 565.57,257.694 567,257.5C 567.374,255.509 568.207,253.842 569.5,252.5C 569.828,257.875 569.495,263.208 568.5,268.5C 567.833,269.5 567.167,270.5 566.5,271.5C 553.09,275.077 539.423,277.411 525.5,278.5C 518.961,277.826 512.628,276.326 506.5,274C 500.998,270.415 495.331,267.081 489.5,264C 484.167,260 478.833,256 473.5,252C 476.34,217.51 485.84,184.677 502,153.5C 514.078,134.19 529.245,117.69 547.5,104C 556.076,98.7507 565.076,94.4174 574.5,91C 595.457,88.4259 615.457,91.7592 634.5,101C 656.299,111.474 674.466,126.307 689,145.5C 700.978,164.047 706.645,184.381 706,206.5C 698.489,225.673 684.656,232.84 664.5,228C 656.671,223.92 649.004,219.587 641.5,215C 636.813,210.457 632.98,205.291 630,199.5C 628.287,186.645 625.62,173.978 622,161.5C 616.923,150.347 611.59,139.347 606,128.5C 602.819,123.839 598.652,120.506 593.5,118.5C 588.002,119.338 586.335,122.338 588.5,127.5C 589.138,125.03 590.638,123.363 593,122.5C 595.341,124.016 597.508,125.683 599.5,127.5 Z"/></g>
<g><path style="opacity:0.995" fill="#160e0a" d="M 163.5,95.5 C 174.943,95.0349 186.276,95.8682 197.5,98C 206.481,102.314 212.648,109.147 216,118.5C 229.057,133.622 241.39,149.288 253,165.5C 265.57,190.976 278.903,215.976 293,240.5C 293.667,245.5 293.667,250.5 293,255.5C 290.064,261.222 287.731,267.222 286,273.5C 279.349,283.819 270.516,291.652 259.5,297C 250.619,299.831 241.619,300.165 232.5,298C 229.993,297.907 227.826,297.074 226,295.5C 225.647,294.328 225.813,293.162 226.5,292C 222.493,281.47 219.659,270.637 218,259.5C 212.471,246.581 207.138,233.581 202,220.5C 195.527,207.228 186.86,195.562 176,185.5C 176.125,192.254 177.125,198.921 179,205.5C 181.447,214.866 184.28,224.033 187.5,233C 187.344,237.136 186.177,240.969 184,244.5C 179.5,249 175,253.5 170.5,258C 152.753,266.41 135.086,266.41 117.5,258C 100.412,242.239 93.745,222.739 97.5,199.5C 97.6667,194.5 97.8333,189.5 98,184.5C 100.239,173.19 102.239,161.856 104,150.5C 109.333,141.167 114.667,131.833 120,122.5C 125.727,112.775 133.894,105.941 144.5,102C 150.979,99.8968 157.313,97.7301 163.5,95.5 Z"/></g>
<g><path style="opacity:1" fill="#916340" d="M 227.5,277.5 C 228.234,274.224 230.067,273.558 233,275.5C 235.188,275.646 236.521,274.646 237,272.5C 237.333,272.833 237.667,273.167 238,273.5C 239.631,270.965 241.465,268.632 243.5,266.5C 242.975,265.808 242.308,265.308 241.5,265C 243.592,264.047 243.925,262.714 242.5,261C 243.448,260.517 244.448,260.351 245.5,260.5C 245.5,256.5 245.5,252.5 245.5,248.5C 241.901,248.738 241.567,247.738 244.5,245.5C 243.519,241.687 241.519,238.52 238.5,236C 239.337,234.989 239.67,233.822 239.5,232.5C 238.448,232.649 237.448,232.483 236.5,232C 235.761,230.235 235.761,228.235 236.5,226C 235.286,223.309 233.452,221.142 231,219.5C 230.122,216.291 228.789,213.291 227,210.5C 226.086,211.654 225.253,211.487 224.5,210C 224.957,209.586 225.291,209.086 225.5,208.5C 224.5,207.167 223.5,205.833 222.5,204.5C 222.709,203.914 223.043,203.414 223.5,203C 221.651,201.907 219.984,200.574 218.5,199C 219.517,197.951 219.684,196.784 219,195.5C 218.667,196.167 218.333,196.833 218,197.5C 214.974,193.744 212.641,190.077 211,186.5C 210.667,186.833 210.333,187.167 210,187.5C 208.983,184.151 206.983,182.817 204,183.5C 203.03,180.179 200.863,178.513 197.5,178.5C 197.881,176.058 197.214,175.391 195.5,176.5C 191.168,175.679 188.001,173.346 186,169.5C 184.16,170.833 183.66,170.666 184.5,169C 182.658,169.068 180.991,168.901 179.5,168.5C 181.785,164.729 184.451,164.562 187.5,168C 188.893,169.171 189.727,170.671 190,172.5C 190.868,168.328 189.368,165.162 185.5,163C 179.756,161.394 175.756,163.394 173.5,169C 170.737,175.576 169.903,182.409 171,189.5C 172.522,203.889 176.356,217.556 182.5,230.5C 182.132,233.638 181.299,236.638 180,239.5C 175.167,244.333 170.333,249.167 165.5,254C 153.745,258.295 141.745,259.295 129.5,257C 117.962,252.46 110.129,244.294 106,232.5C 105.178,230.212 104.511,227.878 104,225.5C 103.587,214.996 103.087,204.496 102.5,194C 104.333,180.833 106.167,167.666 108,154.5C 113.667,144.5 119.333,134.5 125,124.5C 133.932,112.607 145.766,105.107 160.5,102C 172.222,99.9025 183.889,100.236 195.5,103C 198.912,104.455 202.079,106.288 205,108.5C 207.397,113.627 210.064,118.627 213,123.5C 224.381,137.213 235.381,151.213 246,165.5C 259.505,192.514 273.505,219.18 288,245.5C 286.646,267.536 275.812,283.036 255.5,292C 247.571,293.363 239.571,293.863 231.5,293.5C 230.167,288.167 228.833,282.833 227.5,277.5 Z"/></g>
<g><path style="opacity:1" fill="#824125" d="M 599.5,127.5 C 605.912,134.991 610.246,143.657 612.5,153.5C 608.094,152.13 604.094,152.963 600.5,156C 583.255,172.016 573.422,191.849 571,215.5C 570.619,227.843 570.119,240.176 569.5,252.5C 568.207,253.842 567.374,255.509 567,257.5C 565.57,257.694 564.07,257.694 562.5,257.5C 560.902,259.973 559.402,259.973 558,257.5C 555.868,258.78 553.702,258.78 551.5,257.5C 550.808,258.025 550.308,258.692 550,259.5C 547.266,258.638 547.099,257.805 549.5,257C 548.675,255.312 547.675,255.145 546.5,256.5C 543.433,255.053 541.266,252.72 540,249.5C 539.586,249.957 539.086,250.291 538.5,250.5C 537.757,249.092 536.923,247.759 536,246.5C 534.334,247.34 534.167,246.84 535.5,245C 534.285,242.904 533.451,243.071 533,245.5C 532.362,244.391 531.862,243.225 531.5,242C 532.707,240.7 533.374,239.2 533.5,237.5C 532.5,237.5 531.5,237.5 530.5,237.5C 530.784,235.123 530.784,232.956 530.5,231C 532.891,230.309 532.891,229.309 530.5,228C 530.673,225.74 530.673,223.407 530.5,221C 531.167,220.333 531.833,219.667 532.5,219C 532.335,217.883 532.002,216.716 531.5,215.5C 533.973,213.902 533.973,212.402 531.5,211C 534.325,209.526 534.658,208.026 532.5,206.5C 534.355,204.456 535.022,202.289 534.5,200C 535.955,197.472 537.622,194.805 539.5,192C 539.167,191 538.833,190 538.5,189C 539.766,188.691 540.933,188.191 542,187.5C 543.016,182.675 545.183,178.009 548.5,173.5C 548.291,172.914 547.957,172.414 547.5,172C 551.631,167.042 554.798,161.876 557,156.5C 561.192,154.316 563.858,150.983 565,146.5C 566.101,144.606 567.434,143.939 569,144.5C 571.145,141.834 573.645,139.834 576.5,138.5C 576.312,136.897 576.812,135.563 578,134.5C 578.333,134.833 578.667,135.167 579,135.5C 579.833,134.5 580.667,133.5 581.5,132.5C 583.102,133.55 583.935,132.883 584,130.5C 585,130.5 586,130.5 587,130.5C 587.317,128.699 587.984,128.366 589,129.5C 590.316,126.972 591.483,126.972 592.5,129.5C 594.982,128.933 597.316,128.266 599.5,127.5 Z"/></g>
<g><path style="opacity:1" fill="#65432d" d="M 612.5,153.5 C 613.674,154.514 614.34,155.847 614.5,157.5C 613.833,157.167 613.167,156.833 612.5,156.5C 612.5,155.5 612.5,154.5 612.5,153.5 Z"/></g>
<g><path style="opacity:1" fill="#824125" d="M 179.5,168.5 C 180.991,168.901 182.658,169.068 184.5,169C 183.66,170.666 184.16,170.833 186,169.5C 188.001,173.346 191.168,175.679 195.5,176.5C 197.214,175.391 197.881,176.058 197.5,178.5C 200.863,178.513 203.03,180.179 204,183.5C 206.983,182.817 208.983,184.151 210,187.5C 210.333,187.167 210.667,186.833 211,186.5C 212.641,190.077 214.974,193.744 218,197.5C 218.333,196.833 218.667,196.167 219,195.5C 219.684,196.784 219.517,197.951 218.5,199C 219.984,200.574 221.651,201.907 223.5,203C 223.043,203.414 222.709,203.914 222.5,204.5C 223.5,205.833 224.5,207.167 225.5,208.5C 225.291,209.086 224.957,209.586 224.5,210C 225.253,211.487 226.086,211.654 227,210.5C 228.789,213.291 230.122,216.291 231,219.5C 233.452,221.142 235.286,223.309 236.5,226C 235.761,228.235 235.761,230.235 236.5,232C 237.448,232.483 238.448,232.649 239.5,232.5C 239.67,233.822 239.337,234.989 238.5,236C 241.519,238.52 243.519,241.687 244.5,245.5C 241.567,247.738 241.901,248.738 245.5,248.5C 245.5,252.5 245.5,256.5 245.5,260.5C 244.448,260.351 243.448,260.517 242.5,261C 243.925,262.714 243.592,264.047 241.5,265C 242.308,265.308 242.975,265.808 243.5,266.5C 241.465,268.632 239.631,270.965 238,273.5C 237.667,273.167 237.333,272.833 237,272.5C 236.521,274.646 235.188,275.646 233,275.5C 230.067,273.558 228.234,274.224 227.5,277.5C 225.286,269.641 223.12,261.641 221,253.5C 214.61,239.664 208.61,225.664 203,211.5C 195.879,199.368 186.879,188.701 176,179.5C 175.454,176.101 175.787,172.768 177,169.5C 177.671,168.748 178.504,168.414 179.5,168.5 Z"/></g>

        
<g><path style="opacity:0.994" fill="#080808" d="M 397.5,213.5 C 426.652,214.128 455.652,216.628 484.5,221C 501.696,223.299 517.696,228.965 532.5,238C 541.415,244.711 550.915,250.545 561,255.5C 566,261.833 571,268.167 576,274.5C 579.431,281.886 582.098,289.553 584,297.5C 600.968,293.905 616.801,296.738 631.5,306C 657.957,323.456 680.123,345.29 698,371.5C 701.828,378.655 704.662,386.155 706.5,394C 702.842,398.302 698.175,400.969 692.5,402C 684.601,403.249 676.935,403.749 669.5,403.5C 671.81,407.254 673.643,411.254 675,415.5C 676.619,423.927 678.619,432.26 681,440.5C 682.454,454.02 679.787,466.687 673,478.5C 663.749,491.086 652.582,501.586 639.5,510C 630.893,513.302 622.893,517.635 615.5,523C 597.029,529.157 579.029,536.491 561.5,545C 545.683,550.606 529.683,555.606 513.5,560C 521.167,567 528.833,574 536.5,581C 541.889,585.389 547.556,589.389 553.5,593C 559.667,598.5 565.833,604 572,609.5C 578.423,618.674 584.09,628.34 589,638.5C 598.788,663.109 604.621,688.609 606.5,715C 605.832,731.84 601.498,747.673 593.5,762.5C 601.079,763.861 608.079,766.694 614.5,771C 619.719,777.218 624.552,783.718 629,790.5C 633.064,794.786 637.897,797.952 643.5,800C 644.293,801.085 644.96,802.252 645.5,803.5C 640.621,808.778 634.621,812.278 627.5,814C 620.872,815.052 614.206,815.552 607.5,815.5C 607.62,817.199 607.954,818.865 608.5,820.5C 608.182,821.647 607.516,822.481 606.5,823C 599.093,824.492 591.593,825.325 584,825.5C 570.833,824.357 557.666,823.19 544.5,822C 528.753,817.882 515.253,810.049 504,798.5C 495.911,789.336 489.577,779.003 485,767.5C 473.056,772.575 460.556,774.908 447.5,774.5C 441.513,773.858 435.513,773.358 429.5,773C 427,772.625 424.667,771.792 422.5,770.5C 418.78,774.733 415.613,779.4 413,784.5C 395.052,801.708 373.552,809.541 348.5,808C 344.343,807.271 340.343,806.104 336.5,804.5C 335.167,803.5 335.167,802.5 336.5,801.5C 338.833,800 341.167,798.5 343.5,797C 344.696,796.346 344.696,795.846 343.5,795.5C 335.883,796.633 328.216,796.8 320.5,796C 311.363,794.508 304.863,789.675 301,781.5C 300.179,778.446 300.345,775.446 301.5,772.5C 312.272,769.781 321.939,764.947 330.5,758C 319.87,750.041 313.37,739.541 311,726.5C 309.463,718.908 308.63,711.241 308.5,703.5C 309.559,693.159 310.392,682.825 311,672.5C 308.094,675.369 304.594,676.702 300.5,676.5C 294.742,676.543 289.409,675.209 284.5,672.5C 273.656,662.134 269.489,649.467 272,634.5C 275.346,612.289 285.512,594.122 302.5,580C 312.952,573.232 324.119,571.732 336,575.5C 337.967,574.507 339.134,572.84 339.5,570.5C 305.015,564.297 271.015,555.463 237.5,544C 209.322,532.837 184.822,516.337 164,494.5C 152.732,482.13 145.899,467.63 143.5,451C 144.485,443.505 144.985,436.005 145,428.5C 140.155,431.151 134.989,431.984 129.5,431C 127.954,429.56 127.121,427.727 127,425.5C 126.788,413.092 127.788,400.758 130,388.5C 135.912,374.746 142.579,361.413 150,348.5C 160.721,333.106 174.888,322.273 192.5,316C 198.537,315.303 204.537,315.47 210.5,316.5C 211.252,310.492 213.086,304.826 216,299.5C 222.667,288.833 229.333,278.167 236,267.5C 246.355,255.578 258.188,245.412 271.5,237C 312.624,223.821 354.624,215.987 397.5,213.5 Z"/></g>
<g><path style="opacity:1" fill="#1a1a1a" d="M 668.5,416.5 C 667.149,427.398 664.649,438.064 661,448.5C 656.399,457.425 651.399,466.092 646,474.5C 623.77,496.709 597.937,513.542 568.5,525C 543.253,532.859 517.92,540.526 492.5,548C 448.553,557.101 404.22,559.768 359.5,556C 347.914,553.855 336.248,552.188 324.5,551C 281.405,540.283 240.405,524.283 201.5,503C 185.771,492.605 171.938,480.105 160,465.5C 152.669,456.68 150.169,446.68 152.5,435.5C 154.204,427.844 154.871,420.177 154.5,412.5C 152.056,416.118 149.39,419.618 146.5,423C 142.683,424.995 138.683,426.495 134.5,427.5C 133.201,426.91 132.368,425.91 132,424.5C 131.833,422.5 131.667,420.5 131.5,418.5C 132.991,409.545 134.157,400.545 135,391.5C 141.604,374.286 150.271,358.286 161,343.5C 170.285,333.114 181.451,325.614 194.5,321C 200.862,320.576 207.195,320.576 213.5,321C 224.905,285.517 246.572,258.184 278.5,239C 326.469,224.712 375.469,218.046 425.5,219C 447.106,221.764 468.773,224.764 490.5,228C 502.4,230.411 513.733,234.411 524.5,240C 535.498,247.501 546.832,254.501 558.5,261C 569.707,272.248 576.541,285.748 579,301.5C 581.376,308.587 585.043,314.92 590,320.5C 590.167,320.167 590.333,319.833 590.5,319.5C 588.2,313.909 586.2,308.242 584.5,302.5C 599.35,299.458 613.35,301.625 626.5,309C 652.248,326.081 674.082,347.248 692,372.5C 695.8,378.933 698.633,385.766 700.5,393C 698.652,395.093 696.319,396.426 693.5,397C 680.718,399.865 668.385,398.698 656.5,393.5C 656.372,395.655 656.872,397.655 658,399.5C 664.052,403.607 667.552,409.273 668.5,416.5 Z"/></g>
<g><path style="opacity:1" fill="#010101" d="M 618.5,337.5 C 634.542,353.376 653.208,365.543 674.5,374C 676.954,375.74 678.454,377.907 679,380.5C 677.612,381.554 676.112,381.72 674.5,381C 654.654,371.331 636.821,358.831 621,343.5C 619.441,341.783 618.608,339.783 618.5,337.5 Z"/></g>
<g><path style="opacity:1" fill="#010101" d="M 147.5,382.5 C 148.993,383.312 149.66,384.645 149.5,386.5C 148.442,393.85 147.275,401.184 146,408.5C 144.374,411.128 142.374,413.461 140,415.5C 141.412,404.277 143.912,393.277 147.5,382.5 Z"/></g>
<g><path style="opacity:1" fill="#141414" d="M 668.5,416.5 C 669.117,416.611 669.617,416.944 670,417.5C 671.619,425.927 673.619,434.26 676,442.5C 676.82,456.706 672.82,469.372 664,480.5C 656.058,489.448 647.225,497.281 637.5,504C 628.893,507.302 620.893,511.635 613.5,517C 594.28,523.296 575.614,530.963 557.5,540C 535.077,547.604 512.411,554.271 489.5,560C 470.569,562.908 451.569,565.241 432.5,567C 422.167,567.667 411.833,567.667 401.5,567C 377.521,565.26 353.521,563.927 329.5,563C 288.931,556.527 250.265,544.193 213.5,526C 190.515,513.347 171.682,496.18 157,474.5C 150.182,462.569 148.182,449.902 151,436.5C 151.383,435.944 151.883,435.611 152.5,435.5C 150.169,446.68 152.669,456.68 160,465.5C 171.938,480.105 185.771,492.605 201.5,503C 240.405,524.283 281.405,540.283 324.5,551C 336.248,552.188 347.914,553.855 359.5,556C 404.22,559.768 448.553,557.101 492.5,548C 517.92,540.526 543.253,532.859 568.5,525C 597.937,513.542 623.77,496.709 646,474.5C 651.399,466.092 656.399,457.425 661,448.5C 664.649,438.064 667.149,427.398 668.5,416.5 Z"/></g>
<g><path style="opacity:1" fill="#141414" d="M 478.5,672.5 C 485.872,678.44 494.205,679.94 503.5,677C 506.732,675.77 509.399,673.77 511.5,671C 512.5,670.333 513.5,670.333 514.5,671C 512.476,676.438 510.142,681.772 507.5,687C 510.8,688.879 514.134,688.879 517.5,687C 532.745,675.358 541.412,659.858 543.5,640.5C 542.824,633.638 540.657,627.305 537,621.5C 523.858,607.513 507.691,599.846 488.5,598.5C 480.873,598.024 477.54,601.691 478.5,609.5C 479.213,614.311 480.547,618.978 482.5,623.5C 480.083,625.107 477.416,626.107 474.5,626.5C 472.491,621.266 471.158,615.766 470.5,610C 470.586,606.241 471.586,602.741 473.5,599.5C 473.167,598.5 472.5,597.833 471.5,597.5C 469.364,598.472 468.197,600.139 468,602.5C 467.081,608.966 467.581,615.299 469.5,621.5C 459.019,625.309 450.519,631.642 444,640.5C 430.5,618.167 417,595.833 403.5,573.5C 437.551,572.702 471.217,568.702 504.5,561.5C 506.299,561.577 507.966,562.077 509.5,563C 520.782,574.621 532.948,585.121 546,594.5C 546.265,596.163 545.765,597.663 544.5,599C 549.027,601.543 552.194,605.376 554,610.5C 565.459,638.3 560.959,663.134 540.5,685C 534.687,690.075 528.354,694.408 521.5,698C 505.454,705.563 492.62,702.063 483,687.5C 480.383,682.817 478.883,677.817 478.5,672.5 Z"/></g>
<g><path style="opacity:1" fill="#1a1a1a" d="M 341.5,626.5 C 340.957,626.56 340.624,626.893 340.5,627.5C 342.415,637.065 343.749,646.732 344.5,656.5C 344.66,659.696 343.66,662.363 341.5,664.5C 336.277,662.889 331.277,660.723 326.5,658C 319.953,652.954 314.286,647.12 309.5,640.5C 307.682,644.136 305.849,647.802 304,651.5C 301.757,653.282 299.257,653.782 296.5,653C 288.502,649.673 284.835,643.673 285.5,635C 285.51,621.304 289.344,608.804 297,597.5C 303.059,590.276 309.559,583.609 316.5,577.5C 326.26,575.198 334.26,577.864 340.5,585.5C 341.079,580.029 342.246,574.696 344,569.5C 347.819,568.73 351.653,569.063 355.5,570.5C 348.17,588.493 343.503,607.16 341.5,626.5 Z"/></g>
<g><path style="opacity:1" fill="#d6d4d4" d="M 360.5,674.5 C 365.51,683.351 371.51,691.517 378.5,699C 384.877,703.189 391.544,706.855 398.5,710C 417.397,716.636 424.897,710.136 421,690.5C 413.14,671.699 409.307,652.032 409.5,631.5C 398.974,626.785 387.974,624.118 376.5,623.5C 367.747,622.705 360.081,625.039 353.5,630.5C 350.807,627.803 348.473,624.803 346.5,621.5C 349.911,604.187 354.411,587.187 360,570.5C 364.748,569.365 369.581,569.198 374.5,570C 381.807,570.95 389.14,571.617 396.5,572C 412.113,596.047 427.113,620.547 441.5,645.5C 435.945,660.017 436.445,674.35 443,688.5C 450.196,696.084 459.03,698.917 469.5,697C 472.713,696.394 475.713,695.227 478.5,693.5C 479.748,694.04 480.915,694.707 482,695.5C 480.68,711.111 480.346,726.777 481,742.5C 481.518,749.13 482.685,755.63 484.5,762C 484.095,762.945 483.428,763.612 482.5,764C 447.431,774.811 415.097,769.477 385.5,748C 370.855,738.357 359.355,725.857 351,710.5C 348.215,702.028 346.382,693.361 345.5,684.5C 351.705,682.903 356.705,679.569 360.5,674.5 Z"/></g>
<g><path style="opacity:1" fill="#141414" d="M 316.5,577.5 C 309.559,583.609 303.059,590.276 297,597.5C 289.344,608.804 285.51,621.304 285.5,635C 284.835,643.673 288.502,649.673 296.5,653C 299.257,653.782 301.757,653.282 304,651.5C 305.849,647.802 307.682,644.136 309.5,640.5C 314.286,647.12 319.953,652.954 326.5,658C 331.277,660.723 336.277,662.889 341.5,664.5C 343.66,662.363 344.66,659.696 344.5,656.5C 343.749,646.732 342.415,637.065 340.5,627.5C 340.624,626.893 340.957,626.56 341.5,626.5C 351.199,635.23 356.699,646.23 358,659.5C 359.809,668.085 356.976,674.585 349.5,679C 336.43,684.976 325.264,682.476 316,671.5C 315.5,670 315,668.5 314.5,667C 316.52,664.379 316.853,661.545 315.5,658.5C 312.756,662.751 309.422,666.585 305.5,670C 299.786,671.57 294.12,671.237 288.5,669C 276.97,657.72 273.47,644.22 278,628.5C 282.284,608.737 292.45,592.904 308.5,581C 310.818,579.007 313.484,577.841 316.5,577.5 Z"/></g>
<g><path style="opacity:1" fill="#1a1a1a" d="M 478.5,672.5 C 478.817,669.428 478.484,666.428 477.5,663.5C 474.915,671.11 474.915,678.777 477.5,686.5C 477.124,688.383 476.124,689.883 474.5,691C 467.964,693.968 461.297,694.301 454.5,692C 446.932,689.671 443.099,684.504 443,676.5C 438.427,654.149 446.26,637.982 466.5,628C 469.207,627.605 471.873,627.105 474.5,626.5C 477.416,626.107 480.083,625.107 482.5,623.5C 480.547,618.978 479.213,614.311 478.5,609.5C 477.54,601.691 480.873,598.024 488.5,598.5C 507.691,599.846 523.858,607.513 537,621.5C 540.657,627.305 542.824,633.638 543.5,640.5C 541.412,659.858 532.745,675.358 517.5,687C 514.134,688.879 510.8,688.879 507.5,687C 510.142,681.772 512.476,676.438 514.5,671C 513.5,670.333 512.5,670.333 511.5,671C 509.399,673.77 506.732,675.77 503.5,677C 494.205,679.94 485.872,678.44 478.5,672.5 Z"/></g>
<g><path style="opacity:1" fill="#1a1a1a" d="M 598.5,698.5 C 597.912,721.899 590.746,742.899 577,761.5C 565.289,772.94 551.456,780.607 535.5,784.5C 518.038,781.872 507.538,771.872 504,754.5C 503.302,747.265 502.468,740.098 501.5,733C 502.126,732.25 502.626,731.416 503,730.5C 508.809,736.106 515.809,738.772 524,738.5C 531.939,738.279 538.772,735.446 544.5,730C 552.225,722.272 558.391,713.439 563,703.5C 563.794,700.529 564.461,697.529 565,694.5C 565.418,681.971 566.251,669.471 567.5,657C 567.12,651.981 566.454,647.148 565.5,642.5C 564.922,628.765 561.588,615.765 555.5,603.5C 556.002,602.479 556.668,602.312 557.5,603C 571.596,617.015 581.763,633.515 588,652.5C 593.227,667.473 596.727,682.806 598.5,698.5 Z"/></g>
<g><path style="opacity:1" fill="#e6e6e6" d="M 360.5,674.5 C 363.083,665.193 362.917,655.859 360,646.5C 358.097,641.032 355.93,635.699 353.5,630.5C 360.081,625.039 367.747,622.705 376.5,623.5C 387.974,624.118 398.974,626.785 409.5,631.5C 409.307,652.032 413.14,671.699 421,690.5C 424.897,710.136 417.397,716.636 398.5,710C 391.544,706.855 384.877,703.189 378.5,699C 371.51,691.517 365.51,683.351 360.5,674.5 Z"/></g>
<g><path style="opacity:1" fill="#141414" d="M 565.5,642.5 C 566.454,647.148 567.12,651.981 567.5,657C 566.251,669.471 565.418,681.971 565,694.5C 564.461,697.529 563.794,700.529 563,703.5C 558.391,713.439 552.225,722.272 544.5,730C 538.772,735.446 531.939,738.279 524,738.5C 515.809,738.772 508.809,736.106 503,730.5C 502.626,731.416 502.126,732.25 501.5,733C 502.468,740.098 503.302,747.265 504,754.5C 507.538,771.872 518.038,781.872 535.5,784.5C 551.456,780.607 565.289,772.94 577,761.5C 590.746,742.899 597.912,721.899 598.5,698.5C 602.933,721.449 598.766,742.782 586,762.5C 585.175,764.701 585.675,766.534 587.5,768C 598.604,767.364 607.771,771.197 615,779.5C 618.98,786.624 623.814,793.124 629.5,799C 632.661,800.413 635.661,802.08 638.5,804C 634.952,805.941 631.286,807.607 627.5,809C 619.193,809.999 610.86,810.832 602.5,811.5C 601.423,814.474 601.423,817.474 602.5,820.5C 582.318,821.048 562.318,819.548 542.5,816C 513.218,805.719 494.718,785.552 487,755.5C 483.667,736.833 483.667,718.167 487,699.5C 491.793,704.268 497.627,706.601 504.5,706.5C 516.071,705.922 526.405,702.088 535.5,695C 552.137,681.903 561.637,664.736 564,643.5C 564.383,642.944 564.883,642.611 565.5,642.5 Z"/></g>
<g><path style="opacity:1" fill="#131313" d="M 350.5,718.5 C 349.043,720.242 347.876,722.242 347,724.5C 338.283,720.644 330.616,715.311 324,708.5C 322.417,720.502 325.084,731.502 332,741.5C 338.772,748.117 345.939,754.117 353.5,759.5C 338.303,758.317 327.136,750.984 320,737.5C 312.742,718.114 311.742,698.447 317,678.5C 323.898,685.032 332.065,687.698 341.5,686.5C 342.023,697.933 345.023,708.6 350.5,718.5 Z"/></g>
<g><path style="opacity:1" fill="#1a1a1a" d="M 350.5,718.5 C 353.904,722.965 357.071,727.631 360,732.5C 365.289,737.867 370.789,742.867 376.5,747.5C 378.142,754.451 381.142,760.785 385.5,766.5C 382.554,767.655 379.554,767.821 376.5,767C 370.378,765.471 364.378,763.638 358.5,761.5C 356.95,760.559 355.284,759.893 353.5,759.5C 345.939,754.117 338.772,748.117 332,741.5C 325.084,731.502 322.417,720.502 324,708.5C 330.616,715.311 338.283,720.644 347,724.5C 347.876,722.242 349.043,720.242 350.5,718.5 Z"/></g>
<g><path style="opacity:1" fill="#141414" d="M 376.5,747.5 C 388.389,755.614 401.056,762.447 414.5,768C 415.749,770.21 415.582,772.376 414,774.5C 406.476,785.682 396.31,793.515 383.5,798C 375.218,799.923 366.885,801.59 358.5,803C 353.761,803.726 349.095,803.393 344.5,802C 346.809,799.513 349.476,797.513 352.5,796C 356.633,790.866 361.133,786.032 366,781.5C 366.612,779.763 365.946,778.763 364,778.5C 361.71,779.724 359.544,781.057 357.5,782.5C 358.172,779.658 359.506,777.158 361.5,775C 351.161,771.609 340.828,768.109 330.5,764.5C 331.932,762.673 333.599,761.006 335.5,759.5C 342.062,762.14 348.729,764.474 355.5,766.5C 356.442,766.392 357.275,766.059 358,765.5C 357.645,764.041 357.811,762.707 358.5,761.5C 364.378,763.638 370.378,765.471 376.5,767C 379.554,767.821 382.554,767.655 385.5,766.5C 381.142,760.785 378.142,754.451 376.5,747.5 Z"/></g>
<g><path style="opacity:1" fill="#1a1a1a" d="M 330.5,764.5 C 340.828,768.109 351.161,771.609 361.5,775C 359.506,777.158 358.172,779.658 357.5,782.5C 346.393,790.126 334.06,792.626 320.5,790C 315.177,788.923 310.677,786.423 307,782.5C 305.504,780.55 305.337,778.55 306.5,776.5C 315.084,773.541 323.084,769.541 330.5,764.5 Z"/></g>
<g><path style="opacity:1" fill="#1a1a1a" d="M 578.5,780.5 C 593.089,778.218 605.255,782.552 615,793.5C 615.688,794.332 615.521,794.998 614.5,795.5C 607.334,800.602 599.334,802.935 590.5,802.5C 590.692,805.601 591.358,808.601 592.5,811.5C 587.593,811.932 582.926,810.765 578.5,808C 572.243,803.287 566.076,798.454 560,793.5C 558.148,790.653 558.648,788.153 561.5,786C 567.137,783.682 572.803,781.849 578.5,780.5 Z"/></g>

        
<g><path style="opacity:0.967" fill="#060605" d="M 527.5,255.5 C 527.821,257.048 528.821,257.715 530.5,257.5C 530.973,258.906 531.973,259.573 533.5,259.5C 534.167,259.5 534.5,259.833 534.5,260.5C 535.5,262.167 536.833,263.5 538.5,264.5C 539.401,265.29 540.068,266.29 540.5,267.5C 540.833,268.167 541.167,268.833 541.5,269.5C 541.5,270.167 541.833,270.5 542.5,270.5C 542.833,271.5 543.5,272.167 544.5,272.5C 548.966,279.767 552.633,287.433 555.5,295.5C 555.328,296.492 555.662,297.158 556.5,297.5C 557.234,298.708 557.567,300.041 557.5,301.5C 557.088,303.973 558.088,305.306 560.5,305.5C 561.167,305.5 561.5,305.833 561.5,306.5C 565.572,310.565 569.238,314.898 572.5,319.5C 572.427,321.027 573.094,322.027 574.5,322.5C 574.932,323.71 575.599,324.71 576.5,325.5C 577.167,325.5 577.5,325.833 577.5,326.5C 576.167,326.833 576.167,327.167 577.5,327.5C 577.394,330.079 578.061,332.412 579.5,334.5C 578.833,334.5 578.5,334.833 578.5,335.5C 578.5,336.167 578.5,336.833 578.5,337.5C 578.5,338.167 578.833,338.5 579.5,338.5C 579.5,341.5 579.5,344.5 579.5,347.5C 578.766,348.708 578.433,350.041 578.5,351.5C 578.414,352.496 578.748,353.329 579.5,354C 578.244,354.417 577.577,355.25 577.5,356.5C 576.662,356.842 576.328,357.508 576.5,358.5C 573.924,366.149 569.924,372.983 564.5,379C 559.5,379.333 554.5,379.667 549.5,380C 533.92,383.86 518.586,388.527 503.5,394C 488.559,401.719 473.726,409.553 459,417.5C 454.438,416.568 449.938,415.401 445.5,414C 439.386,408.555 432.72,403.888 425.5,400C 419.038,393.533 413.705,386.367 409.5,378.5C 409.539,377.244 409.039,376.244 408,375.5C 407.503,377.81 407.337,380.143 407.5,382.5C 406.302,387.228 404.302,391.561 401.5,395.5C 400.833,396.167 400.167,396.833 399.5,397.5C 399.167,396.167 398.833,396.167 398.5,397.5C 394.267,400.54 389.267,401.04 383.5,399C 377.399,396.908 372.399,393.241 368.5,388C 366.167,387.333 363.833,387.333 361.5,388C 354.912,398.527 345.912,401.194 334.5,396C 331.894,394.062 330.061,391.562 329,388.5C 326.764,380.317 325.43,371.984 325,363.5C 323.383,361.237 321.55,359.237 319.5,357.5C 319.44,356.957 319.107,356.624 318.5,356.5C 317.504,362.463 317.171,368.463 317.5,374.5C 316.534,385.066 313.201,394.733 307.5,403.5C 306.833,403.5 306.5,403.833 306.5,404.5C 305.833,404.5 305.5,404.833 305.5,405.5C 304.5,405.833 303.833,406.5 303.5,407.5C 300.267,411.779 296.267,415.112 291.5,417.5C 280.875,413.19 271.208,407.357 262.5,400C 244.46,389.359 225.127,385.859 204.5,389.5C 195.728,365.623 199.061,343.456 214.5,323C 214.126,312.745 216.293,302.911 221,293.5C 224.444,287.724 228.277,282.224 232.5,277C 238.566,272.605 244.9,268.605 251.5,265C 257.114,263.575 262.614,263.075 268,263.5C 268.317,265.301 268.984,265.634 270,264.5C 272.099,265.131 273.932,266.131 275.5,267.5C 276.795,268.488 278.128,269.488 279.5,270.5C 280.795,271.488 282.128,272.488 283.5,273.5C 284.833,275.5 286.5,277.167 288.5,278.5C 289.222,279.551 290.222,280.218 291.5,280.5C 291.738,282.404 292.738,283.738 294.5,284.5C 295.833,285.833 297.167,287.167 298.5,288.5C 298.833,289.5 299.5,290.167 300.5,290.5C 301.167,291.5 301.833,292.5 302.5,293.5C 303.512,294.872 304.512,296.205 305.5,297.5C 305.833,298.5 306.5,299.167 307.5,299.5C 308.058,300.79 309.058,301.623 310.5,302C 309.944,302.383 309.611,302.883 309.5,303.5C 309.427,305.027 310.094,306.027 311.5,306.5C 312.757,311.229 314.757,315.562 317.5,319.5C 317.932,320.71 318.599,321.71 319.5,322.5C 320.167,322.5 320.5,322.833 320.5,323.5C 319.957,323.56 319.624,323.893 319.5,324.5C 320.238,326.065 321.238,327.732 322.5,329.5C 321.167,330.167 321.167,330.833 322.5,331.5C 323.09,332.766 323.59,334.099 324,335.5C 325.666,334.66 325.833,335.16 324.5,337C 325.704,340.716 326.538,344.55 327,348.5C 327.992,351.323 329.825,353.323 332.5,354.5C 333.209,355.404 334.209,355.737 335.5,355.5C 351.438,363.985 369.105,365.485 388.5,360C 392.448,357.213 396.114,354.213 399.5,351C 398.695,347.197 398.028,343.364 397.5,339.5C 397.956,327.421 399.122,315.421 401,303.5C 405.684,293.458 411.851,284.458 419.5,276.5C 431.26,267.248 443.927,259.415 457.5,253C 478.032,245.674 498.699,245.008 519.5,251C 522.391,252.274 525.058,253.774 527.5,255.5 Z"/></g>
<g><path style="opacity:1" fill="#1b1b1b" d="M 493.5,250.5 C 513.919,251.621 529.752,260.621 541,277.5C 546.447,286.561 550.947,296.061 554.5,306C 529.002,307.141 503.669,309.807 478.5,314C 450.146,320.158 424.813,332.324 402.5,350.5C 401.34,348.854 400.673,347.021 400.5,345C 401.268,335.523 401.768,326.023 402,316.5C 402.793,311.789 403.793,307.122 405,302.5C 409.743,295.358 414.743,288.358 420,281.5C 440.771,262.194 465.271,251.861 493.5,250.5 Z"/></g>
<g><path style="opacity:0.753" fill="#7a7973" d="M 527.5,255.5 C 528.71,255.932 529.71,256.599 530.5,257.5C 528.821,257.715 527.821,257.048 527.5,255.5 Z"/></g>
<g><path style="opacity:0.004" fill="#d4d3c8" d="M 530.5,257.5 C 532.027,257.427 533.027,258.094 533.5,259.5C 531.973,259.573 530.973,258.906 530.5,257.5 Z"/></g>
<g><path style="opacity:0.004" fill="#edecdf" d="M 534.5,260.5 C 536.833,260.833 538.167,262.167 538.5,264.5C 536.833,263.5 535.5,262.167 534.5,260.5 Z"/></g>
<g><path style="opacity:0.004" fill="#f6f6e8" d="M 275.5,266.5 C 276.833,267.167 276.833,267.167 275.5,266.5 Z"/></g>
<g><path style="opacity:0.004" fill="#f2f1e4" d="M 540.5,267.5 C 542.424,267.711 542.757,268.377 541.5,269.5C 541.167,268.833 540.833,268.167 540.5,267.5 Z"/></g>
<g><path style="opacity:1" fill="#1b1b1b" d="M 257.5,268.5 C 263.581,269.027 269.248,270.86 274.5,274C 300.656,294.504 316.322,321.004 321.5,353.5C 307.027,343.088 291.694,333.922 275.5,326C 256.698,319.533 237.365,315.866 217.5,315C 220.037,303.427 224.871,292.927 232,283.5C 239.617,276.783 248.117,271.783 257.5,268.5 Z"/></g>
<g><path style="opacity:0.004" fill="#f6f6e8" d="M 279.5,269.5 C 280.833,270.167 280.833,270.167 279.5,269.5 Z"/></g>
<g><path style="opacity:0.004" fill="#edece0" d="M 542.5,270.5 C 543.833,270.5 544.5,271.167 544.5,272.5C 543.5,272.167 542.833,271.5 542.5,270.5 Z"/></g>
<g><path style="opacity:0.004" fill="#dcdbcf" d="M 283.5,273.5 C 286.167,274.167 287.833,275.833 288.5,278.5C 286.5,277.167 284.833,275.5 283.5,273.5 Z"/></g>
<g><path style="opacity:0.035" fill="#888780" d="M 291.5,280.5 C 293.262,281.262 294.262,282.596 294.5,284.5C 292.738,283.738 291.738,282.404 291.5,280.5 Z"/></g>
<g><path style="opacity:0.004" fill="#ebeade" d="M 298.5,288.5 C 299.833,288.5 300.5,289.167 300.5,290.5C 299.5,290.167 298.833,289.5 298.5,288.5 Z"/></g>
<g><path style="opacity:0.004" fill="#dcdbd0" d="M 302.5,293.5 C 304.912,293.694 305.912,295.027 305.5,297.5C 304.512,296.205 303.512,294.872 302.5,293.5 Z"/></g>
<g><path style="opacity:0.051" fill="#aaa9a0" d="M 555.5,295.5 C 557.105,296.006 557.439,296.673 556.5,297.5C 555.662,297.158 555.328,296.492 555.5,295.5 Z"/></g>
<g><path style="opacity:0.004" fill="#e8e7db" d="M 305.5,297.5 C 306.833,297.5 307.5,298.167 307.5,299.5C 306.5,299.167 305.833,298.5 305.5,297.5 Z"/></g>
<g><path style="opacity:0.059" fill="#a8a79f" d="M 557.5,301.5 C 558.488,302.795 559.488,304.128 560.5,305.5C 558.088,305.306 557.088,303.973 557.5,301.5 Z"/></g>
<g><path style="opacity:0.016" fill="#a6a69d" d="M 309.5,303.5 C 310.906,303.973 311.573,304.973 311.5,306.5C 310.094,306.027 309.427,305.027 309.5,303.5 Z"/></g>
<g><path style="opacity:1" fill="#f3f2e5" d="M 537.5,310.5 C 543.842,310.334 550.175,310.5 556.5,311C 575.021,326.27 578.354,344.437 566.5,365.5C 552.55,354.515 537.55,345.015 521.5,337C 464.404,324.086 438.237,346.919 443,405.5C 436.311,401.322 429.978,396.655 424,391.5C 418.408,383.971 413.074,376.304 408,368.5C 406.6,363.169 405.6,357.836 405,352.5C 429.427,333.71 456.927,321.543 487.5,316C 504.299,314.025 520.966,312.192 537.5,310.5 Z"/></g>
<g><path style="opacity:0.008" fill="#e5e4d8" d="M 561.5,306.5 C 566.992,309.323 570.659,313.656 572.5,319.5C 569.238,314.898 565.572,310.565 561.5,306.5 Z"/></g>
<g><path style="opacity:0.004" fill="#e6e5d9" d="M 317.5,319.5 C 319.048,319.821 319.715,320.821 319.5,322.5C 318.599,321.71 317.932,320.71 317.5,319.5 Z"/></g>
<g><path style="opacity:1" fill="#f2f1e4" d="M 222.5,319.5 C 255.759,321.304 285.259,332.638 311,353.5C 314.194,369.338 311.861,384.338 304,398.5C 302,400.5 300,402.5 298,404.5C 300.325,377.65 289.825,357.483 266.5,344C 244.603,339.53 227.103,346.364 214,364.5C 210.479,369.542 207.479,374.875 205,380.5C 201.502,362.994 204.502,346.661 214,331.5C 216.689,327.325 219.523,323.325 222.5,319.5 Z"/></g>
<g><path style="opacity:0.027" fill="#85857e" d="M 572.5,319.5 C 573.906,319.973 574.573,320.973 574.5,322.5C 573.094,322.027 572.427,321.027 572.5,319.5 Z"/></g>
<g><path style="opacity:0.004" fill="#e5e4d8" d="M 574.5,322.5 C 576.048,322.821 576.715,323.821 576.5,325.5C 575.599,324.71 574.932,323.71 574.5,322.5 Z"/></g>
<g><path style="opacity:0.004" fill="#f6f6e8" d="M 320.5,323.5 C 321.833,324.167 321.833,324.167 320.5,323.5 Z"/></g>
<g><path style="opacity:0.004" fill="#f6f6e8" d="M 577.5,326.5 C 578.833,327.167 578.833,327.167 577.5,326.5 Z"/></g>
<g><path style="opacity:0.004" fill="#f6f6e8" d="M 322.5,329.5 C 323.833,330.167 323.833,330.833 322.5,331.5C 322.5,330.833 322.5,330.167 322.5,329.5 Z"/></g>
<g><path style="opacity:0.004" fill="#f6f6e8" d="M 579.5,334.5 C 580.833,335.167 580.833,335.167 579.5,334.5 Z"/></g>
<g><path style="opacity:0.004" fill="#d4d3c8" d="M 578.5,335.5 C 578.833,335.5 579.167,335.5 579.5,335.5C 580.625,336.652 580.625,337.652 579.5,338.5C 578.833,338.5 578.5,338.167 578.5,337.5C 578.5,336.833 578.5,336.167 578.5,335.5 Z"/></g>
<g><path style="opacity:0.004" fill="#f6f6e8" d="M 580.5,339.5 C 581.629,341.628 581.796,343.961 581,346.5C 580.503,344.19 580.337,341.857 580.5,339.5 Z"/></g>
<g><path style="opacity:0.027" fill="#bebdb3" d="M 579.5,347.5 C 580.354,348.632 580.354,349.965 579.5,351.5C 579.167,351.5 578.833,351.5 578.5,351.5C 578.433,350.041 578.766,348.708 579.5,347.5 Z"/></g>
<g><path style="opacity:0.004" fill="#f6f6e8" d="M 579.5,351.5 C 580.833,352.167 580.833,352.167 579.5,351.5 Z"/></g>
<g><path style="opacity:0.102" fill="#85857e" d="M 335.5,355.5 C 334.209,355.737 333.209,355.404 332.5,354.5C 332.435,354.062 332.601,353.728 333,353.5C 333.995,354.066 334.828,354.733 335.5,355.5 Z"/></g>
<g><path style="opacity:0.004" fill="#f6f6e8" d="M 578.5,355.5 C 579.833,356.167 579.833,356.167 578.5,355.5 Z"/></g>
<g><path style="opacity:1" fill="#1b1b1b" d="M 327.5,357.5 C 334.917,361.206 342.583,364.373 350.5,367C 363.045,369.556 375.379,368.89 387.5,365C 391.183,363.159 394.516,360.826 397.5,358C 398.5,357.333 399.5,357.333 400.5,358C 405.783,368.611 405.617,379.111 400,389.5C 395.86,394.211 390.694,395.711 384.5,394C 378.851,392.027 374.184,388.694 370.5,384C 366.546,380.862 362.546,380.862 358.5,384C 356.402,386.854 354.069,389.521 351.5,392C 343.806,394.989 337.64,393.155 333,386.5C 330.946,376.834 329.112,367.168 327.5,357.5 Z"/></g>
<g><path style="opacity:0.004" fill="#d2d1c6" d="M 577.5,356.5 C 577.833,356.5 578.167,356.5 578.5,356.5C 578.167,357.167 577.833,357.833 577.5,358.5C 577.167,358.5 576.833,358.5 576.5,358.5C 576.328,357.508 576.662,356.842 577.5,356.5 Z"/></g>
<g><path style="opacity:0.004" fill="#f6f6e8" d="M 577.5,358.5 C 578.833,359.167 578.833,359.167 577.5,358.5 Z"/></g>
<g><path style="opacity:0.095" fill="#d3d2c7" d="M 319.5,357.5 C 318.874,363.268 318.207,368.934 317.5,374.5C 317.171,368.463 317.504,362.463 318.5,356.5C 319.107,356.624 319.44,356.957 319.5,357.5 Z"/></g>
<g><path style="opacity:0.031" fill="#908f88" d="M 409.5,378.5 C 408.833,379.833 408.167,381.167 407.5,382.5C 407.337,380.143 407.503,377.81 408,375.5C 409.039,376.244 409.539,377.244 409.5,378.5 Z"/></g>
<g><path style="opacity:0.012" fill="#000000" d="M 549.5,383.5 C 550.833,384.167 550.833,384.167 549.5,383.5 Z"/></g>
<g><path style="opacity:0.02" fill="#000000" d="M 545.5,384.5 C 546.833,385.167 546.833,385.167 545.5,384.5 Z"/></g>
<g><path style="opacity:0.022" fill="#000000" d="M 541.5,386.5 C 541.897,385.475 542.563,385.308 543.5,386C 542.906,386.464 542.239,386.631 541.5,386.5 Z"/></g>
<g><path style="opacity:0.018" fill="#000000" d="M 538.5,387.5 C 538.897,386.475 539.563,386.308 540.5,387C 539.906,387.464 539.239,387.631 538.5,387.5 Z"/></g>
<g><path style="opacity:0.016" fill="#000000" d="M 534.5,388.5 C 534.897,387.475 535.563,387.308 536.5,388C 535.906,388.464 535.239,388.631 534.5,388.5 Z"/></g>
<g><path style="opacity:0.012" fill="#000000" d="M 530.5,389.5 C 530.897,388.475 531.563,388.308 532.5,389C 531.906,389.464 531.239,389.631 530.5,389.5 Z"/></g>
<g><path style="opacity:0.04" fill="#000000" d="M 226.5,391.5 C 228.103,391.312 229.437,391.812 230.5,393C 228.167,393.667 225.833,393.667 223.5,393C 224.737,392.768 225.737,392.268 226.5,391.5 Z"/></g>
<g><path style="opacity:0.042" fill="#000000" d="M 210.5,393.5 C 211.946,392.387 213.613,392.22 215.5,393C 213.866,393.494 212.199,393.66 210.5,393.5 Z"/></g>
<g><path style="opacity:0.016" fill="#000000" d="M 233.5,392.5 C 234.833,393.167 234.833,393.167 233.5,392.5 Z"/></g>
<g><path style="opacity:0.012" fill="#000000" d="M 236.5,394.5 C 236.897,393.475 237.563,393.308 238.5,394C 237.906,394.464 237.239,394.631 236.5,394.5 Z"/></g>
<g><path style="opacity:0.016" fill="#000000" d="M 239.5,395.5 C 239.897,394.475 240.563,394.308 241.5,395C 240.906,395.464 240.239,395.631 239.5,395.5 Z"/></g>
<g><path style="opacity:0.012" fill="#000000" d="M 242.5,395.5 C 243.833,396.167 243.833,396.167 242.5,395.5 Z"/></g>
<g><path style="opacity:0.004" fill="#f6f6e8" d="M 401.5,395.5 C 402.833,396.167 402.833,396.167 401.5,395.5 Z"/></g>
<g><path style="opacity:0.016" fill="#000000" d="M 245.5,396.5 C 246.833,397.167 246.833,397.167 245.5,396.5 Z"/></g>
<g><path style="opacity:0.012" fill="#000000" d="M 247.5,397.5 C 248.833,398.167 248.833,398.167 247.5,397.5 Z"/></g>
<g><path style="opacity:0.004" fill="#f6f6e8" d="M 398.5,397.5 C 398.833,397.5 399.167,397.5 399.5,397.5C 399.315,398.17 398.981,398.17 398.5,397.5 Z"/></g>
<g><path style="opacity:0.02" fill="#000000" d="M 250.5,398.5 C 251.833,399.167 251.833,399.167 250.5,398.5 Z"/></g>
<g><path style="opacity:0.02" fill="#000000" d="M 252.5,399.5 C 253.833,400.167 253.833,400.167 252.5,399.5 Z"/></g>
<g><path style="opacity:0.012" fill="#000000" d="M 254.5,400.5 C 255.833,401.167 255.833,401.167 254.5,400.5 Z"/></g>
<g><path style="opacity:0.004" fill="#f6f6e8" d="M 307.5,403.5 C 308.833,404.167 308.833,404.167 307.5,403.5 Z"/></g>
<g><path style="opacity:0.004" fill="#f6f6e8" d="M 306.5,404.5 C 306.833,404.5 307.167,404.5 307.5,404.5C 307.315,405.17 306.981,405.17 306.5,404.5 Z"/></g>
<g><path style="opacity:0.004" fill="#eeede1" d="M 305.5,405.5 C 305.833,405.5 306.167,405.5 306.5,405.5C 306.027,406.906 305.027,407.573 303.5,407.5C 303.833,406.5 304.5,405.833 305.5,405.5 Z"/></g>

        
<g><path style="opacity:0.983" fill="#212120" d="M 592.5,349.5 C 591.89,348.609 591.557,347.609 591.5,346.5C 599.093,346.538 605.593,349.538 611,355.5C 613.002,360.007 614.502,364.674 615.5,369.5C 615.02,373.293 613.353,376.46 610.5,379C 604.352,382.078 598.019,384.578 591.5,386.5C 585.054,385.936 578.72,384.77 572.5,383C 564.833,382.333 557.167,382.333 549.5,383C 541.284,384.787 533.618,387.62 526.5,391.5C 526.631,390.624 526.298,389.957 525.5,389.5C 524.261,389.942 523.261,390.609 522.5,391.5C 521.791,392.404 520.791,392.737 519.5,392.5C 515.838,392.723 512.505,393.723 509.5,395.5C 506.759,395.707 504.426,396.707 502.5,398.5C 502.158,399.338 501.492,399.672 500.5,399.5C 495.914,400.46 491.914,402.46 488.5,405.5C 488.158,406.338 487.492,406.672 486.5,406.5C 484.973,406.427 483.973,407.094 483.5,408.5C 481.326,408.75 479.659,409.75 478.5,411.5C 477.167,411.5 476.5,412.167 476.5,413.5C 475.878,414.627 475.045,415.627 474,416.5C 472.951,415.483 471.784,415.316 470.5,416C 465.147,418.701 459.814,421.368 454.5,424C 422.871,431.862 391.038,433.695 359,429.5C 340.208,432.375 321.708,431.042 303.5,425.5C 300.905,426.237 298.238,426.237 295.5,425.5C 295.953,424.542 296.619,423.708 297.5,423C 296.906,422.536 296.239,422.369 295.5,422.5C 291.703,422.128 288.37,420.794 285.5,418.5C 282.485,416.326 279.151,414.659 275.5,413.5C 274.415,411.413 272.749,410.08 270.5,409.5C 269.508,409.672 268.842,409.338 268.5,408.5C 268.027,407.094 267.027,406.427 265.5,406.5C 264.352,403.913 262.685,402.913 260.5,403.5C 251.198,397.055 240.864,392.722 229.5,390.5C 219.197,391.724 208.863,392.224 198.5,392C 183.151,388.16 174.651,378.326 173,362.5C 172.333,357.833 172.333,353.167 173,348.5C 173.036,346.059 173.869,344.059 175.5,342.5C 176.086,342.709 176.586,343.043 177,343.5C 176.529,354.347 178.529,364.681 183,374.5C 188.543,381.974 196.043,385.974 205.5,386.5C 232.733,382.303 256.733,389.137 277.5,407C 291.297,414.71 305.964,420.044 321.5,423C 345.953,423.754 370.453,424.587 395,425.5C 414.476,425.449 433.642,422.949 452.5,418C 469.5,409 486.5,400 503.5,391C 518.586,385.527 533.92,380.86 549.5,377C 557.5,376.333 565.5,376.333 573.5,377C 580.063,378.986 586.73,379.986 593.5,380C 597.749,377.806 602.082,375.806 606.5,374C 607.872,372.758 608.872,371.258 609.5,369.5C 608.098,365.461 606.598,361.461 605,357.5C 600.684,354.934 596.517,352.267 592.5,349.5 Z"/></g>
<g><path style="opacity:0.231" fill="#9b9b93" d="M 591.5,346.5 C 591.557,347.609 591.89,348.609 592.5,349.5C 590.448,348.947 590.115,347.947 591.5,346.5 Z"/></g>
<g><path style="opacity:0.012" fill="#b3b2a9" d="M 526.5,391.5 C 525.472,391.926 524.139,391.926 522.5,391.5C 523.261,390.609 524.261,389.942 525.5,389.5C 526.298,389.957 526.631,390.624 526.5,391.5 Z"/></g>
<g><path style="opacity:0.149" fill="#d6d5ca" d="M 519.5,392.5 C 516.495,394.277 513.162,395.277 509.5,395.5C 512.505,393.723 515.838,392.723 519.5,392.5 Z"/></g>
<g><path style="opacity:0.196" fill="#d2d1c6" d="M 509.5,395.5 C 507.574,397.293 505.241,398.293 502.5,398.5C 504.426,396.707 506.759,395.707 509.5,395.5 Z"/></g>
<g><path style="opacity:0.294" fill="#a8a79f" d="M 260.5,403.5 C 262.685,402.913 264.352,403.913 265.5,406.5C 263.589,405.925 261.922,404.925 260.5,403.5 Z"/></g>
<g><path style="opacity:0.173" fill="#d8d7cc" d="M 500.5,399.5 C 496.818,402.008 492.818,404.008 488.5,405.5C 491.914,402.46 495.914,400.46 500.5,399.5 Z"/></g>
<g><path style="opacity:0.235" fill="#d1d0c5" d="M 265.5,406.5 C 267.027,406.427 268.027,407.094 268.5,408.5C 266.973,408.573 265.973,407.906 265.5,406.5 Z"/></g>
<g><path style="opacity:0.141" fill="#dfded2" d="M 486.5,406.5 C 486.027,407.906 485.027,408.573 483.5,408.5C 483.973,407.094 484.973,406.427 486.5,406.5 Z"/></g>
<g><path style="opacity:0.067" fill="#d3d2c7" d="M 483.5,408.5 C 482.341,410.25 480.674,411.25 478.5,411.5C 479.659,409.75 481.326,408.75 483.5,408.5 Z"/></g>
<g><path style="opacity:0.012" fill="#d5d4c9" d="M 478.5,411.5 C 478.167,412.5 477.5,413.167 476.5,413.5C 476.5,412.167 477.167,411.5 478.5,411.5 Z"/></g>
<g><path style="opacity:0.322" fill="#b9b8af" d="M 270.5,409.5 C 272.749,410.08 274.415,411.413 275.5,413.5C 273.251,412.92 271.585,411.587 270.5,409.5 Z"/></g>
<g><path style="opacity:0.196" fill="#d0d0c5" d="M 275.5,413.5 C 279.151,414.659 282.485,416.326 285.5,418.5C 281.58,417.873 278.247,416.207 275.5,413.5 Z"/></g>
<g><path style="opacity:0.027" fill="#d9d8cd" d="M 295.5,422.5 C 296.239,422.369 296.906,422.536 297.5,423C 296.619,423.708 295.953,424.542 295.5,425.5C 294.375,424.652 294.375,423.652 295.5,422.5 Z"/></g>

        
<g><path style="opacity:0.99" fill="#07070a" d="M 334.5,239.5 C 334.5,238.5 334.5,237.5 334.5,236.5C 333.209,236.263 332.209,236.596 331.5,237.5C 329.254,237.936 327.087,238.603 325,239.5C 322.67,237.336 322.003,234.669 323,231.5C 324.455,228.088 326.288,224.921 328.5,222C 323.233,221.326 318.066,221.826 313,223.5C 311.029,223.719 309.862,222.885 309.5,221C 311.237,215.253 314.57,210.586 319.5,207C 324.198,204.651 328.864,202.318 333.5,200C 324.528,200.535 322.528,197.202 327.5,190C 330.253,188.499 332.92,186.999 335.5,185.5C 334.296,182.585 332.296,180.419 329.5,179C 320.577,175.47 311.577,172.137 302.5,169C 301.483,167.951 301.316,166.784 302,165.5C 307.762,162.001 314.095,160.334 321,160.5C 344.639,162.708 361.472,174.374 371.5,195.5C 372.548,197.933 373.214,197.933 373.5,195.5C 377.16,183.177 383.16,172.177 391.5,162.5C 398.406,155.547 406.74,151.547 416.5,150.5C 415.726,157.132 412.893,162.798 408,167.5C 404.697,172.441 402.197,177.774 400.5,183.5C 405.328,183.469 410.328,183.635 415.5,184C 417.576,185.884 417.91,188.051 416.5,190.5C 412.206,191.645 408.539,193.812 405.5,197C 418.699,196.375 425.699,202.542 426.5,215.5C 419.799,216.682 414.132,219.682 409.5,224.5C 410.61,233.138 410.776,241.804 410,250.5C 409.592,253.42 408.259,255.754 406,257.5C 405.333,256.833 404.667,256.167 404,255.5C 403.664,248.505 400.164,243.839 393.5,241.5C 392.246,247.457 390.246,253.123 387.5,258.5C 385.694,259.859 384.194,259.525 383,257.5C 383.07,251.993 380.737,247.993 376,245.5C 372.584,247.992 370.418,251.325 369.5,255.5C 368.127,255.657 366.793,255.49 365.5,255C 361.071,251.705 356.571,248.538 352,245.5C 347.629,248.431 343.796,251.931 340.5,256C 339.5,256.667 338.5,256.667 337.5,256C 335.48,250.719 334.48,245.219 334.5,239.5 Z"/></g>
<g><path style="opacity:1" fill="#2c2d39" d="M 400.5,195.5 C 400.5,194.5 400.5,193.5 400.5,192.5C 396.914,192.848 393.914,194.015 391.5,196C 392.048,186.264 394.548,176.764 399,167.5C 402.333,166.167 402.333,164.833 399,163.5C 398.617,164.056 398.117,164.389 397.5,164.5C 400.468,160.514 404.468,158.348 409.5,158C 401.586,167.41 397.252,178.243 396.5,190.5C 400.011,188.915 403.678,188.415 407.5,189C 404.642,190.694 402.309,192.861 400.5,195.5 Z"/></g>
<g><path style="opacity:1" fill="#333340" d="M 400.5,195.5 C 399.659,197.379 399.325,199.379 399.5,201.5C 403.234,201.323 406.901,201.656 410.5,202.5C 410.423,203.75 409.756,204.583 408.5,205C 410.285,206.163 412.285,206.83 414.5,207C 413.167,207.667 413.167,208.333 414.5,209C 410,212.167 406.167,216 403,220.5C 403.059,225.287 403.226,230.12 403.5,235C 401.109,236.309 401.109,237.309 403.5,238C 401.892,238.658 400.725,238.158 400,236.5C 399.536,237.094 399.369,237.761 399.5,238.5C 396.099,236.616 392.433,236.116 388.5,237C 387.741,241.471 386.908,245.971 386,250.5C 383.287,245.747 379.787,241.747 375.5,238.5C 373.821,239.782 371.987,240.782 370,241.5C 369.913,244.578 368.579,246.912 366,248.5C 360.951,246.231 356.784,242.898 353.5,238.5C 350.87,239.804 348.537,241.47 346.5,243.5C 345.5,243.5 344.5,243.5 343.5,243.5C 343.64,241.876 342.973,240.71 341.5,240C 342.177,237.018 342.177,234.185 341.5,231.5C 340.758,230.713 339.925,230.047 339,229.5C 336.761,230.869 334.927,230.369 333.5,228C 335.008,225.906 336.342,223.74 337.5,221.5C 337.5,221.167 337.5,220.833 337.5,220.5C 338.097,220.265 338.43,219.765 338.5,219C 336.976,217.806 335.81,216.306 335,214.5C 331.716,214.387 328.383,214.72 325,215.5C 324.626,214.584 324.126,213.75 323.5,213C 328.342,210.053 333.342,207.553 338.5,205.5C 339.167,205.5 339.833,205.5 340.5,205.5C 342.734,204.296 345.067,203.13 347.5,202C 344.701,201.561 343.701,200.228 344.5,198C 343.167,197 341.833,196 340.5,195C 341.155,193.513 342.155,192.347 343.5,191.5C 344.631,189.926 344.798,188.259 344,186.5C 341.675,183.173 339.342,179.839 337,176.5C 334.238,175.019 331.571,173.353 329,171.5C 328.626,170.584 328.126,169.75 327.5,169C 328.416,168.722 329.082,168.222 329.5,167.5C 341.896,170.723 352.063,177.39 360,187.5C 363.841,193.178 367.174,199.178 370,205.5C 371.396,207.527 373.062,207.86 375,206.5C 377.94,192.62 383.607,179.953 392,168.5C 393.992,167.335 395.825,166.002 397.5,164.5C 398.117,164.389 398.617,164.056 399,163.5C 402.333,164.833 402.333,166.167 399,167.5C 394.548,176.764 392.048,186.264 391.5,196C 393.914,194.015 396.914,192.848 400.5,192.5C 400.5,193.5 400.5,194.5 400.5,195.5 Z"/></g>
<g><path style="opacity:1" fill="#2c2d3a" d="M 329.5,167.5 C 329.082,168.222 328.416,168.722 327.5,169C 328.126,169.75 328.626,170.584 329,171.5C 331.571,173.353 334.238,175.019 337,176.5C 339.342,179.839 341.675,183.173 344,186.5C 344.798,188.259 344.631,189.926 343.5,191.5C 342.155,192.347 341.155,193.513 340.5,195C 341.833,196 343.167,197 344.5,198C 343.701,200.228 344.701,201.561 347.5,202C 345.067,203.13 342.734,204.296 340.5,205.5C 342.213,199.063 339.879,195.063 333.5,193.5C 335.664,191.316 338.331,189.983 341.5,189.5C 340.302,184.134 337.635,179.634 333.5,176C 327.136,172.818 320.802,169.651 314.5,166.5C 319.741,165.1 324.741,165.434 329.5,167.5 Z"/></g>
<g><path style="opacity:0.024" fill="#292a35" d="M 371.5,195.5 C 372.167,195.5 372.833,195.5 373.5,195.5C 373.214,197.933 372.548,197.933 371.5,195.5 Z"/></g>
<g><path style="opacity:1" fill="#2d2d3a" d="M 410.5,202.5 C 415.782,202.972 419.449,205.639 421.5,210.5C 415.285,213.224 410.118,217.224 406,222.5C 406.682,229.818 406.515,237.151 405.5,244.5C 403.146,242.812 401.146,240.812 399.5,238.5C 399.369,237.761 399.536,237.094 400,236.5C 400.725,238.158 401.892,238.658 403.5,238C 401.109,237.309 401.109,236.309 403.5,235C 403.226,230.12 403.059,225.287 403,220.5C 406.167,216 410,212.167 414.5,209C 413.167,208.333 413.167,207.667 414.5,207C 412.285,206.83 410.285,206.163 408.5,205C 409.756,204.583 410.423,203.75 410.5,202.5 Z"/></g>
<g><path style="opacity:1" fill="#2b2c38" d="M 338.5,205.5 C 333.342,207.553 328.342,210.053 323.5,213C 324.126,213.75 324.626,214.584 325,215.5C 328.383,214.72 331.716,214.387 335,214.5C 335.81,216.306 336.976,217.806 338.5,219C 338.43,219.765 338.097,220.265 337.5,220.5C 336.64,218.386 334.973,217.22 332.5,217C 327.116,216.495 321.782,216.495 316.5,217C 322.249,209.629 329.582,205.796 338.5,205.5 Z"/></g>
<g><path style="opacity:1" fill="#2c2c39" d="M 337.5,221.5 C 336.342,223.74 335.008,225.906 333.5,228C 334.927,230.369 336.761,230.869 339,229.5C 339.925,230.047 340.758,230.713 341.5,231.5C 342.177,234.185 342.177,237.018 341.5,240C 342.973,240.71 343.64,241.876 343.5,243.5C 344.5,243.5 345.5,243.5 346.5,243.5C 344.229,245.266 342.063,247.266 340,249.5C 337.689,243.959 336.856,238.293 337.5,232.5C 334.073,232.976 330.74,232.976 327.5,232.5C 329.464,227.538 332.798,223.871 337.5,221.5 Z"/></g>
<g><path style="opacity:0.157" fill="#272733" d="M 331.5,237.5 C 332.209,236.596 333.209,236.263 334.5,236.5C 334.5,237.5 334.5,238.5 334.5,239.5C 333.778,238.449 332.778,237.782 331.5,237.5 Z"/></g>

    </svg>
