
    <svg width="862" height="862" viewBox="0 0 862 862" fill="none" xmlns="http://www.w3.org/2000/svg">
        
<g><path style="opacity:1" fill="#f6f6e8" d="M -0.5,-0.5 C 286.833,-0.5 574.167,-0.5 861.5,-0.5C 861.5,286.833 861.5,574.167 861.5,861.5C 574.167,861.5 286.833,861.5 -0.5,861.5C -0.5,574.167 -0.5,286.833 -0.5,-0.5 Z"/></g>

        
<g><path style="opacity:0.983" fill="#1a1a19" d="M 578.5,540.5 C 583.993,540.916 589.326,542.082 594.5,544C 599.237,547.614 603.403,551.781 607,556.5C 613.977,570.057 616.311,584.39 614,599.5C 611.931,603.236 608.931,605.903 605,607.5C 603.018,607.01 601.351,606.01 600,604.5C 594.275,609.717 588.442,609.717 582.5,604.5C 577.923,613.337 572.256,614.337 565.5,607.5C 561.53,612.973 556.196,614.806 549.5,613C 548.299,612.097 547.465,610.931 547,609.5C 541.931,617.452 536.764,617.452 531.5,609.5C 527.737,613.765 523.737,617.932 519.5,622C 516.106,622.752 512.773,622.585 509.5,621.5C 508.194,620.088 507.36,618.421 507,616.5C 505.425,609.568 504.258,602.568 503.5,595.5C 504.335,583.317 510.669,578.317 522.5,580.5C 523.795,579.902 525.128,579.402 526.5,579C 535.197,570.637 543.531,561.97 551.5,553C 559.592,546.617 568.592,542.45 578.5,540.5 Z"/></g>
<g><path style="opacity:1" fill="#d9d8cb" d="M 587.5,601.5 C 588.496,601.586 589.329,601.252 590,600.5C 592.94,596.545 595.94,592.545 599,588.5C 599.37,579.339 598.37,570.339 596,561.5C 591.36,554.156 584.693,549.822 576,548.5C 573.538,549.159 571.038,549.493 568.5,549.5C 581.297,543.74 592.13,546.407 601,557.5C 608.853,570.951 611.186,585.285 608,600.5C 606.604,602.527 604.938,602.86 603,601.5C 602.091,598.089 601.091,594.755 600,591.5C 598.35,595.573 596.516,599.573 594.5,603.5C 591.584,604.861 589.251,604.195 587.5,601.5 Z"/></g>
<g><path style="opacity:1" fill="#f4f3e6" d="M 587.5,601.5 C 585.433,599.682 584.1,597.349 583.5,594.5C 582.635,593.417 581.635,593.251 580.5,594C 579.955,598.074 578.621,601.907 576.5,605.5C 574.878,607.439 573.044,607.772 571,606.5C 568.863,602.486 567.03,598.486 565.5,594.5C 564.522,594.977 563.689,595.643 563,596.5C 563.284,605.334 559.118,609.667 550.5,609.5C 550.348,605.228 549.348,601.228 547.5,597.5C 545.179,600.394 544.012,603.727 544,607.5C 541.618,612.067 538.951,612.4 536,608.5C 535.887,606.026 534.887,604.026 533,602.5C 527.856,607.313 523.023,612.48 518.5,618C 516.098,618.814 513.765,618.647 511.5,617.5C 508.811,609.37 507.645,601.036 508,592.5C 508.668,588.501 510.835,585.668 514.5,584C 518.801,584.363 523.134,584.363 527.5,584C 529.167,583 530.833,582 532.5,581C 540.864,572.97 548.864,564.637 556.5,556C 560.367,553.567 564.367,551.4 568.5,549.5C 571.038,549.493 573.538,549.159 576,548.5C 584.693,549.822 591.36,554.156 596,561.5C 598.37,570.339 599.37,579.339 599,588.5C 595.94,592.545 592.94,596.545 590,600.5C 589.329,601.252 588.496,601.586 587.5,601.5 Z"/></g>
<g><path style="opacity:0.982" fill="#191918" d="M 290.5,554.5 C 298.253,554.104 305.92,554.604 313.5,556C 315.5,557.333 317.5,558.667 319.5,560C 322.228,566.042 326.895,569.709 333.5,571C 335.378,572.543 336.878,574.376 338,576.5C 338.242,583.196 338.742,589.862 339.5,596.5C 339.461,598.587 338.461,599.921 336.5,600.5C 332.274,599.93 328.108,599.263 324,598.5C 322.5,600 321,601.5 319.5,603C 317.287,603.626 315.12,603.459 313,602.5C 306.564,605.689 301.23,604.356 297,598.5C 284.481,607.161 276.648,603.994 273.5,589C 271.944,573.778 277.611,562.278 290.5,554.5 Z"/></g>
<g><path style="opacity:1" fill="#f4f3e6" d="M 334.5,587.5 C 334.5,590.167 334.5,592.833 334.5,595.5C 333.167,595.5 331.833,595.5 330.5,595.5C 327.482,595.335 324.482,595.502 321.5,596C 320.022,598.039 318.022,598.872 315.5,598.5C 315.5,597.5 315.5,596.5 315.5,595.5C 312.326,596.015 309.326,597.015 306.5,598.5C 305.5,598.333 304.5,598.167 303.5,598C 301.441,595.366 299.275,592.866 297,590.5C 296.292,591.381 295.458,592.047 294.5,592.5C 290.404,593.285 287.07,592.118 284.5,589C 284.833,588.667 285.167,588.333 285.5,588C 283.667,587.5 282.5,586.333 282,584.5C 281.501,580.179 281.334,575.846 281.5,571.5C 281.709,570.078 282.209,568.745 283,567.5C 286.167,565 289.333,562.5 292.5,560C 298.167,559.333 303.833,559.333 309.5,560C 314.42,562.916 318.753,566.582 322.5,571C 326.232,572.461 329.732,574.294 333,576.5C 333.936,580.114 334.436,583.78 334.5,587.5 Z"/></g>
<g><path style="opacity:1" fill="#d7d6c9" d="M 281.5,571.5 C 281.334,575.846 281.501,580.179 282,584.5C 282.5,586.333 283.667,587.5 285.5,588C 285.167,588.333 284.833,588.667 284.5,589C 287.07,592.118 290.404,593.285 294.5,592.5C 293.641,595.452 291.641,597.285 288.5,598C 285.364,599.041 282.864,598.207 281,595.5C 279.409,588.608 279.076,581.608 280,574.5C 280.232,573.263 280.732,572.263 281.5,571.5 Z"/></g>
<g><path style="opacity:1" fill="#64635e" d="M 334.5,587.5 C 335.477,590.287 335.81,593.287 335.5,596.5C 333.585,596.784 331.919,596.451 330.5,595.5C 331.833,595.5 333.167,595.5 334.5,595.5C 334.5,592.833 334.5,590.167 334.5,587.5 Z"/></g>

        

<g transform="translate(0.000000,862.000000) scale(0.100000,-0.100000)"
fill="#000000" stroke="none">
</g>

        
<g><path style="opacity:0.999" fill="#1d1a17" d="M 567.5,264.5 C 567.427,266.027 568.094,267.027 569.5,267.5C 570.833,268.167 571.833,269.167 572.5,270.5C 572.427,272.027 573.094,273.027 574.5,273.5C 576.786,276.463 578.619,279.796 580,283.5C 581.333,288.167 582.667,292.833 584,297.5C 600.968,293.905 616.801,296.738 631.5,306C 657.957,323.456 680.123,345.29 698,371.5C 700.529,375.926 702.362,380.592 703.5,385.5C 703.41,388.152 704.076,390.485 705.5,392.5C 706.37,394.032 706.036,395.532 704.5,397C 701.814,398.368 699.147,399.701 696.5,401C 687.337,403.06 678.337,403.893 669.5,403.5C 671.81,407.254 673.643,411.254 675,415.5C 676.619,423.927 678.619,432.26 681,440.5C 682.454,454.02 679.787,466.687 673,478.5C 663.749,491.086 652.582,501.586 639.5,510C 630.893,513.302 622.893,517.635 615.5,523C 597.029,529.157 579.029,536.491 561.5,545C 545.683,550.606 529.683,555.606 513.5,560C 527.668,574.176 543.001,586.843 559.5,598C 576.758,613.656 588.591,632.823 595,655.5C 600.246,671.481 603.746,687.814 605.5,704.5C 615.856,702.179 626.356,700.846 637,700.5C 653.9,703.09 670.9,704.757 688,705.5C 707.617,704.722 725.784,699.222 742.5,689C 757.923,678.567 772.423,667.067 786,654.5C 787.653,654.82 788.653,655.82 789,657.5C 790.41,661.976 791.577,666.476 792.5,671C 792.058,695.003 785.891,717.503 774,738.5C 761.43,755.698 744.596,766.531 723.5,771C 714.162,773.335 704.828,775.668 695.5,778C 672.316,777.979 649.649,781.312 627.5,788C 631.324,793.922 636.657,797.922 643.5,800C 646.319,802.72 645.986,805.053 642.5,807C 635.644,812.007 627.978,814.507 619.5,814.5C 615.167,814.5 610.833,814.5 606.5,814.5C 606.263,815.791 606.596,816.791 607.5,817.5C 609.143,819.708 608.81,821.541 606.5,823C 599.093,824.492 591.593,825.325 584,825.5C 570.833,824.357 557.666,823.19 544.5,822C 528.753,817.882 515.253,810.049 504,798.5C 495.911,789.336 489.577,779.003 485,767.5C 473.056,772.575 460.556,774.908 447.5,774.5C 441.513,773.858 435.513,773.358 429.5,773C 427,772.625 424.667,771.792 422.5,770.5C 418.78,774.733 415.613,779.4 413,784.5C 396.732,800.487 377.065,808.487 354,808.5C 349.103,808.068 344.269,807.234 339.5,806C 337.709,805.585 336.376,804.585 335.5,803C 338.138,800.346 341.138,798.18 344.5,796.5C 345.973,795.928 347.307,795.095 348.5,794C 346.609,793.797 344.943,794.297 343.5,795.5C 334.515,796.911 325.515,796.744 316.5,795C 304.562,791.925 299.562,784.425 301.5,772.5C 312.272,769.781 321.939,764.947 330.5,758C 319.87,750.041 313.37,739.541 311,726.5C 307.602,710.123 307.769,693.789 311.5,677.5C 312.793,675.636 312.793,673.636 311.5,671.5C 310.893,671.624 310.56,671.957 310.5,672.5C 309.013,673.804 307.346,674.97 305.5,676C 298.059,677.01 291.059,675.843 284.5,672.5C 275.52,664.574 271.187,654.574 271.5,642.5C 272.908,618.525 282.242,598.358 299.5,582C 310.392,573.408 322.392,571.241 335.5,575.5C 336.947,576.885 337.947,576.552 338.5,574.5C 338.433,573.041 338.766,571.708 339.5,570.5C 340.757,569.377 340.424,568.711 338.5,568.5C 326.038,567.642 313.704,565.808 301.5,563C 279.858,557.675 258.525,551.341 237.5,544C 217.724,535.619 199.39,524.952 182.5,512C 179.629,509.297 176.962,506.464 174.5,503.5C 174.027,502.094 173.027,501.427 171.5,501.5C 155.808,488.291 146.475,471.458 143.5,451C 144.485,443.505 144.985,436.005 145,428.5C 139.772,431.396 134.272,432.062 128.5,430.5C 127.063,426.472 126.397,422.305 126.5,418C 128.512,388.142 139.012,361.642 158,338.5C 167.466,327.852 178.966,320.352 192.5,316C 198.537,315.303 204.537,315.47 210.5,316.5C 212.5,305.171 217.167,295.171 224.5,286.5C 225.906,286.027 226.573,285.027 226.5,283.5C 228.616,277.549 231.783,272.215 236,267.5C 246.355,255.578 258.188,245.412 271.5,237C 347.364,211.021 424.364,207.021 502.5,225C 512.956,228.227 522.956,232.56 532.5,238C 541.167,244.671 550.501,250.338 560.5,255C 562.476,258.463 564.81,261.63 567.5,264.5 Z"/></g>
<g><path style="opacity:1" fill="#bf8c29" d="M 689.5,369.5 C 691.799,386.029 684.799,393.529 668.5,392C 660.466,390.429 652.799,388.096 645.5,385C 648,386.833 650.5,388.667 653,390.5C 653.6,392.91 654.766,394.91 656.5,396.5C 658.725,400.235 661.558,403.568 665,406.5C 667.332,409.822 668.498,413.489 668.5,417.5C 664.857,445.287 652.857,468.787 632.5,488C 608.86,506.157 582.86,520.157 554.5,530C 532.28,535.789 510.28,542.123 488.5,549C 473.872,551.542 459.206,553.875 444.5,556C 436.649,556.284 428.816,556.784 421,557.5C 403.515,557.036 386.015,556.869 368.5,557C 353.791,555.323 339.125,553.323 324.5,551C 294.282,542.816 264.615,532.816 235.5,521C 223.215,515.191 211.215,508.858 199.5,502C 188.352,493.999 177.852,485.166 168,475.5C 163.667,469.833 159.333,464.167 155,458.5C 152.079,451.45 150.912,444.117 151.5,436.5C 153.967,428.619 154.967,420.619 154.5,412.5C 153.817,412.863 153.15,413.196 152.5,413.5C 148.453,418.44 143.286,421.44 137,422.5C 134.013,422.01 132.18,420.343 131.5,417.5C 133.163,407.851 134.663,398.185 136,388.5C 142.627,371.901 151.294,356.568 162,342.5C 172.461,330.184 185.628,322.85 201.5,320.5C 205.844,320.786 210.177,321.12 214.5,321.5C 215.279,315.66 216.779,309.993 219,304.5C 225.064,295.43 230.731,286.097 236,276.5C 248.038,261.454 262.205,248.954 278.5,239C 326.471,224.712 375.471,218.045 425.5,219C 444.678,222.103 464.012,224.77 483.5,227C 499.944,229.148 515.277,234.481 529.5,243C 538.665,249.084 547.998,254.917 557.5,260.5C 569.837,272.665 577.337,287.332 580,304.5C 582.319,310.473 585.653,315.807 590,320.5C 590.167,320 590.333,319.5 590.5,319C 588.062,313.631 586.062,308.131 584.5,302.5C 592.798,301.426 601.132,301.26 609.5,302C 616.404,304.451 623.07,307.451 629.5,311C 646.183,323.008 661.683,336.508 676,351.5C 680.717,357.377 685.217,363.377 689.5,369.5 Z"/></g>
<g><path style="opacity:0.925" fill="#7c7b7f" d="M 567.5,264.5 C 568.906,264.973 569.573,265.973 569.5,267.5C 568.094,267.027 567.427,266.027 567.5,264.5 Z"/></g>
<g><path style="opacity:0.792" fill="#7c7b80" d="M 572.5,270.5 C 573.906,270.973 574.573,271.973 574.5,273.5C 573.094,273.027 572.427,272.027 572.5,270.5 Z"/></g>
<g><path style="opacity:0.737" fill="#7d7c81" d="M 226.5,283.5 C 226.573,285.027 225.906,286.027 224.5,286.5C 224.427,284.973 225.094,283.973 226.5,283.5 Z"/></g>
<g><path style="opacity:1" fill="#0f0d0a" d="M 618.5,337.5 C 624.632,343.789 631.299,349.623 638.5,355C 649.79,362.609 661.79,368.943 674.5,374C 677.242,375.886 678.909,378.386 679.5,381.5C 673.457,380.485 667.79,378.318 662.5,375C 649.168,367.333 636.668,358.499 625,348.5C 623,345.833 621,343.167 619,340.5C 618.517,339.552 618.351,338.552 618.5,337.5 Z"/></g>
<g><path style="opacity:1" fill="#927623" d="M 689.5,369.5 C 695.393,376.932 698.726,385.265 699.5,394.5C 690.168,398.106 680.502,399.273 670.5,398C 665.664,396.734 660.998,395.234 656.5,393.5C 656.5,394.5 656.5,395.5 656.5,396.5C 654.766,394.91 653.6,392.91 653,390.5C 650.5,388.667 648,386.833 645.5,385C 652.799,388.096 660.466,390.429 668.5,392C 684.799,393.529 691.799,386.029 689.5,369.5 Z"/></g>
<g><path style="opacity:1" fill="#0f0d09" d="M 147.5,382.5 C 148.993,383.312 149.66,384.645 149.5,386.5C 148.225,393.816 147.058,401.15 146,408.5C 144.374,411.128 142.374,413.461 140,415.5C 141.16,404.203 143.66,393.203 147.5,382.5 Z"/></g>
<g><path style="opacity:0.902" fill="#646366" d="M 703.5,385.5 C 704.924,387.515 705.59,389.848 705.5,392.5C 704.076,390.485 703.41,388.152 703.5,385.5 Z"/></g>
<g><path style="opacity:1" fill="#907524" d="M 152.5,413.5 C 151.147,417.032 149.147,420.199 146.5,423C 142.539,424.598 138.539,426.098 134.5,427.5C 132.024,424.717 131.024,421.384 131.5,417.5C 132.18,420.343 134.013,422.01 137,422.5C 143.286,421.44 148.453,418.44 152.5,413.5 Z"/></g>
<g><path style="opacity:1" fill="#907522" d="M 668.5,417.5 C 669.586,417.62 670.253,418.287 670.5,419.5C 671.519,426.451 673.353,433.117 676,439.5C 677.41,455.767 672.91,470.101 662.5,482.5C 657.167,487.167 652.167,492.167 647.5,497.5C 636.091,503.71 624.757,510.21 613.5,517C 594.16,523.003 575.493,530.67 557.5,540C 544.961,543.68 532.627,547.846 520.5,552.5C 486.035,561.537 450.868,566.537 415,567.5C 386.539,565.485 358.039,563.985 329.5,563C 288.926,556.526 250.26,544.192 213.5,526C 205.302,521.072 197.302,515.905 189.5,510.5C 187.431,507.427 184.764,505.094 181.5,503.5C 176.509,498.009 171.342,492.675 166,487.5C 159.26,478.687 154.093,469.02 150.5,458.5C 150.167,455.5 149.833,452.5 149.5,449.5C 149.316,444.893 149.983,440.56 151.5,436.5C 150.912,444.117 152.079,451.45 155,458.5C 159.333,464.167 163.667,469.833 168,475.5C 177.852,485.166 188.352,493.999 199.5,502C 211.215,508.858 223.215,515.191 235.5,521C 264.615,532.816 294.282,542.816 324.5,551C 339.125,553.323 353.791,555.323 368.5,557C 386.015,556.869 403.515,557.036 421,557.5C 428.816,556.784 436.649,556.284 444.5,556C 459.206,553.875 473.872,551.542 488.5,549C 510.28,542.123 532.28,535.789 554.5,530C 582.86,520.157 608.86,506.157 632.5,488C 652.857,468.787 664.857,445.287 668.5,417.5 Z"/></g>
<g><path style="opacity:1" fill="#362d0d" d="M 662.5,482.5 C 658.5,488.5 653.5,493.5 647.5,497.5C 652.167,492.167 657.167,487.167 662.5,482.5 Z"/></g>
<g><path style="opacity:0.922" fill="#7e7d82" d="M 171.5,501.5 C 173.027,501.427 174.027,502.094 174.5,503.5C 172.973,503.573 171.973,502.906 171.5,501.5 Z"/></g>
<g><path style="opacity:1" fill="#443815" d="M 181.5,503.5 C 184.764,505.094 187.431,507.427 189.5,510.5C 186.236,508.906 183.569,506.573 181.5,503.5 Z"/></g>
<g><path style="opacity:1" fill="#907522" d="M 478.5,664.5 C 479.166,667.689 479.833,671.023 480.5,674.5C 491.766,680.708 502.099,679.541 511.5,671C 512.5,670.333 513.5,670.333 514.5,671C 512.476,676.438 510.142,681.772 507.5,687C 510.8,688.879 514.134,688.879 517.5,687C 534.375,674.082 542.875,656.915 543,635.5C 540.566,628.126 536.733,621.626 531.5,616C 520.808,606.822 508.475,601.155 494.5,599C 490.5,598.333 486.5,598.333 482.5,599C 479.515,601.777 478.182,605.277 478.5,609.5C 479.237,614.315 480.57,618.982 482.5,623.5C 479.479,625.423 476.146,626.423 472.5,626.5C 472.923,625.735 473.257,624.902 473.5,624C 469.779,615.709 469.779,607.543 473.5,599.5C 473.167,598.5 472.5,597.833 471.5,597.5C 469.364,598.472 468.197,600.139 468,602.5C 467.021,608.983 467.521,615.316 469.5,621.5C 458.98,625.321 450.48,631.654 444,640.5C 430.726,618.269 417.226,596.269 403.5,574.5C 414.63,572.841 425.963,571.841 437.5,571.5C 461.059,569.586 484.392,566.42 507.5,562C 515.432,567.928 522.765,574.595 529.5,582C 535,586.167 540.5,590.333 546,594.5C 546.333,596.047 545.833,597.38 544.5,598.5C 548.847,601.371 552.014,605.371 554,610.5C 567.078,647.602 556.911,676.435 523.5,697C 501.368,707.015 486.535,700.515 479,677.5C 478.501,673.179 478.334,668.846 478.5,664.5 Z"/></g>
<g><path style="opacity:0.22" fill="#c3c1c8" d="M 338.5,568.5 C 340.424,568.711 340.757,569.377 339.5,570.5C 339.167,569.833 338.833,569.167 338.5,568.5 Z"/></g>
<g><path style="opacity:1" fill="#564117" d="M 347.5,568.5 C 350.5,568.5 353.5,568.5 356.5,568.5C 356.737,569.791 356.404,570.791 355.5,571.5C 353.143,569.902 350.477,568.902 347.5,568.5 Z"/></g>
<g><path style="opacity:1" fill="#bf8c29" d="M 347.5,568.5 C 350.477,568.902 353.143,569.902 355.5,571.5C 353.205,575.186 351.372,579.186 350,583.5C 346.333,597.002 343.5,610.669 341.5,624.5C 340.876,624.917 340.543,625.584 340.5,626.5C 342.307,636.262 343.64,646.096 344.5,656C 344.765,659.378 343.765,662.212 341.5,664.5C 336.277,662.889 331.277,660.723 326.5,658C 319.953,652.954 314.286,647.12 309.5,640.5C 307.682,644.136 305.849,647.802 304,651.5C 296.56,654.165 290.893,651.832 287,644.5C 283.449,623.824 288.782,605.824 303,590.5C 307.998,584.965 313.498,580.298 319.5,576.5C 326.113,576.151 332.113,577.818 337.5,581.5C 337.712,583.384 338.712,584.717 340.5,585.5C 341.487,582.232 341.82,578.898 341.5,575.5C 342.309,573.708 342.809,571.708 343,569.5C 344.356,568.62 345.856,568.286 347.5,568.5 Z"/></g>
<g><path style="opacity:1" fill="#b8a47d" d="M 360.5,674.5 C 365.636,683.259 371.636,691.426 378.5,699C 384.877,703.189 391.544,706.855 398.5,710C 417.349,716.655 424.849,710.155 421,690.5C 413.133,671.664 409.3,651.998 409.5,631.5C 398.985,626.788 387.985,624.121 376.5,623.5C 367.747,622.705 360.081,625.039 353.5,630.5C 351.127,627.469 348.794,624.469 346.5,621.5C 349.487,606.708 352.987,592.041 357,577.5C 357.93,575.064 359.097,572.731 360.5,570.5C 364.795,569.339 369.129,569.172 373.5,570C 381.953,570.635 390.287,571.801 398.5,573.5C 412.833,597.5 427.167,621.5 441.5,645.5C 436.166,659.522 436.333,673.522 442,687.5C 449.259,695.897 458.426,699.063 469.5,697C 472.798,696.513 475.798,695.347 478.5,693.5C 480.786,693.96 482.119,695.293 482.5,697.5C 479.29,719.151 479.957,740.651 484.5,762C 484.167,762.5 483.833,763 483.5,763.5C 454.121,772.925 425.787,770.425 398.5,756C 385.188,748.027 373.021,738.527 362,727.5C 358.333,721.833 354.667,716.167 351,710.5C 348.591,702.618 346.757,694.618 345.5,686.5C 351.447,683.692 356.447,679.692 360.5,674.5 Z"/></g>
<g><path style="opacity:1" fill="#352c0d" d="M 437.5,571.5 C 425.963,571.841 414.63,572.841 403.5,574.5C 402.596,573.791 402.263,572.791 402.5,571.5C 414.167,571.5 425.833,571.5 437.5,571.5 Z"/></g>
<g><path style="opacity:0.8" fill="#8d8c91" d="M 338.5,574.5 C 337.947,576.552 336.947,576.885 335.5,575.5C 336.609,575.443 337.609,575.11 338.5,574.5 Z"/></g>
<g><path style="opacity:1" fill="#6b5121" d="M 341.5,575.5 C 341.82,578.898 341.487,582.232 340.5,585.5C 338.712,584.717 337.712,583.384 337.5,581.5C 338.458,581.953 339.292,582.619 340,583.5C 340.183,580.635 340.683,577.969 341.5,575.5 Z"/></g>
<g><path style="opacity:1" fill="#907522" d="M 319.5,576.5 C 313.498,580.298 307.998,584.965 303,590.5C 288.782,605.824 283.449,623.824 287,644.5C 290.893,651.832 296.56,654.165 304,651.5C 305.849,647.802 307.682,644.136 309.5,640.5C 314.286,647.12 319.953,652.954 326.5,658C 331.277,660.723 336.277,662.889 341.5,664.5C 343.765,662.212 344.765,659.378 344.5,656C 343.64,646.096 342.307,636.262 340.5,626.5C 340.543,625.584 340.876,624.917 341.5,624.5C 343.341,627.86 345.841,630.86 349,633.5C 356.123,645.314 358.79,657.981 357,671.5C 347.68,683.246 336.514,685.412 323.5,678C 320.61,676.062 317.944,673.895 315.5,671.5C 315.325,667.14 315.325,662.806 315.5,658.5C 312.383,663.451 308.383,667.618 303.5,671C 299.152,671.238 294.819,670.905 290.5,670C 278.528,660.766 274.028,648.599 277,633.5C 280.856,610.244 292.356,592.078 311.5,579C 313.909,577.293 316.575,576.46 319.5,576.5 Z"/></g>
<g><path style="opacity:1" fill="#bf8c29" d="M 478.5,664.5 C 477.698,663.115 477.031,663.282 476.5,665C 475.767,666.766 475.433,668.599 475.5,670.5C 473.625,679.348 467.958,684.015 458.5,684.5C 456.423,684.308 454.423,683.808 452.5,683C 448.306,679.402 444.972,675.235 442.5,670.5C 440.508,647.227 450.508,632.56 472.5,626.5C 476.146,626.423 479.479,625.423 482.5,623.5C 480.57,618.982 479.237,614.315 478.5,609.5C 478.182,605.277 479.515,601.777 482.5,599C 486.5,598.333 490.5,598.333 494.5,599C 508.475,601.155 520.808,606.822 531.5,616C 536.733,621.626 540.566,628.126 543,635.5C 542.875,656.915 534.375,674.082 517.5,687C 514.134,688.879 510.8,688.879 507.5,687C 510.142,681.772 512.476,676.438 514.5,671C 513.5,670.333 512.5,670.333 511.5,671C 502.099,679.541 491.766,680.708 480.5,674.5C 479.833,671.023 479.166,667.689 478.5,664.5 Z"/></g>
<g><path style="opacity:1" fill="#bf8c29" d="M 598.5,692.5 C 599.489,721.099 590.489,745.932 571.5,767C 560.734,776.049 548.4,781.882 534.5,784.5C 529.953,784.113 525.619,782.947 521.5,781C 517.383,777.85 513.549,774.35 510,770.5C 503.9,757.822 501.4,744.488 502.5,730.5C 514.579,739.962 527.245,740.796 540.5,733C 549.488,725.157 556.654,715.99 562,705.5C 563.632,700.97 564.632,696.304 565,691.5C 565.482,680.307 566.315,669.14 567.5,658C 567.154,652.313 566.487,646.813 565.5,641.5C 564.929,628.041 561.596,615.374 555.5,603.5C 556.002,602.479 556.668,602.312 557.5,603C 564.067,608.57 569.567,615.07 574,622.5C 585.844,644.531 594.011,667.864 598.5,692.5 Z"/></g>
<g><path style="opacity:1" fill="#d9c897" d="M 360.5,674.5 C 363.081,665.176 362.914,655.842 360,646.5C 358.097,641.032 355.93,635.699 353.5,630.5C 360.081,625.039 367.747,622.705 376.5,623.5C 387.985,624.121 398.985,626.788 409.5,631.5C 409.3,651.998 413.133,671.664 421,690.5C 424.849,710.155 417.349,716.655 398.5,710C 391.544,706.855 384.877,703.189 378.5,699C 371.636,691.426 365.636,683.259 360.5,674.5 Z"/></g>
<g><path style="opacity:1" fill="#907522" d="M 565.5,641.5 C 566.487,646.813 567.154,652.313 567.5,658C 566.315,669.14 565.482,680.307 565,691.5C 564.632,696.304 563.632,700.97 562,705.5C 556.654,715.99 549.488,725.157 540.5,733C 527.245,740.796 514.579,739.962 502.5,730.5C 501.4,744.488 503.9,757.822 510,770.5C 513.549,774.35 517.383,777.85 521.5,781C 525.619,782.947 529.953,784.113 534.5,784.5C 548.4,781.882 560.734,776.049 571.5,767C 590.489,745.932 599.489,721.099 598.5,692.5C 603.516,717.402 599.349,740.735 586,762.5C 585.376,764.464 585.876,766.131 587.5,767.5C 595.429,767.814 602.762,769.98 609.5,774C 615.186,779.876 620.02,786.376 624,793.5C 628.072,798.113 632.905,801.613 638.5,804C 627.231,809.772 615.231,812.105 602.5,811C 601.427,814.112 601.427,817.279 602.5,820.5C 585.114,820.76 567.781,819.927 550.5,818C 517.122,809.622 495.955,788.789 487,755.5C 483.667,736.832 483.667,718.165 487,699.5C 493.328,705.496 500.828,707.663 509.5,706C 520.861,704.32 530.527,699.486 538.5,691.5C 542.771,688.899 546.437,685.566 549.5,681.5C 557.392,669.152 562.725,655.818 565.5,641.5 Z"/></g>
<g><path style="opacity:1" fill="#bf8c28" d="M 787.5,679.5 C 781.178,695.783 772.011,710.45 760,723.5C 754.833,728.667 749.667,733.833 744.5,739C 709.396,759.895 671.729,767.228 631.5,761C 621.58,755.307 618.08,746.807 621,735.5C 625.065,727.249 626.399,718.582 625,709.5C 624.308,708.975 623.808,708.308 623.5,707.5C 624.949,706.828 626.282,706.161 627.5,705.5C 639.063,704.809 650.396,705.976 661.5,709C 692.448,714.426 721.115,708.759 747.5,692C 760.32,681.85 773.153,671.683 786,661.5C 786.945,661.905 787.612,662.572 788,663.5C 788.529,668.854 788.362,674.187 787.5,679.5 Z"/></g>
<g><path style="opacity:0.329" fill="#9d9ba1" d="M 310.5,672.5 C 310.56,671.957 310.893,671.624 311.5,671.5C 312.793,673.636 312.793,675.636 311.5,677.5C 311.784,675.585 311.451,673.919 310.5,672.5 Z"/></g>
<g><path style="opacity:1" fill="#907522" d="M 442.5,670.5 C 444.972,675.235 448.306,679.402 452.5,683C 454.423,683.808 456.423,684.308 458.5,684.5C 467.958,684.015 473.625,679.348 475.5,670.5C 475.435,676.617 475.935,682.617 477,688.5C 472.998,691.925 468.332,693.258 463,692.5C 453.344,693.516 447.01,689.516 444,680.5C 442.957,677.243 442.457,673.91 442.5,670.5 Z"/></g>
<g><path style="opacity:1" fill="#907522" d="M 350.5,718.5 C 349.043,720.242 347.876,722.242 347,724.5C 338.32,720.657 330.654,715.324 324,708.5C 322.417,720.502 325.084,731.502 332,741.5C 338.772,748.117 345.939,754.117 353.5,759.5C 344.097,759.463 336.097,756.13 329.5,749.5C 320.929,741.019 316.095,730.685 315,718.5C 312.858,705.077 313.358,691.743 316.5,678.5C 323.643,684.906 331.976,687.572 341.5,686.5C 342.028,697.955 345.028,708.621 350.5,718.5 Z"/></g>
<g><path style="opacity:1" fill="#423715" d="M 549.5,681.5 C 546.437,685.566 542.771,688.899 538.5,691.5C 541.563,687.434 545.229,684.101 549.5,681.5 Z"/></g>
<g><path style="opacity:1" fill="#917622" d="M 787.5,679.5 C 785.734,698.631 780.234,716.631 771,733.5C 762.16,746.677 750.327,756.177 735.5,762C 720.029,766.784 704.363,770.784 688.5,774C 667.134,774.171 646.134,777.005 625.5,782.5C 624.5,782.333 623.5,782.167 622.5,782C 615.554,771.021 605.554,764.854 592.5,763.5C 601.702,746.357 606.035,728.023 605.5,708.5C 612.937,708.149 620.27,707.149 627.5,705.5C 626.282,706.161 624.949,706.828 623.5,707.5C 623.808,708.308 624.308,708.975 625,709.5C 626.399,718.582 625.065,727.249 621,735.5C 618.08,746.807 621.58,755.307 631.5,761C 671.729,767.228 709.396,759.895 744.5,739C 749.667,733.833 754.833,728.667 760,723.5C 772.011,710.45 781.178,695.783 787.5,679.5 Z"/></g>
<g><path style="opacity:1" fill="#bf8c29" d="M 350.5,718.5 C 353.199,722.19 355.865,725.857 358.5,729.5C 361.5,734.5 365.5,738.5 370.5,741.5C 372.806,743.139 374.806,745.139 376.5,747.5C 379.123,754.311 382.457,760.811 386.5,767C 376.104,767.806 366.437,765.639 357.5,760.5C 356.167,760.167 354.833,759.833 353.5,759.5C 345.939,754.117 338.772,748.117 332,741.5C 325.084,731.502 322.417,720.502 324,708.5C 330.654,715.324 338.32,720.657 347,724.5C 347.876,722.242 349.043,720.242 350.5,718.5 Z"/></g>
<g><path style="opacity:1" fill="#594317" d="M 358.5,729.5 C 362.833,733.167 366.833,737.167 370.5,741.5C 365.5,738.5 361.5,734.5 358.5,729.5 Z"/></g>
<g><path style="opacity:1" fill="#907522" d="M 376.5,747.5 C 386.001,753.478 395.667,759.311 405.5,765C 408.56,765.848 411.56,766.848 414.5,768C 415.554,769.388 415.72,770.888 415,772.5C 407.523,784.636 397.023,793.136 383.5,798C 373.403,800.219 363.236,802.053 353,803.5C 350.102,803.363 347.269,802.863 344.5,802C 346.763,800.383 348.763,798.55 350.5,796.5C 354.167,794.833 356.833,792.167 358.5,788.5C 361.16,785.867 363.827,783.2 366.5,780.5C 366.113,779.28 365.28,778.613 364,778.5C 361.062,779.283 358.896,780.95 357.5,783.5C 356.833,783.5 356.167,783.5 355.5,783.5C 355.351,782.448 355.517,781.448 356,780.5C 356.893,781.711 357.726,781.711 358.5,780.5C 359.5,778.5 360.5,776.5 361.5,774.5C 350.87,771.956 340.536,768.623 330.5,764.5C 331.812,762.521 333.479,760.855 335.5,759.5C 342.062,762.14 348.729,764.474 355.5,766.5C 357,766.547 358,765.881 358.5,764.5C 358.212,763.139 357.879,761.806 357.5,760.5C 366.437,765.639 376.104,767.806 386.5,767C 382.457,760.811 379.123,754.311 376.5,747.5 Z"/></g>
<g><path style="opacity:1" fill="#bf8c29" d="M 330.5,764.5 C 340.536,768.623 350.87,771.956 361.5,774.5C 360.5,776.5 359.5,778.5 358.5,780.5C 357.726,781.711 356.893,781.711 356,780.5C 355.517,781.448 355.351,782.448 355.5,783.5C 352.833,785.167 350.167,786.833 347.5,788.5C 335.721,791.431 324.054,791.097 312.5,787.5C 310.873,785.37 309.04,783.37 307,781.5C 306.506,779.866 306.34,778.199 306.5,776.5C 308.553,776.598 310.22,775.931 311.5,774.5C 318.28,771.944 324.614,768.611 330.5,764.5 Z"/></g>
<g><path style="opacity:1" fill="#6c521f" d="M 311.5,774.5 C 310.22,775.931 308.553,776.598 306.5,776.5C 306.34,778.199 306.506,779.866 307,781.5C 309.04,783.37 310.873,785.37 312.5,787.5C 306.834,785.49 304.5,781.49 305.5,775.5C 307.5,775.167 309.5,774.833 311.5,774.5 Z"/></g>
<g><path style="opacity:1" fill="#be8c28" d="M 578.5,780.5 C 592.956,778.595 605.122,782.928 615,793.5C 615.688,794.332 615.521,794.998 614.5,795.5C 607.334,800.602 599.334,802.935 590.5,802.5C 590.692,805.601 591.358,808.601 592.5,811.5C 587.462,812.33 582.795,811.164 578.5,808C 572.243,803.287 566.076,798.454 560,793.5C 558.148,790.653 558.648,788.153 561.5,786C 567.137,783.682 572.803,781.849 578.5,780.5 Z"/></g>
<g><path style="opacity:1" fill="#543e15" d="M 355.5,783.5 C 356.167,783.5 356.833,783.5 357.5,783.5C 354.753,786.207 351.42,787.873 347.5,788.5C 350.167,786.833 352.833,785.167 355.5,783.5 Z"/></g>
<g><path style="opacity:1" fill="#403513" d="M 358.5,788.5 C 356.833,792.167 354.167,794.833 350.5,796.5C 352.833,793.5 355.5,790.833 358.5,788.5 Z"/></g>
<g><path style="opacity:0.302" fill="#aba9b0" d="M 344.5,796.5 C 344.5,795.833 344.167,795.5 343.5,795.5C 344.943,794.297 346.609,793.797 348.5,794C 347.307,795.095 345.973,795.928 344.5,796.5 Z"/></g>
<g><path style="opacity:0.486" fill="#a9a8ae" d="M 619.5,814.5 C 615.232,814.869 611.232,815.869 607.5,817.5C 606.596,816.791 606.263,815.791 606.5,814.5C 610.833,814.5 615.167,814.5 619.5,814.5 Z"/></g>

        
<g><path style="opacity:0.957" fill="#020202" d="M 492.5,247.5 C 518.036,247.341 536.869,258.341 549,280.5C 553.515,288.881 557.348,297.548 560.5,306.5C 580.242,322.468 585.075,342.135 575,365.5C 572.44,370.116 569.273,374.282 565.5,378C 559.833,378.333 554.167,378.667 548.5,379C 532.92,382.86 517.586,387.527 502.5,393C 487.559,400.719 472.726,408.553 458,416.5C 454.948,415.289 451.781,414.455 448.5,414C 441.357,407.927 433.69,402.594 425.5,398C 420.197,391.208 415.031,384.375 410,377.5C 408.789,383.132 406.789,388.466 404,393.5C 397.729,399.968 390.562,401.135 382.5,397C 378.252,394.757 374.586,391.757 371.5,388C 368.577,386.29 365.577,386.123 362.5,387.5C 357.09,397.358 349.09,400.191 338.5,396C 336.04,394.542 333.873,392.709 332,390.5C 329.522,382.254 327.522,373.921 326,365.5C 320.148,383.041 311.315,398.874 299.5,413C 296.163,415.671 292.496,417.837 288.5,419.5C 285.681,417.718 283.681,415.218 282.5,412C 275.993,407.914 269.66,403.58 263.5,399C 245.723,388.644 226.723,384.977 206.5,388C 204.615,385.061 203.115,381.895 202,378.5C 199.281,359.042 203.615,341.375 215,325.5C 215.811,303.71 224.644,286.21 241.5,273C 247.839,268.496 254.839,265.662 262.5,264.5C 266.961,265.153 271.294,266.32 275.5,268C 295.875,282.044 310.709,300.544 320,323.5C 324.116,333.515 327.616,343.682 330.5,354C 348.492,364.612 367.492,367.279 387.5,362C 391.821,361.501 396.154,361.334 400.5,361.5C 397.258,348.95 396.758,336.284 399,323.5C 401.262,314.712 403.929,306.046 407,297.5C 410.946,291.221 415.279,285.221 420,279.5C 440.443,260.191 464.61,249.524 492.5,247.5 Z"/></g>
<g><path style="opacity:1" fill="#1b1b1b" d="M 491.5,251.5 C 512.865,250.933 529.698,259.266 542,276.5C 546.498,283.995 550.331,291.829 553.5,300C 553.167,300.5 552.833,301 552.5,301.5C 519.409,280.417 485.409,278.917 450.5,297C 445.732,301.769 440.399,305.769 434.5,309C 422.693,321.445 413.526,335.612 407,351.5C 406.393,354.202 406.56,356.868 407.5,359.5C 407.444,360.737 406.944,361.737 406,362.5C 403.451,358.185 402.118,353.519 402,348.5C 400.755,329.153 404.422,310.819 413,293.5C 417.194,288.94 421.028,284.106 424.5,279C 431.007,274.914 437.34,270.58 443.5,266C 458.431,257.108 474.431,252.275 491.5,251.5 Z"/></g>
<g><path style="opacity:1" fill="#1b1b1b" d="M 256.5,269.5 C 263.393,268.655 269.727,270.155 275.5,274C 299.943,292.441 315.443,316.607 322,346.5C 315.942,336.442 309.108,326.942 301.5,318C 298.167,315.333 294.833,312.667 291.5,310C 285.132,308.102 279.132,305.435 273.5,302C 252.722,297.821 234.889,303.321 220,318.5C 221.281,302.771 227.781,289.604 239.5,279C 244.938,275.284 250.605,272.118 256.5,269.5 Z"/></g>
<g><path style="opacity:1" fill="#f5f4e7" d="M 485.5,290.5 C 498.715,289.757 511.715,290.924 524.5,294C 536.342,298.72 547.675,304.387 558.5,311C 574.454,323.985 578.954,340.152 572,359.5C 571.152,361.874 569.819,363.874 568,365.5C 551.898,352.421 534.065,342.255 514.5,335C 496.911,330.718 480.244,333.051 464.5,342C 453.109,351.471 446.609,363.638 445,378.5C 444.667,387.5 444.333,396.5 444,405.5C 426.579,396.662 415.912,382.662 412,363.5C 411.174,358.411 411.508,353.411 413,348.5C 419.809,335.709 427.976,323.876 437.5,313C 443.693,309.738 449.36,305.738 454.5,301C 458.5,299 462.5,297 466.5,295C 473.116,294.187 479.45,292.687 485.5,290.5 Z"/></g>
<g><path style="opacity:1" fill="#f4f3e6" d="M 253.5,305.5 C 259.577,305.196 265.577,305.696 271.5,307C 277.456,310.765 283.789,313.765 290.5,316C 296.662,321.162 302.495,326.662 308,332.5C 312.333,339.833 316.667,347.167 321,354.5C 322.248,362.796 321.248,370.796 318,378.5C 312.651,387.877 306.818,396.877 300.5,405.5C 302.259,378.186 291.259,357.686 267.5,344C 247.309,340.175 230.809,346.341 218,362.5C 213.818,368.199 210.152,374.199 207,380.5C 203.492,363.884 206.159,348.217 215,333.5C 219.456,327.375 224.289,321.542 229.5,316C 237.041,311.217 245.041,307.717 253.5,305.5 Z"/></g>
<g><path style="opacity:1" fill="#1b1b1b" d="M 328.5,359.5 C 328.735,358.903 329.235,358.57 330,358.5C 339.985,363.606 350.485,367.106 361.5,369C 366.5,369.667 371.5,369.667 376.5,369C 384.799,366.081 393.133,365.414 401.5,367C 406.883,376.063 406.217,384.729 399.5,393C 389.58,396.899 381.247,394.566 374.5,386C 370.619,382.357 366.285,381.69 361.5,384C 358.462,386.703 355.795,389.703 353.5,393C 348.411,393.826 343.411,393.492 338.5,392C 336.951,390.786 335.785,389.286 335,387.5C 332.764,379.317 331.43,370.984 331,362.5C 330.623,361.058 329.79,360.058 328.5,359.5 Z"/></g>

        
<g><path style="opacity:0.985" fill="#20201f" d="M 591.5,350.5 C 590.89,349.609 590.557,348.609 590.5,347.5C 598.093,347.538 604.593,350.538 610,356.5C 612.002,361.007 613.502,365.674 614.5,370.5C 614.02,374.293 612.353,377.46 609.5,380C 603.352,383.078 597.019,385.578 590.5,387.5C 584.054,386.936 577.72,385.77 571.5,384C 563.833,383.333 556.167,383.333 548.5,384C 540.284,385.787 532.618,388.62 525.5,392.5C 525.631,391.624 525.298,390.957 524.5,390.5C 523.261,390.942 522.261,391.609 521.5,392.5C 520.791,393.404 519.791,393.737 518.5,393.5C 514.838,393.723 511.505,394.723 508.5,396.5C 505.759,396.707 503.426,397.707 501.5,399.5C 501.158,400.338 500.492,400.672 499.5,400.5C 494.914,401.46 490.914,403.46 487.5,406.5C 487.158,407.338 486.492,407.672 485.5,407.5C 483.973,407.427 482.973,408.094 482.5,409.5C 480.326,409.75 478.659,410.75 477.5,412.5C 476.167,412.5 475.5,413.167 475.5,414.5C 474.878,415.627 474.045,416.627 473,417.5C 471.951,416.483 470.784,416.316 469.5,417C 464.147,419.701 458.814,422.368 453.5,425C 440.182,427.885 426.849,430.552 413.5,433C 407.153,442.527 401.986,452.694 398,463.5C 395.706,464.852 393.206,465.519 390.5,465.5C 382.205,463.808 373.871,462.308 365.5,461C 361.367,455.866 356.867,451.032 352,446.5C 349.027,442.026 345.86,437.693 342.5,433.5C 328.924,432.583 315.59,430.25 302.5,426.5C 299.905,427.237 297.238,427.237 294.5,426.5C 294.953,425.542 295.619,424.708 296.5,424C 295.906,423.536 295.239,423.369 294.5,423.5C 290.703,423.128 287.37,421.794 284.5,419.5C 281.485,417.326 278.151,415.659 274.5,414.5C 273.415,412.413 271.749,411.08 269.5,410.5C 268.508,410.672 267.842,410.338 267.5,409.5C 267.027,408.094 266.027,407.427 264.5,407.5C 263.352,404.913 261.685,403.913 259.5,404.5C 250.198,398.055 239.864,393.722 228.5,391.5C 218.197,392.724 207.863,393.224 197.5,393C 182.151,389.16 173.651,379.326 172,363.5C 171.333,358.833 171.333,354.167 172,349.5C 172.036,347.059 172.869,345.059 174.5,343.5C 175.086,343.709 175.586,344.043 176,344.5C 175.529,355.347 177.529,365.681 182,375.5C 187.543,382.974 195.043,386.974 204.5,387.5C 231.733,383.303 255.733,390.137 276.5,408C 290.297,415.71 304.964,421.044 320.5,424C 344.953,424.754 369.453,425.587 394,426.5C 413.476,426.449 432.642,423.949 451.5,419C 468.5,410 485.5,401 502.5,392C 517.586,386.527 532.92,381.86 548.5,378C 556.5,377.333 564.5,377.333 572.5,378C 579.063,379.986 585.73,380.986 592.5,381C 596.749,378.806 601.082,376.806 605.5,375C 606.872,373.758 607.872,372.258 608.5,370.5C 607.098,366.461 605.598,362.461 604,358.5C 599.684,355.934 595.517,353.267 591.5,350.5 Z"/></g>
<g><path style="opacity:0.231" fill="#9b9b93" d="M 590.5,347.5 C 590.557,348.609 590.89,349.609 591.5,350.5C 589.448,349.947 589.115,348.947 590.5,347.5 Z"/></g>
<g><path style="opacity:0.012" fill="#b3b2a9" d="M 525.5,392.5 C 524.472,392.926 523.139,392.926 521.5,392.5C 522.261,391.609 523.261,390.942 524.5,390.5C 525.298,390.957 525.631,391.624 525.5,392.5 Z"/></g>
<g><path style="opacity:0.149" fill="#d6d5ca" d="M 518.5,393.5 C 515.495,395.277 512.162,396.277 508.5,396.5C 511.505,394.723 514.838,393.723 518.5,393.5 Z"/></g>
<g><path style="opacity:0.196" fill="#d2d1c6" d="M 508.5,396.5 C 506.574,398.293 504.241,399.293 501.5,399.5C 503.426,397.707 505.759,396.707 508.5,396.5 Z"/></g>
<g><path style="opacity:0.294" fill="#a8a79f" d="M 259.5,404.5 C 261.685,403.913 263.352,404.913 264.5,407.5C 262.589,406.925 260.922,405.925 259.5,404.5 Z"/></g>
<g><path style="opacity:0.173" fill="#d8d7cc" d="M 499.5,400.5 C 495.818,403.008 491.818,405.008 487.5,406.5C 490.914,403.46 494.914,401.46 499.5,400.5 Z"/></g>
<g><path style="opacity:0.235" fill="#d1d0c5" d="M 264.5,407.5 C 266.027,407.427 267.027,408.094 267.5,409.5C 265.973,409.573 264.973,408.906 264.5,407.5 Z"/></g>
<g><path style="opacity:0.141" fill="#dfded2" d="M 485.5,407.5 C 485.027,408.906 484.027,409.573 482.5,409.5C 482.973,408.094 483.973,407.427 485.5,407.5 Z"/></g>
<g><path style="opacity:0.067" fill="#d3d2c7" d="M 482.5,409.5 C 481.341,411.25 479.674,412.25 477.5,412.5C 478.659,410.75 480.326,409.75 482.5,409.5 Z"/></g>
<g><path style="opacity:0.012" fill="#d5d4c9" d="M 477.5,412.5 C 477.167,413.5 476.5,414.167 475.5,414.5C 475.5,413.167 476.167,412.5 477.5,412.5 Z"/></g>
<g><path style="opacity:0.322" fill="#b9b8af" d="M 269.5,410.5 C 271.749,411.08 273.415,412.413 274.5,414.5C 272.251,413.92 270.585,412.587 269.5,410.5 Z"/></g>
<g><path style="opacity:0.196" fill="#d0d0c5" d="M 274.5,414.5 C 278.151,415.659 281.485,417.326 284.5,419.5C 280.58,418.873 277.247,417.207 274.5,414.5 Z"/></g>
<g><path style="opacity:0.027" fill="#d9d8cd" d="M 294.5,423.5 C 295.239,423.369 295.906,423.536 296.5,424C 295.619,424.708 294.953,425.542 294.5,426.5C 293.375,425.652 293.375,424.652 294.5,423.5 Z"/></g>
<g><path style="opacity:1" fill="#f1f0e3" d="M 350.5,430.5 C 360.215,430.459 369.882,431.125 379.5,432.5C 389.146,431.411 398.812,431.245 408.5,432C 402.865,440.766 397.865,449.933 393.5,459.5C 392.833,459.833 392.167,460.167 391.5,460.5C 383.983,458.204 376.316,456.704 368.5,456C 361.627,448.795 355.127,441.295 349,433.5C 348.761,432.212 349.261,431.212 350.5,430.5 Z"/></g>

        

<g transform="translate(0.000000,862.000000) scale(0.100000,-0.100000)"
fill="#000000" stroke="none">
</g>

    </svg>
