
    <svg width="862" height="862" viewBox="0 0 862 862" fill="none" xmlns="http://www.w3.org/2000/svg">
        
<g><path style="opacity:1" fill="#f6f6e8" d="M -0.5,-0.5 C 286.833,-0.5 574.167,-0.5 861.5,-0.5C 861.5,286.833 861.5,574.167 861.5,861.5C 574.167,861.5 286.833,861.5 -0.5,861.5C -0.5,574.167 -0.5,286.833 -0.5,-0.5 Z"/></g>

        
<g><path style="opacity:0.983" fill="#1a1a19" d="M 578.5,540.5 C 583.993,540.916 589.326,542.082 594.5,544C 599.237,547.614 603.403,551.781 607,556.5C 613.977,570.057 616.311,584.39 614,599.5C 611.931,603.236 608.931,605.903 605,607.5C 603.018,607.01 601.351,606.01 600,604.5C 594.275,609.717 588.442,609.717 582.5,604.5C 577.923,613.337 572.256,614.337 565.5,607.5C 561.53,612.973 556.196,614.806 549.5,613C 548.299,612.097 547.465,610.931 547,609.5C 541.931,617.452 536.764,617.452 531.5,609.5C 527.737,613.765 523.737,617.932 519.5,622C 516.106,622.752 512.773,622.585 509.5,621.5C 508.194,620.088 507.36,618.421 507,616.5C 505.425,609.568 504.258,602.568 503.5,595.5C 504.335,583.317 510.669,578.317 522.5,580.5C 523.795,579.902 525.128,579.402 526.5,579C 535.197,570.637 543.531,561.97 551.5,553C 559.592,546.617 568.592,542.45 578.5,540.5 Z"/></g>
<g><path style="opacity:1" fill="#d9d8cb" d="M 587.5,601.5 C 588.496,601.586 589.329,601.252 590,600.5C 592.94,596.545 595.94,592.545 599,588.5C 599.37,579.339 598.37,570.339 596,561.5C 591.36,554.156 584.693,549.822 576,548.5C 573.538,549.159 571.038,549.493 568.5,549.5C 581.297,543.74 592.13,546.407 601,557.5C 608.853,570.951 611.186,585.285 608,600.5C 606.604,602.527 604.938,602.86 603,601.5C 602.091,598.089 601.091,594.755 600,591.5C 598.35,595.573 596.516,599.573 594.5,603.5C 591.584,604.861 589.251,604.195 587.5,601.5 Z"/></g>
<g><path style="opacity:1" fill="#f4f3e6" d="M 587.5,601.5 C 585.433,599.682 584.1,597.349 583.5,594.5C 582.635,593.417 581.635,593.251 580.5,594C 579.955,598.074 578.621,601.907 576.5,605.5C 574.878,607.439 573.044,607.772 571,606.5C 568.863,602.486 567.03,598.486 565.5,594.5C 564.522,594.977 563.689,595.643 563,596.5C 563.284,605.334 559.118,609.667 550.5,609.5C 550.348,605.228 549.348,601.228 547.5,597.5C 545.179,600.394 544.012,603.727 544,607.5C 541.618,612.067 538.951,612.4 536,608.5C 535.887,606.026 534.887,604.026 533,602.5C 527.856,607.313 523.023,612.48 518.5,618C 516.098,618.814 513.765,618.647 511.5,617.5C 508.811,609.37 507.645,601.036 508,592.5C 508.668,588.501 510.835,585.668 514.5,584C 518.801,584.363 523.134,584.363 527.5,584C 529.167,583 530.833,582 532.5,581C 540.864,572.97 548.864,564.637 556.5,556C 560.367,553.567 564.367,551.4 568.5,549.5C 571.038,549.493 573.538,549.159 576,548.5C 584.693,549.822 591.36,554.156 596,561.5C 598.37,570.339 599.37,579.339 599,588.5C 595.94,592.545 592.94,596.545 590,600.5C 589.329,601.252 588.496,601.586 587.5,601.5 Z"/></g>
<g><path style="opacity:0.982" fill="#191918" d="M 290.5,554.5 C 298.253,554.104 305.92,554.604 313.5,556C 315.5,557.333 317.5,558.667 319.5,560C 322.228,566.042 326.895,569.709 333.5,571C 335.378,572.543 336.878,574.376 338,576.5C 338.242,583.196 338.742,589.862 339.5,596.5C 339.461,598.587 338.461,599.921 336.5,600.5C 332.274,599.93 328.108,599.263 324,598.5C 322.5,600 321,601.5 319.5,603C 317.287,603.626 315.12,603.459 313,602.5C 306.564,605.689 301.23,604.356 297,598.5C 284.481,607.161 276.648,603.994 273.5,589C 271.944,573.778 277.611,562.278 290.5,554.5 Z"/></g>
<g><path style="opacity:1" fill="#f4f3e6" d="M 334.5,587.5 C 334.5,590.167 334.5,592.833 334.5,595.5C 333.167,595.5 331.833,595.5 330.5,595.5C 327.482,595.335 324.482,595.502 321.5,596C 320.022,598.039 318.022,598.872 315.5,598.5C 315.5,597.5 315.5,596.5 315.5,595.5C 312.326,596.015 309.326,597.015 306.5,598.5C 305.5,598.333 304.5,598.167 303.5,598C 301.441,595.366 299.275,592.866 297,590.5C 296.292,591.381 295.458,592.047 294.5,592.5C 290.404,593.285 287.07,592.118 284.5,589C 284.833,588.667 285.167,588.333 285.5,588C 283.667,587.5 282.5,586.333 282,584.5C 281.501,580.179 281.334,575.846 281.5,571.5C 281.709,570.078 282.209,568.745 283,567.5C 286.167,565 289.333,562.5 292.5,560C 298.167,559.333 303.833,559.333 309.5,560C 314.42,562.916 318.753,566.582 322.5,571C 326.232,572.461 329.732,574.294 333,576.5C 333.936,580.114 334.436,583.78 334.5,587.5 Z"/></g>
<g><path style="opacity:1" fill="#d7d6c9" d="M 281.5,571.5 C 281.334,575.846 281.501,580.179 282,584.5C 282.5,586.333 283.667,587.5 285.5,588C 285.167,588.333 284.833,588.667 284.5,589C 287.07,592.118 290.404,593.285 294.5,592.5C 293.641,595.452 291.641,597.285 288.5,598C 285.364,599.041 282.864,598.207 281,595.5C 279.409,588.608 279.076,581.608 280,574.5C 280.232,573.263 280.732,572.263 281.5,571.5 Z"/></g>
<g><path style="opacity:1" fill="#64635e" d="M 334.5,587.5 C 335.477,590.287 335.81,593.287 335.5,596.5C 333.585,596.784 331.919,596.451 330.5,595.5C 331.833,595.5 333.167,595.5 334.5,595.5C 334.5,592.833 334.5,590.167 334.5,587.5 Z"/></g>

        
<g><path style="opacity:0.997" fill="#1a1a19" d="M 748.5,123.5 C 748.427,125.027 749.094,126.027 750.5,126.5C 754.888,130.929 758.554,135.929 761.5,141.5C 761.427,143.027 762.094,144.027 763.5,144.5C 771.202,155.904 777.369,168.238 782,181.5C 783.837,189.172 785.671,196.838 787.5,204.5C 787.255,206.663 786.255,208.33 784.5,209.5C 759.247,199.852 733.247,192.685 706.5,188C 674.881,182.925 645.214,188.259 617.5,204C 595.206,220.746 581.706,242.913 577,270.5C 573.386,276.063 568.219,279.23 561.5,280C 525.506,284.421 493.173,275.921 464.5,254.5C 464.027,253.094 463.027,252.427 461.5,252.5C 454.873,249.017 449.207,244.35 444.5,238.5C 444.027,237.094 443.027,236.427 441.5,236.5C 436.771,231.89 434.437,226.39 434.5,220C 450.395,214.692 466.395,209.692 482.5,205C 509.102,196.298 530.268,180.464 546,157.5C 552.792,144.588 553.125,131.588 547,118.5C 546.505,116.527 546.338,114.527 546.5,112.5C 561.245,102.694 577.579,97.0274 595.5,95.5C 598.853,95.6547 599.186,94.9881 596.5,93.5C 560.478,62.1512 519.478,39.6512 473.5,26C 473.57,25.2352 473.903,24.7352 474.5,24.5C 476.483,24.8432 477.817,24.1765 478.5,22.5C 511.798,16.0827 544.798,17.5827 577.5,27C 609.101,35.4222 639.767,46.4222 669.5,60C 698.333,77.994 724.667,99.1607 748.5,123.5 Z"/></g>
<g><path style="opacity:0.569" fill="#8b8b83" d="M 478.5,22.5 C 477.817,24.1765 476.483,24.8432 474.5,24.5C 475.671,23.6554 477.005,22.9887 478.5,22.5 Z"/></g>
<g><path style="opacity:1" fill="#c4c3b5" d="M 536.5,178.5 C 531.897,189.503 524.564,198.336 514.5,205C 508.234,206.92 501.9,208.587 495.5,210C 486.576,214.015 483.076,220.848 485,230.5C 488.03,237.109 493.197,240.942 500.5,242C 514.511,243.129 528.345,245.296 542,248.5C 547.325,248.614 551.992,246.948 556,243.5C 560.396,230.657 565.396,217.99 571,205.5C 578.937,192.804 584.771,179.304 588.5,165C 587.447,154.689 581.614,149.522 571,149.5C 568.37,149.464 565.87,149.964 563.5,151C 559.167,154 555.5,157.667 552.5,162C 551.552,162.483 550.552,162.649 549.5,162.5C 556.051,152.158 558.551,140.825 557,128.5C 555.753,123.792 554.753,119.126 554,114.5C 568.372,106.266 583.872,101.433 600.5,100C 603.379,98.3342 604.212,95.8342 603,92.5C 598.833,88.3333 594.667,84.1667 590.5,80C 568.411,63.283 544.744,48.9496 519.5,37C 508.786,33.2622 498.119,29.4289 487.5,25.5C 507.53,22.6677 527.53,22.8344 547.5,26C 578.944,32.3703 609.61,41.3703 639.5,53C 660.688,60.9222 680.022,71.9222 697.5,86C 710.833,97.3333 724.167,108.667 737.5,120C 759.107,143.315 773.44,170.482 780.5,201.5C 763.076,195.638 745.409,190.471 727.5,186C 699.795,180.174 672.128,180.174 644.5,186C 603.465,199.407 579.465,227.407 572.5,270C 568.05,272.261 563.383,273.928 558.5,275C 532.784,277.281 508.45,272.614 485.5,261C 470.334,252.665 456.5,242.498 444,230.5C 442.36,228.421 441.194,226.088 440.5,223.5C 454.489,219.336 468.489,215.169 482.5,211C 502.992,203.937 520.992,193.104 536.5,178.5 Z"/></g>
<g><path style="opacity:0.997" fill="#1a1a19" d="M 110.5,109.5 C 117.11,104.559 123.11,98.8922 128.5,92.5C 136.353,85.1529 144.687,78.3196 153.5,72C 170.937,64.1151 187.937,55.4484 204.5,46C 222.928,39.3172 241.928,35.3172 261.5,34C 268.833,33.3333 276.167,33.3333 283.5,34C 284.406,35.6995 284.739,37.5328 284.5,39.5C 282.473,39.3379 280.473,39.5045 278.5,40C 251.079,56.5854 230.079,79.0854 215.5,107.5C 223.11,109.983 230.443,113.149 237.5,117C 239.543,119.009 241.543,121.009 243.5,123C 243.578,128.964 243.411,135.131 243,141.5C 242.488,146.038 240.988,150.204 238.5,154C 248.461,168.641 257.628,183.808 266,199.5C 276.165,211.143 285.665,223.143 294.5,235.5C 285.24,264.602 266.573,285.435 238.5,298C 232.801,299.002 227.301,300.502 222,302.5C 219.446,302.42 217.946,301.086 217.5,298.5C 226.852,273.567 224.685,249.567 211,226.5C 195.302,204.14 174.468,188.64 148.5,180C 123.327,176.617 100.993,182.95 81.5,199C 79.8876,199.72 78.3876,199.554 77,198.5C 77.0751,189.833 77.7417,181.166 79,172.5C 83.4608,161.784 87.1275,150.784 90,139.5C 95.9148,128.773 102.748,118.773 110.5,109.5 Z"/></g>
<g><path style="opacity:1" fill="#c3c4b6" d="M 251.5,187.5 C 248.843,184.736 246.51,181.569 244.5,178C 238.307,179.346 231.974,179.679 225.5,179C 222.615,174.872 219.281,171.206 215.5,168C 210.704,168.1 207.538,170.6 206,175.5C 205.333,180.167 205.333,184.833 206,189.5C 211.333,200.833 216.667,212.167 222,223.5C 223.929,230.409 225.429,237.409 226.5,244.5C 220.991,227.34 211.324,212.84 197.5,201C 183.921,187.873 167.921,178.873 149.5,174C 124.712,170.655 102.379,176.488 82.5,191.5C 81.3504,185.405 81.8504,179.405 84,173.5C 88.2623,163.047 91.929,152.38 95,141.5C 99.5031,135.165 103.503,128.498 107,121.5C 120.983,104.845 136.816,90.3446 154.5,78C 171.833,69 189.167,60 206.5,51C 226.327,44.3591 246.66,40.6925 267.5,40C 246.884,55.2833 229.717,73.7833 216,95.5C 213.398,99.4738 211.898,103.807 211.5,108.5C 209.335,108.116 207.668,108.783 206.5,110.5C 216.131,112.79 225.465,116.623 234.5,122C 236,123.5 237.5,125 239,126.5C 239.988,134.893 238.655,142.893 235,150.5C 233.842,150.998 233.009,151.831 232.5,153C 238.724,164.619 245.057,176.119 251.5,187.5 Z"/></g>
<g><path style="opacity:1" fill="#f6f5e8" d="M 560.5,42.5 C 583.651,48.2482 606.318,55.4148 628.5,64C 634.589,64.9183 640.589,66.2516 646.5,68C 661.552,74.0257 675.886,81.3591 689.5,90C 699.602,98.0988 709.102,106.932 718,116.5C 726.65,128.146 735.65,139.479 745,150.5C 750.752,160.242 753.919,170.575 754.5,181.5C 748.773,183.118 743.44,182.284 738.5,179C 729.654,177.764 720.988,175.764 712.5,173C 687.12,169.476 661.787,169.809 636.5,174C 633.107,174.798 629.774,175.798 626.5,177C 618.198,179.537 612.032,177.037 608,169.5C 605.15,150.949 599.483,133.283 591,116.5C 589.835,112.316 591.335,109.483 595.5,108C 611.122,105.859 625.788,100.859 639.5,93C 626.858,83.0095 613.524,74.0095 599.5,66C 587.065,59.4487 574.399,53.4487 561.5,48C 559.365,46.4443 559.032,44.6109 560.5,42.5 Z"/></g>
<g><path style="opacity:1" fill="#f6f5e8" d="M 220.5,54.5 C 222.5,54.5 224.5,54.5 226.5,54.5C 226.657,55.8734 226.49,57.2068 226,58.5C 214.222,73.613 203.222,89.2797 193,105.5C 191.042,110.329 189.876,115.329 189.5,120.5C 201.163,117.585 210.996,120.585 219,129.5C 219.765,136.552 218.431,143.219 215,149.5C 210.29,156.421 205.456,163.254 200.5,170C 197.5,170.667 194.5,170.667 191.5,170C 168.682,160.927 145.015,157.927 120.5,161C 113.261,161.016 106.261,162.183 99.5,164.5C 101.45,147.268 108.283,132.268 120,119.5C 134.146,105.361 149.313,92.5273 165.5,81C 178.522,75.9891 190.855,69.6557 202.5,62C 208.966,60.3526 214.966,57.8526 220.5,54.5 Z"/></g>
<g><path style="opacity:0.282" fill="#b2b1a8" d="M 596.5,93.5 C 599.186,94.9881 598.853,95.6547 595.5,95.5C 595.833,94.8333 596.167,94.1667 596.5,93.5 Z"/></g>
<g><path style="opacity:0.749" fill="#6a6a64" d="M 128.5,92.5 C 123.11,98.8922 117.11,104.559 110.5,109.5C 115.89,103.108 121.89,97.4412 128.5,92.5 Z"/></g>
<g><path style="opacity:0.733" fill="#82817a" d="M 748.5,123.5 C 749.906,123.973 750.573,124.973 750.5,126.5C 749.094,126.027 748.427,125.027 748.5,123.5 Z"/></g>
<g><path style="opacity:0.522" fill="#82827b" d="M 761.5,141.5 C 762.906,141.973 763.573,142.973 763.5,144.5C 762.094,144.027 761.427,143.027 761.5,141.5 Z"/></g>
<g><path style="opacity:1" fill="#f6f5e8" d="M 536.5,178.5 C 540.823,173.206 545.156,167.873 549.5,162.5C 550.552,162.649 551.552,162.483 552.5,162C 555.5,157.667 559.167,154 563.5,151C 565.87,149.964 568.37,149.464 571,149.5C 581.614,149.522 587.447,154.689 588.5,165C 584.771,179.304 578.937,192.804 571,205.5C 565.396,217.99 560.396,230.657 556,243.5C 551.992,246.948 547.325,248.614 542,248.5C 528.345,245.296 514.511,243.129 500.5,242C 493.197,240.942 488.03,237.109 485,230.5C 483.076,220.848 486.576,214.015 495.5,210C 501.9,208.587 508.234,206.92 514.5,205C 524.564,198.336 531.897,189.503 536.5,178.5 Z"/></g>
<g><path style="opacity:1" fill="#f6f5e8" d="M 251.5,187.5 C 254.258,190.678 256.258,194.345 257.5,198.5C 260.854,208.402 264.687,218.069 269,227.5C 269.851,232.255 270.518,236.922 271,241.5C 264.045,250.79 256.712,259.79 249,268.5C 245.1,273.098 240.433,276.431 235,278.5C 233.674,278.245 232.674,277.578 232,276.5C 231.181,268.847 230.514,261.18 230,253.5C 229.292,252.619 228.458,251.953 227.5,251.5C 226.781,249.236 226.448,246.903 226.5,244.5C 225.429,237.409 223.929,230.409 222,223.5C 216.667,212.167 211.333,200.833 206,189.5C 205.333,184.833 205.333,180.167 206,175.5C 207.538,170.6 210.704,168.1 215.5,168C 219.281,171.206 222.615,174.872 225.5,179C 231.974,179.679 238.307,179.346 244.5,178C 246.51,181.569 248.843,184.736 251.5,187.5 Z"/></g>
<g><path style="opacity:1" fill="#c2c4b6" d="M 257.5,198.5 C 267.469,210.646 277.303,222.979 287,235.5C 287.328,241.196 285.994,246.529 283,251.5C 271.965,269.203 257.131,282.703 238.5,292C 234.695,293.38 230.862,294.547 227,295.5C 228.314,286.152 229.148,276.652 229.5,267C 229.554,261.718 228.887,256.552 227.5,251.5C 228.458,251.953 229.292,252.619 230,253.5C 230.514,261.18 231.181,268.847 232,276.5C 232.674,277.578 233.674,278.245 235,278.5C 240.433,276.431 245.1,273.098 249,268.5C 256.712,259.79 264.045,250.79 271,241.5C 270.518,236.922 269.851,232.255 269,227.5C 264.687,218.069 260.854,208.402 257.5,198.5 Z"/></g>
<g><path style="opacity:0.686" fill="#898881" d="M 441.5,236.5 C 443.027,236.427 444.027,237.094 444.5,238.5C 442.973,238.573 441.973,237.906 441.5,236.5 Z"/></g>
<g><path style="opacity:0.506" fill="#85857e" d="M 461.5,252.5 C 463.027,252.427 464.027,253.094 464.5,254.5C 462.973,254.573 461.973,253.906 461.5,252.5 Z"/></g>

        
<g><path style="opacity:0.994" fill="#1c1f20" d="M 703.5,385.5 C 703.41,388.152 704.076,390.485 705.5,392.5C 706.37,394.032 706.036,395.532 704.5,397C 701.814,398.368 699.147,399.701 696.5,401C 687.337,403.06 678.337,403.893 669.5,403.5C 671.81,407.254 673.643,411.254 675,415.5C 676.619,423.927 678.619,432.26 681,440.5C 682.454,454.02 679.787,466.687 673,478.5C 663.749,491.086 652.582,501.586 639.5,510C 630.893,513.302 622.893,517.635 615.5,523C 597.029,529.157 579.029,536.491 561.5,545C 545.683,550.606 529.683,555.606 513.5,560C 527.668,574.176 543.001,586.843 559.5,598C 576.758,613.656 588.591,632.823 595,655.5C 600.246,671.481 603.746,687.814 605.5,704.5C 615.856,702.179 626.356,700.846 637,700.5C 653.9,703.09 670.9,704.757 688,705.5C 707.617,704.722 725.784,699.222 742.5,689C 757.923,678.567 772.423,667.067 786,654.5C 787.653,654.82 788.653,655.82 789,657.5C 790.41,661.976 791.577,666.476 792.5,671C 792.058,695.003 785.891,717.503 774,738.5C 761.43,755.698 744.596,766.531 723.5,771C 714.162,773.335 704.828,775.668 695.5,778C 672.316,777.979 649.649,781.312 627.5,788C 631.324,793.922 636.657,797.922 643.5,800C 646.319,802.72 645.986,805.053 642.5,807C 635.644,812.007 627.978,814.507 619.5,814.5C 615.167,814.5 610.833,814.5 606.5,814.5C 606.263,815.791 606.596,816.791 607.5,817.5C 609.143,819.708 608.81,821.541 606.5,823C 599.093,824.492 591.593,825.325 584,825.5C 570.833,824.357 557.666,823.19 544.5,822C 528.753,817.882 515.253,810.049 504,798.5C 495.911,789.336 489.577,779.003 485,767.5C 473.056,772.575 460.556,774.908 447.5,774.5C 441.513,773.858 435.513,773.358 429.5,773C 427,772.625 424.667,771.792 422.5,770.5C 418.78,774.733 415.613,779.4 413,784.5C 396.732,800.487 377.065,808.487 354,808.5C 349.103,808.068 344.269,807.234 339.5,806C 337.709,805.585 336.376,804.585 335.5,803C 338.138,800.346 341.138,798.18 344.5,796.5C 345.973,795.928 347.307,795.095 348.5,794C 346.609,793.797 344.943,794.297 343.5,795.5C 334.515,796.911 325.515,796.744 316.5,795C 304.562,791.925 299.562,784.425 301.5,772.5C 312.272,769.781 321.939,764.947 330.5,758C 319.87,750.041 313.37,739.541 311,726.5C 307.602,710.123 307.769,693.789 311.5,677.5C 312.793,675.636 312.793,673.636 311.5,671.5C 310.893,671.624 310.56,671.957 310.5,672.5C 309.013,673.804 307.346,674.97 305.5,676C 298.059,677.01 291.059,675.843 284.5,672.5C 275.52,664.574 271.187,654.574 271.5,642.5C 272.908,618.525 282.242,598.358 299.5,582C 310.392,573.408 322.392,571.241 335.5,575.5C 336.947,576.885 337.947,576.552 338.5,574.5C 338.433,573.041 338.766,571.708 339.5,570.5C 340.757,569.377 340.424,568.711 338.5,568.5C 315.681,566.503 293.348,562.003 271.5,555C 242.136,546.981 214.802,534.648 189.5,518C 175.252,507.086 163.085,494.253 153,479.5C 143.563,463.572 140.896,446.572 145,428.5C 139.772,431.396 134.272,432.062 128.5,430.5C 127.063,426.472 126.397,422.305 126.5,418C 128.512,388.142 139.012,361.642 158,338.5C 167.466,327.852 178.966,320.352 192.5,316C 198.537,315.303 204.537,315.47 210.5,316.5C 211.252,310.492 213.086,304.826 216,299.5C 222.667,288.833 229.333,278.167 236,267.5C 246.355,255.578 258.188,245.412 271.5,237C 349.867,210.135 429.201,206.801 509.5,227C 517.288,230.394 524.955,234.061 532.5,238C 541.167,244.671 550.501,250.338 560.5,255C 565.667,261.5 570.833,268 576,274.5C 579.431,281.886 582.098,289.553 584,297.5C 600.968,293.905 616.801,296.738 631.5,306C 657.957,323.456 680.123,345.29 698,371.5C 700.529,375.926 702.362,380.592 703.5,385.5 Z"/></g>
<g><path style="opacity:1" fill="#fefefe" d="M 689.5,369.5 C 691.394,388.441 683.061,395.941 664.5,392C 659.57,389.912 654.57,388.246 649.5,387C 651.982,389.553 654.315,392.053 656.5,394.5C 656.491,396.308 656.991,397.975 658,399.5C 663.267,403.266 666.767,408.266 668.5,414.5C 666.094,444.812 653.427,469.979 630.5,490C 609.172,505.502 586.172,518.168 561.5,528C 537.744,534.712 514.077,541.712 490.5,549C 467.909,553.643 445.076,556.476 422,557.5C 403.845,556.985 385.678,556.818 367.5,557C 353.151,555.163 338.817,553.163 324.5,551C 281.912,540.25 241.245,524.583 202.5,504C 184.13,492.633 168.63,478.133 156,460.5C 152.008,453.009 150.508,445.009 151.5,436.5C 153.986,428.609 154.986,420.609 154.5,412.5C 152.056,416.118 149.39,419.618 146.5,423C 142.683,424.995 138.683,426.495 134.5,427.5C 133.201,426.91 132.368,425.91 132,424.5C 131.833,422.5 131.667,420.5 131.5,418.5C 132.829,409.519 133.995,400.519 135,391.5C 141.619,374.254 150.285,358.254 161,343.5C 170.072,333.387 180.905,325.887 193.5,321C 200.189,320.622 206.856,320.622 213.5,321C 224.905,285.517 246.572,258.184 278.5,239C 326.787,224.631 376.12,217.964 426.5,219C 447.799,221.481 469.132,224.481 490.5,228C 501.708,230.134 512.375,233.801 522.5,239C 534.166,246.835 546.166,254.169 558.5,261C 569.707,272.248 576.541,285.748 579,301.5C 581.376,308.587 585.043,314.92 590,320.5C 588.297,314.55 586.463,308.55 584.5,302.5C 599.35,299.458 613.35,301.625 626.5,309C 651.248,325.248 672.248,345.414 689.5,369.5 Z"/></g>
<g><path style="opacity:1" fill="#0a0d0e" d="M 618.5,337.5 C 634.542,353.376 653.208,365.543 674.5,374C 676.954,375.74 678.454,377.907 679,380.5C 677.612,381.554 676.112,381.72 674.5,381C 654.654,371.331 636.821,358.831 621,343.5C 619.441,341.783 618.608,339.783 618.5,337.5 Z"/></g>
<g><path style="opacity:1" fill="#dcebf2" d="M 689.5,369.5 C 695.393,376.932 698.726,385.265 699.5,394.5C 685.507,400.14 671.674,399.807 658,393.5C 657.235,393.57 656.735,393.903 656.5,394.5C 654.315,392.053 651.982,389.553 649.5,387C 654.57,388.246 659.57,389.912 664.5,392C 683.061,395.941 691.394,388.441 689.5,369.5 Z"/></g>
<g><path style="opacity:1" fill="#070a0b" d="M 147.5,382.5 C 148.947,383.134 149.613,384.301 149.5,386C 148.047,393.453 146.881,400.953 146,408.5C 144.374,411.128 142.374,413.461 140,415.5C 141.412,404.277 143.912,393.277 147.5,382.5 Z"/></g>
<g><path style="opacity:0.686" fill="#686862" d="M 703.5,385.5 C 704.924,387.515 705.59,389.848 705.5,392.5C 704.076,390.485 703.41,388.152 703.5,385.5 Z"/></g>
<g><path style="opacity:1" fill="#dcecf3" d="M 668.5,414.5 C 671.657,425.264 674.324,436.264 676.5,447.5C 675.399,460.687 670.732,472.354 662.5,482.5C 657.167,487.167 652.167,492.167 647.5,497.5C 636.091,503.71 624.757,510.21 613.5,517C 594.28,523.296 575.614,530.963 557.5,540C 520.924,553.415 483.257,562.081 444.5,566C 434.682,566.81 424.849,567.31 415,567.5C 386.526,565.51 358.026,564.01 329.5,563C 288.931,556.527 250.265,544.193 213.5,526C 189.805,512.97 170.639,495.137 156,472.5C 149.589,460.938 148.089,448.938 151.5,436.5C 150.508,445.009 152.008,453.009 156,460.5C 168.63,478.133 184.13,492.633 202.5,504C 241.245,524.583 281.912,540.25 324.5,551C 338.817,553.163 353.151,555.163 367.5,557C 385.678,556.818 403.845,556.985 422,557.5C 445.076,556.476 467.909,553.643 490.5,549C 514.077,541.712 537.744,534.712 561.5,528C 586.172,518.168 609.172,505.502 630.5,490C 653.427,469.979 666.094,444.812 668.5,414.5 Z"/></g>
<g><path style="opacity:1" fill="#284c5d" d="M 662.5,482.5 C 658.5,488.5 653.5,493.5 647.5,497.5C 652.167,492.167 657.167,487.167 662.5,482.5 Z"/></g>
<g><path style="opacity:1" fill="#dcecf3" d="M 478.5,672.5 C 479.316,674.144 480.65,675.31 482.5,676C 493.934,680.724 504.101,678.891 513,670.5C 512.484,676.348 510.651,681.848 507.5,687C 510.833,689 514.167,689 517.5,687C 527.596,680.224 534.763,671.058 539,659.5C 547.187,642.518 544.353,627.685 530.5,615C 520.216,606.692 508.55,601.359 495.5,599C 490.581,598.198 485.748,598.365 481,599.5C 479.209,602.784 478.042,606.284 477.5,610C 478.872,614.616 480.538,619.116 482.5,623.5C 479.358,625.119 476.024,626.119 472.5,626.5C 473.018,625.423 473.352,624.256 473.5,623C 469.778,615.111 469.778,607.278 473.5,599.5C 473.167,598.5 472.5,597.833 471.5,597.5C 469.364,598.472 468.197,600.139 468,602.5C 467.081,608.966 467.581,615.299 469.5,621.5C 459.019,625.309 450.519,631.642 444,640.5C 430.726,618.269 417.226,596.269 403.5,574.5C 414.63,572.841 425.963,571.841 437.5,571.5C 461.059,569.586 484.392,566.42 507.5,562C 519.747,573.585 532.58,584.418 546,594.5C 546.333,596.047 545.833,597.38 544.5,598.5C 548.847,601.371 552.014,605.371 554,610.5C 566.396,641.748 559.896,668.248 534.5,690C 524.347,698.455 512.68,702.122 499.5,701C 486.796,695.778 479.796,686.278 478.5,672.5 Z"/></g>
<g><path style="opacity:0.118" fill="#cacabf" d="M 338.5,568.5 C 340.424,568.711 340.757,569.377 339.5,570.5C 339.167,569.833 338.833,569.167 338.5,568.5 Z"/></g>
<g><path style="opacity:1" fill="#fefefe" d="M 350.5,568.5 C 352.531,568.972 354.198,569.972 355.5,571.5C 348.201,589.029 343.534,607.362 341.5,626.5C 340.957,626.56 340.624,626.893 340.5,627.5C 343.402,639.705 344.402,652.038 343.5,664.5C 337.267,663.811 331.6,661.644 326.5,658C 319.953,652.954 314.286,647.12 309.5,640.5C 307.682,644.136 305.849,647.802 304,651.5C 302.562,652.718 300.895,653.385 299,653.5C 292.8,651.961 288.466,648.294 286,642.5C 283.921,626.075 287.588,611.075 297,597.5C 303.005,590.663 309.171,583.996 315.5,577.5C 324.715,575.295 332.881,577.295 340,583.5C 341.277,578.507 342.444,573.507 343.5,568.5C 345.833,568.5 348.167,568.5 350.5,568.5 Z"/></g>
<g><path style="opacity:1" fill="#56838f" d="M 350.5,568.5 C 352.5,568.5 354.5,568.5 356.5,568.5C 356.737,569.791 356.404,570.791 355.5,571.5C 354.198,569.972 352.531,568.972 350.5,568.5 Z"/></g>
<g><path style="opacity:1" fill="#dce8e1" d="M 384.5,747.5 C 383.415,745.413 381.749,744.08 379.5,743.5C 376.846,741.591 374.18,739.591 371.5,737.5C 368.833,734.167 365.833,731.167 362.5,728.5C 358.89,722.384 355.057,716.384 351,710.5C 348.215,702.028 346.382,693.361 345.5,684.5C 349.437,684.198 352.437,682.365 354.5,679C 358.134,678.204 360.134,676.037 360.5,672.5C 369.744,695.227 386.577,708.561 411,712.5C 415.943,712.369 419.276,710.036 421,705.5C 421.667,700.5 421.667,695.5 421,690.5C 416.96,682.666 414.293,674.333 413,665.5C 411.296,653.98 409.796,642.48 408.5,631C 398.182,626.92 387.515,624.42 376.5,623.5C 369.904,623.232 363.571,624.399 357.5,627C 355.536,628.451 354.203,630.284 353.5,632.5C 350.992,629.035 348.658,625.369 346.5,621.5C 349.238,604.046 353.572,587.046 359.5,570.5C 362,570.167 364.5,569.833 367,569.5C 377.457,570.851 387.957,571.518 398.5,571.5C 401.759,576.356 404.259,581.69 406,587.5C 410.554,595.574 415.888,603.24 422,610.5C 424.51,617.239 428.176,623.239 433,628.5C 435.591,634.266 438.424,639.933 441.5,645.5C 436.062,659.608 436.395,673.608 442.5,687.5C 445.024,689.19 447.024,691.357 448.5,694C 458.616,698.787 468.616,698.62 478.5,693.5C 479.748,694.04 480.915,694.707 482,695.5C 480.68,711.111 480.346,726.777 481,742.5C 481.574,749.111 482.741,755.611 484.5,762C 484.095,762.945 483.428,763.612 482.5,764C 456.041,771.965 430.041,770.632 404.5,760C 398.167,755.14 391.5,750.973 384.5,747.5 Z"/></g>
<g><path style="opacity:1" fill="#214657" d="M 437.5,571.5 C 425.963,571.841 414.63,572.841 403.5,574.5C 402.596,573.791 402.263,572.791 402.5,571.5C 414.167,571.5 425.833,571.5 437.5,571.5 Z"/></g>
<g><path style="opacity:0.553" fill="#93928a" d="M 338.5,574.5 C 337.947,576.552 336.947,576.885 335.5,575.5C 336.609,575.443 337.609,575.11 338.5,574.5 Z"/></g>
<g><path style="opacity:1" fill="#dbebf3" d="M 315.5,577.5 C 309.171,583.996 303.005,590.663 297,597.5C 287.588,611.075 283.921,626.075 286,642.5C 288.466,648.294 292.8,651.961 299,653.5C 300.895,653.385 302.562,652.718 304,651.5C 305.849,647.802 307.682,644.136 309.5,640.5C 314.286,647.12 319.953,652.954 326.5,658C 331.6,661.644 337.267,663.811 343.5,664.5C 344.402,652.038 343.402,639.705 340.5,627.5C 340.624,626.893 340.957,626.56 341.5,626.5C 351.199,635.23 356.699,646.23 358,659.5C 359.809,668.085 356.976,674.585 349.5,679C 336.467,684.992 325.3,682.492 316,671.5C 315.5,670 315,668.5 314.5,667C 316.52,664.379 316.853,661.545 315.5,658.5C 312.756,662.751 309.422,666.585 305.5,670C 299.786,671.57 294.12,671.237 288.5,669C 276.97,657.72 273.47,644.22 278,628.5C 282.014,612.17 289.847,598.003 301.5,586C 305.807,582.517 310.473,579.683 315.5,577.5 Z"/></g>
<g><path style="opacity:1" fill="#fefefe" d="M 478.5,672.5 C 478.042,660.675 477.042,660.675 475.5,672.5C 472.509,680.273 466.676,684.273 458,684.5C 455.105,684.468 452.605,683.468 450.5,681.5C 447.814,678.097 445.147,674.764 442.5,671.5C 441.705,666.851 441.539,662.184 442,657.5C 443.242,651.51 445.242,645.844 448,640.5C 451.167,638.667 453.667,636.167 455.5,633C 460.98,630.059 466.647,627.892 472.5,626.5C 476.024,626.119 479.358,625.119 482.5,623.5C 480.538,619.116 478.872,614.616 477.5,610C 478.042,606.284 479.209,602.784 481,599.5C 485.748,598.365 490.581,598.198 495.5,599C 508.55,601.359 520.216,606.692 530.5,615C 544.353,627.685 547.187,642.518 539,659.5C 534.763,671.058 527.596,680.224 517.5,687C 514.167,689 510.833,689 507.5,687C 510.651,681.848 512.484,676.348 513,670.5C 504.101,678.891 493.934,680.724 482.5,676C 480.65,675.31 479.316,674.144 478.5,672.5 Z"/></g>
<g><path style="opacity:1" fill="#fefefe" d="M 598.5,692.5 C 599.891,721.853 590.557,747.02 570.5,768C 559.762,776.618 547.595,782.118 534,784.5C 518.296,781.468 508.296,772.135 504,756.5C 503.426,749.631 502.592,742.797 501.5,736C 501.833,734.167 502.167,732.333 502.5,730.5C 511.083,737.071 520.75,739.237 531.5,737C 540.772,733.068 548.272,726.901 554,718.5C 555.752,715.328 557.752,712.328 560,709.5C 561.618,705.932 562.951,702.265 564,698.5C 566.3,679.719 566.8,661.052 565.5,642.5C 564.701,628.837 561.368,615.837 555.5,603.5C 556.002,602.479 556.668,602.312 557.5,603C 561.367,607.202 565.533,611.035 570,614.5C 573.327,622.496 577.66,629.829 583,636.5C 586.661,648.151 590.328,659.818 594,671.5C 595.405,678.541 596.905,685.541 598.5,692.5 Z"/></g>
<g><path style="opacity:1" fill="#eaf0e8" d="M 360.5,672.5 C 361.573,666.885 361.74,661.218 361,655.5C 359.593,647.445 357.093,639.779 353.5,632.5C 354.203,630.284 355.536,628.451 357.5,627C 363.571,624.399 369.904,623.232 376.5,623.5C 387.515,624.42 398.182,626.92 408.5,631C 409.796,642.48 411.296,653.98 413,665.5C 414.293,674.333 416.96,682.666 421,690.5C 421.667,695.5 421.667,700.5 421,705.5C 419.276,710.036 415.943,712.369 411,712.5C 386.577,708.561 369.744,695.227 360.5,672.5 Z"/></g>
<g><path style="opacity:1" fill="#dcecf3" d="M 565.5,642.5 C 566.8,661.052 566.3,679.719 564,698.5C 562.951,702.265 561.618,705.932 560,709.5C 557.752,712.328 555.752,715.328 554,718.5C 548.272,726.901 540.772,733.068 531.5,737C 520.75,739.237 511.083,737.071 502.5,730.5C 502.167,732.333 501.833,734.167 501.5,736C 502.592,742.797 503.426,749.631 504,756.5C 508.296,772.135 518.296,781.468 534,784.5C 547.595,782.118 559.762,776.618 570.5,768C 590.557,747.02 599.891,721.853 598.5,692.5C 603.668,717.492 599.501,740.826 586,762.5C 585.175,764.701 585.675,766.534 587.5,768C 598.604,767.364 607.771,771.197 615,779.5C 618.98,786.624 623.814,793.124 629.5,799C 632.661,800.413 635.661,802.08 638.5,804C 634.952,805.941 631.286,807.607 627.5,809C 619.193,809.999 610.86,810.832 602.5,811.5C 601.423,814.474 601.423,817.474 602.5,820.5C 583.395,820.922 564.395,819.756 545.5,817C 534.801,813.483 524.801,808.65 515.5,802.5C 513.167,799.5 510.5,796.833 507.5,794.5C 491.098,775.322 483.432,752.989 484.5,727.5C 484.49,718.091 485.323,708.757 487,699.5C 493.371,705.304 500.871,707.47 509.5,706C 520.99,704.087 530.99,699.254 539.5,691.5C 542.833,688.833 545.833,685.833 548.5,682.5C 556.689,670.778 561.856,657.778 564,643.5C 564.383,642.944 564.883,642.611 565.5,642.5 Z"/></g>
<g><path style="opacity:1" fill="#fefefe" d="M 787.5,680.5 C 783.424,690.646 778.258,700.312 772,709.5C 763.871,719.298 755.371,728.798 746.5,738C 713.345,758.493 677.345,766.827 638.5,763C 627.468,761.302 621.135,754.968 619.5,744C 620.32,736.888 622.153,730.054 625,723.5C 625.667,719.167 625.667,714.833 625,710.5C 624.338,709.016 623.504,707.683 622.5,706.5C 636.103,704.226 649.77,705.059 663.5,709C 691.557,713.721 717.89,709.054 742.5,695C 757.557,684.616 772.057,673.449 786,661.5C 786.945,661.905 787.612,662.572 788,663.5C 788.469,669.182 788.302,674.848 787.5,680.5 Z"/></g>
<g><path style="opacity:0.18" fill="#a3a29a" d="M 310.5,672.5 C 310.56,671.957 310.893,671.624 311.5,671.5C 312.793,673.636 312.793,675.636 311.5,677.5C 311.784,675.585 311.451,673.919 310.5,672.5 Z"/></g>
<g><path style="opacity:1" fill="#d9eaf1" d="M 442.5,671.5 C 445.147,674.764 447.814,678.097 450.5,681.5C 452.605,683.468 455.105,684.468 458,684.5C 466.676,684.273 472.509,680.273 475.5,672.5C 475.532,677.945 476.032,683.278 477,688.5C 473.472,691.584 469.306,693.251 464.5,693.5C 458.194,693.511 452.527,691.677 447.5,688C 444.363,682.955 442.697,677.455 442.5,671.5 Z"/></g>
<g><path style="opacity:1" fill="#dbecf3" d="M 349.5,717.5 C 349.122,720.022 348.289,722.355 347,724.5C 338.527,720.366 330.86,715.032 324,708.5C 323.242,714.891 323.576,721.224 325,727.5C 327.333,732.167 329.667,736.833 332,741.5C 338.772,748.117 345.939,754.117 353.5,759.5C 344.842,759.336 337.175,756.503 330.5,751C 328.037,747.535 325.204,744.369 322,741.5C 312.917,721.081 311.25,700.081 317,678.5C 323.898,685.032 332.065,687.698 341.5,686.5C 342.151,697.438 344.817,707.772 349.5,717.5 Z"/></g>
<g><path style="opacity:1" fill="#dcecf3" d="M 787.5,680.5 C 785.042,704.898 776.376,726.731 761.5,746C 754.373,751.787 746.707,756.787 738.5,761C 722.074,766.273 705.407,770.606 688.5,774C 667.13,774.13 646.13,776.963 625.5,782.5C 621.978,780.82 619.145,778.153 617,774.5C 610.217,767.918 602.051,764.251 592.5,763.5C 601.702,746.357 606.035,728.023 605.5,708.5C 611.238,708.377 616.904,707.71 622.5,706.5C 623.504,707.683 624.338,709.016 625,710.5C 625.667,714.833 625.667,719.167 625,723.5C 622.153,730.054 620.32,736.888 619.5,744C 621.135,754.968 627.468,761.302 638.5,763C 677.345,766.827 713.345,758.493 746.5,738C 755.371,728.798 763.871,719.298 772,709.5C 778.258,700.312 783.424,690.646 787.5,680.5 Z"/></g>
<g><path style="opacity:1" fill="#335869" d="M 548.5,682.5 C 545.833,685.833 542.833,688.833 539.5,691.5C 541.5,687.5 544.5,684.5 548.5,682.5 Z"/></g>
<g><path style="opacity:1" fill="#fcfcfd" d="M 349.5,717.5 C 354.089,721.292 357.756,725.959 360.5,731.5C 362.5,735.5 365.5,738.5 369.5,740.5C 373.108,741.759 375.441,744.092 376.5,747.5C 379.163,754.327 382.497,760.827 386.5,767C 376.544,768.177 367.211,766.344 358.5,761.5C 356.447,761.598 354.78,760.931 353.5,759.5C 345.939,754.117 338.772,748.117 332,741.5C 329.667,736.833 327.333,732.167 325,727.5C 323.576,721.224 323.242,714.891 324,708.5C 330.86,715.032 338.527,720.366 347,724.5C 348.289,722.355 349.122,720.022 349.5,717.5 Z"/></g>
<g><path style="opacity:1" fill="#627475" d="M 362.5,728.5 C 365.833,731.167 368.833,734.167 371.5,737.5C 367.5,735.5 364.5,732.5 362.5,728.5 Z"/></g>
<g><path style="opacity:1" fill="#8badb6" d="M 360.5,731.5 C 363.833,734.167 366.833,737.167 369.5,740.5C 365.5,738.5 362.5,735.5 360.5,731.5 Z"/></g>
<g><path style="opacity:1" fill="#687a7b" d="M 379.5,743.5 C 381.749,744.08 383.415,745.413 384.5,747.5C 382.251,746.92 380.585,745.587 379.5,743.5 Z"/></g>
<g><path style="opacity:1" fill="#dbecf3" d="M 376.5,747.5 C 386.948,753.896 397.615,760.062 408.5,766C 410.813,766.662 413.146,767.162 415.5,767.5C 415.66,769.199 415.494,770.866 415,772.5C 408.073,783.563 398.573,791.73 386.5,797C 372.775,801.685 358.775,803.352 344.5,802C 346.396,799.932 348.396,798.099 350.5,796.5C 353.833,795.167 356.167,792.833 357.5,789.5C 360.812,786.854 363.812,783.854 366.5,780.5C 366.113,779.28 365.28,778.613 364,778.5C 362.357,779.315 360.857,780.315 359.5,781.5C 359.528,778.749 360.528,776.415 362.5,774.5C 351.538,772.182 341.205,768.516 331.5,763.5C 332.479,761.855 333.812,760.521 335.5,759.5C 342.062,762.14 348.729,764.474 355.5,766.5C 356.442,766.392 357.275,766.059 358,765.5C 357.645,764.041 357.811,762.707 358.5,761.5C 367.211,766.344 376.544,768.177 386.5,767C 382.497,760.827 379.163,754.327 376.5,747.5 Z"/></g>
<g><path style="opacity:1" fill="#f4f7f8" d="M 331.5,763.5 C 341.205,768.516 351.538,772.182 362.5,774.5C 360.528,776.415 359.528,778.749 359.5,781.5C 354.576,786.465 348.576,789.631 341.5,791C 335.167,791.667 328.833,791.667 322.5,791C 315.818,790.409 310.318,787.576 306,782.5C 305.503,780.19 305.337,777.857 305.5,775.5C 307.564,775.313 309.564,774.813 311.5,774C 318.105,770.199 324.772,766.699 331.5,763.5 Z"/></g>
<g><path style="opacity:1" fill="#fefefe" d="M 577.5,780.5 C 592.945,777.899 605.612,782.566 615.5,794.5C 608.527,799.993 600.527,802.826 591.5,803C 591.043,803.414 590.709,803.914 590.5,804.5C 594.481,811.958 592.481,814.125 584.5,811C 574.633,805.789 565.967,799.122 558.5,791C 558.99,789.018 559.99,787.351 561.5,786C 566.846,783.83 572.179,781.997 577.5,780.5 Z"/></g>
<g><path style="opacity:1" fill="#4c6c7b" d="M 357.5,789.5 C 356.167,792.833 353.833,795.167 350.5,796.5C 352.5,793.833 354.833,791.5 357.5,789.5 Z"/></g>
<g><path style="opacity:0.165" fill="#b2b1a8" d="M 344.5,796.5 C 344.5,795.833 344.167,795.5 343.5,795.5C 344.943,794.297 346.609,793.797 348.5,794C 347.307,795.095 345.973,795.928 344.5,796.5 Z"/></g>
<g><path style="opacity:1" fill="#294e5f" d="M 507.5,794.5 C 510.5,796.833 513.167,799.5 515.5,802.5C 511.833,800.833 509.167,798.167 507.5,794.5 Z"/></g>
<g><path style="opacity:0.282" fill="#b1b0a7" d="M 619.5,814.5 C 615.232,814.869 611.232,815.869 607.5,817.5C 606.596,816.791 606.263,815.791 606.5,814.5C 610.833,814.5 615.167,814.5 619.5,814.5 Z"/></g>

        
<g><path style="opacity:0.992" fill="#181417" d="M 560.5,379.5 C 564.387,375.727 566.72,371.06 567.5,365.5C 569.686,364.177 571.186,362.177 572,359.5C 578.954,340.152 574.454,323.985 558.5,311C 545.232,303.032 531.232,296.699 516.5,292C 506.207,290.529 495.873,290.196 485.5,291C 479.383,293.373 473.05,294.706 466.5,295C 461.341,297.412 456.341,300.079 451.5,303C 444.575,308.38 437.742,313.88 431,319.5C 423.646,329.539 417.313,340.205 412,351.5C 411.012,369.022 416.845,383.856 429.5,396C 434.651,398.996 439.651,402.162 444.5,405.5C 446.713,407.86 449.379,409.694 452.5,411C 459.011,412.032 465.344,411.532 471.5,409.5C 472.107,409.624 472.44,409.957 472.5,410.5C 469.227,413.144 465.56,415.311 461.5,417C 456.665,417.586 451.999,416.92 447.5,415C 440.357,408.927 432.69,403.594 424.5,399C 421.121,394.41 417.621,389.91 414,385.5C 412.441,383.783 411.608,381.783 411.5,379.5C 411.291,378.078 410.791,376.745 410,375.5C 409.505,377.473 409.338,379.473 409.5,381.5C 406.726,398.056 397.392,403.556 381.5,398C 377.252,395.757 373.586,392.757 370.5,389C 368.246,387.349 365.912,387.182 363.5,388.5C 358.442,397.689 350.775,400.856 340.5,398C 336.532,397.036 333.365,394.869 331,391.5C 328.383,383.698 326.716,375.698 326,367.5C 325.461,370.529 324.794,373.529 324,376.5C 317.405,391.893 308.238,405.393 296.5,417C 294.598,418.796 292.598,418.963 290.5,417.5C 293.117,412.886 296.117,408.553 299.5,404.5C 300.189,405.774 301.023,405.774 302,404.5C 307.333,395.833 312.667,387.167 318,378.5C 321.248,370.808 322.248,362.808 321,354.5C 313.81,339.274 303.643,326.441 290.5,316C 283.789,313.765 277.456,310.765 271.5,307C 246.755,303.29 227.921,312.123 215,333.5C 207.453,345.776 204.286,359.11 205.5,373.5C 205.294,376.495 205.96,379.162 207.5,381.5C 207.878,383.921 208.545,386.254 209.5,388.5C 208.116,389.801 206.616,389.801 205,388.5C 196.903,365.733 199.903,344.399 214,324.5C 214.811,302.71 223.644,285.21 240.5,272C 247.094,267.201 254.428,264.368 262.5,263.5C 267.334,263.944 272.001,265.11 276.5,267C 305.719,288.241 323.719,316.741 330.5,352.5C 330.821,354.048 331.821,354.715 333.5,354.5C 344.853,360.061 356.853,363.394 369.5,364.5C 379.284,361.745 389.284,360.245 399.5,360C 396.14,347.665 395.64,335.165 398,322.5C 400.262,313.712 402.929,305.046 406,296.5C 409.946,290.221 414.279,284.221 419,278.5C 434.232,264.13 452.065,254.297 472.5,249C 492.538,243.576 511.538,245.909 529.5,256C 538.534,261.893 545.367,269.726 550,279.5C 554.515,287.881 558.348,296.548 561.5,305.5C 584.461,325.683 587.628,348.683 571,374.5C 569.5,376 568,377.5 566.5,379C 564.527,379.495 562.527,379.662 560.5,379.5 Z"/></g>
<g><path style="opacity:1" fill="#6e1b68" d="M 529.5,262.5 C 532.167,265.833 535.167,268.833 538.5,271.5C 544.711,280.92 549.544,290.92 553,301.5C 524.317,282.89 493.817,279.39 461.5,291C 454.299,294.098 447.965,298.431 442.5,304C 436.129,307.365 430.629,311.865 426,317.5C 418.399,328.107 412.065,339.441 407,351.5C 406.457,356.243 406.457,360.91 407,365.5C 404.135,360.234 402.469,354.567 402,348.5C 400.813,331.241 403.479,314.574 410,298.5C 423.165,279.316 440.665,265.483 462.5,257C 485.869,247.939 508.203,249.772 529.5,262.5 Z"/></g>
<g><path style="opacity:1" fill="#341231" d="M 529.5,262.5 C 533.5,264.5 536.5,267.5 538.5,271.5C 535.167,268.833 532.167,265.833 529.5,262.5 Z"/></g>
<g><path style="opacity:1" fill="#6e1b68" d="M 254.5,269.5 C 261.221,268.751 267.554,269.918 273.5,273C 298.388,291.387 314.721,315.554 322.5,345.5C 321.5,345.5 320.5,345.5 319.5,345.5C 319.116,341.396 317.616,337.729 315,334.5C 309.501,328.025 304.001,321.525 298.5,315C 289.756,309.294 280.422,304.628 270.5,301C 255.52,298.908 241.52,301.908 228.5,310C 225.667,312.833 222.833,315.667 220,318.5C 219.333,316.167 219.333,313.833 220,311.5C 224.55,299.238 231.05,288.072 239.5,278C 245.21,276.153 250.21,273.319 254.5,269.5 Z"/></g>
<g><path style="opacity:1" fill="#f5f3e7" d="M 567.5,365.5 C 563.649,360.486 558.983,356.319 553.5,353C 543.606,346.886 533.272,341.552 522.5,337C 465.992,324.661 439.992,347.494 444.5,405.5C 439.651,402.162 434.651,398.996 429.5,396C 416.845,383.856 411.012,369.022 412,351.5C 417.313,340.205 423.646,329.539 431,319.5C 437.742,313.88 444.575,308.38 451.5,303C 456.341,300.079 461.341,297.412 466.5,295C 473.05,294.706 479.383,293.373 485.5,291C 495.873,290.196 506.207,290.529 516.5,292C 531.232,296.699 545.232,303.032 558.5,311C 574.454,323.985 578.954,340.152 572,359.5C 571.186,362.177 569.686,364.177 567.5,365.5 Z"/></g>
<g><path style="opacity:1" fill="#f4f3e6" d="M 299.5,404.5 C 302.394,391.294 300.228,378.96 293,367.5C 289.193,362.059 285.027,356.892 280.5,352C 271.732,343.889 261.398,340.889 249.5,343C 229.362,346.966 215.362,358.466 207.5,377.5C 206.833,376.167 206.167,374.833 205.5,373.5C 204.286,359.11 207.453,345.776 215,333.5C 227.921,312.123 246.755,303.29 271.5,307C 277.456,310.765 283.789,313.765 290.5,316C 303.643,326.441 313.81,339.274 321,354.5C 322.248,362.808 321.248,370.808 318,378.5C 312.667,387.167 307.333,395.833 302,404.5C 301.023,405.774 300.189,405.774 299.5,404.5 Z"/></g>
<g><path style="opacity:1" fill="#6f1c69" d="M 567.5,365.5 C 566.72,371.06 564.387,375.727 560.5,379.5C 555.42,379.25 550.42,379.75 545.5,381C 531.312,384.729 517.312,389.063 503.5,394C 492.51,398.492 482.176,403.992 472.5,410.5C 472.44,409.957 472.107,409.624 471.5,409.5C 465.344,411.532 459.011,412.032 452.5,411C 449.379,409.694 446.713,407.86 444.5,405.5C 439.992,347.494 465.992,324.661 522.5,337C 533.272,341.552 543.606,346.886 553.5,353C 558.983,356.319 563.649,360.486 567.5,365.5 Z"/></g>
<g><path style="opacity:1" fill="#6f1c69" d="M 299.5,404.5 C 296.117,408.553 293.117,412.886 290.5,417.5C 280.354,412.929 271.02,407.096 262.5,400C 246.099,390.353 228.432,386.52 209.5,388.5C 208.545,386.254 207.878,383.921 207.5,381.5C 207.5,380.167 207.5,378.833 207.5,377.5C 215.362,358.466 229.362,346.966 249.5,343C 261.398,340.889 271.732,343.889 280.5,352C 285.027,356.892 289.193,362.059 293,367.5C 300.228,378.96 302.394,391.294 299.5,404.5 Z"/></g>
<g><path style="opacity:0.573" fill="#83827b" d="M 330.5,352.5 C 331.71,352.932 332.71,353.599 333.5,354.5C 331.821,354.715 330.821,354.048 330.5,352.5 Z"/></g>
<g><path style="opacity:1" fill="#6e1b68" d="M 329.5,358.5 C 340.896,364.687 353.062,368.354 366,369.5C 374.961,368.124 383.961,367.124 393,366.5C 398.609,365.552 402.442,367.552 404.5,372.5C 406.973,380.27 405.306,386.937 399.5,392.5C 393.208,396.306 386.875,396.14 380.5,392C 377.007,386.991 372.34,383.824 366.5,382.5C 363.972,382.763 361.639,383.596 359.5,385C 357.481,388.014 355.148,390.68 352.5,393C 344.85,395.304 339.017,393.138 335,386.5C 333.419,377.08 331.586,367.746 329.5,358.5 Z"/></g>
<g><path style="opacity:1" fill="#9e8095" d="M 205.5,373.5 C 206.167,374.833 206.833,376.167 207.5,377.5C 207.5,378.833 207.5,380.167 207.5,381.5C 205.96,379.162 205.294,376.495 205.5,373.5 Z"/></g>
<g><path style="opacity:0.008" fill="#92928a" d="M 411.5,379.5 C 410.833,380.167 410.167,380.833 409.5,381.5C 409.338,379.473 409.505,377.473 410,375.5C 410.791,376.745 411.291,378.078 411.5,379.5 Z"/></g>
<g><path style="opacity:0.005" fill="#000000" d="M 226.5,392.5 C 227.386,391.224 228.386,391.224 229.5,392.5C 228.575,393.562 227.575,393.562 226.5,392.5 Z"/></g>
<g><path style="opacity:0.004" fill="#000000" d="M 212.5,393.5 C 212.897,392.475 213.563,392.308 214.5,393C 213.906,393.464 213.239,393.631 212.5,393.5 Z"/></g>

        
<g><path style="opacity:0.993" fill="#20201e" d="M 591.5,350.5 C 590.89,349.609 590.557,348.609 590.5,347.5C 598.093,347.538 604.593,350.538 610,356.5C 612.002,361.007 613.502,365.674 614.5,370.5C 614.02,374.293 612.353,377.46 609.5,380C 604.5,382.333 599.5,384.667 594.5,387C 582.992,386.084 571.492,384.917 560,383.5C 549.575,383.44 539.575,385.44 530,389.5C 529.099,405.656 527.099,421.656 524,437.5C 515.846,455.806 507.18,473.806 498,491.5C 496.381,493.772 494.548,495.772 492.5,497.5C 491.558,497.392 490.725,497.059 490,496.5C 490.124,476.86 487.791,457.527 483,438.5C 480.491,430.264 476.491,422.931 471,416.5C 465.075,419.213 459.241,422.046 453.5,425C 421.871,432.862 390.038,434.695 358,430.5C 338.546,433.337 319.379,432.004 300.5,426.5C 296.372,429.29 293.372,432.957 291.5,437.5C 286.174,448.647 282.34,460.313 280,472.5C 279.983,480.544 279.816,488.544 279.5,496.5C 278.448,498.256 276.781,498.923 274.5,498.5C 263.666,480.855 255.833,461.855 251,441.5C 248.471,427.539 249.971,414.039 255.5,401C 246.898,396.699 237.898,393.532 228.5,391.5C 218.197,392.724 207.863,393.224 197.5,393C 182.147,389.146 173.647,379.313 172,363.5C 171.333,358.833 171.333,354.167 172,349.5C 172.036,347.059 172.869,345.059 174.5,343.5C 175.086,343.709 175.586,344.043 176,344.5C 175.529,355.347 177.529,365.681 182,375.5C 187.543,382.974 195.043,386.974 204.5,387.5C 232.498,383.446 257.164,390.613 278.5,409C 291.714,416.182 305.714,421.182 320.5,424C 344.953,424.754 369.453,425.587 394,426.5C 413.476,426.449 432.642,423.949 451.5,419C 468.5,410 485.5,401 502.5,392C 517.586,386.527 532.92,381.86 548.5,378C 556.5,377.333 564.5,377.333 572.5,378C 579.063,379.986 585.73,380.986 592.5,381C 596.749,378.806 601.082,376.806 605.5,375C 606.872,373.758 607.872,372.258 608.5,370.5C 607.098,366.461 605.598,362.461 604,358.5C 599.684,355.934 595.517,353.267 591.5,350.5 Z"/></g>
<g><path style="opacity:0.408" fill="#9b9b93" d="M 590.5,347.5 C 590.557,348.609 590.89,349.609 591.5,350.5C 589.448,349.947 589.115,348.947 590.5,347.5 Z"/></g>
<g><path style="opacity:1" fill="#f3f2e5" d="M 523.5,390.5 C 524.649,390.791 525.316,391.624 525.5,393C 523.612,406.547 521.446,420.047 519,433.5C 511.787,450.924 503.787,467.924 495,484.5C 495.151,468.559 493.151,452.892 489,437.5C 485.392,429.112 480.892,421.278 475.5,414C 481.968,408.926 488.968,404.593 496.5,401C 505.492,397.175 514.492,393.675 523.5,390.5 Z"/></g>
<g><path style="opacity:1" fill="#f3f2e5" d="M 259.5,403.5 C 270.581,412.379 282.915,419.212 296.5,424C 280.894,441.812 273.394,462.645 274,486.5C 266.227,471.515 260.227,455.848 256,439.5C 254.469,427.135 255.636,415.135 259.5,403.5 Z"/></g>
<g><path style="opacity:0.751" fill="#e9e8dc" d="M 300.5,426.5 C 300.046,432.284 297.046,435.951 291.5,437.5C 293.372,432.957 296.372,429.29 300.5,426.5 Z"/></g>
<g><path style="opacity:0.796" fill="#62625d" d="M 279.5,496.5 C 280.404,497.209 280.737,498.209 280.5,499.5C 278.265,499.795 276.265,499.461 274.5,498.5C 276.781,498.923 278.448,498.256 279.5,496.5 Z"/></g>

        
<g><path style="opacity:0.991" fill="#070709" d="M 369.5,120.5 C 370.833,120.5 372.167,120.5 373.5,120.5C 374.829,127.793 375.995,135.127 377,142.5C 380.222,149.499 382.222,156.833 383,164.5C 385.41,170.318 388.077,175.985 391,181.5C 397.794,189.963 404.961,198.13 412.5,206C 416.873,209.186 421.54,211.853 426.5,214C 435.081,216.097 443.747,217.764 452.5,219C 453.894,222.093 453.227,224.759 450.5,227C 430.107,226.898 410.441,230.565 391.5,238C 379.024,243.808 370.858,253.308 367,266.5C 355.463,275.515 342.296,279.849 327.5,279.5C 295.365,280.389 277.198,265.055 273,233.5C 272.179,214.784 276.679,197.45 286.5,181.5C 287.365,180.417 288.365,180.251 289.5,181C 291.882,194.264 298.048,205.431 308,214.5C 303.426,198.844 302.092,182.844 304,166.5C 306.194,155.608 311.36,146.441 319.5,139C 321,138.5 322.5,138 324,137.5C 324.945,137.905 325.612,138.572 326,139.5C 325.78,147.468 327.114,155.135 330,162.5C 335.333,171.167 340.667,179.833 346,188.5C 345.199,175.055 346.199,161.721 349,148.5C 354.151,137.861 360.985,128.528 369.5,120.5 Z"/></g>
<g><path style="opacity:1" fill="#2d2d3a" d="M 373.5,152.5 C 371.366,151.297 370.032,149.463 369.5,147C 368.5,146.333 367.5,146.333 366.5,147C 366.833,147.333 367.167,147.667 367.5,148C 363.138,150.623 361.472,154.29 362.5,159C 360.408,159.953 360.075,161.286 361.5,163C 360.5,165.333 359.5,167.667 358.5,170C 359.308,170.308 359.975,170.808 360.5,171.5C 358.318,173.734 357.985,176.234 359.5,179C 359.025,180.763 358.358,182.43 357.5,184C 359.434,185.729 359.434,187.729 357.5,190C 358.167,191.333 358.833,192.667 359.5,194C 359.267,197.466 358.933,201.3 358.5,205.5C 357.808,206.025 357.308,206.692 357,207.5C 355.806,206.57 354.473,205.903 353,205.5C 350.946,206.079 348.946,206.412 347,206.5C 346.517,205.552 346.351,204.552 346.5,203.5C 344.436,203.313 342.436,202.813 340.5,202C 339.5,199.667 337.833,198 335.5,197C 335.833,196.667 336.167,196.333 336.5,196C 335.514,193.672 333.514,191.672 330.5,190C 330.833,189.667 331.167,189.333 331.5,189C 329.833,188 328.5,186.667 327.5,185C 327.833,184.667 328.167,184.333 328.5,184C 327.5,183 326.5,182 325.5,181C 325.833,180.667 326.167,180.333 326.5,180C 324.996,178.509 324.163,176.676 324,174.5C 321.917,172.348 320.417,170.348 319.5,168.5C 318.032,170.792 317.032,172.959 316.5,175C 316.833,175.333 317.167,175.667 317.5,176C 316.692,176.308 316.025,176.808 315.5,177.5C 316.78,179.702 316.78,181.868 315.5,184C 316.167,184.667 316.833,185.333 317.5,186C 316.283,188.011 316.616,190.011 318.5,192C 317.941,192.725 317.608,193.558 317.5,194.5C 318.755,199.502 320.421,204.335 322.5,209C 322.167,209.333 321.833,209.667 321.5,210C 323.866,214.26 325.532,218.427 326.5,222.5C 326.035,225.471 324.535,227.805 322,229.5C 312.901,229.677 304.901,227.344 298,222.5C 297.667,222.833 297.333,223.167 297,223.5C 296.424,220.876 295.09,220.209 293,221.5C 292.683,219.699 292.016,219.366 291,220.5C 290.632,219.09 289.799,218.09 288.5,217.5C 287.831,220.93 287.497,224.263 287.5,227.5C 287.529,229.029 288.196,230.196 289.5,231C 289.167,231.333 288.833,231.667 288.5,232C 288.846,236.025 290.512,239.358 293.5,242C 293.167,242.333 292.833,242.667 292.5,243C 294.865,246.328 297.032,250.495 299,255.5C 299.333,255.167 299.667,254.833 300,254.5C 301.347,259.54 305.18,263.874 311.5,267.5C 312.246,268.736 312.579,270.07 312.5,271.5C 316.425,271.43 320.091,272.097 323.5,273.5C 298.519,273.351 283.686,261.018 279,236.5C 277.516,224.501 278.849,212.835 283,201.5C 284.015,198.79 285.515,196.457 287.5,194.5C 292.1,204.27 298.433,212.77 306.5,220C 310.275,222.351 313.608,221.851 316.5,218.5C 313.264,213.631 311.097,208.297 310,202.5C 307.534,190.194 307.201,177.86 309,165.5C 311.037,157.755 314.87,151.088 320.5,145.5C 321.205,153.249 323.372,160.582 327,167.5C 332.396,175.234 337.396,183.234 342,191.5C 344.247,194.509 346.581,194.842 349,192.5C 349.756,179.806 350.756,167.139 352,154.5C 355.417,144.676 361.083,136.342 369,129.5C 370.085,137.268 371.585,144.935 373.5,152.5 Z"/></g>
<g><path style="opacity:1" fill="#333340" d="M 373.5,152.5 C 375.929,156.791 377.096,161.458 377,166.5C 379.333,171.833 381.667,177.167 384,182.5C 389.333,189.167 394.667,195.833 400,202.5C 409.902,214.065 422.402,220.899 437.5,223C 416.978,223.876 397.978,229.543 380.5,240C 377.333,243.167 374.167,246.333 371,249.5C 370.226,245.853 369.559,242.186 369,238.5C 365.827,235.671 364.327,236.505 364.5,241C 366.241,248.365 365.741,255.532 363,262.5C 357.518,267.657 351.018,270.824 343.5,272C 336.897,273.274 330.23,273.774 323.5,273.5C 320.091,272.097 316.425,271.43 312.5,271.5C 312.579,270.07 312.246,268.736 311.5,267.5C 305.18,263.874 301.347,259.54 300,254.5C 299.667,254.833 299.333,255.167 299,255.5C 297.032,250.495 294.865,246.328 292.5,243C 292.833,242.667 293.167,242.333 293.5,242C 290.512,239.358 288.846,236.025 288.5,232C 288.833,231.667 289.167,231.333 289.5,231C 288.196,230.196 287.529,229.029 287.5,227.5C 287.497,224.263 287.831,220.93 288.5,217.5C 289.799,218.09 290.632,219.09 291,220.5C 292.016,219.366 292.683,219.699 293,221.5C 295.09,220.209 296.424,220.876 297,223.5C 297.333,223.167 297.667,222.833 298,222.5C 304.901,227.344 312.901,229.677 322,229.5C 324.535,227.805 326.035,225.471 326.5,222.5C 325.532,218.427 323.866,214.26 321.5,210C 321.833,209.667 322.167,209.333 322.5,209C 320.421,204.335 318.755,199.502 317.5,194.5C 317.608,193.558 317.941,192.725 318.5,192C 316.616,190.011 316.283,188.011 317.5,186C 316.833,185.333 316.167,184.667 315.5,184C 316.78,181.868 316.78,179.702 315.5,177.5C 316.025,176.808 316.692,176.308 317.5,176C 317.167,175.667 316.833,175.333 316.5,175C 317.032,172.959 318.032,170.792 319.5,168.5C 320.417,170.348 321.917,172.348 324,174.5C 324.163,176.676 324.996,178.509 326.5,180C 326.167,180.333 325.833,180.667 325.5,181C 326.5,182 327.5,183 328.5,184C 328.167,184.333 327.833,184.667 327.5,185C 328.5,186.667 329.833,188 331.5,189C 331.167,189.333 330.833,189.667 330.5,190C 333.514,191.672 335.514,193.672 336.5,196C 336.167,196.333 335.833,196.667 335.5,197C 337.833,198 339.5,199.667 340.5,202C 342.436,202.813 344.436,203.313 346.5,203.5C 346.351,204.552 346.517,205.552 347,206.5C 348.946,206.412 350.946,206.079 353,205.5C 354.473,205.903 355.806,206.57 357,207.5C 357.308,206.692 357.808,206.025 358.5,205.5C 358.933,201.3 359.267,197.466 359.5,194C 358.833,192.667 358.167,191.333 357.5,190C 359.434,187.729 359.434,185.729 357.5,184C 358.358,182.43 359.025,180.763 359.5,179C 357.985,176.234 358.318,173.734 360.5,171.5C 359.975,170.808 359.308,170.308 358.5,170C 359.5,167.667 360.5,165.333 361.5,163C 360.075,161.286 360.408,159.953 362.5,159C 361.472,154.29 363.138,150.623 367.5,148C 367.167,147.667 366.833,147.333 366.5,147C 367.5,146.333 368.5,146.333 369.5,147C 370.032,149.463 371.366,151.297 373.5,152.5 Z"/></g>

    </svg>
