
    <svg width="862" height="862" viewBox="0 0 862 862" fill="none" xmlns="http://www.w3.org/2000/svg">
        
<g><path style="opacity:1" fill="#f6f6e8" d="M -0.5,-0.5 C 286.833,-0.5 574.167,-0.5 861.5,-0.5C 861.5,286.833 861.5,574.167 861.5,861.5C 574.167,861.5 286.833,861.5 -0.5,861.5C -0.5,574.167 -0.5,286.833 -0.5,-0.5 Z"/></g>

        
<g><path style="opacity:0.983" fill="#1a1a19" d="M 578.5,540.5 C 583.993,540.916 589.326,542.082 594.5,544C 599.237,547.614 603.403,551.781 607,556.5C 613.977,570.057 616.311,584.39 614,599.5C 611.931,603.236 608.931,605.903 605,607.5C 603.018,607.01 601.351,606.01 600,604.5C 594.275,609.717 588.442,609.717 582.5,604.5C 577.923,613.337 572.256,614.337 565.5,607.5C 561.53,612.973 556.196,614.806 549.5,613C 548.299,612.097 547.465,610.931 547,609.5C 541.931,617.452 536.764,617.452 531.5,609.5C 527.737,613.765 523.737,617.932 519.5,622C 516.106,622.752 512.773,622.585 509.5,621.5C 508.194,620.088 507.36,618.421 507,616.5C 505.425,609.568 504.258,602.568 503.5,595.5C 504.335,583.317 510.669,578.317 522.5,580.5C 523.795,579.902 525.128,579.402 526.5,579C 535.197,570.637 543.531,561.97 551.5,553C 559.592,546.617 568.592,542.45 578.5,540.5 Z"/></g>
<g><path style="opacity:1" fill="#d9d8cb" d="M 587.5,601.5 C 588.496,601.586 589.329,601.252 590,600.5C 592.94,596.545 595.94,592.545 599,588.5C 599.37,579.339 598.37,570.339 596,561.5C 591.36,554.156 584.693,549.822 576,548.5C 573.538,549.159 571.038,549.493 568.5,549.5C 581.297,543.74 592.13,546.407 601,557.5C 608.853,570.951 611.186,585.285 608,600.5C 606.604,602.527 604.938,602.86 603,601.5C 602.091,598.089 601.091,594.755 600,591.5C 598.35,595.573 596.516,599.573 594.5,603.5C 591.584,604.861 589.251,604.195 587.5,601.5 Z"/></g>
<g><path style="opacity:1" fill="#f4f3e6" d="M 587.5,601.5 C 585.433,599.682 584.1,597.349 583.5,594.5C 582.635,593.417 581.635,593.251 580.5,594C 579.955,598.074 578.621,601.907 576.5,605.5C 574.878,607.439 573.044,607.772 571,606.5C 568.863,602.486 567.03,598.486 565.5,594.5C 564.522,594.977 563.689,595.643 563,596.5C 563.284,605.334 559.118,609.667 550.5,609.5C 550.348,605.228 549.348,601.228 547.5,597.5C 545.179,600.394 544.012,603.727 544,607.5C 541.618,612.067 538.951,612.4 536,608.5C 535.887,606.026 534.887,604.026 533,602.5C 527.856,607.313 523.023,612.48 518.5,618C 516.098,618.814 513.765,618.647 511.5,617.5C 508.811,609.37 507.645,601.036 508,592.5C 508.668,588.501 510.835,585.668 514.5,584C 518.801,584.363 523.134,584.363 527.5,584C 529.167,583 530.833,582 532.5,581C 540.864,572.97 548.864,564.637 556.5,556C 560.367,553.567 564.367,551.4 568.5,549.5C 571.038,549.493 573.538,549.159 576,548.5C 584.693,549.822 591.36,554.156 596,561.5C 598.37,570.339 599.37,579.339 599,588.5C 595.94,592.545 592.94,596.545 590,600.5C 589.329,601.252 588.496,601.586 587.5,601.5 Z"/></g>
<g><path style="opacity:0.982" fill="#191918" d="M 290.5,554.5 C 298.253,554.104 305.92,554.604 313.5,556C 315.5,557.333 317.5,558.667 319.5,560C 322.228,566.042 326.895,569.709 333.5,571C 335.378,572.543 336.878,574.376 338,576.5C 338.242,583.196 338.742,589.862 339.5,596.5C 339.461,598.587 338.461,599.921 336.5,600.5C 332.274,599.93 328.108,599.263 324,598.5C 322.5,600 321,601.5 319.5,603C 317.287,603.626 315.12,603.459 313,602.5C 306.564,605.689 301.23,604.356 297,598.5C 284.481,607.161 276.648,603.994 273.5,589C 271.944,573.778 277.611,562.278 290.5,554.5 Z"/></g>
<g><path style="opacity:1" fill="#f4f3e6" d="M 334.5,587.5 C 334.5,590.167 334.5,592.833 334.5,595.5C 333.167,595.5 331.833,595.5 330.5,595.5C 327.482,595.335 324.482,595.502 321.5,596C 320.022,598.039 318.022,598.872 315.5,598.5C 315.5,597.5 315.5,596.5 315.5,595.5C 312.326,596.015 309.326,597.015 306.5,598.5C 305.5,598.333 304.5,598.167 303.5,598C 301.441,595.366 299.275,592.866 297,590.5C 296.292,591.381 295.458,592.047 294.5,592.5C 290.404,593.285 287.07,592.118 284.5,589C 284.833,588.667 285.167,588.333 285.5,588C 283.667,587.5 282.5,586.333 282,584.5C 281.501,580.179 281.334,575.846 281.5,571.5C 281.709,570.078 282.209,568.745 283,567.5C 286.167,565 289.333,562.5 292.5,560C 298.167,559.333 303.833,559.333 309.5,560C 314.42,562.916 318.753,566.582 322.5,571C 326.232,572.461 329.732,574.294 333,576.5C 333.936,580.114 334.436,583.78 334.5,587.5 Z"/></g>
<g><path style="opacity:1" fill="#d7d6c9" d="M 281.5,571.5 C 281.334,575.846 281.501,580.179 282,584.5C 282.5,586.333 283.667,587.5 285.5,588C 285.167,588.333 284.833,588.667 284.5,589C 287.07,592.118 290.404,593.285 294.5,592.5C 293.641,595.452 291.641,597.285 288.5,598C 285.364,599.041 282.864,598.207 281,595.5C 279.409,588.608 279.076,581.608 280,574.5C 280.232,573.263 280.732,572.263 281.5,571.5 Z"/></g>
<g><path style="opacity:1" fill="#64635e" d="M 334.5,587.5 C 335.477,590.287 335.81,593.287 335.5,596.5C 333.585,596.784 331.919,596.451 330.5,595.5C 331.833,595.5 333.167,595.5 334.5,595.5C 334.5,592.833 334.5,590.167 334.5,587.5 Z"/></g>

        
<g><path style="opacity:0.995" fill="#0d0108" d="M 473.5,207.5 C 474.906,207.027 475.573,206.027 475.5,204.5C 504.858,171.312 541.525,150.812 585.5,143C 595.5,142.333 605.5,142.333 615.5,143C 635.085,147.195 654.085,153.195 672.5,161C 684.508,168.007 695.675,176.174 706,185.5C 718.296,204.303 719.463,223.636 709.5,243.5C 702.685,251.482 695.685,259.316 688.5,267C 694.886,266.122 701.386,265.622 708,265.5C 730.255,265.765 739.422,276.931 735.5,299C 732.443,310.782 726.776,321.115 718.5,330C 703.713,339.671 700.213,336.838 708,321.5C 708.533,312.097 705.7,303.93 699.5,297C 693.141,295.462 686.808,295.795 680.5,298C 671.181,302.329 661.514,305.662 651.5,308C 639.733,310.294 628.066,309.961 616.5,307C 601.803,301.15 597.636,291.317 604,277.5C 608.289,268.546 615.123,262.379 624.5,259C 634.556,256.738 644.222,253.404 653.5,249C 666.451,241.987 670.451,231.487 665.5,217.5C 660.121,218.006 654.787,218.839 649.5,220C 635.894,224.954 623.227,231.62 611.5,240C 600.368,249.464 589.534,259.297 579,269.5C 576.413,278.42 570.747,284.42 562,287.5C 539.83,286.332 518.663,281.166 498.5,272C 477.606,260.387 467.439,242.554 468,218.5C 469.188,214.387 471.021,210.72 473.5,207.5 Z"/></g>
<g><path style="opacity:1" fill="#5d0040" d="M 665.5,211.5 C 664.833,210.833 664.167,210.167 663.5,209.5C 656.996,202.592 653.329,194.258 652.5,184.5C 650.976,185.527 650.309,187.027 650.5,189C 651.085,197.335 654.418,204.168 660.5,209.5C 660.631,210.239 660.464,210.906 660,211.5C 656.971,211.719 653.804,211.386 650.5,210.5C 649.186,211.313 648.019,212.313 647,213.5C 643.505,212.894 640.005,212.56 636.5,212.5C 635.201,213.09 634.368,214.09 634,215.5C 627.802,214.645 621.468,215.312 615,217.5C 612.872,216.145 611.038,216.478 609.5,218.5C 603.69,212.225 598.856,205.225 595,197.5C 594.398,193.117 593.565,188.784 592.5,184.5C 591.914,184.709 591.414,185.043 591,185.5C 590.249,190.572 590.582,195.572 592,200.5C 595.603,207.257 599.77,213.591 604.5,219.5C 597.842,220.816 591.509,223.316 585.5,227C 578.086,231 571.086,235.5 564.5,240.5C 559.969,238.478 556.136,235.478 553,231.5C 548.605,225.434 544.605,219.1 541,212.5C 540.626,210.102 540.626,207.769 541,205.5C 540.282,204.549 539.449,204.383 538.5,205C 537.183,209.175 537.349,213.342 539,217.5C 543.667,224.167 548.333,230.833 553,237.5C 555.688,239.364 558.188,241.364 560.5,243.5C 556.477,247.697 551.81,251.197 546.5,254C 541.959,258.555 538.126,263.722 535,269.5C 534.097,270.701 532.931,271.535 531.5,272C 532.694,274.658 531.694,275.824 528.5,275.5C 510.948,272.975 496.114,265.308 484,252.5C 475.793,241.877 472.46,229.877 474,216.5C 479.044,208.449 485.211,201.283 492.5,195C 500.788,189.047 508.788,182.714 516.5,176C 537.633,162.269 560.633,153.269 585.5,149C 598.265,147.978 610.932,148.645 623.5,151C 635.167,154.667 646.833,158.333 658.5,162C 671.468,167.814 683.468,175.148 694.5,184C 707.681,195.516 712.848,210.016 710,227.5C 705.833,223.333 701.667,219.167 697.5,215C 687.093,211.199 676.427,210.032 665.5,211.5 Z"/></g>
<g><path style="opacity:0.995" fill="#0d0109" d="M 112.5,314.5 C 112.5,315.5 112.5,316.5 112.5,317.5C 110.833,317.5 109.167,317.5 107.5,317.5C 93.0443,315.87 82.211,308.87 75,296.5C 74.3333,289.833 74.3333,283.167 75,276.5C 78.8445,267.16 85.0112,259.827 93.5,254.5C 80.7205,242.664 77.5539,228.664 84,212.5C 113.08,174.018 151.58,158.852 199.5,167C 239.52,172.709 270.353,192.543 292,226.5C 294,233.167 294,239.833 292,246.5C 287.692,260.783 281.026,273.783 272,285.5C 262.038,293.783 250.872,299.949 238.5,304C 232.845,304.819 227.345,304.319 222,302.5C 221.424,300.623 221.591,298.789 222.5,297C 218.747,289.407 215.58,281.573 213,273.5C 203.563,260.398 193.063,248.231 181.5,237C 167.625,227.703 152.625,220.703 136.5,216C 132.833,215.333 129.167,215.333 125.5,216C 122.528,217.141 120.861,219.308 120.5,222.5C 122.316,224.817 124.316,226.984 126.5,229C 134.833,232.667 143.167,236.333 151.5,240C 161.408,247.205 171.575,254.038 182,260.5C 188.153,269.822 187.986,278.989 181.5,288C 171.767,294.339 161.434,295.339 150.5,291C 143.153,288.657 135.819,286.323 128.5,284C 114.435,281.747 107.602,287.58 108,301.5C 109.012,306.038 110.512,310.371 112.5,314.5 Z"/></g>
<g><path style="opacity:1" fill="#5d0040" d="M 280.5,260.5 C 273.408,262.325 265.908,263.992 258,265.5C 255.593,265.327 253.26,265.327 251,265.5C 250.064,263.292 248.398,261.958 246,261.5C 242.944,257.921 240.111,254.254 237.5,250.5C 241.447,244.27 244.613,237.604 247,230.5C 247.5,223.508 247.666,216.508 247.5,209.5C 245.876,209.36 244.71,210.027 244,211.5C 245.339,225.011 241.839,237.011 233.5,247.5C 232.448,247.649 231.448,247.483 230.5,247C 229.36,245.027 228.027,243.193 226.5,241.5C 219.996,238.664 213.996,234.997 208.5,230.5C 204.821,230.274 201.821,228.774 199.5,226C 197.187,225.338 194.854,224.838 192.5,224.5C 192.169,222.678 191.502,221.011 190.5,219.5C 192.977,209.974 194.144,200.307 194,190.5C 192.921,188.606 191.587,188.273 190,189.5C 190.235,199.811 188.735,209.811 185.5,219.5C 180.752,217.315 175.919,215.315 171,213.5C 170.667,213.833 170.333,214.167 170,214.5C 168.659,211.813 166.993,210.147 165,209.5C 164.586,209.957 164.086,210.291 163.5,210.5C 160.988,209.62 158.821,208.287 157,206.5C 155.004,207.341 153.171,207.008 151.5,205.5C 151.664,202.813 151.497,200.146 151,197.5C 150.29,196.027 149.124,195.36 147.5,195.5C 147.5,198.167 147.5,200.833 147.5,203.5C 138.79,203.16 130.123,201.493 121.5,198.5C 120.914,198.709 120.414,199.043 120,199.5C 119.261,198.426 118.261,197.759 117,197.5C 112.922,197.292 108.755,197.625 104.5,198.5C 118.15,183.538 135.15,174.705 155.5,172C 210.132,164.251 253.632,182.418 286,226.5C 287.555,231.382 287.888,236.382 287,241.5C 285.328,248.016 283.161,254.35 280.5,260.5 Z"/></g>
<g><path style="opacity:1" fill="#050004" d="M 663.5,209.5 C 662.5,209.5 661.5,209.5 660.5,209.5C 654.418,204.168 651.085,197.335 650.5,189C 650.309,187.027 650.976,185.527 652.5,184.5C 653.329,194.258 656.996,202.592 663.5,209.5 Z"/></g>
<g><path style="opacity:1" fill="#49003b" d="M 147.5,203.5 C 147.504,207.236 146.171,210.236 143.5,212.5C 138.959,210.82 134.293,209.653 129.5,209C 117.46,208.419 105.46,208.419 93.5,209C 96.3981,204.6 100.065,201.1 104.5,198.5C 108.755,197.625 112.922,197.292 117,197.5C 118.261,197.759 119.261,198.426 120,199.5C 120.414,199.043 120.914,198.709 121.5,198.5C 130.123,201.493 138.79,203.16 147.5,203.5 Z"/></g>
<g><path style="opacity:1" fill="#060003" d="M 564.5,240.5 C 568.956,242.892 573.623,245.058 578.5,247C 580.559,248.185 580.726,249.352 579,250.5C 572.926,247.865 566.76,245.532 560.5,243.5C 558.188,241.364 555.688,239.364 553,237.5C 548.333,230.833 543.667,224.167 539,217.5C 537.349,213.342 537.183,209.175 538.5,205C 539.449,204.383 540.282,204.549 541,205.5C 540.626,207.769 540.626,210.102 541,212.5C 544.605,219.1 548.605,225.434 553,231.5C 556.136,235.478 559.969,238.478 564.5,240.5 Z"/></g>
<g><path style="opacity:0.506" fill="#340427" d="M 475.5,204.5 C 475.573,206.027 474.906,207.027 473.5,207.5C 473.427,205.973 474.094,204.973 475.5,204.5 Z"/></g>
<g><path style="opacity:1" fill="#49003b" d="M 151.5,205.5 C 153.171,207.008 155.004,207.341 157,206.5C 158.821,208.287 160.988,209.62 163.5,210.5C 164.086,210.291 164.586,209.957 165,209.5C 166.993,210.147 168.659,211.813 170,214.5C 170.333,214.167 170.667,213.833 171,213.5C 175.919,215.315 180.752,217.315 185.5,219.5C 185.047,225.124 182.047,227.624 176.5,227C 168.001,221.777 159.001,217.61 149.5,214.5C 149.167,214.167 148.833,213.833 148.5,213.5C 149.516,210.718 150.516,208.051 151.5,205.5 Z"/></g>
<g><path style="opacity:1" fill="#49003b" d="M 660.5,209.5 C 661.5,209.5 662.5,209.5 663.5,209.5C 664.167,210.167 664.833,210.833 665.5,211.5C 649.811,214.078 634.978,219.411 621,227.5C 616.705,225.032 612.871,222.032 609.5,218.5C 611.038,216.478 612.872,216.145 615,217.5C 621.468,215.312 627.802,214.645 634,215.5C 634.368,214.09 635.201,213.09 636.5,212.5C 640.005,212.56 643.505,212.894 647,213.5C 648.019,212.313 649.186,211.313 650.5,210.5C 653.804,211.386 656.971,211.719 660,211.5C 660.464,210.906 660.631,210.239 660.5,209.5 Z"/></g>
<g><path style="opacity:1" fill="#49003b" d="M 117.5,251.5 C 118.239,251.631 118.906,251.464 119.5,251C 112.904,246.096 106.737,240.596 101,234.5C 98.1181,229.119 96.6181,223.619 96.5,218C 99.4106,217.302 100.077,215.802 98.5,213.5C 105.443,212.206 112.443,212.206 119.5,213.5C 113.845,219.7 114.178,225.534 120.5,231C 129.944,236.107 139.611,240.774 149.5,245C 154.328,248.581 159.328,251.915 164.5,255C 168.833,258 168.5,260.333 163.5,262C 159.5,262.667 155.5,262.667 151.5,262C 140.336,257.554 129.003,254.054 117.5,251.5 Z"/></g>
<g><path style="opacity:1" fill="#5b0040" d="M 98.5,213.5 C 100.077,215.802 99.4106,217.302 96.5,218C 96.6181,223.619 98.1181,229.119 101,234.5C 106.737,240.596 112.904,246.096 119.5,251C 118.906,251.464 118.239,251.631 117.5,251.5C 111.771,251.212 106.104,251.546 100.5,252.5C 87.8447,244.041 83.3447,232.374 87,217.5C 87.5,216.333 88.3333,215.5 89.5,215C 92.4781,214.304 95.4781,213.804 98.5,213.5 Z"/></g>
<g><path style="opacity:1" fill="#49003c" d="M 696.5,222.5 C 695.153,225.681 694.32,229.014 694,232.5C 691.12,238.482 687.787,244.148 684,249.5C 674.161,258.884 663.994,267.051 653.5,274C 653.728,274.399 654.062,274.565 654.5,274.5C 647.518,277.324 640.518,277.157 633.5,274C 630.277,270.888 629.777,267.388 632,263.5C 643.993,260.67 654.993,255.67 665,248.5C 672.653,239.202 674.487,228.868 670.5,217.5C 671.438,216.447 672.605,215.78 674,215.5C 679.473,216.455 684.973,217.289 690.5,218C 692.747,219.277 694.747,220.777 696.5,222.5 Z"/></g>
<g><path style="opacity:1" fill="#49003c" d="M 604.5,219.5 C 607.944,223.061 611.944,225.894 616.5,228C 617.451,228.718 617.617,229.551 617,230.5C 603.218,240.56 590.218,251.56 578,263.5C 574.501,267.672 571.834,272.338 570,277.5C 568.5,279 567,280.5 565.5,282C 552.853,281.115 540.52,278.949 528.5,275.5C 531.694,275.824 532.694,274.658 531.5,272C 532.931,271.535 534.097,270.701 535,269.5C 538.126,263.722 541.959,258.555 546.5,254C 551.81,251.197 556.477,247.697 560.5,243.5C 566.76,245.532 572.926,247.865 579,250.5C 580.726,249.352 580.559,248.185 578.5,247C 573.623,245.058 568.956,242.892 564.5,240.5C 571.086,235.5 578.086,231 585.5,227C 591.509,223.316 597.842,220.816 604.5,219.5 Z"/></g>
<g><path style="opacity:1" fill="#49003c" d="M 190.5,219.5 C 191.502,221.011 192.169,222.678 192.5,224.5C 194.854,224.838 197.187,225.338 199.5,226C 201.821,228.774 204.821,230.274 208.5,230.5C 213.996,234.997 219.996,238.664 226.5,241.5C 228.027,243.193 229.36,245.027 230.5,247C 231.448,247.483 232.448,247.649 233.5,247.5C 229.168,257.739 221.668,262.072 211,260.5C 203.413,249.577 194.413,239.91 184,231.5C 186.381,227.746 188.548,223.746 190.5,219.5 Z"/></g>
<g><path style="opacity:1" fill="#5b0040" d="M 696.5,222.5 C 704.085,225.669 706.918,231.335 705,239.5C 698.005,250.307 689.505,259.807 679.5,268C 671.395,270.988 663.062,273.155 654.5,274.5C 654.062,274.565 653.728,274.399 653.5,274C 663.994,267.051 674.161,258.884 684,249.5C 687.787,244.148 691.12,238.482 694,232.5C 694.32,229.014 695.153,225.681 696.5,222.5 Z"/></g>
<g><path style="opacity:1" fill="#49003c" d="M 237.5,250.5 C 240.111,254.254 242.944,257.921 246,261.5C 248.398,261.958 250.064,263.292 251,265.5C 253.26,265.327 255.593,265.327 258,265.5C 265.908,263.992 273.408,262.325 280.5,260.5C 277.146,269.373 272.146,277.207 265.5,284C 258.833,288 252.167,292 245.5,296C 240.066,298.239 234.399,299.406 228.5,299.5C 228.322,296.784 227.822,294.117 227,291.5C 223.518,285.533 220.851,279.199 219,272.5C 217.204,269.073 215.037,265.906 212.5,263C 215.652,264.186 218.985,264.519 222.5,264C 228.967,261.028 233.967,256.528 237.5,250.5 Z"/></g>
<g><path style="opacity:1" fill="#5c0040" d="M 179.5,268.5 C 179.489,270.017 178.823,271.184 177.5,272C 175.028,273.46 172.361,274.46 169.5,275C 168.953,275.925 168.287,276.758 167.5,277.5C 160.548,276.548 153.882,274.714 147.5,272C 141.367,271.982 135.2,271.149 129,269.5C 126.667,270.167 124.333,270.833 122,271.5C 121.667,270.833 121.333,270.167 121,269.5C 120.409,272.145 119.075,272.811 117,271.5C 111.035,273.067 105.535,275.567 100.5,279C 100.833,279.333 101.167,279.667 101.5,280C 99.5,281.667 97.5,283.333 95.5,285C 95.8333,285.333 96.1667,285.667 96.5,286C 95.5399,287.419 94.7065,288.919 94,290.5C 93.7685,294.555 93.2685,298.555 92.5,302.5C 93.2739,303.711 94.1072,303.711 95,302.5C 95.484,304.193 94.984,305.527 93.5,306.5C 80.0563,300.938 75.8896,291.271 81,277.5C 83.3581,281.358 86.5248,284.358 90.5,286.5C 91.5827,285.635 91.7494,284.635 91,283.5C 86.2333,280.291 83.8999,275.958 84,270.5C 87.8,264.533 92.9666,260.2 99.5,257.5C 100.142,261.023 101.308,264.356 103,267.5C 104.808,269.843 106.974,270.51 109.5,269.5C 105.328,266.152 103.661,261.819 104.5,256.5C 120.195,257.005 135.195,260.505 149.5,267C 158.355,268.992 166.189,267.159 173,261.5C 176.74,262.405 178.906,264.739 179.5,268.5 Z"/></g>
<g><path style="opacity:1" fill="#5c0040" d="M 680.5,283.5 C 679.778,283.918 679.278,284.584 679,285.5C 678.586,285.043 678.086,284.709 677.5,284.5C 674.045,285.767 670.545,286.767 667,287.5C 665.807,285.557 664.307,285.724 662.5,288C 659.574,288.218 656.74,288.718 654,289.5C 653.667,289.167 653.333,288.833 653,288.5C 652.228,289.849 651.061,290.682 649.5,291C 640.501,291.385 631.668,291.552 623,291.5C 615.686,290.53 610.853,287.197 608.5,281.5C 611.821,273.346 617.655,267.68 626,264.5C 625.677,272.379 629.177,277.545 636.5,280C 641.799,281.145 647.132,281.478 652.5,281C 662.989,277.877 673.656,275.71 684.5,274.5C 684.498,278.165 683.165,281.165 680.5,283.5 Z"/></g>
<g><path style="opacity:1" fill="#49003c" d="M 179.5,268.5 C 182.568,274.585 181.568,280.085 176.5,285C 168.662,287.967 160.662,288.3 152.5,286C 145.153,283.657 137.819,281.323 130.5,279C 110.008,275.828 101.175,284.328 104,304.5C 104.642,306.762 105.475,308.929 106.5,311C 101.714,310.794 97.381,309.294 93.5,306.5C 94.984,305.527 95.484,304.193 95,302.5C 94.1072,303.711 93.2739,303.711 92.5,302.5C 93.2685,298.555 93.7685,294.555 94,290.5C 94.7065,288.919 95.5399,287.419 96.5,286C 96.1667,285.667 95.8333,285.333 95.5,285C 97.5,283.333 99.5,281.667 101.5,280C 101.167,279.667 100.833,279.333 100.5,279C 105.535,275.567 111.035,273.067 117,271.5C 119.075,272.811 120.409,272.145 121,269.5C 121.333,270.167 121.667,270.833 122,271.5C 124.333,270.833 126.667,270.167 129,269.5C 135.2,271.149 141.367,271.982 147.5,272C 153.882,274.714 160.548,276.548 167.5,277.5C 168.287,276.758 168.953,275.925 169.5,275C 172.361,274.46 175.028,273.46 177.5,272C 178.823,271.184 179.489,270.017 179.5,268.5 Z"/></g>
<g><path style="opacity:1" fill="#5c0040" d="M 720.5,318.5 C 719.305,318.134 718.639,317.301 718.5,316C 719.71,311.217 719.043,306.717 716.5,302.5C 716.833,301.833 717.167,301.167 717.5,300.5C 716.738,300.089 715.738,299.923 714.5,300C 715.634,298.984 715.301,298.317 713.5,298C 714.458,296.853 714.125,295.853 712.5,295C 713.641,294.259 713.641,293.425 712.5,292.5C 710.291,291.937 708.791,290.604 708,288.5C 707.667,289.167 707.333,289.833 707,290.5C 700.892,284.874 693.392,282.874 684.5,284.5C 686.318,280.653 687.984,276.82 689.5,273C 698.793,271.558 708.126,271.224 717.5,272C 720.446,272.806 723.112,274.139 725.5,276C 725.964,278.405 726.131,280.905 726,283.5C 728.071,280.584 729.405,280.918 730,284.5C 731.392,297.151 728.225,308.484 720.5,318.5 Z"/></g>
<g><path style="opacity:1" fill="#49003b" d="M 608.5,281.5 C 610.853,287.197 615.686,290.53 623,291.5C 631.668,291.552 640.501,291.385 649.5,291C 651.061,290.682 652.228,289.849 653,288.5C 653.333,288.833 653.667,289.167 654,289.5C 656.74,288.718 659.574,288.218 662.5,288C 664.307,285.724 665.807,285.557 667,287.5C 670.545,286.767 674.045,285.767 677.5,284.5C 678.086,284.709 678.586,285.043 679,285.5C 679.278,284.584 679.778,283.918 680.5,283.5C 681.211,285.842 682.544,286.175 684.5,284.5C 693.392,282.874 700.892,284.874 707,290.5C 707.333,289.833 707.667,289.167 708,288.5C 708.791,290.604 710.291,291.937 712.5,292.5C 713.641,293.425 713.641,294.259 712.5,295C 714.125,295.853 714.458,296.853 713.5,298C 715.301,298.317 715.634,298.984 714.5,300C 715.738,299.923 716.738,300.089 717.5,300.5C 717.167,301.167 716.833,301.833 716.5,302.5C 719.043,306.717 719.71,311.217 718.5,316C 718.639,317.301 719.305,318.134 720.5,318.5C 718.252,322.254 715.419,325.588 712,328.5C 714.926,315.856 712.592,304.19 705,293.5C 690.942,288.92 677.442,290.42 664.5,298C 651.228,302.848 637.561,304.515 623.5,303C 617.013,301.508 611.513,298.341 607,293.5C 604.727,289.059 605.227,285.059 608.5,281.5 Z"/></g>
<g><path style="opacity:0.749" fill="#26061e" d="M 112.5,314.5 C 113.434,315.568 113.768,316.901 113.5,318.5C 111.265,318.795 109.265,318.461 107.5,317.5C 109.167,317.5 110.833,317.5 112.5,317.5C 112.5,316.5 112.5,315.5 112.5,314.5 Z"/></g>

        
<g><path style="opacity:0.998" fill="#1e1817" d="M 567.5,264.5 C 567.427,266.027 568.094,267.027 569.5,267.5C 570.833,268.167 571.833,269.167 572.5,270.5C 572.427,272.027 573.094,273.027 574.5,273.5C 576.786,276.463 578.619,279.796 580,283.5C 581.333,288.167 582.667,292.833 584,297.5C 600.968,293.905 616.801,296.738 631.5,306C 657.957,323.456 680.123,345.29 698,371.5C 700.529,375.926 702.362,380.592 703.5,385.5C 703.41,388.152 704.076,390.485 705.5,392.5C 706.37,394.032 706.036,395.532 704.5,397C 701.814,398.368 699.147,399.701 696.5,401C 687.337,403.06 678.337,403.893 669.5,403.5C 671.81,407.254 673.643,411.254 675,415.5C 676.619,423.927 678.619,432.26 681,440.5C 682.454,454.02 679.787,466.687 673,478.5C 663.749,491.086 652.582,501.586 639.5,510C 630.893,513.302 622.893,517.635 615.5,523C 597.029,529.157 579.029,536.491 561.5,545C 545.683,550.606 529.683,555.606 513.5,560C 521.167,567 528.833,574 536.5,581C 541.889,585.389 547.556,589.389 553.5,593C 559.667,598.5 565.833,604 572,609.5C 578.423,618.674 584.09,628.34 589,638.5C 598.788,663.109 604.621,688.609 606.5,715C 605.825,731.869 601.492,747.703 593.5,762.5C 592.711,762.783 592.044,763.283 591.5,764C 593.134,764.494 594.801,764.66 596.5,764.5C 603.201,764.682 609.201,766.849 614.5,771C 619.719,777.218 624.552,783.718 629,790.5C 633.064,794.786 637.897,797.952 643.5,800C 646.319,802.72 645.986,805.053 642.5,807C 635.644,812.007 627.978,814.507 619.5,814.5C 615.167,814.5 610.833,814.5 606.5,814.5C 606.263,815.791 606.596,816.791 607.5,817.5C 609.143,819.708 608.81,821.541 606.5,823C 599.093,824.492 591.593,825.325 584,825.5C 570.833,824.357 557.666,823.19 544.5,822C 528.753,817.882 515.253,810.049 504,798.5C 495.911,789.336 489.577,779.003 485,767.5C 473.056,772.575 460.556,774.908 447.5,774.5C 441.513,773.858 435.513,773.358 429.5,773C 427,772.625 424.667,771.792 422.5,770.5C 418.78,774.733 415.613,779.4 413,784.5C 396.732,800.487 377.065,808.487 354,808.5C 349.103,808.068 344.269,807.234 339.5,806C 337.709,805.585 336.376,804.585 335.5,803C 338.138,800.346 341.138,798.18 344.5,796.5C 345.973,795.928 347.307,795.095 348.5,794C 346.609,793.797 344.943,794.297 343.5,795.5C 334.515,796.911 325.515,796.744 316.5,795C 304.562,791.925 299.562,784.425 301.5,772.5C 312.272,769.781 321.939,764.947 330.5,758C 319.87,750.041 313.37,739.541 311,726.5C 307.602,710.123 307.769,693.789 311.5,677.5C 312.793,675.636 312.793,673.636 311.5,671.5C 310.893,671.624 310.56,671.957 310.5,672.5C 309.013,673.804 307.346,674.97 305.5,676C 298.059,677.01 291.059,675.843 284.5,672.5C 275.52,664.574 271.187,654.574 271.5,642.5C 272.908,618.525 282.242,598.358 299.5,582C 310.392,573.408 322.392,571.241 335.5,575.5C 336.947,576.885 337.947,576.552 338.5,574.5C 338.433,573.041 338.766,571.708 339.5,570.5C 340.757,569.377 340.424,568.711 338.5,568.5C 326.038,567.642 313.704,565.808 301.5,563C 279.858,557.675 258.525,551.341 237.5,544C 217.724,535.619 199.39,524.952 182.5,512C 179.629,509.297 176.962,506.464 174.5,503.5C 174.027,502.094 173.027,501.427 171.5,501.5C 155.808,488.291 146.475,471.458 143.5,451C 144.485,443.505 144.985,436.005 145,428.5C 139.772,431.396 134.272,432.062 128.5,430.5C 127.063,426.472 126.397,422.305 126.5,418C 128.512,388.142 139.012,361.642 158,338.5C 167.466,327.852 178.966,320.352 192.5,316C 198.537,315.303 204.537,315.47 210.5,316.5C 212.5,305.171 217.167,295.171 224.5,286.5C 225.906,286.027 226.573,285.027 226.5,283.5C 228.616,277.549 231.783,272.215 236,267.5C 246.355,255.578 258.188,245.412 271.5,237C 347.364,211.021 424.364,207.021 502.5,225C 512.956,228.227 522.956,232.56 532.5,238C 541.167,244.671 550.501,250.338 560.5,255C 562.476,258.463 564.81,261.63 567.5,264.5 Z"/></g>
<g><path style="opacity:1" fill="#bf4929" d="M 689.5,370.5 C 691.143,387.025 683.81,394.191 667.5,392C 659.85,390.226 652.517,387.893 645.5,385C 647.911,386.955 650.411,388.789 653,390.5C 653.6,392.91 654.766,394.91 656.5,396.5C 658.725,400.235 661.558,403.568 665,406.5C 667.332,409.822 668.498,413.489 668.5,417.5C 664.857,445.287 652.857,468.787 632.5,488C 612.937,503.194 591.603,515.527 568.5,525C 543.245,532.311 518.245,539.977 493.5,548C 469.713,552.803 445.713,555.97 421.5,557.5C 399.511,556.721 377.511,556.221 355.5,556C 300.326,547.075 248.326,529.075 199.5,502C 188.352,493.999 177.852,485.166 168,475.5C 163.667,469.833 159.333,464.167 155,458.5C 152.079,451.45 150.912,444.117 151.5,436.5C 153.967,428.619 154.967,420.619 154.5,412.5C 153.817,412.863 153.15,413.196 152.5,413.5C 148.453,418.44 143.286,421.44 137,422.5C 134.013,422.01 132.18,420.343 131.5,417.5C 133.163,407.851 134.663,398.185 136,388.5C 141,378.167 146,367.833 151,357.5C 160.956,339.874 175.456,327.707 194.5,321C 201.21,320.952 207.877,320.786 214.5,320.5C 215.486,315.039 216.986,309.705 219,304.5C 225.064,295.43 230.731,286.097 236,276.5C 248.038,261.454 262.205,248.954 278.5,239C 321.88,226.104 366.213,219.27 411.5,218.5C 429.662,220.888 447.996,222.721 466.5,224C 488.815,226.061 509.815,232.394 529.5,243C 538.665,249.084 547.998,254.917 557.5,260.5C 569.837,272.665 577.337,287.332 580,304.5C 582.319,310.473 585.653,315.807 590,320.5C 590.167,320 590.333,319.5 590.5,319C 588.062,313.631 586.062,308.131 584.5,302.5C 599.892,299.165 614.225,301.665 627.5,310C 633.833,314.333 640.167,318.667 646.5,323C 656.03,332.864 665.863,342.364 676,351.5C 681.01,357.54 685.51,363.874 689.5,370.5 Z"/></g>
<g><path style="opacity:0.725" fill="#7b7b7f" d="M 567.5,264.5 C 568.906,264.973 569.573,265.973 569.5,267.5C 568.094,267.027 567.427,266.027 567.5,264.5 Z"/></g>
<g><path style="opacity:0.545" fill="#7b7c80" d="M 572.5,270.5 C 573.906,270.973 574.573,271.973 574.5,273.5C 573.094,273.027 572.427,272.027 572.5,270.5 Z"/></g>
<g><path style="opacity:0.486" fill="#7c7c81" d="M 226.5,283.5 C 226.573,285.027 225.906,286.027 224.5,286.5C 224.427,284.973 225.094,283.973 226.5,283.5 Z"/></g>
<g><path style="opacity:1" fill="#120d0c" d="M 618.5,337.5 C 624.632,343.789 631.299,349.623 638.5,355C 649.79,362.609 661.79,368.943 674.5,374C 677.242,375.886 678.909,378.386 679.5,381.5C 675.869,381.84 672.536,381.006 669.5,379C 657.665,371.917 645.998,364.583 634.5,357C 629.097,352.719 624.263,347.886 620,342.5C 618.991,340.975 618.491,339.308 618.5,337.5 Z"/></g>
<g><path style="opacity:1" fill="#914423" d="M 689.5,370.5 C 695.642,377.437 698.976,385.437 699.5,394.5C 689.842,398.206 679.842,399.373 669.5,398C 665.09,396.449 660.757,394.949 656.5,393.5C 656.5,394.5 656.5,395.5 656.5,396.5C 654.766,394.91 653.6,392.91 653,390.5C 650.411,388.789 647.911,386.955 645.5,385C 652.517,387.893 659.85,390.226 667.5,392C 683.81,394.191 691.143,387.025 689.5,370.5 Z"/></g>
<g><path style="opacity:1" fill="#100a09" d="M 147.5,382.5 C 148.993,383.312 149.66,384.645 149.5,386.5C 148.225,393.816 147.058,401.15 146,408.5C 144.374,411.128 142.374,413.461 140,415.5C 141.168,404.157 143.668,393.157 147.5,382.5 Z"/></g>
<g><path style="opacity:0.686" fill="#626367" d="M 703.5,385.5 C 704.924,387.515 705.59,389.848 705.5,392.5C 704.076,390.485 703.41,388.152 703.5,385.5 Z"/></g>
<g><path style="opacity:1" fill="#904423" d="M 152.5,413.5 C 151.147,417.032 149.147,420.199 146.5,423C 142.539,424.598 138.539,426.098 134.5,427.5C 132.024,424.717 131.024,421.384 131.5,417.5C 132.18,420.343 134.013,422.01 137,422.5C 143.286,421.44 148.453,418.44 152.5,413.5 Z"/></g>
<g><path style="opacity:1" fill="#914422" d="M 668.5,417.5 C 669.586,417.62 670.253,418.287 670.5,419.5C 672.505,428.85 674.505,438.183 676.5,447.5C 675.399,460.687 670.732,472.354 662.5,482.5C 657.167,487.167 652.167,492.167 647.5,497.5C 636.091,503.71 624.757,510.21 613.5,517C 606.363,518.934 599.363,521.268 592.5,524C 536.568,551.456 477.401,565.956 415,567.5C 386.535,565.415 358.035,563.915 329.5,563C 288.931,556.527 250.265,544.193 213.5,526C 189.858,513.027 170.692,495.194 156,472.5C 149.589,460.938 148.089,448.938 151.5,436.5C 150.912,444.117 152.079,451.45 155,458.5C 159.333,464.167 163.667,469.833 168,475.5C 177.852,485.166 188.352,493.999 199.5,502C 248.326,529.075 300.326,547.075 355.5,556C 377.511,556.221 399.511,556.721 421.5,557.5C 445.713,555.97 469.713,552.803 493.5,548C 518.245,539.977 543.245,532.311 568.5,525C 591.603,515.527 612.937,503.194 632.5,488C 652.857,468.787 664.857,445.287 668.5,417.5 Z"/></g>
<g><path style="opacity:1" fill="#361a0d" d="M 662.5,482.5 C 658.5,488.5 653.5,493.5 647.5,497.5C 652.167,492.167 657.167,487.167 662.5,482.5 Z"/></g>
<g><path style="opacity:0.718" fill="#7d7d82" d="M 171.5,501.5 C 173.027,501.427 174.027,502.094 174.5,503.5C 172.973,503.573 171.973,502.906 171.5,501.5 Z"/></g>
<g><path style="opacity:1" fill="#904422" d="M 478.5,664.5 C 479.166,667.689 479.833,671.023 480.5,674.5C 491.766,680.708 502.099,679.541 511.5,671C 512.5,670.333 513.5,670.333 514.5,671C 512.476,676.438 510.142,681.772 507.5,687C 510.8,688.879 514.134,688.879 517.5,687C 534.375,674.082 542.875,656.915 543,635.5C 540.721,625.964 535.554,618.464 527.5,613C 517.543,605.023 506.21,600.356 493.5,599C 483.452,595.672 478.452,599.172 478.5,609.5C 479.237,614.315 480.57,618.982 482.5,623.5C 479.479,625.423 476.146,626.423 472.5,626.5C 472.923,625.735 473.257,624.902 473.5,624C 469.779,615.709 469.779,607.543 473.5,599.5C 473.167,598.5 472.5,597.833 471.5,597.5C 469.364,598.472 468.197,600.139 468,602.5C 467.081,608.966 467.581,615.299 469.5,621.5C 459.016,625.31 450.516,631.643 444,640.5C 430.726,618.269 417.226,596.269 403.5,574.5C 414.63,572.841 425.963,571.841 437.5,571.5C 461.059,569.586 484.392,566.42 507.5,562C 515.432,567.928 522.765,574.595 529.5,582C 535,586.167 540.5,590.333 546,594.5C 546.333,596.047 545.833,597.38 544.5,598.5C 548.847,601.371 552.014,605.371 554,610.5C 567.091,647.562 556.924,676.395 523.5,697C 501.368,707.015 486.535,700.515 479,677.5C 478.501,673.179 478.334,668.846 478.5,664.5 Z"/></g>
<g><path style="opacity:0.118" fill="#c1c1c8" d="M 338.5,568.5 C 340.424,568.711 340.757,569.377 339.5,570.5C 339.167,569.833 338.833,569.167 338.5,568.5 Z"/></g>
<g><path style="opacity:1" fill="#bf4929" d="M 342.5,618.5 C 341.534,620.792 340.867,623.292 340.5,626C 342.271,635.937 343.604,645.937 344.5,656C 344.554,658.873 343.888,661.54 342.5,664C 336.849,663.188 331.516,661.188 326.5,658C 319.953,652.954 314.286,647.12 309.5,640.5C 307.682,644.136 305.849,647.802 304,651.5C 301.757,653.282 299.257,653.782 296.5,653C 286.625,647.741 283.125,639.575 286,628.5C 287.608,614.006 293.275,601.339 303,590.5C 307.998,584.965 313.498,580.298 319.5,576.5C 326.045,576.302 332.045,577.969 337.5,581.5C 337.712,583.384 338.712,584.717 340.5,585.5C 341.487,582.232 341.82,578.898 341.5,575.5C 342.216,573.444 342.883,571.277 343.5,569C 347.601,568.516 351.601,569.016 355.5,570.5C 349.146,585.93 344.812,601.93 342.5,618.5 Z"/></g>
<g><path style="opacity:1" fill="#b88a7d" d="M 360.5,674.5 C 365.636,683.259 371.636,691.426 378.5,699C 384.877,703.189 391.544,706.855 398.5,710C 417.397,716.636 424.897,710.136 421,690.5C 413.216,671.683 409.383,652.016 409.5,631.5C 398.985,626.788 387.985,624.121 376.5,623.5C 367.747,622.705 360.081,625.039 353.5,630.5C 351.158,627.493 348.825,624.493 346.5,621.5C 349.487,606.708 352.987,592.041 357,577.5C 357.93,575.064 359.097,572.731 360.5,570.5C 364.795,569.339 369.129,569.172 373.5,570C 381.953,570.635 390.287,571.801 398.5,573.5C 412.833,597.5 427.167,621.5 441.5,645.5C 436.166,659.522 436.333,673.522 442,687.5C 449.259,695.897 458.426,699.063 469.5,697C 472.798,696.513 475.798,695.347 478.5,693.5C 480.786,693.96 482.119,695.293 482.5,697.5C 479.307,719.149 479.973,740.649 484.5,762C 484.167,762.5 483.833,763 483.5,763.5C 454.121,772.925 425.787,770.425 398.5,756C 385.188,748.027 373.021,738.527 362,727.5C 358.333,721.833 354.667,716.167 351,710.5C 348.591,702.618 346.757,694.618 345.5,686.5C 351.447,683.692 356.447,679.692 360.5,674.5 Z"/></g>
<g><path style="opacity:1" fill="#351a0d" d="M 437.5,571.5 C 425.963,571.841 414.63,572.841 403.5,574.5C 402.596,573.791 402.263,572.791 402.5,571.5C 414.167,571.5 425.833,571.5 437.5,571.5 Z"/></g>
<g><path style="opacity:0.553" fill="#8c8d91" d="M 338.5,574.5 C 337.947,576.552 336.947,576.885 335.5,575.5C 336.609,575.443 337.609,575.11 338.5,574.5 Z"/></g>
<g><path style="opacity:1" fill="#6b3022" d="M 341.5,575.5 C 341.82,578.898 341.487,582.232 340.5,585.5C 338.712,584.717 337.712,583.384 337.5,581.5C 338.458,581.953 339.292,582.619 340,583.5C 340.183,580.635 340.683,577.969 341.5,575.5 Z"/></g>
<g><path style="opacity:1" fill="#904422" d="M 319.5,576.5 C 313.498,580.298 307.998,584.965 303,590.5C 293.275,601.339 287.608,614.006 286,628.5C 283.125,639.575 286.625,647.741 296.5,653C 299.257,653.782 301.757,653.282 304,651.5C 305.849,647.802 307.682,644.136 309.5,640.5C 314.286,647.12 319.953,652.954 326.5,658C 331.516,661.188 336.849,663.188 342.5,664C 343.888,661.54 344.554,658.873 344.5,656C 343.604,645.937 342.271,635.937 340.5,626C 340.867,623.292 341.534,620.792 342.5,618.5C 342.656,621.066 342.322,623.566 341.5,626C 354.654,638.43 359.821,653.597 357,671.5C 343.497,686.123 329.83,686.123 316,671.5C 316.27,667.131 316.104,662.798 315.5,658.5C 312.756,662.751 309.422,666.585 305.5,670C 299.786,671.57 294.12,671.237 288.5,669C 278.166,659.382 274.332,647.548 277,633.5C 280.837,610.292 292.337,592.125 311.5,579C 313.909,577.293 316.575,576.46 319.5,576.5 Z"/></g>
<g><path style="opacity:1" fill="#bf4929" d="M 478.5,664.5 C 477.698,663.115 477.031,663.282 476.5,665C 475.852,666.44 475.519,667.94 475.5,669.5C 474.09,678.893 468.423,683.893 458.5,684.5C 456.423,684.308 454.423,683.808 452.5,683C 448.306,679.402 444.972,675.235 442.5,670.5C 440.358,647.343 450.358,632.676 472.5,626.5C 476.146,626.423 479.479,625.423 482.5,623.5C 480.57,618.982 479.237,614.315 478.5,609.5C 478.452,599.172 483.452,595.672 493.5,599C 506.21,600.356 517.543,605.023 527.5,613C 535.554,618.464 540.721,625.964 543,635.5C 542.875,656.915 534.375,674.082 517.5,687C 514.134,688.879 510.8,688.879 507.5,687C 510.142,681.772 512.476,676.438 514.5,671C 513.5,670.333 512.5,670.333 511.5,671C 502.099,679.541 491.766,680.708 480.5,674.5C 479.833,671.023 479.166,667.689 478.5,664.5 Z"/></g>
<g><path style="opacity:1" fill="#bf4829" d="M 598.5,692.5 C 599.489,721.099 590.489,745.932 571.5,767C 560.734,776.049 548.4,781.882 534.5,784.5C 518.048,781.551 507.882,771.884 504,755.5C 503.528,748.944 502.695,742.444 501.5,736C 501.833,734.167 502.167,732.333 502.5,730.5C 514.579,739.962 527.245,740.796 540.5,733C 549.488,725.157 556.654,715.99 562,705.5C 563.632,700.97 564.632,696.304 565,691.5C 565.532,679.978 566.366,668.478 567.5,657C 567.295,651.63 566.628,646.463 565.5,641.5C 564.818,628.074 561.485,615.407 555.5,603.5C 556.002,602.479 556.668,602.312 557.5,603C 564.067,608.57 569.567,615.07 574,622.5C 585.833,644.496 593.999,667.829 598.5,692.5 Z"/></g>
<g><path style="opacity:1" fill="#d9ab97" d="M 360.5,674.5 C 363.081,665.176 362.914,655.842 360,646.5C 358.097,641.032 355.93,635.699 353.5,630.5C 360.081,625.039 367.747,622.705 376.5,623.5C 387.985,624.121 398.985,626.788 409.5,631.5C 409.383,652.016 413.216,671.683 421,690.5C 424.897,710.136 417.397,716.636 398.5,710C 391.544,706.855 384.877,703.189 378.5,699C 371.636,691.426 365.636,683.259 360.5,674.5 Z"/></g>
<g><path style="opacity:1" fill="#904422" d="M 565.5,641.5 C 566.628,646.463 567.295,651.63 567.5,657C 566.366,668.478 565.532,679.978 565,691.5C 564.632,696.304 563.632,700.97 562,705.5C 556.654,715.99 549.488,725.157 540.5,733C 527.245,740.796 514.579,739.962 502.5,730.5C 502.167,732.333 501.833,734.167 501.5,736C 502.695,742.444 503.528,748.944 504,755.5C 507.882,771.884 518.048,781.551 534.5,784.5C 548.4,781.882 560.734,776.049 571.5,767C 590.489,745.932 599.489,721.099 598.5,692.5C 602.271,711.126 600.771,729.459 594,747.5C 590.779,753.174 587.945,759.008 585.5,765C 585.755,766.326 586.422,767.326 587.5,768C 598.616,767.367 607.783,771.2 615,779.5C 618.98,786.624 623.814,793.124 629.5,799C 632.371,800.935 635.371,802.601 638.5,804C 627.231,809.772 615.231,812.105 602.5,811C 601.427,814.112 601.427,817.279 602.5,820.5C 584.783,820.736 567.116,819.903 549.5,818C 516.675,809.175 495.842,788.342 487,755.5C 483.667,736.832 483.667,718.165 487,699.5C 491.655,704.166 497.322,706.499 504,706.5C 532.966,702.548 551.966,686.548 561,658.5C 562.072,652.609 563.572,646.942 565.5,641.5 Z"/></g>
<g><path style="opacity:0.18" fill="#9b9ca1" d="M 310.5,672.5 C 310.56,671.957 310.893,671.624 311.5,671.5C 312.793,673.636 312.793,675.636 311.5,677.5C 311.784,675.585 311.451,673.919 310.5,672.5 Z"/></g>
<g><path style="opacity:1" fill="#904422" d="M 475.5,669.5 C 475.399,675.951 475.899,682.284 477,688.5C 472.998,691.925 468.332,693.258 463,692.5C 453.344,693.516 447.01,689.516 444,680.5C 442.957,677.243 442.457,673.91 442.5,670.5C 444.972,675.235 448.306,679.402 452.5,683C 454.423,683.808 456.423,684.308 458.5,684.5C 468.423,683.893 474.09,678.893 475.5,669.5 Z"/></g>
<g><path style="opacity:1" fill="#904322" d="M 352.5,720.5 C 351.542,720.047 350.708,719.381 350,718.5C 349,720.5 348,722.5 347,724.5C 338.32,720.657 330.654,715.324 324,708.5C 322.417,720.502 325.084,731.502 332,741.5C 338.772,748.117 345.939,754.117 353.5,759.5C 344.653,759.441 336.986,756.441 330.5,750.5C 327.146,746.981 323.98,743.314 321,739.5C 312.829,719.599 311.496,699.266 317,678.5C 323.898,685.032 332.065,687.698 341.5,686.5C 342.041,694.666 343.541,702.666 346,710.5C 348.143,713.962 350.31,717.296 352.5,720.5 Z"/></g>
<g><path style="opacity:1" fill="#bf4928" d="M 352.5,720.5 C 354.255,723.68 356.255,726.68 358.5,729.5C 361.5,734.5 365.5,738.5 370.5,741.5C 372.806,743.139 374.806,745.139 376.5,747.5C 379.123,754.311 382.457,760.811 386.5,767C 376.659,767.776 367.326,765.943 358.5,761.5C 356.95,760.559 355.284,759.893 353.5,759.5C 345.939,754.117 338.772,748.117 332,741.5C 325.084,731.502 322.417,720.502 324,708.5C 330.654,715.324 338.32,720.657 347,724.5C 348,722.5 349,720.5 350,718.5C 350.708,719.381 351.542,720.047 352.5,720.5 Z"/></g>
<g><path style="opacity:1" fill="#592518" d="M 358.5,729.5 C 362.833,733.167 366.833,737.167 370.5,741.5C 365.5,738.5 361.5,734.5 358.5,729.5 Z"/></g>
<g><path style="opacity:1" fill="#904422" d="M 376.5,747.5 C 386.001,753.478 395.667,759.311 405.5,765C 408.56,765.848 411.56,766.848 414.5,768C 415.554,769.388 415.72,770.888 415,772.5C 403.245,790.64 386.411,800.474 364.5,802C 357.816,803.87 351.15,803.87 344.5,802C 353.524,795.983 360.691,788.483 366,779.5C 365.439,778.978 364.772,778.645 364,778.5C 361.062,779.283 358.896,780.95 357.5,783.5C 358.547,780.404 359.88,777.404 361.5,774.5C 351.037,772.068 340.87,768.735 331,764.5C 329.862,764.989 328.695,765.322 327.5,765.5C 330.385,763.969 333.052,761.969 335.5,759.5C 342.062,762.14 348.729,764.474 355.5,766.5C 356.442,766.392 357.275,766.059 358,765.5C 357.645,764.041 357.811,762.707 358.5,761.5C 367.326,765.943 376.659,767.776 386.5,767C 382.457,760.811 379.123,754.311 376.5,747.5 Z"/></g>
<g><path style="opacity:0.039" fill="#cfd0d7" d="M 593.5,762.5 C 594.5,763.167 595.5,763.833 596.5,764.5C 594.801,764.66 593.134,764.494 591.5,764C 592.044,763.283 592.711,762.783 593.5,762.5 Z"/></g>
<g><path style="opacity:1" fill="#bf4929" d="M 357.5,783.5 C 353.849,784.659 350.515,786.326 347.5,788.5C 335.721,791.431 324.054,791.097 312.5,787.5C 310.873,785.37 309.04,783.37 307,781.5C 306.506,779.866 306.34,778.199 306.5,776.5C 308.553,776.598 310.22,775.931 311.5,774.5C 317.489,772.509 322.823,769.509 327.5,765.5C 328.695,765.322 329.862,764.989 331,764.5C 340.87,768.735 351.037,772.068 361.5,774.5C 359.88,777.404 358.547,780.404 357.5,783.5 Z"/></g>
<g><path style="opacity:1" fill="#6c2f1f" d="M 311.5,774.5 C 310.22,775.931 308.553,776.598 306.5,776.5C 306.34,778.199 306.506,779.866 307,781.5C 309.04,783.37 310.873,785.37 312.5,787.5C 306.834,785.49 304.5,781.49 305.5,775.5C 307.5,775.167 309.5,774.833 311.5,774.5 Z"/></g>
<g><path style="opacity:1" fill="#be4928" d="M 578.5,780.5 C 592.956,778.595 605.122,782.928 615,793.5C 615.688,794.332 615.521,794.998 614.5,795.5C 607.334,800.602 599.334,802.935 590.5,802.5C 590.692,805.601 591.358,808.601 592.5,811.5C 587.462,812.33 582.795,811.164 578.5,808C 572.243,803.287 566.076,798.454 560,793.5C 558.148,790.653 558.648,788.153 561.5,786C 567.137,783.682 572.803,781.849 578.5,780.5 Z"/></g>
<g><path style="opacity:1" fill="#542215" d="M 357.5,783.5 C 354.753,786.207 351.42,787.873 347.5,788.5C 350.515,786.326 353.849,784.659 357.5,783.5 Z"/></g>
<g><path style="opacity:0.165" fill="#a9aab0" d="M 344.5,796.5 C 344.5,795.833 344.167,795.5 343.5,795.5C 344.943,794.297 346.609,793.797 348.5,794C 347.307,795.095 345.973,795.928 344.5,796.5 Z"/></g>
<g><path style="opacity:0.282" fill="#a8a9af" d="M 619.5,814.5 C 615.232,814.869 611.232,815.869 607.5,817.5C 606.596,816.791 606.263,815.791 606.5,814.5C 610.833,814.5 615.167,814.5 619.5,814.5 Z"/></g>

        
<g><path style="opacity:0.904" fill="#020202" d="M 492.5,247.5 C 515.533,247.263 533.366,256.596 546,275.5C 550.875,284.412 555.042,293.579 558.5,303C 558.158,305.515 556.825,307.348 554.5,308.5C 552.205,306.52 549.539,305.353 546.5,305C 526.722,303.823 507.555,306.657 489,313.5C 491.296,328.823 493.796,344.156 496.5,359.5C 515.133,358.568 532.466,353.235 548.5,343.5C 551.079,344.888 551.079,346.388 548.5,348C 540.888,351.139 533.554,354.806 526.5,359C 517.117,363.072 507.45,366.239 497.5,368.5C 497.666,377.506 497.5,386.506 497,395.5C 496.586,395.957 496.086,396.291 495.5,396.5C 494.502,387.525 494.168,378.525 494.5,369.5C 474.538,371.28 454.538,371.78 434.5,371C 431.711,370.759 429.044,370.092 426.5,369C 429.84,366.991 433.507,365.824 437.5,365.5C 456.034,367.058 474.367,365.724 492.5,361.5C 493.422,356.507 493.255,351.507 492,346.5C 490.128,336.142 488.128,325.809 486,315.5C 485.439,314.978 484.772,314.645 484,314.5C 460.075,322.547 437.575,333.38 416.5,347C 413.333,350.167 410.167,353.333 407,356.5C 406.773,363.246 407.94,369.746 410.5,376C 408.984,382.558 406.484,388.725 403,394.5C 390.558,401.825 379.725,399.658 370.5,388C 367.5,386 364.5,386 361.5,388C 355.888,397.661 347.888,400.327 337.5,396C 334.667,394.5 332.5,392.333 331,389.5C 329.616,383.862 328.45,378.195 327.5,372.5C 326.325,372.281 325.325,372.614 324.5,373.5C 318.891,387.897 310.891,400.73 300.5,412C 298.223,413.959 295.723,415.459 293,416.5C 282.155,412.329 272.322,406.496 263.5,399C 245.45,388.357 226.117,384.857 205.5,388.5C 197.369,365.942 200.535,344.942 215,325.5C 215.218,305.905 222.385,289.405 236.5,276C 243.041,271.46 250.041,267.793 257.5,265C 263.793,264.142 269.793,265.142 275.5,268C 294.627,282.096 309.127,299.929 319,321.5C 323.344,332.367 327.177,343.367 330.5,354.5C 342.609,360.703 355.443,364.37 369,365.5C 378.23,363.734 387.397,361.734 396.5,359.5C 395.021,355.198 393.521,350.865 392,346.5C 391.46,332.433 394.46,319.1 401,306.5C 406.344,296.474 412.677,287.141 420,278.5C 431.941,268.442 445.108,260.275 459.5,254C 470.366,250.443 481.366,248.276 492.5,247.5 Z"/></g>
<g><path style="opacity:1" fill="#1b1b1b" d="M 491.5,251.5 C 512.015,251.342 528.515,259.342 541,275.5C 546.139,283.77 550.139,292.437 553,301.5C 545.161,299.952 536.995,299.452 528.5,300C 514.582,301.784 500.915,304.451 487.5,308C 484.415,296.075 480.915,284.242 477,272.5C 475.926,268.681 474.093,265.348 471.5,262.5C 475.843,277.668 480.176,293.168 484.5,309C 466.264,316.451 448.264,324.451 430.5,333C 420.352,339.081 411.352,346.581 403.5,355.5C 402.549,356.326 401.549,356.492 400.5,356C 397.116,351.224 395.116,345.891 394.5,340C 396.138,329.947 398.638,320.114 402,310.5C 405.755,305.997 408.755,300.997 411,295.5C 415.048,291.12 418.715,286.454 422,281.5C 436.682,268.507 453.516,259.341 472.5,254C 478.988,253.216 485.322,252.383 491.5,251.5 Z"/></g>
<g><path style="opacity:1" fill="#1b1b1b" d="M 256.5,269.5 C 263.905,268.705 270.571,270.539 276.5,275C 302.483,295.471 318.317,321.971 324,354.5C 322.601,353.773 321.101,353.273 319.5,353C 298.875,335.523 275.209,324.189 248.5,319C 238.929,317.048 229.263,316.214 219.5,316.5C 223.054,293.637 235.388,277.97 256.5,269.5 Z"/></g>
<g><path style="opacity:1" fill="#f3f2e5" d="M 223.5,320.5 C 258.583,321.886 289.249,334.053 315.5,357C 322.049,356.381 324.215,359.214 322,365.5C 317.972,381.561 310.305,395.561 299,407.5C 302.815,380.294 292.981,359.46 269.5,345C 256.136,341.189 243.469,342.856 231.5,350C 220.786,357.876 212.452,367.709 206.5,379.5C 203.61,364.357 205.777,350.024 213,336.5C 216.356,330.996 219.856,325.663 223.5,320.5 Z"/></g>
<g><path style="opacity:1" fill="#1b1b1b" d="M 327.5,358.5 C 327.56,357.957 327.893,357.624 328.5,357.5C 343.24,366.685 359.24,370.519 376.5,369C 385.084,366.187 393.751,363.687 402.5,361.5C 404.299,368.98 404.799,376.646 404,384.5C 402.453,391.217 398.286,394.884 391.5,395.5C 383.4,395.118 377.067,391.618 372.5,385C 367.996,381.538 363.663,381.704 359.5,385.5C 357.294,388.203 354.961,390.703 352.5,393C 347.713,393.879 343.047,393.545 338.5,392C 337.333,390.833 336.167,389.667 335,388.5C 332.616,381.015 331.283,373.348 331,365.5C 330.856,362.558 329.689,360.224 327.5,358.5 Z"/></g>

        
<g><path style="opacity:0.985" fill="#20201f" d="M 591.5,350.5 C 590.89,349.609 590.557,348.609 590.5,347.5C 598.093,347.538 604.593,350.538 610,356.5C 612.002,361.007 613.502,365.674 614.5,370.5C 614.02,374.293 612.353,377.46 609.5,380C 603.352,383.078 597.019,385.578 590.5,387.5C 584.054,386.936 577.72,385.77 571.5,384C 563.833,383.333 556.167,383.333 548.5,384C 540.284,385.787 532.618,388.62 525.5,392.5C 525.631,391.624 525.298,390.957 524.5,390.5C 523.261,390.942 522.261,391.609 521.5,392.5C 520.791,393.404 519.791,393.737 518.5,393.5C 514.838,393.723 511.505,394.723 508.5,396.5C 505.759,396.707 503.426,397.707 501.5,399.5C 501.158,400.338 500.492,400.672 499.5,400.5C 494.914,401.46 490.914,403.46 487.5,406.5C 487.158,407.338 486.492,407.672 485.5,407.5C 483.973,407.427 482.973,408.094 482.5,409.5C 480.326,409.75 478.659,410.75 477.5,412.5C 476.167,412.5 475.5,413.167 475.5,414.5C 474.878,415.627 474.045,416.627 473,417.5C 471.951,416.483 470.784,416.316 469.5,417C 464.147,419.701 458.814,422.368 453.5,425C 440.182,427.885 426.849,430.552 413.5,433C 407.153,442.527 401.986,452.694 398,463.5C 395.706,464.852 393.206,465.519 390.5,465.5C 382.205,463.808 373.871,462.308 365.5,461C 361.367,455.866 356.867,451.032 352,446.5C 349.027,442.026 345.86,437.693 342.5,433.5C 328.924,432.583 315.59,430.25 302.5,426.5C 299.905,427.237 297.238,427.237 294.5,426.5C 294.953,425.542 295.619,424.708 296.5,424C 295.906,423.536 295.239,423.369 294.5,423.5C 290.703,423.128 287.37,421.794 284.5,419.5C 281.485,417.326 278.151,415.659 274.5,414.5C 273.415,412.413 271.749,411.08 269.5,410.5C 268.508,410.672 267.842,410.338 267.5,409.5C 267.027,408.094 266.027,407.427 264.5,407.5C 263.352,404.913 261.685,403.913 259.5,404.5C 250.198,398.055 239.864,393.722 228.5,391.5C 218.197,392.724 207.863,393.224 197.5,393C 182.151,389.16 173.651,379.326 172,363.5C 171.333,358.833 171.333,354.167 172,349.5C 172.036,347.059 172.869,345.059 174.5,343.5C 175.086,343.709 175.586,344.043 176,344.5C 175.529,355.347 177.529,365.681 182,375.5C 187.543,382.974 195.043,386.974 204.5,387.5C 231.733,383.303 255.733,390.137 276.5,408C 290.297,415.71 304.964,421.044 320.5,424C 344.953,424.754 369.453,425.587 394,426.5C 413.476,426.449 432.642,423.949 451.5,419C 468.5,410 485.5,401 502.5,392C 517.586,386.527 532.92,381.86 548.5,378C 556.5,377.333 564.5,377.333 572.5,378C 579.063,379.986 585.73,380.986 592.5,381C 596.749,378.806 601.082,376.806 605.5,375C 606.872,373.758 607.872,372.258 608.5,370.5C 607.098,366.461 605.598,362.461 604,358.5C 599.684,355.934 595.517,353.267 591.5,350.5 Z"/></g>
<g><path style="opacity:0.231" fill="#9b9b93" d="M 590.5,347.5 C 590.557,348.609 590.89,349.609 591.5,350.5C 589.448,349.947 589.115,348.947 590.5,347.5 Z"/></g>
<g><path style="opacity:0.012" fill="#b3b2a9" d="M 525.5,392.5 C 524.472,392.926 523.139,392.926 521.5,392.5C 522.261,391.609 523.261,390.942 524.5,390.5C 525.298,390.957 525.631,391.624 525.5,392.5 Z"/></g>
<g><path style="opacity:0.149" fill="#d6d5ca" d="M 518.5,393.5 C 515.495,395.277 512.162,396.277 508.5,396.5C 511.505,394.723 514.838,393.723 518.5,393.5 Z"/></g>
<g><path style="opacity:0.196" fill="#d2d1c6" d="M 508.5,396.5 C 506.574,398.293 504.241,399.293 501.5,399.5C 503.426,397.707 505.759,396.707 508.5,396.5 Z"/></g>
<g><path style="opacity:0.294" fill="#a8a79f" d="M 259.5,404.5 C 261.685,403.913 263.352,404.913 264.5,407.5C 262.589,406.925 260.922,405.925 259.5,404.5 Z"/></g>
<g><path style="opacity:0.173" fill="#d8d7cc" d="M 499.5,400.5 C 495.818,403.008 491.818,405.008 487.5,406.5C 490.914,403.46 494.914,401.46 499.5,400.5 Z"/></g>
<g><path style="opacity:0.235" fill="#d1d0c5" d="M 264.5,407.5 C 266.027,407.427 267.027,408.094 267.5,409.5C 265.973,409.573 264.973,408.906 264.5,407.5 Z"/></g>
<g><path style="opacity:0.141" fill="#dfded2" d="M 485.5,407.5 C 485.027,408.906 484.027,409.573 482.5,409.5C 482.973,408.094 483.973,407.427 485.5,407.5 Z"/></g>
<g><path style="opacity:0.067" fill="#d3d2c7" d="M 482.5,409.5 C 481.341,411.25 479.674,412.25 477.5,412.5C 478.659,410.75 480.326,409.75 482.5,409.5 Z"/></g>
<g><path style="opacity:0.012" fill="#d5d4c9" d="M 477.5,412.5 C 477.167,413.5 476.5,414.167 475.5,414.5C 475.5,413.167 476.167,412.5 477.5,412.5 Z"/></g>
<g><path style="opacity:0.322" fill="#b9b8af" d="M 269.5,410.5 C 271.749,411.08 273.415,412.413 274.5,414.5C 272.251,413.92 270.585,412.587 269.5,410.5 Z"/></g>
<g><path style="opacity:0.196" fill="#d0d0c5" d="M 274.5,414.5 C 278.151,415.659 281.485,417.326 284.5,419.5C 280.58,418.873 277.247,417.207 274.5,414.5 Z"/></g>
<g><path style="opacity:0.027" fill="#d9d8cd" d="M 294.5,423.5 C 295.239,423.369 295.906,423.536 296.5,424C 295.619,424.708 294.953,425.542 294.5,426.5C 293.375,425.652 293.375,424.652 294.5,423.5 Z"/></g>
<g><path style="opacity:1" fill="#f1f0e3" d="M 350.5,430.5 C 360.215,430.459 369.882,431.125 379.5,432.5C 389.146,431.411 398.812,431.245 408.5,432C 402.865,440.766 397.865,449.933 393.5,459.5C 392.833,459.833 392.167,460.167 391.5,460.5C 383.983,458.204 376.316,456.704 368.5,456C 361.627,448.795 355.127,441.295 349,433.5C 348.761,432.212 349.261,431.212 350.5,430.5 Z"/></g>

        
<g><path style="opacity:0.991" fill="#212120" d="M 344.5,175.5 C 351.144,185.439 357.311,195.772 363,206.5C 368.262,210.091 372.429,214.591 375.5,220C 373.738,228.307 368.572,232.141 360,231.5C 358.106,231.42 356.273,231.087 354.5,230.5C 344.08,219.095 338.414,205.595 337.5,190C 337.607,183.955 339.94,179.122 344.5,175.5 Z"/></g>
<g><path style="opacity:1" fill="#f0efe2" d="M 360.5,210.5 C 360.5,212.5 360.5,214.5 360.5,216.5C 357.315,216.98 354.481,216.314 352,214.5C 349.696,206.742 346.529,199.408 342.5,192.5C 342.192,190.076 342.526,187.743 343.5,185.5C 344.5,184.167 345.5,184.167 346.5,185.5C 350.925,194.022 355.592,202.356 360.5,210.5 Z"/></g>
<g><path style="opacity:0.992" fill="#1c1c1b" d="M 392.5,187.5 C 394.39,187.297 395.89,187.963 397,189.5C 401.387,198.534 407.221,206.368 414.5,213C 398.563,220.196 390.563,215.029 390.5,197.5C 390.253,193.865 390.92,190.532 392.5,187.5 Z"/></g>
<g><path style="opacity:1" fill="#d9d8cb" d="M 342.5,192.5 C 346.529,199.408 349.696,206.742 352,214.5C 354.481,216.314 357.315,216.98 360.5,216.5C 360.5,214.5 360.5,212.5 360.5,210.5C 374.506,219.653 373.172,225.153 356.5,227C 348.282,216.986 343.616,205.486 342.5,192.5 Z"/></g>
<g><path style="opacity:1" fill="#cfcec3" d="M 394.5,196.5 C 395.496,196.414 396.329,196.748 397,197.5C 399.215,202.1 402.048,206.266 405.5,210C 402.007,211.004 398.841,210.504 396,208.5C 394.734,204.605 394.234,200.605 394.5,196.5 Z"/></g>
<g><path style="opacity:0.992" fill="#1e1e1c" d="M 311.5,207.5 C 312.376,207.369 313.043,207.702 313.5,208.5C 320.836,223.674 330.503,237.174 342.5,249C 345.722,251.888 349.222,254.388 353,256.5C 350.787,270.352 342.62,276.185 328.5,274C 313.783,259.373 306.616,241.539 307,220.5C 307.739,215.863 309.239,211.529 311.5,207.5 Z"/></g>
<g><path style="opacity:1" fill="#f0efe3" d="M 338.5,252.5 C 339.171,253.847 339.171,255.014 338.5,256C 334.694,259.158 330.36,260.492 325.5,260C 324.529,258.519 323.196,257.685 321.5,257.5C 316.86,248.407 313.694,238.74 312,228.5C 311.11,224.618 311.61,220.952 313.5,217.5C 319.918,230.577 328.252,242.244 338.5,252.5 Z"/></g>
<g><path style="opacity:1" fill="#d9d8cb" d="M 338.5,252.5 C 341.767,254.427 344.767,256.761 347.5,259.5C 343.949,267.111 337.949,270.277 329.5,269C 326.223,265.563 323.557,261.729 321.5,257.5C 323.196,257.685 324.529,258.519 325.5,260C 330.36,260.492 334.694,259.158 338.5,256C 339.171,255.014 339.171,253.847 338.5,252.5 Z"/></g>

    </svg>
