
    <svg width="862" height="862" viewBox="0 0 862 862" fill="none" xmlns="http://www.w3.org/2000/svg">
        
<g><path style="opacity:1" fill="#f6f6e8" d="M -0.5,-0.5 C 286.833,-0.5 574.167,-0.5 861.5,-0.5C 861.5,286.833 861.5,574.167 861.5,861.5C 574.167,861.5 286.833,861.5 -0.5,861.5C -0.5,574.167 -0.5,286.833 -0.5,-0.5 Z"/></g>

        
<g><path style="opacity:0.983" fill="#1a1a19" d="M 578.5,540.5 C 583.993,540.916 589.326,542.082 594.5,544C 599.237,547.614 603.403,551.781 607,556.5C 613.977,570.057 616.311,584.39 614,599.5C 611.931,603.236 608.931,605.903 605,607.5C 603.018,607.01 601.351,606.01 600,604.5C 594.275,609.717 588.442,609.717 582.5,604.5C 577.923,613.337 572.256,614.337 565.5,607.5C 561.53,612.973 556.196,614.806 549.5,613C 548.299,612.097 547.465,610.931 547,609.5C 541.931,617.452 536.764,617.452 531.5,609.5C 527.737,613.765 523.737,617.932 519.5,622C 516.106,622.752 512.773,622.585 509.5,621.5C 508.194,620.088 507.36,618.421 507,616.5C 505.425,609.568 504.258,602.568 503.5,595.5C 504.335,583.317 510.669,578.317 522.5,580.5C 523.795,579.902 525.128,579.402 526.5,579C 535.197,570.637 543.531,561.97 551.5,553C 559.592,546.617 568.592,542.45 578.5,540.5 Z"/></g>
<g><path style="opacity:1" fill="#d9d8cb" d="M 587.5,601.5 C 588.496,601.586 589.329,601.252 590,600.5C 592.94,596.545 595.94,592.545 599,588.5C 599.37,579.339 598.37,570.339 596,561.5C 591.36,554.156 584.693,549.822 576,548.5C 573.538,549.159 571.038,549.493 568.5,549.5C 581.297,543.74 592.13,546.407 601,557.5C 608.853,570.951 611.186,585.285 608,600.5C 606.604,602.527 604.938,602.86 603,601.5C 602.091,598.089 601.091,594.755 600,591.5C 598.35,595.573 596.516,599.573 594.5,603.5C 591.584,604.861 589.251,604.195 587.5,601.5 Z"/></g>
<g><path style="opacity:1" fill="#f4f3e6" d="M 587.5,601.5 C 585.433,599.682 584.1,597.349 583.5,594.5C 582.635,593.417 581.635,593.251 580.5,594C 579.955,598.074 578.621,601.907 576.5,605.5C 574.878,607.439 573.044,607.772 571,606.5C 568.863,602.486 567.03,598.486 565.5,594.5C 564.522,594.977 563.689,595.643 563,596.5C 563.284,605.334 559.118,609.667 550.5,609.5C 550.348,605.228 549.348,601.228 547.5,597.5C 545.179,600.394 544.012,603.727 544,607.5C 541.618,612.067 538.951,612.4 536,608.5C 535.887,606.026 534.887,604.026 533,602.5C 527.856,607.313 523.023,612.48 518.5,618C 516.098,618.814 513.765,618.647 511.5,617.5C 508.811,609.37 507.645,601.036 508,592.5C 508.668,588.501 510.835,585.668 514.5,584C 518.801,584.363 523.134,584.363 527.5,584C 529.167,583 530.833,582 532.5,581C 540.864,572.97 548.864,564.637 556.5,556C 560.367,553.567 564.367,551.4 568.5,549.5C 571.038,549.493 573.538,549.159 576,548.5C 584.693,549.822 591.36,554.156 596,561.5C 598.37,570.339 599.37,579.339 599,588.5C 595.94,592.545 592.94,596.545 590,600.5C 589.329,601.252 588.496,601.586 587.5,601.5 Z"/></g>
<g><path style="opacity:0.982" fill="#191918" d="M 290.5,554.5 C 298.253,554.104 305.92,554.604 313.5,556C 315.5,557.333 317.5,558.667 319.5,560C 322.228,566.042 326.895,569.709 333.5,571C 335.378,572.543 336.878,574.376 338,576.5C 338.242,583.196 338.742,589.862 339.5,596.5C 339.461,598.587 338.461,599.921 336.5,600.5C 332.274,599.93 328.108,599.263 324,598.5C 322.5,600 321,601.5 319.5,603C 317.287,603.626 315.12,603.459 313,602.5C 306.564,605.689 301.23,604.356 297,598.5C 284.481,607.161 276.648,603.994 273.5,589C 271.944,573.778 277.611,562.278 290.5,554.5 Z"/></g>
<g><path style="opacity:1" fill="#f4f3e6" d="M 334.5,587.5 C 334.5,590.167 334.5,592.833 334.5,595.5C 333.167,595.5 331.833,595.5 330.5,595.5C 327.482,595.335 324.482,595.502 321.5,596C 320.022,598.039 318.022,598.872 315.5,598.5C 315.5,597.5 315.5,596.5 315.5,595.5C 312.326,596.015 309.326,597.015 306.5,598.5C 305.5,598.333 304.5,598.167 303.5,598C 301.441,595.366 299.275,592.866 297,590.5C 296.292,591.381 295.458,592.047 294.5,592.5C 290.404,593.285 287.07,592.118 284.5,589C 284.833,588.667 285.167,588.333 285.5,588C 283.667,587.5 282.5,586.333 282,584.5C 281.501,580.179 281.334,575.846 281.5,571.5C 281.709,570.078 282.209,568.745 283,567.5C 286.167,565 289.333,562.5 292.5,560C 298.167,559.333 303.833,559.333 309.5,560C 314.42,562.916 318.753,566.582 322.5,571C 326.232,572.461 329.732,574.294 333,576.5C 333.936,580.114 334.436,583.78 334.5,587.5 Z"/></g>
<g><path style="opacity:1" fill="#d7d6c9" d="M 281.5,571.5 C 281.334,575.846 281.501,580.179 282,584.5C 282.5,586.333 283.667,587.5 285.5,588C 285.167,588.333 284.833,588.667 284.5,589C 287.07,592.118 290.404,593.285 294.5,592.5C 293.641,595.452 291.641,597.285 288.5,598C 285.364,599.041 282.864,598.207 281,595.5C 279.409,588.608 279.076,581.608 280,574.5C 280.232,573.263 280.732,572.263 281.5,571.5 Z"/></g>
<g><path style="opacity:1" fill="#64635e" d="M 334.5,587.5 C 335.477,590.287 335.81,593.287 335.5,596.5C 333.585,596.784 331.919,596.451 330.5,595.5C 331.833,595.5 333.167,595.5 334.5,595.5C 334.5,592.833 334.5,590.167 334.5,587.5 Z"/></g>

        
<g><path style="opacity:0.995" fill="#030c0b" d="M 473.5,207.5 C 474.906,207.027 475.573,206.027 475.5,204.5C 504.858,171.312 541.525,150.812 585.5,143C 595.5,142.333 605.5,142.333 615.5,143C 635.085,147.195 654.085,153.195 672.5,161C 684.508,168.007 695.675,176.174 706,185.5C 718.296,204.303 719.463,223.636 709.5,243.5C 702.685,251.482 695.685,259.316 688.5,267C 694.886,266.122 701.386,265.622 708,265.5C 730.255,265.765 739.422,276.931 735.5,299C 732.443,310.782 726.776,321.115 718.5,330C 703.713,339.671 700.213,336.838 708,321.5C 708.533,312.097 705.7,303.93 699.5,297C 693.141,295.462 686.808,295.795 680.5,298C 671.181,302.329 661.514,305.662 651.5,308C 639.733,310.294 628.066,309.961 616.5,307C 601.803,301.15 597.636,291.317 604,277.5C 608.289,268.546 615.123,262.379 624.5,259C 634.556,256.738 644.222,253.404 653.5,249C 666.451,241.987 670.451,231.487 665.5,217.5C 660.121,218.006 654.787,218.839 649.5,220C 635.894,224.954 623.227,231.62 611.5,240C 600.368,249.464 589.534,259.297 579,269.5C 576.413,278.42 570.747,284.42 562,287.5C 539.83,286.332 518.663,281.166 498.5,272C 477.606,260.387 467.439,242.554 468,218.5C 469.188,214.387 471.021,210.72 473.5,207.5 Z"/></g>
<g><path style="opacity:1" fill="#005a5d" d="M 709.5,212.5 C 709.819,217.363 709.486,222.03 708.5,226.5C 704.127,220.286 698.461,215.786 691.5,213C 686.705,211.963 681.871,211.13 677,210.5C 670.878,211.619 664.711,212.286 658.5,212.5C 655.977,211.746 653.311,211.08 650.5,210.5C 649.186,211.313 648.019,212.313 647,213.5C 646.125,211.487 644.791,211.487 643,213.5C 640.891,213.434 638.725,213.101 636.5,212.5C 635.201,213.09 634.368,214.09 634,215.5C 631.838,215.06 629.671,214.727 627.5,214.5C 625.821,215.782 623.987,216.782 622,217.5C 618.842,216.968 615.676,216.635 612.5,216.5C 611.482,217.193 610.482,217.859 609.5,218.5C 602.515,211.337 597.348,203.003 594,193.5C 593.821,190.447 593.321,187.447 592.5,184.5C 591.914,184.709 591.414,185.043 591,185.5C 590.249,190.572 590.582,195.572 592,200.5C 595.603,207.257 599.77,213.591 604.5,219.5C 603.328,220.705 601.995,220.705 600.5,219.5C 597.981,221.259 595.481,222.925 593,224.5C 592.127,224.265 591.293,223.931 590.5,223.5C 589.673,225.162 588.507,226.495 587,227.5C 586.667,227.167 586.333,226.833 586,226.5C 584.266,228.451 582.099,229.451 579.5,229.5C 579.649,230.552 579.483,231.552 579,232.5C 578.667,232.167 578.333,231.833 578,231.5C 576.933,232.191 575.766,232.691 574.5,233C 575.167,233.333 575.833,233.667 576.5,234C 574.744,234.202 573.078,234.702 571.5,235.5C 569.674,237.91 567.34,239.577 564.5,240.5C 558.928,237.765 554.428,233.765 551,228.5C 547.166,223.503 543.833,218.17 541,212.5C 540.626,210.102 540.626,207.769 541,205.5C 540.282,204.549 539.449,204.383 538.5,205C 537.017,209.988 537.517,214.821 540,219.5C 544.333,225.5 548.667,231.5 553,237.5C 555.478,239.639 557.978,241.639 560.5,243.5C 559.34,244.265 558.34,245.265 557.5,246.5C 558.629,248.529 558.129,248.863 556,247.5C 553.094,250.037 549.927,252.204 546.5,254C 545.371,256.717 543.871,259.217 542,261.5C 541.667,261.167 541.333,260.833 541,260.5C 539.171,262.156 537.837,264.156 537,266.5C 535.334,265.66 535.167,266.16 536.5,268C 535.122,269.713 533.455,271.047 531.5,272C 531.833,272.333 532.167,272.667 532.5,273C 531.264,274.085 529.931,274.918 528.5,275.5C 511.028,272.844 496.195,265.178 484,252.5C 476.191,241.739 472.857,229.739 474,216.5C 478.709,208.785 484.542,201.951 491.5,196C 500.016,189.574 508.349,182.907 516.5,176C 537.63,162.27 560.63,153.27 585.5,149C 594.5,148.333 603.5,148.333 612.5,149C 632.09,153.197 651.09,159.197 669.5,167C 682.49,174.326 693.99,183.493 704,194.5C 707.656,199.949 709.489,205.949 709.5,212.5 Z"/></g>
<g><path style="opacity:0.995" fill="#030c0c" d="M 174.5,164.5 C 224.809,164.566 263.976,185.233 292,226.5C 294.158,234.271 293.825,241.938 291,249.5C 286.623,263.427 279.789,275.927 270.5,287C 262.225,293.056 253.392,298.223 244,302.5C 236.894,304.964 229.728,305.13 222.5,303C 221.308,301.055 221.308,299.055 222.5,297C 218.747,289.407 215.58,281.573 213,273.5C 203.563,260.398 193.063,248.231 181.5,237C 167.625,227.703 152.625,220.703 136.5,216C 132.833,215.333 129.167,215.333 125.5,216C 122.528,217.141 120.861,219.308 120.5,222.5C 122.316,224.817 124.316,226.984 126.5,229C 134.833,232.667 143.167,236.333 151.5,240C 161.408,247.205 171.575,254.038 182,260.5C 188.153,269.822 187.986,278.989 181.5,288C 171.767,294.339 161.434,295.339 150.5,291C 143.153,288.657 135.819,286.323 128.5,284C 117.047,281.545 110.047,285.878 107.5,297C 108.614,304.497 110.614,311.663 113.5,318.5C 100.871,317.267 89.704,312.6 80,304.5C 77.9376,302.099 76.2709,299.433 75,296.5C 74.1041,288.754 74.4375,281.087 76,273.5C 80.018,265.44 85.8514,259.107 93.5,254.5C 80.7205,242.664 77.5539,228.664 84,212.5C 93.8725,199.627 105.373,188.46 118.5,179C 136.158,169.753 154.825,164.92 174.5,164.5 Z"/></g>
<g><path style="opacity:1" fill="#005a5d" d="M 280.5,260.5 C 279.213,261.831 277.047,262.831 274,263.5C 272.507,261.692 270.673,261.692 268.5,263.5C 262.247,264.669 256.414,265.336 251,265.5C 249.778,263.304 247.944,261.804 245.5,261C 245.833,260.667 246.167,260.333 246.5,260C 242.598,257.6 239.598,254.434 237.5,250.5C 241.447,244.27 244.613,237.604 247,230.5C 247.5,223.508 247.666,216.508 247.5,209.5C 245.876,209.36 244.71,210.027 244,211.5C 245.234,224.956 241.734,236.956 233.5,247.5C 231.897,247.688 230.563,247.188 229.5,246C 231.795,245.016 231.461,244.183 228.5,243.5C 227.914,243.709 227.414,244.043 227,244.5C 226.51,243.207 226.343,241.873 226.5,240.5C 224.833,240.5 223.167,240.5 221.5,240.5C 221.5,239.5 221.5,238.5 221.5,237.5C 219.599,237.567 217.766,237.233 216,236.5C 213.419,234.587 210.919,232.587 208.5,230.5C 204.821,230.274 201.821,228.774 199.5,226C 197.187,225.338 194.854,224.838 192.5,224.5C 192.169,222.678 191.502,221.011 190.5,219.5C 193.168,209.665 194.334,199.665 194,189.5C 192.667,188.167 191.333,188.167 190,189.5C 190.117,199.792 188.617,209.792 185.5,219.5C 181.335,217.489 176.501,215.489 171,213.5C 170.667,213.833 170.333,214.167 170,214.5C 169,213.167 168,211.833 167,210.5C 165.984,211.634 165.317,211.301 165,209.5C 164.667,209.833 164.333,210.167 164,210.5C 161.302,209.72 158.969,208.387 157,206.5C 156.333,207.167 155.667,207.833 155,208.5C 153.896,207.606 152.73,206.606 151.5,205.5C 151.665,202.482 151.498,199.482 151,196.5C 149.989,195.663 148.822,195.33 147.5,195.5C 147.5,197.167 147.5,198.833 147.5,200.5C 146.596,201.209 146.263,202.209 146.5,203.5C 141.478,203.696 136.478,202.696 131.5,200.5C 130.197,201.718 129.197,201.385 128.5,199.5C 125.565,199.899 122.731,199.899 120,199.5C 118,196.833 116,196.833 114,199.5C 113.667,198.833 113.333,198.167 113,197.5C 110.639,198.107 108.139,198.107 105.5,197.5C 110.681,192.157 116.348,187.323 122.5,183C 147.728,171.388 174.062,168.055 201.5,173C 237.211,179.066 265.377,196.9 286,226.5C 287.555,231.382 287.888,236.382 287,241.5C 284.933,247.867 282.766,254.201 280.5,260.5 Z"/></g>
<g><path style="opacity:1" fill="#010808" d="M 651.5,184.5 C 653.602,189.489 655.435,194.823 657,200.5C 658.25,203.916 660.417,206.583 663.5,208.5C 661.45,209.663 659.45,209.496 657.5,208C 652.29,200.891 650.29,193.057 651.5,184.5 Z"/></g>
<g><path style="opacity:1" fill="#004944" d="M 105.5,197.5 C 108.139,198.107 110.639,198.107 113,197.5C 113.333,198.167 113.667,198.833 114,199.5C 116,196.833 118,196.833 120,199.5C 122.731,199.899 125.565,199.899 128.5,199.5C 129.197,201.385 130.197,201.718 131.5,200.5C 136.478,202.696 141.478,203.696 146.5,203.5C 146.263,202.209 146.596,201.209 147.5,200.5C 147.543,203.91 147.043,207.243 146,210.5C 145.481,211.516 144.647,212.182 143.5,212.5C 138.959,210.82 134.293,209.653 129.5,209C 117.46,208.419 105.46,208.419 93.5,209C 96.7098,204.289 100.71,200.456 105.5,197.5 Z"/></g>
<g><path style="opacity:1" fill="#000707" d="M 564.5,240.5 C 568.956,242.892 573.623,245.058 578.5,247C 580.559,248.185 580.726,249.352 579,250.5C 572.771,248.258 566.604,245.925 560.5,243.5C 557.978,241.639 555.478,239.639 553,237.5C 548.667,231.5 544.333,225.5 540,219.5C 537.517,214.821 537.017,209.988 538.5,205C 539.449,204.383 540.282,204.549 541,205.5C 540.626,207.769 540.626,210.102 541,212.5C 543.833,218.17 547.166,223.503 551,228.5C 554.428,233.765 558.928,237.765 564.5,240.5 Z"/></g>
<g><path style="opacity:0.506" fill="#043332" d="M 475.5,204.5 C 475.573,206.027 474.906,207.027 473.5,207.5C 473.427,205.973 474.094,204.973 475.5,204.5 Z"/></g>
<g><path style="opacity:1" fill="#004943" d="M 151.5,205.5 C 152.73,206.606 153.896,207.606 155,208.5C 155.667,207.833 156.333,207.167 157,206.5C 158.969,208.387 161.302,209.72 164,210.5C 164.333,210.167 164.667,209.833 165,209.5C 165.317,211.301 165.984,211.634 167,210.5C 168,211.833 169,213.167 170,214.5C 170.333,214.167 170.667,213.833 171,213.5C 176.501,215.489 181.335,217.489 185.5,219.5C 185.047,225.124 182.047,227.624 176.5,227C 168.001,221.777 159.001,217.61 149.5,214.5C 149.167,214.167 148.833,213.833 148.5,213.5C 149.516,210.718 150.516,208.051 151.5,205.5 Z"/></g>
<g><path style="opacity:1" fill="#004843" d="M 658.5,212.5 C 645.446,215.803 632.946,220.803 621,227.5C 616.705,225.032 612.871,222.032 609.5,218.5C 610.482,217.859 611.482,217.193 612.5,216.5C 615.676,216.635 618.842,216.968 622,217.5C 623.987,216.782 625.821,215.782 627.5,214.5C 629.671,214.727 631.838,215.06 634,215.5C 634.368,214.09 635.201,213.09 636.5,212.5C 638.725,213.101 640.891,213.434 643,213.5C 644.791,211.487 646.125,211.487 647,213.5C 648.019,212.313 649.186,211.313 650.5,210.5C 653.311,211.08 655.977,211.746 658.5,212.5 Z"/></g>
<g><path style="opacity:1" fill="#004943" d="M 117.5,251.5 C 119.831,251.141 119.665,250.474 117,249.5C 116.667,248.5 116.333,247.5 116,246.5C 115.282,247.451 114.449,247.617 113.5,247C 114.451,246.282 114.617,245.449 114,244.5C 112.817,245.731 111.651,245.731 110.5,244.5C 106.733,240.597 102.899,236.93 99,233.5C 99.0278,229.263 98.1944,225.096 96.5,221C 98.8912,220.309 98.8912,219.309 96.5,218C 97.3366,216.989 97.67,215.822 97.5,214.5C 96.1667,214.5 94.8333,214.5 93.5,214.5C 98.59,213.035 103.923,212.368 109.5,212.5C 112.833,212.833 116.167,213.167 119.5,213.5C 113.845,219.7 114.178,225.534 120.5,231C 129.77,236.468 139.436,241.135 149.5,245C 155.087,248.71 160.587,252.543 166,256.5C 167.767,259.157 166.934,260.99 163.5,262C 159.5,262.667 155.5,262.667 151.5,262C 140.336,257.554 129.003,254.054 117.5,251.5 Z"/></g>
<g><path style="opacity:1" fill="#00585b" d="M 93.5,214.5 C 94.8333,214.5 96.1667,214.5 97.5,214.5C 97.67,215.822 97.3366,216.989 96.5,218C 98.8912,219.309 98.8912,220.309 96.5,221C 98.1944,225.096 99.0278,229.263 99,233.5C 102.899,236.93 106.733,240.597 110.5,244.5C 111.651,245.731 112.817,245.731 114,244.5C 114.617,245.449 114.451,246.282 113.5,247C 114.449,247.617 115.282,247.451 116,246.5C 116.333,247.5 116.667,248.5 117,249.5C 119.665,250.474 119.831,251.141 117.5,251.5C 111.771,251.212 106.104,251.546 100.5,252.5C 86.9845,243.159 82.9845,230.826 88.5,215.5C 90.0709,214.691 91.7376,214.357 93.5,214.5 Z"/></g>
<g><path style="opacity:1" fill="#004944" d="M 696.5,222.5 C 696.249,224.17 695.582,225.67 694.5,227C 695.321,230.953 693.988,234.286 690.5,237C 691.167,237.333 691.833,237.667 692.5,238C 691.167,240.667 689.167,242.667 686.5,244C 688.901,244.805 688.734,245.638 686,246.5C 685.517,247.448 685.351,248.448 685.5,249.5C 684.127,249.343 682.793,249.51 681.5,250C 679.589,252.543 677.589,255.043 675.5,257.5C 673.066,258.91 670.732,260.41 668.5,262C 669.711,262.893 669.711,263.726 668.5,264.5C 663.371,266.663 658.371,269.83 653.5,274C 653.728,274.399 654.062,274.565 654.5,274.5C 647.518,277.324 640.518,277.157 633.5,274C 630.277,270.888 629.777,267.388 632,263.5C 643.993,260.67 654.993,255.67 665,248.5C 672.653,239.202 674.487,228.868 670.5,217.5C 677.181,216.359 683.847,216.526 690.5,218C 692.747,219.277 694.747,220.777 696.5,222.5 Z"/></g>
<g><path style="opacity:1" fill="#004944" d="M 604.5,219.5 C 607.944,223.061 611.944,225.894 616.5,228C 617.451,228.718 617.617,229.551 617,230.5C 603.258,240.55 590.258,251.55 578,263.5C 574.501,267.672 571.834,272.338 570,277.5C 568.5,279 567,280.5 565.5,282C 552.87,281.118 540.537,278.951 528.5,275.5C 529.931,274.918 531.264,274.085 532.5,273C 532.167,272.667 531.833,272.333 531.5,272C 533.455,271.047 535.122,269.713 536.5,268C 535.167,266.16 535.334,265.66 537,266.5C 537.837,264.156 539.171,262.156 541,260.5C 541.333,260.833 541.667,261.167 542,261.5C 543.871,259.217 545.371,256.717 546.5,254C 549.927,252.204 553.094,250.037 556,247.5C 558.129,248.863 558.629,248.529 557.5,246.5C 558.34,245.265 559.34,244.265 560.5,243.5C 566.604,245.925 572.771,248.258 579,250.5C 580.726,249.352 580.559,248.185 578.5,247C 573.623,245.058 568.956,242.892 564.5,240.5C 567.34,239.577 569.674,237.91 571.5,235.5C 573.078,234.702 574.744,234.202 576.5,234C 575.833,233.667 575.167,233.333 574.5,233C 575.766,232.691 576.933,232.191 578,231.5C 578.333,231.833 578.667,232.167 579,232.5C 579.483,231.552 579.649,230.552 579.5,229.5C 582.099,229.451 584.266,228.451 586,226.5C 586.333,226.833 586.667,227.167 587,227.5C 588.507,226.495 589.673,225.162 590.5,223.5C 591.293,223.931 592.127,224.265 593,224.5C 595.481,222.925 597.981,221.259 600.5,219.5C 601.995,220.705 603.328,220.705 604.5,219.5 Z"/></g>
<g><path style="opacity:1" fill="#013535" d="M 709.5,212.5 C 710.651,217.65 710.817,222.984 710,228.5C 709.283,227.956 708.783,227.289 708.5,226.5C 709.486,222.03 709.819,217.363 709.5,212.5 Z"/></g>
<g><path style="opacity:1" fill="#004944" d="M 190.5,219.5 C 191.502,221.011 192.169,222.678 192.5,224.5C 194.854,224.838 197.187,225.338 199.5,226C 201.821,228.774 204.821,230.274 208.5,230.5C 210.919,232.587 213.419,234.587 216,236.5C 217.766,237.233 219.599,237.567 221.5,237.5C 221.5,238.5 221.5,239.5 221.5,240.5C 223.167,240.5 224.833,240.5 226.5,240.5C 226.343,241.873 226.51,243.207 227,244.5C 227.414,244.043 227.914,243.709 228.5,243.5C 231.461,244.183 231.795,245.016 229.5,246C 230.563,247.188 231.897,247.688 233.5,247.5C 229.335,257.572 222.001,261.905 211.5,260.5C 203.557,249.722 194.39,240.056 184,231.5C 186.381,227.746 188.548,223.746 190.5,219.5 Z"/></g>
<g><path style="opacity:1" fill="#00585b" d="M 696.5,222.5 C 699.464,224.962 702.297,227.629 705,230.5C 705.667,233.5 705.667,236.5 705,239.5C 703.248,242.672 701.248,245.672 699,248.5C 693.167,255.667 686.667,262.167 679.5,268C 671.394,270.989 663.061,273.155 654.5,274.5C 654.062,274.565 653.728,274.399 653.5,274C 658.371,269.83 663.371,266.663 668.5,264.5C 669.711,263.726 669.711,262.893 668.5,262C 670.732,260.41 673.066,258.91 675.5,257.5C 677.589,255.043 679.589,252.543 681.5,250C 682.793,249.51 684.127,249.343 685.5,249.5C 685.351,248.448 685.517,247.448 686,246.5C 688.734,245.638 688.901,244.805 686.5,244C 689.167,242.667 691.167,240.667 692.5,238C 691.833,237.667 691.167,237.333 690.5,237C 693.988,234.286 695.321,230.953 694.5,227C 695.582,225.67 696.249,224.17 696.5,222.5 Z"/></g>
<g><path style="opacity:1" fill="#004943" d="M 237.5,250.5 C 239.598,254.434 242.598,257.6 246.5,260C 246.167,260.333 245.833,260.667 245.5,261C 247.944,261.804 249.778,263.304 251,265.5C 256.414,265.336 262.247,264.669 268.5,263.5C 270.673,261.692 272.507,261.692 274,263.5C 277.047,262.831 279.213,261.831 280.5,260.5C 277.146,269.373 272.146,277.207 265.5,284C 258.833,288 252.167,292 245.5,296C 240.09,298.382 234.424,299.549 228.5,299.5C 228.322,296.784 227.822,294.117 227,291.5C 223.518,285.533 220.851,279.199 219,272.5C 217.224,269.059 215.057,265.892 212.5,263C 215.652,264.186 218.985,264.519 222.5,264C 228.967,261.028 233.967,256.528 237.5,250.5 Z"/></g>
<g><path style="opacity:1" fill="#00595b" d="M 180.5,271.5 C 177.285,273.718 173.618,274.885 169.5,275C 168.789,276.255 167.956,277.421 167,278.5C 160.493,276.553 153.993,274.387 147.5,272C 145.559,271.257 143.726,271.424 142,272.5C 141.5,272 141,271.5 140.5,271C 136.579,270.797 132.745,270.297 129,269.5C 126.667,270.167 124.333,270.833 122,271.5C 121.667,270.833 121.333,270.167 121,269.5C 120.027,273.016 118.527,273.349 116.5,270.5C 114.803,270.899 113.137,271.399 111.5,272C 111.833,272.333 112.167,272.667 112.5,273C 108.672,275.295 104.672,277.295 100.5,279C 101.167,279.333 101.833,279.667 102.5,280C 100.139,281.669 97.8055,283.335 95.5,285C 95.8333,285.333 96.1667,285.667 96.5,286C 94.5974,291.342 93.2641,296.842 92.5,302.5C 93.2739,303.711 94.1072,303.711 95,302.5C 95.484,304.193 94.984,305.527 93.5,306.5C 80.0563,300.938 75.8896,291.271 81,277.5C 83.3581,281.358 86.5248,284.358 90.5,286.5C 91.5827,285.635 91.7494,284.635 91,283.5C 86.2568,280.341 83.9235,276.008 84,270.5C 87.8837,264.641 93.0504,260.308 99.5,257.5C 100.142,261.023 101.308,264.356 103,267.5C 104.808,269.843 106.974,270.51 109.5,269.5C 105.328,266.152 103.661,261.819 104.5,256.5C 120.129,257.324 135.129,260.824 149.5,267C 158.355,268.992 166.189,267.159 173,261.5C 177.668,263.156 180.168,266.49 180.5,271.5 Z"/></g>
<g><path style="opacity:1" fill="#00595b" d="M 680.5,283.5 C 679.778,283.918 679.278,284.584 679,285.5C 677.413,284.273 676.079,284.606 675,286.5C 674.667,286.167 674.333,285.833 674,285.5C 671.667,286.167 669.333,286.833 667,287.5C 666.667,286.833 666.333,286.167 666,285.5C 662.452,287.718 658.618,289.385 654.5,290.5C 653.459,288.009 652.626,288.009 652,290.5C 651.586,290.043 651.086,289.709 650.5,289.5C 649.051,290.617 647.384,291.284 645.5,291.5C 636.177,290.392 627.177,290.392 618.5,291.5C 616.018,289.539 613.352,287.706 610.5,286C 611.34,284.334 610.84,284.167 609,285.5C 608.283,284.956 607.783,284.289 607.5,283.5C 610.757,274.409 616.923,268.076 626,264.5C 625.749,271.843 628.916,277.01 635.5,280C 641.129,281.197 646.796,281.53 652.5,281C 663.076,278.294 673.743,276.127 684.5,274.5C 684.076,277.918 682.742,280.918 680.5,283.5 Z"/></g>
<g><path style="opacity:1" fill="#004944" d="M 180.5,271.5 C 182.349,279.286 179.349,284.453 171.5,287C 166.833,287.667 162.167,287.667 157.5,287C 148.3,284.933 139.3,282.266 130.5,279C 111.853,275.366 102.686,282.866 103,301.5C 103.975,304.76 105.142,307.927 106.5,311C 101.714,310.794 97.381,309.294 93.5,306.5C 94.984,305.527 95.484,304.193 95,302.5C 94.1072,303.711 93.2739,303.711 92.5,302.5C 93.2641,296.842 94.5974,291.342 96.5,286C 96.1667,285.667 95.8333,285.333 95.5,285C 97.8055,283.335 100.139,281.669 102.5,280C 101.833,279.667 101.167,279.333 100.5,279C 104.672,277.295 108.672,275.295 112.5,273C 112.167,272.667 111.833,272.333 111.5,272C 113.137,271.399 114.803,270.899 116.5,270.5C 118.527,273.349 120.027,273.016 121,269.5C 121.333,270.167 121.667,270.833 122,271.5C 124.333,270.833 126.667,270.167 129,269.5C 132.745,270.297 136.579,270.797 140.5,271C 141,271.5 141.5,272 142,272.5C 143.726,271.424 145.559,271.257 147.5,272C 153.993,274.387 160.493,276.553 167,278.5C 167.956,277.421 168.789,276.255 169.5,275C 173.618,274.885 177.285,273.718 180.5,271.5 Z"/></g>
<g><path style="opacity:1" fill="#00595b" d="M 719.5,319.5 C 716.875,318.542 716.875,317.376 719.5,316C 718.886,314.87 718.886,313.537 719.5,312C 718.656,309.905 717.656,307.905 716.5,306C 716.721,304.201 717.054,302.368 717.5,300.5C 716.738,300.089 715.738,299.923 714.5,300C 715.634,298.984 715.301,298.317 713.5,298C 713.833,297.667 714.167,297.333 714.5,297C 713.359,295.383 712.526,293.55 712,291.5C 711.667,292.5 711.333,293.5 711,294.5C 709.482,290.847 707.649,288.181 705.5,286.5C 701.22,284.883 696.887,283.883 692.5,283.5C 690.547,284.156 688.547,284.489 686.5,284.5C 686.5,283.5 686.5,282.5 686.5,281.5C 686.952,278.797 687.619,276.13 688.5,273.5C 698.07,271.592 707.737,271.092 717.5,272C 720.329,273.247 722.995,274.747 725.5,276.5C 725.887,278.731 726.053,281.064 726,283.5C 728.071,280.584 729.405,280.918 730,284.5C 731.415,297.747 727.915,309.413 719.5,319.5 Z"/></g>
<g><path style="opacity:1" fill="#004944" d="M 686.5,281.5 C 686.5,282.5 686.5,283.5 686.5,284.5C 688.547,284.489 690.547,284.156 692.5,283.5C 696.887,283.883 701.22,284.883 705.5,286.5C 707.649,288.181 709.482,290.847 711,294.5C 711.333,293.5 711.667,292.5 712,291.5C 712.526,293.55 713.359,295.383 714.5,297C 714.167,297.333 713.833,297.667 713.5,298C 715.301,298.317 715.634,298.984 714.5,300C 715.738,299.923 716.738,300.089 717.5,300.5C 717.054,302.368 716.721,304.201 716.5,306C 717.656,307.905 718.656,309.905 719.5,312C 718.886,313.537 718.886,314.87 719.5,316C 716.875,317.376 716.875,318.542 719.5,319.5C 717.588,322.919 715.088,325.919 712,328.5C 714.687,317.761 713.353,307.427 708,297.5C 706.833,295 705,293.167 702.5,292C 692.333,289.808 682.333,290.474 672.5,294C 657.101,302.01 640.768,305.01 623.5,303C 617.013,301.508 611.513,298.341 607,293.5C 604.882,289.901 605.049,286.568 607.5,283.5C 607.783,284.289 608.283,284.956 609,285.5C 610.84,284.167 611.34,284.334 610.5,286C 613.352,287.706 616.018,289.539 618.5,291.5C 627.177,290.392 636.177,290.392 645.5,291.5C 647.384,291.284 649.051,290.617 650.5,289.5C 651.086,289.709 651.586,290.043 652,290.5C 652.626,288.009 653.459,288.009 654.5,290.5C 658.618,289.385 662.452,287.718 666,285.5C 666.333,286.167 666.667,286.833 667,287.5C 669.333,286.833 671.667,286.167 674,285.5C 674.333,285.833 674.667,286.167 675,286.5C 676.079,284.606 677.413,284.273 679,285.5C 679.278,284.584 679.778,283.918 680.5,283.5C 680.47,284.497 680.97,285.164 682,285.5C 684.007,284.656 685.507,283.323 686.5,281.5 Z"/></g>

        
<g><path style="opacity:0.994" fill="#080808" d="M 397.5,213.5 C 426.652,214.128 455.652,216.628 484.5,221C 501.696,223.299 517.696,228.965 532.5,238C 541.415,244.711 550.915,250.545 561,255.5C 566,261.833 571,268.167 576,274.5C 579.431,281.886 582.098,289.553 584,297.5C 600.968,293.905 616.801,296.738 631.5,306C 657.957,323.456 680.123,345.29 698,371.5C 701.828,378.655 704.662,386.155 706.5,394C 702.842,398.302 698.175,400.969 692.5,402C 684.601,403.249 676.935,403.749 669.5,403.5C 671.81,407.254 673.643,411.254 675,415.5C 676.619,423.927 678.619,432.26 681,440.5C 682.454,454.02 679.787,466.687 673,478.5C 663.749,491.086 652.582,501.586 639.5,510C 630.893,513.302 622.893,517.635 615.5,523C 597.029,529.157 579.029,536.491 561.5,545C 545.683,550.606 529.683,555.606 513.5,560C 521.167,567 528.833,574 536.5,581C 541.889,585.389 547.556,589.389 553.5,593C 559.667,598.5 565.833,604 572,609.5C 578.423,618.674 584.09,628.34 589,638.5C 598.788,663.109 604.621,688.609 606.5,715C 605.832,731.84 601.498,747.673 593.5,762.5C 601.079,763.861 608.079,766.694 614.5,771C 619.719,777.218 624.552,783.718 629,790.5C 633.064,794.786 637.897,797.952 643.5,800C 644.293,801.085 644.96,802.252 645.5,803.5C 640.621,808.778 634.621,812.278 627.5,814C 620.872,815.052 614.206,815.552 607.5,815.5C 607.62,817.199 607.954,818.865 608.5,820.5C 608.182,821.647 607.516,822.481 606.5,823C 599.093,824.492 591.593,825.325 584,825.5C 570.833,824.357 557.666,823.19 544.5,822C 528.753,817.882 515.253,810.049 504,798.5C 495.911,789.336 489.577,779.003 485,767.5C 473.056,772.575 460.556,774.908 447.5,774.5C 441.513,773.858 435.513,773.358 429.5,773C 427,772.625 424.667,771.792 422.5,770.5C 418.78,774.733 415.613,779.4 413,784.5C 395.052,801.708 373.552,809.541 348.5,808C 344.343,807.271 340.343,806.104 336.5,804.5C 335.167,803.5 335.167,802.5 336.5,801.5C 338.833,800 341.167,798.5 343.5,797C 344.696,796.346 344.696,795.846 343.5,795.5C 335.883,796.633 328.216,796.8 320.5,796C 311.363,794.508 304.863,789.675 301,781.5C 300.179,778.446 300.345,775.446 301.5,772.5C 312.272,769.781 321.939,764.947 330.5,758C 319.87,750.041 313.37,739.541 311,726.5C 309.463,718.908 308.63,711.241 308.5,703.5C 309.559,693.159 310.392,682.825 311,672.5C 308.094,675.369 304.594,676.702 300.5,676.5C 294.742,676.543 289.409,675.209 284.5,672.5C 273.656,662.134 269.489,649.467 272,634.5C 275.346,612.289 285.512,594.122 302.5,580C 312.952,573.232 324.119,571.732 336,575.5C 337.967,574.507 339.134,572.84 339.5,570.5C 305.015,564.297 271.015,555.463 237.5,544C 209.322,532.837 184.822,516.337 164,494.5C 152.732,482.13 145.899,467.63 143.5,451C 144.485,443.505 144.985,436.005 145,428.5C 140.155,431.151 134.989,431.984 129.5,431C 127.954,429.56 127.121,427.727 127,425.5C 126.788,413.092 127.788,400.758 130,388.5C 135.912,374.746 142.579,361.413 150,348.5C 160.721,333.106 174.888,322.273 192.5,316C 198.537,315.303 204.537,315.47 210.5,316.5C 211.252,310.492 213.086,304.826 216,299.5C 222.667,288.833 229.333,278.167 236,267.5C 246.355,255.578 258.188,245.412 271.5,237C 312.624,223.821 354.624,215.987 397.5,213.5 Z"/></g>
<g><path style="opacity:1" fill="#1a1a1a" d="M 668.5,416.5 C 667.149,427.398 664.649,438.064 661,448.5C 656.399,457.425 651.399,466.092 646,474.5C 623.77,496.709 597.937,513.542 568.5,525C 543.253,532.859 517.92,540.526 492.5,548C 448.553,557.101 404.22,559.768 359.5,556C 347.914,553.855 336.248,552.188 324.5,551C 281.405,540.283 240.405,524.283 201.5,503C 185.771,492.605 171.938,480.105 160,465.5C 152.669,456.68 150.169,446.68 152.5,435.5C 154.204,427.844 154.871,420.177 154.5,412.5C 152.056,416.118 149.39,419.618 146.5,423C 142.683,424.995 138.683,426.495 134.5,427.5C 133.201,426.91 132.368,425.91 132,424.5C 131.833,422.5 131.667,420.5 131.5,418.5C 132.991,409.545 134.157,400.545 135,391.5C 141.604,374.286 150.271,358.286 161,343.5C 170.285,333.114 181.451,325.614 194.5,321C 200.862,320.576 207.195,320.576 213.5,321C 224.905,285.517 246.572,258.184 278.5,239C 326.469,224.712 375.469,218.046 425.5,219C 447.106,221.764 468.773,224.764 490.5,228C 502.4,230.411 513.733,234.411 524.5,240C 535.498,247.501 546.832,254.501 558.5,261C 569.707,272.248 576.541,285.748 579,301.5C 581.376,308.587 585.043,314.92 590,320.5C 590.167,320.167 590.333,319.833 590.5,319.5C 588.2,313.909 586.2,308.242 584.5,302.5C 599.35,299.458 613.35,301.625 626.5,309C 652.248,326.081 674.082,347.248 692,372.5C 695.8,378.933 698.633,385.766 700.5,393C 698.652,395.093 696.319,396.426 693.5,397C 680.718,399.865 668.385,398.698 656.5,393.5C 656.372,395.655 656.872,397.655 658,399.5C 664.052,403.607 667.552,409.273 668.5,416.5 Z"/></g>
<g><path style="opacity:1" fill="#010101" d="M 618.5,337.5 C 634.542,353.376 653.208,365.543 674.5,374C 676.954,375.74 678.454,377.907 679,380.5C 677.612,381.554 676.112,381.72 674.5,381C 654.654,371.331 636.821,358.831 621,343.5C 619.441,341.783 618.608,339.783 618.5,337.5 Z"/></g>
<g><path style="opacity:1" fill="#010101" d="M 147.5,382.5 C 148.993,383.312 149.66,384.645 149.5,386.5C 148.442,393.85 147.275,401.184 146,408.5C 144.374,411.128 142.374,413.461 140,415.5C 141.412,404.277 143.912,393.277 147.5,382.5 Z"/></g>
<g><path style="opacity:1" fill="#141414" d="M 668.5,416.5 C 669.117,416.611 669.617,416.944 670,417.5C 671.619,425.927 673.619,434.26 676,442.5C 676.82,456.706 672.82,469.372 664,480.5C 656.058,489.448 647.225,497.281 637.5,504C 628.893,507.302 620.893,511.635 613.5,517C 594.28,523.296 575.614,530.963 557.5,540C 535.077,547.604 512.411,554.271 489.5,560C 470.569,562.908 451.569,565.241 432.5,567C 422.167,567.667 411.833,567.667 401.5,567C 377.521,565.26 353.521,563.927 329.5,563C 288.931,556.527 250.265,544.193 213.5,526C 190.515,513.347 171.682,496.18 157,474.5C 150.182,462.569 148.182,449.902 151,436.5C 151.383,435.944 151.883,435.611 152.5,435.5C 150.169,446.68 152.669,456.68 160,465.5C 171.938,480.105 185.771,492.605 201.5,503C 240.405,524.283 281.405,540.283 324.5,551C 336.248,552.188 347.914,553.855 359.5,556C 404.22,559.768 448.553,557.101 492.5,548C 517.92,540.526 543.253,532.859 568.5,525C 597.937,513.542 623.77,496.709 646,474.5C 651.399,466.092 656.399,457.425 661,448.5C 664.649,438.064 667.149,427.398 668.5,416.5 Z"/></g>
<g><path style="opacity:1" fill="#141414" d="M 478.5,672.5 C 485.872,678.44 494.205,679.94 503.5,677C 506.732,675.77 509.399,673.77 511.5,671C 512.5,670.333 513.5,670.333 514.5,671C 512.476,676.438 510.142,681.772 507.5,687C 510.8,688.879 514.134,688.879 517.5,687C 532.745,675.358 541.412,659.858 543.5,640.5C 542.824,633.638 540.657,627.305 537,621.5C 523.858,607.513 507.691,599.846 488.5,598.5C 480.873,598.024 477.54,601.691 478.5,609.5C 479.213,614.311 480.547,618.978 482.5,623.5C 480.083,625.107 477.416,626.107 474.5,626.5C 472.491,621.266 471.158,615.766 470.5,610C 470.586,606.241 471.586,602.741 473.5,599.5C 473.167,598.5 472.5,597.833 471.5,597.5C 469.364,598.472 468.197,600.139 468,602.5C 467.081,608.966 467.581,615.299 469.5,621.5C 459.019,625.309 450.519,631.642 444,640.5C 430.5,618.167 417,595.833 403.5,573.5C 437.551,572.702 471.217,568.702 504.5,561.5C 506.299,561.577 507.966,562.077 509.5,563C 520.782,574.621 532.948,585.121 546,594.5C 546.265,596.163 545.765,597.663 544.5,599C 549.027,601.543 552.194,605.376 554,610.5C 565.459,638.3 560.959,663.134 540.5,685C 534.687,690.075 528.354,694.408 521.5,698C 505.454,705.563 492.62,702.063 483,687.5C 480.383,682.817 478.883,677.817 478.5,672.5 Z"/></g>
<g><path style="opacity:1" fill="#1a1a1a" d="M 341.5,626.5 C 340.957,626.56 340.624,626.893 340.5,627.5C 342.415,637.065 343.749,646.732 344.5,656.5C 344.66,659.696 343.66,662.363 341.5,664.5C 336.277,662.889 331.277,660.723 326.5,658C 319.953,652.954 314.286,647.12 309.5,640.5C 307.682,644.136 305.849,647.802 304,651.5C 301.757,653.282 299.257,653.782 296.5,653C 288.502,649.673 284.835,643.673 285.5,635C 285.51,621.304 289.344,608.804 297,597.5C 303.059,590.276 309.559,583.609 316.5,577.5C 326.26,575.198 334.26,577.864 340.5,585.5C 341.079,580.029 342.246,574.696 344,569.5C 347.819,568.73 351.653,569.063 355.5,570.5C 348.17,588.493 343.503,607.16 341.5,626.5 Z"/></g>
<g><path style="opacity:1" fill="#d6d4d4" d="M 360.5,674.5 C 365.51,683.351 371.51,691.517 378.5,699C 384.877,703.189 391.544,706.855 398.5,710C 417.397,716.636 424.897,710.136 421,690.5C 413.14,671.699 409.307,652.032 409.5,631.5C 398.974,626.785 387.974,624.118 376.5,623.5C 367.747,622.705 360.081,625.039 353.5,630.5C 350.807,627.803 348.473,624.803 346.5,621.5C 349.911,604.187 354.411,587.187 360,570.5C 364.748,569.365 369.581,569.198 374.5,570C 381.807,570.95 389.14,571.617 396.5,572C 412.113,596.047 427.113,620.547 441.5,645.5C 435.945,660.017 436.445,674.35 443,688.5C 450.196,696.084 459.03,698.917 469.5,697C 472.713,696.394 475.713,695.227 478.5,693.5C 479.748,694.04 480.915,694.707 482,695.5C 480.68,711.111 480.346,726.777 481,742.5C 481.518,749.13 482.685,755.63 484.5,762C 484.095,762.945 483.428,763.612 482.5,764C 447.431,774.811 415.097,769.477 385.5,748C 370.855,738.357 359.355,725.857 351,710.5C 348.215,702.028 346.382,693.361 345.5,684.5C 351.705,682.903 356.705,679.569 360.5,674.5 Z"/></g>
<g><path style="opacity:1" fill="#141414" d="M 316.5,577.5 C 309.559,583.609 303.059,590.276 297,597.5C 289.344,608.804 285.51,621.304 285.5,635C 284.835,643.673 288.502,649.673 296.5,653C 299.257,653.782 301.757,653.282 304,651.5C 305.849,647.802 307.682,644.136 309.5,640.5C 314.286,647.12 319.953,652.954 326.5,658C 331.277,660.723 336.277,662.889 341.5,664.5C 343.66,662.363 344.66,659.696 344.5,656.5C 343.749,646.732 342.415,637.065 340.5,627.5C 340.624,626.893 340.957,626.56 341.5,626.5C 351.199,635.23 356.699,646.23 358,659.5C 359.809,668.085 356.976,674.585 349.5,679C 336.43,684.976 325.264,682.476 316,671.5C 315.5,670 315,668.5 314.5,667C 316.52,664.379 316.853,661.545 315.5,658.5C 312.756,662.751 309.422,666.585 305.5,670C 299.786,671.57 294.12,671.237 288.5,669C 276.97,657.72 273.47,644.22 278,628.5C 282.284,608.737 292.45,592.904 308.5,581C 310.818,579.007 313.484,577.841 316.5,577.5 Z"/></g>
<g><path style="opacity:1" fill="#1a1a1a" d="M 478.5,672.5 C 478.817,669.428 478.484,666.428 477.5,663.5C 474.915,671.11 474.915,678.777 477.5,686.5C 477.124,688.383 476.124,689.883 474.5,691C 467.964,693.968 461.297,694.301 454.5,692C 446.932,689.671 443.099,684.504 443,676.5C 438.427,654.149 446.26,637.982 466.5,628C 469.207,627.605 471.873,627.105 474.5,626.5C 477.416,626.107 480.083,625.107 482.5,623.5C 480.547,618.978 479.213,614.311 478.5,609.5C 477.54,601.691 480.873,598.024 488.5,598.5C 507.691,599.846 523.858,607.513 537,621.5C 540.657,627.305 542.824,633.638 543.5,640.5C 541.412,659.858 532.745,675.358 517.5,687C 514.134,688.879 510.8,688.879 507.5,687C 510.142,681.772 512.476,676.438 514.5,671C 513.5,670.333 512.5,670.333 511.5,671C 509.399,673.77 506.732,675.77 503.5,677C 494.205,679.94 485.872,678.44 478.5,672.5 Z"/></g>
<g><path style="opacity:1" fill="#1a1a1a" d="M 598.5,698.5 C 597.912,721.899 590.746,742.899 577,761.5C 565.289,772.94 551.456,780.607 535.5,784.5C 518.038,781.872 507.538,771.872 504,754.5C 503.302,747.265 502.468,740.098 501.5,733C 502.126,732.25 502.626,731.416 503,730.5C 508.809,736.106 515.809,738.772 524,738.5C 531.939,738.279 538.772,735.446 544.5,730C 552.225,722.272 558.391,713.439 563,703.5C 563.794,700.529 564.461,697.529 565,694.5C 565.418,681.971 566.251,669.471 567.5,657C 567.12,651.981 566.454,647.148 565.5,642.5C 564.922,628.765 561.588,615.765 555.5,603.5C 556.002,602.479 556.668,602.312 557.5,603C 571.596,617.015 581.763,633.515 588,652.5C 593.227,667.473 596.727,682.806 598.5,698.5 Z"/></g>
<g><path style="opacity:1" fill="#e6e6e6" d="M 360.5,674.5 C 363.083,665.193 362.917,655.859 360,646.5C 358.097,641.032 355.93,635.699 353.5,630.5C 360.081,625.039 367.747,622.705 376.5,623.5C 387.974,624.118 398.974,626.785 409.5,631.5C 409.307,652.032 413.14,671.699 421,690.5C 424.897,710.136 417.397,716.636 398.5,710C 391.544,706.855 384.877,703.189 378.5,699C 371.51,691.517 365.51,683.351 360.5,674.5 Z"/></g>
<g><path style="opacity:1" fill="#141414" d="M 565.5,642.5 C 566.454,647.148 567.12,651.981 567.5,657C 566.251,669.471 565.418,681.971 565,694.5C 564.461,697.529 563.794,700.529 563,703.5C 558.391,713.439 552.225,722.272 544.5,730C 538.772,735.446 531.939,738.279 524,738.5C 515.809,738.772 508.809,736.106 503,730.5C 502.626,731.416 502.126,732.25 501.5,733C 502.468,740.098 503.302,747.265 504,754.5C 507.538,771.872 518.038,781.872 535.5,784.5C 551.456,780.607 565.289,772.94 577,761.5C 590.746,742.899 597.912,721.899 598.5,698.5C 602.933,721.449 598.766,742.782 586,762.5C 585.175,764.701 585.675,766.534 587.5,768C 598.604,767.364 607.771,771.197 615,779.5C 618.98,786.624 623.814,793.124 629.5,799C 632.661,800.413 635.661,802.08 638.5,804C 634.952,805.941 631.286,807.607 627.5,809C 619.193,809.999 610.86,810.832 602.5,811.5C 601.423,814.474 601.423,817.474 602.5,820.5C 582.318,821.048 562.318,819.548 542.5,816C 513.218,805.719 494.718,785.552 487,755.5C 483.667,736.833 483.667,718.167 487,699.5C 491.793,704.268 497.627,706.601 504.5,706.5C 516.071,705.922 526.405,702.088 535.5,695C 552.137,681.903 561.637,664.736 564,643.5C 564.383,642.944 564.883,642.611 565.5,642.5 Z"/></g>
<g><path style="opacity:1" fill="#131313" d="M 350.5,718.5 C 349.043,720.242 347.876,722.242 347,724.5C 338.283,720.644 330.616,715.311 324,708.5C 322.417,720.502 325.084,731.502 332,741.5C 338.772,748.117 345.939,754.117 353.5,759.5C 338.303,758.317 327.136,750.984 320,737.5C 312.742,718.114 311.742,698.447 317,678.5C 323.898,685.032 332.065,687.698 341.5,686.5C 342.023,697.933 345.023,708.6 350.5,718.5 Z"/></g>
<g><path style="opacity:1" fill="#1a1a1a" d="M 350.5,718.5 C 353.904,722.965 357.071,727.631 360,732.5C 365.289,737.867 370.789,742.867 376.5,747.5C 378.142,754.451 381.142,760.785 385.5,766.5C 382.554,767.655 379.554,767.821 376.5,767C 370.378,765.471 364.378,763.638 358.5,761.5C 356.95,760.559 355.284,759.893 353.5,759.5C 345.939,754.117 338.772,748.117 332,741.5C 325.084,731.502 322.417,720.502 324,708.5C 330.616,715.311 338.283,720.644 347,724.5C 347.876,722.242 349.043,720.242 350.5,718.5 Z"/></g>
<g><path style="opacity:1" fill="#141414" d="M 376.5,747.5 C 388.389,755.614 401.056,762.447 414.5,768C 415.749,770.21 415.582,772.376 414,774.5C 406.476,785.682 396.31,793.515 383.5,798C 375.218,799.923 366.885,801.59 358.5,803C 353.761,803.726 349.095,803.393 344.5,802C 346.809,799.513 349.476,797.513 352.5,796C 356.633,790.866 361.133,786.032 366,781.5C 366.612,779.763 365.946,778.763 364,778.5C 361.71,779.724 359.544,781.057 357.5,782.5C 358.172,779.658 359.506,777.158 361.5,775C 351.161,771.609 340.828,768.109 330.5,764.5C 331.932,762.673 333.599,761.006 335.5,759.5C 342.062,762.14 348.729,764.474 355.5,766.5C 356.442,766.392 357.275,766.059 358,765.5C 357.645,764.041 357.811,762.707 358.5,761.5C 364.378,763.638 370.378,765.471 376.5,767C 379.554,767.821 382.554,767.655 385.5,766.5C 381.142,760.785 378.142,754.451 376.5,747.5 Z"/></g>
<g><path style="opacity:1" fill="#1a1a1a" d="M 330.5,764.5 C 340.828,768.109 351.161,771.609 361.5,775C 359.506,777.158 358.172,779.658 357.5,782.5C 346.393,790.126 334.06,792.626 320.5,790C 315.177,788.923 310.677,786.423 307,782.5C 305.504,780.55 305.337,778.55 306.5,776.5C 315.084,773.541 323.084,769.541 330.5,764.5 Z"/></g>
<g><path style="opacity:1" fill="#1a1a1a" d="M 578.5,780.5 C 593.089,778.218 605.255,782.552 615,793.5C 615.688,794.332 615.521,794.998 614.5,795.5C 607.334,800.602 599.334,802.935 590.5,802.5C 590.692,805.601 591.358,808.601 592.5,811.5C 587.593,811.932 582.926,810.765 578.5,808C 572.243,803.287 566.076,798.454 560,793.5C 558.148,790.653 558.648,788.153 561.5,786C 567.137,783.682 572.803,781.849 578.5,780.5 Z"/></g>

        
<g><path style="opacity:0.957" fill="#020202" d="M 492.5,247.5 C 518.036,247.341 536.869,258.341 549,280.5C 553.515,288.881 557.348,297.548 560.5,306.5C 580.242,322.468 585.075,342.135 575,365.5C 572.44,370.116 569.273,374.282 565.5,378C 559.833,378.333 554.167,378.667 548.5,379C 532.92,382.86 517.586,387.527 502.5,393C 487.559,400.719 472.726,408.553 458,416.5C 454.948,415.289 451.781,414.455 448.5,414C 441.357,407.927 433.69,402.594 425.5,398C 420.197,391.208 415.031,384.375 410,377.5C 408.789,383.132 406.789,388.466 404,393.5C 397.729,399.968 390.562,401.135 382.5,397C 378.252,394.757 374.586,391.757 371.5,388C 368.577,386.29 365.577,386.123 362.5,387.5C 357.09,397.358 349.09,400.191 338.5,396C 336.04,394.542 333.873,392.709 332,390.5C 329.522,382.254 327.522,373.921 326,365.5C 320.148,383.041 311.315,398.874 299.5,413C 296.163,415.671 292.496,417.837 288.5,419.5C 285.681,417.718 283.681,415.218 282.5,412C 275.993,407.914 269.66,403.58 263.5,399C 245.723,388.644 226.723,384.977 206.5,388C 204.615,385.061 203.115,381.895 202,378.5C 199.281,359.042 203.615,341.375 215,325.5C 215.811,303.71 224.644,286.21 241.5,273C 247.839,268.496 254.839,265.662 262.5,264.5C 266.961,265.153 271.294,266.32 275.5,268C 295.875,282.044 310.709,300.544 320,323.5C 324.116,333.515 327.616,343.682 330.5,354C 348.492,364.612 367.492,367.279 387.5,362C 391.821,361.501 396.154,361.334 400.5,361.5C 397.258,348.95 396.758,336.284 399,323.5C 401.262,314.712 403.929,306.046 407,297.5C 410.946,291.221 415.279,285.221 420,279.5C 440.443,260.191 464.61,249.524 492.5,247.5 Z"/></g>
<g><path style="opacity:1" fill="#1b1b1b" d="M 491.5,251.5 C 512.865,250.933 529.698,259.266 542,276.5C 546.498,283.995 550.331,291.829 553.5,300C 553.167,300.5 552.833,301 552.5,301.5C 519.409,280.417 485.409,278.917 450.5,297C 445.732,301.769 440.399,305.769 434.5,309C 422.693,321.445 413.526,335.612 407,351.5C 406.393,354.202 406.56,356.868 407.5,359.5C 407.444,360.737 406.944,361.737 406,362.5C 403.451,358.185 402.118,353.519 402,348.5C 400.755,329.153 404.422,310.819 413,293.5C 417.194,288.94 421.028,284.106 424.5,279C 431.007,274.914 437.34,270.58 443.5,266C 458.431,257.108 474.431,252.275 491.5,251.5 Z"/></g>
<g><path style="opacity:1" fill="#1b1b1b" d="M 256.5,269.5 C 263.393,268.655 269.727,270.155 275.5,274C 299.943,292.441 315.443,316.607 322,346.5C 315.942,336.442 309.108,326.942 301.5,318C 298.167,315.333 294.833,312.667 291.5,310C 285.132,308.102 279.132,305.435 273.5,302C 252.722,297.821 234.889,303.321 220,318.5C 221.281,302.771 227.781,289.604 239.5,279C 244.938,275.284 250.605,272.118 256.5,269.5 Z"/></g>
<g><path style="opacity:1" fill="#f5f4e7" d="M 485.5,290.5 C 498.715,289.757 511.715,290.924 524.5,294C 536.342,298.72 547.675,304.387 558.5,311C 574.454,323.985 578.954,340.152 572,359.5C 571.152,361.874 569.819,363.874 568,365.5C 551.898,352.421 534.065,342.255 514.5,335C 496.911,330.718 480.244,333.051 464.5,342C 453.109,351.471 446.609,363.638 445,378.5C 444.667,387.5 444.333,396.5 444,405.5C 426.579,396.662 415.912,382.662 412,363.5C 411.174,358.411 411.508,353.411 413,348.5C 419.809,335.709 427.976,323.876 437.5,313C 443.693,309.738 449.36,305.738 454.5,301C 458.5,299 462.5,297 466.5,295C 473.116,294.187 479.45,292.687 485.5,290.5 Z"/></g>
<g><path style="opacity:1" fill="#f4f3e6" d="M 253.5,305.5 C 259.577,305.196 265.577,305.696 271.5,307C 277.456,310.765 283.789,313.765 290.5,316C 296.662,321.162 302.495,326.662 308,332.5C 312.333,339.833 316.667,347.167 321,354.5C 322.248,362.796 321.248,370.796 318,378.5C 312.651,387.877 306.818,396.877 300.5,405.5C 302.259,378.186 291.259,357.686 267.5,344C 247.309,340.175 230.809,346.341 218,362.5C 213.818,368.199 210.152,374.199 207,380.5C 203.492,363.884 206.159,348.217 215,333.5C 219.456,327.375 224.289,321.542 229.5,316C 237.041,311.217 245.041,307.717 253.5,305.5 Z"/></g>
<g><path style="opacity:1" fill="#1b1b1b" d="M 328.5,359.5 C 328.735,358.903 329.235,358.57 330,358.5C 339.985,363.606 350.485,367.106 361.5,369C 366.5,369.667 371.5,369.667 376.5,369C 384.799,366.081 393.133,365.414 401.5,367C 406.883,376.063 406.217,384.729 399.5,393C 389.58,396.899 381.247,394.566 374.5,386C 370.619,382.357 366.285,381.69 361.5,384C 358.462,386.703 355.795,389.703 353.5,393C 348.411,393.826 343.411,393.492 338.5,392C 336.951,390.786 335.785,389.286 335,387.5C 332.764,379.317 331.43,370.984 331,362.5C 330.623,361.058 329.79,360.058 328.5,359.5 Z"/></g>

        
<g><path style="opacity:0.993" fill="#20201e" d="M 591.5,350.5 C 590.89,349.609 590.557,348.609 590.5,347.5C 598.093,347.538 604.593,350.538 610,356.5C 612.002,361.007 613.502,365.674 614.5,370.5C 614.02,374.293 612.353,377.46 609.5,380C 604.5,382.333 599.5,384.667 594.5,387C 582.992,386.084 571.492,384.917 560,383.5C 549.575,383.44 539.575,385.44 530,389.5C 529.099,405.656 527.099,421.656 524,437.5C 515.846,455.806 507.18,473.806 498,491.5C 496.381,493.772 494.548,495.772 492.5,497.5C 491.558,497.392 490.725,497.059 490,496.5C 490.124,476.86 487.791,457.527 483,438.5C 480.491,430.264 476.491,422.931 471,416.5C 465.075,419.213 459.241,422.046 453.5,425C 421.871,432.862 390.038,434.695 358,430.5C 338.546,433.337 319.379,432.004 300.5,426.5C 296.372,429.29 293.372,432.957 291.5,437.5C 286.174,448.647 282.34,460.313 280,472.5C 279.983,480.544 279.816,488.544 279.5,496.5C 278.448,498.256 276.781,498.923 274.5,498.5C 263.666,480.855 255.833,461.855 251,441.5C 248.471,427.539 249.971,414.039 255.5,401C 246.898,396.699 237.898,393.532 228.5,391.5C 218.197,392.724 207.863,393.224 197.5,393C 182.147,389.146 173.647,379.313 172,363.5C 171.333,358.833 171.333,354.167 172,349.5C 172.036,347.059 172.869,345.059 174.5,343.5C 175.086,343.709 175.586,344.043 176,344.5C 175.529,355.347 177.529,365.681 182,375.5C 187.543,382.974 195.043,386.974 204.5,387.5C 232.498,383.446 257.164,390.613 278.5,409C 291.714,416.182 305.714,421.182 320.5,424C 344.953,424.754 369.453,425.587 394,426.5C 413.476,426.449 432.642,423.949 451.5,419C 468.5,410 485.5,401 502.5,392C 517.586,386.527 532.92,381.86 548.5,378C 556.5,377.333 564.5,377.333 572.5,378C 579.063,379.986 585.73,380.986 592.5,381C 596.749,378.806 601.082,376.806 605.5,375C 606.872,373.758 607.872,372.258 608.5,370.5C 607.098,366.461 605.598,362.461 604,358.5C 599.684,355.934 595.517,353.267 591.5,350.5 Z"/></g>
<g><path style="opacity:0.408" fill="#9b9b93" d="M 590.5,347.5 C 590.557,348.609 590.89,349.609 591.5,350.5C 589.448,349.947 589.115,348.947 590.5,347.5 Z"/></g>
<g><path style="opacity:1" fill="#f3f2e5" d="M 523.5,390.5 C 524.649,390.791 525.316,391.624 525.5,393C 523.612,406.547 521.446,420.047 519,433.5C 511.787,450.924 503.787,467.924 495,484.5C 495.151,468.559 493.151,452.892 489,437.5C 485.392,429.112 480.892,421.278 475.5,414C 481.968,408.926 488.968,404.593 496.5,401C 505.492,397.175 514.492,393.675 523.5,390.5 Z"/></g>
<g><path style="opacity:1" fill="#f3f2e5" d="M 259.5,403.5 C 270.581,412.379 282.915,419.212 296.5,424C 280.894,441.812 273.394,462.645 274,486.5C 266.227,471.515 260.227,455.848 256,439.5C 254.469,427.135 255.636,415.135 259.5,403.5 Z"/></g>
<g><path style="opacity:0.751" fill="#e9e8dc" d="M 300.5,426.5 C 300.046,432.284 297.046,435.951 291.5,437.5C 293.372,432.957 296.372,429.29 300.5,426.5 Z"/></g>
<g><path style="opacity:0.796" fill="#62625d" d="M 279.5,496.5 C 280.404,497.209 280.737,498.209 280.5,499.5C 278.265,499.795 276.265,499.461 274.5,498.5C 276.781,498.923 278.448,498.256 279.5,496.5 Z"/></g>

        
<g><path style="opacity:0.99" fill="#07070a" d="M 334.5,239.5 C 334.5,238.5 334.5,237.5 334.5,236.5C 333.209,236.263 332.209,236.596 331.5,237.5C 329.254,237.936 327.087,238.603 325,239.5C 322.67,237.336 322.003,234.669 323,231.5C 324.455,228.088 326.288,224.921 328.5,222C 323.233,221.326 318.066,221.826 313,223.5C 311.029,223.719 309.862,222.885 309.5,221C 311.237,215.253 314.57,210.586 319.5,207C 324.198,204.651 328.864,202.318 333.5,200C 324.528,200.535 322.528,197.202 327.5,190C 330.253,188.499 332.92,186.999 335.5,185.5C 334.296,182.585 332.296,180.419 329.5,179C 320.577,175.47 311.577,172.137 302.5,169C 301.483,167.951 301.316,166.784 302,165.5C 307.762,162.001 314.095,160.334 321,160.5C 344.639,162.708 361.472,174.374 371.5,195.5C 372.548,197.933 373.214,197.933 373.5,195.5C 377.16,183.177 383.16,172.177 391.5,162.5C 398.406,155.547 406.74,151.547 416.5,150.5C 415.726,157.132 412.893,162.798 408,167.5C 404.697,172.441 402.197,177.774 400.5,183.5C 405.328,183.469 410.328,183.635 415.5,184C 417.576,185.884 417.91,188.051 416.5,190.5C 412.206,191.645 408.539,193.812 405.5,197C 418.699,196.375 425.699,202.542 426.5,215.5C 419.799,216.682 414.132,219.682 409.5,224.5C 410.61,233.138 410.776,241.804 410,250.5C 409.592,253.42 408.259,255.754 406,257.5C 405.333,256.833 404.667,256.167 404,255.5C 403.664,248.505 400.164,243.839 393.5,241.5C 392.246,247.457 390.246,253.123 387.5,258.5C 385.694,259.859 384.194,259.525 383,257.5C 383.07,251.993 380.737,247.993 376,245.5C 372.584,247.992 370.418,251.325 369.5,255.5C 368.127,255.657 366.793,255.49 365.5,255C 361.071,251.705 356.571,248.538 352,245.5C 347.629,248.431 343.796,251.931 340.5,256C 339.5,256.667 338.5,256.667 337.5,256C 335.48,250.719 334.48,245.219 334.5,239.5 Z"/></g>
<g><path style="opacity:1" fill="#2c2d39" d="M 400.5,195.5 C 400.5,194.5 400.5,193.5 400.5,192.5C 396.914,192.848 393.914,194.015 391.5,196C 392.048,186.264 394.548,176.764 399,167.5C 402.333,166.167 402.333,164.833 399,163.5C 398.617,164.056 398.117,164.389 397.5,164.5C 400.468,160.514 404.468,158.348 409.5,158C 401.586,167.41 397.252,178.243 396.5,190.5C 400.011,188.915 403.678,188.415 407.5,189C 404.642,190.694 402.309,192.861 400.5,195.5 Z"/></g>
<g><path style="opacity:1" fill="#333340" d="M 400.5,195.5 C 399.659,197.379 399.325,199.379 399.5,201.5C 403.234,201.323 406.901,201.656 410.5,202.5C 410.423,203.75 409.756,204.583 408.5,205C 410.285,206.163 412.285,206.83 414.5,207C 413.167,207.667 413.167,208.333 414.5,209C 410,212.167 406.167,216 403,220.5C 403.059,225.287 403.226,230.12 403.5,235C 401.109,236.309 401.109,237.309 403.5,238C 401.892,238.658 400.725,238.158 400,236.5C 399.536,237.094 399.369,237.761 399.5,238.5C 396.099,236.616 392.433,236.116 388.5,237C 387.741,241.471 386.908,245.971 386,250.5C 383.287,245.747 379.787,241.747 375.5,238.5C 373.821,239.782 371.987,240.782 370,241.5C 369.913,244.578 368.579,246.912 366,248.5C 360.951,246.231 356.784,242.898 353.5,238.5C 350.87,239.804 348.537,241.47 346.5,243.5C 345.5,243.5 344.5,243.5 343.5,243.5C 343.64,241.876 342.973,240.71 341.5,240C 342.177,237.018 342.177,234.185 341.5,231.5C 340.758,230.713 339.925,230.047 339,229.5C 336.761,230.869 334.927,230.369 333.5,228C 335.008,225.906 336.342,223.74 337.5,221.5C 337.5,221.167 337.5,220.833 337.5,220.5C 338.097,220.265 338.43,219.765 338.5,219C 336.976,217.806 335.81,216.306 335,214.5C 331.716,214.387 328.383,214.72 325,215.5C 324.626,214.584 324.126,213.75 323.5,213C 328.342,210.053 333.342,207.553 338.5,205.5C 339.167,205.5 339.833,205.5 340.5,205.5C 342.734,204.296 345.067,203.13 347.5,202C 344.701,201.561 343.701,200.228 344.5,198C 343.167,197 341.833,196 340.5,195C 341.155,193.513 342.155,192.347 343.5,191.5C 344.631,189.926 344.798,188.259 344,186.5C 341.675,183.173 339.342,179.839 337,176.5C 334.238,175.019 331.571,173.353 329,171.5C 328.626,170.584 328.126,169.75 327.5,169C 328.416,168.722 329.082,168.222 329.5,167.5C 341.896,170.723 352.063,177.39 360,187.5C 363.841,193.178 367.174,199.178 370,205.5C 371.396,207.527 373.062,207.86 375,206.5C 377.94,192.62 383.607,179.953 392,168.5C 393.992,167.335 395.825,166.002 397.5,164.5C 398.117,164.389 398.617,164.056 399,163.5C 402.333,164.833 402.333,166.167 399,167.5C 394.548,176.764 392.048,186.264 391.5,196C 393.914,194.015 396.914,192.848 400.5,192.5C 400.5,193.5 400.5,194.5 400.5,195.5 Z"/></g>
<g><path style="opacity:1" fill="#2c2d3a" d="M 329.5,167.5 C 329.082,168.222 328.416,168.722 327.5,169C 328.126,169.75 328.626,170.584 329,171.5C 331.571,173.353 334.238,175.019 337,176.5C 339.342,179.839 341.675,183.173 344,186.5C 344.798,188.259 344.631,189.926 343.5,191.5C 342.155,192.347 341.155,193.513 340.5,195C 341.833,196 343.167,197 344.5,198C 343.701,200.228 344.701,201.561 347.5,202C 345.067,203.13 342.734,204.296 340.5,205.5C 342.213,199.063 339.879,195.063 333.5,193.5C 335.664,191.316 338.331,189.983 341.5,189.5C 340.302,184.134 337.635,179.634 333.5,176C 327.136,172.818 320.802,169.651 314.5,166.5C 319.741,165.1 324.741,165.434 329.5,167.5 Z"/></g>
<g><path style="opacity:0.024" fill="#292a35" d="M 371.5,195.5 C 372.167,195.5 372.833,195.5 373.5,195.5C 373.214,197.933 372.548,197.933 371.5,195.5 Z"/></g>
<g><path style="opacity:1" fill="#2d2d3a" d="M 410.5,202.5 C 415.782,202.972 419.449,205.639 421.5,210.5C 415.285,213.224 410.118,217.224 406,222.5C 406.682,229.818 406.515,237.151 405.5,244.5C 403.146,242.812 401.146,240.812 399.5,238.5C 399.369,237.761 399.536,237.094 400,236.5C 400.725,238.158 401.892,238.658 403.5,238C 401.109,237.309 401.109,236.309 403.5,235C 403.226,230.12 403.059,225.287 403,220.5C 406.167,216 410,212.167 414.5,209C 413.167,208.333 413.167,207.667 414.5,207C 412.285,206.83 410.285,206.163 408.5,205C 409.756,204.583 410.423,203.75 410.5,202.5 Z"/></g>
<g><path style="opacity:1" fill="#2b2c38" d="M 338.5,205.5 C 333.342,207.553 328.342,210.053 323.5,213C 324.126,213.75 324.626,214.584 325,215.5C 328.383,214.72 331.716,214.387 335,214.5C 335.81,216.306 336.976,217.806 338.5,219C 338.43,219.765 338.097,220.265 337.5,220.5C 336.64,218.386 334.973,217.22 332.5,217C 327.116,216.495 321.782,216.495 316.5,217C 322.249,209.629 329.582,205.796 338.5,205.5 Z"/></g>
<g><path style="opacity:1" fill="#2c2c39" d="M 337.5,221.5 C 336.342,223.74 335.008,225.906 333.5,228C 334.927,230.369 336.761,230.869 339,229.5C 339.925,230.047 340.758,230.713 341.5,231.5C 342.177,234.185 342.177,237.018 341.5,240C 342.973,240.71 343.64,241.876 343.5,243.5C 344.5,243.5 345.5,243.5 346.5,243.5C 344.229,245.266 342.063,247.266 340,249.5C 337.689,243.959 336.856,238.293 337.5,232.5C 334.073,232.976 330.74,232.976 327.5,232.5C 329.464,227.538 332.798,223.871 337.5,221.5 Z"/></g>
<g><path style="opacity:0.157" fill="#272733" d="M 331.5,237.5 C 332.209,236.596 333.209,236.263 334.5,236.5C 334.5,237.5 334.5,238.5 334.5,239.5C 333.778,238.449 332.778,237.782 331.5,237.5 Z"/></g>

    </svg>
