
    <svg width="862" height="862" viewBox="0 0 862 862" fill="none" xmlns="http://www.w3.org/2000/svg">
        
<g><path style="opacity:1" fill="#f6f6e8" d="M -0.5,-0.5 C 286.833,-0.5 574.167,-0.5 861.5,-0.5C 861.5,286.833 861.5,574.167 861.5,861.5C 574.167,861.5 286.833,861.5 -0.5,861.5C -0.5,574.167 -0.5,286.833 -0.5,-0.5 Z"/></g>

        
<g><path style="opacity:0.983" fill="#1a1a19" d="M 578.5,540.5 C 583.993,540.916 589.326,542.082 594.5,544C 599.237,547.614 603.403,551.781 607,556.5C 613.977,570.057 616.311,584.39 614,599.5C 611.931,603.236 608.931,605.903 605,607.5C 603.018,607.01 601.351,606.01 600,604.5C 594.275,609.717 588.442,609.717 582.5,604.5C 577.923,613.337 572.256,614.337 565.5,607.5C 561.53,612.973 556.196,614.806 549.5,613C 548.299,612.097 547.465,610.931 547,609.5C 541.931,617.452 536.764,617.452 531.5,609.5C 527.737,613.765 523.737,617.932 519.5,622C 516.106,622.752 512.773,622.585 509.5,621.5C 508.194,620.088 507.36,618.421 507,616.5C 505.425,609.568 504.258,602.568 503.5,595.5C 504.335,583.317 510.669,578.317 522.5,580.5C 523.795,579.902 525.128,579.402 526.5,579C 535.197,570.637 543.531,561.97 551.5,553C 559.592,546.617 568.592,542.45 578.5,540.5 Z"/></g>
<g><path style="opacity:1" fill="#d9d8cb" d="M 587.5,601.5 C 588.496,601.586 589.329,601.252 590,600.5C 592.94,596.545 595.94,592.545 599,588.5C 599.37,579.339 598.37,570.339 596,561.5C 591.36,554.156 584.693,549.822 576,548.5C 573.538,549.159 571.038,549.493 568.5,549.5C 581.297,543.74 592.13,546.407 601,557.5C 608.853,570.951 611.186,585.285 608,600.5C 606.604,602.527 604.938,602.86 603,601.5C 602.091,598.089 601.091,594.755 600,591.5C 598.35,595.573 596.516,599.573 594.5,603.5C 591.584,604.861 589.251,604.195 587.5,601.5 Z"/></g>
<g><path style="opacity:1" fill="#f4f3e6" d="M 587.5,601.5 C 585.433,599.682 584.1,597.349 583.5,594.5C 582.635,593.417 581.635,593.251 580.5,594C 579.955,598.074 578.621,601.907 576.5,605.5C 574.878,607.439 573.044,607.772 571,606.5C 568.863,602.486 567.03,598.486 565.5,594.5C 564.522,594.977 563.689,595.643 563,596.5C 563.284,605.334 559.118,609.667 550.5,609.5C 550.348,605.228 549.348,601.228 547.5,597.5C 545.179,600.394 544.012,603.727 544,607.5C 541.618,612.067 538.951,612.4 536,608.5C 535.887,606.026 534.887,604.026 533,602.5C 527.856,607.313 523.023,612.48 518.5,618C 516.098,618.814 513.765,618.647 511.5,617.5C 508.811,609.37 507.645,601.036 508,592.5C 508.668,588.501 510.835,585.668 514.5,584C 518.801,584.363 523.134,584.363 527.5,584C 529.167,583 530.833,582 532.5,581C 540.864,572.97 548.864,564.637 556.5,556C 560.367,553.567 564.367,551.4 568.5,549.5C 571.038,549.493 573.538,549.159 576,548.5C 584.693,549.822 591.36,554.156 596,561.5C 598.37,570.339 599.37,579.339 599,588.5C 595.94,592.545 592.94,596.545 590,600.5C 589.329,601.252 588.496,601.586 587.5,601.5 Z"/></g>
<g><path style="opacity:0.982" fill="#191918" d="M 290.5,554.5 C 298.253,554.104 305.92,554.604 313.5,556C 315.5,557.333 317.5,558.667 319.5,560C 322.228,566.042 326.895,569.709 333.5,571C 335.378,572.543 336.878,574.376 338,576.5C 338.242,583.196 338.742,589.862 339.5,596.5C 339.461,598.587 338.461,599.921 336.5,600.5C 332.274,599.93 328.108,599.263 324,598.5C 322.5,600 321,601.5 319.5,603C 317.287,603.626 315.12,603.459 313,602.5C 306.564,605.689 301.23,604.356 297,598.5C 284.481,607.161 276.648,603.994 273.5,589C 271.944,573.778 277.611,562.278 290.5,554.5 Z"/></g>
<g><path style="opacity:1" fill="#f4f3e6" d="M 334.5,587.5 C 334.5,590.167 334.5,592.833 334.5,595.5C 333.167,595.5 331.833,595.5 330.5,595.5C 327.482,595.335 324.482,595.502 321.5,596C 320.022,598.039 318.022,598.872 315.5,598.5C 315.5,597.5 315.5,596.5 315.5,595.5C 312.326,596.015 309.326,597.015 306.5,598.5C 305.5,598.333 304.5,598.167 303.5,598C 301.441,595.366 299.275,592.866 297,590.5C 296.292,591.381 295.458,592.047 294.5,592.5C 290.404,593.285 287.07,592.118 284.5,589C 284.833,588.667 285.167,588.333 285.5,588C 283.667,587.5 282.5,586.333 282,584.5C 281.501,580.179 281.334,575.846 281.5,571.5C 281.709,570.078 282.209,568.745 283,567.5C 286.167,565 289.333,562.5 292.5,560C 298.167,559.333 303.833,559.333 309.5,560C 314.42,562.916 318.753,566.582 322.5,571C 326.232,572.461 329.732,574.294 333,576.5C 333.936,580.114 334.436,583.78 334.5,587.5 Z"/></g>
<g><path style="opacity:1" fill="#d7d6c9" d="M 281.5,571.5 C 281.334,575.846 281.501,580.179 282,584.5C 282.5,586.333 283.667,587.5 285.5,588C 285.167,588.333 284.833,588.667 284.5,589C 287.07,592.118 290.404,593.285 294.5,592.5C 293.641,595.452 291.641,597.285 288.5,598C 285.364,599.041 282.864,598.207 281,595.5C 279.409,588.608 279.076,581.608 280,574.5C 280.232,573.263 280.732,572.263 281.5,571.5 Z"/></g>
<g><path style="opacity:1" fill="#64635e" d="M 334.5,587.5 C 335.477,590.287 335.81,593.287 335.5,596.5C 333.585,596.784 331.919,596.451 330.5,595.5C 331.833,595.5 333.167,595.5 334.5,595.5C 334.5,592.833 334.5,590.167 334.5,587.5 Z"/></g>

        
<g><path style="opacity:0.994" fill="#030c0c" d="M 505.5,18.5 C 529.919,17.7264 553.919,20.5598 577.5,27C 609.101,35.4222 639.767,46.4222 669.5,60C 698.643,78.4613 725.476,99.9613 750,124.5C 769.217,147.939 781.717,174.606 787.5,204.5C 787.255,206.663 786.255,208.33 784.5,209.5C 759.247,199.852 733.247,192.685 706.5,188C 674.881,182.925 645.214,188.259 617.5,204C 595.206,220.746 581.706,242.913 577,270.5C 573.386,276.063 568.219,279.23 561.5,280C 535.059,282.696 509.726,278.696 485.5,268C 468.941,259.107 453.775,248.273 440,235.5C 437.168,231.336 435.001,226.836 433.5,222C 433.645,221.228 433.978,220.561 434.5,220C 452.214,214.488 469.881,208.821 487.5,203C 509.336,194.838 527.502,181.671 542,163.5C 552.415,149.418 554.082,134.418 547,118.5C 546.505,116.527 546.338,114.527 546.5,112.5C 552.944,108.776 559.611,105.276 566.5,102C 576.482,99.0056 586.482,96.339 596.5,94C 561.281,62.2167 520.614,40.05 474.5,27.5C 473.417,26.635 473.251,25.635 474,24.5C 475.816,23.6705 477.649,22.8372 479.5,22C 488.308,20.784 496.974,19.6174 505.5,18.5 Z"/></g>
<g><path style="opacity:1" fill="#004944" d="M 536.5,178.5 C 535.704,182.297 533.704,185.297 530.5,187.5C 529.846,189.115 529.346,190.782 529,192.5C 525.167,196.333 521.333,200.167 517.5,204C 514,205.665 510.667,206.832 507.5,207.5C 506.228,207.43 505.062,207.097 504,206.5C 497.898,209.133 492.065,212.133 486.5,215.5C 484.923,220.055 484.09,224.722 484,229.5C 484.414,229.043 484.914,228.709 485.5,228.5C 486.098,231.187 487.431,233.354 489.5,235C 489.167,235.333 488.833,235.667 488.5,236C 491.333,236.167 492.833,237.667 493,240.5C 493.333,239.833 493.667,239.167 494,238.5C 495.655,238.802 496.988,240.136 498,242.5C 502.324,242.351 506.658,242.017 511,241.5C 514.341,243.671 518.008,245.005 522,245.5C 523.16,243.203 524.16,243.536 525,246.5C 526.851,244.219 528.518,244.219 530,246.5C 531.049,245.483 532.216,245.316 533.5,246C 532.304,246.654 532.304,247.154 533.5,247.5C 536.245,246.025 538.412,246.691 540,249.5C 544.19,248.732 548.357,247.732 552.5,246.5C 555.239,243.13 558.239,239.297 561.5,235C 560.202,232.501 560.536,230.167 562.5,228C 562.167,227.667 561.833,227.333 561.5,227C 564.018,225.12 564.685,222.787 563.5,220C 564.162,218.668 565.328,217.502 567,216.5C 568.617,213.073 569.617,209.74 570,206.5C 570.667,207.833 571.333,207.833 572,206.5C 571.169,203.263 572.336,200.763 575.5,199C 574.167,197.16 574.334,196.66 576,197.5C 576.729,193.113 578.729,189.447 582,186.5C 583.933,181.535 585.933,176.535 588,171.5C 589.294,164.56 587.961,158.227 584,152.5C 583.586,152.957 583.086,153.291 582.5,153.5C 582.331,152.603 581.998,151.603 581.5,150.5C 580.914,150.709 580.414,151.043 580,151.5C 577.978,150.214 575.811,149.214 573.5,148.5C 571.629,149.767 569.796,149.767 568,148.5C 564.436,151.369 560.602,153.869 556.5,156C 555.167,156.667 555.167,157.333 556.5,158C 555.747,159.487 554.914,159.654 554,158.5C 552.887,159.76 552.72,160.927 553.5,162C 552.184,162.528 551.517,162.028 551.5,160.5C 558.566,145.989 559.233,131.156 553.5,116C 556.103,112.692 559.436,110.359 563.5,109C 575.485,104.613 587.819,101.613 600.5,100C 603.379,98.3342 604.212,95.8342 603,92.5C 598.833,88.3333 594.667,84.1667 590.5,80C 577.512,70.5047 564.179,61.5047 550.5,53C 540.849,48.5089 531.515,43.5089 522.5,38C 511.167,34 499.833,30 488.5,26C 509.79,22.4719 531.123,22.8052 552.5,27C 582.164,33.4436 611.164,42.1103 639.5,53C 660.688,60.9222 680.022,71.9222 697.5,86C 710.5,97 723.5,108 736.5,119C 758.807,142.416 773.473,169.916 780.5,201.5C 763.076,195.638 745.409,190.471 727.5,186C 699.794,180.142 672.127,180.142 644.5,186C 603.461,199.42 579.461,227.42 572.5,270C 569.583,271.528 566.583,272.861 563.5,274C 536.135,277.591 510.135,273.258 485.5,261C 470.334,252.665 456.5,242.498 444,230.5C 442.833,228.167 441.667,225.833 440.5,223.5C 459.863,218.434 478.863,212.268 497.5,205C 504.342,201.078 511.342,197.412 518.5,194C 525.012,189.313 531.012,184.146 536.5,178.5 Z"/></g>
<g><path style="opacity:0.994" fill="#0c0c12" d="M 110.5,109.5 C 116.833,105.167 122.167,99.8333 126.5,93.5C 135.313,86.1972 144.313,79.0306 153.5,72C 170.937,64.1151 187.937,55.4484 204.5,46C 222.928,39.3172 241.928,35.3172 261.5,34C 268.833,33.3333 276.167,33.3333 283.5,34C 284.406,35.6995 284.739,37.5328 284.5,39.5C 282.473,39.3379 280.473,39.5045 278.5,40C 251.079,56.5854 230.079,79.0854 215.5,107.5C 223.11,109.983 230.443,113.149 237.5,117C 239.543,119.009 241.543,121.009 243.5,123C 243.578,128.964 243.411,135.131 243,141.5C 242.488,146.038 240.988,150.204 238.5,154C 248.461,168.641 257.628,183.808 266,199.5C 276.165,211.143 285.665,223.143 294.5,235.5C 285.24,264.602 266.573,285.435 238.5,298C 232.801,299.002 227.301,300.502 222,302.5C 219.446,302.42 217.946,301.086 217.5,298.5C 226.852,273.567 224.685,249.567 211,226.5C 195.302,204.14 174.468,188.64 148.5,180C 123.327,176.617 100.993,182.95 81.5,199C 79.8876,199.72 78.3876,199.554 77,198.5C 77.0751,189.833 77.7417,181.166 79,172.5C 83.4608,161.784 87.1275,150.784 90,139.5C 95.9148,128.773 102.748,118.773 110.5,109.5 Z"/></g>
<g><path style="opacity:1" fill="#004a44" d="M 261.5,40.5 C 262.791,40.2627 263.791,40.596 264.5,41.5C 243.286,57.2151 226.12,76.5484 213,99.5C 211.855,102.432 211.022,105.432 210.5,108.5C 209.167,108.5 207.833,108.5 206.5,108.5C 206.452,111.292 207.785,113.125 210.5,114C 220.933,114.96 230.1,119.126 238,126.5C 239.8,136.465 237.633,145.298 231.5,153C 236.717,162.603 242.05,172.103 247.5,181.5C 246.194,180.032 244.694,178.699 243,177.5C 242.333,180.167 241.667,180.167 241,177.5C 240,178.5 239,179.5 238,180.5C 234.257,177.585 231.757,177.918 230.5,181.5C 228.575,181.163 227.075,179.83 226,177.5C 225.026,179.878 224.359,179.544 224,176.5C 221.02,173.67 217.854,170.337 214.5,166.5C 212.833,167.5 211.5,168.833 210.5,170.5C 209.575,169.359 208.741,169.359 208,170.5C 206.924,174.102 206.09,177.769 205.5,181.5C 205.945,183.388 205.945,185.388 205.5,187.5C 205.76,189.187 206.427,190.687 207.5,192C 207.167,192.333 206.833,192.667 206.5,193C 207.944,194.707 209.277,196.54 210.5,198.5C 209.429,200.325 210.096,201.492 212.5,202C 210.314,202.604 210.148,203.77 212,205.5C 213.067,206.191 214.234,206.691 215.5,207C 214.353,209.085 215.02,210.585 217.5,211.5C 216.754,212.736 216.421,214.07 216.5,215.5C 217.552,215.351 218.552,215.517 219.5,216C 219.167,216.333 218.833,216.667 218.5,217C 220.558,218.49 221.891,220.49 222.5,223C 219.833,223.667 219.833,224.333 222.5,225C 222.131,228.053 223.131,230.887 225.5,233.5C 225.145,234.522 224.478,235.189 223.5,235.5C 217.511,222.379 209.178,210.879 198.5,201C 191.833,195.667 185.167,190.333 178.5,185C 145.593,166.828 113.926,168.662 83.5,190.5C 82.5318,188.393 82.1984,186.059 82.5,183.5C 86.3549,170.11 90.5216,156.776 95,143.5C 99.2205,136.893 103.054,130.06 106.5,123C 129.187,96.1832 156.02,75.6832 187,61.5C 188,61.5 189,61.5 190,61.5C 194.632,58.8573 198.965,55.8573 203,52.5C 204.016,53.6341 204.683,53.3008 205,51.5C 206.998,52.2714 208.665,51.6048 210,49.5C 210.414,49.9574 210.914,50.2907 211.5,50.5C 216.069,48.6994 220.735,47.1994 225.5,46C 237.507,43.8366 249.507,42.0033 261.5,40.5 Z"/></g>
<g><path style="opacity:1" fill="#3c003e" d="M 261.5,40.5 C 262.708,39.218 264.042,39.218 265.5,40.5C 265.376,41.1067 265.043,41.44 264.5,41.5C 263.791,40.596 262.791,40.2627 261.5,40.5 Z"/></g>
<g><path style="opacity:1" fill="#005a5d" d="M 602.5,148.5 C 603.097,148.265 603.43,147.765 603.5,147C 602.767,144.28 601.767,141.78 600.5,139.5C 599.463,138.07 598.796,136.403 598.5,134.5C 598.741,132.102 598.074,130.102 596.5,128.5C 596.771,126.62 596.104,125.287 594.5,124.5C 592.992,122.819 591.992,120.819 591.5,118.5C 591.167,116.5 590.833,114.5 590.5,112.5C 590.328,111.508 590.662,110.842 591.5,110.5C 593.027,110.573 594.027,109.906 594.5,108.5C 597.713,107.317 600.88,106.984 604,107.5C 605.168,106.491 606.335,105.491 607.5,104.5C 608.842,105.902 609.676,105.569 610,103.5C 612.498,104.598 614.998,104.432 617.5,103C 622.102,101.133 626.768,99.4662 631.5,98C 632.845,95.8068 634.845,94.3068 637.5,93.5C 634.998,91.5858 632.998,89.2525 631.5,86.5C 627.217,83.8847 623.217,80.8847 619.5,77.5C 617.958,76.2532 616.458,76.2532 615,77.5C 611.324,74.8212 607.491,72.3212 603.5,70C 601.624,67.4913 599.457,65.3246 597,63.5C 596,63.5 595,63.5 594,63.5C 593.558,61.3215 592.558,60.6548 591,61.5C 589.318,59.4011 587.652,58.0678 586,57.5C 585.586,57.9574 585.086,58.2907 584.5,58.5C 579.913,57.3898 575.413,55.3898 571,52.5C 568.679,53.3613 567.513,52.3613 567.5,49.5C 562.565,50.8463 559.565,48.8463 558.5,43.5C 561.923,40.588 564.923,40.9213 567.5,44.5C 568.167,44.1667 568.833,43.8333 569.5,43.5C 570.696,43.8457 570.696,44.3457 569.5,45C 572.047,45.0674 574.214,45.9007 576,47.5C 577.806,45.0481 579.306,45.3814 580.5,48.5C 581.861,49.2435 584.361,49.2435 588,48.5C 591.622,49.3375 594.956,51.3375 598,54.5C 599.512,52.0426 600.846,52.0426 602,54.5C 602.561,53.9781 603.228,53.6448 604,53.5C 606.5,54.3333 609,55.1667 611.5,56C 612.126,56.7504 612.626,57.5838 613,58.5C 614.728,59.2402 616.728,59.2402 619,58.5C 620.648,59.717 622.481,60.5503 624.5,61C 623.366,62.016 623.699,62.6827 625.5,63C 629.864,64.4009 634.197,64.9009 638.5,64.5C 639.799,65.09 640.632,66.09 641,67.5C 641.561,66.9781 642.228,66.6448 643,66.5C 645.248,67.9548 647.748,68.7882 650.5,69C 653.029,72.9956 656.529,74.4956 661,73.5C 661.605,75.4812 662.605,75.8146 664,74.5C 664.483,75.448 664.649,76.448 664.5,77.5C 665.822,77.67 666.989,77.3366 668,76.5C 669.824,78.7258 671.657,80.2258 673.5,81C 675.5,81.6667 677.5,82.3333 679.5,83C 678.66,84.6665 679.16,84.8331 681,83.5C 681.75,84.1258 682.584,84.6258 683.5,85C 683.167,85.3333 682.833,85.6667 682.5,86C 684.392,86.9734 686.392,87.6401 688.5,88C 689.667,89.8333 690.833,91.6667 692,93.5C 694.464,92.4744 696.298,93.3077 697.5,96C 696.66,97.6665 697.16,97.8331 699,96.5C 704.074,104.409 710.574,110.742 718.5,115.5C 718.491,117.308 718.991,118.975 720,120.5C 724.234,125.043 728.401,130.377 732.5,136.5C 734.102,135.45 734.935,136.117 735,138.5C 735.333,138.167 735.667,137.833 736,137.5C 736.309,138.766 736.809,139.933 737.5,141C 737.167,141.333 736.833,141.667 736.5,142C 737.833,142.667 739.167,143.333 740.5,144C 739.833,144.333 739.167,144.667 738.5,145C 739.552,146.119 740.719,146.619 742,146.5C 743.4,149.902 745.567,152.736 748.5,155C 747.366,156.016 747.699,156.683 749.5,157C 749.525,159.012 749.525,161.012 749.5,163C 751.06,165.768 752.393,168.602 753.5,171.5C 753.392,172.442 753.059,173.275 752.5,174C 753.672,174.419 754.672,175.085 755.5,176C 754.167,177 754.167,178 755.5,179C 754.214,181.423 752.714,182.923 751,183.5C 748.925,181.352 746.592,181.018 744,182.5C 743.167,181.667 742.333,180.833 741.5,180C 736.199,178.875 731.032,177.375 726,175.5C 724,175.5 722,175.5 720,175.5C 717.433,174.73 714.933,173.73 712.5,172.5C 711.038,173.471 709.705,173.138 708.5,171.5C 707.167,172.167 705.833,172.833 704.5,173.5C 703.555,171.483 702.055,171.15 700,172.5C 698.674,172.245 697.674,171.578 697,170.5C 686.199,171.422 675.199,171.422 664,170.5C 661.726,172.563 659.226,172.563 656.5,170.5C 654.866,170.968 653.7,171.968 653,173.5C 651.333,172.833 649.667,172.167 648,171.5C 642.51,172.799 637.51,174.466 633,176.5C 632.374,174.009 631.541,174.009 630.5,176.5C 628.836,175.777 627.169,176.11 625.5,177.5C 622.833,177.5 620.167,177.5 617.5,177.5C 615.826,174.746 614.159,174.413 612.5,176.5C 610.851,175.352 609.351,174.019 608,172.5C 607.227,167.834 606.561,162.834 606,157.5C 605.682,155.939 604.849,154.772 603.5,154C 604.167,153.667 604.833,153.333 605.5,153C 603.859,151.871 602.859,150.371 602.5,148.5 Z"/></g>
<g><path style="opacity:1" fill="#005a5d" d="M 225.5,53.5 C 226.478,53.811 227.145,54.4777 227.5,55.5C 226.438,56.7701 225.438,57.9367 224.5,59C 224.833,59.3333 225.167,59.6667 225.5,60C 220.176,64.459 216.176,69.959 213.5,76.5C 211.603,78.4763 209.603,80.3096 207.5,82C 207.833,82.3333 208.167,82.6667 208.5,83C 205.587,86.5618 202.587,90.0618 199.5,93.5C 200.534,96.0572 199.534,97.3905 196.5,97.5C 196.358,100.617 195.024,103.117 192.5,105C 193.925,106.714 193.592,108.047 191.5,109C 191.833,109.333 192.167,109.667 192.5,110C 189.773,112.241 189.106,114.907 190.5,118C 188.343,119.085 188.176,120.251 190,121.5C 191.566,122.061 192.899,121.394 194,119.5C 197.975,119.549 201.975,119.549 206,119.5C 206.853,121.125 207.853,121.458 209,120.5C 210.713,121.878 212.047,123.545 213,125.5C 213.333,125.167 213.667,124.833 214,124.5C 218.608,128.003 220.108,132.169 218.5,137C 219.167,137.667 219.833,138.333 220.5,139C 217.681,141.383 216.515,144.216 217,147.5C 216.25,148.126 215.416,148.626 214.5,149C 214.5,150.333 214.5,151.667 214.5,153C 211.701,153.439 210.701,154.772 211.5,157C 209.479,157.513 207.979,158.68 207,160.5C 206.07,163.362 204.403,165.695 202,167.5C 201.517,168.448 201.351,169.448 201.5,170.5C 197.103,170.575 192.77,170.075 188.5,169C 181.084,166.236 173.917,163.736 167,161.5C 166.333,162.167 165.667,162.833 165,163.5C 162.389,162.929 159.889,162.096 157.5,161C 144.233,160.615 131.067,160.448 118,160.5C 113.119,161.174 108.286,162.174 103.5,163.5C 101.382,163.24 99.7158,162.24 98.5,160.5C 101.608,152.971 104.608,145.304 107.5,137.5C 108.382,136.24 109.382,135.074 110.5,134C 109.833,133.667 109.167,133.333 108.5,133C 111.415,131.883 113.415,129.883 114.5,127C 114.167,126.667 113.833,126.333 113.5,126C 114.743,123.966 116.243,123.133 118,123.5C 118.862,121.913 119.529,120.246 120,118.5C 120.667,117.167 121.333,117.167 122,118.5C 122.333,117.5 122.667,116.5 123,115.5C 125.811,114.777 128.311,112.944 130.5,110C 130.167,109.667 129.833,109.333 129.5,109C 130.5,108.667 131.5,108.333 132.5,108C 132.167,107.667 131.833,107.333 131.5,107C 133.5,106 135.5,105 137.5,104C 136.167,103 136.167,102 137.5,101C 141.31,99.8701 144.643,97.8701 147.5,95C 147.167,94.6667 146.833,94.3333 146.5,94C 148.132,92.6896 149.799,92.1896 151.5,92.5C 155.533,88.7977 159.533,85.1311 163.5,81.5C 164.086,81.7093 164.586,82.0426 165,82.5C 167.225,81.0611 169.225,79.3945 171,77.5C 171.718,78.4506 172.551,78.6172 173.5,78C 174.833,77.3333 174.833,76.6667 173.5,76C 174.872,75.5983 176.205,75.0983 177.5,74.5C 178.192,75.0253 178.692,75.6919 179,76.5C 181.884,75.4402 183.717,73.9402 184.5,72C 186.134,71.5065 187.801,71.3398 189.5,71.5C 189.351,70.448 189.517,69.448 190,68.5C 190.333,68.8333 190.667,69.1667 191,69.5C 195.464,67.0248 199.63,64.1914 203.5,61C 204.784,60.3162 205.951,60.4829 207,61.5C 208.194,59.4746 209.694,59.1413 211.5,60.5C 212.5,60 213.5,59.5 214.5,59C 213.66,57.3335 214.16,57.1669 216,58.5C 217.93,55.6041 220.43,54.6041 223.5,55.5C 224.522,55.1445 225.189,54.4778 225.5,53.5 Z"/></g>
<g><path style="opacity:0.749" fill="#092628" d="M 126.5,93.5 C 122.167,99.8333 116.833,105.167 110.5,109.5C 115.5,103.833 120.833,98.5 126.5,93.5 Z"/></g>
<g><path style="opacity:1" fill="#322855" d="M 594.5,108.5 C 594.027,109.906 593.027,110.573 591.5,110.5C 591.973,109.094 592.973,108.427 594.5,108.5 Z"/></g>
<g><path style="opacity:1" fill="#221e53" d="M 590.5,112.5 C 590.833,114.5 591.167,116.5 591.5,118.5C 589.539,116.68 589.206,114.68 590.5,112.5 Z"/></g>
<g><path style="opacity:1" fill="#241e50" d="M 594.5,124.5 C 596.104,125.287 596.771,126.62 596.5,128.5C 595.326,127.486 594.66,126.153 594.5,124.5 Z"/></g>
<g><path style="opacity:1" fill="#2c2253" d="M 596.5,128.5 C 598.074,130.102 598.741,132.102 598.5,134.5C 597.262,132.786 596.595,130.786 596.5,128.5 Z"/></g>
<g><path style="opacity:1" fill="#2c2354" d="M 600.5,139.5 C 601.767,141.78 602.767,144.28 603.5,147C 603.43,147.765 603.097,148.265 602.5,148.5C 601.422,145.598 600.756,142.598 600.5,139.5 Z"/></g>
<g><path style="opacity:1" fill="#005a5d" d="M 536.5,178.5 C 541.5,172.5 546.5,166.5 551.5,160.5C 551.517,162.028 552.184,162.528 553.5,162C 552.72,160.927 552.887,159.76 554,158.5C 554.914,159.654 555.747,159.487 556.5,158C 555.167,157.333 555.167,156.667 556.5,156C 560.602,153.869 564.436,151.369 568,148.5C 569.796,149.767 571.629,149.767 573.5,148.5C 575.811,149.214 577.978,150.214 580,151.5C 580.414,151.043 580.914,150.709 581.5,150.5C 581.998,151.603 582.331,152.603 582.5,153.5C 583.086,153.291 583.586,152.957 584,152.5C 587.961,158.227 589.294,164.56 588,171.5C 585.933,176.535 583.933,181.535 582,186.5C 578.729,189.447 576.729,193.113 576,197.5C 574.334,196.66 574.167,197.16 575.5,199C 572.336,200.763 571.169,203.263 572,206.5C 571.333,207.833 570.667,207.833 570,206.5C 569.617,209.74 568.617,213.073 567,216.5C 565.328,217.502 564.162,218.668 563.5,220C 564.685,222.787 564.018,225.12 561.5,227C 561.833,227.333 562.167,227.667 562.5,228C 560.536,230.167 560.202,232.501 561.5,235C 558.239,239.297 555.239,243.13 552.5,246.5C 548.357,247.732 544.19,248.732 540,249.5C 538.412,246.691 536.245,246.025 533.5,247.5C 532.304,247.154 532.304,246.654 533.5,246C 532.216,245.316 531.049,245.483 530,246.5C 528.518,244.219 526.851,244.219 525,246.5C 524.16,243.536 523.16,243.203 522,245.5C 518.008,245.005 514.341,243.671 511,241.5C 506.658,242.017 502.324,242.351 498,242.5C 496.988,240.136 495.655,238.802 494,238.5C 493.667,239.167 493.333,239.833 493,240.5C 492.833,237.667 491.333,236.167 488.5,236C 488.833,235.667 489.167,235.333 489.5,235C 487.431,233.354 486.098,231.187 485.5,228.5C 484.914,228.709 484.414,229.043 484,229.5C 484.09,224.722 484.923,220.055 486.5,215.5C 492.065,212.133 497.898,209.133 504,206.5C 505.062,207.097 506.228,207.43 507.5,207.5C 510.667,206.832 514,205.665 517.5,204C 521.333,200.167 525.167,196.333 529,192.5C 529.346,190.782 529.846,189.115 530.5,187.5C 533.704,185.297 535.704,182.297 536.5,178.5 Z"/></g>
<g><path style="opacity:1" fill="#005a5d" d="M 247.5,181.5 C 251.404,187.634 255.071,193.968 258.5,200.5C 259.776,208.761 262.443,215.761 266.5,221.5C 266.291,222.086 265.957,222.586 265.5,223C 268.788,226.358 270.121,230.191 269.5,234.5C 270.5,234.5 271.5,234.5 272.5,234.5C 272.421,235.93 272.754,237.264 273.5,238.5C 272.624,239.251 271.624,239.751 270.5,240C 271.167,240.333 271.833,240.667 272.5,241C 269.056,243.958 266.056,247.291 263.5,251C 263.833,251.333 264.167,251.667 264.5,252C 260.019,256.833 255.186,261.333 250,265.5C 248.561,267.275 247.561,269.275 247,271.5C 246.586,271.043 246.086,270.709 245.5,270.5C 244.139,272.028 242.972,273.695 242,275.5C 241.667,275.167 241.333,274.833 241,274.5C 240.51,275.793 240.343,277.127 240.5,278.5C 238.403,277.647 236.403,277.647 234.5,278.5C 231.032,277.826 230.366,276.492 232.5,274.5C 232.998,271.937 232.331,269.603 230.5,267.5C 229.678,256.381 227.345,245.714 223.5,235.5C 224.478,235.189 225.145,234.522 225.5,233.5C 223.131,230.887 222.131,228.053 222.5,225C 219.833,224.333 219.833,223.667 222.5,223C 221.891,220.49 220.558,218.49 218.5,217C 218.833,216.667 219.167,216.333 219.5,216C 218.552,215.517 217.552,215.351 216.5,215.5C 216.421,214.07 216.754,212.736 217.5,211.5C 215.02,210.585 214.353,209.085 215.5,207C 214.234,206.691 213.067,206.191 212,205.5C 210.148,203.77 210.314,202.604 212.5,202C 210.096,201.492 209.429,200.325 210.5,198.5C 209.277,196.54 207.944,194.707 206.5,193C 206.833,192.667 207.167,192.333 207.5,192C 206.427,190.687 205.76,189.187 205.5,187.5C 205.945,185.388 205.945,183.388 205.5,181.5C 206.09,177.769 206.924,174.102 208,170.5C 208.741,169.359 209.575,169.359 210.5,170.5C 211.5,168.833 212.833,167.5 214.5,166.5C 217.854,170.337 221.02,173.67 224,176.5C 224.359,179.544 225.026,179.878 226,177.5C 227.075,179.83 228.575,181.163 230.5,181.5C 231.757,177.918 234.257,177.585 238,180.5C 239,179.5 240,178.5 241,177.5C 241.667,180.167 242.333,180.167 243,177.5C 244.694,178.699 246.194,180.032 247.5,181.5 Z"/></g>
<g><path style="opacity:1" fill="#3d0036" d="M 82.5,183.5 C 82.1984,186.059 82.5318,188.393 83.5,190.5C 83.44,191.043 83.1067,191.376 82.5,191.5C 81.1997,188.691 81.1997,186.024 82.5,183.5 Z"/></g>
<g><path style="opacity:1" fill="#004a44" d="M 258.5,200.5 C 268.524,212.528 278.191,224.861 287.5,237.5C 284.748,247.674 279.915,256.674 273,264.5C 261.076,278.874 246.243,288.874 228.5,294.5C 228.167,294.167 227.833,293.833 227.5,293.5C 229.205,284.941 230.205,276.275 230.5,267.5C 232.331,269.603 232.998,271.937 232.5,274.5C 230.366,276.492 231.032,277.826 234.5,278.5C 236.403,277.647 238.403,277.647 240.5,278.5C 240.343,277.127 240.51,275.793 241,274.5C 241.333,274.833 241.667,275.167 242,275.5C 242.972,273.695 244.139,272.028 245.5,270.5C 246.086,270.709 246.586,271.043 247,271.5C 247.561,269.275 248.561,267.275 250,265.5C 255.186,261.333 260.019,256.833 264.5,252C 264.167,251.667 263.833,251.333 263.5,251C 266.056,247.291 269.056,243.958 272.5,241C 271.833,240.667 271.167,240.333 270.5,240C 271.624,239.751 272.624,239.251 273.5,238.5C 272.754,237.264 272.421,235.93 272.5,234.5C 271.5,234.5 270.5,234.5 269.5,234.5C 270.121,230.191 268.788,226.358 265.5,223C 265.957,222.586 266.291,222.086 266.5,221.5C 262.443,215.761 259.776,208.761 258.5,200.5 Z"/></g>

        
<g><path style="opacity:0.994" fill="#1c1f20" d="M 703.5,385.5 C 703.41,388.152 704.076,390.485 705.5,392.5C 706.37,394.032 706.036,395.532 704.5,397C 701.814,398.368 699.147,399.701 696.5,401C 687.337,403.06 678.337,403.893 669.5,403.5C 671.81,407.254 673.643,411.254 675,415.5C 676.619,423.927 678.619,432.26 681,440.5C 682.454,454.02 679.787,466.687 673,478.5C 663.749,491.086 652.582,501.586 639.5,510C 630.893,513.302 622.893,517.635 615.5,523C 597.029,529.157 579.029,536.491 561.5,545C 545.683,550.606 529.683,555.606 513.5,560C 527.668,574.176 543.001,586.843 559.5,598C 576.758,613.656 588.591,632.823 595,655.5C 600.246,671.481 603.746,687.814 605.5,704.5C 615.856,702.179 626.356,700.846 637,700.5C 653.9,703.09 670.9,704.757 688,705.5C 707.617,704.722 725.784,699.222 742.5,689C 757.923,678.567 772.423,667.067 786,654.5C 787.653,654.82 788.653,655.82 789,657.5C 790.41,661.976 791.577,666.476 792.5,671C 792.058,695.003 785.891,717.503 774,738.5C 761.43,755.698 744.596,766.531 723.5,771C 714.162,773.335 704.828,775.668 695.5,778C 672.316,777.979 649.649,781.312 627.5,788C 631.324,793.922 636.657,797.922 643.5,800C 646.319,802.72 645.986,805.053 642.5,807C 635.644,812.007 627.978,814.507 619.5,814.5C 615.167,814.5 610.833,814.5 606.5,814.5C 606.263,815.791 606.596,816.791 607.5,817.5C 609.143,819.708 608.81,821.541 606.5,823C 599.093,824.492 591.593,825.325 584,825.5C 570.833,824.357 557.666,823.19 544.5,822C 528.753,817.882 515.253,810.049 504,798.5C 495.911,789.336 489.577,779.003 485,767.5C 473.056,772.575 460.556,774.908 447.5,774.5C 441.513,773.858 435.513,773.358 429.5,773C 427,772.625 424.667,771.792 422.5,770.5C 418.78,774.733 415.613,779.4 413,784.5C 396.732,800.487 377.065,808.487 354,808.5C 349.103,808.068 344.269,807.234 339.5,806C 337.709,805.585 336.376,804.585 335.5,803C 338.138,800.346 341.138,798.18 344.5,796.5C 345.973,795.928 347.307,795.095 348.5,794C 346.609,793.797 344.943,794.297 343.5,795.5C 334.515,796.911 325.515,796.744 316.5,795C 304.562,791.925 299.562,784.425 301.5,772.5C 312.272,769.781 321.939,764.947 330.5,758C 319.87,750.041 313.37,739.541 311,726.5C 307.602,710.123 307.769,693.789 311.5,677.5C 312.793,675.636 312.793,673.636 311.5,671.5C 310.893,671.624 310.56,671.957 310.5,672.5C 309.013,673.804 307.346,674.97 305.5,676C 298.059,677.01 291.059,675.843 284.5,672.5C 275.52,664.574 271.187,654.574 271.5,642.5C 272.908,618.525 282.242,598.358 299.5,582C 310.392,573.408 322.392,571.241 335.5,575.5C 336.947,576.885 337.947,576.552 338.5,574.5C 338.433,573.041 338.766,571.708 339.5,570.5C 340.757,569.377 340.424,568.711 338.5,568.5C 315.681,566.503 293.348,562.003 271.5,555C 242.136,546.981 214.802,534.648 189.5,518C 175.252,507.086 163.085,494.253 153,479.5C 143.563,463.572 140.896,446.572 145,428.5C 139.772,431.396 134.272,432.062 128.5,430.5C 127.063,426.472 126.397,422.305 126.5,418C 128.512,388.142 139.012,361.642 158,338.5C 167.466,327.852 178.966,320.352 192.5,316C 198.537,315.303 204.537,315.47 210.5,316.5C 211.252,310.492 213.086,304.826 216,299.5C 222.667,288.833 229.333,278.167 236,267.5C 246.355,255.578 258.188,245.412 271.5,237C 349.867,210.135 429.201,206.801 509.5,227C 517.288,230.394 524.955,234.061 532.5,238C 541.167,244.671 550.501,250.338 560.5,255C 565.667,261.5 570.833,268 576,274.5C 579.431,281.886 582.098,289.553 584,297.5C 600.968,293.905 616.801,296.738 631.5,306C 657.957,323.456 680.123,345.29 698,371.5C 700.529,375.926 702.362,380.592 703.5,385.5 Z"/></g>
<g><path style="opacity:1" fill="#fefefe" d="M 689.5,369.5 C 691.394,388.441 683.061,395.941 664.5,392C 659.57,389.912 654.57,388.246 649.5,387C 651.982,389.553 654.315,392.053 656.5,394.5C 656.491,396.308 656.991,397.975 658,399.5C 663.267,403.266 666.767,408.266 668.5,414.5C 666.094,444.812 653.427,469.979 630.5,490C 609.172,505.502 586.172,518.168 561.5,528C 537.744,534.712 514.077,541.712 490.5,549C 467.909,553.643 445.076,556.476 422,557.5C 403.845,556.985 385.678,556.818 367.5,557C 353.151,555.163 338.817,553.163 324.5,551C 281.912,540.25 241.245,524.583 202.5,504C 184.13,492.633 168.63,478.133 156,460.5C 152.008,453.009 150.508,445.009 151.5,436.5C 153.986,428.609 154.986,420.609 154.5,412.5C 152.056,416.118 149.39,419.618 146.5,423C 142.683,424.995 138.683,426.495 134.5,427.5C 133.201,426.91 132.368,425.91 132,424.5C 131.833,422.5 131.667,420.5 131.5,418.5C 132.829,409.519 133.995,400.519 135,391.5C 141.619,374.254 150.285,358.254 161,343.5C 170.072,333.387 180.905,325.887 193.5,321C 200.189,320.622 206.856,320.622 213.5,321C 224.905,285.517 246.572,258.184 278.5,239C 326.787,224.631 376.12,217.964 426.5,219C 447.799,221.481 469.132,224.481 490.5,228C 501.708,230.134 512.375,233.801 522.5,239C 534.166,246.835 546.166,254.169 558.5,261C 569.707,272.248 576.541,285.748 579,301.5C 581.376,308.587 585.043,314.92 590,320.5C 588.297,314.55 586.463,308.55 584.5,302.5C 599.35,299.458 613.35,301.625 626.5,309C 651.248,325.248 672.248,345.414 689.5,369.5 Z"/></g>
<g><path style="opacity:1" fill="#0a0d0e" d="M 618.5,337.5 C 634.542,353.376 653.208,365.543 674.5,374C 676.954,375.74 678.454,377.907 679,380.5C 677.612,381.554 676.112,381.72 674.5,381C 654.654,371.331 636.821,358.831 621,343.5C 619.441,341.783 618.608,339.783 618.5,337.5 Z"/></g>
<g><path style="opacity:1" fill="#dcebf2" d="M 689.5,369.5 C 695.393,376.932 698.726,385.265 699.5,394.5C 685.507,400.14 671.674,399.807 658,393.5C 657.235,393.57 656.735,393.903 656.5,394.5C 654.315,392.053 651.982,389.553 649.5,387C 654.57,388.246 659.57,389.912 664.5,392C 683.061,395.941 691.394,388.441 689.5,369.5 Z"/></g>
<g><path style="opacity:1" fill="#070a0b" d="M 147.5,382.5 C 148.947,383.134 149.613,384.301 149.5,386C 148.047,393.453 146.881,400.953 146,408.5C 144.374,411.128 142.374,413.461 140,415.5C 141.412,404.277 143.912,393.277 147.5,382.5 Z"/></g>
<g><path style="opacity:0.686" fill="#686862" d="M 703.5,385.5 C 704.924,387.515 705.59,389.848 705.5,392.5C 704.076,390.485 703.41,388.152 703.5,385.5 Z"/></g>
<g><path style="opacity:1" fill="#dcecf3" d="M 668.5,414.5 C 671.657,425.264 674.324,436.264 676.5,447.5C 675.399,460.687 670.732,472.354 662.5,482.5C 657.167,487.167 652.167,492.167 647.5,497.5C 636.091,503.71 624.757,510.21 613.5,517C 594.28,523.296 575.614,530.963 557.5,540C 520.924,553.415 483.257,562.081 444.5,566C 434.682,566.81 424.849,567.31 415,567.5C 386.526,565.51 358.026,564.01 329.5,563C 288.931,556.527 250.265,544.193 213.5,526C 189.805,512.97 170.639,495.137 156,472.5C 149.589,460.938 148.089,448.938 151.5,436.5C 150.508,445.009 152.008,453.009 156,460.5C 168.63,478.133 184.13,492.633 202.5,504C 241.245,524.583 281.912,540.25 324.5,551C 338.817,553.163 353.151,555.163 367.5,557C 385.678,556.818 403.845,556.985 422,557.5C 445.076,556.476 467.909,553.643 490.5,549C 514.077,541.712 537.744,534.712 561.5,528C 586.172,518.168 609.172,505.502 630.5,490C 653.427,469.979 666.094,444.812 668.5,414.5 Z"/></g>
<g><path style="opacity:1" fill="#284c5d" d="M 662.5,482.5 C 658.5,488.5 653.5,493.5 647.5,497.5C 652.167,492.167 657.167,487.167 662.5,482.5 Z"/></g>
<g><path style="opacity:1" fill="#dcecf3" d="M 478.5,672.5 C 479.316,674.144 480.65,675.31 482.5,676C 493.934,680.724 504.101,678.891 513,670.5C 512.484,676.348 510.651,681.848 507.5,687C 510.833,689 514.167,689 517.5,687C 527.596,680.224 534.763,671.058 539,659.5C 547.187,642.518 544.353,627.685 530.5,615C 520.216,606.692 508.55,601.359 495.5,599C 490.581,598.198 485.748,598.365 481,599.5C 479.209,602.784 478.042,606.284 477.5,610C 478.872,614.616 480.538,619.116 482.5,623.5C 479.358,625.119 476.024,626.119 472.5,626.5C 473.018,625.423 473.352,624.256 473.5,623C 469.778,615.111 469.778,607.278 473.5,599.5C 473.167,598.5 472.5,597.833 471.5,597.5C 469.364,598.472 468.197,600.139 468,602.5C 467.081,608.966 467.581,615.299 469.5,621.5C 459.019,625.309 450.519,631.642 444,640.5C 430.726,618.269 417.226,596.269 403.5,574.5C 414.63,572.841 425.963,571.841 437.5,571.5C 461.059,569.586 484.392,566.42 507.5,562C 519.747,573.585 532.58,584.418 546,594.5C 546.333,596.047 545.833,597.38 544.5,598.5C 548.847,601.371 552.014,605.371 554,610.5C 566.396,641.748 559.896,668.248 534.5,690C 524.347,698.455 512.68,702.122 499.5,701C 486.796,695.778 479.796,686.278 478.5,672.5 Z"/></g>
<g><path style="opacity:0.118" fill="#cacabf" d="M 338.5,568.5 C 340.424,568.711 340.757,569.377 339.5,570.5C 339.167,569.833 338.833,569.167 338.5,568.5 Z"/></g>
<g><path style="opacity:1" fill="#fefefe" d="M 350.5,568.5 C 352.531,568.972 354.198,569.972 355.5,571.5C 348.201,589.029 343.534,607.362 341.5,626.5C 340.957,626.56 340.624,626.893 340.5,627.5C 343.402,639.705 344.402,652.038 343.5,664.5C 337.267,663.811 331.6,661.644 326.5,658C 319.953,652.954 314.286,647.12 309.5,640.5C 307.682,644.136 305.849,647.802 304,651.5C 302.562,652.718 300.895,653.385 299,653.5C 292.8,651.961 288.466,648.294 286,642.5C 283.921,626.075 287.588,611.075 297,597.5C 303.005,590.663 309.171,583.996 315.5,577.5C 324.715,575.295 332.881,577.295 340,583.5C 341.277,578.507 342.444,573.507 343.5,568.5C 345.833,568.5 348.167,568.5 350.5,568.5 Z"/></g>
<g><path style="opacity:1" fill="#56838f" d="M 350.5,568.5 C 352.5,568.5 354.5,568.5 356.5,568.5C 356.737,569.791 356.404,570.791 355.5,571.5C 354.198,569.972 352.531,568.972 350.5,568.5 Z"/></g>
<g><path style="opacity:1" fill="#dce8e1" d="M 384.5,747.5 C 383.415,745.413 381.749,744.08 379.5,743.5C 376.846,741.591 374.18,739.591 371.5,737.5C 368.833,734.167 365.833,731.167 362.5,728.5C 358.89,722.384 355.057,716.384 351,710.5C 348.215,702.028 346.382,693.361 345.5,684.5C 349.437,684.198 352.437,682.365 354.5,679C 358.134,678.204 360.134,676.037 360.5,672.5C 369.744,695.227 386.577,708.561 411,712.5C 415.943,712.369 419.276,710.036 421,705.5C 421.667,700.5 421.667,695.5 421,690.5C 416.96,682.666 414.293,674.333 413,665.5C 411.296,653.98 409.796,642.48 408.5,631C 398.182,626.92 387.515,624.42 376.5,623.5C 369.904,623.232 363.571,624.399 357.5,627C 355.536,628.451 354.203,630.284 353.5,632.5C 350.992,629.035 348.658,625.369 346.5,621.5C 349.238,604.046 353.572,587.046 359.5,570.5C 362,570.167 364.5,569.833 367,569.5C 377.457,570.851 387.957,571.518 398.5,571.5C 401.759,576.356 404.259,581.69 406,587.5C 410.554,595.574 415.888,603.24 422,610.5C 424.51,617.239 428.176,623.239 433,628.5C 435.591,634.266 438.424,639.933 441.5,645.5C 436.062,659.608 436.395,673.608 442.5,687.5C 445.024,689.19 447.024,691.357 448.5,694C 458.616,698.787 468.616,698.62 478.5,693.5C 479.748,694.04 480.915,694.707 482,695.5C 480.68,711.111 480.346,726.777 481,742.5C 481.574,749.111 482.741,755.611 484.5,762C 484.095,762.945 483.428,763.612 482.5,764C 456.041,771.965 430.041,770.632 404.5,760C 398.167,755.14 391.5,750.973 384.5,747.5 Z"/></g>
<g><path style="opacity:1" fill="#214657" d="M 437.5,571.5 C 425.963,571.841 414.63,572.841 403.5,574.5C 402.596,573.791 402.263,572.791 402.5,571.5C 414.167,571.5 425.833,571.5 437.5,571.5 Z"/></g>
<g><path style="opacity:0.553" fill="#93928a" d="M 338.5,574.5 C 337.947,576.552 336.947,576.885 335.5,575.5C 336.609,575.443 337.609,575.11 338.5,574.5 Z"/></g>
<g><path style="opacity:1" fill="#dbebf3" d="M 315.5,577.5 C 309.171,583.996 303.005,590.663 297,597.5C 287.588,611.075 283.921,626.075 286,642.5C 288.466,648.294 292.8,651.961 299,653.5C 300.895,653.385 302.562,652.718 304,651.5C 305.849,647.802 307.682,644.136 309.5,640.5C 314.286,647.12 319.953,652.954 326.5,658C 331.6,661.644 337.267,663.811 343.5,664.5C 344.402,652.038 343.402,639.705 340.5,627.5C 340.624,626.893 340.957,626.56 341.5,626.5C 351.199,635.23 356.699,646.23 358,659.5C 359.809,668.085 356.976,674.585 349.5,679C 336.467,684.992 325.3,682.492 316,671.5C 315.5,670 315,668.5 314.5,667C 316.52,664.379 316.853,661.545 315.5,658.5C 312.756,662.751 309.422,666.585 305.5,670C 299.786,671.57 294.12,671.237 288.5,669C 276.97,657.72 273.47,644.22 278,628.5C 282.014,612.17 289.847,598.003 301.5,586C 305.807,582.517 310.473,579.683 315.5,577.5 Z"/></g>
<g><path style="opacity:1" fill="#fefefe" d="M 478.5,672.5 C 478.042,660.675 477.042,660.675 475.5,672.5C 472.509,680.273 466.676,684.273 458,684.5C 455.105,684.468 452.605,683.468 450.5,681.5C 447.814,678.097 445.147,674.764 442.5,671.5C 441.705,666.851 441.539,662.184 442,657.5C 443.242,651.51 445.242,645.844 448,640.5C 451.167,638.667 453.667,636.167 455.5,633C 460.98,630.059 466.647,627.892 472.5,626.5C 476.024,626.119 479.358,625.119 482.5,623.5C 480.538,619.116 478.872,614.616 477.5,610C 478.042,606.284 479.209,602.784 481,599.5C 485.748,598.365 490.581,598.198 495.5,599C 508.55,601.359 520.216,606.692 530.5,615C 544.353,627.685 547.187,642.518 539,659.5C 534.763,671.058 527.596,680.224 517.5,687C 514.167,689 510.833,689 507.5,687C 510.651,681.848 512.484,676.348 513,670.5C 504.101,678.891 493.934,680.724 482.5,676C 480.65,675.31 479.316,674.144 478.5,672.5 Z"/></g>
<g><path style="opacity:1" fill="#fefefe" d="M 598.5,692.5 C 599.891,721.853 590.557,747.02 570.5,768C 559.762,776.618 547.595,782.118 534,784.5C 518.296,781.468 508.296,772.135 504,756.5C 503.426,749.631 502.592,742.797 501.5,736C 501.833,734.167 502.167,732.333 502.5,730.5C 511.083,737.071 520.75,739.237 531.5,737C 540.772,733.068 548.272,726.901 554,718.5C 555.752,715.328 557.752,712.328 560,709.5C 561.618,705.932 562.951,702.265 564,698.5C 566.3,679.719 566.8,661.052 565.5,642.5C 564.701,628.837 561.368,615.837 555.5,603.5C 556.002,602.479 556.668,602.312 557.5,603C 561.367,607.202 565.533,611.035 570,614.5C 573.327,622.496 577.66,629.829 583,636.5C 586.661,648.151 590.328,659.818 594,671.5C 595.405,678.541 596.905,685.541 598.5,692.5 Z"/></g>
<g><path style="opacity:1" fill="#eaf0e8" d="M 360.5,672.5 C 361.573,666.885 361.74,661.218 361,655.5C 359.593,647.445 357.093,639.779 353.5,632.5C 354.203,630.284 355.536,628.451 357.5,627C 363.571,624.399 369.904,623.232 376.5,623.5C 387.515,624.42 398.182,626.92 408.5,631C 409.796,642.48 411.296,653.98 413,665.5C 414.293,674.333 416.96,682.666 421,690.5C 421.667,695.5 421.667,700.5 421,705.5C 419.276,710.036 415.943,712.369 411,712.5C 386.577,708.561 369.744,695.227 360.5,672.5 Z"/></g>
<g><path style="opacity:1" fill="#dcecf3" d="M 565.5,642.5 C 566.8,661.052 566.3,679.719 564,698.5C 562.951,702.265 561.618,705.932 560,709.5C 557.752,712.328 555.752,715.328 554,718.5C 548.272,726.901 540.772,733.068 531.5,737C 520.75,739.237 511.083,737.071 502.5,730.5C 502.167,732.333 501.833,734.167 501.5,736C 502.592,742.797 503.426,749.631 504,756.5C 508.296,772.135 518.296,781.468 534,784.5C 547.595,782.118 559.762,776.618 570.5,768C 590.557,747.02 599.891,721.853 598.5,692.5C 603.668,717.492 599.501,740.826 586,762.5C 585.175,764.701 585.675,766.534 587.5,768C 598.604,767.364 607.771,771.197 615,779.5C 618.98,786.624 623.814,793.124 629.5,799C 632.661,800.413 635.661,802.08 638.5,804C 634.952,805.941 631.286,807.607 627.5,809C 619.193,809.999 610.86,810.832 602.5,811.5C 601.423,814.474 601.423,817.474 602.5,820.5C 583.395,820.922 564.395,819.756 545.5,817C 534.801,813.483 524.801,808.65 515.5,802.5C 513.167,799.5 510.5,796.833 507.5,794.5C 491.098,775.322 483.432,752.989 484.5,727.5C 484.49,718.091 485.323,708.757 487,699.5C 493.371,705.304 500.871,707.47 509.5,706C 520.99,704.087 530.99,699.254 539.5,691.5C 542.833,688.833 545.833,685.833 548.5,682.5C 556.689,670.778 561.856,657.778 564,643.5C 564.383,642.944 564.883,642.611 565.5,642.5 Z"/></g>
<g><path style="opacity:1" fill="#fefefe" d="M 787.5,680.5 C 783.424,690.646 778.258,700.312 772,709.5C 763.871,719.298 755.371,728.798 746.5,738C 713.345,758.493 677.345,766.827 638.5,763C 627.468,761.302 621.135,754.968 619.5,744C 620.32,736.888 622.153,730.054 625,723.5C 625.667,719.167 625.667,714.833 625,710.5C 624.338,709.016 623.504,707.683 622.5,706.5C 636.103,704.226 649.77,705.059 663.5,709C 691.557,713.721 717.89,709.054 742.5,695C 757.557,684.616 772.057,673.449 786,661.5C 786.945,661.905 787.612,662.572 788,663.5C 788.469,669.182 788.302,674.848 787.5,680.5 Z"/></g>
<g><path style="opacity:0.18" fill="#a3a29a" d="M 310.5,672.5 C 310.56,671.957 310.893,671.624 311.5,671.5C 312.793,673.636 312.793,675.636 311.5,677.5C 311.784,675.585 311.451,673.919 310.5,672.5 Z"/></g>
<g><path style="opacity:1" fill="#d9eaf1" d="M 442.5,671.5 C 445.147,674.764 447.814,678.097 450.5,681.5C 452.605,683.468 455.105,684.468 458,684.5C 466.676,684.273 472.509,680.273 475.5,672.5C 475.532,677.945 476.032,683.278 477,688.5C 473.472,691.584 469.306,693.251 464.5,693.5C 458.194,693.511 452.527,691.677 447.5,688C 444.363,682.955 442.697,677.455 442.5,671.5 Z"/></g>
<g><path style="opacity:1" fill="#dbecf3" d="M 349.5,717.5 C 349.122,720.022 348.289,722.355 347,724.5C 338.527,720.366 330.86,715.032 324,708.5C 323.242,714.891 323.576,721.224 325,727.5C 327.333,732.167 329.667,736.833 332,741.5C 338.772,748.117 345.939,754.117 353.5,759.5C 344.842,759.336 337.175,756.503 330.5,751C 328.037,747.535 325.204,744.369 322,741.5C 312.917,721.081 311.25,700.081 317,678.5C 323.898,685.032 332.065,687.698 341.5,686.5C 342.151,697.438 344.817,707.772 349.5,717.5 Z"/></g>
<g><path style="opacity:1" fill="#dcecf3" d="M 787.5,680.5 C 785.042,704.898 776.376,726.731 761.5,746C 754.373,751.787 746.707,756.787 738.5,761C 722.074,766.273 705.407,770.606 688.5,774C 667.13,774.13 646.13,776.963 625.5,782.5C 621.978,780.82 619.145,778.153 617,774.5C 610.217,767.918 602.051,764.251 592.5,763.5C 601.702,746.357 606.035,728.023 605.5,708.5C 611.238,708.377 616.904,707.71 622.5,706.5C 623.504,707.683 624.338,709.016 625,710.5C 625.667,714.833 625.667,719.167 625,723.5C 622.153,730.054 620.32,736.888 619.5,744C 621.135,754.968 627.468,761.302 638.5,763C 677.345,766.827 713.345,758.493 746.5,738C 755.371,728.798 763.871,719.298 772,709.5C 778.258,700.312 783.424,690.646 787.5,680.5 Z"/></g>
<g><path style="opacity:1" fill="#335869" d="M 548.5,682.5 C 545.833,685.833 542.833,688.833 539.5,691.5C 541.5,687.5 544.5,684.5 548.5,682.5 Z"/></g>
<g><path style="opacity:1" fill="#fcfcfd" d="M 349.5,717.5 C 354.089,721.292 357.756,725.959 360.5,731.5C 362.5,735.5 365.5,738.5 369.5,740.5C 373.108,741.759 375.441,744.092 376.5,747.5C 379.163,754.327 382.497,760.827 386.5,767C 376.544,768.177 367.211,766.344 358.5,761.5C 356.447,761.598 354.78,760.931 353.5,759.5C 345.939,754.117 338.772,748.117 332,741.5C 329.667,736.833 327.333,732.167 325,727.5C 323.576,721.224 323.242,714.891 324,708.5C 330.86,715.032 338.527,720.366 347,724.5C 348.289,722.355 349.122,720.022 349.5,717.5 Z"/></g>
<g><path style="opacity:1" fill="#627475" d="M 362.5,728.5 C 365.833,731.167 368.833,734.167 371.5,737.5C 367.5,735.5 364.5,732.5 362.5,728.5 Z"/></g>
<g><path style="opacity:1" fill="#8badb6" d="M 360.5,731.5 C 363.833,734.167 366.833,737.167 369.5,740.5C 365.5,738.5 362.5,735.5 360.5,731.5 Z"/></g>
<g><path style="opacity:1" fill="#687a7b" d="M 379.5,743.5 C 381.749,744.08 383.415,745.413 384.5,747.5C 382.251,746.92 380.585,745.587 379.5,743.5 Z"/></g>
<g><path style="opacity:1" fill="#dbecf3" d="M 376.5,747.5 C 386.948,753.896 397.615,760.062 408.5,766C 410.813,766.662 413.146,767.162 415.5,767.5C 415.66,769.199 415.494,770.866 415,772.5C 408.073,783.563 398.573,791.73 386.5,797C 372.775,801.685 358.775,803.352 344.5,802C 346.396,799.932 348.396,798.099 350.5,796.5C 353.833,795.167 356.167,792.833 357.5,789.5C 360.812,786.854 363.812,783.854 366.5,780.5C 366.113,779.28 365.28,778.613 364,778.5C 362.357,779.315 360.857,780.315 359.5,781.5C 359.528,778.749 360.528,776.415 362.5,774.5C 351.538,772.182 341.205,768.516 331.5,763.5C 332.479,761.855 333.812,760.521 335.5,759.5C 342.062,762.14 348.729,764.474 355.5,766.5C 356.442,766.392 357.275,766.059 358,765.5C 357.645,764.041 357.811,762.707 358.5,761.5C 367.211,766.344 376.544,768.177 386.5,767C 382.497,760.827 379.163,754.327 376.5,747.5 Z"/></g>
<g><path style="opacity:1" fill="#f4f7f8" d="M 331.5,763.5 C 341.205,768.516 351.538,772.182 362.5,774.5C 360.528,776.415 359.528,778.749 359.5,781.5C 354.576,786.465 348.576,789.631 341.5,791C 335.167,791.667 328.833,791.667 322.5,791C 315.818,790.409 310.318,787.576 306,782.5C 305.503,780.19 305.337,777.857 305.5,775.5C 307.564,775.313 309.564,774.813 311.5,774C 318.105,770.199 324.772,766.699 331.5,763.5 Z"/></g>
<g><path style="opacity:1" fill="#fefefe" d="M 577.5,780.5 C 592.945,777.899 605.612,782.566 615.5,794.5C 608.527,799.993 600.527,802.826 591.5,803C 591.043,803.414 590.709,803.914 590.5,804.5C 594.481,811.958 592.481,814.125 584.5,811C 574.633,805.789 565.967,799.122 558.5,791C 558.99,789.018 559.99,787.351 561.5,786C 566.846,783.83 572.179,781.997 577.5,780.5 Z"/></g>
<g><path style="opacity:1" fill="#4c6c7b" d="M 357.5,789.5 C 356.167,792.833 353.833,795.167 350.5,796.5C 352.5,793.833 354.833,791.5 357.5,789.5 Z"/></g>
<g><path style="opacity:0.165" fill="#b2b1a8" d="M 344.5,796.5 C 344.5,795.833 344.167,795.5 343.5,795.5C 344.943,794.297 346.609,793.797 348.5,794C 347.307,795.095 345.973,795.928 344.5,796.5 Z"/></g>
<g><path style="opacity:1" fill="#294e5f" d="M 507.5,794.5 C 510.5,796.833 513.167,799.5 515.5,802.5C 511.833,800.833 509.167,798.167 507.5,794.5 Z"/></g>
<g><path style="opacity:0.282" fill="#b1b0a7" d="M 619.5,814.5 C 615.232,814.869 611.232,815.869 607.5,817.5C 606.596,816.791 606.263,815.791 606.5,814.5C 610.833,814.5 615.167,814.5 619.5,814.5 Z"/></g>

        
<g><path style="opacity:0.957" fill="#020202" d="M 492.5,247.5 C 518.036,247.341 536.869,258.341 549,280.5C 553.515,288.881 557.348,297.548 560.5,306.5C 580.242,322.468 585.075,342.135 575,365.5C 572.44,370.116 569.273,374.282 565.5,378C 559.833,378.333 554.167,378.667 548.5,379C 532.92,382.86 517.586,387.527 502.5,393C 487.559,400.719 472.726,408.553 458,416.5C 454.948,415.289 451.781,414.455 448.5,414C 441.357,407.927 433.69,402.594 425.5,398C 420.197,391.208 415.031,384.375 410,377.5C 408.789,383.132 406.789,388.466 404,393.5C 397.729,399.968 390.562,401.135 382.5,397C 378.252,394.757 374.586,391.757 371.5,388C 368.577,386.29 365.577,386.123 362.5,387.5C 357.09,397.358 349.09,400.191 338.5,396C 336.04,394.542 333.873,392.709 332,390.5C 329.522,382.254 327.522,373.921 326,365.5C 320.148,383.041 311.315,398.874 299.5,413C 296.163,415.671 292.496,417.837 288.5,419.5C 285.681,417.718 283.681,415.218 282.5,412C 275.993,407.914 269.66,403.58 263.5,399C 245.723,388.644 226.723,384.977 206.5,388C 204.615,385.061 203.115,381.895 202,378.5C 199.281,359.042 203.615,341.375 215,325.5C 215.811,303.71 224.644,286.21 241.5,273C 247.839,268.496 254.839,265.662 262.5,264.5C 266.961,265.153 271.294,266.32 275.5,268C 295.875,282.044 310.709,300.544 320,323.5C 324.116,333.515 327.616,343.682 330.5,354C 348.492,364.612 367.492,367.279 387.5,362C 391.821,361.501 396.154,361.334 400.5,361.5C 397.258,348.95 396.758,336.284 399,323.5C 401.262,314.712 403.929,306.046 407,297.5C 410.946,291.221 415.279,285.221 420,279.5C 440.443,260.191 464.61,249.524 492.5,247.5 Z"/></g>
<g><path style="opacity:1" fill="#1b1b1b" d="M 491.5,251.5 C 512.865,250.933 529.698,259.266 542,276.5C 546.498,283.995 550.331,291.829 553.5,300C 553.167,300.5 552.833,301 552.5,301.5C 519.409,280.417 485.409,278.917 450.5,297C 445.732,301.769 440.399,305.769 434.5,309C 422.693,321.445 413.526,335.612 407,351.5C 406.393,354.202 406.56,356.868 407.5,359.5C 407.444,360.737 406.944,361.737 406,362.5C 403.451,358.185 402.118,353.519 402,348.5C 400.755,329.153 404.422,310.819 413,293.5C 417.194,288.94 421.028,284.106 424.5,279C 431.007,274.914 437.34,270.58 443.5,266C 458.431,257.108 474.431,252.275 491.5,251.5 Z"/></g>
<g><path style="opacity:1" fill="#1b1b1b" d="M 256.5,269.5 C 263.393,268.655 269.727,270.155 275.5,274C 299.943,292.441 315.443,316.607 322,346.5C 315.942,336.442 309.108,326.942 301.5,318C 298.167,315.333 294.833,312.667 291.5,310C 285.132,308.102 279.132,305.435 273.5,302C 252.722,297.821 234.889,303.321 220,318.5C 221.281,302.771 227.781,289.604 239.5,279C 244.938,275.284 250.605,272.118 256.5,269.5 Z"/></g>
<g><path style="opacity:1" fill="#f5f4e7" d="M 485.5,290.5 C 498.715,289.757 511.715,290.924 524.5,294C 536.342,298.72 547.675,304.387 558.5,311C 574.454,323.985 578.954,340.152 572,359.5C 571.152,361.874 569.819,363.874 568,365.5C 551.898,352.421 534.065,342.255 514.5,335C 496.911,330.718 480.244,333.051 464.5,342C 453.109,351.471 446.609,363.638 445,378.5C 444.667,387.5 444.333,396.5 444,405.5C 426.579,396.662 415.912,382.662 412,363.5C 411.174,358.411 411.508,353.411 413,348.5C 419.809,335.709 427.976,323.876 437.5,313C 443.693,309.738 449.36,305.738 454.5,301C 458.5,299 462.5,297 466.5,295C 473.116,294.187 479.45,292.687 485.5,290.5 Z"/></g>
<g><path style="opacity:1" fill="#f4f3e6" d="M 253.5,305.5 C 259.577,305.196 265.577,305.696 271.5,307C 277.456,310.765 283.789,313.765 290.5,316C 296.662,321.162 302.495,326.662 308,332.5C 312.333,339.833 316.667,347.167 321,354.5C 322.248,362.796 321.248,370.796 318,378.5C 312.651,387.877 306.818,396.877 300.5,405.5C 302.259,378.186 291.259,357.686 267.5,344C 247.309,340.175 230.809,346.341 218,362.5C 213.818,368.199 210.152,374.199 207,380.5C 203.492,363.884 206.159,348.217 215,333.5C 219.456,327.375 224.289,321.542 229.5,316C 237.041,311.217 245.041,307.717 253.5,305.5 Z"/></g>
<g><path style="opacity:1" fill="#1b1b1b" d="M 328.5,359.5 C 328.735,358.903 329.235,358.57 330,358.5C 339.985,363.606 350.485,367.106 361.5,369C 366.5,369.667 371.5,369.667 376.5,369C 384.799,366.081 393.133,365.414 401.5,367C 406.883,376.063 406.217,384.729 399.5,393C 389.58,396.899 381.247,394.566 374.5,386C 370.619,382.357 366.285,381.69 361.5,384C 358.462,386.703 355.795,389.703 353.5,393C 348.411,393.826 343.411,393.492 338.5,392C 336.951,390.786 335.785,389.286 335,387.5C 332.764,379.317 331.43,370.984 331,362.5C 330.623,361.058 329.79,360.058 328.5,359.5 Z"/></g>

        
<g><path style="opacity:0.985" fill="#20201f" d="M 591.5,350.5 C 590.89,349.609 590.557,348.609 590.5,347.5C 598.093,347.538 604.593,350.538 610,356.5C 612.002,361.007 613.502,365.674 614.5,370.5C 614.02,374.293 612.353,377.46 609.5,380C 603.352,383.078 597.019,385.578 590.5,387.5C 584.054,386.936 577.72,385.77 571.5,384C 563.833,383.333 556.167,383.333 548.5,384C 540.284,385.787 532.618,388.62 525.5,392.5C 525.631,391.624 525.298,390.957 524.5,390.5C 523.261,390.942 522.261,391.609 521.5,392.5C 520.791,393.404 519.791,393.737 518.5,393.5C 514.838,393.723 511.505,394.723 508.5,396.5C 505.759,396.707 503.426,397.707 501.5,399.5C 501.158,400.338 500.492,400.672 499.5,400.5C 494.914,401.46 490.914,403.46 487.5,406.5C 487.158,407.338 486.492,407.672 485.5,407.5C 483.973,407.427 482.973,408.094 482.5,409.5C 480.326,409.75 478.659,410.75 477.5,412.5C 476.167,412.5 475.5,413.167 475.5,414.5C 474.878,415.627 474.045,416.627 473,417.5C 471.951,416.483 470.784,416.316 469.5,417C 464.147,419.701 458.814,422.368 453.5,425C 440.182,427.885 426.849,430.552 413.5,433C 407.153,442.527 401.986,452.694 398,463.5C 395.706,464.852 393.206,465.519 390.5,465.5C 382.205,463.808 373.871,462.308 365.5,461C 361.367,455.866 356.867,451.032 352,446.5C 349.027,442.026 345.86,437.693 342.5,433.5C 328.924,432.583 315.59,430.25 302.5,426.5C 299.905,427.237 297.238,427.237 294.5,426.5C 294.953,425.542 295.619,424.708 296.5,424C 295.906,423.536 295.239,423.369 294.5,423.5C 290.703,423.128 287.37,421.794 284.5,419.5C 281.485,417.326 278.151,415.659 274.5,414.5C 273.415,412.413 271.749,411.08 269.5,410.5C 268.508,410.672 267.842,410.338 267.5,409.5C 267.027,408.094 266.027,407.427 264.5,407.5C 263.352,404.913 261.685,403.913 259.5,404.5C 250.198,398.055 239.864,393.722 228.5,391.5C 218.197,392.724 207.863,393.224 197.5,393C 182.151,389.16 173.651,379.326 172,363.5C 171.333,358.833 171.333,354.167 172,349.5C 172.036,347.059 172.869,345.059 174.5,343.5C 175.086,343.709 175.586,344.043 176,344.5C 175.529,355.347 177.529,365.681 182,375.5C 187.543,382.974 195.043,386.974 204.5,387.5C 231.733,383.303 255.733,390.137 276.5,408C 290.297,415.71 304.964,421.044 320.5,424C 344.953,424.754 369.453,425.587 394,426.5C 413.476,426.449 432.642,423.949 451.5,419C 468.5,410 485.5,401 502.5,392C 517.586,386.527 532.92,381.86 548.5,378C 556.5,377.333 564.5,377.333 572.5,378C 579.063,379.986 585.73,380.986 592.5,381C 596.749,378.806 601.082,376.806 605.5,375C 606.872,373.758 607.872,372.258 608.5,370.5C 607.098,366.461 605.598,362.461 604,358.5C 599.684,355.934 595.517,353.267 591.5,350.5 Z"/></g>
<g><path style="opacity:0.231" fill="#9b9b93" d="M 590.5,347.5 C 590.557,348.609 590.89,349.609 591.5,350.5C 589.448,349.947 589.115,348.947 590.5,347.5 Z"/></g>
<g><path style="opacity:0.012" fill="#b3b2a9" d="M 525.5,392.5 C 524.472,392.926 523.139,392.926 521.5,392.5C 522.261,391.609 523.261,390.942 524.5,390.5C 525.298,390.957 525.631,391.624 525.5,392.5 Z"/></g>
<g><path style="opacity:0.149" fill="#d6d5ca" d="M 518.5,393.5 C 515.495,395.277 512.162,396.277 508.5,396.5C 511.505,394.723 514.838,393.723 518.5,393.5 Z"/></g>
<g><path style="opacity:0.196" fill="#d2d1c6" d="M 508.5,396.5 C 506.574,398.293 504.241,399.293 501.5,399.5C 503.426,397.707 505.759,396.707 508.5,396.5 Z"/></g>
<g><path style="opacity:0.294" fill="#a8a79f" d="M 259.5,404.5 C 261.685,403.913 263.352,404.913 264.5,407.5C 262.589,406.925 260.922,405.925 259.5,404.5 Z"/></g>
<g><path style="opacity:0.173" fill="#d8d7cc" d="M 499.5,400.5 C 495.818,403.008 491.818,405.008 487.5,406.5C 490.914,403.46 494.914,401.46 499.5,400.5 Z"/></g>
<g><path style="opacity:0.235" fill="#d1d0c5" d="M 264.5,407.5 C 266.027,407.427 267.027,408.094 267.5,409.5C 265.973,409.573 264.973,408.906 264.5,407.5 Z"/></g>
<g><path style="opacity:0.141" fill="#dfded2" d="M 485.5,407.5 C 485.027,408.906 484.027,409.573 482.5,409.5C 482.973,408.094 483.973,407.427 485.5,407.5 Z"/></g>
<g><path style="opacity:0.067" fill="#d3d2c7" d="M 482.5,409.5 C 481.341,411.25 479.674,412.25 477.5,412.5C 478.659,410.75 480.326,409.75 482.5,409.5 Z"/></g>
<g><path style="opacity:0.012" fill="#d5d4c9" d="M 477.5,412.5 C 477.167,413.5 476.5,414.167 475.5,414.5C 475.5,413.167 476.167,412.5 477.5,412.5 Z"/></g>
<g><path style="opacity:0.322" fill="#b9b8af" d="M 269.5,410.5 C 271.749,411.08 273.415,412.413 274.5,414.5C 272.251,413.92 270.585,412.587 269.5,410.5 Z"/></g>
<g><path style="opacity:0.196" fill="#d0d0c5" d="M 274.5,414.5 C 278.151,415.659 281.485,417.326 284.5,419.5C 280.58,418.873 277.247,417.207 274.5,414.5 Z"/></g>
<g><path style="opacity:0.027" fill="#d9d8cd" d="M 294.5,423.5 C 295.239,423.369 295.906,423.536 296.5,424C 295.619,424.708 294.953,425.542 294.5,426.5C 293.375,425.652 293.375,424.652 294.5,423.5 Z"/></g>
<g><path style="opacity:1" fill="#f1f0e3" d="M 350.5,430.5 C 360.215,430.459 369.882,431.125 379.5,432.5C 389.146,431.411 398.812,431.245 408.5,432C 402.865,440.766 397.865,449.933 393.5,459.5C 392.833,459.833 392.167,460.167 391.5,460.5C 383.983,458.204 376.316,456.704 368.5,456C 361.627,448.795 355.127,441.295 349,433.5C 348.761,432.212 349.261,431.212 350.5,430.5 Z"/></g>

        
<g><path style="opacity:0.991" fill="#070709" d="M 369.5,120.5 C 370.833,120.5 372.167,120.5 373.5,120.5C 374.829,127.793 375.995,135.127 377,142.5C 380.222,149.499 382.222,156.833 383,164.5C 385.41,170.318 388.077,175.985 391,181.5C 397.794,189.963 404.961,198.13 412.5,206C 416.873,209.186 421.54,211.853 426.5,214C 435.081,216.097 443.747,217.764 452.5,219C 453.894,222.093 453.227,224.759 450.5,227C 430.107,226.898 410.441,230.565 391.5,238C 379.024,243.808 370.858,253.308 367,266.5C 355.463,275.515 342.296,279.849 327.5,279.5C 295.365,280.389 277.198,265.055 273,233.5C 272.179,214.784 276.679,197.45 286.5,181.5C 287.365,180.417 288.365,180.251 289.5,181C 291.882,194.264 298.048,205.431 308,214.5C 303.426,198.844 302.092,182.844 304,166.5C 306.194,155.608 311.36,146.441 319.5,139C 321,138.5 322.5,138 324,137.5C 324.945,137.905 325.612,138.572 326,139.5C 325.78,147.468 327.114,155.135 330,162.5C 335.333,171.167 340.667,179.833 346,188.5C 345.199,175.055 346.199,161.721 349,148.5C 354.151,137.861 360.985,128.528 369.5,120.5 Z"/></g>
<g><path style="opacity:1" fill="#2d2d3a" d="M 373.5,152.5 C 371.366,151.297 370.032,149.463 369.5,147C 368.5,146.333 367.5,146.333 366.5,147C 366.833,147.333 367.167,147.667 367.5,148C 363.138,150.623 361.472,154.29 362.5,159C 360.408,159.953 360.075,161.286 361.5,163C 360.5,165.333 359.5,167.667 358.5,170C 359.308,170.308 359.975,170.808 360.5,171.5C 358.318,173.734 357.985,176.234 359.5,179C 359.025,180.763 358.358,182.43 357.5,184C 359.434,185.729 359.434,187.729 357.5,190C 358.167,191.333 358.833,192.667 359.5,194C 359.267,197.466 358.933,201.3 358.5,205.5C 357.808,206.025 357.308,206.692 357,207.5C 355.806,206.57 354.473,205.903 353,205.5C 350.946,206.079 348.946,206.412 347,206.5C 346.517,205.552 346.351,204.552 346.5,203.5C 344.436,203.313 342.436,202.813 340.5,202C 339.5,199.667 337.833,198 335.5,197C 335.833,196.667 336.167,196.333 336.5,196C 335.514,193.672 333.514,191.672 330.5,190C 330.833,189.667 331.167,189.333 331.5,189C 329.833,188 328.5,186.667 327.5,185C 327.833,184.667 328.167,184.333 328.5,184C 327.5,183 326.5,182 325.5,181C 325.833,180.667 326.167,180.333 326.5,180C 324.996,178.509 324.163,176.676 324,174.5C 321.917,172.348 320.417,170.348 319.5,168.5C 318.032,170.792 317.032,172.959 316.5,175C 316.833,175.333 317.167,175.667 317.5,176C 316.692,176.308 316.025,176.808 315.5,177.5C 316.78,179.702 316.78,181.868 315.5,184C 316.167,184.667 316.833,185.333 317.5,186C 316.283,188.011 316.616,190.011 318.5,192C 317.941,192.725 317.608,193.558 317.5,194.5C 318.755,199.502 320.421,204.335 322.5,209C 322.167,209.333 321.833,209.667 321.5,210C 323.866,214.26 325.532,218.427 326.5,222.5C 326.035,225.471 324.535,227.805 322,229.5C 312.901,229.677 304.901,227.344 298,222.5C 297.667,222.833 297.333,223.167 297,223.5C 296.424,220.876 295.09,220.209 293,221.5C 292.683,219.699 292.016,219.366 291,220.5C 290.632,219.09 289.799,218.09 288.5,217.5C 287.831,220.93 287.497,224.263 287.5,227.5C 287.529,229.029 288.196,230.196 289.5,231C 289.167,231.333 288.833,231.667 288.5,232C 288.846,236.025 290.512,239.358 293.5,242C 293.167,242.333 292.833,242.667 292.5,243C 294.865,246.328 297.032,250.495 299,255.5C 299.333,255.167 299.667,254.833 300,254.5C 301.347,259.54 305.18,263.874 311.5,267.5C 312.246,268.736 312.579,270.07 312.5,271.5C 316.425,271.43 320.091,272.097 323.5,273.5C 298.519,273.351 283.686,261.018 279,236.5C 277.516,224.501 278.849,212.835 283,201.5C 284.015,198.79 285.515,196.457 287.5,194.5C 292.1,204.27 298.433,212.77 306.5,220C 310.275,222.351 313.608,221.851 316.5,218.5C 313.264,213.631 311.097,208.297 310,202.5C 307.534,190.194 307.201,177.86 309,165.5C 311.037,157.755 314.87,151.088 320.5,145.5C 321.205,153.249 323.372,160.582 327,167.5C 332.396,175.234 337.396,183.234 342,191.5C 344.247,194.509 346.581,194.842 349,192.5C 349.756,179.806 350.756,167.139 352,154.5C 355.417,144.676 361.083,136.342 369,129.5C 370.085,137.268 371.585,144.935 373.5,152.5 Z"/></g>
<g><path style="opacity:1" fill="#333340" d="M 373.5,152.5 C 375.929,156.791 377.096,161.458 377,166.5C 379.333,171.833 381.667,177.167 384,182.5C 389.333,189.167 394.667,195.833 400,202.5C 409.902,214.065 422.402,220.899 437.5,223C 416.978,223.876 397.978,229.543 380.5,240C 377.333,243.167 374.167,246.333 371,249.5C 370.226,245.853 369.559,242.186 369,238.5C 365.827,235.671 364.327,236.505 364.5,241C 366.241,248.365 365.741,255.532 363,262.5C 357.518,267.657 351.018,270.824 343.5,272C 336.897,273.274 330.23,273.774 323.5,273.5C 320.091,272.097 316.425,271.43 312.5,271.5C 312.579,270.07 312.246,268.736 311.5,267.5C 305.18,263.874 301.347,259.54 300,254.5C 299.667,254.833 299.333,255.167 299,255.5C 297.032,250.495 294.865,246.328 292.5,243C 292.833,242.667 293.167,242.333 293.5,242C 290.512,239.358 288.846,236.025 288.5,232C 288.833,231.667 289.167,231.333 289.5,231C 288.196,230.196 287.529,229.029 287.5,227.5C 287.497,224.263 287.831,220.93 288.5,217.5C 289.799,218.09 290.632,219.09 291,220.5C 292.016,219.366 292.683,219.699 293,221.5C 295.09,220.209 296.424,220.876 297,223.5C 297.333,223.167 297.667,222.833 298,222.5C 304.901,227.344 312.901,229.677 322,229.5C 324.535,227.805 326.035,225.471 326.5,222.5C 325.532,218.427 323.866,214.26 321.5,210C 321.833,209.667 322.167,209.333 322.5,209C 320.421,204.335 318.755,199.502 317.5,194.5C 317.608,193.558 317.941,192.725 318.5,192C 316.616,190.011 316.283,188.011 317.5,186C 316.833,185.333 316.167,184.667 315.5,184C 316.78,181.868 316.78,179.702 315.5,177.5C 316.025,176.808 316.692,176.308 317.5,176C 317.167,175.667 316.833,175.333 316.5,175C 317.032,172.959 318.032,170.792 319.5,168.5C 320.417,170.348 321.917,172.348 324,174.5C 324.163,176.676 324.996,178.509 326.5,180C 326.167,180.333 325.833,180.667 325.5,181C 326.5,182 327.5,183 328.5,184C 328.167,184.333 327.833,184.667 327.5,185C 328.5,186.667 329.833,188 331.5,189C 331.167,189.333 330.833,189.667 330.5,190C 333.514,191.672 335.514,193.672 336.5,196C 336.167,196.333 335.833,196.667 335.5,197C 337.833,198 339.5,199.667 340.5,202C 342.436,202.813 344.436,203.313 346.5,203.5C 346.351,204.552 346.517,205.552 347,206.5C 348.946,206.412 350.946,206.079 353,205.5C 354.473,205.903 355.806,206.57 357,207.5C 357.308,206.692 357.808,206.025 358.5,205.5C 358.933,201.3 359.267,197.466 359.5,194C 358.833,192.667 358.167,191.333 357.5,190C 359.434,187.729 359.434,185.729 357.5,184C 358.358,182.43 359.025,180.763 359.5,179C 357.985,176.234 358.318,173.734 360.5,171.5C 359.975,170.808 359.308,170.308 358.5,170C 359.5,167.667 360.5,165.333 361.5,163C 360.075,161.286 360.408,159.953 362.5,159C 361.472,154.29 363.138,150.623 367.5,148C 367.167,147.667 366.833,147.333 366.5,147C 367.5,146.333 368.5,146.333 369.5,147C 370.032,149.463 371.366,151.297 373.5,152.5 Z"/></g>

    </svg>
