
    <svg width="862" height="862" viewBox="0 0 862 862" fill="none" xmlns="http://www.w3.org/2000/svg">
        
<g><path style="opacity:1" fill="#f6f6e8" d="M -0.5,-0.5 C 286.833,-0.5 574.167,-0.5 861.5,-0.5C 861.5,286.833 861.5,574.167 861.5,861.5C 574.167,861.5 286.833,861.5 -0.5,861.5C -0.5,574.167 -0.5,286.833 -0.5,-0.5 Z"/></g>

        
<g><path style="opacity:0.983" fill="#1a1a19" d="M 578.5,540.5 C 583.993,540.916 589.326,542.082 594.5,544C 599.237,547.614 603.403,551.781 607,556.5C 613.977,570.057 616.311,584.39 614,599.5C 611.931,603.236 608.931,605.903 605,607.5C 603.018,607.01 601.351,606.01 600,604.5C 594.275,609.717 588.442,609.717 582.5,604.5C 577.923,613.337 572.256,614.337 565.5,607.5C 561.53,612.973 556.196,614.806 549.5,613C 548.299,612.097 547.465,610.931 547,609.5C 541.931,617.452 536.764,617.452 531.5,609.5C 527.737,613.765 523.737,617.932 519.5,622C 516.106,622.752 512.773,622.585 509.5,621.5C 508.194,620.088 507.36,618.421 507,616.5C 505.425,609.568 504.258,602.568 503.5,595.5C 504.335,583.317 510.669,578.317 522.5,580.5C 523.795,579.902 525.128,579.402 526.5,579C 535.197,570.637 543.531,561.97 551.5,553C 559.592,546.617 568.592,542.45 578.5,540.5 Z"/></g>
<g><path style="opacity:1" fill="#d9d8cb" d="M 587.5,601.5 C 588.496,601.586 589.329,601.252 590,600.5C 592.94,596.545 595.94,592.545 599,588.5C 599.37,579.339 598.37,570.339 596,561.5C 591.36,554.156 584.693,549.822 576,548.5C 573.538,549.159 571.038,549.493 568.5,549.5C 581.297,543.74 592.13,546.407 601,557.5C 608.853,570.951 611.186,585.285 608,600.5C 606.604,602.527 604.938,602.86 603,601.5C 602.091,598.089 601.091,594.755 600,591.5C 598.35,595.573 596.516,599.573 594.5,603.5C 591.584,604.861 589.251,604.195 587.5,601.5 Z"/></g>
<g><path style="opacity:1" fill="#f4f3e6" d="M 587.5,601.5 C 585.433,599.682 584.1,597.349 583.5,594.5C 582.635,593.417 581.635,593.251 580.5,594C 579.955,598.074 578.621,601.907 576.5,605.5C 574.878,607.439 573.044,607.772 571,606.5C 568.863,602.486 567.03,598.486 565.5,594.5C 564.522,594.977 563.689,595.643 563,596.5C 563.284,605.334 559.118,609.667 550.5,609.5C 550.348,605.228 549.348,601.228 547.5,597.5C 545.179,600.394 544.012,603.727 544,607.5C 541.618,612.067 538.951,612.4 536,608.5C 535.887,606.026 534.887,604.026 533,602.5C 527.856,607.313 523.023,612.48 518.5,618C 516.098,618.814 513.765,618.647 511.5,617.5C 508.811,609.37 507.645,601.036 508,592.5C 508.668,588.501 510.835,585.668 514.5,584C 518.801,584.363 523.134,584.363 527.5,584C 529.167,583 530.833,582 532.5,581C 540.864,572.97 548.864,564.637 556.5,556C 560.367,553.567 564.367,551.4 568.5,549.5C 571.038,549.493 573.538,549.159 576,548.5C 584.693,549.822 591.36,554.156 596,561.5C 598.37,570.339 599.37,579.339 599,588.5C 595.94,592.545 592.94,596.545 590,600.5C 589.329,601.252 588.496,601.586 587.5,601.5 Z"/></g>
<g><path style="opacity:0.982" fill="#191918" d="M 290.5,554.5 C 298.253,554.104 305.92,554.604 313.5,556C 315.5,557.333 317.5,558.667 319.5,560C 322.228,566.042 326.895,569.709 333.5,571C 335.378,572.543 336.878,574.376 338,576.5C 338.242,583.196 338.742,589.862 339.5,596.5C 339.461,598.587 338.461,599.921 336.5,600.5C 332.274,599.93 328.108,599.263 324,598.5C 322.5,600 321,601.5 319.5,603C 317.287,603.626 315.12,603.459 313,602.5C 306.564,605.689 301.23,604.356 297,598.5C 284.481,607.161 276.648,603.994 273.5,589C 271.944,573.778 277.611,562.278 290.5,554.5 Z"/></g>
<g><path style="opacity:1" fill="#f4f3e6" d="M 334.5,587.5 C 334.5,590.167 334.5,592.833 334.5,595.5C 333.167,595.5 331.833,595.5 330.5,595.5C 327.482,595.335 324.482,595.502 321.5,596C 320.022,598.039 318.022,598.872 315.5,598.5C 315.5,597.5 315.5,596.5 315.5,595.5C 312.326,596.015 309.326,597.015 306.5,598.5C 305.5,598.333 304.5,598.167 303.5,598C 301.441,595.366 299.275,592.866 297,590.5C 296.292,591.381 295.458,592.047 294.5,592.5C 290.404,593.285 287.07,592.118 284.5,589C 284.833,588.667 285.167,588.333 285.5,588C 283.667,587.5 282.5,586.333 282,584.5C 281.501,580.179 281.334,575.846 281.5,571.5C 281.709,570.078 282.209,568.745 283,567.5C 286.167,565 289.333,562.5 292.5,560C 298.167,559.333 303.833,559.333 309.5,560C 314.42,562.916 318.753,566.582 322.5,571C 326.232,572.461 329.732,574.294 333,576.5C 333.936,580.114 334.436,583.78 334.5,587.5 Z"/></g>
<g><path style="opacity:1" fill="#d7d6c9" d="M 281.5,571.5 C 281.334,575.846 281.501,580.179 282,584.5C 282.5,586.333 283.667,587.5 285.5,588C 285.167,588.333 284.833,588.667 284.5,589C 287.07,592.118 290.404,593.285 294.5,592.5C 293.641,595.452 291.641,597.285 288.5,598C 285.364,599.041 282.864,598.207 281,595.5C 279.409,588.608 279.076,581.608 280,574.5C 280.232,573.263 280.732,572.263 281.5,571.5 Z"/></g>
<g><path style="opacity:1" fill="#64635e" d="M 334.5,587.5 C 335.477,590.287 335.81,593.287 335.5,596.5C 333.585,596.784 331.919,596.451 330.5,595.5C 331.833,595.5 333.167,595.5 334.5,595.5C 334.5,592.833 334.5,590.167 334.5,587.5 Z"/></g>

        
<g><path style="opacity:0.997" fill="#1a1a19" d="M 748.5,123.5 C 748.427,125.027 749.094,126.027 750.5,126.5C 754.888,130.929 758.554,135.929 761.5,141.5C 761.427,143.027 762.094,144.027 763.5,144.5C 771.202,155.904 777.369,168.238 782,181.5C 783.837,189.172 785.671,196.838 787.5,204.5C 787.255,206.663 786.255,208.33 784.5,209.5C 759.247,199.852 733.247,192.685 706.5,188C 674.881,182.925 645.214,188.259 617.5,204C 595.206,220.746 581.706,242.913 577,270.5C 573.386,276.063 568.219,279.23 561.5,280C 525.506,284.421 493.173,275.921 464.5,254.5C 464.027,253.094 463.027,252.427 461.5,252.5C 454.873,249.017 449.207,244.35 444.5,238.5C 444.027,237.094 443.027,236.427 441.5,236.5C 436.771,231.89 434.437,226.39 434.5,220C 450.395,214.692 466.395,209.692 482.5,205C 509.102,196.298 530.268,180.464 546,157.5C 552.792,144.588 553.125,131.588 547,118.5C 546.505,116.527 546.338,114.527 546.5,112.5C 561.245,102.694 577.579,97.0274 595.5,95.5C 598.853,95.6547 599.186,94.9881 596.5,93.5C 560.478,62.1512 519.478,39.6512 473.5,26C 473.57,25.2352 473.903,24.7352 474.5,24.5C 476.483,24.8432 477.817,24.1765 478.5,22.5C 511.798,16.0827 544.798,17.5827 577.5,27C 609.101,35.4222 639.767,46.4222 669.5,60C 698.333,77.994 724.667,99.1607 748.5,123.5 Z"/></g>
<g><path style="opacity:0.569" fill="#8b8b83" d="M 478.5,22.5 C 477.817,24.1765 476.483,24.8432 474.5,24.5C 475.671,23.6554 477.005,22.9887 478.5,22.5 Z"/></g>
<g><path style="opacity:1" fill="#c4c3b5" d="M 536.5,178.5 C 531.897,189.503 524.564,198.336 514.5,205C 508.234,206.92 501.9,208.587 495.5,210C 486.576,214.015 483.076,220.848 485,230.5C 488.03,237.109 493.197,240.942 500.5,242C 514.511,243.129 528.345,245.296 542,248.5C 547.325,248.614 551.992,246.948 556,243.5C 560.396,230.657 565.396,217.99 571,205.5C 578.937,192.804 584.771,179.304 588.5,165C 587.447,154.689 581.614,149.522 571,149.5C 568.37,149.464 565.87,149.964 563.5,151C 559.167,154 555.5,157.667 552.5,162C 551.552,162.483 550.552,162.649 549.5,162.5C 556.051,152.158 558.551,140.825 557,128.5C 555.753,123.792 554.753,119.126 554,114.5C 568.372,106.266 583.872,101.433 600.5,100C 603.379,98.3342 604.212,95.8342 603,92.5C 598.833,88.3333 594.667,84.1667 590.5,80C 568.411,63.283 544.744,48.9496 519.5,37C 508.786,33.2622 498.119,29.4289 487.5,25.5C 507.53,22.6677 527.53,22.8344 547.5,26C 578.944,32.3703 609.61,41.3703 639.5,53C 660.688,60.9222 680.022,71.9222 697.5,86C 710.833,97.3333 724.167,108.667 737.5,120C 759.107,143.315 773.44,170.482 780.5,201.5C 763.076,195.638 745.409,190.471 727.5,186C 699.795,180.174 672.128,180.174 644.5,186C 603.465,199.407 579.465,227.407 572.5,270C 568.05,272.261 563.383,273.928 558.5,275C 532.784,277.281 508.45,272.614 485.5,261C 470.334,252.665 456.5,242.498 444,230.5C 442.36,228.421 441.194,226.088 440.5,223.5C 454.489,219.336 468.489,215.169 482.5,211C 502.992,203.937 520.992,193.104 536.5,178.5 Z"/></g>
<g><path style="opacity:0.997" fill="#1a1a19" d="M 110.5,109.5 C 117.11,104.559 123.11,98.8922 128.5,92.5C 136.353,85.1529 144.687,78.3196 153.5,72C 170.937,64.1151 187.937,55.4484 204.5,46C 222.928,39.3172 241.928,35.3172 261.5,34C 268.833,33.3333 276.167,33.3333 283.5,34C 284.406,35.6995 284.739,37.5328 284.5,39.5C 282.473,39.3379 280.473,39.5045 278.5,40C 251.079,56.5854 230.079,79.0854 215.5,107.5C 223.11,109.983 230.443,113.149 237.5,117C 239.543,119.009 241.543,121.009 243.5,123C 243.578,128.964 243.411,135.131 243,141.5C 242.488,146.038 240.988,150.204 238.5,154C 248.461,168.641 257.628,183.808 266,199.5C 276.165,211.143 285.665,223.143 294.5,235.5C 285.24,264.602 266.573,285.435 238.5,298C 232.801,299.002 227.301,300.502 222,302.5C 219.446,302.42 217.946,301.086 217.5,298.5C 226.852,273.567 224.685,249.567 211,226.5C 195.302,204.14 174.468,188.64 148.5,180C 123.327,176.617 100.993,182.95 81.5,199C 79.8876,199.72 78.3876,199.554 77,198.5C 77.0751,189.833 77.7417,181.166 79,172.5C 83.4608,161.784 87.1275,150.784 90,139.5C 95.9148,128.773 102.748,118.773 110.5,109.5 Z"/></g>
<g><path style="opacity:1" fill="#c3c4b6" d="M 251.5,187.5 C 248.843,184.736 246.51,181.569 244.5,178C 238.307,179.346 231.974,179.679 225.5,179C 222.615,174.872 219.281,171.206 215.5,168C 210.704,168.1 207.538,170.6 206,175.5C 205.333,180.167 205.333,184.833 206,189.5C 211.333,200.833 216.667,212.167 222,223.5C 223.929,230.409 225.429,237.409 226.5,244.5C 220.991,227.34 211.324,212.84 197.5,201C 183.921,187.873 167.921,178.873 149.5,174C 124.712,170.655 102.379,176.488 82.5,191.5C 81.3504,185.405 81.8504,179.405 84,173.5C 88.2623,163.047 91.929,152.38 95,141.5C 99.5031,135.165 103.503,128.498 107,121.5C 120.983,104.845 136.816,90.3446 154.5,78C 171.833,69 189.167,60 206.5,51C 226.327,44.3591 246.66,40.6925 267.5,40C 246.884,55.2833 229.717,73.7833 216,95.5C 213.398,99.4738 211.898,103.807 211.5,108.5C 209.335,108.116 207.668,108.783 206.5,110.5C 216.131,112.79 225.465,116.623 234.5,122C 236,123.5 237.5,125 239,126.5C 239.988,134.893 238.655,142.893 235,150.5C 233.842,150.998 233.009,151.831 232.5,153C 238.724,164.619 245.057,176.119 251.5,187.5 Z"/></g>
<g><path style="opacity:1" fill="#f6f5e8" d="M 560.5,42.5 C 583.651,48.2482 606.318,55.4148 628.5,64C 634.589,64.9183 640.589,66.2516 646.5,68C 661.552,74.0257 675.886,81.3591 689.5,90C 699.602,98.0988 709.102,106.932 718,116.5C 726.65,128.146 735.65,139.479 745,150.5C 750.752,160.242 753.919,170.575 754.5,181.5C 748.773,183.118 743.44,182.284 738.5,179C 729.654,177.764 720.988,175.764 712.5,173C 687.12,169.476 661.787,169.809 636.5,174C 633.107,174.798 629.774,175.798 626.5,177C 618.198,179.537 612.032,177.037 608,169.5C 605.15,150.949 599.483,133.283 591,116.5C 589.835,112.316 591.335,109.483 595.5,108C 611.122,105.859 625.788,100.859 639.5,93C 626.858,83.0095 613.524,74.0095 599.5,66C 587.065,59.4487 574.399,53.4487 561.5,48C 559.365,46.4443 559.032,44.6109 560.5,42.5 Z"/></g>
<g><path style="opacity:1" fill="#f6f5e8" d="M 220.5,54.5 C 222.5,54.5 224.5,54.5 226.5,54.5C 226.657,55.8734 226.49,57.2068 226,58.5C 214.222,73.613 203.222,89.2797 193,105.5C 191.042,110.329 189.876,115.329 189.5,120.5C 201.163,117.585 210.996,120.585 219,129.5C 219.765,136.552 218.431,143.219 215,149.5C 210.29,156.421 205.456,163.254 200.5,170C 197.5,170.667 194.5,170.667 191.5,170C 168.682,160.927 145.015,157.927 120.5,161C 113.261,161.016 106.261,162.183 99.5,164.5C 101.45,147.268 108.283,132.268 120,119.5C 134.146,105.361 149.313,92.5273 165.5,81C 178.522,75.9891 190.855,69.6557 202.5,62C 208.966,60.3526 214.966,57.8526 220.5,54.5 Z"/></g>
<g><path style="opacity:0.282" fill="#b2b1a8" d="M 596.5,93.5 C 599.186,94.9881 598.853,95.6547 595.5,95.5C 595.833,94.8333 596.167,94.1667 596.5,93.5 Z"/></g>
<g><path style="opacity:0.749" fill="#6a6a64" d="M 128.5,92.5 C 123.11,98.8922 117.11,104.559 110.5,109.5C 115.89,103.108 121.89,97.4412 128.5,92.5 Z"/></g>
<g><path style="opacity:0.733" fill="#82817a" d="M 748.5,123.5 C 749.906,123.973 750.573,124.973 750.5,126.5C 749.094,126.027 748.427,125.027 748.5,123.5 Z"/></g>
<g><path style="opacity:0.522" fill="#82827b" d="M 761.5,141.5 C 762.906,141.973 763.573,142.973 763.5,144.5C 762.094,144.027 761.427,143.027 761.5,141.5 Z"/></g>
<g><path style="opacity:1" fill="#f6f5e8" d="M 536.5,178.5 C 540.823,173.206 545.156,167.873 549.5,162.5C 550.552,162.649 551.552,162.483 552.5,162C 555.5,157.667 559.167,154 563.5,151C 565.87,149.964 568.37,149.464 571,149.5C 581.614,149.522 587.447,154.689 588.5,165C 584.771,179.304 578.937,192.804 571,205.5C 565.396,217.99 560.396,230.657 556,243.5C 551.992,246.948 547.325,248.614 542,248.5C 528.345,245.296 514.511,243.129 500.5,242C 493.197,240.942 488.03,237.109 485,230.5C 483.076,220.848 486.576,214.015 495.5,210C 501.9,208.587 508.234,206.92 514.5,205C 524.564,198.336 531.897,189.503 536.5,178.5 Z"/></g>
<g><path style="opacity:1" fill="#f6f5e8" d="M 251.5,187.5 C 254.258,190.678 256.258,194.345 257.5,198.5C 260.854,208.402 264.687,218.069 269,227.5C 269.851,232.255 270.518,236.922 271,241.5C 264.045,250.79 256.712,259.79 249,268.5C 245.1,273.098 240.433,276.431 235,278.5C 233.674,278.245 232.674,277.578 232,276.5C 231.181,268.847 230.514,261.18 230,253.5C 229.292,252.619 228.458,251.953 227.5,251.5C 226.781,249.236 226.448,246.903 226.5,244.5C 225.429,237.409 223.929,230.409 222,223.5C 216.667,212.167 211.333,200.833 206,189.5C 205.333,184.833 205.333,180.167 206,175.5C 207.538,170.6 210.704,168.1 215.5,168C 219.281,171.206 222.615,174.872 225.5,179C 231.974,179.679 238.307,179.346 244.5,178C 246.51,181.569 248.843,184.736 251.5,187.5 Z"/></g>
<g><path style="opacity:1" fill="#c2c4b6" d="M 257.5,198.5 C 267.469,210.646 277.303,222.979 287,235.5C 287.328,241.196 285.994,246.529 283,251.5C 271.965,269.203 257.131,282.703 238.5,292C 234.695,293.38 230.862,294.547 227,295.5C 228.314,286.152 229.148,276.652 229.5,267C 229.554,261.718 228.887,256.552 227.5,251.5C 228.458,251.953 229.292,252.619 230,253.5C 230.514,261.18 231.181,268.847 232,276.5C 232.674,277.578 233.674,278.245 235,278.5C 240.433,276.431 245.1,273.098 249,268.5C 256.712,259.79 264.045,250.79 271,241.5C 270.518,236.922 269.851,232.255 269,227.5C 264.687,218.069 260.854,208.402 257.5,198.5 Z"/></g>
<g><path style="opacity:0.686" fill="#898881" d="M 441.5,236.5 C 443.027,236.427 444.027,237.094 444.5,238.5C 442.973,238.573 441.973,237.906 441.5,236.5 Z"/></g>
<g><path style="opacity:0.506" fill="#85857e" d="M 461.5,252.5 C 463.027,252.427 464.027,253.094 464.5,254.5C 462.973,254.573 461.973,253.906 461.5,252.5 Z"/></g>

        
<g><path style="opacity:0.998" fill="#191919" d="M 567.5,264.5 C 567.427,266.027 568.094,267.027 569.5,267.5C 572.889,269.725 575.389,272.725 577,276.5C 579.793,283.332 582.126,290.332 584,297.5C 600.968,293.905 616.801,296.738 631.5,306C 655.874,322.039 676.708,341.873 694,365.5C 699.911,374.23 704.077,383.73 706.5,394C 702.842,398.302 698.175,400.969 692.5,402C 684.965,403.55 677.465,403.716 670,402.5C 671.622,406.676 673.289,411.01 675,415.5C 676.619,423.927 678.619,432.26 681,440.5C 682.454,454.02 679.787,466.687 673,478.5C 663.749,491.086 652.582,501.586 639.5,510C 630.893,513.302 622.893,517.635 615.5,523C 597.029,529.157 579.029,536.491 561.5,545C 545.683,550.606 529.683,555.606 513.5,560C 521.167,567 528.833,574 536.5,581C 541.889,585.389 547.556,589.389 553.5,593C 559.667,598.5 565.833,604 572,609.5C 578.423,618.674 584.09,628.34 589,638.5C 598.788,663.109 604.621,688.609 606.5,715C 605.825,731.869 601.492,747.703 593.5,762.5C 592.711,762.783 592.044,763.283 591.5,764C 593.134,764.494 594.801,764.66 596.5,764.5C 603.201,764.682 609.201,766.849 614.5,771C 619.719,777.218 624.552,783.718 629,790.5C 633.064,794.786 637.897,797.952 643.5,800C 646.319,802.72 645.986,805.053 642.5,807C 635.644,812.007 627.978,814.507 619.5,814.5C 615.167,814.5 610.833,814.5 606.5,814.5C 606.263,815.791 606.596,816.791 607.5,817.5C 609.143,819.708 608.81,821.541 606.5,823C 599.093,824.492 591.593,825.325 584,825.5C 570.833,824.357 557.666,823.19 544.5,822C 528.753,817.882 515.253,810.049 504,798.5C 495.911,789.336 489.577,779.003 485,767.5C 473.056,772.575 460.556,774.908 447.5,774.5C 441.513,773.858 435.513,773.358 429.5,773C 427,772.625 424.667,771.792 422.5,770.5C 418.78,774.733 415.613,779.4 413,784.5C 396.732,800.487 377.065,808.487 354,808.5C 349.103,808.068 344.269,807.234 339.5,806C 337.709,805.585 336.376,804.585 335.5,803C 338.138,800.346 341.138,798.18 344.5,796.5C 345.973,795.928 347.307,795.095 348.5,794C 346.609,793.797 344.943,794.297 343.5,795.5C 334.515,796.911 325.515,796.744 316.5,795C 304.562,791.925 299.562,784.425 301.5,772.5C 312.272,769.781 321.939,764.947 330.5,758C 319.87,750.041 313.37,739.541 311,726.5C 307.602,710.123 307.769,693.789 311.5,677.5C 312.793,675.636 312.793,673.636 311.5,671.5C 310.893,671.624 310.56,671.957 310.5,672.5C 309.013,673.804 307.346,674.97 305.5,676C 298.059,677.01 291.059,675.843 284.5,672.5C 275.52,664.574 271.187,654.574 271.5,642.5C 272.908,618.525 282.242,598.358 299.5,582C 310.392,573.408 322.392,571.241 335.5,575.5C 336.947,576.885 337.947,576.552 338.5,574.5C 338.433,573.041 338.766,571.708 339.5,570.5C 340.757,569.377 340.424,568.711 338.5,568.5C 326.038,567.642 313.704,565.808 301.5,563C 279.858,557.675 258.525,551.341 237.5,544C 217.724,535.619 199.39,524.952 182.5,512C 179.629,509.297 176.962,506.464 174.5,503.5C 174.027,502.094 173.027,501.427 171.5,501.5C 155.808,488.291 146.475,471.458 143.5,451C 144.485,443.505 144.985,436.005 145,428.5C 139.772,431.396 134.272,432.062 128.5,430.5C 127.063,426.472 126.397,422.305 126.5,418C 128.512,388.142 139.012,361.642 158,338.5C 167.466,327.852 178.966,320.352 192.5,316C 198.537,315.303 204.537,315.47 210.5,316.5C 212.5,305.171 217.167,295.171 224.5,286.5C 225.906,286.027 226.573,285.027 226.5,283.5C 226.992,281.181 227.992,279.181 229.5,277.5C 230.906,277.027 231.573,276.027 231.5,274.5C 242.367,259.469 255.701,246.969 271.5,237C 349.867,210.135 429.201,206.801 509.5,227C 517.288,230.394 524.955,234.061 532.5,238C 541.167,244.671 550.501,250.338 560.5,255C 562.476,258.463 564.81,261.63 567.5,264.5 Z"/></g>
<g><path style="opacity:1" fill="#747474" d="M 689.5,370.5 C 690.902,387.925 682.902,395.091 665.5,392C 658.055,389.299 650.722,386.633 643.5,384C 649.312,386.856 653.645,391.023 656.5,396.5C 659.649,400.095 662.816,403.762 666,407.5C 667.549,410.312 668.382,413.312 668.5,416.5C 666.96,427.329 664.46,437.996 661,448.5C 656.587,456.995 651.92,465.328 647,473.5C 624.616,496.285 598.45,513.452 568.5,525C 533.438,537.135 497.772,546.802 461.5,554C 448.218,555.752 434.884,556.918 421.5,557.5C 403.85,557.023 386.183,556.857 368.5,557C 353.786,555.321 339.12,553.321 324.5,551C 294.298,542.821 264.631,532.821 235.5,521C 216.909,512.707 199.575,502.374 183.5,490C 172.265,480.999 162.765,470.499 155,458.5C 152.079,451.45 150.912,444.117 151.5,436.5C 153.812,428.669 154.979,420.669 155,412.5C 154.329,413.252 153.496,413.586 152.5,413.5C 148.453,418.44 143.286,421.44 137,422.5C 134.013,422.01 132.18,420.343 131.5,417.5C 132.785,407.793 134.285,398.126 136,388.5C 140.527,379.252 144.86,369.918 149,360.5C 159.166,341.997 173.999,328.83 193.5,321C 200.196,320.559 206.863,320.559 213.5,321C 215.227,316.265 216.727,311.432 218,306.5C 223.919,296.998 229.586,287.331 235,277.5C 247.29,262.212 261.79,249.379 278.5,239C 321.88,226.104 366.213,219.27 411.5,218.5C 429.758,220.539 448.091,222.373 466.5,224C 487.579,226.012 507.579,231.679 526.5,241C 536.332,248.086 546.666,254.419 557.5,260C 569.285,271.403 576.452,285.237 579,301.5C 581.39,308.619 585.057,314.953 590,320.5C 590.167,320.167 590.333,319.833 590.5,319.5C 588.2,313.909 586.2,308.242 584.5,302.5C 599.35,299.458 613.35,301.625 626.5,309C 634.778,314.278 642.778,319.945 650.5,326C 659.333,334.833 668.167,343.667 677,352.5C 681.433,358.384 685.599,364.384 689.5,370.5 Z"/></g>
<g><path style="opacity:0.725" fill="#7d7d7d" d="M 567.5,264.5 C 568.906,264.973 569.573,265.973 569.5,267.5C 568.094,267.027 567.427,266.027 567.5,264.5 Z"/></g>
<g><path style="opacity:0.486" fill="#7e7e7e" d="M 231.5,274.5 C 231.573,276.027 230.906,277.027 229.5,277.5C 229.427,275.973 230.094,274.973 231.5,274.5 Z"/></g>
<g><path style="opacity:0.486" fill="#7e7e7e" d="M 226.5,283.5 C 226.573,285.027 225.906,286.027 224.5,286.5C 224.427,284.973 225.094,283.973 226.5,283.5 Z"/></g>
<g><path style="opacity:1" fill="#060606" d="M 618.5,337.5 C 624.258,343.084 630.258,348.584 636.5,354C 648.598,361.716 661.264,368.383 674.5,374C 676.954,375.74 678.454,377.907 679,380.5C 677.612,381.554 676.112,381.72 674.5,381C 655.168,371.421 637.668,359.255 622,344.5C 620.121,342.473 618.954,340.14 618.5,337.5 Z"/></g>
<g><path style="opacity:1" fill="#5a5a5a" d="M 689.5,370.5 C 694.856,377.048 698.523,384.548 700.5,393C 698.652,395.093 696.319,396.426 693.5,397C 680.712,399.885 668.379,398.718 656.5,393.5C 656.5,394.5 656.5,395.5 656.5,396.5C 653.645,391.023 649.312,386.856 643.5,384C 650.722,386.633 658.055,389.299 665.5,392C 682.902,395.091 690.902,387.925 689.5,370.5 Z"/></g>
<g><path style="opacity:1" fill="#060606" d="M 147.5,382.5 C 148.947,383.134 149.613,384.301 149.5,386C 148.279,393.491 147.113,400.991 146,408.5C 144.374,411.128 142.374,413.461 140,415.5C 141.411,404.282 143.911,393.282 147.5,382.5 Z"/></g>
<g><path style="opacity:1" fill="#595959" d="M 152.5,413.5 C 149.619,421.965 143.619,426.631 134.5,427.5C 133.201,426.91 132.368,425.91 132,424.5C 131.503,422.19 131.337,419.857 131.5,417.5C 132.18,420.343 134.013,422.01 137,422.5C 143.286,421.44 148.453,418.44 152.5,413.5 Z"/></g>
<g><path style="opacity:1" fill="#5a5a5a" d="M 668.5,416.5 C 669.117,416.611 669.617,416.944 670,417.5C 672.171,427.514 674.337,437.514 676.5,447.5C 675.668,459.82 671.501,470.82 664,480.5C 656.058,489.448 647.225,497.281 637.5,504C 628.893,507.302 620.893,511.635 613.5,517C 594.377,523.561 575.711,531.228 557.5,540C 533.486,548.228 509.153,555.228 484.5,561C 466.207,563.412 447.874,565.412 429.5,567C 419.833,567.667 410.167,567.667 400.5,567C 376.857,565.241 353.19,563.908 329.5,563C 288.931,556.527 250.265,544.193 213.5,526C 192.263,514.431 174.43,498.931 160,479.5C 150.917,466.205 148.084,451.872 151.5,436.5C 150.912,444.117 152.079,451.45 155,458.5C 162.765,470.499 172.265,480.999 183.5,490C 199.575,502.374 216.909,512.707 235.5,521C 264.631,532.821 294.298,542.821 324.5,551C 339.12,553.321 353.786,555.321 368.5,557C 386.183,556.857 403.85,557.023 421.5,557.5C 434.884,556.918 448.218,555.752 461.5,554C 497.772,546.802 533.438,537.135 568.5,525C 598.45,513.452 624.616,496.285 647,473.5C 651.92,465.328 656.587,456.995 661,448.5C 664.46,437.996 666.96,427.329 668.5,416.5 Z"/></g>
<g><path style="opacity:0.718" fill="#7f7f7f" d="M 171.5,501.5 C 173.027,501.427 174.027,502.094 174.5,503.5C 172.973,503.573 171.973,502.906 171.5,501.5 Z"/></g>
<g><path style="opacity:1" fill="#595959" d="M 478.5,672.5 C 479.316,674.144 480.65,675.31 482.5,676C 493.934,680.724 504.101,678.891 513,670.5C 512.484,676.348 510.651,681.848 507.5,687C 510.833,689 514.167,689 517.5,687C 531.421,676.687 539.921,662.853 543,645.5C 543.947,633.228 539.78,623.061 530.5,615C 523.496,610.163 516.163,605.829 508.5,602C 499.47,598.897 490.303,598.064 481,599.5C 477.485,607.683 477.985,615.683 482.5,623.5C 479.407,625.309 476.074,626.309 472.5,626.5C 473.018,625.423 473.352,624.256 473.5,623C 469.778,615.111 469.778,607.278 473.5,599.5C 473.167,598.5 472.5,597.833 471.5,597.5C 469.364,598.472 468.197,600.139 468,602.5C 467.081,608.966 467.581,615.299 469.5,621.5C 459.058,625.296 450.558,631.63 444,640.5C 430.5,618.167 417,595.833 403.5,573.5C 437.551,572.702 471.217,568.702 504.5,561.5C 506.299,561.577 507.966,562.077 509.5,563C 520.782,574.621 532.948,585.121 546,594.5C 546.265,596.163 545.765,597.663 544.5,599C 549.027,601.543 552.194,605.376 554,610.5C 565.425,638.292 560.925,663.126 540.5,685C 534.687,690.075 528.354,694.408 521.5,698C 505.398,705.566 492.565,702.066 483,687.5C 480.383,682.817 478.883,677.817 478.5,672.5 Z"/></g>
<g><path style="opacity:0.118" fill="#c4c4c4" d="M 338.5,568.5 C 340.424,568.711 340.757,569.377 339.5,570.5C 339.167,569.833 338.833,569.167 338.5,568.5 Z"/></g>
<g><path style="opacity:1" fill="#747474" d="M 341.5,626.5 C 340.957,626.56 340.624,626.893 340.5,627.5C 342.423,637.058 343.757,646.724 344.5,656.5C 344.406,658.923 343.906,661.256 343,663.5C 342.439,664.022 341.772,664.355 341,664.5C 335.989,662.745 331.156,660.578 326.5,658C 319.953,652.954 314.286,647.12 309.5,640.5C 307.682,644.136 305.849,647.802 304,651.5C 296.56,654.165 290.893,651.832 287,644.5C 283.432,623.869 288.766,605.869 303,590.5C 307.859,584.786 313.359,580.119 319.5,576.5C 327.483,576.346 334.483,578.679 340.5,583.5C 340.918,578.414 342.251,573.58 344.5,569C 348.256,568.625 351.922,569.125 355.5,570.5C 348.327,588.524 343.661,607.191 341.5,626.5 Z"/></g>
<g><path style="opacity:1" fill="#9a9a9a" d="M 360.5,674.5 C 365.636,683.259 371.636,691.426 378.5,699C 384.877,703.189 391.544,706.855 398.5,710C 417.397,716.636 424.897,710.136 421,690.5C 413.216,671.683 409.383,652.016 409.5,631.5C 398.985,626.788 387.985,624.121 376.5,623.5C 367.747,622.705 360.081,625.039 353.5,630.5C 350.807,627.803 348.473,624.803 346.5,621.5C 349.487,606.708 352.987,592.041 357,577.5C 357.93,575.064 359.097,572.731 360.5,570.5C 362.667,570.167 364.833,569.833 367,569.5C 377.186,570.567 387.352,571.567 397.5,572.5C 412.418,596.667 427.085,621.001 441.5,645.5C 436.166,659.522 436.333,673.522 442,687.5C 449.259,695.897 458.426,699.063 469.5,697C 472.798,696.513 475.798,695.347 478.5,693.5C 480.786,693.96 482.119,695.293 482.5,697.5C 479.307,719.149 479.973,740.649 484.5,762C 484.167,762.5 483.833,763 483.5,763.5C 454.121,772.925 425.787,770.425 398.5,756C 385.188,748.027 373.021,738.527 362,727.5C 358.333,721.833 354.667,716.167 351,710.5C 348.531,702.626 346.698,694.626 345.5,686.5C 348.84,684.43 352.174,682.263 355.5,680C 357.402,678.27 359.069,676.437 360.5,674.5 Z"/></g>
<g><path style="opacity:0.553" fill="#8f8f8f" d="M 338.5,574.5 C 337.947,576.552 336.947,576.885 335.5,575.5C 336.609,575.443 337.609,575.11 338.5,574.5 Z"/></g>
<g><path style="opacity:1" fill="#595959" d="M 319.5,576.5 C 313.359,580.119 307.859,584.786 303,590.5C 288.766,605.869 283.432,623.869 287,644.5C 290.893,651.832 296.56,654.165 304,651.5C 305.849,647.802 307.682,644.136 309.5,640.5C 314.286,647.12 319.953,652.954 326.5,658C 331.156,660.578 335.989,662.745 341,664.5C 341.772,664.355 342.439,664.022 343,663.5C 343.906,661.256 344.406,658.923 344.5,656.5C 343.757,646.724 342.423,637.058 340.5,627.5C 340.624,626.893 340.957,626.56 341.5,626.5C 351.199,635.23 356.699,646.23 358,659.5C 359.809,668.085 356.976,674.585 349.5,679C 336.467,684.992 325.3,682.492 316,671.5C 315.5,670 315,668.5 314.5,667C 316.52,664.379 316.853,661.545 315.5,658.5C 312.383,663.451 308.383,667.618 303.5,671C 299.152,671.238 294.819,670.905 290.5,670C 278.528,660.766 274.028,648.599 277,633.5C 280.837,610.292 292.337,592.125 311.5,579C 313.909,577.293 316.575,576.46 319.5,576.5 Z"/></g>
<g><path style="opacity:1" fill="#747474" d="M 478.5,672.5 C 478.817,669.428 478.484,666.428 477.5,663.5C 476.056,665.608 475.39,667.941 475.5,670.5C 473.625,679.348 467.958,684.015 458.5,684.5C 455.512,684.283 452.845,683.283 450.5,681.5C 447.814,678.097 445.147,674.764 442.5,671.5C 439.876,647.833 449.876,632.833 472.5,626.5C 476.074,626.309 479.407,625.309 482.5,623.5C 477.985,615.683 477.485,607.683 481,599.5C 490.303,598.064 499.47,598.897 508.5,602C 516.163,605.829 523.496,610.163 530.5,615C 539.78,623.061 543.947,633.228 543,645.5C 539.921,662.853 531.421,676.687 517.5,687C 514.167,689 510.833,689 507.5,687C 510.651,681.848 512.484,676.348 513,670.5C 504.101,678.891 493.934,680.724 482.5,676C 480.65,675.31 479.316,674.144 478.5,672.5 Z"/></g>
<g><path style="opacity:1" fill="#747474" d="M 598.5,698.5 C 598.426,725.588 589.092,748.755 570.5,768C 559.897,776.467 547.897,781.967 534.5,784.5C 517.611,781.445 507.444,771.445 504,754.5C 503.406,748.293 502.572,742.126 501.5,736C 501.833,734.167 502.167,732.333 502.5,730.5C 513.145,739.213 524.812,740.713 537.5,735C 550.384,725.714 559.218,713.548 564,698.5C 565.245,684.678 566.411,670.844 567.5,657C 567.12,651.981 566.454,647.148 565.5,642.5C 564.83,628.805 561.496,615.805 555.5,603.5C 556.002,602.479 556.668,602.312 557.5,603C 569.419,613.659 578.252,626.492 584,641.5C 591.615,659.836 596.448,678.836 598.5,698.5 Z"/></g>
<g><path style="opacity:1" fill="#b8b8b8" d="M 360.5,674.5 C 363.251,664.076 362.751,653.743 359,643.5C 357.154,639.145 355.321,634.812 353.5,630.5C 360.081,625.039 367.747,622.705 376.5,623.5C 387.985,624.121 398.985,626.788 409.5,631.5C 409.383,652.016 413.216,671.683 421,690.5C 424.897,710.136 417.397,716.636 398.5,710C 391.544,706.855 384.877,703.189 378.5,699C 371.636,691.426 365.636,683.259 360.5,674.5 Z"/></g>
<g><path style="opacity:1" fill="#595959" d="M 565.5,642.5 C 566.454,647.148 567.12,651.981 567.5,657C 566.411,670.844 565.245,684.678 564,698.5C 559.218,713.548 550.384,725.714 537.5,735C 524.812,740.713 513.145,739.213 502.5,730.5C 502.167,732.333 501.833,734.167 501.5,736C 502.572,742.126 503.406,748.293 504,754.5C 507.444,771.445 517.611,781.445 534.5,784.5C 547.897,781.967 559.897,776.467 570.5,768C 589.092,748.755 598.426,725.588 598.5,698.5C 602.933,721.449 598.766,742.782 586,762.5C 585.175,764.701 585.675,766.534 587.5,768C 598.604,767.364 607.771,771.197 615,779.5C 618.98,786.624 623.814,793.124 629.5,799C 632.661,800.413 635.661,802.08 638.5,804C 634.952,805.941 631.286,807.607 627.5,809C 619.193,809.999 610.86,810.832 602.5,811.5C 601.423,814.474 601.423,817.474 602.5,820.5C 584.783,820.736 567.116,819.903 549.5,818C 516.667,809.167 495.833,788.333 487,755.5C 483.667,736.833 483.667,718.167 487,699.5C 491.793,704.268 497.627,706.601 504.5,706.5C 525.326,704.005 541.492,694.005 553,676.5C 558.507,665.462 562.674,654.128 565.5,642.5 Z"/></g>
<g><path style="opacity:1" fill="#595959" d="M 475.5,670.5 C 475.435,676.617 475.935,682.617 477,688.5C 473.472,691.584 469.306,693.251 464.5,693.5C 449.477,693.811 442.144,686.477 442.5,671.5C 445.147,674.764 447.814,678.097 450.5,681.5C 452.845,683.283 455.512,684.283 458.5,684.5C 467.958,684.015 473.625,679.348 475.5,670.5 Z"/></g>
<g><path style="opacity:0.18" fill="#9e9e9e" d="M 310.5,672.5 C 310.56,671.957 310.893,671.624 311.5,671.5C 312.793,673.636 312.793,675.636 311.5,677.5C 311.784,675.585 311.451,673.919 310.5,672.5 Z"/></g>
<g><path style="opacity:1" fill="#595959" d="M 350.5,718.5 C 349.043,720.242 347.876,722.242 347,724.5C 338.32,720.657 330.654,715.324 324,708.5C 322.417,720.502 325.084,731.502 332,741.5C 338.772,748.117 345.939,754.117 353.5,759.5C 344.842,759.336 337.175,756.503 330.5,751C 328.037,747.535 325.204,744.369 322,741.5C 312.917,721.081 311.25,700.081 317,678.5C 323.898,685.032 332.065,687.698 341.5,686.5C 342.025,697.943 345.025,708.61 350.5,718.5 Z"/></g>
<g><path style="opacity:1" fill="#747474" d="M 350.5,718.5 C 353.904,722.965 357.071,727.631 360,732.5C 365.289,737.867 370.789,742.867 376.5,747.5C 379.148,754.295 382.482,760.795 386.5,767C 376.802,767.387 367.468,765.554 358.5,761.5C 356.95,760.559 355.284,759.893 353.5,759.5C 345.939,754.117 338.772,748.117 332,741.5C 325.084,731.502 322.417,720.502 324,708.5C 330.654,715.324 338.32,720.657 347,724.5C 347.876,722.242 349.043,720.242 350.5,718.5 Z"/></g>
<g><path style="opacity:1" fill="#595959" d="M 376.5,747.5 C 382.999,751.811 389.665,755.978 396.5,760C 402.274,763.222 408.274,765.888 414.5,768C 415.749,770.21 415.582,772.376 414,774.5C 406.476,785.682 396.31,793.515 383.5,798C 375.234,799.989 366.9,801.656 358.5,803C 353.761,803.726 349.095,803.393 344.5,802C 346.809,799.513 349.476,797.513 352.5,796C 356.633,790.866 361.133,786.032 366,781.5C 366.612,779.763 365.946,778.763 364,778.5C 362.019,779.65 360.186,780.984 358.5,782.5C 358.924,779.646 359.924,776.979 361.5,774.5C 352.07,771.913 342.737,768.913 333.5,765.5C 332.287,765.253 331.62,764.586 331.5,763.5C 332.479,761.855 333.812,760.521 335.5,759.5C 342.062,762.14 348.729,764.474 355.5,766.5C 356.442,766.392 357.275,766.059 358,765.5C 357.645,764.041 357.811,762.707 358.5,761.5C 367.468,765.554 376.802,767.387 386.5,767C 382.482,760.795 379.148,754.295 376.5,747.5 Z"/></g>
<g><path style="opacity:0.039" fill="#d3d3d3" d="M 593.5,762.5 C 594.5,763.167 595.5,763.833 596.5,764.5C 594.801,764.66 593.134,764.494 591.5,764C 592.044,763.283 592.711,762.783 593.5,762.5 Z"/></g>
<g><path style="opacity:1" fill="#747474" d="M 331.5,763.5 C 331.62,764.586 332.287,765.253 333.5,765.5C 342.737,768.913 352.07,771.913 361.5,774.5C 359.924,776.979 358.924,779.646 358.5,782.5C 346.952,790.089 334.285,792.589 320.5,790C 314.309,788.792 309.475,785.626 306,780.5C 305.219,779.056 305.386,777.723 306.5,776.5C 315.584,773.459 323.917,769.126 331.5,763.5 Z"/></g>
<g><path style="opacity:1" fill="#747474" d="M 577.5,780.5 C 592.957,777.906 605.623,782.573 615.5,794.5C 608.26,800.357 599.926,803.024 590.5,802.5C 590.911,805.553 591.577,808.553 592.5,811.5C 587.462,812.33 582.795,811.164 578.5,808C 571.727,803.194 565.227,798.028 559,792.5C 558.542,789.904 559.375,787.737 561.5,786C 566.846,783.83 572.179,781.997 577.5,780.5 Z"/></g>
<g><path style="opacity:0.165" fill="#adadad" d="M 344.5,796.5 C 344.5,795.833 344.167,795.5 343.5,795.5C 344.943,794.297 346.609,793.797 348.5,794C 347.307,795.095 345.973,795.928 344.5,796.5 Z"/></g>
<g><path style="opacity:0.282" fill="#acacac" d="M 619.5,814.5 C 615.232,814.869 611.232,815.869 607.5,817.5C 606.596,816.791 606.263,815.791 606.5,814.5C 610.833,814.5 615.167,814.5 619.5,814.5 Z"/></g>

        
<g><path style="opacity:0.904" fill="#020202" d="M 492.5,247.5 C 515.533,247.263 533.366,256.596 546,275.5C 550.875,284.412 555.042,293.579 558.5,303C 558.158,305.515 556.825,307.348 554.5,308.5C 552.205,306.52 549.539,305.353 546.5,305C 526.722,303.823 507.555,306.657 489,313.5C 491.296,328.823 493.796,344.156 496.5,359.5C 515.133,358.568 532.466,353.235 548.5,343.5C 551.079,344.888 551.079,346.388 548.5,348C 540.888,351.139 533.554,354.806 526.5,359C 517.117,363.072 507.45,366.239 497.5,368.5C 497.666,377.506 497.5,386.506 497,395.5C 496.586,395.957 496.086,396.291 495.5,396.5C 494.502,387.525 494.168,378.525 494.5,369.5C 474.538,371.28 454.538,371.78 434.5,371C 431.711,370.759 429.044,370.092 426.5,369C 429.84,366.991 433.507,365.824 437.5,365.5C 456.034,367.058 474.367,365.724 492.5,361.5C 493.422,356.507 493.255,351.507 492,346.5C 490.128,336.142 488.128,325.809 486,315.5C 485.439,314.978 484.772,314.645 484,314.5C 460.075,322.547 437.575,333.38 416.5,347C 413.333,350.167 410.167,353.333 407,356.5C 406.773,363.246 407.94,369.746 410.5,376C 408.984,382.558 406.484,388.725 403,394.5C 390.558,401.825 379.725,399.658 370.5,388C 367.5,386 364.5,386 361.5,388C 355.888,397.661 347.888,400.327 337.5,396C 334.667,394.5 332.5,392.333 331,389.5C 329.616,383.862 328.45,378.195 327.5,372.5C 326.325,372.281 325.325,372.614 324.5,373.5C 318.891,387.897 310.891,400.73 300.5,412C 298.223,413.959 295.723,415.459 293,416.5C 282.155,412.329 272.322,406.496 263.5,399C 245.45,388.357 226.117,384.857 205.5,388.5C 197.369,365.942 200.535,344.942 215,325.5C 215.218,305.905 222.385,289.405 236.5,276C 243.041,271.46 250.041,267.793 257.5,265C 263.793,264.142 269.793,265.142 275.5,268C 294.627,282.096 309.127,299.929 319,321.5C 323.344,332.367 327.177,343.367 330.5,354.5C 342.609,360.703 355.443,364.37 369,365.5C 378.23,363.734 387.397,361.734 396.5,359.5C 395.021,355.198 393.521,350.865 392,346.5C 391.46,332.433 394.46,319.1 401,306.5C 406.344,296.474 412.677,287.141 420,278.5C 431.941,268.442 445.108,260.275 459.5,254C 470.366,250.443 481.366,248.276 492.5,247.5 Z"/></g>
<g><path style="opacity:1" fill="#1b1b1b" d="M 491.5,251.5 C 512.015,251.342 528.515,259.342 541,275.5C 546.139,283.77 550.139,292.437 553,301.5C 545.161,299.952 536.995,299.452 528.5,300C 514.582,301.784 500.915,304.451 487.5,308C 484.415,296.075 480.915,284.242 477,272.5C 475.926,268.681 474.093,265.348 471.5,262.5C 475.843,277.668 480.176,293.168 484.5,309C 466.264,316.451 448.264,324.451 430.5,333C 420.352,339.081 411.352,346.581 403.5,355.5C 402.549,356.326 401.549,356.492 400.5,356C 397.116,351.224 395.116,345.891 394.5,340C 396.138,329.947 398.638,320.114 402,310.5C 405.755,305.997 408.755,300.997 411,295.5C 415.048,291.12 418.715,286.454 422,281.5C 436.682,268.507 453.516,259.341 472.5,254C 478.988,253.216 485.322,252.383 491.5,251.5 Z"/></g>
<g><path style="opacity:1" fill="#1b1b1b" d="M 256.5,269.5 C 263.905,268.705 270.571,270.539 276.5,275C 302.483,295.471 318.317,321.971 324,354.5C 322.601,353.773 321.101,353.273 319.5,353C 298.875,335.523 275.209,324.189 248.5,319C 238.929,317.048 229.263,316.214 219.5,316.5C 223.054,293.637 235.388,277.97 256.5,269.5 Z"/></g>
<g><path style="opacity:1" fill="#f3f2e5" d="M 223.5,320.5 C 258.583,321.886 289.249,334.053 315.5,357C 322.049,356.381 324.215,359.214 322,365.5C 317.972,381.561 310.305,395.561 299,407.5C 302.815,380.294 292.981,359.46 269.5,345C 256.136,341.189 243.469,342.856 231.5,350C 220.786,357.876 212.452,367.709 206.5,379.5C 203.61,364.357 205.777,350.024 213,336.5C 216.356,330.996 219.856,325.663 223.5,320.5 Z"/></g>
<g><path style="opacity:1" fill="#1b1b1b" d="M 327.5,358.5 C 327.56,357.957 327.893,357.624 328.5,357.5C 343.24,366.685 359.24,370.519 376.5,369C 385.084,366.187 393.751,363.687 402.5,361.5C 404.299,368.98 404.799,376.646 404,384.5C 402.453,391.217 398.286,394.884 391.5,395.5C 383.4,395.118 377.067,391.618 372.5,385C 367.996,381.538 363.663,381.704 359.5,385.5C 357.294,388.203 354.961,390.703 352.5,393C 347.713,393.879 343.047,393.545 338.5,392C 337.333,390.833 336.167,389.667 335,388.5C 332.616,381.015 331.283,373.348 331,365.5C 330.856,362.558 329.689,360.224 327.5,358.5 Z"/></g>

        
<g><path style="opacity:0.993" fill="#20201e" d="M 591.5,350.5 C 590.89,349.609 590.557,348.609 590.5,347.5C 598.093,347.538 604.593,350.538 610,356.5C 612.002,361.007 613.502,365.674 614.5,370.5C 614.02,374.293 612.353,377.46 609.5,380C 604.5,382.333 599.5,384.667 594.5,387C 582.992,386.084 571.492,384.917 560,383.5C 549.575,383.44 539.575,385.44 530,389.5C 529.099,405.656 527.099,421.656 524,437.5C 515.846,455.806 507.18,473.806 498,491.5C 496.381,493.772 494.548,495.772 492.5,497.5C 491.558,497.392 490.725,497.059 490,496.5C 490.124,476.86 487.791,457.527 483,438.5C 480.491,430.264 476.491,422.931 471,416.5C 465.075,419.213 459.241,422.046 453.5,425C 421.871,432.862 390.038,434.695 358,430.5C 338.546,433.337 319.379,432.004 300.5,426.5C 296.372,429.29 293.372,432.957 291.5,437.5C 286.174,448.647 282.34,460.313 280,472.5C 279.983,480.544 279.816,488.544 279.5,496.5C 278.448,498.256 276.781,498.923 274.5,498.5C 263.666,480.855 255.833,461.855 251,441.5C 248.471,427.539 249.971,414.039 255.5,401C 246.898,396.699 237.898,393.532 228.5,391.5C 218.197,392.724 207.863,393.224 197.5,393C 182.147,389.146 173.647,379.313 172,363.5C 171.333,358.833 171.333,354.167 172,349.5C 172.036,347.059 172.869,345.059 174.5,343.5C 175.086,343.709 175.586,344.043 176,344.5C 175.529,355.347 177.529,365.681 182,375.5C 187.543,382.974 195.043,386.974 204.5,387.5C 232.498,383.446 257.164,390.613 278.5,409C 291.714,416.182 305.714,421.182 320.5,424C 344.953,424.754 369.453,425.587 394,426.5C 413.476,426.449 432.642,423.949 451.5,419C 468.5,410 485.5,401 502.5,392C 517.586,386.527 532.92,381.86 548.5,378C 556.5,377.333 564.5,377.333 572.5,378C 579.063,379.986 585.73,380.986 592.5,381C 596.749,378.806 601.082,376.806 605.5,375C 606.872,373.758 607.872,372.258 608.5,370.5C 607.098,366.461 605.598,362.461 604,358.5C 599.684,355.934 595.517,353.267 591.5,350.5 Z"/></g>
<g><path style="opacity:0.408" fill="#9b9b93" d="M 590.5,347.5 C 590.557,348.609 590.89,349.609 591.5,350.5C 589.448,349.947 589.115,348.947 590.5,347.5 Z"/></g>
<g><path style="opacity:1" fill="#f3f2e5" d="M 523.5,390.5 C 524.649,390.791 525.316,391.624 525.5,393C 523.612,406.547 521.446,420.047 519,433.5C 511.787,450.924 503.787,467.924 495,484.5C 495.151,468.559 493.151,452.892 489,437.5C 485.392,429.112 480.892,421.278 475.5,414C 481.968,408.926 488.968,404.593 496.5,401C 505.492,397.175 514.492,393.675 523.5,390.5 Z"/></g>
<g><path style="opacity:1" fill="#f3f2e5" d="M 259.5,403.5 C 270.581,412.379 282.915,419.212 296.5,424C 280.894,441.812 273.394,462.645 274,486.5C 266.227,471.515 260.227,455.848 256,439.5C 254.469,427.135 255.636,415.135 259.5,403.5 Z"/></g>
<g><path style="opacity:0.751" fill="#e9e8dc" d="M 300.5,426.5 C 300.046,432.284 297.046,435.951 291.5,437.5C 293.372,432.957 296.372,429.29 300.5,426.5 Z"/></g>
<g><path style="opacity:0.796" fill="#62625d" d="M 279.5,496.5 C 280.404,497.209 280.737,498.209 280.5,499.5C 278.265,499.795 276.265,499.461 274.5,498.5C 276.781,498.923 278.448,498.256 279.5,496.5 Z"/></g>

        
<g><path style="opacity:0.991" fill="#212120" d="M 344.5,175.5 C 351.144,185.439 357.311,195.772 363,206.5C 368.262,210.091 372.429,214.591 375.5,220C 373.738,228.307 368.572,232.141 360,231.5C 358.106,231.42 356.273,231.087 354.5,230.5C 344.08,219.095 338.414,205.595 337.5,190C 337.607,183.955 339.94,179.122 344.5,175.5 Z"/></g>
<g><path style="opacity:1" fill="#f0efe2" d="M 360.5,210.5 C 360.5,212.5 360.5,214.5 360.5,216.5C 357.315,216.98 354.481,216.314 352,214.5C 349.696,206.742 346.529,199.408 342.5,192.5C 342.192,190.076 342.526,187.743 343.5,185.5C 344.5,184.167 345.5,184.167 346.5,185.5C 350.925,194.022 355.592,202.356 360.5,210.5 Z"/></g>
<g><path style="opacity:0.992" fill="#1c1c1b" d="M 392.5,187.5 C 394.39,187.297 395.89,187.963 397,189.5C 401.387,198.534 407.221,206.368 414.5,213C 398.563,220.196 390.563,215.029 390.5,197.5C 390.253,193.865 390.92,190.532 392.5,187.5 Z"/></g>
<g><path style="opacity:1" fill="#d9d8cb" d="M 342.5,192.5 C 346.529,199.408 349.696,206.742 352,214.5C 354.481,216.314 357.315,216.98 360.5,216.5C 360.5,214.5 360.5,212.5 360.5,210.5C 374.506,219.653 373.172,225.153 356.5,227C 348.282,216.986 343.616,205.486 342.5,192.5 Z"/></g>
<g><path style="opacity:1" fill="#cfcec3" d="M 394.5,196.5 C 395.496,196.414 396.329,196.748 397,197.5C 399.215,202.1 402.048,206.266 405.5,210C 402.007,211.004 398.841,210.504 396,208.5C 394.734,204.605 394.234,200.605 394.5,196.5 Z"/></g>
<g><path style="opacity:0.992" fill="#1e1e1c" d="M 311.5,207.5 C 312.376,207.369 313.043,207.702 313.5,208.5C 320.836,223.674 330.503,237.174 342.5,249C 345.722,251.888 349.222,254.388 353,256.5C 350.787,270.352 342.62,276.185 328.5,274C 313.783,259.373 306.616,241.539 307,220.5C 307.739,215.863 309.239,211.529 311.5,207.5 Z"/></g>
<g><path style="opacity:1" fill="#f0efe3" d="M 338.5,252.5 C 339.171,253.847 339.171,255.014 338.5,256C 334.694,259.158 330.36,260.492 325.5,260C 324.529,258.519 323.196,257.685 321.5,257.5C 316.86,248.407 313.694,238.74 312,228.5C 311.11,224.618 311.61,220.952 313.5,217.5C 319.918,230.577 328.252,242.244 338.5,252.5 Z"/></g>
<g><path style="opacity:1" fill="#d9d8cb" d="M 338.5,252.5 C 341.767,254.427 344.767,256.761 347.5,259.5C 343.949,267.111 337.949,270.277 329.5,269C 326.223,265.563 323.557,261.729 321.5,257.5C 323.196,257.685 324.529,258.519 325.5,260C 330.36,260.492 334.694,259.158 338.5,256C 339.171,255.014 339.171,253.847 338.5,252.5 Z"/></g>

    </svg>
