
    <svg width="862" height="862" viewBox="0 0 862 862" fill="none" xmlns="http://www.w3.org/2000/svg">
        
<g><path style="opacity:1" fill="#f6f6e8" d="M -0.5,-0.5 C 286.833,-0.5 574.167,-0.5 861.5,-0.5C 861.5,286.833 861.5,574.167 861.5,861.5C 574.167,861.5 286.833,861.5 -0.5,861.5C -0.5,574.167 -0.5,286.833 -0.5,-0.5 Z"/></g>

        
<g><path style="opacity:0.983" fill="#1a1a19" d="M 578.5,540.5 C 583.993,540.916 589.326,542.082 594.5,544C 599.237,547.614 603.403,551.781 607,556.5C 613.977,570.057 616.311,584.39 614,599.5C 611.931,603.236 608.931,605.903 605,607.5C 603.018,607.01 601.351,606.01 600,604.5C 594.275,609.717 588.442,609.717 582.5,604.5C 577.923,613.337 572.256,614.337 565.5,607.5C 561.53,612.973 556.196,614.806 549.5,613C 548.299,612.097 547.465,610.931 547,609.5C 541.931,617.452 536.764,617.452 531.5,609.5C 527.737,613.765 523.737,617.932 519.5,622C 516.106,622.752 512.773,622.585 509.5,621.5C 508.194,620.088 507.36,618.421 507,616.5C 505.425,609.568 504.258,602.568 503.5,595.5C 504.335,583.317 510.669,578.317 522.5,580.5C 523.795,579.902 525.128,579.402 526.5,579C 535.197,570.637 543.531,561.97 551.5,553C 559.592,546.617 568.592,542.45 578.5,540.5 Z"/></g>
<g><path style="opacity:1" fill="#d9d8cb" d="M 587.5,601.5 C 588.496,601.586 589.329,601.252 590,600.5C 592.94,596.545 595.94,592.545 599,588.5C 599.37,579.339 598.37,570.339 596,561.5C 591.36,554.156 584.693,549.822 576,548.5C 573.538,549.159 571.038,549.493 568.5,549.5C 581.297,543.74 592.13,546.407 601,557.5C 608.853,570.951 611.186,585.285 608,600.5C 606.604,602.527 604.938,602.86 603,601.5C 602.091,598.089 601.091,594.755 600,591.5C 598.35,595.573 596.516,599.573 594.5,603.5C 591.584,604.861 589.251,604.195 587.5,601.5 Z"/></g>
<g><path style="opacity:1" fill="#f4f3e6" d="M 587.5,601.5 C 585.433,599.682 584.1,597.349 583.5,594.5C 582.635,593.417 581.635,593.251 580.5,594C 579.955,598.074 578.621,601.907 576.5,605.5C 574.878,607.439 573.044,607.772 571,606.5C 568.863,602.486 567.03,598.486 565.5,594.5C 564.522,594.977 563.689,595.643 563,596.5C 563.284,605.334 559.118,609.667 550.5,609.5C 550.348,605.228 549.348,601.228 547.5,597.5C 545.179,600.394 544.012,603.727 544,607.5C 541.618,612.067 538.951,612.4 536,608.5C 535.887,606.026 534.887,604.026 533,602.5C 527.856,607.313 523.023,612.48 518.5,618C 516.098,618.814 513.765,618.647 511.5,617.5C 508.811,609.37 507.645,601.036 508,592.5C 508.668,588.501 510.835,585.668 514.5,584C 518.801,584.363 523.134,584.363 527.5,584C 529.167,583 530.833,582 532.5,581C 540.864,572.97 548.864,564.637 556.5,556C 560.367,553.567 564.367,551.4 568.5,549.5C 571.038,549.493 573.538,549.159 576,548.5C 584.693,549.822 591.36,554.156 596,561.5C 598.37,570.339 599.37,579.339 599,588.5C 595.94,592.545 592.94,596.545 590,600.5C 589.329,601.252 588.496,601.586 587.5,601.5 Z"/></g>
<g><path style="opacity:0.982" fill="#191918" d="M 290.5,554.5 C 298.253,554.104 305.92,554.604 313.5,556C 315.5,557.333 317.5,558.667 319.5,560C 322.228,566.042 326.895,569.709 333.5,571C 335.378,572.543 336.878,574.376 338,576.5C 338.242,583.196 338.742,589.862 339.5,596.5C 339.461,598.587 338.461,599.921 336.5,600.5C 332.274,599.93 328.108,599.263 324,598.5C 322.5,600 321,601.5 319.5,603C 317.287,603.626 315.12,603.459 313,602.5C 306.564,605.689 301.23,604.356 297,598.5C 284.481,607.161 276.648,603.994 273.5,589C 271.944,573.778 277.611,562.278 290.5,554.5 Z"/></g>
<g><path style="opacity:1" fill="#f4f3e6" d="M 334.5,587.5 C 334.5,590.167 334.5,592.833 334.5,595.5C 333.167,595.5 331.833,595.5 330.5,595.5C 327.482,595.335 324.482,595.502 321.5,596C 320.022,598.039 318.022,598.872 315.5,598.5C 315.5,597.5 315.5,596.5 315.5,595.5C 312.326,596.015 309.326,597.015 306.5,598.5C 305.5,598.333 304.5,598.167 303.5,598C 301.441,595.366 299.275,592.866 297,590.5C 296.292,591.381 295.458,592.047 294.5,592.5C 290.404,593.285 287.07,592.118 284.5,589C 284.833,588.667 285.167,588.333 285.5,588C 283.667,587.5 282.5,586.333 282,584.5C 281.501,580.179 281.334,575.846 281.5,571.5C 281.709,570.078 282.209,568.745 283,567.5C 286.167,565 289.333,562.5 292.5,560C 298.167,559.333 303.833,559.333 309.5,560C 314.42,562.916 318.753,566.582 322.5,571C 326.232,572.461 329.732,574.294 333,576.5C 333.936,580.114 334.436,583.78 334.5,587.5 Z"/></g>
<g><path style="opacity:1" fill="#d7d6c9" d="M 281.5,571.5 C 281.334,575.846 281.501,580.179 282,584.5C 282.5,586.333 283.667,587.5 285.5,588C 285.167,588.333 284.833,588.667 284.5,589C 287.07,592.118 290.404,593.285 294.5,592.5C 293.641,595.452 291.641,597.285 288.5,598C 285.364,599.041 282.864,598.207 281,595.5C 279.409,588.608 279.076,581.608 280,574.5C 280.232,573.263 280.732,572.263 281.5,571.5 Z"/></g>
<g><path style="opacity:1" fill="#64635e" d="M 334.5,587.5 C 335.477,590.287 335.81,593.287 335.5,596.5C 333.585,596.784 331.919,596.451 330.5,595.5C 331.833,595.5 333.167,595.5 334.5,595.5C 334.5,592.833 334.5,590.167 334.5,587.5 Z"/></g>

        
<g><path style="opacity:0.992" fill="#0e0200" d="M 427.5,213.5 C 431.015,214.239 434.348,214.239 437.5,213.5C 457.44,207.685 476.773,200.185 495.5,191C 539.434,164.086 578.267,130.92 612,91.5C 623.718,75.0452 633.551,57.7118 641.5,39.5C 643.784,43.0917 645.284,47.0917 646,51.5C 647.981,58.7292 648.647,66.0625 648,73.5C 640.855,110.937 630.855,147.604 618,183.5C 610.177,198.812 603.177,214.479 597,230.5C 591.559,238.38 586.892,246.714 583,255.5C 579.213,260.956 575.046,266.123 570.5,271C 547.78,274.587 525.113,274.253 502.5,270C 475.47,261.573 451.97,247.407 432,227.5C 428.906,223.067 427.406,218.4 427.5,213.5 Z"/></g>
<g><path style="opacity:1" fill="#480600" d="M 639.5,86.5 C 639.333,78.6432 638.666,70.9765 637.5,63.5C 638.403,61.3635 639.569,59.3635 641,57.5C 643.127,67.4034 642.627,77.0701 639.5,86.5 Z"/></g>
<g><path style="opacity:1" fill="#5d1100" d="M 637.5,63.5 C 638.666,70.9765 639.333,78.6432 639.5,86.5C 631.952,119.13 622.619,151.13 611.5,182.5C 594.072,199.89 575.405,215.89 555.5,230.5C 539.118,226.893 524.951,219.226 513,207.5C 509.506,202.214 508.006,196.547 508.5,190.5C 523.298,181.355 537.464,171.355 551,160.5C 554.322,165.804 557.655,171.138 561,176.5C 566.521,183.026 573.354,187.526 581.5,190C 584.721,190.797 587.721,190.297 590.5,188.5C 573.252,184.768 561.252,174.601 554.5,158C 575.614,139.22 595.781,119.387 615,98.5C 623.508,87.4845 631.008,75.8178 637.5,63.5 Z"/></g>
<g><path style="opacity:0.991" fill="#0e0200" d="M 163.5,81.5 C 163.402,83.5529 164.069,85.2196 165.5,86.5C 167.9,93.3682 169.9,100.368 171.5,107.5C 171.402,109.553 172.069,111.22 173.5,112.5C 175.314,118.78 177.647,124.78 180.5,130.5C 182.966,137.43 185.966,144.096 189.5,150.5C 189.427,152.027 190.094,153.027 191.5,153.5C 191.738,155.404 192.738,156.738 194.5,157.5C 198.189,161.865 201.522,166.531 204.5,171.5C 204.427,173.027 205.094,174.027 206.5,174.5C 207.167,174.5 207.5,174.833 207.5,175.5C 207.427,177.027 208.094,178.027 209.5,178.5C 211.727,180.607 213.727,182.94 215.5,185.5C 216.757,188.427 218.757,190.761 221.5,192.5C 233.146,201.988 245.146,210.988 257.5,219.5C 257.973,220.906 258.973,221.573 260.5,221.5C 262.992,223.768 265.658,224.768 268.5,224.5C 273.295,225.765 277.962,227.432 282.5,229.5C 287.333,227.167 290.5,228.834 292,234.5C 292.629,238.871 292.463,243.204 291.5,247.5C 289.896,248.287 289.229,249.62 289.5,251.5C 287.841,256.827 285.174,261.493 281.5,265.5C 280.094,265.973 279.427,266.973 279.5,268.5C 273.833,277.5 266.5,284.833 257.5,290.5C 255.973,290.427 254.973,291.094 254.5,292.5C 245.762,298.772 235.929,302.439 225,303.5C 221.45,303.517 220.283,302.017 221.5,299C 219.907,298.051 218.574,296.885 217.5,295.5C 216.738,293.738 215.404,292.738 213.5,292.5C 209.167,288.833 205.167,284.833 201.5,280.5C 200.5,278.833 199.167,277.5 197.5,276.5C 185.509,266.187 176.175,253.854 169.5,239.5C 169.573,237.973 168.906,236.973 167.5,236.5C 164.326,231.484 161.659,226.151 159.5,220.5C 157.07,212.533 154.07,204.866 150.5,197.5C 147.894,190.347 145.894,183.014 144.5,175.5C 143.987,171.121 143.153,166.787 142,162.5C 141.617,161.944 141.117,161.611 140.5,161.5C 140.5,161.167 140.5,160.833 140.5,160.5C 141.794,158.32 141.461,156.32 139.5,154.5C 139.5,143.833 139.5,133.167 139.5,122.5C 141.966,118.982 142.966,114.982 142.5,110.5C 144.411,106.767 145.744,102.767 146.5,98.5C 147.655,94.2025 149.321,90.2025 151.5,86.5C 153.008,84.8185 154.008,82.8185 154.5,80.5C 155.906,80.0269 156.573,79.0269 156.5,77.5C 157.261,76.6091 158.261,75.9424 159.5,75.5C 161.252,77.2459 162.585,79.2459 163.5,81.5 Z"/></g>
<g><path style="opacity:0.212" fill="#3b0702" d="M 156.5,77.5 C 156.573,79.0269 155.906,80.0269 154.5,80.5C 154.427,78.9731 155.094,77.9731 156.5,77.5 Z"/></g>
<g><path style="opacity:0.016" fill="#420b00" d="M 163.5,81.5 C 164.931,82.7804 165.598,84.4471 165.5,86.5C 164.069,85.2196 163.402,83.5529 163.5,81.5 Z"/></g>
<g><path style="opacity:0.106" fill="#3a0700" d="M 154.5,80.5 C 154.008,82.8185 153.008,84.8185 151.5,86.5C 151.461,83.911 152.461,81.911 154.5,80.5 Z"/></g>
<g><path style="opacity:1" fill="#490400" d="M 162.5,94.5 C 161.503,94.4701 160.836,94.9701 160.5,96C 157.987,102.732 156.987,109.732 157.5,117C 156.995,126.715 158.162,136.215 161,145.5C 169.115,165.739 179.282,184.739 191.5,202.5C 187.969,204.937 184.469,204.937 181,202.5C 180.333,203.833 180.333,205.167 181,206.5C 185.119,207.659 189.286,207.659 193.5,206.5C 199.628,219.484 206.461,232.151 214,244.5C 216.042,247.94 218.542,250.94 221.5,253.5C 219.067,256.687 216.067,258.353 212.5,258.5C 213,259.881 214,260.547 215.5,260.5C 218.183,259.49 220.849,258.49 223.5,257.5C 230.487,268.801 237.487,280.134 244.5,291.5C 239.92,294.754 234.753,296.754 229,297.5C 225.571,297.043 222.737,295.543 220.5,293C 206.564,280.069 193.731,266.236 182,251.5C 159.976,217.422 147.476,180.088 144.5,139.5C 144.038,119.571 149.038,101.238 159.5,84.5C 161.003,87.6773 162.003,91.0106 162.5,94.5 Z"/></g>
<g><path style="opacity:1" fill="#5c1100" d="M 162.5,94.5 C 166.782,109.234 171.782,123.734 177.5,138C 176.833,140 176.167,142 175.5,144C 175.957,144.414 176.291,144.914 176.5,145.5C 175.5,146.833 174.5,148.167 173.5,149.5C 174.365,150.583 175.365,150.749 176.5,150C 178.041,148.421 179.208,146.587 180,144.5C 188.664,159.494 198.497,173.661 209.5,187C 207.004,189.656 205.004,192.656 203.5,196C 199.845,198.827 195.845,200.993 191.5,202.5C 179.282,184.739 169.115,165.739 161,145.5C 158.162,136.215 156.995,126.715 157.5,117C 156.987,109.732 157.987,102.732 160.5,96C 160.836,94.9701 161.503,94.4701 162.5,94.5 Z"/></g>
<g><path style="opacity:0.671" fill="#2e0b00" d="M 146.5,98.5 C 145.744,102.767 144.411,106.767 142.5,110.5C 142.861,106.085 144.194,102.085 146.5,98.5 Z"/></g>
<g><path style="opacity:0.235" fill="#370c00" d="M 171.5,107.5 C 172.931,108.78 173.598,110.447 173.5,112.5C 172.069,111.22 171.402,109.553 171.5,107.5 Z"/></g>
<g><path style="opacity:0.263" fill="#290802" d="M 142.5,110.5 C 142.966,114.982 141.966,118.982 139.5,122.5C 140.008,118.264 141.008,114.264 142.5,110.5 Z"/></g>
<g><path style="opacity:0.251" fill="#3d0800" d="M 173.5,112.5 C 176.907,117.997 179.241,123.997 180.5,130.5C 177.647,124.78 175.314,118.78 173.5,112.5 Z"/></g>
<g><path style="opacity:0.314" fill="#390c00" d="M 189.5,150.5 C 190.906,150.973 191.573,151.973 191.5,153.5C 190.094,153.027 189.427,152.027 189.5,150.5 Z"/></g>
<g><path style="opacity:0.329" fill="#3d0502" d="M 191.5,153.5 C 193.262,154.262 194.262,155.596 194.5,157.5C 192.738,156.738 191.738,155.404 191.5,153.5 Z"/></g>
<g><path style="opacity:0.316" fill="#380800" d="M 139.5,154.5 C 141.461,156.32 141.794,158.32 140.5,160.5C 139.85,158.565 139.517,156.565 139.5,154.5 Z"/></g>
<g><path style="opacity:0.227" fill="#340900" d="M 140.5,161.5 C 141.117,161.611 141.617,161.944 142,162.5C 143.153,166.787 143.987,171.121 144.5,175.5C 142.565,171.107 141.232,166.441 140.5,161.5 Z"/></g>
<g><path style="opacity:0.306" fill="#3f0402" d="M 204.5,171.5 C 205.906,171.973 206.573,172.973 206.5,174.5C 205.094,174.027 204.427,173.027 204.5,171.5 Z"/></g>
<g><path style="opacity:0.376" fill="#3a0501" d="M 207.5,175.5 C 208.906,175.973 209.573,176.973 209.5,178.5C 208.094,178.027 207.427,177.027 207.5,175.5 Z"/></g>
<g><path style="opacity:1" fill="#490400" d="M 611.5,182.5 C 604.129,197.911 597.295,213.578 591,229.5C 585.559,237.38 580.892,245.714 577,254.5C 574.167,258 571.333,261.5 568.5,265C 548.008,269.725 527.675,269.559 507.5,264.5C 509.199,264.66 510.866,264.494 512.5,264C 517.395,261.52 522.395,259.186 527.5,257C 535.706,250.294 543.04,242.794 549.5,234.5C 555.767,236.176 561.767,235.509 567.5,232.5C 563.353,231.833 559.353,231.166 555.5,230.5C 575.405,215.89 594.072,199.89 611.5,182.5 Z"/></g>
<g><path style="opacity:0.498" fill="#380a00" d="M 215.5,185.5 C 218.243,187.239 220.243,189.573 221.5,192.5C 218.757,190.761 216.757,188.427 215.5,185.5 Z"/></g>
<g><path style="opacity:1" fill="#5d1100" d="M 549.5,234.5 C 543.04,242.794 535.706,250.294 527.5,257C 522.395,259.186 517.395,261.52 512.5,264C 510.866,264.494 509.199,264.66 507.5,264.5C 500.924,263.587 494.591,261.753 488.5,259C 469.68,249.511 452.514,237.678 437,223.5C 436.5,222.5 436,221.5 435.5,220.5C 459.54,214.543 482.373,205.543 504,193.5C 504.969,201.937 508.469,209.103 514.5,215C 524.994,223.581 536.661,230.081 549.5,234.5 Z"/></g>
<g><path style="opacity:0.122" fill="#3d0800" d="M 150.5,197.5 C 154.07,204.866 157.07,212.533 159.5,220.5C 155.533,213.274 152.533,205.608 150.5,197.5 Z"/></g>
<g><path style="opacity:0.678" fill="#2d0b00" d="M 427.5,213.5 C 430.668,212.556 434.001,212.556 437.5,213.5C 434.348,214.239 431.015,214.239 427.5,213.5 Z"/></g>
<g><path style="opacity:0.012" fill="#3f0400" d="M 257.5,219.5 C 259.027,219.427 260.027,220.094 260.5,221.5C 258.973,221.573 257.973,220.906 257.5,219.5 Z"/></g>
<g><path style="opacity:0.055" fill="#360a00" d="M 260.5,221.5 C 263.443,221.98 266.11,222.98 268.5,224.5C 265.658,224.768 262.992,223.768 260.5,221.5 Z"/></g>
<g><path style="opacity:1" fill="#0b0100" d="M 223.5,257.5 C 220.849,258.49 218.183,259.49 215.5,260.5C 214,260.547 213,259.881 212.5,258.5C 216.067,258.353 219.067,256.687 221.5,253.5C 232.23,245.437 241.23,235.771 248.5,224.5C 249.5,223.167 250.5,223.167 251.5,224.5C 244.728,237.735 235.395,248.735 223.5,257.5 Z"/></g>
<g><path style="opacity:1" fill="#5d1100" d="M 244.5,291.5 C 237.487,280.134 230.487,268.801 223.5,257.5C 235.395,248.735 244.728,237.735 251.5,224.5C 250.5,223.167 249.5,223.167 248.5,224.5C 241.23,235.771 232.23,245.437 221.5,253.5C 218.542,250.94 216.042,247.94 214,244.5C 206.461,232.151 199.628,219.484 193.5,206.5C 202.105,203.56 208.105,197.894 211.5,189.5C 216.291,194.792 221.291,199.959 226.5,205C 235.675,211.087 244.675,217.421 253.5,224C 264.115,228.76 274.948,232.927 286,236.5C 286.791,240.926 286.457,245.259 285,249.5C 276.025,268.63 262.525,282.63 244.5,291.5 Z"/></g>
<g><path style="opacity:0.027" fill="#4a0600" d="M 167.5,236.5 C 168.906,236.973 169.573,237.973 169.5,239.5C 168.094,239.027 167.427,238.027 167.5,236.5 Z"/></g>
<g><path style="opacity:0.369" fill="#3d0c00" d="M 291.5,247.5 C 291.34,249.153 290.674,250.486 289.5,251.5C 289.229,249.62 289.896,248.287 291.5,247.5 Z"/></g>
<g><path style="opacity:0.063" fill="#430c00" d="M 281.5,265.5 C 281.573,267.027 280.906,268.027 279.5,268.5C 279.427,266.973 280.094,265.973 281.5,265.5 Z"/></g>
<g><path style="opacity:0.004" fill="#4b0b00" d="M 197.5,276.5 C 199.167,277.5 200.5,278.833 201.5,280.5C 199.167,280.167 197.833,278.833 197.5,276.5 Z"/></g>
<g><path style="opacity:0.008" fill="#3f0c00" d="M 257.5,290.5 C 257.027,291.906 256.027,292.573 254.5,292.5C 254.973,291.094 255.973,290.427 257.5,290.5 Z"/></g>
<g><path style="opacity:0.443" fill="#3b0b01" d="M 213.5,292.5 C 215.404,292.738 216.738,293.738 217.5,295.5C 215.596,295.262 214.262,294.262 213.5,292.5 Z"/></g>

        
<g><path style="opacity:0.994" fill="#080808" d="M 397.5,213.5 C 426.652,214.128 455.652,216.628 484.5,221C 501.696,223.299 517.696,228.965 532.5,238C 541.415,244.711 550.915,250.545 561,255.5C 566,261.833 571,268.167 576,274.5C 579.431,281.886 582.098,289.553 584,297.5C 600.968,293.905 616.801,296.738 631.5,306C 657.957,323.456 680.123,345.29 698,371.5C 701.828,378.655 704.662,386.155 706.5,394C 702.842,398.302 698.175,400.969 692.5,402C 684.601,403.249 676.935,403.749 669.5,403.5C 671.81,407.254 673.643,411.254 675,415.5C 676.619,423.927 678.619,432.26 681,440.5C 682.454,454.02 679.787,466.687 673,478.5C 663.749,491.086 652.582,501.586 639.5,510C 630.893,513.302 622.893,517.635 615.5,523C 597.029,529.157 579.029,536.491 561.5,545C 545.683,550.606 529.683,555.606 513.5,560C 521.167,567 528.833,574 536.5,581C 541.889,585.389 547.556,589.389 553.5,593C 559.667,598.5 565.833,604 572,609.5C 578.423,618.674 584.09,628.34 589,638.5C 598.788,663.109 604.621,688.609 606.5,715C 605.832,731.84 601.498,747.673 593.5,762.5C 601.079,763.861 608.079,766.694 614.5,771C 619.719,777.218 624.552,783.718 629,790.5C 633.064,794.786 637.897,797.952 643.5,800C 644.293,801.085 644.96,802.252 645.5,803.5C 640.621,808.778 634.621,812.278 627.5,814C 620.872,815.052 614.206,815.552 607.5,815.5C 607.62,817.199 607.954,818.865 608.5,820.5C 608.182,821.647 607.516,822.481 606.5,823C 599.093,824.492 591.593,825.325 584,825.5C 570.833,824.357 557.666,823.19 544.5,822C 528.753,817.882 515.253,810.049 504,798.5C 495.911,789.336 489.577,779.003 485,767.5C 473.056,772.575 460.556,774.908 447.5,774.5C 441.513,773.858 435.513,773.358 429.5,773C 427,772.625 424.667,771.792 422.5,770.5C 418.78,774.733 415.613,779.4 413,784.5C 395.052,801.708 373.552,809.541 348.5,808C 344.343,807.271 340.343,806.104 336.5,804.5C 335.167,803.5 335.167,802.5 336.5,801.5C 338.833,800 341.167,798.5 343.5,797C 344.696,796.346 344.696,795.846 343.5,795.5C 335.883,796.633 328.216,796.8 320.5,796C 311.363,794.508 304.863,789.675 301,781.5C 300.179,778.446 300.345,775.446 301.5,772.5C 312.272,769.781 321.939,764.947 330.5,758C 319.87,750.041 313.37,739.541 311,726.5C 309.463,718.908 308.63,711.241 308.5,703.5C 309.559,693.159 310.392,682.825 311,672.5C 308.094,675.369 304.594,676.702 300.5,676.5C 294.742,676.543 289.409,675.209 284.5,672.5C 273.656,662.134 269.489,649.467 272,634.5C 275.346,612.289 285.512,594.122 302.5,580C 312.952,573.232 324.119,571.732 336,575.5C 337.967,574.507 339.134,572.84 339.5,570.5C 305.015,564.297 271.015,555.463 237.5,544C 209.322,532.837 184.822,516.337 164,494.5C 152.732,482.13 145.899,467.63 143.5,451C 144.485,443.505 144.985,436.005 145,428.5C 140.155,431.151 134.989,431.984 129.5,431C 127.954,429.56 127.121,427.727 127,425.5C 126.788,413.092 127.788,400.758 130,388.5C 135.912,374.746 142.579,361.413 150,348.5C 160.721,333.106 174.888,322.273 192.5,316C 198.537,315.303 204.537,315.47 210.5,316.5C 211.252,310.492 213.086,304.826 216,299.5C 222.667,288.833 229.333,278.167 236,267.5C 246.355,255.578 258.188,245.412 271.5,237C 312.624,223.821 354.624,215.987 397.5,213.5 Z"/></g>
<g><path style="opacity:1" fill="#1a1a1a" d="M 668.5,416.5 C 667.149,427.398 664.649,438.064 661,448.5C 656.399,457.425 651.399,466.092 646,474.5C 623.77,496.709 597.937,513.542 568.5,525C 543.253,532.859 517.92,540.526 492.5,548C 448.553,557.101 404.22,559.768 359.5,556C 347.914,553.855 336.248,552.188 324.5,551C 281.405,540.283 240.405,524.283 201.5,503C 185.771,492.605 171.938,480.105 160,465.5C 152.669,456.68 150.169,446.68 152.5,435.5C 154.204,427.844 154.871,420.177 154.5,412.5C 152.056,416.118 149.39,419.618 146.5,423C 142.683,424.995 138.683,426.495 134.5,427.5C 133.201,426.91 132.368,425.91 132,424.5C 131.833,422.5 131.667,420.5 131.5,418.5C 132.991,409.545 134.157,400.545 135,391.5C 141.604,374.286 150.271,358.286 161,343.5C 170.285,333.114 181.451,325.614 194.5,321C 200.862,320.576 207.195,320.576 213.5,321C 224.905,285.517 246.572,258.184 278.5,239C 326.469,224.712 375.469,218.046 425.5,219C 447.106,221.764 468.773,224.764 490.5,228C 502.4,230.411 513.733,234.411 524.5,240C 535.498,247.501 546.832,254.501 558.5,261C 569.707,272.248 576.541,285.748 579,301.5C 581.376,308.587 585.043,314.92 590,320.5C 590.167,320.167 590.333,319.833 590.5,319.5C 588.2,313.909 586.2,308.242 584.5,302.5C 599.35,299.458 613.35,301.625 626.5,309C 652.248,326.081 674.082,347.248 692,372.5C 695.8,378.933 698.633,385.766 700.5,393C 698.652,395.093 696.319,396.426 693.5,397C 680.718,399.865 668.385,398.698 656.5,393.5C 656.372,395.655 656.872,397.655 658,399.5C 664.052,403.607 667.552,409.273 668.5,416.5 Z"/></g>
<g><path style="opacity:1" fill="#010101" d="M 618.5,337.5 C 634.542,353.376 653.208,365.543 674.5,374C 676.954,375.74 678.454,377.907 679,380.5C 677.612,381.554 676.112,381.72 674.5,381C 654.654,371.331 636.821,358.831 621,343.5C 619.441,341.783 618.608,339.783 618.5,337.5 Z"/></g>
<g><path style="opacity:1" fill="#010101" d="M 147.5,382.5 C 148.993,383.312 149.66,384.645 149.5,386.5C 148.442,393.85 147.275,401.184 146,408.5C 144.374,411.128 142.374,413.461 140,415.5C 141.412,404.277 143.912,393.277 147.5,382.5 Z"/></g>
<g><path style="opacity:1" fill="#141414" d="M 668.5,416.5 C 669.117,416.611 669.617,416.944 670,417.5C 671.619,425.927 673.619,434.26 676,442.5C 676.82,456.706 672.82,469.372 664,480.5C 656.058,489.448 647.225,497.281 637.5,504C 628.893,507.302 620.893,511.635 613.5,517C 594.28,523.296 575.614,530.963 557.5,540C 535.077,547.604 512.411,554.271 489.5,560C 470.569,562.908 451.569,565.241 432.5,567C 422.167,567.667 411.833,567.667 401.5,567C 377.521,565.26 353.521,563.927 329.5,563C 288.931,556.527 250.265,544.193 213.5,526C 190.515,513.347 171.682,496.18 157,474.5C 150.182,462.569 148.182,449.902 151,436.5C 151.383,435.944 151.883,435.611 152.5,435.5C 150.169,446.68 152.669,456.68 160,465.5C 171.938,480.105 185.771,492.605 201.5,503C 240.405,524.283 281.405,540.283 324.5,551C 336.248,552.188 347.914,553.855 359.5,556C 404.22,559.768 448.553,557.101 492.5,548C 517.92,540.526 543.253,532.859 568.5,525C 597.937,513.542 623.77,496.709 646,474.5C 651.399,466.092 656.399,457.425 661,448.5C 664.649,438.064 667.149,427.398 668.5,416.5 Z"/></g>
<g><path style="opacity:1" fill="#141414" d="M 478.5,672.5 C 485.872,678.44 494.205,679.94 503.5,677C 506.732,675.77 509.399,673.77 511.5,671C 512.5,670.333 513.5,670.333 514.5,671C 512.476,676.438 510.142,681.772 507.5,687C 510.8,688.879 514.134,688.879 517.5,687C 532.745,675.358 541.412,659.858 543.5,640.5C 542.824,633.638 540.657,627.305 537,621.5C 523.858,607.513 507.691,599.846 488.5,598.5C 480.873,598.024 477.54,601.691 478.5,609.5C 479.213,614.311 480.547,618.978 482.5,623.5C 480.083,625.107 477.416,626.107 474.5,626.5C 472.491,621.266 471.158,615.766 470.5,610C 470.586,606.241 471.586,602.741 473.5,599.5C 473.167,598.5 472.5,597.833 471.5,597.5C 469.364,598.472 468.197,600.139 468,602.5C 467.081,608.966 467.581,615.299 469.5,621.5C 459.019,625.309 450.519,631.642 444,640.5C 430.5,618.167 417,595.833 403.5,573.5C 437.551,572.702 471.217,568.702 504.5,561.5C 506.299,561.577 507.966,562.077 509.5,563C 520.782,574.621 532.948,585.121 546,594.5C 546.265,596.163 545.765,597.663 544.5,599C 549.027,601.543 552.194,605.376 554,610.5C 565.459,638.3 560.959,663.134 540.5,685C 534.687,690.075 528.354,694.408 521.5,698C 505.454,705.563 492.62,702.063 483,687.5C 480.383,682.817 478.883,677.817 478.5,672.5 Z"/></g>
<g><path style="opacity:1" fill="#1a1a1a" d="M 341.5,626.5 C 340.957,626.56 340.624,626.893 340.5,627.5C 342.415,637.065 343.749,646.732 344.5,656.5C 344.66,659.696 343.66,662.363 341.5,664.5C 336.277,662.889 331.277,660.723 326.5,658C 319.953,652.954 314.286,647.12 309.5,640.5C 307.682,644.136 305.849,647.802 304,651.5C 301.757,653.282 299.257,653.782 296.5,653C 288.502,649.673 284.835,643.673 285.5,635C 285.51,621.304 289.344,608.804 297,597.5C 303.059,590.276 309.559,583.609 316.5,577.5C 326.26,575.198 334.26,577.864 340.5,585.5C 341.079,580.029 342.246,574.696 344,569.5C 347.819,568.73 351.653,569.063 355.5,570.5C 348.17,588.493 343.503,607.16 341.5,626.5 Z"/></g>
<g><path style="opacity:1" fill="#d6d4d4" d="M 360.5,674.5 C 365.51,683.351 371.51,691.517 378.5,699C 384.877,703.189 391.544,706.855 398.5,710C 417.397,716.636 424.897,710.136 421,690.5C 413.14,671.699 409.307,652.032 409.5,631.5C 398.974,626.785 387.974,624.118 376.5,623.5C 367.747,622.705 360.081,625.039 353.5,630.5C 350.807,627.803 348.473,624.803 346.5,621.5C 349.911,604.187 354.411,587.187 360,570.5C 364.748,569.365 369.581,569.198 374.5,570C 381.807,570.95 389.14,571.617 396.5,572C 412.113,596.047 427.113,620.547 441.5,645.5C 435.945,660.017 436.445,674.35 443,688.5C 450.196,696.084 459.03,698.917 469.5,697C 472.713,696.394 475.713,695.227 478.5,693.5C 479.748,694.04 480.915,694.707 482,695.5C 480.68,711.111 480.346,726.777 481,742.5C 481.518,749.13 482.685,755.63 484.5,762C 484.095,762.945 483.428,763.612 482.5,764C 447.431,774.811 415.097,769.477 385.5,748C 370.855,738.357 359.355,725.857 351,710.5C 348.215,702.028 346.382,693.361 345.5,684.5C 351.705,682.903 356.705,679.569 360.5,674.5 Z"/></g>
<g><path style="opacity:1" fill="#141414" d="M 316.5,577.5 C 309.559,583.609 303.059,590.276 297,597.5C 289.344,608.804 285.51,621.304 285.5,635C 284.835,643.673 288.502,649.673 296.5,653C 299.257,653.782 301.757,653.282 304,651.5C 305.849,647.802 307.682,644.136 309.5,640.5C 314.286,647.12 319.953,652.954 326.5,658C 331.277,660.723 336.277,662.889 341.5,664.5C 343.66,662.363 344.66,659.696 344.5,656.5C 343.749,646.732 342.415,637.065 340.5,627.5C 340.624,626.893 340.957,626.56 341.5,626.5C 351.199,635.23 356.699,646.23 358,659.5C 359.809,668.085 356.976,674.585 349.5,679C 336.43,684.976 325.264,682.476 316,671.5C 315.5,670 315,668.5 314.5,667C 316.52,664.379 316.853,661.545 315.5,658.5C 312.756,662.751 309.422,666.585 305.5,670C 299.786,671.57 294.12,671.237 288.5,669C 276.97,657.72 273.47,644.22 278,628.5C 282.284,608.737 292.45,592.904 308.5,581C 310.818,579.007 313.484,577.841 316.5,577.5 Z"/></g>
<g><path style="opacity:1" fill="#1a1a1a" d="M 478.5,672.5 C 478.817,669.428 478.484,666.428 477.5,663.5C 474.915,671.11 474.915,678.777 477.5,686.5C 477.124,688.383 476.124,689.883 474.5,691C 467.964,693.968 461.297,694.301 454.5,692C 446.932,689.671 443.099,684.504 443,676.5C 438.427,654.149 446.26,637.982 466.5,628C 469.207,627.605 471.873,627.105 474.5,626.5C 477.416,626.107 480.083,625.107 482.5,623.5C 480.547,618.978 479.213,614.311 478.5,609.5C 477.54,601.691 480.873,598.024 488.5,598.5C 507.691,599.846 523.858,607.513 537,621.5C 540.657,627.305 542.824,633.638 543.5,640.5C 541.412,659.858 532.745,675.358 517.5,687C 514.134,688.879 510.8,688.879 507.5,687C 510.142,681.772 512.476,676.438 514.5,671C 513.5,670.333 512.5,670.333 511.5,671C 509.399,673.77 506.732,675.77 503.5,677C 494.205,679.94 485.872,678.44 478.5,672.5 Z"/></g>
<g><path style="opacity:1" fill="#1a1a1a" d="M 598.5,698.5 C 597.912,721.899 590.746,742.899 577,761.5C 565.289,772.94 551.456,780.607 535.5,784.5C 518.038,781.872 507.538,771.872 504,754.5C 503.302,747.265 502.468,740.098 501.5,733C 502.126,732.25 502.626,731.416 503,730.5C 508.809,736.106 515.809,738.772 524,738.5C 531.939,738.279 538.772,735.446 544.5,730C 552.225,722.272 558.391,713.439 563,703.5C 563.794,700.529 564.461,697.529 565,694.5C 565.418,681.971 566.251,669.471 567.5,657C 567.12,651.981 566.454,647.148 565.5,642.5C 564.922,628.765 561.588,615.765 555.5,603.5C 556.002,602.479 556.668,602.312 557.5,603C 571.596,617.015 581.763,633.515 588,652.5C 593.227,667.473 596.727,682.806 598.5,698.5 Z"/></g>
<g><path style="opacity:1" fill="#e6e6e6" d="M 360.5,674.5 C 363.083,665.193 362.917,655.859 360,646.5C 358.097,641.032 355.93,635.699 353.5,630.5C 360.081,625.039 367.747,622.705 376.5,623.5C 387.974,624.118 398.974,626.785 409.5,631.5C 409.307,652.032 413.14,671.699 421,690.5C 424.897,710.136 417.397,716.636 398.5,710C 391.544,706.855 384.877,703.189 378.5,699C 371.51,691.517 365.51,683.351 360.5,674.5 Z"/></g>
<g><path style="opacity:1" fill="#141414" d="M 565.5,642.5 C 566.454,647.148 567.12,651.981 567.5,657C 566.251,669.471 565.418,681.971 565,694.5C 564.461,697.529 563.794,700.529 563,703.5C 558.391,713.439 552.225,722.272 544.5,730C 538.772,735.446 531.939,738.279 524,738.5C 515.809,738.772 508.809,736.106 503,730.5C 502.626,731.416 502.126,732.25 501.5,733C 502.468,740.098 503.302,747.265 504,754.5C 507.538,771.872 518.038,781.872 535.5,784.5C 551.456,780.607 565.289,772.94 577,761.5C 590.746,742.899 597.912,721.899 598.5,698.5C 602.933,721.449 598.766,742.782 586,762.5C 585.175,764.701 585.675,766.534 587.5,768C 598.604,767.364 607.771,771.197 615,779.5C 618.98,786.624 623.814,793.124 629.5,799C 632.661,800.413 635.661,802.08 638.5,804C 634.952,805.941 631.286,807.607 627.5,809C 619.193,809.999 610.86,810.832 602.5,811.5C 601.423,814.474 601.423,817.474 602.5,820.5C 582.318,821.048 562.318,819.548 542.5,816C 513.218,805.719 494.718,785.552 487,755.5C 483.667,736.833 483.667,718.167 487,699.5C 491.793,704.268 497.627,706.601 504.5,706.5C 516.071,705.922 526.405,702.088 535.5,695C 552.137,681.903 561.637,664.736 564,643.5C 564.383,642.944 564.883,642.611 565.5,642.5 Z"/></g>
<g><path style="opacity:1" fill="#131313" d="M 350.5,718.5 C 349.043,720.242 347.876,722.242 347,724.5C 338.283,720.644 330.616,715.311 324,708.5C 322.417,720.502 325.084,731.502 332,741.5C 338.772,748.117 345.939,754.117 353.5,759.5C 338.303,758.317 327.136,750.984 320,737.5C 312.742,718.114 311.742,698.447 317,678.5C 323.898,685.032 332.065,687.698 341.5,686.5C 342.023,697.933 345.023,708.6 350.5,718.5 Z"/></g>
<g><path style="opacity:1" fill="#1a1a1a" d="M 350.5,718.5 C 353.904,722.965 357.071,727.631 360,732.5C 365.289,737.867 370.789,742.867 376.5,747.5C 378.142,754.451 381.142,760.785 385.5,766.5C 382.554,767.655 379.554,767.821 376.5,767C 370.378,765.471 364.378,763.638 358.5,761.5C 356.95,760.559 355.284,759.893 353.5,759.5C 345.939,754.117 338.772,748.117 332,741.5C 325.084,731.502 322.417,720.502 324,708.5C 330.616,715.311 338.283,720.644 347,724.5C 347.876,722.242 349.043,720.242 350.5,718.5 Z"/></g>
<g><path style="opacity:1" fill="#141414" d="M 376.5,747.5 C 388.389,755.614 401.056,762.447 414.5,768C 415.749,770.21 415.582,772.376 414,774.5C 406.476,785.682 396.31,793.515 383.5,798C 375.218,799.923 366.885,801.59 358.5,803C 353.761,803.726 349.095,803.393 344.5,802C 346.809,799.513 349.476,797.513 352.5,796C 356.633,790.866 361.133,786.032 366,781.5C 366.612,779.763 365.946,778.763 364,778.5C 361.71,779.724 359.544,781.057 357.5,782.5C 358.172,779.658 359.506,777.158 361.5,775C 351.161,771.609 340.828,768.109 330.5,764.5C 331.932,762.673 333.599,761.006 335.5,759.5C 342.062,762.14 348.729,764.474 355.5,766.5C 356.442,766.392 357.275,766.059 358,765.5C 357.645,764.041 357.811,762.707 358.5,761.5C 364.378,763.638 370.378,765.471 376.5,767C 379.554,767.821 382.554,767.655 385.5,766.5C 381.142,760.785 378.142,754.451 376.5,747.5 Z"/></g>
<g><path style="opacity:1" fill="#1a1a1a" d="M 330.5,764.5 C 340.828,768.109 351.161,771.609 361.5,775C 359.506,777.158 358.172,779.658 357.5,782.5C 346.393,790.126 334.06,792.626 320.5,790C 315.177,788.923 310.677,786.423 307,782.5C 305.504,780.55 305.337,778.55 306.5,776.5C 315.084,773.541 323.084,769.541 330.5,764.5 Z"/></g>
<g><path style="opacity:1" fill="#1a1a1a" d="M 578.5,780.5 C 593.089,778.218 605.255,782.552 615,793.5C 615.688,794.332 615.521,794.998 614.5,795.5C 607.334,800.602 599.334,802.935 590.5,802.5C 590.692,805.601 591.358,808.601 592.5,811.5C 587.593,811.932 582.926,810.765 578.5,808C 572.243,803.287 566.076,798.454 560,793.5C 558.148,790.653 558.648,788.153 561.5,786C 567.137,783.682 572.803,781.849 578.5,780.5 Z"/></g>

        
<g><path style="opacity:0.99" fill="#0d0d0c" d="M 491.5,399.5 C 488.373,390.073 487.207,380.406 488,370.5C 493.707,351.6 504.873,336.767 521.5,326C 529.79,320.847 538.79,318.014 548.5,317.5C 553.844,317.666 559.177,317.499 564.5,317C 563.956,316.283 563.289,315.783 562.5,315.5C 543.882,300.011 522.382,291.678 498,290.5C 490.519,289.916 483.352,291.082 476.5,294C 467.781,294.352 459.781,297.019 452.5,302C 448.062,306.439 443.062,310.106 437.5,313C 426.246,324.92 417.412,338.42 411,353.5C 410.725,371 417.225,385.5 430.5,397C 436.108,400.276 441.442,403.943 446.5,408C 453.054,411.537 460.054,413.37 467.5,413.5C 461.67,418.019 455.336,418.686 448.5,415.5C 448.027,414.094 447.027,413.427 445.5,413.5C 443.46,411.823 441.46,410.156 439.5,408.5C 439.027,407.094 438.027,406.427 436.5,406.5C 436.027,405.094 435.027,404.427 433.5,404.5C 431.566,403.89 429.899,402.89 428.5,401.5C 428.027,400.094 427.027,399.427 425.5,399.5C 418.88,393.601 413.713,386.601 410,378.5C 406.877,399.48 395.71,405.313 376.5,396C 373.568,392.395 370.068,389.561 366,387.5C 362.461,389.2 359.794,391.867 358,395.5C 348.298,401.028 339.298,400.028 331,392.5C 329.096,389.077 328.263,385.41 328.5,381.5C 328.34,379.847 327.674,378.514 326.5,377.5C 325.596,376.791 325.263,375.791 325.5,374.5C 325.785,372.712 325.452,371.045 324.5,369.5C 323.614,370.325 323.281,371.325 323.5,372.5C 319.576,387.848 311.909,401.015 300.5,412C 297.294,414.034 293.96,415.867 290.5,417.5C 287.941,416.392 285.608,415.059 283.5,413.5C 293.172,410.41 301.005,404.744 307,396.5C 313.986,386.753 318.486,375.92 320.5,364C 319.275,355.717 315.775,348.55 310,342.5C 305.854,331.015 298.687,321.848 288.5,315C 280.952,312.433 273.619,309.433 266.5,306C 242.475,304.844 224.809,314.844 213.5,336C 239.356,338.522 258.189,351.355 270,374.5C 276.027,385.384 278.193,397.051 276.5,409.5C 271.718,406.601 267.051,403.434 262.5,400C 244.46,389.359 225.127,385.859 204.5,389.5C 199.943,380.073 198.443,370.073 200,359.5C 201.081,348.03 204.914,337.697 211.5,328.5C 212.906,328.027 213.573,327.027 213.5,325.5C 213.783,305.751 221.117,288.917 235.5,275C 242.164,270.005 249.497,266.338 257.5,264C 268.382,263.052 277.716,266.386 285.5,274C 309.981,294.926 323.981,321.426 327.5,353.5C 336.02,355.759 344.353,358.592 352.5,362C 357.986,362.927 363.486,363.76 369,364.5C 376.968,362.671 384.968,361.337 393,360.5C 395.093,361.246 397.093,361.579 399,361.5C 395.196,337.601 398.196,314.601 408,292.5C 410.985,287.689 414.485,283.356 418.5,279.5C 419.906,279.027 420.573,278.027 420.5,276.5C 431.962,266.925 444.629,259.091 458.5,253C 510.456,235.392 544.289,252.559 560,304.5C 580.639,319.759 586.305,339.425 577,363.5C 574.366,369.272 570.866,374.439 566.5,379C 540.258,381.247 515.258,388.08 491.5,399.5 Z"/></g>
<g><path style="opacity:1" fill="#1b1b1b" d="M 491.5,251.5 C 512.005,251.336 528.505,259.336 541,275.5C 545.694,283.554 549.861,291.888 553.5,300.5C 553.167,300.833 552.833,301.167 552.5,301.5C 517.98,279.718 482.98,278.885 447.5,299C 444.215,302.973 440.215,305.973 435.5,308C 425.414,318.343 416.914,329.843 410,342.5C 406.414,349.494 405.08,356.827 406,364.5C 405.255,362.797 404.421,361.13 403.5,359.5C 403.063,345.559 403.563,331.559 405,317.5C 407.148,302.37 413.648,289.537 424.5,279C 432.5,273.667 440.5,268.333 448.5,263C 462.09,255.855 476.423,252.021 491.5,251.5 Z"/></g>
<g><path style="opacity:1" fill="#1b1b1b" d="M 256.5,269.5 C 263.905,268.705 270.571,270.539 276.5,275C 296.955,290.782 311.122,310.949 319,335.5C 320.328,340.457 320.994,345.457 321,350.5C 316.333,341.833 311.667,333.167 307,324.5C 302.468,319.633 297.634,315.133 292.5,311C 282.442,305.884 271.942,302.051 261,299.5C 244.754,300.462 231.087,306.795 220,318.5C 222.473,294.866 234.64,278.532 256.5,269.5 Z"/></g>
<g><path style="opacity:0.529" fill="#82827b" d="M 420.5,276.5 C 420.573,278.027 419.906,279.027 418.5,279.5C 418.427,277.973 419.094,276.973 420.5,276.5 Z"/></g>
<g><path style="opacity:0.998" fill="#f5f4e7" d="M 562.5,315.5 C 557.833,316.167 553.167,316.833 548.5,317.5C 538.79,318.014 529.79,320.847 521.5,326C 504.873,336.767 493.707,351.6 488,370.5C 487.207,380.406 488.373,390.073 491.5,399.5C 483.472,404.178 475.472,408.845 467.5,413.5C 460.054,413.37 453.054,411.537 446.5,408C 441.442,403.943 436.108,400.276 430.5,397C 417.225,385.5 410.725,371 411,353.5C 417.412,338.42 426.246,324.92 437.5,313C 443.062,310.106 448.062,306.439 452.5,302C 459.781,297.019 467.781,294.352 476.5,294C 483.352,291.082 490.519,289.916 498,290.5C 522.382,291.678 543.882,300.011 562.5,315.5 Z"/></g>
<g><path style="opacity:0.999" fill="#f5f4e7" d="M 283.5,413.5 C 280.669,412.921 278.336,411.588 276.5,409.5C 278.193,397.051 276.027,385.384 270,374.5C 258.189,351.355 239.356,338.522 213.5,336C 224.809,314.844 242.475,304.844 266.5,306C 273.619,309.433 280.952,312.433 288.5,315C 298.687,321.848 305.854,331.015 310,342.5C 315.775,348.55 319.275,355.717 320.5,364C 318.486,375.92 313.986,386.753 307,396.5C 301.005,404.744 293.172,410.41 283.5,413.5 Z"/></g>
<g><path style="opacity:1" fill="#6e6e68" d="M 562.5,315.5 C 563.289,315.783 563.956,316.283 564.5,317C 559.177,317.499 553.844,317.666 548.5,317.5C 553.167,316.833 557.833,316.167 562.5,315.5 Z"/></g>
<g><path style="opacity:0.506" fill="#808079" d="M 213.5,325.5 C 213.573,327.027 212.906,328.027 211.5,328.5C 211.427,326.973 212.094,325.973 213.5,325.5 Z"/></g>
<g><path style="opacity:1" fill="#1b1b1b" d="M 327.5,359.5 C 338.316,363.238 349.316,366.404 360.5,369C 365.833,369.667 371.167,369.667 376.5,369C 383.809,367.503 391.143,366.503 398.5,366C 404.726,372.015 406.226,379.182 403,387.5C 399.871,394.148 394.704,396.648 387.5,395C 381.182,393.689 376.182,390.356 372.5,385C 367.996,381.538 363.663,381.704 359.5,385.5C 357.294,388.203 354.961,390.703 352.5,393C 348.5,393.667 344.5,393.667 340.5,393C 338.376,391.878 336.543,390.378 335,388.5C 332.025,378.933 329.525,369.266 327.5,359.5 Z"/></g>
<g><path style="opacity:1" fill="#5c5c57" d="M 325.5,374.5 C 324.833,373.833 324.167,373.167 323.5,372.5C 323.281,371.325 323.614,370.325 324.5,369.5C 325.452,371.045 325.785,372.712 325.5,374.5 Z"/></g>
<g><path style="opacity:0.4" fill="#97968e" d="M 326.5,377.5 C 327.674,378.514 328.34,379.847 328.5,381.5C 326.896,380.713 326.229,379.38 326.5,377.5 Z"/></g>
<g><path style="opacity:0.012" fill="#000000" d="M 549.5,383.5 C 550.833,384.167 550.833,384.167 549.5,383.5 Z"/></g>
<g><path style="opacity:0.02" fill="#000000" d="M 545.5,384.5 C 546.833,385.167 546.833,385.167 545.5,384.5 Z"/></g>
<g><path style="opacity:0.022" fill="#000000" d="M 541.5,386.5 C 541.897,385.475 542.563,385.308 543.5,386C 542.906,386.464 542.239,386.631 541.5,386.5 Z"/></g>
<g><path style="opacity:0.018" fill="#000000" d="M 538.5,387.5 C 538.897,386.475 539.563,386.308 540.5,387C 539.906,387.464 539.239,387.631 538.5,387.5 Z"/></g>
<g><path style="opacity:0.016" fill="#000000" d="M 534.5,388.5 C 534.897,387.475 535.563,387.308 536.5,388C 535.906,388.464 535.239,388.631 534.5,388.5 Z"/></g>
<g><path style="opacity:0.012" fill="#000000" d="M 530.5,389.5 C 530.897,388.475 531.563,388.308 532.5,389C 531.906,389.464 531.239,389.631 530.5,389.5 Z"/></g>
<g><path style="opacity:0.04" fill="#000000" d="M 226.5,391.5 C 228.103,391.312 229.437,391.812 230.5,393C 228.167,393.667 225.833,393.667 223.5,393C 224.737,392.768 225.737,392.268 226.5,391.5 Z"/></g>
<g><path style="opacity:0.042" fill="#000000" d="M 210.5,393.5 C 211.946,392.387 213.613,392.22 215.5,393C 213.866,393.494 212.199,393.66 210.5,393.5 Z"/></g>
<g><path style="opacity:0.016" fill="#000000" d="M 233.5,392.5 C 234.833,393.167 234.833,393.167 233.5,392.5 Z"/></g>
<g><path style="opacity:0.012" fill="#000000" d="M 236.5,394.5 C 236.897,393.475 237.563,393.308 238.5,394C 237.906,394.464 237.239,394.631 236.5,394.5 Z"/></g>
<g><path style="opacity:0.016" fill="#000000" d="M 239.5,395.5 C 239.897,394.475 240.563,394.308 241.5,395C 240.906,395.464 240.239,395.631 239.5,395.5 Z"/></g>
<g><path style="opacity:0.012" fill="#000000" d="M 242.5,395.5 C 243.833,396.167 243.833,396.167 242.5,395.5 Z"/></g>
<g><path style="opacity:0.016" fill="#000000" d="M 245.5,396.5 C 246.833,397.167 246.833,397.167 245.5,396.5 Z"/></g>
<g><path style="opacity:0.012" fill="#000000" d="M 247.5,397.5 C 248.833,398.167 248.833,398.167 247.5,397.5 Z"/></g>
<g><path style="opacity:0.02" fill="#000000" d="M 250.5,398.5 C 251.833,399.167 251.833,399.167 250.5,398.5 Z"/></g>
<g><path style="opacity:0.02" fill="#000000" d="M 252.5,399.5 C 253.833,400.167 253.833,400.167 252.5,399.5 Z"/></g>
<g><path style="opacity:0.012" fill="#000000" d="M 254.5,400.5 C 255.833,401.167 255.833,401.167 254.5,400.5 Z"/></g>
<g><path style="opacity:0.529" fill="#7c7b75" d="M 425.5,399.5 C 427.027,399.427 428.027,400.094 428.5,401.5C 426.973,401.573 425.973,400.906 425.5,399.5 Z"/></g>
<g><path style="opacity:0.529" fill="#7c7b75" d="M 433.5,404.5 C 435.027,404.427 436.027,405.094 436.5,406.5C 434.973,406.573 433.973,405.906 433.5,404.5 Z"/></g>
<g><path style="opacity:0.545" fill="#7a7a73" d="M 436.5,406.5 C 438.027,406.427 439.027,407.094 439.5,408.5C 437.973,408.573 436.973,407.906 436.5,406.5 Z"/></g>
<g><path style="opacity:0.529" fill="#7f7f78" d="M 445.5,413.5 C 447.027,413.427 448.027,414.094 448.5,415.5C 446.973,415.573 445.973,414.906 445.5,413.5 Z"/></g>

        
<g><path style="opacity:0.993" fill="#1d1d1c" d="M 533.5,373.5 C 533.427,375.027 534.094,376.027 535.5,376.5C 536.421,377.981 537.588,379.314 539,380.5C 546.114,378.049 553.447,377.049 561,377.5C 571.496,377.782 581.829,379.115 592,381.5C 596.31,378.951 600.81,376.785 605.5,375C 607.124,373.883 608.124,372.383 608.5,370.5C 607.169,365.662 605.169,361.162 602.5,357C 598.071,354.898 593.905,352.398 590,349.5C 589.652,347.077 590.818,346.077 593.5,346.5C 609.841,350.195 616.341,360.195 613,376.5C 603.38,385.408 592.213,388.574 579.5,386C 560.501,380.976 542.501,383.143 525.5,392.5C 525.631,391.624 525.298,390.957 524.5,390.5C 523.261,390.942 522.261,391.609 521.5,392.5C 520.791,393.404 519.791,393.737 518.5,393.5C 514.838,393.723 511.505,394.723 508.5,396.5C 505.759,396.707 503.426,397.707 501.5,399.5C 501.158,400.338 500.492,400.672 499.5,400.5C 494.914,401.46 490.914,403.46 487.5,406.5C 487.158,407.338 486.492,407.672 485.5,407.5C 483.973,407.427 482.973,408.094 482.5,409.5C 474.4,414.478 466.067,419.312 457.5,424C 443.308,427.421 428.975,430.088 414.5,432C 407.568,441.695 402.068,452.195 398,463.5C 395.706,464.852 393.206,465.519 390.5,465.5C 382.205,463.808 373.871,462.308 365.5,461C 361.367,455.866 356.867,451.032 352,446.5C 349.027,442.026 345.86,437.693 342.5,433.5C 326.223,431.676 310.223,429.009 294.5,425.5C 296.933,424.452 296.933,423.786 294.5,423.5C 290.703,423.128 287.37,421.794 284.5,419.5C 281.485,417.326 278.151,415.659 274.5,414.5C 273.415,412.413 271.749,411.08 269.5,410.5C 268.508,410.672 267.842,410.338 267.5,409.5C 267.027,408.094 266.027,407.427 264.5,407.5C 246.393,392.864 225.893,388.198 203,393.5C 187.393,392.379 177.393,384.379 173,369.5C 171.522,361.889 171.188,354.222 172,346.5C 172.576,343.876 173.91,343.209 176,344.5C 175.322,355.382 177.322,365.715 182,375.5C 187.666,382.337 194.999,386.337 204,387.5C 211.838,386.851 219.672,386.184 227.5,385.5C 228.689,385.756 229.856,386.089 231,386.5C 235.355,381.808 239.355,376.808 243,371.5C 252.878,352.411 262.212,333.077 271,313.5C 272.667,312.167 274.333,312.167 276,313.5C 278.194,316.554 279.861,319.888 281,323.5C 287.817,352.886 289.65,382.552 286.5,412.5C 310.116,423.996 334.949,427.996 361,424.5C 392.623,428.793 423.79,426.627 454.5,418C 456.833,416.833 459.167,415.667 461.5,414.5C 462.664,408.193 462.831,401.859 462,395.5C 457.444,368.94 451.777,342.606 445,316.5C 444.347,314.436 443.18,312.769 441.5,311.5C 441.709,310.914 442.043,310.414 442.5,310C 447.572,309.249 452.572,309.582 457.5,311C 484.557,324.944 508.391,343.111 529,365.5C 530.765,368.032 532.265,370.699 533.5,373.5 Z"/></g>
<g><path style="opacity:1" fill="#f5f4e7" d="M 469.5,410.5 C 468.833,406.5 468.167,402.5 467.5,398.5C 463.802,370.345 457.802,342.678 449.5,315.5C 454.683,316.058 459.683,317.891 464.5,321C 474.66,328.247 484.994,335.247 495.5,342C 505.667,351.5 515.833,361 526,370.5C 528.305,374.304 530.805,377.97 533.5,381.5C 518.166,386.445 503.166,392.278 488.5,399C 482.111,402.856 475.778,406.689 469.5,410.5 Z"/></g>
<g><path style="opacity:1" fill="#f2f1e4" d="M 273.5,321.5 C 274.79,322.058 275.623,323.058 276,324.5C 282.555,352.81 284.721,381.476 282.5,410.5C 274.922,407.036 267.922,402.536 261.5,397C 253.654,393.663 245.654,390.83 237.5,388.5C 238.608,384.869 240.774,381.869 244,379.5C 247.919,373.33 251.586,366.997 255,360.5C 261.178,347.478 267.345,334.478 273.5,321.5 Z"/></g>
<g><path style="opacity:0.514" fill="#85857e" d="M 533.5,373.5 C 534.906,373.973 535.573,374.973 535.5,376.5C 534.094,376.027 533.427,375.027 533.5,373.5 Z"/></g>
<g><path style="opacity:0.024" fill="#cacabf" d="M 525.5,392.5 C 524.167,392.5 522.833,392.5 521.5,392.5C 522.261,391.609 523.261,390.942 524.5,390.5C 525.298,390.957 525.631,391.624 525.5,392.5 Z"/></g>
<g><path style="opacity:0.024" fill="#d6d5ca" d="M 518.5,393.5 C 515.495,395.277 512.162,396.277 508.5,396.5C 511.505,394.723 514.838,393.723 518.5,393.5 Z"/></g>
<g><path style="opacity:0.039" fill="#d2d1c6" d="M 508.5,396.5 C 506.574,398.293 504.241,399.293 501.5,399.5C 503.426,397.707 505.759,396.707 508.5,396.5 Z"/></g>
<g><path style="opacity:0.031" fill="#d8d7cc" d="M 499.5,400.5 C 495.818,403.008 491.818,405.008 487.5,406.5C 490.914,403.46 494.914,401.46 499.5,400.5 Z"/></g>
<g><path style="opacity:1" fill="#82817a" d="M 467.5,398.5 C 468.167,402.5 468.833,406.5 469.5,410.5C 469.44,411.043 469.107,411.376 468.5,411.5C 467.508,407.217 467.174,402.884 467.5,398.5 Z"/></g>
<g><path style="opacity:0.055" fill="#d1d0c5" d="M 264.5,407.5 C 266.027,407.427 267.027,408.094 267.5,409.5C 265.973,409.573 264.973,408.906 264.5,407.5 Z"/></g>
<g><path style="opacity:0.02" fill="#dfded2" d="M 485.5,407.5 C 485.027,408.906 484.027,409.573 482.5,409.5C 482.973,408.094 483.973,407.427 485.5,407.5 Z"/></g>
<g><path style="opacity:0.102" fill="#b9b8af" d="M 269.5,410.5 C 271.749,411.08 273.415,412.413 274.5,414.5C 272.251,413.92 270.585,412.587 269.5,410.5 Z"/></g>
<g><path style="opacity:0.039" fill="#d0d0c5" d="M 274.5,414.5 C 278.151,415.659 281.485,417.326 284.5,419.5C 280.58,418.873 277.247,417.207 274.5,414.5 Z"/></g>
<g><path style="opacity:0.031" fill="#d7d6cb" d="M 294.5,423.5 C 296.933,423.786 296.933,424.452 294.5,425.5C 293.494,425.062 293.494,424.396 294.5,423.5 Z"/></g>
<g><path style="opacity:1" fill="#f1f0e3" d="M 350.5,430.5 C 360.215,430.459 369.882,431.125 379.5,432.5C 389.146,431.411 398.812,431.245 408.5,432C 402.865,440.766 397.865,449.933 393.5,459.5C 392.833,459.833 392.167,460.167 391.5,460.5C 383.983,458.204 376.316,456.704 368.5,456C 361.627,448.795 355.127,441.295 349,433.5C 348.761,432.212 349.261,431.212 350.5,430.5 Z"/></g>

        
<g><path style="opacity:0.991" fill="#212120" d="M 344.5,175.5 C 351.144,185.439 357.311,195.772 363,206.5C 368.262,210.091 372.429,214.591 375.5,220C 373.738,228.307 368.572,232.141 360,231.5C 358.106,231.42 356.273,231.087 354.5,230.5C 344.08,219.095 338.414,205.595 337.5,190C 337.607,183.955 339.94,179.122 344.5,175.5 Z"/></g>
<g><path style="opacity:1" fill="#f0efe2" d="M 360.5,210.5 C 360.5,212.5 360.5,214.5 360.5,216.5C 357.315,216.98 354.481,216.314 352,214.5C 349.696,206.742 346.529,199.408 342.5,192.5C 342.192,190.076 342.526,187.743 343.5,185.5C 344.5,184.167 345.5,184.167 346.5,185.5C 350.925,194.022 355.592,202.356 360.5,210.5 Z"/></g>
<g><path style="opacity:0.992" fill="#1c1c1b" d="M 392.5,187.5 C 394.39,187.297 395.89,187.963 397,189.5C 401.387,198.534 407.221,206.368 414.5,213C 398.563,220.196 390.563,215.029 390.5,197.5C 390.253,193.865 390.92,190.532 392.5,187.5 Z"/></g>
<g><path style="opacity:1" fill="#d9d8cb" d="M 342.5,192.5 C 346.529,199.408 349.696,206.742 352,214.5C 354.481,216.314 357.315,216.98 360.5,216.5C 360.5,214.5 360.5,212.5 360.5,210.5C 374.506,219.653 373.172,225.153 356.5,227C 348.282,216.986 343.616,205.486 342.5,192.5 Z"/></g>
<g><path style="opacity:1" fill="#cfcec3" d="M 394.5,196.5 C 395.496,196.414 396.329,196.748 397,197.5C 399.215,202.1 402.048,206.266 405.5,210C 402.007,211.004 398.841,210.504 396,208.5C 394.734,204.605 394.234,200.605 394.5,196.5 Z"/></g>
<g><path style="opacity:0.992" fill="#1e1e1c" d="M 311.5,207.5 C 312.376,207.369 313.043,207.702 313.5,208.5C 320.836,223.674 330.503,237.174 342.5,249C 345.722,251.888 349.222,254.388 353,256.5C 350.787,270.352 342.62,276.185 328.5,274C 313.783,259.373 306.616,241.539 307,220.5C 307.739,215.863 309.239,211.529 311.5,207.5 Z"/></g>
<g><path style="opacity:1" fill="#f0efe3" d="M 338.5,252.5 C 339.171,253.847 339.171,255.014 338.5,256C 334.694,259.158 330.36,260.492 325.5,260C 324.529,258.519 323.196,257.685 321.5,257.5C 316.86,248.407 313.694,238.74 312,228.5C 311.11,224.618 311.61,220.952 313.5,217.5C 319.918,230.577 328.252,242.244 338.5,252.5 Z"/></g>
<g><path style="opacity:1" fill="#d9d8cb" d="M 338.5,252.5 C 341.767,254.427 344.767,256.761 347.5,259.5C 343.949,267.111 337.949,270.277 329.5,269C 326.223,265.563 323.557,261.729 321.5,257.5C 323.196,257.685 324.529,258.519 325.5,260C 330.36,260.492 334.694,259.158 338.5,256C 339.171,255.014 339.171,253.847 338.5,252.5 Z"/></g>

    </svg>
