<?xml version="1.0" encoding="UTF-8"?>
<!DOCTYPE svg PUBLIC "-//W3C//DTD SVG 1.1//EN" "http://www.w3.org/Graphics/SVG/1.1/DTD/svg11.dtd">
<svg xmlns="http://www.w3.org/2000/svg" version="1.1" width="862px" height="862px" style="shape-rendering:geometricPrecision; text-rendering:geometricPrecision; image-rendering:optimizeQuality; fill-rule:evenodd; clip-rule:evenodd" xmlns:xlink="http://www.w3.org/1999/xlink">
<g><path style="opacity:0.998" fill="#181c1e" d="M 567.5,264.5 C 567.427,266.027 568.094,267.027 569.5,267.5C 570.833,268.167 571.833,269.167 572.5,270.5C 572.427,272.027 573.094,273.027 574.5,273.5C 576.786,276.463 578.619,279.796 580,283.5C 581.333,288.167 582.667,292.833 584,297.5C 600.968,293.905 616.801,296.738 631.5,306C 657.957,323.456 680.123,345.29 698,371.5C 700.529,375.926 702.362,380.592 703.5,385.5C 703.41,388.152 704.076,390.485 705.5,392.5C 706.37,394.032 706.036,395.532 704.5,397C 701.814,398.368 699.147,399.701 696.5,401C 687.337,403.06 678.337,403.893 669.5,403.5C 671.81,407.254 673.643,411.254 675,415.5C 676.619,423.927 678.619,432.26 681,440.5C 682.454,454.02 679.787,466.687 673,478.5C 663.749,491.086 652.582,501.586 639.5,510C 630.893,513.302 622.893,517.635 615.5,523C 597.029,529.157 579.029,536.491 561.5,545C 545.683,550.606 529.683,555.606 513.5,560C 521.167,567 528.833,574 536.5,581C 541.889,585.389 547.556,589.389 553.5,593C 559.667,598.5 565.833,604 572,609.5C 578.423,618.674 584.09,628.34 589,638.5C 598.788,663.109 604.621,688.609 606.5,715C 605.825,731.869 601.492,747.703 593.5,762.5C 592.711,762.783 592.044,763.283 591.5,764C 593.134,764.494 594.801,764.66 596.5,764.5C 603.201,764.682 609.201,766.849 614.5,771C 619.719,777.218 624.552,783.718 629,790.5C 633.064,794.786 637.897,797.952 643.5,800C 646.319,802.72 645.986,805.053 642.5,807C 635.644,812.007 627.978,814.507 619.5,814.5C 615.167,814.5 610.833,814.5 606.5,814.5C 606.263,815.791 606.596,816.791 607.5,817.5C 609.143,819.708 608.81,821.541 606.5,823C 599.093,824.492 591.593,825.325 584,825.5C 570.833,824.357 557.666,823.19 544.5,822C 528.753,817.882 515.253,810.049 504,798.5C 495.911,789.336 489.577,779.003 485,767.5C 473.056,772.575 460.556,774.908 447.5,774.5C 441.513,773.858 435.513,773.358 429.5,773C 427,772.625 424.667,771.792 422.5,770.5C 418.78,774.733 415.613,779.4 413,784.5C 396.732,800.487 377.065,808.487 354,808.5C 349.103,808.068 344.269,807.234 339.5,806C 337.709,805.585 336.376,804.585 335.5,803C 338.138,800.346 341.138,798.18 344.5,796.5C 345.973,795.928 347.307,795.095 348.5,794C 346.609,793.797 344.943,794.297 343.5,795.5C 334.515,796.911 325.515,796.744 316.5,795C 304.562,791.925 299.562,784.425 301.5,772.5C 312.272,769.781 321.939,764.947 330.5,758C 319.87,750.041 313.37,739.541 311,726.5C 307.602,710.123 307.769,693.789 311.5,677.5C 312.793,675.636 312.793,673.636 311.5,671.5C 310.893,671.624 310.56,671.957 310.5,672.5C 309.013,673.804 307.346,674.97 305.5,676C 298.059,677.01 291.059,675.843 284.5,672.5C 275.52,664.574 271.187,654.574 271.5,642.5C 272.908,618.525 282.242,598.358 299.5,582C 310.392,573.408 322.392,571.241 335.5,575.5C 336.947,576.885 337.947,576.552 338.5,574.5C 338.433,573.041 338.766,571.708 339.5,570.5C 340.757,569.377 340.424,568.711 338.5,568.5C 326.038,567.642 313.704,565.808 301.5,563C 279.858,557.675 258.525,551.341 237.5,544C 217.724,535.619 199.39,524.952 182.5,512C 179.629,509.297 176.962,506.464 174.5,503.5C 174.027,502.094 173.027,501.427 171.5,501.5C 155.808,488.291 146.475,471.458 143.5,451C 144.485,443.505 144.985,436.005 145,428.5C 139.772,431.396 134.272,432.062 128.5,430.5C 127.063,426.472 126.397,422.305 126.5,418C 128.512,388.142 139.012,361.642 158,338.5C 167.466,327.852 178.966,320.352 192.5,316C 198.537,315.303 204.537,315.47 210.5,316.5C 212.5,305.171 217.167,295.171 224.5,286.5C 225.906,286.027 226.573,285.027 226.5,283.5C 228.616,277.549 231.783,272.215 236,267.5C 246.355,255.578 258.188,245.412 271.5,237C 347.364,211.021 424.364,207.021 502.5,225C 512.956,228.227 522.956,232.56 532.5,238C 541.167,244.671 550.501,250.338 560.5,255C 562.476,258.463 564.81,261.63 567.5,264.5 Z"/></g>
<g><path style="opacity:1" fill="#01b5e8" d="M 587.5,310.5 C 586.895,306.028 588.561,303.028 592.5,301.5C 599.257,301.123 605.924,301.623 612.5,303C 623.41,307.12 633.41,312.787 642.5,320C 660.452,334.449 676.119,350.949 689.5,369.5C 691.221,387.94 682.888,395.44 664.5,392C 658.088,389.643 651.755,387.31 645.5,385C 647.667,386.5 649.833,388 652,389.5C 653.524,391.898 655.024,394.231 656.5,396.5C 659.07,399.917 661.903,403.25 665,406.5C 667.332,409.822 668.498,413.489 668.5,417.5C 664.859,445.281 652.859,468.781 632.5,488C 613.065,503.392 591.732,515.725 568.5,525C 543.342,532.276 518.342,539.943 493.5,548C 448.331,557.276 402.664,559.943 356.5,556C 345.966,553.533 335.3,551.866 324.5,551C 295.111,542.537 266.111,532.87 237.5,522C 215.351,512.1 195.018,499.434 176.5,484C 168.977,475.778 161.81,467.278 155,458.5C 151.984,451.485 150.817,444.152 151.5,436.5C 153.969,428.598 154.969,420.598 154.5,412.5C 153.817,412.863 153.15,413.196 152.5,413.5C 148.574,418.296 143.574,421.296 137.5,422.5C 135.199,422.016 133.199,421.016 131.5,419.5C 132.842,409.136 134.342,398.803 136,388.5C 140.728,378.044 145.728,367.711 151,357.5C 160.887,340.274 175.054,328.108 193.5,321C 200.189,320.622 206.856,320.622 213.5,321C 224.894,285.557 246.56,258.224 278.5,239C 326.456,224.714 375.456,218.047 425.5,219C 438.948,221.656 452.615,223.323 466.5,224C 488.8,226.156 509.8,232.49 529.5,243C 538.999,249.251 548.666,255.251 558.5,261C 569.705,272.243 576.538,285.743 579,301.5C 581.39,308.619 585.057,314.953 590,320.5C 589.506,317.164 588.672,313.831 587.5,310.5 Z"/></g>
<g><path style="opacity:0.725" fill="#81807a" d="M 567.5,264.5 C 568.906,264.973 569.573,265.973 569.5,267.5C 568.094,267.027 567.427,266.027 567.5,264.5 Z"/></g>
<g><path style="opacity:0.545" fill="#81807a" d="M 572.5,270.5 C 573.906,270.973 574.573,271.973 574.5,273.5C 573.094,273.027 572.427,272.027 572.5,270.5 Z"/></g>
<g><path style="opacity:0.486" fill="#82827b" d="M 226.5,283.5 C 226.573,285.027 225.906,286.027 224.5,286.5C 224.427,284.973 225.094,283.973 226.5,283.5 Z"/></g>
<g><path style="opacity:1" fill="#0c7aaa" d="M 592.5,301.5 C 588.561,303.028 586.895,306.028 587.5,310.5C 585.98,308.11 584.98,305.443 584.5,302.5C 587.127,301.908 589.794,301.575 592.5,301.5 Z"/></g>
<g><path style="opacity:1" fill="#070b0c" d="M 618.5,337.5 C 634.542,353.376 653.208,365.543 674.5,374C 676.954,375.74 678.454,377.907 679,380.5C 677.612,381.554 676.112,381.72 674.5,381C 660.835,373.503 647.502,365.503 634.5,357C 629.973,352.473 625.473,347.973 621,343.5C 619.441,341.783 618.608,339.783 618.5,337.5 Z"/></g>
<g><path style="opacity:1" fill="#077baf" d="M 689.5,369.5 C 695.393,376.932 698.726,385.265 699.5,394.5C 689.842,398.206 679.842,399.373 669.5,398C 665.09,396.449 660.757,394.949 656.5,393.5C 656.5,394.5 656.5,395.5 656.5,396.5C 655.024,394.231 653.524,391.898 652,389.5C 649.833,388 647.667,386.5 645.5,385C 651.755,387.31 658.088,389.643 664.5,392C 682.888,395.44 691.221,387.94 689.5,369.5 Z"/></g>
<g><path style="opacity:1" fill="#070d0e" d="M 147.5,382.5 C 148.947,383.134 149.613,384.301 149.5,386C 148.279,393.491 147.113,400.991 146,408.5C 144.374,411.128 142.374,413.461 140,415.5C 141.213,404.227 143.713,393.227 147.5,382.5 Z"/></g>
<g><path style="opacity:0.686" fill="#686862" d="M 703.5,385.5 C 704.924,387.515 705.59,389.848 705.5,392.5C 704.076,390.485 703.41,388.152 703.5,385.5 Z"/></g>
<g><path style="opacity:1" fill="#097aac" d="M 152.5,413.5 C 149.619,421.965 143.619,426.631 134.5,427.5C 132.016,425.464 131.016,422.798 131.5,419.5C 133.199,421.016 135.199,422.016 137.5,422.5C 143.574,421.296 148.574,418.296 152.5,413.5 Z"/></g>
<g><path style="opacity:1" fill="#067aae" d="M 668.5,417.5 C 669.586,417.62 670.253,418.287 670.5,419.5C 672.505,428.85 674.505,438.183 676.5,447.5C 675.399,460.687 670.732,472.354 662.5,482.5C 657.167,487.167 652.167,492.167 647.5,497.5C 636.091,503.71 624.757,510.21 613.5,517C 594.28,523.296 575.614,530.963 557.5,540C 535.004,547.711 512.337,554.377 489.5,560C 464.817,564.039 439.984,566.539 415,567.5C 386.539,565.485 358.039,563.985 329.5,563C 288.931,556.527 250.265,544.193 213.5,526C 189.832,512.998 170.665,495.165 156,472.5C 149.589,460.938 148.089,448.938 151.5,436.5C 150.817,444.152 151.984,451.485 155,458.5C 161.81,467.278 168.977,475.778 176.5,484C 195.018,499.434 215.351,512.1 237.5,522C 266.111,532.87 295.111,542.537 324.5,551C 335.3,551.866 345.966,553.533 356.5,556C 402.664,559.943 448.331,557.276 493.5,548C 518.342,539.943 543.342,532.276 568.5,525C 591.732,515.725 613.065,503.392 632.5,488C 652.859,468.781 664.859,445.281 668.5,417.5 Z"/></g>
<g><path style="opacity:1" fill="#022d41" d="M 662.5,482.5 C 658.5,488.5 653.5,493.5 647.5,497.5C 652.167,492.167 657.167,487.167 662.5,482.5 Z"/></g>
<g><path style="opacity:0.718" fill="#83837c" d="M 171.5,501.5 C 173.027,501.427 174.027,502.094 174.5,503.5C 172.973,503.573 171.973,502.906 171.5,501.5 Z"/></g>
<g><path style="opacity:1" fill="#0579ae" d="M 478.5,672.5 C 479.316,674.144 480.65,675.31 482.5,676C 493.813,680.752 503.813,678.919 512.5,670.5C 512.833,670.833 513.167,671.167 513.5,671.5C 512.03,674.308 511.197,677.308 511,680.5C 510.269,682.899 509.102,685.065 507.5,687C 510.833,689 514.167,689 517.5,687C 531.421,676.687 539.921,662.853 543,645.5C 543.947,633.228 539.78,623.061 530.5,615C 523.496,610.163 516.163,605.829 508.5,602C 499.47,598.897 490.303,598.064 481,599.5C 477.485,607.683 477.985,615.683 482.5,623.5C 479.407,625.309 476.074,626.309 472.5,626.5C 472.923,625.735 473.257,624.902 473.5,624C 472.021,618.752 471.021,613.419 470.5,608C 470.59,604.806 471.59,601.973 473.5,599.5C 473.167,598.5 472.5,597.833 471.5,597.5C 469.364,598.472 468.197,600.139 468,602.5C 467.081,608.966 467.581,615.299 469.5,621.5C 458.98,625.321 450.48,631.654 444,640.5C 430.726,618.269 417.226,596.269 403.5,574.5C 414.63,572.841 425.963,571.841 437.5,571.5C 461.059,569.586 484.392,566.42 507.5,562C 519.747,573.585 532.58,584.418 546,594.5C 546.333,596.047 545.833,597.38 544.5,598.5C 548.847,601.371 552.014,605.371 554,610.5C 566.153,641.08 559.987,667.247 535.5,689C 525.224,698.136 513.224,702.136 499.5,701C 492.521,698.359 487.021,693.859 483,687.5C 480.383,682.817 478.883,677.817 478.5,672.5 Z"/></g>
<g><path style="opacity:0.118" fill="#cacabf" d="M 338.5,568.5 C 340.424,568.711 340.757,569.377 339.5,570.5C 339.167,569.833 338.833,569.167 338.5,568.5 Z"/></g>
<g><path style="opacity:1" fill="#01b5e8" d="M 341.5,624.5 C 340.876,624.917 340.543,625.584 340.5,626.5C 342.326,636.254 343.659,646.087 344.5,656C 344.554,658.873 343.888,661.54 342.5,664C 336.839,663.182 331.506,661.182 326.5,658C 319.953,652.954 314.286,647.12 309.5,640.5C 307.682,644.136 305.849,647.802 304,651.5C 296.56,654.165 290.893,651.832 287,644.5C 283.432,623.869 288.766,605.869 303,590.5C 307.859,584.786 313.359,580.119 319.5,576.5C 326.113,576.151 332.113,577.818 337.5,581.5C 337.712,583.384 338.712,584.717 340.5,585.5C 341.487,582.232 341.82,578.898 341.5,575.5C 342.216,573.444 342.883,571.277 343.5,569C 347.541,568.838 351.541,569.338 355.5,570.5C 348.587,587.907 343.921,605.907 341.5,624.5 Z"/></g>
<g><path style="opacity:1" fill="#6db4c8" d="M 360.5,674.5 C 365.636,683.259 371.636,691.426 378.5,699C 384.877,703.189 391.544,706.855 398.5,710C 417.349,716.655 424.849,710.155 421,690.5C 413.133,671.662 409.299,651.996 409.5,631.5C 398.974,626.785 387.974,624.118 376.5,623.5C 367.747,622.705 360.081,625.039 353.5,630.5C 351.158,627.493 348.825,624.493 346.5,621.5C 349.487,606.708 352.987,592.041 357,577.5C 357.93,575.064 359.097,572.731 360.5,570.5C 364.795,569.339 369.129,569.172 373.5,570C 381.953,570.635 390.287,571.801 398.5,573.5C 412.833,597.5 427.167,621.5 441.5,645.5C 436.166,659.522 436.333,673.522 442,687.5C 449.259,695.897 458.426,699.063 469.5,697C 472.798,696.513 475.798,695.347 478.5,693.5C 480.786,693.96 482.119,695.293 482.5,697.5C 479.307,719.149 479.973,740.649 484.5,762C 484.167,762.5 483.833,763 483.5,763.5C 454.121,772.925 425.787,770.425 398.5,756C 385.188,748.027 373.021,738.527 362,727.5C 358.333,721.833 354.667,716.167 351,710.5C 348.591,702.618 346.757,694.618 345.5,686.5C 351.447,683.692 356.447,679.692 360.5,674.5 Z"/></g>
<g><path style="opacity:1" fill="#022c40" d="M 437.5,571.5 C 425.963,571.841 414.63,572.841 403.5,574.5C 402.596,573.791 402.263,572.791 402.5,571.5C 414.167,571.5 425.833,571.5 437.5,571.5 Z"/></g>
<g><path style="opacity:0.553" fill="#93928a" d="M 338.5,574.5 C 337.947,576.552 336.947,576.885 335.5,575.5C 336.609,575.443 337.609,575.11 338.5,574.5 Z"/></g>
<g><path style="opacity:1" fill="#0d677f" d="M 341.5,575.5 C 341.82,578.898 341.487,582.232 340.5,585.5C 338.712,584.717 337.712,583.384 337.5,581.5C 338.458,581.953 339.292,582.619 340,583.5C 340.183,580.635 340.683,577.969 341.5,575.5 Z"/></g>
<g><path style="opacity:1" fill="#0679ad" d="M 319.5,576.5 C 313.359,580.119 307.859,584.786 303,590.5C 288.766,605.869 283.432,623.869 287,644.5C 290.893,651.832 296.56,654.165 304,651.5C 305.849,647.802 307.682,644.136 309.5,640.5C 314.286,647.12 319.953,652.954 326.5,658C 331.506,661.182 336.839,663.182 342.5,664C 343.888,661.54 344.554,658.873 344.5,656C 343.659,646.087 342.326,636.254 340.5,626.5C 340.543,625.584 340.876,624.917 341.5,624.5C 343.341,627.86 345.841,630.86 349,633.5C 356.123,645.314 358.79,657.981 357,671.5C 347.754,683.243 336.587,685.409 323.5,678C 320.61,676.062 317.944,673.895 315.5,671.5C 315.325,667.14 315.325,662.806 315.5,658.5C 312.383,663.451 308.383,667.618 303.5,671C 299.152,671.238 294.819,670.905 290.5,670C 278.528,660.766 274.028,648.599 277,633.5C 280.837,610.292 292.337,592.125 311.5,579C 313.909,577.293 316.575,576.46 319.5,576.5 Z"/></g>
<g><path style="opacity:1" fill="#01b5e8" d="M 478.5,672.5 C 478.817,669.428 478.484,666.428 477.5,663.5C 476.056,665.608 475.39,667.941 475.5,670.5C 473.625,679.348 467.958,684.015 458.5,684.5C 455.512,684.283 452.845,683.283 450.5,681.5C 447.814,678.097 445.147,674.764 442.5,671.5C 440.031,647.715 450.031,632.715 472.5,626.5C 476.074,626.309 479.407,625.309 482.5,623.5C 477.985,615.683 477.485,607.683 481,599.5C 490.303,598.064 499.47,598.897 508.5,602C 516.163,605.829 523.496,610.163 530.5,615C 539.78,623.061 543.947,633.228 543,645.5C 539.921,662.853 531.421,676.687 517.5,687C 514.167,689 510.833,689 507.5,687C 509.102,685.065 510.269,682.899 511,680.5C 511.197,677.308 512.03,674.308 513.5,671.5C 513.167,671.167 512.833,670.833 512.5,670.5C 503.813,678.919 493.813,680.752 482.5,676C 480.65,675.31 479.316,674.144 478.5,672.5 Z"/></g>
<g><path style="opacity:1" fill="#01b5e8" d="M 598.5,692.5 C 599.585,721.745 590.251,746.912 570.5,768C 559.897,776.467 547.897,781.967 534.5,784.5C 524.3,783.481 516.133,778.815 510,770.5C 503.835,757.837 501.335,744.504 502.5,730.5C 515.107,740.264 528.107,740.764 541.5,732C 553.871,721.408 561.704,708.241 565,692.5C 565.414,680.636 566.247,668.803 567.5,657C 567.12,651.981 566.454,647.148 565.5,642.5C 565.039,628.701 561.705,615.701 555.5,603.5C 556.002,602.479 556.668,602.312 557.5,603C 571.596,617.015 581.763,633.515 588,652.5C 592.713,665.589 596.213,678.922 598.5,692.5 Z"/></g>
<g><path style="opacity:1" fill="#86cdeb" d="M 360.5,674.5 C 363.081,665.176 362.914,655.842 360,646.5C 358.097,641.032 355.93,635.699 353.5,630.5C 360.081,625.039 367.747,622.705 376.5,623.5C 387.974,624.118 398.974,626.785 409.5,631.5C 409.299,651.996 413.133,671.662 421,690.5C 424.849,710.155 417.349,716.655 398.5,710C 391.544,706.855 384.877,703.189 378.5,699C 371.636,691.426 365.636,683.259 360.5,674.5 Z"/></g>
<g><path style="opacity:1" fill="#0579ae" d="M 565.5,642.5 C 566.454,647.148 567.12,651.981 567.5,657C 566.247,668.803 565.414,680.636 565,692.5C 561.704,708.241 553.871,721.408 541.5,732C 528.107,740.764 515.107,740.264 502.5,730.5C 501.335,744.504 503.835,757.837 510,770.5C 516.133,778.815 524.3,783.481 534.5,784.5C 547.897,781.967 559.897,776.467 570.5,768C 590.251,746.912 599.585,721.745 598.5,692.5C 603.674,717.432 599.507,740.766 586,762.5C 585.175,764.701 585.675,766.534 587.5,768C 598.616,767.367 607.783,771.2 615,779.5C 618.98,786.624 623.814,793.124 629.5,799C 632.371,800.935 635.371,802.601 638.5,804C 634.952,805.941 631.286,807.607 627.5,809C 619.203,810.072 610.87,810.739 602.5,811C 601.427,814.112 601.427,817.279 602.5,820.5C 584.783,820.736 567.116,819.903 549.5,818C 516.675,809.175 495.842,788.342 487,755.5C 483.693,736.831 483.693,718.165 487,699.5C 491.793,704.268 497.627,706.601 504.5,706.5C 533.083,702.106 551.916,686.106 561,658.5C 562.256,653.552 563.256,648.552 564,643.5C 564.383,642.944 564.883,642.611 565.5,642.5 Z"/></g>
<g><path style="opacity:0.18" fill="#a3a29a" d="M 310.5,672.5 C 310.56,671.957 310.893,671.624 311.5,671.5C 312.793,673.636 312.793,675.636 311.5,677.5C 311.784,675.585 311.451,673.919 310.5,672.5 Z"/></g>
<g><path style="opacity:1" fill="#0679ad" d="M 475.5,670.5 C 475.435,676.617 475.935,682.617 477,688.5C 473.037,691.93 468.37,693.263 463,692.5C 452.011,693.17 445.344,688.17 443,677.5C 442.505,675.527 442.338,673.527 442.5,671.5C 445.147,674.764 447.814,678.097 450.5,681.5C 452.845,683.283 455.512,684.283 458.5,684.5C 467.958,684.015 473.625,679.348 475.5,670.5 Z"/></g>
<g><path style="opacity:1" fill="#0679ad" d="M 352.5,720.5 C 351.542,720.047 350.708,719.381 350,718.5C 349,720.5 348,722.5 347,724.5C 338.32,720.657 330.654,715.324 324,708.5C 322.417,720.502 325.084,731.502 332,741.5C 338.772,748.117 345.939,754.117 353.5,759.5C 344.664,759.444 336.997,756.444 330.5,750.5C 322.396,743.714 317.562,735.048 316,724.5C 312.459,709.051 312.792,693.718 317,678.5C 323.898,685.032 332.065,687.698 341.5,686.5C 342.041,694.666 343.541,702.666 346,710.5C 348.143,713.962 350.31,717.296 352.5,720.5 Z"/></g>
<g><path style="opacity:1" fill="#01b4e7" d="M 352.5,720.5 C 354.344,724.192 356.677,727.525 359.5,730.5C 361.833,734.833 365.167,738.167 369.5,740.5C 372.027,742.605 374.36,744.939 376.5,747.5C 378.637,754.608 381.971,761.108 386.5,767C 376.493,768.153 367.159,766.32 358.5,761.5C 356.95,760.559 355.284,759.893 353.5,759.5C 345.939,754.117 338.772,748.117 332,741.5C 325.084,731.502 322.417,720.502 324,708.5C 330.654,715.324 338.32,720.657 347,724.5C 348,722.5 349,720.5 350,718.5C 350.708,719.381 351.542,720.047 352.5,720.5 Z"/></g>
<g><path style="opacity:1" fill="#045267" d="M 359.5,730.5 C 363.167,733.5 366.5,736.833 369.5,740.5C 365.167,738.167 361.833,734.833 359.5,730.5 Z"/></g>
<g><path style="opacity:1" fill="#0679ae" d="M 376.5,747.5 C 382.599,751.083 388.599,754.917 394.5,759C 400.94,762.554 407.607,765.554 414.5,768C 415.554,769.388 415.72,770.888 415,772.5C 404.324,788.934 389.157,798.434 369.5,801C 361.218,803.53 352.885,803.864 344.5,802C 352.628,796.206 359.795,789.373 366,781.5C 366.612,779.763 365.946,778.763 364,778.5C 361.373,779.634 359.207,781.3 357.5,783.5C 358.547,780.404 359.88,777.404 361.5,774.5C 350.93,771.981 340.93,768.314 331.5,763.5C 332.479,761.855 333.812,760.521 335.5,759.5C 342.062,762.14 348.729,764.474 355.5,766.5C 356.442,766.392 357.275,766.059 358,765.5C 357.645,764.041 357.811,762.707 358.5,761.5C 367.159,766.32 376.493,768.153 386.5,767C 381.971,761.108 378.637,754.608 376.5,747.5 Z"/></g>
<g><path style="opacity:0.039" fill="#dad9cd" d="M 593.5,762.5 C 594.5,763.167 595.5,763.833 596.5,764.5C 594.801,764.66 593.134,764.494 591.5,764C 592.044,763.283 592.711,762.783 593.5,762.5 Z"/></g>
<g><path style="opacity:1" fill="#01b4e6" d="M 331.5,763.5 C 340.93,768.314 350.93,771.981 361.5,774.5C 359.88,777.404 358.547,780.404 357.5,783.5C 343.133,791.218 328.133,792.552 312.5,787.5C 311.089,785.086 309.089,783.419 306.5,782.5C 305.532,780.393 305.198,778.059 305.5,775.5C 315.177,773.661 323.843,769.661 331.5,763.5 Z"/></g>
<g><path style="opacity:1" fill="#01b4e7" d="M 577.5,780.5 C 592.957,777.906 605.623,782.573 615.5,794.5C 608.26,800.357 599.926,803.024 590.5,802.5C 590.911,805.553 591.577,808.553 592.5,811.5C 587.462,812.33 582.795,811.164 578.5,808C 571.727,803.194 565.227,798.028 559,792.5C 558.542,789.904 559.375,787.737 561.5,786C 566.846,783.83 572.179,781.997 577.5,780.5 Z"/></g>
<g><path style="opacity:1" fill="#086179" d="M 306.5,782.5 C 309.089,783.419 311.089,785.086 312.5,787.5C 309.911,786.581 307.911,784.914 306.5,782.5 Z"/></g>
<g><path style="opacity:0.165" fill="#b2b1a8" d="M 344.5,796.5 C 344.5,795.833 344.167,795.5 343.5,795.5C 344.943,794.297 346.609,793.797 348.5,794C 347.307,795.095 345.973,795.928 344.5,796.5 Z"/></g>
<g><path style="opacity:0.282" fill="#b1b0a7" d="M 619.5,814.5 C 615.232,814.869 611.232,815.869 607.5,817.5C 606.596,816.791 606.263,815.791 606.5,814.5C 610.833,814.5 615.167,814.5 619.5,814.5 Z"/></g>
</svg>
