<?xml version="1.0" encoding="UTF-8"?>
<!DOCTYPE svg PUBLIC "-//W3C//DTD SVG 1.1//EN" "http://www.w3.org/Graphics/SVG/1.1/DTD/svg11.dtd">
<svg xmlns="http://www.w3.org/2000/svg" version="1.1" width="862px" height="862px" style="shape-rendering:geometricPrecision; text-rendering:geometricPrecision; image-rendering:optimizeQuality; fill-rule:evenodd; clip-rule:evenodd" xmlns:xlink="http://www.w3.org/1999/xlink">
<g><path style="opacity:0.992" fill="#181417" d="M 560.5,379.5 C 564.387,375.727 566.72,371.06 567.5,365.5C 569.686,364.177 571.186,362.177 572,359.5C 578.954,340.152 574.454,323.985 558.5,311C 545.232,303.032 531.232,296.699 516.5,292C 506.207,290.529 495.873,290.196 485.5,291C 479.383,293.373 473.05,294.706 466.5,295C 461.341,297.412 456.341,300.079 451.5,303C 444.575,308.38 437.742,313.88 431,319.5C 423.646,329.539 417.313,340.205 412,351.5C 411.012,369.022 416.845,383.856 429.5,396C 434.651,398.996 439.651,402.162 444.5,405.5C 446.713,407.86 449.379,409.694 452.5,411C 459.011,412.032 465.344,411.532 471.5,409.5C 472.107,409.624 472.44,409.957 472.5,410.5C 469.227,413.144 465.56,415.311 461.5,417C 456.665,417.586 451.999,416.92 447.5,415C 440.357,408.927 432.69,403.594 424.5,399C 421.121,394.41 417.621,389.91 414,385.5C 412.441,383.783 411.608,381.783 411.5,379.5C 411.291,378.078 410.791,376.745 410,375.5C 409.505,377.473 409.338,379.473 409.5,381.5C 406.726,398.056 397.392,403.556 381.5,398C 377.252,395.757 373.586,392.757 370.5,389C 368.246,387.349 365.912,387.182 363.5,388.5C 358.442,397.689 350.775,400.856 340.5,398C 336.532,397.036 333.365,394.869 331,391.5C 328.383,383.698 326.716,375.698 326,367.5C 325.461,370.529 324.794,373.529 324,376.5C 317.405,391.893 308.238,405.393 296.5,417C 294.598,418.796 292.598,418.963 290.5,417.5C 293.117,412.886 296.117,408.553 299.5,404.5C 300.189,405.774 301.023,405.774 302,404.5C 307.333,395.833 312.667,387.167 318,378.5C 321.248,370.808 322.248,362.808 321,354.5C 313.81,339.274 303.643,326.441 290.5,316C 283.789,313.765 277.456,310.765 271.5,307C 246.755,303.29 227.921,312.123 215,333.5C 207.453,345.776 204.286,359.11 205.5,373.5C 205.294,376.495 205.96,379.162 207.5,381.5C 207.878,383.921 208.545,386.254 209.5,388.5C 208.116,389.801 206.616,389.801 205,388.5C 196.903,365.733 199.903,344.399 214,324.5C 214.811,302.71 223.644,285.21 240.5,272C 247.094,267.201 254.428,264.368 262.5,263.5C 267.334,263.944 272.001,265.11 276.5,267C 305.719,288.241 323.719,316.741 330.5,352.5C 330.821,354.048 331.821,354.715 333.5,354.5C 344.853,360.061 356.853,363.394 369.5,364.5C 379.284,361.745 389.284,360.245 399.5,360C 396.14,347.665 395.64,335.165 398,322.5C 400.262,313.712 402.929,305.046 406,296.5C 409.946,290.221 414.279,284.221 419,278.5C 434.232,264.13 452.065,254.297 472.5,249C 492.538,243.576 511.538,245.909 529.5,256C 538.534,261.893 545.367,269.726 550,279.5C 554.515,287.881 558.348,296.548 561.5,305.5C 584.461,325.683 587.628,348.683 571,374.5C 569.5,376 568,377.5 566.5,379C 564.527,379.495 562.527,379.662 560.5,379.5 Z"/></g>
<g><path style="opacity:1" fill="#6e1b68" d="M 529.5,262.5 C 532.167,265.833 535.167,268.833 538.5,271.5C 544.711,280.92 549.544,290.92 553,301.5C 524.317,282.89 493.817,279.39 461.5,291C 454.299,294.098 447.965,298.431 442.5,304C 436.129,307.365 430.629,311.865 426,317.5C 418.399,328.107 412.065,339.441 407,351.5C 406.457,356.243 406.457,360.91 407,365.5C 404.135,360.234 402.469,354.567 402,348.5C 400.813,331.241 403.479,314.574 410,298.5C 423.165,279.316 440.665,265.483 462.5,257C 485.869,247.939 508.203,249.772 529.5,262.5 Z"/></g>
<g><path style="opacity:1" fill="#341231" d="M 529.5,262.5 C 533.5,264.5 536.5,267.5 538.5,271.5C 535.167,268.833 532.167,265.833 529.5,262.5 Z"/></g>
<g><path style="opacity:1" fill="#6e1b68" d="M 254.5,269.5 C 261.221,268.751 267.554,269.918 273.5,273C 298.388,291.387 314.721,315.554 322.5,345.5C 321.5,345.5 320.5,345.5 319.5,345.5C 319.116,341.396 317.616,337.729 315,334.5C 309.501,328.025 304.001,321.525 298.5,315C 289.756,309.294 280.422,304.628 270.5,301C 255.52,298.908 241.52,301.908 228.5,310C 225.667,312.833 222.833,315.667 220,318.5C 219.333,316.167 219.333,313.833 220,311.5C 224.55,299.238 231.05,288.072 239.5,278C 245.21,276.153 250.21,273.319 254.5,269.5 Z"/></g>
<g><path style="opacity:1" fill="#f5f3e7" d="M 567.5,365.5 C 563.649,360.486 558.983,356.319 553.5,353C 543.606,346.886 533.272,341.552 522.5,337C 465.992,324.661 439.992,347.494 444.5,405.5C 439.651,402.162 434.651,398.996 429.5,396C 416.845,383.856 411.012,369.022 412,351.5C 417.313,340.205 423.646,329.539 431,319.5C 437.742,313.88 444.575,308.38 451.5,303C 456.341,300.079 461.341,297.412 466.5,295C 473.05,294.706 479.383,293.373 485.5,291C 495.873,290.196 506.207,290.529 516.5,292C 531.232,296.699 545.232,303.032 558.5,311C 574.454,323.985 578.954,340.152 572,359.5C 571.186,362.177 569.686,364.177 567.5,365.5 Z"/></g>
<g><path style="opacity:1" fill="#f4f3e6" d="M 299.5,404.5 C 302.394,391.294 300.228,378.96 293,367.5C 289.193,362.059 285.027,356.892 280.5,352C 271.732,343.889 261.398,340.889 249.5,343C 229.362,346.966 215.362,358.466 207.5,377.5C 206.833,376.167 206.167,374.833 205.5,373.5C 204.286,359.11 207.453,345.776 215,333.5C 227.921,312.123 246.755,303.29 271.5,307C 277.456,310.765 283.789,313.765 290.5,316C 303.643,326.441 313.81,339.274 321,354.5C 322.248,362.808 321.248,370.808 318,378.5C 312.667,387.167 307.333,395.833 302,404.5C 301.023,405.774 300.189,405.774 299.5,404.5 Z"/></g>
<g><path style="opacity:1" fill="#6f1c69" d="M 567.5,365.5 C 566.72,371.06 564.387,375.727 560.5,379.5C 555.42,379.25 550.42,379.75 545.5,381C 531.312,384.729 517.312,389.063 503.5,394C 492.51,398.492 482.176,403.992 472.5,410.5C 472.44,409.957 472.107,409.624 471.5,409.5C 465.344,411.532 459.011,412.032 452.5,411C 449.379,409.694 446.713,407.86 444.5,405.5C 439.992,347.494 465.992,324.661 522.5,337C 533.272,341.552 543.606,346.886 553.5,353C 558.983,356.319 563.649,360.486 567.5,365.5 Z"/></g>
<g><path style="opacity:1" fill="#6f1c69" d="M 299.5,404.5 C 296.117,408.553 293.117,412.886 290.5,417.5C 280.354,412.929 271.02,407.096 262.5,400C 246.099,390.353 228.432,386.52 209.5,388.5C 208.545,386.254 207.878,383.921 207.5,381.5C 207.5,380.167 207.5,378.833 207.5,377.5C 215.362,358.466 229.362,346.966 249.5,343C 261.398,340.889 271.732,343.889 280.5,352C 285.027,356.892 289.193,362.059 293,367.5C 300.228,378.96 302.394,391.294 299.5,404.5 Z"/></g>
<g><path style="opacity:0.573" fill="#83827b" d="M 330.5,352.5 C 331.71,352.932 332.71,353.599 333.5,354.5C 331.821,354.715 330.821,354.048 330.5,352.5 Z"/></g>
<g><path style="opacity:1" fill="#6e1b68" d="M 329.5,358.5 C 340.896,364.687 353.062,368.354 366,369.5C 374.961,368.124 383.961,367.124 393,366.5C 398.609,365.552 402.442,367.552 404.5,372.5C 406.973,380.27 405.306,386.937 399.5,392.5C 393.208,396.306 386.875,396.14 380.5,392C 377.007,386.991 372.34,383.824 366.5,382.5C 363.972,382.763 361.639,383.596 359.5,385C 357.481,388.014 355.148,390.68 352.5,393C 344.85,395.304 339.017,393.138 335,386.5C 333.419,377.08 331.586,367.746 329.5,358.5 Z"/></g>
<g><path style="opacity:1" fill="#9e8095" d="M 205.5,373.5 C 206.167,374.833 206.833,376.167 207.5,377.5C 207.5,378.833 207.5,380.167 207.5,381.5C 205.96,379.162 205.294,376.495 205.5,373.5 Z"/></g>
<g><path style="opacity:0.008" fill="#92928a" d="M 411.5,379.5 C 410.833,380.167 410.167,380.833 409.5,381.5C 409.338,379.473 409.505,377.473 410,375.5C 410.791,376.745 411.291,378.078 411.5,379.5 Z"/></g>
<g><path style="opacity:0.005" fill="#000000" d="M 226.5,392.5 C 227.386,391.224 228.386,391.224 229.5,392.5C 228.575,393.562 227.575,393.562 226.5,392.5 Z"/></g>
<g><path style="opacity:0.004" fill="#000000" d="M 212.5,393.5 C 212.897,392.475 213.563,392.308 214.5,393C 213.906,393.464 213.239,393.631 212.5,393.5 Z"/></g>
</svg>
