<?xml version="1.0" encoding="UTF-8"?>
<!DOCTYPE svg PUBLIC "-//W3C//DTD SVG 1.1//EN" "http://www.w3.org/Graphics/SVG/1.1/DTD/svg11.dtd">
<svg xmlns="http://www.w3.org/2000/svg" version="1.1" width="862px" height="862px" style="shape-rendering:geometricPrecision; text-rendering:geometricPrecision; image-rendering:optimizeQuality; fill-rule:evenodd; clip-rule:evenodd" xmlns:xlink="http://www.w3.org/1999/xlink">
<g><path style="opacity:0.994" fill="#060608" d="M 585.5,142.5 C 618.064,141.521 648.731,148.688 677.5,164C 686.447,169.947 695.114,176.28 703.5,183C 714.043,196.673 717.876,211.839 715,228.5C 713.465,233.604 711.632,238.604 709.5,243.5C 702.685,251.482 695.685,259.316 688.5,267C 694.886,266.122 701.386,265.622 708,265.5C 730.255,265.765 739.422,276.931 735.5,299C 732.443,310.782 726.776,321.115 718.5,330C 703.713,339.671 700.213,336.838 708,321.5C 708.533,312.097 705.7,303.93 699.5,297C 693.141,295.462 686.808,295.795 680.5,298C 669.05,303.483 657.05,307.15 644.5,309C 631.183,311.395 618.849,309.062 607.5,302C 599.758,295.533 598.258,288.033 603,279.5C 607.229,269.604 614.396,262.771 624.5,259C 636.122,256.679 647.122,252.679 657.5,247C 667.385,239.172 670.052,229.339 665.5,217.5C 660.121,218.006 654.787,218.839 649.5,220C 628.159,228.35 609.159,240.35 592.5,256C 588,260.5 583.5,265 579,269.5C 573.788,285.037 563.288,290.537 547.5,286C 525.22,283.693 504.886,276.359 486.5,264C 473.295,251.722 467.128,236.555 468,218.5C 469.427,213.878 471.427,209.545 474,205.5C 488.146,191.361 503.313,178.527 519.5,167C 529.711,161.728 540.044,156.728 550.5,152C 562.08,148.024 573.746,144.858 585.5,142.5 Z"/></g>
<g><path style="opacity:1" fill="#333340" d="M 673.5,210.5 C 669.838,210.966 666.505,210.299 663.5,208.5C 660.471,206.628 658.305,203.961 657,200.5C 655.002,195.341 653.835,190.008 653.5,184.5C 652.5,184.5 651.5,184.5 650.5,184.5C 650.177,194.21 653.177,202.543 659.5,209.5C 653.911,212.251 648.078,212.917 642,211.5C 641.161,212.624 639.994,213.291 638.5,213.5C 628.835,215.261 619.169,216.928 609.5,218.5C 605.499,213.661 601.666,208.661 598,203.5C 595.223,197.454 593.39,191.121 592.5,184.5C 591.914,184.709 591.414,185.043 591,185.5C 590.174,190.589 590.508,195.589 592,200.5C 595.603,207.257 599.77,213.591 604.5,219.5C 592.952,223.486 582.119,229.153 572,236.5C 570.927,235.72 569.76,235.887 568.5,237C 568.833,237.333 569.167,237.667 569.5,238C 568.307,239.095 566.973,239.928 565.5,240.5C 560.738,239.249 556.905,236.582 554,232.5C 549.273,226.103 544.94,219.436 541,212.5C 540.626,210.102 540.626,207.769 541,205.5C 539.989,204.663 538.822,204.33 537.5,204.5C 537.023,209.742 537.856,214.742 540,219.5C 544.246,224.991 548.246,230.658 552,236.5C 554.752,239.453 557.918,241.786 561.5,243.5C 557.514,246.32 554.014,249.653 551,253.5C 550,253.167 549,252.833 548,252.5C 545.468,256.69 542.302,260.357 538.5,263.5C 536.176,267.161 533.842,270.827 531.5,274.5C 530.675,275.386 529.675,275.719 528.5,275.5C 511.724,272.529 497.224,265.196 485,253.5C 476.522,242.585 472.855,230.251 474,216.5C 478.709,208.785 484.542,201.951 491.5,196C 502.632,186.602 514.298,177.935 526.5,170C 549.183,156.549 573.683,149.383 600,148.5C 607.302,148.245 614.468,149.078 621.5,151C 652.067,156.367 678.567,169.534 701,190.5C 709.012,201.223 711.679,213.223 709,226.5C 704.801,221.966 700.301,217.799 695.5,214C 688.332,211.733 680.999,210.566 673.5,210.5 Z"/></g>
<g><path style="opacity:0.995" fill="#060609" d="M 174.5,164.5 C 224.809,164.566 263.976,185.233 292,226.5C 294.158,234.271 293.825,241.938 291,249.5C 286.623,263.427 279.789,275.927 270.5,287C 262.225,293.056 253.392,298.223 244,302.5C 236.894,304.964 229.728,305.13 222.5,303C 221.308,301.055 221.308,299.055 222.5,297C 218.747,289.407 215.58,281.573 213,273.5C 203.563,260.398 193.063,248.231 181.5,237C 167.625,227.703 152.625,220.703 136.5,216C 132.833,215.333 129.167,215.333 125.5,216C 122.528,217.141 120.861,219.308 120.5,222.5C 122.316,224.817 124.316,226.984 126.5,229C 134.833,232.667 143.167,236.333 151.5,240C 161.408,247.205 171.575,254.038 182,260.5C 188.153,269.822 187.986,278.989 181.5,288C 171.767,294.339 161.434,295.339 150.5,291C 143.153,288.657 135.819,286.323 128.5,284C 117.047,281.545 110.047,285.878 107.5,297C 108.614,304.497 110.614,311.663 113.5,318.5C 100.871,317.267 89.704,312.6 80,304.5C 77.9376,302.099 76.2709,299.433 75,296.5C 74.1041,288.754 74.4375,281.087 76,273.5C 80.018,265.44 85.8514,259.107 93.5,254.5C 80.7205,242.664 77.5539,228.664 84,212.5C 93.8725,199.627 105.373,188.46 118.5,179C 136.158,169.753 154.825,164.92 174.5,164.5 Z"/></g>
<g><path style="opacity:1" fill="#333340" d="M 279.5,261.5 C 277.064,261.317 274.897,261.984 273,263.5C 272.439,262.978 271.772,262.645 271,262.5C 264.3,264.504 257.467,265.337 250.5,265C 246.396,261.308 242.396,257.475 238.5,253.5C 237.614,252.675 237.281,251.675 237.5,250.5C 241.181,244.472 244.347,238.139 247,231.5C 247.5,224.174 247.666,216.841 247.5,209.5C 245.876,209.36 244.71,210.027 244,211.5C 245.087,224.936 241.587,236.936 233.5,247.5C 228.387,243.092 222.72,239.426 216.5,236.5C 214.541,235.252 213.041,233.585 212,231.5C 208.34,232.487 205.674,231.153 204,227.5C 200.256,227.312 196.756,225.812 193.5,223C 192.207,222.51 190.873,222.343 189.5,222.5C 193.265,211.553 194.598,200.387 193.5,189C 192.216,188.316 191.049,188.483 190,189.5C 189.685,199.722 188.185,209.722 185.5,219.5C 174.391,215.108 163.058,210.441 151.5,205.5C 151.665,202.482 151.498,199.482 151,196.5C 150.311,195.643 149.478,194.977 148.5,194.5C 147.52,197.086 147.187,199.753 147.5,202.5C 146.849,203.091 146.182,203.757 145.5,204.5C 142.569,203.727 139.736,202.727 137,201.5C 136.667,201.833 136.333,202.167 136,202.5C 125.492,200.115 115.326,198.448 105.5,197.5C 110.681,192.157 116.348,187.323 122.5,183C 141.676,173.227 162.009,169.227 183.5,171C 227.003,172.662 261.169,191.162 286,226.5C 287.555,231.382 287.888,236.382 287,241.5C 284.97,248.432 282.47,255.099 279.5,261.5 Z"/></g>
<g><path style="opacity:1" fill="#040406" d="M 663.5,208.5 C 662.432,209.434 661.099,209.768 659.5,209.5C 653.177,202.543 650.177,194.21 650.5,184.5C 651.5,184.5 652.5,184.5 653.5,184.5C 653.835,190.008 655.002,195.341 657,200.5C 658.305,203.961 660.471,206.628 663.5,208.5 Z"/></g>
<g><path style="opacity:1" fill="#242436" d="M 105.5,197.5 C 115.326,198.448 125.492,200.115 136,202.5C 136.333,202.167 136.667,201.833 137,201.5C 139.736,202.727 142.569,203.727 145.5,204.5C 146.182,203.757 146.849,203.091 147.5,202.5C 147.041,205.877 146.374,209.211 145.5,212.5C 139.913,211.029 134.247,209.862 128.5,209C 116.801,208.447 105.135,208.447 93.5,209C 96.7098,204.289 100.71,200.456 105.5,197.5 Z"/></g>
<g><path style="opacity:1" fill="#040405" d="M 565.5,240.5 C 569.65,242.737 573.984,244.903 578.5,247C 580.559,248.185 580.726,249.352 579,250.5C 573.018,248.453 567.185,246.119 561.5,243.5C 557.918,241.786 554.752,239.453 552,236.5C 548.246,230.658 544.246,224.991 540,219.5C 537.856,214.742 537.023,209.742 537.5,204.5C 538.822,204.33 539.989,204.663 541,205.5C 540.626,207.769 540.626,210.102 541,212.5C 544.94,219.436 549.273,226.103 554,232.5C 556.905,236.582 560.738,239.249 565.5,240.5 Z"/></g>
<g><path style="opacity:1" fill="#242436" d="M 151.5,205.5 C 163.058,210.441 174.391,215.108 185.5,219.5C 185.047,225.124 182.047,227.624 176.5,227C 167.469,221.826 158.135,217.326 148.5,213.5C 149.516,210.718 150.516,208.051 151.5,205.5 Z"/></g>
<g><path style="opacity:1" fill="#191924" d="M 99.5,213.5 C 106.011,212.182 112.678,212.182 119.5,213.5C 119.376,214.107 119.043,214.44 118.5,214.5C 112.355,213.51 106.022,213.177 99.5,213.5 Z"/></g>
<g><path style="opacity:1" fill="#252536" d="M 663.5,208.5 C 666.505,210.299 669.838,210.966 673.5,210.5C 654.858,211.713 637.524,217.38 621.5,227.5C 616.892,225.213 612.892,222.213 609.5,218.5C 619.169,216.928 628.835,215.261 638.5,213.5C 639.994,213.291 641.161,212.624 642,211.5C 648.078,212.917 653.911,212.251 659.5,209.5C 661.099,209.768 662.432,209.434 663.5,208.5 Z"/></g>
<g><path style="opacity:1" fill="#242436" d="M 99.5,213.5 C 106.022,213.177 112.355,213.51 118.5,214.5C 113.997,220.645 114.664,226.145 120.5,231C 129.739,236.452 139.405,241.119 149.5,245C 154.228,248.726 159.228,252.059 164.5,255C 167.371,257.84 167.037,260.174 163.5,262C 159.5,262.667 155.5,262.667 151.5,262C 141.655,257.887 131.655,254.72 121.5,252.5C 114.428,246.863 107.594,240.863 101,234.5C 100.027,232.608 99.3599,230.608 99,228.5C 98.2496,227.874 97.4162,227.374 96.5,227C 97.0106,222.371 98.0106,217.871 99.5,213.5 Z"/></g>
<g><path style="opacity:1" fill="#32323f" d="M 99.5,213.5 C 98.0106,217.871 97.0106,222.371 96.5,227C 97.4162,227.374 98.2496,227.874 99,228.5C 99.3599,230.608 100.027,232.608 101,234.5C 107.594,240.863 114.428,246.863 121.5,252.5C 114.479,251.289 107.479,251.289 100.5,252.5C 88.1611,243.827 83.6611,232.16 87,217.5C 87.5,216.333 88.3333,215.5 89.5,215C 92.7928,214.174 96.1262,213.674 99.5,213.5 Z"/></g>
<g><path style="opacity:1" fill="#242436" d="M 696.5,222.5 C 694.392,231.055 690.892,239.055 686,246.5C 675.504,257.832 663.67,267.499 650.5,275.5C 644.654,277.152 638.988,276.652 633.5,274C 630.019,270.603 629.686,266.936 632.5,263C 644.893,260.385 656.06,255.219 666,247.5C 672.784,238.305 674.284,228.305 670.5,217.5C 676.836,216.483 683.169,216.65 689.5,218C 692.239,219.026 694.572,220.526 696.5,222.5 Z"/></g>
<g><path style="opacity:1" fill="#242436" d="M 604.5,219.5 C 607.944,223.061 611.944,225.894 616.5,228C 617.451,228.718 617.617,229.551 617,230.5C 602.887,240.075 589.887,251.075 578,263.5C 574.501,267.672 571.834,272.338 570,277.5C 568.5,279 567,280.5 565.5,282C 552.87,281.118 540.537,278.951 528.5,275.5C 529.675,275.719 530.675,275.386 531.5,274.5C 533.842,270.827 536.176,267.161 538.5,263.5C 542.302,260.357 545.468,256.69 548,252.5C 549,252.833 550,253.167 551,253.5C 554.014,249.653 557.514,246.32 561.5,243.5C 567.185,246.119 573.018,248.453 579,250.5C 580.726,249.352 580.559,248.185 578.5,247C 573.984,244.903 569.65,242.737 565.5,240.5C 566.973,239.928 568.307,239.095 569.5,238C 569.167,237.667 568.833,237.333 568.5,237C 569.76,235.887 570.927,235.72 572,236.5C 582.119,229.153 592.952,223.486 604.5,219.5 Z"/></g>
<g><path style="opacity:1" fill="#252536" d="M 189.5,222.5 C 190.873,222.343 192.207,222.51 193.5,223C 196.756,225.812 200.256,227.312 204,227.5C 205.674,231.153 208.34,232.487 212,231.5C 213.041,233.585 214.541,235.252 216.5,236.5C 222.72,239.426 228.387,243.092 233.5,247.5C 229.227,257.713 221.727,262.046 211,260.5C 203.413,249.577 194.413,239.91 184,231.5C 183.333,230.833 183.333,230.167 184,229.5C 186.336,227.46 188.169,225.127 189.5,222.5 Z"/></g>
<g><path style="opacity:1" fill="#323340" d="M 696.5,222.5 C 699.464,224.962 702.297,227.629 705,230.5C 705.667,233.5 705.667,236.5 705,239.5C 697.537,250.928 688.371,260.762 677.5,269C 668.5,271.233 659.5,273.399 650.5,275.5C 663.67,267.499 675.504,257.832 686,246.5C 690.892,239.055 694.392,231.055 696.5,222.5 Z"/></g>
<g><path style="opacity:1" fill="#242436" d="M 237.5,250.5 C 237.281,251.675 237.614,252.675 238.5,253.5C 242.396,257.475 246.396,261.308 250.5,265C 257.467,265.337 264.3,264.504 271,262.5C 271.772,262.645 272.439,262.978 273,263.5C 274.897,261.984 277.064,261.317 279.5,261.5C 276.7,270.139 272.033,277.639 265.5,284C 257.62,289.441 249.286,294.108 240.5,298C 236.514,298.499 232.514,298.666 228.5,298.5C 225.258,289.947 222.091,281.28 219,272.5C 217.752,269.421 215.919,266.754 213.5,264.5C 217.484,264.96 221.484,264.46 225.5,263C 230.405,259.597 234.405,255.43 237.5,250.5 Z"/></g>
<g><path style="opacity:1" fill="#333340" d="M 179.5,268.5 C 179.5,269.5 179.5,270.5 179.5,271.5C 175.227,273.884 170.727,275.884 166,277.5C 161.906,276.208 157.739,275.374 153.5,275C 149.598,273.98 145.932,272.48 142.5,270.5C 139.183,271.805 136.016,271.472 133,269.5C 128.782,270.325 124.449,270.325 120,269.5C 115.447,272.024 110.614,273.858 105.5,275C 105.833,275.333 106.167,275.667 106.5,276C 99.306,280.954 94.6394,287.621 92.5,296C 93.6341,297.016 93.3008,297.683 91.5,298C 93.5063,300.826 94.8397,303.992 95.5,307.5C 80.7432,302.319 75.9099,292.319 81,277.5C 83.3581,281.358 86.5248,284.358 90.5,286.5C 91.5827,285.635 91.7494,284.635 91,283.5C 86.2568,280.341 83.9235,276.008 84,270.5C 87.8837,264.641 93.0504,260.308 99.5,257.5C 100.333,260.5 101.167,263.5 102,266.5C 103.94,269.402 106.44,270.402 109.5,269.5C 105.328,266.152 103.661,261.819 104.5,256.5C 120.114,257.389 135.114,260.889 149.5,267C 154.5,267.667 159.5,267.667 164.5,267C 167.592,265.576 170.426,263.743 173,261.5C 176.4,262.732 178.567,265.065 179.5,268.5 Z"/></g>
<g><path style="opacity:1" fill="#323240" d="M 680.5,284.5 C 669.379,286.358 658.379,288.524 647.5,291C 640.365,290.975 633.365,291.141 626.5,291.5C 623.833,291.333 621.167,291.167 618.5,291C 614.923,288.237 611.257,285.737 607.5,283.5C 610.757,274.409 616.923,268.076 626,264.5C 625.725,271.785 628.892,276.952 635.5,280C 640.799,281.145 646.132,281.478 651.5,281C 661.154,278.769 670.82,276.603 680.5,274.5C 682.319,274.342 683.652,275.009 684.5,276.5C 683.153,279.193 681.82,281.86 680.5,284.5 Z"/></g>
<g><path style="opacity:1" fill="#252536" d="M 179.5,268.5 C 183.173,277.296 180.506,283.463 171.5,287C 158.84,288.112 146.84,285.779 135.5,280C 126.42,276.139 117.753,276.806 109.5,282C 101.254,290.792 100.254,300.459 106.5,311C 102.455,310.975 98.7881,309.808 95.5,307.5C 94.8397,303.992 93.5063,300.826 91.5,298C 93.3008,297.683 93.6341,297.016 92.5,296C 94.6394,287.621 99.306,280.954 106.5,276C 106.167,275.667 105.833,275.333 105.5,275C 110.614,273.858 115.447,272.024 120,269.5C 124.449,270.325 128.782,270.325 133,269.5C 136.016,271.472 139.183,271.805 142.5,270.5C 145.932,272.48 149.598,273.98 153.5,275C 157.739,275.374 161.906,276.208 166,277.5C 170.727,275.884 175.227,273.884 179.5,271.5C 179.5,270.5 179.5,269.5 179.5,268.5 Z"/></g>
<g><path style="opacity:1" fill="#333340" d="M 717.5,322.5 C 716.375,319.48 717.041,316.647 719.5,314C 718.691,309.324 717.358,305.158 715.5,301.5C 716.36,298.275 715.027,296.108 711.5,295C 711.833,294.667 712.167,294.333 712.5,294C 708.362,292.192 705.195,289.359 703,285.5C 701.853,286.458 700.853,286.125 700,284.5C 699.439,285.022 698.772,285.355 698,285.5C 693.607,284.404 689.44,283.738 685.5,283.5C 686.466,279.788 687.8,276.288 689.5,273C 698.797,271.602 708.13,271.268 717.5,272C 720.329,273.247 722.995,274.747 725.5,276.5C 725.887,278.731 726.053,281.064 726,283.5C 727.797,280.904 729.131,281.237 730,284.5C 730.927,298.884 726.761,311.551 717.5,322.5 Z"/></g>
<g><path style="opacity:1" fill="#242536" d="M 607.5,283.5 C 611.257,285.737 614.923,288.237 618.5,291C 621.167,291.167 623.833,291.333 626.5,291.5C 633.365,291.141 640.365,290.975 647.5,291C 658.379,288.524 669.379,286.358 680.5,284.5C 680.735,285.097 681.235,285.43 682,285.5C 683.303,285.022 684.469,284.355 685.5,283.5C 689.44,283.738 693.607,284.404 698,285.5C 698.772,285.355 699.439,285.022 700,284.5C 700.853,286.125 701.853,286.458 703,285.5C 705.195,289.359 708.362,292.192 712.5,294C 712.167,294.333 711.833,294.667 711.5,295C 715.027,296.108 716.36,298.275 715.5,301.5C 717.358,305.158 718.691,309.324 719.5,314C 717.041,316.647 716.375,319.48 717.5,322.5C 715.839,325.218 713.839,326.884 711.5,327.5C 714.738,317.045 713.571,307.045 708,297.5C 706.833,295 705,293.167 702.5,292C 692.355,289.908 682.355,290.575 672.5,294C 657.068,301.805 640.735,304.805 623.5,303C 617.013,301.508 611.513,298.341 607,293.5C 604.883,289.934 605.05,286.6 607.5,283.5 Z"/></g>
</svg>
