<?xml version="1.0" encoding="UTF-8"?>
<!DOCTYPE svg PUBLIC "-//W3C//DTD SVG 1.1//EN" "http://www.w3.org/Graphics/SVG/1.1/DTD/svg11.dtd">
<svg xmlns="http://www.w3.org/2000/svg" version="1.1" width="862px" height="862px" style="shape-rendering:geometricPrecision; text-rendering:geometricPrecision; image-rendering:optimizeQuality; fill-rule:evenodd; clip-rule:evenodd" xmlns:xlink="http://www.w3.org/1999/xlink">
<g><path style="opacity:0.997" fill="#1a1a19" d="M 748.5,123.5 C 748.427,125.027 749.094,126.027 750.5,126.5C 754.888,130.929 758.554,135.929 761.5,141.5C 761.427,143.027 762.094,144.027 763.5,144.5C 771.202,155.904 777.369,168.238 782,181.5C 783.837,189.172 785.671,196.838 787.5,204.5C 787.255,206.663 786.255,208.33 784.5,209.5C 759.247,199.852 733.247,192.685 706.5,188C 674.881,182.925 645.214,188.259 617.5,204C 595.206,220.746 581.706,242.913 577,270.5C 573.386,276.063 568.219,279.23 561.5,280C 525.506,284.421 493.173,275.921 464.5,254.5C 464.027,253.094 463.027,252.427 461.5,252.5C 454.873,249.017 449.207,244.35 444.5,238.5C 444.027,237.094 443.027,236.427 441.5,236.5C 436.771,231.89 434.437,226.39 434.5,220C 450.395,214.692 466.395,209.692 482.5,205C 509.102,196.298 530.268,180.464 546,157.5C 552.792,144.588 553.125,131.588 547,118.5C 546.505,116.527 546.338,114.527 546.5,112.5C 561.245,102.694 577.579,97.0274 595.5,95.5C 598.853,95.6547 599.186,94.9881 596.5,93.5C 560.478,62.1512 519.478,39.6512 473.5,26C 473.57,25.2352 473.903,24.7352 474.5,24.5C 476.483,24.8432 477.817,24.1765 478.5,22.5C 511.798,16.0827 544.798,17.5827 577.5,27C 609.101,35.4222 639.767,46.4222 669.5,60C 698.333,77.994 724.667,99.1607 748.5,123.5 Z"/></g>
<g><path style="opacity:0.569" fill="#8b8b83" d="M 478.5,22.5 C 477.817,24.1765 476.483,24.8432 474.5,24.5C 475.671,23.6554 477.005,22.9887 478.5,22.5 Z"/></g>
<g><path style="opacity:1" fill="#c4c3b5" d="M 536.5,178.5 C 531.897,189.503 524.564,198.336 514.5,205C 508.234,206.92 501.9,208.587 495.5,210C 486.576,214.015 483.076,220.848 485,230.5C 488.03,237.109 493.197,240.942 500.5,242C 514.511,243.129 528.345,245.296 542,248.5C 547.325,248.614 551.992,246.948 556,243.5C 560.396,230.657 565.396,217.99 571,205.5C 578.937,192.804 584.771,179.304 588.5,165C 587.447,154.689 581.614,149.522 571,149.5C 568.37,149.464 565.87,149.964 563.5,151C 559.167,154 555.5,157.667 552.5,162C 551.552,162.483 550.552,162.649 549.5,162.5C 556.051,152.158 558.551,140.825 557,128.5C 555.753,123.792 554.753,119.126 554,114.5C 568.372,106.266 583.872,101.433 600.5,100C 603.379,98.3342 604.212,95.8342 603,92.5C 598.833,88.3333 594.667,84.1667 590.5,80C 568.411,63.283 544.744,48.9496 519.5,37C 508.786,33.2622 498.119,29.4289 487.5,25.5C 507.53,22.6677 527.53,22.8344 547.5,26C 578.944,32.3703 609.61,41.3703 639.5,53C 660.688,60.9222 680.022,71.9222 697.5,86C 710.833,97.3333 724.167,108.667 737.5,120C 759.107,143.315 773.44,170.482 780.5,201.5C 763.076,195.638 745.409,190.471 727.5,186C 699.795,180.174 672.128,180.174 644.5,186C 603.465,199.407 579.465,227.407 572.5,270C 568.05,272.261 563.383,273.928 558.5,275C 532.784,277.281 508.45,272.614 485.5,261C 470.334,252.665 456.5,242.498 444,230.5C 442.36,228.421 441.194,226.088 440.5,223.5C 454.489,219.336 468.489,215.169 482.5,211C 502.992,203.937 520.992,193.104 536.5,178.5 Z"/></g>
<g><path style="opacity:0.997" fill="#1a1a19" d="M 110.5,109.5 C 117.11,104.559 123.11,98.8922 128.5,92.5C 136.353,85.1529 144.687,78.3196 153.5,72C 170.937,64.1151 187.937,55.4484 204.5,46C 222.928,39.3172 241.928,35.3172 261.5,34C 268.833,33.3333 276.167,33.3333 283.5,34C 284.406,35.6995 284.739,37.5328 284.5,39.5C 282.473,39.3379 280.473,39.5045 278.5,40C 251.079,56.5854 230.079,79.0854 215.5,107.5C 223.11,109.983 230.443,113.149 237.5,117C 239.543,119.009 241.543,121.009 243.5,123C 243.578,128.964 243.411,135.131 243,141.5C 242.488,146.038 240.988,150.204 238.5,154C 248.461,168.641 257.628,183.808 266,199.5C 276.165,211.143 285.665,223.143 294.5,235.5C 285.24,264.602 266.573,285.435 238.5,298C 232.801,299.002 227.301,300.502 222,302.5C 219.446,302.42 217.946,301.086 217.5,298.5C 226.852,273.567 224.685,249.567 211,226.5C 195.302,204.14 174.468,188.64 148.5,180C 123.327,176.617 100.993,182.95 81.5,199C 79.8876,199.72 78.3876,199.554 77,198.5C 77.0751,189.833 77.7417,181.166 79,172.5C 83.4608,161.784 87.1275,150.784 90,139.5C 95.9148,128.773 102.748,118.773 110.5,109.5 Z"/></g>
<g><path style="opacity:1" fill="#c3c4b6" d="M 251.5,187.5 C 248.843,184.736 246.51,181.569 244.5,178C 238.307,179.346 231.974,179.679 225.5,179C 222.615,174.872 219.281,171.206 215.5,168C 210.704,168.1 207.538,170.6 206,175.5C 205.333,180.167 205.333,184.833 206,189.5C 211.333,200.833 216.667,212.167 222,223.5C 223.929,230.409 225.429,237.409 226.5,244.5C 220.991,227.34 211.324,212.84 197.5,201C 183.921,187.873 167.921,178.873 149.5,174C 124.712,170.655 102.379,176.488 82.5,191.5C 81.3504,185.405 81.8504,179.405 84,173.5C 88.2623,163.047 91.929,152.38 95,141.5C 99.5031,135.165 103.503,128.498 107,121.5C 120.983,104.845 136.816,90.3446 154.5,78C 171.833,69 189.167,60 206.5,51C 226.327,44.3591 246.66,40.6925 267.5,40C 246.884,55.2833 229.717,73.7833 216,95.5C 213.398,99.4738 211.898,103.807 211.5,108.5C 209.335,108.116 207.668,108.783 206.5,110.5C 216.131,112.79 225.465,116.623 234.5,122C 236,123.5 237.5,125 239,126.5C 239.988,134.893 238.655,142.893 235,150.5C 233.842,150.998 233.009,151.831 232.5,153C 238.724,164.619 245.057,176.119 251.5,187.5 Z"/></g>
<g><path style="opacity:1" fill="#f6f5e8" d="M 560.5,42.5 C 583.651,48.2482 606.318,55.4148 628.5,64C 634.589,64.9183 640.589,66.2516 646.5,68C 661.552,74.0257 675.886,81.3591 689.5,90C 699.602,98.0988 709.102,106.932 718,116.5C 726.65,128.146 735.65,139.479 745,150.5C 750.752,160.242 753.919,170.575 754.5,181.5C 748.773,183.118 743.44,182.284 738.5,179C 729.654,177.764 720.988,175.764 712.5,173C 687.12,169.476 661.787,169.809 636.5,174C 633.107,174.798 629.774,175.798 626.5,177C 618.198,179.537 612.032,177.037 608,169.5C 605.15,150.949 599.483,133.283 591,116.5C 589.835,112.316 591.335,109.483 595.5,108C 611.122,105.859 625.788,100.859 639.5,93C 626.858,83.0095 613.524,74.0095 599.5,66C 587.065,59.4487 574.399,53.4487 561.5,48C 559.365,46.4443 559.032,44.6109 560.5,42.5 Z"/></g>
<g><path style="opacity:1" fill="#f6f5e8" d="M 220.5,54.5 C 222.5,54.5 224.5,54.5 226.5,54.5C 226.657,55.8734 226.49,57.2068 226,58.5C 214.222,73.613 203.222,89.2797 193,105.5C 191.042,110.329 189.876,115.329 189.5,120.5C 201.163,117.585 210.996,120.585 219,129.5C 219.765,136.552 218.431,143.219 215,149.5C 210.29,156.421 205.456,163.254 200.5,170C 197.5,170.667 194.5,170.667 191.5,170C 168.682,160.927 145.015,157.927 120.5,161C 113.261,161.016 106.261,162.183 99.5,164.5C 101.45,147.268 108.283,132.268 120,119.5C 134.146,105.361 149.313,92.5273 165.5,81C 178.522,75.9891 190.855,69.6557 202.5,62C 208.966,60.3526 214.966,57.8526 220.5,54.5 Z"/></g>
<g><path style="opacity:0.282" fill="#b2b1a8" d="M 596.5,93.5 C 599.186,94.9881 598.853,95.6547 595.5,95.5C 595.833,94.8333 596.167,94.1667 596.5,93.5 Z"/></g>
<g><path style="opacity:0.749" fill="#6a6a64" d="M 128.5,92.5 C 123.11,98.8922 117.11,104.559 110.5,109.5C 115.89,103.108 121.89,97.4412 128.5,92.5 Z"/></g>
<g><path style="opacity:0.733" fill="#82817a" d="M 748.5,123.5 C 749.906,123.973 750.573,124.973 750.5,126.5C 749.094,126.027 748.427,125.027 748.5,123.5 Z"/></g>
<g><path style="opacity:0.522" fill="#82827b" d="M 761.5,141.5 C 762.906,141.973 763.573,142.973 763.5,144.5C 762.094,144.027 761.427,143.027 761.5,141.5 Z"/></g>
<g><path style="opacity:1" fill="#f6f5e8" d="M 536.5,178.5 C 540.823,173.206 545.156,167.873 549.5,162.5C 550.552,162.649 551.552,162.483 552.5,162C 555.5,157.667 559.167,154 563.5,151C 565.87,149.964 568.37,149.464 571,149.5C 581.614,149.522 587.447,154.689 588.5,165C 584.771,179.304 578.937,192.804 571,205.5C 565.396,217.99 560.396,230.657 556,243.5C 551.992,246.948 547.325,248.614 542,248.5C 528.345,245.296 514.511,243.129 500.5,242C 493.197,240.942 488.03,237.109 485,230.5C 483.076,220.848 486.576,214.015 495.5,210C 501.9,208.587 508.234,206.92 514.5,205C 524.564,198.336 531.897,189.503 536.5,178.5 Z"/></g>
<g><path style="opacity:1" fill="#f6f5e8" d="M 251.5,187.5 C 254.258,190.678 256.258,194.345 257.5,198.5C 260.854,208.402 264.687,218.069 269,227.5C 269.851,232.255 270.518,236.922 271,241.5C 264.045,250.79 256.712,259.79 249,268.5C 245.1,273.098 240.433,276.431 235,278.5C 233.674,278.245 232.674,277.578 232,276.5C 231.181,268.847 230.514,261.18 230,253.5C 229.292,252.619 228.458,251.953 227.5,251.5C 226.781,249.236 226.448,246.903 226.5,244.5C 225.429,237.409 223.929,230.409 222,223.5C 216.667,212.167 211.333,200.833 206,189.5C 205.333,184.833 205.333,180.167 206,175.5C 207.538,170.6 210.704,168.1 215.5,168C 219.281,171.206 222.615,174.872 225.5,179C 231.974,179.679 238.307,179.346 244.5,178C 246.51,181.569 248.843,184.736 251.5,187.5 Z"/></g>
<g><path style="opacity:1" fill="#c2c4b6" d="M 257.5,198.5 C 267.469,210.646 277.303,222.979 287,235.5C 287.328,241.196 285.994,246.529 283,251.5C 271.965,269.203 257.131,282.703 238.5,292C 234.695,293.38 230.862,294.547 227,295.5C 228.314,286.152 229.148,276.652 229.5,267C 229.554,261.718 228.887,256.552 227.5,251.5C 228.458,251.953 229.292,252.619 230,253.5C 230.514,261.18 231.181,268.847 232,276.5C 232.674,277.578 233.674,278.245 235,278.5C 240.433,276.431 245.1,273.098 249,268.5C 256.712,259.79 264.045,250.79 271,241.5C 270.518,236.922 269.851,232.255 269,227.5C 264.687,218.069 260.854,208.402 257.5,198.5 Z"/></g>
<g><path style="opacity:0.686" fill="#898881" d="M 441.5,236.5 C 443.027,236.427 444.027,237.094 444.5,238.5C 442.973,238.573 441.973,237.906 441.5,236.5 Z"/></g>
<g><path style="opacity:0.506" fill="#85857e" d="M 461.5,252.5 C 463.027,252.427 464.027,253.094 464.5,254.5C 462.973,254.573 461.973,253.906 461.5,252.5 Z"/></g>
</svg>
