<?xml version="1.0" encoding="UTF-8"?>
<!DOCTYPE svg PUBLIC "-//W3C//DTD SVG 1.1//EN" "http://www.w3.org/Graphics/SVG/1.1/DTD/svg11.dtd">
<svg xmlns="http://www.w3.org/2000/svg" version="1.1" width="862px" height="862px" style="shape-rendering:geometricPrecision; text-rendering:geometricPrecision; image-rendering:optimizeQuality; fill-rule:evenodd; clip-rule:evenodd" xmlns:xlink="http://www.w3.org/1999/xlink">
<g><path style="opacity:0.995" fill="#030c0b" d="M 473.5,207.5 C 474.906,207.027 475.573,206.027 475.5,204.5C 504.858,171.312 541.525,150.812 585.5,143C 595.5,142.333 605.5,142.333 615.5,143C 635.085,147.195 654.085,153.195 672.5,161C 684.508,168.007 695.675,176.174 706,185.5C 718.296,204.303 719.463,223.636 709.5,243.5C 702.685,251.482 695.685,259.316 688.5,267C 694.886,266.122 701.386,265.622 708,265.5C 730.255,265.765 739.422,276.931 735.5,299C 732.443,310.782 726.776,321.115 718.5,330C 703.713,339.671 700.213,336.838 708,321.5C 708.533,312.097 705.7,303.93 699.5,297C 693.141,295.462 686.808,295.795 680.5,298C 671.181,302.329 661.514,305.662 651.5,308C 639.733,310.294 628.066,309.961 616.5,307C 601.803,301.15 597.636,291.317 604,277.5C 608.289,268.546 615.123,262.379 624.5,259C 634.556,256.738 644.222,253.404 653.5,249C 666.451,241.987 670.451,231.487 665.5,217.5C 660.121,218.006 654.787,218.839 649.5,220C 635.894,224.954 623.227,231.62 611.5,240C 600.368,249.464 589.534,259.297 579,269.5C 576.413,278.42 570.747,284.42 562,287.5C 539.83,286.332 518.663,281.166 498.5,272C 477.606,260.387 467.439,242.554 468,218.5C 469.188,214.387 471.021,210.72 473.5,207.5 Z"/></g>
<g><path style="opacity:1" fill="#005a5d" d="M 709.5,212.5 C 709.819,217.363 709.486,222.03 708.5,226.5C 704.127,220.286 698.461,215.786 691.5,213C 686.705,211.963 681.871,211.13 677,210.5C 670.878,211.619 664.711,212.286 658.5,212.5C 655.977,211.746 653.311,211.08 650.5,210.5C 649.186,211.313 648.019,212.313 647,213.5C 646.125,211.487 644.791,211.487 643,213.5C 640.891,213.434 638.725,213.101 636.5,212.5C 635.201,213.09 634.368,214.09 634,215.5C 631.838,215.06 629.671,214.727 627.5,214.5C 625.821,215.782 623.987,216.782 622,217.5C 618.842,216.968 615.676,216.635 612.5,216.5C 611.482,217.193 610.482,217.859 609.5,218.5C 602.515,211.337 597.348,203.003 594,193.5C 593.821,190.447 593.321,187.447 592.5,184.5C 591.914,184.709 591.414,185.043 591,185.5C 590.249,190.572 590.582,195.572 592,200.5C 595.603,207.257 599.77,213.591 604.5,219.5C 603.328,220.705 601.995,220.705 600.5,219.5C 597.981,221.259 595.481,222.925 593,224.5C 592.127,224.265 591.293,223.931 590.5,223.5C 589.673,225.162 588.507,226.495 587,227.5C 586.667,227.167 586.333,226.833 586,226.5C 584.266,228.451 582.099,229.451 579.5,229.5C 579.649,230.552 579.483,231.552 579,232.5C 578.667,232.167 578.333,231.833 578,231.5C 576.933,232.191 575.766,232.691 574.5,233C 575.167,233.333 575.833,233.667 576.5,234C 574.744,234.202 573.078,234.702 571.5,235.5C 569.674,237.91 567.34,239.577 564.5,240.5C 558.928,237.765 554.428,233.765 551,228.5C 547.166,223.503 543.833,218.17 541,212.5C 540.626,210.102 540.626,207.769 541,205.5C 540.282,204.549 539.449,204.383 538.5,205C 537.017,209.988 537.517,214.821 540,219.5C 544.333,225.5 548.667,231.5 553,237.5C 555.478,239.639 557.978,241.639 560.5,243.5C 559.34,244.265 558.34,245.265 557.5,246.5C 558.629,248.529 558.129,248.863 556,247.5C 553.094,250.037 549.927,252.204 546.5,254C 545.371,256.717 543.871,259.217 542,261.5C 541.667,261.167 541.333,260.833 541,260.5C 539.171,262.156 537.837,264.156 537,266.5C 535.334,265.66 535.167,266.16 536.5,268C 535.122,269.713 533.455,271.047 531.5,272C 531.833,272.333 532.167,272.667 532.5,273C 531.264,274.085 529.931,274.918 528.5,275.5C 511.028,272.844 496.195,265.178 484,252.5C 476.191,241.739 472.857,229.739 474,216.5C 478.709,208.785 484.542,201.951 491.5,196C 500.016,189.574 508.349,182.907 516.5,176C 537.63,162.27 560.63,153.27 585.5,149C 594.5,148.333 603.5,148.333 612.5,149C 632.09,153.197 651.09,159.197 669.5,167C 682.49,174.326 693.99,183.493 704,194.5C 707.656,199.949 709.489,205.949 709.5,212.5 Z"/></g>
<g><path style="opacity:0.995" fill="#030c0c" d="M 174.5,164.5 C 224.809,164.566 263.976,185.233 292,226.5C 294.158,234.271 293.825,241.938 291,249.5C 286.623,263.427 279.789,275.927 270.5,287C 262.225,293.056 253.392,298.223 244,302.5C 236.894,304.964 229.728,305.13 222.5,303C 221.308,301.055 221.308,299.055 222.5,297C 218.747,289.407 215.58,281.573 213,273.5C 203.563,260.398 193.063,248.231 181.5,237C 167.625,227.703 152.625,220.703 136.5,216C 132.833,215.333 129.167,215.333 125.5,216C 122.528,217.141 120.861,219.308 120.5,222.5C 122.316,224.817 124.316,226.984 126.5,229C 134.833,232.667 143.167,236.333 151.5,240C 161.408,247.205 171.575,254.038 182,260.5C 188.153,269.822 187.986,278.989 181.5,288C 171.767,294.339 161.434,295.339 150.5,291C 143.153,288.657 135.819,286.323 128.5,284C 117.047,281.545 110.047,285.878 107.5,297C 108.614,304.497 110.614,311.663 113.5,318.5C 100.871,317.267 89.704,312.6 80,304.5C 77.9376,302.099 76.2709,299.433 75,296.5C 74.1041,288.754 74.4375,281.087 76,273.5C 80.018,265.44 85.8514,259.107 93.5,254.5C 80.7205,242.664 77.5539,228.664 84,212.5C 93.8725,199.627 105.373,188.46 118.5,179C 136.158,169.753 154.825,164.92 174.5,164.5 Z"/></g>
<g><path style="opacity:1" fill="#005a5d" d="M 280.5,260.5 C 279.213,261.831 277.047,262.831 274,263.5C 272.507,261.692 270.673,261.692 268.5,263.5C 262.247,264.669 256.414,265.336 251,265.5C 249.778,263.304 247.944,261.804 245.5,261C 245.833,260.667 246.167,260.333 246.5,260C 242.598,257.6 239.598,254.434 237.5,250.5C 241.447,244.27 244.613,237.604 247,230.5C 247.5,223.508 247.666,216.508 247.5,209.5C 245.876,209.36 244.71,210.027 244,211.5C 245.234,224.956 241.734,236.956 233.5,247.5C 231.897,247.688 230.563,247.188 229.5,246C 231.795,245.016 231.461,244.183 228.5,243.5C 227.914,243.709 227.414,244.043 227,244.5C 226.51,243.207 226.343,241.873 226.5,240.5C 224.833,240.5 223.167,240.5 221.5,240.5C 221.5,239.5 221.5,238.5 221.5,237.5C 219.599,237.567 217.766,237.233 216,236.5C 213.419,234.587 210.919,232.587 208.5,230.5C 204.821,230.274 201.821,228.774 199.5,226C 197.187,225.338 194.854,224.838 192.5,224.5C 192.169,222.678 191.502,221.011 190.5,219.5C 193.168,209.665 194.334,199.665 194,189.5C 192.667,188.167 191.333,188.167 190,189.5C 190.117,199.792 188.617,209.792 185.5,219.5C 181.335,217.489 176.501,215.489 171,213.5C 170.667,213.833 170.333,214.167 170,214.5C 169,213.167 168,211.833 167,210.5C 165.984,211.634 165.317,211.301 165,209.5C 164.667,209.833 164.333,210.167 164,210.5C 161.302,209.72 158.969,208.387 157,206.5C 156.333,207.167 155.667,207.833 155,208.5C 153.896,207.606 152.73,206.606 151.5,205.5C 151.665,202.482 151.498,199.482 151,196.5C 149.989,195.663 148.822,195.33 147.5,195.5C 147.5,197.167 147.5,198.833 147.5,200.5C 146.596,201.209 146.263,202.209 146.5,203.5C 141.478,203.696 136.478,202.696 131.5,200.5C 130.197,201.718 129.197,201.385 128.5,199.5C 125.565,199.899 122.731,199.899 120,199.5C 118,196.833 116,196.833 114,199.5C 113.667,198.833 113.333,198.167 113,197.5C 110.639,198.107 108.139,198.107 105.5,197.5C 110.681,192.157 116.348,187.323 122.5,183C 147.728,171.388 174.062,168.055 201.5,173C 237.211,179.066 265.377,196.9 286,226.5C 287.555,231.382 287.888,236.382 287,241.5C 284.933,247.867 282.766,254.201 280.5,260.5 Z"/></g>
<g><path style="opacity:1" fill="#010808" d="M 651.5,184.5 C 653.602,189.489 655.435,194.823 657,200.5C 658.25,203.916 660.417,206.583 663.5,208.5C 661.45,209.663 659.45,209.496 657.5,208C 652.29,200.891 650.29,193.057 651.5,184.5 Z"/></g>
<g><path style="opacity:1" fill="#004944" d="M 105.5,197.5 C 108.139,198.107 110.639,198.107 113,197.5C 113.333,198.167 113.667,198.833 114,199.5C 116,196.833 118,196.833 120,199.5C 122.731,199.899 125.565,199.899 128.5,199.5C 129.197,201.385 130.197,201.718 131.5,200.5C 136.478,202.696 141.478,203.696 146.5,203.5C 146.263,202.209 146.596,201.209 147.5,200.5C 147.543,203.91 147.043,207.243 146,210.5C 145.481,211.516 144.647,212.182 143.5,212.5C 138.959,210.82 134.293,209.653 129.5,209C 117.46,208.419 105.46,208.419 93.5,209C 96.7098,204.289 100.71,200.456 105.5,197.5 Z"/></g>
<g><path style="opacity:1" fill="#000707" d="M 564.5,240.5 C 568.956,242.892 573.623,245.058 578.5,247C 580.559,248.185 580.726,249.352 579,250.5C 572.771,248.258 566.604,245.925 560.5,243.5C 557.978,241.639 555.478,239.639 553,237.5C 548.667,231.5 544.333,225.5 540,219.5C 537.517,214.821 537.017,209.988 538.5,205C 539.449,204.383 540.282,204.549 541,205.5C 540.626,207.769 540.626,210.102 541,212.5C 543.833,218.17 547.166,223.503 551,228.5C 554.428,233.765 558.928,237.765 564.5,240.5 Z"/></g>
<g><path style="opacity:0.506" fill="#043332" d="M 475.5,204.5 C 475.573,206.027 474.906,207.027 473.5,207.5C 473.427,205.973 474.094,204.973 475.5,204.5 Z"/></g>
<g><path style="opacity:1" fill="#004943" d="M 151.5,205.5 C 152.73,206.606 153.896,207.606 155,208.5C 155.667,207.833 156.333,207.167 157,206.5C 158.969,208.387 161.302,209.72 164,210.5C 164.333,210.167 164.667,209.833 165,209.5C 165.317,211.301 165.984,211.634 167,210.5C 168,211.833 169,213.167 170,214.5C 170.333,214.167 170.667,213.833 171,213.5C 176.501,215.489 181.335,217.489 185.5,219.5C 185.047,225.124 182.047,227.624 176.5,227C 168.001,221.777 159.001,217.61 149.5,214.5C 149.167,214.167 148.833,213.833 148.5,213.5C 149.516,210.718 150.516,208.051 151.5,205.5 Z"/></g>
<g><path style="opacity:1" fill="#004843" d="M 658.5,212.5 C 645.446,215.803 632.946,220.803 621,227.5C 616.705,225.032 612.871,222.032 609.5,218.5C 610.482,217.859 611.482,217.193 612.5,216.5C 615.676,216.635 618.842,216.968 622,217.5C 623.987,216.782 625.821,215.782 627.5,214.5C 629.671,214.727 631.838,215.06 634,215.5C 634.368,214.09 635.201,213.09 636.5,212.5C 638.725,213.101 640.891,213.434 643,213.5C 644.791,211.487 646.125,211.487 647,213.5C 648.019,212.313 649.186,211.313 650.5,210.5C 653.311,211.08 655.977,211.746 658.5,212.5 Z"/></g>
<g><path style="opacity:1" fill="#004943" d="M 117.5,251.5 C 119.831,251.141 119.665,250.474 117,249.5C 116.667,248.5 116.333,247.5 116,246.5C 115.282,247.451 114.449,247.617 113.5,247C 114.451,246.282 114.617,245.449 114,244.5C 112.817,245.731 111.651,245.731 110.5,244.5C 106.733,240.597 102.899,236.93 99,233.5C 99.0278,229.263 98.1944,225.096 96.5,221C 98.8912,220.309 98.8912,219.309 96.5,218C 97.3366,216.989 97.67,215.822 97.5,214.5C 96.1667,214.5 94.8333,214.5 93.5,214.5C 98.59,213.035 103.923,212.368 109.5,212.5C 112.833,212.833 116.167,213.167 119.5,213.5C 113.845,219.7 114.178,225.534 120.5,231C 129.77,236.468 139.436,241.135 149.5,245C 155.087,248.71 160.587,252.543 166,256.5C 167.767,259.157 166.934,260.99 163.5,262C 159.5,262.667 155.5,262.667 151.5,262C 140.336,257.554 129.003,254.054 117.5,251.5 Z"/></g>
<g><path style="opacity:1" fill="#00585b" d="M 93.5,214.5 C 94.8333,214.5 96.1667,214.5 97.5,214.5C 97.67,215.822 97.3366,216.989 96.5,218C 98.8912,219.309 98.8912,220.309 96.5,221C 98.1944,225.096 99.0278,229.263 99,233.5C 102.899,236.93 106.733,240.597 110.5,244.5C 111.651,245.731 112.817,245.731 114,244.5C 114.617,245.449 114.451,246.282 113.5,247C 114.449,247.617 115.282,247.451 116,246.5C 116.333,247.5 116.667,248.5 117,249.5C 119.665,250.474 119.831,251.141 117.5,251.5C 111.771,251.212 106.104,251.546 100.5,252.5C 86.9845,243.159 82.9845,230.826 88.5,215.5C 90.0709,214.691 91.7376,214.357 93.5,214.5 Z"/></g>
<g><path style="opacity:1" fill="#004944" d="M 696.5,222.5 C 696.249,224.17 695.582,225.67 694.5,227C 695.321,230.953 693.988,234.286 690.5,237C 691.167,237.333 691.833,237.667 692.5,238C 691.167,240.667 689.167,242.667 686.5,244C 688.901,244.805 688.734,245.638 686,246.5C 685.517,247.448 685.351,248.448 685.5,249.5C 684.127,249.343 682.793,249.51 681.5,250C 679.589,252.543 677.589,255.043 675.5,257.5C 673.066,258.91 670.732,260.41 668.5,262C 669.711,262.893 669.711,263.726 668.5,264.5C 663.371,266.663 658.371,269.83 653.5,274C 653.728,274.399 654.062,274.565 654.5,274.5C 647.518,277.324 640.518,277.157 633.5,274C 630.277,270.888 629.777,267.388 632,263.5C 643.993,260.67 654.993,255.67 665,248.5C 672.653,239.202 674.487,228.868 670.5,217.5C 677.181,216.359 683.847,216.526 690.5,218C 692.747,219.277 694.747,220.777 696.5,222.5 Z"/></g>
<g><path style="opacity:1" fill="#004944" d="M 604.5,219.5 C 607.944,223.061 611.944,225.894 616.5,228C 617.451,228.718 617.617,229.551 617,230.5C 603.258,240.55 590.258,251.55 578,263.5C 574.501,267.672 571.834,272.338 570,277.5C 568.5,279 567,280.5 565.5,282C 552.87,281.118 540.537,278.951 528.5,275.5C 529.931,274.918 531.264,274.085 532.5,273C 532.167,272.667 531.833,272.333 531.5,272C 533.455,271.047 535.122,269.713 536.5,268C 535.167,266.16 535.334,265.66 537,266.5C 537.837,264.156 539.171,262.156 541,260.5C 541.333,260.833 541.667,261.167 542,261.5C 543.871,259.217 545.371,256.717 546.5,254C 549.927,252.204 553.094,250.037 556,247.5C 558.129,248.863 558.629,248.529 557.5,246.5C 558.34,245.265 559.34,244.265 560.5,243.5C 566.604,245.925 572.771,248.258 579,250.5C 580.726,249.352 580.559,248.185 578.5,247C 573.623,245.058 568.956,242.892 564.5,240.5C 567.34,239.577 569.674,237.91 571.5,235.5C 573.078,234.702 574.744,234.202 576.5,234C 575.833,233.667 575.167,233.333 574.5,233C 575.766,232.691 576.933,232.191 578,231.5C 578.333,231.833 578.667,232.167 579,232.5C 579.483,231.552 579.649,230.552 579.5,229.5C 582.099,229.451 584.266,228.451 586,226.5C 586.333,226.833 586.667,227.167 587,227.5C 588.507,226.495 589.673,225.162 590.5,223.5C 591.293,223.931 592.127,224.265 593,224.5C 595.481,222.925 597.981,221.259 600.5,219.5C 601.995,220.705 603.328,220.705 604.5,219.5 Z"/></g>
<g><path style="opacity:1" fill="#013535" d="M 709.5,212.5 C 710.651,217.65 710.817,222.984 710,228.5C 709.283,227.956 708.783,227.289 708.5,226.5C 709.486,222.03 709.819,217.363 709.5,212.5 Z"/></g>
<g><path style="opacity:1" fill="#004944" d="M 190.5,219.5 C 191.502,221.011 192.169,222.678 192.5,224.5C 194.854,224.838 197.187,225.338 199.5,226C 201.821,228.774 204.821,230.274 208.5,230.5C 210.919,232.587 213.419,234.587 216,236.5C 217.766,237.233 219.599,237.567 221.5,237.5C 221.5,238.5 221.5,239.5 221.5,240.5C 223.167,240.5 224.833,240.5 226.5,240.5C 226.343,241.873 226.51,243.207 227,244.5C 227.414,244.043 227.914,243.709 228.5,243.5C 231.461,244.183 231.795,245.016 229.5,246C 230.563,247.188 231.897,247.688 233.5,247.5C 229.335,257.572 222.001,261.905 211.5,260.5C 203.557,249.722 194.39,240.056 184,231.5C 186.381,227.746 188.548,223.746 190.5,219.5 Z"/></g>
<g><path style="opacity:1" fill="#00585b" d="M 696.5,222.5 C 699.464,224.962 702.297,227.629 705,230.5C 705.667,233.5 705.667,236.5 705,239.5C 703.248,242.672 701.248,245.672 699,248.5C 693.167,255.667 686.667,262.167 679.5,268C 671.394,270.989 663.061,273.155 654.5,274.5C 654.062,274.565 653.728,274.399 653.5,274C 658.371,269.83 663.371,266.663 668.5,264.5C 669.711,263.726 669.711,262.893 668.5,262C 670.732,260.41 673.066,258.91 675.5,257.5C 677.589,255.043 679.589,252.543 681.5,250C 682.793,249.51 684.127,249.343 685.5,249.5C 685.351,248.448 685.517,247.448 686,246.5C 688.734,245.638 688.901,244.805 686.5,244C 689.167,242.667 691.167,240.667 692.5,238C 691.833,237.667 691.167,237.333 690.5,237C 693.988,234.286 695.321,230.953 694.5,227C 695.582,225.67 696.249,224.17 696.5,222.5 Z"/></g>
<g><path style="opacity:1" fill="#004943" d="M 237.5,250.5 C 239.598,254.434 242.598,257.6 246.5,260C 246.167,260.333 245.833,260.667 245.5,261C 247.944,261.804 249.778,263.304 251,265.5C 256.414,265.336 262.247,264.669 268.5,263.5C 270.673,261.692 272.507,261.692 274,263.5C 277.047,262.831 279.213,261.831 280.5,260.5C 277.146,269.373 272.146,277.207 265.5,284C 258.833,288 252.167,292 245.5,296C 240.09,298.382 234.424,299.549 228.5,299.5C 228.322,296.784 227.822,294.117 227,291.5C 223.518,285.533 220.851,279.199 219,272.5C 217.224,269.059 215.057,265.892 212.5,263C 215.652,264.186 218.985,264.519 222.5,264C 228.967,261.028 233.967,256.528 237.5,250.5 Z"/></g>
<g><path style="opacity:1" fill="#00595b" d="M 180.5,271.5 C 177.285,273.718 173.618,274.885 169.5,275C 168.789,276.255 167.956,277.421 167,278.5C 160.493,276.553 153.993,274.387 147.5,272C 145.559,271.257 143.726,271.424 142,272.5C 141.5,272 141,271.5 140.5,271C 136.579,270.797 132.745,270.297 129,269.5C 126.667,270.167 124.333,270.833 122,271.5C 121.667,270.833 121.333,270.167 121,269.5C 120.027,273.016 118.527,273.349 116.5,270.5C 114.803,270.899 113.137,271.399 111.5,272C 111.833,272.333 112.167,272.667 112.5,273C 108.672,275.295 104.672,277.295 100.5,279C 101.167,279.333 101.833,279.667 102.5,280C 100.139,281.669 97.8055,283.335 95.5,285C 95.8333,285.333 96.1667,285.667 96.5,286C 94.5974,291.342 93.2641,296.842 92.5,302.5C 93.2739,303.711 94.1072,303.711 95,302.5C 95.484,304.193 94.984,305.527 93.5,306.5C 80.0563,300.938 75.8896,291.271 81,277.5C 83.3581,281.358 86.5248,284.358 90.5,286.5C 91.5827,285.635 91.7494,284.635 91,283.5C 86.2568,280.341 83.9235,276.008 84,270.5C 87.8837,264.641 93.0504,260.308 99.5,257.5C 100.142,261.023 101.308,264.356 103,267.5C 104.808,269.843 106.974,270.51 109.5,269.5C 105.328,266.152 103.661,261.819 104.5,256.5C 120.129,257.324 135.129,260.824 149.5,267C 158.355,268.992 166.189,267.159 173,261.5C 177.668,263.156 180.168,266.49 180.5,271.5 Z"/></g>
<g><path style="opacity:1" fill="#00595b" d="M 680.5,283.5 C 679.778,283.918 679.278,284.584 679,285.5C 677.413,284.273 676.079,284.606 675,286.5C 674.667,286.167 674.333,285.833 674,285.5C 671.667,286.167 669.333,286.833 667,287.5C 666.667,286.833 666.333,286.167 666,285.5C 662.452,287.718 658.618,289.385 654.5,290.5C 653.459,288.009 652.626,288.009 652,290.5C 651.586,290.043 651.086,289.709 650.5,289.5C 649.051,290.617 647.384,291.284 645.5,291.5C 636.177,290.392 627.177,290.392 618.5,291.5C 616.018,289.539 613.352,287.706 610.5,286C 611.34,284.334 610.84,284.167 609,285.5C 608.283,284.956 607.783,284.289 607.5,283.5C 610.757,274.409 616.923,268.076 626,264.5C 625.749,271.843 628.916,277.01 635.5,280C 641.129,281.197 646.796,281.53 652.5,281C 663.076,278.294 673.743,276.127 684.5,274.5C 684.076,277.918 682.742,280.918 680.5,283.5 Z"/></g>
<g><path style="opacity:1" fill="#004944" d="M 180.5,271.5 C 182.349,279.286 179.349,284.453 171.5,287C 166.833,287.667 162.167,287.667 157.5,287C 148.3,284.933 139.3,282.266 130.5,279C 111.853,275.366 102.686,282.866 103,301.5C 103.975,304.76 105.142,307.927 106.5,311C 101.714,310.794 97.381,309.294 93.5,306.5C 94.984,305.527 95.484,304.193 95,302.5C 94.1072,303.711 93.2739,303.711 92.5,302.5C 93.2641,296.842 94.5974,291.342 96.5,286C 96.1667,285.667 95.8333,285.333 95.5,285C 97.8055,283.335 100.139,281.669 102.5,280C 101.833,279.667 101.167,279.333 100.5,279C 104.672,277.295 108.672,275.295 112.5,273C 112.167,272.667 111.833,272.333 111.5,272C 113.137,271.399 114.803,270.899 116.5,270.5C 118.527,273.349 120.027,273.016 121,269.5C 121.333,270.167 121.667,270.833 122,271.5C 124.333,270.833 126.667,270.167 129,269.5C 132.745,270.297 136.579,270.797 140.5,271C 141,271.5 141.5,272 142,272.5C 143.726,271.424 145.559,271.257 147.5,272C 153.993,274.387 160.493,276.553 167,278.5C 167.956,277.421 168.789,276.255 169.5,275C 173.618,274.885 177.285,273.718 180.5,271.5 Z"/></g>
<g><path style="opacity:1" fill="#00595b" d="M 719.5,319.5 C 716.875,318.542 716.875,317.376 719.5,316C 718.886,314.87 718.886,313.537 719.5,312C 718.656,309.905 717.656,307.905 716.5,306C 716.721,304.201 717.054,302.368 717.5,300.5C 716.738,300.089 715.738,299.923 714.5,300C 715.634,298.984 715.301,298.317 713.5,298C 713.833,297.667 714.167,297.333 714.5,297C 713.359,295.383 712.526,293.55 712,291.5C 711.667,292.5 711.333,293.5 711,294.5C 709.482,290.847 707.649,288.181 705.5,286.5C 701.22,284.883 696.887,283.883 692.5,283.5C 690.547,284.156 688.547,284.489 686.5,284.5C 686.5,283.5 686.5,282.5 686.5,281.5C 686.952,278.797 687.619,276.13 688.5,273.5C 698.07,271.592 707.737,271.092 717.5,272C 720.329,273.247 722.995,274.747 725.5,276.5C 725.887,278.731 726.053,281.064 726,283.5C 728.071,280.584 729.405,280.918 730,284.5C 731.415,297.747 727.915,309.413 719.5,319.5 Z"/></g>
<g><path style="opacity:1" fill="#004944" d="M 686.5,281.5 C 686.5,282.5 686.5,283.5 686.5,284.5C 688.547,284.489 690.547,284.156 692.5,283.5C 696.887,283.883 701.22,284.883 705.5,286.5C 707.649,288.181 709.482,290.847 711,294.5C 711.333,293.5 711.667,292.5 712,291.5C 712.526,293.55 713.359,295.383 714.5,297C 714.167,297.333 713.833,297.667 713.5,298C 715.301,298.317 715.634,298.984 714.5,300C 715.738,299.923 716.738,300.089 717.5,300.5C 717.054,302.368 716.721,304.201 716.5,306C 717.656,307.905 718.656,309.905 719.5,312C 718.886,313.537 718.886,314.87 719.5,316C 716.875,317.376 716.875,318.542 719.5,319.5C 717.588,322.919 715.088,325.919 712,328.5C 714.687,317.761 713.353,307.427 708,297.5C 706.833,295 705,293.167 702.5,292C 692.333,289.808 682.333,290.474 672.5,294C 657.101,302.01 640.768,305.01 623.5,303C 617.013,301.508 611.513,298.341 607,293.5C 604.882,289.901 605.049,286.568 607.5,283.5C 607.783,284.289 608.283,284.956 609,285.5C 610.84,284.167 611.34,284.334 610.5,286C 613.352,287.706 616.018,289.539 618.5,291.5C 627.177,290.392 636.177,290.392 645.5,291.5C 647.384,291.284 649.051,290.617 650.5,289.5C 651.086,289.709 651.586,290.043 652,290.5C 652.626,288.009 653.459,288.009 654.5,290.5C 658.618,289.385 662.452,287.718 666,285.5C 666.333,286.167 666.667,286.833 667,287.5C 669.333,286.833 671.667,286.167 674,285.5C 674.333,285.833 674.667,286.167 675,286.5C 676.079,284.606 677.413,284.273 679,285.5C 679.278,284.584 679.778,283.918 680.5,283.5C 680.47,284.497 680.97,285.164 682,285.5C 684.007,284.656 685.507,283.323 686.5,281.5 Z"/></g>
</svg>
