<?xml version="1.0" encoding="UTF-8"?>
<!DOCTYPE svg PUBLIC "-//W3C//DTD SVG 1.1//EN" "http://www.w3.org/Graphics/SVG/1.1/DTD/svg11.dtd">
<svg xmlns="http://www.w3.org/2000/svg" version="1.1" width="862px" height="862px" style="shape-rendering:geometricPrecision; text-rendering:geometricPrecision; image-rendering:optimizeQuality; fill-rule:evenodd; clip-rule:evenodd" xmlns:xlink="http://www.w3.org/1999/xlink">
<g><path style="opacity:0.994" fill="#130c08" d="M 427.5,213.5 C 430.696,214.112 433.696,214.112 436.5,213.5C 456.851,207.882 476.518,200.382 495.5,191C 539.434,164.086 578.267,130.92 612,91.5C 623.718,75.0452 633.551,57.7118 641.5,39.5C 643.784,43.0917 645.284,47.0917 646,51.5C 647.981,58.7292 648.647,66.0625 648,73.5C 640.855,110.937 630.855,147.604 618,183.5C 610.177,198.812 603.177,214.479 597,230.5C 591.559,238.38 586.892,246.714 583,255.5C 579.213,260.956 575.046,266.123 570.5,271C 547.78,274.587 525.113,274.253 502.5,270C 475.47,261.573 451.97,247.407 432,227.5C 428.906,223.067 427.406,218.4 427.5,213.5 Z"/></g>
<g><path style="opacity:1" fill="#814327" d="M 639.5,86.5 C 638.994,83.5687 638.994,80.7354 639.5,78C 639.05,76.7147 638.383,75.548 637.5,74.5C 637.454,71.6945 637.787,69.0279 638.5,66.5C 638.145,65.4777 637.478,64.811 636.5,64.5C 637.989,62.1949 639.489,59.8616 641,57.5C 643.053,67.3957 642.553,77.0623 639.5,86.5 Z"/></g>
<g><path style="opacity:1" fill="#906340" d="M 636.5,64.5 C 637.478,64.811 638.145,65.4777 638.5,66.5C 637.787,69.0279 637.454,71.6945 637.5,74.5C 638.383,75.548 639.05,76.7147 639.5,78C 638.994,80.7354 638.994,83.5687 639.5,86.5C 632.02,119.093 622.687,151.093 611.5,182.5C 609.394,184.521 607.061,186.354 604.5,188C 605.654,188.914 605.487,189.747 604,190.5C 603.667,190.167 603.333,189.833 603,189.5C 602.517,190.448 602.351,191.448 602.5,192.5C 598.841,193.315 596.174,195.481 594.5,199C 593.167,199.667 591.833,200.333 590.5,201C 589.359,201.741 589.359,202.575 590.5,203.5C 588.631,204.624 586.631,205.457 584.5,206C 583.167,206.667 583.167,207.333 584.5,208C 583.377,209.044 582.044,209.71 580.5,210C 577.388,212.963 574.055,216.463 570.5,220.5C 568.988,221.862 567.488,222.196 566,221.5C 565.626,222.416 565.126,223.25 564.5,224C 561.321,226.334 557.988,228.501 554.5,230.5C 538.593,226.629 524.759,218.962 513,207.5C 508.996,202.48 507.663,196.813 509,190.5C 523.545,181.231 537.545,171.231 551,160.5C 554.322,165.804 557.655,171.138 561,176.5C 568.629,186.241 578.463,190.241 590.5,188.5C 573.26,184.777 561.26,174.611 554.5,158C 575.614,139.22 595.781,119.387 615,98.5C 623.181,87.8167 630.348,76.4834 636.5,64.5 Z"/></g>
<g><path style="opacity:0.994" fill="#110a06" d="M 163.5,81.5 C 163.402,83.5529 164.069,85.2196 165.5,86.5C 165.5,86.8333 165.5,87.1667 165.5,87.5C 165.793,93.675 167.459,99.3416 170.5,104.5C 170.415,107.649 171.415,110.316 173.5,112.5C 175.262,119.127 177.595,125.461 180.5,131.5C 182.538,135.261 184.204,139.261 185.5,143.5C 185.427,145.027 186.094,146.027 187.5,146.5C 188.674,147.514 189.34,148.847 189.5,150.5C 189.427,152.027 190.094,153.027 191.5,153.5C 191.738,155.404 192.738,156.738 194.5,157.5C 201.469,166.81 208.469,176.143 215.5,185.5C 216.757,188.427 218.757,190.761 221.5,192.5C 224.297,194.795 226.964,197.295 229.5,200C 238.178,205.339 246.511,211.173 254.5,217.5C 255.733,219.796 257.733,221.13 260.5,221.5C 262.992,223.768 265.658,224.768 268.5,224.5C 269.833,224.833 271.167,225.167 272.5,225.5C 273.784,227.614 275.784,228.614 278.5,228.5C 279.93,228.421 281.264,228.754 282.5,229.5C 287.333,227.167 290.5,228.834 292,234.5C 292.497,237.146 292.664,239.813 292.5,242.5C 291.883,242.611 291.383,242.944 291,243.5C 290.433,246.168 289.933,248.834 289.5,251.5C 287.841,256.827 285.174,261.493 281.5,265.5C 280.094,265.973 279.427,266.973 279.5,268.5C 278.974,270.23 277.974,271.564 276.5,272.5C 273.757,274.239 271.757,276.573 270.5,279.5C 266.878,283.308 262.878,286.641 258.5,289.5C 255.638,290.247 253.638,291.914 252.5,294.5C 252.167,294.5 251.833,294.5 251.5,294.5C 251.565,294.062 251.399,293.728 251,293.5C 249.482,294.163 248.315,295.163 247.5,296.5C 244.386,298.391 241.052,299.724 237.5,300.5C 234.612,299.99 232.279,300.656 230.5,302.5C 227.498,303.643 224.498,303.643 221.5,302.5C 220.289,301.28 220.289,300.113 221.5,299C 219.907,298.051 218.574,296.885 217.5,295.5C 216.089,293.086 214.089,291.419 211.5,290.5C 207.833,287.5 204.5,284.167 201.5,280.5C 200.5,278.833 199.167,277.5 197.5,276.5C 192.794,272.704 188.794,268.371 185.5,263.5C 184.92,261.251 183.587,259.585 181.5,258.5C 179.1,256.704 177.433,254.37 176.5,251.5C 176.13,248.733 174.796,246.733 172.5,245.5C 172.539,242.911 171.539,240.911 169.5,239.5C 169.573,237.973 168.906,236.973 167.5,236.5C 164.659,232.151 162.326,227.484 160.5,222.5C 157.345,213.691 154.012,205.025 150.5,196.5C 149.13,193.381 148.13,190.048 147.5,186.5C 147.258,182.521 146.258,178.854 144.5,175.5C 144.029,171.644 143.362,167.811 142.5,164C 142.316,162.624 141.649,161.791 140.5,161.5C 140.5,161.167 140.5,160.833 140.5,160.5C 141.147,159.726 141.48,158.726 141.5,157.5C 141.36,155.97 140.693,154.97 139.5,154.5C 139.5,144.167 139.5,133.833 139.5,123.5C 141.597,122.121 141.93,120.455 140.5,118.5C 140.5,117.833 140.5,117.167 140.5,116.5C 142.519,115.462 142.853,114.128 141.5,112.5C 141.5,112.167 141.5,111.833 141.5,111.5C 142.586,111.38 143.253,110.713 143.5,109.5C 144.812,105.888 145.812,102.221 146.5,98.5C 147.655,94.2025 149.321,90.2025 151.5,86.5C 153.008,84.8185 154.008,82.8185 154.5,80.5C 155.906,80.0269 156.573,79.0269 156.5,77.5C 157.261,76.6091 158.261,75.9424 159.5,75.5C 161.252,77.2459 162.585,79.2459 163.5,81.5 Z"/></g>
<g><path style="opacity:0.212" fill="#5f3928" d="M 156.5,77.5 C 156.573,79.0269 155.906,80.0269 154.5,80.5C 154.427,78.9731 155.094,77.9731 156.5,77.5 Z"/></g>
<g><path style="opacity:0.451" fill="#5d3724" d="M 154.5,80.5 C 154.008,82.8185 153.008,84.8185 151.5,86.5C 151.461,83.911 152.461,81.911 154.5,80.5 Z"/></g>
<g><path style="opacity:0.016" fill="#67442d" d="M 163.5,81.5 C 164.931,82.7804 165.598,84.4471 165.5,86.5C 164.069,85.2196 163.402,83.5529 163.5,81.5 Z"/></g>
<g><path style="opacity:1" fill="#824125" d="M 162.5,94.5 C 158.478,95.4007 157.811,97.234 160.5,100C 158.519,100.605 158.185,101.605 159.5,103C 157.73,107.168 157.397,111.334 158.5,115.5C 158.029,117.246 157.362,118.913 156.5,120.5C 157.833,122.833 157.833,125.167 156.5,127.5C 156.818,128.647 157.484,129.481 158.5,130C 157.121,133.081 157.787,136.081 160.5,139C 159.833,139.333 159.167,139.667 158.5,140C 159.562,142.791 160.895,145.457 162.5,148C 162.167,148.333 161.833,148.667 161.5,149C 162.313,150.314 163.313,151.481 164.5,152.5C 164.291,153.086 163.957,153.586 163.5,154C 165.953,155.88 167.953,158.213 169.5,161C 169.167,161.333 168.833,161.667 168.5,162C 171.737,167.457 174.737,172.79 177.5,178C 176.978,178.561 176.645,179.228 176.5,180C 178.429,181.694 179.429,183.861 179.5,186.5C 180.5,186.5 181.5,186.5 182.5,186.5C 182.472,188.582 183.139,190.416 184.5,192C 184.167,192.333 183.833,192.667 183.5,193C 186.08,196.399 188.747,199.565 191.5,202.5C 189.883,203.972 187.883,204.639 185.5,204.5C 183.68,204.351 182.18,203.684 181,202.5C 180.28,204.112 180.446,205.612 181.5,207C 185.188,207.45 188.854,207.283 192.5,206.5C 192.953,207.458 193.619,208.292 194.5,209C 194.167,209.333 193.833,209.667 193.5,210C 195.833,211 197.5,212.667 198.5,215C 198.5,216 198.5,217 198.5,218C 199.416,218.374 200.25,218.874 201,219.5C 202,222.167 203,224.833 204,227.5C 204.333,227.167 204.667,226.833 205,226.5C 205.684,227.784 205.517,228.951 204.5,230C 205.973,230.71 206.64,231.876 206.5,233.5C 207.552,233.351 208.552,233.517 209.5,234C 209.167,234.333 208.833,234.667 208.5,235C 210.702,239.097 213.368,242.764 216.5,246C 216.5,247.333 216.5,248.667 216.5,250C 218.883,250.065 219.55,250.898 218.5,252.5C 218.855,253.522 219.522,254.189 220.5,254.5C 219.086,256.054 217.419,257.388 215.5,258.5C 213.595,256.942 212.761,257.275 213,259.5C 213.725,260.059 214.558,260.392 215.5,260.5C 218.183,259.49 220.849,258.49 223.5,257.5C 223.918,258.222 224.584,258.722 225.5,259C 224.209,261.09 224.876,262.424 227.5,263C 227.167,263.333 226.833,263.667 226.5,264C 228.833,265 230.5,266.667 231.5,269C 231.5,270.333 231.5,271.667 231.5,273C 232.715,275.096 233.549,274.929 234,272.5C 234.121,274.727 234.954,276.56 236.5,278C 236.167,278.333 235.833,278.667 235.5,279C 236.667,279.5 237.5,280.333 238,281.5C 238.333,281.167 238.667,280.833 239,280.5C 239.494,282.134 239.66,283.801 239.5,285.5C 241.942,285.354 242.609,286.187 241.5,288C 242.539,289.617 243.539,290.783 244.5,291.5C 238.71,295.93 232.21,297.596 225,296.5C 201.554,277.065 182.554,254.065 168,227.5C 158.281,206.342 150.947,184.342 146,161.5C 141.539,135.27 145.206,110.27 157,86.5C 157.689,85.6433 158.522,84.9767 159.5,84.5C 161.119,87.6423 162.119,90.9756 162.5,94.5 Z"/></g>
<g><path style="opacity:1" fill="#8f6140" d="M 162.5,94.5 C 166.906,109.053 171.906,123.386 177.5,137.5C 177.251,142.083 175.918,146.249 173.5,150C 177.089,150.092 179.256,148.259 180,144.5C 188.664,159.494 198.497,173.661 209.5,187C 206.92,190.158 204.587,193.492 202.5,197C 199.09,199.372 195.423,201.205 191.5,202.5C 188.747,199.565 186.08,196.399 183.5,193C 183.833,192.667 184.167,192.333 184.5,192C 183.139,190.416 182.472,188.582 182.5,186.5C 181.5,186.5 180.5,186.5 179.5,186.5C 179.429,183.861 178.429,181.694 176.5,180C 176.645,179.228 176.978,178.561 177.5,178C 174.737,172.79 171.737,167.457 168.5,162C 168.833,161.667 169.167,161.333 169.5,161C 167.953,158.213 165.953,155.88 163.5,154C 163.957,153.586 164.291,153.086 164.5,152.5C 163.313,151.481 162.313,150.314 161.5,149C 161.833,148.667 162.167,148.333 162.5,148C 160.895,145.457 159.562,142.791 158.5,140C 159.167,139.667 159.833,139.333 160.5,139C 157.787,136.081 157.121,133.081 158.5,130C 157.484,129.481 156.818,128.647 156.5,127.5C 157.833,125.167 157.833,122.833 156.5,120.5C 157.362,118.913 158.029,117.246 158.5,115.5C 157.397,111.334 157.73,107.168 159.5,103C 158.185,101.605 158.519,100.605 160.5,100C 157.811,97.234 158.478,95.4007 162.5,94.5 Z"/></g>
<g><path style="opacity:0.827" fill="#312016" d="M 165.5,87.5 C 167.741,92.9005 169.408,98.5671 170.5,104.5C 167.459,99.3416 165.793,93.675 165.5,87.5 Z"/></g>
<g><path style="opacity:0.671" fill="#472f1f" d="M 146.5,98.5 C 145.812,102.221 144.812,105.888 143.5,109.5C 143.253,110.713 142.586,111.38 141.5,111.5C 142.595,106.872 144.262,102.539 146.5,98.5 Z"/></g>
<g><path style="opacity:0.804" fill="#412b1b" d="M 170.5,104.5 C 172.02,106.89 173.02,109.557 173.5,112.5C 171.415,110.316 170.415,107.649 170.5,104.5 Z"/></g>
<g><path style="opacity:0.129" fill="#513723" d="M 141.5,112.5 C 142.853,114.128 142.519,115.462 140.5,116.5C 140.833,115.167 141.167,113.833 141.5,112.5 Z"/></g>
<g><path style="opacity:0.251" fill="#5e3a28" d="M 173.5,112.5 C 177.196,118.248 179.53,124.581 180.5,131.5C 177.595,125.461 175.262,119.127 173.5,112.5 Z"/></g>
<g><path style="opacity:0.114" fill="#503322" d="M 140.5,118.5 C 141.93,120.455 141.597,122.121 139.5,123.5C 139.366,121.708 139.699,120.042 140.5,118.5 Z"/></g>
<g><path style="opacity:0.169" fill="#683e2c" d="M 185.5,143.5 C 186.906,143.973 187.573,144.973 187.5,146.5C 186.094,146.027 185.427,145.027 185.5,143.5 Z"/></g>
<g><path style="opacity:0.314" fill="#5c3c25" d="M 189.5,150.5 C 190.906,150.973 191.573,151.973 191.5,153.5C 190.094,153.027 189.427,152.027 189.5,150.5 Z"/></g>
<g><path style="opacity:0.329" fill="#643827" d="M 191.5,153.5 C 193.262,154.262 194.262,155.596 194.5,157.5C 192.738,156.738 191.738,155.404 191.5,153.5 Z"/></g>
<g><path style="opacity:0.349" fill="#523321" d="M 139.5,154.5 C 140.693,154.97 141.36,155.97 141.5,157.5C 141.48,158.726 141.147,159.726 140.5,160.5C 139.85,158.565 139.517,156.565 139.5,154.5 Z"/></g>
<g><path style="opacity:0.569" fill="#4c2f20" d="M 140.5,161.5 C 141.649,161.791 142.316,162.624 142.5,164C 143.362,167.811 144.029,171.644 144.5,175.5C 142.565,171.107 141.232,166.441 140.5,161.5 Z"/></g>
<g><path style="opacity:0.553" fill="#4f3525" d="M 144.5,175.5 C 146.258,178.854 147.258,182.521 147.5,186.5C 145.742,183.146 144.742,179.479 144.5,175.5 Z"/></g>
<g><path style="opacity:1" fill="#824125" d="M 611.5,182.5 C 604.479,197.215 597.979,212.215 592,227.5C 585.891,236.716 580.558,246.383 576,256.5C 570.94,264.868 563.44,268.701 553.5,268C 537.498,269.333 521.831,268.166 506.5,264.5C 511.603,264.021 516.27,262.355 520.5,259.5C 521.086,259.709 521.586,260.043 522,260.5C 523.667,258.833 525.333,257.167 527,255.5C 527.333,255.833 527.667,256.167 528,256.5C 531.825,253.675 535.325,250.508 538.5,247C 538.167,246.667 537.833,246.333 537.5,246C 539.912,243.588 541.912,241.588 543.5,240C 546.697,238.365 549.697,236.532 552.5,234.5C 556.514,234.666 560.514,234.499 564.5,234C 565.624,233.751 566.624,233.251 567.5,232.5C 563.018,231.833 558.684,231.166 554.5,230.5C 557.988,228.501 561.321,226.334 564.5,224C 565.126,223.25 565.626,222.416 566,221.5C 567.488,222.196 568.988,221.862 570.5,220.5C 574.055,216.463 577.388,212.963 580.5,210C 582.044,209.71 583.377,209.044 584.5,208C 583.167,207.333 583.167,206.667 584.5,206C 586.631,205.457 588.631,204.624 590.5,203.5C 589.359,202.575 589.359,201.741 590.5,201C 591.833,200.333 593.167,199.667 594.5,199C 596.174,195.481 598.841,193.315 602.5,192.5C 602.351,191.448 602.517,190.448 603,189.5C 603.333,189.833 603.667,190.167 604,190.5C 605.487,189.747 605.654,188.914 604.5,188C 607.061,186.354 609.394,184.521 611.5,182.5 Z"/></g>
<g><path style="opacity:0.498" fill="#583827" d="M 215.5,185.5 C 218.243,187.239 220.243,189.573 221.5,192.5C 218.757,190.761 216.757,188.427 215.5,185.5 Z"/></g>
<g><path style="opacity:1" fill="#916340" d="M 552.5,234.5 C 549.697,236.532 546.697,238.365 543.5,240C 541.912,241.588 539.912,243.588 537.5,246C 537.833,246.333 538.167,246.667 538.5,247C 535.325,250.508 531.825,253.675 528,256.5C 527.667,256.167 527.333,255.833 527,255.5C 525.333,257.167 523.667,258.833 522,260.5C 521.586,260.043 521.086,259.709 520.5,259.5C 516.27,262.355 511.603,264.021 506.5,264.5C 491.604,261.052 477.937,254.885 465.5,246C 454.079,239.13 444.079,230.63 435.5,220.5C 443.494,218.335 451.494,216.168 459.5,214C 474.679,207.826 489.512,200.993 504,193.5C 504.974,201.947 508.474,209.114 514.5,215C 521.654,220.747 529.321,225.747 537.5,230C 542.183,232.617 547.183,234.117 552.5,234.5 Z"/></g>
<g><path style="opacity:0.016" fill="#5c3a28" d="M 150.5,196.5 C 154.012,205.025 157.345,213.691 160.5,222.5C 155.801,214.408 152.467,205.742 150.5,196.5 Z"/></g>
<g><path style="opacity:0.314" fill="#543623" d="M 427.5,213.5 C 430.344,212.449 433.344,212.449 436.5,213.5C 433.696,214.112 430.696,214.112 427.5,213.5 Z"/></g>
<g><path style="opacity:0.012" fill="#543424" d="M 254.5,217.5 C 256.882,218.351 258.882,219.684 260.5,221.5C 257.733,221.13 255.733,219.796 254.5,217.5 Z"/></g>
<g><path style="opacity:0.055" fill="#553826" d="M 260.5,221.5 C 263.443,221.98 266.11,222.98 268.5,224.5C 265.658,224.768 262.992,223.768 260.5,221.5 Z"/></g>
<g><path style="opacity:1" fill="#100905" d="M 223.5,257.5 C 220.849,258.49 218.183,259.49 215.5,260.5C 214.558,260.392 213.725,260.059 213,259.5C 212.761,257.275 213.595,256.942 215.5,258.5C 217.419,257.388 219.086,256.054 220.5,254.5C 227.097,249.408 233.263,243.741 239,237.5C 242.297,232.372 246.13,227.706 250.5,223.5C 250.833,223.833 251.167,224.167 251.5,224.5C 244.728,237.735 235.395,248.735 223.5,257.5 Z"/></g>
<g><path style="opacity:1" fill="#906240" d="M 244.5,291.5 C 243.539,290.783 242.539,289.617 241.5,288C 242.609,286.187 241.942,285.354 239.5,285.5C 239.66,283.801 239.494,282.134 239,280.5C 238.667,280.833 238.333,281.167 238,281.5C 237.5,280.333 236.667,279.5 235.5,279C 235.833,278.667 236.167,278.333 236.5,278C 234.954,276.56 234.121,274.727 234,272.5C 233.549,274.929 232.715,275.096 231.5,273C 231.5,271.667 231.5,270.333 231.5,269C 230.5,266.667 228.833,265 226.5,264C 226.833,263.667 227.167,263.333 227.5,263C 224.876,262.424 224.209,261.09 225.5,259C 224.584,258.722 223.918,258.222 223.5,257.5C 235.395,248.735 244.728,237.735 251.5,224.5C 251.167,224.167 250.833,223.833 250.5,223.5C 246.13,227.706 242.297,232.372 239,237.5C 233.263,243.741 227.097,249.408 220.5,254.5C 219.522,254.189 218.855,253.522 218.5,252.5C 219.55,250.898 218.883,250.065 216.5,250C 216.5,248.667 216.5,247.333 216.5,246C 213.368,242.764 210.702,239.097 208.5,235C 208.833,234.667 209.167,234.333 209.5,234C 208.552,233.517 207.552,233.351 206.5,233.5C 206.64,231.876 205.973,230.71 204.5,230C 205.517,228.951 205.684,227.784 205,226.5C 204.667,226.833 204.333,227.167 204,227.5C 203,224.833 202,222.167 201,219.5C 200.25,218.874 199.416,218.374 198.5,218C 198.5,217 198.5,216 198.5,215C 197.5,212.667 195.833,211 193.5,210C 193.833,209.667 194.167,209.333 194.5,209C 193.619,208.292 192.953,207.458 192.5,206.5C 202.138,204.029 208.304,198.029 211,188.5C 215.8,194.302 220.967,199.802 226.5,205C 236.341,211.42 246.007,218.087 255.5,225C 265.497,229.61 275.83,233.11 286.5,235.5C 286.666,239.514 286.499,243.514 286,247.5C 277.454,267.211 263.62,281.878 244.5,291.5 Z"/></g>
<g><path style="opacity:0.216" fill="#3e2719" d="M 272.5,225.5 C 274.75,226.13 276.75,227.13 278.5,228.5C 275.784,228.614 273.784,227.614 272.5,225.5 Z"/></g>
<g><path style="opacity:0.027" fill="#764832" d="M 167.5,236.5 C 168.906,236.973 169.573,237.973 169.5,239.5C 168.094,239.027 167.427,238.027 167.5,236.5 Z"/></g>
<g><path style="opacity:0.247" fill="#633c29" d="M 169.5,239.5 C 171.539,240.911 172.539,242.911 172.5,245.5C 170.992,243.819 169.992,241.819 169.5,239.5 Z"/></g>
<g><path style="opacity:0.757" fill="#513624" d="M 172.5,245.5 C 174.796,246.733 176.13,248.733 176.5,251.5C 174.684,249.882 173.351,247.882 172.5,245.5 Z"/></g>
<g><path style="opacity:0.369" fill="#593925" d="M 292.5,242.5 C 292.117,245.811 291.117,248.811 289.5,251.5C 289.933,248.834 290.433,246.168 291,243.5C 291.383,242.944 291.883,242.611 292.5,242.5 Z"/></g>
<g><path style="opacity:0.133" fill="#523223" d="M 181.5,258.5 C 183.587,259.585 184.92,261.251 185.5,263.5C 183.413,262.415 182.08,260.749 181.5,258.5 Z"/></g>
<g><path style="opacity:0.063" fill="#6d452a" d="M 281.5,265.5 C 281.573,267.027 280.906,268.027 279.5,268.5C 279.427,266.973 280.094,265.973 281.5,265.5 Z"/></g>
<g><path style="opacity:0.325" fill="#3e291b" d="M 276.5,272.5 C 275.243,275.427 273.243,277.761 270.5,279.5C 271.757,276.573 273.757,274.239 276.5,272.5 Z"/></g>
<g><path style="opacity:0.004" fill="#754d35" d="M 197.5,276.5 C 199.167,277.5 200.5,278.833 201.5,280.5C 199.167,280.167 197.833,278.833 197.5,276.5 Z"/></g>
<g><path style="opacity:0.078" fill="#55392a" d="M 258.5,289.5 C 256.909,291.633 254.909,293.299 252.5,294.5C 253.638,291.914 255.638,290.247 258.5,289.5 Z"/></g>
<g><path style="opacity:0.443" fill="#583924" d="M 211.5,290.5 C 214.089,291.419 216.089,293.086 217.5,295.5C 214.911,294.581 212.911,292.914 211.5,290.5 Z"/></g>
<g><path style="opacity:0.012" fill="#553724" d="M 251.5,294.5 C 250.486,295.674 249.153,296.34 247.5,296.5C 248.315,295.163 249.482,294.163 251,293.5C 251.399,293.728 251.565,294.062 251.5,294.5 Z"/></g>
<g><path style="opacity:0.761" fill="#41271a" d="M 237.5,300.5 C 235.343,301.407 233.01,302.073 230.5,302.5C 232.279,300.656 234.612,299.99 237.5,300.5 Z"/></g>
</svg>
