<?xml version="1.0" encoding="UTF-8"?>
<!DOCTYPE svg PUBLIC "-//W3C//DTD SVG 1.1//EN" "http://www.w3.org/Graphics/SVG/1.1/DTD/svg11.dtd">
<svg xmlns="http://www.w3.org/2000/svg" version="1.1" width="862px" height="862px" style="shape-rendering:geometricPrecision; text-rendering:geometricPrecision; image-rendering:optimizeQuality; fill-rule:evenodd; clip-rule:evenodd" xmlns:xlink="http://www.w3.org/1999/xlink">
<g><path style="opacity:0.994" fill="#060609" d="M 505.5,18.5 C 529.919,17.7264 553.919,20.5598 577.5,27C 609.101,35.4222 639.767,46.4222 669.5,60C 698.643,78.4613 725.476,99.9613 750,124.5C 769.217,147.939 781.717,174.606 787.5,204.5C 787.255,206.663 786.255,208.33 784.5,209.5C 759.247,199.852 733.247,192.685 706.5,188C 674.881,182.925 645.214,188.259 617.5,204C 595.206,220.746 581.706,242.913 577,270.5C 573.386,276.063 568.219,279.23 561.5,280C 535.059,282.696 509.726,278.696 485.5,268C 468.941,259.107 453.775,248.273 440,235.5C 437.168,231.336 435.001,226.836 433.5,222C 433.645,221.228 433.978,220.561 434.5,220C 452.214,214.488 469.881,208.821 487.5,203C 509.336,194.838 527.502,181.671 542,163.5C 552.415,149.418 554.082,134.418 547,118.5C 546.505,116.527 546.338,114.527 546.5,112.5C 552.944,108.776 559.611,105.276 566.5,102C 576.482,99.0056 586.482,96.339 596.5,94C 561.281,62.2167 520.614,40.05 474.5,27.5C 473.417,26.635 473.251,25.635 474,24.5C 475.816,23.6705 477.649,22.8372 479.5,22C 488.308,20.784 496.974,19.6174 505.5,18.5 Z"/></g>
<g><path style="opacity:1" fill="#252536" d="M 531.5,184.5 C 532.053,185.823 531.553,187.156 530,188.5C 529.51,189.793 529.343,191.127 529.5,192.5C 528.448,192.351 527.448,192.517 526.5,193C 526.833,193.333 527.167,193.667 527.5,194C 522.418,199.016 517.751,203.016 513.5,206C 512.216,206.684 511.049,206.517 510,205.5C 506.299,207.473 502.466,209.14 498.5,210.5C 497.833,210.167 497.167,209.833 496.5,209.5C 494.78,210.934 492.78,211.767 490.5,212C 489.716,214.582 488.049,216.249 485.5,217C 484.254,222.028 484.254,227.028 485.5,232C 487.283,235.118 489.45,237.951 492,240.5C 492.333,239.833 492.667,239.167 493,238.5C 495.76,241.784 498.76,242.451 502,240.5C 502.5,241 503,241.5 503.5,242C 506.706,242.296 509.872,242.796 513,243.5C 516.016,243.516 519.016,243.516 522,243.5C 522.5,244 523,244.5 523.5,245C 530.827,245.949 537.993,247.449 545,249.5C 548.375,246.693 552.041,245.026 556,244.5C 558.752,239.47 561.252,233.97 563.5,228C 562.879,225.502 563.545,223.168 565.5,221C 565.167,220.667 564.833,220.333 564.5,220C 568.932,211.526 573.266,203.026 577.5,194.5C 576.466,191.943 577.466,190.609 580.5,190.5C 580.018,186.766 581.351,183.933 584.5,182C 584.167,181.667 583.833,181.333 583.5,181C 589.668,172.006 590.001,162.84 584.5,153.5C 582.851,152.294 581.351,150.961 580,149.5C 575.016,150.67 569.85,150.837 564.5,150C 563.333,150.5 562.5,151.333 562,152.5C 561.667,152.167 561.333,151.833 561,151.5C 559.6,154.385 557.433,156.552 554.5,158C 554.833,158.333 555.167,158.667 555.5,159C 554.333,159.5 553.5,160.333 553,161.5C 552.617,160.944 552.117,160.611 551.5,160.5C 558.503,145.959 559.17,131.126 553.5,116C 559.696,110.255 567.03,106.589 575.5,105C 583.786,103.076 592.119,101.41 600.5,100C 604.638,98.564 605.471,96.064 603,92.5C 598.86,88.3604 594.694,84.1937 590.5,80C 569.173,63.9947 546.507,49.9947 522.5,38C 511.167,34 499.833,30 488.5,26C 509.782,22.4904 531.116,22.8237 552.5,27C 584.655,34.052 615.988,43.7187 646.5,56C 664.917,63.704 681.917,73.704 697.5,86C 711.167,97.6667 724.833,109.333 738.5,121C 755.064,138.925 767.564,159.425 776,182.5C 776.59,189.092 778.09,195.425 780.5,201.5C 757.889,193.93 734.889,187.764 711.5,183C 677.403,176.49 645.403,181.823 615.5,199C 591.457,216.748 577.123,240.415 572.5,270C 561.037,275.169 549.037,276.836 536.5,275C 519.132,274.461 502.799,270.128 487.5,262C 471.881,253.048 457.381,242.548 444,230.5C 442.833,228.167 441.667,225.833 440.5,223.5C 456.581,218.979 472.581,214.146 488.5,209C 503.832,202.341 518.166,194.175 531.5,184.5 Z"/></g>
<g><path style="opacity:0.994" fill="#0d0709" d="M 111.5,108.5 C 117.776,103.893 123.443,98.5595 128.5,92.5C 136.353,85.1529 144.687,78.3196 153.5,72C 170.937,64.1151 187.937,55.4484 204.5,46C 222.928,39.3172 241.928,35.3172 261.5,34C 268.833,33.3333 276.167,33.3333 283.5,34C 284.406,35.6995 284.739,37.5328 284.5,39.5C 282.473,39.3379 280.473,39.5045 278.5,40C 251.079,56.5854 230.079,79.0854 215.5,107.5C 223.11,109.983 230.443,113.149 237.5,117C 239.543,119.009 241.543,121.009 243.5,123C 243.578,128.964 243.411,135.131 243,141.5C 242.488,146.038 240.988,150.204 238.5,154C 248.461,168.641 257.628,183.808 266,199.5C 276.165,211.143 285.665,223.143 294.5,235.5C 285.24,264.602 266.573,285.435 238.5,298C 232.801,299.002 227.301,300.502 222,302.5C 219.446,302.42 217.946,301.086 217.5,298.5C 226.852,273.567 224.685,249.567 211,226.5C 195.302,204.14 174.468,188.64 148.5,180C 123.327,176.617 100.993,182.95 81.5,199C 79.8876,199.72 78.3876,199.554 77,198.5C 77.0751,189.833 77.7417,181.166 79,172.5C 83.4608,161.784 87.1275,150.784 90,139.5C 96.2028,128.403 103.37,118.069 111.5,108.5 Z"/></g>
<g><path style="opacity:1" fill="#252536" d="M 262.5,40.5 C 263.492,40.3284 264.158,40.6618 264.5,41.5C 244.994,56.1699 228.827,73.8366 216,94.5C 213.316,98.8632 211.482,103.53 210.5,108.5C 209.167,108.5 207.833,108.5 206.5,108.5C 206.351,109.552 206.517,110.552 207,111.5C 217.981,113.73 228.148,118.397 237.5,125.5C 239.877,135.643 238.21,144.976 232.5,153.5C 236.662,162.494 241.329,171.161 246.5,179.5C 245.115,178.426 243.949,177.093 243,175.5C 242.517,176.448 242.351,177.448 242.5,178.5C 237.18,179.266 231.846,179.432 226.5,179C 223.469,176.817 221.469,173.984 220.5,170.5C 218.174,169.849 215.841,169.182 213.5,168.5C 209.632,168.6 206.965,170.433 205.5,174C 205.634,180.607 205.634,186.94 205.5,193C 206.416,193.374 207.25,193.874 208,194.5C 209.509,199.018 211.676,203.185 214.5,207C 214.167,207.333 213.833,207.667 213.5,208C 215.333,208.5 216.5,209.667 217,211.5C 220.202,219.432 223.035,227.599 225.5,236C 225.472,237.07 225.139,237.903 224.5,238.5C 219.487,224.653 211.487,212.819 200.5,203C 193.5,197.333 186.5,191.667 179.5,186C 146.676,166.788 114.676,168.288 83.5,190.5C 82.5318,188.393 82.1984,186.059 82.5,183.5C 86.3533,169.423 90.52,155.423 95,141.5C 99.8273,135.337 103.827,128.671 107,121.5C 122.009,104.815 138.509,89.9818 156.5,77C 167.769,70.5325 179.435,64.8658 191.5,60C 202.926,52.0758 215.592,47.0758 229.5,45C 240.525,43.4741 251.525,41.9741 262.5,40.5 Z"/></g>
<g><path style="opacity:1" fill="#3d191b" d="M 262.5,40.5 C 263.386,39.2241 264.386,39.2241 265.5,40.5C 265.376,41.1067 265.043,41.44 264.5,41.5C 264.158,40.6618 263.492,40.3284 262.5,40.5 Z"/></g>
<g><path style="opacity:1" fill="#333340" d="M 561.5,42.5 C 580.667,46.3225 599.334,52.1558 617.5,60C 619.112,60.7203 620.612,60.5536 622,59.5C 625.339,62.7649 629.172,64.0982 633.5,63.5C 636.163,65.6206 638.996,66.2872 642,65.5C 651.768,71.5755 662.268,76.0755 673.5,79C 681.916,84.2027 689.416,89.7027 696,95.5C 696.333,95.1667 696.667,94.8333 697,94.5C 702.867,101.701 709.367,108.201 716.5,114C 716.5,115 716.5,116 716.5,117C 719.505,121.032 723.172,125.032 727.5,129C 727.167,129.333 726.833,129.667 726.5,130C 729.627,132.915 732.96,135.582 736.5,138C 737.712,141.569 739.879,144.402 743,146.5C 747.758,154.637 751.258,162.97 753.5,171.5C 753.291,172.086 752.957,172.586 752.5,173C 754.354,175.296 755.354,177.629 755.5,180C 753.703,180.231 752.036,181.064 750.5,182.5C 749.065,180.599 747.398,180.266 745.5,181.5C 738.319,179.205 730.986,177.538 723.5,176.5C 719.924,175.269 716.424,173.935 713,172.5C 712.586,172.957 712.086,173.291 711.5,173.5C 707.947,173.113 704.614,172.113 701.5,170.5C 700.914,170.709 700.414,171.043 700,171.5C 696.129,170.299 692.129,169.633 688,169.5C 683.297,169.797 678.63,169.797 674,169.5C 672.019,169.629 670.353,170.296 669,171.5C 666.107,171.683 663.107,171.349 660,170.5C 659,171.167 658,171.833 657,172.5C 655.417,172.507 653.751,172.174 652,171.5C 648.564,172.286 645.064,172.953 641.5,173.5C 640.558,173.392 639.725,173.059 639,172.5C 617.119,183.894 605.619,177.394 604.5,153C 600.666,140.49 595.833,128.323 590,116.5C 589.245,113.503 590.078,111.003 592.5,109C 600.668,107.755 608.834,105.589 617,102.5C 617.333,102.833 617.667,103.167 618,103.5C 619.337,101.996 621.004,100.996 623,100.5C 623.333,100.833 623.667,101.167 624,101.5C 625.167,100.333 626.333,99.1667 627.5,98C 631.471,95.5485 635.471,93.8818 639.5,93C 634.294,89.2182 628.794,85.0515 623,80.5C 619.942,79.7495 617.109,77.9161 614.5,75C 612,74.6253 609.667,73.7919 607.5,72.5C 603.962,68.3279 600.128,64.9946 596,62.5C 594.951,63.5171 593.784,63.6838 592.5,63C 590.333,61.5 588.5,59.6667 587,57.5C 585.883,57.6651 584.716,57.9984 583.5,58.5C 575.918,54.8732 568.251,51.5399 560.5,48.5C 560.325,46.3792 560.659,44.3792 561.5,42.5 Z"/></g>
<g><path style="opacity:1" fill="#333340" d="M 220.5,54.5 C 222.506,55.1664 224.34,55.1664 226,54.5C 226.667,55.8333 226.667,57.1667 226,58.5C 224.341,59.8168 223.174,61.4835 222.5,63.5C 221.624,64.2508 220.624,64.7508 219.5,65C 220.517,66.0495 220.684,67.2161 220,68.5C 217.821,71.0109 215.321,73.1776 212.5,75C 213.196,76.488 212.862,77.988 211.5,79.5C 207.374,85.459 202.708,90.959 197.5,96C 197.833,96.3333 198.167,96.6667 198.5,97C 192.975,104.158 189.975,111.991 189.5,120.5C 195.23,119.544 201.23,119.544 207.5,120.5C 210.533,122.698 213.7,124.698 217,126.5C 218.432,129.23 219.599,132.063 220.5,135C 218.223,144.918 213.89,153.585 207.5,161C 205.125,163.853 203.459,167.02 202.5,170.5C 198.655,170.289 194.655,170.122 190.5,170C 187.167,168.667 183.833,167.333 180.5,166C 172.477,163.804 164.31,161.97 156,160.5C 145,161.833 134,161.833 123,160.5C 118.539,161.247 114.039,161.747 109.5,162C 108.251,163.824 107.085,163.657 106,161.5C 104.117,164.024 101.617,165.358 98.5,165.5C 99.6373,158.312 101.471,151.312 104,144.5C 107.291,137.579 110.791,130.913 114.5,124.5C 116.824,124.338 118.491,123.172 119.5,121C 119.167,120.667 118.833,120.333 118.5,120C 122.806,115.694 127.14,111.36 131.5,107C 140.833,99.3333 150.167,91.6667 159.5,84C 164.094,82.1237 168.26,79.6237 172,76.5C 172.414,76.9574 172.914,77.2907 173.5,77.5C 185.548,72.5682 196.715,66.5682 207,59.5C 209,58.1667 211,58.1667 213,59.5C 213.915,58.6721 214.581,57.6721 215,56.5C 215.333,56.8333 215.667,57.1667 216,57.5C 217.652,56.6006 219.152,55.6006 220.5,54.5 Z"/></g>
<g><path style="opacity:0.749" fill="#18181d" d="M 128.5,92.5 C 123.443,98.5595 117.776,103.893 111.5,108.5C 116.557,102.441 122.224,97.1072 128.5,92.5 Z"/></g>
<g><path style="opacity:1" fill="#333340" d="M 531.5,184.5 C 538.573,176.767 545.24,168.767 551.5,160.5C 552.117,160.611 552.617,160.944 553,161.5C 553.5,160.333 554.333,159.5 555.5,159C 555.167,158.667 554.833,158.333 554.5,158C 557.433,156.552 559.6,154.385 561,151.5C 561.333,151.833 561.667,152.167 562,152.5C 562.5,151.333 563.333,150.5 564.5,150C 569.85,150.837 575.016,150.67 580,149.5C 581.351,150.961 582.851,152.294 584.5,153.5C 590.001,162.84 589.668,172.006 583.5,181C 583.833,181.333 584.167,181.667 584.5,182C 581.351,183.933 580.018,186.766 580.5,190.5C 577.466,190.609 576.466,191.943 577.5,194.5C 573.266,203.026 568.932,211.526 564.5,220C 564.833,220.333 565.167,220.667 565.5,221C 563.545,223.168 562.879,225.502 563.5,228C 561.252,233.97 558.752,239.47 556,244.5C 552.041,245.026 548.375,246.693 545,249.5C 537.993,247.449 530.827,245.949 523.5,245C 523,244.5 522.5,244 522,243.5C 519.016,243.516 516.016,243.516 513,243.5C 509.872,242.796 506.706,242.296 503.5,242C 503,241.5 502.5,241 502,240.5C 498.76,242.451 495.76,241.784 493,238.5C 492.667,239.167 492.333,239.833 492,240.5C 489.45,237.951 487.283,235.118 485.5,232C 484.254,227.028 484.254,222.028 485.5,217C 488.049,216.249 489.716,214.582 490.5,212C 492.78,211.767 494.78,210.934 496.5,209.5C 497.167,209.833 497.833,210.167 498.5,210.5C 502.466,209.14 506.299,207.473 510,205.5C 511.049,206.517 512.216,206.684 513.5,206C 517.751,203.016 522.418,199.016 527.5,194C 527.167,193.667 526.833,193.333 526.5,193C 527.448,192.517 528.448,192.351 529.5,192.5C 529.343,191.127 529.51,189.793 530,188.5C 531.553,187.156 532.053,185.823 531.5,184.5 Z"/></g>
<g><path style="opacity:1" fill="#333340" d="M 246.5,179.5 C 247.376,179.369 248.043,179.702 248.5,180.5C 251.227,186.2 253.894,191.867 256.5,197.5C 260.55,206.939 264.05,216.606 267,226.5C 267.333,226.167 267.667,225.833 268,225.5C 269.502,227.795 269.668,230.128 268.5,232.5C 268.728,234.397 269.728,235.73 271.5,236.5C 269.978,238.156 270.311,239.323 272.5,240C 266.922,245.581 262.255,251.748 258.5,258.5C 256.887,259.427 255.221,260.261 253.5,261C 254.654,261.914 254.487,262.747 253,263.5C 252.667,263.167 252.333,262.833 252,262.5C 250.252,267.629 246.752,271.796 241.5,275C 241.833,275.333 242.167,275.667 242.5,276C 237.43,280.527 233.43,280.027 230.5,274.5C 231.776,271.697 231.776,269.03 230.5,266.5C 229.446,256.953 227.446,247.619 224.5,238.5C 225.139,237.903 225.472,237.07 225.5,236C 223.035,227.599 220.202,219.432 217,211.5C 216.5,209.667 215.333,208.5 213.5,208C 213.833,207.667 214.167,207.333 214.5,207C 211.676,203.185 209.509,199.018 208,194.5C 207.25,193.874 206.416,193.374 205.5,193C 205.634,186.94 205.634,180.607 205.5,174C 206.965,170.433 209.632,168.6 213.5,168.5C 215.841,169.182 218.174,169.849 220.5,170.5C 221.469,173.984 223.469,176.817 226.5,179C 231.846,179.432 237.18,179.266 242.5,178.5C 242.351,177.448 242.517,176.448 243,175.5C 243.949,177.093 245.115,178.426 246.5,179.5 Z"/></g>
<g><path style="opacity:1" fill="#390f0d" d="M 82.5,183.5 C 82.1984,186.059 82.5318,188.393 83.5,190.5C 83.44,191.043 83.1067,191.376 82.5,191.5C 81.1997,188.691 81.1997,186.024 82.5,183.5 Z"/></g>
<g><path style="opacity:1" fill="#252537" d="M 256.5,197.5 C 266.043,210.557 276.21,223.223 287,235.5C 286.426,242.675 284.093,249.342 280,255.5C 267.636,274.526 250.636,287.526 229,294.5C 228.5,294.167 228,293.833 227.5,293.5C 229.203,284.606 230.203,275.606 230.5,266.5C 231.776,269.03 231.776,271.697 230.5,274.5C 233.43,280.027 237.43,280.527 242.5,276C 242.167,275.667 241.833,275.333 241.5,275C 246.752,271.796 250.252,267.629 252,262.5C 252.333,262.833 252.667,263.167 253,263.5C 254.487,262.747 254.654,261.914 253.5,261C 255.221,260.261 256.887,259.427 258.5,258.5C 262.255,251.748 266.922,245.581 272.5,240C 270.311,239.323 269.978,238.156 271.5,236.5C 269.728,235.73 268.728,234.397 268.5,232.5C 269.668,230.128 269.502,227.795 268,225.5C 267.667,225.833 267.333,226.167 267,226.5C 264.05,216.606 260.55,206.939 256.5,197.5 Z"/></g>
</svg>
