<?xml version="1.0" encoding="UTF-8"?>
<!DOCTYPE svg PUBLIC "-//W3C//DTD SVG 1.1//EN" "http://www.w3.org/Graphics/SVG/1.1/DTD/svg11.dtd">
<svg xmlns="http://www.w3.org/2000/svg" version="1.1" width="862px" height="862px" style="shape-rendering:geometricPrecision; text-rendering:geometricPrecision; image-rendering:optimizeQuality; fill-rule:evenodd; clip-rule:evenodd" xmlns:xlink="http://www.w3.org/1999/xlink">
<g><path style="opacity:0.992" fill="#0c0108" d="M 427.5,213.5 C 430.696,214.112 433.696,214.112 436.5,213.5C 456.851,207.882 476.518,200.382 495.5,191C 517.431,177.874 538.097,163.04 557.5,146.5C 559.749,145.92 561.415,144.587 562.5,142.5C 564.5,139.833 566.833,137.5 569.5,135.5C 572.427,134.243 574.761,132.243 576.5,129.5C 590.233,116.27 603.066,102.27 615,87.5C 624.918,71.1912 634.251,55.5245 643,40.5C 645.745,49.4667 647.578,58.6334 648.5,68C 647.312,78.9407 645.479,89.7741 643,100.5C 635.941,126.678 628.274,152.678 620,178.5C 611.784,195.598 604.117,212.931 597,230.5C 591.559,238.38 586.892,246.714 583,255.5C 579.213,260.956 575.046,266.123 570.5,271C 547.78,274.587 525.113,274.253 502.5,270C 475.47,261.573 451.97,247.407 432,227.5C 428.906,223.067 427.406,218.4 427.5,213.5 Z"/></g>
<g><path style="opacity:1" fill="#49003b" d="M 640.5,80.5 C 639.801,78.444 638.801,76.444 637.5,74.5C 638.833,73.5 638.833,72.5 637.5,71.5C 638.025,70.8076 638.692,70.3076 639.5,70C 638.669,68.1078 637.669,66.2744 636.5,64.5C 637.989,62.1949 639.489,59.8616 641,57.5C 643.061,65.3372 642.895,73.0038 640.5,80.5 Z"/></g>
<g><path style="opacity:1" fill="#5d0040" d="M 636.5,64.5 C 637.669,66.2744 638.669,68.1078 639.5,70C 638.692,70.3076 638.025,70.8076 637.5,71.5C 638.833,72.5 638.833,73.5 637.5,74.5C 638.801,76.444 639.801,78.444 640.5,80.5C 638.371,93.309 635.538,105.976 632,118.5C 625.83,140.174 618.996,161.507 611.5,182.5C 607.835,184.642 605.335,187.309 604,190.5C 603.667,190.167 603.333,189.833 603,189.5C 602.517,190.448 602.351,191.448 602.5,192.5C 598.418,195.078 594.418,197.911 590.5,201C 589.805,203.466 587.805,205.133 584.5,206C 583.663,207.011 583.33,208.178 583.5,209.5C 580.708,209.452 578.875,210.785 578,213.5C 575.849,214.588 573.682,216.422 571.5,219C 566.236,222.359 560.903,226.192 555.5,230.5C 550.562,230.466 545.896,229.299 541.5,227C 533.57,222.73 525.903,218.064 518.5,213C 510.876,207.263 507.542,199.763 508.5,190.5C 523.298,181.355 537.464,171.355 551,160.5C 554.322,165.804 557.655,171.138 561,176.5C 568.358,185.767 577.858,189.934 589.5,189C 590.833,188.333 590.833,187.667 589.5,187C 573.03,184.209 561.53,175.043 555,159.5C 554.333,158.5 554.333,157.5 555,156.5C 582.113,134.389 606.113,109.389 627,81.5C 630.179,75.8061 633.345,70.1394 636.5,64.5 Z"/></g>
<g><path style="opacity:0.991" fill="#0b0107" d="M 163.5,81.5 C 163.402,83.5529 164.069,85.2196 165.5,86.5C 167.9,93.3682 169.9,100.368 171.5,107.5C 171.402,109.553 172.069,111.22 173.5,112.5C 175.314,118.78 177.647,124.78 180.5,130.5C 182.362,134.75 184.028,139.083 185.5,143.5C 185.75,145.674 186.75,147.341 188.5,148.5C 189.338,148.842 189.672,149.508 189.5,150.5C 189.427,152.027 190.094,153.027 191.5,153.5C 191.738,155.404 192.738,156.738 194.5,157.5C 196.745,160.32 198.745,163.32 200.5,166.5C 200.738,168.404 201.738,169.738 203.5,170.5C 204.167,170.5 204.5,170.833 204.5,171.5C 204.427,173.027 205.094,174.027 206.5,174.5C 207.167,174.5 207.5,174.833 207.5,175.5C 207.427,177.027 208.094,178.027 209.5,178.5C 211.727,180.607 213.727,182.94 215.5,185.5C 216.757,188.427 218.757,190.761 221.5,192.5C 226.69,197.904 232.357,202.57 238.5,206.5C 239.802,208.822 241.802,210.155 244.5,210.5C 249.016,213.256 253.349,216.256 257.5,219.5C 257.973,220.906 258.973,221.573 260.5,221.5C 262.992,223.768 265.658,224.768 268.5,224.5C 269.833,224.833 271.167,225.167 272.5,225.5C 273.784,227.614 275.784,228.614 278.5,228.5C 279.93,228.421 281.264,228.754 282.5,229.5C 285.756,227.162 288.589,227.829 291,231.5C 292.652,235.926 292.818,240.259 291.5,244.5C 290.388,246.599 289.721,248.933 289.5,251.5C 287.841,256.827 285.174,261.493 281.5,265.5C 279.738,266.262 278.738,267.596 278.5,269.5C 278.573,271.027 277.906,272.027 276.5,272.5C 273.757,274.239 271.757,276.573 270.5,279.5C 266.878,283.308 262.878,286.641 258.5,289.5C 254.561,291.446 250.894,293.779 247.5,296.5C 244.386,298.391 241.052,299.724 237.5,300.5C 235.143,300.337 232.81,300.503 230.5,301C 229.944,301.383 229.611,301.883 229.5,302.5C 226.865,303.729 224.199,303.729 221.5,302.5C 220.289,301.28 220.289,300.113 221.5,299C 219.907,298.051 218.574,296.885 217.5,295.5C 216.415,293.413 214.749,292.08 212.5,291.5C 208.5,288.167 204.833,284.5 201.5,280.5C 200.5,278.833 199.167,277.5 197.5,276.5C 195.5,275.167 193.833,273.5 192.5,271.5C 192.573,269.973 191.906,268.973 190.5,268.5C 188.451,267.118 186.785,265.452 185.5,263.5C 184.92,261.251 183.587,259.585 181.5,258.5C 177.773,254.727 174.773,250.394 172.5,245.5C 172.771,243.62 172.104,242.287 170.5,241.5C 169.662,241.158 169.328,240.492 169.5,239.5C 169.573,237.973 168.906,236.973 167.5,236.5C 164.326,231.484 161.659,226.151 159.5,220.5C 157.07,212.533 154.07,204.866 150.5,197.5C 147.894,190.347 145.894,183.014 144.5,175.5C 143.987,171.121 143.153,166.787 142,162.5C 141.617,161.944 141.117,161.611 140.5,161.5C 140.5,161.167 140.5,160.833 140.5,160.5C 141.156,159.378 141.489,158.045 141.5,156.5C 140.93,146.006 140.264,135.673 139.5,125.5C 139.5,125.167 139.5,124.833 139.5,124.5C 140.725,123.848 141.392,122.681 141.5,121C 142.163,117.527 142.496,114.027 142.5,110.5C 144.163,108.562 144.829,106.228 144.5,103.5C 146.264,97.527 148.597,91.8603 151.5,86.5C 153.008,84.8185 154.008,82.8185 154.5,80.5C 155.906,80.0269 156.573,79.0269 156.5,77.5C 157.261,76.6091 158.261,75.9424 159.5,75.5C 161.252,77.2459 162.585,79.2459 163.5,81.5 Z"/></g>
<g><path style="opacity:0.212" fill="#3b0230" d="M 156.5,77.5 C 156.573,79.0269 155.906,80.0269 154.5,80.5C 154.427,78.9731 155.094,77.9731 156.5,77.5 Z"/></g>
<g><path style="opacity:0.016" fill="#42002f" d="M 163.5,81.5 C 164.931,82.7804 165.598,84.4471 165.5,86.5C 164.069,85.2196 163.402,83.5529 163.5,81.5 Z"/></g>
<g><path style="opacity:0.106" fill="#3a002b" d="M 154.5,80.5 C 154.008,82.8185 153.008,84.8185 151.5,86.5C 151.461,83.911 152.461,81.911 154.5,80.5 Z"/></g>
<g><path style="opacity:1" fill="#49003c" d="M 162.5,94.5 C 160.542,96.1 159.208,98.2666 158.5,101C 157.852,105.297 157.852,109.464 158.5,113.5C 157.975,114.192 157.308,114.692 156.5,115C 156.581,128.07 159.247,140.57 164.5,152.5C 164.291,153.086 163.957,153.586 163.5,154C 165.953,155.88 167.953,158.213 169.5,161C 169.167,161.333 168.833,161.667 168.5,162C 174.238,172.162 179.571,182.162 184.5,192C 184.167,192.333 183.833,192.667 183.5,193C 184.448,193.483 185.448,193.649 186.5,193.5C 186.884,197.272 188.55,200.272 191.5,202.5C 187.969,204.937 184.469,204.937 181,202.5C 180.333,203.833 180.333,205.167 181,206.5C 185.119,207.659 189.286,207.659 193.5,206.5C 195.283,212.062 198.116,217.062 202,221.5C 202.229,224.458 203.396,226.958 205.5,229C 205.167,229.333 204.833,229.667 204.5,230C 206.373,231.085 208.04,232.418 209.5,234C 209.167,234.333 208.833,234.667 208.5,235C 211.251,239.837 214.251,244.503 217.5,249C 217.167,249.333 216.833,249.667 216.5,250C 218.323,250.997 219.99,252.164 221.5,253.5C 219.067,256.687 216.067,258.353 212.5,258.5C 213,259.881 214,260.547 215.5,260.5C 218.183,259.49 220.849,258.49 223.5,257.5C 227.976,263.102 232.309,269.935 236.5,278C 236.167,278.333 235.833,278.667 235.5,279C 236.448,279.483 237.448,279.649 238.5,279.5C 238.351,280.552 238.517,281.552 239,282.5C 241.44,285.416 243.607,288.416 245.5,291.5C 241.477,293.839 237.144,295.672 232.5,297C 229.406,297.652 226.406,297.318 223.5,296C 209.603,282.772 196.436,268.939 184,254.5C 160.559,219.756 147.392,181.422 144.5,139.5C 144.103,120.755 148.27,103.089 157,86.5C 157.689,85.6433 158.522,84.9767 159.5,84.5C 161.119,87.6423 162.119,90.9756 162.5,94.5 Z"/></g>
<g><path style="opacity:1" fill="#5c0041" d="M 162.5,94.5 C 166.999,109.164 171.999,123.664 177.5,138C 176.833,140 176.167,142 175.5,144C 176.108,146.184 175.441,148.184 173.5,150C 176.775,149.743 178.941,147.91 180,144.5C 188.664,159.494 198.497,173.661 209.5,187C 207.413,190.508 205.08,193.842 202.5,197C 199.09,199.372 195.423,201.205 191.5,202.5C 188.55,200.272 186.884,197.272 186.5,193.5C 185.448,193.649 184.448,193.483 183.5,193C 183.833,192.667 184.167,192.333 184.5,192C 179.571,182.162 174.238,172.162 168.5,162C 168.833,161.667 169.167,161.333 169.5,161C 167.953,158.213 165.953,155.88 163.5,154C 163.957,153.586 164.291,153.086 164.5,152.5C 159.247,140.57 156.581,128.07 156.5,115C 157.308,114.692 157.975,114.192 158.5,113.5C 157.852,109.464 157.852,105.297 158.5,101C 159.208,98.2666 160.542,96.1 162.5,94.5 Z"/></g>
<g><path style="opacity:0.441" fill="#2a021e" d="M 144.5,103.5 C 144.829,106.228 144.163,108.562 142.5,110.5C 142.41,107.848 143.076,105.515 144.5,103.5 Z"/></g>
<g><path style="opacity:0.235" fill="#370226" d="M 171.5,107.5 C 172.931,108.78 173.598,110.447 173.5,112.5C 172.069,111.22 171.402,109.553 171.5,107.5 Z"/></g>
<g><path style="opacity:0.263" fill="#25031d" d="M 142.5,110.5 C 142.496,114.027 142.163,117.527 141.5,121C 141.392,122.681 140.725,123.848 139.5,124.5C 139.754,119.556 140.754,114.889 142.5,110.5 Z"/></g>
<g><path style="opacity:0.122" fill="#3b0030" d="M 173.5,112.5 C 176.907,117.997 179.241,123.997 180.5,130.5C 177.647,124.78 175.314,118.78 173.5,112.5 Z"/></g>
<g><path style="opacity:0.773" fill="#28091f" d="M 576.5,129.5 C 574.761,132.243 572.427,134.243 569.5,135.5C 571.239,132.757 573.573,130.757 576.5,129.5 Z"/></g>
<g><path style="opacity:0.655" fill="#27021b" d="M 139.5,125.5 C 140.264,135.673 140.93,146.006 141.5,156.5C 141.489,158.045 141.156,159.378 140.5,160.5C 139.542,148.884 139.209,137.217 139.5,125.5 Z"/></g>
<g><path style="opacity:0.169" fill="#400231" d="M 185.5,143.5 C 187.25,144.659 188.25,146.326 188.5,148.5C 186.75,147.341 185.75,145.674 185.5,143.5 Z"/></g>
<g><path style="opacity:0.82" fill="#280920" d="M 562.5,142.5 C 561.415,144.587 559.749,145.92 557.5,146.5C 558.585,144.413 560.251,143.08 562.5,142.5 Z"/></g>
<g><path style="opacity:0.314" fill="#390127" d="M 189.5,150.5 C 190.906,150.973 191.573,151.973 191.5,153.5C 190.094,153.027 189.427,152.027 189.5,150.5 Z"/></g>
<g><path style="opacity:0.329" fill="#3d0133" d="M 191.5,153.5 C 193.262,154.262 194.262,155.596 194.5,157.5C 192.738,156.738 191.738,155.404 191.5,153.5 Z"/></g>
<g><path style="opacity:0.227" fill="#350127" d="M 140.5,161.5 C 141.117,161.611 141.617,161.944 142,162.5C 143.153,166.787 143.987,171.121 144.5,175.5C 142.565,171.107 141.232,166.441 140.5,161.5 Z"/></g>
<g><path style="opacity:0.737" fill="#300527" d="M 200.5,166.5 C 202.262,167.262 203.262,168.596 203.5,170.5C 201.738,169.738 200.738,168.404 200.5,166.5 Z"/></g>
<g><path style="opacity:0.306" fill="#3f0034" d="M 204.5,171.5 C 205.906,171.973 206.573,172.973 206.5,174.5C 205.094,174.027 204.427,173.027 204.5,171.5 Z"/></g>
<g><path style="opacity:0.537" fill="#370132" d="M 207.5,175.5 C 208.906,175.973 209.573,176.973 209.5,178.5C 208.094,178.027 207.427,177.027 207.5,175.5 Z"/></g>
<g><path style="opacity:1" fill="#49003c" d="M 611.5,182.5 C 604.129,197.911 597.295,213.578 591,229.5C 585.559,237.38 580.892,245.714 577,254.5C 574.167,258 571.333,261.5 568.5,265C 548.005,269.753 527.672,269.586 507.5,264.5C 510.374,264.377 512.874,263.377 515,261.5C 515.333,261.833 515.667,262.167 516,262.5C 517.684,260.299 519.684,259.633 522,260.5C 523.667,258.833 525.333,257.167 527,255.5C 527.333,255.833 527.667,256.167 528,256.5C 534.334,248.992 541.5,241.659 549.5,234.5C 555.05,234.763 560.55,234.43 566,233.5C 566.5,233.167 567,232.833 567.5,232.5C 563.353,231.833 559.353,231.166 555.5,230.5C 560.903,226.192 566.236,222.359 571.5,219C 573.682,216.422 575.849,214.588 578,213.5C 578.875,210.785 580.708,209.452 583.5,209.5C 583.33,208.178 583.663,207.011 584.5,206C 587.805,205.133 589.805,203.466 590.5,201C 594.418,197.911 598.418,195.078 602.5,192.5C 602.351,191.448 602.517,190.448 603,189.5C 603.333,189.833 603.667,190.167 604,190.5C 605.335,187.309 607.835,184.642 611.5,182.5 Z"/></g>
<g><path style="opacity:0.498" fill="#37022a" d="M 215.5,185.5 C 218.243,187.239 220.243,189.573 221.5,192.5C 218.757,190.761 216.757,188.427 215.5,185.5 Z"/></g>
<g><path style="opacity:1" fill="#5d0040" d="M 549.5,234.5 C 541.5,241.659 534.334,248.992 528,256.5C 527.667,256.167 527.333,255.833 527,255.5C 525.333,257.167 523.667,258.833 522,260.5C 519.684,259.633 517.684,260.299 516,262.5C 515.667,262.167 515.333,261.833 515,261.5C 512.874,263.377 510.374,264.377 507.5,264.5C 493.351,261.76 480.351,256.26 468.5,248C 455.902,240.708 444.902,231.541 435.5,220.5C 455.158,215.558 474.158,208.725 492.5,200C 496.167,197.833 499.833,195.667 503.5,193.5C 504.843,201.351 508.176,208.185 513.5,214C 524.149,223.137 536.149,229.971 549.5,234.5 Z"/></g>
<g><path style="opacity:0.122" fill="#3d012f" d="M 150.5,197.5 C 154.07,204.866 157.07,212.533 159.5,220.5C 155.533,213.274 152.533,205.608 150.5,197.5 Z"/></g>
<g><path style="opacity:0.173" fill="#25011b" d="M 238.5,206.5 C 240.853,207.34 242.853,208.674 244.5,210.5C 241.802,210.155 239.802,208.822 238.5,206.5 Z"/></g>
<g><path style="opacity:0.314" fill="#340326" d="M 427.5,213.5 C 430.344,212.449 433.344,212.449 436.5,213.5C 433.696,214.112 430.696,214.112 427.5,213.5 Z"/></g>
<g><path style="opacity:0.012" fill="#400035" d="M 257.5,219.5 C 259.027,219.427 260.027,220.094 260.5,221.5C 258.973,221.573 257.973,220.906 257.5,219.5 Z"/></g>
<g><path style="opacity:0.055" fill="#360127" d="M 260.5,221.5 C 263.443,221.98 266.11,222.98 268.5,224.5C 265.658,224.768 262.992,223.768 260.5,221.5 Z"/></g>
<g><path style="opacity:1" fill="#080005" d="M 223.5,257.5 C 220.849,258.49 218.183,259.49 215.5,260.5C 214,260.547 213,259.881 212.5,258.5C 216.067,258.353 219.067,256.687 221.5,253.5C 232.351,245.148 241.684,235.315 249.5,224C 250.332,223.312 250.998,223.479 251.5,224.5C 244.277,237.382 234.944,248.382 223.5,257.5 Z"/></g>
<g><path style="opacity:1" fill="#5c0041" d="M 245.5,291.5 C 243.607,288.416 241.44,285.416 239,282.5C 238.517,281.552 238.351,280.552 238.5,279.5C 237.448,279.649 236.448,279.483 235.5,279C 235.833,278.667 236.167,278.333 236.5,278C 232.309,269.935 227.976,263.102 223.5,257.5C 234.944,248.382 244.277,237.382 251.5,224.5C 250.998,223.479 250.332,223.312 249.5,224C 241.684,235.315 232.351,245.148 221.5,253.5C 219.99,252.164 218.323,250.997 216.5,250C 216.833,249.667 217.167,249.333 217.5,249C 214.251,244.503 211.251,239.837 208.5,235C 208.833,234.667 209.167,234.333 209.5,234C 208.04,232.418 206.373,231.085 204.5,230C 204.833,229.667 205.167,229.333 205.5,229C 203.396,226.958 202.229,224.458 202,221.5C 198.116,217.062 195.283,212.062 193.5,206.5C 202.539,203.628 208.372,197.628 211,188.5C 215.8,194.302 220.967,199.802 226.5,205C 236.442,211.276 246.108,217.943 255.5,225C 265.695,228.841 275.861,232.675 286,236.5C 286.667,239.833 286.667,243.167 286,246.5C 277.927,266.405 264.427,281.405 245.5,291.5 Z"/></g>
<g><path style="opacity:0.698" fill="#26041e" d="M 272.5,225.5 C 274.75,226.13 276.75,227.13 278.5,228.5C 275.784,228.614 273.784,227.614 272.5,225.5 Z"/></g>
<g><path style="opacity:0.027" fill="#4b003c" d="M 167.5,236.5 C 168.906,236.973 169.573,237.973 169.5,239.5C 168.094,239.027 167.427,238.027 167.5,236.5 Z"/></g>
<g><path style="opacity:0.176" fill="#470035" d="M 170.5,241.5 C 172.104,242.287 172.771,243.62 172.5,245.5C 171.326,244.486 170.66,243.153 170.5,241.5 Z"/></g>
<g><path style="opacity:0.471" fill="#34022b" d="M 291.5,244.5 C 291.829,247.228 291.163,249.562 289.5,251.5C 289.721,248.933 290.388,246.599 291.5,244.5 Z"/></g>
<g><path style="opacity:0.071" fill="#37022a" d="M 181.5,258.5 C 183.587,259.585 184.92,261.251 185.5,263.5C 183.413,262.415 182.08,260.749 181.5,258.5 Z"/></g>
<g><path style="opacity:0.063" fill="#3f012f" d="M 281.5,265.5 C 281.262,267.404 280.262,268.738 278.5,269.5C 278.738,267.596 279.738,266.262 281.5,265.5 Z"/></g>
<g><path style="opacity:0.027" fill="#390228" d="M 190.5,268.5 C 191.906,268.973 192.573,269.973 192.5,271.5C 191.094,271.027 190.427,270.027 190.5,268.5 Z"/></g>
<g><path style="opacity:0.004" fill="#4b0039" d="M 197.5,276.5 C 199.167,277.5 200.5,278.833 201.5,280.5C 199.167,280.167 197.833,278.833 197.5,276.5 Z"/></g>
<g><path style="opacity:0.055" fill="#27031d" d="M 276.5,272.5 C 275.243,275.427 273.243,277.761 270.5,279.5C 271.757,276.573 273.757,274.239 276.5,272.5 Z"/></g>
<g><path style="opacity:0.078" fill="#340328" d="M 258.5,289.5 C 255.642,293.01 251.976,295.343 247.5,296.5C 250.894,293.779 254.561,291.446 258.5,289.5 Z"/></g>
<g><path style="opacity:0.322" fill="#3b012b" d="M 212.5,291.5 C 214.749,292.08 216.415,293.413 217.5,295.5C 215.251,294.92 213.585,293.587 212.5,291.5 Z"/></g>
<g><path style="opacity:0.761" fill="#27051e" d="M 237.5,300.5 C 235.039,301.531 232.373,302.198 229.5,302.5C 229.611,301.883 229.944,301.383 230.5,301C 232.81,300.503 235.143,300.337 237.5,300.5 Z"/></g>
</svg>
