<?xml version="1.0" encoding="UTF-8"?>
<!DOCTYPE svg PUBLIC "-//W3C//DTD SVG 1.1//EN" "http://www.w3.org/Graphics/SVG/1.1/DTD/svg11.dtd">
<svg xmlns="http://www.w3.org/2000/svg" version="1.1" width="862px" height="862px" style="shape-rendering:geometricPrecision; text-rendering:geometricPrecision; image-rendering:optimizeQuality; fill-rule:evenodd; clip-rule:evenodd" xmlns:xlink="http://www.w3.org/1999/xlink">
<g><path style="opacity:0.996" fill="#150e09" d="M 614.5,157.5 C 614.34,155.847 613.674,154.514 612.5,153.5C 612.5,154.5 612.5,155.5 612.5,156.5C 609.072,156.547 606.072,157.713 603.5,160C 588.1,175.301 578.933,193.801 576,215.5C 575.099,235.825 574.433,256.159 574,276.5C 558.53,280.267 542.697,283.267 526.5,285.5C 504.327,281.329 485.494,270.996 470,254.5C 471.165,217.843 480.165,183.176 497,150.5C 511.833,126.333 531.333,106.833 555.5,92C 567.772,85.3257 580.772,82.4924 594.5,83.5C 605.911,85.6861 617.244,88.5194 628.5,92C 652.948,101.96 673.448,117.126 690,137.5C 704.876,159.136 711.876,183.136 711,209.5C 701.117,232.022 684.284,239.856 660.5,233C 649.358,228.015 639.525,221.182 631,212.5C 628.746,208.993 626.746,205.327 625,201.5C 623.375,186.337 619.875,171.67 614.5,157.5 Z"/></g>
<g><path style="opacity:1" fill="#916340" d="M 599.5,127.5 C 597.316,128.266 594.982,128.933 592.5,129.5C 591.483,126.972 590.316,126.972 589,129.5C 587.984,128.366 587.317,128.699 587,130.5C 586,130.5 585,130.5 584,130.5C 583.935,132.883 583.102,133.55 581.5,132.5C 580.667,133.5 579.833,134.5 579,135.5C 578.667,135.167 578.333,134.833 578,134.5C 576.812,135.563 576.312,136.897 576.5,138.5C 573.645,139.834 571.145,141.834 569,144.5C 567.434,143.939 566.101,144.606 565,146.5C 563.858,150.983 561.192,154.316 557,156.5C 554.798,161.876 551.631,167.042 547.5,172C 547.957,172.414 548.291,172.914 548.5,173.5C 545.183,178.009 543.016,182.675 542,187.5C 540.933,188.191 539.766,188.691 538.5,189C 538.833,190 539.167,191 539.5,192C 537.622,194.805 535.955,197.472 534.5,200C 535.022,202.289 534.355,204.456 532.5,206.5C 534.658,208.026 534.325,209.526 531.5,211C 533.973,212.402 533.973,213.902 531.5,215.5C 532.002,216.716 532.335,217.883 532.5,219C 531.833,219.667 531.167,220.333 530.5,221C 530.673,223.407 530.673,225.74 530.5,228C 532.891,229.309 532.891,230.309 530.5,231C 530.784,232.956 530.784,235.123 530.5,237.5C 531.5,237.5 532.5,237.5 533.5,237.5C 533.374,239.2 532.707,240.7 531.5,242C 531.862,243.225 532.362,244.391 533,245.5C 533.451,243.071 534.285,242.904 535.5,245C 534.167,246.84 534.334,247.34 536,246.5C 536.923,247.759 537.757,249.092 538.5,250.5C 539.086,250.291 539.586,249.957 540,249.5C 541.266,252.72 543.433,255.053 546.5,256.5C 547.675,255.145 548.675,255.312 549.5,257C 547.099,257.805 547.266,258.638 550,259.5C 550.308,258.692 550.808,258.025 551.5,257.5C 553.702,258.78 555.868,258.78 558,257.5C 559.402,259.973 560.902,259.973 562.5,257.5C 564.07,257.694 565.57,257.694 567,257.5C 567.374,255.509 568.207,253.842 569.5,252.5C 569.828,257.875 569.495,263.208 568.5,268.5C 567.833,269.5 567.167,270.5 566.5,271.5C 553.09,275.077 539.423,277.411 525.5,278.5C 518.961,277.826 512.628,276.326 506.5,274C 500.998,270.415 495.331,267.081 489.5,264C 484.167,260 478.833,256 473.5,252C 476.34,217.51 485.84,184.677 502,153.5C 514.078,134.19 529.245,117.69 547.5,104C 556.076,98.7507 565.076,94.4174 574.5,91C 595.457,88.4259 615.457,91.7592 634.5,101C 656.299,111.474 674.466,126.307 689,145.5C 700.978,164.047 706.645,184.381 706,206.5C 698.489,225.673 684.656,232.84 664.5,228C 656.671,223.92 649.004,219.587 641.5,215C 636.813,210.457 632.98,205.291 630,199.5C 628.287,186.645 625.62,173.978 622,161.5C 616.923,150.347 611.59,139.347 606,128.5C 602.819,123.839 598.652,120.506 593.5,118.5C 588.002,119.338 586.335,122.338 588.5,127.5C 589.138,125.03 590.638,123.363 593,122.5C 595.341,124.016 597.508,125.683 599.5,127.5 Z"/></g>
<g><path style="opacity:0.995" fill="#160e0a" d="M 163.5,95.5 C 174.943,95.0349 186.276,95.8682 197.5,98C 206.481,102.314 212.648,109.147 216,118.5C 229.057,133.622 241.39,149.288 253,165.5C 265.57,190.976 278.903,215.976 293,240.5C 293.667,245.5 293.667,250.5 293,255.5C 290.064,261.222 287.731,267.222 286,273.5C 279.349,283.819 270.516,291.652 259.5,297C 250.619,299.831 241.619,300.165 232.5,298C 229.993,297.907 227.826,297.074 226,295.5C 225.647,294.328 225.813,293.162 226.5,292C 222.493,281.47 219.659,270.637 218,259.5C 212.471,246.581 207.138,233.581 202,220.5C 195.527,207.228 186.86,195.562 176,185.5C 176.125,192.254 177.125,198.921 179,205.5C 181.447,214.866 184.28,224.033 187.5,233C 187.344,237.136 186.177,240.969 184,244.5C 179.5,249 175,253.5 170.5,258C 152.753,266.41 135.086,266.41 117.5,258C 100.412,242.239 93.745,222.739 97.5,199.5C 97.6667,194.5 97.8333,189.5 98,184.5C 100.239,173.19 102.239,161.856 104,150.5C 109.333,141.167 114.667,131.833 120,122.5C 125.727,112.775 133.894,105.941 144.5,102C 150.979,99.8968 157.313,97.7301 163.5,95.5 Z"/></g>
<g><path style="opacity:1" fill="#916340" d="M 227.5,277.5 C 228.234,274.224 230.067,273.558 233,275.5C 235.188,275.646 236.521,274.646 237,272.5C 237.333,272.833 237.667,273.167 238,273.5C 239.631,270.965 241.465,268.632 243.5,266.5C 242.975,265.808 242.308,265.308 241.5,265C 243.592,264.047 243.925,262.714 242.5,261C 243.448,260.517 244.448,260.351 245.5,260.5C 245.5,256.5 245.5,252.5 245.5,248.5C 241.901,248.738 241.567,247.738 244.5,245.5C 243.519,241.687 241.519,238.52 238.5,236C 239.337,234.989 239.67,233.822 239.5,232.5C 238.448,232.649 237.448,232.483 236.5,232C 235.761,230.235 235.761,228.235 236.5,226C 235.286,223.309 233.452,221.142 231,219.5C 230.122,216.291 228.789,213.291 227,210.5C 226.086,211.654 225.253,211.487 224.5,210C 224.957,209.586 225.291,209.086 225.5,208.5C 224.5,207.167 223.5,205.833 222.5,204.5C 222.709,203.914 223.043,203.414 223.5,203C 221.651,201.907 219.984,200.574 218.5,199C 219.517,197.951 219.684,196.784 219,195.5C 218.667,196.167 218.333,196.833 218,197.5C 214.974,193.744 212.641,190.077 211,186.5C 210.667,186.833 210.333,187.167 210,187.5C 208.983,184.151 206.983,182.817 204,183.5C 203.03,180.179 200.863,178.513 197.5,178.5C 197.881,176.058 197.214,175.391 195.5,176.5C 191.168,175.679 188.001,173.346 186,169.5C 184.16,170.833 183.66,170.666 184.5,169C 182.658,169.068 180.991,168.901 179.5,168.5C 181.785,164.729 184.451,164.562 187.5,168C 188.893,169.171 189.727,170.671 190,172.5C 190.868,168.328 189.368,165.162 185.5,163C 179.756,161.394 175.756,163.394 173.5,169C 170.737,175.576 169.903,182.409 171,189.5C 172.522,203.889 176.356,217.556 182.5,230.5C 182.132,233.638 181.299,236.638 180,239.5C 175.167,244.333 170.333,249.167 165.5,254C 153.745,258.295 141.745,259.295 129.5,257C 117.962,252.46 110.129,244.294 106,232.5C 105.178,230.212 104.511,227.878 104,225.5C 103.587,214.996 103.087,204.496 102.5,194C 104.333,180.833 106.167,167.666 108,154.5C 113.667,144.5 119.333,134.5 125,124.5C 133.932,112.607 145.766,105.107 160.5,102C 172.222,99.9025 183.889,100.236 195.5,103C 198.912,104.455 202.079,106.288 205,108.5C 207.397,113.627 210.064,118.627 213,123.5C 224.381,137.213 235.381,151.213 246,165.5C 259.505,192.514 273.505,219.18 288,245.5C 286.646,267.536 275.812,283.036 255.5,292C 247.571,293.363 239.571,293.863 231.5,293.5C 230.167,288.167 228.833,282.833 227.5,277.5 Z"/></g>
<g><path style="opacity:1" fill="#824125" d="M 599.5,127.5 C 605.912,134.991 610.246,143.657 612.5,153.5C 608.094,152.13 604.094,152.963 600.5,156C 583.255,172.016 573.422,191.849 571,215.5C 570.619,227.843 570.119,240.176 569.5,252.5C 568.207,253.842 567.374,255.509 567,257.5C 565.57,257.694 564.07,257.694 562.5,257.5C 560.902,259.973 559.402,259.973 558,257.5C 555.868,258.78 553.702,258.78 551.5,257.5C 550.808,258.025 550.308,258.692 550,259.5C 547.266,258.638 547.099,257.805 549.5,257C 548.675,255.312 547.675,255.145 546.5,256.5C 543.433,255.053 541.266,252.72 540,249.5C 539.586,249.957 539.086,250.291 538.5,250.5C 537.757,249.092 536.923,247.759 536,246.5C 534.334,247.34 534.167,246.84 535.5,245C 534.285,242.904 533.451,243.071 533,245.5C 532.362,244.391 531.862,243.225 531.5,242C 532.707,240.7 533.374,239.2 533.5,237.5C 532.5,237.5 531.5,237.5 530.5,237.5C 530.784,235.123 530.784,232.956 530.5,231C 532.891,230.309 532.891,229.309 530.5,228C 530.673,225.74 530.673,223.407 530.5,221C 531.167,220.333 531.833,219.667 532.5,219C 532.335,217.883 532.002,216.716 531.5,215.5C 533.973,213.902 533.973,212.402 531.5,211C 534.325,209.526 534.658,208.026 532.5,206.5C 534.355,204.456 535.022,202.289 534.5,200C 535.955,197.472 537.622,194.805 539.5,192C 539.167,191 538.833,190 538.5,189C 539.766,188.691 540.933,188.191 542,187.5C 543.016,182.675 545.183,178.009 548.5,173.5C 548.291,172.914 547.957,172.414 547.5,172C 551.631,167.042 554.798,161.876 557,156.5C 561.192,154.316 563.858,150.983 565,146.5C 566.101,144.606 567.434,143.939 569,144.5C 571.145,141.834 573.645,139.834 576.5,138.5C 576.312,136.897 576.812,135.563 578,134.5C 578.333,134.833 578.667,135.167 579,135.5C 579.833,134.5 580.667,133.5 581.5,132.5C 583.102,133.55 583.935,132.883 584,130.5C 585,130.5 586,130.5 587,130.5C 587.317,128.699 587.984,128.366 589,129.5C 590.316,126.972 591.483,126.972 592.5,129.5C 594.982,128.933 597.316,128.266 599.5,127.5 Z"/></g>
<g><path style="opacity:1" fill="#65432d" d="M 612.5,153.5 C 613.674,154.514 614.34,155.847 614.5,157.5C 613.833,157.167 613.167,156.833 612.5,156.5C 612.5,155.5 612.5,154.5 612.5,153.5 Z"/></g>
<g><path style="opacity:1" fill="#824125" d="M 179.5,168.5 C 180.991,168.901 182.658,169.068 184.5,169C 183.66,170.666 184.16,170.833 186,169.5C 188.001,173.346 191.168,175.679 195.5,176.5C 197.214,175.391 197.881,176.058 197.5,178.5C 200.863,178.513 203.03,180.179 204,183.5C 206.983,182.817 208.983,184.151 210,187.5C 210.333,187.167 210.667,186.833 211,186.5C 212.641,190.077 214.974,193.744 218,197.5C 218.333,196.833 218.667,196.167 219,195.5C 219.684,196.784 219.517,197.951 218.5,199C 219.984,200.574 221.651,201.907 223.5,203C 223.043,203.414 222.709,203.914 222.5,204.5C 223.5,205.833 224.5,207.167 225.5,208.5C 225.291,209.086 224.957,209.586 224.5,210C 225.253,211.487 226.086,211.654 227,210.5C 228.789,213.291 230.122,216.291 231,219.5C 233.452,221.142 235.286,223.309 236.5,226C 235.761,228.235 235.761,230.235 236.5,232C 237.448,232.483 238.448,232.649 239.5,232.5C 239.67,233.822 239.337,234.989 238.5,236C 241.519,238.52 243.519,241.687 244.5,245.5C 241.567,247.738 241.901,248.738 245.5,248.5C 245.5,252.5 245.5,256.5 245.5,260.5C 244.448,260.351 243.448,260.517 242.5,261C 243.925,262.714 243.592,264.047 241.5,265C 242.308,265.308 242.975,265.808 243.5,266.5C 241.465,268.632 239.631,270.965 238,273.5C 237.667,273.167 237.333,272.833 237,272.5C 236.521,274.646 235.188,275.646 233,275.5C 230.067,273.558 228.234,274.224 227.5,277.5C 225.286,269.641 223.12,261.641 221,253.5C 214.61,239.664 208.61,225.664 203,211.5C 195.879,199.368 186.879,188.701 176,179.5C 175.454,176.101 175.787,172.768 177,169.5C 177.671,168.748 178.504,168.414 179.5,168.5 Z"/></g>
</svg>
