<?xml version="1.0" encoding="UTF-8"?>
<!DOCTYPE svg PUBLIC "-//W3C//DTD SVG 1.1//EN" "http://www.w3.org/Graphics/SVG/1.1/DTD/svg11.dtd">
<svg xmlns="http://www.w3.org/2000/svg" version="1.1" width="862px" height="862px" style="shape-rendering:geometricPrecision; text-rendering:geometricPrecision; image-rendering:optimizeQuality; fill-rule:evenodd; clip-rule:evenodd" xmlns:xlink="http://www.w3.org/1999/xlink">
<g><path style="opacity:0.992" fill="#030b0b" d="M 427.5,213.5 C 431.015,214.239 434.348,214.239 437.5,213.5C 457.44,207.685 476.773,200.185 495.5,191C 517.431,177.874 538.097,163.04 557.5,146.5C 559.749,145.92 561.415,144.587 562.5,142.5C 564.5,139.833 566.833,137.5 569.5,135.5C 572.427,134.243 574.761,132.243 576.5,129.5C 590.233,116.27 603.066,102.27 615,87.5C 624.918,71.1912 634.251,55.5245 643,40.5C 645.745,49.4667 647.578,58.6334 648.5,68C 647.312,78.9407 645.479,89.7741 643,100.5C 635.941,126.678 628.274,152.678 620,178.5C 611.784,195.598 604.117,212.931 597,230.5C 591.559,238.38 586.892,246.714 583,255.5C 579.213,260.956 575.046,266.123 570.5,271C 547.78,274.587 525.113,274.253 502.5,270C 475.47,261.573 451.97,247.407 432,227.5C 428.906,223.067 427.406,218.4 427.5,213.5 Z"/></g>
<g><path style="opacity:1" fill="#004844" d="M 640.5,80.5 C 639.801,78.444 638.801,76.444 637.5,74.5C 638.833,73.5 638.833,72.5 637.5,71.5C 638.025,70.8076 638.692,70.3076 639.5,70C 638.669,68.1078 637.669,66.2744 636.5,64.5C 637.989,62.1949 639.489,59.8616 641,57.5C 643.061,65.3372 642.895,73.0038 640.5,80.5 Z"/></g>
<g><path style="opacity:1" fill="#005a5d" d="M 636.5,64.5 C 637.669,66.2744 638.669,68.1078 639.5,70C 638.692,70.3076 638.025,70.8076 637.5,71.5C 638.833,72.5 638.833,73.5 637.5,74.5C 638.801,76.444 639.801,78.444 640.5,80.5C 633.241,115.267 623.574,149.267 611.5,182.5C 609.394,184.521 607.061,186.354 604.5,188C 605.654,188.914 605.487,189.747 604,190.5C 603.667,190.167 603.333,189.833 603,189.5C 602.51,190.793 602.343,192.127 602.5,193.5C 601.448,193.351 600.448,193.517 599.5,194C 597.097,197.067 594.097,199.4 590.5,201C 589.359,201.741 589.359,202.575 590.5,203.5C 588.098,204.575 585.764,205.742 583.5,207C 584.167,207.333 584.833,207.667 585.5,208C 584.069,208.465 582.903,209.299 582,210.5C 581.667,210.167 581.333,209.833 581,209.5C 575.703,216.124 569.203,221.291 561.5,225C 560.833,226.333 559.833,227.333 558.5,228C 558.833,228.333 559.167,228.667 559.5,229C 557.753,229.352 556.086,229.852 554.5,230.5C 537.123,226.565 522.623,217.898 511,204.5C 508.853,199.947 508.02,195.28 508.5,190.5C 523.298,181.355 537.464,171.355 551,160.5C 554.322,165.804 557.655,171.138 561,176.5C 568.629,186.241 578.463,190.241 590.5,188.5C 576.572,185.435 565.739,177.768 558,165.5C 556.086,162.702 555.086,159.702 555,156.5C 576.269,138.566 596.269,119.233 615,98.5C 623.181,87.8167 630.348,76.4834 636.5,64.5 Z"/></g>
<g><path style="opacity:0.991" fill="#020a0a" d="M 163.5,81.5 C 163.595,83.7857 164.262,85.7857 165.5,87.5C 168.072,93.8926 170.072,100.559 171.5,107.5C 173.93,115.467 176.93,123.134 180.5,130.5C 182.362,134.75 184.028,139.083 185.5,143.5C 185.75,145.674 186.75,147.341 188.5,148.5C 189.338,148.842 189.672,149.508 189.5,150.5C 189.427,152.027 190.094,153.027 191.5,153.5C 191.738,155.404 192.738,156.738 194.5,157.5C 197.883,161.553 200.883,165.886 203.5,170.5C 203.738,172.404 204.738,173.738 206.5,174.5C 207.167,174.5 207.5,174.833 207.5,175.5C 207.427,177.027 208.094,178.027 209.5,178.5C 211.727,180.607 213.727,182.94 215.5,185.5C 216.757,188.427 218.757,190.761 221.5,192.5C 224.297,194.795 226.964,197.295 229.5,200C 238.178,205.339 246.511,211.173 254.5,217.5C 255.733,219.796 257.733,221.13 260.5,221.5C 262.992,223.768 265.658,224.768 268.5,224.5C 269.833,224.833 271.167,225.167 272.5,225.5C 273.784,227.614 275.784,228.614 278.5,228.5C 279.93,228.421 281.264,228.754 282.5,229.5C 285.756,227.162 288.589,227.829 291,231.5C 292.652,235.926 292.818,240.259 291.5,244.5C 290.388,246.599 289.721,248.933 289.5,251.5C 287.841,256.827 285.174,261.493 281.5,265.5C 279.738,266.262 278.738,267.596 278.5,269.5C 278.573,271.027 277.906,272.027 276.5,272.5C 273.757,274.239 271.757,276.573 270.5,279.5C 266.878,283.308 262.878,286.641 258.5,289.5C 254.561,291.446 250.894,293.779 247.5,296.5C 244.386,298.391 241.052,299.724 237.5,300.5C 234.482,300.335 231.482,300.502 228.5,301C 227.619,301.708 226.953,302.542 226.5,303.5C 224.712,303.785 223.045,303.452 221.5,302.5C 220.289,301.28 220.289,300.113 221.5,299C 219.907,298.051 218.574,296.885 217.5,295.5C 215.761,292.757 213.427,290.757 210.5,289.5C 207.167,286.833 204.167,283.833 201.5,280.5C 200.5,278.833 199.167,277.5 197.5,276.5C 195.5,275.167 193.833,273.5 192.5,271.5C 192.573,269.973 191.906,268.973 190.5,268.5C 188.451,267.118 186.785,265.452 185.5,263.5C 184.92,261.251 183.587,259.585 181.5,258.5C 177.773,254.727 174.773,250.394 172.5,245.5C 172.771,243.62 172.104,242.287 170.5,241.5C 169.662,241.158 169.328,240.492 169.5,239.5C 169.573,237.973 168.906,236.973 167.5,236.5C 164.659,232.151 162.326,227.484 160.5,222.5C 157.541,213.943 154.208,205.61 150.5,197.5C 147.894,190.347 145.894,183.014 144.5,175.5C 144.029,171.644 143.362,167.811 142.5,164C 142.316,162.624 141.649,161.791 140.5,161.5C 140.5,161.167 140.5,160.833 140.5,160.5C 141.678,158.662 141.345,156.995 139.5,155.5C 139.5,145.167 139.5,134.833 139.5,124.5C 140.693,124.03 141.36,123.03 141.5,121.5C 141.48,120.274 141.147,119.274 140.5,118.5C 140.5,117.833 140.5,117.167 140.5,116.5C 141.117,116.389 141.617,116.056 142,115.5C 143.413,109.77 144.913,104.103 146.5,98.5C 147.655,94.2025 149.321,90.2025 151.5,86.5C 153.008,84.8185 154.008,82.8185 154.5,80.5C 155.906,80.0269 156.573,79.0269 156.5,77.5C 157.261,76.6091 158.261,75.9424 159.5,75.5C 161.252,77.2459 162.585,79.2459 163.5,81.5 Z"/></g>
<g><path style="opacity:0.212" fill="#003936" d="M 156.5,77.5 C 156.573,79.0269 155.906,80.0269 154.5,80.5C 154.427,78.9731 155.094,77.9731 156.5,77.5 Z"/></g>
<g><path style="opacity:0.369" fill="#003939" d="M 154.5,80.5 C 154.008,82.8185 153.008,84.8185 151.5,86.5C 151.461,83.911 152.461,81.911 154.5,80.5 Z"/></g>
<g><path style="opacity:0.016" fill="#003c3d" d="M 163.5,81.5 C 165.074,83.1016 165.741,85.1016 165.5,87.5C 164.262,85.7857 163.595,83.7857 163.5,81.5 Z"/></g>
<g><path style="opacity:1" fill="#004943" d="M 162.5,93.5 C 160.751,96.1966 159.084,99.0299 157.5,102C 159.513,102.875 159.513,104.209 157.5,106C 157.616,107.268 157.949,108.602 158.5,110C 155.922,112.157 155.922,113.323 158.5,113.5C 157.975,114.192 157.308,114.692 156.5,115C 158.973,116.742 158.973,118.575 156.5,120.5C 157.833,122.833 157.833,125.167 156.5,127.5C 156.818,128.647 157.484,129.481 158.5,130C 157.283,132.011 157.616,134.011 159.5,136C 158.298,140.407 159.631,144.407 163.5,148C 162.833,148.333 162.167,148.667 161.5,149C 162.313,150.314 163.313,151.481 164.5,152.5C 164.291,153.086 163.957,153.586 163.5,154C 165.953,155.88 167.953,158.213 169.5,161C 169.167,161.333 168.833,161.667 168.5,162C 170.958,167.649 173.958,172.983 177.5,178C 175.983,180.761 176.816,182.594 180,183.5C 181.586,186.294 183.086,189.128 184.5,192C 184.167,192.333 183.833,192.667 183.5,193C 184.766,193.309 185.933,193.809 187,194.5C 188.169,197.449 189.669,200.116 191.5,202.5C 187.969,204.937 184.469,204.937 181,202.5C 180.28,204.112 180.446,205.612 181.5,207C 185.255,207.755 188.922,207.589 192.5,206.5C 195.844,211.905 199.511,217.738 203.5,224C 202.911,225.873 203.578,227.54 205.5,229C 205.167,229.333 204.833,229.667 204.5,230C 205.448,230.483 206.448,230.649 207.5,230.5C 210.24,239.523 214.906,247.189 221.5,253.5C 219.067,256.687 216.067,258.353 212.5,258.5C 213,259.881 214,260.547 215.5,260.5C 218.183,259.49 220.849,258.49 223.5,257.5C 223.574,259.411 224.574,260.578 226.5,261C 225.366,262.016 225.699,262.683 227.5,263C 227.167,263.333 226.833,263.667 226.5,264C 228.833,265 230.5,266.667 231.5,269C 231.167,269.333 230.833,269.667 230.5,270C 233.562,271.808 235.562,274.475 236.5,278C 236.167,278.333 235.833,278.667 235.5,279C 239.009,279.571 240.343,281.404 239.5,284.5C 240.5,285.167 241.5,285.833 242.5,286.5C 242.291,287.086 241.957,287.586 241.5,288C 242.539,289.617 243.539,290.783 244.5,291.5C 238.802,296.216 232.302,297.883 225,296.5C 201.554,277.065 182.554,254.065 168,227.5C 154.848,199.557 147.015,170.224 144.5,139.5C 144.289,130.729 145.123,122.062 147,113.5C 149.466,105.769 152.133,98.1026 155,90.5C 155.782,87.9242 157.282,85.9242 159.5,84.5C 160.962,87.3471 161.962,90.3471 162.5,93.5 Z"/></g>
<g><path style="opacity:1" fill="#00595b" d="M 162.5,93.5 C 166.817,108.619 171.817,123.452 177.5,138C 176.833,140 176.167,142 175.5,144C 175.957,144.414 176.291,144.914 176.5,145.5C 175.5,146.833 174.5,148.167 173.5,149.5C 177.042,150.172 179.209,148.506 180,144.5C 188.664,159.494 198.497,173.661 209.5,187C 206.92,190.158 204.587,193.492 202.5,197C 199.09,199.372 195.423,201.205 191.5,202.5C 189.669,200.116 188.169,197.449 187,194.5C 185.933,193.809 184.766,193.309 183.5,193C 183.833,192.667 184.167,192.333 184.5,192C 183.086,189.128 181.586,186.294 180,183.5C 176.816,182.594 175.983,180.761 177.5,178C 173.958,172.983 170.958,167.649 168.5,162C 168.833,161.667 169.167,161.333 169.5,161C 167.953,158.213 165.953,155.88 163.5,154C 163.957,153.586 164.291,153.086 164.5,152.5C 163.313,151.481 162.313,150.314 161.5,149C 162.167,148.667 162.833,148.333 163.5,148C 159.631,144.407 158.298,140.407 159.5,136C 157.616,134.011 157.283,132.011 158.5,130C 157.484,129.481 156.818,128.647 156.5,127.5C 157.833,125.167 157.833,122.833 156.5,120.5C 158.973,118.575 158.973,116.742 156.5,115C 157.308,114.692 157.975,114.192 158.5,113.5C 155.922,113.323 155.922,112.157 158.5,110C 157.949,108.602 157.616,107.268 157.5,106C 159.513,104.209 159.513,102.875 157.5,102C 159.084,99.0299 160.751,96.1966 162.5,93.5 Z"/></g>
<g><path style="opacity:0.671" fill="#022d2e" d="M 146.5,98.5 C 144.913,104.103 143.413,109.77 142,115.5C 141.617,116.056 141.117,116.389 140.5,116.5C 141.593,110.098 143.593,104.098 146.5,98.5 Z"/></g>
<g><path style="opacity:0.094" fill="#003a38" d="M 171.5,107.5 C 175.462,114.708 178.462,122.375 180.5,130.5C 176.93,123.134 173.93,115.467 171.5,107.5 Z"/></g>
<g><path style="opacity:0.745" fill="#022727" d="M 140.5,118.5 C 141.147,119.274 141.48,120.274 141.5,121.5C 141.36,123.03 140.693,124.03 139.5,124.5C 139.325,122.379 139.659,120.379 140.5,118.5 Z"/></g>
<g><path style="opacity:0.678" fill="#072828" d="M 576.5,129.5 C 574.761,132.243 572.427,134.243 569.5,135.5C 571.239,132.757 573.573,130.757 576.5,129.5 Z"/></g>
<g><path style="opacity:0.169" fill="#013e3d" d="M 185.5,143.5 C 187.25,144.659 188.25,146.326 188.5,148.5C 186.75,147.341 185.75,145.674 185.5,143.5 Z"/></g>
<g><path style="opacity:0.82" fill="#082726" d="M 562.5,142.5 C 561.415,144.587 559.749,145.92 557.5,146.5C 558.585,144.413 560.251,143.08 562.5,142.5 Z"/></g>
<g><path style="opacity:0.573" fill="#003638" d="M 189.5,150.5 C 190.906,150.973 191.573,151.973 191.5,153.5C 190.094,153.027 189.427,152.027 189.5,150.5 Z"/></g>
<g><path style="opacity:0.6" fill="#003b36" d="M 191.5,153.5 C 193.262,154.262 194.262,155.596 194.5,157.5C 192.738,156.738 191.738,155.404 191.5,153.5 Z"/></g>
<g><path style="opacity:0.349" fill="#003a37" d="M 139.5,155.5 C 141.345,156.995 141.678,158.662 140.5,160.5C 139.962,158.883 139.629,157.216 139.5,155.5 Z"/></g>
<g><path style="opacity:0.569" fill="#00302e" d="M 140.5,161.5 C 141.649,161.791 142.316,162.624 142.5,164C 143.362,167.811 144.029,171.644 144.5,175.5C 142.565,171.107 141.232,166.441 140.5,161.5 Z"/></g>
<g><path style="opacity:0.478" fill="#01312d" d="M 203.5,170.5 C 205.262,171.262 206.262,172.596 206.5,174.5C 204.738,173.738 203.738,172.404 203.5,170.5 Z"/></g>
<g><path style="opacity:0.537" fill="#00372f" d="M 207.5,175.5 C 208.906,175.973 209.573,176.973 209.5,178.5C 208.094,178.027 207.427,177.027 207.5,175.5 Z"/></g>
<g><path style="opacity:0.71" fill="#02312f" d="M 215.5,185.5 C 218.243,187.239 220.243,189.573 221.5,192.5C 218.757,190.761 216.757,188.427 215.5,185.5 Z"/></g>
<g><path style="opacity:1" fill="#004943" d="M 611.5,182.5 C 604.129,197.911 597.295,213.578 591,229.5C 585.559,237.38 580.892,245.714 577,254.5C 574.167,258 571.333,261.5 568.5,265C 548.005,269.753 527.672,269.586 507.5,264.5C 510.374,264.377 512.874,263.377 515,261.5C 515.333,261.833 515.667,262.167 516,262.5C 517.684,260.299 519.684,259.633 522,260.5C 523.667,258.833 525.333,257.167 527,255.5C 527.333,255.833 527.667,256.167 528,256.5C 531.618,253.612 535.118,250.612 538.5,247.5C 538.291,246.914 537.957,246.414 537.5,246C 541.764,242.339 545.764,238.505 549.5,234.5C 554.511,234.666 559.511,234.499 564.5,234C 565.624,233.751 566.624,233.251 567.5,232.5C 563.018,231.833 558.684,231.166 554.5,230.5C 556.086,229.852 557.753,229.352 559.5,229C 559.167,228.667 558.833,228.333 558.5,228C 559.833,227.333 560.833,226.333 561.5,225C 569.203,221.291 575.703,216.124 581,209.5C 581.333,209.833 581.667,210.167 582,210.5C 582.903,209.299 584.069,208.465 585.5,208C 584.833,207.667 584.167,207.333 583.5,207C 585.764,205.742 588.098,204.575 590.5,203.5C 589.359,202.575 589.359,201.741 590.5,201C 594.097,199.4 597.097,197.067 599.5,194C 600.448,193.517 601.448,193.351 602.5,193.5C 602.343,192.127 602.51,190.793 603,189.5C 603.333,189.833 603.667,190.167 604,190.5C 605.487,189.747 605.654,188.914 604.5,188C 607.061,186.354 609.394,184.521 611.5,182.5 Z"/></g>
<g><path style="opacity:1" fill="#005a5d" d="M 549.5,234.5 C 545.764,238.505 541.764,242.339 537.5,246C 537.957,246.414 538.291,246.914 538.5,247.5C 535.118,250.612 531.618,253.612 528,256.5C 527.667,256.167 527.333,255.833 527,255.5C 525.333,257.167 523.667,258.833 522,260.5C 519.684,259.633 517.684,260.299 516,262.5C 515.667,262.167 515.333,261.833 515,261.5C 512.874,263.377 510.374,264.377 507.5,264.5C 497.25,262.713 487.583,259.213 478.5,254C 463.689,245.176 449.856,235.01 437,223.5C 436.5,222.5 436,221.5 435.5,220.5C 455.135,215.565 474.135,208.732 492.5,200C 496.252,197.707 500.086,195.54 504,193.5C 504.974,201.947 508.474,209.114 514.5,215C 524.994,223.581 536.661,230.081 549.5,234.5 Z"/></g>
<g><path style="opacity:0.576" fill="#003736" d="M 150.5,197.5 C 154.208,205.61 157.541,213.943 160.5,222.5C 156.005,214.691 152.671,206.358 150.5,197.5 Z"/></g>
<g><path style="opacity:0.678" fill="#032b2d" d="M 427.5,213.5 C 430.668,212.556 434.001,212.556 437.5,213.5C 434.348,214.239 431.015,214.239 427.5,213.5 Z"/></g>
<g><path style="opacity:0.012" fill="#023431" d="M 254.5,217.5 C 256.882,218.351 258.882,219.684 260.5,221.5C 257.733,221.13 255.733,219.796 254.5,217.5 Z"/></g>
<g><path style="opacity:0.055" fill="#003434" d="M 260.5,221.5 C 263.443,221.98 266.11,222.98 268.5,224.5C 265.658,224.768 262.992,223.768 260.5,221.5 Z"/></g>
<g><path style="opacity:1" fill="#000808" d="M 223.5,257.5 C 220.849,258.49 218.183,259.49 215.5,260.5C 214,260.547 213,259.881 212.5,258.5C 216.067,258.353 219.067,256.687 221.5,253.5C 227.429,249.076 232.929,244.076 238,238.5C 241.453,233.379 245.286,228.546 249.5,224C 250.332,223.312 250.998,223.479 251.5,224.5C 247.979,231.85 243.479,238.516 238,244.5C 233.568,249.44 228.735,253.773 223.5,257.5 Z"/></g>
<g><path style="opacity:1" fill="#005a5c" d="M 244.5,291.5 C 243.539,290.783 242.539,289.617 241.5,288C 241.957,287.586 242.291,287.086 242.5,286.5C 241.5,285.833 240.5,285.167 239.5,284.5C 240.343,281.404 239.009,279.571 235.5,279C 235.833,278.667 236.167,278.333 236.5,278C 235.562,274.475 233.562,271.808 230.5,270C 230.833,269.667 231.167,269.333 231.5,269C 230.5,266.667 228.833,265 226.5,264C 226.833,263.667 227.167,263.333 227.5,263C 225.699,262.683 225.366,262.016 226.5,261C 224.574,260.578 223.574,259.411 223.5,257.5C 228.735,253.773 233.568,249.44 238,244.5C 243.479,238.516 247.979,231.85 251.5,224.5C 250.998,223.479 250.332,223.312 249.5,224C 245.286,228.546 241.453,233.379 238,238.5C 232.929,244.076 227.429,249.076 221.5,253.5C 214.906,247.189 210.24,239.523 207.5,230.5C 206.448,230.649 205.448,230.483 204.5,230C 204.833,229.667 205.167,229.333 205.5,229C 203.578,227.54 202.911,225.873 203.5,224C 199.511,217.738 195.844,211.905 192.5,206.5C 202.138,204.029 208.304,198.029 211,188.5C 215.8,194.302 220.967,199.802 226.5,205C 236.026,210.595 245.026,216.929 253.5,224C 264.272,228.368 275.105,232.534 286,236.5C 286.981,244.907 284.981,252.574 280,259.5C 270.793,273.915 258.96,284.581 244.5,291.5 Z"/></g>
<g><path style="opacity:0.753" fill="#022625" d="M 272.5,225.5 C 274.75,226.13 276.75,227.13 278.5,228.5C 275.784,228.614 273.784,227.614 272.5,225.5 Z"/></g>
<g><path style="opacity:0.027" fill="#004944" d="M 167.5,236.5 C 168.906,236.973 169.573,237.973 169.5,239.5C 168.094,239.027 167.427,238.027 167.5,236.5 Z"/></g>
<g><path style="opacity:0.176" fill="#004543" d="M 170.5,241.5 C 172.104,242.287 172.771,243.62 172.5,245.5C 171.326,244.486 170.66,243.153 170.5,241.5 Z"/></g>
<g><path style="opacity:0.369" fill="#013634" d="M 291.5,244.5 C 291.829,247.228 291.163,249.562 289.5,251.5C 289.721,248.933 290.388,246.599 291.5,244.5 Z"/></g>
<g><path style="opacity:0.071" fill="#013535" d="M 181.5,258.5 C 183.587,259.585 184.92,261.251 185.5,263.5C 183.413,262.415 182.08,260.749 181.5,258.5 Z"/></g>
<g><path style="opacity:0.063" fill="#003d3d" d="M 281.5,265.5 C 281.262,267.404 280.262,268.738 278.5,269.5C 278.738,267.596 279.738,266.262 281.5,265.5 Z"/></g>
<g><path style="opacity:0.027" fill="#003639" d="M 190.5,268.5 C 191.906,268.973 192.573,269.973 192.5,271.5C 191.094,271.027 190.427,270.027 190.5,268.5 Z"/></g>
<g><path style="opacity:0.004" fill="#004948" d="M 197.5,276.5 C 199.167,277.5 200.5,278.833 201.5,280.5C 199.167,280.167 197.833,278.833 197.5,276.5 Z"/></g>
<g><path style="opacity:0.055" fill="#012627" d="M 276.5,272.5 C 275.243,275.427 273.243,277.761 270.5,279.5C 271.757,276.573 273.757,274.239 276.5,272.5 Z"/></g>
<g><path style="opacity:0.855" fill="#042b2b" d="M 210.5,289.5 C 213.427,290.757 215.761,292.757 217.5,295.5C 214.573,294.243 212.239,292.243 210.5,289.5 Z"/></g>
<g><path style="opacity:0.078" fill="#013433" d="M 258.5,289.5 C 255.642,293.01 251.976,295.343 247.5,296.5C 250.894,293.779 254.561,291.446 258.5,289.5 Z"/></g>
<g><path style="opacity:0.935" fill="#07201f" d="M 237.5,300.5 C 233.981,301.632 230.314,302.632 226.5,303.5C 226.953,302.542 227.619,301.708 228.5,301C 231.482,300.502 234.482,300.335 237.5,300.5 Z"/></g>
</svg>
