<?xml version="1.0" encoding="UTF-8"?>
<!DOCTYPE svg PUBLIC "-//W3C//DTD SVG 1.1//EN" "http://www.w3.org/Graphics/SVG/1.1/DTD/svg11.dtd">
<svg xmlns="http://www.w3.org/2000/svg" version="1.1" width="862px" height="862px" style="shape-rendering:geometricPrecision; text-rendering:geometricPrecision; image-rendering:optimizeQuality; fill-rule:evenodd; clip-rule:evenodd" xmlns:xlink="http://www.w3.org/1999/xlink">
<g><path style="opacity:0.994" fill="#0f0200" d="M 505.5,18.5 C 529.919,17.7264 553.919,20.5598 577.5,27C 609.101,35.4222 639.767,46.4222 669.5,60C 698.643,78.4613 725.476,99.9613 750,124.5C 769.217,147.939 781.717,174.606 787.5,204.5C 787.255,206.663 786.255,208.33 784.5,209.5C 759.247,199.852 733.247,192.685 706.5,188C 674.881,182.925 645.214,188.259 617.5,204C 595.206,220.746 581.706,242.913 577,270.5C 573.386,276.063 568.219,279.23 561.5,280C 535.059,282.696 509.726,278.696 485.5,268C 468.941,259.107 453.775,248.273 440,235.5C 437.168,231.336 435.001,226.836 433.5,222C 433.645,221.228 433.978,220.561 434.5,220C 452.214,214.488 469.881,208.821 487.5,203C 509.336,194.838 527.502,181.671 542,163.5C 552.415,149.418 554.082,134.418 547,118.5C 546.505,116.527 546.338,114.527 546.5,112.5C 552.944,108.776 559.611,105.276 566.5,102C 576.482,99.0056 586.482,96.339 596.5,94C 561.281,62.2167 520.614,40.05 474.5,27.5C 473.417,26.635 473.251,25.635 474,24.5C 475.816,23.6705 477.649,22.8372 479.5,22C 488.308,20.784 496.974,19.6174 505.5,18.5 Z"/></g>
<g><path style="opacity:1" fill="#490400" d="M 534.5,181.5 C 530.189,192.315 522.855,200.481 512.5,206C 503.969,206.603 496.303,209.436 489.5,214.5C 480.745,227.851 484.078,237.018 499.5,242C 513.94,242.601 528.106,244.768 542,248.5C 550.35,248.659 556.35,244.993 560,237.5C 561.02,232.087 562.353,226.754 564,221.5C 572.123,204.923 579.956,188.257 587.5,171.5C 589.828,154.787 582.494,147.62 565.5,150C 560.214,152.953 555.88,156.953 552.5,162C 551.552,162.483 550.552,162.649 549.5,162.5C 558.33,147.728 559.663,132.228 553.5,116C 559.696,110.255 567.03,106.589 575.5,105C 583.786,103.076 592.119,101.41 600.5,100C 603.379,98.3342 604.212,95.8342 603,92.5C 598.86,88.3604 594.694,84.1937 590.5,80C 569.173,63.9947 546.507,49.9947 522.5,38C 511.167,34 499.833,30 488.5,26C 509.782,22.4904 531.116,22.8237 552.5,27C 584.655,34.052 615.988,43.7187 646.5,56C 664.917,63.704 681.917,73.704 697.5,86C 711.167,97.6667 724.833,109.333 738.5,121C 755.064,138.925 767.564,159.425 776,182.5C 776.59,189.092 778.09,195.425 780.5,201.5C 764.334,196.167 748,191.334 731.5,187C 709.116,181.806 686.449,180.139 663.5,182C 612.447,190.055 582.113,219.389 572.5,270C 560.69,275.138 548.356,276.805 535.5,275C 517.682,274.371 501.015,269.705 485.5,261C 470.334,252.665 456.5,242.498 444,230.5C 442.833,228.167 441.667,225.833 440.5,223.5C 453.472,219.605 466.472,215.771 479.5,212C 499.666,204.922 518,194.755 534.5,181.5 Z"/></g>
<g><path style="opacity:0.994" fill="#100b01" d="M 110.5,109.5 C 117.11,104.559 123.11,98.8922 128.5,92.5C 136.353,85.1529 144.687,78.3196 153.5,72C 170.937,64.1151 187.937,55.4484 204.5,46C 222.928,39.3172 241.928,35.3172 261.5,34C 268.833,33.3333 276.167,33.3333 283.5,34C 284.406,35.6995 284.739,37.5328 284.5,39.5C 282.473,39.3379 280.473,39.5045 278.5,40C 251.079,56.5854 230.079,79.0854 215.5,107.5C 223.11,109.983 230.443,113.149 237.5,117C 239.543,119.009 241.543,121.009 243.5,123C 243.578,128.964 243.411,135.131 243,141.5C 242.488,146.038 240.988,150.204 238.5,154C 248.461,168.641 257.628,183.808 266,199.5C 276.165,211.143 285.665,223.143 294.5,235.5C 285.24,264.602 266.573,285.435 238.5,298C 232.801,299.002 227.301,300.502 222,302.5C 219.446,302.42 217.946,301.086 217.5,298.5C 226.852,273.567 224.685,249.567 211,226.5C 195.302,204.14 174.468,188.64 148.5,180C 123.327,176.617 100.993,182.95 81.5,199C 79.8876,199.72 78.3876,199.554 77,198.5C 77.0751,189.833 77.7417,181.166 79,172.5C 83.4608,161.784 87.1275,150.784 90,139.5C 95.9148,128.773 102.748,118.773 110.5,109.5 Z"/></g>
<g><path style="opacity:1" fill="#024009" d="M 261.5,40.5 C 262.708,39.218 264.042,39.218 265.5,40.5C 265.376,41.1067 265.043,41.44 264.5,41.5C 263.791,40.596 262.791,40.2627 261.5,40.5 Z"/></g>
<g><path style="opacity:1" fill="#4a0400" d="M 261.5,40.5 C 262.791,40.2627 263.791,40.596 264.5,41.5C 245.765,55.7374 229.931,72.7374 217,92.5C 213.985,97.5251 211.818,102.858 210.5,108.5C 209.167,108.5 207.833,108.5 206.5,108.5C 206.452,111.292 207.785,113.125 210.5,114C 220.933,114.96 230.1,119.126 238,126.5C 239.8,136.465 237.633,145.298 231.5,153C 236.717,162.603 242.05,172.103 247.5,181.5C 246.173,180.2 244.84,178.867 243.5,177.5C 237.634,179.4 231.634,179.9 225.5,179C 222.294,174.46 218.46,170.627 214,167.5C 211.082,168.258 208.915,169.925 207.5,172.5C 205.008,179.413 204.842,186.413 207,193.5C 213.291,204.044 218.625,215.044 223,226.5C 223.945,230.494 224.778,234.494 225.5,238.5C 219.105,224.249 210.105,211.749 198.5,201C 191.833,195.667 185.167,190.333 178.5,185C 145.593,166.828 113.926,168.662 83.5,190.5C 82.5269,188.052 82.1936,185.385 82.5,182.5C 86.6324,169.549 90.7991,156.549 95,143.5C 99.3557,136.789 103.189,129.789 106.5,122.5C 123.819,102.199 143.819,85.1989 166.5,71.5C 179.709,65.7305 192.376,59.2305 204.5,52C 223.091,45.9152 242.091,42.0819 261.5,40.5 Z"/></g>
<g><path style="opacity:1" fill="#5d1200" d="M 601.5,145.5 C 602.678,143.662 602.345,141.995 600.5,140.5C 597.892,133.011 594.892,125.677 591.5,118.5C 591.167,116.5 590.833,114.5 590.5,112.5C 590.328,111.508 590.662,110.842 591.5,110.5C 593.027,110.573 594.027,109.906 594.5,108.5C 610.607,106.28 625.607,100.946 639.5,92.5C 629.818,84.9892 619.485,78.4892 608.5,73C 602.687,67.9253 596.354,63.592 589.5,60C 580.95,57.1172 572.617,53.7839 564.5,50C 561.603,48.2845 560.269,45.7845 560.5,42.5C 572.829,44.7502 584.829,48.2502 596.5,53C 601.469,54.1589 606.469,55.1589 611.5,56C 612.551,57.3848 613.884,58.3848 615.5,59C 620.162,59.9111 624.495,61.5777 628.5,64C 633.906,64.6145 639.239,65.6145 644.5,67C 656.5,72.6667 668.5,78.3333 680.5,84C 694.167,92.6599 706.333,103.16 717,115.5C 726.65,128.478 736.65,141.145 747,153.5C 750.528,162.114 753.362,170.947 755.5,180C 754.391,181.861 752.725,182.695 750.5,182.5C 739.383,180.057 728.383,177.224 717.5,174C 686.914,168.756 656.581,169.756 626.5,177C 617.886,178.942 611.386,176.108 607,168.5C 606.011,160.526 604.178,152.859 601.5,145.5 Z"/></g>
<g><path style="opacity:1" fill="#5d1100" d="M 225.5,53.5 C 226.613,54.9464 226.78,56.6131 226,58.5C 215.946,71.5536 206.28,84.8869 197,98.5C 193.253,105.524 190.753,112.857 189.5,120.5C 201.205,117.549 211.038,120.549 219,129.5C 219.667,133.167 219.667,136.833 219,140.5C 214.737,151.525 208.571,161.358 200.5,170C 197.5,170.667 194.5,170.667 191.5,170C 169.706,160.943 147.039,157.943 123.5,161C 118.5,161.333 113.5,161.667 108.5,162C 105.688,163.549 102.688,164.382 99.5,164.5C 101.854,146.961 109.021,131.628 121,118.5C 134.954,104.873 149.788,92.3726 165.5,81C 170.55,78.206 175.884,76.206 181.5,75C 189.162,70.8363 196.496,66.1697 203.5,61C 211.117,58.9618 218.451,56.4618 225.5,53.5 Z"/></g>
<g><path style="opacity:0.749" fill="#2a0d00" d="M 128.5,92.5 C 123.11,98.8922 117.11,104.559 110.5,109.5C 115.89,103.108 121.89,97.4412 128.5,92.5 Z"/></g>
<g><path style="opacity:1" fill="#3e3e01" d="M 594.5,108.5 C 594.027,109.906 593.027,110.573 591.5,110.5C 591.973,109.094 592.973,108.427 594.5,108.5 Z"/></g>
<g><path style="opacity:1" fill="#404200" d="M 590.5,112.5 C 590.833,114.5 591.167,116.5 591.5,118.5C 589.539,116.68 589.206,114.68 590.5,112.5 Z"/></g>
<g><path style="opacity:1" fill="#3d4201" d="M 600.5,140.5 C 602.345,141.995 602.678,143.662 601.5,145.5C 600.962,143.883 600.629,142.216 600.5,140.5 Z"/></g>
<g><path style="opacity:1" fill="#5d1200" d="M 534.5,181.5 C 539.741,175.348 544.741,169.015 549.5,162.5C 550.552,162.649 551.552,162.483 552.5,162C 555.88,156.953 560.214,152.953 565.5,150C 582.494,147.62 589.828,154.787 587.5,171.5C 579.956,188.257 572.123,204.923 564,221.5C 562.353,226.754 561.02,232.087 560,237.5C 556.35,244.993 550.35,248.659 542,248.5C 528.106,244.768 513.94,242.601 499.5,242C 484.078,237.018 480.745,227.851 489.5,214.5C 496.303,209.436 503.969,206.603 512.5,206C 522.855,200.481 530.189,192.315 534.5,181.5 Z"/></g>
<g><path style="opacity:1" fill="#5d1100" d="M 247.5,181.5 C 251.485,188.131 255.485,194.798 259.5,201.5C 259.678,204.216 260.178,206.883 261,209.5C 263.298,215.974 265.964,222.307 269,228.5C 270.326,232.784 270.992,237.117 271,241.5C 265.939,246.627 261.606,252.293 258,258.5C 252.167,264.598 246.334,270.764 240.5,277C 237.923,278.25 235.257,278.584 232.5,278C 231.865,274.397 231.198,270.897 230.5,267.5C 229.467,257.677 227.801,248.01 225.5,238.5C 224.778,234.494 223.945,230.494 223,226.5C 218.625,215.044 213.291,204.044 207,193.5C 204.842,186.413 205.008,179.413 207.5,172.5C 208.915,169.925 211.082,168.258 214,167.5C 218.46,170.627 222.294,174.46 225.5,179C 231.634,179.9 237.634,179.4 243.5,177.5C 244.84,178.867 246.173,180.2 247.5,181.5 Z"/></g>
<g><path style="opacity:1" fill="#003a0f" d="M 82.5,182.5 C 82.1936,185.385 82.5269,188.052 83.5,190.5C 83.44,191.043 83.1067,191.376 82.5,191.5C 81.1968,188.355 81.1968,185.355 82.5,182.5 Z"/></g>
<g><path style="opacity:1" fill="#4a0500" d="M 259.5,201.5 C 268.424,212.935 277.59,224.268 287,235.5C 286.42,242.685 284.086,249.352 280,255.5C 268.87,271.626 254.37,283.793 236.5,292C 233.436,293.366 230.436,293.866 227.5,293.5C 229.205,284.941 230.205,276.275 230.5,267.5C 231.198,270.897 231.865,274.397 232.5,278C 235.257,278.584 237.923,278.25 240.5,277C 246.334,270.764 252.167,264.598 258,258.5C 261.606,252.293 265.939,246.627 271,241.5C 270.992,237.117 270.326,232.784 269,228.5C 265.964,222.307 263.298,215.974 261,209.5C 260.178,206.883 259.678,204.216 259.5,201.5 Z"/></g>
</svg>
