<?xml version="1.0" encoding="UTF-8"?>
<!DOCTYPE svg PUBLIC "-//W3C//DTD SVG 1.1//EN" "http://www.w3.org/Graphics/SVG/1.1/DTD/svg11.dtd">
<svg xmlns="http://www.w3.org/2000/svg" version="1.1" width="862px" height="862px" style="shape-rendering:geometricPrecision; text-rendering:geometricPrecision; image-rendering:optimizeQuality; fill-rule:evenodd; clip-rule:evenodd" xmlns:xlink="http://www.w3.org/1999/xlink">
<g><path style="opacity:0.997" fill="#130c08" d="M 585.5,142.5 C 618.064,141.521 648.731,148.688 677.5,164C 686.447,169.947 695.114,176.28 703.5,183C 714.043,196.673 717.876,211.839 715,228.5C 713.465,233.604 711.632,238.604 709.5,243.5C 702.685,251.482 695.685,259.316 688.5,267C 694.886,266.122 701.386,265.622 708,265.5C 730.255,265.765 739.422,276.931 735.5,299C 732.443,310.782 726.776,321.115 718.5,330C 703.713,339.671 700.213,336.838 708,321.5C 708.533,312.097 705.7,303.93 699.5,297C 693.141,295.462 686.808,295.795 680.5,298C 669.05,303.483 657.05,307.15 644.5,309C 631.183,311.395 618.849,309.062 607.5,302C 599.758,295.533 598.258,288.033 603,279.5C 607.229,269.604 614.396,262.771 624.5,259C 636.122,256.679 647.122,252.679 657.5,247C 667.385,239.172 670.052,229.339 665.5,217.5C 660.121,218.006 654.787,218.839 649.5,220C 628.159,228.35 609.159,240.35 592.5,256C 588,260.5 583.5,265 579,269.5C 573.788,285.037 563.288,290.537 547.5,286C 525.22,283.693 504.886,276.359 486.5,264C 473.295,251.722 467.128,236.555 468,218.5C 469.427,213.878 471.427,209.545 474,205.5C 488.146,191.361 503.313,178.527 519.5,167C 529.711,161.728 540.044,156.728 550.5,152C 562.08,148.024 573.746,144.858 585.5,142.5 Z"/></g>
<g><path style="opacity:1" fill="#916340" d="M 674.5,210.5 C 670.855,209.95 667.689,209.95 665,210.5C 664.722,209.584 664.222,208.918 663.5,208.5C 660.471,206.628 658.305,203.961 657,200.5C 655.059,195.299 653.559,189.966 652.5,184.5C 650.976,185.527 650.309,187.027 650.5,189C 651.273,195.651 653.439,201.818 657,207.5C 658.113,208.305 659.279,208.972 660.5,209.5C 660.631,210.239 660.464,210.906 660,211.5C 657.248,211.288 654.082,210.955 650.5,210.5C 647.971,211.599 645.471,212.599 643,213.5C 640.747,213.369 638.581,213.035 636.5,212.5C 635.201,213.09 634.368,214.09 634,215.5C 630.092,214.125 626.092,214.792 622,217.5C 618.678,216.558 615.511,216.225 612.5,216.5C 611.482,217.193 610.482,217.859 609.5,218.5C 602.515,211.337 597.348,203.003 594,193.5C 593.821,190.447 593.321,187.447 592.5,184.5C 591.914,184.709 591.414,185.043 591,185.5C 590.249,190.572 590.582,195.572 592,200.5C 595.603,207.257 599.77,213.591 604.5,219.5C 603.357,219.793 602.023,219.793 600.5,219.5C 598.654,221.592 596.321,222.926 593.5,223.5C 592.914,223.291 592.414,222.957 592,222.5C 589.29,225.186 586.29,227.519 583,229.5C 581.984,228.366 581.317,228.699 581,230.5C 580.667,230.167 580.333,229.833 580,229.5C 578.764,231.538 576.931,232.705 574.5,233C 574.833,233.333 575.167,233.667 575.5,234C 574.062,234.219 572.729,234.719 571.5,235.5C 570.669,238.672 568.669,240.338 565.5,240.5C 560.394,238.907 556.227,235.907 553,231.5C 548.605,225.434 544.605,219.1 541,212.5C 540.626,210.102 540.626,207.769 541,205.5C 539.989,204.663 538.822,204.33 537.5,204.5C 537.21,208.936 537.71,213.27 539,217.5C 543.333,223.833 547.667,230.167 552,236.5C 554.628,239.21 557.461,241.544 560.5,243.5C 556.477,247.697 551.81,251.197 546.5,254C 546.319,257.85 544.319,260.183 540.5,261C 539.15,262.718 537.983,264.552 537,266.5C 536.667,266.167 536.333,265.833 536,265.5C 536.063,268.767 534.563,270.934 531.5,272C 532.413,273.414 532.413,274.914 531.5,276.5C 513.09,273.379 497.256,265.379 484,252.5C 476.191,241.739 472.857,229.739 474,216.5C 478.709,208.785 484.542,201.951 491.5,196C 500.016,189.574 508.349,182.907 516.5,176C 537.635,162.267 560.635,153.267 585.5,149C 600.74,147.648 615.74,148.981 630.5,153C 645.739,157.3 660.405,162.966 674.5,170C 685.797,176.399 695.63,184.566 704,194.5C 709.659,204.809 711.659,215.809 710,227.5C 705.468,222.633 700.634,218.133 695.5,214C 688.723,211.462 681.723,210.296 674.5,210.5 Z"/></g>
<g><path style="opacity:0.996" fill="#140d08" d="M 174.5,164.5 C 224.809,164.566 263.976,185.233 292,226.5C 294.158,234.271 293.825,241.938 291,249.5C 286.623,263.427 279.789,275.927 270.5,287C 262.225,293.056 253.392,298.223 244,302.5C 236.894,304.964 229.728,305.13 222.5,303C 221.308,301.055 221.308,299.055 222.5,297C 218.747,289.407 215.58,281.573 213,273.5C 203.563,260.398 193.063,248.231 181.5,237C 167.625,227.703 152.625,220.703 136.5,216C 132.833,215.333 129.167,215.333 125.5,216C 122.528,217.141 120.861,219.308 120.5,222.5C 122.316,224.817 124.316,226.984 126.5,229C 134.833,232.667 143.167,236.333 151.5,240C 161.408,247.205 171.575,254.038 182,260.5C 188.153,269.822 187.986,278.989 181.5,288C 171.767,294.339 161.434,295.339 150.5,291C 143.153,288.657 135.819,286.323 128.5,284C 117.047,281.545 110.047,285.878 107.5,297C 108.614,304.497 110.614,311.663 113.5,318.5C 100.871,317.267 89.704,312.6 80,304.5C 77.9376,302.099 76.2709,299.433 75,296.5C 74.1041,288.754 74.4375,281.087 76,273.5C 80.018,265.44 85.8514,259.107 93.5,254.5C 80.7205,242.664 77.5539,228.664 84,212.5C 93.8725,199.627 105.373,188.46 118.5,179C 136.158,169.753 154.825,164.92 174.5,164.5 Z"/></g>
<g><path style="opacity:1" fill="#916340" d="M 280.5,260.5 C 279.213,261.831 277.047,262.831 274,263.5C 272.684,260.972 271.517,260.972 270.5,263.5C 268.694,262.141 267.194,262.475 266,264.5C 263.084,262.987 260.418,263.32 258,265.5C 256.457,264.715 254.79,264.715 253,265.5C 251.11,265.215 249.777,264.215 249,262.5C 247.636,263.258 246.469,262.758 245.5,261C 245.833,260.667 246.167,260.333 246.5,260C 243,257.331 239.667,254.498 236.5,251.5C 240.161,246.184 243.328,240.517 246,234.5C 247.37,226.236 247.87,217.903 247.5,209.5C 245.876,209.36 244.71,210.027 244,211.5C 245.234,224.956 241.734,236.956 233.5,247.5C 232.761,247.631 232.094,247.464 231.5,247C 232.833,246.333 232.833,245.667 231.5,245C 229.975,243.991 228.308,243.491 226.5,243.5C 226.5,242.5 226.5,241.5 226.5,240.5C 224.833,240.5 223.167,240.5 221.5,240.5C 221.5,239.5 221.5,238.5 221.5,237.5C 217.567,237.804 214.567,236.304 212.5,233C 209.494,230.886 206.16,229.553 202.5,229C 201.167,228.333 201.167,227.667 202.5,227C 199.5,224.997 196.167,224.164 192.5,224.5C 192.169,222.678 191.502,221.011 190.5,219.5C 192.155,211.723 193.489,203.889 194.5,196C 194.333,193.833 194.167,191.667 194,189.5C 192.667,188.167 191.333,188.167 190,189.5C 190.106,199.791 188.606,209.791 185.5,219.5C 183.007,219.671 181.174,218.671 180,216.5C 179.667,216.833 179.333,217.167 179,217.5C 177.601,216.773 176.101,216.273 174.5,216C 173.167,215.333 173.167,214.667 174.5,214C 172.729,211.887 171.229,212.053 170,214.5C 169,213.167 168,211.833 167,210.5C 165.984,211.634 165.317,211.301 165,209.5C 164.667,209.833 164.333,210.167 164,210.5C 162.316,208.299 160.316,207.633 158,208.5C 157.676,206.431 156.842,206.098 155.5,207.5C 153.517,207.185 152.184,206.185 151.5,204.5C 151.664,201.813 151.497,199.146 151,196.5C 149.989,195.663 148.822,195.33 147.5,195.5C 147.5,197.167 147.5,198.833 147.5,200.5C 146.837,202.042 146.17,203.709 145.5,205.5C 143.807,203.973 141.973,202.64 140,201.5C 139.586,201.957 139.086,202.291 138.5,202.5C 135.133,201.554 131.8,200.554 128.5,199.5C 125.565,199.899 122.731,199.899 120,199.5C 119.261,198.426 118.261,197.759 117,197.5C 114.064,198.035 111.397,198.035 109,197.5C 107.556,199.155 105.722,199.822 103.5,199.5C 109.345,193.492 115.678,187.992 122.5,183C 141.944,172.887 162.611,168.887 184.5,171C 227.599,172.959 261.432,191.459 286,226.5C 287.555,231.382 287.888,236.382 287,241.5C 284.933,247.867 282.766,254.201 280.5,260.5 Z"/></g>
<g><path style="opacity:1" fill="#0c0604" d="M 663.5,208.5 C 662.791,209.404 661.791,209.737 660.5,209.5C 659.279,208.972 658.113,208.305 657,207.5C 653.439,201.818 651.273,195.651 650.5,189C 650.309,187.027 650.976,185.527 652.5,184.5C 653.559,189.966 655.059,195.299 657,200.5C 658.305,203.961 660.471,206.628 663.5,208.5 Z"/></g>
<g><path style="opacity:1" fill="#814125" d="M 147.5,200.5 C 147.543,203.91 147.043,207.243 146,210.5C 145.481,211.516 144.647,212.182 143.5,212.5C 138.371,210.402 133.038,209.235 127.5,209C 116.113,208.401 104.78,208.401 93.5,209C 96.0658,204.932 99.3991,201.765 103.5,199.5C 105.722,199.822 107.556,199.155 109,197.5C 111.397,198.035 114.064,198.035 117,197.5C 118.261,197.759 119.261,198.426 120,199.5C 122.731,199.899 125.565,199.899 128.5,199.5C 131.8,200.554 135.133,201.554 138.5,202.5C 139.086,202.291 139.586,201.957 140,201.5C 141.973,202.64 143.807,203.973 145.5,205.5C 146.17,203.709 146.837,202.042 147.5,200.5 Z"/></g>
<g><path style="opacity:1" fill="#0e0805" d="M 565.5,240.5 C 569.152,242.787 573.152,244.621 577.5,246C 578.687,247.019 579.687,248.186 580.5,249.5C 580,249.833 579.5,250.167 579,250.5C 572.789,248.241 566.622,245.907 560.5,243.5C 557.461,241.544 554.628,239.21 552,236.5C 547.667,230.167 543.333,223.833 539,217.5C 537.71,213.27 537.21,208.936 537.5,204.5C 538.822,204.33 539.989,204.663 541,205.5C 540.626,207.769 540.626,210.102 541,212.5C 544.605,219.1 548.605,225.434 553,231.5C 556.227,235.907 560.394,238.907 565.5,240.5 Z"/></g>
<g><path style="opacity:1" fill="#814125" d="M 151.5,204.5 C 152.184,206.185 153.517,207.185 155.5,207.5C 156.842,206.098 157.676,206.431 158,208.5C 160.316,207.633 162.316,208.299 164,210.5C 164.333,210.167 164.667,209.833 165,209.5C 165.317,211.301 165.984,211.634 167,210.5C 168,211.833 169,213.167 170,214.5C 171.229,212.053 172.729,211.887 174.5,214C 173.167,214.667 173.167,215.333 174.5,216C 176.101,216.273 177.601,216.773 179,217.5C 179.333,217.167 179.667,216.833 180,216.5C 181.174,218.671 183.007,219.671 185.5,219.5C 185.047,225.124 182.047,227.624 176.5,227C 168.001,221.777 159.001,217.61 149.5,214.5C 149.167,214.167 148.833,213.833 148.5,213.5C 149.635,210.418 150.635,207.418 151.5,204.5 Z"/></g>
<g><path style="opacity:1" fill="#804225" d="M 663.5,208.5 C 664.222,208.918 664.722,209.584 665,210.5C 667.689,209.95 670.855,209.95 674.5,210.5C 665.901,211.593 657.234,213.093 648.5,215C 638.962,218.399 629.796,222.566 621,227.5C 616.705,225.032 612.871,222.032 609.5,218.5C 610.482,217.859 611.482,217.193 612.5,216.5C 615.511,216.225 618.678,216.558 622,217.5C 626.092,214.792 630.092,214.125 634,215.5C 634.368,214.09 635.201,213.09 636.5,212.5C 638.581,213.035 640.747,213.369 643,213.5C 645.471,212.599 647.971,211.599 650.5,210.5C 654.082,210.955 657.248,211.288 660,211.5C 660.464,210.906 660.631,210.239 660.5,209.5C 661.791,209.737 662.791,209.404 663.5,208.5 Z"/></g>
<g><path style="opacity:1" fill="#814125" d="M 99.5,213.5 C 106.011,212.182 112.678,212.182 119.5,213.5C 114.302,219.112 114.302,224.612 119.5,230C 129.167,235.563 139.167,240.563 149.5,245C 154.738,249.203 160.238,253.036 166,256.5C 167.033,259.217 166.2,261.051 163.5,262C 159.5,262.667 155.5,262.667 151.5,262C 141.613,258.092 131.613,254.925 121.5,252.5C 121.938,252.565 122.272,252.399 122.5,252C 119.107,251.606 116.94,249.773 116,246.5C 115.282,247.451 114.449,247.617 113.5,247C 114.866,244.562 114.366,244.062 112,245.5C 104.753,241.582 99.5867,235.749 96.5,228C 97.8333,225.667 97.8333,223.333 96.5,221C 98.5689,220.676 98.9023,219.842 97.5,218.5C 97.9767,217.522 98.6433,216.689 99.5,216C 98.3659,214.984 98.6992,214.317 100.5,214C 100.272,213.601 99.9382,213.435 99.5,213.5 Z"/></g>
<g><path style="opacity:1" fill="#8e613f" d="M 99.5,213.5 C 99.9382,213.435 100.272,213.601 100.5,214C 98.6992,214.317 98.3659,214.984 99.5,216C 98.6433,216.689 97.9767,217.522 97.5,218.5C 98.9023,219.842 98.5689,220.676 96.5,221C 97.8333,223.333 97.8333,225.667 96.5,228C 99.5867,235.749 104.753,241.582 112,245.5C 114.366,244.062 114.866,244.562 113.5,247C 114.449,247.617 115.282,247.451 116,246.5C 116.94,249.773 119.107,251.606 122.5,252C 122.272,252.399 121.938,252.565 121.5,252.5C 114.479,251.289 107.479,251.289 100.5,252.5C 88.226,243.846 83.726,232.18 87,217.5C 90.5443,214.486 94.711,213.153 99.5,213.5 Z"/></g>
<g><path style="opacity:1" fill="#824125" d="M 697.5,223.5 C 697.063,225.074 696.063,226.241 694.5,227C 696.767,228.081 696.934,229.581 695,231.5C 693.859,233.609 692.359,235.442 690.5,237C 691.517,238.049 691.684,239.216 691,240.5C 689.59,241.787 688.09,242.954 686.5,244C 687.167,244.333 687.833,244.667 688.5,245C 684.942,246.892 682.442,249.725 681,253.5C 678.833,254.333 677.333,255.833 676.5,258C 673.19,257.771 671.356,259.271 671,262.5C 668.871,261.137 668.371,261.471 669.5,263.5C 666.319,265.419 662.985,267.919 659.5,271C 658.451,271.492 657.451,271.326 656.5,270.5C 655.476,271.853 654.143,272.52 652.5,272.5C 652.5,273.5 652.5,274.5 652.5,275.5C 645.963,277.215 639.629,276.715 633.5,274C 630.019,270.603 629.686,266.936 632.5,263C 644.389,260.471 655.222,255.638 665,248.5C 672.665,239.229 674.498,228.895 670.5,217.5C 677.173,216.444 683.839,216.61 690.5,218C 693.266,219.371 695.599,221.204 697.5,223.5 Z"/></g>
<g><path style="opacity:1" fill="#824125" d="M 604.5,219.5 C 607.944,223.061 611.944,225.894 616.5,228C 617.451,228.718 617.617,229.551 617,230.5C 602.847,240.085 589.847,251.085 578,263.5C 574.501,267.672 571.834,272.338 570,277.5C 568.5,279 567,280.5 565.5,282C 553.925,281.126 542.592,279.293 531.5,276.5C 532.413,274.914 532.413,273.414 531.5,272C 534.563,270.934 536.063,268.767 536,265.5C 536.333,265.833 536.667,266.167 537,266.5C 537.983,264.552 539.15,262.718 540.5,261C 544.319,260.183 546.319,257.85 546.5,254C 551.81,251.197 556.477,247.697 560.5,243.5C 566.622,245.907 572.789,248.241 579,250.5C 579.5,250.167 580,249.833 580.5,249.5C 579.687,248.186 578.687,247.019 577.5,246C 573.152,244.621 569.152,242.787 565.5,240.5C 568.669,240.338 570.669,238.672 571.5,235.5C 572.729,234.719 574.062,234.219 575.5,234C 575.167,233.667 574.833,233.333 574.5,233C 576.931,232.705 578.764,231.538 580,229.5C 580.333,229.833 580.667,230.167 581,230.5C 581.317,228.699 581.984,228.366 583,229.5C 586.29,227.519 589.29,225.186 592,222.5C 592.414,222.957 592.914,223.291 593.5,223.5C 596.321,222.926 598.654,221.592 600.5,219.5C 602.023,219.793 603.357,219.793 604.5,219.5 Z"/></g>
<g><path style="opacity:1" fill="#824125" d="M 190.5,219.5 C 191.502,221.011 192.169,222.678 192.5,224.5C 196.167,224.164 199.5,224.997 202.5,227C 201.167,227.667 201.167,228.333 202.5,229C 206.16,229.553 209.494,230.886 212.5,233C 214.567,236.304 217.567,237.804 221.5,237.5C 221.5,238.5 221.5,239.5 221.5,240.5C 223.167,240.5 224.833,240.5 226.5,240.5C 226.5,241.5 226.5,242.5 226.5,243.5C 228.308,243.491 229.975,243.991 231.5,245C 232.833,245.667 232.833,246.333 231.5,247C 232.094,247.464 232.761,247.631 233.5,247.5C 229.227,257.713 221.727,262.046 211,260.5C 203.413,249.577 194.413,239.91 184,231.5C 186.381,227.746 188.548,223.746 190.5,219.5 Z"/></g>
<g><path style="opacity:1" fill="#8f613f" d="M 697.5,223.5 C 700.11,225.606 702.61,227.94 705,230.5C 705.667,233.5 705.667,236.5 705,239.5C 703.248,242.672 701.248,245.672 699,248.5C 693.167,255.667 686.667,262.167 679.5,268C 670.564,270.712 661.564,273.212 652.5,275.5C 652.5,274.5 652.5,273.5 652.5,272.5C 654.143,272.52 655.476,271.853 656.5,270.5C 657.451,271.326 658.451,271.492 659.5,271C 662.985,267.919 666.319,265.419 669.5,263.5C 668.371,261.471 668.871,261.137 671,262.5C 671.356,259.271 673.19,257.771 676.5,258C 677.333,255.833 678.833,254.333 681,253.5C 682.442,249.725 684.942,246.892 688.5,245C 687.833,244.667 687.167,244.333 686.5,244C 688.09,242.954 689.59,241.787 691,240.5C 691.684,239.216 691.517,238.049 690.5,237C 692.359,235.442 693.859,233.609 695,231.5C 696.934,229.581 696.767,228.081 694.5,227C 696.063,226.241 697.063,225.074 697.5,223.5 Z"/></g>
<g><path style="opacity:1" fill="#824125" d="M 236.5,251.5 C 239.667,254.498 243,257.331 246.5,260C 246.167,260.333 245.833,260.667 245.5,261C 246.469,262.758 247.636,263.258 249,262.5C 249.777,264.215 251.11,265.215 253,265.5C 254.79,264.715 256.457,264.715 258,265.5C 260.418,263.32 263.084,262.987 266,264.5C 267.194,262.475 268.694,262.141 270.5,263.5C 271.517,260.972 272.684,260.972 274,263.5C 277.047,262.831 279.213,261.831 280.5,260.5C 277.235,268.863 272.568,276.363 266.5,283C 259.668,287.584 252.668,291.917 245.5,296C 240.09,298.382 234.424,299.549 228.5,299.5C 228.579,296.729 228.079,294.063 227,291.5C 223.518,285.533 220.851,279.199 219,272.5C 217.224,269.059 215.057,265.892 212.5,263C 223.249,265.463 231.249,261.63 236.5,251.5 Z"/></g>
<g><path style="opacity:1" fill="#8f613f" d="M 180.5,271.5 C 178.54,272.138 176.707,272.138 175,271.5C 172.383,273.414 169.883,275.414 167.5,277.5C 165.326,276.137 163.159,275.803 161,276.5C 157.924,275.712 154.758,275.212 151.5,275C 149.709,274.585 148.376,273.585 147.5,272C 145.559,271.257 143.726,271.424 142,272.5C 139.826,270.824 137.326,269.824 134.5,269.5C 129.927,270.548 125.427,270.548 121,269.5C 120.36,271.398 119.027,271.732 117,270.5C 115.112,270.796 113.278,271.296 111.5,272C 111.833,272.333 112.167,272.667 112.5,273C 109.813,273.341 107.813,274.674 106.5,277C 104.564,277.813 102.564,278.313 100.5,278.5C 100.5,279.833 100.5,281.167 100.5,282.5C 98.3193,282.284 96.6526,283.117 95.5,285C 96.1162,287.39 96.1162,289.556 95.5,291.5C 94.8721,293.258 93.8721,294.758 92.5,296C 93.3266,297.893 93.3266,300.059 92.5,302.5C 93.5,303.333 94.5,304.167 95.5,305C 94.5842,305.278 93.9175,305.778 93.5,306.5C 80.2922,301.07 75.9589,291.403 80.5,277.5C 83.2109,281.212 86.5442,284.212 90.5,286.5C 91.5827,285.635 91.7494,284.635 91,283.5C 86.2333,280.291 83.8999,275.958 84,270.5C 87.8837,264.641 93.0504,260.308 99.5,257.5C 100.333,260.5 101.167,263.5 102,266.5C 103.94,269.402 106.44,270.402 109.5,269.5C 105.328,266.152 103.661,261.819 104.5,256.5C 120.194,257.007 135.194,260.507 149.5,267C 158.355,268.992 166.189,267.159 173,261.5C 177.21,263.544 179.71,266.878 180.5,271.5 Z"/></g>
<g><path style="opacity:1" fill="#8f613f" d="M 680.5,284.5 C 677.184,285.466 673.85,286.466 670.5,287.5C 668.941,286.926 667.441,286.26 666,285.5C 660.648,288.611 655.481,289.944 650.5,289.5C 649.672,290.415 648.672,291.081 647.5,291.5C 637.942,290.758 628.275,290.758 618.5,291.5C 616.018,289.539 613.352,287.706 610.5,286C 611.34,284.334 610.84,284.167 609,285.5C 608.283,284.956 607.783,284.289 607.5,283.5C 610.757,274.409 616.923,268.076 626,264.5C 625.725,271.785 628.892,276.952 635.5,280C 641.461,281.239 647.461,281.573 653.5,281C 663.618,277.743 673.952,275.576 684.5,274.5C 683.752,278.006 682.419,281.34 680.5,284.5 Z"/></g>
<g><path style="opacity:1" fill="#824225" d="M 180.5,271.5 C 182.349,279.286 179.349,284.453 171.5,287C 166.833,287.667 162.167,287.667 157.5,287C 148.3,284.933 139.3,282.266 130.5,279C 106.011,276.986 98.0112,287.486 106.5,310.5C 101.748,310.807 97.4144,309.473 93.5,306.5C 93.9175,305.778 94.5842,305.278 95.5,305C 94.5,304.167 93.5,303.333 92.5,302.5C 93.3266,300.059 93.3266,297.893 92.5,296C 93.8721,294.758 94.8721,293.258 95.5,291.5C 96.1162,289.556 96.1162,287.39 95.5,285C 96.6526,283.117 98.3193,282.284 100.5,282.5C 100.5,281.167 100.5,279.833 100.5,278.5C 102.564,278.313 104.564,277.813 106.5,277C 107.813,274.674 109.813,273.341 112.5,273C 112.167,272.667 111.833,272.333 111.5,272C 113.278,271.296 115.112,270.796 117,270.5C 119.027,271.732 120.36,271.398 121,269.5C 125.427,270.548 129.927,270.548 134.5,269.5C 137.326,269.824 139.826,270.824 142,272.5C 143.726,271.424 145.559,271.257 147.5,272C 148.376,273.585 149.709,274.585 151.5,275C 154.758,275.212 157.924,275.712 161,276.5C 163.159,275.803 165.326,276.137 167.5,277.5C 169.883,275.414 172.383,273.414 175,271.5C 176.707,272.138 178.54,272.138 180.5,271.5 Z"/></g>
<g><path style="opacity:1" fill="#90623f" d="M 719.5,319.5 C 718.761,319.631 718.094,319.464 717.5,319C 718.747,317.542 718.747,316.042 717.5,314.5C 717.846,313.304 718.346,313.304 719,314.5C 719.44,311.339 718.607,308.506 716.5,306C 717.475,303.588 716.808,301.588 714.5,300C 715.634,298.984 715.301,298.317 713.5,298C 714.308,297.692 714.975,297.192 715.5,296.5C 714.753,296.264 713.92,295.93 713,295.5C 712.581,291.148 711.914,290.815 711,294.5C 709.113,292.974 708.113,290.974 708,288.5C 707.683,290.301 707.016,290.634 706,289.5C 705.517,288.552 705.351,287.552 705.5,286.5C 702.684,288.217 700.517,287.551 699,284.5C 698.667,284.833 698.333,285.167 698,285.5C 696.293,284.541 694.459,283.875 692.5,283.5C 690.313,284.072 687.979,284.072 685.5,283.5C 686.466,279.783 687.8,276.283 689.5,273C 698.797,271.602 708.13,271.268 717.5,272C 720.329,273.247 722.995,274.747 725.5,276.5C 725.887,278.731 726.053,281.064 726,283.5C 727.512,281.043 728.846,281.043 730,283.5C 731.455,297.023 727.955,309.023 719.5,319.5 Z"/></g>
<g><path style="opacity:1" fill="#814225" d="M 607.5,283.5 C 607.783,284.289 608.283,284.956 609,285.5C 610.84,284.167 611.34,284.334 610.5,286C 613.352,287.706 616.018,289.539 618.5,291.5C 628.275,290.758 637.942,290.758 647.5,291.5C 648.672,291.081 649.672,290.415 650.5,289.5C 655.481,289.944 660.648,288.611 666,285.5C 667.441,286.26 668.941,286.926 670.5,287.5C 673.85,286.466 677.184,285.466 680.5,284.5C 680.735,285.097 681.235,285.43 682,285.5C 683.303,285.022 684.469,284.355 685.5,283.5C 687.979,284.072 690.313,284.072 692.5,283.5C 694.459,283.875 696.293,284.541 698,285.5C 698.333,285.167 698.667,284.833 699,284.5C 700.517,287.551 702.684,288.217 705.5,286.5C 705.351,287.552 705.517,288.552 706,289.5C 707.016,290.634 707.683,290.301 708,288.5C 708.113,290.974 709.113,292.974 711,294.5C 711.914,290.815 712.581,291.148 713,295.5C 713.92,295.93 714.753,296.264 715.5,296.5C 714.975,297.192 714.308,297.692 713.5,298C 715.301,298.317 715.634,298.984 714.5,300C 716.808,301.588 717.475,303.588 716.5,306C 718.607,308.506 719.44,311.339 719,314.5C 718.346,313.304 717.846,313.304 717.5,314.5C 718.747,316.042 718.747,317.542 717.5,319C 718.094,319.464 718.761,319.631 719.5,319.5C 717.588,322.919 715.088,325.919 712,328.5C 714.381,318.584 713.381,308.917 709,299.5C 707.168,296.639 705.001,294.139 702.5,292C 696.569,290.529 690.569,290.196 684.5,291C 672.945,294.94 661.278,298.607 649.5,302C 640.875,303.419 632.208,303.752 623.5,303C 617.013,301.508 611.513,298.341 607,293.5C 604.882,289.901 605.049,286.568 607.5,283.5 Z"/></g>
</svg>
