<?xml version="1.0" encoding="UTF-8"?>
<!DOCTYPE svg PUBLIC "-//W3C//DTD SVG 1.1//EN" "http://www.w3.org/Graphics/SVG/1.1/DTD/svg11.dtd">
<svg xmlns="http://www.w3.org/2000/svg" version="1.1" width="862px" height="862px" style="shape-rendering:geometricPrecision; text-rendering:geometricPrecision; image-rendering:optimizeQuality; fill-rule:evenodd; clip-rule:evenodd" xmlns:xlink="http://www.w3.org/1999/xlink">
<g><path style="opacity:0.993" fill="#1d1d1c" d="M 533.5,373.5 C 533.427,375.027 534.094,376.027 535.5,376.5C 536.421,377.981 537.588,379.314 539,380.5C 546.114,378.049 553.447,377.049 561,377.5C 571.496,377.782 581.829,379.115 592,381.5C 596.31,378.951 600.81,376.785 605.5,375C 607.124,373.883 608.124,372.383 608.5,370.5C 607.169,365.662 605.169,361.162 602.5,357C 598.071,354.898 593.905,352.398 590,349.5C 589.652,347.077 590.818,346.077 593.5,346.5C 609.841,350.195 616.341,360.195 613,376.5C 603.38,385.408 592.213,388.574 579.5,386C 560.501,380.976 542.501,383.143 525.5,392.5C 525.631,391.624 525.298,390.957 524.5,390.5C 523.261,390.942 522.261,391.609 521.5,392.5C 520.791,393.404 519.791,393.737 518.5,393.5C 514.838,393.723 511.505,394.723 508.5,396.5C 505.759,396.707 503.426,397.707 501.5,399.5C 501.158,400.338 500.492,400.672 499.5,400.5C 494.914,401.46 490.914,403.46 487.5,406.5C 487.158,407.338 486.492,407.672 485.5,407.5C 483.973,407.427 482.973,408.094 482.5,409.5C 474.4,414.478 466.067,419.312 457.5,424C 443.308,427.421 428.975,430.088 414.5,432C 407.568,441.695 402.068,452.195 398,463.5C 395.706,464.852 393.206,465.519 390.5,465.5C 382.205,463.808 373.871,462.308 365.5,461C 361.367,455.866 356.867,451.032 352,446.5C 349.027,442.026 345.86,437.693 342.5,433.5C 326.223,431.676 310.223,429.009 294.5,425.5C 296.933,424.452 296.933,423.786 294.5,423.5C 290.703,423.128 287.37,421.794 284.5,419.5C 281.485,417.326 278.151,415.659 274.5,414.5C 273.415,412.413 271.749,411.08 269.5,410.5C 268.508,410.672 267.842,410.338 267.5,409.5C 267.027,408.094 266.027,407.427 264.5,407.5C 246.393,392.864 225.893,388.198 203,393.5C 187.393,392.379 177.393,384.379 173,369.5C 171.522,361.889 171.188,354.222 172,346.5C 172.576,343.876 173.91,343.209 176,344.5C 175.322,355.382 177.322,365.715 182,375.5C 187.666,382.337 194.999,386.337 204,387.5C 211.838,386.851 219.672,386.184 227.5,385.5C 228.689,385.756 229.856,386.089 231,386.5C 235.355,381.808 239.355,376.808 243,371.5C 252.878,352.411 262.212,333.077 271,313.5C 272.667,312.167 274.333,312.167 276,313.5C 278.194,316.554 279.861,319.888 281,323.5C 287.817,352.886 289.65,382.552 286.5,412.5C 310.116,423.996 334.949,427.996 361,424.5C 392.623,428.793 423.79,426.627 454.5,418C 456.833,416.833 459.167,415.667 461.5,414.5C 462.664,408.193 462.831,401.859 462,395.5C 457.444,368.94 451.777,342.606 445,316.5C 444.347,314.436 443.18,312.769 441.5,311.5C 441.709,310.914 442.043,310.414 442.5,310C 447.572,309.249 452.572,309.582 457.5,311C 484.557,324.944 508.391,343.111 529,365.5C 530.765,368.032 532.265,370.699 533.5,373.5 Z"/></g>
<g><path style="opacity:1" fill="#f5f4e7" d="M 469.5,410.5 C 468.833,406.5 468.167,402.5 467.5,398.5C 463.802,370.345 457.802,342.678 449.5,315.5C 454.683,316.058 459.683,317.891 464.5,321C 474.66,328.247 484.994,335.247 495.5,342C 505.667,351.5 515.833,361 526,370.5C 528.305,374.304 530.805,377.97 533.5,381.5C 518.166,386.445 503.166,392.278 488.5,399C 482.111,402.856 475.778,406.689 469.5,410.5 Z"/></g>
<g><path style="opacity:1" fill="#f2f1e4" d="M 273.5,321.5 C 274.79,322.058 275.623,323.058 276,324.5C 282.555,352.81 284.721,381.476 282.5,410.5C 274.922,407.036 267.922,402.536 261.5,397C 253.654,393.663 245.654,390.83 237.5,388.5C 238.608,384.869 240.774,381.869 244,379.5C 247.919,373.33 251.586,366.997 255,360.5C 261.178,347.478 267.345,334.478 273.5,321.5 Z"/></g>
<g><path style="opacity:0.514" fill="#85857e" d="M 533.5,373.5 C 534.906,373.973 535.573,374.973 535.5,376.5C 534.094,376.027 533.427,375.027 533.5,373.5 Z"/></g>
<g><path style="opacity:0.024" fill="#cacabf" d="M 525.5,392.5 C 524.167,392.5 522.833,392.5 521.5,392.5C 522.261,391.609 523.261,390.942 524.5,390.5C 525.298,390.957 525.631,391.624 525.5,392.5 Z"/></g>
<g><path style="opacity:0.024" fill="#d6d5ca" d="M 518.5,393.5 C 515.495,395.277 512.162,396.277 508.5,396.5C 511.505,394.723 514.838,393.723 518.5,393.5 Z"/></g>
<g><path style="opacity:0.039" fill="#d2d1c6" d="M 508.5,396.5 C 506.574,398.293 504.241,399.293 501.5,399.5C 503.426,397.707 505.759,396.707 508.5,396.5 Z"/></g>
<g><path style="opacity:0.031" fill="#d8d7cc" d="M 499.5,400.5 C 495.818,403.008 491.818,405.008 487.5,406.5C 490.914,403.46 494.914,401.46 499.5,400.5 Z"/></g>
<g><path style="opacity:1" fill="#82817a" d="M 467.5,398.5 C 468.167,402.5 468.833,406.5 469.5,410.5C 469.44,411.043 469.107,411.376 468.5,411.5C 467.508,407.217 467.174,402.884 467.5,398.5 Z"/></g>
<g><path style="opacity:0.055" fill="#d1d0c5" d="M 264.5,407.5 C 266.027,407.427 267.027,408.094 267.5,409.5C 265.973,409.573 264.973,408.906 264.5,407.5 Z"/></g>
<g><path style="opacity:0.02" fill="#dfded2" d="M 485.5,407.5 C 485.027,408.906 484.027,409.573 482.5,409.5C 482.973,408.094 483.973,407.427 485.5,407.5 Z"/></g>
<g><path style="opacity:0.102" fill="#b9b8af" d="M 269.5,410.5 C 271.749,411.08 273.415,412.413 274.5,414.5C 272.251,413.92 270.585,412.587 269.5,410.5 Z"/></g>
<g><path style="opacity:0.039" fill="#d0d0c5" d="M 274.5,414.5 C 278.151,415.659 281.485,417.326 284.5,419.5C 280.58,418.873 277.247,417.207 274.5,414.5 Z"/></g>
<g><path style="opacity:0.031" fill="#d7d6cb" d="M 294.5,423.5 C 296.933,423.786 296.933,424.452 294.5,425.5C 293.494,425.062 293.494,424.396 294.5,423.5 Z"/></g>
<g><path style="opacity:1" fill="#f1f0e3" d="M 350.5,430.5 C 360.215,430.459 369.882,431.125 379.5,432.5C 389.146,431.411 398.812,431.245 408.5,432C 402.865,440.766 397.865,449.933 393.5,459.5C 392.833,459.833 392.167,460.167 391.5,460.5C 383.983,458.204 376.316,456.704 368.5,456C 361.627,448.795 355.127,441.295 349,433.5C 348.761,432.212 349.261,431.212 350.5,430.5 Z"/></g>
</svg>
