<?xml version="1.0" encoding="UTF-8"?>
<!DOCTYPE svg PUBLIC "-//W3C//DTD SVG 1.1//EN" "http://www.w3.org/Graphics/SVG/1.1/DTD/svg11.dtd">
<svg xmlns="http://www.w3.org/2000/svg" version="1.1" width="862px" height="862px" style="shape-rendering:geometricPrecision; text-rendering:geometricPrecision; image-rendering:optimizeQuality; fill-rule:evenodd; clip-rule:evenodd" xmlns:xlink="http://www.w3.org/1999/xlink">
<g><path style="opacity:0.993" fill="#20201e" d="M 591.5,350.5 C 590.89,349.609 590.557,348.609 590.5,347.5C 598.093,347.538 604.593,350.538 610,356.5C 612.002,361.007 613.502,365.674 614.5,370.5C 614.02,374.293 612.353,377.46 609.5,380C 604.5,382.333 599.5,384.667 594.5,387C 582.992,386.084 571.492,384.917 560,383.5C 549.575,383.44 539.575,385.44 530,389.5C 529.099,405.656 527.099,421.656 524,437.5C 515.846,455.806 507.18,473.806 498,491.5C 496.381,493.772 494.548,495.772 492.5,497.5C 491.558,497.392 490.725,497.059 490,496.5C 490.124,476.86 487.791,457.527 483,438.5C 480.491,430.264 476.491,422.931 471,416.5C 465.075,419.213 459.241,422.046 453.5,425C 421.871,432.862 390.038,434.695 358,430.5C 338.546,433.337 319.379,432.004 300.5,426.5C 296.372,429.29 293.372,432.957 291.5,437.5C 286.174,448.647 282.34,460.313 280,472.5C 279.983,480.544 279.816,488.544 279.5,496.5C 278.448,498.256 276.781,498.923 274.5,498.5C 263.666,480.855 255.833,461.855 251,441.5C 248.471,427.539 249.971,414.039 255.5,401C 246.898,396.699 237.898,393.532 228.5,391.5C 218.197,392.724 207.863,393.224 197.5,393C 182.147,389.146 173.647,379.313 172,363.5C 171.333,358.833 171.333,354.167 172,349.5C 172.036,347.059 172.869,345.059 174.5,343.5C 175.086,343.709 175.586,344.043 176,344.5C 175.529,355.347 177.529,365.681 182,375.5C 187.543,382.974 195.043,386.974 204.5,387.5C 232.498,383.446 257.164,390.613 278.5,409C 291.714,416.182 305.714,421.182 320.5,424C 344.953,424.754 369.453,425.587 394,426.5C 413.476,426.449 432.642,423.949 451.5,419C 468.5,410 485.5,401 502.5,392C 517.586,386.527 532.92,381.86 548.5,378C 556.5,377.333 564.5,377.333 572.5,378C 579.063,379.986 585.73,380.986 592.5,381C 596.749,378.806 601.082,376.806 605.5,375C 606.872,373.758 607.872,372.258 608.5,370.5C 607.098,366.461 605.598,362.461 604,358.5C 599.684,355.934 595.517,353.267 591.5,350.5 Z"/></g>
<g><path style="opacity:0.408" fill="#9b9b93" d="M 590.5,347.5 C 590.557,348.609 590.89,349.609 591.5,350.5C 589.448,349.947 589.115,348.947 590.5,347.5 Z"/></g>
<g><path style="opacity:1" fill="#f3f2e5" d="M 523.5,390.5 C 524.649,390.791 525.316,391.624 525.5,393C 523.612,406.547 521.446,420.047 519,433.5C 511.787,450.924 503.787,467.924 495,484.5C 495.151,468.559 493.151,452.892 489,437.5C 485.392,429.112 480.892,421.278 475.5,414C 481.968,408.926 488.968,404.593 496.5,401C 505.492,397.175 514.492,393.675 523.5,390.5 Z"/></g>
<g><path style="opacity:1" fill="#f3f2e5" d="M 259.5,403.5 C 270.581,412.379 282.915,419.212 296.5,424C 280.894,441.812 273.394,462.645 274,486.5C 266.227,471.515 260.227,455.848 256,439.5C 254.469,427.135 255.636,415.135 259.5,403.5 Z"/></g>
<g><path style="opacity:0.751" fill="#e9e8dc" d="M 300.5,426.5 C 300.046,432.284 297.046,435.951 291.5,437.5C 293.372,432.957 296.372,429.29 300.5,426.5 Z"/></g>
<g><path style="opacity:0.796" fill="#62625d" d="M 279.5,496.5 C 280.404,497.209 280.737,498.209 280.5,499.5C 278.265,499.795 276.265,499.461 274.5,498.5C 276.781,498.923 278.448,498.256 279.5,496.5 Z"/></g>
</svg>
