<?xml version="1.0" encoding="UTF-8"?>
<!DOCTYPE svg PUBLIC "-//W3C//DTD SVG 1.1//EN" "http://www.w3.org/Graphics/SVG/1.1/DTD/svg11.dtd">
<svg xmlns="http://www.w3.org/2000/svg" version="1.1" width="862px" height="862px" style="shape-rendering:geometricPrecision; text-rendering:geometricPrecision; image-rendering:optimizeQuality; fill-rule:evenodd; clip-rule:evenodd" xmlns:xlink="http://www.w3.org/1999/xlink">
<g><path style="opacity:0.904" fill="#020202" d="M 492.5,247.5 C 515.533,247.263 533.366,256.596 546,275.5C 550.875,284.412 555.042,293.579 558.5,303C 558.158,305.515 556.825,307.348 554.5,308.5C 552.205,306.52 549.539,305.353 546.5,305C 526.722,303.823 507.555,306.657 489,313.5C 491.296,328.823 493.796,344.156 496.5,359.5C 515.133,358.568 532.466,353.235 548.5,343.5C 551.079,344.888 551.079,346.388 548.5,348C 540.888,351.139 533.554,354.806 526.5,359C 517.117,363.072 507.45,366.239 497.5,368.5C 497.666,377.506 497.5,386.506 497,395.5C 496.586,395.957 496.086,396.291 495.5,396.5C 494.502,387.525 494.168,378.525 494.5,369.5C 474.538,371.28 454.538,371.78 434.5,371C 431.711,370.759 429.044,370.092 426.5,369C 429.84,366.991 433.507,365.824 437.5,365.5C 456.034,367.058 474.367,365.724 492.5,361.5C 493.422,356.507 493.255,351.507 492,346.5C 490.128,336.142 488.128,325.809 486,315.5C 485.439,314.978 484.772,314.645 484,314.5C 460.075,322.547 437.575,333.38 416.5,347C 413.333,350.167 410.167,353.333 407,356.5C 406.773,363.246 407.94,369.746 410.5,376C 408.984,382.558 406.484,388.725 403,394.5C 390.558,401.825 379.725,399.658 370.5,388C 367.5,386 364.5,386 361.5,388C 355.888,397.661 347.888,400.327 337.5,396C 334.667,394.5 332.5,392.333 331,389.5C 329.616,383.862 328.45,378.195 327.5,372.5C 326.325,372.281 325.325,372.614 324.5,373.5C 318.891,387.897 310.891,400.73 300.5,412C 298.223,413.959 295.723,415.459 293,416.5C 282.155,412.329 272.322,406.496 263.5,399C 245.45,388.357 226.117,384.857 205.5,388.5C 197.369,365.942 200.535,344.942 215,325.5C 215.218,305.905 222.385,289.405 236.5,276C 243.041,271.46 250.041,267.793 257.5,265C 263.793,264.142 269.793,265.142 275.5,268C 294.627,282.096 309.127,299.929 319,321.5C 323.344,332.367 327.177,343.367 330.5,354.5C 342.609,360.703 355.443,364.37 369,365.5C 378.23,363.734 387.397,361.734 396.5,359.5C 395.021,355.198 393.521,350.865 392,346.5C 391.46,332.433 394.46,319.1 401,306.5C 406.344,296.474 412.677,287.141 420,278.5C 431.941,268.442 445.108,260.275 459.5,254C 470.366,250.443 481.366,248.276 492.5,247.5 Z"/></g>
<g><path style="opacity:1" fill="#1b1b1b" d="M 491.5,251.5 C 512.015,251.342 528.515,259.342 541,275.5C 546.139,283.77 550.139,292.437 553,301.5C 545.161,299.952 536.995,299.452 528.5,300C 514.582,301.784 500.915,304.451 487.5,308C 484.415,296.075 480.915,284.242 477,272.5C 475.926,268.681 474.093,265.348 471.5,262.5C 475.843,277.668 480.176,293.168 484.5,309C 466.264,316.451 448.264,324.451 430.5,333C 420.352,339.081 411.352,346.581 403.5,355.5C 402.549,356.326 401.549,356.492 400.5,356C 397.116,351.224 395.116,345.891 394.5,340C 396.138,329.947 398.638,320.114 402,310.5C 405.755,305.997 408.755,300.997 411,295.5C 415.048,291.12 418.715,286.454 422,281.5C 436.682,268.507 453.516,259.341 472.5,254C 478.988,253.216 485.322,252.383 491.5,251.5 Z"/></g>
<g><path style="opacity:1" fill="#1b1b1b" d="M 256.5,269.5 C 263.905,268.705 270.571,270.539 276.5,275C 302.483,295.471 318.317,321.971 324,354.5C 322.601,353.773 321.101,353.273 319.5,353C 298.875,335.523 275.209,324.189 248.5,319C 238.929,317.048 229.263,316.214 219.5,316.5C 223.054,293.637 235.388,277.97 256.5,269.5 Z"/></g>
<g><path style="opacity:1" fill="#f3f2e5" d="M 223.5,320.5 C 258.583,321.886 289.249,334.053 315.5,357C 322.049,356.381 324.215,359.214 322,365.5C 317.972,381.561 310.305,395.561 299,407.5C 302.815,380.294 292.981,359.46 269.5,345C 256.136,341.189 243.469,342.856 231.5,350C 220.786,357.876 212.452,367.709 206.5,379.5C 203.61,364.357 205.777,350.024 213,336.5C 216.356,330.996 219.856,325.663 223.5,320.5 Z"/></g>
<g><path style="opacity:1" fill="#1b1b1b" d="M 327.5,358.5 C 327.56,357.957 327.893,357.624 328.5,357.5C 343.24,366.685 359.24,370.519 376.5,369C 385.084,366.187 393.751,363.687 402.5,361.5C 404.299,368.98 404.799,376.646 404,384.5C 402.453,391.217 398.286,394.884 391.5,395.5C 383.4,395.118 377.067,391.618 372.5,385C 367.996,381.538 363.663,381.704 359.5,385.5C 357.294,388.203 354.961,390.703 352.5,393C 347.713,393.879 343.047,393.545 338.5,392C 337.333,390.833 336.167,389.667 335,388.5C 332.616,381.015 331.283,373.348 331,365.5C 330.856,362.558 329.689,360.224 327.5,358.5 Z"/></g>
</svg>
