<?xml version="1.0" encoding="UTF-8"?>
<!DOCTYPE svg PUBLIC "-//W3C//DTD SVG 1.1//EN" "http://www.w3.org/Graphics/SVG/1.1/DTD/svg11.dtd">
<svg xmlns="http://www.w3.org/2000/svg" version="1.1" width="862px" height="862px" style="shape-rendering:geometricPrecision; text-rendering:geometricPrecision; image-rendering:optimizeQuality; fill-rule:evenodd; clip-rule:evenodd" xmlns:xlink="http://www.w3.org/1999/xlink">
<g><path style="opacity:0.994" fill="#030c0c" d="M 505.5,18.5 C 529.919,17.7264 553.919,20.5598 577.5,27C 609.101,35.4222 639.767,46.4222 669.5,60C 698.643,78.4613 725.476,99.9613 750,124.5C 769.217,147.939 781.717,174.606 787.5,204.5C 787.255,206.663 786.255,208.33 784.5,209.5C 759.247,199.852 733.247,192.685 706.5,188C 674.881,182.925 645.214,188.259 617.5,204C 595.206,220.746 581.706,242.913 577,270.5C 573.386,276.063 568.219,279.23 561.5,280C 535.059,282.696 509.726,278.696 485.5,268C 468.941,259.107 453.775,248.273 440,235.5C 437.168,231.336 435.001,226.836 433.5,222C 433.645,221.228 433.978,220.561 434.5,220C 452.214,214.488 469.881,208.821 487.5,203C 509.336,194.838 527.502,181.671 542,163.5C 552.415,149.418 554.082,134.418 547,118.5C 546.505,116.527 546.338,114.527 546.5,112.5C 552.944,108.776 559.611,105.276 566.5,102C 576.482,99.0056 586.482,96.339 596.5,94C 561.281,62.2167 520.614,40.05 474.5,27.5C 473.417,26.635 473.251,25.635 474,24.5C 475.816,23.6705 477.649,22.8372 479.5,22C 488.308,20.784 496.974,19.6174 505.5,18.5 Z"/></g>
<g><path style="opacity:1" fill="#004944" d="M 536.5,178.5 C 535.704,182.297 533.704,185.297 530.5,187.5C 529.846,189.115 529.346,190.782 529,192.5C 525.167,196.333 521.333,200.167 517.5,204C 514,205.665 510.667,206.832 507.5,207.5C 506.228,207.43 505.062,207.097 504,206.5C 497.898,209.133 492.065,212.133 486.5,215.5C 484.923,220.055 484.09,224.722 484,229.5C 484.414,229.043 484.914,228.709 485.5,228.5C 486.098,231.187 487.431,233.354 489.5,235C 489.167,235.333 488.833,235.667 488.5,236C 491.333,236.167 492.833,237.667 493,240.5C 493.333,239.833 493.667,239.167 494,238.5C 495.655,238.802 496.988,240.136 498,242.5C 502.324,242.351 506.658,242.017 511,241.5C 514.341,243.671 518.008,245.005 522,245.5C 523.16,243.203 524.16,243.536 525,246.5C 526.851,244.219 528.518,244.219 530,246.5C 531.049,245.483 532.216,245.316 533.5,246C 532.304,246.654 532.304,247.154 533.5,247.5C 536.245,246.025 538.412,246.691 540,249.5C 544.19,248.732 548.357,247.732 552.5,246.5C 555.239,243.13 558.239,239.297 561.5,235C 560.202,232.501 560.536,230.167 562.5,228C 562.167,227.667 561.833,227.333 561.5,227C 564.018,225.12 564.685,222.787 563.5,220C 564.162,218.668 565.328,217.502 567,216.5C 568.617,213.073 569.617,209.74 570,206.5C 570.667,207.833 571.333,207.833 572,206.5C 571.169,203.263 572.336,200.763 575.5,199C 574.167,197.16 574.334,196.66 576,197.5C 576.729,193.113 578.729,189.447 582,186.5C 583.933,181.535 585.933,176.535 588,171.5C 589.294,164.56 587.961,158.227 584,152.5C 583.586,152.957 583.086,153.291 582.5,153.5C 582.331,152.603 581.998,151.603 581.5,150.5C 580.914,150.709 580.414,151.043 580,151.5C 577.978,150.214 575.811,149.214 573.5,148.5C 571.629,149.767 569.796,149.767 568,148.5C 564.436,151.369 560.602,153.869 556.5,156C 555.167,156.667 555.167,157.333 556.5,158C 555.747,159.487 554.914,159.654 554,158.5C 552.887,159.76 552.72,160.927 553.5,162C 552.184,162.528 551.517,162.028 551.5,160.5C 558.566,145.989 559.233,131.156 553.5,116C 556.103,112.692 559.436,110.359 563.5,109C 575.485,104.613 587.819,101.613 600.5,100C 603.379,98.3342 604.212,95.8342 603,92.5C 598.833,88.3333 594.667,84.1667 590.5,80C 577.512,70.5047 564.179,61.5047 550.5,53C 540.849,48.5089 531.515,43.5089 522.5,38C 511.167,34 499.833,30 488.5,26C 509.79,22.4719 531.123,22.8052 552.5,27C 582.164,33.4436 611.164,42.1103 639.5,53C 660.688,60.9222 680.022,71.9222 697.5,86C 710.5,97 723.5,108 736.5,119C 758.807,142.416 773.473,169.916 780.5,201.5C 763.076,195.638 745.409,190.471 727.5,186C 699.794,180.142 672.127,180.142 644.5,186C 603.461,199.42 579.461,227.42 572.5,270C 569.583,271.528 566.583,272.861 563.5,274C 536.135,277.591 510.135,273.258 485.5,261C 470.334,252.665 456.5,242.498 444,230.5C 442.833,228.167 441.667,225.833 440.5,223.5C 459.863,218.434 478.863,212.268 497.5,205C 504.342,201.078 511.342,197.412 518.5,194C 525.012,189.313 531.012,184.146 536.5,178.5 Z"/></g>
<g><path style="opacity:0.994" fill="#0c0c12" d="M 110.5,109.5 C 116.833,105.167 122.167,99.8333 126.5,93.5C 135.313,86.1972 144.313,79.0306 153.5,72C 170.937,64.1151 187.937,55.4484 204.5,46C 222.928,39.3172 241.928,35.3172 261.5,34C 268.833,33.3333 276.167,33.3333 283.5,34C 284.406,35.6995 284.739,37.5328 284.5,39.5C 282.473,39.3379 280.473,39.5045 278.5,40C 251.079,56.5854 230.079,79.0854 215.5,107.5C 223.11,109.983 230.443,113.149 237.5,117C 239.543,119.009 241.543,121.009 243.5,123C 243.578,128.964 243.411,135.131 243,141.5C 242.488,146.038 240.988,150.204 238.5,154C 248.461,168.641 257.628,183.808 266,199.5C 276.165,211.143 285.665,223.143 294.5,235.5C 285.24,264.602 266.573,285.435 238.5,298C 232.801,299.002 227.301,300.502 222,302.5C 219.446,302.42 217.946,301.086 217.5,298.5C 226.852,273.567 224.685,249.567 211,226.5C 195.302,204.14 174.468,188.64 148.5,180C 123.327,176.617 100.993,182.95 81.5,199C 79.8876,199.72 78.3876,199.554 77,198.5C 77.0751,189.833 77.7417,181.166 79,172.5C 83.4608,161.784 87.1275,150.784 90,139.5C 95.9148,128.773 102.748,118.773 110.5,109.5 Z"/></g>
<g><path style="opacity:1" fill="#004a44" d="M 261.5,40.5 C 262.791,40.2627 263.791,40.596 264.5,41.5C 243.286,57.2151 226.12,76.5484 213,99.5C 211.855,102.432 211.022,105.432 210.5,108.5C 209.167,108.5 207.833,108.5 206.5,108.5C 206.452,111.292 207.785,113.125 210.5,114C 220.933,114.96 230.1,119.126 238,126.5C 239.8,136.465 237.633,145.298 231.5,153C 236.717,162.603 242.05,172.103 247.5,181.5C 246.194,180.032 244.694,178.699 243,177.5C 242.333,180.167 241.667,180.167 241,177.5C 240,178.5 239,179.5 238,180.5C 234.257,177.585 231.757,177.918 230.5,181.5C 228.575,181.163 227.075,179.83 226,177.5C 225.026,179.878 224.359,179.544 224,176.5C 221.02,173.67 217.854,170.337 214.5,166.5C 212.833,167.5 211.5,168.833 210.5,170.5C 209.575,169.359 208.741,169.359 208,170.5C 206.924,174.102 206.09,177.769 205.5,181.5C 205.945,183.388 205.945,185.388 205.5,187.5C 205.76,189.187 206.427,190.687 207.5,192C 207.167,192.333 206.833,192.667 206.5,193C 207.944,194.707 209.277,196.54 210.5,198.5C 209.429,200.325 210.096,201.492 212.5,202C 210.314,202.604 210.148,203.77 212,205.5C 213.067,206.191 214.234,206.691 215.5,207C 214.353,209.085 215.02,210.585 217.5,211.5C 216.754,212.736 216.421,214.07 216.5,215.5C 217.552,215.351 218.552,215.517 219.5,216C 219.167,216.333 218.833,216.667 218.5,217C 220.558,218.49 221.891,220.49 222.5,223C 219.833,223.667 219.833,224.333 222.5,225C 222.131,228.053 223.131,230.887 225.5,233.5C 225.145,234.522 224.478,235.189 223.5,235.5C 217.511,222.379 209.178,210.879 198.5,201C 191.833,195.667 185.167,190.333 178.5,185C 145.593,166.828 113.926,168.662 83.5,190.5C 82.5318,188.393 82.1984,186.059 82.5,183.5C 86.3549,170.11 90.5216,156.776 95,143.5C 99.2205,136.893 103.054,130.06 106.5,123C 129.187,96.1832 156.02,75.6832 187,61.5C 188,61.5 189,61.5 190,61.5C 194.632,58.8573 198.965,55.8573 203,52.5C 204.016,53.6341 204.683,53.3008 205,51.5C 206.998,52.2714 208.665,51.6048 210,49.5C 210.414,49.9574 210.914,50.2907 211.5,50.5C 216.069,48.6994 220.735,47.1994 225.5,46C 237.507,43.8366 249.507,42.0033 261.5,40.5 Z"/></g>
<g><path style="opacity:1" fill="#3c003e" d="M 261.5,40.5 C 262.708,39.218 264.042,39.218 265.5,40.5C 265.376,41.1067 265.043,41.44 264.5,41.5C 263.791,40.596 262.791,40.2627 261.5,40.5 Z"/></g>
<g><path style="opacity:1" fill="#005a5d" d="M 602.5,148.5 C 603.097,148.265 603.43,147.765 603.5,147C 602.767,144.28 601.767,141.78 600.5,139.5C 599.463,138.07 598.796,136.403 598.5,134.5C 598.741,132.102 598.074,130.102 596.5,128.5C 596.771,126.62 596.104,125.287 594.5,124.5C 592.992,122.819 591.992,120.819 591.5,118.5C 591.167,116.5 590.833,114.5 590.5,112.5C 590.328,111.508 590.662,110.842 591.5,110.5C 593.027,110.573 594.027,109.906 594.5,108.5C 597.713,107.317 600.88,106.984 604,107.5C 605.168,106.491 606.335,105.491 607.5,104.5C 608.842,105.902 609.676,105.569 610,103.5C 612.498,104.598 614.998,104.432 617.5,103C 622.102,101.133 626.768,99.4662 631.5,98C 632.845,95.8068 634.845,94.3068 637.5,93.5C 634.998,91.5858 632.998,89.2525 631.5,86.5C 627.217,83.8847 623.217,80.8847 619.5,77.5C 617.958,76.2532 616.458,76.2532 615,77.5C 611.324,74.8212 607.491,72.3212 603.5,70C 601.624,67.4913 599.457,65.3246 597,63.5C 596,63.5 595,63.5 594,63.5C 593.558,61.3215 592.558,60.6548 591,61.5C 589.318,59.4011 587.652,58.0678 586,57.5C 585.586,57.9574 585.086,58.2907 584.5,58.5C 579.913,57.3898 575.413,55.3898 571,52.5C 568.679,53.3613 567.513,52.3613 567.5,49.5C 562.565,50.8463 559.565,48.8463 558.5,43.5C 561.923,40.588 564.923,40.9213 567.5,44.5C 568.167,44.1667 568.833,43.8333 569.5,43.5C 570.696,43.8457 570.696,44.3457 569.5,45C 572.047,45.0674 574.214,45.9007 576,47.5C 577.806,45.0481 579.306,45.3814 580.5,48.5C 581.861,49.2435 584.361,49.2435 588,48.5C 591.622,49.3375 594.956,51.3375 598,54.5C 599.512,52.0426 600.846,52.0426 602,54.5C 602.561,53.9781 603.228,53.6448 604,53.5C 606.5,54.3333 609,55.1667 611.5,56C 612.126,56.7504 612.626,57.5838 613,58.5C 614.728,59.2402 616.728,59.2402 619,58.5C 620.648,59.717 622.481,60.5503 624.5,61C 623.366,62.016 623.699,62.6827 625.5,63C 629.864,64.4009 634.197,64.9009 638.5,64.5C 639.799,65.09 640.632,66.09 641,67.5C 641.561,66.9781 642.228,66.6448 643,66.5C 645.248,67.9548 647.748,68.7882 650.5,69C 653.029,72.9956 656.529,74.4956 661,73.5C 661.605,75.4812 662.605,75.8146 664,74.5C 664.483,75.448 664.649,76.448 664.5,77.5C 665.822,77.67 666.989,77.3366 668,76.5C 669.824,78.7258 671.657,80.2258 673.5,81C 675.5,81.6667 677.5,82.3333 679.5,83C 678.66,84.6665 679.16,84.8331 681,83.5C 681.75,84.1258 682.584,84.6258 683.5,85C 683.167,85.3333 682.833,85.6667 682.5,86C 684.392,86.9734 686.392,87.6401 688.5,88C 689.667,89.8333 690.833,91.6667 692,93.5C 694.464,92.4744 696.298,93.3077 697.5,96C 696.66,97.6665 697.16,97.8331 699,96.5C 704.074,104.409 710.574,110.742 718.5,115.5C 718.491,117.308 718.991,118.975 720,120.5C 724.234,125.043 728.401,130.377 732.5,136.5C 734.102,135.45 734.935,136.117 735,138.5C 735.333,138.167 735.667,137.833 736,137.5C 736.309,138.766 736.809,139.933 737.5,141C 737.167,141.333 736.833,141.667 736.5,142C 737.833,142.667 739.167,143.333 740.5,144C 739.833,144.333 739.167,144.667 738.5,145C 739.552,146.119 740.719,146.619 742,146.5C 743.4,149.902 745.567,152.736 748.5,155C 747.366,156.016 747.699,156.683 749.5,157C 749.525,159.012 749.525,161.012 749.5,163C 751.06,165.768 752.393,168.602 753.5,171.5C 753.392,172.442 753.059,173.275 752.5,174C 753.672,174.419 754.672,175.085 755.5,176C 754.167,177 754.167,178 755.5,179C 754.214,181.423 752.714,182.923 751,183.5C 748.925,181.352 746.592,181.018 744,182.5C 743.167,181.667 742.333,180.833 741.5,180C 736.199,178.875 731.032,177.375 726,175.5C 724,175.5 722,175.5 720,175.5C 717.433,174.73 714.933,173.73 712.5,172.5C 711.038,173.471 709.705,173.138 708.5,171.5C 707.167,172.167 705.833,172.833 704.5,173.5C 703.555,171.483 702.055,171.15 700,172.5C 698.674,172.245 697.674,171.578 697,170.5C 686.199,171.422 675.199,171.422 664,170.5C 661.726,172.563 659.226,172.563 656.5,170.5C 654.866,170.968 653.7,171.968 653,173.5C 651.333,172.833 649.667,172.167 648,171.5C 642.51,172.799 637.51,174.466 633,176.5C 632.374,174.009 631.541,174.009 630.5,176.5C 628.836,175.777 627.169,176.11 625.5,177.5C 622.833,177.5 620.167,177.5 617.5,177.5C 615.826,174.746 614.159,174.413 612.5,176.5C 610.851,175.352 609.351,174.019 608,172.5C 607.227,167.834 606.561,162.834 606,157.5C 605.682,155.939 604.849,154.772 603.5,154C 604.167,153.667 604.833,153.333 605.5,153C 603.859,151.871 602.859,150.371 602.5,148.5 Z"/></g>
<g><path style="opacity:1" fill="#005a5d" d="M 225.5,53.5 C 226.478,53.811 227.145,54.4777 227.5,55.5C 226.438,56.7701 225.438,57.9367 224.5,59C 224.833,59.3333 225.167,59.6667 225.5,60C 220.176,64.459 216.176,69.959 213.5,76.5C 211.603,78.4763 209.603,80.3096 207.5,82C 207.833,82.3333 208.167,82.6667 208.5,83C 205.587,86.5618 202.587,90.0618 199.5,93.5C 200.534,96.0572 199.534,97.3905 196.5,97.5C 196.358,100.617 195.024,103.117 192.5,105C 193.925,106.714 193.592,108.047 191.5,109C 191.833,109.333 192.167,109.667 192.5,110C 189.773,112.241 189.106,114.907 190.5,118C 188.343,119.085 188.176,120.251 190,121.5C 191.566,122.061 192.899,121.394 194,119.5C 197.975,119.549 201.975,119.549 206,119.5C 206.853,121.125 207.853,121.458 209,120.5C 210.713,121.878 212.047,123.545 213,125.5C 213.333,125.167 213.667,124.833 214,124.5C 218.608,128.003 220.108,132.169 218.5,137C 219.167,137.667 219.833,138.333 220.5,139C 217.681,141.383 216.515,144.216 217,147.5C 216.25,148.126 215.416,148.626 214.5,149C 214.5,150.333 214.5,151.667 214.5,153C 211.701,153.439 210.701,154.772 211.5,157C 209.479,157.513 207.979,158.68 207,160.5C 206.07,163.362 204.403,165.695 202,167.5C 201.517,168.448 201.351,169.448 201.5,170.5C 197.103,170.575 192.77,170.075 188.5,169C 181.084,166.236 173.917,163.736 167,161.5C 166.333,162.167 165.667,162.833 165,163.5C 162.389,162.929 159.889,162.096 157.5,161C 144.233,160.615 131.067,160.448 118,160.5C 113.119,161.174 108.286,162.174 103.5,163.5C 101.382,163.24 99.7158,162.24 98.5,160.5C 101.608,152.971 104.608,145.304 107.5,137.5C 108.382,136.24 109.382,135.074 110.5,134C 109.833,133.667 109.167,133.333 108.5,133C 111.415,131.883 113.415,129.883 114.5,127C 114.167,126.667 113.833,126.333 113.5,126C 114.743,123.966 116.243,123.133 118,123.5C 118.862,121.913 119.529,120.246 120,118.5C 120.667,117.167 121.333,117.167 122,118.5C 122.333,117.5 122.667,116.5 123,115.5C 125.811,114.777 128.311,112.944 130.5,110C 130.167,109.667 129.833,109.333 129.5,109C 130.5,108.667 131.5,108.333 132.5,108C 132.167,107.667 131.833,107.333 131.5,107C 133.5,106 135.5,105 137.5,104C 136.167,103 136.167,102 137.5,101C 141.31,99.8701 144.643,97.8701 147.5,95C 147.167,94.6667 146.833,94.3333 146.5,94C 148.132,92.6896 149.799,92.1896 151.5,92.5C 155.533,88.7977 159.533,85.1311 163.5,81.5C 164.086,81.7093 164.586,82.0426 165,82.5C 167.225,81.0611 169.225,79.3945 171,77.5C 171.718,78.4506 172.551,78.6172 173.5,78C 174.833,77.3333 174.833,76.6667 173.5,76C 174.872,75.5983 176.205,75.0983 177.5,74.5C 178.192,75.0253 178.692,75.6919 179,76.5C 181.884,75.4402 183.717,73.9402 184.5,72C 186.134,71.5065 187.801,71.3398 189.5,71.5C 189.351,70.448 189.517,69.448 190,68.5C 190.333,68.8333 190.667,69.1667 191,69.5C 195.464,67.0248 199.63,64.1914 203.5,61C 204.784,60.3162 205.951,60.4829 207,61.5C 208.194,59.4746 209.694,59.1413 211.5,60.5C 212.5,60 213.5,59.5 214.5,59C 213.66,57.3335 214.16,57.1669 216,58.5C 217.93,55.6041 220.43,54.6041 223.5,55.5C 224.522,55.1445 225.189,54.4778 225.5,53.5 Z"/></g>
<g><path style="opacity:0.749" fill="#092628" d="M 126.5,93.5 C 122.167,99.8333 116.833,105.167 110.5,109.5C 115.5,103.833 120.833,98.5 126.5,93.5 Z"/></g>
<g><path style="opacity:1" fill="#322855" d="M 594.5,108.5 C 594.027,109.906 593.027,110.573 591.5,110.5C 591.973,109.094 592.973,108.427 594.5,108.5 Z"/></g>
<g><path style="opacity:1" fill="#221e53" d="M 590.5,112.5 C 590.833,114.5 591.167,116.5 591.5,118.5C 589.539,116.68 589.206,114.68 590.5,112.5 Z"/></g>
<g><path style="opacity:1" fill="#241e50" d="M 594.5,124.5 C 596.104,125.287 596.771,126.62 596.5,128.5C 595.326,127.486 594.66,126.153 594.5,124.5 Z"/></g>
<g><path style="opacity:1" fill="#2c2253" d="M 596.5,128.5 C 598.074,130.102 598.741,132.102 598.5,134.5C 597.262,132.786 596.595,130.786 596.5,128.5 Z"/></g>
<g><path style="opacity:1" fill="#2c2354" d="M 600.5,139.5 C 601.767,141.78 602.767,144.28 603.5,147C 603.43,147.765 603.097,148.265 602.5,148.5C 601.422,145.598 600.756,142.598 600.5,139.5 Z"/></g>
<g><path style="opacity:1" fill="#005a5d" d="M 536.5,178.5 C 541.5,172.5 546.5,166.5 551.5,160.5C 551.517,162.028 552.184,162.528 553.5,162C 552.72,160.927 552.887,159.76 554,158.5C 554.914,159.654 555.747,159.487 556.5,158C 555.167,157.333 555.167,156.667 556.5,156C 560.602,153.869 564.436,151.369 568,148.5C 569.796,149.767 571.629,149.767 573.5,148.5C 575.811,149.214 577.978,150.214 580,151.5C 580.414,151.043 580.914,150.709 581.5,150.5C 581.998,151.603 582.331,152.603 582.5,153.5C 583.086,153.291 583.586,152.957 584,152.5C 587.961,158.227 589.294,164.56 588,171.5C 585.933,176.535 583.933,181.535 582,186.5C 578.729,189.447 576.729,193.113 576,197.5C 574.334,196.66 574.167,197.16 575.5,199C 572.336,200.763 571.169,203.263 572,206.5C 571.333,207.833 570.667,207.833 570,206.5C 569.617,209.74 568.617,213.073 567,216.5C 565.328,217.502 564.162,218.668 563.5,220C 564.685,222.787 564.018,225.12 561.5,227C 561.833,227.333 562.167,227.667 562.5,228C 560.536,230.167 560.202,232.501 561.5,235C 558.239,239.297 555.239,243.13 552.5,246.5C 548.357,247.732 544.19,248.732 540,249.5C 538.412,246.691 536.245,246.025 533.5,247.5C 532.304,247.154 532.304,246.654 533.5,246C 532.216,245.316 531.049,245.483 530,246.5C 528.518,244.219 526.851,244.219 525,246.5C 524.16,243.536 523.16,243.203 522,245.5C 518.008,245.005 514.341,243.671 511,241.5C 506.658,242.017 502.324,242.351 498,242.5C 496.988,240.136 495.655,238.802 494,238.5C 493.667,239.167 493.333,239.833 493,240.5C 492.833,237.667 491.333,236.167 488.5,236C 488.833,235.667 489.167,235.333 489.5,235C 487.431,233.354 486.098,231.187 485.5,228.5C 484.914,228.709 484.414,229.043 484,229.5C 484.09,224.722 484.923,220.055 486.5,215.5C 492.065,212.133 497.898,209.133 504,206.5C 505.062,207.097 506.228,207.43 507.5,207.5C 510.667,206.832 514,205.665 517.5,204C 521.333,200.167 525.167,196.333 529,192.5C 529.346,190.782 529.846,189.115 530.5,187.5C 533.704,185.297 535.704,182.297 536.5,178.5 Z"/></g>
<g><path style="opacity:1" fill="#005a5d" d="M 247.5,181.5 C 251.404,187.634 255.071,193.968 258.5,200.5C 259.776,208.761 262.443,215.761 266.5,221.5C 266.291,222.086 265.957,222.586 265.5,223C 268.788,226.358 270.121,230.191 269.5,234.5C 270.5,234.5 271.5,234.5 272.5,234.5C 272.421,235.93 272.754,237.264 273.5,238.5C 272.624,239.251 271.624,239.751 270.5,240C 271.167,240.333 271.833,240.667 272.5,241C 269.056,243.958 266.056,247.291 263.5,251C 263.833,251.333 264.167,251.667 264.5,252C 260.019,256.833 255.186,261.333 250,265.5C 248.561,267.275 247.561,269.275 247,271.5C 246.586,271.043 246.086,270.709 245.5,270.5C 244.139,272.028 242.972,273.695 242,275.5C 241.667,275.167 241.333,274.833 241,274.5C 240.51,275.793 240.343,277.127 240.5,278.5C 238.403,277.647 236.403,277.647 234.5,278.5C 231.032,277.826 230.366,276.492 232.5,274.5C 232.998,271.937 232.331,269.603 230.5,267.5C 229.678,256.381 227.345,245.714 223.5,235.5C 224.478,235.189 225.145,234.522 225.5,233.5C 223.131,230.887 222.131,228.053 222.5,225C 219.833,224.333 219.833,223.667 222.5,223C 221.891,220.49 220.558,218.49 218.5,217C 218.833,216.667 219.167,216.333 219.5,216C 218.552,215.517 217.552,215.351 216.5,215.5C 216.421,214.07 216.754,212.736 217.5,211.5C 215.02,210.585 214.353,209.085 215.5,207C 214.234,206.691 213.067,206.191 212,205.5C 210.148,203.77 210.314,202.604 212.5,202C 210.096,201.492 209.429,200.325 210.5,198.5C 209.277,196.54 207.944,194.707 206.5,193C 206.833,192.667 207.167,192.333 207.5,192C 206.427,190.687 205.76,189.187 205.5,187.5C 205.945,185.388 205.945,183.388 205.5,181.5C 206.09,177.769 206.924,174.102 208,170.5C 208.741,169.359 209.575,169.359 210.5,170.5C 211.5,168.833 212.833,167.5 214.5,166.5C 217.854,170.337 221.02,173.67 224,176.5C 224.359,179.544 225.026,179.878 226,177.5C 227.075,179.83 228.575,181.163 230.5,181.5C 231.757,177.918 234.257,177.585 238,180.5C 239,179.5 240,178.5 241,177.5C 241.667,180.167 242.333,180.167 243,177.5C 244.694,178.699 246.194,180.032 247.5,181.5 Z"/></g>
<g><path style="opacity:1" fill="#3d0036" d="M 82.5,183.5 C 82.1984,186.059 82.5318,188.393 83.5,190.5C 83.44,191.043 83.1067,191.376 82.5,191.5C 81.1997,188.691 81.1997,186.024 82.5,183.5 Z"/></g>
<g><path style="opacity:1" fill="#004a44" d="M 258.5,200.5 C 268.524,212.528 278.191,224.861 287.5,237.5C 284.748,247.674 279.915,256.674 273,264.5C 261.076,278.874 246.243,288.874 228.5,294.5C 228.167,294.167 227.833,293.833 227.5,293.5C 229.205,284.941 230.205,276.275 230.5,267.5C 232.331,269.603 232.998,271.937 232.5,274.5C 230.366,276.492 231.032,277.826 234.5,278.5C 236.403,277.647 238.403,277.647 240.5,278.5C 240.343,277.127 240.51,275.793 241,274.5C 241.333,274.833 241.667,275.167 242,275.5C 242.972,273.695 244.139,272.028 245.5,270.5C 246.086,270.709 246.586,271.043 247,271.5C 247.561,269.275 248.561,267.275 250,265.5C 255.186,261.333 260.019,256.833 264.5,252C 264.167,251.667 263.833,251.333 263.5,251C 266.056,247.291 269.056,243.958 272.5,241C 271.833,240.667 271.167,240.333 270.5,240C 271.624,239.751 272.624,239.251 273.5,238.5C 272.754,237.264 272.421,235.93 272.5,234.5C 271.5,234.5 270.5,234.5 269.5,234.5C 270.121,230.191 268.788,226.358 265.5,223C 265.957,222.586 266.291,222.086 266.5,221.5C 262.443,215.761 259.776,208.761 258.5,200.5 Z"/></g>
</svg>
