<?xml version="1.0" encoding="UTF-8"?>
<!DOCTYPE svg PUBLIC "-//W3C//DTD SVG 1.1//EN" "http://www.w3.org/Graphics/SVG/1.1/DTD/svg11.dtd">
<svg xmlns="http://www.w3.org/2000/svg" version="1.1" width="862px" height="862px" style="shape-rendering:geometricPrecision; text-rendering:geometricPrecision; image-rendering:optimizeQuality; fill-rule:evenodd; clip-rule:evenodd" xmlns:xlink="http://www.w3.org/1999/xlink">
<g><path style="opacity:0.994" fill="#0e0109" d="M 505.5,18.5 C 529.919,17.7264 553.919,20.5598 577.5,27C 609.101,35.4222 639.767,46.4222 669.5,60C 698.643,78.4613 725.476,99.9613 750,124.5C 769.217,147.939 781.717,174.606 787.5,204.5C 787.255,206.663 786.255,208.33 784.5,209.5C 759.247,199.852 733.247,192.685 706.5,188C 674.881,182.925 645.214,188.259 617.5,204C 595.206,220.746 581.706,242.913 577,270.5C 573.386,276.063 568.219,279.23 561.5,280C 535.059,282.696 509.726,278.696 485.5,268C 468.941,259.107 453.775,248.273 440,235.5C 437.168,231.336 435.001,226.836 433.5,222C 433.645,221.228 433.978,220.561 434.5,220C 452.214,214.488 469.881,208.821 487.5,203C 509.336,194.838 527.502,181.671 542,163.5C 552.415,149.418 554.082,134.418 547,118.5C 546.505,116.527 546.338,114.527 546.5,112.5C 552.944,108.776 559.611,105.276 566.5,102C 576.482,99.0056 586.482,96.339 596.5,94C 561.281,62.2167 520.614,40.05 474.5,27.5C 473.417,26.635 473.251,25.635 474,24.5C 475.816,23.6705 477.649,22.8372 479.5,22C 488.308,20.784 496.974,19.6174 505.5,18.5 Z"/></g>
<g><path style="opacity:1" fill="#49003c" d="M 536.5,178.5 C 532.634,187.737 526.967,195.737 519.5,202.5C 514.794,206.131 509.627,207.464 504,206.5C 496.838,208.748 490.838,212.748 486,218.5C 484.069,223.607 484.403,228.607 487,233.5C 490.254,235.791 492.921,238.125 495,240.5C 495.914,239.346 496.747,239.513 497.5,241C 504.826,241.75 511.992,242.917 519,244.5C 521.97,242.75 523.97,243.417 525,246.5C 526.593,244.715 528.093,244.548 529.5,246C 534.182,246.309 538.682,247.143 543,248.5C 546.294,248.408 549.461,247.741 552.5,246.5C 553.145,244.568 554.479,243.401 556.5,243C 556.167,242.667 555.833,242.333 555.5,242C 556.931,240.438 558.431,238.938 560,237.5C 561.001,231.488 562.501,225.988 564.5,221C 563.366,219.984 563.699,219.317 565.5,219C 565.167,218.667 564.833,218.333 564.5,218C 566.449,215.862 568.116,213.529 569.5,211C 570.073,206.056 572.239,201.556 576,197.5C 578.802,190.563 582.135,183.896 586,177.5C 589.93,168.736 589.263,160.402 584,152.5C 583.586,152.957 583.086,153.291 582.5,153.5C 581.646,152.478 580.646,151.645 579.5,151C 576.5,150.5 573.5,150 570.5,149.5C 565.463,150.851 560.797,153.018 556.5,156C 555.167,156.667 555.167,157.333 556.5,158C 555.747,159.487 554.914,159.654 554,158.5C 552.887,159.76 552.72,160.927 553.5,162C 552.184,162.528 551.517,162.028 551.5,160.5C 555.372,153.012 557.372,145.012 557.5,136.5C 556.979,128.972 555.812,121.638 554,114.5C 561.541,109.649 569.707,106.149 578.5,104C 586.88,102.857 595.047,101.023 603,98.5C 603.667,96.5 603.667,94.5 603,92.5C 569.977,61.2256 531.477,39.0589 487.5,26C 509.177,22.4787 530.844,22.812 552.5,27C 580.437,32.9794 607.77,40.9794 634.5,51C 645.916,55.8057 657.25,60.8057 668.5,66C 692.933,82.0919 715.933,100.092 737.5,120C 759.107,143.315 773.44,170.482 780.5,201.5C 764.34,196.17 748.006,191.336 731.5,187C 702.541,180.217 673.541,179.883 644.5,186C 603.465,199.407 579.465,227.407 572.5,270C 568.034,272.266 563.368,273.933 558.5,275C 532.789,277.248 508.455,272.581 485.5,261C 470.334,252.665 456.5,242.498 444,230.5C 442.36,228.421 441.194,226.088 440.5,223.5C 453.443,219.514 466.443,215.68 479.5,212C 493.13,207.352 506.13,201.352 518.5,194C 525.012,189.313 531.012,184.146 536.5,178.5 Z"/></g>
<g><path style="opacity:0.994" fill="#120a09" d="M 110.5,109.5 C 117.11,104.559 123.11,98.8922 128.5,92.5C 136.353,85.1529 144.687,78.3196 153.5,72C 170.937,64.1151 187.937,55.4484 204.5,46C 222.928,39.3172 241.928,35.3172 261.5,34C 268.833,33.3333 276.167,33.3333 283.5,34C 284.406,35.6995 284.739,37.5328 284.5,39.5C 282.473,39.3379 280.473,39.5045 278.5,40C 251.079,56.5854 230.079,79.0854 215.5,107.5C 223.11,109.983 230.443,113.149 237.5,117C 239.543,119.009 241.543,121.009 243.5,123C 243.578,128.964 243.411,135.131 243,141.5C 242.488,146.038 240.988,150.204 238.5,154C 248.461,168.641 257.628,183.808 266,199.5C 276.165,211.143 285.665,223.143 294.5,235.5C 285.24,264.602 266.573,285.435 238.5,298C 232.801,299.002 227.301,300.502 222,302.5C 219.446,302.42 217.946,301.086 217.5,298.5C 226.852,273.567 224.685,249.567 211,226.5C 195.302,204.14 174.468,188.64 148.5,180C 123.327,176.617 100.993,182.95 81.5,199C 79.8876,199.72 78.3876,199.554 77,198.5C 77.0751,189.833 77.7417,181.166 79,172.5C 83.4608,161.784 87.1275,150.784 90,139.5C 95.9148,128.773 102.748,118.773 110.5,109.5 Z"/></g>
<g><path style="opacity:1" fill="#4a003c" d="M 261.5,40.5 C 262.791,40.2627 263.791,40.596 264.5,41.5C 245.765,55.7374 229.931,72.7374 217,92.5C 213.985,97.5251 211.818,102.858 210.5,108.5C 209.167,108.5 207.833,108.5 206.5,108.5C 206.452,111.292 207.785,113.125 210.5,114C 213.527,113.16 216.527,113.493 219.5,115C 226.422,117.706 232.589,121.54 238,126.5C 239.132,134.462 238.132,142.128 235,149.5C 233.5,150.333 232.333,151.5 231.5,153C 236.731,162.635 242.064,172.135 247.5,181.5C 246.194,180.032 244.694,178.699 243,177.5C 239.655,178.938 236.155,179.938 232.5,180.5C 230.895,179.57 229.395,179.57 228,180.5C 227.085,179.672 226.419,178.672 226,177.5C 225.026,179.878 224.359,179.544 224,176.5C 220.837,173.262 217.503,170.262 214,167.5C 212.416,167.988 211.249,168.988 210.5,170.5C 208.675,169.429 207.508,170.096 207,172.5C 206.342,174.8 205.842,177.133 205.5,179.5C 205.962,182.27 205.962,184.936 205.5,187.5C 205.76,189.187 206.427,190.687 207.5,192C 207.167,192.333 206.833,192.667 206.5,193C 212.625,202.583 217.958,212.583 222.5,223C 221.833,223.333 221.167,223.667 220.5,224C 221.989,227.185 223.656,230.351 225.5,233.5C 225.145,234.522 224.478,235.189 223.5,235.5C 217.513,222.384 209.18,210.884 198.5,201C 191.833,195.667 185.167,190.333 178.5,185C 145.593,166.828 113.926,168.662 83.5,190.5C 82.5318,188.393 82.1984,186.059 82.5,183.5C 86.3549,170.11 90.5216,156.776 95,143.5C 99.3557,136.789 103.189,129.789 106.5,122.5C 125.392,100.429 147.392,82.2628 172.5,68C 184.022,63.841 194.688,58.5076 204.5,52C 223.072,45.919 242.072,42.0857 261.5,40.5 Z"/></g>
<g><path style="opacity:1" fill="#324100" d="M 261.5,40.5 C 262.708,39.218 264.042,39.218 265.5,40.5C 265.376,41.1067 265.043,41.44 264.5,41.5C 263.791,40.596 262.791,40.2627 261.5,40.5 Z"/></g>
<g><path style="opacity:1" fill="#5d0040" d="M 597.5,133.5 C 598.678,131.662 598.345,129.995 596.5,128.5C 594.326,125.485 592.659,122.151 591.5,118.5C 591.167,116.5 590.833,114.5 590.5,112.5C 590.328,111.508 590.662,110.842 591.5,110.5C 593.027,110.573 594.027,109.906 594.5,108.5C 599.072,107.906 603.406,106.573 607.5,104.5C 608.842,105.902 609.676,105.569 610,103.5C 611.388,104.554 612.888,104.72 614.5,104C 620.102,101.799 625.769,99.7994 631.5,98C 632.077,96.286 633.577,94.786 636,93.5C 636.333,93.8333 636.667,94.1667 637,94.5C 636.852,93.175 637.018,92.0084 637.5,91C 631.321,86.7433 625.321,82.2433 619.5,77.5C 610.296,75.4417 602.796,70.775 597,63.5C 596,63.5 595,63.5 594,63.5C 593.558,61.3215 592.558,60.6548 591,61.5C 589.318,59.4011 587.652,58.0678 586,57.5C 585.586,57.9574 585.086,58.2907 584.5,58.5C 577.452,55.429 570.452,52.2623 563.5,49C 561.047,47.1521 560.047,44.6521 560.5,41.5C 562.199,41.3398 563.866,41.5065 565.5,42C 569.019,43.783 572.519,45.6163 576,47.5C 576.667,46.8333 577.333,46.1667 578,45.5C 579.307,46.7717 580.807,47.7717 582.5,48.5C 587.751,49.8675 592.751,51.0341 597.5,52C 596.5,52.3333 595.5,52.6667 594.5,53C 596.791,54.877 598.791,54.7103 600.5,52.5C 601.192,53.0253 601.692,53.6919 602,54.5C 602.561,53.9781 603.228,53.6448 604,53.5C 606.5,54.3333 609,55.1667 611.5,56C 612.852,58.0922 614.686,59.5922 617,60.5C 617.945,60.0946 618.612,59.428 619,58.5C 624.693,63.3778 631.193,65.3778 638.5,64.5C 639.799,65.09 640.632,66.09 641,67.5C 642.049,66.4829 643.216,66.3162 644.5,67C 648.022,68.6763 651.356,70.6763 654.5,73C 656.218,73.346 657.885,73.846 659.5,74.5C 660.086,74.2907 660.586,73.9574 661,73.5C 662.648,76.5528 664.982,77.5528 668,76.5C 675.514,80.4488 682.681,84.9488 689.5,90C 691.976,92.7318 694.643,95.2318 697.5,97.5C 698.086,97.2907 698.586,96.9574 699,96.5C 704.074,104.409 710.574,110.742 718.5,115.5C 718.351,116.552 718.517,117.552 719,118.5C 724.964,127.04 731.131,134.54 737.5,141C 737.167,141.333 736.833,141.667 736.5,142C 738.679,142.442 739.345,143.442 738.5,145C 739.253,146.487 740.086,146.654 741,145.5C 743.139,148.939 745.639,152.106 748.5,155C 747.892,157.184 748.559,159.184 750.5,161C 749.663,162.011 749.33,163.178 749.5,164.5C 750.5,164.5 751.5,164.5 752.5,164.5C 752.658,167.579 752.658,170.746 752.5,174C 754.004,175.337 755.004,177.004 755.5,179C 754.214,181.423 752.714,182.923 751,183.5C 742.901,180.294 734.568,177.627 726,175.5C 725.667,175.833 725.333,176.167 725,176.5C 721.026,175.611 716.86,174.278 712.5,172.5C 711.038,173.471 709.705,173.138 708.5,171.5C 704.608,172.327 700.775,171.993 697,170.5C 683.81,170.627 670.31,170.627 656.5,170.5C 653.67,171.932 650.836,172.265 648,171.5C 642.51,172.799 637.51,174.466 633,176.5C 632.374,174.009 631.541,174.009 630.5,176.5C 628.836,175.777 627.169,176.11 625.5,177.5C 622.833,177.5 620.167,177.5 617.5,177.5C 616.481,176.313 615.314,175.313 614,174.5C 613.667,174.833 613.333,175.167 613,175.5C 607.725,170.736 605.392,164.736 606,157.5C 605.682,155.939 604.849,154.772 603.5,154C 605.709,153.043 605.543,151.876 603,150.5C 601.617,144.615 599.784,138.948 597.5,133.5 Z"/></g>
<g><path style="opacity:1" fill="#5d0041" d="M 225.5,53.5 C 225.83,55.9991 225.83,58.1658 225.5,60C 219.527,67.3109 213.527,74.6443 207.5,82C 207.833,82.3333 208.167,82.6667 208.5,83C 202.934,90.1183 197.601,97.4516 192.5,105C 192.833,105.333 193.167,105.667 193.5,106C 192.574,109.35 191.241,112.516 189.5,115.5C 191.133,117.387 190.8,118.887 188.5,120C 189,120.5 189.5,121 190,121.5C 191.566,122.061 192.899,121.394 194,119.5C 197.118,120.397 200.118,120.397 203,119.5C 204.667,120.167 206.333,120.833 208,121.5C 208.333,121.167 208.667,120.833 209,120.5C 210.713,121.878 212.047,123.545 213,125.5C 213.333,125.167 213.667,124.833 214,124.5C 216.635,126.461 218.469,128.961 219.5,132C 219.21,135.275 218.71,138.775 218,142.5C 217.054,144.788 215.887,146.955 214.5,149C 214.957,149.414 215.291,149.914 215.5,150.5C 214.833,150.833 214.167,151.167 213.5,151.5C 213.709,152.086 214.043,152.586 214.5,153C 211.686,155.07 209.186,157.57 207,160.5C 206.07,163.362 204.403,165.695 202,167.5C 201.517,168.448 201.351,169.448 201.5,170.5C 197.103,170.575 192.77,170.075 188.5,169C 181.084,166.236 173.917,163.736 167,161.5C 166.667,161.833 166.333,162.167 166,162.5C 163.26,161.718 160.426,161.218 157.5,161C 144.233,160.615 131.067,160.448 118,160.5C 111.693,161.146 105.526,162.479 99.5,164.5C 99.5792,163.07 99.2458,161.736 98.5,160.5C 103.149,147.274 108.982,134.94 116,123.5C 116.333,123.833 116.667,124.167 117,124.5C 118.439,122.725 119.439,120.725 120,118.5C 124.244,115.442 128.411,111.442 132.5,106.5C 139.064,102.386 144.564,97.7193 149,92.5C 149.333,92.8333 149.667,93.1667 150,93.5C 154.681,89.6494 159.181,85.6494 163.5,81.5C 164.086,81.7093 164.586,82.0426 165,82.5C 168.937,78.6226 173.77,76.4559 179.5,76C 186.94,71.4353 194.607,66.7687 202.5,62C 206.338,60.526 210.338,59.526 214.5,59C 214.167,58.6667 213.833,58.3333 213.5,58C 216.471,57.5291 219.138,56.3625 221.5,54.5C 223.297,55.9321 224.63,55.5988 225.5,53.5 Z"/></g>
<g><path style="opacity:0.749" fill="#28091e" d="M 128.5,92.5 C 123.11,98.8922 117.11,104.559 110.5,109.5C 115.89,103.108 121.89,97.4412 128.5,92.5 Z"/></g>
<g><path style="opacity:1" fill="#53321c" d="M 594.5,108.5 C 594.027,109.906 593.027,110.573 591.5,110.5C 591.973,109.094 592.973,108.427 594.5,108.5 Z"/></g>
<g><path style="opacity:1" fill="#542713" d="M 590.5,112.5 C 590.833,114.5 591.167,116.5 591.5,118.5C 589.539,116.68 589.206,114.68 590.5,112.5 Z"/></g>
<g><path style="opacity:1" fill="#522f17" d="M 596.5,128.5 C 598.345,129.995 598.678,131.662 597.5,133.5C 596.962,131.883 596.629,130.216 596.5,128.5 Z"/></g>
<g><path style="opacity:1" fill="#5d0040" d="M 536.5,178.5 C 541.5,172.5 546.5,166.5 551.5,160.5C 551.517,162.028 552.184,162.528 553.5,162C 552.72,160.927 552.887,159.76 554,158.5C 554.914,159.654 555.747,159.487 556.5,158C 555.167,157.333 555.167,156.667 556.5,156C 560.797,153.018 565.463,150.851 570.5,149.5C 573.5,150 576.5,150.5 579.5,151C 580.646,151.645 581.646,152.478 582.5,153.5C 583.086,153.291 583.586,152.957 584,152.5C 589.263,160.402 589.93,168.736 586,177.5C 582.135,183.896 578.802,190.563 576,197.5C 572.239,201.556 570.073,206.056 569.5,211C 568.116,213.529 566.449,215.862 564.5,218C 564.833,218.333 565.167,218.667 565.5,219C 563.699,219.317 563.366,219.984 564.5,221C 562.501,225.988 561.001,231.488 560,237.5C 558.431,238.938 556.931,240.438 555.5,242C 555.833,242.333 556.167,242.667 556.5,243C 554.479,243.401 553.145,244.568 552.5,246.5C 549.461,247.741 546.294,248.408 543,248.5C 538.682,247.143 534.182,246.309 529.5,246C 528.093,244.548 526.593,244.715 525,246.5C 523.97,243.417 521.97,242.75 519,244.5C 511.992,242.917 504.826,241.75 497.5,241C 496.747,239.513 495.914,239.346 495,240.5C 492.921,238.125 490.254,235.791 487,233.5C 484.403,228.607 484.069,223.607 486,218.5C 490.838,212.748 496.838,208.748 504,206.5C 509.627,207.464 514.794,206.131 519.5,202.5C 526.967,195.737 532.634,187.737 536.5,178.5 Z"/></g>
<g><path style="opacity:1" fill="#5d0041" d="M 247.5,181.5 C 251.485,188.131 255.485,194.798 259.5,201.5C 259.884,205.586 260.717,209.586 262,213.5C 264.061,219.669 266.894,225.502 270.5,231C 269.978,231.561 269.645,232.228 269.5,233C 271.391,235.717 272.057,238.551 271.5,241.5C 266.541,246.724 262.041,252.391 258,258.5C 251.141,264.818 245.308,271.151 240.5,277.5C 237.833,277.833 235.167,278.167 232.5,278.5C 232.069,274.663 231.402,270.997 230.5,267.5C 229.687,256.427 227.353,245.76 223.5,235.5C 224.478,235.189 225.145,234.522 225.5,233.5C 223.656,230.351 221.989,227.185 220.5,224C 221.167,223.667 221.833,223.333 222.5,223C 217.958,212.583 212.625,202.583 206.5,193C 206.833,192.667 207.167,192.333 207.5,192C 206.427,190.687 205.76,189.187 205.5,187.5C 205.962,184.936 205.962,182.27 205.5,179.5C 205.842,177.133 206.342,174.8 207,172.5C 207.508,170.096 208.675,169.429 210.5,170.5C 211.249,168.988 212.416,167.988 214,167.5C 217.503,170.262 220.837,173.262 224,176.5C 224.359,179.544 225.026,179.878 226,177.5C 226.419,178.672 227.085,179.672 228,180.5C 229.395,179.57 230.895,179.57 232.5,180.5C 236.155,179.938 239.655,178.938 243,177.5C 244.694,178.699 246.194,180.032 247.5,181.5 Z"/></g>
<g><path style="opacity:1" fill="#273d00" d="M 82.5,183.5 C 82.1984,186.059 82.5318,188.393 83.5,190.5C 83.44,191.043 83.1067,191.376 82.5,191.5C 81.1997,188.691 81.1997,186.024 82.5,183.5 Z"/></g>
<g><path style="opacity:1" fill="#4a003c" d="M 259.5,201.5 C 268.424,212.935 277.59,224.268 287,235.5C 286.42,242.685 284.086,249.352 280,255.5C 268.87,271.626 254.37,283.793 236.5,292C 233.436,293.366 230.436,293.866 227.5,293.5C 229.205,284.941 230.205,276.275 230.5,267.5C 231.402,270.997 232.069,274.663 232.5,278.5C 235.167,278.167 237.833,277.833 240.5,277.5C 245.308,271.151 251.141,264.818 258,258.5C 262.041,252.391 266.541,246.724 271.5,241.5C 272.057,238.551 271.391,235.717 269.5,233C 269.645,232.228 269.978,231.561 270.5,231C 266.894,225.502 264.061,219.669 262,213.5C 260.717,209.586 259.884,205.586 259.5,201.5 Z"/></g>
</svg>
