<?xml version="1.0" encoding="UTF-8"?>
<!DOCTYPE svg PUBLIC "-//W3C//DTD SVG 1.1//EN" "http://www.w3.org/Graphics/SVG/1.1/DTD/svg11.dtd">
<svg xmlns="http://www.w3.org/2000/svg" version="1.1" width="862px" height="862px" style="shape-rendering:geometricPrecision; text-rendering:geometricPrecision; image-rendering:optimizeQuality; fill-rule:evenodd; clip-rule:evenodd" xmlns:xlink="http://www.w3.org/1999/xlink">
<g><path style="opacity:0.995" fill="#0d0108" d="M 473.5,207.5 C 474.906,207.027 475.573,206.027 475.5,204.5C 504.858,171.312 541.525,150.812 585.5,143C 595.5,142.333 605.5,142.333 615.5,143C 635.085,147.195 654.085,153.195 672.5,161C 684.508,168.007 695.675,176.174 706,185.5C 718.296,204.303 719.463,223.636 709.5,243.5C 702.685,251.482 695.685,259.316 688.5,267C 694.886,266.122 701.386,265.622 708,265.5C 730.255,265.765 739.422,276.931 735.5,299C 732.443,310.782 726.776,321.115 718.5,330C 703.713,339.671 700.213,336.838 708,321.5C 708.533,312.097 705.7,303.93 699.5,297C 693.141,295.462 686.808,295.795 680.5,298C 671.181,302.329 661.514,305.662 651.5,308C 639.733,310.294 628.066,309.961 616.5,307C 601.803,301.15 597.636,291.317 604,277.5C 608.289,268.546 615.123,262.379 624.5,259C 634.556,256.738 644.222,253.404 653.5,249C 666.451,241.987 670.451,231.487 665.5,217.5C 660.121,218.006 654.787,218.839 649.5,220C 635.894,224.954 623.227,231.62 611.5,240C 600.368,249.464 589.534,259.297 579,269.5C 576.413,278.42 570.747,284.42 562,287.5C 539.83,286.332 518.663,281.166 498.5,272C 477.606,260.387 467.439,242.554 468,218.5C 469.188,214.387 471.021,210.72 473.5,207.5 Z"/></g>
<g><path style="opacity:1" fill="#5d0040" d="M 665.5,211.5 C 664.833,210.833 664.167,210.167 663.5,209.5C 656.996,202.592 653.329,194.258 652.5,184.5C 650.976,185.527 650.309,187.027 650.5,189C 651.085,197.335 654.418,204.168 660.5,209.5C 660.631,210.239 660.464,210.906 660,211.5C 656.971,211.719 653.804,211.386 650.5,210.5C 649.186,211.313 648.019,212.313 647,213.5C 643.505,212.894 640.005,212.56 636.5,212.5C 635.201,213.09 634.368,214.09 634,215.5C 627.802,214.645 621.468,215.312 615,217.5C 612.872,216.145 611.038,216.478 609.5,218.5C 603.69,212.225 598.856,205.225 595,197.5C 594.398,193.117 593.565,188.784 592.5,184.5C 591.914,184.709 591.414,185.043 591,185.5C 590.249,190.572 590.582,195.572 592,200.5C 595.603,207.257 599.77,213.591 604.5,219.5C 597.842,220.816 591.509,223.316 585.5,227C 578.086,231 571.086,235.5 564.5,240.5C 559.969,238.478 556.136,235.478 553,231.5C 548.605,225.434 544.605,219.1 541,212.5C 540.626,210.102 540.626,207.769 541,205.5C 540.282,204.549 539.449,204.383 538.5,205C 537.183,209.175 537.349,213.342 539,217.5C 543.667,224.167 548.333,230.833 553,237.5C 555.688,239.364 558.188,241.364 560.5,243.5C 556.477,247.697 551.81,251.197 546.5,254C 541.959,258.555 538.126,263.722 535,269.5C 534.097,270.701 532.931,271.535 531.5,272C 532.694,274.658 531.694,275.824 528.5,275.5C 510.948,272.975 496.114,265.308 484,252.5C 475.793,241.877 472.46,229.877 474,216.5C 479.044,208.449 485.211,201.283 492.5,195C 500.788,189.047 508.788,182.714 516.5,176C 537.633,162.269 560.633,153.269 585.5,149C 598.265,147.978 610.932,148.645 623.5,151C 635.167,154.667 646.833,158.333 658.5,162C 671.468,167.814 683.468,175.148 694.5,184C 707.681,195.516 712.848,210.016 710,227.5C 705.833,223.333 701.667,219.167 697.5,215C 687.093,211.199 676.427,210.032 665.5,211.5 Z"/></g>
<g><path style="opacity:0.995" fill="#0d0109" d="M 112.5,314.5 C 112.5,315.5 112.5,316.5 112.5,317.5C 110.833,317.5 109.167,317.5 107.5,317.5C 93.0443,315.87 82.211,308.87 75,296.5C 74.3333,289.833 74.3333,283.167 75,276.5C 78.8445,267.16 85.0112,259.827 93.5,254.5C 80.7205,242.664 77.5539,228.664 84,212.5C 113.08,174.018 151.58,158.852 199.5,167C 239.52,172.709 270.353,192.543 292,226.5C 294,233.167 294,239.833 292,246.5C 287.692,260.783 281.026,273.783 272,285.5C 262.038,293.783 250.872,299.949 238.5,304C 232.845,304.819 227.345,304.319 222,302.5C 221.424,300.623 221.591,298.789 222.5,297C 218.747,289.407 215.58,281.573 213,273.5C 203.563,260.398 193.063,248.231 181.5,237C 167.625,227.703 152.625,220.703 136.5,216C 132.833,215.333 129.167,215.333 125.5,216C 122.528,217.141 120.861,219.308 120.5,222.5C 122.316,224.817 124.316,226.984 126.5,229C 134.833,232.667 143.167,236.333 151.5,240C 161.408,247.205 171.575,254.038 182,260.5C 188.153,269.822 187.986,278.989 181.5,288C 171.767,294.339 161.434,295.339 150.5,291C 143.153,288.657 135.819,286.323 128.5,284C 114.435,281.747 107.602,287.58 108,301.5C 109.012,306.038 110.512,310.371 112.5,314.5 Z"/></g>
<g><path style="opacity:1" fill="#5d0040" d="M 280.5,260.5 C 273.408,262.325 265.908,263.992 258,265.5C 255.593,265.327 253.26,265.327 251,265.5C 250.064,263.292 248.398,261.958 246,261.5C 242.944,257.921 240.111,254.254 237.5,250.5C 241.447,244.27 244.613,237.604 247,230.5C 247.5,223.508 247.666,216.508 247.5,209.5C 245.876,209.36 244.71,210.027 244,211.5C 245.339,225.011 241.839,237.011 233.5,247.5C 232.448,247.649 231.448,247.483 230.5,247C 229.36,245.027 228.027,243.193 226.5,241.5C 219.996,238.664 213.996,234.997 208.5,230.5C 204.821,230.274 201.821,228.774 199.5,226C 197.187,225.338 194.854,224.838 192.5,224.5C 192.169,222.678 191.502,221.011 190.5,219.5C 192.977,209.974 194.144,200.307 194,190.5C 192.921,188.606 191.587,188.273 190,189.5C 190.235,199.811 188.735,209.811 185.5,219.5C 180.752,217.315 175.919,215.315 171,213.5C 170.667,213.833 170.333,214.167 170,214.5C 168.659,211.813 166.993,210.147 165,209.5C 164.586,209.957 164.086,210.291 163.5,210.5C 160.988,209.62 158.821,208.287 157,206.5C 155.004,207.341 153.171,207.008 151.5,205.5C 151.664,202.813 151.497,200.146 151,197.5C 150.29,196.027 149.124,195.36 147.5,195.5C 147.5,198.167 147.5,200.833 147.5,203.5C 138.79,203.16 130.123,201.493 121.5,198.5C 120.914,198.709 120.414,199.043 120,199.5C 119.261,198.426 118.261,197.759 117,197.5C 112.922,197.292 108.755,197.625 104.5,198.5C 118.15,183.538 135.15,174.705 155.5,172C 210.132,164.251 253.632,182.418 286,226.5C 287.555,231.382 287.888,236.382 287,241.5C 285.328,248.016 283.161,254.35 280.5,260.5 Z"/></g>
<g><path style="opacity:1" fill="#050004" d="M 663.5,209.5 C 662.5,209.5 661.5,209.5 660.5,209.5C 654.418,204.168 651.085,197.335 650.5,189C 650.309,187.027 650.976,185.527 652.5,184.5C 653.329,194.258 656.996,202.592 663.5,209.5 Z"/></g>
<g><path style="opacity:1" fill="#49003b" d="M 147.5,203.5 C 147.504,207.236 146.171,210.236 143.5,212.5C 138.959,210.82 134.293,209.653 129.5,209C 117.46,208.419 105.46,208.419 93.5,209C 96.3981,204.6 100.065,201.1 104.5,198.5C 108.755,197.625 112.922,197.292 117,197.5C 118.261,197.759 119.261,198.426 120,199.5C 120.414,199.043 120.914,198.709 121.5,198.5C 130.123,201.493 138.79,203.16 147.5,203.5 Z"/></g>
<g><path style="opacity:1" fill="#060003" d="M 564.5,240.5 C 568.956,242.892 573.623,245.058 578.5,247C 580.559,248.185 580.726,249.352 579,250.5C 572.926,247.865 566.76,245.532 560.5,243.5C 558.188,241.364 555.688,239.364 553,237.5C 548.333,230.833 543.667,224.167 539,217.5C 537.349,213.342 537.183,209.175 538.5,205C 539.449,204.383 540.282,204.549 541,205.5C 540.626,207.769 540.626,210.102 541,212.5C 544.605,219.1 548.605,225.434 553,231.5C 556.136,235.478 559.969,238.478 564.5,240.5 Z"/></g>
<g><path style="opacity:0.506" fill="#340427" d="M 475.5,204.5 C 475.573,206.027 474.906,207.027 473.5,207.5C 473.427,205.973 474.094,204.973 475.5,204.5 Z"/></g>
<g><path style="opacity:1" fill="#49003b" d="M 151.5,205.5 C 153.171,207.008 155.004,207.341 157,206.5C 158.821,208.287 160.988,209.62 163.5,210.5C 164.086,210.291 164.586,209.957 165,209.5C 166.993,210.147 168.659,211.813 170,214.5C 170.333,214.167 170.667,213.833 171,213.5C 175.919,215.315 180.752,217.315 185.5,219.5C 185.047,225.124 182.047,227.624 176.5,227C 168.001,221.777 159.001,217.61 149.5,214.5C 149.167,214.167 148.833,213.833 148.5,213.5C 149.516,210.718 150.516,208.051 151.5,205.5 Z"/></g>
<g><path style="opacity:1" fill="#49003b" d="M 660.5,209.5 C 661.5,209.5 662.5,209.5 663.5,209.5C 664.167,210.167 664.833,210.833 665.5,211.5C 649.811,214.078 634.978,219.411 621,227.5C 616.705,225.032 612.871,222.032 609.5,218.5C 611.038,216.478 612.872,216.145 615,217.5C 621.468,215.312 627.802,214.645 634,215.5C 634.368,214.09 635.201,213.09 636.5,212.5C 640.005,212.56 643.505,212.894 647,213.5C 648.019,212.313 649.186,211.313 650.5,210.5C 653.804,211.386 656.971,211.719 660,211.5C 660.464,210.906 660.631,210.239 660.5,209.5 Z"/></g>
<g><path style="opacity:1" fill="#49003b" d="M 117.5,251.5 C 118.239,251.631 118.906,251.464 119.5,251C 112.904,246.096 106.737,240.596 101,234.5C 98.1181,229.119 96.6181,223.619 96.5,218C 99.4106,217.302 100.077,215.802 98.5,213.5C 105.443,212.206 112.443,212.206 119.5,213.5C 113.845,219.7 114.178,225.534 120.5,231C 129.944,236.107 139.611,240.774 149.5,245C 154.328,248.581 159.328,251.915 164.5,255C 168.833,258 168.5,260.333 163.5,262C 159.5,262.667 155.5,262.667 151.5,262C 140.336,257.554 129.003,254.054 117.5,251.5 Z"/></g>
<g><path style="opacity:1" fill="#5b0040" d="M 98.5,213.5 C 100.077,215.802 99.4106,217.302 96.5,218C 96.6181,223.619 98.1181,229.119 101,234.5C 106.737,240.596 112.904,246.096 119.5,251C 118.906,251.464 118.239,251.631 117.5,251.5C 111.771,251.212 106.104,251.546 100.5,252.5C 87.8447,244.041 83.3447,232.374 87,217.5C 87.5,216.333 88.3333,215.5 89.5,215C 92.4781,214.304 95.4781,213.804 98.5,213.5 Z"/></g>
<g><path style="opacity:1" fill="#49003c" d="M 696.5,222.5 C 695.153,225.681 694.32,229.014 694,232.5C 691.12,238.482 687.787,244.148 684,249.5C 674.161,258.884 663.994,267.051 653.5,274C 653.728,274.399 654.062,274.565 654.5,274.5C 647.518,277.324 640.518,277.157 633.5,274C 630.277,270.888 629.777,267.388 632,263.5C 643.993,260.67 654.993,255.67 665,248.5C 672.653,239.202 674.487,228.868 670.5,217.5C 671.438,216.447 672.605,215.78 674,215.5C 679.473,216.455 684.973,217.289 690.5,218C 692.747,219.277 694.747,220.777 696.5,222.5 Z"/></g>
<g><path style="opacity:1" fill="#49003c" d="M 604.5,219.5 C 607.944,223.061 611.944,225.894 616.5,228C 617.451,228.718 617.617,229.551 617,230.5C 603.218,240.56 590.218,251.56 578,263.5C 574.501,267.672 571.834,272.338 570,277.5C 568.5,279 567,280.5 565.5,282C 552.853,281.115 540.52,278.949 528.5,275.5C 531.694,275.824 532.694,274.658 531.5,272C 532.931,271.535 534.097,270.701 535,269.5C 538.126,263.722 541.959,258.555 546.5,254C 551.81,251.197 556.477,247.697 560.5,243.5C 566.76,245.532 572.926,247.865 579,250.5C 580.726,249.352 580.559,248.185 578.5,247C 573.623,245.058 568.956,242.892 564.5,240.5C 571.086,235.5 578.086,231 585.5,227C 591.509,223.316 597.842,220.816 604.5,219.5 Z"/></g>
<g><path style="opacity:1" fill="#49003c" d="M 190.5,219.5 C 191.502,221.011 192.169,222.678 192.5,224.5C 194.854,224.838 197.187,225.338 199.5,226C 201.821,228.774 204.821,230.274 208.5,230.5C 213.996,234.997 219.996,238.664 226.5,241.5C 228.027,243.193 229.36,245.027 230.5,247C 231.448,247.483 232.448,247.649 233.5,247.5C 229.168,257.739 221.668,262.072 211,260.5C 203.413,249.577 194.413,239.91 184,231.5C 186.381,227.746 188.548,223.746 190.5,219.5 Z"/></g>
<g><path style="opacity:1" fill="#5b0040" d="M 696.5,222.5 C 704.085,225.669 706.918,231.335 705,239.5C 698.005,250.307 689.505,259.807 679.5,268C 671.395,270.988 663.062,273.155 654.5,274.5C 654.062,274.565 653.728,274.399 653.5,274C 663.994,267.051 674.161,258.884 684,249.5C 687.787,244.148 691.12,238.482 694,232.5C 694.32,229.014 695.153,225.681 696.5,222.5 Z"/></g>
<g><path style="opacity:1" fill="#49003c" d="M 237.5,250.5 C 240.111,254.254 242.944,257.921 246,261.5C 248.398,261.958 250.064,263.292 251,265.5C 253.26,265.327 255.593,265.327 258,265.5C 265.908,263.992 273.408,262.325 280.5,260.5C 277.146,269.373 272.146,277.207 265.5,284C 258.833,288 252.167,292 245.5,296C 240.066,298.239 234.399,299.406 228.5,299.5C 228.322,296.784 227.822,294.117 227,291.5C 223.518,285.533 220.851,279.199 219,272.5C 217.204,269.073 215.037,265.906 212.5,263C 215.652,264.186 218.985,264.519 222.5,264C 228.967,261.028 233.967,256.528 237.5,250.5 Z"/></g>
<g><path style="opacity:1" fill="#5c0040" d="M 179.5,268.5 C 179.489,270.017 178.823,271.184 177.5,272C 175.028,273.46 172.361,274.46 169.5,275C 168.953,275.925 168.287,276.758 167.5,277.5C 160.548,276.548 153.882,274.714 147.5,272C 141.367,271.982 135.2,271.149 129,269.5C 126.667,270.167 124.333,270.833 122,271.5C 121.667,270.833 121.333,270.167 121,269.5C 120.409,272.145 119.075,272.811 117,271.5C 111.035,273.067 105.535,275.567 100.5,279C 100.833,279.333 101.167,279.667 101.5,280C 99.5,281.667 97.5,283.333 95.5,285C 95.8333,285.333 96.1667,285.667 96.5,286C 95.5399,287.419 94.7065,288.919 94,290.5C 93.7685,294.555 93.2685,298.555 92.5,302.5C 93.2739,303.711 94.1072,303.711 95,302.5C 95.484,304.193 94.984,305.527 93.5,306.5C 80.0563,300.938 75.8896,291.271 81,277.5C 83.3581,281.358 86.5248,284.358 90.5,286.5C 91.5827,285.635 91.7494,284.635 91,283.5C 86.2333,280.291 83.8999,275.958 84,270.5C 87.8,264.533 92.9666,260.2 99.5,257.5C 100.142,261.023 101.308,264.356 103,267.5C 104.808,269.843 106.974,270.51 109.5,269.5C 105.328,266.152 103.661,261.819 104.5,256.5C 120.195,257.005 135.195,260.505 149.5,267C 158.355,268.992 166.189,267.159 173,261.5C 176.74,262.405 178.906,264.739 179.5,268.5 Z"/></g>
<g><path style="opacity:1" fill="#5c0040" d="M 680.5,283.5 C 679.778,283.918 679.278,284.584 679,285.5C 678.586,285.043 678.086,284.709 677.5,284.5C 674.045,285.767 670.545,286.767 667,287.5C 665.807,285.557 664.307,285.724 662.5,288C 659.574,288.218 656.74,288.718 654,289.5C 653.667,289.167 653.333,288.833 653,288.5C 652.228,289.849 651.061,290.682 649.5,291C 640.501,291.385 631.668,291.552 623,291.5C 615.686,290.53 610.853,287.197 608.5,281.5C 611.821,273.346 617.655,267.68 626,264.5C 625.677,272.379 629.177,277.545 636.5,280C 641.799,281.145 647.132,281.478 652.5,281C 662.989,277.877 673.656,275.71 684.5,274.5C 684.498,278.165 683.165,281.165 680.5,283.5 Z"/></g>
<g><path style="opacity:1" fill="#49003c" d="M 179.5,268.5 C 182.568,274.585 181.568,280.085 176.5,285C 168.662,287.967 160.662,288.3 152.5,286C 145.153,283.657 137.819,281.323 130.5,279C 110.008,275.828 101.175,284.328 104,304.5C 104.642,306.762 105.475,308.929 106.5,311C 101.714,310.794 97.381,309.294 93.5,306.5C 94.984,305.527 95.484,304.193 95,302.5C 94.1072,303.711 93.2739,303.711 92.5,302.5C 93.2685,298.555 93.7685,294.555 94,290.5C 94.7065,288.919 95.5399,287.419 96.5,286C 96.1667,285.667 95.8333,285.333 95.5,285C 97.5,283.333 99.5,281.667 101.5,280C 101.167,279.667 100.833,279.333 100.5,279C 105.535,275.567 111.035,273.067 117,271.5C 119.075,272.811 120.409,272.145 121,269.5C 121.333,270.167 121.667,270.833 122,271.5C 124.333,270.833 126.667,270.167 129,269.5C 135.2,271.149 141.367,271.982 147.5,272C 153.882,274.714 160.548,276.548 167.5,277.5C 168.287,276.758 168.953,275.925 169.5,275C 172.361,274.46 175.028,273.46 177.5,272C 178.823,271.184 179.489,270.017 179.5,268.5 Z"/></g>
<g><path style="opacity:1" fill="#5c0040" d="M 720.5,318.5 C 719.305,318.134 718.639,317.301 718.5,316C 719.71,311.217 719.043,306.717 716.5,302.5C 716.833,301.833 717.167,301.167 717.5,300.5C 716.738,300.089 715.738,299.923 714.5,300C 715.634,298.984 715.301,298.317 713.5,298C 714.458,296.853 714.125,295.853 712.5,295C 713.641,294.259 713.641,293.425 712.5,292.5C 710.291,291.937 708.791,290.604 708,288.5C 707.667,289.167 707.333,289.833 707,290.5C 700.892,284.874 693.392,282.874 684.5,284.5C 686.318,280.653 687.984,276.82 689.5,273C 698.793,271.558 708.126,271.224 717.5,272C 720.446,272.806 723.112,274.139 725.5,276C 725.964,278.405 726.131,280.905 726,283.5C 728.071,280.584 729.405,280.918 730,284.5C 731.392,297.151 728.225,308.484 720.5,318.5 Z"/></g>
<g><path style="opacity:1" fill="#49003b" d="M 608.5,281.5 C 610.853,287.197 615.686,290.53 623,291.5C 631.668,291.552 640.501,291.385 649.5,291C 651.061,290.682 652.228,289.849 653,288.5C 653.333,288.833 653.667,289.167 654,289.5C 656.74,288.718 659.574,288.218 662.5,288C 664.307,285.724 665.807,285.557 667,287.5C 670.545,286.767 674.045,285.767 677.5,284.5C 678.086,284.709 678.586,285.043 679,285.5C 679.278,284.584 679.778,283.918 680.5,283.5C 681.211,285.842 682.544,286.175 684.5,284.5C 693.392,282.874 700.892,284.874 707,290.5C 707.333,289.833 707.667,289.167 708,288.5C 708.791,290.604 710.291,291.937 712.5,292.5C 713.641,293.425 713.641,294.259 712.5,295C 714.125,295.853 714.458,296.853 713.5,298C 715.301,298.317 715.634,298.984 714.5,300C 715.738,299.923 716.738,300.089 717.5,300.5C 717.167,301.167 716.833,301.833 716.5,302.5C 719.043,306.717 719.71,311.217 718.5,316C 718.639,317.301 719.305,318.134 720.5,318.5C 718.252,322.254 715.419,325.588 712,328.5C 714.926,315.856 712.592,304.19 705,293.5C 690.942,288.92 677.442,290.42 664.5,298C 651.228,302.848 637.561,304.515 623.5,303C 617.013,301.508 611.513,298.341 607,293.5C 604.727,289.059 605.227,285.059 608.5,281.5 Z"/></g>
<g><path style="opacity:0.749" fill="#26061e" d="M 112.5,314.5 C 113.434,315.568 113.768,316.901 113.5,318.5C 111.265,318.795 109.265,318.461 107.5,317.5C 109.167,317.5 110.833,317.5 112.5,317.5C 112.5,316.5 112.5,315.5 112.5,314.5 Z"/></g>
</svg>
