<?xml version="1.0" encoding="UTF-8"?>
<!DOCTYPE svg PUBLIC "-//W3C//DTD SVG 1.1//EN" "http://www.w3.org/Graphics/SVG/1.1/DTD/svg11.dtd">
<svg xmlns="http://www.w3.org/2000/svg" version="1.1" width="862px" height="862px" style="shape-rendering:geometricPrecision; text-rendering:geometricPrecision; image-rendering:optimizeQuality; fill-rule:evenodd; clip-rule:evenodd" xmlns:xlink="http://www.w3.org/1999/xlink">
<g><path style="opacity:0.995" fill="#191818" d="M 427.5,213.5 C 431.015,214.239 434.348,214.239 437.5,213.5C 457.44,207.685 476.773,200.185 495.5,191C 516.919,177.963 537.252,163.463 556.5,147.5C 559.089,146.581 561.089,144.914 562.5,142.5C 563.5,140.833 564.833,139.5 566.5,138.5C 570.436,136.234 573.769,133.234 576.5,129.5C 587.161,118.672 597.661,107.672 608,96.5C 612.416,90.9319 616.583,85.2652 620.5,79.5C 621.906,79.0269 622.573,78.0269 622.5,76.5C 627.47,66.5629 632.97,56.8963 639,47.5C 639.333,45.1667 639.667,42.8333 640,40.5C 641,39.1667 642,39.1667 643,40.5C 645.745,49.4667 647.578,58.6334 648.5,68C 646.666,85.5038 643.166,102.671 638,119.5C 632.202,139.227 626.202,158.894 620,178.5C 612.45,194.266 605.45,210.266 599,226.5C 593.232,235.932 587.899,245.599 583,255.5C 579.213,260.956 575.046,266.123 570.5,271C 547.78,274.587 525.113,274.253 502.5,270C 475.47,261.573 451.97,247.407 432,227.5C 428.906,223.067 427.406,218.4 427.5,213.5 Z"/></g>
<g><path style="opacity:1" fill="#c0bfb1" d="M 639.5,86.5 C 639.601,80.6431 639.267,74.8098 638.5,69C 638.431,67.0145 637.765,65.5145 636.5,64.5C 637.989,62.1949 639.489,59.8616 641,57.5C 643.127,67.4034 642.627,77.0701 639.5,86.5 Z"/></g>
<g><path style="opacity:1" fill="#f4f3e7" d="M 636.5,64.5 C 637.765,65.5145 638.431,67.0145 638.5,69C 639.267,74.8098 639.601,80.6431 639.5,86.5C 631.994,119.02 622.661,151.02 611.5,182.5C 594.696,198.915 577.029,214.415 558.5,229C 557.255,229.791 555.922,230.291 554.5,230.5C 549.933,230.256 545.599,229.09 541.5,227C 533.57,222.73 525.903,218.064 518.5,213C 510.878,207.268 507.545,199.768 508.5,190.5C 523.298,181.355 537.464,171.355 551,160.5C 554.322,165.804 557.655,171.138 561,176.5C 568.629,186.241 578.463,190.241 590.5,188.5C 576.572,185.435 565.739,177.768 558,165.5C 556.086,162.702 555.086,159.702 555,156.5C 582.113,134.389 606.113,109.389 627,81.5C 630.179,75.8061 633.345,70.1394 636.5,64.5 Z"/></g>
<g><path style="opacity:0.995" fill="#151514" d="M 163.5,81.5 C 163.402,83.5529 164.069,85.2196 165.5,86.5C 166.774,88.9925 167.44,91.6592 167.5,94.5C 170.269,107.145 174.602,119.145 180.5,130.5C 182.362,134.75 184.028,139.083 185.5,143.5C 185.427,145.027 186.094,146.027 187.5,146.5C 188.674,147.514 189.34,148.847 189.5,150.5C 189.427,152.027 190.094,153.027 191.5,153.5C 191.738,155.404 192.738,156.738 194.5,157.5C 196.745,160.32 198.745,163.32 200.5,166.5C 200.738,168.404 201.738,169.738 203.5,170.5C 203.738,172.404 204.738,173.738 206.5,174.5C 206.738,176.404 207.738,177.738 209.5,178.5C 211.633,180.091 213.299,182.091 214.5,184.5C 216.094,187.764 218.427,190.431 221.5,192.5C 225.192,195.862 228.859,199.195 232.5,202.5C 234.034,204.369 236.034,205.702 238.5,206.5C 241.275,209.605 244.608,211.938 248.5,213.5C 251.135,214.811 253.469,216.478 255.5,218.5C 256.659,220.25 258.326,221.25 260.5,221.5C 262.992,223.768 265.658,224.768 268.5,224.5C 269.833,224.833 271.167,225.167 272.5,225.5C 273.784,227.614 275.784,228.614 278.5,228.5C 281.432,229.317 284.098,229.317 286.5,228.5C 286.973,229.906 287.973,230.573 289.5,230.5C 290.906,230.973 291.573,231.973 291.5,233.5C 290.576,235.648 290.576,237.982 291.5,240.5C 290.653,244.887 289.653,249.22 288.5,253.5C 287.172,258.165 284.839,262.165 281.5,265.5C 279.738,266.262 278.738,267.596 278.5,269.5C 278.573,271.027 277.906,272.027 276.5,272.5C 273.757,274.239 271.757,276.573 270.5,279.5C 268.105,282.861 265.105,285.528 261.5,287.5C 259.973,287.427 258.973,288.094 258.5,289.5C 254.561,291.446 250.894,293.779 247.5,296.5C 245.95,297.441 244.284,298.107 242.5,298.5C 238.211,299.488 233.878,300.321 229.5,301C 228.058,301.377 227.058,302.21 226.5,303.5C 224.712,303.785 223.045,303.452 221.5,302.5C 220.289,301.28 220.289,300.113 221.5,299C 219.907,298.051 218.574,296.885 217.5,295.5C 215.761,292.757 213.427,290.757 210.5,289.5C 207.167,286.833 204.167,283.833 201.5,280.5C 200.5,278.833 199.167,277.5 197.5,276.5C 195.5,275.167 193.833,273.5 192.5,271.5C 192.573,269.973 191.906,268.973 190.5,268.5C 189.167,267.833 188.167,266.833 187.5,265.5C 186.219,262.553 184.219,260.219 181.5,258.5C 179.1,256.704 177.433,254.37 176.5,251.5C 176.13,248.733 174.796,246.733 172.5,245.5C 172.771,243.62 172.104,242.287 170.5,241.5C 169.662,241.158 169.328,240.492 169.5,239.5C 169.573,237.973 168.906,236.973 167.5,236.5C 164.659,232.151 162.326,227.484 160.5,222.5C 157.345,213.691 154.012,205.025 150.5,196.5C 147.723,189.822 145.723,182.822 144.5,175.5C 144.147,171.087 143.314,166.754 142,162.5C 141.617,161.944 141.117,161.611 140.5,161.5C 140.5,161.167 140.5,160.833 140.5,160.5C 141.147,159.726 141.48,158.726 141.5,157.5C 141.36,155.97 140.693,154.97 139.5,154.5C 139.5,144.167 139.5,133.833 139.5,123.5C 140.117,123.389 140.617,123.056 141,122.5C 142.213,114.318 144.046,106.318 146.5,98.5C 147.655,94.2025 149.321,90.2025 151.5,86.5C 153.008,84.8185 154.008,82.8185 154.5,80.5C 155.906,80.0269 156.573,79.0269 156.5,77.5C 157.261,76.6091 158.261,75.9424 159.5,75.5C 161.252,77.2459 162.585,79.2459 163.5,81.5 Z"/></g>
<g><path style="opacity:0.471" fill="#85847d" d="M 622.5,76.5 C 622.573,78.0269 621.906,79.0269 620.5,79.5C 620.427,77.9731 621.094,76.9731 622.5,76.5 Z"/></g>
<g><path style="opacity:0.212" fill="#9c9b93" d="M 156.5,77.5 C 156.573,79.0269 155.906,80.0269 154.5,80.5C 154.427,78.9731 155.094,77.9731 156.5,77.5 Z"/></g>
<g><path style="opacity:0.016" fill="#acaca2" d="M 163.5,81.5 C 164.931,82.7804 165.598,84.4471 165.5,86.5C 164.069,85.2196 163.402,83.5529 163.5,81.5 Z"/></g>
<g><path style="opacity:0.106" fill="#999890" d="M 154.5,80.5 C 154.008,82.8185 153.008,84.8185 151.5,86.5C 151.461,83.911 152.461,81.911 154.5,80.5 Z"/></g>
<g><path style="opacity:1" fill="#c5c4b5" d="M 162.5,94.5 C 160.864,95.7489 159.697,97.4156 159,99.5C 155.361,118.5 157.361,136.834 165,154.5C 172.124,171.703 180.957,187.703 191.5,202.5C 187.969,204.937 184.469,204.937 181,202.5C 180.333,203.833 180.333,205.167 181,206.5C 185.119,207.659 189.286,207.659 193.5,206.5C 200.034,219.229 206.868,231.896 214,244.5C 216.042,247.94 218.542,250.94 221.5,253.5C 219.067,256.687 216.067,258.353 212.5,258.5C 213,259.881 214,260.547 215.5,260.5C 218.183,259.49 220.849,258.49 223.5,257.5C 230.527,268.851 237.527,280.184 244.5,291.5C 240.056,294.653 235.056,296.653 229.5,297.5C 226.472,297.153 223.806,295.986 221.5,294C 208.269,281.438 195.769,268.272 184,254.5C 160.787,219.696 147.62,181.363 144.5,139.5C 144.525,132.131 145.025,124.798 146,117.5C 148.601,108.363 151.601,99.3634 155,90.5C 155.782,87.9242 157.282,85.9242 159.5,84.5C 161.133,87.6 162.133,90.9334 162.5,94.5 Z"/></g>
<g><path style="opacity:1" fill="#f3f2e5" d="M 162.5,94.5 C 167,109.165 172,123.665 177.5,138C 177.304,142.318 175.97,146.152 173.5,149.5C 177.042,150.172 179.209,148.506 180,144.5C 188.664,159.494 198.497,173.661 209.5,187C 206.92,190.158 204.587,193.492 202.5,197C 199.09,199.372 195.423,201.205 191.5,202.5C 180.957,187.703 172.124,171.703 165,154.5C 157.361,136.834 155.361,118.5 159,99.5C 159.697,97.4156 160.864,95.7489 162.5,94.5 Z"/></g>
<g><path style="opacity:0.671" fill="#777670" d="M 146.5,98.5 C 144.046,106.318 142.213,114.318 141,122.5C 140.617,123.056 140.117,123.389 139.5,123.5C 140.455,114.668 142.788,106.334 146.5,98.5 Z"/></g>
<g><path style="opacity:0.251" fill="#8b8a83" d="M 167.5,94.5 C 171.811,106.426 176.144,118.426 180.5,130.5C 174.602,119.145 170.269,107.145 167.5,94.5 Z"/></g>
<g><path style="opacity:0.898" fill="#52524e" d="M 576.5,129.5 C 573.769,133.234 570.436,136.234 566.5,138.5C 569.231,134.766 572.564,131.766 576.5,129.5 Z"/></g>
<g><path style="opacity:0.169" fill="#abaaa1" d="M 185.5,143.5 C 186.906,143.973 187.573,144.973 187.5,146.5C 186.094,146.027 185.427,145.027 185.5,143.5 Z"/></g>
<g><path style="opacity:0.82" fill="#61615c" d="M 562.5,142.5 C 561.089,144.914 559.089,146.581 556.5,147.5C 557.911,145.086 559.911,143.419 562.5,142.5 Z"/></g>
<g><path style="opacity:0.314" fill="#96968d" d="M 189.5,150.5 C 190.906,150.973 191.573,151.973 191.5,153.5C 190.094,153.027 189.427,152.027 189.5,150.5 Z"/></g>
<g><path style="opacity:0.329" fill="#a2a199" d="M 191.5,153.5 C 193.262,154.262 194.262,155.596 194.5,157.5C 192.738,156.738 191.738,155.404 191.5,153.5 Z"/></g>
<g><path style="opacity:0.475" fill="#84837c" d="M 139.5,154.5 C 140.693,154.97 141.36,155.97 141.5,157.5C 141.48,158.726 141.147,159.726 140.5,160.5C 139.85,158.565 139.517,156.565 139.5,154.5 Z"/></g>
<g><path style="opacity:0.737" fill="#83827c" d="M 200.5,166.5 C 202.262,167.262 203.262,168.596 203.5,170.5C 201.738,169.738 200.738,168.404 200.5,166.5 Z"/></g>
<g><path style="opacity:0.478" fill="#85847d" d="M 203.5,170.5 C 205.262,171.262 206.262,172.596 206.5,174.5C 204.738,173.738 203.738,172.404 203.5,170.5 Z"/></g>
<g><path style="opacity:0.278" fill="#7f7e78" d="M 140.5,161.5 C 141.117,161.611 141.617,161.944 142,162.5C 143.314,166.754 144.147,171.087 144.5,175.5C 142.565,171.107 141.232,166.441 140.5,161.5 Z"/></g>
<g><path style="opacity:0.537" fill="#7f7e77" d="M 206.5,174.5 C 208.262,175.262 209.262,176.596 209.5,178.5C 207.738,177.738 206.738,176.404 206.5,174.5 Z"/></g>
<g><path style="opacity:1" fill="#c4c3b4" d="M 611.5,182.5 C 604.129,197.911 597.295,213.578 591,229.5C 585.559,237.38 580.892,245.714 577,254.5C 574.211,258.625 571.044,262.458 567.5,266C 550.897,268.874 534.23,269.207 517.5,267C 513.608,266.581 509.942,265.748 506.5,264.5C 517.305,262.959 526.638,258.459 534.5,251C 539.337,245.33 544.337,239.83 549.5,234.5C 554.511,234.666 559.511,234.499 564.5,234C 565.624,233.751 566.624,233.251 567.5,232.5C 563.018,231.833 558.684,231.166 554.5,230.5C 555.922,230.291 557.255,229.791 558.5,229C 577.029,214.415 594.696,198.915 611.5,182.5 Z"/></g>
<g><path style="opacity:0.643" fill="#808079" d="M 214.5,184.5 C 217.573,186.569 219.906,189.236 221.5,192.5C 218.427,190.431 216.094,187.764 214.5,184.5 Z"/></g>
<g><path style="opacity:1" fill="#f5f4e7" d="M 549.5,234.5 C 544.337,239.83 539.337,245.33 534.5,251C 526.638,258.459 517.305,262.959 506.5,264.5C 491.604,261.052 477.937,254.885 465.5,246C 454.079,239.13 444.079,230.63 435.5,220.5C 454.422,215.708 472.755,209.208 490.5,201C 495,198.5 499.5,196 504,193.5C 504.886,201.437 508.053,208.27 513.5,214C 524.14,223.122 536.14,229.955 549.5,234.5 Z"/></g>
<g><path style="opacity:0.016" fill="#9a9991" d="M 150.5,196.5 C 154.012,205.025 157.345,213.691 160.5,222.5C 155.801,214.408 152.467,205.742 150.5,196.5 Z"/></g>
<g><path style="opacity:0.122" fill="#63635e" d="M 232.5,202.5 C 235.147,202.929 237.147,204.262 238.5,206.5C 236.034,205.702 234.034,204.369 232.5,202.5 Z"/></g>
<g><path style="opacity:0.153" fill="#666660" d="M 238.5,206.5 C 242.392,208.062 245.725,210.395 248.5,213.5C 244.608,211.938 241.275,209.605 238.5,206.5 Z"/></g>
<g><path style="opacity:0.314" fill="#84847d" d="M 427.5,213.5 C 430.668,212.556 434.001,212.556 437.5,213.5C 434.348,214.239 431.015,214.239 427.5,213.5 Z"/></g>
<g><path style="opacity:0.012" fill="#929189" d="M 255.5,218.5 C 257.674,218.75 259.341,219.75 260.5,221.5C 258.326,221.25 256.659,220.25 255.5,218.5 Z"/></g>
<g><path style="opacity:0.055" fill="#8f8f88" d="M 260.5,221.5 C 263.443,221.98 266.11,222.98 268.5,224.5C 265.658,224.768 262.992,223.768 260.5,221.5 Z"/></g>
<g><path style="opacity:1" fill="#171716" d="M 223.5,257.5 C 220.849,258.49 218.183,259.49 215.5,260.5C 214,260.547 213,259.881 212.5,258.5C 216.067,258.353 219.067,256.687 221.5,253.5C 227.429,249.076 232.929,244.076 238,238.5C 241.453,233.379 245.286,228.546 249.5,224C 250.332,223.312 250.998,223.479 251.5,224.5C 244.728,237.735 235.395,248.735 223.5,257.5 Z"/></g>
<g><path style="opacity:1" fill="#f4f3e7" d="M 244.5,291.5 C 237.527,280.184 230.527,268.851 223.5,257.5C 235.395,248.735 244.728,237.735 251.5,224.5C 250.998,223.479 250.332,223.312 249.5,224C 245.286,228.546 241.453,233.379 238,238.5C 232.929,244.076 227.429,249.076 221.5,253.5C 218.542,250.94 216.042,247.94 214,244.5C 206.868,231.896 200.034,219.229 193.5,206.5C 202.539,203.628 208.372,197.628 211,188.5C 215.8,194.302 220.967,199.802 226.5,205C 235.675,211.087 244.675,217.421 253.5,224C 264.1,228.966 275.1,232.799 286.5,235.5C 287.296,244.283 285.129,252.283 280,259.5C 271.116,273.556 259.283,284.223 244.5,291.5 Z"/></g>
<g><path style="opacity:0.216" fill="#666661" d="M 272.5,225.5 C 274.75,226.13 276.75,227.13 278.5,228.5C 275.784,228.614 273.784,227.614 272.5,225.5 Z"/></g>
<g><path style="opacity:0.129" fill="#7d7d76" d="M 286.5,228.5 C 288.027,228.427 289.027,229.094 289.5,230.5C 287.973,230.573 286.973,229.906 286.5,228.5 Z"/></g>
<g><path style="opacity:0.027" fill="#c4c3b9" d="M 167.5,236.5 C 168.906,236.973 169.573,237.973 169.5,239.5C 168.094,239.027 167.427,238.027 167.5,236.5 Z"/></g>
<g><path style="opacity:0.176" fill="#bab9b0" d="M 170.5,241.5 C 172.104,242.287 172.771,243.62 172.5,245.5C 171.326,244.486 170.66,243.153 170.5,241.5 Z"/></g>
<g><path style="opacity:0.537" fill="#787771" d="M 291.5,233.5 C 293.255,240.65 292.255,247.317 288.5,253.5C 289.653,249.22 290.653,244.887 291.5,240.5C 290.576,237.982 290.576,235.648 291.5,233.5 Z"/></g>
<g><path style="opacity:0.757" fill="#898881" d="M 172.5,245.5 C 174.796,246.733 176.13,248.733 176.5,251.5C 174.684,249.882 173.351,247.882 172.5,245.5 Z"/></g>
<g><path style="opacity:0.188" fill="#888780" d="M 181.5,258.5 C 184.219,260.219 186.219,262.553 187.5,265.5C 184.81,263.807 182.81,261.473 181.5,258.5 Z"/></g>
<g><path style="opacity:0.063" fill="#a7a69d" d="M 281.5,265.5 C 281.262,267.404 280.262,268.738 278.5,269.5C 278.738,267.596 279.738,266.262 281.5,265.5 Z"/></g>
<g><path style="opacity:0.027" fill="#999990" d="M 190.5,268.5 C 191.906,268.973 192.573,269.973 192.5,271.5C 191.094,271.027 190.427,270.027 190.5,268.5 Z"/></g>
<g><path style="opacity:0.063" fill="#676761" d="M 276.5,272.5 C 275.243,275.427 273.243,277.761 270.5,279.5C 271.757,276.573 273.757,274.239 276.5,272.5 Z"/></g>
<g><path style="opacity:0.004" fill="#c6c6bb" d="M 197.5,276.5 C 199.167,277.5 200.5,278.833 201.5,280.5C 199.167,280.167 197.833,278.833 197.5,276.5 Z"/></g>
<g><path style="opacity:0.155" fill="#83827c" d="M 261.5,287.5 C 261.027,288.906 260.027,289.573 258.5,289.5C 258.973,288.094 259.973,287.427 261.5,287.5 Z"/></g>
<g><path style="opacity:0.078" fill="#8f8e87" d="M 258.5,289.5 C 255.642,293.01 251.976,295.343 247.5,296.5C 250.894,293.779 254.561,291.446 258.5,289.5 Z"/></g>
<g><path style="opacity:0.443" fill="#84837c" d="M 210.5,289.5 C 213.427,290.757 215.761,292.757 217.5,295.5C 214.573,294.243 212.239,292.243 210.5,289.5 Z"/></g>
<g><path style="opacity:0.549" fill="#5b5a55" d="M 242.5,298.5 C 237.509,300.909 232.176,302.576 226.5,303.5C 227.058,302.21 228.058,301.377 229.5,301C 233.878,300.321 238.211,299.488 242.5,298.5 Z"/></g>
</svg>
