<?xml version="1.0" encoding="UTF-8"?>
<!DOCTYPE svg PUBLIC "-//W3C//DTD SVG 1.1//EN" "http://www.w3.org/Graphics/SVG/1.1/DTD/svg11.dtd">
<svg xmlns="http://www.w3.org/2000/svg" version="1.1" width="862px" height="862px" style="shape-rendering:geometricPrecision; text-rendering:geometricPrecision; image-rendering:optimizeQuality; fill-rule:evenodd; clip-rule:evenodd" xmlns:xlink="http://www.w3.org/1999/xlink">
<g><path style="opacity:0.996" fill="#140d09" d="M 505.5,18.5 C 529.919,17.7264 553.919,20.5598 577.5,27C 609.101,35.4222 639.767,46.4222 669.5,60C 698.643,78.4613 725.476,99.9613 750,124.5C 769.217,147.939 781.717,174.606 787.5,204.5C 787.255,206.663 786.255,208.33 784.5,209.5C 759.247,199.852 733.247,192.685 706.5,188C 674.881,182.925 645.214,188.259 617.5,204C 595.206,220.746 581.706,242.913 577,270.5C 573.386,276.063 568.219,279.23 561.5,280C 535.059,282.696 509.726,278.696 485.5,268C 468.941,259.107 453.775,248.273 440,235.5C 437.168,231.336 435.001,226.836 433.5,222C 433.645,221.228 433.978,220.561 434.5,220C 452.214,214.488 469.881,208.821 487.5,203C 509.336,194.838 527.502,181.671 542,163.5C 552.415,149.418 554.082,134.418 547,118.5C 546.505,116.527 546.338,114.527 546.5,112.5C 552.944,108.776 559.611,105.276 566.5,102C 576.482,99.0056 586.482,96.339 596.5,94C 561.281,62.2167 520.614,40.05 474.5,27.5C 473.417,26.635 473.251,25.635 474,24.5C 475.816,23.6705 477.649,22.8372 479.5,22C 488.308,20.784 496.974,19.6174 505.5,18.5 Z"/></g>
<g><path style="opacity:1" fill="#824125" d="M 534.5,181.5 C 534.611,182.117 534.944,182.617 535.5,183C 533.045,185.404 531.212,188.238 530,191.5C 526,196.833 521.333,201.5 516,205.5C 515.439,204.978 514.772,204.645 514,204.5C 511.6,206.2 508.934,207.533 506,208.5C 505.055,208.095 504.388,207.428 504,206.5C 502.129,208.303 499.962,209.636 497.5,210.5C 496.914,210.291 496.414,209.957 496,209.5C 495.558,211.679 494.558,212.345 493,211.5C 491.601,212.227 490.101,212.727 488.5,213C 488.833,213.333 489.167,213.667 489.5,214C 487.02,214.915 486.353,216.415 487.5,218.5C 486.021,220.765 484.687,223.099 483.5,225.5C 485.42,227.666 486.586,230.666 487,234.5C 487.914,233.346 488.747,233.513 489.5,235C 489.167,235.333 488.833,235.667 488.5,236C 491.22,236.723 493.387,238.223 495,240.5C 495.333,240.167 495.667,239.833 496,239.5C 497.194,241.525 498.694,241.859 500.5,240.5C 504.237,242.444 507.737,242.778 511,241.5C 511.667,242.167 512.333,242.833 513,243.5C 516.06,244.568 519.393,244.568 523,243.5C 524.555,245.146 526.221,245.479 528,244.5C 528.667,245.167 529.333,245.833 530,246.5C 532.012,246.475 534.012,246.475 536,246.5C 538.399,249.023 541.065,250.356 544,250.5C 545.399,249.773 546.899,249.273 548.5,249C 548.167,248.667 547.833,248.333 547.5,248C 548.76,246.887 549.927,246.72 551,247.5C 554.864,243.616 558.364,239.45 561.5,235C 560.756,232.149 560.756,229.483 561.5,227C 562.672,226.581 563.672,225.915 564.5,225C 564.507,223.417 564.174,221.751 563.5,220C 566.429,215.885 568.596,211.385 570,206.5C 571.131,207.604 571.965,207.271 572.5,205.5C 571.128,203.38 571.795,202.38 574.5,202.5C 575.556,198.832 576.722,195.165 578,191.5C 578.667,194.167 579.333,194.167 580,191.5C 580.988,188.576 581.654,185.576 582,182.5C 582.333,183.5 582.667,184.5 583,185.5C 584.119,182.943 584.285,180.443 583.5,178C 588.448,172.409 589.782,165.909 587.5,158.5C 586.081,156.664 584.914,154.664 584,152.5C 583.586,152.957 583.086,153.291 582.5,153.5C 581.646,152.478 580.646,151.645 579.5,151C 577.109,150.713 574.776,150.213 572.5,149.5C 570.554,151.087 569.054,150.754 568,148.5C 566.364,152.011 565.197,152.344 564.5,149.5C 561.539,150.183 561.205,151.016 563.5,152C 561.079,154.094 558.412,155.76 555.5,157C 556.654,157.914 556.487,158.747 555,159.5C 554.667,159.167 554.333,158.833 554,158.5C 552.887,159.76 552.72,160.927 553.5,162C 551.751,162.785 550.084,163.618 548.5,164.5C 558.396,149.261 560.063,133.095 553.5,116C 556.103,112.692 559.436,110.359 563.5,109C 575.456,104.475 587.789,101.475 600.5,100C 603.661,97.9207 604.328,95.0873 602.5,91.5C 569.367,60.9222 531.034,39.0888 487.5,26C 492.051,24.7852 496.718,24.1186 501.5,24C 529.033,22.7422 556.033,26.0755 582.5,34C 611.325,42.1631 639.325,52.4964 666.5,65C 697.353,84.5175 725.186,107.684 750,134.5C 765.051,154.603 775.218,176.936 780.5,201.5C 764.34,196.17 748.006,191.336 731.5,187C 702.541,180.229 673.541,179.896 644.5,186C 603.461,199.42 579.461,227.42 572.5,270C 568.05,272.261 563.383,273.928 558.5,275C 532.793,277.222 508.46,272.555 485.5,261C 470.334,252.665 456.5,242.498 444,230.5C 442.833,228.167 441.667,225.833 440.5,223.5C 453.443,219.514 466.443,215.68 479.5,212C 499.666,204.922 518,194.755 534.5,181.5 Z"/></g>
<g><path style="opacity:0.996" fill="#15140d" d="M 110.5,109.5 C 117.11,104.559 123.11,98.8922 128.5,92.5C 136.353,85.1529 144.687,78.3196 153.5,72C 170.937,64.1151 187.937,55.4484 204.5,46C 222.928,39.3172 241.928,35.3172 261.5,34C 268.833,33.3333 276.167,33.3333 283.5,34C 284.406,35.6995 284.739,37.5328 284.5,39.5C 282.473,39.3379 280.473,39.5045 278.5,40C 251.079,56.5854 230.079,79.0854 215.5,107.5C 223.11,109.983 230.443,113.149 237.5,117C 239.543,119.009 241.543,121.009 243.5,123C 243.578,128.964 243.411,135.131 243,141.5C 242.488,146.038 240.988,150.204 238.5,154C 248.461,168.641 257.628,183.808 266,199.5C 276.165,211.143 285.665,223.143 294.5,235.5C 285.24,264.602 266.573,285.435 238.5,298C 232.801,299.002 227.301,300.502 222,302.5C 219.446,302.42 217.946,301.086 217.5,298.5C 226.852,273.567 224.685,249.567 211,226.5C 195.302,204.14 174.468,188.64 148.5,180C 123.327,176.617 100.993,182.95 81.5,199C 79.8876,199.72 78.3876,199.554 77,198.5C 77.0751,189.833 77.7417,181.166 79,172.5C 83.4608,161.784 87.1275,150.784 90,139.5C 95.9148,128.773 102.748,118.773 110.5,109.5 Z"/></g>
<g><path style="opacity:1" fill="#088c34" d="M 261.5,40.5 C 262.708,39.218 264.042,39.218 265.5,40.5C 265.376,41.1067 265.043,41.44 264.5,41.5C 263.791,40.596 262.791,40.2627 261.5,40.5 Z"/></g>
<g><path style="opacity:1" fill="#824426" d="M 261.5,40.5 C 262.791,40.2627 263.791,40.596 264.5,41.5C 252.897,50.4347 242.23,60.4347 232.5,71.5C 227.912,78.9221 222.745,85.9221 217,92.5C 213.985,97.5251 211.818,102.858 210.5,108.5C 207.433,108.121 206.433,109.121 207.5,111.5C 208.29,112.401 209.29,113.068 210.5,113.5C 220.409,115.02 229.576,119.02 238,125.5C 238.895,133.301 238.228,140.967 236,148.5C 234.839,149.995 233.673,151.495 232.5,153C 236.125,160.42 240.125,167.587 244.5,174.5C 244.657,175.873 244.49,177.207 244,178.5C 242.984,177.366 242.317,177.699 242,179.5C 241.667,178.833 241.333,178.167 241,177.5C 238.645,178.051 236.312,179.385 234,181.5C 232.238,181.056 232.405,180.556 234.5,180C 233.167,179.333 231.833,179.333 230.5,180C 231.696,180.654 231.696,181.154 230.5,181.5C 228.575,181.163 227.075,179.83 226,177.5C 225.667,177.833 225.333,178.167 225,178.5C 223.933,177.809 222.766,177.309 221.5,177C 222.28,175.927 222.113,174.76 221,173.5C 220.667,173.833 220.333,174.167 220,174.5C 218.685,171.508 216.685,169.175 214,167.5C 212.416,167.988 211.249,168.988 210.5,170.5C 209.914,170.291 209.414,169.957 209,169.5C 206.806,171.389 206.306,173.556 207.5,176C 206.76,177.785 206.093,179.618 205.5,181.5C 206.01,184.244 206.01,187.244 205.5,190.5C 207.672,192.985 209.672,196.152 211.5,200C 211.167,200.333 210.833,200.667 210.5,201C 213.156,202.003 214.156,203.67 213.5,206C 214.029,208.429 215.363,210.262 217.5,211.5C 218.074,213.059 218.74,214.559 219.5,216C 219.167,216.333 218.833,216.667 218.5,217C 220.558,218.49 221.891,220.49 222.5,223C 221.833,223.333 221.167,223.667 220.5,224C 221.833,225.667 223.167,227.333 224.5,229C 225.411,232.063 225.411,235.23 224.5,238.5C 218.88,223.691 209.88,211.191 197.5,201C 185.361,189.267 171.361,180.6 155.5,175C 129.005,169.127 105.005,174.294 83.5,190.5C 82.5318,188.393 82.1984,186.059 82.5,183.5C 86.1742,170.473 90.0076,157.473 94,144.5C 98.6302,137.049 102.964,129.382 107,121.5C 130.107,94.0315 158.274,73.5315 191.5,60C 200.927,52.6306 211.593,47.964 223.5,46C 236.198,43.9971 248.865,42.1638 261.5,40.5 Z"/></g>
<g><path style="opacity:1" fill="#916340" d="M 560.5,41.5 C 563.596,40.9066 565.929,41.9066 567.5,44.5C 568.086,44.2907 568.586,43.9574 569,43.5C 571.301,45.5985 573.635,46.9319 576,47.5C 577.806,45.0481 579.306,45.3814 580.5,48.5C 581.861,49.2435 584.361,49.2435 588,48.5C 589.46,50.4224 591.127,51.0891 593,50.5C 594.399,51.2266 595.899,51.7266 597.5,52C 596.346,52.9138 596.513,53.7471 598,54.5C 600.071,51.5845 601.405,51.9178 602,55.5C 602.388,54.572 603.055,53.9054 604,53.5C 606.5,54.3333 609,55.1667 611.5,56C 612.502,57.6718 613.668,58.8384 615,59.5C 616.268,59.3842 617.602,59.0509 619,58.5C 621.863,61.5153 625.363,63.3487 629.5,64C 629.167,64.3333 628.833,64.6667 628.5,65C 630.938,65.6821 633.105,65.1821 635,63.5C 636.011,63.8919 636.511,64.5585 636.5,65.5C 637.167,65.1667 637.833,64.8333 638.5,64.5C 643.73,67.5719 649.063,70.4052 654.5,73C 656.218,73.346 657.885,73.846 659.5,74.5C 660.803,73.2822 661.803,73.6155 662.5,75.5C 663.086,75.2907 663.586,74.9574 664,74.5C 664.415,76.2909 665.415,77.6243 667,78.5C 667.333,77.8333 667.667,77.1667 668,76.5C 669.857,78.5185 672.024,80.1851 674.5,81.5C 675.451,80.6744 676.451,80.5078 677.5,81C 679.156,82.8294 681.156,84.1628 683.5,85C 683.167,85.3333 682.833,85.6667 682.5,86C 686.743,87.1971 689.91,89.6971 692,93.5C 694.464,92.4744 696.298,93.3077 697.5,96C 696.66,97.6665 697.16,97.8331 699,96.5C 704.481,104.314 710.981,111.147 718.5,117C 718.167,117.333 717.833,117.667 717.5,118C 720.805,119.436 722.971,121.936 724,125.5C 724.914,124.346 725.747,124.513 726.5,126C 726.167,126.333 725.833,126.667 725.5,127C 728.058,129.298 729.891,132.132 731,135.5C 734.283,136.053 736.449,137.886 737.5,141C 737.167,141.333 736.833,141.667 736.5,142C 738.679,142.442 739.345,143.442 738.5,145C 740.651,145.191 742.651,146.358 744.5,148.5C 745.005,151.188 746.338,153.355 748.5,155C 747.903,156.628 748.237,158.295 749.5,160C 749.034,161.299 749.034,162.799 749.5,164.5C 750.5,164.5 751.5,164.5 752.5,164.5C 752.22,167.272 752.887,169.772 754.5,172C 752.012,173.685 752.345,175.019 755.5,176C 755.112,177.808 755.112,179.475 755.5,181C 754.953,181.925 754.287,182.758 753.5,183.5C 751.259,182.36 749.092,182.36 747,183.5C 745.333,182.5 743.667,181.5 742,180.5C 741.667,180.833 741.333,181.167 741,181.5C 739.823,179.824 738.323,178.491 736.5,177.5C 735.914,177.709 735.414,178.043 735,178.5C 732,177.5 729,176.5 726,175.5C 724,175.5 722,175.5 720,175.5C 717.546,174.656 715.046,173.656 712.5,172.5C 711.038,173.471 709.705,173.138 708.5,171.5C 705.674,171.686 702.841,172.019 700,172.5C 698.674,172.245 697.674,171.578 697,170.5C 686.504,171.473 675.838,171.473 665,170.5C 663.289,170.439 661.956,171.106 661,172.5C 659.68,172.201 658.18,172.034 656.5,172C 657.696,171.346 657.696,170.846 656.5,170.5C 654.866,170.968 653.7,171.968 653,173.5C 652.15,172.576 651.15,172.576 650,173.5C 649.055,173.095 648.388,172.428 648,171.5C 644.308,172.094 640.975,173.428 638,175.5C 636.026,175.353 634.026,175.019 632,174.5C 630.203,176.156 628.036,177.156 625.5,177.5C 622.833,177.5 620.167,177.5 617.5,177.5C 616.481,176.313 615.314,175.313 614,174.5C 613.577,175.956 612.744,176.456 611.5,176C 610.333,174.833 609.167,173.667 608,172.5C 606.915,167.563 606.248,162.563 606,157.5C 605.682,155.939 604.849,154.772 603.5,154C 605.709,153.043 605.543,151.876 603,150.5C 599.724,138.081 595.224,126.081 589.5,114.5C 589.848,112.303 590.848,110.47 592.5,109C 596.387,107.54 600.22,107.04 604,107.5C 605.168,106.491 606.335,105.491 607.5,104.5C 608.883,107.076 609.717,106.742 610,103.5C 610.667,104.167 611.333,104.833 612,105.5C 614.056,103.681 616.223,103.015 618.5,103.5C 620.333,101.833 622.167,100.167 624,98.5C 624.875,100.513 626.209,100.513 628,98.5C 628.333,98.8333 628.667,99.1667 629,99.5C 631.326,97.5455 633.659,95.5455 636,93.5C 637.243,94.3363 638.41,94.003 639.5,92.5C 637.851,91.3523 636.351,90.019 635,88.5C 634.667,88.8333 634.333,89.1667 634,89.5C 632.029,86.3615 629.196,84.6948 625.5,84.5C 623.95,81.1111 621.45,78.4445 618,76.5C 617.667,76.8333 617.333,77.1667 617,77.5C 614.03,75.5987 610.864,74.0987 607.5,73C 604.477,70.1036 601.144,67.9369 597.5,66.5C 597.649,65.448 597.483,64.448 597,63.5C 596,63.5 595,63.5 594,63.5C 593.558,61.3215 592.558,60.6548 591,61.5C 589.899,59.6061 588.566,58.9394 587,59.5C 584.532,58.8957 582.532,57.5624 581,55.5C 580.667,55.8333 580.333,56.1667 580,56.5C 573.686,53.2599 567.186,50.4265 560.5,48C 558.412,45.5353 558.412,43.3686 560.5,41.5 Z"/></g>
<g><path style="opacity:1" fill="#916340" d="M 225.5,53.5 C 227.96,55.5169 227.627,57.3502 224.5,59C 224.833,59.3333 225.167,59.6667 225.5,60C 223.127,61.9803 220.961,64.1469 219,66.5C 217.035,73.1209 213.202,78.2876 207.5,82C 207.957,82.414 208.291,82.914 208.5,83.5C 207.478,84.354 206.645,85.354 206,86.5C 205.667,86.1667 205.333,85.8333 205,85.5C 204.556,88.6108 203.223,91.2775 201,93.5C 200.667,93.1667 200.333,92.8333 200,92.5C 199.667,93.8333 199.333,95.1667 199,96.5C 196.658,99.1671 194.491,102 192.5,105C 193.634,106.016 193.301,106.683 191.5,107C 192.479,108.779 192.146,110.445 190.5,112C 191.833,113.84 191.666,114.34 190,113.5C 189.764,115.764 189.264,117.931 188.5,120C 189,120.5 189.5,121 190,121.5C 191.566,122.061 192.899,121.394 194,119.5C 197.719,120.059 201.719,120.059 206,119.5C 206.853,121.125 207.853,121.458 209,120.5C 211.843,123.675 215.01,126.509 218.5,129C 217.542,130.147 217.875,131.147 219.5,132C 219.5,134 219.5,136 219.5,138C 217.665,138.928 217.332,140.094 218.5,141.5C 217.35,144.138 216.016,146.638 214.5,149C 214.957,149.414 215.291,149.914 215.5,150.5C 214.833,150.833 214.167,151.167 213.5,151.5C 214.55,153.102 213.883,153.935 211.5,154C 212.167,154.333 212.833,154.667 213.5,155C 211.234,155.932 209.234,157.266 207.5,159C 207.071,161.092 205.738,163.092 203.5,165C 203.833,165.333 204.167,165.667 204.5,166C 202.015,167.487 199.848,169.321 198,171.5C 195.546,170.802 193.213,169.802 191,168.5C 188.693,167.855 186.193,167.855 183.5,168.5C 179.16,166.719 174.993,164.719 171,162.5C 169.286,163.925 167.953,163.592 167,161.5C 165.372,162.097 163.705,161.763 162,160.5C 147.274,161.815 132.607,161.815 118,160.5C 117.692,161.308 117.192,161.975 116.5,162.5C 116.167,161.833 115.833,161.167 115.5,160.5C 112.157,161.026 108.99,162.026 106,163.5C 104.75,162.427 103.416,162.427 102,163.5C 99.0302,161.886 98.8636,159.886 101.5,157.5C 99.8953,154.42 100.562,151.92 103.5,150C 103.167,149.667 102.833,149.333 102.5,149C 105.017,144.315 107.351,139.482 109.5,134.5C 109.291,133.914 108.957,133.414 108.5,133C 111.415,131.883 113.415,129.883 114.5,127C 114.167,126.667 113.833,126.333 113.5,126C 114.743,123.966 116.243,123.133 118,123.5C 118.862,121.913 119.529,120.246 120,118.5C 120.667,117.167 121.333,117.167 122,118.5C 122.333,117.5 122.667,116.5 123,115.5C 125.811,114.777 128.311,112.944 130.5,110C 130.167,109.667 129.833,109.333 129.5,109C 130.5,108.667 131.5,108.333 132.5,108C 132.167,107.667 131.833,107.333 131.5,107C 139.307,101.045 147.307,95.2119 155.5,89.5C 157.333,87.1667 159.167,84.8333 161,82.5C 162,82.8333 163,83.1667 164,83.5C 165.333,82.1667 166.667,80.8333 168,79.5C 168.333,79.8333 168.667,80.1667 169,80.5C 171,79.1667 173,77.8333 175,76.5C 176.333,76.5 177.667,76.5 179,76.5C 181.884,75.4402 183.717,73.9402 184.5,72C 186.134,71.5065 187.801,71.3398 189.5,71.5C 189.413,68.4017 189.913,68.0684 191,70.5C 191.29,68.9559 191.956,67.6226 193,66.5C 198.717,65.5131 204.217,63.1798 209.5,59.5C 211.224,60.6613 212.89,60.4947 214.5,59C 213.66,57.3335 214.16,57.1669 216,58.5C 217.93,55.6041 220.43,54.6041 223.5,55.5C 224.522,55.1445 225.189,54.4778 225.5,53.5 Z"/></g>
<g><path style="opacity:0.749" fill="#3f2b1d" d="M 128.5,92.5 C 123.11,98.8922 117.11,104.559 110.5,109.5C 115.89,103.108 121.89,97.4412 128.5,92.5 Z"/></g>
<g><path style="opacity:1" fill="#366c32" d="M 207.5,111.5 C 209.179,111.285 210.179,111.952 210.5,113.5C 209.29,113.068 208.29,112.401 207.5,111.5 Z"/></g>
<g><path style="opacity:1" fill="#916340" d="M 534.5,181.5 C 539.167,175.833 543.833,170.167 548.5,164.5C 550.084,163.618 551.751,162.785 553.5,162C 552.72,160.927 552.887,159.76 554,158.5C 554.333,158.833 554.667,159.167 555,159.5C 556.487,158.747 556.654,157.914 555.5,157C 558.412,155.76 561.079,154.094 563.5,152C 561.205,151.016 561.539,150.183 564.5,149.5C 565.197,152.344 566.364,152.011 568,148.5C 569.054,150.754 570.554,151.087 572.5,149.5C 574.776,150.213 577.109,150.713 579.5,151C 580.646,151.645 581.646,152.478 582.5,153.5C 583.086,153.291 583.586,152.957 584,152.5C 584.914,154.664 586.081,156.664 587.5,158.5C 589.782,165.909 588.448,172.409 583.5,178C 584.285,180.443 584.119,182.943 583,185.5C 582.667,184.5 582.333,183.5 582,182.5C 581.654,185.576 580.988,188.576 580,191.5C 579.333,194.167 578.667,194.167 578,191.5C 576.722,195.165 575.556,198.832 574.5,202.5C 571.795,202.38 571.128,203.38 572.5,205.5C 571.965,207.271 571.131,207.604 570,206.5C 568.596,211.385 566.429,215.885 563.5,220C 564.174,221.751 564.507,223.417 564.5,225C 563.672,225.915 562.672,226.581 561.5,227C 560.756,229.483 560.756,232.149 561.5,235C 558.364,239.45 554.864,243.616 551,247.5C 549.927,246.72 548.76,246.887 547.5,248C 547.833,248.333 548.167,248.667 548.5,249C 546.899,249.273 545.399,249.773 544,250.5C 541.065,250.356 538.399,249.023 536,246.5C 534.012,246.475 532.012,246.475 530,246.5C 529.333,245.833 528.667,245.167 528,244.5C 526.221,245.479 524.555,245.146 523,243.5C 519.393,244.568 516.06,244.568 513,243.5C 512.333,242.833 511.667,242.167 511,241.5C 507.737,242.778 504.237,242.444 500.5,240.5C 498.694,241.859 497.194,241.525 496,239.5C 495.667,239.833 495.333,240.167 495,240.5C 493.387,238.223 491.22,236.723 488.5,236C 488.833,235.667 489.167,235.333 489.5,235C 488.747,233.513 487.914,233.346 487,234.5C 486.586,230.666 485.42,227.666 483.5,225.5C 484.687,223.099 486.021,220.765 487.5,218.5C 486.353,216.415 487.02,214.915 489.5,214C 489.167,213.667 488.833,213.333 488.5,213C 490.101,212.727 491.601,212.227 493,211.5C 494.558,212.345 495.558,211.679 496,209.5C 496.414,209.957 496.914,210.291 497.5,210.5C 499.962,209.636 502.129,208.303 504,206.5C 504.388,207.428 505.055,208.095 506,208.5C 508.934,207.533 511.6,206.2 514,204.5C 514.772,204.645 515.439,204.978 516,205.5C 521.333,201.5 526,196.833 530,191.5C 531.212,188.238 533.045,185.404 535.5,183C 534.944,182.617 534.611,182.117 534.5,181.5 Z"/></g>
<g><path style="opacity:1" fill="#906340" d="M 244.5,174.5 C 249.9,184.296 255.566,193.962 261.5,203.5C 260.722,205.664 260.388,207.83 260.5,210C 261.061,211.676 262.061,213.009 263.5,214C 262.167,215.84 262.334,216.34 264,215.5C 265.551,221.602 267.718,226.769 270.5,231C 269.663,232.011 269.33,233.178 269.5,234.5C 270.5,234.5 271.5,234.5 272.5,234.5C 272.421,235.93 272.754,237.264 273.5,238.5C 272.624,239.251 271.624,239.751 270.5,240C 271.167,240.333 271.833,240.667 272.5,241C 270.981,242.351 269.648,243.851 268.5,245.5C 267.914,245.291 267.414,244.957 267,244.5C 265.507,249.316 262.674,253.149 258.5,256C 258.833,256.333 259.167,256.667 259.5,257C 256.272,258.563 254.105,261.063 253,264.5C 251.853,263.542 250.853,263.875 250,265.5C 247.333,268.833 244.667,272.167 242,275.5C 241.667,275.167 241.333,274.833 241,274.5C 240.667,275.5 240.333,276.5 240,277.5C 237.89,277.725 235.223,277.725 232,277.5C 231.984,274.979 232.151,272.479 232.5,270C 232.491,268.596 231.991,267.43 231,266.5C 230.814,269.036 230.314,271.369 229.5,273.5C 229.666,267.491 229.499,261.491 229,255.5C 227.183,249.914 225.683,244.247 224.5,238.5C 225.411,235.23 225.411,232.063 224.5,229C 223.167,227.333 221.833,225.667 220.5,224C 221.167,223.667 221.833,223.333 222.5,223C 221.891,220.49 220.558,218.49 218.5,217C 218.833,216.667 219.167,216.333 219.5,216C 218.74,214.559 218.074,213.059 217.5,211.5C 215.363,210.262 214.029,208.429 213.5,206C 214.156,203.67 213.156,202.003 210.5,201C 210.833,200.667 211.167,200.333 211.5,200C 209.672,196.152 207.672,192.985 205.5,190.5C 206.01,187.244 206.01,184.244 205.5,181.5C 206.093,179.618 206.76,177.785 207.5,176C 206.306,173.556 206.806,171.389 209,169.5C 209.414,169.957 209.914,170.291 210.5,170.5C 211.249,168.988 212.416,167.988 214,167.5C 216.685,169.175 218.685,171.508 220,174.5C 220.333,174.167 220.667,173.833 221,173.5C 222.113,174.76 222.28,175.927 221.5,177C 222.766,177.309 223.933,177.809 225,178.5C 225.333,178.167 225.667,177.833 226,177.5C 227.075,179.83 228.575,181.163 230.5,181.5C 231.696,181.154 231.696,180.654 230.5,180C 231.833,179.333 233.167,179.333 234.5,180C 232.405,180.556 232.238,181.056 234,181.5C 236.312,179.385 238.645,178.051 241,177.5C 241.333,178.167 241.667,178.833 242,179.5C 242.317,177.699 242.984,177.366 244,178.5C 244.49,177.207 244.657,175.873 244.5,174.5 Z"/></g>
<g><path style="opacity:1" fill="#008a42" d="M 82.5,183.5 C 82.1984,186.059 82.5318,188.393 83.5,190.5C 83.44,191.043 83.1067,191.376 82.5,191.5C 81.1997,188.691 81.1997,186.024 82.5,183.5 Z"/></g>
<g><path style="opacity:1" fill="#824425" d="M 261.5,203.5 C 270.486,213.667 278.986,224.333 287,235.5C 287.201,238.515 286.868,241.515 286,244.5C 273.8,269.29 254.634,285.957 228.5,294.5C 228.167,294.167 227.833,293.833 227.5,293.5C 229.27,286.971 229.936,280.304 229.5,273.5C 230.314,271.369 230.814,269.036 231,266.5C 231.991,267.43 232.491,268.596 232.5,270C 232.151,272.479 231.984,274.979 232,277.5C 235.223,277.725 237.89,277.725 240,277.5C 240.333,276.5 240.667,275.5 241,274.5C 241.333,274.833 241.667,275.167 242,275.5C 244.667,272.167 247.333,268.833 250,265.5C 250.853,263.875 251.853,263.542 253,264.5C 254.105,261.063 256.272,258.563 259.5,257C 259.167,256.667 258.833,256.333 258.5,256C 262.674,253.149 265.507,249.316 267,244.5C 267.414,244.957 267.914,245.291 268.5,245.5C 269.648,243.851 270.981,242.351 272.5,241C 271.833,240.667 271.167,240.333 270.5,240C 271.624,239.751 272.624,239.251 273.5,238.5C 272.754,237.264 272.421,235.93 272.5,234.5C 271.5,234.5 270.5,234.5 269.5,234.5C 269.33,233.178 269.663,232.011 270.5,231C 267.718,226.769 265.551,221.602 264,215.5C 262.334,216.34 262.167,215.84 263.5,214C 262.061,213.009 261.061,211.676 260.5,210C 260.388,207.83 260.722,205.664 261.5,203.5 Z"/></g>
</svg>
