<?xml version="1.0" encoding="UTF-8"?>
<!DOCTYPE svg PUBLIC "-//W3C//DTD SVG 1.1//EN" "http://www.w3.org/Graphics/SVG/1.1/DTD/svg11.dtd">
<svg xmlns="http://www.w3.org/2000/svg" version="1.1" width="862px" height="862px" style="shape-rendering:geometricPrecision; text-rendering:geometricPrecision; image-rendering:optimizeQuality; fill-rule:evenodd; clip-rule:evenodd" xmlns:xlink="http://www.w3.org/1999/xlink">
<g><path style="opacity:0.994" fill="#0f010a" d="M 614.5,157.5 C 614.34,155.847 613.674,154.514 612.5,153.5C 612.5,154.5 612.5,155.5 612.5,156.5C 609.072,156.547 606.072,157.713 603.5,160C 588.1,175.301 578.933,193.801 576,215.5C 575.099,235.825 574.433,256.159 574,276.5C 558.53,280.267 542.697,283.267 526.5,285.5C 504.327,281.329 485.494,270.996 470,254.5C 471.165,217.843 480.165,183.176 497,150.5C 500.697,145.315 504.53,140.315 508.5,135.5C 509.906,135.027 510.573,134.027 510.5,132.5C 526.215,109.614 547.215,93.7802 573.5,85C 593.904,83.2413 613.904,86.2413 633.5,94C 651.495,102.576 667.662,113.743 682,127.5C 700.352,149.367 710.185,174.701 711.5,203.5C 711.602,207.693 710.769,211.693 709,215.5C 697.292,233.625 681.125,239.459 660.5,233C 647.869,227.944 637.369,220.11 629,209.5C 627.667,206.833 626.333,204.167 625,201.5C 623.375,186.337 619.875,171.67 614.5,157.5 Z"/></g>
<g><path style="opacity:1" fill="#5d003e" d="M 599.5,127.5 C 597.316,128.266 594.982,128.933 592.5,129.5C 591.483,126.972 590.316,126.972 589,129.5C 588.667,129.167 588.333,128.833 588,128.5C 587.385,130.116 586.385,131.449 585,132.5C 583.913,130.068 583.413,130.402 583.5,133.5C 581.61,133.297 580.11,133.963 579,135.5C 578.667,135.167 578.333,134.833 578,134.5C 575.37,138.132 572.37,141.465 569,144.5C 568.667,144.167 568.333,143.833 568,143.5C 553.081,162.661 541.248,183.661 532.5,206.5C 534.658,208.026 534.325,209.526 531.5,211C 532.517,212.049 532.684,213.216 532,214.5C 531.346,213.304 530.846,213.304 530.5,214.5C 530.977,215.478 531.643,216.311 532.5,217C 529.978,221.429 529.978,225.762 532.5,230C 531.833,230.333 531.167,230.667 530.5,231C 531.098,233.792 532.098,236.458 533.5,239C 531.944,241.683 532.611,243.683 535.5,245C 534.167,246.84 534.334,247.34 536,246.5C 538.109,247.035 538.609,248.035 537.5,249.5C 540.077,249.66 541.91,251.327 543,254.5C 545.165,255.583 547.165,256.916 549,258.5C 551.997,258.423 554.997,258.09 558,257.5C 558.667,258.167 559.333,258.833 560,259.5C 562.888,258.909 565.554,257.909 568,256.5C 568.499,260.486 568.666,264.486 568.5,268.5C 568.092,269.643 567.425,270.643 566.5,271.5C 551.494,275.917 536.16,278.084 520.5,278C 515.677,277.17 511.011,275.836 506.5,274C 500.998,270.415 495.331,267.081 489.5,264C 484.167,260 478.833,256 473.5,252C 476.344,217.495 485.844,184.661 502,153.5C 512.189,138.651 523.689,124.818 536.5,112C 545.663,105.248 555.33,99.2485 565.5,94C 577.855,89.3079 590.521,88.3079 603.5,91C 611.878,93.1778 620.211,95.5111 628.5,98C 640.162,104.162 651.496,110.829 662.5,118C 685.173,135.034 699.34,157.534 705,185.5C 710.911,207.557 703.078,222.057 681.5,229C 675.763,229.789 670.097,229.456 664.5,228C 656.671,223.92 649.004,219.587 641.5,215C 636.813,210.457 632.98,205.291 630,199.5C 628.594,187.664 626.261,175.997 623,164.5C 617.863,152.227 612.196,140.227 606,128.5C 602.819,123.839 598.652,120.506 593.5,118.5C 588.002,119.338 586.335,122.338 588.5,127.5C 591.893,121.149 595.56,121.149 599.5,127.5 Z"/></g>
<g><path style="opacity:0.992" fill="#0f020a" d="M 163.5,95.5 C 174.943,95.0349 186.276,95.8682 197.5,98C 206.481,102.314 212.648,109.147 216,118.5C 229.057,133.622 241.39,149.288 253,165.5C 265.57,190.976 278.903,215.976 293,240.5C 293.667,245.5 293.667,250.5 293,255.5C 290.064,261.222 287.731,267.222 286,273.5C 279.349,283.819 270.516,291.652 259.5,297C 250.619,299.831 241.619,300.165 232.5,298C 229.993,297.907 227.826,297.074 226,295.5C 225.647,294.328 225.813,293.162 226.5,292C 222.493,281.47 219.659,270.637 218,259.5C 212.471,246.581 207.138,233.581 202,220.5C 195.527,207.228 186.86,195.562 176,185.5C 176.125,192.254 177.125,198.921 179,205.5C 181.447,214.866 184.28,224.033 187.5,233C 187.344,237.136 186.177,240.969 184,244.5C 179.5,249 175,253.5 170.5,258C 152.753,266.41 135.086,266.41 117.5,258C 100.412,242.239 93.745,222.739 97.5,199.5C 97.6667,194.5 97.8333,189.5 98,184.5C 100.239,173.19 102.239,161.856 104,150.5C 109.333,141.167 114.667,131.833 120,122.5C 125.727,112.775 133.894,105.941 144.5,102C 150.979,99.8968 157.313,97.7301 163.5,95.5 Z"/></g>
<g><path style="opacity:1" fill="#5d003e" d="M 227.5,277.5 C 227.415,276.005 228.081,275.005 229.5,274.5C 230.963,274.632 232.463,274.965 234,275.5C 237.005,272.828 240.005,270.161 243,267.5C 243.456,266.256 242.956,265.423 241.5,265C 243.592,264.047 243.925,262.714 242.5,261C 244.059,259.004 244.726,256.671 244.5,254C 244.4,251.698 243.733,249.698 242.5,248C 243.357,247.311 244.023,246.478 244.5,245.5C 243.519,241.687 241.519,238.52 238.5,236C 239.022,235.439 239.355,234.772 239.5,234C 236.923,231.244 234.923,228.078 233.5,224.5C 234.841,222.166 234.174,220.499 231.5,219.5C 230.202,216.377 228.702,213.377 227,210.5C 226.086,211.654 225.253,211.487 224.5,210C 225.167,209.667 225.833,209.333 226.5,209C 223.973,205.543 221.306,202.21 218.5,199C 218.833,198.667 219.167,198.333 219.5,198C 218.707,196.915 218.04,195.748 217.5,194.5C 213.575,190.958 209.408,186.958 205,182.5C 204.667,182.833 204.333,183.167 204,183.5C 203.03,180.179 200.863,178.513 197.5,178.5C 197.649,177.448 197.483,176.448 197,175.5C 196.282,176.451 195.449,176.617 194.5,176C 192.75,173.982 191.416,171.815 190.5,169.5C 185.607,160.55 180.107,160.216 174,168.5C 170.805,174.825 169.805,181.491 171,188.5C 172.748,203.332 176.581,217.498 182.5,231C 177.537,247.29 166.537,256.29 149.5,258C 134.886,260.767 122.719,256.601 113,245.5C 108.946,240.058 105.946,234.058 104,227.5C 103.583,216.496 103.083,205.496 102.5,194.5C 104.267,181.165 106.1,167.831 108,154.5C 114.081,143.337 120.414,132.337 127,121.5C 136.911,110.176 149.411,103.342 164.5,101C 176.071,99.7558 187.405,100.756 198.5,104C 200.754,105.377 202.92,106.877 205,108.5C 207.397,113.627 210.064,118.627 213,123.5C 224.381,137.213 235.381,151.213 246,165.5C 260.155,193.284 274.655,220.784 289.5,248C 285.701,268.125 274.701,282.791 256.5,292C 248.227,293.33 239.893,293.83 231.5,293.5C 229.961,288.216 228.627,282.882 227.5,277.5 Z"/></g>
<g><path style="opacity:1" fill="#49003b" d="M 599.5,127.5 C 605.895,134.956 610.228,143.623 612.5,153.5C 608.142,152.156 604.142,152.989 600.5,156C 583.381,172.073 573.547,191.906 571,215.5C 570.567,233.344 569.734,251.011 568.5,268.5C 568.666,264.486 568.499,260.486 568,256.5C 565.554,257.909 562.888,258.909 560,259.5C 559.333,258.833 558.667,258.167 558,257.5C 554.997,258.09 551.997,258.423 549,258.5C 547.165,256.916 545.165,255.583 543,254.5C 541.91,251.327 540.077,249.66 537.5,249.5C 538.609,248.035 538.109,247.035 536,246.5C 534.334,247.34 534.167,246.84 535.5,245C 532.611,243.683 531.944,241.683 533.5,239C 532.098,236.458 531.098,233.792 530.5,231C 531.167,230.667 531.833,230.333 532.5,230C 529.978,225.762 529.978,221.429 532.5,217C 531.643,216.311 530.977,215.478 530.5,214.5C 530.846,213.304 531.346,213.304 532,214.5C 532.684,213.216 532.517,212.049 531.5,211C 534.325,209.526 534.658,208.026 532.5,206.5C 541.248,183.661 553.081,162.661 568,143.5C 568.333,143.833 568.667,144.167 569,144.5C 572.37,141.465 575.37,138.132 578,134.5C 578.333,134.833 578.667,135.167 579,135.5C 580.11,133.963 581.61,133.297 583.5,133.5C 583.413,130.402 583.913,130.068 585,132.5C 586.385,131.449 587.385,130.116 588,128.5C 588.333,128.833 588.667,129.167 589,129.5C 590.316,126.972 591.483,126.972 592.5,129.5C 594.982,128.933 597.316,128.266 599.5,127.5 Z"/></g>
<g><path style="opacity:0.537" fill="#320526" d="M 510.5,132.5 C 510.573,134.027 509.906,135.027 508.5,135.5C 508.427,133.973 509.094,132.973 510.5,132.5 Z"/></g>
<g><path style="opacity:1" fill="#40002d" d="M 612.5,153.5 C 613.674,154.514 614.34,155.847 614.5,157.5C 613.833,157.167 613.167,156.833 612.5,156.5C 612.5,155.5 612.5,154.5 612.5,153.5 Z"/></g>
<g><path style="opacity:1" fill="#4a003b" d="M 190.5,169.5 C 191.416,171.815 192.75,173.982 194.5,176C 195.449,176.617 196.282,176.451 197,175.5C 197.483,176.448 197.649,177.448 197.5,178.5C 200.863,178.513 203.03,180.179 204,183.5C 204.333,183.167 204.667,182.833 205,182.5C 209.408,186.958 213.575,190.958 217.5,194.5C 218.04,195.748 218.707,196.915 219.5,198C 219.167,198.333 218.833,198.667 218.5,199C 221.306,202.21 223.973,205.543 226.5,209C 225.833,209.333 225.167,209.667 224.5,210C 225.253,211.487 226.086,211.654 227,210.5C 228.702,213.377 230.202,216.377 231.5,219.5C 234.174,220.499 234.841,222.166 233.5,224.5C 234.923,228.078 236.923,231.244 239.5,234C 239.355,234.772 239.022,235.439 238.5,236C 241.519,238.52 243.519,241.687 244.5,245.5C 244.023,246.478 243.357,247.311 242.5,248C 243.733,249.698 244.4,251.698 244.5,254C 244.726,256.671 244.059,259.004 242.5,261C 243.925,262.714 243.592,264.047 241.5,265C 242.956,265.423 243.456,266.256 243,267.5C 240.005,270.161 237.005,272.828 234,275.5C 232.463,274.965 230.963,274.632 229.5,274.5C 228.081,275.005 227.415,276.005 227.5,277.5C 225.286,269.641 223.12,261.641 221,253.5C 214.61,239.664 208.61,225.664 203,211.5C 195.375,198.865 185.875,187.698 174.5,178C 175.56,175.263 176.394,172.43 177,169.5C 182.728,163.847 187.062,164.847 190,172.5C 190.483,171.552 190.649,170.552 190.5,169.5 Z"/></g>
</svg>
