<?xml version="1.0" encoding="UTF-8"?>
<!DOCTYPE svg PUBLIC "-//W3C//DTD SVG 1.1//EN" "http://www.w3.org/Graphics/SVG/1.1/DTD/svg11.dtd">
<svg xmlns="http://www.w3.org/2000/svg" version="1.1" width="862px" height="862px" style="shape-rendering:geometricPrecision; text-rendering:geometricPrecision; image-rendering:optimizeQuality; fill-rule:evenodd; clip-rule:evenodd" xmlns:xlink="http://www.w3.org/1999/xlink">
<g><path style="opacity:0.995" fill="#0f0200" d="M 585.5,142.5 C 618.064,141.521 648.731,148.688 677.5,164C 686.447,169.947 695.114,176.28 703.5,183C 714.043,196.673 717.876,211.839 715,228.5C 713.465,233.604 711.632,238.604 709.5,243.5C 702.685,251.482 695.685,259.316 688.5,267C 694.886,266.122 701.386,265.622 708,265.5C 730.255,265.765 739.422,276.931 735.5,299C 732.443,310.782 726.776,321.115 718.5,330C 703.713,339.671 700.213,336.838 708,321.5C 708.533,312.097 705.7,303.93 699.5,297C 693.141,295.462 686.808,295.795 680.5,298C 669.05,303.483 657.05,307.15 644.5,309C 631.183,311.395 618.849,309.062 607.5,302C 599.758,295.533 598.258,288.033 603,279.5C 607.229,269.604 614.396,262.771 624.5,259C 636.122,256.679 647.122,252.679 657.5,247C 667.385,239.172 670.052,229.339 665.5,217.5C 660.121,218.006 654.787,218.839 649.5,220C 628.159,228.35 609.159,240.35 592.5,256C 588,260.5 583.5,265 579,269.5C 573.788,285.037 563.288,290.537 547.5,286C 525.22,283.693 504.886,276.359 486.5,264C 473.295,251.722 467.128,236.555 468,218.5C 469.427,213.878 471.427,209.545 474,205.5C 488.146,191.361 503.313,178.527 519.5,167C 529.711,161.728 540.044,156.728 550.5,152C 562.08,148.024 573.746,144.858 585.5,142.5 Z"/></g>
<g><path style="opacity:1" fill="#5d1100" d="M 672.5,210.5 C 669.287,210.81 666.287,210.477 663.5,209.5C 660.834,206.98 658.668,203.98 657,200.5C 655.31,195.214 653.81,189.88 652.5,184.5C 650.976,185.527 650.309,187.027 650.5,189C 651.19,194.403 652.69,199.57 655,204.5C 656.055,207.056 657.888,208.723 660.5,209.5C 643.718,212.355 626.718,215.355 609.5,218.5C 605.499,213.661 601.666,208.661 598,203.5C 595.223,197.454 593.39,191.121 592.5,184.5C 591.914,184.709 591.414,185.043 591,185.5C 590.174,190.589 590.508,195.589 592,200.5C 595.603,207.257 599.77,213.591 604.5,219.5C 590.203,224.148 577.203,231.148 565.5,240.5C 560.738,239.249 556.905,236.582 554,232.5C 549.273,226.103 544.94,219.436 541,212.5C 540.626,210.102 540.626,207.769 541,205.5C 539.989,204.663 538.822,204.33 537.5,204.5C 537.023,209.742 537.856,214.742 540,219.5C 544.246,224.991 548.246,230.658 552,236.5C 554.752,239.453 557.918,241.786 561.5,243.5C 553.678,249.923 546.011,256.59 538.5,263.5C 536.054,268.486 532.721,272.486 528.5,275.5C 511.724,272.529 497.224,265.196 485,253.5C 476.493,242.643 472.826,230.309 474,216.5C 478.709,208.785 484.542,201.951 491.5,196C 501.962,186.938 512.962,178.605 524.5,171C 539.404,162.712 555.071,156.379 571.5,152C 588.097,147.814 604.764,147.481 621.5,151C 652.099,156.383 678.599,169.55 701,190.5C 708.819,201.577 711.819,213.91 710,227.5C 705.468,222.633 700.634,218.133 695.5,214C 688.093,211.133 680.426,209.966 672.5,210.5 Z"/></g>
<g><path style="opacity:0.995" fill="#0f0200" d="M 174.5,164.5 C 224.809,164.566 263.976,185.233 292,226.5C 294.158,234.271 293.825,241.938 291,249.5C 286.623,263.427 279.789,275.927 270.5,287C 262.225,293.056 253.392,298.223 244,302.5C 236.894,304.964 229.728,305.13 222.5,303C 221.308,301.055 221.308,299.055 222.5,297C 218.747,289.407 215.58,281.573 213,273.5C 203.563,260.398 193.063,248.231 181.5,237C 167.625,227.703 152.625,220.703 136.5,216C 132.833,215.333 129.167,215.333 125.5,216C 122.528,217.141 120.861,219.308 120.5,222.5C 122.316,224.817 124.316,226.984 126.5,229C 134.833,232.667 143.167,236.333 151.5,240C 161.408,247.205 171.575,254.038 182,260.5C 188.153,269.822 187.986,278.989 181.5,288C 171.767,294.339 161.434,295.339 150.5,291C 143.153,288.657 135.819,286.323 128.5,284C 117.047,281.545 110.047,285.878 107.5,297C 108.614,304.497 110.614,311.663 113.5,318.5C 100.871,317.267 89.704,312.6 80,304.5C 77.9376,302.099 76.2709,299.433 75,296.5C 74.1041,288.754 74.4375,281.087 76,273.5C 80.018,265.44 85.8514,259.107 93.5,254.5C 80.7205,242.664 77.5539,228.664 84,212.5C 93.8725,199.627 105.373,188.46 118.5,179C 136.158,169.753 154.825,164.92 174.5,164.5 Z"/></g>
<g><path style="opacity:1" fill="#5d1100" d="M 280.5,260.5 C 270.741,263.606 260.741,265.106 250.5,265C 245.566,260.574 241.233,255.74 237.5,250.5C 241.461,244.244 244.627,237.577 247,230.5C 247.5,223.508 247.666,216.508 247.5,209.5C 245.876,209.36 244.71,210.027 244,211.5C 245.234,224.956 241.734,236.956 233.5,247.5C 227.279,242.464 220.612,237.964 213.5,234C 205.124,230.403 197.458,225.903 190.5,220.5C 192.154,212.059 193.488,203.559 194.5,195C 194.333,193.167 194.167,191.333 194,189.5C 192.667,188.167 191.333,188.167 190,189.5C 190.117,199.792 188.617,209.792 185.5,219.5C 173.915,215.372 162.582,210.705 151.5,205.5C 151.665,202.482 151.498,199.482 151,196.5C 149.959,194.689 148.793,194.355 147.5,195.5C 146.681,198.305 146.181,201.305 146,204.5C 132.578,199.985 118.745,197.985 104.5,198.5C 110.013,192.824 116.013,187.658 122.5,183C 149.074,170.387 176.741,167.387 205.5,174C 227.92,177.712 247.587,187.045 264.5,202C 272.039,209.87 279.206,218.037 286,226.5C 287.555,231.382 287.888,236.382 287,241.5C 284.933,247.867 282.766,254.201 280.5,260.5 Z"/></g>
<g><path style="opacity:1" fill="#0a0100" d="M 663.5,209.5 C 662.5,209.5 661.5,209.5 660.5,209.5C 657.888,208.723 656.055,207.056 655,204.5C 652.69,199.57 651.19,194.403 650.5,189C 650.309,187.027 650.976,185.527 652.5,184.5C 653.81,189.88 655.31,195.214 657,200.5C 658.668,203.98 660.834,206.98 663.5,209.5 Z"/></g>
<g><path style="opacity:1" fill="#490400" d="M 147.5,195.5 C 147.791,201.303 147.125,206.97 145.5,212.5C 140.205,211.237 134.872,210.07 129.5,209C 117.446,208.397 105.446,208.397 93.5,209C 96.3773,204.622 100.044,201.122 104.5,198.5C 118.745,197.985 132.578,199.985 146,204.5C 146.181,201.305 146.681,198.305 147.5,195.5 Z"/></g>
<g><path style="opacity:1" fill="#090100" d="M 565.5,240.5 C 569.65,242.737 573.984,244.903 578.5,247C 580.559,248.185 580.726,249.352 579,250.5C 573.018,248.453 567.185,246.119 561.5,243.5C 557.918,241.786 554.752,239.453 552,236.5C 548.246,230.658 544.246,224.991 540,219.5C 537.856,214.742 537.023,209.742 537.5,204.5C 538.822,204.33 539.989,204.663 541,205.5C 540.626,207.769 540.626,210.102 541,212.5C 544.94,219.436 549.273,226.103 554,232.5C 556.905,236.582 560.738,239.249 565.5,240.5 Z"/></g>
<g><path style="opacity:1" fill="#490500" d="M 151.5,205.5 C 162.582,210.705 173.915,215.372 185.5,219.5C 185.047,225.124 182.047,227.624 176.5,227C 168.001,221.777 159.001,217.61 149.5,214.5C 149.167,214.167 148.833,213.833 148.5,213.5C 149.516,210.718 150.516,208.051 151.5,205.5 Z"/></g>
<g><path style="opacity:1" fill="#490600" d="M 660.5,209.5 C 661.5,209.5 662.5,209.5 663.5,209.5C 666.287,210.477 669.287,210.81 672.5,210.5C 654.216,211.928 637.216,217.595 621.5,227.5C 616.892,225.213 612.892,222.213 609.5,218.5C 626.718,215.355 643.718,212.355 660.5,209.5 Z"/></g>
<g><path style="opacity:1" fill="#490400" d="M 117.5,251.5 C 118.239,251.631 118.906,251.464 119.5,251C 115.12,246.952 110.454,243.285 105.5,240C 97.7488,232.652 95.4155,223.819 98.5,213.5C 105.443,212.206 112.443,212.206 119.5,213.5C 113.927,219.777 114.26,225.61 120.5,231C 129.739,236.452 139.405,241.119 149.5,245C 154.738,249.203 160.238,253.036 166,256.5C 167.033,259.217 166.2,261.051 163.5,262C 159.5,262.667 155.5,262.667 151.5,262C 140.336,257.554 129.003,254.054 117.5,251.5 Z"/></g>
<g><path style="opacity:1" fill="#5b1000" d="M 98.5,213.5 C 95.4155,223.819 97.7488,232.652 105.5,240C 110.454,243.285 115.12,246.952 119.5,251C 118.906,251.464 118.239,251.631 117.5,251.5C 111.771,251.212 106.104,251.546 100.5,252.5C 86.9384,243.088 82.9384,230.755 88.5,215.5C 91.757,214.449 95.0903,213.782 98.5,213.5 Z"/></g>
<g><path style="opacity:1" fill="#490400" d="M 695.5,221.5 C 695.887,226.08 695.053,230.414 693,234.5C 689.667,239.833 686.333,245.167 683,250.5C 673.558,259.121 663.725,267.121 653.5,274.5C 646.878,277.284 640.211,277.117 633.5,274C 630.277,270.888 629.777,267.388 632,263.5C 643.993,260.67 654.993,255.67 665,248.5C 672.653,239.202 674.487,228.868 670.5,217.5C 676.845,216.389 683.178,216.555 689.5,218C 691.727,218.941 693.727,220.108 695.5,221.5 Z"/></g>
<g><path style="opacity:1" fill="#490400" d="M 604.5,219.5 C 607.944,223.061 611.944,225.894 616.5,228C 617.451,228.718 617.617,229.551 617,230.5C 602.887,240.075 589.887,251.075 578,263.5C 574.501,267.672 571.834,272.338 570,277.5C 568.5,279 567,280.5 565.5,282C 552.87,281.118 540.537,278.951 528.5,275.5C 532.721,272.486 536.054,268.486 538.5,263.5C 546.011,256.59 553.678,249.923 561.5,243.5C 567.185,246.119 573.018,248.453 579,250.5C 580.726,249.352 580.559,248.185 578.5,247C 573.984,244.903 569.65,242.737 565.5,240.5C 577.203,231.148 590.203,224.148 604.5,219.5 Z"/></g>
<g><path style="opacity:1" fill="#490400" d="M 190.5,220.5 C 197.458,225.903 205.124,230.403 213.5,234C 220.612,237.964 227.279,242.464 233.5,247.5C 229.227,257.713 221.727,262.046 211,260.5C 203.413,249.577 194.413,239.91 184,231.5C 183.333,230.833 183.333,230.167 184,229.5C 186.678,226.786 188.845,223.786 190.5,220.5 Z"/></g>
<g><path style="opacity:1" fill="#5c1000" d="M 695.5,221.5 C 698.771,224.268 701.938,227.268 705,230.5C 706.242,235.694 705.242,240.36 702,244.5C 695.538,253.296 688.038,261.129 679.5,268C 671.005,270.866 662.338,273.032 653.5,274.5C 663.725,267.121 673.558,259.121 683,250.5C 686.333,245.167 689.667,239.833 693,234.5C 695.053,230.414 695.887,226.08 695.5,221.5 Z"/></g>
<g><path style="opacity:1" fill="#490400" d="M 237.5,250.5 C 241.233,255.74 245.566,260.574 250.5,265C 260.741,265.106 270.741,263.606 280.5,260.5C 277.146,269.373 272.146,277.207 265.5,284C 258.833,288 252.167,292 245.5,296C 240.09,298.382 234.424,299.549 228.5,299.5C 228.322,296.784 227.822,294.117 227,291.5C 223.518,285.533 220.851,279.199 219,272.5C 217.224,269.059 215.057,265.892 212.5,263C 214.746,263.428 217.079,263.928 219.5,264.5C 221.577,264.308 223.577,263.808 225.5,263C 230.405,259.597 234.405,255.43 237.5,250.5 Z"/></g>
<g><path style="opacity:1" fill="#5c1100" d="M 179.5,268.5 C 179.489,270.017 178.823,271.184 177.5,272C 173.781,273.859 170.114,275.693 166.5,277.5C 156.592,275.024 146.592,272.857 136.5,271C 119.522,267.542 106.022,272.708 96,286.5C 95.3333,288.5 94.6667,290.5 94,292.5C 93.8959,297.267 93.7293,301.934 93.5,306.5C 80.0563,300.938 75.8896,291.271 81,277.5C 83.3581,281.358 86.5248,284.358 90.5,286.5C 91.5827,285.635 91.7494,284.635 91,283.5C 86.2568,280.341 83.9235,276.008 84,270.5C 87.8837,264.641 93.0504,260.308 99.5,257.5C 100.333,260.5 101.167,263.5 102,266.5C 103.94,269.402 106.44,270.402 109.5,269.5C 105.328,266.152 103.661,261.819 104.5,256.5C 120.16,257.132 135.16,260.632 149.5,267C 158.355,268.992 166.189,267.159 173,261.5C 176.4,262.732 178.567,265.065 179.5,268.5 Z"/></g>
<g><path style="opacity:1" fill="#5c1100" d="M 680.5,284.5 C 669.936,285.448 659.603,287.614 649.5,291C 638.485,291.832 627.485,291.666 616.5,290.5C 613.719,287.48 611.052,284.48 608.5,281.5C 611.821,273.346 617.655,267.68 626,264.5C 625.725,271.785 628.892,276.952 635.5,280C 640.799,281.145 646.132,281.478 651.5,281C 662.44,278.4 673.44,276.233 684.5,274.5C 683.724,278.052 682.391,281.386 680.5,284.5 Z"/></g>
<g><path style="opacity:1" fill="#490500" d="M 179.5,268.5 C 182.568,274.585 181.568,280.085 176.5,285C 168.662,287.967 160.662,288.3 152.5,286C 146.618,284.595 140.951,282.595 135.5,280C 124.344,275.219 114.511,277.052 106,285.5C 101.459,294.04 101.625,302.54 106.5,311C 101.714,310.794 97.381,309.294 93.5,306.5C 93.7293,301.934 93.8959,297.267 94,292.5C 94.6667,290.5 95.3333,288.5 96,286.5C 106.022,272.708 119.522,267.542 136.5,271C 146.592,272.857 156.592,275.024 166.5,277.5C 170.114,275.693 173.781,273.859 177.5,272C 178.823,271.184 179.489,270.017 179.5,268.5 Z"/></g>
<g><path style="opacity:1" fill="#5c1100" d="M 717.5,322.5 C 716.535,321.279 716.702,319.946 718,318.5C 720.615,304.06 715.449,293.56 702.5,287C 696.746,285.602 691.079,284.435 685.5,283.5C 687.023,280.37 687.689,277.037 687.5,273.5C 697.414,271.623 707.414,271.123 717.5,272C 721.046,273.267 724.046,275.267 726.5,278C 725.591,279.789 725.424,281.623 726,283.5C 728.071,280.584 729.405,280.918 730,284.5C 730.923,298.896 726.757,311.562 717.5,322.5 Z"/></g>
<g><path style="opacity:1" fill="#490500" d="M 608.5,281.5 C 611.052,284.48 613.719,287.48 616.5,290.5C 627.485,291.666 638.485,291.832 649.5,291C 659.603,287.614 669.936,285.448 680.5,284.5C 680.735,285.097 681.235,285.43 682,285.5C 683.303,285.022 684.469,284.355 685.5,283.5C 691.079,284.435 696.746,285.602 702.5,287C 715.449,293.56 720.615,304.06 718,318.5C 716.702,319.946 716.535,321.279 717.5,322.5C 715.839,325.218 713.839,326.884 711.5,327.5C 714.585,317.069 713.419,307.069 708,297.5C 706.833,295 705,293.167 702.5,292C 696.903,290.544 691.237,290.211 685.5,291C 673.526,294.648 661.526,298.315 649.5,302C 640.875,303.419 632.208,303.752 623.5,303C 617.002,301.503 611.502,298.337 607,293.5C 604.936,289.116 605.436,285.116 608.5,281.5 Z"/></g>
</svg>
