<?xml version="1.0" encoding="UTF-8"?>
<!DOCTYPE svg PUBLIC "-//W3C//DTD SVG 1.1//EN" "http://www.w3.org/Graphics/SVG/1.1/DTD/svg11.dtd">
<svg xmlns="http://www.w3.org/2000/svg" version="1.1" width="862px" height="862px" style="shape-rendering:geometricPrecision; text-rendering:geometricPrecision; image-rendering:optimizeQuality; fill-rule:evenodd; clip-rule:evenodd" xmlns:xlink="http://www.w3.org/1999/xlink">
<g><path style="opacity:0.994" fill="#07070a" d="M 614.5,157.5 C 614.34,155.847 613.674,154.514 612.5,153.5C 612.5,154.5 612.5,155.5 612.5,156.5C 609.072,156.547 606.072,157.713 603.5,160C 588.1,175.301 578.933,193.801 576,215.5C 575.099,235.825 574.433,256.159 574,276.5C 558.53,280.267 542.697,283.267 526.5,285.5C 504.327,281.329 485.494,270.996 470,254.5C 471.165,217.843 480.165,183.176 497,150.5C 511.833,126.333 531.333,106.833 555.5,92C 567.772,85.3257 580.772,82.4924 594.5,83.5C 605.911,85.6861 617.244,88.5194 628.5,92C 652.948,101.96 673.448,117.126 690,137.5C 704.876,159.136 711.876,183.136 711,209.5C 701.117,232.022 684.284,239.856 660.5,233C 649.358,228.015 639.525,221.182 631,212.5C 628.746,208.993 626.746,205.327 625,201.5C 623.375,186.337 619.875,171.67 614.5,157.5 Z"/></g>
<g><path style="opacity:1" fill="#333340" d="M 599.5,127.5 C 597.782,128.224 595.948,128.891 594,129.5C 593.586,129.043 593.086,128.709 592.5,128.5C 590.267,128.864 588.434,129.864 587,131.5C 586.667,131.167 586.333,130.833 586,130.5C 583.294,132.638 580.46,134.638 577.5,136.5C 571.871,142.529 566.037,148.196 560,153.5C 553.76,162.099 548.76,171.432 545,181.5C 543.786,183.049 542.286,184.215 540.5,185C 540.833,185.333 541.167,185.667 541.5,186C 536.035,197.545 532.368,209.378 530.5,221.5C 531.068,224.983 531.068,228.317 530.5,231.5C 531.431,236.804 533.097,241.804 535.5,246.5C 538.805,247.972 541.305,250.305 543,253.5C 543.333,253.167 543.667,252.833 544,252.5C 545.668,256.165 548.501,258.332 552.5,259C 557.049,258.417 561.549,258.584 566,259.5C 566.667,258.167 567.333,256.833 568,255.5C 568.499,259.821 568.666,264.154 568.5,268.5C 567.842,269.398 567.176,270.398 566.5,271.5C 551.532,276.096 536.199,278.263 520.5,278C 515.833,276.667 511.167,275.333 506.5,274C 500.998,270.415 495.331,267.081 489.5,264C 484.167,260 478.833,256 473.5,252C 476.31,218.295 485.476,186.129 501,155.5C 510.985,140.174 522.485,126.007 535.5,113C 548.974,101.597 564.307,93.9299 581.5,90C 598.419,89.6444 614.752,92.6444 630.5,99C 647.982,107.486 663.816,118.319 678,131.5C 696.612,152.999 705.945,177.999 706,206.5C 698.457,225.582 684.624,232.749 664.5,228C 654.741,223.041 645.574,217.207 637,210.5C 634.417,207.003 632.084,203.336 630,199.5C 628.644,188.737 626.644,178.07 624,167.5C 618.476,152.915 611.81,138.915 604,125.5C 600.483,120.915 595.983,118.749 590.5,119C 587.537,121.271 586.87,124.104 588.5,127.5C 589.556,125.354 591.056,123.688 593,122.5C 595.317,123.985 597.484,125.652 599.5,127.5 Z"/></g>
<g><path style="opacity:0.992" fill="#07070a" d="M 163.5,95.5 C 174.943,95.0349 186.276,95.8682 197.5,98C 206.481,102.314 212.648,109.147 216,118.5C 229.057,133.622 241.39,149.288 253,165.5C 265.57,190.976 278.903,215.976 293,240.5C 293.667,245.5 293.667,250.5 293,255.5C 290.064,261.222 287.731,267.222 286,273.5C 279.349,283.819 270.516,291.652 259.5,297C 250.619,299.831 241.619,300.165 232.5,298C 229.993,297.907 227.826,297.074 226,295.5C 225.647,294.328 225.813,293.162 226.5,292C 222.493,281.47 219.659,270.637 218,259.5C 212.471,246.581 207.138,233.581 202,220.5C 195.527,207.228 186.86,195.562 176,185.5C 176.125,192.254 177.125,198.921 179,205.5C 181.447,214.866 184.28,224.033 187.5,233C 187.344,237.136 186.177,240.969 184,244.5C 179.5,249 175,253.5 170.5,258C 152.753,266.41 135.086,266.41 117.5,258C 100.412,242.239 93.745,222.739 97.5,199.5C 97.6667,194.5 97.8333,189.5 98,184.5C 100.239,173.19 102.239,161.856 104,150.5C 109.333,141.167 114.667,131.833 120,122.5C 125.727,112.775 133.894,105.941 144.5,102C 150.979,99.8968 157.313,97.7301 163.5,95.5 Z"/></g>
<g><path style="opacity:1" fill="#333340" d="M 227.5,277.5 C 229.732,275.805 232.399,274.638 235.5,274C 238.363,270.876 241.363,267.876 244.5,265C 244.378,260.272 244.378,255.272 244.5,250C 243.125,246.805 242.125,243.472 241.5,240C 237.469,232.197 233.802,224.364 230.5,216.5C 229.448,216.649 228.448,216.483 227.5,216C 227.833,215.667 228.167,215.333 228.5,215C 226.23,212.193 225.23,209.193 225.5,206C 223.697,205.363 222.364,204.197 221.5,202.5C 218.657,194.74 213.657,188.907 206.5,185C 206.833,184.667 207.167,184.333 207.5,184C 201.925,181.054 196.592,177.887 191.5,174.5C 191.784,172.585 191.451,170.919 190.5,169.5C 186.027,159.949 180.527,159.282 174,167.5C 170.752,175.192 169.752,183.192 171,191.5C 173.142,205.081 176.975,218.081 182.5,230.5C 181.973,233.581 181.14,236.581 180,239.5C 175.167,244.333 170.333,249.167 165.5,254C 151.051,259.659 136.718,259.659 122.5,254C 114.104,247.724 108.271,239.558 105,229.5C 103.734,218.052 102.9,206.552 102.5,195C 104.589,181.884 106.422,168.717 108,155.5C 113.894,143.377 120.561,131.71 128,120.5C 137.164,110.832 148.331,104.665 161.5,102C 171.5,101.333 181.5,101.333 191.5,102C 195.719,103.109 199.719,104.775 203.5,107C 206.664,112.482 209.831,117.982 213,123.5C 224,137.5 235,151.5 246,165.5C 259.475,192.451 273.475,219.118 288,245.5C 288.667,248.167 288.667,250.833 288,253.5C 285.163,258.172 283.163,263.172 282,268.5C 278.547,273.621 274.714,278.454 270.5,283C 259.266,292.561 246.266,296.061 231.5,293.5C 230.373,288.118 229.039,282.784 227.5,277.5 Z"/></g>
<g><path style="opacity:1" fill="#242536" d="M 599.5,127.5 C 605.706,135.043 610.039,143.709 612.5,153.5C 608.142,152.156 604.142,152.989 600.5,156C 583.255,172.016 573.422,191.849 571,215.5C 570.268,233.331 569.435,250.998 568.5,268.5C 568.666,264.154 568.499,259.821 568,255.5C 567.333,256.833 566.667,258.167 566,259.5C 561.549,258.584 557.049,258.417 552.5,259C 548.501,258.332 545.668,256.165 544,252.5C 543.667,252.833 543.333,253.167 543,253.5C 541.305,250.305 538.805,247.972 535.5,246.5C 533.097,241.804 531.431,236.804 530.5,231.5C 531.068,228.317 531.068,224.983 530.5,221.5C 532.368,209.378 536.035,197.545 541.5,186C 541.167,185.667 540.833,185.333 540.5,185C 542.286,184.215 543.786,183.049 545,181.5C 548.76,171.432 553.76,162.099 560,153.5C 566.037,148.196 571.871,142.529 577.5,136.5C 580.46,134.638 583.294,132.638 586,130.5C 586.333,130.833 586.667,131.167 587,131.5C 588.434,129.864 590.267,128.864 592.5,128.5C 593.086,128.709 593.586,129.043 594,129.5C 595.948,128.891 597.782,128.224 599.5,127.5 Z"/></g>
<g><path style="opacity:1" fill="#23232c" d="M 612.5,153.5 C 613.674,154.514 614.34,155.847 614.5,157.5C 613.833,157.167 613.167,156.833 612.5,156.5C 612.5,155.5 612.5,154.5 612.5,153.5 Z"/></g>
<g><path style="opacity:1" fill="#30303f" d="M 188.5,169.5 C 188.631,170.376 188.298,171.043 187.5,171.5C 185.021,169.924 182.354,168.924 179.5,168.5C 180.145,167.188 181.145,166.188 182.5,165.5C 184.911,166.361 186.911,167.694 188.5,169.5 Z"/></g>
<g><path style="opacity:1" fill="#242536" d="M 179.5,168.5 C 182.354,168.924 185.021,169.924 187.5,171.5C 188.298,171.043 188.631,170.376 188.5,169.5C 189.268,170.263 189.768,171.263 190,172.5C 190.483,171.552 190.649,170.552 190.5,169.5C 191.451,170.919 191.784,172.585 191.5,174.5C 196.592,177.887 201.925,181.054 207.5,184C 207.167,184.333 206.833,184.667 206.5,185C 213.657,188.907 218.657,194.74 221.5,202.5C 222.364,204.197 223.697,205.363 225.5,206C 225.23,209.193 226.23,212.193 228.5,215C 228.167,215.333 227.833,215.667 227.5,216C 228.448,216.483 229.448,216.649 230.5,216.5C 233.802,224.364 237.469,232.197 241.5,240C 242.125,243.472 243.125,246.805 244.5,250C 244.378,255.272 244.378,260.272 244.5,265C 241.363,267.876 238.363,270.876 235.5,274C 232.399,274.638 229.732,275.805 227.5,277.5C 225.183,268.578 222.683,259.578 220,250.5C 213.944,237.665 208.278,224.665 203,211.5C 195.375,198.865 185.875,187.698 174.5,178C 175.56,175.263 176.394,172.43 177,169.5C 177.671,168.748 178.504,168.414 179.5,168.5 Z"/></g>
</svg>
