<?xml version="1.0" encoding="UTF-8"?>
<!DOCTYPE svg PUBLIC "-//W3C//DTD SVG 1.1//EN" "http://www.w3.org/Graphics/SVG/1.1/DTD/svg11.dtd">
<svg xmlns="http://www.w3.org/2000/svg" version="1.1" width="862px" height="862px" style="shape-rendering:geometricPrecision; text-rendering:geometricPrecision; image-rendering:optimizeQuality; fill-rule:evenodd; clip-rule:evenodd" xmlns:xlink="http://www.w3.org/1999/xlink">
<g><path style="opacity:0.994" fill="#030d0d" d="M 614.5,157.5 C 614.34,155.847 613.674,154.514 612.5,153.5C 612.5,154.5 612.5,155.5 612.5,156.5C 609.072,156.547 606.072,157.713 603.5,160C 588.1,175.301 578.933,193.801 576,215.5C 575.099,235.825 574.433,256.159 574,276.5C 558.53,280.267 542.697,283.267 526.5,285.5C 504.327,281.329 485.494,270.996 470,254.5C 471.165,217.843 480.165,183.176 497,150.5C 511.833,126.333 531.333,106.833 555.5,92C 567.772,85.3257 580.772,82.4924 594.5,83.5C 605.911,85.6861 617.244,88.5194 628.5,92C 652.948,101.96 673.448,117.126 690,137.5C 704.876,159.136 711.876,183.136 711,209.5C 701.117,232.022 684.284,239.856 660.5,233C 649.358,228.015 639.525,221.182 631,212.5C 628.746,208.993 626.746,205.327 625,201.5C 623.375,186.337 619.875,171.67 614.5,157.5 Z"/></g>
<g><path style="opacity:1" fill="#005a5d" d="M 599.5,127.5 C 597.316,128.266 594.982,128.933 592.5,129.5C 591.483,126.972 590.316,126.972 589,129.5C 588.667,129.167 588.333,128.833 588,128.5C 587.385,130.116 586.385,131.449 585,132.5C 584.667,131.833 584.333,131.167 584,130.5C 583.228,131.849 582.061,132.682 580.5,133C 582.301,133.317 582.634,133.984 581.5,135C 580.216,135.684 579.049,135.517 578,134.5C 577.017,136.448 575.85,138.282 574.5,140C 571.368,142.899 568.202,145.066 565,146.5C 564.942,149.559 563.609,151.892 561,153.5C 560.667,153.167 560.333,152.833 560,152.5C 558.191,157.439 555.357,161.772 551.5,165.5C 549.629,170.074 547.629,174.574 545.5,179C 545.833,179.333 546.167,179.667 546.5,180C 544.839,182.628 542.672,185.461 540,188.5C 538.495,194.641 535.995,200.641 532.5,206.5C 534.658,208.026 534.325,209.526 531.5,211C 532.517,212.049 532.684,213.216 532,214.5C 531.346,213.304 530.846,213.304 530.5,214.5C 530.977,215.478 531.643,216.311 532.5,217C 529.978,221.429 529.978,225.762 532.5,230C 531.833,230.333 531.167,230.667 530.5,231C 531.098,233.792 532.098,236.458 533.5,239C 532.293,240.3 531.626,241.8 531.5,243.5C 532.552,243.351 533.552,243.517 534.5,244C 535.167,246 536.5,247.333 538.5,248C 538.043,248.414 537.709,248.914 537.5,249.5C 540.077,249.66 541.91,251.327 543,254.5C 545.165,255.583 547.165,256.916 549,258.5C 551.997,258.423 554.997,258.09 558,257.5C 558.667,258.167 559.333,258.833 560,259.5C 562.237,258.944 564.237,257.944 566,256.5C 566.414,256.957 566.914,257.291 567.5,257.5C 568.489,261.107 568.823,264.774 568.5,268.5C 567.842,269.398 567.176,270.398 566.5,271.5C 551.522,276.102 536.188,278.268 520.5,278C 515.677,277.17 511.011,275.836 506.5,274C 500.998,270.415 495.331,267.081 489.5,264C 484.167,260 478.833,256 473.5,252C 476.342,217.501 485.842,184.668 502,153.5C 514.078,134.19 529.245,117.69 547.5,104C 555.828,98.3362 564.828,94.0029 574.5,91C 593.059,88.7587 611.059,91.092 628.5,98C 646.643,106.815 663.143,117.982 678,131.5C 684.78,139.616 690.78,148.282 696,157.5C 699.583,166.661 702.583,175.995 705,185.5C 710.269,201.208 706.435,214.041 693.5,224C 684.467,229.544 674.8,230.877 664.5,228C 653.922,223.408 644.422,217.242 636,209.5C 634,206.167 632,202.833 630,199.5C 628.603,186.577 625.936,173.91 622,161.5C 616.923,150.347 611.59,139.347 606,128.5C 603.119,123.442 598.953,120.109 593.5,118.5C 588.002,119.338 586.335,122.338 588.5,127.5C 589.138,125.03 590.638,123.363 593,122.5C 595.341,124.016 597.508,125.683 599.5,127.5 Z"/></g>
<g><path style="opacity:0.992" fill="#030d0d" d="M 163.5,95.5 C 174.943,95.0349 186.276,95.8682 197.5,98C 206.481,102.314 212.648,109.147 216,118.5C 229.057,133.622 241.39,149.288 253,165.5C 265.57,190.976 278.903,215.976 293,240.5C 293.667,245.5 293.667,250.5 293,255.5C 290.064,261.222 287.731,267.222 286,273.5C 279.349,283.819 270.516,291.652 259.5,297C 250.619,299.831 241.619,300.165 232.5,298C 229.993,297.907 227.826,297.074 226,295.5C 225.647,294.328 225.813,293.162 226.5,292C 222.493,281.47 219.659,270.637 218,259.5C 212.471,246.581 207.138,233.581 202,220.5C 195.527,207.228 186.86,195.562 176,185.5C 176.125,192.254 177.125,198.921 179,205.5C 181.447,214.866 184.28,224.033 187.5,233C 187.344,237.136 186.177,240.969 184,244.5C 179.5,249 175,253.5 170.5,258C 152.753,266.41 135.086,266.41 117.5,258C 100.412,242.239 93.745,222.739 97.5,199.5C 97.6667,194.5 97.8333,189.5 98,184.5C 100.239,173.19 102.239,161.856 104,150.5C 109.333,141.167 114.667,131.833 120,122.5C 125.727,112.775 133.894,105.941 144.5,102C 150.979,99.8968 157.313,97.7301 163.5,95.5 Z"/></g>
<g><path style="opacity:1" fill="#005a5d" d="M 227.5,278.5 C 227.33,277.178 227.663,276.011 228.5,275C 230.347,275.141 232.18,275.308 234,275.5C 236.019,273.812 237.686,271.812 239,269.5C 239.333,270.167 239.667,270.833 240,271.5C 240.653,269.436 241.82,267.769 243.5,266.5C 242.975,265.808 242.308,265.308 241.5,265C 243.592,264.047 243.925,262.714 242.5,261C 243.448,260.517 244.448,260.351 245.5,260.5C 245.5,256.5 245.5,252.5 245.5,248.5C 241.901,248.738 241.567,247.738 244.5,245.5C 243.519,241.687 241.519,238.52 238.5,236C 239.517,234.951 239.684,233.784 239,232.5C 235.356,229.558 233.689,225.892 234,221.5C 232.414,220.624 230.914,219.624 229.5,218.5C 229.833,217.833 230.167,217.167 230.5,216.5C 228.703,214.869 227.536,212.869 227,210.5C 226.086,211.654 225.253,211.487 224.5,210C 225.167,209.667 225.833,209.333 226.5,209C 223.973,205.543 221.306,202.21 218.5,199C 220.569,198.676 220.902,197.842 219.5,196.5C 217.841,195.183 216.674,193.517 216,191.5C 214.927,192.28 213.76,192.113 212.5,191C 214.878,190.026 214.544,189.359 211.5,189C 209.644,186.49 207.477,184.324 205,182.5C 204.667,182.833 204.333,183.167 204,183.5C 203.03,180.179 200.863,178.513 197.5,178.5C 197.649,177.448 197.483,176.448 197,175.5C 196.282,176.451 195.449,176.617 194.5,176C 192.75,173.982 191.416,171.815 190.5,169.5C 188.495,163.663 184.495,161.496 178.5,163C 174.316,166.54 171.816,171.04 171,176.5C 170.581,190.498 172.581,204.165 177,217.5C 178.863,221.884 180.696,226.217 182.5,230.5C 182.132,233.638 181.299,236.638 180,239.5C 175.167,244.333 170.333,249.167 165.5,254C 151.897,259.406 138.23,259.739 124.5,255C 114.416,248.364 107.583,239.197 104,227.5C 103,213.508 102.667,199.508 103,185.5C 105.388,175.281 107.055,164.948 108,154.5C 114.162,142.838 120.829,131.504 128,120.5C 137.857,109.866 150.023,103.366 164.5,101C 174.203,100.256 183.87,100.589 193.5,102C 196.833,103.667 200.167,105.333 203.5,107C 206.779,112.386 209.946,117.886 213,123.5C 224.381,137.213 235.381,151.213 246,165.5C 260.155,193.284 274.655,220.784 289.5,248C 286.583,255.005 284.083,262.172 282,269.5C 278.167,274 274.333,278.5 270.5,283C 259.242,292.318 246.242,295.818 231.5,293.5C 230.167,288.501 228.834,283.501 227.5,278.5 Z"/></g>
<g><path style="opacity:1" fill="#004944" d="M 599.5,127.5 C 605.912,134.991 610.246,143.657 612.5,153.5C 609.456,152.171 606.456,152.337 603.5,154C 584.006,169.735 573.173,190.235 571,215.5C 570.567,233.344 569.734,251.011 568.5,268.5C 568.823,264.774 568.489,261.107 567.5,257.5C 566.914,257.291 566.414,256.957 566,256.5C 564.237,257.944 562.237,258.944 560,259.5C 559.333,258.833 558.667,258.167 558,257.5C 554.997,258.09 551.997,258.423 549,258.5C 547.165,256.916 545.165,255.583 543,254.5C 541.91,251.327 540.077,249.66 537.5,249.5C 537.709,248.914 538.043,248.414 538.5,248C 536.5,247.333 535.167,246 534.5,244C 533.552,243.517 532.552,243.351 531.5,243.5C 531.626,241.8 532.293,240.3 533.5,239C 532.098,236.458 531.098,233.792 530.5,231C 531.167,230.667 531.833,230.333 532.5,230C 529.978,225.762 529.978,221.429 532.5,217C 531.643,216.311 530.977,215.478 530.5,214.5C 530.846,213.304 531.346,213.304 532,214.5C 532.684,213.216 532.517,212.049 531.5,211C 534.325,209.526 534.658,208.026 532.5,206.5C 535.995,200.641 538.495,194.641 540,188.5C 542.672,185.461 544.839,182.628 546.5,180C 546.167,179.667 545.833,179.333 545.5,179C 547.629,174.574 549.629,170.074 551.5,165.5C 555.357,161.772 558.191,157.439 560,152.5C 560.333,152.833 560.667,153.167 561,153.5C 563.609,151.892 564.942,149.559 565,146.5C 568.202,145.066 571.368,142.899 574.5,140C 575.85,138.282 577.017,136.448 578,134.5C 579.049,135.517 580.216,135.684 581.5,135C 582.634,133.984 582.301,133.317 580.5,133C 582.061,132.682 583.228,131.849 584,130.5C 584.333,131.167 584.667,131.833 585,132.5C 586.385,131.449 587.385,130.116 588,128.5C 588.333,128.833 588.667,129.167 589,129.5C 590.316,126.972 591.483,126.972 592.5,129.5C 594.982,128.933 597.316,128.266 599.5,127.5 Z"/></g>
<g><path style="opacity:1" fill="#003d3f" d="M 612.5,153.5 C 613.674,154.514 614.34,155.847 614.5,157.5C 613.833,157.167 613.167,156.833 612.5,156.5C 612.5,155.5 612.5,154.5 612.5,153.5 Z"/></g>
<g><path style="opacity:1" fill="#004a44" d="M 190.5,169.5 C 191.416,171.815 192.75,173.982 194.5,176C 195.449,176.617 196.282,176.451 197,175.5C 197.483,176.448 197.649,177.448 197.5,178.5C 200.863,178.513 203.03,180.179 204,183.5C 204.333,183.167 204.667,182.833 205,182.5C 207.477,184.324 209.644,186.49 211.5,189C 214.544,189.359 214.878,190.026 212.5,191C 213.76,192.113 214.927,192.28 216,191.5C 216.674,193.517 217.841,195.183 219.5,196.5C 220.902,197.842 220.569,198.676 218.5,199C 221.306,202.21 223.973,205.543 226.5,209C 225.833,209.333 225.167,209.667 224.5,210C 225.253,211.487 226.086,211.654 227,210.5C 227.536,212.869 228.703,214.869 230.5,216.5C 230.167,217.167 229.833,217.833 229.5,218.5C 230.914,219.624 232.414,220.624 234,221.5C 233.689,225.892 235.356,229.558 239,232.5C 239.684,233.784 239.517,234.951 238.5,236C 241.519,238.52 243.519,241.687 244.5,245.5C 241.567,247.738 241.901,248.738 245.5,248.5C 245.5,252.5 245.5,256.5 245.5,260.5C 244.448,260.351 243.448,260.517 242.5,261C 243.925,262.714 243.592,264.047 241.5,265C 242.308,265.308 242.975,265.808 243.5,266.5C 241.82,267.769 240.653,269.436 240,271.5C 239.667,270.833 239.333,270.167 239,269.5C 237.686,271.812 236.019,273.812 234,275.5C 232.18,275.308 230.347,275.141 228.5,275C 227.663,276.011 227.33,277.178 227.5,278.5C 225.414,270.276 223.248,261.942 221,253.5C 214.61,239.664 208.61,225.664 203,211.5C 195.375,198.865 185.875,187.698 174.5,178C 175.56,175.263 176.394,172.43 177,169.5C 182.728,163.847 187.062,164.847 190,172.5C 190.483,171.552 190.649,170.552 190.5,169.5 Z"/></g>
</svg>
