<?xml version="1.0" encoding="UTF-8"?>
<!DOCTYPE svg PUBLIC "-//W3C//DTD SVG 1.1//EN" "http://www.w3.org/Graphics/SVG/1.1/DTD/svg11.dtd">
<svg xmlns="http://www.w3.org/2000/svg" version="1.1" width="862px" height="862px" style="shape-rendering:geometricPrecision; text-rendering:geometricPrecision; image-rendering:optimizeQuality; fill-rule:evenodd; clip-rule:evenodd" xmlns:xlink="http://www.w3.org/1999/xlink">
<g><path style="opacity:0.994" fill="#100200" d="M 614.5,157.5 C 614.34,155.847 613.674,154.514 612.5,153.5C 612.5,154.5 612.5,155.5 612.5,156.5C 609.072,156.547 606.072,157.713 603.5,160C 588.1,175.301 578.933,193.801 576,215.5C 575.099,235.825 574.433,256.159 574,276.5C 558.53,280.267 542.697,283.267 526.5,285.5C 504.327,281.329 485.494,270.996 470,254.5C 471.165,217.843 480.165,183.176 497,150.5C 511.833,126.333 531.333,106.833 555.5,92C 567.772,85.3257 580.772,82.4924 594.5,83.5C 605.911,85.6861 617.244,88.5194 628.5,92C 652.948,101.96 673.448,117.126 690,137.5C 704.876,159.136 711.876,183.136 711,209.5C 701.117,232.022 684.284,239.856 660.5,233C 649.358,228.015 639.525,221.182 631,212.5C 628.746,208.993 626.746,205.327 625,201.5C 623.375,186.337 619.875,171.67 614.5,157.5 Z"/></g>
<g><path style="opacity:1" fill="#5d1100" d="M 599.5,127.5 C 594.626,128.654 589.626,129.82 584.5,131C 578.689,135.31 573.023,139.81 567.5,144.5C 563.201,150.635 558.701,156.635 554,162.5C 549.652,170.532 545.319,178.532 541,186.5C 531.27,204.54 528.604,223.54 533,243.5C 538.099,249.273 543.765,254.273 550,258.5C 554.692,258.499 559.525,258.332 564.5,258C 565.766,257.691 566.933,257.191 568,256.5C 568.499,260.486 568.666,264.486 568.5,268.5C 567.814,269.848 566.814,271.015 565.5,272C 550.768,276.101 535.768,278.101 520.5,278C 515.677,277.17 511.011,275.836 506.5,274C 500.998,270.415 495.331,267.081 489.5,264C 484.167,260 478.833,256 473.5,252C 476.341,217.506 485.841,184.673 502,153.5C 512.035,139.126 523.201,125.626 535.5,113C 547.137,103.346 560.137,96.0122 574.5,91C 584.163,89.055 593.83,89.055 603.5,91C 611.878,93.1778 620.211,95.5111 628.5,98C 646.643,106.815 663.143,117.982 678,131.5C 684.158,139.149 689.825,147.149 695,155.5C 698.912,165.321 702.246,175.321 705,185.5C 710.052,201.15 706.219,213.983 693.5,224C 684.467,229.544 674.8,230.877 664.5,228C 654.741,223.041 645.574,217.207 637,210.5C 634.417,207.003 632.084,203.336 630,199.5C 628.558,188.743 626.558,178.076 624,167.5C 618.392,152.953 611.726,138.953 604,125.5C 600.483,120.915 595.983,118.749 590.5,119C 587.537,121.271 586.87,124.104 588.5,127.5C 589.556,125.354 591.056,123.688 593,122.5C 595.341,124.016 597.508,125.683 599.5,127.5 Z"/></g>
<g><path style="opacity:0.992" fill="#110200" d="M 163.5,95.5 C 174.943,95.0349 186.276,95.8682 197.5,98C 206.481,102.314 212.648,109.147 216,118.5C 229.057,133.622 241.39,149.288 253,165.5C 265.57,190.976 278.903,215.976 293,240.5C 293.667,245.5 293.667,250.5 293,255.5C 290.064,261.222 287.731,267.222 286,273.5C 279.349,283.819 270.516,291.652 259.5,297C 250.619,299.831 241.619,300.165 232.5,298C 229.993,297.907 227.826,297.074 226,295.5C 225.647,294.328 225.813,293.162 226.5,292C 222.493,281.47 219.659,270.637 218,259.5C 212.471,246.581 207.138,233.581 202,220.5C 195.527,207.228 186.86,195.562 176,185.5C 176.125,192.254 177.125,198.921 179,205.5C 181.447,214.866 184.28,224.033 187.5,233C 187.344,237.136 186.177,240.969 184,244.5C 179.5,249 175,253.5 170.5,258C 152.753,266.41 135.086,266.41 117.5,258C 100.412,242.239 93.745,222.739 97.5,199.5C 97.6667,194.5 97.8333,189.5 98,184.5C 100.239,173.19 102.239,161.856 104,150.5C 109.333,141.167 114.667,131.833 120,122.5C 125.727,112.775 133.894,105.941 144.5,102C 150.979,99.8968 157.313,97.7301 163.5,95.5 Z"/></g>
<g><path style="opacity:1" fill="#5d1100" d="M 227.5,277.5 C 241.164,272.87 246.664,263.204 244,248.5C 243.202,245.107 242.202,241.774 241,238.5C 233.222,224.101 225.555,209.767 218,195.5C 210.909,186.921 202.409,179.921 192.5,174.5C 191.83,172.709 191.163,171.042 190.5,169.5C 188.495,163.663 184.495,161.496 178.5,163C 171.772,170.191 169.272,178.691 171,188.5C 172.666,203.169 176.499,217.169 182.5,230.5C 182.132,233.638 181.299,236.638 180,239.5C 175.167,244.333 170.333,249.167 165.5,254C 151.873,259.223 138.206,259.556 124.5,255C 115.031,248.853 108.531,240.353 105,229.5C 103.699,218.055 102.866,206.555 102.5,195C 104.587,181.891 106.42,168.724 108,155.5C 113.894,143.377 120.561,131.71 128,120.5C 147.18,102.223 169.68,96.3899 195.5,103C 198.167,104.333 200.833,105.667 203.5,107C 206.664,112.482 209.831,117.982 213,123.5C 224.381,137.213 235.381,151.213 246,165.5C 260.372,193.334 274.872,221.001 289.5,248.5C 286.392,255.717 283.559,263.051 281,270.5C 274.755,280.368 266.255,287.535 255.5,292C 247.571,293.363 239.571,293.863 231.5,293.5C 229.97,288.239 228.637,282.905 227.5,277.5 Z"/></g>
<g><path style="opacity:1" fill="#490400" d="M 599.5,127.5 C 605.895,134.956 610.228,143.623 612.5,153.5C 609.456,152.171 606.456,152.337 603.5,154C 591.577,163.923 582.744,176.09 577,190.5C 574.373,198.341 572.373,206.341 571,214.5C 570.325,232.667 569.491,250.667 568.5,268.5C 568.666,264.486 568.499,260.486 568,256.5C 566.933,257.191 565.766,257.691 564.5,258C 559.525,258.332 554.692,258.499 550,258.5C 543.765,254.273 538.099,249.273 533,243.5C 528.604,223.54 531.27,204.54 541,186.5C 545.319,178.532 549.652,170.532 554,162.5C 558.701,156.635 563.201,150.635 567.5,144.5C 573.023,139.81 578.689,135.31 584.5,131C 589.626,129.82 594.626,128.654 599.5,127.5 Z"/></g>
<g><path style="opacity:1" fill="#400b00" d="M 612.5,153.5 C 613.674,154.514 614.34,155.847 614.5,157.5C 613.833,157.167 613.167,156.833 612.5,156.5C 612.5,155.5 612.5,154.5 612.5,153.5 Z"/></g>
<g><path style="opacity:1" fill="#590e00" d="M 188.5,169.5 C 188.631,170.376 188.298,171.043 187.5,171.5C 184.793,170.422 182.126,169.422 179.5,168.5C 180.145,167.188 181.145,166.188 182.5,165.5C 184.911,166.361 186.911,167.694 188.5,169.5 Z"/></g>
<g><path style="opacity:1" fill="#490400" d="M 179.5,168.5 C 182.126,169.422 184.793,170.422 187.5,171.5C 188.298,171.043 188.631,170.376 188.5,169.5C 189.268,170.263 189.768,171.263 190,172.5C 190.483,171.552 190.649,170.552 190.5,169.5C 191.163,171.042 191.83,172.709 192.5,174.5C 202.409,179.921 210.909,186.921 218,195.5C 225.555,209.767 233.222,224.101 241,238.5C 242.202,241.774 243.202,245.107 244,248.5C 246.664,263.204 241.164,272.87 227.5,277.5C 225.286,269.641 223.12,261.641 221,253.5C 214.61,239.664 208.61,225.664 203,211.5C 195.375,198.865 185.875,187.698 174.5,178C 175.56,175.263 176.394,172.43 177,169.5C 177.671,168.748 178.504,168.414 179.5,168.5 Z"/></g>
</svg>
