<?xml version="1.0" encoding="UTF-8"?>
<!DOCTYPE svg PUBLIC "-//W3C//DTD SVG 1.1//EN" "http://www.w3.org/Graphics/SVG/1.1/DTD/svg11.dtd">
<svg xmlns="http://www.w3.org/2000/svg" version="1.1" width="862px" height="862px" style="shape-rendering:geometricPrecision; text-rendering:geometricPrecision; image-rendering:optimizeQuality; fill-rule:evenodd; clip-rule:evenodd" xmlns:xlink="http://www.w3.org/1999/xlink">
<g><path style="opacity:0.997" fill="#1c1c1b" d="M 680.5,126.5 C 680.427,128.027 681.094,129.027 682.5,129.5C 689.535,136.546 695.368,144.546 700,153.5C 706.989,169.453 710.822,186.12 711.5,203.5C 711.507,208.978 710.007,213.978 707,218.5C 694.972,234.375 679.472,239.208 660.5,233C 649.358,228.015 639.525,221.182 631,212.5C 628.746,208.993 626.746,205.327 625,201.5C 623.375,186.337 619.875,171.67 614.5,157.5C 614.34,155.847 613.674,154.514 612.5,153.5C 612.5,154.5 612.5,155.5 612.5,156.5C 609.072,156.547 606.072,157.713 603.5,160C 588.1,175.301 578.933,193.801 576,215.5C 575.256,236.067 574.422,256.567 573.5,277C 567.162,277.495 560.828,278.828 554.5,281C 545.186,282.609 535.853,284.109 526.5,285.5C 519.765,284.316 513.098,282.816 506.5,281C 500.434,277.976 494.768,274.476 489.5,270.5C 489.027,269.094 488.027,268.427 486.5,268.5C 479.332,264.498 473.665,258.998 469.5,252C 471.565,216.238 480.732,182.405 497,150.5C 508.712,132.285 522.879,116.118 539.5,102C 548.048,96.2249 557.048,91.2249 566.5,87C 575.746,84.1785 585.079,83.0118 594.5,83.5C 627.644,89.0005 656.311,103.334 680.5,126.5 Z"/></g>
<g><path style="opacity:1" fill="#f5f4e7" d="M 599.5,127.5 C 595.434,129.018 591.101,129.851 586.5,130C 571.233,139.266 559.4,151.766 551,167.5C 547.78,175.608 543.78,183.274 539,190.5C 535.467,199.235 532.801,208.235 531,217.5C 530.679,226.227 531.346,234.894 533,243.5C 537.865,248.7 543.032,253.533 548.5,258C 554.5,258.667 560.5,258.667 566.5,258C 567,257.5 567.5,257 568,256.5C 568.499,260.486 568.666,264.486 568.5,268.5C 567.814,269.848 566.814,271.015 565.5,272C 550.808,276.343 535.808,278.343 520.5,278C 515.648,277.287 510.981,275.954 506.5,274C 500.998,270.415 495.331,267.081 489.5,264C 484.167,260 478.833,256 473.5,252C 476.416,217.525 485.916,184.692 502,153.5C 514.078,134.19 529.245,117.69 547.5,104C 557.194,97.1542 567.86,92.4875 579.5,90C 596.351,89.2934 612.685,91.9601 628.5,98C 640.162,104.162 651.496,110.829 662.5,118C 684.851,134.853 699.018,157.02 705,184.5C 710.212,200.486 706.379,213.653 693.5,224C 684.453,229.53 674.786,230.863 664.5,228C 656.671,223.92 649.004,219.587 641.5,215C 636.813,210.457 632.98,205.291 630,199.5C 628.36,186.636 625.694,173.969 622,161.5C 616.923,150.347 611.59,139.347 606,128.5C 602.819,123.839 598.652,120.506 593.5,118.5C 588.002,119.338 586.335,122.338 588.5,127.5C 589.138,125.03 590.638,123.363 593,122.5C 595.669,123.577 597.836,125.243 599.5,127.5 Z"/></g>
<g><path style="opacity:0.996" fill="#1d1c1b" d="M 241.5,150.5 C 241.427,152.027 242.094,153.027 243.5,153.5C 247.183,157.025 250.35,161.025 253,165.5C 265.57,190.976 278.903,215.976 293,240.5C 293.667,245.5 293.667,250.5 293,255.5C 290.092,260.446 288.092,265.779 287,271.5C 280.396,282.771 271.229,291.271 259.5,297C 250.619,299.831 241.619,300.165 232.5,298C 229.993,297.907 227.826,297.074 226,295.5C 225.647,294.328 225.813,293.162 226.5,292C 222.493,281.47 219.659,270.637 218,259.5C 212.471,246.581 207.138,233.581 202,220.5C 195.527,207.228 186.86,195.562 176,185.5C 176.125,192.254 177.125,198.921 179,205.5C 181.447,214.866 184.28,224.033 187.5,233C 187.344,237.136 186.177,240.969 184,244.5C 179.5,249 175,253.5 170.5,258C 152.753,266.41 135.086,266.41 117.5,258C 108.909,250.076 102.743,240.576 99,229.5C 97.6673,214.519 97.3339,199.519 98,184.5C 100.239,173.19 102.239,161.856 104,150.5C 109.333,141.167 114.667,131.833 120,122.5C 125.727,112.775 133.894,105.941 144.5,102C 161.701,94.8991 179.368,93.5658 197.5,98C 206.481,102.314 212.648,109.147 216,118.5C 225.23,128.65 233.73,139.317 241.5,150.5 Z"/></g>
<g><path style="opacity:1" fill="#f5f4e7" d="M 227.5,277.5 C 241.687,272.274 247.187,261.941 244,246.5C 241.164,237.825 237.497,229.491 233,221.5C 228.014,212.865 223.014,204.199 218,195.5C 210.859,186.86 202.359,179.86 192.5,174.5C 191.83,172.709 191.163,171.042 190.5,169.5C 188.495,163.663 184.495,161.496 178.5,163C 173.097,168.144 170.43,174.478 170.5,182C 171.681,198.964 175.681,215.131 182.5,230.5C 182.132,233.638 181.299,236.638 180,239.5C 175.167,244.333 170.333,249.167 165.5,254C 151.873,259.223 138.206,259.556 124.5,255C 114.299,248.45 107.466,239.283 104,227.5C 103.606,216.328 103.106,205.162 102.5,194C 104.161,182.196 105.661,170.363 107,158.5C 108.109,154.281 109.775,150.281 112,146.5C 117.252,138.332 122.252,129.999 127,121.5C 136.952,110.169 149.452,103.336 164.5,101C 172.5,100.333 180.5,100.333 188.5,101C 193.814,102.155 198.814,104.155 203.5,107C 206.779,112.386 209.946,117.886 213,123.5C 224.381,137.213 235.381,151.213 246,165.5C 259.52,192.545 273.52,219.212 288,245.5C 286.241,268.278 274.741,284.112 253.5,293C 246.174,293.5 238.841,293.666 231.5,293.5C 230.373,288.118 229.039,282.784 227.5,277.5 Z"/></g>
<g><path style="opacity:0.702" fill="#83837c" d="M 680.5,126.5 C 681.906,126.973 682.573,127.973 682.5,129.5C 681.094,129.027 680.427,128.027 680.5,126.5 Z"/></g>
<g><path style="opacity:1" fill="#c5c4b5" d="M 599.5,127.5 C 605.912,134.991 610.246,143.657 612.5,153.5C 608.142,152.156 604.142,152.989 600.5,156C 583.672,171.822 573.839,191.322 571,214.5C 570.495,232.674 569.662,250.674 568.5,268.5C 568.666,264.486 568.499,260.486 568,256.5C 567.5,257 567,257.5 566.5,258C 560.5,258.667 554.5,258.667 548.5,258C 543.032,253.533 537.865,248.7 533,243.5C 531.346,234.894 530.679,226.227 531,217.5C 532.801,208.235 535.467,199.235 539,190.5C 543.78,183.274 547.78,175.608 551,167.5C 559.4,151.766 571.233,139.266 586.5,130C 591.101,129.851 595.434,129.018 599.5,127.5 Z"/></g>
<g><path style="opacity:0.718" fill="#85847e" d="M 241.5,150.5 C 242.906,150.973 243.573,151.973 243.5,153.5C 242.094,153.027 241.427,152.027 241.5,150.5 Z"/></g>
<g><path style="opacity:1" fill="#abaaa1" d="M 612.5,153.5 C 613.674,154.514 614.34,155.847 614.5,157.5C 613.833,157.167 613.167,156.833 612.5,156.5C 612.5,155.5 612.5,154.5 612.5,153.5 Z"/></g>
<g><path style="opacity:1" fill="#c5c4b6" d="M 190.5,169.5 C 191.163,171.042 191.83,172.709 192.5,174.5C 202.359,179.86 210.859,186.86 218,195.5C 223.014,204.199 228.014,212.865 233,221.5C 237.497,229.491 241.164,237.825 244,246.5C 247.187,261.941 241.687,272.274 227.5,277.5C 225.286,269.641 223.12,261.641 221,253.5C 214.61,239.664 208.61,225.664 203,211.5C 195.375,198.865 185.875,187.698 174.5,178C 175.56,175.263 176.394,172.43 177,169.5C 182.728,163.847 187.062,164.847 190,172.5C 190.483,171.552 190.649,170.552 190.5,169.5 Z"/></g>
<g><path style="opacity:0.447" fill="#898982" d="M 486.5,268.5 C 488.027,268.427 489.027,269.094 489.5,270.5C 487.973,270.573 486.973,269.906 486.5,268.5 Z"/></g>
</svg>
