<?xml version="1.0" encoding="UTF-8"?>
<!DOCTYPE svg PUBLIC "-//W3C//DTD SVG 1.1//EN" "http://www.w3.org/Graphics/SVG/1.1/DTD/svg11.dtd">
<svg xmlns="http://www.w3.org/2000/svg" version="1.1" width="862px" height="862px" style="shape-rendering:geometricPrecision; text-rendering:geometricPrecision; image-rendering:optimizeQuality; fill-rule:evenodd; clip-rule:evenodd" xmlns:xlink="http://www.w3.org/1999/xlink">
<g><path style="opacity:0.997" fill="#1a1918" d="M 608.5,271.5 C 609.906,271.027 610.573,270.027 610.5,268.5C 614.234,264.12 618.901,260.953 624.5,259C 636.122,256.679 647.122,252.679 657.5,247C 667.385,239.172 670.052,229.339 665.5,217.5C 660.121,218.006 654.787,218.839 649.5,220C 635.894,224.954 623.227,231.62 611.5,240C 600.368,249.464 589.534,259.297 579,269.5C 573.788,285.037 563.288,290.537 547.5,286C 525.22,283.693 504.886,276.359 486.5,264C 473.295,251.722 467.128,236.555 468,218.5C 469.427,213.878 471.427,209.545 474,205.5C 492.341,185.818 513.507,169.984 537.5,158C 565.391,143.687 594.724,139.354 625.5,145C 640.042,149.07 654.375,153.736 668.5,159C 683.409,166.586 696.576,176.42 708,188.5C 718.19,206.416 718.69,224.749 709.5,243.5C 702.685,251.482 695.685,259.316 688.5,267C 694.886,266.122 701.386,265.622 708,265.5C 728.859,265.361 738.193,275.695 736,296.5C 734.014,307.802 729.348,317.802 722,326.5C 717.175,332.254 711.175,334.921 704,334.5C 703.126,331.997 703.793,329.997 706,328.5C 709.498,317.808 707.998,307.808 701.5,298.5C 698.574,296.921 695.407,295.921 692,295.5C 688.197,296.461 684.364,297.294 680.5,298C 671.181,302.329 661.514,305.662 651.5,308C 639.733,310.294 628.066,309.961 616.5,307C 597.907,298.41 595.24,286.577 608.5,271.5 Z"/></g>
<g><path style="opacity:1" fill="#f5f4e7" d="M 672.5,210.5 C 669.145,210.909 666.145,210.242 663.5,208.5C 660.471,206.628 658.305,203.961 657,200.5C 654.989,195.302 653.489,189.969 652.5,184.5C 651.914,184.709 651.414,185.043 651,185.5C 650.784,192.965 652.617,199.965 656.5,206.5C 657.852,207.524 659.185,208.524 660.5,209.5C 643.807,212.36 626.807,215.027 609.5,217.5C 599.37,208.91 593.704,197.91 592.5,184.5C 591.914,184.709 591.414,185.043 591,185.5C 590.249,190.572 590.582,195.572 592,200.5C 595.603,207.257 599.77,213.591 604.5,219.5C 597.75,220.873 591.416,223.373 585.5,227C 578.443,231.521 571.443,236.021 564.5,240.5C 559.969,238.478 556.136,235.478 553,231.5C 548.605,225.434 544.605,219.1 541,212.5C 540.626,210.102 540.626,207.769 541,205.5C 539.989,204.663 538.822,204.33 537.5,204.5C 537.21,208.936 537.71,213.27 539,217.5C 543.667,224.167 548.333,230.833 553,237.5C 555.713,239.72 558.546,241.72 561.5,243.5C 557.975,247.183 553.975,250.35 549.5,253C 542.183,259.143 536.183,266.31 531.5,274.5C 530.675,275.386 529.675,275.719 528.5,275.5C 511.096,272.654 496.263,264.987 484,252.5C 475.993,241.813 472.659,229.813 474,216.5C 478.709,208.785 484.542,201.951 491.5,196C 518.182,171.325 549.516,155.659 585.5,149C 600.447,147.517 615.113,148.85 629.5,153C 641.637,156.601 653.637,160.601 665.5,165C 678.449,171.949 690.282,180.449 701,190.5C 708.852,201.577 711.852,213.91 710,227.5C 705.833,223.333 701.667,219.167 697.5,215C 689.45,211.89 681.116,210.39 672.5,210.5 Z"/></g>
<g><path style="opacity:0.997" fill="#1a1a19" d="M 112.5,314.5 C 112.5,315.5 112.5,316.5 112.5,317.5C 110.833,317.5 109.167,317.5 107.5,317.5C 93.0443,315.87 82.211,308.87 75,296.5C 74.3333,289.833 74.3333,283.167 75,276.5C 78.8445,267.16 85.0112,259.827 93.5,254.5C 80.7205,242.664 77.5539,228.664 84,212.5C 113.08,174.018 151.58,158.852 199.5,167C 239.52,172.709 270.353,192.543 292,226.5C 294,233.167 294,239.833 292,246.5C 287.692,260.783 281.026,273.783 272,285.5C 262.038,293.783 250.872,299.949 238.5,304C 232.845,304.819 227.345,304.319 222,302.5C 221.424,300.623 221.591,298.789 222.5,297C 218.747,289.407 215.58,281.573 213,273.5C 203.563,260.398 193.063,248.231 181.5,237C 167.625,227.703 152.625,220.703 136.5,216C 132.833,215.333 129.167,215.333 125.5,216C 122.528,217.141 120.861,219.308 120.5,222.5C 122.316,224.817 124.316,226.984 126.5,229C 134.833,232.667 143.167,236.333 151.5,240C 161.408,247.205 171.575,254.038 182,260.5C 188.153,269.822 187.986,278.989 181.5,288C 171.767,294.339 161.434,295.339 150.5,291C 143.153,288.657 135.819,286.323 128.5,284C 114.435,281.747 107.602,287.58 108,301.5C 109.012,306.038 110.512,310.371 112.5,314.5 Z"/></g>
<g><path style="opacity:1" fill="#f5f4e7" d="M 280.5,260.5 C 270.675,263.291 260.675,264.791 250.5,265C 245.566,260.574 241.233,255.74 237.5,250.5C 240.477,245.326 243.311,239.992 246,234.5C 247.33,226.227 247.83,217.893 247.5,209.5C 245.876,209.36 244.71,210.027 244,211.5C 245.234,224.956 241.734,236.956 233.5,247.5C 220.547,237.679 206.547,229.346 191.5,222.5C 190.614,221.675 190.281,220.675 190.5,219.5C 193.426,209.702 194.593,199.702 194,189.5C 192.667,188.167 191.333,188.167 190,189.5C 190.117,199.792 188.617,209.792 185.5,219.5C 174.015,215.01 162.681,210.344 151.5,205.5C 151.665,202.482 151.498,199.482 151,196.5C 149.989,195.663 148.822,195.33 147.5,195.5C 147.5,197.5 147.5,199.5 147.5,201.5C 146.596,202.209 146.263,203.209 146.5,204.5C 132.782,200.557 118.782,198.557 104.5,198.5C 110.013,192.824 116.013,187.658 122.5,183C 142.278,172.792 163.278,168.792 185.5,171C 206.853,172.008 226.853,177.675 245.5,188C 261.913,198.412 275.747,211.579 287,227.5C 287.667,232.167 287.667,236.833 287,241.5C 284.933,247.867 282.766,254.201 280.5,260.5 Z"/></g>
<g><path style="opacity:1" fill="#111110" d="M 663.5,208.5 C 662.791,209.404 661.791,209.737 660.5,209.5C 659.185,208.524 657.852,207.524 656.5,206.5C 652.617,199.965 650.784,192.965 651,185.5C 651.414,185.043 651.914,184.709 652.5,184.5C 653.489,189.969 654.989,195.302 657,200.5C 658.305,203.961 660.471,206.628 663.5,208.5 Z"/></g>
<g><path style="opacity:1" fill="#c3c2b3" d="M 104.5,198.5 C 118.782,198.557 132.782,200.557 146.5,204.5C 146.263,203.209 146.596,202.209 147.5,201.5C 147.453,204.568 146.953,207.568 146,210.5C 145.481,211.516 144.647,212.182 143.5,212.5C 138.371,210.402 133.038,209.235 127.5,209C 116.113,208.401 104.78,208.401 93.5,209C 96.3981,204.6 100.065,201.1 104.5,198.5 Z"/></g>
<g><path style="opacity:1" fill="#121211" d="M 564.5,240.5 C 568.956,242.892 573.623,245.058 578.5,247C 580.559,248.185 580.726,249.352 579,250.5C 573.178,248.061 567.344,245.728 561.5,243.5C 558.546,241.72 555.713,239.72 553,237.5C 548.333,230.833 543.667,224.167 539,217.5C 537.71,213.27 537.21,208.936 537.5,204.5C 538.822,204.33 539.989,204.663 541,205.5C 540.626,207.769 540.626,210.102 541,212.5C 544.605,219.1 548.605,225.434 553,231.5C 556.136,235.478 559.969,238.478 564.5,240.5 Z"/></g>
<g><path style="opacity:1" fill="#c4c3b4" d="M 151.5,205.5 C 162.681,210.344 174.015,215.01 185.5,219.5C 185.047,225.124 182.047,227.624 176.5,227C 168.001,221.777 159.001,217.61 149.5,214.5C 149.167,214.167 148.833,213.833 148.5,213.5C 149.516,210.718 150.516,208.051 151.5,205.5 Z"/></g>
<g><path style="opacity:1" fill="#c3c2b4" d="M 663.5,208.5 C 666.145,210.242 669.145,210.909 672.5,210.5C 665.694,211.986 658.694,213.153 651.5,214C 640.966,217.731 630.8,222.231 621,227.5C 616.323,224.98 612.489,221.646 609.5,217.5C 626.807,215.027 643.807,212.36 660.5,209.5C 661.791,209.737 662.791,209.404 663.5,208.5 Z"/></g>
<g><path style="opacity:1" fill="#c3c2b3" d="M 116.5,251.5 C 117.552,251.649 118.552,251.483 119.5,251C 114.94,246.806 110.106,242.972 105,239.5C 97.7149,232.169 95.5482,223.502 98.5,213.5C 105.443,212.206 112.443,212.206 119.5,213.5C 113.851,219.742 114.184,225.576 120.5,231C 129.77,236.468 139.436,241.135 149.5,245C 155.087,248.71 160.587,252.543 166,256.5C 167.033,259.217 166.2,261.051 163.5,262C 159.5,262.667 155.5,262.667 151.5,262C 140.041,257.391 128.375,253.891 116.5,251.5 Z"/></g>
<g><path style="opacity:1" fill="#f1f0e3" d="M 98.5,213.5 C 95.5482,223.502 97.7149,232.169 105,239.5C 110.106,242.972 114.94,246.806 119.5,251C 118.552,251.483 117.552,251.649 116.5,251.5C 111.103,251.215 105.77,251.549 100.5,252.5C 88.1962,243.886 83.6962,232.219 87,217.5C 90.244,214.695 94.0773,213.362 98.5,213.5 Z"/></g>
<g><path style="opacity:1" fill="#c4c3b4" d="M 698.5,223.5 C 694.809,229.874 691.309,236.541 688,243.5C 677.761,256.912 665.261,267.579 650.5,275.5C 644.757,277.121 639.09,276.621 633.5,274C 630.019,270.603 629.686,266.936 632.5,263C 644.393,260.469 655.226,255.635 665,248.5C 672.653,239.202 674.487,228.868 670.5,217.5C 680.931,215.051 690.264,217.051 698.5,223.5 Z"/></g>
<g><path style="opacity:1" fill="#c5c4b5" d="M 604.5,219.5 C 607.944,223.061 611.944,225.894 616.5,228C 617.451,228.718 617.617,229.551 617,230.5C 603.258,240.55 590.258,251.55 578,263.5C 574.501,267.672 571.834,272.338 570,277.5C 568.5,279 567,280.5 565.5,282C 552.856,281.116 540.523,278.949 528.5,275.5C 529.675,275.719 530.675,275.386 531.5,274.5C 536.183,266.31 542.183,259.143 549.5,253C 553.975,250.35 557.975,247.183 561.5,243.5C 567.344,245.728 573.178,248.061 579,250.5C 580.726,249.352 580.559,248.185 578.5,247C 573.623,245.058 568.956,242.892 564.5,240.5C 571.443,236.021 578.443,231.521 585.5,227C 591.416,223.373 597.75,220.873 604.5,219.5 Z"/></g>
<g><path style="opacity:1" fill="#c5c4b5" d="M 190.5,219.5 C 190.281,220.675 190.614,221.675 191.5,222.5C 206.547,229.346 220.547,237.679 233.5,247.5C 229.227,257.713 221.727,262.046 211,260.5C 203.413,249.577 194.413,239.91 184,231.5C 186.381,227.746 188.548,223.746 190.5,219.5 Z"/></g>
<g><path style="opacity:1" fill="#f2f1e4" d="M 698.5,223.5 C 700.928,225.492 703.094,227.825 705,230.5C 705.667,233.5 705.667,236.5 705,239.5C 697.537,250.928 688.371,260.762 677.5,269C 668.563,271.48 659.563,273.647 650.5,275.5C 665.261,267.579 677.761,256.912 688,243.5C 691.309,236.541 694.809,229.874 698.5,223.5 Z"/></g>
<g><path style="opacity:1" fill="#c4c3b4" d="M 237.5,250.5 C 241.233,255.74 245.566,260.574 250.5,265C 260.675,264.791 270.675,263.291 280.5,260.5C 277.146,269.373 272.146,277.207 265.5,284C 258.833,288 252.167,292 245.5,296C 240.09,298.382 234.424,299.549 228.5,299.5C 228.322,296.784 227.822,294.117 227,291.5C 223.518,285.533 220.851,279.199 219,272.5C 217.224,269.059 215.057,265.892 212.5,263C 215.652,264.186 218.985,264.519 222.5,264C 228.967,261.028 233.967,256.528 237.5,250.5 Z"/></g>
<g><path style="opacity:1" fill="#f2f1e4" d="M 179.5,268.5 C 179.586,269.496 179.252,270.329 178.5,271C 174.296,273.231 170.129,275.398 166,277.5C 156.192,275.256 146.358,273.09 136.5,271C 117.41,267.132 103.244,273.632 94,290.5C 93.3333,294.5 93.3333,298.5 94,302.5C 94.2735,304.329 95.1068,305.829 96.5,307C 96.2716,307.399 95.9382,307.565 95.5,307.5C 80.9751,302.451 75.9751,292.451 80.5,277.5C 83.2109,281.212 86.5442,284.212 90.5,286.5C 91.5827,285.635 91.7494,284.635 91,283.5C 86.2333,280.291 83.8999,275.958 84,270.5C 87.8,264.533 92.9666,260.2 99.5,257.5C 100.367,260.935 101.534,264.268 103,267.5C 104.808,269.843 106.974,270.51 109.5,269.5C 105.328,266.152 103.661,261.819 104.5,256.5C 120.16,257.132 135.16,260.632 149.5,267C 158.355,268.992 166.189,267.159 173,261.5C 176.716,262.432 178.883,264.766 179.5,268.5 Z"/></g>
<g><path style="opacity:1" fill="#f2f1e4" d="M 680.5,284.5 C 669.924,285.417 659.59,287.584 649.5,291C 639.167,291.667 628.833,291.667 618.5,291C 615.833,289 613.167,287 610.5,285C 609.177,284.184 608.511,283.017 608.5,281.5C 611.821,273.346 617.655,267.68 626,264.5C 626.886,277.057 633.719,282.723 646.5,281.5C 659.093,278.648 671.76,276.314 684.5,274.5C 683.752,278.006 682.419,281.34 680.5,284.5 Z"/></g>
<g><path style="opacity:0.529" fill="#83837c" d="M 610.5,268.5 C 610.573,270.027 609.906,271.027 608.5,271.5C 608.427,269.973 609.094,268.973 610.5,268.5 Z"/></g>
<g><path style="opacity:1" fill="#c4c3b4" d="M 179.5,268.5 C 182.568,274.585 181.568,280.085 176.5,285C 170.388,287.414 164.054,288.081 157.5,287C 148.3,284.933 139.3,282.266 130.5,279C 125.5,278.333 120.5,278.333 115.5,279C 106.346,282.815 102.18,289.649 103,299.5C 103.568,303.537 104.735,307.37 106.5,311C 102.324,311.33 98.6574,310.163 95.5,307.5C 95.9382,307.565 96.2716,307.399 96.5,307C 95.1068,305.829 94.2735,304.329 94,302.5C 93.3333,298.5 93.3333,294.5 94,290.5C 103.244,273.632 117.41,267.132 136.5,271C 146.358,273.09 156.192,275.256 166,277.5C 170.129,275.398 174.296,273.231 178.5,271C 179.252,270.329 179.586,269.496 179.5,268.5 Z"/></g>
<g><path style="opacity:1" fill="#f2f1e5" d="M 716.5,323.5 C 722.189,298.325 711.856,284.991 685.5,283.5C 686.279,279.702 687.613,276.202 689.5,273C 698.787,271.517 708.121,271.184 717.5,272C 720.329,273.247 722.995,274.747 725.5,276.5C 725.887,278.731 726.053,281.064 726,283.5C 727.512,281.043 728.846,281.043 730,283.5C 731.164,298.842 726.664,312.175 716.5,323.5 Z"/></g>
<g><path style="opacity:1" fill="#c4c3b4" d="M 608.5,281.5 C 608.511,283.017 609.177,284.184 610.5,285C 613.167,287 615.833,289 618.5,291C 628.833,291.667 639.167,291.667 649.5,291C 659.59,287.584 669.924,285.417 680.5,284.5C 680.735,285.097 681.235,285.43 682,285.5C 683.303,285.022 684.469,284.355 685.5,283.5C 711.856,284.991 722.189,298.325 716.5,323.5C 715.165,325.903 713.498,327.236 711.5,327.5C 714.582,317.057 713.415,307.057 708,297.5C 706.833,295 705,293.167 702.5,292C 689.111,289.341 676.445,291.341 664.5,298C 651.228,302.848 637.561,304.515 623.5,303C 617.013,301.508 611.513,298.341 607,293.5C 604.727,289.059 605.227,285.059 608.5,281.5 Z"/></g>
<g><path style="opacity:0.749" fill="#63635d" d="M 112.5,314.5 C 113.434,315.568 113.768,316.901 113.5,318.5C 111.265,318.795 109.265,318.461 107.5,317.5C 109.167,317.5 110.833,317.5 112.5,317.5C 112.5,316.5 112.5,315.5 112.5,314.5 Z"/></g>
</svg>
