<?xml version="1.0" encoding="UTF-8"?>
<!DOCTYPE svg PUBLIC "-//W3C//DTD SVG 1.1//EN" "http://www.w3.org/Graphics/SVG/1.1/DTD/svg11.dtd">
<svg xmlns="http://www.w3.org/2000/svg" version="1.1" width="862px" height="862px" style="shape-rendering:geometricPrecision; text-rendering:geometricPrecision; image-rendering:optimizeQuality; fill-rule:evenodd; clip-rule:evenodd" xmlns:xlink="http://www.w3.org/1999/xlink">
<g><path style="opacity:0.995" fill="#1c1c1b" d="M 307.5,214.5 C 308.002,216.085 309.002,216.585 310.5,216C 309.934,215.005 309.267,214.172 308.5,213.5C 299.902,191.41 300.736,169.743 311,148.5C 322.522,132.273 327.855,133.94 327,153.5C 327.714,156.595 328.714,159.595 330,162.5C 335.333,171.167 340.667,179.833 346,188.5C 341.215,161.413 349.049,138.913 369.5,121C 370.793,120.51 372.127,120.343 373.5,120.5C 374.829,127.793 375.995,135.127 377,142.5C 380.222,149.499 382.222,156.833 383,164.5C 385.41,170.318 388.077,175.985 391,181.5C 397.794,189.963 404.961,198.13 412.5,206C 415.772,207.608 418.772,209.608 421.5,212C 431.547,215.509 441.88,217.842 452.5,219C 453.846,221.794 453.346,224.294 451,226.5C 428.926,226.652 407.76,231.152 387.5,240C 377.184,246.129 370.351,254.962 367,266.5C 358.544,273.768 348.71,277.934 337.5,279C 289.856,282.691 268.69,260.858 274,213.5C 276.226,202.052 280.393,191.385 286.5,181.5C 287.651,180.269 288.817,180.269 290,181.5C 292.172,194.514 298.005,205.514 307.5,214.5 Z"/></g>
<g><path style="opacity:1" fill="#dcdbce" d="M 371.5,145.5 C 370.883,145.611 370.383,145.944 370,146.5C 369.751,145.376 369.251,144.376 368.5,143.5C 363.262,150.262 360.095,157.929 359,166.5C 358.389,179.845 358.556,193.178 359.5,206.5C 352.856,206.243 346.523,204.743 340.5,202C 332.86,191.218 325.86,180.051 319.5,168.5C 315.654,173.496 314.488,179.162 316,185.5C 318.255,198.521 321.755,211.188 326.5,223.5C 325.696,225.136 324.696,226.636 323.5,228C 318.833,228.667 314.167,228.667 309.5,228C 302.456,224.596 295.456,221.096 288.5,217.5C 287.122,224.294 287.622,230.96 290,237.5C 293.412,244.658 297.078,251.658 301,258.5C 305.31,262.645 309.477,266.978 313.5,271.5C 318.11,272.493 322.777,273.16 327.5,273.5C 301.094,275.527 284.927,263.527 279,237.5C 276.762,221.795 279.596,207.129 287.5,193.5C 291.671,203.845 298.004,212.678 306.5,220C 310.275,222.351 313.608,221.851 316.5,218.5C 313.264,213.631 311.097,208.297 310,202.5C 307.722,190.183 307.388,177.85 309,165.5C 311.037,157.755 314.87,151.088 320.5,145.5C 322.091,155.767 325.591,165.434 331,174.5C 335.454,179.628 339.121,185.295 342,191.5C 344.247,194.509 346.581,194.842 349,192.5C 349.899,181.514 350.566,170.514 351,159.5C 353.401,147.369 359.401,137.369 369,129.5C 370.234,134.767 371.067,140.1 371.5,145.5 Z"/></g>
<g><path style="opacity:1" fill="#f5f4e7" d="M 371.5,145.5 C 374.821,152.817 376.987,160.484 378,168.5C 380,173.167 382,177.833 384,182.5C 389.814,188.802 395.147,195.468 400,202.5C 410.041,214.534 422.875,221.367 438.5,223C 418.956,223.801 400.623,228.801 383.5,238C 379.033,241.465 374.867,245.298 371,249.5C 370.055,245.886 369.388,242.219 369,238.5C 368.311,237.643 367.478,236.977 366.5,236.5C 365.669,243.476 365.169,250.476 365,257.5C 364.3,261.066 362.467,263.9 359.5,266C 349.492,271.336 338.825,273.836 327.5,273.5C 322.777,273.16 318.11,272.493 313.5,271.5C 309.477,266.978 305.31,262.645 301,258.5C 297.078,251.658 293.412,244.658 290,237.5C 287.622,230.96 287.122,224.294 288.5,217.5C 295.456,221.096 302.456,224.596 309.5,228C 314.167,228.667 318.833,228.667 323.5,228C 324.696,226.636 325.696,225.136 326.5,223.5C 321.755,211.188 318.255,198.521 316,185.5C 314.488,179.162 315.654,173.496 319.5,168.5C 325.86,180.051 332.86,191.218 340.5,202C 346.523,204.743 352.856,206.243 359.5,206.5C 358.556,193.178 358.389,179.845 359,166.5C 360.095,157.929 363.262,150.262 368.5,143.5C 369.251,144.376 369.751,145.376 370,146.5C 370.383,145.944 370.883,145.611 371.5,145.5 Z"/></g>
<g><path style="opacity:1" fill="#84847d" d="M 308.5,213.5 C 309.267,214.172 309.934,215.005 310.5,216C 309.002,216.585 308.002,216.085 307.5,214.5C 308.167,214.5 308.5,214.167 308.5,213.5 Z"/></g>
</svg>
